<svg xmlns="http://www.w3.org/2000/svg" width="1080" height="1080" fill="none" viewBox="0 0 1080 1080"><path fill="#fff" d="M833.8 840.62c-.35.14-.7.38-1.04.38-5.06.03-10.12.06-15.18 0-3.12-.03-4.9-2.64-3.26-5.14 7.08-10.85 10.27-23.21 13.85-35.1-2.78-.76-5.8-1.17-8.43-2.4-3.85-1.83-6.46-4.72-6.03-9.58.3-3.34.06-6.74.06-10.77-2.69 2.29-4.93 4.1-7.06 6.03-7.07 6.4-14.59 12-23.75 15.26-3.31 1.18-6.1 3.82-9.1 5.83-.39.26-.9.79-.88 1.17.25 5.61-3.26 10-4.78 15.03a20 20 0 0 0-.83 4.14c-.28 3.87-1.18 4.56-4.99 5.05-8.12 1.03-16.19 2.43-24.31 3.46a191 191 0 0 1-16.15 1.43c-9.04.38-18.09.5-27.14.64a52 52 0 0 1-7.99-.5c-1.8-.27-2.5.28-3 1.97-2.38 8.06-5.06 16.05-7.29 24.16-.82 3.02-2.3 3.96-5.17 3.52-7.2-1.11-14.4-2.16-21.97-3.29-1.6 4.6-3.31 9.63-5.12 14.62a253 253 0 0 1-3.76 9.66c-.8 1.96-6.28 3.15-8.45 1.82-11.13-6.8-22.21-13.7-33.41-20.4a6.7 6.7 0 0 0-4.72-.5c-13.36 3.77-26.58 8.02-40 11.56-10.99 2.9-22.26 4.68-33.24 7.6-14.34 3.82-28.52 8.25-42.77 12.42l-.09.96c1 .68 2.13 1.23 2.98 2.06 2.57 2.52 5.74 4.76 7.38 7.8 5.04 9.35 7.44 19.6 8.89 30.08.41 2.99 1.88 6 1.6 8.87-.5 4.9 1.19 9.24 2.03 13.82.78 4.23 1.28 8.5 1.93 12.99 1.91 0 3.65.1 5.38-.02 3.57-.23 6.58.92 9.82 2.49 3.97 1.92 8.59 2.52 12.92 3.73 1.25.35 2.8.25 2.96 2.28.04.51 1.16 1.34 1.8 1.35 10.77.3 21.13 3.01 31.61 4.99 5.49 1.03 11.08 1.52 16.55 2.63 2.35.47 4.58 1.74 6.73 2.9 3.18 1.7 3.21 2.28.88 5.18-.6.75-1.15 1.55-1.37 1.83 2.12 4.8 4.15 9.48 6.26 14.13 1.01 2.22 2.42 4.27 3.26 6.53 1.34 3.62 2.63 7.47 1.34 11.24-.52 1.52-2.89 2.35-4.26 3.66-.6.57-.74 1.61-1.25 2.32-1.14 1.59-2.08 3.67-3.65 4.54a48 48 0 0 1-18.93 5.72c-6.46.65-12.88 1.91-19.36 2.23-6.7.34-13.43-.06-20.14-.26-4.42-.14-8.82-.48-13.22-.77-5.68-.37-11.36-.91-17.05-1.12a65 65 0 0 0-9.77.48c-10.09 1.19-19.35-2.4-28.89-4.6-12.43-2.88-23.68-8.66-35-14.14-14.12-6.83-27.86-14.48-41.5-21.63-3.92 1.84-8 4.13-12.35 5.61-1.91.66-4.53.03-6.6-.67-7.97-2.67-16.03-5.15-23.7-8.54-11.69-5.17-22.74-11.56-32-20.61-2.07-2.04-1.3-4.62-.58-6.9 2.35-7.53 5-14.97 7.22-22.53.81-2.77.73-5.8 1.2-10.01 2.06-.85 5.24-2.2 8.46-3.45.52-.2 1.34-.24 1.79.03 3.03 1.84 4.65.6 6.65-2.01 11.16-14.62 22.6-29.02 33.86-43.57 2.11-2.72 4.24-5.57 5.6-8.69 1.25-2.86 1.25-6.23 2.19-9.26 1.64-5.35-.55-10.17-1.67-15.14-.57-2.57-2.91-3.2-5.14-3.74-11.13-2.73-21.97-6.35-32.1-11.72a49.5 49.5 0 0 1-20.53-20c-4.78-8.64-10.04-17-14.88-25.6-1.13-2.01-1.44-4.49-2.19-6.95-.02.02-.65.23-1.19.58-3.62 2.4-7.7 2.86-11.25.72a257 257 0 0 1-21.17-14.28c-2.98-2.24-3.78-5.9-2.53-9.84 2.02-6.4 3.75-12.86 5.47-18.83l-2.8-4.82.72-.46q1.78 1.7 3.58 3.37c1.72 1.57 2.8.84 3.58-1.02 1.27-3.09 1.08-6.18-.03-9.25-.19-.5-.8-1.28-1.13-1.23-2.68.34-3.25-2.44-3.41-3.46-.44-2.66-1.78-3.12-4.68-2.79-3.51-9.11-6.96-18.3-10.6-27.41-1.62-4.02 1.11-6.23 3.1-8.94-3.46-3.61-7.72-5.19-12.78-5.82-12.56-1.59-25.2-3.04-37.51-5.81-6.78-1.53-12.97-5.63-19.43-8.56-2.2-1-4.37-2.05-6.6-2.94-3.54-1.42-4.95-4.2-5.29-7.75-.4-4.35-.72-8.7-1.26-13.03-.48-3.71-.89-7.49-1.97-11.04-.54-1.76-2.26-3.58-3.91-4.48-4.55-2.5-5.13-6.89-5.8-11.13-1.76-11.32-.55-22.43 2.78-33.38 2.77-9.13 5.56-18.26 7.98-27.49 3.27-12.46 7.13-24.7 12.1-36.6 2.48-5.96 4.87-11.99 7.56-17.86 3.96-8.64 7.5-17.57 12.36-25.68 9.29-15.5 17.74-31.54 29.53-45.45 9.18-10.84 18.55-21.6 26.84-33.1 5.11-7.1 11.75-12.38 17.66-18.5 2.77-2.87 5.45-5.81 8.2-8.69 5.77-6.03 12.9-10.04 20.37-13.45 1.5-.7 3.3-.78 4.98-.98 2.53-.3 5.1-.75 7.6-.58 6.6.44 13.16 1.24 19.75 1.73.83.06 1.98-.7 2.55-1.41 6.45-8.2 13.04-16.3 22.38-21.34a61 61 0 0 1 14.94-5.86c3.22-.74 6.92.92 10.4.94 5.17 0 9 3.18 13.68 4.98 3.97-4.14 8.02-8.47 12.21-12.65.7-.7 2.05-1.1 3.07-1.05 4.77.25 9.54.92 14.32 1.03 3.75.1 7.51-.64 11.27-.64 4.49 0 7.67-2.41 11.13-4.78 5.77-3.96 12.04-7.07 19.17-7.74 2.68-.25 3.61-2.38 5.12-3.96 2.76-2.87 5.73-5.55 8.24-8.62a121 121 0 0 0 8.78-12c2.86-4.54 5.24-9.37 7.8-14.02-5-6.19-4.8-7.26 2.06-12.54-8.5-8.03-14.78-17.72-20.61-27.97q-3.37 1.67-6.75 3.32c-4.32 2.08-5.36 1.89-7.94-2.26a167 167 0 0 1-7.86-13.63 181 181 0 0 1-7.38-16.8c-.95-2.5-.85-5.4-1.16-8.12-.6-5.25-1.5-10.5-1.6-15.75-.11-4.86.36-9.78 1.1-14.6 1.18-7.7 2.92-15.3 4.17-22.99 1.47-9.15 6.43-16.76 10.5-24.78 1.96-3.86 3.47-8.07 6.06-11.45 5.02-6.57 11.73-11.42 18.82-15.54 9.47-5.5 19.79-9.01 30.35-11.81 10-2.66 19.96-5.53 30.04-7.85a145 145 0 0 1 19.86-3.13c5.88-.52 11.84-.11 18.09-.11 3.71-13.38 6.04-27.6 11.1-41.02l1.28.1c.2 1.7.8 3.47.55 5.1-1.93 12.03-4.06 24.03-6.06 36.05-.62 3.74 2.9 4.39 4.94 5.14 5.6 2.04 8.96 5.7 10.48 11.31 1 3.68 2.21 7.32 2.93 11.04.33 1.69-.94 3.87-.28 5.25.56 1.16 3.13 1.2 4.33 2.26 5.08 4.5 9.74 9.46 12.76 15.62 6.07 12.4 11.98 24.89 17.88 37.37a126 126 0 0 1 4.82 11.3c.66 1.84.65 3.95.73 5.95.3 6.96.34 13.94.8 20.88.32 4.72.95 9.46 1.93 14.1.33 1.58 2.12 2.88 3.32 4.25.31.35.9.46 1.36.66 8.29 3.69 8.78 8.4 6.62 16.4-.85 3.14-3.77 5.66-5.2 8.7-1.41 3-4.56 5.63-2.74 9.66.39.88.19 2.03.2 3.05.23 12.23.36 24.46.72 36.68.07 2.6.88 5.18 1.45 7.75.5 2.32.97 4.24-2.33 5.13-1.93.52-3.4 3.1-5.3 3.4-4.5.7-9.15.82-13.73.77a768 768 0 0 1-31.11-.71c-4.26-.21-8.47-1.46-12.72-2.16a2.2 2.2 0 0 0-1.66.46c-9.16 8.5-18.53 16.8-27.3 25.67-4.17 4.2-7.11 9.59-10.71 14.35a5740 5740 0 0 1-24.83 32.53c-.48.63-1.36.97-2.03 1.43l3.88 17.62c-1.48.94-2.77 1.3-2.87 1.88-.78 4.39-1.94 8.84-1.78 13.23.17 4.65 1.61 9.26 2.59 13.87 1.5 7.06 3 14.13 4.68 21.15.42 1.76 1.13 3.78 2.39 4.95 8.24 7.62 16.44 15.33 25.17 22.37 3.1 2.5 7.65 3.2 11.55 4.7 9.72 3.72 19.45 7.45 29.2 11.1 2.72 1.02 5.34 1.44 7.9-.93 2.59-2.4 5.94-4 8.34-6.54 3.94-4.16 7.32-8.86 11.07-13.2a27.5 27.5 0 0 0 5.4-9.77c.27-.81.69-1.67 1.28-2.26 13.2-13.25 26.52-26.36 39.6-39.71a428 428 0 0 0 19.23-21.13c3.15-3.68 5.4-8.12 8.45-11.88 1.52-1.86 3.7-3.52 6.64-2.87.47.1 1.09-.42 1.64-.66 10.36-4.38 20.67-8.92 31.12-13.08a707 707 0 0 1 32.84-12.25c7.65-2.6 15.55-4.5 23.37-6.54 1.65-.43 3.48-.22 5.22-.18 6.86.18 13.72.6 20.57.57 13.25-.07 26.5-.34 39.74-.6 6.74-.12 13.5-.3 20.23-.64 2.92-.14 5.8-1 8.71-1.04 2.18-.04 4.4.61 6.55 1.16.5.12 1.1 1.07 1.08 1.62-.01.48-.76 1.25-1.3 1.35-10.44 2.06-19.77 7.8-30.6 8.82-9.17.86-18.23 2.77-27.36 4.12-1.68.25-3.42.04-5.67.04 3.22 5 5.87 9.68 9.07 13.95 3.92 5.24 8.53 9.99 12.4 15.26 1.85 2.5 2.75 5.73 3.9 8.7.21.56-.28 1.64-.78 2.18-4.2 4.67-9.69 4.86-14.54.55-2.13-1.9-4.2-3.88-6.38-5.72-2.08-1.76-4.27-3.38-6.72-5.3 2.4 11.38 2.84 22.55 2.5 33.77-.08 2.78-2.92 4.86-6.23 4.7-2.97-.15-4.2-1.55-4.28-4.67-.28-10.72-2.54-20.8-9.76-29.17a4.3 4.3 0 0 0-2.4-1.36c-4.73-.69-9.5-1.22-14.87-1.87.65 2.3.88 5.23 2.24 7.5 5.18 8.59 5.95 17.76 4.46 27.37-.12.77.05 1.62.24 2.4a4.2 4.2 0 0 1-4.24 5.22c-3.53-.08-7.23-3.09-8.7-6.64-1.6-3.82-3.32-7.62-5.32-11.25-.94-1.7-2.6-3.03-4.04-4.4-1.8-1.69-4.08-2.98-5.52-4.91-3.44-4.64-8.44-5.19-13.22-4.61-9.47 1.14-18.84 3.12-28.25 4.77-1.64.28-2.75.9-3.26 2.8-4.83 18.13-12.46 35.17-21.23 51.64-5.9 11.1-12.98 21.55-19.2 32.48-3.8 6.67-6.76 13.8-10.41 20.58-7.9 14.65-16.63 28.74-28.81 40.33-.94.9-2.41 1.2-3.57 1.9-1.43.89-4.03.52-3.73 3.42.03.39-.72 1.06-1.24 1.27-5.07 2.14-9.99 4.96-15.77 4.5-1.67-.13-3.3-.77-4.95-1.2-4.17-1.07-8.24-.67-12.33.56-1.62.49-2.88-.14-2.63-2.21.08-.77.2-1.53-.36-2.88-.7.75-1.96 1.46-2.03 2.27-.4 4.6-.45 9.2-.73 13.8-.14 2.27.88 3.57 2.48 5.18 3.95 3.93 7.8 4.01 12.79 2.03a78 78 0 0 1 26.78-5.75c.84-.02 1.77-.86 2.47-1.52 4-3.86 8.7-3.83 12.15.62 1.44 1.84 2.93 1.9 4.89 2.22a446 446 0 0 1 22.05 4.26c1.28.28 2.27 1.7 3.48 2.44 3.75 2.3 7.98 2.56 12.2 3.35 8.66 1.6 17.31 3.28 25.69 6.43 10.25 3.86 20.89 6.71 31.35 10.04.84.26 1.6.79 2.73 1.36.2-.27.7-.97 1.25-1.62 1.47-1.74 3.12-2.61 5.5-1.65 7.4 2.97 14.86 5.83 22.29 8.74a3 3 0 0 1 .99.69c2.3 2.3 5.1 4.33 6.74 7.04 1.34 2.2 3.1 2.45 4.96 2.7 4.75.65 8.4 3.21 11.72 6.35.5.48.26 1.72.33 2.36 5.12.94 10.2 1.62 15.15 2.88 4.43 1.13 5.96 3.08 5.1 7.42-1.4 6.92-3.41 13.76-8.52 19.07-1.79 1.86-3.93 3.15-6.79 2.64-.52-.1-1.34.54-1.77 1.06-2.23 2.65-4.38 5.36-6.73 8.27 2.47-.15 4.9-.55 7.29-.39 8.9.6 17.4-1.17 25.96-3.38 3.4-.88 7.18-.54 10.77-.32 1.07.07 2.97 1.65 2.91 2.42-.13 1.83 1.56 4.07-1.1 5.63-1.97 1.17-3.58 2.98-4.85 4.07 2.12 6.7 4.03 12.92 6.06 19.1 1.28 3.89 2.57 7.8 4.25 11.52.54 1.2 2.27 2.08 3.65 2.65 2.83 1.18 3.78 2.8 3.11 5.99-1.49 7.1-2.54 14.29-3.77 21.44-.44 2.58-.73 5.2-1.39 7.71-.23.87-1.4 1.5-2.1 2.25-.5.55-1.25 1.07-1.4 1.72-1.28 5.44-2.42 10.9-3.7 16.35-.23.94-.66 2.06-1.38 2.62-3.42 2.69-4.55 6.47-5.58 10.43-.5 1.9-1.47 3.93-2.83 5.28-.84.84-2.88.85-4.3.65-3.32-.47-5.46.13-6.01 3.98-.27 1.9-1.47 3.66-2.29 5.6 1.36.87 2.64 1.85 4.07 2.56 2.44 1.2 2.9 3.36 2.03 5.4a418 418 0 0 1-9.21 20.22 19 19 0 0 1-4.54 5.95c-.92.78-3.02.27-4.57.13-1.2-.12-2.35-.56-3.53-.86l.13-.2c.03-.02-.06.08-.14.18zM580.22 653.7c.73-.9 1.29-1.78 2.04-2.43.69-.59 1.59-1.3 2.39-1.3 2.84.02 5.7.52 8.52.4.97-.03 2.5-1.18 2.7-2.07.88-3.7 1.79-7.48 1.86-11.24.08-4.48-.86-9.01 2.9-12.6.32-.3.27-.96.43-1.45 1.12-3.42.9-3.9-2.44-4.88-1.91-.56-3.78-1.4-5.73-1.62-6.74-.76-13.52-1.2-20.27-1.93-10.12-1.1-18.6-6.03-25.56-12.97-6.05-6.02-10.71-13.41-16.54-19.68-3.37-3.62-5.79-9.53-12.61-7.93-.15.04-.29.12-.31.13-.06.97.07 1.94-.2 2.79-2.92 9.04-5.78 18.1-8.97 27.06-.73 2.02-.3 3.32.49 4.97.44.92.8 2.4.37 3.12-2.05 3.32-1.1 6.17 1.01 8.88q5.56 7.1 11.2 14.13c1.16 1.43 2.23 2.98 3.61 4.16 2.31 1.98 5 3.54 7.24 5.59 2.41 2.2 4.52 4.75 6.7 7.21 2.45 2.76 5.52 3.24 8.92 2.56.49-.1.96-.33 1.45-.38 5.32-.55 10.67-.9 15.97-1.65 4.95-.7 9.85-2 14.83 1.14zM367.78 373.8c3.68-3.67 7.83-6.76 12.75-7.62 8.87-1.54 13.36-8.78 20.34-13.57-14.1-2.94-35.3 10.13-42.3 17.57l9.2 3.62z"/><path fill="#000" d="M277.19 749.28c1.62 5.44-.48 10.43-1.97 15.45a91 91 0 0 1-5.96 14.96c-.68 1.37-.47 2.01.69 3 6.63 5.68 14.09 10.2 21.09 15.34 1.86 1.37 3.54-.37 4.88-1.22 1.04-.67-.45-1.99-1-2.73-3.4-4.6-6.53-9.28-7.96-14.93-.73-2.88 1.09-4.76 2.27-6.92.1-.19.58-.37.75-.3 3.14 1.48 2.86-1.47 3.4-2.83 1.66-4.18 5.66-7.52 9.85-7.15 17.74 1.6 35.59 2.6 52.69 8.33 2.9.97 6.01 1.33 8.82 2.65 1.43.67 2.26-.1 3.14-1 4.7-4.86 9.44-9.69 14.12-14.55 4.61-4.8 9.24-9.58 13.77-14.45 7.88-8.46 15.68-17.01 23.55-25.5q9.95-10.72 19.93-21.42c-2.3-2.62-1.06-5.49 2.98-6.5 3.63-.92 7.27-1.81 10.95-2.5 13.55-2.53 27.13-4.94 40.69-7.47 5.07-.95 10.1-2.19 15.17-3.14 2.2-.42 2.03-2.4 2.96-3.68 4.04-5.63 8.75-10.57 15.17-13.55 2.84-1.32 5.71-2.54 8.66-3.86-12.11-6.75-21.99-15.67-30.38-26.67-2 4.79-2.97 9.85-5.44 14.2-4.38-1.73-2.88-5.23-2.24-8.13 4.28-19.38 7.6-39.04 13.76-57.93 1.92-5.9.49-9.26-3.28-13.37-7.37-8.06-14.18-16.63-21.27-24.95q-7.17-8.39-14.42-16.73c-1.14-1.32-2.3-2.6-3.53-3.99-3.16 6.39-7.77 11.73-12.08 17.28a121 121 0 0 1-33.62 29.68 84 84 0 0 1-30.45 11.07c-9.29 1.45-18.26 4.55-27.17 7.64a393 393 0 0 0-68.26 31.4c-1.72 1-1.75.96-4.21 0 24.52-16.18 49.9-29.66 77.82-39.18-3.54-.85-6.77-1.63-10-2.39-.17-.03-.44.03-.56.16-3.46 3.86-3.88.05-4.58-1.98-1.5-4.37-1.56-8.9-1.41-13.52.2-6.67.73-13.3 1.5-19.9.9-7.7 1.84-15.4 3.13-23.03 2.19-12.99 4.22-26.03 7.21-38.87 7.2-30.89 17.48-60.61 33.23-88.27.46-.8 1.12-1.54.95-2.53-.5-2.87 1.34-4.17 3.48-5.29q.15-.07.26-.17c4.07-3.4 9.4-3.55 14.09-5.33 4.83-1.84 9.9-3.02 14.93-4.31 11.95-3.1 24.12-4.93 36.3-6.67 3.64-.52 7.52.09 11.01-.85 4.47-1.2 7.36 1.15 10.48 3.21 15.68 10.4 30.5 21.88 43.44 35.61.55.58.82 1.42 1.71 1.82-.18-4.79.23-9.3-.35-13.68-.27-1.98-2.65-3.74-4.21-5.48-6.85-7.58-13-15.73-19.3-23.74-5.99-7.6-12.6-14.9-16.66-23.65-3.2-6.9-9.42-6.92-14.88-9.23-5.6-2.37-10.11-1.23-14.65 2.6a29 29 0 0 1-9.07 4.95c-.29.1-.72.21-.8.43-1.89 5.12-5.83 1.88-8.59 1.72-6.97-.38-13.94-.62-20.91-1.03-1.95-.12-2.92 1.5-4.06 2.42-14.73 11.98-29.29 24.18-42.47 37.91a11 11 0 0 0-2.44 3.76c-2.75 7.38-7.08 13.93-11.1 20.63-8.33 13.88-17.48 27.25-25.66 41.23-9.55 16.3-19.13 32.6-28.9 48.78-6.9 11.43-12.29 23.55-17.58 35.75-2.7 6.23-5.05 12.72-9.2 18.23-3.86 5.14-4.14 11.38-5.44 17.28-2.32 10.59-4.27 21.26-6.38 31.9-1.85 9.35-2.79 18.83-4.25 28.24-1.3 8.37-2.77 16.73-3.94 25.12-.8 5.76-2.27 11.49-1.05 17.4.44 2.12.58 3.24 3.52 2.7 9.74-1.85 19.58-3.15 29.38-4.7 5.34-.85 10.67-1.8 16.01-2.7.5-.09 1.05-.38 1.5-.26 1.01.28 2.6.05 2.78 1.4.2 1.46-1.55 1.26-2.27 1.43-13.5 3.2-27.03 6.28-40.56 9.34-.88.2-1.9-.1-2.76.13-1.61.43-3.7.26-2.8 3.32.62 2.12-1.25 4.03-2.5 5.72-1.72 2.33-2.26 4.53-1.87 7.6.61 4.85.46 9.81.8 14.73.16 2.1-1.17 2.47-3.24 1.65-1.94-.77-3.38-1.8-4.07-3.76-.37-1.03-.77-1.21-2.01-1.04a19 19 0 0 0-6.51 2.22c-4.83 2.63-9.9 2.87-14.75.1-3.79-2.18-8.06-1.57-12.04-2.59-.76-.2-1.98.11-2.68-.23-5.42-2.73-11.77-2.89-16.96-6.24-.85-.55-1.7-1.25-2.76-1.1-3.85.55-6.88-.96-9.73-3.38-3.17-2.72-6.9-4.88-10.4-6.9-6.7-3.87-6.37-10.23-7.54-16.08-1.22-6.05-.74-12.28-.68-18.44.01-1.2-.32-1.75-1.4-2.3-7.63-3.9-9.4-11.1-9.71-18.67-.67-16.13 2.53-31.8 6.52-47.33 4.76-18.53 11.32-36.45 18.63-54.1 7.32-17.7 15.92-34.79 24.96-51.68a581 581 0 0 1 22.05-37.5c10.77-16.95 23.18-32.46 38.3-45.73 10.54-9.25 21.74-17.57 34-24.39 7.84-4.36 16.34-5.4 25.22-4.48 4.08.43 8.16.82 12.2 1.47.84.14 1.32.35 2-.6 6.28-8.76 14.8-14.83 24.57-18.96 8.92-3.77 18.33-4.78 27.9-2.3.5.12 1.06.22 1.42.53 3.14 2.66 5.33 1.36 7.89-1.22 2.87-2.9 6.32-5.23 9.58-7.73a10.7 10.7 0 0 1 7.88-2.08c6.93.78 13.92 1.01 20.8 2.3.96.19 2.05.5 2.86-.5 3.66-4.54 8.87-6.68 13.98-8.98 1.4-.63 2.27-1.1 1.96-3.15-.37-2.45 1.4-3.84 3.95-3.99 2.71-.16 5.27.44 7.69 1.59 2.21 1.04 3.6.83 5.22-1.4a306 306 0 0 1 17.26-21.23c2.47-2.82 5.4-5.33 7.18-8.74.62-1.18 1.77-1.66 3.11-2.75-3.77-.15-5.78-2.26-7.13-5.2-.28-.61-.53-1.06-1.5-.71-.66.23-1.68-.2-1.83-1.2-.13-.9-.04-1.67.81-2.45 2.63-2.44 5.84-3.95 8.88-5.86-7.79-5.91-12.02-14.36-16.4-22.6-1.3-2.43-2.34-2.47-4.44-1.56a86 86 0 0 1-8.5 3.25c-3 .95-4.58-.2-5.17-3.31-.25-1.29-.29-2.75-1.34-3.65-6.7-5.77-9.24-13.81-11.5-21.82-2.28-8.04-3.4-16.32-3.98-24.7q-.5-7.55-.47-15.09a104 104 0 0 1 4.79-30.34c.64-2.1.43-3.29-1.6-4.7-5.33-3.75-10.83-7.2-16.33-10.68-1.89-1.2-2.52-2.3-1.47-5.15 4.42-11.96 12.68-21.02 21.1-30.08a247 247 0 0 1 57.96-45.86c2.38-1.36 3.46-.66 4.75 1.04 2.16 2.84 4.4 5.6 7.01 8.16.42-3.9-.2-7.5-1.28-11.08-.7-2.32.26-3.85 2.69-4.87 8.8-3.72 17.63-7.32 26.74-10.23a277 277 0 0 1 38.45-9.34c6.24-1.06 12.57-1.3 18.84.44 3.56 1 4.69 2.84 3.64 6.53-.1.4-.1.82-.2 1.2-.83 2.7-.78 2.56 1.16 3.43 4.07 1.83 8.08 3.79 12.1 5.73 1.1.53 2.15 1.18 3.21 1.78 4.43 2.54 5.36 4.6 3.82 9.4a4960 4960 0 0 1-14 42.92c-2.04 6.14-2.18 6.15 3.63 9 2.93 1.45 4.44 4.24 6.39 6.54 9.24 10.87 15.58 23.52 21.46 36.39 3.36 7.36 7.19 14.58 9.12 22.54.43 1.77.86 3.36-.02 5.43-2.32 5.44-2.33 11.38-2.87 17.21-.5 5.45-.42 10.88-.56 16.33-.07 2.87 1.85 4.87 2.84 7.27.36.87 1.4.6 2.21.73 5.65.87 10.44 3.72 13.29 8.43 3.29 5.43 1.9 8.7-3.72 13.77-3.3 2.98-7.27 5.01-10.8 7.67-.53.4-1.2.66-1.66.16-.61-.66.22-1.03.55-1.49 2.97-4.1 6.61-7.7 8.56-12.55 1.48-3.68-.19-7.09-3.56-9.42a41 41 0 0 0-6.8-3.55c-4.77-2.1-6.3-6.03-6.44-10.83-.27-9.59 1-19.07 2.7-28.44.71-3.9.26-7.11-1.4-10.46-7.86-15.77-15.04-31.88-24.3-46.92-1.6-2.6-3.55-5.01-4.95-7.71-3.54-6.8-9.36-9.5-16.65-10.08-2.6-.21-5.33-.56-7.72-1.53-3.66-1.49-7.36-1.57-11.16-1.54-5.77.05-11.56.16-17.33-.02-10.73-.33-21.43.36-32.12.83-9.94.44-20.08-.12-29.8 2.76-14.36 4.28-27.2 11.2-37.58 22.27a340 340 0 0 1-7.32 7.53c-4.53 4.54-4.54 10.76-6.1 16.4-.05.19 0 .41-.03.6-1.36 7.51-1.36 7.43 6.3 7.82 5.1.26 10.2.85 15.29 1.18 1.4.08 1.47.73 1.25 1.77-.87.24-1.73.55-2.62.73-6.77 1.42-13.46.46-20.1-.93-1.22-.25-1.82-.45-1.97 1.17a156 156 0 0 0 1.35 40.14c.19 1.18.38 2.61 2.44 2.37 6.3-.75 12.65-1.12 18.91-2.07 1.87-.29 3.83-1.5 3.08-4.5-.7-2.85-.83-5.86-.97-8.81-.43-9.33-1.16-18.65 0-27.97.63-.57 1.29-1.1 1.88-1.72 1.35-1.42 2.14-.67 2.67.72.24.66.34 1.4.35 2.12q.34 17.74.64 35.5c.05 2.32-1.2 3.83-2.98 5.18-6.07 4.63-13.28 5.23-20.46 5.76-4.24.32-4.14.03-3.07 4.2 1.6 6.2 4.62 11.86 6.81 17.83.5 1.35 2.36.78 3.28 2.02.92 1.26.48 3.88 2.74 3.72 1.53-.1 2.97-1.24 4.48-1.84 6.44-2.57 12.93-4.9 19.77-6.25 2.83-.57 5.28.24 6.86 2.25 6.14 7.76 10.2 16.7 13.33 26 1.95 5.76-4.46 11.95-10.43 10.48-1-.24-1.76-.2-2.6.35-1.71 1.1-3.46 2.13-5.42 3.32 3.23 3.53 7.12 5.58 11.23 7.37.65.28 2.15.17 1.69 1.63-.3.95-1.21 1.1-2.06.87-4.55-1.23-6.69-.35-8.6 4.92-2.89 7.93-9.1 14.25-14.46 20.85-2.83 3.49-5.8 6.86-8.9 10.48 2.75 1.16 4.95 2.88 7.91 3.32 2.3.35 4.16 1.89 5.59 3.95 12.86 18.53 26.94 36.16 40.2 54.69 2.83-3.52 4.85-7.38 7.45-10.86 8.33-11.17 17.7-21.47 26.82-31.98 6.24-7.19 11.81-15.03 18.89-21.41 6.8-6.14 14.64-10.2 24.37-8.27 1.1.23 2.27.2 3.4.15 9.78-.43 19.54.45 29.3.8 5.01.19 10.08-.02 15.06.68 1.97.28 1.97-1.24 2.42-2.06 3.54-6.4 4.35-13.23 2.86-20.39-.47-2.3-1.1-4.6-.9-6.99.14-1.73-.75-2.28-2.07-1.62-1.9.94-3.17.62-3.92-1.3-.52-1.31 1.68-5 3.12-4.9 2.65.2 2.47-1.37 2.4-3.07-.31-6.99.4-13.92 1.09-20.86.07-.7.4-1.36.58-2.06.17-.64.53-1.17 1.2-1.22.72-.05 1.03.57 1.26 1.16a20 20 0 0 1 1.2 7.48c-.35 12.45 1.47 24.74 2.38 37.1.56 7.61-.98 14.79-7.3 20.06-.39.32-.83.75-1.28.8-8.25.86-16.33 3.16-24.7 3.07-8.33-.1-16.67.24-24.98-.13-4.98-.22-10.05-.17-14.97-1.5-1.4-.37-2.81-.42-2.03 2.09.64 2-.68 3.95-1.69 5.71-8.05 14.07-18.03 26.68-29.4 38.2-8.65 8.77-17.2 17.64-27.14 24.75l.06.59c6.1 1.28 5.92 6.15 5.32 10.49-.9 6.46-1.86 13.05-5.14 18.91-.64 1.15-.12 1.93.28 2.86 4.84 10.96 7.41 22.38 6.8 34.4-.1 2.1.58 3.52 2.23 4.68 3.64 2.57 6.59 5.92 9.47 9.24 1.44 1.65 2.9 2.74 4.89 3.2 9.53 2.26 18.54 6 27.63 9.5 3 1.15 5.41 3.38 8.63 4.2 2.81.72 5.42 2.18 8.2 3.1 1.67.56 3.27 1.1 4.43 2.52 1.1 1.34 2.7.9 4.1 1.2 1.67.33 2.43-.22 3.65-1.5 4.42-4.67 7.7-10.22 12.05-14.95a368 368 0 0 0 9.21-10.51c4.69-5.5 9.68-10.65 14.55-15.94 5.87-6.37 11.94-12.53 17.92-18.78 5.36-5.6 10.32-11.57 15.9-16.9 4.13-3.94 7.74-8.31 11.86-12.25 3.73-3.57 6.98-7.64 11.03-10.94.94-.77 1.56-1.84 2.95-1.72.56.05 1.02-.07 1.32-.58 2.7-4.62 7.74-5.8 12.05-7.9 6.16-2.98 12.5-5.56 18.86-8.1 5.13-2.06 10.38-3.84 15.6-5.67 7.74-2.73 15.43-5.6 23.27-8.03a189 189 0 0 1 16.57-4.35c4.2-.9 8.37-2.06 12.6-2.9 1.45-.28 1.79-.06 2.46 1.34.4.83 1.32.48 1.95.39 6.23-.9 12.51-.95 18.78-1.32 3.85-.23 7.68-1 11.53-1.18 5.93-.26 11.85-.67 17.8-.7q6.47-.04 12.9.3c5.99.32 11.96.88 17.95 1.28 3.95.26 7.9.4 11.86.6 1.95.1 3.75 1.36 5.81.78.15-.05.51.34.63.6.33.71-.23.84-.74.97-2.8.73-4.53 3.04-6.77 4.49-4.08 2.64-7.71 5.94-12.32 7.93a68 68 0 0 1-17.77 4.83c-7.3 1.03-14.66.54-21.97.86-6.6.29-13.34.71-19.67 2.94a166 166 0 0 1-10.22 3.33 2.9 2.9 0 0 0 2.4 1.68c-2.16 3.27-5.84 4.97-9.35 8.13 6.85-.31 12.68 1.2 18.2 3.14a31.5 31.5 0 0 1 12.2 7.7c4.21 4.32 7 9.47 10.18 14.4.78 1.22 1.36 1.05 1.98.15 1.45-2.09 2.72-4.31 4.5-6.15.98-1-.22-1.56-.62-1.94a83 83 0 0 1-9.59-10.52c-3.67-4.81-7.63-9.75-9.01-15.99-.31-1.4-.65-3.27.71-3.64 1.37-.37 3.37.54 4.1 1.96 3.96 7.62 9.68 14.08 14.2 21.34a50 50 0 0 0 4.04 5.46c1.9 2.26 1.23 4.68-.72 6.84-2.12 2.34-5.76 3.2-6.45 7.04-.26 1.5-4.22.95-6.58-.68-3.5-2.41-6.26-5.56-8.78-8.88-1.17-1.55-2.63-2.7-4.08-4.06 1.5 5.7 1.3 11.56 1.52 17.3.17 4.37-.4 8.9-.5 13.33-.1 3.89-2.1 4.68-5.47 5.9 2.65-3.54-.08-6.3-.28-9.3-.4-6.2-1.65-12.3-1.86-18.56-.13-3.9-.18-7.93-.72-11.88-.18-1.39-.67-1.94-1.57-2.38-4.2-2.09-8.7-3.24-13.3-4.1a32 32 0 0 1-5.52-1.47c-3.66-1.44-5.94.74-8.57 1.7 3.15 6.1 9.36 6.63 14.9 8.22 2.5.72 4.91 1.6 7.17 2.84 2.7 1.49 3.98 3.99 4.13 6.95.3 5.65 1.56 11.2 1.45 16.93-.05 2.54.28 5.25.5 7.8.63.52 1.07.1 1.43-.2.67-.55 1.42-1.18 2.08-.3.58.8-.14 1.5-.74 2.1a10 10 0 0 0-1.55 1.92c-.8 1.39-1.4 3.65-3.28 2.93a6.3 6.3 0 0 1-3.72-3.91c-2.26-7.07-2.87-14.37-3.67-21.66a33 33 0 0 1-.18-6.02c.14-1.93-.83-3.58-3.23-4.07a21 21 0 0 1-8-3.57c-.38 2.61 1.3 4.35 2.16 6.4.46 1.12.58 2.39.2 3.77-.44 1.61-.42 3.45 1.97 4.05.68.17 1.22 1.04 1.76 1.65.7.78.43 1.44-.56 1.4-1.09-.03-2.66-.83-3.09.25-.6 1.53-.6 3.4-.52 5.09.22 3.95.27 8.27-1.26 11.53a15.6 15.6 0 0 1-7.62 7.15q-.7.3-1.4.57c-5.3 1.81-8.97-.65-9.91-6.3a31 31 0 0 1-.45-6.36c.05-1.48-.64-2.48-1.96-3.47-5.57-4.2-11.18-8.43-14.76-14.63-1.52-2.63-3.83-1.45-5.7-1.26-8.04.83-15.85 3.06-23.94 3.65-1.71.12-3.38.73-5.14.58-1.45-.12-1.53 1.19-1.84 2.03a221 221 0 0 1-8.38 19.69q-4.15 8.5-8.27 17c-4.26 8.8-8.86 17.4-13.26 26.1-3.72 7.36-7.94 14.47-11.38 21.97-.76 1.65-2.34 2.75-2.71 4.71a43 43 0 0 1-5.96 14.68c-3.46 5.5-5.5 12.25-9.94 16.69-9.02 9.03-15 20.53-24.7 28.91-3.25 2.81-6.76 3.8-11.01 3.39a5.7 5.7 0 0 1 2.7-3.05c8.07-4.65 13.06-12.25 18.76-19.2 3.9-4.77 5.7-10.77 9.16-15.75 1.9-2.75 3.19-5.82 5.25-8.5 2.04-2.66 3.64-5.78 5.39-8.73 1.2-2.02 2.4-4 4.23-5.55 1.89-1.6 2-4.14 3-6.19a662 662 0 0 0 8.07-17.42 240 240 0 0 1 5.64-11.7c4.19-8.14 8.16-16.38 12.42-24.48 2.33-4.43 4.14-9.08 6.62-13.46 1.76-3.1 3.4-6.41 4.72-9.78 1.58-4.04 4.61-7.41 5.7-11.53.7-2.57 2.98-3.36 3.95-5.34.96-1.97 1.2.6 2.26.3 2.36-.64 4.8-1.3 7.17-1.86 2.88-.68 5.81-1 8.64-1.72 3.8-.96 7.67-1.33 11.5-2 4.81-.86 8.52-.19 12.07 4.65a89 89 0 0 0 10.07 11.27c1.84 1.76 3.5 3.08 6.08 3.86 3.08.94 2.66 4.65 3.48 7.29.12.38 0 .82.03 1.23.11 1.75-.02 3.76 1.6 4.82 2.1 1.38 4.07-.67 6.16-.78.72-.04.44-.83.38-1.27-.77-5.4-.1-10.89-1.21-16.26-.31-1.5.88-2.89.28-4.52-2.66-7.29-5.77-14.27-11.19-20.04-1.37-1.46-1.89-3.52-3.18-5.14-1.1-1.39.77-1.73 1.68-2.09 7.62-3.04 15.8-4.8 22.54-9.89 1.13-.85 2.7-1.12 4-1.88-9.55 1.96-18.18 6.97-28.15 9.03 1.34-2.1 2.34-3.17 5.66-4.78 3.76-1.82 7.66-3.39 11.48-5.07 4.06-1.8 8.25-3.16 12.37-4.72 5.61-2.13 11.43-3.7 17.12-5.62 9.65-3.25 19.66-3.33 29.67-3.79 5.15-.24 10.33-.88 15.39-1.9 4.72-.95 9.26-2.77 13.94-3.94 1.89-.47 2.5-2.15 3.96-3.04-4.4.36-8.8.16-13.1.05-5.63-.15-11.31-.3-16.97-.78-3.94-.34-8.08-.14-11.98-.6-6.17-.74-12.02 1-18.04 1.2-5.49.17-11.03.82-16.54 1.03-5.29.2-11.04 1.13-15.77-.56-5.75-2.04-9.51 1.58-13.9 2.78-4.29 1.18-8.7 2.68-12.92 4.47-3.98 1.7-8.25 2.73-12.37 4.13-4.18 1.42-8.34 2.94-12.51 4.4L750 376.9c-4.38 1.53-8.86 2.87-13.12 4.7-5.2 2.23-10.54 4.01-15.85 5.92-.47.16-1 .13-1.18.77-1.66 5.94-6.98 9.17-10.33 13.87-2.39 3.35-5.4 6.26-8.16 9.34a2837 2837 0 0 1-11.5 12.73c-3.7 4.09-7.4 8.2-11.17 12.22-2.63 2.8-5.7 5.22-8.01 8.24-2.26 2.94-5.12 5.26-7.48 8.1-1.92 2.34-4.28 4.51-6.44 6.77-2.55 2.66-5.21 5.21-7.75 7.9-4.08 4.3-8.08 8.66-12.2 12.92-3.86 4-7.78 7.85-12.23 11.2-1.57 1.18.12 2.11.82 2.9 2.28 2.55 3.58 5.68 5.65 8.35l-.57.53c-.62-.52-1.27-1.01-1.85-1.57-1.92-1.88-1.91-1.76-4.74-1.73-1.02.01-2.68-.5-2.96-1.21-1.82-4.51-6.32-3.2-9.51-4.46-3.53-1.4-7.16-2.65-10.72-4.02-4.5-1.75-8.99-3.56-13.38-5.56-4.22-1.93-8.81-2.01-13.32-2.95 4.49 5.39 8.92 10.82 13.48 16.15 5.74 6.73 10.76 14 16.02 21.1 1.7 2.3 3.12 4.92 5.2 6.79 4.02 3.6 4.82 8.35 4.56 13.05-.16 2.94.94 5.1 2.19 7.08 4.09 6.55 5.74 13.84 7.08 21.22.64 3.52 3.03 4.26 5.8 4.65 2.9.42 5.77.8 8.54 2.12-1.16.64-2.33.06-3.4.33-.88.22-2.45-.9-2.48 1.34 0 .67-1.29.7-2.12.22-.89-.5-1.8-1.06-2.77-1.3-1.73-.43-3.16-.63-2.98 2.18.15 2.5-.42 5.07-.9 7.56-.3 1.6.02 2.59 1.63 3.02 2.19.6 4.12 2.44 5.98 2.7 1.52.22 3.58-2.49 5.72-2.82 6.13-.96 12.29-2.16 18.56-1.44.5.06 1 .3 1.5.33 1.2.08 2.92-.27 2.98 1.35.07 1.64-1.4 2.57-3 2.98-5.41 1.36-10.97 1.62-16.49 2.14-3.14.3-3.88 1.35-2.73 4.21 5.74 14.25 1.87 21.63-6.04 31.15-4.53 5.46-10.18 4.32-15.82 3.6-2.43-.32-4.93.14-7.31-.8-.92-.35-1.1.47-1.2 1.28-.36 3.04-.54 6.13-1.27 9.08-1.46 5.85 2.78 8.54 6.1 11.82 2.18 2.16 4.17 3.54 7.87 3.34 10.59-.58 21.24-.44 31.85-.13 9 .26 17.97 1.1 26.95 1.79 5.38.4 10.75.96 16.12 1.57 1.05.11 2.26.65 2.57-.65.3-1.2 1.12-2.67-.5-3.82-1.48-1.07-2.82-2.36-4.21-3.57-8.22-7.2-13.02-16.95-19.17-25.68-5.05-7.17-9.42-14.68-11.41-23.36-.99-4.3-1.84-8.58-.15-12.88.59-1.46.05-2.65-1.02-3.44-1.38-1.03-1.32-2.25-.87-3.55 1.06-3.1 5.35-5.86 8.64-5.68 1.27.07 3.44-.31 3.66.2 1.21 2.7 4.15 4.31 4.69 7.26.27 1.46.74 1.72 2.1 1.86 8.79.92 17.54 2.19 26.14 4.32a5.25 5.25 0 0 1 3.97 4.54c.24 1.56 1.19 1.96 2.27 2 8.57.3 16.64 3.16 24.93 4.85 10.6 2.16 20.91 5.43 31.03 9.26 1.42.53 3.04.54 4.41 1.15 2.6 1.17 4.24 1.33 5.08-2.17.41-1.74 2.68-1.54 4.35-1.03 6.9 2.07 13.25 5.35 19.46 8.92q3.46 1.98 6.97 3.88c.48.26.86.78 1.54.1 1-1 1.3-.25 1.51.75.8 3.52 5.28 7.85 8.76 8.54 4.85.97 9.1 3.04 12.08 7.1.7.94 1 .79 1.88.45 10.47-4.06 21.19 2.93 22.78 13.41 1.14 7.42.16 13.19-5.54 18-3.17 2.67-6.87 4-11 3.7-2.58-.2-5.07-.6-4.54 3.53 3.52-.6 7.15-1.24 10.78-1.87.8-.13 1.61-.4 2.4-.37 4.62.28 8.93-.9 13.34-2.11 3.76-1.03 7.78-1.32 11.59.44 4.16 1.93 5.07 5.78 5.54 9.71.43 3.55.17 7.03-4 8.53-1.37.5-.77 1.28-.47 2.19a155 155 0 0 1 4.77 17.91c.34 1.65.65 3.35.29 4.88-.53 2.25.66 2.59 2.29 2.99a67 67 0 0 1 6.7 1.9c2.72.97 2.58 1.49 1.26 4.03-.96 1.83-.3 4.16-.77 6.3-2.02 9.22-5.11 18.12-7.82 27.12-2.34 7.76-4.65 15.68-8.33 22.83-2.96 5.74-4.96 11.93-8.35 17.42-1.2 1.92-3.3 2.62-5.58 2.68-.9.02-1.83-.28-2.67.37-2.39 1.87-2.3 3.15.38 4.62.72.4 1.43.92 2.2 1.08 1.72.36 1.57 1.2 1.28 2.67-1.06 5.36-3.47 10.17-5.78 15.02-2.23 4.66-4.61 9.25-6.92 13.87-2.63 5.28-7.44 6.7-12.72 6.82-3.54.07-5.67-4.26-3.75-7.22.78-1.21 1.85-1.57 3.45-1.02 5.74 1.98 5.75 1.89 8.2-3.75 3.53-8.1 7.66-15.9 12.17-23.67-3.29-.54-4.85-2.2-4.07-5.66l-6.33 11.52c-4.07 7.42-8.53 14.57-14.23 20.88a5.3 5.3 0 0 0-1.31 3.33c-.27 3.9-.58 3.91-4.46 3.87-4.74-.05-9.37-.28-13.67-2.56-1.76-.93-2.65-2.3-1.34-3.89 4.06-4.94 4.58-11.19 6.58-16.9 2-5.72 3.56-11.6 5.95-17.2 1.29-3.05.95-3.4-2.47-3.44-6.6-.05-8.2-2.15-7.36-8.93.32-2.62.4-5.3.8-8.36-6.18 4.96-13.15 7.92-19.21 12.32-1.32.95-2.63 1.64-3.74-.29-.48-.85-1.22-1.01-2.12-.82-10.14 2.27-20.03 5.25-29.28 10.08-.08.04-.1.17-.49.94 10.53-.6 19.9-4.54 29.81-6.34-3.34 1.9-6.59 4.02-10.07 5.64a5.4 5.4 0 0 0-3.38 4.56c-.86 5.75-1.85 11.47-2.73 17.2-.35 2.27-1.71 3.44-3.7 4.41-4.69 2.29-9.75 2.95-14.8 3.59a1061 1061 0 0 1-26.17 3.03c-7.45.76-14.91 1.33-22.37 1.95-3.89.32-7.78.66-11.68.84-1.75.08-2.4.9-2.93 2.47-2.73 7.95-4.88 16.06-7.06 24.17-.5 1.88.9 4.46-1.5 5.6-3.15 1.5-6.6 1.02-9.96.7-7.09-.68-14.12-1.67-20.96-3.7-1.83-.55-1.42 1.01-1.58 1.79a275 275 0 0 1-4.52 18.77 10 10 0 0 1-1.72 3.51c-.84 1.12-1.5.93-2.26.26-1.62-1.4-4.4-1.23-5.05.84-.7 2.22-2.85 1.67-4 2.91-.66.72-1-.86-1.53-1.26-.92-.7-2.44-.67-3.24-1.45a4.05 4.05 0 0 1-1.01-4.76c.57-1.33.36-2.43-1.22-3.27a162 162 0 0 1-24.38-16c-1.67-1.31-3.18-1.95-5.53-1.16-15.78 5.25-32 8.94-47.98 13.54-18.78 5.4-37.42 11.24-56.07 17.04l-2.27.7c2.3 1.67 4.9 2.7 6.83 4.71 1.07 1.12 1.52 2.1.78 3.72-1.59 3.45.44 6.77 1 10.06 1.26 7.24 1.52 7.09-5.4 9.17-7 2.1-14.1 3.75-21.12 5.69-1.97.54-2.57-.15-3.33-1.48-1.22-2.14-2.37-4.36-4.15-6.07-.87-.83-2.13-2.15-3.43-.9-1.38 1.32-.17 2.24.7 3.54 1.59 2.37 4.42 4.26 3.72 7.9-.12.6 1.8 1.1 2.41 2.36 4.84 10.03 9.2 20.26 13.6 30.48.16.38.24.8.78.9.83-.74.38-1.51.12-2.35-3.07-10.02-6.4-19.94-10.7-29.5-.8-1.8-.66-2.6 1.37-3.15 8.5-2.29 16.96-4.69 25.44-7.08.65-.18 1.3-.9 1.55.4.4 2.1.88 4.18 1.23 6.29.21 1.34-.4 1.89-1.85 2.19a91 91 0 0 0-16.18 4.98c-1.11.45-3.37.74-2.62 2.63.64 1.6 2.55 1.95 4.3 1.5 4.89-1.24 9.86-2.24 14.58-4.09 2.04-.8 2.82-.63 3.13 2.01.99 8.08 2.47 16.11 3.7 24.17.33 2.1 1.97 2.7 3.53 3.32 5.34 2.08 10.52 4.56 16.12 5.95.47.12.9.42 1.66.79a188 188 0 0 0-13.71 10.32 37 37 0 0 0-6.97 7.8c-.7.98-1.63 2 .65 2.58 1.56.4 1.7 2.76 3.35 3.39.1-.15.3-.33.25-.42-1.86-4.22-1.77-4.1 2.38-7.15 6.08-4.47 12.4-8.64 17.97-13.75 1.15-1.06 2.11-1.25 3.57-.83 15.69 4.51 31.9 6.54 47.82 9.92a74 74 0 0 1 17.12 6.04c2.34 1.15 5.26 6.5 4.59 9.07-1.02 3.92 1.44 7.04 2.03 10.58.99 5.87 1.92 11.7 1.68 17.67-.04 1.15-.44 1.76-1.38 2.67-3.3 3.2-7.17 5.67-10.58 8.73-3.96 3.54-9.36 4.36-14.44 5.22-14.92 2.5-30 2.79-45.1 3.38-10.9.42-21.8.41-32.71.33-10.17-.06-20.29-1.27-30.48-1.37-5.36-.05-10.1-3.5-14.97-5.76a773 773 0 0 1-61.7-31.95c-1.42-.82-2.3-1.16-3.15.46-1.28 2.46-4.33 2.82-5.9 4.63-2.53 2.92-4.86 1.84-7.7.99-19.05-5.71-37.07-13.81-54.58-23.16-3.49-1.86-7.2-3.32-10.85-4.87-5.02-2.12-6.14-5.08-5.02-10.36a148 148 0 0 1 5.15-18.39c2.08-5.93 4.33-11.8 7.26-17.39.58-1.1 1.17-2.49 2.54-2.26 1.53.26 1.36 1.82 1.35 3.06-.02 6.33-2.32 12.14-4.12 18.06-1.6 5.26-3.37 10.46-5.02 15.7-.3 1-.71 2.1.8 2.65 9.36 3.46 17.96 8.56 27 12.73 11.53 5.32 23.11 10.55 34.66 15.87 1.4.65 2.34.62 3.4-.69 3.16-3.9 6.82-5.01 11.9-3.14 9.14 3.37 17.87 7.62 26.67 11.74a1646 1646 0 0 1 34.61 16.76c8.79 4.36 17.37 9.08 27.27 10.69 1.92.32 3.3-.57 4.96-.75 10.96-1.15 21.98-.97 32.97-1.38 19.37-.72 38.8-.04 58.1-2.38 4.54-.56 8.87-1.76 12.64-4.5 1.43-1.05 2.79-2.21 3.22-3.98.6-2.44 2.84-2.96 4.5-4.17.6-.43.86-.18 1.03.47.53 1.93 1.96.77 3.18 1.15a176 176 0 0 0-4.76-17.31c-4.93 3.64-9.44 7.43-14.42 10.45-2.73 1.66-6.26 2.02-9.43 2.93-2.44.7-4.92 1.26-7.32 2.05-1.22.4-2.53.46-3.03 2.41-.36 1.4-2.64 1.27-4.22 1.27-11.56 0-23.12.09-34.66-.03-10.92-.12-21.82.32-32.73.66-6.6.21-12.96-1.82-19.48-2.01-7.59-.23-11.42-5.83-15.92-10.43a215 215 0 0 1-18.8-21.63c-.19-.25-.48-.46-.56-.73-1.62-5.18-6.25-6.03-10.55-7.28-26.98-7.84-53.08-17.88-78.03-30.84a109 109 0 0 1-15.55-9.55c-3.35-2.54-4.93-6.16-5.79-10.12-.3-1.43 2.97-4.9 4.4-4.31 2.62 1.08 2.19-1.23 2.53-2.03 3.23-7.45 6.49-14.88 10.28-22.07 8.07-15.32 17.38-29.82 28.44-43.18 1.09-1.31 2.09-2.7 3.31-4.27-4.32-1.12-8.46-2.1-12.55-3.26-7.63-2.18-14.78-5.55-21.76-9.27-.91-.5-2.07-1.8-2.49.65-.22 1.29-1.18.85-2.11.22-3.3-2.2-5.9-5.14-8.5-8.02-8.47-9.4-14.29-20.5-19.98-31.67-.87-1.7-1.78-3.45-.97-5.38.65-1.55-.58-2.33-1.17-3.25-1.23-1.98-2.45-4.22-4.26-5.52-2.11-1.5-3.88 1.47-6.08 1.56-2.07.08-3.99 1.72-5.6-1.77-.85-1.88-4.75-2.36-7.25-3.53-6.47-3.04-13.28-5.6-18.49-10.74-2.2-2.18-4.4-4.64-5.67-7.4-1.31-2.86.22-5.97 1.2-8.9 2.23-6.76 5.3-13.15 8.53-19.46 3.02-5.85 4.55-6.14 9.8-2.32l-.1-.1zm326.49-220.11c-3.94-6.4-8.5-11.8-13.26-16.97-11.7-12.67-23.77-24.98-34.65-38.39a542 542 0 0 0-8.9-10.72c-3.27-3.82-3.55-9.35-4.56-14.28-3.16-15.28-7.92-29.87-17.06-42.76-1.62-2.28-3.5-4.6-2.82-7.8.26-1.24-.7-1.64-1.61-2.24-11.58-7.72-23.17-15.42-34.62-23.33-2.29-1.57-4.51-1.48-6.8-1.05q-12.7 2.3-25.36 4.69c-16.25 3.08-32 8.14-48.08 11.84-.72.16-.93.45-1.21 1.07-1.77 4-3.74 7.9-5.41 11.94-6.6 15.92-12.55 32.09-17.3 48.66a359 359 0 0 0-7.52 30.7c-1.85 9.56-3.8 19.1-5.47 28.7-1.45 8.31-2.57 16.67-3.81 25.01-.8 5.43-1.62 10.86-2.34 16.3-.71 5.35-1.32 10.72-1.99 16.08-.18 1.44.1 2.37 1.92 2.2 7.66-.73 15.42-.1 23.03-1.36 13.91-2.31 26.2-8.51 37.73-16.41 12.48-8.55 23.14-19.07 33.33-30.15 2.06-2.25 2.7-4.02.97-6.56-.62-.92-1.06-2-1.39-3.06-1.59-5.13-4.94-9.6-5.3-15.2-.14-2.08-2.52-3.19-4.72-2.49-2.8.89-5.55 1.9-8.34 2.76-1.46.46-2.8-.05-3.37-1.41-.54-1.3.62-2.03 1.58-2.63 2.38-1.51 5.15-1.93 7.81-2.58 1-.24 1.25-.27 1.4-1.58.46-4.05 3.28-5.26 6.07-2.61 2 1.9 4.3 3.41 6.07 5.7 8.83 11.41 18.41 22.2 27.94 33.03 9.9 11.24 18.77 23.31 28.75 34.49 1.21 1.36 2.2 3.45 3.73 3.93 1.56.49 2.95-1.6 4.44-2.52 2.17-1.32 4.4-2.12 6.54-.4 3.72 2.98 7.43 6.04 9.78 10.33 1 1.8 1.77 2.22 3.33.4 8-9.3 17.18-17.3 27-24.62.9-.67 1.01-1.2.24-2.24a162 162 0 0 1-6.48-9.59c-1.03-1.62-1.88-3.6-.5-5.35.97-1.21 1.24-1.75.15-3.16-1.07-1.4-1.26-3.48.5-4.91 1.32-1.1 2.34.1 2.64.97 1.3 3.71 3.05 2.12 4.96.68.89-.67 2.02-1.02 2.87-1.73 2.03-1.72 3.83-1.26 5.8.17 3.85 2.82 6.54 6.67 9.22 10.48 1.06 1.51 1.66 1.6 3.26.87 3.6-1.6 7.42-2.63 11.83-2.89zM325.97 369.91c-5.36-.23-9.9 1.72-14.13 4.52-13.98 9.3-27.06 19.64-38.8 31.76a264 264 0 0 0-30.86 38.78c-8.33 12.68-15.9 25.83-23.23 39.13-13.02 23.72-24.64 48.05-34.1 73.42a289 289 0 0 0-10.65 34.16c-2.43 10.25-4 20.7-4.8 31.3-.34 4.64.75 7.72 3.58 10.88 1.51 1.68 2.27 3.89 4.88 4.63 18.54 5.28 37.04 10.72 55.58 16.03 7.72 2.21 15.5 4.24 23.64 6.46-.63-2.22-.97-4.01-.76-5.85.62-5.46.93-10.97 1.96-16.35 2.28-11.95 3.76-24.02 5.39-36.06 1.06-7.86 1.98-15.77 4.2-23.37 4.33-14.84 6.1-30.54 14.4-44.08.84-7.07 4.63-13.01 7.43-19.33 3.1-7.02 5.92-14.18 9.22-21.1 6.2-13.06 13.82-25.35 20.82-37.99 9.73-17.58 19.9-34.85 31.67-51.14 5.71-7.9 11.67-15.6 17.5-23.4 2.02-2.73 1.38-5.18-1.52-5.82q-5.55-1.21-11.1-2.38c.42 2.08 1.7 3.75 1.72 5.88.01 1.5-.75 2.32-2.03 2.55-1.47.28-2.88-1.33-2.68-1.94.73-2.32-1.55-5.01 1.2-6.93-3.04-.68-5.85-1.2-8.58-1.95-3.73-1.03-6.95-1.09-10.13 1.92-2.91 2.76-5.54 5.8-8.64 8.35-1.4 1.14-2.9 2.82-4.86 1.61-1.93-1.2-1.65-3.22-1.18-5.25.76-3.29 2.2-6.12 4.87-8.43zM851.4 801.82q3.3-4.84 8.66-5.96c.92-.19 1.28-.68 1.62-1.54 1.3-3.3 2.9-6.48 4.06-9.83 1-2.9 3.74-5.12 4.34-7.65 1.96-8.15 3.84-16.34 5.82-24.5 2-8.25 3.85-16.6 7.18-24.43 1.05-2.48.5-2.47-1.55-2.5-5.28-.06-10.65.15-15.3-3.11-.2-.14-.4-.24-.76-.05-2.28 1.18-2.64 1.03-3.21-1.43-.82-3.55-1.55-7.12-2.36-10.67a1120 1120 0 0 0-3.7-15.72c-.4-1.65.04-3.14.95-4.35 1.06-1.41 1.9.17 2.8.56s1.21-.5 1.73-.92c2.96-2.34 6.01-4.54 9.61-5.81.7-.25 1.31-.21 1.05-1.34-.94-3.9-2.16-4.7-6.13-3.8-1.09.26-2.2.35-3.3.54-7.73 1.3-14.95 4.36-22.46 6.45-6.95 1.92-14.02 3.62-19.92 8.1-.48.36-1.52.3-1.13 1.66 1.03 3.45.83 7.06.96 10.63.36 10.27-.98 20.42-1.74 30.6-.44 6.03-2.13 12.07 1.25 17.94.99 1.71 1.89 2.46 3.73 2.22 1.63-.2 3.09.39 3.39 1.95.69 3.6 3.25 1.56 4.92 1.7 1.9.15 1.56-1.83 1.81-2.93a87 87 0 0 1 3.2-11.39c.74-1.94 1.6-3.73-.19-5.57-.55-.56-.65-1.22.26-1.76.62-.36 1.14-.53 1.56.12.7 1.04 1.67 1.14 2.83 1.28 1.52.2 2.55 1.2 2.3 3.02-.53 3.82-.9 7.67-1.52 11.47-1.3 7.9-2.53 15.84-4.1 23.69-1.33 6.6-1.53 13.5-5.05 19.55 1.75.65 3.14 1 4.63-.68 2.26-2.55 4-2.18 6.35.87-.76.99-1.86.7-2.86.72-.8.03-1.83.53-1.6 1.02 1.5 3.21-1.77 1.45-2.8 3.05l3.27 2.53c.53.4 1.04 1.25 1.73.24 1.2-1.76 2.83-3.4 3.46-5.35a185 185 0 0 1 4.73-12.5q5.2-12.63 10.64-25.18c.77-1.77 2.25-3.82 4.24-3.09 1.24.46.6 2.9.24 4.49-1.9 8.67-5.36 16.8-8.72 24.97-1.63 3.98-3.78 7.78-4.9 12.7zm-65.58-151.4c-2 1.03-4.05.93-5.84.52-1.26-.3-3.14-1.36-2.6-3.16 1.63-5.33 2.49-10.86 4.54-16.06 2.14-5.41 2.8-5.81 8.64-4.8q.31.06.62.04c5.38-.3 8.13 2.87 9.67 7.47.35 1.04.65 1.82 1.77 2.17 2.42.76 4.85 1.52 7.2 2.44 1.73.67 1.95-.37 1.6-1.42-.77-2.23-.54-4.47-.52-6.71a6.6 6.6 0 0 0-4.2-6.51c-8.22-3.5-16.53-6.78-24.82-10.13-.73-.3-1.54-.75-1.95.51-.92 2.86-3.2 5.07-3.75 8.12-.16.89-.39 1.77-1.8 1.34-5.28-1.6-10.8-1.92-16.18-2.92-9.86-1.85-19.67-4-29.47-6.14-8.1-1.77-16.2-3.58-24.13-6.12-2.46-.8-3.88-2.29-2.58-4.6 1.46-2.6.19-5.04.37-7.53.1-1.26-.78-1.84-2.26-2.26-7.74-2.2-15.95-2.44-23.4-5.89-.26 1.16-.1 2 .23 2.92a120 120 0 0 0 12.82 25.21c7.37 11.27 16.1 21.56 23.76 32.62 2.25 3.25 4.67 4.32 8.63 4.18 10.28-.38 20.6.13 30.86-.88 9.31-.92 18.62-.9 27.89.27 2.67.33 5.77.3 7.88 2.02 2.75 2.24 5.54.8 7.9.3 2.7-.57 5.01-2.89 7.68-4.57-2.83-1.45-5.82-1.8-7.91-3.9-.97-.97-1.68-1.46-3.37-1.11-1.78.37-3.65-.84-4.52-2.9-2.23-5.28.52-9.48 7.3-10.74-1.56-.48-3-.12-4.31-.84-2.17-1.19-3.37.08-4.1 1.98-1.4 3.6-2.72 7.22-4.08 10.84q-1.61 4.3 2.42 6.25zm-190.14-4.12c-2.8-6.61-3.02-13.12 2.7-18.86.52-.5 1.44-1.88-.36-2.64-3-1.24-4.35-3.85-4.96-6.84-.2-.93-.07-1.24-1.35-1.03-4.96.83-9.96 1.41-14.96 1.98-2.11.24-4.13.9-6.39.38-6.98-1.6-12.62-5.3-17.81-10.08-2.77-2.55-4.83-6.1-9.02-6.88-1.18-.22-1.65-1.06-.72-2.3 1.08-1.45 0-2.62-1.2-2.6-5.78.08-9.39-3.67-11.38-7.98-1.41-3.04-3.35-5.19-5.45-7.44-2.08-2.25-4.4-4.28-6.54-7.3a89 89 0 0 1-1.79 14.19 205 205 0 0 1-7.18 27.24c-.55 1.65-.28 2.6.79 3.8 10.12 11.33 21.43 21.46 32.5 31.81.64.59 1.1.6 1.86.49 17.01-2.55 34.17-3.67 51.27-5.94zM563.3 818.28c-.53-.07-.75-.17-.9-.1a27770 27770 0 0 0-48.17 20.09c-.5.2-1.38.34-1 1.22 1.47 3.44-.16 6.86-.05 10.28.3 9.65 2 19.09 4.25 28.44 1.13 4.73 1.08 4.76 5.71 3.28 21.46-6.83 43.4-11.91 65.46-17.96-2.28-1.97-4.34-3.79-6.45-5.56-8.07-6.78-16.08-13.62-22.79-21.84-1.6-1.97-1.82-4.24-2.17-6.45-.25-1.54 1.33-2.03 2.65-2.46.3-.1.37-.88.55-1.35l2.91-7.6zm-11.22-220.94c3.48.98 6.55 2.4 9.31 4.54 2.59 1.99 5.36 3.88 8.76 4.12 8.36.58 16.74 1.14 25.12 1.41 1.54.05 3.2-.9 4.65-2.14 4.33-3.71 7.73-8.54 12.83-11.3 2.28-1.23 2.9-3.16 3.1-5.2.67-6.81.34-13.6-1.68-20.18-1.89-6.13-4.06-12.18-6.15-18.38a235 235 0 0 0-55.94 47.13m-56.44 292.78c-.57-.61-.86-1.04-1.27-1.34l-35.83-25.97c-1.07-.78-1.93-.73-3.11-.27-5.33 2.08-10.82 3.75-16.02 6.1-4.83 2.18-10.3 1.66-15.07 4.36-1.85 1.05-4.83.24-7.3-.1-3.35-.44-6.72-.67-10.09-.94-.56-.05-1.3-.21-1.53.62-.14.52-.14.94.5 1.22 4.77 2.06 8.27 5.9 12.4 8.86.37.26.7 1.25 1.34.47 1.74-2.14 4.15-1.8 6.45-1.87 8.33-.25 16.57 1.24 24.88 1.41 3.36.07 6.74.5 10.11.75 1.05.07 3-.37 3 1.3 0 1.53-1.99 1.2-2.96 1.34-3.24.47-6.54.68-9.82.71-8.35.09-16.7.02-25.06.06-.83 0-1.83-.46-2.68.64 8.77 7.62 17.96 14.46 28.57 19.34 2.93 1.35 4.92.3 6.59-1.49 1.6-1.71 3.43-2.7 5.43-3.77 2.7-1.45 6.2-1.33 8.18-4.25.5-.75 1.69-.75 2.6-.52.96.22 1.85.07 2.71-.23zm-46.08 19.94c-19.13-5.58-31.98-19.16-45.5-32.25-.52 2.2-.95 3.85-1.29 5.52q-1.5 7.5-2.97 15.02c-.23 1.14-.26 2 1.05 2.8 10.33 6.33 20.85 12.29 32.11 16.82.75.3 1.59.93 2.28.44 4.35-3.1 9.14-5.47 14.32-8.36zm111.1-344.84c2.8.16 4.71.92 5.83 3.23.6 1.26 1.43 1.38 2.62.28 2.7-2.52 5.42-5.04 8.49-7.13 1.02-.7 1.67-1.56.31-2.67-.53-.43-.51-1.07-.05-1.7 1.56.73 2.77 2.26 4.92.5a89 89 0 0 1 20.2-12.36c.76-.34 1.6-.78 1.06-1.38-2.1-2.34-1-4.75-.55-7.2.2-1.04.21-2.06-1.43-1.4-3.01 1.18-6.05 2.28-9.05 3.49-.49.2-1.71.42-.53 1.36 1.6 1.28.33 2.14-.45 2.97-3.4 3.6-7.6 6.2-11.67 8.88-2.1 1.38-4.73 1.48-6.04-1.83-11.58 8.72-22.86 17.5-32.34 28.36-4.09 4.7-4.23 4.63.5 9.27 1.75 1.7 3.34 4.85 5.33 4.63 1.58-.16 2.83-3.53 4.28-5.56-1.47-.96-2.99-1.62-4.13-2.85-1.27-1.36-.86-2.87.14-3.83 1.17-1.11 1.98.33 2.68 1.12.54.6.96 1.33 1.34 2.05.33.64.59 1.56 1.41 1.32 1.02-.3 1.48-1.36 1.97-2.27.45-.82-.33-1.13-.78-1.31-1.86-.75-1.77-2.62-2.44-4.04-.33-.71-.08-1.41.62-1.87.9-.61 1.27.24 1.75.68.88.8 1.13 1.95 1.47 3 .58 1.8 1.2 1.77 2.4.39 2.28-2.65 4.72-5.15 7.11-7.74-1.39-2.16-4.15-3.3-4.97-6.4zm-98.72 294.65c.2.35.27.6.42.68 9.75 5.2 18.1 12.27 26.38 19.45 3.1 2.68 6.22 5.32 9.23 8.08 1.28 1.18 2.57.88 3.5 0 1.12-1.04-.4-1.7-.92-2.39-1.11-1.47-2.44-2.79-3.53-4.27-5.7-7.78-8.95-16.48-8.44-26.16.35-6.5.7-6.6-5.2-4.27-7.18 2.84-14.28 5.9-21.44 8.88m54.6 23.52a23 23 0 0 1-5.09-8.1c-.61-1.7-1.1-3.47-2.17-4.96-3.91-5.44-3.97-11.48-3.15-17.79.52-4.07 1.81-7.97 2.63-12.23-3.8 1.75-7.27 3.47-11 4.57-1.26.38-1.9 1.22-1.96 2.73-.4 11.27 1.5 22.07 6.46 32.25 3.45 7.06 3.48 7.05 10.96 4.6zm303.78-40.33c.11-1.73 1.06-2.8 1.98-3.93 2.04-2.5 4.42-4.85 5.84-7.69 3.31-6.63 6.6-13.28 10.4-19.66 1.11-1.86.64-2.66-1.47-2.96-3.7-.52-4.37-1.68-3.38-5.34.33-1.23.69-2.2-1.32-2.84-2.85-.9-4.02.44-4.77 2.57-3.4 9.7-6.63 19.46-10.65 28.94-.99 2.33-3.99 4.5-3.2 6.53.74 1.88 3.99 2.77 6.58 4.37zm-3.7-83.69c.23 5.57-1.46 10.97-.7 16.38.62 4.56 1.42 9.1 1.1 13.69-.25 3.4.25 5.86 4.36 5.9.44 0 1.04.4 1.29.78.79 1.25 1.33.64 2.08-.06 2.92-2.72 4-6.55 4.5-10.04 1.06-7.36 1.81-14.78 3.13-22.37-.74.26-1.22.62-1.64.55-3.14-.5-4.35.99-5.12 3.92-.79 2.99-4.46 3.98-6.98 2.36-1.13-.72-1.73-1.63-1.58-3.06.17-1.66 1.43-1.08 2.32-1.28.9-.2 1.79-.41 2.7-.52.88-.12 1.25-.54 1.17-1.42-.06-.78.23-1.68-1.07-1.79-.9-.08-1.77-.51-2.68-.56-1.66-.08-2.52-.92-2.9-2.48zM587.34 541.42l-1.47-1.68c-2.8-3.27-5.76-6.42-8.36-9.84-5.01-6.58-4.92-6.65-11.7-1.73q-.25.2-.51.34c-1.06.48-.73.8-.05 1.48 4.66 4.64 8.61 9.86 12.47 15.16.79 1.08 1.4 2.95 3.3.48.9-1.17 2.53-2.64 4.54-2.89.6-.07 1.12-.8 1.78-1.32M831.3 672.93c-1.86-.75-3.43-1.44-5.03-2.02-5.73-2.06-10.46-5.46-12.67-11.23-.85-2.22-2.38-3.48-3.8-4.97-2.45-2.53-3.78.72-5.62 1.32-.47.16-.9.46-1.35.67-1.52.71-1.55 1.38-.07 2.26a57 57 0 0 1 5.6 3.71c6 4.62 11.16 10 14.83 16.67.65 1.18 1.39 2.26 2.29.61 1.44-2.63 3.4-4.78 5.82-7.01zM560.35 797.46c5.22-3.48 10.92-5.9 16.47-8.6 5.57-2.73 11.24-5.21 16.9-7.75 5.74-2.58 11.52-5.1 17.05-8.12 5.33-2.92 10.6-5.93 16.16-9.04-.94-.33-1.35-.13-1.84.1-13.25 6.36-26.8 12.01-40.35 17.68-7.58 3.17-15.18 6.38-22.05 11.02-1.66 1.13-3.15 2.3-2.34 4.71m305.83-79.81c2.46-.58 4.93.17 7.36.49 1.88.24 2 .1 1.39-1.48-2.37-6.11-3.8-12.51-4.95-18.9-.67-3.71-1.64-4.04-4.5-2.26-.74.45-2.43-.14-1.9 1.56 2.03 6.68 1.45 13.68 2.6 20.58zm-74.3-78.07c.85 1.26-.35 4.23 2.4 4.1 3.55-.15 6.9.5 10.27 1.26 9.36 2.06 18.95 3.4 27.6 7.87 2.21 1.14 3.88.1 5.69-.65.5-.21.83-.86 1.24-1.3-.5-.28-.97-.69-1.5-.8a1147 1147 0 0 0-15.16-3.27c-8.85-1.83-17.56-3.9-25.26-9.05-1.07-.7-3.23.13-4.87.37-.7.1-.37.82-.42 1.47M645.2 833.16a9.9 9.9 0 0 0-5.09 8.08c-.26 3.36-.34 6.73-.54 10.1-.53 8.93-.02 17.9.62 26.83q.16 2.16.72 4.25c.17.62.64 1.4 1.57 1.15.77-.22.66-.95.68-1.54.32-8.77-1.12-17.45-1.3-26.18-.15-7.7-2.99-15.86 3.34-22.7zM362.56 369.37c1.92-.2 2.82 3.5 5.32 1.11 3.83-3.63 8.3-6.6 13.52-7.38 4.58-.7 6.44-3.98 9.31-7.19-10.8 2.18-19.87 6.84-28.15 13.46M247.53 692.92c.48-5.85-.1-11.64-1.18-17.38-.18-.96-.58-2.22-1.89-1.97-1 .2-1.68 1.04-1.75 2.26-.2 3.95-.76 7.87-.49 11.85.32 4.82.24 4.83 5.3 5.24zm96.88 255.65c12.04 8.71 25.48 12.3 38.82 16.14-.2-.49-.47-.86-.83-.98-11.84-3.86-22.92-9.41-33.94-15.1-1.08-.55-2.08-.79-4.06-.06zM220.43 673.24a11 11 0 0 0-.57-4.85c-.31-.83.47-2.45-1.18-2.26-1.06.12-1.85 1.27-1.93 2.46-.44 5.9-.8 11.8-1.21 17.7-.14 2.04 1.59 1.55 2.55 1.85 1.39.44.94-.85 1.1-1.54 1.06-4.4.3-8.96 1.24-13.36m287.96-429.55c-1-2.52-2.55-4.52-2.36-6.35.33-3.26-1.12-1.43-2.02-1.02-3.04 1.4-6.05 2.88-9.1 4.35.4.6.97 1.23 1.31 1.95 1.07 2.3 2.52 2.62 4.97 1.85 2.16-.67 4.25-2.54 7.2-.78M386.37 345.43c.68 1.72 1.44 3 1.64 4.36.24 1.57.31 3 2.4 2.5 1.46-.36 2.81 1.52 4.31-.1 1.79-1.92 3.78-3.65 5.95-5.72-4.94-1.7-9.46-.62-14.3-1.04m325.01 311.6c-3.22-3.68-6.5-7.3-9.64-11.04-1.5-1.8-2 .3-2.72.69-.82.43-2.9 1.12-1.6 2.56 3.72 4.08 7.21 8.8 13.96 7.78zm105.15-21.17a8 8 0 0 1-.57 3c-.34.8-.23 1.7.78 2 3.08.97 6.12 2.13 9.27 2.7 1.97.36 1.9-2.78 3.79-3.15q.03-.03.12-.36a42 42 0 0 0-13.87-6.37c2.9 2.53 6.65 2.85 8.3 6.42-2.85-1.37-4.96-3.37-7.82-4.26zm-145.24-49.77c-.65-1.44-.08-3.52-2.11-4-.96-.23-4.96 4.02-4.62 4.93.96 2.57 1.04 5.31 1.8 7.9.55 1.85 2.48.94 3.67 1.6.6.33 1.07-.58.93-1.2-.69-3.14-1.17-6.24.33-9.23m19.38 45.8c-1.86-2.77-3.79-5.35-5.41-8.12-1.82-3.08-2.9.05-4.27.4-1.78.44-1 1.35-.32 2.37 1.88 2.75 3.62 5.59 5.56 8.63 1.04-1.84 2.9-2.34 4.44-3.29zm-2.86 5.8c1.85 2.47 3.58 4.87 5.4 7.2.43.57.77 1.67 1.88.89 1.32-.93 3-1.63 3.82-2.9.44-.66-1.27-1.8-1.98-2.74-.3-.4-.54-.87-.82-1.3-1.74-2.65-3.49-5.2-6.78-1.65-.29.3-.91.3-1.52.5m-152.72-56.57c-.2-1.85 1.9-2.4.3-4.04-3.79-3.9-8.08-7.33-11.21-11.85-1.04-1.5-2.11-.28-2.88.2-1.25.79.1 1.32.52 1.83 3.86 4.68 8.22 8.9 13.27 13.87zm93.48 15.76-6.76 10.86c1.95-.35 3.84-1.28 4.92-.7 1.17.6 2.54 2 2.78 3.72.13.94.12 2.2 1.36 1.86 1-.28.57-1.6.41-2.42-.8-4.24-1.71-8.47-2.7-13.32m48.22 13.3c-1.3-2.83-2.94-5.55-3.81-8.5-.85-2.84-2.92-2.16-4.38-1.74-1.65.46-.4 1.97-.1 3a42 42 0 0 0 1.22 3.41q1.84 4.61 7.08 3.85zm-312.7-256.9c2.13.78 3.47 2.29 4.9 3.71.74.73 6.66-.9 6.85-1.87.05-.25-.17-.56-.3-.83-2.37-5.04-3.4-5.39-8.32-2.74-.98.52-1.94 1.07-3.13 1.74zm10.32-4.96c.96 1.41 2 2.5 2.49 3.77.63 1.66 1.36 2.63 3.26 2.05 1.53-.47 3.1-.87 4.6-1.42.45-.17.08-.67-.07-1.03-2.29-5.38-3.29-5.82-8.86-3.9zm-145 321.84c-1.4 6.29-.65 12.48-1.58 18.54-.24 1.51.6 2.05 1.86 2.19 1.86.2 1.2-1.29 1.21-2.1.06-5.15.03-10.3.03-15.45 0-1.13.02-2.27-1.52-3.18M482.4 962.35c3.64-.25 6.83-1.59 10.06-2.74.45-.16.94-.55.76-1.16-.06-.2-.44-.46-.65-.45q-6.25.43-12.5.96c-.83.07-1.09.98-1.22 1.61-.18.83.69 1.22 1.28 1.43.74.28 1.6.25 2.26.34zM205.08 664.06c-1.35 3.8-1.64 7.73-1.89 11.61-.14 2.15-.82 4.22-.72 6.38.04.93.34 1.63 1.31 1.78 1.06.16 1.17-.62 1.15-1.37-.13-6.14 1.3-12.25.15-18.4M357.11 358.4c1.24.8 2.63 1.23 3.15 2.15 1.92 3.37 3.4 1.33 5.33.04 1.27-.86.96-1.22.13-1.93-3.8-3.26-2.7-4.97-7.76-1.04-.24.19-.44.41-.85.78m320.96 255.1c-3.64.23-4.46 1.78-2.52 4.75l.35.5c.87 1.4 4.47 2.45 5.7 1.32 1.53-1.42-.8-2.28-1.01-3.53-.12-.76-.7-1.45-1.11-2.15-.31-.5-.6-1.1-1.4-.9zm155.06 43.43c-2.53-.34-4.45-.52-6.34-.88a60 60 0 0 1-5.86-1.47c-.9-.28-2-.8-2.45.11s-.58 2.4.6 3.04c1.43.74 2.91 3.47 4.63.18.52-.99 1.56-.5 2.48-.26 2.2.58 4.37.35 6.93-.72zM359.8 365.06c-5.76-4.24-7.53-4.64-9.81-.16q8.05 2.45 9.81.16M194.38 660.25l-.77-.15c-.55 3.44-1.17 6.86-1.62 10.31-.32 2.43-.44 4.9-.64 7.35-.06.74.3 1.07 1 1.27.9.27.79-.34.83-.8.48-5.99 1.52-11.94 1.2-17.98m142.95-289.73c-5.38-.55-13.02 5.41-13.37 10.19 4.6-3.16 8.03-7.62 13.37-10.2M606.2 39.76c-2.08 10.2-4 19.74-5.95 29.27 1.76-3.72 6.83-26.07 5.95-29.27m-226.04 327.6c-3.1 1.9-5.65 3.45-8.19 5.03-.73.45-1.95.68-1.62 1.84.15.58.92 1.1 1.53 1.4 1.04.51 2.06.2 2.68-.77 1.54-2.44 4.03-4.14 5.6-7.5m378.62 243.46c5.25 5.83 5.93 6.02 8.41 2.75-2.64-.82-5.09-2.25-8.41-2.75m69.28 56.48c-1.56-4.08-4.88-4.76-8.96-5.8 2.62 3.3 5.4 4.76 8.96 5.8m11.74-17.64c-.04-1.02.15-2.53-.17-2.65-2.85-1.03-5.78-1.81-8.69-2.67l-.2.57zm-213.97-24.18c2.46-1.35 2.73-3.12 3.7-4.4 1.63-2.1 1.3-3.23-1.73-3.12.22 2.43-.4 4.72-1.97 7.52m131.08-15.62c-1.52-.38-2.88-.5-4.02-1.06-1.54-.76-1.53.64-1.85 1.22-.35.63-.52 1.56.3 2.2 1.14.92 1.5-.31 1.77-.85.8-1.56 2.4-.59 3.8-1.5m-34-8c-1.79-.54-3.5-1.1-4.17 1.3-.17.63-.35 1.26.77 1.6 2.62.75 2.96-1 3.4-2.9m20.15 8.25c1.2-.56 2.45 1.99 3.4-.02.31-.64 1.85-2.07.16-2.8-2.46-1.05-2.32 1.82-3.56 2.82m-30.08-10.68c-2.63-1-2.69 1.06-3.35 2.29-.53.98-.16 1.51.93 1.66.96.13 1.76.1 1.32-1.2-.42-1.2.62-1.8 1.1-2.75m28.4 10c-.84-1.12.37-3.57-2.12-3.41-1.3.08-1.22 1.79-1.15 2.14.33 1.63 2.02.93 3.26 1.28zm-5.36-4.67c-1.68.24-3.15-1.08-3.68 1.01-.18.68-.61 1.65.62 1.96 2.5.63 1.63-1.85 3.07-2.97zm-8 1.72c-1-1.19 1.71-2.7-.45-3.55-1.46-.57-1.63.87-1.87 1.7-.64 2.2 1.7.86 2.31 1.86z"/><path fill="#000" d="M538.2 216.42c2.48-2.01 5.32-1.58 7.95-1.4 6.19.43 12.13 1.77 16.62 6.56 1.5 1.59 2.03 3 .84 5.4-2.24 4.51-4.4 9.2-4.58 14.4-.06 1.62-1.1 2.85-1.34 4.35-.33 2.2-2.16.4-3.33 1.21-1.76 1.24.95 2.73-.83 3.58-1.25.61-2.34 1.4-3.62.23-.61-.55-1.22-.51-1.99-.37-3.3.64-4.83-.25-5.72-3.6-.92-3.5-2.95-5.6-7-6.34 2.81 5.24 4.65 10.46 6.33 15.73.39 1.2 1.18 1.61 2.1 2 3.1 1.3 6.17 2.65 9.33 3.74 1.1.37 1.42 1.44 2.18 1.78 1.92.87 1.24-.88 1.32-1.68.1-1.02.07-2.06.02-3.09-.21-4.2 1.42-4.13 5.84-5.44 2.12-.63 4.6-.47 5.63 2.76 1.58-3.07 3.1-5.89 4.49-8.77.5-1.07 1.05-2.34 2.27-2.02 1.07.3 1.96.94 2 2.8.1 5.22-2.67 11.04-7.25 12.98-1.17.5-1.78 1.05-1.76 2.1.08 3.1-.9 6.08-.74 9.2.2 3.93-.9 4.76-5.28 4.65-.25-.43-.15-.88.24-1.06 3.3-1.45 2.9-4.21 2.63-7-.36-3.71.19-7.38.72-11.02.33-2.15-1.2-2.02-2.34-2.28-1.59-.36-1.59.79-1.5 1.89.42 5.36-.4 10.63-1.22 15.9-.12.73-.1 1.63-.9 1.75-.93.14-.96-.93-1.2-1.54a18 18 0 0 1-.97-3.19c-.22-1.03.22-2.65-1.57-2.26-1.53.34-3.24.89-2.8 3.23 1.5 8 2.91 16.03 3.08 24.2.03 1.68 1.1 1.42 2.1 1.42h14.23c.52 0 1.05.1 1.54-.02 1.4-.32 2.94 1.6 3.98.24 1.17-1.52.36-3.57.21-5.38-.59-7.24-2.12-14.44-1.14-21.74.36-2.65-.61-3.8-3.13-4.04-.8-.08-1.58-.57-2.36-.55-1.56.04-2.8-.5-2.9-2.04s1.66-1.99 2.63-2.11c2.53-.34 5.17-.48 7.68-.1 2.37.36 3.01 2.72 3.1 4.73.43 9.33 1.47 18.67.13 28.02a18 18 0 0 1-1.11 4.38c-.72 1.79-1.73 2.46-3.8 1.6-2.85-1.2-3.28-.76-3.2 2.4.1 3.94-.25 4.36-5.77 5.08-4.46.57-8.94.89-13.42 1.29-2.42.21-4.06-.73-4.97-3.1-2.1-5.42-3.04-11.13-4.28-16.75-.97-4.36-2.22-8.7-1.9-13.25.1-1.45-.08-2.85 1.55-3.7 1.52-.8 2.45.2 3.64 1.02.93-2.5-.86-5.03.79-7.3-2.3-.3-4.45-.4-6.5-.91-3.45-.89-6.25-2.49-7.52-6.33-1.95-5.86-4.41-11.55-5.94-17.56-.15-.59-.16-1.67-.4-1.72-3.85-.72-3.84-4.69-5.79-6.97-3.05-3.6-3.48-8.3-3.23-12.77.28-5.18 1.77-10.11 6.72-13.02 2.56-1.5 5.3-2.28 8.02-.39 1.08.76 1.64.42 2.6-.26 8.33-5.93 24.78-1.6 29.1 6.31.14.27.35.5.48.77.53 1.17 1.57 2.58.22 3.55-1.12.8-2.21-.28-3.2-1.12-1.86-1.58-3.65-3.02-6.08-4.07-5.6-2.44-10.88-1.64-16.35-.33-1 .24-1.97.56-2.96.79-4.56 1.06-4.71 1.36-4.48 6.18.07 1.43.53 2.22 1.86 2.76 6.4 2.62 12.8 5.25 18.4 9.44.93.7 1.63.82 2.18-.68a7 7 0 0 1 2.42-3.12c2.34-1.66 2.05-2.64-.18-4.26a27.7 27.7 0 0 0-17.18-5.39q-1.39.02-2.78-.03c-.15 0-.3-.15-.66-.36zm-7.75-4.21c-1.7 1.44-2.47 3.29-3.04 5.24-1.24 4.22-.3 8.55-.67 12.82-.2 2.22.65 2.62 2.74 2.71 7.33.33 13.38 2.71 15.26 10.82.21.9.8 1.24 1.64 1.59 5.59 2.33 8.72.41 8.87-5.52.01-.51-.12-1.1.08-1.53.78-1.6-.15-2.25-1.4-2.7-2.66-.94-5.31-1.92-8.02-2.72-4.55-1.35-9.16-2.54-13.53-4.42-1.88-.81-4.05-1.89-3.58-4.37.75-3.93-.45-8.12 1.63-11.92zm-42.78 414.67c-.33 1.62-1.85 1.6-2.87 1.86-4.73 1.24-9.5 2.27-14.27 3.37-21.94 5.06-43.48 11.48-64.86 18.5a1000 1000 0 0 0-37.02 13.1c-.38.13-.75.33-1.14.43-.64.17-1.5.79-1.74-.34-.16-.77.69-.8 1.25-1.01 5.2-2.1 10.38-4.29 15.6-6.35a982 982 0 0 1 50.57-18.46c12.76-4.26 25.55-8.46 38.72-11.3 4.08-.88 8.19-1.8 12.43-1.56 1.39.08 2.55.5 3.34 1.76zm134.54-436.64c-1.12 0-2.15.17-2.77-1.3-.53-1.27-.14-2.04.51-3.06 5.4-8.48 13.99-11.42 23.1-13.57a33 33 0 0 1 9.2-.61c3.82.16 5.19 2.15 3.8 5.59-.47 1.17.33 2.1-.16 3.36-1.48 3.79-4.82 4.46-7.91 4.45-8.08-.02-15.43 3-23.06 4.79-.92.21-1.8.26-2.71.36zM329.66 737.56c-.85-3.41.37-5.83 1.5-8.2 8.08-16.84 18.15-32.42 29.75-47.03.26-.33.47-.67.75-.98.66-.75.97-2.44 2.45-1.36 1.3.95 1.47 2.13.41 3.71-3.69 5.5-7.24 11.1-10.75 16.72-5.9 9.42-11.67 18.93-17.6 28.34-1.86 2.94-3.16 6.36-6.51 8.8m-52.37 11.83c-.87-3.48-3.43-5.94-5.4-8.74-5.7-8.12-11.64-16.08-15.2-25.5-1.1-2.91-1.5-5.93-2.05-8.92-.23-1.29-.1-3.57 1.82-3.62 1.62-.04 2.55 1.01 2.17 3.38-.3 1.98 1.47 4.07 2.54 6.03 5.07 9.24 11.1 17.95 15.71 27.45 2.2 4.51 4.93 8.91 4.78 14.24 0 .37-.08.74-.14 1.34-2.85-1.11-2-4.65-4.34-5.76zm366.6-549.94c1.8.22 3.36-.27 4.83.45.69.34 1.66.27 1.81 1.38s-.68 1.57-1.38 1.74c-3.82.97-3.36 3.34-2.55 6.31.82 3-.03 6.06-.93 9.02-.27.86-.61 1.51-1.61 1.55-1.02.04-1.26-.67-1.66-1.46-1.48-2.95-2.56-6-2.39-9.33.12-2.4-.36-3.43-3.1-2.48a9.2 9.2 0 0 1-6-.2c-1.16-.39-1.73-1.04-1.93-2.03-.24-1.14.79-1.6 1.6-1.99a33 33 0 0 1 13.3-2.96zM361.7 747.95c-2.1.07-3.08-1.52-2.37-3.4 1.04-2.78 3.23-4.74 5.22-6.72 6.26-6.22 12.71-12.25 19.14-18.3.65-.61 1.27-2.2 2.62-.78 1.18 1.24.1 2.02-.59 2.86-6.96 8.4-13.83 16.87-21.58 24.58-.8.79-1.6 1.5-2.44 1.77zm288.5-98.63c-12.1.16-24.22 1.37-36.27-.3l.03-.93zm-137.55-194.9c.6 9.12-10.05 17.27-18.1 17.28-5.97 0-13.07-5.43-15.39-11.87-3.27-9.1-1.5-15.77 7.93-22.89 1.22-.93 2.33-2.03 3.62-2.85 4.76-3.03 10.74-1.9 15.94 2.98 4.5 4.23 5.8 9.7 6 17.36m-12.84-9.32c-5.76-.07-10.82 1.98-15.81 4.7-3.09 1.7-2.8 3.7-1.83 6.2.3.75.78 1.43 1.23 2.1 3.55 5.18 8.46 7.77 14.68 6.69 6.1-1.06 9.8-5.02 11.2-11.08 1.11-4.72-1.03-7.98-5.77-8.58-1.22-.16-2.47-.03-3.71-.03zm-10.46-2.71c3.78-.86 7.48-2.21 11.46-1.79-4.28-2.3-7.9-.44-11.46 1.79m-217.58-.45c.32-7.24 3.8-13.25 7.7-18.98 5.22-7.66 10.83-15.06 16.22-22.61 2.28-3.2 5.3-5.7 7.98-8.51.95-1 2.09-1.67 3.24-1.02 1.34.76 1.72 2.33 1.24 3.77-.74 2.2-1.47 4.46-2.62 6.44a834 834 0 0 1-15.04 25.05c-3.88 6.17-8.16 12.1-12.34 18.08-1.06 1.5-2.07 4-4.3 3.13-2.02-.78-2.15-3.25-2.09-5.36zm2.04 1.16 1.33.87c7.85-14.38 18.6-26.78 26.99-40.78.89-1.48 2.07-2.97 1.73-5.1-10.99 14.38-23.72 27.59-30.04 45.02zm-64.14 150.7c-.48-4.62.04-9.08.97-13.45 2.46-11.57 5.85-22.92 9.26-34.24a50 50 0 0 1 6.79-14.07c.82-1.2 1.9-3.06 3.4-2.48 1.62.63.68 2.74.82 4.21.08.88-.35 1.58-.92 2.3-.73-1.2.13-2.66-.88-3.96-9.32 19.73-14.88 40.54-19.44 61.69m40.17 4.23c-1.83 3.08-4.9 4.16-7.13 6.2 1.43 1.04 2.72 2 4.04 2.92.55.38 1.03.76.7 1.48-.27.58-.7 1-1.45.92-3-.33-5.86-1.12-8.28-2.95-.86-.64-1.6-1.8-.97-2.94.68-1.2 1.84-.97 2.98-.47.62.28 1.34.34 2.05.52-2.15-4.26-3.35-4.7-6.32-2.26 0-1.4.77-2.42 1.47-3.32.97-1.23 2.62-1.85 3.69-.44 1.57 2.06 3.04 2.22 5.2 1.03 1-.55 2.38-.44 4.02-.7zm-5.89 23.32c-2.74.04-5.3-1-7.93-1.53-.5-.1-1-.35-1.48-.3-3.13.28-4.07-1.34-3.43-4.09.94-4 3.1-5.61 6.14-4.69 2.76.83 5.8-.11 8.43 1.44 1.12.67 2.63 1.22 1.14 2.9-.3.34-.66.87-1.2.24-1.52-1.74-3-1.64-4.79-.21-.61.49-2.09.26-2.2-.91-.23-2.21-2.28-1.8-2.96-1.54-1.75.66-2 2.68-2.2 4.32-.17 1.51 1.34 1.1 2.27 1.35q4.18 1.1 8.34 2.26zm16.01-43.02c-3.9.94-6.72-.34-9.47-1.5-3.08-1.29-2.89 1.18-3.68 2.78-.95 1.92-.31 2.61 1.6 3.16 2.55.72 5.36 1.05 7.58 3.57-2.21.81-3.81-.17-5.4-.77-8-3-8.2-3.7-3.54-10.76.46-.7.9-1.1 1.68-1.04 4 .26 7.72 1.25 11.24 4.55zm-17.11 7.24c-.56 3.36-.37 5.71 3.12 6.49 2.28.5 4.18 3.44 6.82.55.73 1.46.49 2.6-.35 3.55-1 1.13-2.1.2-3.08-.17-2.17-.81-4.37-1.6-6.46-2.62-3.93-1.91-4.09-4.33-.05-7.8m-2.06-85.93c0-2.17 3.28-5.58 5.29-5.36 1.79.2 2.65 1.52 2.71 3.2.08 2.32-2.99 5.36-5.26 5.07-1.51-.19-3.03-.85-2.74-2.9zm3.93-4.33c-.7 1.52-1.49 3.01-.2 4.51.5.58 1.06.24 1.41-.4.85-1.57.69-2.88-1.21-4.11m23.1 53.01c1.24-.44.43-1.92 1.96-1.82.04 1.3.71 2.76-.41 3.9-1.32 1.32-2.75.08-3.97-.38-4.7-1.77-6.21-5.43-3.7-8.57.1-.12.32-.14.54-.24-1.16 5.1 4.76 3.97 5.59 7.11zm-7.43 8.56c-1.24 2.83.6 3.57 2.34 4.37.45.21 1.12.39.9.98-.15.38-.78.82-1.18.81-3.08-.1-6.05-.71-8.76-2.22-.72-.4-.65-1.26-.42-1.96.24-.77 1-.56 1.56-.55.5 0 1.05.05 1.47.27 1.84.99 3.11.6 4.1-1.72zm83.7-166.56c-.74-.42-1.86-.68-2.2-1.34-.43-.85.3-1.58 1.23-2.11 1.23-.72 2.08-2 3.6-2.39 1.36-.35 2.1.67 2.77 1.35.77.79.15 1.88-.67 2.34-1.46.82-3.05 1.4-4.74 2.15m-95.8 181.36c.29-3.27 1.85-5.95 3.07-9.3 1.4 5.16 7.16 3.7 9.2 7.54-2.46-.3-4.5-1.27-6.53-2.29-1.74-.86-3.1-.8-3.76 1.43-.29 1-.54 2.18-1.97 2.62zm-42.47 36.4c.9-2.2 1.63-3.94 2.56-6.18.54 2.88.2 5.05-.9 7.07-.53.99-1.18 2.08-2.55 1.85-1.13-.19-1.6-1.12-1.9-2.17-.25-.88-.64-1.7-.59-2.67.04-.78.23-1.58.92-1.75s.86.7 1.11 1.25c.34.74.74 1.44 1.35 2.6m42.68-123.76c2.92-.78 4.06.76 4.63 2.73.46 1.6.1 3.36-1.86 3.52a4.7 4.7 0 0 1-4.53-2.48c-.25-.45.13-1.41.97-1.67.7-.2 1.21-.1 1.2.8s-.23 2.14 1.26 1.67c1.17-.36.56-1.53.6-2.38.03-1.3-.97-1.65-2.26-2.2zm8.02 66.57c3.98-.04 6.91 1.6 10.24 2.65-3.9.77-7 .01-10.24-2.65m7.03-80.28c-3.07-.37-5.6.46-7.88-1.23 2.97-2.18 4.52-2.01 7.88 1.23m80.03-75.33c.07 1.97.02 3.32-1.77 3.6-.97.14-1.46-.64-1.25-1.29.47-1.38.62-3.28 2.37-3.58 1.07-.19.6 1.14.64 1.27zm397.74 225.07c.57 3.97-2.46 4.6-3.98 6.01a306 306 0 0 1-17.88 15c6.8-7.18 13.77-14.18 21.86-21m-2.53 15.74c.72-3.6 3.35-5.34 6.11-6.78 1.75-.9 3.83-3.41 5.46-1.55.74.85-2.51 2.54-4.15 3.6q-3.7 2.38-7.42 4.72zm15.54-3.87a4 4 0 0 1-3.33 3.18c-1.07.19-2.5-1.7-2.33-1.92 1.03-1.31 1.9-3.08 3.8-3.3 1.31-.17 1.52 1.1 1.86 2.03zm-270.3-430.17c-.14.52.52 1.98-1.02 1.67-1.28-.25-3.22-.01-3.26-2.25-.02-1.4.73-2.02 2.05-2.06 1.64-.04 2.46.72 2.23 2.63z"/></svg>