<svg xmlns="http://www.w3.org/2000/svg" width="1080" height="1080" fill="none" viewBox="0 0 1080 1080"><path fill="#fff" d="M192.65 439.29c-.2 6.38-3.43 10.74-6.67 15.24-2.4 3.33-4.2 7.16-5.9 10.92-1.64 3.63-3.73 4.71-7.5 3.2-.35-.15-.72-.24-1.06-.4-2.66-1.3-4.92-1.66-7.27 1.04-1.37 1.58-3.7 2.56-5.77 3.24-8.93 2.92-17.95 5.56-26.88 8.5-1.23.4-1.97 2.12-3.18 2.79-4.56 2.51-7.9 5.7-7.96 11.4 0 1.12-.9 3.01-1.7 3.19-1.47.32-3.17-.36-4.68-.6l.77-3.4c-.76.02-1.53-.05-2.28.07-3 .48-4.04-2.41-4.97-6.05-.18-.73-.03-1.55-.03-3.01l-23.05 11.87c.18-1.67.08-2.69.41-3.53 3.59-9.31 7.06-18.7 13.1-26.8.65-.87 1.91-1.27 2.83-1.98.52-.4 1.1-.92 1.34-1.5 2.75-6.76 7.77-11.28 14.11-14.54 3.4-1.75 6.72-3.67 10.15-5.35 1.7-.84 2.57-1.88 2.32-3.84-.1-.82.19-1.7.24-2.55.11-1.73 1.64-3.96-1.57-4.62-.23-.05-.23-.87-.46-1.25-1.28-2.05-2.25-4.44-3.95-6.03-3.16-2.93-6.61-5.77-7.27-10.13-.6-4.02-.6-8.33 2.6-11.85l.97 1.07c2.31-5.55 3.67-12.11 7.38-16.85 3.77-4.83 5.26-10.56 8.66-15.31 1.61-2.25 4.62-3.44 6.53-5.54 6.56-7.18 15.91-9.98 23.64-15.32 7.93-5.47 13.83-12.83 19.59-20.36.82-1.08 1.47-2.34 2.45-3.25 4.9-4.53 5.77-10.73 7.01-16.76 1.08-5.3 1.85-10.65 3.05-15.91 1.3-5.67 5.3-9.5 9.7-12.88 1.8-1.4 3.87-2.45 5.8-3.71a4.4 4.4 0 0 0 1.46-1.42c5.8-10.5 15.6-18.03 21.17-28.7.82-1.56 1.95-2.8.38-4.63-.39-.46.12-1.97.56-2.8 4.22-7.94 5.62-16.55 6.15-25.37.22-3.7.25-7.4.62-11.07.67-6.63 1.53-13.24 2.3-19.86.06-.57 0-1.15 0-2.19-5.58 2.9-11.3 3.36-17.2 3.24-7.07-.14-10.47-4.24-11.06-11.37-.58-6.9 2.35-11.4 8.68-13.86.64-.24 1.29-.47 1.88-.8 1.35-.73 2.68-1.51 4.24-2.4-2.74-2.13-4.63-4.36-2.99-7.73.38-.77.92-1.68 1.63-2.04a92 92 0 0 1 8.94-4.03c1.53-.57 3.29-.5 5.21-.77 1.44-3.33 5.72-5.35 10.02-4.32.07-.47.14-.94.2-1.24-7.43-1.54-14.64-3.38-19.92-9.16-2.12-2.33-3.83-5.08-5.45-7.8-3.06-5.13-6.3-10.28-6.75-16.44-.33-4.47-2.65-8.8-.94-13.4.2-.51.53-1.42.72-1.4 2.91.3 2.71-2.23 3.65-3.8 4.58-7.68 11.32-12.32 20.26-12.95 10.53-.74 18.99 3.46 25.36 11.92 1.05 1.4 2.44 2.53 3.66 3.76 3.18-2.15 2.06-4.84.86-7.29-1.64-3.34-3.74-6.45-5.4-9.78-1.9-3.8-3.9-7.44-2.75-12.2 1.52-6.25 6.9-9.24 12.37-8.55 2.52.3 4.99 1 7.4 1.5-.82-8.59 1.89-16.06 7.65-21.7a26.6 26.6 0 0 1 21.42-7.73c.03-4.43 1.05-8.18 4.44-11.25 4.13-3.73 9.01-3.81 13.92-3.37 3.97.36 7.92 1.28 11.79 2.3 7.05 1.86 11.84 6.16 13.6 13.46.45 1.84 1.15 3.61 1.67 5.44.7 2.53 2.71 2.9 4.5 2 2.84-1.43 5.54-2.8 7.73-5.76 2.77-3.75 7.1-6.47 11.03-9.26 7.36-5.2 15.25-9.45 24.14-11.4 2.85-.62 5.86-.56 8.8-.68 4.79-.2 9.43.28 13.89 2.33 2.28 1.05 3.97 2.28 4.2 4.96.35 4.2.83 8.4 1.04 12.6.06 1.05-.7 2.13-1.3 3.77 3.57-.56 6.8-1.14 10.03-1.57 6.27-.83 11.51 1.83 16.65 4.93 1.17.7 2.74.71 4.08 1.15.97.31 2.14.56 2.77 1.25 2.15 2.35 4.06 4.9 6.11 7.33.43.51 1.03.88 1.52 1.3.1 2.14.05 4.77.37 7.35.37 2.97-.16 5.03-2.3 7.63-2.17 2.65-4.6 5.77-5.17 9.7-.27 1.86-1.7 3.58-2.7 5.3-.54.89-1.31 1.63-2.13 2.64 4.56.42 5.32 1.17 5.75 5.4 9 .3 15.13 5.18 19.37 12.7.64 1.13.43 3.07-.04 4.4a59 59 0 0 1-3.75 8.4c-.9 1.68-1.05 2.97-.17 4.75 2.12 4.3 3.22 9.04 1.27 13.5-1.33 3.07-3.79 5.8-6.24 8.17-2.3 2.22-3.27 4.18-1.4 7.02.26.41.1 1.14.4 1.5.66.75 1.93 2.05 2.16 1.9 2.3-1.48 3.87.46 5.63 1.06 4.24 1.44 7.56 4.4 10.97 7.15.36.3.78.68 1.2.7 4.44.28 4.74 4.18 4.89 6.88.2 3.84-.91 7.59-5.17 9.68-7.77 3.82-23.37 8.75-31.77 9.53 1.87 3.66 1.96 7.26-.84 10.4-2.63 2.95-6.3 3.44-10.5 3.6 4 3.35 8.2 4.64 12.98 4 3.5-.46 7.93 1.15 9.3 3.74 1.83 3.44.3 6.48-1.5 9.36-.55.87-1.39 1.9-2.29 2.15-3.61 1.02-5.12 3.59-5.59 7.37 1.73.48 3.74.92 5.67 1.58 3.35 1.14 4.87 3.4 2.97 7.73-.11.25-.5.48-.5.7.32 6.45-5.5 7.08-9.28 9-3.96 1.99-8.64 2.55-13.46 3.85 1.69 2.82 3.5 5.96 5.46 9 .28.42 1.38.4 2.1.42 2.21.06 4.78-.7 6.58.16 8.22 3.96 16.26 8.33 24.3 12.66 2.41 1.3 4.1 3.7 7.13 4.2 5.9.97 11.76 2.26 17.64 3.4 6.13 1.2 12.3 2.29 18.4 3.59 6.7 1.42 13.33 3.13 20.04 4.52 3.32.69 6.73 1.01 10.11 1.34 10.56 1.02 21.12 1.93 31.68 2.94 2.79.26 5.58 1.14 8.32.97 2-.12 3.92-.92 5.87.19.4.23 1.1.3 1.2.6 1.52 4.18 5.29 3.45 8.26 3.38a68 68 0 0 1 26.17 4.68c.52.2 1.16.09 1.73.17 3.62.54 7.22 1.1 10.64 1.62 1.91-.64 3.99-1.17 5.91-2.03a14 14 0 0 0 3.95-2.66c4-3.87 8.22-7.58 11.72-11.87 7.26-8.87 14.04-18.13 21.17-27.12 1.18-1.48 2.95-2.93 4.72-3.42a41 41 0 0 1 21.9.06c3.4.91 7.2.78 10.78.6 5.8-.3 8.2 1.48 8.42 7.49.08 2.34-.52 5.13-1.82 7.03-6.83 9.93-14.1 19.56-20.96 29.47-2.7 3.92-4.69 8.32-7.14 12.42a22 22 0 0 1-3.54 4.56c-2.6 2.5-2.81 5.3-1.81 8.51 1.68 5.42 3.29 10.83 3.1 16.62-.07 2 .53 4.04.47 6.04-.1 3.45-2.76 5.29-5.2 6.97-2.6 1.79-5.6 1.14-7.6-.88-1.65-1.67-3.13-4.15-3.42-6.43-.85-6.75-5.01-9.12-11.04-9.89-3.73-.47-5.66-2.55-6.22-6.04-.67-4.2-1.15-4.49-5.27-4.03-2.1.24-4.27.04-5.4.04-1.24-2-1.8-3.8-2.98-4.49-.78-.45-2.49.7-3.7 1.34-.9.2-1.86.31-2.72.64-2.62 1-5.17 2.13-7.8 3.07-1.76.63-3.6 1.02-4.89 1.38-.28 4.05.03 7.85-1.01 11.22-.63 2.03-3.12 4-5.25 4.92-3.41 1.5-7.14 1.55-11.03.94-2.66-.41-5.58 1.18-8.42 1.4-7.85.6-12.18 5.49-16.46 11.53-9.14 12.86-17.01 17.07-33.92 14.41-5.07-.8-10.2-1.16-15.3-1.65a2117 2117 0 0 0-23.57-2.19c-4.24-.36-8.48-.56-13.31-.88 2.4 4.47 4.29 8.64 6.78 12.42 2.58 3.92 2.61 7.61.57 11.6-.75 1.46-1.23 3.07-2.08 4.46-2.72 4.46-.2 7.76 2.13 11.31 4.06 6.18 8.52 12.24 10.25 19.58 1.6 6.8 2.98 13.68 3.87 20.6.7 5.45.66 11.02.63 16.54-.02 2.59 1.18 4.2 2.97 5.63 12.24 9.74 24.35 19.65 36.81 29.1 8.77 6.65 17.22 13.76 26.93 19.18 2.16 1.2 3.47 4.54 4.43 7.16 1.83 5.01 3.91 9.43 8.29 13.06 6 4.96 11.15 10.95 16.72 16.43 2.36 2.33 4.69 4.75 7.35 6.7 3.32 2.41 4.12 5.52 2.94 9.05-1.12 3.35-.08 5.98 1.68 8.64.74 1.12 1.16 2.5 2.04 3.47 2.12 2.37.8 3.9-1.28 5.74 4.16 3.88 8.46 7.69 12.52 11.75 4.97 4.97 9.75 10.14 14.58 15.26 2.73 2.88 5.07 6.22 8.13 8.68 6.12 4.92 9.48 11.16 10.72 18.78.15.95.98 1.98 1.79 2.6 2.76 2.08 5.8 3.81 8.44 6.04 3.43 2.89 5 5.98.58 9.95-1.41 1.27-3.14 2.65-3.68 4.32-1.24 3.75 1.77 6.57 5.86 5.55 4.53-1.14 8.95-2.68 13.42-4.07.35-.1.9-.36.92-.6.61-5.12 4.61-3.62 7.4-3.39 6 .5 11.7 2 16.18 6.68a327 327 0 0 0 15.61 15.28c5.3 4.84 10.9 9.33 16.36 13.99 4 3.4 7.96 6.83 11.98 10.2.72.6 1.6 1.07 2.46 1.42 3.5 1.39 7.08 2.55 10.48 4.11 2.15.98 4.02 2.55 6.04 3.83 1.1.69 2.25 1.32 2.96 1.73l2.37 5.22c.93 2.06.43 3.88-.69 5.77-.46.78-.68 2.5-.23 2.9 3.08 2.69 6.01 6.3 9.65 7.39 5.04 1.51 6.19 4.92 7.78 8.9a14.3 14.3 0 0 0 4.6 5.99c9.62 7.02 19.43 13.77 29.15 20.6 5.67-5.42 10.76-5.85 16.18-.37 8.18 8.27 17.75 14.45 28.02 19.46a93 93 0 0 0 26.23 8.1c7.41 1.18 14.42-.24 21.37-2.03 6.49-1.67 12.78-4.13 19.12-6.34 1.63-.56 3.12-1.5 4.68-2.3 2.85-1.44 4.44-.4 4.39 2.87-.06 4.32-2.52 7.55-4.78 10.91-1.7 2.54-3.45 5.08-4.76 7.82-3.71 7.73-9.9 13.1-16.6 18.04-1.73 1.29-2.92 3.57-4.8 4.34-4.65 1.92-9.47 3.72-14.4 4.68-6.04 1.18-12.27 1.45-19.25 2.2 2.99 2.86 5.78 5.24 8.23 7.93a20 20 0 0 1 3.7 5.81c1.4 3.47-.05 6.61-3.38 8.15-3.17 1.47-6.32 3-9.59 4.23-1.18.44-2.9.5-4-.03-5.84-2.79-11.47-6.01-17.34-8.72-8.5-3.9-17.15-7.47-25.69-11.27-2.92-1.3-5.96-2.57-8.49-4.46-3.37-2.5-3.63-6.79-4.86-10.51-.97-2.93-1.84-6.08-3.63-8.48-2.05-2.74-5.08-4.75-7.65-7.12-.31-.28-.44-.78-.62-1.19-1.75-4.1-3.37-8.24-2.72-12.85.04-.29-.09-.75.06-.85 3.82-2.73.02-3.96-1.25-5.22-3.96-3.96-8.9-6.08-14.3-7.6-7.42-2.08-14.66-4.77-21.99-7.2-1.54-.5-3.07-1.17-4.66-1.48-5.38-1.06-8.84-3.93-9.57-9.6-.46-3.6-2.5-6.18-5.02-8.74-9.8-9.95-21.25-17.51-33.36-24.3-3.9-2.19-7.38-5.18-10.83-8.08-5.15-4.33-11.27-4.12-17.07-3.1-4.54.8-6.76-1.9-7.33-5.08q-.2-1-.2-2.02c.18-7.03-5.02-9.85-10.03-12.83-6.8-4.05-12.6-9.3-18.21-14.85-2.76-2.72-6.42-4.55-9.7-6.73-6.14-4.08-10.5-9.68-13.6-16.26-1.57-3.31-4.74-2.49-7.25-3.09-6.13-1.47-12.68-1.12-18.47-4.2-2.11-1.12-4.17-2.34-6.34-3.33-2.63-1.2-5.29-2.62-8.08-3.15-2.56-.49-3.62-2.26-4.12-4-1.59-5.51-5.5-8.87-9.81-12.1-7.46-5.58-14.78-11.33-22.48-17.26-.51 1.29-.82 2.16-1.2 3-1.4 3.15-3.98 4.57-7.45 4.54-1.93-.01-4.03.06-5.76.79-8.28 3.44-17 4.8-25.82 5.6-8.28.76-16.58 1.19-24.87 1.81-4.26.33-8.61.31-12.7 1.35-2.6.66-4.86 2.9-7.17 4.56a4351 4351 0 0 0-38.66 28.28c-1.25.93-1.66 2.9-2.72 4.18a162 162 0 0 1-6.65 7.4c-5 5.31-7.11 12.27-10.46 18.5-6.75 12.5-9.3 26.27-11.89 40.07-2.46 13.19-5.8 26.2-8.49 39.35-1.2 5.87-1.82 11.86-2.57 17.82-1.07 8.55-1.82 17.16-3.06 25.7-1.3 8.97-3.07 17.88-4.55 26.83-2.18 13.21-4.28 26.44-6.44 39.66-2.16 13.17-4.54 26.34-4.12 39.75.26 7.9 1.03 15.78 1.68 23.67.72 8.74 1.15 17.55 2.51 26.2.74 4.69 2.87 9.24 4.83 13.65a89 89 0 0 0 18.65 26.92c5.42 5.38 10.76 11 16.9 15.46 4.26 3.09 9.98 4.11 14.76 6.6a35 35 0 0 1 8.4 6.45c2.14 2.17 1.79 5.69-.67 7.72-5.36 4.41-10.96 8.54-16.45 12.81-1.3 1.01-2.54 2.11-3.8 3.18-5.26 4.45-11.6 5.09-17.94 4.25-12.83-1.7-25.03-5.65-36.66-11.33-3.27-1.6-3.66-3.84-1.32-6.25l-4.85-16.57c-2.73 4.55-5.53 8.74-7.83 13.21-2.04 3.94-8 7.79-12.67 5.43-3.1-1.56-6.4-2.77-9.37-4.52-.86-.51-1.2-2.34-1.3-3.6-.38-4.98-.6-9.98-.82-14.98-.25-5.8-.58-11.61-.61-17.41-.08-13.14.09-26.3-.03-39.43-.04-4.45-.68-8.9-.98-13.34-.14-2.05-.22-4.1-.14-6.15q.5-12.85 1.17-25.7c.12-2.33.49-4.65.73-6.97l1.41.95c-.51-4.31-.85-8.2 1.28-12.13 3.44-6.3 2.3-13.37 2.53-20.18.1-3 .4-6 .45-9 .02-1.52-.55-3.05-.5-4.56.11-4.39.3-8.78.66-13.16.44-5.33 1.1-10.64 1.65-15.96q1.12-11.02 2.2-22.06c.29-3.08.42-6.17.75-9.25 1.14-10.39 2.38-20.77 3.48-31.15.69-6.46 1.12-12.93 1.83-19.39.84-7.59 1.87-15.16 2.78-22.74.67-5.5 1.21-11 1.91-16.5.92-7.19 1.99-14.36 2.89-21.56 1.05-8.43 1.99-16.89 3-25.32.13-1.13.4-2.24.6-3.23-5-2.67-10.24-2.37-15.44-2.26-7.8.17-15.6.43-23.39.67-4.67.15-9.34.26-14 .52-11.16.63-21.85-1.73-32.4-4.96-12-3.66-24.1-6.5-36.81-5.7-6.57.43-13.25-.1-19.74.8-13.13 1.8-24.55-2.79-35.7-8.57-5.93-3.09-11.55-6.76-17.38-10.04a5.3 5.3 0 0 0-3.3-.43c-1.7.31-2.83-.09-3.6-1.62q-1.72-3.47-3.53-6.9c-2.77-5.17-1.53-10.8-1.9-16.24-.23-3.55 1.1-6.52 2.47-9.7 1.84-4.28 3.56-8.9 3.86-13.46.73-10.85 4.53-20.7 8.13-30.72 3.68-10.26 6.86-20.7 10.3-31.03 1.63-4.86 3.36-9.68 5.08-14.5 1.85-5.15 3.44-10.42 5.72-15.37 1.74-3.8 4.54-7.11 6.57-10.8a23 23 0 0 0 2.6-7.07c1-5.99 1.4-12.1 2.47-18.08 1.89-10.62 4.12-21.18 6.12-31.78.96-5.04 1.73-10.13 2.58-15.2l-1.08-.53c-2.6 2.54-5.02 5.31-7.87 7.54a16 16 0 0 1-6.56 3.05c-2.33.44-4.6.7-6.94 1.4-3.03.9-6.56.46-9.84.18-5.4-.45-10.77-1.22-16.68-1.92zM379.22 879.4l-.96-.08-1.02 10 .73.05q.62-4.99 1.26-9.97z"/><path fill="#fff" d="M379.22 879.4q-.62 5-1.26 9.98l-.73-.04 1.03-10.01z"/><path fill="#000" d="M665.3 292.7c-.3-.46-.91-.97-.07-1.4 3.12-1.66 5.52-4.24 8.13-6.5 5.38-4.7 9.8-10.28 13.9-16.12 1.06-1.52 2-3.28 4.33-3.04.77.08.89-.41 1.1-1.03 1.7-5.09 5.53-8.7 8.91-12.6 2.17-2.48 4.36-5.06 7.52-6.44.3-.13.72-.53.73-.81.1-3.75 3.58-3.21 5.16-3.01 4.29.55 8.45-.73 12.68-.24 1.16.13 2.33.1 3.45.5.52.18.86.08.78 1-.12 1.46 4.32 4.3 5.44 3.45 2.38-1.8 4.87-.7 7.26-.68 2.59.02 5.17.61 7.73 1.06 2.27.4 3.04 2.27 3.46 4.15 1.26 5.58-1 10.8-4.14 14.62-5.38 6.54-9.84 13.83-15.91 19.8-.62.6-1.43 1-2.1 1.57-1.78 1.5-3.44 2.89-3.21 5.76.19 2.5-1.71 4.53-3.1 6.49-3.72 5.2-7.25 10.59-12.26 14.72-.56.45-.74 1.19-.17 1.43 3.88 1.63 3.92 5.5 4.74 8.64a52 52 0 0 1 1.45 14.75c-.12 3.87-.58 4.52-3.43 6 1.06.58 2.17 1.16 1.7 2.51-.46 1.3-1.7 1.19-2.69 1.23q-5.71.21-11.44.27c-1.26 0-2.4-.58-2.82-1.76a82 82 0 0 1-3.61-12.76c-.12-.6.12-1.29.2-1.94-3.46-.6-6.95-1.34-10.48-1.79-3.22-.4-5.7-1.29-5.67-5.18.02-2.79-1.93-3.76-4.22-3.63-3.19.18-5.42-1.2-7.28-3.5-.9-1.1-1.47-1.35-2.27.17a7.8 7.8 0 0 1-7.04 4.31c-6.95.21-5.76 1.23-6.81 6.25-.71 3.4-1.62 6.73-3.75 9.6-1.36 1.82-2.66 2.57-5.32 2.11-2.8-.48-5.87.79-8.84.96-5.15.3-9.66 3.2-14.8 3.44-.91.04-1.37.76-1.82 1.34-5.93 7.73-13 14.3-20.5 20.46-5.1 4.2-11.03 3.81-16.96 3.24-5.58-.54-11.13-1.36-16.7-2.12-6.4-.87-12.8-1.85-19.2-2.7-5.85-.78-11.72-1.45-17.96-2.2 1.1 2.28 2.26 4.07 3.96 5.48a14 14 0 0 1 4.64 7.21c.67 2.6-.56 5.42-1.6 7.96-1.75 4.25-3.66 8.44-5.54 12.62-.53 1.17-.4 1.91.97 2.07 3 .35 4.88 2.59 6.46 4.6 4.24 5.43 7 11.6 8.8 18.34 2 7.5 3.56 14.95 3.5 22.75-.01 2.62-.73 4.95-1.59 7.3-.67 1.86-2.23 2.15-4.3 1.88 2.95 3.87 6.48 6.63 9.73 9.67 10.52 9.84 22.57 17.7 34.41 25.76 8.38 5.7 16.78 11.35 24.65 17.73a34 34 0 0 1 5.25 5.5c1.06 1.37 1.75 3.18.75 4.9-.86 1.48-.22 2.27.88 3.07 5.79 4.2 10.39 9.59 15.24 14.76 5.7 6.1 10.78 12.83 17.51 17.91q1.07.76 2.25 1.32c2.82 1.36 4.33 4.63 3.07 7.57-1.34 3.13-2.66 5.82.03 9.15 1.1 1.36 2.23 3.9.4 6.25-.79 1.02.48 2.16 1.4 2.9 6.48 5.28 12.08 11.46 17.9 17.4 9.2 9.4 17.32 19.74 25.12 30.32 1.25 1.72 1.24 3.78 1.48 5.77.95-.28.13-1.32.75-1.78 1.15 1.91-.57 3.4-.68 5.02 7.82 1.97 14.38 5.3 15.84 14.34.81-.07.15-1 .72-1.19 1.87.62-.6 4.83-7.29 12.32 1.48-.17 2.35-1.03 3.26-1.7 9.63-6.93 19.45-7.12 29.56-1.03 6.51 3.92 12.25 8.84 17.83 13.92 10.98 10 21.8 20.16 32.69 30.26.57.53 1.03 1.06 1.96 1.06 6.44-.02 12.08 2.95 17.54 5.7 4 2.02 7.58 5.3 8.45 10.41.18 1.11 1.8 1.84 1.43 3.27-.54 2.15-2.28 2.56-4.44 2.47a504 504 0 0 0 24.47 21.75c8.15 6.86 16.45 13.55 25.3 19.66 1-2.51 2.66-4.73 4.42-6.9 1.11-1.38 2.12-1.91 3.91-.95 7.04 3.74 13.22 8.77 19.9 13.05 9.82 6.28 20.35 10.86 31.88 12.62 9.17 1.4 18.44.85 27.66-.27 6.17-.75 12.36-1.27 18.53-2 3.08-.36 6.35.22 9.07-2.2.96-.84 2.52-.79 4.02.07 2.2 1.26 4.32 2.73 6.8 3.58 1.47.5 2.11 2.13 1.4 3.64-3.97 8.38-7.35 17.22-13.6 24.17-6.42 7.14-11.49 15.35-18.37 22.15-3.52 3.47-7.65 4.45-11.99 5-7.61.97-15.27 1.97-23.17.89 3.18 3.4 6.1 6.99 9.81 9.77 3.65 2.74 3.9 5.13.45 7.97a130 130 0 0 1-15.69 11.02c-2.38 1.44-3.76.99-5.8.04a10104 10104 0 0 0-48.64-22.4c-2.52-1.15-5.36-1.48-7.72-3.13-2.66-1.86-3.1-3.52-1.86-6.6.7-1.72-.18-3.6-.44-5.35-.3-2.08-.87-4.14-1.08-6.25a3.5 3.5 0 0 0-1.7-2.84c-3.7-2.42-7.97-4.16-10.22-8.45-.39-.74-1.84-.91-2.79-1.37-3.33-1.6-2.05-2.3-3.95-5.76-2.45-4.44.37-7.28.85-10.83a4.6 4.6 0 0 0-2.9.11c-3.77 1.6-6.3-.3-9.26-2.5q-8.5-6.35-16.97-12.73a2 2 0 0 0-1.95-.25c-3.2 1.24-6.16.22-8.95-1.12-1.65-.79-3.42-.6-5.06-1.24-2.62-1.01-3.77-2.93-3.21-5.65.6-2.9.78-5.28-2.3-7.54-15.85-11.6-31.6-23.34-47.8-34.44-2.08-1.42-5.07-3.8-8.16-.86-.72.69-1.63-.31-2.47-.44a32.5 32.5 0 0 1-13.73-5.7c-3.02-2.09-3.25-3-1.05-6.35 1.43-2.18 1.19-3.16-1.01-4.6-5.19-3.41-10.46-6.77-15.02-10.99-2.9-2.68-5.84-5.62-5.34-10.18.12-1.14-.74-.96-1.32-1.09-1.69-.39-3.42-.61-5.1-1.08a17 17 0 0 1-6.81-3.66c-1.56-1.4-2.58-3.44-5.59-2.45-.95.32-3.28-1.84-4.1-3.6-.8-1.73-1.57-3.72-1.5-5.57.08-2.08-1.01-3.4-1.6-5.08-1.31-3.78-3.78-4.14-6.94-3.72-6.22.82-11.64-1.05-16.64-4.63-1.8-1.29-3.83-2.26-5.65-3.53-2.23-1.56-3.95-2.95-7.35-2.06-5.86 1.54-9.68-2.12-10.74-9.06-.13-.86-.12-1.5-1.04-2.14-9.98-6.87-19.63-14.15-28.7-23.24.09 1.62-.06 2.68.22 3.62 1.11 3.7-.75 5.53-3.75 7.27-6.2 3.58-12.95 5.16-19.84 6.35-10.52 1.82-21.05 5.03-31.73 3.68-9.84-1.25-17.39 2.76-24.74 7.87a308 308 0 0 1-16.4 10.88c-7.27 4.38-14.66 8.64-21.86 13.14-5.15 3.22-10.7 5.65-16.07 9.1l2.75-16.7-.88-.16c-.7 3.15-1.5 6.28-2.07 9.45-.33 1.8-.68 3.5-1.72 5.09-2.86 4.33-2.69 9.33-2.52 14.16.19 5.62-1.63 10.94-1.92 16.46-.5 9.47-3.4 18.57-4.15 28.03-.5 6.27-2.48 12.41-3.27 18.67-1.41 11.26-3.94 22.3-5.88 33.45-3.36 19.3-8.55 38.22-11.54 57.55-1.27 8.19-2.48 16.4-3.8 24.6-1.44 9.02-3.27 18-4.37 27.07-1.43 11.9-4.39 23.69-3.75 35.75.8 14.9 3.25 29.54 8.67 43.55 4.62 11.97 10.44 23.36 18.46 33.4 4.3 5.37 8.57 11.08 14.93 14.23 4.52 2.25 9.3 4.01 13.84 6.26 3.37 1.69 6.03 4.02 7.55 7.46.75 1.71 2.88 3.01 2.8 4.56a81 81 0 0 1-1.04 9.49c-1 5.75-5.76 8.97-8.34 13.61-1.07 1.93-3.41 2.02-5.48 2.03-1.5.01-2.86.22-4.07 1.2-6.13 4.94-13.43 6.91-21.02 7.59-11.01.98-21.74-.89-32.12-4.62-3.1-1.11-6.17-2.31-9.4-2.96q-3.25-.65-3.06-3.81c.23-4.25-2.39-7.52-3.54-11.56-3.13 3.01-6.86 4.64-9.54 7.71-1.06 1.21-2.83 1.24-3.37-.8-.37-1.42-.85-1.62-2.21-1.27-8.73 2.21-15.1-1.77-20.56-8.02-1.06-1.21-1.13-2.79-.65-4.18.95-2.74.96-5.53 1.03-8.35.3-11.22 1.07-22.45.28-33.66-.4-5.71.25-11.4-.33-17.08a447 447 0 0 0-2.62-21.13c-.47-3.07-.01-5.99.3-8.96.1-.83.74-1.46 1.24-1.48 2.68-.12 2.23-2 2.3-3.68.17-4.6-.2-9.3.7-13.75 1.77-8.71 1.3-17.6 2.94-26.27.24-1.26-.29-3.84 2.83-3.42 1.13.15.6-1.62.52-2.43-.92-10.27-.4-20.57-.54-30.85-.24-16.94.7-33.86 1.2-50.79.51-17.06 2.76-34 3.42-51.03.4-10.14 2.1-20.16 2.26-30.27.21-13.1 2.27-26.06 2.6-39.14.08-3.7.72-7.4.92-11.1.08-1.7-.24-3.44-.46-5.14-.13-1.02-1.01-.7-1.64-.73-7.6-.4-15.18-1.13-22.81-1.32-6.05-.14-12.26-.4-18-3.09-2.4-1.12-5.06.13-7.5.52a34.4 34.4 0 0 1-18.6-2.25 57 57 0 0 1-11.79-6.33c-1.3-.92-2.45-1.05-4.03-.51-8.9 3.03-18.1 3.23-27.4 2.62-12.61-.82-24.91-3.5-37.25-5.98-14.71-2.97-27.5-9.87-39.13-19.18a97 97 0 0 1-9.43-8.31c-5.1-5.3-5.56-11.36-3.13-17.93.95-2.59 2.45-4.9 4.3-6.91 2.99-3.23 3.66-7.39 5.26-11.24 2.32-5.58 2-11.49 3.34-17.16 1.31-5.46 3.39-10.65 4.65-16.07 1.17-5.07 3.4-9.73 4.97-14.63.8-2.53.31-5.25 1.1-7.83.3-.98.33-2.16.86-3.05 3.08-5.25 4.53-11.13 6.27-16.84 2.15-7 4.78-13.83 6.86-20.84 2.23-7.52 4.7-14.95 7.04-22.43 1.94-6.18 3.77-12.36 5.84-18.5a146 146 0 0 0 4.25-14.65c.81-3.65-2.22-2.48-4.06-3 .8-4.15 3.03-7.86 3.5-12.73-4.33 6.66-10.74 5.98-16.87 6.05-5.28.06-10.55-.1-15.83-.16a7 7 0 0 1-2.58-.36c-1.5-.58-2.31.03-3.1 1.6-2.92 5.75-5.7 11.6-10.36 16.28a37 37 0 0 0-5.64 6.88c-2.16 3.6-5 .94-7.54.3-1.5-.37-2.9-.94-4.44-1.21-2.67-.48-3.88 1.84-5.1 3-4.72 4.48-10.48 5.66-16.48 6.4-5.28.67-10.28 2.53-15.44 3.58-3.32.69-3.62 2.6-4.27 5.22-.91 3.58-.25 7.38-1.73 10.8-.56 1.28-.93 2.64-2.46 3.37-3.07 1.46-4.15-1.03-5.5-2.67-1.4-1.7-2.51-3.65-3.67-5.53-.56-.92-.92-1.4-2.25-.88-1.9.73-2.78-1.95-4.85-1.94-.9 0-1.63-.19-2.53.32a49 49 0 0 0-10.06 7.21c-1.86 1.79-4.03 2.68-6.29 3.5-3.1 1.11-5.45-.56-5.19-3.85.22-2.83 1.08-5.57 1.87-8.33 1.84-6.4 5.14-12.05 8.63-17.54 2.52-3.98 4.42-8.48 8.16-11.62.3-.25.66-.6.98-.6 3.34.1 3.53-2.63 4.34-4.76 2.43-6.31 8-9.14 13.4-12.13 2.75-1.52 5.97-2.08 8.5-4.09.3-.23.93-.48.9-.58-.75-2.77.8-5.43.5-8.05-.21-1.98-1.89-3.6-3.69-4.85a34 34 0 0 1-8.02-7.71c-.57-.77-.73-1.73-2.07-1.68-.85.03-1.22-.77-1.03-1.7 1.21-6.2 1.74-12.56 4-18.5 2.49-6.51 4.7-13.13 8.91-18.9 2.85-3.9 6.01-7.4 9.32-10.9a51 51 0 0 1 16.65-11.7 66 66 0 0 0 17.7-11.24 97 97 0 0 0 13.95-15.6 65 65 0 0 0 7.85-14.34c1.1-2.9.14-6.57.3-9.89a310 310 0 0 1 1.03-14.39c.1-1.18.86-2.32 1.35-3.46.1-.22.5-.56.54-.52 3.13 2.03 2.32-1.36 3.06-2.35a61 61 0 0 1 5.2-6.31c.4-.41.87-.85 1.4-1.04 7.95-2.87 12.8-9.49 18.4-15.22a72 72 0 0 0 7.48-9.14c3.8-5.46 5.91-11.57 7.98-17.76 1.98-5.9 2.72-12.07 3.27-18.19.49-5.47.69-11.02 1.08-16.5.4-5.61-.06-11.3 1.28-16.9.42-1.74-.87-3.97-1.54-5.92-1.95-5.67-.09-10.47 3.3-14.94 4.3-5.72 10.35-7.86 17.22-8.9 4.52-.68 9.02-1.3 13.57-1.67.9-.07 2.28-.22 2.27-1.3 0-1.26-.96-2.43-2.27-2.74a17 17 0 0 1-4.03-1.59c7.37-2.42 10.94-9.03 16.2-13.7.36-.3.72-.78.77-1.21.52-4.06 3.69-4.64 6.81-5.46 1.02-.26 1.42-.06 2.18.6 3.5 3.06 7.19 5.16 12.3 3.8 2.8-.76 3.74-2.92 5.28-4.66 4.9-5.55 8.47-11.94 11.7-18.74-2.58-.61-5.1-.91-7.3-2.16-1.21-.68-3.26-1.24-2.5-3 .72-1.62 2.54-1.7 4.3-.92 3.88 1.73 8.05 2.5 12.15 3.5 5.18 1.25 10.05.02 14.94-1.27 9.01-2.37 17.38-5.94 23.74-13.16 1.2-1.36 1.9-2.9 2.62-4.48.53-1.16 1.28-2.21 2.5-1.87 1 .28 1.44 1.53 1.32 2.66-.46 4.77-1.82 9.05-5.8 12.27-5.5 4.46-11.88 6.8-18.67 8.08-5.69 1.07-11.46 1.65-17.21 2.4-.87.13-1.92-.07-2.31.9-.46 1.14.27 1.46 1.33 1.6.43.05.6.67.02 1.11-.54.42-.93 1.2-1.5 1.36-7.11 2-8.79 9.3-13.42 13.73-2.43 2.33-4.41 5.14-6.61 7.73-.65.76-1.15 1.23.2 1.98 5.93 3.33 11.32 7.56 17.56 10.44 3.14 1.45 5.83 3.8 8.99 5.37 7.15 3.54 13.93 7.81 21.36 10.88.2-1.34 1.04-2.5 1.06-4.08 0-1.23 1.05-2.86 3.18-1.76 3.25 1.66 6.62 3.07 9.88 4.7 4 2.03 8.07 2.7 12.5 1.56 2.02-.51 4.15-.36 6.2-1.23 5.45-2.3 9.68-5.84 12.4-11.15.51-1 1.2-1.91 2.03-3.24-3.93.9-6.39-1.35-8.96-3.19-.69-.5-1.94-1.23-1.32-2.29.42-.72 1.68-.43 2.46-.1 2.97 1.28 4.47-.52 5.96-2.61.99-1.4.55-2.16-.84-2.86-1.5-.75-4.03-1.39-2.83-3.53.83-1.5 3.16-.62 4.8-.05.78.27 1.51.7 2.8 1.31a78 78 0 0 1-5.9-15.01c-1.36-5.1-2.46-10.28-1.38-15.58.28-1.4-.48-1.96-1.21-2.68-2.8-2.8-5.9-5.4-7.53-9.13-.58-1.35-1.27-1.37-2.55-1.27-3.58.28-7.23 1.13-10.7-.36-1.27-.54-3.6-.86-2.82-2.91.56-1.49 2.54-1.9 4.2-1.56 3.06.64 6.14.78 9.26.83 2.64.05 5.21-.36 7.81-.68.8-.1 1.8-1.44 2.27.34.32 1.25-.52 1.71-1.54 2.04-.54.18-1.05.47-1.79.8.86.56 1.72.67 2.25 1.59a57 57 0 0 0 4.7 6.99c1.4 1.74.41 4.28 1.05 6.47 3.23 11.1 6.18 22.3 14.4 31.06 4.92 5.24 10.58 9.39 17.79 11.51-1.5 1.2-2.8 1.2-4.55 1.2-4.03 0-7.76-1.81-11.82-1.4-1.4.15-2.53.7-3.35 1.54-3.4 3.46-7.35 6.49-9.9 10.68a16 16 0 0 1-11.03 7.79q-3.15.64-6.2 1.64c-3.49 1.14-6.92.16-10.36-.14-3.55-.3-7.08-.85-11.32-1.37 4.21 3.35 9.51 2.69 12.66 6.69-.62 1.28-2.84 2.27-1.87 4.2.74 1.5 2.24 2.32 4 2.6 1.24.2 1.32 1.61 1.9 2.42 2.83 3.87 7.8 4.76 10.93 8.15.44.49 1.2.66 1.56 1.55-1.64.02-2.53 1.17-3.38 2.28-.48.63-.72 1.5-1.72.99-.99-.52-.02-1.19-.01-1.78 0-.64.22-1.26.35-1.92-.18.03-.38.01-.5.1-7.27 5.7-7.4 6.43.75 10.54 6.06 3.06 12.04 6.4 19.06 9l-3.28-7.86c2.2.32 2.13 2.18 3.21 3.38.63-.42.46-2.43 1.86-1.46 1.54 1.07 4.17.78 4.4 3.53.12 1.34-.1 2.67.33 4.04 1.53 4.92 5.56 6.78 9.9 8.03 1.77.51 3.72 1.2 5.74.52 1.91-.65 1.83 1.34 2.5 2.19.83 1.07-.5 1.43-1.08 1.95-.34.31-.84.5-1.3.63-1.16.34-2.79-.37-3.46 1.04-.94 2-1.94 4.04-1.99 6.3-.05 2.87 3.63 5.59 7.65 5.71 4.86.15 9.66-1.08 15.35-.4-1.98-1.32-3.2-2.21-4.5-2.95-.8-.46-1.67-.84-1.38-1.92s1.31-.55 2-.58c3.72-.18 7.37.94 11.1.58.97-.1 1.8-.18 2.7-.77.9-.57 2.24-3.07 3.34-.03.02.06.51-.02.77-.08 3.01-.65 6-1.4 8.8-2.73 1.45-.7 2.23-1.67.68-3.1-1.44-1.34-1.7-2.73-.17-4.22.25-.25.38-.66.53-1.01.46-1.14 1.5-2.45.23-3.47-1.28-1.03-3.75-1.06-4.37-.22-2.41 3.26-4.27 1.36-6.63-.17 1.97-1.2 4.46-1.53 4.9-4.19.07-.46 1.19-.95 1.18-.08-.01 2.53 1.85 1.7 3.06 1.93 2.75.52 5.68.68 7.08 3.72 1.09 2.35-.66 11-2.67 12.62-1.96 1.58-3.91 3.32-6.17 4.31-1.97.87-4.4.19-6.6.94-2.32.8-4.8 1.1-7.79 1.74 7.37 4.53 14.64 7.8 22.1 10.63 17.16 6.52 34.9 11.14 52.79 15.12a471 471 0 0 0 33.92 6.2 1011 1011 0 0 0 29.68 3.93c6.18.72 12.44.85 18.68 1.17 1.4.07 2.37-.05 1.39 1.84-1.68 3.24-.84 4.07 2.74 4.33a97 97 0 0 1 15.56 2.61c4.35 1.05 8.75 2.1 13.27.82.42-.12 1.16-.09 1.38.18 3.13 3.9 8.21 1.68 11.9 3.83.13.09.37-.01.56-.03-1.3 1.87.28 2.95.98 4.5q2.1-3.33-1.05-4.44zm-15.31 297.8c.2-3.4 2.64-6.2 2.6-9.65-.04-3.23 2.17-6.54-.45-10-.6 1.23-1.4 1.85-1.77 3.16-.79 2.74.18 5.65-1.3 8.28-3.41 6-4.95 12.82-8.49 18.84-3.5 5.96-5.57 12.65-7.52 19.25 1.45 0 2.94-.21 4.34.05 2.31.43 3.1-.61 3.56-2.68a118 118 0 0 1 7.84-23.2c.39-.86.48-1.86.71-2.8zM420.1 222.46c-.31 1.62.76 2.75 1.51 3.94 1.71 2.72 4.33 4.82 5.21 8.55 1.61-2.43 3.4-3.98 5.09-5.62-4.42-1.45-8.87-2.87-11.85-6.81-1.94-.77-1.75-2.83-2.62-4.25-.5-.82-.6-2.45-2.1-1.92-2.07.74-3.91-.15-5.58-.85-2.35-.98-3.57-.91-5.14 1.46-2.56 3.9-2.84 5.2-.93 9.26 2.06 4.4 3.75 8.96 5.64 13.43 1.7 4.01 3.28 8.08 5.2 11.98 2.31 4.75 5.07 9.29 7.38 14.04 2.2 4.55 4.63 9 6.99 13.46a800 800 0 0 1 11.03 21.71q3.04 6.2 6.12 12.39c.09-1.45 1.04-2.51 1.08-3.8.08-2.16 1.73-2.85 3.3-2.43 1.37.37 2.01 1.76 1.56 3.53-.78 3.02-1.63 6.45-1.2 9.24 1.13 7.17-.86 14.37.9 21.44.83 3.35 1.22 6.89 2.94 9.88 4.12 7.2 9.03 13.81 14.36 20.23 4.89 5.9 10.17 11.48 14.71 17.67.98 1.34 2.24 2.83 4.23 2.6 1.96-.24 3.15.79 4.16 2.15 1.33 1.77 2.56 3.6 4.2 5.95.03-2.58-.36-4.65 1-6.29 1.48-1.76 1.87-3.99 2.82-5.98.84-1.74.02-2.87-.95-3.92-4.62-4.93-7.87-10.68-10.52-16.85-2.41-5.58-3.86-11.46-5.33-17.28-.83-3.3-2-6.7-1.6-10.26.07-.63-.3-1.74.67-1.54 1.96.42 4.3.24 5.16 2.9 2.06 6.5 4.34 12.91 6.33 19.42 1.6 5.24 3.75 10.25 6.11 15.16a32 32 0 0 0 4.64 7.32c2.44 2.73 3.19 6 2.02 8.91-1.33 3.33-2.2 6.16-.4 9.48.62 1.12 0 2.7 1.13 3.83 1.15 1.16 5.12 2.67-.18 3.6-.14.02-.24.5-.27.76-.3 3.1.04 5.9 2.53 8.26q5.68 5.37 11.02 11.07c5.2 5.5 10.1 11.26 15.47 16.57 2.52 2.5 4.77 5.25 7.53 8.02.41-4.45-1.34-8.13-2.14-11.93-1.34-6.39-3.66-12.56-5.06-18.94-1.33-6.1-3.1-11.96-6.03-17.48-.8-1.51-1.63-2.33-3.5-2.47-4.04-.32-6.85-4.76-5.44-8.55 1.17-3.15 2.21-6.32 3.91-9.3 3.93-6.88 3.53-10.34-.67-14.73-4.47-4.68-8.77-9.53-13.13-14.3-3.14-3.45-6-7.2-9.44-10.33-8.78-7.97-16.46-16.98-24.54-25.6-5.06-5.41-9.39-11.42-14.42-16.87-5.05-5.45-9.35-11.63-13.52-17.8-3.34-4.95-6.8-9.83-10.16-14.75-5.7-8.34-10.96-16.83-15.4-25.9-1.33-2.73-2.38-5.66-4.35-8.19-3.08-3.93-1.56-8.38-.4-12.64.08-.28.61-.44.92-.64zm-73.43 68.16c-.89 4.32-1.83 8.64-2.61 12.99-.21 1.17-.39 2.44.6 3.6 2.02 2.4 3.23 5.17 2.92 8.43-.07.77-.14 1.64.69 2.1 3.26 1.8 6.6 3.2 10.47 1.8-2.63-6.92-5.83-13.43-8.62-20.1-1.2-2.9-3.11-5.58-3.46-8.81-2-4.46-3.78-9.03-6.1-13.32-1.42-2.65-2.4-5.69-5-7.64-2.59-1.96-2.75-4.29-.68-6.8 4.6-5.59 9.33-11.06 13.7-16.82 1.6-2.12 4.22-3.7 4.47-6.74-3.76-.8-7.36.33-11.01.73-2.85.3-5.82 1.39-7.78-1.9a1.5 1.5 0 0 0-1.78-.75c-2.58.73-3.07-1.07-3.73-2.9-1.56-4.33-3.1-8.67-4.9-12.9-2.83-6.7-5.9-13.3-8.81-19.96-1.85-4.23-3.6-8.6-6.5-12.14-4.82-5.88-8.6-12.48-13.36-18.41-4.01-5-7.41-10.5-11.59-16.5-.05 2.71-2.84 2.82-2.63 5.18.06.78-1.18.87-1.47.15-1.02-2.51-2.63-1.33-3.94-.62a10 10 0 0 1-2.93 1.12 94 94 0 0 0-18.21 5.2c-5.17 2.1-8.32 6.36-7.88 11.81.4 4.97 1.2 9.87-.2 14.78a2 2 0 0 0-.03.88c.74 2.82.5 5.72.57 8.58.2 8.72.02 17.4-1.8 26.04-.46 2.2-1.96 4.62-.76 7.38 4.15-4.74 6.89-10.17 10.61-14.99-.18 1.47-.63 2.8-1.21 4.09-3.04 6.76-7.15 12.93-10.9 19.3-4.82 8.17-9.21 16.7-15.59 23.77-6.15 6.84-12.42 13.72-20.49 18.47-1.76 1.04-2.22 3.63-5.13 3.61-.8 0-2.59 3.67-2.18 5.87.92 4.88.44 9.75.43 14.61 0 3.86-.68 7.72-1.88 11.4-.35 1.06-.91 3.13-2.29 2.52-4-1.78-4.13 1.57-5.42 3.53-.3.45-.48.95-.94 1.38-2.56 2.44-4.23 5.65-6.08 8.53a82 82 0 0 1-8.1 10.57c-3.75 4.15-7.76 8.26-12.5 11.58a54 54 0 0 1-10.47 5.87 51 51 0 0 0-11.9 6.93 51 51 0 0 0-11.34 12.43 61 61 0 0 0-5.82 11.01c-2.07 5.2-4.61 10.3-5.77 15.91-.35 1.73-.74 2.67.87 3.62a35 35 0 0 1 12.72 13.19c.4.69.35 1.54 1.51.59 1.46-1.2 1.82.14 2.18 1.24.35 1.1-.38 1.98-.81 2.67-1.23 1.94-.5 2.14 1.34 2.36 3.34.4 6.38 1.83 9.49 3.08 5.78 2.34 10.95 5.68 16.13 9.05 6.97 4.55 13.17 9.88 17.14 17.36.88 1.65 1.2.85 1.9.02a74 74 0 0 0 10.08-15c.5-1 .15-1.36-.28-1.96-3.64-5.07-6.9-10.44-11.26-14.94-4.06-4.2-8.47-8.05-13.7-10.8-3.8-1.98-7.63-3.87-11.48-5.81.65-1.07 1.09-2.13 2.61-1.93a47 47 0 0 1 14.35 4.43c7.86 3.78 14.8 9.09 18.82 17.35.46.93 1.58 2.33 2.86 1.87 3.66-1.33 7.3-.82 11-.45q7.12.72 14.27 1.1c2.81.14 6.14 1.16 8.32-.6 4.47-3.64 8.13-8.2 11.57-12.86.38-.5.42-1.27.6-1.93 3.14-11.48 6.23-22.98 9.45-34.44 2.18-7.76 4.82-15.39 6.37-23.63-2 .62-3.78 1.3-5.61 1.7s-3.56-.8-4.06-2.11c-.57-1.49 1.42-1.66 2.57-2.04 2.2-.73 4.38-1.6 6.64-2.16 1.85-.45 2.63-1.7 2.84-3.3.75-5.59 2.62-10.9 4.1-16.3 1.33-4.82 2.82-9.6 4.23-14.41-.91-.4-1.5-.13-2.07.28-2.54 1.82-6.32 1.45-8.12 4.58-2.15-.91-3.85.64-5.74 1.08-2.05.49-3.53 1.32-2.56 3.94.85 2.26-1 5.07 1.3 7.13.03.02-.55.62-.74 1-1.26 2.44-.25 6.62 1.63 7.33-2.8 1.96-1.23 5.42-2.47 8.1-1.7-1.22-1.38-3.19-2.33-4.48-1.5-2.03-2.97 1.21-4.53.02.28-1.03.87-1.84 2.04-2.12 1.43-.34 1.53-1.2 1.15-2.48-1-3.42-.95-3.43-4.47-2.16-.55.19-1.1.5-1.66.49-.69 0-1.6.47-2-.6-.37-.98-.47-1.9.41-2.68a8 8 0 0 1 3.62-1.86c1.81-.4 2.21-1.64 1.7-3.05-.8-2.2-.3-4.47-.73-6.68-.12-.6-.27-1.4.41-1.88 2.72-1.88 4.68-4.9 8.26-5.5 1.3-.22 2.03-.73 1.11-2.18-.27-.42-.5-1.25.14-1.55.5-.23 1.07.2 1.58.54.77.5.74 2.13 2.37 1.46a73 73 0 0 1 12.64-3.6c.9-.2 1-.9 1.16-1.47 2.84-10.05 6.3-19.92 8.53-30.15 1.5-6.83 3.48-13.56 5.3-20.32.6-2.22 2.21-5.39 3.66-5.13 2.85.5 2.83-1.28 3.63-2.6 1.65-2.76 2.94-5.74 5.28-8.04.82-.81 1.76-1.31 2.29 0 .96 2.4 2.15 4.67.47 7.57-2.1 3.62-4.47 7.04-6.72 10.55-1.66 2.58-4.2 4.67-4.8 7.85-.82 4.29-1.85 8.56-2.42 12.85-.88 6.7-2.5 13.22-3.97 19.76a458 458 0 0 1-3.66 14.6c-2.08 8-3.89 16.04-6.18 23.98-.54 1.86-.78 3.8-1.23 6.1 7.73-3.28 14.82-2.98 22.2.46 7.47 3.47 11 10.26 15.97 16.46.12-2.02 1.08-3.48 1.55-5.2.72-2.57 1.58-5.78 4.02-7.12 3.5-1.92 7.63-2.79 11.51-.99 9.52 4.4 18.96 8.99 28.37 13.63 4.7 2.31 9.45 4.63 13.52 8.03 1.35 1.12 3.17 2.6 1.7 4.48-2.5 3.21-3.55 7.1-5.44 10.59-1.26 2.34-2.7 4.8-3.32 7.4-2.06 8.56-7.72 15.76-9.03 24.64-.34 2.31-2.2 4.48-3.59 6.55-1.77 2.64-4.8 3.5-7.91 2.64-4.8-1.3-9.11-3.9-13.84-5.35-7.68-2.35-15.57-4.1-22.75-7.86-1-.53-1.72-.17-2.43.26-7.3 4.5-15.53 4.67-23.64 4.6-7.81-.06-15.48-1.45-22.17-6.04-.3-.21-.58-.38-1.03-.08-3.9 2.6-3.97 6.59-.13 9.25a9 9 0 0 1 3.5 5.24c2.61 9.33-3.5 17.15-10.04 20.15-2.68 1.23-3.57 3.02-3.59 5.34-.02 4.26-2 8.03-2.73 12.12-.7 3.98-2.05 8-3.16 12-1.61 5.8-3.06 11.68-4.9 17.39-2.28 7.1-4.28 14.34-7.25 21.16-2.82 6.46-4.74 13.37-9.17 19.14-3.22 4.2-5.23 9.04-4.78 15.06 4.4-5.83 9.45-4.65 14.64-1.76.42.23.9.39 1.28.67 1.32.95 2.03.59 2.87-.8 3.22-5.35 6.73-10.51 11.05-15.07 1.03-1.08 2.08-2.12 3.73-2 1.75.14.72 1.74 1.28 2.5.1.16.27.28.42.41 2.74 2.65 5.53 5.26 8.21 7.96.96.96 3.3 1.6 2.4 3.1-.73 1.21-2.92.66-4.46.14a5 5 0 0 1-1.31-.61c-1.09-.75-1.27-.26-1.71.79-2.61 6.1-5.2 12.22-8.16 18.14-.93 1.84-2.4 3.95-5.35 3.52-4.31-.64-8.78-.58-12.97-1.64-4.82-1.22-8.24-.13-11.87 3.24-4.27 3.98-7.74 8.24-8.97 13.93a24 24 0 0 1-3.36 8.3c-2.41 3.62-3.33 7.72-4.56 11.8-1.04 3.45-1.23 7.15-3.12 10.42a17 17 0 0 0-2.32 9.2c.17 3.94 3.02 6.43 5.7 8.72 12.25 10.43 25.28 19.64 40.6 25.14 2.19.78 6.44-.95 7.51-3.06.42-.8.22-1.44-.04-2.17-.79-2.26-3.03-3.83-3.04-6.49 0-.3-.86-.77-1.37-.88-11.79-2.59-23.08-6.67-34.22-11.2-1.09-.44-2.83.04-2.81-2.06 0-2.27.75-3.6 3.22-4.09 4.78-.95 9.35.17 13.89 1.15 9.67 2.08 19.2 4.95 28.92 6.64 21.3 3.69 41.3 10.56 59.68 22.14 5.7 3.6 11.7 6.95 18.54 8.6 1.07-5.67 2.06-11.18 3.16-16.68.9-4.5 1.71-9.07 4.84-12.75.44-.52.75-1.29 1.55-1.12.98.2.62 1.1.6 1.7-.08 1.94.09 3.86-.3 5.83-1.36 7.03-2.53 14.1-3.76 21.16-.22 1.2.16 1.54 1.52 1.68 3.38.36 6.6-.17 9.8-1.08 5.53-1.57 10.44-4.72 15.8-6.48 6.44-2.11 12.24-5.37 17.98-8.64 8.74-4.99 17.16-10.53 25.6-16.03 3.79-2.47 7.29-5.39 11.43-8.48-3.74-.62-5.52-1.03-4.91-5.45.66-4.8-.77-10.02-.93-15.08-.02-.69-.04-1.6-1.07-.98-1.49.9-3.27 1.9-3.4 3.73-.35 4.43-1.07 9.02 2.37 12.79.4.44.66.98-.15 1.64-3.85-2.7-5.58-6.66-5.75-11.14-.15-3.84 1.15-7.7 4.8-9.35 2.72-1.23 3.03-2.77 2.79-5.14-.1-.97-.03-1.96-.03-2.94-.01-8.63-.03-8.68 7.94-11.85 1.23-.5 1.17-.95 1.18-2.09.03-2.75-1.68-5.05-1.63-7.8.03-1.7-.26-3.46-.7-5.12-2.26-8.74-3.11-17.72-4.2-26.62-.9-7.27-.72-14.7-.6-22.04.1-6.75.67-13.5 1.13-20.24.52-7.6 1.11-15.23 2.26-22.8.5-3.31 1.15-6.65 1.38-9.98.35-4.93.93-9.8 2.1-14.59.37-1.48.48-2.94.7-4.41.53-3.71-.4-7.35-.06-11 .33-3.65.25-7.21-.87-10.71-.22-.67-.4-1.28.1-1.93 1.2-1.55.93-3.48.59-5.08-.8-3.83-.15-7.76-1.09-11.55-.9-3.65-.06-7.42-.57-11.05-.9-6.43-1.11-12.9-1.82-19.33-.6-5.56-1.48-11.09-2.25-16.63-.8-5.64-1.54-11.29-2.44-16.91-.46-2.86-.78-5.78-1.4-8.55-1.28-5.57-1.9-11.25-3.2-16.81-1.11-4.78-1.89-9.64-2.78-14.47-.9-4.8-1.64-9.64-2.61-14.44a341 341 0 0 0-3.2-14.15c-1.2-4.85-2.67-9.63-3.79-14.5q-1.45-6.27-2.83-12.55c-1.01-4.65-2.16-9.28-2.89-13.98-.88-5.7-2.47-11.3-2.67-17.12-.03-.77-.4-1.89-1.45-1.82-1.14.07-1.52 1.02-1.5 2.12.04 1.34.25 2.72-.8 4.15-.45-2.37-.27-4.4.62-6.4.96-2.13 1.74-4.29 1.5-6.73-.38-3.95-1.3-7.83-2.07-11.68-.63-3.17-1-6.47-2.01-9.57-.95-2.87-1.11-5.63.23-8.4 1.59-3.28 3.17-6.6 4.9-10.2-9.93-.6-18.73-4.5-27.4-8.3-6.87-3.03-14.06-5.7-20.22-10.26a4 4 0 0 0-1.03-.56c-5.53-1.76-9.9-5.62-14.8-8.48-7.65-4.5-14.68-10.03-22-15.07-.73-.5-2.04-1.44-2.43-.14-.28.95-1.85 2.81.65 3.53 1.61.47 2.88 1.56 4.23 2.49 4.52 3.1 8.5 6.87 12.59 10.47 1.15 1.02 3.57 2.05 2.39 3.76-1.21 1.74-3.33.36-4.96-.46-.34-.17-.66-.41-.98-.64-4.48-3.1-8.94-6.23-13.45-9.28-.58-.39-1.46-1.61-2.1-.3a19 19 0 0 0-1.56 4.92c-.23 1.25 1.3 1.56 1.97 2.31 5.9 6.48 9.58 14.48 14.87 21.41 3.98 5.21 6.67 11.49 9.09 17.72 1.5 3.86 4.76 6.8 5.28 11.3.28 2.42 2.28 4.6 3.17 7 2.8 7.64 6.9 14.78 8.68 22.81.3 1.38 1.3.86 1.99.51a53 53 0 0 1 9.96-3.8 62 62 0 0 1 18.5-2c1.14.04 1.48.44 1.98 1.48.82 1.69-.28 3.04-.23 4.56.07 1.75 2.23 2.75 1.89 3.94-.37 1.26-2.7 1-3.65 2.7-2.8 4.99-5.73 9.94-9.01 14.63-3.48 4.97-7.37 9.65-11.22 14.34-.89 1.09-1 1.63.02 2.6 4.5 4.2 7.02 9.76 9.57 15.17 3.86 8.2 7.28 16.6 11.37 24.71 3.11 6.17 5.72 12.6 8.34 19a379 379 0 0 1 7.46 19.49 674 674 0 0 1 8.74 26.9c2.18 7.29 4.28 14.65 5.73 22.1 1.19 6.13 3.48 11.7 6.31 17.11.97 1.85 1.07 3.58.76 5.75l-2.3-2.72 2.92 16.24c.09.5.17 1.02-.4 1.25-.74.29-.92-.25-1.26-.79-1.98-3.15-2.2-6.9-3.22-10.32-1.83-6.15-3.57-12.37-5.33-18.56a358 358 0 0 0-7.18-22.2c-2.85-7.98-5.39-16.06-8.61-23.94a172 172 0 0 1-6.22-17.06 10 10 0 0 0-2.74-4.51c.41 3.34-1.62 6-2.26 9.02-.35 1.6-1.47 4.9-4.65 2.27-.47-.39-.9.3-1.33.28-3.83-.12-7.81 1.15-11.4-1.09-6.02-3.74-8.8-9.87-11.6-15.96-1.84-3.97-3.19-8.4-8.7-8.77-1.35-.1-1.04-.97-.76-1.92.67-2.27 1.25-4.63 2.01-6.78 1.15-3.23 1.5-7.62 6.32-8.22q2.47-.3 4.93-.66c.55-.08 1.4.48 1.47-.77.06-1.25.45-2.48.5-3.72.17-4.75 2.24-8.18 6.74-9.98zm253 40.12c2.01.28 4.1.31 6.01.9 3.18.97 7.07.8 9.1 3.93 1.27 1.95 3.87 1.88 4.84 3.98.08.18.9.1 1.35.02 7.26-1.28 14.54-2.26 21.94-2.2 2.97.02 4.64-1.58 4.66-4.6.01-2.84.36-5.69.74-8.44 1.2-8.9.8-18 3.34-26.73.37-1.25.03-3.32-1.67-3-5.46 1.04-10.6-.7-15.84-1.38-2.1-.28-4.32-1.75-6.21-.96-2.76 1.15-4.92.61-7.28-1.02 0 1.25-.2 2.27.03 3.17.88 3.49.27 7 .42 10.51.05 1.26-.36 2.76-1.76 2.92-1.25.14-1.45-1.3-1.78-2.32a57 57 0 0 1-2.88-16.49c-.04-1.62.85-3.76.1-4.75-.97-1.3-3 .24-4.63.26-15.26.2-30.48-.1-45.64-2.33a434 434 0 0 1-39.2-7.56 329 329 0 0 1-37.89-11.47c-9.85-3.7-19.64-7.64-27.92-14.47-.75-.62-1.61-2.08-3.18-.5-.86.86-2.5-.06-2.7-1.13-.36-2-1.44-1.16-2.54-1.18-3.98-.08-7.45 2.53-11.42 1.95 1.45 2.73 2.84 5.43 4.31 8.1 2.44 4.41 4.7 8.96 7.46 13.19 5.66 8.65 11.28 17.34 17.45 25.65 3.33 4.48 6.36 9.22 9.97 13.46 5.56 6.52 10.73 13.4 16.76 19.53 5.5 5.6 10.83 11.36 16.23 17.05 4.2 4.44 8.5 8.8 12.56 13.36 1.64 1.83 2.64 4.37 5.74 2.23.4-.28 1.15-.03 1.73-.07 7.41-.45 14.8.13 22.17.64 4.36.3 8.67 1.13 13.02 1.5 7.84.7 15.62 2.2 23.54 2.03 1.34-.03 2.57-.35 3.48-1.28q8.68-8.83 17.31-17.7c-4.54.82-8.82 2.12-13.11 3.37-5.46 1.59-10.94 3.07-16.36 4.74-1.5.46-2.4-.14-2.9-1.21-.64-1.4.95-1.2 1.56-1.5 7.87-3.97 16.16-6.93 24.4-10 3.34-1.25 6.7-2.43 10.3-3.7-5.16-2.95-10.96-3.28-15.62-6.52zM410.99 967.98A59 59 0 0 0 400.4 974c-3.94 2.71-8.37 4.21-13.47 2.97-4.45-1.1-8.6-2.9-12.86-4.48-1.45-.53-2.37-.6-2.39 1.42-.1 15.38.35 30.77-1.06 46.13-.62 6.9.13 13.86-.55 20.81a66 66 0 0 1-1.77 9.09c-.59 2.42 0 3.96 2.38 5.06 3.45 1.6 6.97 1.65 10.57 1.22 1.7-.2 2.66-1.16 2.73-3.11.2-4.9 2.37-9.35 3.48-14.06.13-.55.37-1.37.76-1.52 2.67-.98 3.21-3.86 5.08-5.59 2.29-2.13 4.54-2.2 6.28.53 1.54 2.43 1.46 5.23 2.13 7.87 1.71 6.77 3.57 13.52 5.23 20.3.33 1.35.73 1.92 2.15 2.2 5.31 1.09 10.66 2.12 15.86 3.63 8.38 2.46 16.83 4.02 25.6 3.3 6.11-.5 11.78-1.56 16.5-6.33a46 46 0 0 1 8.36-6.71c1.5-.93 3.8-2.07 3.71-4.16-.24-5.93-3.6-11.73-8.9-13.53a247 247 0 0 1-13.47-4.9c-9.83-3.96-17.37-10.66-23.75-18.7-6.3-7.95-10.91-16.99-14.9-26.32a148 148 0 0 1-7.11-21.14m527.24-113.25c-3.55-3.52-7.08-6.77-10.3-10.3-2.56-2.78-5.36-5.36-7.51-8.53-1.04-1.52-.78-3.02-.05-4.34.77-1.4 1.87.2 2.87.12.55-.04 1.12.23 1.68.26 9.47.63 18.89-.43 28.3-1.05 3.71-.25 7.28-.99 10.12-4.2 3.48-3.91 7.58-7.26 11.38-10.9 1.33-1.27 3.03-2.31 3.76-4.04 3.42-8.1 7.57-15.85 11.27-23.8.2-.45 1-1.05.17-1.69-.79-.6-1.26-.27-1.9.4-3.6 3.83-8.15 6.12-13 7.93-7.88 2.94-16.1 3.9-24.39 4.78-8.32.88-16.43.12-24.49-1.83-14.8-3.6-26.73-12.25-38.15-21.78-3.23-2.7-6.4-5.47-9.9-8.46-2.75 8.2-4.93 16.2-8.78 23.52-3.93 7.47-9.02 14.05-15.88 19.22 7.1 3.57 13.06 10.02 16.7 15 .71.96 1.66 2.09.95 3.54-1.2 2.47-.82 5.16-1.07 7.76-.07.66.43.97 1.11 1.1 3.72.66 6.9 2.64 10.17 4.34a576 576 0 0 1 38.53 22.1c.62.38 1.13 1.33 2.45.48 5.12-3.3 10.41-6.32 15.96-9.62zM585.17 555.4c7.62.02 15.2-.68 22.64-2.16 7.77-1.55 15.5-3.41 22.87-6.47 2.23-.92 2.16-1.82.77-3.46-5.15-6.06-10.32-12.11-15.3-18.32a14.4 14.4 0 0 0-6.45-4.68c-7.5-2.8-14.88-5.92-22.38-8.72-16.01-5.95-32.13-11.6-49.1-14.34-2.02-.32-3.05.26-4.2 1.7-6.73 8.44-12.96 17.17-17.04 27.28-.6 1.48-.45 2.22.56 3.28a69 69 0 0 0 10.93 9.26c17.06 11.8 36.22 16.5 56.7 16.63m-96.12-4.36 7.26-9.04L509 526.25c1-1.23 1.35-2.14.07-3.7a28 28 0 0 1-4.46-8.16c-2.92-7.8-2.15-11.4 3.91-17.02.67-.61 1-1.16.38-1.98-1.57-2.1-3.16-4.2-4.66-6.36-1.16-1.64-2.2-1.6-3.65-.27-2.94 2.67-6 5.23-9.44 7.26-1.1.65-2.46 1.2-3.44-.1-.9-1.2.07-2.18.76-3.13a50 50 0 0 1 9.01-9.17c.7-.56 2.36-1.3 1.22-2.4-2.03-1.95-3.11-4.46-4.54-6.73-1.13-1.8-1.68-1.7-3.08-.23-11.8 12.35-24.84 23.16-39.48 32.02a130 130 0 0 1-15.11 7.7c-1.4.6-1.46 1.06-.6 2.26 2.62 3.62 5 7.42 6.97 11.45a169 169 0 0 1 13.01 37.6c.42 1.87 1.25 2.98 3.26 3.36 3.8.72 7.59 1.56 11.31 2.6 1.5.41 2.24.12 3.17-1.08 4.03-5.15 7.99-10.38 12.37-15.22a7 7 0 0 0 1.33-7.58c-.94-2.43-.63-4.59-.33-6.96zM438.1 417.57c1.1-1.25 1.62-1.94 2.24-2.54 4.7-4.56 8.9-9.65 14.2-13.57 2.82-2.11 4.26-1.54 6.4 1.27 2.45 3.18 3.32 7.13 5.6 10.35.35.48.26 1.55 1.55.9 5.48-2.8 10.77-5.87 15.51-9.83 1.05-.88 1.18-1.59.2-2.63-3.51-3.77-7.2-7.4-10.4-11.43-4.26-5.35-9.28-10.08-13.02-15.88-2.93-4.53-6.18-8.86-8.72-13.63-.53-1.01-1.24-.97-2.18-.92-3.42.18-6.88.62-10.23.53-8.72-.22-15.78 4.05-23.22 7.47-.83.38-1.03.74-.95 1.7.34 3.87.2 7.8.85 11.61.43 2.54.17 5.05.49 7.54.87 6.98.98 13.99.94 21-.02 2.94-.15 5.84 3.6 7.18 3 1.06 5.91 2.27 8.97 3.2 2.5.76 3.29.06 4.27-2.19 6.95-15.9 14.08-31.7 21.19-47.63 1.52 1.62 1.76 3.19.89 5.12a3156 3156 0 0 0-15.24 34.23c-1.04 2.36-2.38 4.66-2.94 8.15m82.74 214.75c8.44-.63 18.4-1.46 28.03-4.8 4.63-1.6 9.5-2.5 14.2-3.96 1.78-.55 2.4-.84.9-2.53-4.64-5.2-8.14-11.26-11.75-17.14-3.63-5.91-7.6-11.66-10.6-17.96-.77-1.61-1.71-3.39-3.55-3.9-2.97-.81-5.96-1.1-8.46 1.46a8 8 0 0 1-2.7 1.7c-9.8 3.74-19.7 7.07-30.19 8.28-.98.12-2.07-.22-1.88 1.67.97 9.46 2.41 18.88 2.18 28.43-.01.66-.27 1.52.37 1.92 2.46 1.53 4.27 3.93 7.13 4.93 4.8 1.67 9.75 1.83 16.32 1.9m48.62-14.7c1.9-2.32 3.28-4.36 5.02-6.03 7.14-6.87 14.38-13.7 22.59-19.25 7.82-5.3 15.3-11.11 24.03-15.07 8.04-3.64 16.06-7.3 24.45-10 3.17-1.03 3.54-3.56 3.7-6.09.13-2.08-.25-4.1-2.85-5.03-3.26-1.16-5.8-3.52-8.18-6-.86-.9-1.62-1.35-3.02-.85-4.95 1.75-9.91 3.44-14.6 5.83a357 357 0 0 1-35.61 16.08c-9.69 3.67-19.5 6.89-29.67 8.94-3.25.65-6.69.26-9.7 1.49 7.91 12.06 16.41 23.5 23.83 35.98zm-147.24 14.3c.66-.32.88-.36.99-.5 9.35-11.26 18.68-22.55 28.07-33.78 1.33-1.58.91-2.16-.87-2.31-4.28-.37-8.5-1.1-12.67-2.03-3.96-.9-7.87-2.04-11.78-3.14-.7-.2-1.67-.54-1.24-1.6.42-1.04 1.12-.2 1.7-.06q.72.15 1.42.37c8.01 2.36 16.15 4.12 24.52 4.43 3.13.12 5.74-2.63 5.22-5.67-.95-5.6-2.12-11.2-3.21-16.78-.25-1.29-.84-2.05-2.25-2.6-6.53-2.6-12.7-5.83-18.19-10.37-8.71-7.2-13.77-16.38-15.74-27.4-.62-3.43-1.22-6.88-1.16-10.4.03-1.44-.68-1.66-1.81-1.43-.62.13-1.63-.38-1.52 1.02.57 7.11.31 14.25.73 21.38a216 216 0 0 0 4.27 32.98c1.28 5.94 2.07 12 2.8 18.03.82 6.93 1.93 13.9 1.78 20.85-.15 6.21.5 12.52-1.06 19zm-159.3-240.54v2.06c-.13 3.8-.98 4.76-4.66 4.57-1.72-.1-1.51 1.29-1.6 1.89a59 59 0 0 1-3.32 13.3c-.64 1.63-.06 2.35 1.16 3a50 50 0 0 0 9.04 3.94c6.4 1.96 12.86 4.16 19.65 2.57 4.41-1.04 9-1.66 12.66-5.09 3.05-2.85 4.7-6.42 6.29-10 2.72-6.14 4-12.38 2-19.3-2.43-8.44-7.32-15.08-13.15-21.28a6 6 0 0 0-2.36-1.66c-7.68-2.58-15.35-2.6-22.94.47-.77.3-1.37.51-1.73 1.6-1.82 5.43-2.04 11.2-3.76 16.62-.13.4-.23.75.22.98 2.73 1.37 2.51 3.89 2.5 6.33M536.9 578.49c-.94-2.56-2.56-4.46-3.81-6.57-4.61-7.74-8.98-15.62-13.4-23.47-1.8-3.2-3.53-6.43-5.28-9.66-.46-.85-.57-1.8.34-2.35 1.05-.63 1.36.48 1.66 1.08 1.6 3.12 3.76 5.85 5.69 8.75 6.81 10.24 13.53 20.55 20.26 30.85.66 1.02 1.56.97 2.56.92 6.23-.34 12.23-1.9 18.24-3.4 12.36-3.09 24.18-7.73 35.9-12.63 4.32-1.8 8.5-3.92 12.73-5.9-35.81 5.08-68.53-.74-96.28-25.65a56 56 0 0 0-3.55 9.76c-1.96 7.92-3.43 15.91-.8 23.93 2.15 6.55 5.8 11.66 13.52 12.18 1.23.08 2.54.41 3.63.98 2.63 1.4 5.4 1.45 8.6 1.17zM303.2 420.26c6.48 2.05 12.34 4.78 18.52 6.76 4.86 1.55 9.36 4.25 13.96 6.53 1.11.55 1.7.62 2.54-.5 4.52-6.1 7.26-13.1 9.85-20.08 2.87-7.76 5.84-15.46 9.57-22.82 1.24-2.46.78-3.34-1.41-4.18-.55-.2-1.03-.56-1.57-.8-12.3-5.51-24.54-11.14-35.97-18.38-.4-.26-.87-.43-1.28-.69-1.08-.72-1.77-.5-2.24.74-.38 1-1.11 1.89-1.33 2.9-.96 4.43-2.43 8.61-5.14 12.28-.36.49-.4.75-.14 1.24 2.89 5.5 3.06 11.57 2.38 17.38-.8 6.86-2.8 13.6-7.73 19.63zm99.54 243.05.45.8c3.34-1.05 7.14.24 10.17-1.67 12.26-7.74 25.92-12.58 38.78-19.08 4.97-2.5 10.27-4.4 15.49-6.4 1.75-.68 1.89-1.4 1.2-3a82 82 0 0 1-4.78-14.91c-1.53-7.08-3.07-14.15-4.51-21.24-.51-2.5-1.75-2.1-2.89-.75-6.01 7.17-11.93 14.43-17.9 21.65-9.33 11.3-18.73 22.55-28.02 33.9-2.81 3.44-5.33 7.13-8 10.7M108.47 487.5c1.03-1.6 1.08-3.39 2.05-4.77 3.8-5.45 8.16-10.3 14-13.67l5-2.86c1.58-.88 2.26.66 3.17 1.31 1.16.83-.23 1.27-.46 1.94-1.52 4.22-5.36 6.19-8.31 9.02-1.68 1.6-.63-.99-1.74-.76-.44 3.58-7.13 3.97-4.57 9.49-1.47-.27-1.18-2.93-2.7-1.8-.91.7-2.37 2.26-1.42 3.62 1.55 2.22 2.16 4.9 4.05 7.33 1.1-3.16 2.21-6.1 3.06-9.11.2-.75.38-1.32 1.02-1.47 4.96-1.17 9.25-3.93 13.78-6.03a21 21 0 0 1 8.3-2.01c3.04-.13 6.1-.37 9.1-2.37 3.1-2.06 5.07-5.04 7.91-7.2 1.7-1.27 3.14-2.87 4.8-4.19 1.6-1.26.9-2.79-.07-3.42-1.4-.92-2.47-2.18-3.8-3.15-6.7-4.92-14.5-7.58-21.94-10.94-3.2-1.45-6.75-3.2-10.41-.75-1.53 1.02-2.9 2.21-4.76 2.83-4.22 1.4-7.73 4.22-11.73 6.14-3.43 1.66-6.58 4.35-6.72 8.9-.14 4.46-.23 8.93-.46 13.39-.13 2.56.15 5.01 1.36 7.3.53.99 2.78 1.13 1.5 3.24zm313.8 13.26c-.2 3.04 3.84 5.47 6.23 4.23 20.56-10.67 40.57-22.35 60.85-33.53 1.56-.86 1.5-1.57.69-2.92a889 889 0 0 1-10.52-17.66c-.97-1.68-1.56-.61-2.44-.03-6.26 4.15-12 9.1-18.65 12.67-9.93 5.35-18.85 12.12-27.46 19.3-2.12 1.77-4.96 3.21-5.83 5.98-1.3 4.07-2.03 8.3-2.88 11.95zm187.23 17.22c.28-6.46-4.91-8.95-8.74-12.19a80 80 0 0 0-7.26-5.34c-5.58-3.72-11.2-7.38-16.67-11.25a1205 1205 0 0 1-21.93-15.97c-1.23-.9-1.54-.1-1.96.63-2.28 4-5.55 7.29-8 11.14-2.2 3.44-5.17 6.26-7.48 9.8 25.3 4.42 48.6 14 72.04 23.17zm-116.33 91.36c.53-5.02-1.23-9.38-.84-13.9.09-1-.34-1.31-1.42-1.15a178 178 0 0 1-23.1 2.3c-1.72.04-4.19-.7-4.97.5-.7 1.08.32 3.31.66 5.02 2 10.3 4.37 20.49 8.06 30.34.82 2.16 1.65 2.32 3.6 1.44 5.37-2.41 10.74-4.9 16.31-6.76 2.24-.74 2.69-1.62 2.55-3.57-.33-4.9-.6-9.82-.86-14.22zm31.55-115.43c2.45 0 4.13-.16 5.78.04 2 .25 3.16-.48 4.28-2.11a164 164 0 0 1 15.8-19.56c1.22-1.28 1.16-2-.23-2.88-3.15-2-5.6-4.79-8.2-7.38-.73-.71-1.38-1.28-2.56-.87a86 86 0 0 0-21.9 11.1c-4.02 2.85-6.85 7.41-10.78 10.65-.21.17-.36.45-.46.7-.78 2.2 2.19 10.79 4.13 11.94.55.33 1.13.18 1.69-.04 4.28-1.63 8.74-1.78 12.46-1.59zm-71.07 72.9c-1.51-5.56-2.8-10.7-4.3-15.77-3.46-11.85-7.93-23.26-14.95-33.52-.63-.93-.95-2.35-2.83-1.78a80 80 0 0 1-9.37 2.21c-1.4.24-1.7.7-1.73 2a55 55 0 0 0 1.6 13.6c3.97 17.03 15.2 27.26 31.58 33.26M425.1 295.65c-5.19 8.28-10.43 15.72-16.47 22.57-.8.9-.76 2.05-.65 3.28.42 4.8 2.09 9.43 2.05 14.31-.01 1.5.59 2.65 2.88 2.36 7.98-.99 15.49-3.48 22.85-6.55 8.03-3.34 8.14-3.72 3.27-10.88-.26-.38-.67-.65-.93-1.03-3.1-4.53-6.14-9.13-8.4-14.11-1.43-3.19-3.6-5.95-4.6-9.95m81.79 130.76-1-1.13c-5.75-6.15-11.57-12.24-17.2-18.5-1.24-1.37-2.06-1.78-3.48-.5a65 65 0 0 1-15.7 10.58c-.76.36-1.27.52-.56 1.78 1.78 3.15 3.17 6.51 4.87 9.74 2.49 4.72 4.48 9.72 7.05 14.43.6 1.1.9 1.09 1.89.48a254 254 0 0 0 22.97-15.96q.52-.41 1.15-.94zM397.7 266.39c-1.45 3.23-.16 6.27.46 9.35.13.62-.23 1.46.75 1.66.88.18 1.14-.56 1.5-1.12q3.74-5.87 7.52-11.73c.36-.57.81-.98.42-1.8-1.62-3.48-3.5-6.83-4.5-10.6-.3-1.13-1.28-2.1-3.1-1.8-1.82.29-3.75-.07-5.6.51-1.7.53-1.88-.9-2.19-1.94-.43-1.5.7-1.38 1.68-1.6 1.15-.28 2.27-.6 3.45-.49 1.47.14 1.9-.34 2.03-1.94.37-4.31-2.16-7.8-3.02-11.77-1.32-6.1-3.89-11.94-4.62-18.22-.32-2.8-2-5-2.96-7.51-.42-1.1-1.86-2.87-2.85-1.7-1.75 2.03-3.6 4.38-2.76 7.6 1.62 6.18 2.83 12.48 4.08 18.74 2.23 11.22 4.97 22.31 7.3 33.5.2.89.65 2.72 2.41.85zm78.6 179.76c-.41-2.75-2.5-4.12-3.53-6.12-3.18-6.23-7.02-12.12-9.72-18.58-.43-1.03-.87-1.54-1.88-1.08-2.25 1.03-4.73 1.1-7.06 1.77a6.1 6.1 0 0 0-4.26 3.5c-2.2 4.58-4.05 9.3-6.19 13.9-2.48 5.3-2.54 5.34 3.35 6.15a113 113 0 0 0 29.3.46m36.86 80.97c-1.85.43-2.2 1.59-2.83 2.38-5.78 7.26-11.5 14.57-17.26 21.84-1.84 2.33-3.85 4.1-2.8 7.97a49 49 0 0 1 1.6 11.16c.1 3.47 2.12 3.75 4.58 3.99.68.06 1.37 0 2.05.04l17.51.87a21 21 0 0 1-7.88-10.47c-3.22-9.01-1.45-17.78 1.2-26.5 1.11-3.65 2.46-7.23 3.84-11.28zm-39.5-77.88c-11.26 1.15-21.55.15-31.79-1.5-1.72-.28-2.2.07-2.73 1.47-2.8 7.26-5.7 14.48-8.46 21.75-.31.83-1.27 1.95-.49 2.66.75.7 1.95.17 3.03-.12 8.78-2.38 16.44-6.9 23.74-12.15zm-6.09 144.65c3.52-.18 7.61-.3 11.7-.62q5.22-.42 10.4-1.26c.83-.13 2.66.06 2.36-1.38-.92-4.49-.4-9.1-1.46-13.57-.27-1.16-.73-1.34-1.7-1.45a843 843 0 0 1-12.76-1.47c-.63-.07-1.12-.04-1.55.5-4.2 5.27-8.49 10.48-12.59 15.83-1.34 1.74-.36 3.36 1.8 3.41 1.07.03 2.14 0 3.8 0zm-62.63-290.98c4.7-5.14 8.9-10.57 14.17-14.96 1.11-.93 1.1-1.97.3-3.1-2.13-3-3.44-6.44-5.16-9.65-1.31-2.45-2.47-4.98-3.76-7.43-.98-1.87-2.08-1.68-2.95.08-1.34 2.73-2.76 5.48-4.8 7.68-3.7 4.01-2.73 8.52-1.4 12.78 1.5 4.76 2.01 9.7 3.6 14.6m80.43 173.6a3036 3036 0 0 1-56.7 31.24c5.57 6.35 3.4 5.48 9.74 2.83 12.16-5.06 22.82-12.57 32.98-20.82 4.98-4.04 9.9-8.18 13.98-13.25m-71.63-117.3c.43.5-1.6 2.99 1 2.8 2.87-.2 5.9-.32 8.57-1.56 7.03-3.27 13.97-6.74 21-10.06 1.41-.67 1.35-1.34.86-2.67-.91-2.54-2.7-4.76-2.88-7.58-.05-.73-.4-1.15-1.11-.85-1.61.66-3.41.59-4.96 1.6a819 819 0 0 1-20.19 12.92c-1.98 1.21-3.2 2.44-2.29 5.4m114.39 222.11c-6.55-3.1-13.03-4.68-19.99-4.58-4.75.06-9.52-.54-14.27-.97-1.83-.16-1.88.67-1.2 1.82.89 1.54.71 3.16.8 4.8q.19 3.2.59 6.4c.2 1.75 1.09 2.49 2.96 2.04 3.38-.82 6.8-1.43 10.2-2.24 7.14-1.7 14.23-3.6 20.91-7.27M716.08 340.2c-2.22-5.62-4.7-11.1-6.03-16.92-.6-2.6-1.32-4.18-4.3-4.2-1.7-.02-3.39-.7-5.07-1.11-1.36-.34-2.36-1.05-1.79-2.63.56-1.53-.73-1.58-1.47-1.95-2.9-1.46-5.6-.42-7.8 1.33-2.12 1.68-1.71 4.5-1.3 6.82.38 2.06.27 4.82 2.87 5.64 2.27.71 4.92 1.62 7.05 1.07 3.1-.8 4.46.63 5.44 2.76 1.12 2.49 2.28 3.18 4.49 1.24.61-.53 1.51-1.09 2.24.02.59.89.32 1.64-.33 2.36-.92 1.02-1.88 2-2.68 3.1-.82 1.13.14 2.67.82 2.4 2.67-1.07 5.18.54 7.86.07m-.58-60.79c1.88.61 3.13 1.7 4.44 2.67 5.56 4.11 5.52 4.1 8.91-1.93 3.86-6.85 7.8-13.64 11.7-20.47.76-1.34 1.43-2.71 2.44-3.93.5-.6 1.45-1.36.66-2.38-.36-.47-6.98-2.39-7.11-2.15-.95 1.7-2.47 3.02-3.43 4.65-4.96 8.4-10.26 16.51-17.62 23.56zM530.83 496.85c-4.7-.34-9.1-.4-13.5.5-4.21.88-4.36 1.08-2.57 4.83.04.1-.06.26-.15.56-.63-.73-1.25-1.35-1.74-2.06-.7-1-1.44-1.22-2.43-.45-2.16 1.66-3.87 3.61-4.1 6.47-.35 4 .53 7.76 2.44 11.28q2.6 4.82 6.08.76l.2-.21c5.58-6.85 11.11-13.74 15.76-21.68zm-28.2-24.6c1.51.89 1.42 2.34 1.6 3.67.14 1.03.43 1.86 1.6.95 2.78-2.14 6.09-3.58 8.5-6.16 5.42-5.8 10.65-11.75 16.13-17.48 1.87-1.95-.39-2.4-.9-3.37-.62-1.16-1.55-1.03-2.56.01a29 29 0 0 1-4.3 3.53c-8.33 5.82-17.12 10.93-25.85 16.12-1.29.76-1.88 1.52-.79 2.59 1.81 1.78 2.4 4.2 3.72 6.22.47.73.42 2.23 1.76 1.78 1.14-.38.77-1.67.74-2.6-.06-1.72-.78-3.46.36-5.27zm-87.56 22.77c2.4-2.34 5.61-3.77 6.63-7.26.85-2.88 1.48-5.84 2.55-8.63.93-2.43 1.44-4.39-1.07-6.27-1.19-.9-1.62-2.59-2.06-4.1-1.16-4.08-.4-8.13.29-12.14a91 91 0 0 1 3.1-12.66c.29-.9.34-1.8-.69-2.23-.56-.24-1.22-.86-1.81-.03-2.35 3.3-5.38 6.27-5.67 10.64-.32 4.78-.48 9.53-.33 14.35.17 5.33-.57 10.7-.73 16.05-.12 4-.83 7.98-.22 12.29zm-211.42 82.4 1.12.74c1.27-1.46 2.37-3.18 3.87-4.35 2.74-2.14 4.97-5.41 9.24-4.59 4.46.86 8.97 1.46 13.38 2.53 1.84.45 2.28-.18 2.94-1.59 1.9-4.05 4.1-7.95 6.67-11.62 1.06-1.5 2.89-2.95 3-4.53.14-1.94-2.8-2.24-3.86-3.85-1.01-1.54-1.68-.76-2.53.35-2.77 3.67-5.14 7.57-7.58 11.45-2.66 4.24-4.8 5.02-9.48 3.55a44 44 0 0 1-5.4-2.1c-2.03-.95-3.55-.43-5.27.92-4.38 3.44-3.33 9.04-6.09 13.08zm306.73-131.6c-8.61.85-16.7 2.2-24.88 2.56-2.2.1-1.17 1.31-.82 2.1a143 143 0 0 0 8.5 16.12c.8 1.3 1.27.82 1.9.1 1.37-1.52 2.75-3.04 4.03-4.63 4.1-5.07 8-10.26 11.27-16.25m-129.31 216.7c5.03 1.23 9.76 1.34 14.5 1.5 1.65.05 2.67-.4 3.5-1.84 2.61-4.57 6-8.6 9.24-12.7 2.03-2.55 4.72-4.7 2.3-8.45-10.76 5.48-19.28 14.27-29.54 21.5zm103.48-216.95c2.34 0 3.98.12 5.6-.02 5.7-.5 11.38-1.25 17.09-1.6 4.55-.27 4.7-.16 6.23-4.48.3-.81.43-1.69.8-2.47.8-1.68.38-3.1-.97-4.17-1.4-1.1-2.58-2.22-4.88-1.5-8.86 2.79-16.1 8.16-23.87 14.24m-36.95-21.64c-12.24-.77-12.46-.84-16.46 10.24-3.25 9.02-4.57 6.88 5.62 9.87 1.02.3 1.36.1 1.74-.71zm-118.2-109.9c3.22-.2 6.2-.4 8.97 2 3.47 3.02 4.42 7.07 5.52 11.1 1.73 6.4 2.54 7.8 8.22 9.08 2.17.48 4.52.04 6.78.15.88.05 1.89 1.03 2.36-.52.62-2.06 2.92-3.63 2.01-6.11-.37-1.01-1.58-.64-2.36-.47-1.78.4-3.51.98-5.26 1.48-3.88 1.12-7.77-.46-9.35-3.95-1.75-3.87-3.08-7.86-3.38-12.17-.25-3.65-2.37-5.97-5.32-6.43-2.14-.33-4.39-.6-6.36.04-1.34.44-.23 2.64-1.05 3.88-.36.54-.5 1.22-.79 1.9zm-2.72 5.85c.87.35 1.36.62 1.9.75 4.07 1.01 6.82 3.13 8.63 7.26 1.3 2.96 1.9 6.14 3.57 9.03a30 30 0 0 0 7.16 8.22c.83.66 1.98 1.02 2.71.7 2.51-1.12 4.92-.82 7.44-.25.53.11 1.86.63 1.69-.76-.28-2.33 1.02-4.35 1.17-7.03-2.3 1.14-4.57.5-6.75.83-6.63 1-14.12-4.48-14.8-11.2-.34-3.38-1.89-6.24-3.4-9.06a5.2 5.2 0 0 0-5.58-2.8c-2.38.42-1.97 3.1-3.75 4.3zm386.65-42.04c5.3-10.05 10.21-20.35 17.64-29.7-3.47-.15-6.42-.87-8.14 2.53-.68 1.36-1.5 2.64-2.3 3.94a164 164 0 0 1-12.38 17c-1.72 2.12-1.24 2.64.7 3.36 1.68.63 2.94 1.84 4.48 2.87M426.16 473.23c2.6-7.37 5.33-14.57 8.53-21.59 2.3-5.03 2.37-5-2.76-6.65a46 46 0 0 1-2.47-.87c-1.18-.46-1.66-.1-2.04 1.16-2.22 7.38-3.93 14.82-3.43 22.6.13 1.99.5 3.84 2.17 5.35M87.83 496.4c.3-.53.47-1.32.92-1.55 3.37-1.74 6.82-3.4 9.78-5.77 1.77-1.41 5.15-1.6 4.37-5.4-.72-3.5-.76-7.08-.7-10.68.06-2.72 1.11-5.38.52-8.63-5.27 10.91-12 20.57-14.9 32.04zm608.58-229.04c2.07.85 3.59 2.35 5.6 3.18 1.39.58 2.2.45 2.9-.77 3.68-6.37 8.07-12.25 12.1-18.38 1.95-2.95 1.9-2.98-1.65-3.25-.68-.05-1.4.01-2.03-.19-1.48-.47-2.15.1-2.87 1.42-3.62 6.64-8.73 12.13-14.04 18zM499.65 464.85l.3.37q2.56-1.54 5.16-3.03c6.6-3.7 13-7.72 19.02-12.3.96-.72 2.43-1.46 2.22-2.83a2.5 2.5 0 0 0-2.33-1.95q-4.83-.01-9.66.22c-1.08.04-1.67.87-2.16 1.76a90 90 0 0 1-6.96 10.49zM417 431.26c-.13.9.47 1.78.41 2.51-.2 2.53 1.81 3.26 3.33 3.85 1.13.43 1.75-1.48 2.6-2.31.55-.53 1-1.2 1.41-1.84 2-3.08 5.08-5.36 6.56-8.85.37-.89.8-1.7-.63-1.91-4.01-.6-7.6-2.33-11.12-4.2-1.72-.93-1.85-.24-2.02 1.28-.43 3.82.23 7.68-.54 11.47M755.22 718.2c4.13 1.57 7.89 2.47 11.32 4.26.78.4 2 .46 2.85.18 5.83-1.87 11.87-2.7 18.26-3.52-1.57-1.89-3.33-2.65-5.08-3.43-9.4-4.19-18.01-.1-27.35 2.51M413.35 592.72c-1.46 1.24-3.65 1.35-3.11 3.7 2.15 9.44 2.09 19.03.62 28.45-.76 4.84-.12 7.54 5.08 8.59.37-13.41.52-26.96-2.58-40.75zm24.74-171.78c2.26 0 3.78-.04 5.3.01 4.07.12 7.34-.84 8.45-5.47.37-1.55 1.49-2.92 2.2-4.4 1.44-3 3-5.97 3.57-10.02-7.77 5.6-13.23 12.58-19.52 19.88m-30.94-105.66c1.61-2.1 2.93-3.76 4.19-5.45 3.93-5.3 7.82-10.62 11.1-16.36.48-.85.74-1.7.1-2.42-.96-1.07-1.56.18-2.14.62-4.03 3.12-7.04 7.21-10.44 10.93-2.98 3.27-5.67 6.48-3.01 11.22.13.23.08.57.2 1.46m34.2 16.2c-9.27 4.23-18.82 7.31-28.94 8.37-1.06.1-1.55.68-1.35 1.79.19 1.02.47 1.95 1.78 1.77 2.8-.4 5.6-.7 8.36-1.27 6.58-1.36 13.5-1.69 18.92-6.61 1.37-1.25 1.93-2.23 1.23-4.05M394.1 193.62c-3.95-1.56-7.65-3.02-11.36-4.46-.75-.3-1.1-1.65-2.13-1.05-.94.56-.77 1.64-.75 2.64.15 5.81 1.9 11.3 3.15 17.17 1.45-2.06 3.45-3.68.7-5.87-.62-.5-.84-1.6-.13-2.4.7-.77 1.5-.51 2.37-.1.85.4 1.82 1.41 2.69-.06 1.35-2.3 3.56-3.8 5.46-5.87m94.6 364.22c-.48-.3-.76-.06-1.01.25q-4.86 6.22-9.77 12.43c-1.45 1.82-.13 2.03 1.22 2.17 2.9.3 5.88.2 8.68.88 2.47.61 2.81-.26 2.48-2.2-.77-4.5-1.5-9-1.59-13.53zm-28.34 28.47c3.54-4.28 6.63-8 9.7-11.74.8-.95.53-1.58-.67-1.83l-12.2-2.5zm223.36 74.23c-1.03-.08-6.26 3.28-6.58 4.2-.12.35-.2.8-.1 1.13 1 2.8 1.7 5.65 4.84 7.21 1.96.97 3.04.6 4.16-.9 1.16-1.56 3.13-2.94 1.38-5.24a22 22 0 0 1-2.8-5.18c-.22-.53-.35-1.1-.9-1.22m27.7-350.96c2.94-3.57 5.83-6.83 8.43-10.33 1.94-2.6 5.3-4.89 3.12-9-.08-.16.33-.51.33-.77 0-.98-.54-1.78-1.42-1.96-1.13-.23-.56.97-.9 1.45q-.57.83-1.08 1.7c-2.82 4.56-5.68 9.08-8.41 13.68-.95 1.6-1.65 3.38-.05 5.23zM241.65 454.25c3.62-2.01 6.02-4.31 7.69-7.32 2.4-4.34 1.37-7.27-3.03-9.42-1.48-.72-1.99-.45-2.3 1.15-.94 4.93-.86 10-2.36 15.59m543.86 258.2c2.9 1.51 5.7 2.6 6.8 5.67.33.9 1.22.54 1.79.44 2.85-.46 5.72-.63 8.67-.61-2.44-6.87-9.49-9.14-17.27-5.5zm-372.47-359.1c5.83-3.6 11.42-7.02 16.9-11.05-1.26-.31-2.14-.1-3.08.1-3.78.75-7.56 1.55-11.39 2.02-4.14.5-4.36.72-3.06 4.85.37 1.18.4 2.47.63 4.09zm276.43 327.16c2.83 2 6.03 2.69 9.05 3.8.9.33 1.8 0 1.88-.82.18-1.91 1.78-3 2.33-4.62.28-.82 1.77-1.85.5-2.57-1.35-.77-2.75-2.75-4.58-1.38-2.85 2.14-6.15 3.52-9.17 5.6zm48.41 38.7c.99 1.4 2.15 2.93 3.17 4.56.33.53.6.59 1.12.52 6.52-.8 13.14-.06 19.92-1.27-8.02-2.41-15.82-4.62-24.21-3.81m9.95-42.77c12.2 10.87 23.44 22.85 36.98 32.17-12.63-10.37-23.78-22.47-36.98-32.17m-58.08-50.7a28 28 0 0 0 5.56 9c1.23 1.3 1.16 2.08.2 3.38-2.05 2.83-4.46 5.42-6 8.6-.4.8-1.43 1.65-.26 2.55 1.42 1.08 1.96-.43 2.49-1.13a73 73 0 0 0 6.03-9.23c1.27-2.37 1.35-2.28-.7-3.7-.52-.37-.82-1.06-1.23-1.6l-6.1-7.85zM450.36 357.98c-1.36-1.05-1.67-2.51-2.13-3.83-.47-1.36-1.07-1.62-2.35-1.04a71 71 0 0 0-10.48 5.93c4.11-.55 8.2-.36 12.25-.62.85-.06 1.7-.27 2.71-.44m-29.7 158a47 47 0 0 0 8.85-2.02c.57-.2 1.19-.24 1.37-.87.15-.57-3.82-4.31-4.45-4.26-3.51.3-6 3.3-5.77 7.15m218.5 106.07c-2.63 1.07-2.63 1.09-5.68.35-.46-.1-.75-.48-1.17.14-1.86 2.76-1.02 6.21 1.66 8.23 1.62 1.24 1.95.3 2.38-.85.93-2.5 1.8-5.03 2.81-7.87m-212.82-136.8 13.32-10.86c-3.18 1.08-6.26 1.9-9.53 1.8-.73 0-1.4.06-1.64.89-.73 2.55-1.86 5.03-2.15 8.18zm111.83-26.4c-.96-1.05-1.93-1.9-2.64-2.92-.89-1.27-1.44-1.33-2.62-.17-2.82 2.76-5.1 5.95-7.55 9.1zM348.55 320.73c2.93 6.52 3.79 8.03 12.87 5.23-.57-2.55-1.38-4.77-4.55-2.36-.21.17-.74-.14-1.12-.14-2.54 0-4.63-1.23-7.2-2.72zm462.86 392.48c-3.35-1.4-6.28-2.61-9.2-3.84-.7-.3-1.37-.32-1.83.33-.64.88.36 1.26.77 1.52a10 10 0 0 1 3.58 4.08c1.07 2.17 2.24 2.36 4.14.64.84-.76 1.56-1.67 2.54-2.74zm-98.5-60.5c-.12-2.7-1.9-3.9-3.3-5.3-3.73-3.76-4.18-3.73-7.64.22 3.24 2.22 6.96 3.48 10.93 5.09M457.66 408.54c-.83 1.85-1.84 3.64-2.41 5.57-.5 1.64-2.71 3.57-1.57 4.62 1.27 1.16 3.49-.67 5.33-1.06 1.53-.33 1.52-1.09 1.25-2.5-.44-2.38-2.4-4.19-2.6-6.63m-43.4 103.19c3.07-1.1 4.2-3.7 3.91-8.29-.15-2.51-2.35-2.04-3.7-3.35.35 4.25-1.18 7.86-.2 11.64m221.05 123.41c-.3-.79.24-1.77-1.1-1.83-2.77-.13-4.76 1.33-4.63 4.05.1 2.14 3.08 3.55 3.88 3.31 2.65-.81.1-4 1.85-5.53m-5.32 8.64c-.28 2 .5 3.63.79 5.32.45 2.64 2.61 2.02 4.13 1.71 1.61-.33.63-1.8.61-2.86-.04-2.15-1.18-3.1-3.14-3.44-.75-.13-1.48-.44-2.38-.73zM522.68 443.24c-1.17-3.2-4.2-3.88-6.02-6.02-.69 2.1-1.3 3.99-1.98 6.02zm136.1-142.1c.23 2.49.38 5 .76 7.48.14.93.2 1.78-.83 1.6-1.4-.25-1.14.52-1.14 1.26v5c4.63-3.44 4.04-8.63 1.2-15.35M732.9 724.4c-.7-3.89-.79-8.46-6.84-6.16 1.8 2.48 4 4.65 6.84 6.16m-313-231.03c-1.3.32-1.8 1.1-2.47 1.63-4.4 3.48-3.74 3.9 1.12 5.54.57-2.32 1.3-4.6 1.35-7.17m381.43 228.97-.7.8 14.73 11.97a88 88 0 0 0-14.03-12.77m-63.55-449.15c-2.2 2.56-3.6 5.53-5.84 7.88-.48.5-.62 1.63.1 2.08.7.42 1.14-.32 1.5-.98 1.21-2.22 2.85-4.18 3.94-6.5.37-.81.9-1.35.29-2.48zM244.94 411.91c-.87 2.66-1.58 4.92-2.36 7.16-.24.73-.77 1.5.39 1.83.9.24 2.04-.03 2.06-1.04.01-2.51 1.62-5.03-.1-7.96zM813.12 717.9a4.1 4.1 0 0 1 3.67 1.89c.26.37.56 1.44 1.5.7.85-.66.16-1.18-.22-1.68-.41-.53-.94-.98-1.36-1.5q-2.16-2.7-3.59.6zm-396.1-274.67q3.13-3.76.14-4.99c-.57 1.52-.19 3.05-.13 4.99m10.4-8.2-.36-.2c-.91 1.1-1.87 2.18-2.74 3.33-.54.72-.5 1.3.52 1.77 1.3.58.9-.51 1.08-.96.54-1.3 1.01-2.63 1.5-3.95m-6.37 73.55c1.38-.63 3.13-.75 3.28-2 .11-.95-1.31-1.69-2.58-1.85-.2 1.16-.41 2.3-.7 3.85m314.86 153.47c-.39-.33-.64-.6-.95-.8-1.32-.83-2.4.29-3.58.5-.1.03-.23.56-.13.74.81 1.42 1.87-.18 2.83.19.46.17 1.16.23 1.83-.63m6.83-412.27c1.67 2.54 4.5.38 6.24 2.1-1.48-2.44-3.88-2.04-6.24-2.1"/><path fill="#000" d="M285.91 93.84c-2.62.4-4.02-1.64-5.7-2.98-5.23-4.2-9.92-9.05-15.62-12.7-6.22-3.98-12.93-6-20.35-5.46-2.3.18-4.2 1.47-6.05 2.66-4.82 3.12-9.62 6.32-12.24 11.72-1.65 3.39-1.13 6.9-.87 10.55.4 5.34 1.01 10.6 2.52 15.74 2.24 7.64 5.85 14.38 13.02 18.61 3 1.78 6.42 2.15 9.7 2.37 3.86.25 7.8.6 11.68-.42.74-.2 1.7-.33 2.7.44-1.8 2.13-4.43 2.09-6.67 2.77-4.87 1.5-9.7 1.08-14.79.48-9.09-1.07-13.2-7.4-17.46-13.95a47 47 0 0 1-6.66-15.94c-2.01-9.56-1.35-18.8 5.68-26.81 4.5-5.14 9.14-9.94 15.75-11.98 7.57-2.33 14.96-.7 22.12 2.17 1.16.45 2.3.98 3.8 1.62-1.08-3.05-.97-6.07-2.54-8.71-1.14-1.9-.3-3.95.12-5.93 1.62-7.62 5.5-11.58 12.94-12.97 2.51-.47 4.93.6 7.74 1.04-1.1-3.66-1.8-7.18-.7-10.84.7-2.34 1.76-4.27 3.92-5.53 2.36-1.39 3.57-3.94 5.87-5.52 5.92-4.05 12.26-5.39 19.5-4.07-.67-2.33-1.23-4.5-.78-6.98.94-5.08 7.24-7.46 11.55-8.13 2.69-.42 5.41-.56 8.06-1.22 7.93-1.95 14.67 1 20.97 5.34a50 50 0 0 1 10.15 9.49c1.5 1.84 2.67 3.89 1.59 6.4-.28.66-.23 1.14.39 1.48.72.4.94-.17 1.32-.65 9.48-12.28 22.4-19.19 36.97-23.47C410.8.33 418.2-.58 425.75.4c1.31.17 2.95.14 3.6 1.92.28.75 1.25.79 1.99 1.06 8.06 2.99 10.86 8.79 8.3 17.08q-.38 1.2-.78 2.34c.95.56 1.78.18 2.37-.16 7.43-4.3 14.3-2.44 20.98 1.8 4.72 3 10.04 5 13.9 9.43 7.27 8.34 6.63 22.78-3.46 30-.57-1.7.7-2.81 1.33-3.88 8.02-13.34 2.54-22.5-9.5-28.23a38.5 38.5 0 0 0-17.18-3.82c-2.96.03-5.94-.3-8.9-.6-3.12-.3-4.1-2.24-2.78-5.29.64-1.5 1.24-3.03 1.99-4.48 1.28-2.5.08-4.49-1.6-5.92a16.5 16.5 0 0 0-8.7-3.66c-7.73-1-15.25.08-22.67 2.33-12.27 3.72-22.5 10.43-30.27 20.66-1.25 1.64-2.45 3.72-4.17 4.2a7 7 0 0 1-5.5-1.01c-1.28-.89-1.42-2.2-.7-3.6.97-1.85.45-2.63-1.68-2.66-.75 0-3.54.67-1.32-1.84.44-.5-.08-.87-.4-1.23-4.6-5.17-9-10.6-15.42-13.7-5.37-2.6-11.21-3.64-16.93-2.42-6.31 1.36-9.25 5.23-10.03 11.3-.2 1.5.88 2.27 2.06 2.9.83.43 1.04 1.16.66 1.98-.35.74-.9.42-1.45.2-7.94-3.4-14.32-.26-20.9 4.18-6 4.05-5.58 9.17-4.3 14.84.5 2.25.2 4.94 3.06 6.62-3.26-1.98-4.22 1.25-6.11 1.86a20 20 0 0 1-10.14.42c-2.33-.46-4.47.14-6.63.45-2.1.32-3.18 2.08-3.81 4.04-1.42 4.41-.75 8.62 1.24 12.69 3.13 6.4 7.77 11.63 12.91 16.43 2.16 2.01 3.79 3.85 1.56 6.73zm203.5 12.05c6.65 5.9 6.79 19.86-2.16 26.1-1.5 1.05-1.62 1.29-.1 2.46 2.16 1.66 1.63 3-1.83 5.03 1.41 1.42 3.28 1.92 4.88 2.85 5 2.9 9.67 6.3 14.59 9.34 5.57 3.44 6.46 9.79 1.38 14.53a27.3 27.3 0 0 1-14.12 6.85c-5.35.95-10.32 3.13-15.66 3.98-.85.14-1.68.4-2.61.61 1.1 2.71 1.68 5.38-.81 7.72-.53.5-.66 1.7-1.62 1.37a3 3 0 0 1-2-2.08c-.42-1.97-1.03-3.95-1.05-5.93-.01-1.4-.65-1.37-1.47-1.3-2.03.18-3.82-.52-5.58-1.36-.57-.27-1.38-.43-1.29-1.37s.68-1.3 1.57-1.4c3.08-.39 6.14-.87 9.22-1.17a70 70 0 0 0 19.62-4.91c1.66-.68 3.16-1.98 5.07-.59.73.54 1.3-.26 1.82-.53a12 12 0 0 0 2.8-2.09c5.78-5.7 5.42-9.1-.84-12.9-7.12-4.3-14.78-7.47-22.65-10.15a11 11 0 0 1-3.12-1.55c-.57-.43-1.63-.5-1.17-1.64.35-.87 1.1-1 1.94-.95.4.02.82.1 1.17-.01 1.13-.36 2.6 1.06 3.2.05.76-1.25-1.35-1.23-1.77-2.24-.84-2.04-.3-3.5 1.37-4.8 2.15-1.66 4.43-3.12 6.46-4.97 3.33-3.02 4.21-6.88 4.34-11.05.11-3.14-1.73-5.25-4.14-6.95-3.15-2.23-3.2-2.6-.6-5.2 2.2-2.2 4.54-4.24 5.21-7.56.61-2.97-.08-6.07-2.62-7.68-3.75-2.37-7.58-4.72-11.63-6.46-1.73-.73-4.56-1.15-5.5 2.1-.26.92-.96 1.04-1.53-.12-1.21-2.46-.42-4.68 2.2-5.6 4-1.4 7.85-.42 11.64.92 5.01 1.76 9.4 4.36 12.74 8.7 4.69 6.12 3.84 13.27-2.4 17.79-.94.67-1.87 1.37-2.94 2.16zm-262.2 51.45c-2.55-2.45-4.5-4.79-4.38-8.27.12-3.57 1.49-5.92 4.9-6.98 4.96-1.54 10.03-2.22 15.1-.53 1.82.6 3.63 1.52 3.55 4.1-1.69-.71-3.17-2.96-4.87.2-.55 1.02-2.92 1.18-4.51 1.5a15 15 0 0 0-6.57 2.85c-.79.63-1.95 1.25-1.6 2.57.3 1.05 1.3 1.4 2.25 1.66a42 42 0 0 0 2.82.66c1.31.27 1.56 1.44 1.8 2.41.27 1.12-.77 1.4-1.6 1.73l-8.95 3.53c-4.05 1.57-5.8 4-5.8 8.1-.02 3.33 2.36 6.5 5.86 7.84 1.27.49 2.47 1.16 3.91 1.13.58 0 1.32.1 1.42.79.15 1.01-.85.91-1.43 1.06-2.31.6-4.49-.5-7.42-.73a24 24 0 0 0 10.34 4.05c2.76.37 5.54 1.28 8.36.12.72-.3 1.27.04 1.32 1 .06 1.14-.55 1.57-1.5 1.8-7.1 1.62-13.77 1.04-20.16-2.94-6.57-4.09-8.37-14.48-3.9-20.26 2.68-3.46 6.46-5.74 11.07-7.4zm236.37 29.32c.2.64.33.9.36 1.18.4 3.48.37 3.28 4.08 2.74 4.37-.63 8.73-.6 12.5 2.37 3.59 2.83 5 7.45 3.17 11.97-2.05 5.07-5.79 8.63-10.77 10.86-.85.39-1.7 1.03-2.45-.31-.64-1.14-.53-1.91.4-2.82 2.5-2.46 5.24-4.7 7.14-7.73 1.21-1.93 3.2-4.07 2.13-6.22-1.26-2.5-4.47-2.12-6.85-2.12-2.55 0-5.18.45-7.73 1.14-4.34 1.2-7.39-1.93-6.4-6.36.12-.56.33-1.38.06-1.67-1.53-1.68.43-1.78.96-1.74 1.28.1 2.23-.42 3.4-1.29m-70.18-4.69c1.78 1.61 3.4 3.43 5.35 4.79 7.25 5.04 15.12 4.24 23.07 2.11a20 20 0 0 0 3.5-1.32c1.06-.53 1.61-.18 2.3.65.96 1.14.07 1.62-.62 2.07-8.35 5.4-19.33 8.52-28.56 1.02-2.85-2.32-4.2-5.6-5.71-8.76zm-48.27-47.42c1.42.22 2.24 2.24 3.31 3.44 2.98 3.35 5.39 7.21 7.89 10.97.67 1.01 1.32 2.2.37 3.64-1.3 1.95-2.3 2.29-4.33.62a66 66 0 0 1-7.92-7.95c-2.22-2.54-2.73-5.96-1.98-9.33.15-.7.94-1.5 2.65-1.39z"/><path fill="#000" d="M262 95.18c-.43-.74-.71-1.13-.9-1.55-1.73-4.13-4.9-6.54-9.27-6.1-5.1.52-9.3 3.13-11.2 8.18-2.28 6.06.84 10.72 4.54 15.07.56.66 1.37 1.1 1.64 2-6.19-1.77-12.09-11.7-10.27-17.73 1.23-4.07 4.4-6.63 8.28-8.03 5.12-1.84 10.38-2.7 15.34.64 2.6 1.75 3.18 4.09 1.84 7.53zm23.91-1.34.47-.48c2.85-3.25 6.08-5.28 10.68-3.72 1.69.57 2.32 1.53 2.23 3.54-3-2.98-5.32-.8-7.4.82a17.5 17.5 0 0 0-6.66 10.98c-.15.89-.11 1.85-1.4 1.8-1.5-.08-.85-1.27-.95-2-.5-4.05 1.02-7.57 3.02-10.95zm26.7-29.08c-.53-4.17 1.54-7.42 3.7-10.6 3.99-5.83 8.83-10.37 16.19-11.77 3.31-.63 5.5.72 8.64 2.7-9.4-2.97-14.99 2.48-20.52 7.37a27 27 0 0 0-8 12.3zm85.42 57.7c-6.38 1.35-14.14-4.96-16.13-9.83-.42-1.03-.54-2.14.33-2.99 1.03-1 1.69.17 2.53.52 1.75.7 2.84 2.32 3.69 3.62 2.17 3.3 5.1 5.41 8.42 7.2.5.28 1.08.52 1.16 1.48m-2.74-78.24c-2.32 2.24-4.65 4.47-6.62 7.06-3.47 4.54-6.7 9.17-7.92 14.9-.33 1.57-.52 3.1.55 4.47.3.38.76.68.26 1.19-.4.4-.96.33-1.36.08-.94-.58-1.41-1.37-1.48-2.62-.2-4.08 1.54-7.49 3.4-10.89 3.18-5.84 7.23-10.87 13.16-14.19zm53.67 47.53c2.66-2.96 5.38-2 7.88-1.37 4.75 1.2 9.1 3.1 10.5 8.5a6.4 6.4 0 0 1-1.76 6.62c-.3-1.52.83-2.37.89-3.58.18-3.93-2.18-7.02-6.89-8.6-3.26-1.1-6.59-1.88-10.63-1.57zm-57.69 66.18c-4.18 1.35-1.5-3.26-3.48-4.01-.23-.1.92-2.38 2.5-2.56 1.47-.18 4.91 2.96 4.7 4.57-.29 2.09-2.05 2.29-3.71 2zm-137.22-41.87c.07-1.22.08-2.9 1.6-3.76 1.2-.68 2.5-.07 3.52.63.82.57 1.33 1.33.02 2.2-1.35.9-2.66 1.94-2.83 3.8-.12 1.2-.88.29-1.17.17-1.2-.51-1.13-1.64-1.14-3.04m215.55 32.4c-.72-5-4.48-8.3-8.94-8.36-1.05-.01-1.34 2.06-2.65.63-.97-1.06-1.25-2.04.33-2.27 3.65-.53 6.83.92 9.6 3.16 2.15 1.74 2.63 4.1 1.66 6.84M320.36 83.43c-.6 1.12-1.4 1.35-2.24 1.66-1.81.67-3.17 1.86-3.41 3.92-.1.8-.27 1.83-1.12 1.77-1.25-.07-.79-1.34-.8-2.09-.06-3.4 2.95-5.51 7.57-5.26m63.09-43.8c-2.33 1.4-3.58 3.66-4.65 6.79-.93-4-.1-5.06 4.65-6.8m-156.6 421.23c-.55 2.54-2.14 4.44-3.75 6.34.33-2.64 2.1-4.48 3.75-6.34m-4.98 7.39c1.77 2.48.93 3.69-1.82 4.77zm427.64 123.53c-2.24 2.57-2.47 6.2-4.8 8.74 1.6-3.41 2.16-7.35 5.28-10zm-274.49-63.84c-3.8 1.6-7.56.18-11.26-.2-13.28-1.33-25.69-6.4-38.63-9.26-6.53-1.44-13.35-1.4-19.68-3.9-1.25-.5-1.33.62-1.65 1.43-1.3 3.45-1.51 7.16-2.62 10.69-2.4 7.6-4.74 15.22-7.74 22.62-.25.63-.34 1.38-.75 1.88-.93 1.16-1.82 3.24-3.46 2.5-1.54-.71-.1-2.52.29-3.6 2.8-8.01 3.79-16.5 6.34-24.55 1.22-3.84 1.27-8.01 3.41-11.6.8-1.34-.52-1.53-1.31-1.93-4.43-2.25-4.37-2.24-3.33-7.38 1.03-5.08 1.85-10.2 2.91-15.28.63-3.06 2.4-5.73 3.22-8.76.29-1.06 1.57-1.41 3.17-.91 9.42 2.92 18.8 6.07 28.4 8.24 13.33 3.01 26.65 6.23 40.19 8.25 4.27.65 8.56 1.4 12.93 1.29 2.65-.07 3.93 1.54 3.88 4.07-.1 5.02-.27 10.06-1.46 14.96-.5 2.02.2 4.1-.76 6.06-.39.78-.36 1.74-1.53 1.8-1.35.07-1.3-1.22-1.37-1.83-.32-2.99-1.32-6-.57-8.97.7-2.72-.58-5.4.26-8.1.35-1.14-.78-1.53-1.68-1.43-5.68.58-11.17-.85-16.7-1.62-11.09-1.53-21.94-4.27-32.9-6.45-8.81-1.75-17.13-4.58-25.33-7.96-1.47-.61-2.13-.44-2.5.98-1.51 5.68-4.73 10.67-6.6 16.2-.33.96-.5 1.61.93 1.9 7.88 1.6 15.67 3.55 23.68 4.53 3.43.42 6.83 1.4 10.14 2.45a571 571 0 0 0 37.36 10.48c1.94.48 4.01.98 4.73 3.42zM267.3 499.26c-1.86.25-3.18-1.1-4.4-1.86-1.86-1.17-2.97-.55-4.25.52a18 18 0 0 0-2.31 2.24c-2.5 3.02-2.87 3.16-5.92.8-2.34-1.84-4.8-3.62-5.53-6.84-.37-1.65-.21-2.9 1.43-3.64 3.65-1.62 4.07-3.47 1.43-6.16-.69-.7-1.39-1.39-2-2.15-.59-.73-.91-1.69-.06-2.34 2.21-1.7 3.46-4.16 5.21-6.22 1.3-1.53 2.31-1.45 3.6-.23.28.27.55.61.89.75 1.62.66 1.79 4.82 4.68 2.2 1.37-1.25 3.9-1.64 3.78-4.33-.03-.68 2.15-.99 2.86-.2 1.09 1.17 2.53 1.8 3.69 2.83 3.26 2.96 3.76 4.24 0 9.62-2.22 3.17-.88 4.84.82 6.57 1.6 1.63 2.05 3.19 1.09 5a6.3 6.3 0 0 1-5.03 3.44zm106.46-33.85c-1.93-1.87-4.93-2.56-5.2-6.1-.1-1.28-.1-2.18.54-3.12 3.58-5.29 7.92-9.9 12.57-14.23 1.16-1.09 2.32-1.24 3.93-.54 3.44 1.5 5.87 4.08 8.13 6.9.95 1.18 1.16 2.25-.76 2.9-1.52.51-1.49 2.34-2.37 3.43-1.61 1.99.63 2.42 1.42 3.37 1 1.19 2.26 2.17 3.25 3.38 1.2 1.46-.09 2.96-1.07 2.71-1.88-.47-2.15.78-2.86 1.67a13 13 0 0 1-3.33 3.23c-5.46 3.28-10.81 6.76-17.27 7.88-1.46.25-2.95-.58-4.43.42-.72.48-1.11-.38-1-1.2.23-1.79.61-3.38 2.07-4.76 2.12-2 4.75-3.46 6.39-5.95zm11.17-20.42a42 42 0 0 1-7.05 7.22q-4.59 3.84.1 7.25c.4.3.81.58 1.11.96 1.06 1.32 1.51 2.41.5 4.32-1.37 2.59-3.76 4.23-5.72 7.18 2-.97 3.36-1.65 4.73-2.29 3.59-1.68 7.2-3.29 10.76-5.04 1.62-.8 1.93-1.67-.08-2.58a33 33 0 0 1-4.79-2.77c-1.04-.71-2.78-1.14-2.41-2.88.33-1.56 1.67-2.25 3.22-2.52 2.23-.4 3.49-2.28 4.4-3.92.47-.86-1.75-1.71-2.69-2.64-.68-.68-1.3-1.43-2.08-2.29M246.79 592.57c-.17-3.42.47-3.83 3.77-3.28 7.5 1.25 14.52 3.97 21.38 7.07 10.2 4.6 20.12 9.8 30.06 14.93 5.05 2.61 9.86 5.6 14.82 8.34 2.8 1.55 5.84 2.58 9.32 2.04 2.01-.32 4.2.45 5.64.64-9.33 2.28-18.12-.26-27.06-5.14-14.93-8.15-30.46-15.24-45.78-22.68-2.52-1.23-5.28-1.97-7.93-2.95-1.53-.57-3.05-1.15-4.22 1.03m34.93-367.59c-3.12-3.05-2.28-7.17-3.44-10.67-1.5-4.5-2.63-9.14-4.57-13.5-1.91-4.29-3.85-8.56-5.63-12.9-.99-2.41-2.96-4.34-3.37-6.98-.1-.64-.9-1.44.03-2.09.83-.57 1.17.39 1.75.58 3.74 1.27 4.6 5.03 6 7.86a103 103 0 0 1 8.16 23.96c.84 3.87 1.32 7.74 1.94 11.61.12.8.05 1.55-.86 2.13zm-.32 26.29c1.36-1.4.32-3.2.77-4.84.46-1.65 1.56-2.56 2.76-2.36 1.22.19 1.86 1.54 1.99 3.1.6 7.12-3.12 12.8-6.04 18.73-.4.82-1.12 2.16-1.97 1.87-1.06-.37-1.28-1.83-.99-2.97.75-2.88 1.62-5.73 2.47-8.6.36-1.23 1.41-2.2-1.32-2.4-3.19-.24-6.18-1.99-8.86-4.03-1.72-1.32-1.45-3.38-1.74-5-.26-1.5 1.39-.99 2.27-.38 2.56 1.76 5.12 3.5 7.58 5.36.97.74 1.99 1.2 3.07 1.52zM370.46 561c1.05-8.47 1.8-17.04 4.62-25.24a13 13 0 0 1 2.22-4.06c.62-.75 1.4-1.45 2.52-.87.93.48.9 1.35.86 2.26-.2 5.2-1.83 10.1-3.07 15.09q-1.48 5.92-3.03 11.83c-.14.56-.28 1.15-.57 1.65-.7 1.18-1.04 3.24-2.78 2.8-1.5-.37-.36-2.24-.78-3.45zm-78.3-2.15c12.29 8.44 24.07 17.57 36.83 25.62-3.68.67-6.91-.76-10.07-2.3-5.03-2.44-9.47-5.8-13.73-9.37-3.8-3.17-7.66-6.29-10.93-10.03-.97-1.11-1.86-2.24-2.11-3.92zm57.59 21.56c-1.44.02-2.17-.23-2.54-1.03-.35-.74.06-1.34.58-1.81 4.06-3.7 8.9-6.17 13.72-8.69.67-.34 1.08-.17 1.43.44.23.42.64.86.17 1.3-4.22 3.89-8.6 7.55-13.36 9.78zm-83.16-174.73c7.64 1.7 13.86-2.14 19.7-7.16 1-.85 2.03-1.82 3.6-1.72 1.23.09 1.78.64 1.73 1.83-.21 4.75-1.92 8.58-6.54 10.6a51 51 0 0 1-12.76 3.85c-3.7.56-6.86-1.02-9.9-2.83-.88-.52-1.2-1.4-.83-2.51.33-.99.68-1.9 1.8-2.04.87-.12 1.76-.03 3.19-.03zm18.6-20.65c-2.58-.22-5.96-3.02-6.75-5.54-.17-.54-.04-1.12.31-1.33 1.85-1.14 3.61-2.37 5.98-2.5 2.56-.15 3.29 1.55 4.1 3.3 1.15 2.5-1.15 6.28-3.64 6.07m34.31-1.1c3.2.95 7.02 2.19 10.09 4.45 4.5 3.32 9.72 5.24 14.26 8.41 1.03.72 2.17 1.26 3.11 2.13 1.12 1.06 2.82 2.13 1.4 3.8-1.03 1.2-1.81 2.98-4.58 1.46-8.74-4.8-17.89-8.86-26.41-14.1-.95-.59-2.23-1.5-1.36-2.41 1.13-1.18.33-3.84 3.49-3.75m11.61 31.76c-3.82-.6-6.8-2.17-8.83-5.33-.5-.8-.83-1.68-1.37-2.48-.68-1.03-1.1-2.76.57-3.43 1.46-.6 2.79-.14 3.2 1.74a7 7 0 0 0 1 2.41c1.16 1.78 2.52 2.77 4.67 1.2 1.98-1.46 3.95-.43 5.69.6 1.45.85 1.07 3.11-.73 4-1.34.66-2.9.91-4.2 1.3z"/></svg>