<svg xmlns="http://www.w3.org/2000/svg" width="1080" height="1080" fill="none" viewBox="0 0 1080 1080"><path fill="#fff" d="M452.44 211.53c.66.26 1.41.87 1.97.72 1.52-.4 2.96-1.11 4.55-1.74l-1.34-.47.07-.48 17.6 1.66c1.7-.68 2.75-1.19 3.85-1.53 2.64-.8 5.32-1.5 7.96-2.32 1.32-.4 2.77-1.6 3.84-1.3 4.65 1.3 7.98-2.15 12.01-2.94.74-.15 1.5-.96 2.13-.84 5.57.96 9.02-2.76 13.05-5.67l-2.12-1.53c5.43-8.06 5.98-17.42 6.99-26.86-2.69 3.67-5.48 7.27-8 11.05-.7 1.06-.87 2.67-.81 4.01.1 2.2-1.92 4.75-4.17 5.14-.92.16-1.75.9-2.57 1.35l-1.27-6.13-.8-.08-1.35 4.42c-1.9-.64-2.73-1.96-1.46-3.66 1.93-2.58 1.92-5.45 1.9-8.4 0-.3-.07-.61-.07-.91.03-4.44-.63-5.15-5.2-4.24-5.2 1.04-10.28.87-14.67-2.1-9.69-6.56-21.15-7.67-31.89-11.08a129 129 0 0 1-20.26-8.62c-7.72-4.01-11.34-11.58-12.4-19.58-1.57-11.76-.58-23.45 5.61-34.19 5.4-9.37 11.82-17.9 20.28-24.66a1320 1320 0 0 1 37.07-28.8c8.32-6.19 17.33-11.44 25.71-17.55 4.91-3.59 10.35-5.67 15.93-7.64.83-.3 2.13-.71 2.61-.32 2.57 2.07 5.3 2.08 8.23 1.2.47-.14 1-.1 1.5-.14-.16-.51-.18-1.14-.5-1.52-1.28-1.6-.65-2.07 1.07-2.07 10.2.01 20.3.12 30.07 3.98 10.1 3.99 20.58 7.03 30.72 10.96 7.9 3.06 13.8 8.57 15.85 17.12a39 39 0 0 1-.23 19.06c-.87 3.33-1.9 6.64-2.4 10.03-.3 2.05.2 4.25.48 6.36.56 4.31 5.53 6.14 6.17 10.44.07.46.27 3.42.54 3.81 1.5 2.2-1.28 4.36.04 6.23 4.06-.45 8.62-.95 13.17-1.47 5.49-.61 9.9 6.84 7.78 11.19-1.97 4.03-3.77 8.42-6.78 11.56-2.07 2.16-6.07 2.45-10.02 3.87-.41 2.27-2.27 5.98-3.63 9.1-2.63 6-.34 12.49-1.92 18.6-1.45 5.62-5.48 9.7-8.93 14.11-.67.87-1.37 1.71-1.98 2.62-1.57 2.3-3.3 4.05-6.4 4.51-2.14.32-4.08 1.95-6.01 2.13-.88-.2-1.78-.6-2.65-.54-1.78.11-3.56.78-5.32.7-5.92-.27-11.81-.97-17.72-1.04-1.75-.03-3.98.06-4.16 3.62-.35 6.92-1.88 13.78-2.8 20.68-.1.75.46 1.9 1.08 2.37q6.88 5.16 13.9 10.12c3.25 2.33 7.05 2.85 10.78 2.19 5.7-1.02 9.49 2.1 12.68 5.7 5.74 6.47 13.3 9.75 20.79 13.35 2.29 1.1 5 2.28 4.3 5.98 5.53 1.12 4.37 6 4.88 9.54 1.56 10.86 2.24 21.85 3.98 32.68.8 4.9 3.4 9.5 4.95 14.32 1.74 5.38 3.13 10.87 4.86 16.26.34 1.06 1.5 1.86 2.27 2.77.49.58 1.2 1.06 1.44 1.73a36 36 0 0 1 1.7 5.65c.15.73-.42 2.27-.8 2.32-4.81.58-7.19 4.76-10.63 7.25-3.7 2.7-6.8 6.23-10.2 9.37-1.1 1.02-1.73 1.87-.38 3.3 1.4 1.47.95 3.22-.5 4.35-4.94 3.9-4.8 10.49-8.17 15.22-.27.38.07 1.38.39 1.94 4.25 7.53 8.2 15.26 12.96 22.45 3.23 4.88 3.43 8.03-1 11.48 3 7.39 6.22 14.64 8.85 22.1 1.44 4.08 2.17 8.48 2.66 12.8.5 4.35.18 4.5 4.34 4.88 2.7.24 4.53 1.37 6.84 2.93 4.97 3.35 4.7 8.03 4.87 12.5.27 7.53 2.67 14.42 5.28 21.27 3.02 7.92 1.92 15.57-.85 23.19-1.73 4.8-3.68 9.51-5.57 14.26-.19.48-.68.86-.84 1.36-.32.95-.82 2-.71 2.94.4 3.5 1.29 6.94 1.51 10.44.56 8.76.8 17.53 1.29 26.29.19 3.49.66 6.96 1.01 10.44l2 20.18q.96 9.99 1.88 19.98c.13 1.43.02 2.88.05 4.31.2 8.98.5 17.95.57 26.94.01 1.88-1.23 3.81-1.08 5.66.49 6.25 1.35 12.47 2.06 18.7.33 2.92.54 5.86 1 8.75.12.81.76 2 1.41 2.19 3.96 1.15 5.27 4.78 5.73 7.79.79 5.16.46 10.54.17 15.8a398 398 0 0 1-1.84 20.62 131 131 0 0 1-1.92 12.2 3.8 3.8 0 0 1-2.25 2.38c-2.85.86-5.83 1.26-8.7 2.07-.58.16-1.24 1.33-1.24 2.03 0 2.02.65 4.06.48 6.05-.44 5.29.23 11.34-2.14 15.64-3.18 5.78-1.17 11.28-2.21 17.15 3.5-1.12 4.67.61 5.06 3.55 1.32 10 .4 19.53-5.59 28.08-.41.59-.73 1.24-.99 1.66l3.12 5.2-3.25.64-.3-2.48c-.5.83-1.02 1.3-1 1.76.13 3.36.44 6.72.54 10.08.06 2.16-.15 4.31-.22 6.47-.04 1.2-.5 2.63 0 3.54 2.8 5.1 1.26 10.26.61 15.43-.15 1.2-.02 2.48-.42 3.6-.7 1.97-.79 4.37-3.9 4.66-2.57.24-1.97 3.62-1.63 4.13 2.81 4.13 2.45 9.02 3.68 13.5 2.44 8.86 4.47 17.85 7.17 26.64 4.06 13.13 8.6 26.12 12.86 39.19 1.76 5.42 3.77 10.82 4.93 16.38.86 4.13.53 8.5.74 13 .38-.07 1.55-.4 2.75-.54 3.42-.42 6.85-1.1 10.28-1.08 4.65.02 8.03 3.78 9.6 8.69 2.99 9.33 5.6 18.98 12.27 26.53 5.37 6.09 11.37 11.62 17.05 17.44a34 34 0 0 0 14 8.6c4.9 1.62 8.67 4.91 10.31 10.29.55 1.79 2 3.7 3.6 4.69 3.28 2.08 5.97 4.48 6.1 8.47.16 4.59.1 9.23-.51 13.77-.4 2.9-5.56 5.48-8.56 5.33a56 56 0 0 0-8.38.22c-6.65.66-13.42 2.65-19.89 1.91-6.46-.75-12.28 1.4-18.4 1.38-3.62-.01-7.38-.94-10.83-2.17-10.84-3.86-21.17-8.81-30.4-15.82-4.65-3.54-9.96-6.49-13.77-10.77-2.57-2.89-5.97-5.09-7.87-8.67.14-.17.4-.37.5-.63 1.36-3.27 3.53-6.46 3.87-9.83.99-9.76 1.26-19.58 1.75-29.39.07-1.38-.45-2.8-.3-4.16.5-4.44 1.06-8.87 1.9-13.26.15-.84 1.6-1.82 2.59-2 .6-.12 1.46 1.17 2.38 1.97 1.01-1.98 2.14-3.83 1.24-6.79-.61-2.01-.18-4.9 2.25-6.47 1.96-1.27 3.27-1.1 3.8 1.53.12.62 1.21 1.04 1.85 1.56l1.06.86.3-.4q-.54-.43-1.1-.84c-2.35-5.83-5.01-11.55-6.99-17.5-3.93-11.82-7.14-23.88-11.29-35.6-3.87-10.95-8.97-21.44-12.8-32.4-2.9-8.29-4.61-16.99-6.93-25.5-.18-.66-.78-1.52-1.38-1.7-5.1-1.64-7.1-4.8-6.42-9.8l4.93-2.06-.1-.76-1.3-.5c1.7-6.95 2.6-13.73-.52-20.51-.54-1.18-1.15-2.42-1.28-3.67-.3-2.98-.97-5.7-2.85-8.15-4.64-6.03-3.96-12.64-1.83-19.35.42-1.34.64-2.8 1.33-3.99 2.23-3.87.95-7.88.76-11.87-.05-1.13.2-2.3-.02-3.39-.27-1.33-.98-2.57-1.35-3.89-.29-1.03-.19-2.2-.56-3.19-3.02-8.18 1.84-12.59 7.8-16.5.75-.5 1.48-1.05 1.53-1.09l-2.72-10c-7.69 1.12-12.16-4.6-16.3-10.5-7.12-10.14-11.86-21.4-15.13-33.31-.1-.39-.47-.83-.36-1.12 1.94-5.43-1.2-9.7-3.13-14.27q-3.75-8.92-7.54-17.82a3.5 3.5 0 0 0-1.21-1.54c-8.48-5.57-12.61-14.34-16.46-23.1-3.37-7.65-5.85-15.7-8.73-23.57-2.23 5.36-4.58 10.9-6.85 16.47-2.43 5.93-4.93 11.83-7.12 17.84a150 150 0 0 0-4.02 13.3c-4.96 18.87-10.33 37.64-13.65 56.9-1.35 7.77-3.17 15.45-4.77 23.16a7 7 0 0 0-.13 1.23c-.21 5.83-.47 11.66-.61 17.49-.44 18.37-.99 36.74-1.2 55.12-.2 15.82-.26 31.65.13 47.46.22 8.92 1.6 17.81 2.24 26.73.51 7.2.8 14.42 1.02 21.64.2 6.64.24 13.29.24 19.93 0 2.12-.55 4.24-.58 6.36-.07 3.62-.05 7.23.16 10.84.2 3.43.92 6.85 1 10.28.1 3.46.63 5.63 3.06 8.13 1 1.02 2.19 1.84 3.19 2.85.52.52 1.17 1.25 1.17 1.89 0 1.93-.42 3.86-.44 5.79 0 .82.36 1.95.96 2.44 2.2 1.8 2.56 3.9 2.3 6.67-.33 3.4.22 6.89.26 10.33.01 1.38-.63 2.8-.44 4.13.29 2.08.13 4.1 2.72 5.65 8.62 5.12 14.84 12.72 20.18 21.16-1.6.53-1.93 2.8-.25 4.47 3.45 3.41 7.21 6.49 10.84 9.71.57.5 1.2.97 1.63 1.57 1.4 1.97 2.63 4.08 4.1 5.99 1.66 2.16 2.64 4.21.68 6.74-.31.41.21 1.4.2 2.12-.03 1.83.36 3.89-.31 5.46-1.99 4.65-5.8 7.29-10.77 8.17-6.67 1.18-13.33 2.68-20.06 3.31-5.92.57-11.94-.02-17.9.18-7.77.26-15.52.99-23.29 1.11-3.56.06-7.12-.9-10.7-1.28-3.42-.37-3.09-2.82-3.19-5.22-4.32-1.6-4.49-3.24-4.24-7.14.03-.64-.04-1.72-.4-1.88-2.78-1.29-1.6-3.8-2.13-5.86-1.54-6.06 2.89-11.16 2.35-16.96-.33-3.43-1.07-6.82-1.57-10.24-.45-3.13-.3-5.83 1.84-8.77 2.37-3.27 3.42-7.5 4.97-11.34 2.9-7.16.88-13.9-1.77-20.6-1-2.53-1.73-5.16-2.43-7.8-.44-1.66 1.96-4.14 3.9-4.2 2.64-.1 5.72-3.79 5.39-6.5-1.3-10.71-3.71-21.22-5.75-31.8-2.53-13.11-7.97-25.23-11.64-37.93-3.87-13.37-7.73-26.74-11.8-40.05-1.8-5.87-4.36-11.52-6.16-17.4-1.9-6.2-2.62-12.83-5.11-18.75-3.14-7.47-1.73-15.02-2.25-22.55-.52-7.48-.65-14.96.73-22.33.52-2.77-.94-5.32.02-8.03.53-1.5 1.3-3.27.96-4.69-1.15-4.9 1.5-9.22 2.8-13.58 2.32-7.8 4.09-15.39 6.39-23.2.52-1.78 3.23-4.12 2.63-6.11-3.16-10.62-2.87-21.52-3.16-32.43-.22-8.27-1.54-16.52-2.37-24.83-2.9-.76-5.57-1.65-8.32-2.11-1.2-.2-2.68.25-3.82.82-1.98 1-3.58.45-4.44-1.2-1.74-3.36-3.92-6.63-3.27-10.82.2-1.33-.2-2.82-.59-4.16-.32-1.1-1.01-2.08-1.55-3.11-.9.87-2.1 1.59-2.68 2.64-3.76 7.03-7.19 14.24-11.1 21.18-3.1 5.46-7.98 7.22-14.25 6-5.23-1.01-10.79-.7-15.86-2.16-5.7-1.65-11.04-4.56-16.46-7.08-6.17-2.86-12.22-6.02-18.43-8.8-4.87-2.17-9.96-3.83-14.85-5.95-8.05-3.5-13.5-10.12-19.17-16.44-3.68-4.11-3.23-8.54-.33-12.6 5.1-7.15 10.62-13.97 15.8-21.05a290 290 0 0 0 10.97-16c1.13-1.76 1.5-4.06 1.99-6.17.56-2.45.89-4.96 1.28-7.45.26-1.68.56-3.38.64-5.08.11-2.4.03-4.8.03-7.32-1.48-1.09-3.76-2.12-5.06-3.89-1.37-1.85-2.74-4.52-2.46-6.6.55-4.01 2.2-8.01 5.53-10.64 1-.8 3.15-.2 4.77-.19 1.02 0 2.05.02 3.06.14 3.43.43 3.45-2.27 3.97-4.38.73-3.03 1.07-6.17 2.03-9.1.4-1.23 1.82-2.4 3.07-3.02a166 166 0 0 1 10.98-4.92c3.93-1.63 7.64-.14 11.21 1.28 3.98 1.58 7.8 3.57 11.68 5.36.45.2.93.34 1.66.62.56-2.38.83-4.7 1.65-6.81 2.76-7.05 6-13.91 8.52-21.05 2.02-5.76 3.2-11.82 4.85-17.72 1.35-4.82-2.59-6.87-4.84-9.9-7.24-9.69-18.13-15.14-26.7-23.24-5.3-5-10.4-10.28-14.77-16.07-1.84-2.43-2.17-6.48-2.09-9.76.12-4.32 1.16-8.64 2.13-12.89.41-1.82 1.72-3.4 2.44-5.17.4-.97.91-2.45.48-3.1-1.36-2-.17-3.33.54-5.05 1.33-3.22 2.06-6.67 3.28-9.94 1.61-4.3 3.39-8.56 5.24-12.77 2.65-6.04 5.57-11.98 8.11-18.06 1.18-2.83 1.78-5.9 2.59-8.66-6.32.47-10.79-4.18-16.14-6.29-4.02-1.57-6.56-9.75-5.15-13.9.64-1.9 1.83-4.05 3.42-5.1 4.91-3.25 7.01-8.51 9.9-13.12 2.6-4.18 3.84-9.2 6.31-13.5a1468 1468 0 0 1 24.3-40.9 499 499 0 0 1 19.16-28.6c3.17-4.4 7-8.51 13.54-8.02 1.62.12 3.37-1.65 5.07-2.55q.13.25.32.43zm-15.63 151.8c-.9.35-1.8.46-2.33.96-1.63 1.55-3.5 3.03-4.6 4.94-4.98 8.68-9.73 17.5-14.58 26.28-.16.3-.39.71-.67.8-2.4.82-2.02 2.41-1.08 4.04q5.26 9.09 10.62 18.14c.5.86.93 1.96 1.71 2.43a14 14 0 0 0 4.95 2c.44.06 1.51-2.27 1.75-3.6.6-3.37.8-6.82 1.36-10.2a149 149 0 0 1 8.63-30.6c2.06-5.2.55-9.62-2.89-13.58-.67-.77-1.87-1.07-2.86-1.61zm24.66 21.01c-.6-1.87-1-4-1.98-5.83-.49-.91-2.06-1.24-3.14-1.83-.24 1.12-.57 2.23-.68 3.37-.05.55.52 1.19.42 1.71-.75 3.7.04 7.97-3.81 10.57-.47.32-.8.94-1.04 1.5-1.56 3.48-3.25 6.93-4.55 10.52-1.02 2.8-1.62 5.77-2.27 8.7-.37 1.64-.02 3.56-.75 4.99-1.83 3.59-2.05 6.08 2.67 9.85l11-16.4.82 1.06c1.33-.55 3.27-.75 3.86-1.75.89-1.48.47-3.09-1.7-4.06-2.01-.89-2.23-2.95-.77-4.72 3.42-4.16 6.98-8.2 10.37-12.4.78-.95 1.85-2.89 1.49-3.32-1.03-1.26-2.63-2.54-4.16-2.77-1.83-.29-3.83.5-5.77.83zm158.7-269.26c4.05-.94 5.14-4.45 7.83-7.68l-8.58 1.9zm44.86 857.34c2.32 2.31 3.56 2.33 5.1 0z"/><path fill="#fff" d="m452.11 211.09.76-.04-.43.47a2 2 0 0 1-.33-.43"/><path fill="#000" d="M450.05 779.66c-.24 7.27-.93 14.55-.6 21.8a119 119 0 0 0 2.73 20.32c3.3 14.8 7.1 29.5 10.8 44.22.46 1.83 1.58 3.5 2.39 5.23q0 .29.13.55l.49 2.4-.47.27.47.49 3.22 10.44 1.85 5.56 3.07 9.9.64 3.09q7.04 23.25 14.12 46.51c1.01 3.33 2.25 6.62 3 10 .38 1.66.75 3.8-1.87 4.62-.66.2-1.05 1.31-1.55 2-5.59-2.47-6.38-8.37-8.96-13.06l-1.82-2.09a.4.4 0 0 0-.28-.3q-.16-.97-.34-1.93c.07-.7.36-1.46.17-2.08-3.02-10.1-6.17-20.17-9.19-30.28-5.86-19.62-11.79-39.21-17.45-58.89a657 657 0 0 1-7.95-30.97 84 84 0 0 1-1.9-13.59c-.45-6.74-1.03-13.56-.54-20.27.69-9.57 2.25-19.08 3.53-28.6.53-4 1.29-7.94 1.94-11.9l1.68-4.98c2.55-8.27 4.84-16.65 9.45-24.13a3.7 3.7 0 0 0 .47-2.6 788 788 0 0 0-5.52-18.04c-.19-.6-.75-1.08-1.14-1.62l-.58-3.68c-.55-3.72-1.04-7.44-1.69-11.15-.32-1.88-.95-3.71-1.44-5.58l-.6-3.64c-.08-3 .05-6.04-.43-8.97-.08-.52-2.65-.8-4.1-.9-1.94-.12-4.05.52-5.35-1.65-.2-.33-.6-.59-.68-.93-1.19-5.64-2.33-11.3-3.57-17.32l-3.94 10.52-.44 1.08.83-.54 1.98-1.47c-1.76 7.03-5.62 12.35-11.76 15.8-9.04 5.1-18.58 5.78-28.3 2.45-5.98-2.05-11.77-4.63-17.6-6.94l.23 1.7c-4.8-2.76-9.07-6.28-14.66-7.32l-5.6-2.37c-7.21-4.7-14.61-9.13-21.55-14.18-5-3.65-9.43-8.12-14.02-12.31-.67-.6-.8-1.79-1.2-2.7l.72-.76c1.8.75 3.76 1.26 5.36 2.3 11.31 7.47 22.48 15.14 33.84 22.51 3.16 2.05 6.82 3.33 9.76 4.73l26.57-40.95 3.2-4.24 4.95-6.8 2.43-2.2-3.06-1.07-31.48-14.91-16.78-7.89-2.26-1.33-.88 5.67c-4.1 6.94-7.75 14.23-12.44 20.76-5.36 7.48-11.64 14.3-17.57 21.36-.63.74-1.6 1.2-2.49 1.85q-1.04-1.34-2.02-2.65l9.64-14.82c6.5-9.98 12.94-19.99 19.55-29.9 1-1.5 1.17-2.72 1.18-4.49.03-3.68.8-7.36 1.39-11.02.46-2.85 1.1-5.67 1.7-8.66-1.29-.14-2.42-.14-3.48-.42-6.66-1.72-7.97-4.5-5.66-12a19 19 0 0 1 8-10.63c2.83-1.9 4.73-1.94 7.52-.08 2.35-7.36 3.8-15.47 10.83-19.08 6.39-3.28 13.5-5.84 21.24-4.85 1.86-9.29 3.7-18.47 5.52-27.65l-.59.32c-.38-1.22-1.4-2.68-1.04-3.61 1.23-3.2 4.87-5.52 6.31-4.24.73.64.84 3.48.34 3.78-2.98 1.73-1.62 4.87-2.68 7.18-.85 1.85-.85 4.1-1.22 6.17v2.48q-.7 3.96-1.38 7.93l-1.21 5.6c-1.07 2.27-1.4 4.23 1.7 5.26 1.56.52 3 1.4 4.51 2.12 2.76.85 4.2-.4 4.84-2.99l1.85-3.7 2.03-6.78 3.54-13.63 2-6.07c1.18-3.15 2.4-6.28 3.48-9.46.1-.26-.67-.81-1.02-1.23l-3.71-3.7-1.24-.63-9.3-4.77c-11.89-7.92-22.02-17.91-32.67-27.32-5.4-4.76-6.3-10.32-5.6-16.69.44-4.21 1.11-8.4 1.83-12.58.6-3.47 1.5-4.17 4.3-3.46 3.08-7.86 6.14-15.76 9.29-23.63 2.6-6.52 5.34-13 7.98-19.5.34-.81.46-1.71.68-2.57l2.72-5.54 3.2-4.67 1.33.56-2.95 10.8-1.75 4.34-1.85 4.94-2.03 5.54c-5.2 10.7-10.46 21.37-15.51 32.13-.56 1.18.13 2.9.08 4.37-.14 3.45-.3 6.9-.6 10.35-.17 2.1.13 3.77 2.07 5.11 1.53 1.06 2.7 2.65 4.04 4l3.12 2.95c7.69 6.7 14.95 14 23.16 19.97 11.38 8.28 23.48 15.58 35.26 23.3l6.55 4.02 16.86 10.03 9.14-12.27 2.52-3.13 11.06-13.56c-4.14-3.32-9.65-5.17-12.78-9.77l.85-1.41c2.33.95 4.7 1.78 6.95 2.9 2.6 1.27 5.06 2.8 7.58 4.23l3.58 2.02 8.4 4.21c.33-3.7.76-6.98.77-10.26 0-.62-1.57-1.28-2.45-1.89-4.27-2.97-8.57-5.9-12.8-8.91-.7-.5-1.14-1.37-1.9-2.3l-3.77 1.97-5.56 3.07c-5.03 3.24-10.1 6.4-15.07 9.74-4.52 3.06-6.27 1.83-9.02-1.56-3.84-4.71-7.42-9.65-11.01-14.56a3209 3209 0 0 1-16.16-22.34c-.94-1.3-1.73-2.7-2.58-4.05l-3.09-5.13c-1.17-2.93-2.21-5.91-3.58-8.74-.39-.78-1.72-1.38-2.7-1.53-4.56-.73-9.17-1.12-13.7-1.98-1.64-.31-3.09-1.6-4.63-2.43l1.79-3.76 19.9 4.42c.47.1.94.3 1.96.64l19.27-32.31-34.94-14.14-4.34-1.7c-1.78-.53-3.15-2.93-5.55-.9-.46.38-2.34-.6-3.36-1.27-3.47-2.31-6.84-4.77-10.25-7.17l-3.2-3.75c-.38-2.22-1.13-4.46-1.05-6.67.13-3.93.24-8 3.97-10.7 5.06-3.69 6.71-9.68 9.78-14.7 6.66-10.93 13.34-21.85 19.84-32.87 5.27-8.93 10.3-18 15.45-27 5.63-9.8 11.57-19.42 19.5-27.63 4.84-5.02 11.82-6.53 17.67-1.2-.5-3.35 1.13-4.68 3.97-4.84h4.33l9.83 2.13c1.84 2.73 3.39-.05 5.07-.27l5.26-2c-1.03-2.4-.28-4.15 2.32-4.66 4.02-.79 8.1-1.32 12.14-1.96 1.66.1 3.25 2.7 4.97.13l11.1-7.6c3.68.78 2.84-2.51 3.78-4.19l2.68-6.37q.3.44.63.87c-3.29 2.65-6.53 5.36-9.91 7.9-1.15.85-2.72 1.84-3.99 1.71-2.38-.25-2.18-2.1-.7-4.53-4.6 2.02-6.26-1.26-8.57-3.22-1.2-1.73-2.35-3.83-4.32-.69l-8.6 3.91c.07-3.9-1.51-5.61-3.96-7-1.6-.91-2.81-2.5-4.08-3.68-.9 1.12-2.09 2.76-3.47 4.2-1.33 1.4-2.9 2.36-5 1.42-.61-.27-1.63-.39-2.1-.06-2.71 1.87-3.72-1.16-4.14-2.1-1.47-3.23-3.7-4.65-7.07-4.82a2.5 2.5 0 0 1-1.75-.97c-1.16-1.83-2.15-3.78-3.29-5.84h-3.99l-2.69-1.37c-1.52-1.46-3.5-2.67-4.49-4.43-1.65-2.94-3.56-1.97-5.76-1.2-.83.3-1.78.23-2.67.33l-4.1-2.03c-.7-2.66-2.17-4.61-4.49-5.25l-2.03-7.62v-4.24h-2.99c-4.27-1.25-5.24-6.04-8.72-8.13l-1-3.15c-.64-1.34-.93-3.17-1.98-3.94-2.94-2.15-3.52-5.08-3.77-8.32-.14-1.8-.02-3.75-.71-5.33-1.04-2.39 1.07-3.3 1.62-4.9.38-1.1.28-2.35.39-3.53l-1.39-4.2-.6-1.86-2.31-6.21-1.6-10.02 3.3-1.28-.62-.37 1.32-2.63 3.71.67 4.06 1.36 1.21-4.37c-.78-1.33-1.38-2.4-2.03-3.44-.42-.67-.81-1.7-1.41-1.87-4.75-1.35-3.17-5.73-4.28-8.78a10 10 0 0 1-.7-3.54c.02-6.76 4.04-10.26 10.05-12.12 1.03-.31 2-.86 2.99-1.3l1.26-.45h3.5l.87-3.76 2.43-3.66c2.35-1.2 1.33-3.32.94-4.85-1.07-4.1-.13-4.94 1.7-8.46 4.07-7.8 12.1-5.73 18.19-8.39.26-.1.64-.1.91 0 5.51 2.33 9.25-1.28 13.45-3.77 2.96-1.75 6.19-3.56 9.49-4.06 2.58-.39 5.46 1.2 8.2 1.9 2.33-.84 4.95-1.74 7.52-2.79a3.6 3.6 0 0 0 1.54-1.6c2.22-4.24 5.79-5.82 10.35-5.1a46 46 0 0 1 7.2 1.84c3.78 1.3 7.02 6.02 7.05 9.97q.01 1.62 3.32 5.85c3.17-1 6.93-1.18 9.2-3.12 3.08-2.64 5.33-1.93 8.23-.51.48.24 1.6-.5 2.28-1q3.91-2.81 7.68-5.84c2.25-1.83 4.7-2.7 7.6-2.22 2.37 1.56 2.65-.83 3.62-1.93 2.07-1.8 2.87-5.3 6.65-4.92l.63 4.03c2.72-.8 5.16-2.14 7.53-2.03 2.74.12 5.43 1.52 8.15 2.38l4.35.44 2.49 3.04-.29 1.12c1.4-.47 2.97-.69 4.16-1.48 4.8-3.18 7.75-2.8 11.17 1.6.35.46.94.72 1.52 1.14l-1.47 1.17 12.6 1.82 6.34 2.37c1.58 1.82 4.64 2.6 4 6.11 2.5-.96 4.3-.44 6 1.78.84 1.1 3.03 1.1 4.5 1.82 3.54 1.72 3.74 3.1.86 5.98.9.65 1.86 1.2 2.64 1.93.76.73 1.33 1.65 2.03 2.54-1.8 1.08-2.5 2.08.22 3.5 1.88.97 4.06 2.3 3.11 5.2l-.44 1.26-.71 1.3c-1.88-.4-3.45-.07-4.33 1.86-.82.15-1.64.3-2.72.52 5.93 5.38 7 6.74 4.52 12.75l2.38 1.55.25 2.49h4.82c-.22 1.12-.08 2.55-.72 3.3-1.22 1.44-2.9 2.5-4.55 3.83 1.18 2.82-.04 4.8-2.9 6.25-2.93 1.47-5.67 3.34-8.62 4.76-1.94.93-4.12 1.37-6.56 2.15.69.57 1.45 1.28 2.3 1.87 1.13.79 2.57 1.27 3.44 2.26.94 1.07 1.27 2.8-1 2.65-3.98-.26-4.04 1.94-3.56 4.28 4.45.27 8.75.4 13 .85 1.18.12 2.3 1.12 3.37 1.82.64.42 1.19 1.58 1.67 1.53 3.79-.41 3.24 2.33 3.5 4.52.68 5.63 1.68 11.38-1.3 16.6a95 95 0 0 1-8.54 12.65c-3.06 3.75-7.44 3.43-11.74 2.25-.88-.52-1.72-1.13-2.66-1.52-.2-.09-.72.59-1.1.9-5.82 3.26-6.92 3.24-10.34-.22 3.33-.71 6.86-4.57 6.6-7.4-.06-.77-.72-1.48-1.11-2.21l-4.4-3.58-1.57-11.85h-3.94c-4.5 0-4.8.34-5 5.02-.12 2.64-.22 5.31-.66 7.9-.54 3.24-1.86 6.08-4.79 8.02-1.22.81-1.98 2.28-3.13 3.22-5.36 4.37-11.76 6.25-18.37 5.31-5.68-.8-9.91-4.7-13.25-9.62-4.48-6.59-6.3-13.78-6.23-21.28l-17.53 7.67c.45 3.34 2.1 7.12.95 9.57-1.07 2.3-5.14 3.18-7.89 4.7l-.57-.72-.36 2.67c-2.15-2.42-3.85-4.75-5.95-6.61-3.86-3.43-10.9-4.79-15.05.68-4.42 5.82-5.1 10.12-.24 15.63 1 1.13 2.24 2.07 3.37 3.1l1.89 1.3c1.68 1 3.28 2.22 5.08 2.88.7.25 2.05-.58 2.76-1.26 1.5-1.44 2.87-2.68 4.96-.92l-2.8 1.62.1.72c1.66-.17 3.33-.41 5-.48 1.15-.04 2.86-.22 3.3.39.58.81.45 2.4.15 3.54-.52 1.91-1.4 3.72-2.2 5.7h2.23l3.64 1.35-2.04 8.55-.45 4.37c-2.67 6.26-5.1 12.63-8.13 18.72a25 25 0 0 1-6.04 7.45c-2.08 1.8-4.91 2.74-7.42 4.07-1.23.13-2.8.05-1.27 1.97 8.37 16.9 21.05 28.49 40.01 32.1 9.35 1.78 18.47 1.04 26.7-4.32 5.22-3.39 9.11-7.76 10.08-14.26.38-2.53 1.75-2.73 3.8-.88.31.29 1.2.15 1.33.44.63 1.37 1.9 3.12 1.5 4.17-4.48 11.37-12.8 18.09-24.98 19.83-16.03 2.3-30.44-1.7-42.95-11.78-4.94-3.98-9.02-9.04-13.5-13.6l-2.45-4.33-4.42-9.82-11.94 3.35c4.29 7.88 8.8 15.96 15.71 22.3a78 78 0 0 0 38.72 19.43c11.42 2.18 22.82 2.3 33.84-1.9 8.9-3.4 15.17-9.43 17.16-19.2.34-1.67.86-3.48 1.86-4.8 2.02-2.68 4.73-2.15 7.4-.84q5.38 2.61 10.8 5.18l2 1.32c1.54.56 3.04 1.41 4.63 1.65 4.77.7 9.8 2.9 9.8 9.72 0 3.37 1.62 6.74 2.5 10.1l1.16 4.34.6 3.1 1.58 9.34.91 5.5q4.9 17.66 9.77 35.34c1.03 3.73 4.12 5.71 6.72 8.13l1.12 2.96c1.77 2.77.1 5.32-.48 7.94l-1.68 3.12c-2.47 2.96-4.81 6.05-7.46 8.85-2.38 2.52-5 2.19-7.4-.23-1.02-3.7 1.38-6.12 3.36-8.63 2.9-3.68 5.92-7.26 8.84-10.8-1.59-1.68-2.9-2.56-3.5-3.8-3.17-6.5-6.6-12.92-9.13-19.68-6.13-16.28-10.19-33.04-10.25-50.6 0-1.96-.73-4.37-2.01-5.75-2.34-2.52-5.67-3.98-8.45-6.1-4.58-3.47-10.6-5.05-16.13-7.48-.17.45-.4.9-.51 1.36-1.78 8.02-6.04 14.4-13.02 18.7-11.94 7.33-24.9 10.8-38.91 8.67-7.24-1.1-14.64-2.09-21.47-4.52-6.8-2.43-13.28-6.14-19.36-10.12-11.21-7.34-20.05-16.75-22.6-30.74l-7.35 1.82c7.91 5.8 10.13 14.13 10.63 22.76.4 6.99.14 14.23-1.26 21.07-3.13 15.35-7.08 30.54-10.83 45.76-2.59 10.5-5.7 20.88-8.05 31.44-2.61 11.7-4.57 23.53-6.99 35.28a4.7 4.7 0 0 0 .8 4.1c2.98 4.62 5.82 9.36 8.26 14.3 1.63 3.3.48 4.92-2.73 6.87-1.88 1.15-4.33 2.78-4.75 4.6-.58 2.55.5 5.49.82 7.98l24.09-6.87c-2.4-.38-5.1-.83-7.8-1.27l.04-.83c.75-.2 1.52-.62 2.25-.56 3.04.25 6.07.62 9.1.99 2.02.25 4 .68 5.7-1.1a4 4 0 0 1 2.7-1.13c9-.05 18-.27 27 .14 8.01.37 16 1.5 24 2.23.37.03.8-.67 1.2-1.03q-.05.02.27.17l-.18.9 2.13.05 1.65.02c3.47.48 6.93 1 10.4 1.46 4.35.58 8.7 1.13 13.3 1.73v-6.11c1.03.55 1.97.75 2.3 1.3.95 1.6 1.66 2.7 3.96 1.7 1.56-.69 4.15.37 5.3-.57 5.27-4.32 10.2-9.06 15.2-13.6l-8.48-5.85c2.04-5.34 2.34-4.2 6.15-2.88 2.57.9 4.95 2.54 7.21 4.15 3.59 2.52 3.17 5.68-.5 7.98-5.14 3.2-10.08 6.73-15.09 10.12 11.44.6 22.65-.01 33.3 3.36l6.45-3.42c-.52-.34-1.02-.5-1.25-.84-5.86-8.83-12.29-17.35-17.35-26.63-4.17-7.63-6.85-16.09-9.87-24.3-.7-1.92-.1-4.3-.1-7.06.98.68 1.51.85 1.7 1.2 1.29 2.57 2.5 5.2 3.77 7.8q4.43 9.07 8.9 18.17c3.96 6.25 8 12.45 11.88 18.77q3.12 5.09 5.74 10.46c1.62 3.32.92 5.36-2.3 8.2 5.24 7.77 8.06 16.56 10.2 25.56.64 2.72.37 5.74.09 8.59-.1 1-1.46 1.88-2.75 3.43 1.9-.64 3.39-.88 4.58-1.6 3.2-1.9 5.86-1.47 8.56 1.06 4.56 4.27 8.16 8.9 7.56 15.63-.97 1.23-2.11 2.38-2.85 3.73-.4.74-.14 1.84-.18 2.78l3.7 8.7 3.15 7.93c.56 4.62 1.56 9.25 1.52 13.87-.02 3.4-1.41 6.77-2.2 10.16l-1.25 3.05-1.23 1.86-2.45 3.14q-.3.31-.63.6c-5.78 4.64-4.7 10.32-3.26 16.62 1.7 7.45 2.18 15.16 3.32 22.74 1.05 6.95 2.37 13.86 3.43 20.82 1 6.58 1.84 13.2 2.72 19.8q1.06 7.8 1.98 15.63c.44 3.81 1.1 7.65 1.03 11.47a28 28 0 0 0 3.42 14.12c1.89 3.47 1.08 4.69-2.98 5.01-1.77.14-3.53.4-4.52.53l3.52 32.85c.78.04 2.23-.15 3.49.25.83.26 1.85 1.26 2.02 2.1.78 3.65 1.68 7.36 1.82 11.06.27 7.81.38 15.65.03 23.44-.36 7.95-3.16 15.27-7.15 22.3l2.17.45c-.66.63-1.08 1.29-1.66 1.54-3.52 1.47-7.1 2.8-10.6 4.32-.7.3-1.69 1.45-1.54 1.83 1.8 4.87-1.38 7.4-4.5 9.95-.89.72-1.93 1.26-2.9 1.89l.33.79c1.72-.62 3.42-1.3 5.17-1.82a4.4 4.4 0 0 1 2.1 0c1.23.27 2.56.46 3.6 1.11.88.56 2.01 1.72 1.99 2.58q-.41 13.3-1.15 26.6c-.3 5.48-.78 10.94-1.24 16.4-.36 4.33 0 8.95-1.48 12.86-1.2 3.19-4.61 5.57-7.14 8.22-.71.75-1.76 1.2-2.47 1.66 2.56 6.7 2.76 13.46 2.29 20.23a112 112 0 0 1-1.77 13.48c-.6 3.08-1.13 6.62-5.55 6.83 5.89 9.8 8.2 20.78 11.68 31.27 4.58 13.83 8.6 27.84 12.77 41.8 3.46 11.56 6.82 23.17 10.08 34.28 3.68-.18 7.63-.7 11.51-.45 5.43.36 8.13 3.88 9.12 9.08.35 1.88 1.38 3.64 1.77 4.6 5.88-.06 11.15-.23 16.41-.16 3.78.05 6.4 1.87 6.9 5.84a9.2 9.2 0 0 1-4.4 9.35c-2.64 1.62-5.83 2.44-8.86 3.3-1.79.5-2.82 1.03-1.4 2.74 5.63 6.78 11.28 13.54 17.09 20.18a39 39 0 0 0 6.77 6.08c1.17.83 3.03.7 4.58 1.01 6.68 1.37 11.67 5.16 15.17 10.91.85 1.4 1.28 2.1 3.2 1.36 2.66-1.03 4.84.92 5.17 3.82.5 4.3 1 8.62 1.78 12.88 1.62 8.89-4.25 16.68-13.88 18.37-4.24.74-8.44 1.7-12.66 2.56l-5.56.62-19.17 1.23-3.06.45c-.63-.19-1.28-.58-1.88-.51-7.48.75-14.38-1.44-20.87-4.65-8.4-4.15-16.79-8.42-24.67-13.44-5.64-3.61-10.43-8.54-15.6-12.88l-10.4-10.55c.3-3.99 1.19-7.74 4.07-10.76.42-.44.75-1.32.62-1.88-2.04-8.77-.6-17.55-.1-26.32.23-4.23.76-8.46 1.48-12.64.56-3.2 1.65-6.3 2.63-9.93 1.98-.34 3.34-1.7 4.48-4.57.92-2.32 4.67-3.52 7.37-5.37-3.12-9.62-6.55-20-9.85-30.41-3.08-9.67-6-19.38-9.04-29.07-3.06-9.76-6.25-19.48-9.24-29.26-1.42-4.67-2.42-9.47-3.8-14.15-.22-.75-1.42-1.61-2.23-1.7-4.5-.43-10.6-5.67-11.2-10.15-.12-.89.63-2.37 1.41-2.82 1.87-1.06 4-1.66 6.53-2.64 0-3.33-.06-7.32.02-11.31.05-2.01.68-4.05.49-6.01a10.5 10.5 0 0 0-1.86-4.48c-2.63-3.95-2.7-3.9-.6-8.33-2.24-.66-4.67-.97-6.6-2.1-1.23-.73-2.53-2.74-2.44-4.1.47-7.9 1.04-15.81 2.2-23.63.75-5 2.67-9.8 3.79-14.76.23-1.02-.66-2.37-1.2-3.5-1.94-4.12-2.35-9.12-7.1-11.65v-1.01l15.34-6.74v-8.02c-2.64 0-4.89-.13-7.12.03-7.3.5-12.26-3.14-16.53-8.63-5.71-7.34-7.94-16.17-11.15-24.6-1.76-4.62-3.63-9.2-5.23-13.89-.25-.72.4-2.25 1.09-2.69 1.4-.87 3.1-1.26 4.71-1.86-2.45-4.9-4.96-9.86-7.4-14.87-1.5-3.04-2.87-6.14-4.32-9.2-.61-1.3-1.32-1.89-3.03-1.35-4.95 1.56-6.81.73-9.28-3.78-1.33-2.42-3.94-5.25-3.48-7.35 1.67-7.68-3.47-13.45-4.66-20.26-.9-5.2-3.26-10.2-3.89-15.4-.51-4.23.4-8.67 1-12.97a786 786 0 0 1 3.6-22.49c1.23-7.14 2.67-14.25 3.85-21.4 1.03-6.18 1.83-12.4 2.73-18.6l-.95-.29c-.83 1.92-2 3.76-2.41 5.76-2.42 11.93-4.93 23.86-6.85 35.88-1.49 9.28-2.24 18.7-3.14 28.07-.44 4.47-.14 9.03-.73 13.48-.96 7.12-2.37 14.16-3.7 21.88l2.6 1.67c2.01 1.27 2.85 2.95 1.94 5.29-1.04 2.67-1.9 5.41-3.17 7.95-.42.84-1.84 1.56-2.86 1.63-2.94.22-5.91.08-7.93.08-.66 5.55-.83 10.81-1.96 15.85-2.5 11.13-5.73 22.08-8.16 33.21-1.9 8.64-2.95 17.46-4.56 26.17-.59 3.16-1.73 6.22-2.57 9.33a4 4 0 0 0-.02 1.56c2 11.25 1.53 22.54.88 33.89a557 557 0 0 0-.66 32.64c.01 9.67.65 19.33.68 29 .06 15.86-.1 31.72-.25 47.57-.03 3.7-.47 7.42-.44 11.13.03 4.58.5 9.15.53 13.74.08 14.93.04 29.87.04 44.8 0 .86-.16 1.72-.24 2.56 2.56.49 5.27.76 7.82 1.57 2 .64 2.8 2.4 2.1 4.54-.57 1.76-.95 3.3-3.66 2.42-7.9-2.53-15.2-1.36-20.77 5.14-1.96 2.29-2.78 5.53-4.12 8.33l1.24-.13c.78 1.19 2.1 2.33 2.22 3.58.22 2.24 1.45 2.19 2.95 1.99 5.08-.7 10.16-1.42 15.38-2.16.2-2.88.14-6.04.7-9.08.54-2.94 2.15-3.21 4.18-1.07.41.44.92.81 1.38 1.2.36.32.73.62.9.76 5.7-4.23 11.66-2.75 17.65-.72 1.44 1.06 2.36 2.39 2.07 4.28.86 4.4-1.42 8.62-5.43 10-.47.16-1.18.19-1.52-.06-.26-.19-.3-1-.13-1.41.9-2.07 1.9-4.1 3.24-6.96l-14.41-2.65-.76.88 2.6 6.9c-1.6 2.58.5 6 .7 9.43l.84 4.89c.2.73.17 1.87.63 2.14 7.02 4.04 11.06 10.86 15.97 16.87q1.42 1.77 2.82 3.57c1.33 1.68 1.75 3.33-.26 4.81 9.03 5.06 16.18 11.53 18.22 22.55 2.82.34 5.71 1.15 5.93 5.07l-.62 4.33c-1.36 1.84-2.52 3.9-4.17 5.44-.93.87-2.65.9-4.02 1.27-.4.1-.87-.04-1.22.11-6.67 2.91-13.83 3.04-20.9 3.71-1.07.1-2.12.44-3.18.67l-5.57.04c-2.57.17-5.14.3-7.7.52-1.56.14-3.1.42-4.66.64l-5.56.68-14.84-.61-4.38.58c-2.87-.43-5.75-.78-8.6-1.32-7.42-1.41-14.87-2.69-22.2-4.49-2.86-.7-5.42-2.66-8.1-4.05l-1.32-2.58c1.27-2.12 2.58-4.21 3.79-6.36.38-.68.47-1.51.7-2.27l3.04-4.9 7.68-2.46-4.54-13.09-1.24-3.65-.03.02.46-.27-.45-.51c-.3-1.6-.5-3.21-.9-4.77-.86-3.5-.51-6.55 1.92-9.54 3.35-4.14 6.27-8.63 9.33-13.01.37-.53.75-1.27.69-1.88q-.89-8.68-1.9-17.35c-.02-.13-.3-.24-.46-.35l-.78-5.54c-.17-2-.4-3.98-.5-5.98-.1-1.67-.03-3.34-.03-5.6 6.3 1.32 11.65 2.34 16.94 3.61 1.6.38 3.02 1.42 4.63 2.2 3.16-4.54 7.6-7.9 13.5-9.05 1.61-.31 2.13-1.08 2.06-2.7-.3-7.96-.5-15.93-.74-23.9l-.56-8.66-.07-43.9-.44-5.58v-2.42l-.62-3.71.9-7.45.06-4.33-.08-1.23.1-4.34-.18-8.58-.17-5.63-.09-22.95c0-2.66-.07-5.31-.1-7.97l-.07-5.56.18-14.22.52-6.18.8-12.96v-3.1c.2-1.82.57-3.66.59-5.5.04-4.14-.09-8.3-.15-12.45v-1.81l-4.74-1.33c-.2-.93-.77-1.99-.53-2.78 3.45-11.07 5.5-22.42 7.33-33.85 1.42-8.84 3.78-17.54 5.71-26.3l2.11-7.5 1.95-8.03-.1-1.24-.44-1.83 1.3-1.21 1.5-1.8H517.4l-4.38.37-36.4.14c-7.14.02-14.29 0-21.31 0 1.81 9.73 3.76 18.75 5.12 27.86 1.03 6.99 1.83 14.09 1.78 21.14-.03 5.56-1.48 11.1-2.35 16.66-.15.98-.5 1.93-.76 2.9l-3.79 12.95-1.5 5.04-.02 1.24c-.53 2.62-1.2 5.21-1.56 7.86-.6 4.58-1.02 9.18-1.5 13.78l-.62 5.56zm78.38-233.72-3.36.86c-13.65 5.04-27.77 8.8-41.15 14.64.42.47.74.6.98.53 7.14-2.44 14.3-4.82 21.4-7.39 6.41-2.33 12.74-4.88 19.1-7.34q1.7-.44 3.37-.9l.88-.67-.23-.36zm-5.83-18.74 1.4.14.06-.41-1.06-.23 2.1-3.11c1.05-.58 2.05-1.37 3.17-1.65.89-.23 2.23-.18 2.87.36 3.58 3 6.89 6.36 10.54 9.28a82 82 0 0 0 9.43 6.36c2.08 1.23 2.78.96 4.22-.28l-24.8-19.06-5.82 4.44c-2.79 1.26-3.36 2.4-2.1 4.17zm-84.37-4.08 5.11-16.74-1.22-.35-4.37 16.78-.1 1.98.41.03zm56.86-469.9.43.51.1-.27-.6-.16c-.7-7.24 4.12-9.2 9.52-10 .56-2.1.55-4.22 1.58-5.5 2-2.49 2.6-5.47 3.97-8.14a12.5 12.5 0 0 1 8.95-6.62c4-.75 8.15-.71 12.22-1.02-.86-.69-1.85-.96-2.82-1.29-4.42-1.51-8.7-1.92-12.75 1.12-4.62 3.46-9.44 6.64-13.94 10.24-4.03 3.23-6.6 7.62-8.26 12.49-1.12 3.29-.26 7.5 1.6 8.64m145.07 382.52.6-.39-.19-.2-.39.64c-.1-.83 0-1.72-.3-2.47-3.93-9.94-7.92-19.86-11.73-29.39-2.75 3.5-7.23 1.85-11.26 2.47 2.76 7.45 7.44 13.66 11.61 20.17a11.6 11.6 0 0 0 5.36 4.53c2.33 1.06 4.22 3.06 6.3 4.64m-142.31 540.3-12.49-.92c1.73 7.9 1.16 15.62.74 23.35-.13 2.22-.09 4.44-.19 6.67-.1 2.34.3 4.93-.55 6.97-1.64 3.86-4.05 7.39-6.08 11.1-.45.83-.94 1.88-.84 2.76.43 3.72 1.26 7.4 1.59 11.12.47 5.38.64 10.77.94 16.17l15.42 1.19c2.32-9.27 8.92-15 15.8-20.34-3.63-3.48-7.22-6.99-10.89-10.42-2.28-2.13-5-3.99-3.15-7.77.13-.25.04-.61.02-.92-.41-6.2-.9-12.38-1.18-18.58-.1-2 .97-4.2.5-6.03-1.25-4.86.11-9.44.7-14.12l.58-.87-.3-.2zM383.72 308.6l60.04 31.92c-1.62.35-2.69.88-3.66.74-2-.3-4.03-.75-5.9-1.5-10.24-4.15-20.54-8.17-30.6-12.72-8.36-3.78-17.07-7.2-23.26-14.94-1.27 1.96-2.29 3.96-3.7 5.6-1.5 1.78-3.4 3.22-5.09 4.85-.25.24-.23.77-.28 1.17-.18 1.42-1 3.33-.39 4.18 1.78 2.43 3.77 5.18 6.35 6.43 4.65 2.26 9.83 3.4 14.71 5.22 14.8 5.5 28.85 12.65 42.6 20.4 1.93 1.1 3.8 2.6 3.46 5.73l-3.8-1.45c-1.73 15.03-12.9 31.42-19.85 34.91l12.97 21.13c.73-3.3 1.19-5.89 1.88-8.42 5.4-20.12 10.9-40.21 16.24-60.34.65-2.42 1.38-5.31.64-7.5-5.19-15.2-7.36-31.08-10.86-46.65-.43-1.92-.29-3.97-.4-5.96l1.12-.19c3.94 8.04 5.21 16.85 6.75 25.58q2.3 13.09 4.58 26.21c.26-.22.63-.38.7-.63 4.14-14.82 8.45-29.6 12.3-44.5a372 372 0 0 0 5.72-27.17c1.35-7.48 2.06-15.07 3.18-22.6 1.16-7.79.46-15.33-1.61-22.95-2.1-7.7-7.4-10.21-14.53-10.65-.43-.02-.85-.5-1.27-.49-5.69.27-10.4 2.33-13.55 7.35-8.69 13.76-17.5 27.45-26.11 41.25-9.53 15.25-18.9 30.6-28.37 45.97zm-18.19 214.29c1.01.44 1.45.67 1.9.83 8.2 2.7 16.12 5.96 23.47 10.61 7.1 4.5 14.43 8.6 21.6 12.98 1.18.72 2.05 1.95 3.06 2.94l-.59.96c-2.47-.74-5.09-1.18-7.36-2.3-6.17-3.09-12.1-6.66-18.3-9.68-8.51-4.15-17.17-7.98-25.77-11.94-.57-.26-1.18-.45-1.21-.46l-13.83 48.82c5.38 2.48 11.05 5.05 16.68 7.73 11.14 5.3 22.22 10.72 33.38 16 2.8 1.34 5.8 2.26 8.63 3.53 1.24.56 2.21 1.9 3.47 2.23 3.8 1 7.68 1.66 11.52 2.46 1.85.4 4 1.61 5.48 1.05 3.64-1.36 6.96-3.53 9.7-4.99-.34-1.68-1.09-3.1-.8-4.3 1.87-8 3.78-15.98 6.02-23.89 2.07-7.32 4.55-14.54 6.97-22.2-10.14-6.36-19.69-2.58-29.22 3.25 1.46-5.2 5.76-7.1 9.71-9.24 4.19-2.26 8.77-2.9 13.63-2.17-.92-1.06-1.78-2.02-2.85-2.4a961 961 0 0 0-23.24-7.97c-.66-.22-1.68.64-2.28.89 2.5 2.05 4.75 3.8 6.86 5.69.4.35.3 1.27.42 1.93-.66.09-1.36.37-1.98.24-1.64-.34-3.34-.66-4.85-1.34-2.73-1.22-5.5-2.49-6.05-6.04-.1-.64-1.02-1.28-1.7-1.68-2.5-1.49-5.15-2.78-7.58-4.38-.79-.52-.86-2.19-1.65-2.6-3.67-1.98-7.48-3.7-11.47-5.62-.87 2.6-2.8 3-4.79 1.68-.37-.24.62-2.56 1.07-4.23-.78-.4-2.24-1.8-3.2-1.52-4.88 1.42-9.63 3.27-14.84 5.13zM592 694.28c3.61 9.62 6.72 19.27 10.86 28.45 3.66 8.1 8 14.3 19.95 13.64 5.9-.33 11.81-.68 17.7-1.26 6.82-.67 13.64-1.59 20.45-2.46 1.17-.15 2.92-.25 3.35-.98 2.1-3.59 4.82-7.21 5.51-11.14 1.34-7.45 1.74-15.1 1.98-22.69.2-6.43-.36-12.9-.55-19.35-.08-2.5-2.08-2.83-3.66-2.6-6.77.99-13.57 1.95-20.22 3.51-13.3 3.13-26.54 6.57-39.76 10.05-5.4 1.42-10.68 3.28-15.6 4.82zm55.54 332.51c1.89 1.08 3.73 1.85 5.22 3.03 6.7 5.32 13.22 10.84 19.95 16.12 4.47 3.51 9.23 6.65 13.77 10.1 1.76 1.33 1.87 2.44.85 3.68-1.26 1.53-2.43 3.59-4.88 2.18q-5.6-3.23-11.06-6.72a163 163 0 0 1-26.94-21.33c-.34 1.67-.83 3.94.03 4.72 11.14 10.16 22.67 19.81 36.29 26.62 8.24 4.13 16.63 7.16 26.14 6.06 7.27-.84 14.6-1.09 21.9-1.63 10.45-.78 20.9-1.59 31.82-2.42l-1.27-16.37c-3.03 1.46-5.52 3.05-8.26 3.92-14.26 4.55-28.78 7.74-43.9 6.15-4.71-.5-9.36-1.6-14.04-2.41-1.67-.28-2.22-1-2.2-2.9.06-4.07 1.76-7.45 4.03-10.49 2.14-2.88 4.86-5.35 7.14-7.8-12.84-11.02-20.84-25.53-27.8-40.58-3.76 1.67-7.2 3.32-10.76 4.67-.92.35-2.53.12-3.25-.51-1.14-.98-.93-2.42.48-3.3 3.6-2.26 7.23-4.47 10.94-6.75-4.02-10.15-13.2-8.9-21.54-9.01 1.05 15.37-1.08 30.35-2.66 44.97m-56.2-338.76c24.25-6.54 48.21-13.4 72.9-16.9l-3.56-30.34c-26.41 6.97-53.98 11.14-80.18 20.52 4.57 8.52 9.54 16.81 10.84 26.72m-2.4-625.65c-3.52.9-6.9 1.56-10.15 2.64-6.24 2.06-13.14 1.53-19 5.4-2.37 1.58-5.35 1.93-6.54 5.23-.4 1.1-2.47 1.55-3.7 2.43-1.32.93-2.78 1.81-3.77 3.05-2.36 2.95-4.35 6.21-8.54 6.91-.51.09-1.16.82-1.32 1.37-1.94 6.38-3.8 12.78-5.76 19.47 1.24-.6 2.18-1.08 3.16-1.48 5.54-2.27 11.04-4.67 16.67-6.68 1.53-.55 3.61.53 5.19.04 7.51-2.31 15.2-2.86 22.92-2.31 5.8.41 11.6 1.68 16.18 5.61a6.4 6.4 0 0 0 5.5 1.64c2.1-.26 4.25-.26 6.35-.56 1-.15 2.04-.6 2.89-1.16 2.72-1.85 5.37-3.82 8.14-5.8l-1.07-3.76c-2.22.3-4.29.74-6.37.81-1.07.04-2.17-.59-3.25-.9.64-1.36 1.05-2.91 2-3.98.88-.97 2.35-1.41 3.06-1.8-.96-4.06-1.59-7.81-2.79-11.36-.74-2.22-.95-4.65-3.27-6.47-2.07-1.63-4.18-1.6-6.36-2-4.02-.75-8.1-1.31-10.16-6.33zM407.43 607.06l-34.2 49.92.96-.04c.52 1.57.99 3.17 1.58 4.73.54 1.43.85 3.62 1.89 4.1 11.29 5.13 22.99 7.93 35.22 3.75 4.3-1.47 7.75-3.68 9.44-8.95 4.59-14.24 10.12-28.2 15.33-42.39-3.03-1.73-6.4-3.7-9.82-5.57-1.29-.7-2.69-1.63-4.06-1.66-5.76-.14-11.37-.75-16.34-3.9m58.04-394.25c.77 1.07 1.37 1.86 1.9 2.68 6.1 9.32 7.88 19.6 6.7 30.5-.96 8.76-1.8 17.54-3.16 26.23-2.66 17.05-7.47 33.59-12.2 50.16-4.76 16.63-8.76 33.49-13.14 50.23-4.49 17.12-9.04 34.23-13.53 51.35-.22.82-.54 1.92-.19 2.51 1.45 2.4 3.13 4.65 5.11 7.5 0-1.23-.1-1.75.01-2.22 4.1-17.03 8.28-34.05 12.33-51.1 2.91-12.3 5.58-24.67 8.5-36.97 3.69-15.52 7.69-30.96 11.25-46.5 4.16-18.12 9.11-36.08 11.31-54.61.85-7.18.79-14.2-1.52-21.06-2.67-7.95-4.04-8.82-12.48-8.75-.2 0-.4.03-.9.06zM566.79 1057c-7.84.52-15.8 1.05-23.76 1.55l-27.2 1.68c-7.62.47-14.83-3.38-22.62-1.87-3.52.68-7.28.12-11.16.12l-1.17 8.94c28.3 4.66 56.36 5.18 84.18 1.21zm66.2-195.53c.83 2.45 1.7 4.79 2.44 7.16 4.81 15.66 9.7 31.3 14.36 47.01 5.01 16.89 9.75 33.86 14.77 50.74.78 2.6.77 5.89 3.4 6.92l7.18-5.48c-12.08-35.46-23.9-71.17-33.8-107.64zm64.38 194.07c4.34.38 8.48.95 12.63 1.04 11.34.24 22.5-1.44 33.57-3.75 2.78-.58 5.48-1.81 8.06-3.06 2.67-1.29 3.17-3.15 1.82-5.11-1.01-1.45-2.2-2.84-2.96-4.42a11.2 11.2 0 0 0-6.63-5.84c-7.26-2.56-14.42-1.53-21.4 1.03-10.4 3.81-19.24 9.75-25.1 20.11m-131.13-.82c-.69-1.33-1.39-3.27-2.59-4.82-2.43-3.15-4.6-7.03-7.85-8.95-7.73-4.51-16.6-5.03-25.3-4-11.46 1.35-19.44 8.68-27.3 17.77zm-50.57-22.43c9.08-4.15 18.84-3.28 28.51-1.8-3.62-3.03-7.98-5.52-10.68-9.22-3.58-4.9-7.08-5.92-12.4-3.41-3.85 1.81-7.92 1.66-11.44-1.09-.96-.74-1.46-2.07-2.17-3.12 1.1-.72 2.12-1.85 3.3-2.09 5.58-1.09 11.2-1.93 16.84-2.86l-1.91-5.59c-1.44.26-2.8.58-4.18.74q-6.68.8-13.34 1.42c-.6.06-1.26-.4-1.9-.62.28-.68.38-1.76.87-1.98 2.01-.91 4.08-1.87 6.23-2.24 3.74-.64 7.56-.86 11.5-1.27l-1.54-6.27-18.7 2.2c-.52 5.72-1.08 11.3-1.49 16.9-.1 1.34-.1 3.05.61 4.01 2.38 3.17 5.25 5.96 7.64 9.12 1.63 2.14 2.79 4.65 4.26 7.17zm130.5-175.85c-2.34-11.91-1.42-23.58-1.22-35.52-7.37 2.68-14.52 1.22-21.3-2.05-1.2 2.49-.68 5.4 1.1 4.92 3-.82 4.86.7 6.84 1.72 2.5 1.3 6.08 1.97 6.18 6.79l-7.1-.96c-.9 5.51-1.7 11.03-2.8 16.49-.3 1.56-1.24 2.98-3.6 2.52-1.53-.3-3.23.3-4.89.5 1.47 5.85 3.93 7.44 9.43 6.75 3.53-.45 7.12-.45 10.68-.67 2.31-.15 4.63-.34 6.69-.5zm37.14 146.27c5.41-1.46 10.52-2.8 15.6-4.28.6-.18 1.39-1.22 1.35-1.83-.45-8.96-3.03-10.3-11.12-5.4-1.32-6.94 5.65-6.17 8.24-9.45-1.72-3.37-3.38-6.9-5.33-10.25-.43-.77-1.97-1.52-2.78-1.33-3.5.8-6.92 1.9-10.34 3-2.14.7-3.02 2.49-2.63 4.53.55 2.93 1.63 5.76 2.2 8.69.4 2.06 2.13 4.46-.86 5.98zM406.15 526.8l8.1 3.55c.66-3.64.9-6.96 1.88-10.06a748 748 0 0 1 8.56-25.32c1.48-4.18 3.33-8.23 4.98-12.25l-9.77-5.5c-.33.7-.67 1.22-.83 1.8-1.68 5.86-3.23 11.76-5.03 17.58-1.24 4-3.15 7.82-4.18 11.87-1.46 5.77-2.39 11.68-3.7 18.31zm304.58 488.14-17.52 5.86c2.7 3.97 5.29 7.68 7.76 11.48.89 1.37 1.47 2.93 1.96 3.92l23-9.15zM509.78 186.55l.74.42 15.03-22.3-9.18 1.8c2.1-4.04 3.92-7.58 6.08-11.76-3.77 2.07-6.87 3.74-9.92 5.47-.56.31-1.18.83-1.4 1.39-1.3 3.35-2.47 6.74-3.8 10.43l7.2-.67-4.75 15.2zm-51.3 222.94c-.89-.73-2.03-1.49-2.96-2.46-2.34-2.45-1.86-7.9.29-9.4 2.51-1.75 4.62-4.1 6.82-6.28.29-.29.3-1.2.07-1.63-1.58-2.97-3.27-5.9-5.07-9.11l-11.49 42.42zm180.8 43.35-.9 7.87c1.64.2 3.35.96 4.33.42 4.44-2.46 8.67-5.28 13.23-8.13l-8-9.94c-4.37 1-5.95 4.8-8.02 7.92l9.5 3.51-.24.7zm-58.5-24.83-1.61.41 10.14 70.2.92-.12c0-1.43.14-2.88-.02-4.3-.54-4.72-1.21-9.43-1.78-14.15-.87-7.25-1.6-14.51-2.56-21.75q-1.71-12.93-3.68-25.84c-.23-1.52-.93-2.97-1.42-4.45zm105.35 579.78 3.25 6.03c.72 1.35 1.44 1.66 3.12 1.04 4.65-1.74 9.46-3.08 14.42-4.64l-5.91-7.39zM345.34 543.82l4.6 3.92h-6.05l-1.46 4.9 5.82 3.37 4.5-15.92c-3.97-1.65-4.62-1.34-7.4 3.73m297.67 75.12v-.53c-.31-.04-.63-.16-.91-.1-11.79 2.67-23.59 5.3-35.35 8.1-.79.19-1.3 1.54-1.95 2.36l.76.87zm62.22 366.59 2 5.93c5.3.08 10.41.06 14.66-4.4-5.56-2.59-11.05-1.28-16.66-1.53m-71.42-435.58.1-.91c-4.83-.65-9.65-1.44-14.5-1.9a777 777 0 0 0-22.16-1.75c-.72-.05-1.49.66-2.23 1.01l.25.66zm-24.5-37.07-.78-.81c-4.58 4.32-9.21 8.59-13.73 12.97a498 498 0 0 0-11.69 11.75c-.63.65-.83 1.73-1.23 2.61l.97.54zm-154.85 131.2.16 1.28 48.52-4.97-.08-.82zm177.76 124.1c-1.9.47-3.07.5-3.95 1.03-2.46 1.46-3.63 7.83-2.11 10.79.04.07.17.09.54.28 3.74-2.79 3.3-7.47 5.52-12.1M508.87 420.1l.06-.8c-12.66-.37-25.27-1.96-37.94-1.93l-.05 1.34zm111.5 336.77-.37 1.16c1.65 4.19 5.92 2.83 9.03 3.6 3.37.83 6.95.84 10.43 1.21l.17-.83zm-63.31-340.53-17.11-2.19c2.01 4 14.43 5.15 17.1 2.19m75.72 323.62c-2.08 3.2-2.05 5.9.15 8.37.52.57 1.63 1.07 2.3.9.6-.14 1.35-1.24 1.36-1.93.05-3.07-1.46-5.39-3.8-7.35zm-40.9-321.36v-.36l-29.7-1.55c.44 1.1 1.1 1.86 1.76 1.86 9.32.08 18.64.06 27.95.06zM511.5 118.27l.1.83c1.23-.36 2.61-.48 3.68-1.12 2.83-1.68 5.38-3.92 8.32-5.31 2.94-1.4 3.65-3.2 2.95-5.42-2.28 1.85-4.6 3.88-7.06 5.69-2.59 1.88-5.32 3.56-8 5.33m123.72-8.86c1.16-2.64.36-5.17-1.81-5.86-.6-.19-2.01.32-2.15.78-1 3.33 1.73 3.93 3.96 5.08m-46.28-.81c-1.32-2.69-4.57-4.25-7.87-3.8.05 3.12 2.03 3.52 7.87 3.8m62.34 642.75-.53-.95-3.4 1.71.23.6zm-60.48-251.5-.53.03.24 1.35q.15 0 .29-.03z"/><path fill="#000" d="M384.85 620.2c-7.01 10.25-14 20.51-21.08 30.7-.92 1.34-1.94 2.28-4.29 1.7-10.49-2.63-19.08-8.33-27-15.38-2.08-1.85-4.53-3.3-6.76-5-1.37-1.06-1.67-2.05-.48-3.82 4.72-6.95 8.99-14.2 13.77-21.11 3.48-5.03 7.59-9.62 11.26-14.52 1.93-2.57 4.25-2.64 6.93-1.78l5.57 1.27c5.12 2.1 10.44 3.84 15.3 6.43 5.05 2.7 9.65 6.23 14.37 9.33l-5.01 8.4zm-6.52-.47 9.18-13.52c-2.07-1.13-4.72-2.75-7.54-4.02-.7-.33-2.32.09-2.8.72-2.42 3.1-4.59 6.4-6.66 9.36l5.94 5.48-7.56-3.43-7.56 9.71 9.82 6.03zm-49.8 10.7c9.7 6 17.2 15 28 19.25l2.64-4.96-28.7-17.27zm30.92-4.12-7.72 9.53c2.8 2.2 5.37 4.25 8.03 6.2.36.26 1.44.15 1.7-.18 2.86-3.53 5.6-7.13 8.37-10.7-3.6-1.67-6.93-3.24-10.38-4.85m6.8-30.4-6.6 9.6 7.88 4.71 8.4-10.19zm-16.01 21.95 8.15 4.28 7.59-9.74-8.2-4.72zm-1.2 17.23 7.31-10.64-7.67-4.12-7.64 10.03zm-1.96-18.72 7.66-10.57-6.13-4.18-8.87 11.9zM339 628.96l6.54-10.21-6.64-3.88-7.03 10.51c2.49 1.25 4.71 2.37 7.13 3.57zm24.5-34.2-8.52-2.88-4.65 7.63c1.28.79 2.67 1.34 3.63 2.3 2.02 2.04 3.34.97 4.66-.72 1.55-1.99 3.08-4 4.89-6.33zm257.08-230.5c-3.39-4.26-2.02-9-.83-13.4a58 58 0 0 1 5.2-12.88c4.51-8.16 4.76-16.5 1.85-25-2.61-7.62-5.9-15.02-8.46-22.65-1.37-4.06-1.95-8.4-2.63-12.65a5.2 5.2 0 0 1 .9-3.67c1.02-1.28 2.48-2.72 3.98-3.03 2.68-.57 1.8 2.25 2.24 3.48 3.38 9.66 6.78 19.32 9.69 29.13 1.75 5.94 3.27 12.08 3.74 18.22.43 5.5-.3 11.2-2.92 16.35l-11.06 25.95zM574.8 209.72c1.8 1.05 3.55 2.25 5.44 3.08 1.12.5 2.54.71 3.76.57 6.23-.73 10.55 2.7 14.86 6.26l-.22.96c-1.15-.25-2.34-.39-3.44-.77-3.27-1.14-6.23-3.02-10.01-2.65-4.22.42-7.62-1.91-11.03-4.09-1.5-.96-3.3-1.42-4.93-2.18-2.76-1.29-5.5-2.64-8.46-4.05l-1.2 6.44-1.08-.04c-.06-4.84-.44-9.7-.09-14.51.37-5.02 1.55-9.99 2.09-15 .1-.92-.96-2.21-1.82-2.94-6.3-5.26-12.7-10.43-19.52-16 3.64-.62 6.37-.08 9.17 1.26 7.97 3.83 15.84 7.82 24.56 9.96 9.65 2.36 19.01 1.94 27.9-2.16a16 16 0 0 0 7.16-7.27c2.86-6.2 4.7-12.9 6.96-19.38l.68-4.32.72-2.33c1.21-.33.38-3.83 3-1.91l-1.11 15.37-1.4 4.3c-3.35 7.39-7.74 14.12-15.13 17.81a42.2 42.2 0 0 1-27.45 3.92c-2.62-.5-5.32-.58-8.14-.87-.36 2.39-.7 4.94-1.15 7.46q-1.03 5.94-2.26 11.81c-.33 1.59-.36 2.74 1.24 3.8 2.68 1.77 5.17 3.86 7.73 5.81zm-62.35-75.52-5-2.48c.92-1.16 4.95-2.02 7.3-.9 2.66 1.28 4.87 3.06 5.73 6.17.73 2.63.14 3.87-2.57 4-2.15.09-3.63.28-2.99 3.1.33 1.44-.53 1.62-3.58.71l-2.16-3.77 2.6-3.64 3.83-1.22-3.17-1.96z"/><path fill="#000" d="M595.04 150.2h13.44c-1.1 3.9-4.3 3.21-6.4 3.69-3.93.88-5.41-.1-7.03-3.7zm-43.99 246.3c-12.96-2.73-25.92-5.43-38.87-8.2a47 47 0 0 1-6.66-1.92c-1.04-.39-1.87-1.34-2.8-2.04l.59-1.3c3.76.79 7.57 1.43 11.28 2.42q19.15 5.1 38.24 10.43c.8.22 1.4 1.15 2.08 1.75l-1.65-.02-1.95-.95q-.31-.15-.26-.17"/><path fill="#fff" d="m643.03 618.95-37.46 10.7-.76-.87c.64-.81 1.16-2.17 1.96-2.36 11.75-2.8 23.55-5.44 35.34-8.1.28-.06.6.06.9.1zm-33.7-106.06-26.46 27.06-.98-.54c.4-.88.6-1.96 1.24-2.62q5.74-5.97 11.68-11.75c4.52-4.38 9.15-8.65 13.74-12.97zm-83.93 34.35c-6.36 2.46-12.7 5.01-19.1 7.34-7.1 2.58-14.27 4.95-21.4 7.39-.25.08-.56-.06-.98-.53 13.37-5.83 27.5-9.6 41.14-14.64zm-70.91 96.86 48.6-4.52.08.82-48.52 4.97zm134.44-535.5c-5.84-.27-7.82-.66-7.87-3.79 3.3-.45 6.55 1.11 7.87 3.8M437.75 522.8l4.36-16.78 1.22.35-5.1 16.74a2 2 0 0 0-.5-.31z"/><path fill="#fff" d="M528.78 546.35q-1.7.44-3.37.9a3 3 0 0 1-.34-.45l3.36-.86zm-90.55-23.22-.18 1.68-.42-.03.12-1.98q.25.13.48.32z"/><path fill="#fff" d="m528.43 545.94.99-.63.23.36-.88.68z"/><path fill="#000" d="M560.22 333.27c3.59.82 3.1 3.07 3.69 5.23 1.13 4.18 3.2 8.12 5.05 12.08 5.48 11.74 11.04 23.44 16.56 35.17.2.45.44.95.43 1.42 0 .96-.16 1.91-.25 2.87-1.07-.39-2.74-.46-3.1-1.19a1518 1518 0 0 1-19.23-39.15c-1.8-3.85-2.55-8.21-3.55-12.4-.29-1.2.24-2.58.4-4.04m-4.77 38.94 21.2 19.49c-8.36-5-16.35-10.43-21.95-18.56zm48.7-98.88a58 58 0 0 1-8.14 16.23l-.94-.47 8.01-16.3q.53.29 1.07.54m-215.68 62.82L371.31 327c3.2-.59 14.62 5.45 17.16 9.14m7.17 259.29c2.84-13.82 4.55-26.74 11.02-39.04-5.95-2.9-12.4-6.1-18.89-9.21-3.8-1.82-7.83-3.21-11.41-5.38-3.17-1.92-5.95-1.09-8.88-.07-3.09 1.08-3.49 3.97-4.06 6.6-1.3 5.98-2.67 11.97-3.57 18.02-.42 2.76.12 5.69.45 8.51.06.55 1.1 1.12 1.8 1.45 8.3 3.93 16.64 7.8 24.96 11.7 2.73 1.27 5.44 2.58 7.9 4.57-1.54-.5-3.13-.86-4.6-1.5-9.15-3.93-18.26-7.94-27.4-11.88-1.89-.8-3.27-3.38-5.91-1.44-3.27-6.65-1.48-13.14-.21-19.49 1.23-6.19 3.13-12.25 4.65-18.38.96-3.89 3.82-5.8 7.33-4.18a1833 1833 0 0 1 35.97 16.95c4.03 1.95 5.9 3.97 4.38 10.2-1.88 7.69-3.56 15.42-5.7 23.03-.82 2.94-2.51 5.69-4.15 8.3-.47.76-2.14.76-3.69 1.23zm24.57.87c1.3-4.61 2.42-8.97 3.77-13.26 2.17-6.94 4.48-13.83 6.77-20.73 1.4-4.21 1.75-4.39 5.82-3.36 3.18.8 4.36 2.36 3.44 5.69a579 579 0 0 1-8.15 27.46c-1.64 4.96-3.54 5.42-11.65 4.2m11.16-26.86c-2.3 6.65-4.72 13.26-6.88 19.97-1.14 3.55-.29 4.3 3.9 3.83 0-2.02-.27-4.1.06-6.1.97-5.8 2.2-11.58 3.31-17.38l.2-1.35-.38-.06zm-24.7 25.2c-.21-14.04 4.75-26.53 10.77-38.69l1.22-.05c.2 1.28.9 2.72.52 3.8-2.54 7.39-5.33 14.69-8 22.03-1.54 4.29-3.01 8.6-4.52 12.92zm17.65 10.1c-2.74-.6-4.1-1.34-4.11-3.8 0-2.32 1.47-2.93 3.33-3.02 1.87-.08 3.97 2.21 3.42 4.07-.32 1.08-1.72 1.84-2.64 2.75"/><path fill="#000" d="M373.72 563.18c2.07 2.62 4.84 3.95 7.72 5.13.08.03-.13 1.58-.52 1.75-.83.37-2.09.72-2.76.34-2.6-1.46-4.55-3.55-4.44-7.22m-6.2-10.4c3.98 1.07 4.92 2.63 2.43 5.25l-3.34-4.6zm25.08 13.56-4.38-1.59c.44-.67.73-1.74 1.32-1.94 2.17-.75 3.12.59 3.06 3.54zM578.26 89.76c-6.43-1.27-10.94 1.76-15.56 4.35-.63.35-1.15.9-1.8 1.16-1.32.55-2.68.96-4.04 1.43.16-1.37.05-2.84.53-4.08 2.38-6.25 13.73-10.93 18.83-5.62.79.82 1.37 1.84 2.04 2.76m-161.13 530.4c3.41-.24 6.75.63 9.24 3.6 3.78 4.5 2.81 9.4-.13 13.95-2.7 4.18-7.7 5.83-12.93 4.4-3.66-1-7.83-1.6-9.07-5.97-2.37-8.33.48-16.01 12.89-16zm7.42 8.94c-.7-.26-1.24-.5-1.8-.65-4.08-1.19-8.84.57-10.83 4.09-1.23 2.17-1.72 4.37.5 6.3 2.36 2.06 6.02 2.35 8.04.54 3.07-2.75 4.25-6.25 4.1-10.28m-3.6-5.2c-2.26-2.25-8.33-1.67-10.98 2.1zm1.47 1.13.23-.2-.2-.23-.24.31zm-9.33 28.12c-3.48-.24-7.14-.57-10.81-.76-4.3-.21-4.3-.16-7.29 3.82l17.13 2.46-.02 1.36c-3.08.3-6.15.83-9.23.87-3.55.04-7.12-.6-10.66-.5-4.13.12-6.2-2.52-3.6-5.84.41-.54.53-1.3.83-1.94 2.77-5.9 6.46-7.63 13.02-6.08 4.57 1.09 9.17 2.1 13.69 3.37.7.2 1.71 1.73 1.52 2.28-.77 2.24-1.94 4.34-3.06 6.44-.03.06-1.67-.43-1.69-.71-.1-1.6.08-3.22.16-4.78zm-7.7-2.2 9.09.5v-.87c-2.8-.28-5.63-1.75-9.08.38"/><path fill="#fff" d="M420.97 623.9 410 626c2.64-3.77 8.72-4.34 10.98-2.1m1.47 1.14-.21-.12.23-.32.2.23zm-17.04 25.93c3.46-2.13 6.27-.66 9.09-.38v.86z"/></svg>