<svg xmlns="http://www.w3.org/2000/svg" width="1080" height="1080" fill="none" viewBox="0 0 1080 1080"><path fill="#fff" d="M562.23 169.56c4.06-2.42 8.19-5.39 12.72-7.49 8.68-4.01 17.6-7.49 26.4-11.28 4.25-1.84 8.37-4 12.66-5.76 2.09-.86 4.42-1.16 6.64-1.65 3.3-.73 6.86-.87 9.88-2.22 8.1-3.62 15.04-2.2 20.65 3.07 2.05 1.93 4.75 3.2 6.7 5.2 3.15 3.2 3.28 4.86.92 8.63-1.3 2.1-3.16 3.85-4.86 5.86-.22-.3-.14-.06 0-.01 5.2 1.5 8.88 4.92 12.26 9.04 2.15 2.62 5.15 4.54 7.81 6.72 7.01 5.76 8.92 13.17 6.5 21.62-2.59 9.07-2.46 18.14-1.78 27.43.6 8.23.74 16.6-.08 24.78-.65 6.47-5.01 11.62-9.2 16.56-4.66 5.5-10.74 8.32-17.48 10.27-3.6 1.04-7.25 2.38-10.38 4.36-2.08 1.33-3.27 4.04-4.95 6.26 7.56 6.14 8.95 14.87 10.78 23.59 1.05 5 1.39 10.45 5.18 14.58.45.5.73 1.24.86 1.92 1.51 7.83 9.93 13.81 13.02 20.9 3.77 8.65 4.78 17.01 6.67 26.27.53 2.58.6 5.28.73 7.93.33 7.2 3.85 14.3 3.75 21.51-.1 7.43 1.46 13.61 1.23 21.04-.14 4.8-1.65 10.7-1.23 15.48.55 6.35-5.39 12.2-8.07 17.69-7.68 15.76-18 29.79-28.7 43.55q-3.8 4.87-7.64 9.73c2.66.31 3.6 2.08 3.58 4.75-.04 10 .7 19.92 4.33 29.39.72 1.87 1.45 3.85 2.65 5.4 4.2 5.47 4.05 11.8 4.3 18.2.35 8.59 1.01 17.17 1.73 25.73.55 6.73.79 13.56 2.22 20.12a176 176 0 0 1 3.72 31.06c.36 9.74.09 19.5.1 29.25l.07 15.9c.02 6 .84 12.15-.2 17.96-.84 4.68.86 14.2-1.6 18.45-3.53 6.04-12.1 6.67-15.8 12.62-1.9 3.07-4.87 3.92-7.99 4.02-6.64.21-13.3.26-19.93-.02-6.14-.25-11.7 1.58-16.96 4.28-11.15 5.75-22.11 12.2-34.5 14.7-7.53 1.53-15.48.93-23.21 1.58-5.91.5-11.76 1.71-17.68 2.15-7.04.52-14.12.9-21.17.67-5.45-.18-10.9-1.24-16.3-2.18-5.72-.99-11.38-2.39-17.1-3.43-5.8-1.05-11.6-2.18-17.46-2.74-6-.57-12.04-.62-18.07-.67-12.83-.09-25.65-.02-39.33-.02 1.84 1.2 3.03 2 4.23 2.77-7.98 1.21-19.99-5.71-22.47-13.41a9 9 0 0 1 .73-6.69c3.52-5.6 1.6-10.1-1.47-15.04-3.88-6.21-7.15-12.8-10.74-19.2-1.22-2.17-2.37-4.48-4.02-6.3-5.58-6.14-5.93-13.2-3.84-20.6 6.74-23.74 14.1-47.27 24.14-69.86 2.81-6.34 3.91-13.05 4.71-19.84a6864 6864 0 0 0 3.71-32.02c.66-5.85.63-11.86 1.99-17.53q5.67-23.86 12.36-47.43c2.22-7.77 5.69-15.17 8.33-22.83 6.01-17.43 12.14-34.83 17.71-52.4 4.85-15.27 8.6-30.9 13.64-46.09a78 78 0 0 0 4.2-24.9 83 83 0 0 1 10.43-40.11c5.63-10.3 11.13-20.65 16.65-31 1.12-2.08 1.17-3.87-.27-6.27a285 285 0 0 1-12.2-22.56c-1.73-3.57-2.6-7.61-3.42-11.53-.73-3.47 1.17-6.19 3.88-8.1 3.96-2.8 7.75-6.34 12.2-7.84 7.54-2.54 12.47-8.98 19.76-11.75 3.5-1.33 6.84-2.36 10.64-2.26 6.46.19 12.64-5.92 12.81-12.47.03-.94-.21-2.28-.85-2.8a14.5 14.5 0 0 1-5.26-8.7c-3.43.59-6.75 1.25-10.09 1.73-3.87.56-7.76 1.27-11.66 1.38-9.46.24-13.38 6.36-16.66-3.22-.19-.57-.85-5.8-1.23-6.19-6.2-10.52-4.15-9.7-8.05-13.62-1.86-1.86-5.7-2.83-7.53-4.71-2.24-2.3-1.6-4.58-.19-7 1.86-3.22 2.77-9.47 4-13.04.23-.65 0-4.23 0-4.95.02-4.13-.05-4.54 0-8.66.05-2.97 1.05-3.61 4.13-5.83.32-.24.28-1.2.16-1.77-1.9-9.27-1.6-19.3 2.52-27.06 6.8-12.81 20.09-20.66 33.6-26.1 7.61-3.06 15.66-5.23 23.7-7 4.84-1.06 16.26-.25 20.7 2.15 3.38 1.84 6.84 4.48 10.51 5.57 3.33.98 5.46 3.79 7.43 6.19 2.97 3.62 3.16 4.48 6.19 8.05 1.03 1.22 1.14 3.37 2.47 4.33.48.34 6.53 2.02 6.81 2.47 4.08 6.43.6 12.6 1.7 20.27 1.13 8 3.08 16.21-.46 23.68-2.3 4.86-7.1 9.91-10 14.37-2.66 4.07-6.65 7.25-10.44 11.24l8.4 11.72zm-45.95 832.41c.9.41 1.96.63 2.68 1.26 1.56 1.34 2.9 1.34 4.68.28 8.68-5.15 15.48-12.37 22.13-19.8 4.74-5.28 10.05-10 16.55-12.97 3.48-1.59 5.12-4.08 5.75-7.53.88-4.86 1.77-9.73 2.42-14.62.2-1.55-.55-3.22-.5-4.82.08-3.05.04-6.2.75-9.13 1.53-6.28 1.63-12.23-1.06-18.35-1.17-2.67-.53-6.07-1.23-9.02a91 91 0 0 0-3.65-11.76c-1.6-4.15-.45-8.18-.06-12.24.35-3.72 1.57-7.44 1.34-11.1-.3-4.68-1.67-9.3-2.6-13.93q-.65-3.19-1.36-6.35l1.07-.31 3.18 8.45.49-.05c0-1.36-.04-2.7 0-4.06.19-7.1.3-14.2.64-21.3q.35-7.3 1.26-14.57c.52-4.03 3.68-6.17 7.9-5.88 10.4.71 17.3 6.42 21.04 15.69a216 216 0 0 1 8.9 26.1c2.24 8.58 3.07 17.52 4.89 26.22 1.09 5.23 2.11 10.7 4.5 15.38 3.52 6.94 4.24 13.5 1.33 20.68-1.8 4.44-.96 8.8.93 13.2 1.16 2.71 1.57 5.87 1.77 8.86.58 8.54.55 17.13 1.45 25.64.46 4.34 2.26 8.56 3.67 12.75 2.4 7.11 4.98 14.15 7.47 21.23.74 2.08 1.16 4.34 2.21 6.24 1.5 2.72 1 5.49.66 8.2-.32 2.6-2.65 2.46-4.56 2.25-2.12-.23-4.2-1.11-6.28-1.08-3.01.05-6.04.57-9.04 1.02-6.77 1.03-13.5 2.58-20.31 3.12-10.09.82-20.25.65-30.33 1.45-6.3.49-12.63.39-18.88 2.53-3.98 1.37-8.81.82-13.18.36-5.86-.62-11.66-1.88-17.45-3.02-2.58-.51-4.26-2.17-4.5-5.43-10.4 1.21-20.66 2.68-30.98 3.47-5.17.39-10.42-.62-15.65-.76-8.77-.23-17.55-.24-26.32-.4-7.8-.13-15.59-.34-23.38-.51-1.44-.03-2.9-.14-4.32-.03-2.75.2-4.88-.87-6.8-2.74-3.18-3.1-3.41-3.96.4-7.59 4.6-4.38 10.06-7.66 16.56-8.08 5.47-.35 9.02-3.97 13.16-6.62 4.16-2.66 7.96-6.11 12.4-8.1 5.2-2.31 7.82-6.59 10.62-10.87a50 50 0 0 0 4.67-8.74c1.1-2.76 1.46-5.79 2.19-8.68 1.22-4.9 0-9.99 2.08-14.95 1.99-4.71 2.61-10 3.67-15.07.7-3.4 1.2-6.84 1.62-10.28.14-1.16-.27-2.38-.91-3.64-2.42 3.93-2.35 9.13-7.36 11.33-.51-6.68-.7-13.72-1.75-20.61-.46-3 .22-6.18-2-9.25-1.34-1.85-.18-5.53-.1-8.38.04-1 .3-2 .4-3 .43-4.18.4-8.48 1.43-12.51.56-2.22 2.49-4.03 3.01-6.64a282 282 0 0 1 5.58-23.48c1.43-4.88 3.27-9.76 8.14-12.7 6.29-3.78 11.65-3.26 16.91 1.35 6.32 5.53 9.46 13.13 12.43 20.68 3.42 8.7 6.3 17.58 9.52 26.36 4.96 13.48 4.27 26.92-.13 40.37-1.92 5.85-3.81 11.65-8.35 16.2-1.34 1.34-1.9 3.46-3.17 5.9 2.08.43 3.73.89 5.42 1.1 2.42.3 4.88.27 7.28.68 2.18.37 3.54 1.45 2.62 4.12-5.43 15.83-6.02 32.23-5.54 48.73.1 3.39.76 6.77 1.17 10.16z"/><path fill="#000" d="m567.46 751.7 22.28-4.95 5.64-1.6 17.88-5.8 1.32-.37 10.44-3.37 4.99-2.3c5.05-1.69 10.07-3.47 15.17-5.01 1.9-.58 3.96-.6 5.95-.88l.98.96c.47-3.94 1.05-7.87 1.38-11.82q.54-6.12.64-12.26c.17-13.06.36-26.12.29-39.19-.05-7.48-.57-14.97-.94-22.44-.1-1.8-.46-3.6-.7-5.39l-.59-4.33-.03-1.86-.6-4.33c-.63-5.53-1.15-11.06-1.9-16.57-1.11-8.14-2.37-16.26-3.58-24.39q-.34-2.11-.73-4.22l-.61-4.33c-1.2-5.76-2.36-11.53-3.59-17.28-1.33-6.25-2.82-12.48-4.09-18.74-.86-4.23-2.04-8.5-.24-12.8l4.34-1.73c3.6 1.6 4.36 5.25 5.25 8.33 3.23 11.06 6 22.27 8.95 33.42.18.68.47 1.33.7 2l.01 1.24 1.24 5.57 1.23 5.57 3.49 21.71.83 5.52 1.97 19.72 1.15 11.23.56 4.95c.35 7.37.91 14.74 1 22.11.12 8.1-.19 16.2-.31 24.31v5.57l-2.48 17.33c-.24 1.06-.45 2.12-.73 3.17l-1.74 6.12-1.3 4.95c-1.47 1.04-1.17 4.01-3.96 3.62-2.54-.35-3.32.85-2.8 3.19l-2.03 3.07-4.36 4.09c-6.64 4.56-13.26 9.16-19.94 13.67-2.73 1.84-5.61 3.48-8.43 5.21l-5.63 2.9c-3.09 1.33-6.2 2.6-9.24 4.02-.55.25-.81 1.12-1.2 1.7l-.55 4.34 1.06 12.4.19 6.78c.17 5.66.32 11.31.54 16.96.04.95.44 1.9.67 2.84v4.95l-.6 2.48.42 5.6c.07 3.59-.16 7.2.24 10.75.8 7.2 2.02 14.35 2.93 21.54.4 3.23.47 6.49.68 9.73l-.55.54-5.62-5.5-1.19-1.3-2.2-2.76-.93-.9-1.28-1.2-.49-.44.15.75 1.2 1.45.91.79 2.2 2.91.89.82.61.62 5.46 6.18 3.21 4.43c5.25 6.1 10.54 12.18 15.73 18.33 1.13 1.35 1.93 2.98 2.88 4.48l1.97 4.27c-.53 3.72-1.28 7.32-4.88 9.47-.43.26-1.13.83-1.06 1.04 1.2 3.68-3.41 5.02-3.24 8.23-.4.62-.82 1.21-1.16 1.85q-.73 1.45-1.42 2.92v10.82c4.5-3.24 8.04-6.77 14.56-5.48l-6.66 6.93-3 4.45c-2.9 2.1-1.76 4.78-1.03 7.38.3 1.07.71 2.1 1.08 3.14l1.32 5.37 5.45 16.91 1.65 5 3.96 16.04.62 5.57 1.12 13.09h25.97l.55.57c-1.05 3.64-3.61 4.24-7.14 4.41-7.85.38-15.65 1.46-23.47 2.19-2.13.2-4.28.18-6.42.26h-5.57l-17.05.5-5.85.12-4.95-.62-15.47 1.24-4.34.61-1.23.01-5.57.61-8.05.63-3.1.54c-7.74.61-15.47 1.41-23.22 1.75-4.63.21-9.29-.32-13.93-.51-.6-.03-1.23.04-1.83.07l-4.93-.79c-1.48-1.29-4.5-1.71-2.1-5.59-5.63-.19-10.62-.59-15.6-.47-4.61.12-9.2.79-13.81 1.22l-.73.37-7.4.26-5.57.02-1.86-.02-3.1-.09-4.32.01-.62.06-10.5-.13c-2.77-2.17-5.75-1.15-8.7-.55l-3.1.07-1.86-.07c-4.54-.15-9.08-.31-13.62-.39-.2 0-.42.6-.63.93-10.87.03-21.75.14-32.62.03-2.46-.02-4.92-.75-7.36-1.24-2.25-.45-2.66-1.74-1.46-3.63l3.7-2.55 14.83-.8c-.37-8.42 6.88-10.35 12.22-13.95.82-.55 1.77-.91 2.66-1.36l4.98-2.94c4.5-2.16 8.96-4.37 13.48-6.47 8.22-3.82 12.38-11.9 18.66-17.74 1.18-1.1 2.13-2.45 3.18-3.68l4.3-3.67c1.15-.9 2.44-1.69 3.45-2.73 2.05-2.1.37-4.05-.46-6.01l-.65-5.57c.26-3.23.31-6.48.82-9.67.51-3.26 1.92-6.1 6.05-7.46-1.56-1.45-2.8-2.85-4.27-3.92-2.47-1.8-5.11-3.37-7.67-5.05-3.32-2.18-4.02-5.56-4.16-9.18l8.04-26.69 1.98-3.62c4.13-5.26 8.15-10.6 11.22-16.52l-.75-.5-11.83 16.26c-.35-.2-1-.41-1-.62-.14-5.88 0-11.76-.35-17.62-.24-4.34-1.17-8.63-1.62-12.96-.75-7.09-1.37-14.2-2.03-21.28l-.61-4.96-.63-10.52-.6-4.95-.02-4.33-.62-5.57v-11.15l-25.27-4.22-5.5-.9-25.25-6.6-5.14-1.8c-4.98-2.3-9.98-4.54-14.9-6.96-.96-.48-1.58-1.64-2.87-3.04h-1.87c-4.37.03-4.64-.22-5.51-4.6-.88-4.44-1.88-8.86-2.67-13.32-.49-2.77 1.07-4.68 3.19-6.22.98-.7 1.97-1.38 3.42-2.4l-7.64-10.67-3.31-4.33c-3.4-5.53-7.23-10.85-10.05-16.66-1.93-3.97-2.46-8.62-3.6-12.96l3-6.19c2.84-10.07 5.36-20.25 8.6-30.2 4.28-13.14 9.12-26.09 13.72-39.12l1.84-4.95 2.5-7.43 1.83-4.33q2.36-6.06 4.68-12.14c.16-.42.27-.94.19-1.36-.94-4.77-2.34-9.49-2.8-14.29-.63-6.49-.66-13.03-.69-19.56-.01-2.57.7-5.15 1.07-7.73l.9-5.5c3.46-12.6 6.75-25.23 10.43-37.74 2.05-7 4.77-13.8 7.18-20.68l6.37-18.31 4.24-12.4 1.83-5.02 1.43-3.07 1.22-3.1 11.74-22.8c-.38-.28-.67-.58-1.02-.74-3.13-1.36-3.73-3.99-2.92-6.84.91-3.25 2.3-6.36 3.5-9.54l2.45-6.45 2.21-5.64c4-9.04 8.25-17.98 11.85-27.18 1-2.53.09-5.81.05-8.75l-.79-9.88c-.15-4.58.06-9.2-.55-13.71-.76-5.63 1.6-10.16 4.44-14.41 5.52-8.24 11.45-16.22 17.2-24.31.1-.14.06-.4.08-.6l3.14-3.89 3.02-1.37 2.56 2.58c-3.1 6.05-6.15 12.12-9.3 18.15-3.42 6.56-7.13 13-10.28 19.68-.93 1.98-.82 4.74-.39 7 1.47 7.65 2 15.24.22 22.94-.72 3.13-.87 6.4-1.28 9.6l-.64 3.1-8.94 30.26-3.16 9.25h4.6c.91.05 1.83.13 2.74.14 4.8.1 5-.1 5.44-4.95l1.3-4.92 5.67-19.18 1.47-4.41 8.36-29.01 1.59-5.65 6.44-19.74 1.23-4.33c2.84-9.17 5.56-18.38 8.6-27.49 1.52-4.55 3.58-8.9 5.5-13.32.29-.65 1.14-1.06 2.2-2v6.14l-.3 1.32-4.34 21.67-.63 3.09q-1.97 7.31-3.96 14.61-2.43 8.78-4.88 17.54l-1.66 4.99-16.29 58.77-.67 3.05-7.8 33.5-.62 3.09c-1.48 6.56-3.04 13.1-4.4 19.67a874 874 0 0 0-3.94 20.74 3899 3899 0 0 0-4.75 26.8c-1.28 7.33-2.5 14.68-3.77 22.02q-1.84 10.69-3.65 21.38c-.25 1.5-.37 3-.56 4.5l-.59 3.1-1.85 10.52-.66 5.57c-.57 2.7-1.28 5.39-1.7 8.1-.75 4.92-1.33 9.87-1.97 14.8l-.62 4.33q-1 6.58-1.96 13.15c-1.02 6.9-2.12 13.78-3 20.7a560 560 0 0 0-1.94 18.47 3002 3002 0 0 0-2.47 27.93 177 177 0 0 0-.61 10.08c-.46 17.02-.85 34.05-1.27 51.08 0 .3-.05.6-.07.92-2.03 2.05.12 2.44 1.28 3.22 1.92 1.77 3.92 3.44 5.72 5.31 1.44 1.51 3.2 3.07 1.92 5.62h6.01l5.6-.44 31.54-.8h8.05c9.55.04 19.1.25 28.64.06 8.63-.18 17.27-.7 25.9-1.22 4.93-.29 9.85-.86 14.78-1.31l3.1-.56 21.06-2.99 4.93-.78zM474.1 862.57l-.41.73-1.09 1.63.68.43.84-1.44.76-1.22v-.02c2.74-4.03 6.05-7.78 6.67-13.7l-5.29 1.61q.15.49.27.98l4.1-.63-6.08 10.95zm35.14 52.56-2.06 6.39.78.21 1.77-6.28.53-2.41c.95-1.98 1.92-3.95 1.29-6.26l.22-3.12-.65-.03v2.87l-1.33 6.1-.57 2.53zm30.55-51.37-.21-1.8-.11-1.34-.55-1.14-.38-1.91-.25-1.18-.46-1.28c-.97-4.76-1.62-9.6-2.98-14.24-2.76-9.41-5.9-18.71-8.89-28.05l-3.74-11.65c-1 10.28-1.4 21.09-3.25 31.64-2.18 12.36-1.84 24.67-.2 36.84 2 15 5.24 29.83 8.11 44.7.63 3.29.44 6.12-2.18 8.35-5.03 4.28-10.13 8.48-15.22 12.73l10.35 3.62c.86.23 1.96-.74 3.17-.9 1.75-.24 4.37-.6 5.22.35 1.62 1.8 1.23 4.29-.96 6.04a121 121 0 0 0-5.87 4.91c-.69.62-1.46 1.51-1.56 2.36-.72 6.06-1.28 12.14-1.89 18.22-.32 3.16-.77 6.3-.97 9.47-.45 7.3-.79 14.61-1.17 21.92l.96.45 17.1-13.2q16.36-12.59 32.65-25.26c.5-.38.78-1.3.8-1.99.12-3.7-.02-7.42.2-11.11.31-5.46.84-10.9 1.22-15.66-4.56-1.93-9.17-4-13.87-5.84a8.7 8.7 0 0 1-5.77-7.16c-1.32-9.77-2.12-19.6-3.33-29.39-.54-4.35-1.56-8.64-2.36-12.96 1.47-2.05.23-3.54-1-5.05l-.15-1.19-.67-1.86-.1-1.2-1.05-3.78-.13-1.19-.5-1.27zm-155.8-307.01-.34 4.4c-.5 8.23-1.03 16.45-1.55 24.84.64-.24 1.22-.38 1.75-.65 2.42-1.25 3.4-.83 3.45 1.92.06 3.08.3 6.31-.48 9.22-2.87 10.82-5.55 21.75-9.34 32.26-7.04 19.6-14.83 38.92-22.23 58.38-.57 1.5-1.25 3.54-.68 4.78 3.88 8.4 8.15 16.6 12.14 24.93a595 595 0 0 1 9.8 21.47c.48 1.12.27 3.3-.52 4.08-2.86 2.8-4.98 5.55-2.96 9.77.42.89.24 2.07.68 2.93.42.84 1.22 1.97 1.97 2.07 7.16 1 14.34 1.84 21.52 2.64.72.08 1.95-.14 2.18-.6 2.04-4.16 6.03-7.83 3.57-13.24-2.56-5.6-1.92-11.6-1.96-17.5v-.92c1.02-18.09 2-36.17 3.09-54.25.5-8.28.98-16.57 1.9-24.8 1.45-13.06 3.2-26.1 4.92-39.12.9-6.76 2.02-13.49 3.01-20.23.49-3.28.9-6.57 1.4-10.19-1.27.2-2.14.38-3.03.48-4.55.51-9.12 1.37-13.68 1.37-2.51 0-5.9.17-7.1-3.68 1.21-.43 2.13-.99 3.09-1.04 5.19-.3 10.39-.57 15.59-.67 5.43-.11 5.62 0 6.54-5.25a2104 2104 0 0 0 5.9-35.77c1.14-7.35 1.93-14.74 3.16-22.06 1.7-10.19 3.63-20.33 5.55-30.47 2.72-14.34 5.41-28.7 8.34-42.99 1.74-8.52 3.91-16.95 5.96-25.72-4.4.78-8.52 1.3-12.5 2.37-1.04.28-2.56 2.49-2.3 3.32 1.01 3.26-.8 3.73-3.1 3.83-.13.6-.17 1.02-.32 1.4-3.57 9.27-7.33 18.46-10.67 27.8-3.31 9.25-6.18 18.67-9.3 27.99-5.79 17.3-11.78 34.55-17.34 51.93-2.61 8.15-6.2 16.13-6.11 24.97m250.4 452.45c-1.14-2.46-2.36-4.58-3.13-6.86-4.59-13.58-9.46-27.09-13.43-40.86-2.17-7.52-4.4-15.31-2.72-23.41.22-1.03.34-2.07.41-2.54-6.76 1.06-13.37 2.55-20.05 3-6.79.45-13.64-.13-20.04-.25-.57 5.67-1.06 11.75-1.82 17.8-.36 2.84-1.23 5.62-1.95 8.83h9.06c-3.78 3.3-8.67 1.25-12.08 4.5l22.27 2.5.46 1.1c-.76.7-1.5 2.03-2.26 2.04-7.44.14-15 1.07-22.29-2.17l-3.26 4.23c3.83.68 7.24 1.18 10.61 1.9 1.96.44 3.2 1.93 2.14 3.8-.7 1.26-2.35 2.65-3.69 2.77-4.34.39-8.73.1-13.1.32-2.27.12-4.49-1.67-6.88.55-4.03 3.74-8.4 7.13-12.78 10.48-4.58 3.5-9.34 6.8-14.16 10.28 11.7-.57 23.17-1.08 34.63-1.69 6.02-.32 12.08-.46 18.02-1.33 10.33-1.52 20.59-3.51 30.87-5.36 4.13-.74 6.55-.02 8.67 3.3-2.88 1.16-5.56 2.74-8.43 3.3a275 275 0 0 1-23.14 3.76c-10.57 1.14-21.2 1.72-31.8 2.54-.92.07-1.85.07-2.77.09-7.7.16-15.48 1.1-23.05.2-5.67-.67-10.72-1.21-15.48 2.33q-.1.1-.19.26l.32 4.09c40.28-2.09 80.7-2.28 121.03-9.5zm-183.4-26.36c-4.22 5.75-10.63 8.79-16.8 12.25-5.35 3-10.42 6.46-15.76 9.81 5.78.5 11.44 1.3 17.11 1.41 8.38.16 16.79.08 25.16-.36 8.77-.47 17.5-1.65 26.26-2.2 5.25-.33 10.55-.07 15.82-.02 2.12.02 4.23.2 6.34.31l.03 1.05-2.2.46c-2.83.62-5.68 1.14-8.46 1.9-1.4.38-2.66 1.55-4.07 1.74-4.55.62-9.15.96-13.72 1.4-8.02.79-16.01 1.89-24.05 2.31-13.43.69-26.64-.52-39.38-5.4-4.9-1.89-9.98 1.83-10.68 7.64 33.3 2.02 66.5 5.56 99.29 1.28-.24-1.32-1.4-3.64-.74-5.15 1.03-2.34 3.31-4.13 4.48-5.48-1.18-6.54-2.93-12.73-3.24-19-.27-5.4.86-10.93 1.8-16.34 1.72-9.9 3.76-19.75 5.7-29.8-.56-.17-1.52-.6-2.49-.66-1.84-.1-3.71.12-5.56.02-4.77-.23-9.55-.56-14.34-.86-.3 1.63-.27 3.07-.86 4.17-.65 1.2-1.9 2.08-2.87 3.1-.8-.83-2.04-1.53-2.32-2.5-.4-1.39-.1-2.96-.1-4.48h-13.11c-.36 8.14.9 16.35-2.68 23.61l19.64 4.2-.14 1.1a26.4 26.4 0 0 1-21.26-3.25l-9.72 11c4.2 2.08 9.5 2.3 11.8 7.96-6.53 2.36-12.4-.05-18.89-1.2zm59.16-91.02c-3.4.63-4.94 2.75-4.53 6.32.11.97 1.02 1.86 1.56 2.78.3-.88.73-1.73.84-2.63.3-2.3-.82-5.02 2.13-6.47m-38.83-25.04.73.55.78-1.68-.54-.29z"/><path fill="#000" d="M448.04 161.84c-1.2-3.8-2.78-7.52-3.5-11.4a34 34 0 0 1 .46-14.52c.39-1.51 1.44-3.4 2.73-4.05 2.83-1.43 4.68.9 6.42 2.75.51.54.79 1.31 1.17 1.98l2.24 3.44.86-.48v-3.62c.22-1.31.51-2.62.63-3.95.2-2.11.76-4.15-2.82-4.33-1.36-.07-3-2.53-3.76-4.23-.91-2.04-1.02-4.43-1.47-6.67l.02-8.05c.42-6.96.81-14 4.46-20.14 2.74-4.6 6.17-8.77 9.3-13.13l4.34-3.84c4.28-2.56 8.55-5.17 12.87-7.69 1.4-.82 2.95-1.42 4.43-2.13l5.54-2.06 1.85-.62 4.98-1.69 10.53-2.47 3.69-2.59c3.33-2.56 6.9-.66 10.37-.84 3.38-.18 4.8 1.14 6.75 3.22 1.13 1.2 3.4 1.3 5.16 1.9l1.2.2 4.37 1.65 4.33 1.92 5.54 3.21 4.98 3.56 7.3 6.5 1.93 2.37 3.13 4.27 3 4.31c.83.32 1.65.73 2.52.93.9.21 2-.06 2.75.36 2.14 1.18 3.25 5.93 1.9 8-1.51 2.3-.42 4.3.17 6.56.69 2.59.75 4.98 4.18 5.89 2.58.68 2.7 4.83.13 6.44-1.69 1.05-1.6 2.19-1.66 3.67-.14 3.56-.03 7.18-.7 10.64-.5 2.61-2.07 5.02-3.17 7.51-2.4 1.37-1.59 3.62-1.57 5.65l-5.42 14.22 15.22-6.26 4.39-1.63c5.08-1.28 10.18-2.5 15.24-3.87 1.37-.37 2.62-1.15 3.93-1.74l4.91-2.03c2.62-.78 5.23-1.62 7.87-2.33 2.1-.56 4.25-.94 6.37-1.4q2.78-.63 5.57-1.24h8.66l6.15.81c5.5 1.77 10.34 4.63 13.8 9.27 1.44 1.92 2.06 4.46 3.06 6.72l-1.3 5.57c-.7 2.58-1.4 5.16-2.15 7.99l2.08.76 4.18 1.85c3.7 3.58 7.8 6.83 10.98 10.82 4.17 5.23 5.78 11.44 4.08 18.2-.1.38.02.82.04 1.23l-2.54 3.77c-.82-1-1.9-1.88-2.4-3.02-1.98-4.55-3.15-9.6-5.78-13.7-6.35-9.94-14.6-14.21-27.1-11.97-8.44 1.5-15.92 5.32-23.52 8.92l-3.17 1.57-20.39 10-2.34 1.01-1.37.85-3.86 1.98-14.68 6.99c-1.18.56-2.39 1.07-3.58 1.61l1.27-4.23c6.27-4.1 12.44-8.36 18.83-12.28 4.25-2.6 8.8-4.72 13.2-7.06q2.56-1.53 5.13-3.04c5.38-2.48 10.7-5.14 16.17-7.38 6.61-2.7 13.39-5 20.06-7.6 1.28-.5 2.34-1.58 3.56-2.29 2.06-1.18 4.17-2.27 6.17-3.34 2.14-4.31-1.18-6.81-3.21-9.75l-5.14-4.96c-5.85-4.55-12.27-3.85-18.77-1.98-2.67.77-5.26 1.84-7.88 2.77l-3.78 1.57c-5.2 2.55-10.6 4.78-15.56 7.72-9.7 5.73-19.2 11.8-28.69 17.87-3.53 2.25-6.82 4.91-10.22 7.39l-4.29 3.05-7.42 5.57-4.34 3.1-16.71 11.12-6.8 3.73c-5.26 3.12-10.91 5.73-15.67 9.48-6.37 5.04-8.95 12.65-10.19 20.37-1.18 7.3-1.43 14.76-2 22.16-.18 2.25-.08 4.54-.1 6.81l-.39 3.14c-.25 2.1.38 4.6-2.57 5.5-4.59 1.42-5.16 1.34-6.61-3.45-1.04-3.41-1.9-7.03-1.95-10.57-.13-7.68.52-15.37.43-23.05-.05-4.73-.88-9.46-1.42-14.73-9.9 4.43-21.15 5.3-30.65 14.13l2.93 1.26 3.8 5.61q.6.9 1.18 1.81l3.16 5.61 5.5 12.96 1.88 4.94c.45 1.33.73 2.74 1.38 3.95 1.62 3.05 2.01 6.15.59 10.28-1.38-1.1-2.77-1.85-3.64-3-1.67-2.19-3.04-4.6-4.55-6.93l-3.58-4.4c-2.63-3.73-5.2-7.5-7.9-11.18-4.15-5.7-8.84-11.05-11.19-17.86.7-1.76 1.5-3.49 2.1-5.28.27-.86.17-1.85.24-2.77l5.62-7.32 8.01-4.52q11.18-6.03 22.38-12.04c6.94-3.72 13.9-7.4 21-11.19l-1.06-2.26-19.42 3.41-5.57.62c-5.43-.95-7.98-4.92-9.88-9.51-.56-1.36-.9-2.8-1.35-4.2.15-2.28-.23-4.33-2.35-5.65-.54-.8-1.2-1.56-1.57-2.45-.33-.8-.6-1.8-.4-2.58.2-.79 1.02-1.42 1.56-2.12q.39.2.77.42l.4 2.93 8.34-.57-1.72 3.62c-2.84 1.2-1.98 2.94-.69 4.75.03.2.02.43.1.6 3.99 7.4 4 7.44 12.69 6 7.33-1.22 14.64-2.57 21.96-3.86l2.75-.32 3.43 4.8 3.72 8.81 11.14-6.36 5.62-3.07 22.24-11.77 7.5-4.84c-.85-1.23-1.39-1.97-1.87-2.75q-2.86-4.55-8.11-2.82c-3.57.17-7.16.65-10.71.45-7.38-.44-14.37-2.38-20.42-6.8-7.77-5.66-9.34-13.39-4.88-23.1.66-1.44 1.36-2.87 2.09-4.42-7.17 1.01-14.2 2.1-21.26 2.98-4.27.53-8.58.73-12.85 1.13-.99.1-2.02.28-2.9.68-2.3 1.06-3.05 2.57-2.35 5.33.6 2.36.02 5.02-.04 7.54l-.26 1.23c-.54 2.49-1 4.99-1.65 7.44-.73 2.8-2.74 4.62-5.5 4.9-3.74.38-6.74-1.34-7.65-4.68-1.37-5.05-2.15-10.26-3.24-15.67l-2.22.7c-.68 5.64.96 11.57-3.02 16.63l5.52 4.03-.3 1.28-5.53-.29-4.92-3.29zm64.4-99.51c-36.44 6.25-55.23 26.32-51.2 62.22 2.96-.26 6.45-1.6 8.74-.48 2.45 1.2 3.77 4.7 5.87 7.57 6.61-.58 14-1.36 21.4-1.84 6.32-.4 12.67-.42 19.01-.67.86-.03 1.97-.13 2.52-.66 3.42-3.29 6.7-6.7 9.95-10-6.01-18.17-7.23-38.16-16.3-56.14zm44.72 92.27c-1.34 0-2.54.02-3.72 0-5.08-.08-9.75-1.1-14.06-4.17-4.27-3.04-6.12-6.92-5.21-11.85.88-4.8 4.08-8 8.92-8.76 2.6-.4 5.34.3 8.02.45 5.53.3 10.4 4.08 11.73 9.36.42 1.64.35 3.4.57 5.73 1.07-8.3.22-12.36-3.74-17.22-.95-1.18-2.4-2.67-3.7-2.75-5.12-.32-10.26-.13-15.89-.13l-2.35-3.55c-7.4 3.71-12.15 9.44-14.27 17.32-1.37 5.1-1.1 10.01 2.92 13.87 6.27 6.02 23.03 9.34 30.79 1.7zm7.81-66.43-3.64-5.62-4.06.18c.28-1.53 3.61-2.42 1.32-3.9L548.16 82l-.36-.99 8.9-4.58c-6.48-7.1-13.46-12.5-21.8-14.78 3 8.97 5.98 18.01 9.1 27 .3.87 1.57 2.09 2.26 2.01 6.07-.65 12.12-1.57 18.7-2.49zM547.1 107.3c4.53.34 8.09 1.75 9.86 6.11.27.67 1.14 1.24 1.87 1.57 4.5 2.09 8.57 4.72 11.64 8.72.97 1.25 2.11 2.37 3.64 4.06v-8.56c-2.37.98-4.7 1.15-5.76-1.45-.73-1.79-2.14-4.23.69-5.63 2.4-1.18 2.29-2.66 1.6-4.9-.75-2.43-2.62-5-.49-7.28l-23.04 3.96v3.39zm11.4-9.86c2.1-.18 4.02-.26 5.93-.51 2.51-.34 5-.8 7.5-1.2 1.76-.29 2.28-1.31 2.05-3.01-.48-3.46-1.36-4.03-4.66-2.7-1.65.67-4.01 1.05-4.71 2.31-1.67 3-2.81 3.65-5.55 1.73-.49-.34-1.27-.26-1.87-.37l1.3 3.75zm-15.04 15.83 1.56 5.28h8.03c-.16-.96-.07-1.98-.5-2.69-.85-1.39-.9-3.73-3.55-3.3-1.79.31-3.61.47-5.54.7m6.83 20.87c2.2 3.02-1 8.38 5.13 8.51 1.24-5.06.03-7.3-5.13-8.51m3.2-36.17c-1.47-4.03-2.1-4.28-8.2-3.1l1.06 4.28zm-5.5 45.71-1.44-8.47-1.34-.16-3.13 7.22zM674.43 399.6l.03-6.8-.52-6.82c-1.09-5.9-1.76-11.94-3.39-17.7-1.36-4.8-3.85-9.27-5.84-13.9l-3.09-5.1c-2.92-4.72-5.89-9.42-8.74-14.18-4.75-7.9-9.23-15.98-14.2-23.74-3.36-5.27-7.38-10.12-11.1-15.15l-3.13-5.1-3.06-5.42-1.98-4.93c-2.94-9.01-6-18-8.7-27.1-.52-1.77.05-4.1.76-5.95.8-2.1 2.63-1.95 3.95-.33 2.85 3.53 5.81 7.02 8.23 10.85 4.55 7.18 8.76 14.58 13.13 21.94l8.68-1.99 6.26-1.72 2.4-.13 1.33-.26 3-.36 4.36-1.07c7.9-9.83 14.3-20.32 13.67-33.54-.24-4.95-1.31-9.87-2-14.8l-.66-10.52c.25-.96.36-1.96.75-2.84.61-1.37 1.4-2.64 2.11-3.95 1.56 1.18 4 2.09 4.5 3.62 1.49 4.66 2.16 9.57 3.3 14.34.69 2.91 1.66 5.76 2.51 8.63q.32 2.17.66 4.33l-.25 17.9-1.96 5.53-2.34 5-1.9 3.08c-3.5 4.06-7.07 8.05-12.31 9.96-1.3.47-2.68.73-3.95 1.26-1.64.68-3.34 1.33-4.76 2.35-3.37 2.38-6.56 5.03-9.88 7.49-1.65 1.21-2.3 2.07-.65 4.1 2.38 2.95 4.18 6.37 6.23 9.6l1.7 2.55.94 2.36 1.89 4.34 4.73 9.32 3.13 6.34c1.25 2.68 2.52 5.35 3.72 8.05q2.28 5.15 4.48 10.33l2.46 7.42 1.12 3.74 1.4 5.55.42 2.5q.3.93.57 1.88l.74 6.15.52 4.37.06 1.2.1 1.23-.57 14.23.31 4.34-.9 6.8-.63 6.19-.02 5.57-.59 4.95c-.03 2.47-.28 4.96-.02 7.4.15 1.3 1.6 2.5 1.69 3.78.3 4.44.72 8.97.21 13.36-.68 5.89-2.18 11.68-3.33 17.51l-1.88 4.94c-5.16 8.57-9.92 17.43-15.61 25.63-4.63 6.67-10.33 12.6-15.67 18.77-1.95 2.26-4.24 4.23-6.37 6.33l-3.75 3.62-8.64 6.9-4.3 3.23a218 218 0 0 1-39.03 22.12l-4.91 2-7.43 2.51-1.31.35c-3.19 1.13-6.34 2.33-9.56 3.36-1.56.49-3.22.63-5.42 1.03 1.85-5.51 6.4-6.8 9.88-9.25 1.87-1.32 3.85-2.49 5.79-3.72l4.98-2.93 3.68-2.03 5.14-3.03c6.64-3.9 13.35-7.7 19.91-11.72 2.95-1.8 5.61-4.06 8.4-6.12l3.14-2.51c5.56-5.3 11.44-10.31 16.61-15.96 5.52-6.03 10.52-12.55 15.46-19.07 2.58-3.4 4.53-7.28 6.77-10.94l2.47-4.2q4.4-8.79 8.72-17.64c.6-1.22.9-2.58 1.34-3.88l2.62-5.63c1.78-4.03 3.86-7.96 5.2-12.13.7-2.16.09-4.74.06-7.14l-.6-5.57-.64-17.33-.62-8.05z"/><path fill="#000" d="M587.27 403.84c4.37-.25 8.74-.58 13.12-.73 2.3-.08 4.66-.1 6.9.31 1.96.36 1.44 2.08.54 2.98a13 13 0 0 1-4.38 3.05c-5.55 2.04-11.2 3.8-16.8 5.67l-6.2 1.9-8.04 2.44-6.8 1.88-3.72.03c-2.58-.58-2.27 1.5-2.68 2.91l-.92 2.95-1.13-2.45-5.82 6.32-3.68 3.83-9.34 10.33-3.22 3.16c-1.33 1.7-2.48 3.57-4.03 5.04-1.8 1.73-3.96 3.08-5.94 4.62-3.25 2.53-3.53 6.3-3.28 9.81.47 6.83 1.54 13.61 2.37 20.42q.3 2.37.64 4.75l.3 5.64.33 3.02.6 5.57 2.89 16.33.84 4.72c2.44 7.16 4.92 14.32 7.28 21.51.82 2.48 1.35 5.05 2 7.58l-2.57 4.36c-1.3-.61-2.85-.95-3.83-1.88-5.48-5.25-9.28-11.67-12.3-18.57l-1.88-5.58-1.87-6.18-1.9-14.86v-22.28q.84-11.1 1.62-22.18c.04-.64-.24-1.3-.38-1.96v-4.33l.05-8.05 2.68-4.9c1.09-.4 2.28-1.31 3.26-1.12 5 .97 7.6-2 10.28-5.43 5.07-6.5 10.41-12.78 15.6-19.17 1.71-2.1 3.66-4.11 4.86-6.49.9-1.78.77-4.08 1.14-6.14 1.25-7.1 2.55-14.17 3.73-21.27.23-1.33-.13-2.73 0-4.08.78-8.88 1.63-17.75 2.43-26.62q.33-3.75.58-7.52l.6-3.09 5.7-20.33 2.53-5.63 16.64-27.81q.84-1.37 1.73-2.7l3.27-4.16 6.26-7.34c2.64 3.35 1.75 6.22.3 8.92-4.27 7.94-8.81 15.74-13.02 23.71-4.97 9.4-10 18.8-12.87 29.13l-1.68 5.6q-2.2 14.73-4.45 29.46c-.29 1.89-1.13 3.75-1.07 5.6.1 2.76.76 5.5 1.19 8.26v4.21l7.36-4.73 1.23-.63 5.63-3.15 7.4-4.2 3.07-1.93c4.75-3.24 9.45-6.56 14.27-9.68 1.7-1.1 3.72-1.73 5.59-2.58l.9 1.5c-13.26 14.22-29.46 24.82-45.76 35.3l.46.94 15.84-3.29 5.57-.72z"/><path fill="#000" d="M630.5 434.27c.67-7.64 1.65-15.28 1.94-22.94.62-15.77.84-31.56 1.28-47.34a36 36 0 0 1 .83-6.67c.17-.77 1.42-1.98 1.87-1.85.86.23 2.02 1.2 2.14 2 1.17 8 2.15 16.03 3.2 24.04.19 1.5.46 3 .7 4.48v34.66l-1.25 17.33-.6 5.58-1.24 6.18-1.01 4.24q-.81 2.1-1.6 4.23l-3.1 4.44c-5.29 6.67-10.39 13.5-15.97 19.92-1.87 2.15-5.1 3.05-7.47 4.85-9.16 6.93-18.22 14-27.32 21l-6.8 4.95c-7.71 5.1-15.31 10.39-23.18 15.23-3.75 2.31-7.88 4.28-12.64 3.35l-1.36-3.6c1.78-1.26 3.53-2.55 5.34-3.75 10.37-6.87 20.92-13.5 31.1-20.64a1076 1076 0 0 0 34.32-25.22c2.1-1.6 3.48-4.32 4.8-6.74 3.08-5.68 5.92-11.5 8.86-17.25l3.04-4.97c2.93-3.64 3.15-8.06 3.53-12.42l.6-3.1zm-201.7 225.3-.09-3.72.64-5.57 1.33-4.87 1.34 4.26q-.07 19.26-.19 38.51c0 1.2-.27 2.39-.43 3.58v3.09l-.62 15.47v26.46l8.56 1.3q2.8.3 5.57.63c2.22.25 4.44.76 6.64.68 8.52-.32 17.04-.82 25.55-1.26l5.57-.66 18.64-3.43 5.52-1.37.6-.15 3.73-1.09c5.05-1.18 10.1-2.3 15.12-3.57 2.84-.71 5.62-1.68 8.43-2.53l4.9-1.48c3.64-.65 7.26-1.37 10.92-1.9a32 32 0 0 1 6.64-.43c2.65.16 3.28 2.81 1.56 5.95l-1.98 1.34q-13.15 4.48-26.3 8.92c-3.12 1.05-6.27 2-9.4 3l-5.67 1.52-4.24.98-5.64 1.56-1.78.29q-2.8.6-5.57 1.23c-10.1 1.4-20.18 2.76-30.26 4.23a75 75 0 0 1-24.82-.67c-.6-.1-1.22-.03-1.84-.03l-4.95-1.24-4.48-2.1-3.22-2.65-2.92-10.64-.63-4.33c.03-5.31-.05-10.63.15-15.93.19-4.8.7-9.6 1.07-14.4l.01-3.1 1.22-15.47v-4.33l.02-1.86.6-4.33.15-4.95.56-4.95zm102.14-395.4c-6.54 2.69-13.04 5.48-19.64 8-3.37 1.3-7.19.76-9.05-1 3.87-1.99 7.73-3.76 11.39-5.88 12.31-7.15 24.65-14.28 36.8-21.71 9.19-5.62 18.28-11.33 28.79-14.25l3.1-.63c5.2-.59 10.4-1.15 15.6-1.78l19.83-2.45q3.32-.38 6.65-.71l5.57-.63 22.28-3.7 4.36-1.1c3.83-1.23 7.69-2.4 11.48-3.73 2.1-.74 3.93-1.12 5.25 1.2l-2.56 2.36c-3.6 1.88-7.18 3.81-10.82 5.6-1.67.82-3.48 1.37-5.23 2.04l-4.37 1.65-10.54 3.05-5.55 1.27-6.86 1.1-4.24.9-7.43 1.32h-6.8l-4.34 1.24h-1.86l-4.33.62h-7.43l-9.37 1.5c-6.22 2.73-12.46 5.39-18.64 8.2-1.9.87-3.6 2.16-5.4 3.27l-3.13 1.71-1.93 1.26-4.26 2.43-12.35 6.39-4.95 2.47zm72.33 439.96c-.28-11.55-.38-23.11-.9-34.66a265 265 0 0 0-2.05-21.87c-.94-7.22-2.36-14.38-3.52-21.58a2500 2500 0 0 1-3.2-20.28c-.92-5.99-1.78-11.99-2.68-17.98l-.61-4.95c-.18-2.4-.57-4.8-.43-7.2.06-1.12 1.14-2.18 1.75-3.28.8.8 2.05 1.45 2.31 2.4 1.62 5.63 3 11.33 4.47 17.02l1.95 7.77.62 3.1 5.52 26 .68 4.32 1.83 9.29.64 5.57 1.86 28.47v5.57c-1.07 10.15-2.1 20.3-3.25 30.45-.27 2.42-1.1 4.61-4.28 4.31l-1.22-4.43.05-3.74zM459.8 402.77c.45-.2 1.1-.7 1.33-.55 4.3 2.74 8.5.03 12.61-.42 10.99-1.24 21.9-2.19 32.97-1.03 6.1.64 11.87 2.05 17.33 4.76 1 .5 2.06 1.4 2.48 2.4.38.86.18 2.25-.3 3.1-.25.46-1.7.46-2.54.31-5.54-.97-11.02-2.6-16.59-2.93-8.51-.5-17.08-.28-25.62-.08-7.11.16-14.2.7-21.31 1.1-2.23.11-3.1-.73-2.2-2.92zm70.89-87.42c-4.2 4.62-8.2 9.42-12.68 13.76-1.64 1.59-4.3 2.34-6.62 2.92-1.48.37-2.16-.86-1.67-2.52.99-3.32 1.85-6.68 2.7-9.84l-7.25-.93c3.65-5.82 6.79-11.26 10.45-16.31.93-1.29 3.57-1.34 5.42-1.95l4.95-.62h6.35l-.95 7.22 3.44 1.65-2.71 4.7zm-5.46-11.33-.25-.8c-1.97.67-4.55.77-5.8 2.1-2.58 2.77-4.45 6.2-6.47 9.15l6.28.28-3.12 7.93 1.08.78 12.31-12.91c-2.96.24-4.88.4-7.7.65zm-18.42 265.7q3.56-.29 7.13-.56l.12.68-12.82 2.56-12.46 2.74-20.35 2.83-5.6.45c-11.27.42-17.74-.33-22.06-3.32 10.44-.73 20.88-1.4 31.32-2.2 10.55-.8 21.08-1.7 31.62-2.57l3.1-.62z"/><path fill="#000" d="m595.36 470.69-11.18-18.47-1.8-4.35c-.2-1.27-.6-2.54-.56-3.8.02-.78.7-1.54 1.1-2.3l2.43 3.67 5.72 11.11 2.98 5.63c1.55 3.07 3.12 6.12 4.62 9.2.28.58.24 1.3.36 1.95zm25.46 39.06c-1.16 1.34-1.94 2.95-3.19 3.53-1.81.83-2.45-.9-3.1-2.35a66 66 0 0 0-3.86-7.57c-.92-1.48-2.15-3.02-.89-4.43 1.53-1.7 6.43-1.04 7.38.96 1.42 2.97 2.33 6.18 3.66 9.85zM493.19 147.6c2.46.03 4.93.01 7.38.13.6.04 1.33.42 1.73.88.18.2-.15 1.14-.5 1.49-3.04 2.97-15.4 4.7-19.2 2.74-.18-.09-.3-.29-.66-.68l3.2-3.82zm-35.32 740.9-8.04 26.7c-.1-1.03-.52-2.16-.23-3.06 1.9-5.74 4.06-11.4 5.94-17.16.72-2.18-.18-4.92 2.32-6.48zm-37.74 134.27c.21-.32.43-.94.63-.93 4.54.09 9.08.25 13.62.4-1.4.22-2.82.6-4.23.63-3.34.05-6.68-.06-10.02-.1m24.76-792.78c-.06.93.05 1.91-.24 2.77-.59 1.8-1.38 3.53-2.09 5.28l-1.45-3.69 2.77-3.63zm-3.7 792.95-1.84-.7c2.94-.6 5.9-1.62 8.68.55l-6.83.15zm242.53-643.79-.04 1.94-.52-4.37q.3 1.21.56 2.44zm.03 3.14.6 1.2a2 2 0 0 1-.5.03zM609.63 870l-.56 1.18-.66-1.28.56-.55z"/><path fill="#fff" d="m474.56 861.9 6.07-10.94q-2.07.3-4.1.62l-.26-.97 5.28-1.62c-.62 5.92-3.93 9.69-6.67 13.7zm35.6 29.93c-2.96 1.44-1.84 4.17-2.13 6.47-.12.9-.55 1.76-.84 2.63-.55-.92-1.45-1.8-1.56-2.78q-.6-5.36 4.53-6.32m98.25-21.93.66 1.28-.95.12-5.45-6.17.13-.73zm-96.86 36.9c.63 2.3-.34 4.28-1.3 6.26l-.45-.44 1.33-6.1q.18.17.42.28"/><path fill="#000" d="m543.4 879.31-1-5.04c1.22 1.5 2.47 3 1 5.04"/><path fill="#fff" d="m509.73 915.46-1.76 6.28-.79-.21 2.06-6.39q.22.2.5.32"/><path fill="#000" d="m463.47 1022.85-4.32.01zm78-152.85-1.05-3.77z"/><path fill="#fff" d="m601.16 863.69-2.2-2.91.44-.45 2.2 2.77z"/><path fill="#000" d="m538.93 859.5-.38-1.92zm3.32 13.58-.67-1.86z"/><path fill="#fff" d="M511.13 906.52v-2.87l.66.02-.23 3.13a2 2 0 0 1-.42-.28zm-.86 6.53-.54 2.41a2 2 0 0 1-.49-.32l.57-2.52z"/><path fill="#000" d="m540.29 865.04-.5-1.27z"/><path fill="#fff" d="m598.07 859.98-1.2-1.45q.16-.14.33-.32l1.28 1.21zm3.98 4.53-.9-.82.45-.6 1.19 1.3zm-3.08-3.74-.9-.78.4-.56.94.9z"/><path fill="#fff" d="m602.67 865.12-.61-.62.74-.1zm-127.78-2.4-.78-.14.45-.68.32.78zm121.97-4.18-.15-.75.48.43z"/><path fill="#000" d="M596.56 963.02c-2.46.98-4.97 1.85-7.37 2.96-2.94 1.36-4.05.1-4.24-3l11.52-.88z"/></svg>