<svg xmlns="http://www.w3.org/2000/svg" width="1080" height="1080" fill="none" viewBox="0 0 1080 1080"><path fill="#fff" d="m366.94 287.88-8.68-1.08c.49 4.95-4.93 18.01-12.9 19.68-2.85.6-5.96.24-8.9-.05-1.72-.18-3.5-.86-4.98-1.75-2.5-1.52-3.06-5.74-1.17-7.79 1.43-1.55 2.93-.83 4.4.15 4 2.67 7.42 1.82 9.99-2.43 2.1-3.5 4-7.14 6.35-10.47 3-4.26 7.56-5.38 12.46-4.77 3.98.5 6.35-1.76 8.65-4.28 3.52-3.87 6.93-7.85 10.45-11.72.73-.8 1.72-1.73 2.7-1.89 6.71-1.08 10.77-6.18 15.5-10.14 3.9-3.26 7.67-6.27 13.1-6.06q8.13.28 16.27.3c.38 0 1.1-1.16 1.08-1.19-2.2-2.14-.93-4.6-.3-6.67 4.71-15.45 9.64-30.83 18.32-44.65 1-1.6 1.46-4 4.59-2.93 2.57.87 3.11 3 2.68 4.66-.97 3.73-2.07 7.7-4.22 10.8-8.21 11.87-10.22 26.24-16.8 38.72l.7.57c.55-.4 1.26-.69 1.62-1.21 2.41-3.52 3.93-4.32 7.33-3.21 3.2 1.04 2.82 4.08 2.77 6.45-.06 3.4 1.67 5.74 4.1 7.34 1.2.79 3.46.4 5.1 0 3.98-.98 5.69-.42 7.55 3.06.8 1.52 1.67 3 2.4 4.56.67 1.44 1.2 2.94 1.96 4.81 4.28-1.93 8.41-3.86 12.59-5.67 5.58-2.42 11.15-4.88 16.82-7.04 2.22-.84 4.71-.9 5.62 2.12 2.8-.52 2.59-2.66 2.93-4.87a31.3 31.3 0 0 1 8.2-16.83c6.39-6.73 13.34-12.95 20.29-19.12 9.1-8.1 17.27-16.86 22.46-28.07 1.62-3.5 2.88-3.93 6.52-2.67 1.41.49 2.84.95 4.57 1.52q1.75-5.73 3.4-11.38c.13-.45.12-1.32-.13-1.45-2.66-1.43-1.5-3.5-1.09-5.53.84-4.1-1.08-6.8-5.18-8.45-5.1-2.05-10.4-3.93-15-6.84-7.58-4.8-14.72-10.31-21.94-15.66-6-4.44-9.52-10.81-12.85-17.25-3.68-7.1-5.07-14.63-5.98-22.6-.7-6.2-2.69-12.91-8.03-17.33-2.7 2.25-5.02 5.1-8.01 6.44-6.2 2.79-12.72 4.84-19.17 7.02-1.03.35-2.68.22-3.47-.4-1.99-1.56-3.34-.41-4.47.79-2.23 2.35-3.27 5.19-2.4 8.49-1.48 1.77-2.96 1.94-4.78.33-5.4-4.75-12.52-6.06-18.7-9.25-3.1-1.6-5.93-3.8-8.7-5.94-1.83-1.41-2.94-.73-4.13.68-1.12 1.33-2.1 2.87-3.47 3.86-.74.54-2.22.31-3.27.07-1.83-.43-5.22-4.8-4.4-6a14.5 14.5 0 0 1 5.45-4.78c2.26-1.07 5.83-.36 6.67-3.3.98-3.46.96-7.2 1.3-10.84.03-.42-.34-1.02-.7-1.3-5.72-4.49-7.48-11-9.22-17.57-1.18-4.43-3.06-8.72-3.8-13.21-1.11-6.61.69-12.88 4.11-18.6.37-.6 1.76-.83 2.65-.79.47.03.95.99 1.33 1.59 4.78 7.47 8.1 16.24 17.63 19.42 3.98 1.33 7.93 1.61 11.9.15 9.63-3.55 19.35-6.9 28.83-10.8 7.6-3.13 13.27-2.77 18.91 3.27 4.85 5.18 9.08 10.95 13.46 16.56 1.11 1.42 1.91 2.6 4.05 2.6 2.3 0 4.58.72 6.9 1.02 1.84.24 2.94-1.8 2.52-4.52 4.3-.1 13.3-9.52 12.28-13.72 7.47-2.67 15.01-5.4 22.59-8.01 1-.35 2.48-.52 3.27-.02 3.64 2.29 6.77.5 9.84-1.02 8.18-4.07 16.8-6.53 25.9-5.28 7.3 1 14.5 2.99 21.68 4.79a495 495 0 0 1 22.83 6.25c12.21 3.7 20.9 12.04 28.18 22.06 3.07 4.21 6.25 8.35 9.06 12.72 1.4 2.2 2.1 4.87 3.09 7.34 1.78 4.43 3.6 8.83 5.3 13.29.97 2.53-.2 4.6-2.9 5.82-5.86 2.62-11.72 5.2-17.49 8-.92.46-1.77 1.91-1.9 3-.83 6.58-1.43 13.19-2.14 19.78-.3 2.75-.82 5.48-.95 8.24-.05.99.55 2.66 1.24 2.9 1.77.62 4.09 1.35 5.6.7 2.96-1.28 4.37-1.67 6.02 1.2 1.67 2.91 3.45 6.28 3.54 9.49.22 7.65.24 15.48-1.11 22.97-1.4 7.68-5.74 14.23-11.66 19.7-2.02 1.85-3.2 4.8-4.26 7.44-.91 2.25-2.61 3.44-4.55 3.43-4.15-.04-8.45-.1-12.37-1.24-2.93-.85-5.38-3.4-8.01-5.22-.93-.64-1.7-1.62-2.72-1.98-1.49-.54-3.3-1.26-4.65-.86-3.88 1.16-7.67 2.57-11.8 2-2.2-.3-2.99.86-3.65 2.7-1.66 4.47-3.48 8.88-5.32 13.51.88.52 2.44 1.5 4.08 2.34 6.33 3.3 7.24 5.31 5.33 12.27-1.52 5.52-2.76 11.1-2.18 16.86.44 4.44 1.31 8.83 1.8 13.27.67 6.2 2.63 11.94 5.42 17.48.82 1.62 1.87 2.4 3.57 2.62 3.99.5 7.06 3.8 7.11 7.78.07 5.2-.06 10.42.07 15.62.05 1.89.59 3.78.99 5.65.47 2.25 1.6 3.46 4.21 3.26.87-.07 1.94 1.19 2.77 1.99.62.6.97 1.49 1.48 2.22 3.65 5.24 2.07 10.54-3.7 12.6 1.36 6.07 3.05 12.07 4 18.19.96 6.23 1.2 12.57 1.8 19.31 5.5 0 11.4.42 17.22-.18 2.67-.27 5.08-2.66 7.72-3.84 3.3-1.48 6.81-2.5 10.06-4.09 3.93-1.92 7.58-4.44 11.53-6.3 3.23-1.53 6.93-2.1 10.02-3.8 2-1.12 3.96-3.28 4.73-5.4 1.55-4.26 2.05-8.88 3.39-13.22 1-3.28 2.67-6.34 3.97-9.53.6-1.45 1.54-3 1.43-4.44-.52-6.48 3.83-10.54 7-15.24 1.04-1.54 2.23-3.31 2.37-5.06.23-2.95 2.1-2.93 4.07-3.12 3.07-.29 6.14-.47 9.2-.82 6.46-.73 12.9-1.58 19.37-2.28 2.28-.25 3.97.38 4.81 3.03.61 1.92 2.23 3.5 3.3 5.3.72 1.23 1.27 2.56 1.88 3.85.07.16.05.52.1.53 3.73.44 1.82 3.02 1.76 4.8-.12 3.47-.43 6.93-.57 10.4-.05 1.23-.48 2.5 1.5 3.11 3 .93 4.5 4.01 4.02 7.28-.08.55-.44 1.47-.28 1.57 3.37 2.06.76 4.33.13 6.38-.19.65-1.52 1.1-2.42 1.34-2.44.66-5.36 4.32-4.77 6.54.35 1.3 1.25 2.53 2.13 3.6 2.33 2.88 2.19 3.86-1.04 5.38-.82.38-1.58.9-2.38 1.32-2.6 1.36-3.58 3.36-1.3 5.8.36.4.44 1.08.9 2.27-2.24.76-4.4 1.86-6.68 2.2-4.53.68-9.12.97-13.69 1.36-1.22.1-2.7.42-3.67-.1-5.73-3.05-11.58-1.52-17.3-.37-2.42.48-4.57 2.29-6.84 3.5-.69.36-1.84 1.21-1.98 1.06-2.86-2.92-3.92 0-5.07 1.67-.55.78.05 2.34-.5 3.14-1.95 2.9-3.72 6.21-6.4 8.25-3.3 2.52-7.66 3.6-11.19 5.87-6.26 4.04-12.97 7.52-15.4 15.7-2.14 7.17-5.22 14.07-8.2 20.94-2.25 5.2-6.63 8.21-11.88 10.15-3.2 1.17-6.3 2.61-9.4 4.06-3.64 1.7-7.17 3.63-10.85 5.24-1.15.51-2.6.31-4.98.54 3.7 3.12 6.8 6.12 10.28 8.6 5.98 4.28 12.09 8.4 18.37 12.22 1.85 1.12 4.42 1.2 6.7 1.47 4.45.53 8.92.9 13.39 1.28 2.18.18 3.93 1.35 3.19 3.42-.51 1.45-2.46 2.88-4.06 3.35-1.62.48-3.59-.36-5.41-.38-2.01-.02-4.03.24-5.38.33 1.12 9.93 2.3 19.56 3.23 29.2.34 3.57.1 7.2-.03 10.79-.02.67-.84 1.3-1.24 1.98a9 9 0 0 0-.74 1.58c-.27.75-.36 2.11-.72 2.18-.97.18-2.55.18-2.97-.4a32 32 0 0 1-3.49-6.4c-.55-1.36-.47-2.97-.67-4.42-15.5 13.5-34.31 15.24-53.55 14.92-.33 4.6-.58 8.77-.95 12.94-.33 3.73-.97 7.44-1.14 11.18-.09 1.97.4 4 .86 5.95 1.16 4.85-2.51 9-7.38 7.83a105 105 0 0 1-17.65-5.89c-9-3.9-18.59-6.52-28-9.46-6.88-2.15-13.89-3.88-20.81-5.91a1561 1561 0 0 1-27.81-8.37c-16.03-5-31.77-10.7-46.42-19.04-5.78-3.29-11.57-6.56-17.27-9.99-3.95-2.37-4.5-2.93-2.22-6.76 3.89-6.5 8.5-12.6 13-18.72 1.2-1.61 2.25-2.64 1.51-5.01-1.4-4.45-2.29-9.07-3.08-13.67-.3-1.74.24-3.62.4-5.44l.57-.05-.06-.26-.45.4c-4.73 1.8-9.44 3.65-14.19 5.38-9.66 3.5-19.27 7.16-29.04 10.31-3.78 1.22-7.95 2.06-12.11-.12-2.61 7.44-8.88 9.43-15.82 10.45-.68.1-1.64.79-1.81 1.38-1.64 6-4.18 10.98-10.67 13.33-1.85.67-3.03 3.52-4.2 5.56-.91 1.6-.83 4.35-2.08 5.07-1.93 1.12-3.83 3.32-6.8 2.15-1.71-.69-3.72-.68-5.61-.9-.48-.06-1.21-.02-1.45.28-3.13 3.87-7.27 2.56-11 1.82-2.56-.5-4.68-2.06-4.87-5.5-.08-1.4-2.14-2.76-3.42-4.02-2.43-2.4-4.94-4.7-7-6.64l10.56-14.16-3.9-3.14c-1.83 2.84-3.31 5.49-5.15 7.87-1.68 2.18-3.98 3.76-6.93 2.95-4.94-1.37-6.53-3.48-6.91-7.88-.35-3.93 1.2-7.23 2.8-10.6.97-2 1.7-4.12 2.54-6.16-5.03-1.9-7.83-5.3-9.4-9.6-.47-1.3.18-3.17.74-4.62.6-1.57 1.92-2.89 2.51-4.47 1.23-3.27-1.86-5.88-5.93-5.16q-1.5.24-2.91.44c-1.83-5.43-6.63-5.73-10.83-6.18-7-.76-12.39 2.36-16.68 8a301 301 0 0 1-13.86 16.56c-2.54 2.9-5.9 5.16-8.07 8.28-2.26 3.24-5.51 4.29-8.6 6.02-1.41.8-2.27 2.59-3.57 4.17-1.42-3.49-4.15-3.31-6.56-2.75-2.3.53-4.38 1.93-6.6 2.85-.67.28-1.68.54-2.22.24-5.88-3.23-9.55-8.62-12.79-14.16-1.03-1.74-.16-4.6-.16-7.06 4.47.44 6.46 3.66 8.49 6.64 1.24 1.84 1.82 3.77 4.8 2.17 1.35-.73 3.45-.25 5.2-.07 5.44.55 9.75-1.13 13.3-5.48 7.77-9.47 15.53-18.95 23.78-27.98a26 26 0 0 1 15.21-8.02c2.3-.36 4.74-.92 6.96-.53 3.5.61 6.88 1.94 10.3 3 .27.08.54.33.7.58 1.9 3.13 2.19 3.08 4.84-1.07-4.91-2.08-5.66-7.33-5.96-11.15-.88-10.92-3.57-22.16 1.54-32.83a220 220 0 0 1 7.1-13.61c1.22-2.16 4.74-2.58 8.97-1.57 5.65-13.04 11.35-14.52 17.77-10.68 1.92-4.66 6.08-6.78 10.02-9.44 2.7-1.81 4.54-5.2 6.15-8.21 2.16-4.03 3.85-8.34 5.5-12.62.49-1.26-.04-2.87.29-4.24.67-2.9 1.38-5.83 2.48-8.59 1.58-4 3.52-7.88 5.3-11.82l.54-.83-1.11.4zm128.2-22c-8.16 2.98-16.72 6.01-25.2 9.3a6 6 0 0 0-3.18 3.4c-1.41 4.8-2.18 9.8-3.6 14.6-3.64 12.39-7.5 24.71-11.26 37.06-.52 1.7-1.18 3.24.76 4.89 1.1.93 1.45 3.08 1.58 4.73.17 2.2-.19 4.43-.33 6.63l2.12-1.17c.76 2.58 2.66 2.56 4.35 1.72 3.02-1.5 5.87-3.35 8.94-5.15l1.88 1.04c1.15-1.98 2.29-3.74 3.24-5.6.76-1.47 2.31-3.6 1.82-4.51-2.45-4.48-.54-8.82-.45-13.23.04-2.32 1.56-3.11 2.82-4.4 1.3-1.34 3.14-2.83 3.35-4.43.63-4.77.86-9.62.67-14.43-.15-3.94 1.36-6.73 3.9-9.5 2-2.18 4.03-4.65 5.02-7.36 1.67-4.6 2.53-9.48 3.56-13.6zM408.52 449.4c11.83-3.87 23.68-8.07 35.73-11.52 4.14-1.18 5.89-2.92 6.88-7.01 1.08-4.44 3.4-8.57 5.25-13-.8 0-1.8.02-2.8 0-9.43-.14-16.72-4.03-21.63-12.23-.4-.67-1.52-1.23-2.34-1.27-3.35-.16-5.87-1.29-6.72-5.64-2.16 3.9-4.16 7.06-5.7 10.42-4.6 10.02-5.77 21.33-11.55 30.97-.62 1.04.45 3.21.94 4.79.44 1.4 1.17 2.72 1.94 4.49m56.57-43.17c-.68-3.73-1.65-7.64-2.06-11.6-.32-3.12-.9-6.53 2.85-8.58 1.37-.74.24-6.02-1-5.74-1.6.36-1.57-.64-1.88-1.35-1.57-3.63.03-6.97 2-9.57 3.24-4.26 1.5-9.39 4.1-14.18-2.07.37-3.4.4-4.57.85-3.92 1.55-8.54 1.67-11.44 5.35-3.76 4.77-7.94 7.77-14.48 5.01-3.26-1.37-5.86.5-7.34 4.36-.63 1.65 1.88 6.9 3.82 7.47 1.96.57 2.76 1.69 2.47 3.58-.78 4.94-1.63 9.85-2.44 14.72 9.13 4.93 19.02 9.17 29.97 9.68m-36.24-323-.26-.94-7.07 2.74 2.55 1.72zM173.39 763.76l2.6-13.46-3.9-.95 2.74-9.39c.9.35 1.84.51 2.55 1.01 5.92 4.27 12.64 3.1 19.2 2.8 4.27-.19 8.54-.63 12.8-1.13 6.85-.82 13.69-1.85 20.55-2.63 5.89-.68 11.79-1.35 17.7-1.63 5.78-.27 7.2.92 8.93 5.92l15.56-5.66c-.45-2.12-1.07-4.88-1.64-7.65-.47-2.24.54-3.83 2.55-4.63 7.63-3.02 15.16-6.38 22.97-8.82a514 514 0 0 1 33.2-9.01 117 117 0 0 1 18.91-2.88c6.81-.48 13.68-.26 20.52-.06 4.25.12 8.49.94 12.74 1.07 2.3.07 4.73-1.23 6.92-.85a13.5 13.5 0 0 1 6.54 3.25 92 92 0 0 1 9.28 10.29 7 7 0 0 0 5.67 2.82c4.17.05 8.36-.52 12.53-.48 3.45.04 6.88.72 10.34.86 2.2.08 5.09.46 6.45-.71 1.47-1.27 2-4.17 2.1-6.38.15-4.23-.64-8.5-.38-12.72.24-4.02 1.38-7.97 2.06-11.97 1.56-9.09 3.39-18.15 4.53-27.29 1.2-9.62 1.52-19.36 2.63-29 .72-6.2 2.36-12.3 3.24-18.5.45-3.2.1-6.51.13-9.98.26-.2 1.64-.74 1.85-1.57.83-3.29 3.2-3.26 5.53-2.65 10.04 2.63 19.95 5.88 30.1 8.04 6.4 1.36 13.14 1 19.68 1.77 3.53.41 7.03 1.43 10.44 2.53.83.27 1.6 1.86 1.7 2.91.07.8-1.09 1.65-1.51 2.56-.24.5-.39 1.55-.12 1.74 3.5 2.59 7.01 5.17 10.66 7.53 1.32.85 3 1.48 4.55 1.56 3.22.16 3.15 2.2 2.67 4.27-.44 1.96-1.38 3.81-1.85 5.05 1.4 1.06 2.6 2.4 4.1 2.99a45 45 0 0 0 9 2.73c4.59.76 9.26 1.01 13.68 1.46.74-2.52 1.83-5.3 2.32-8.2.31-1.81-.29-3.77-.46-5.67-1.02-11.19.69-22.1 3.72-32.79 2.73-9.6 14.88-17.45 26.63-16.25 16.11 1.64 25.76 11.46 34.64 23.17 3.16 4.17 6.94 7.95 9.56 12.43 5.57 9.5 10.4 19.43 15.87 29a295 295 0 0 0 12.15 19.1c5.62 8.3 11.17 16.65 17.33 24.53 8.24 10.54 14.1 22.02 16.21 35.28.96 6.1 1.43 12.3 2.62 18.35.44 2.2 2.4 4.06 3.53 6.15 5.62 10.45 11.27 20.88 16.79 31.37 4.78 9.1 9.52 18.21 14.1 27.41 3.5 7.05 6.46 14.38 10.14 21.33 4.69 8.84 10 17.33 14.77 26.12 2.56 4.72 4.4 9.83 6.88 14.6 1.49 2.84 3.65 5.34 5.38 8.08 4.4 6.98 8.7 14.02 13.1 21 .9 1.47 1.96 2.84 2.97 4.25l3.95 5.48c2.05 2.89 4.23 5.7 6.09 8.7 1.06 1.74 1.56 3.82 2.37 5.71 2.03 4.73 2.74 10.06 6.58 13.96 2.59 2.65 5.29 5.24 7.51 8.17 3.6 4.76 9.27 5.12 14.11 7.2 4.22 1.82 8.6 2.03 13.23 2.16 6.52.18 13.06 1.73 19.46 3.24 8.16 1.92 16.18 4.37 24.26 6.6a1 1 0 0 1 .28.12c1.46 1.16 3.31 2.1 4.21 3.6.5.83-4.26 2.86-6.25 2.53-1.4-.22-2.84-.24-5.16-.42l2.45 1.32c-2.73 3.17-6.27 1.88-9.39 1.75s-6.17-1.13-9.3-1.4c-1.3-.13-2.72 1.02-4.03.9-5.14-.45-10.31-.87-15.36-1.87a290 290 0 0 1-20.43-4.94c-1.53-.42-3.99-2.06-3.9-2.95.23-2.51 1.37-5.02 2.58-7.3.29-.56 2.23-.24 3.65-.7-9.1-2.43-14.56-9.3-20.4-16.27-3.01 8.75-7.04 16.34-15.68 20.2 14.52 21.61 28.49 43.37 33.78 69.26 2.03-1.07 4.52-1.86 6.3-3.44 2.1-1.89 4.43-1.14 6.63-1.48 1.66-.26 3.39-.05 5.27-.05-1.06-3.73-.28-4.8 2.93-4.53 1.66.14 3.29.87 4.94.94 2.08.09 4.06.78 6.13-1.34 1.19-1.23 4.35-.54 6.62-.72 1.03-.08 2.1-.04 3.07-.32 6.27-1.77 12.56-3.51 18.76-5.52 1.74-.56 3.27-1.87 4.78-3 10.02-7.51 20.23-14.78 29.93-22.68 9.3-7.58 17.8-16.13 27.16-23.64 4.9-3.94 10.76-6.78 16.42-9.65 1.34-.67 4.2-.04 5.36 1.06a8.6 8.6 0 0 1 2.36 5.75c-.01 2.03-1.22 4.16-2.26 6.05-4.97 8.92-12.44 15.6-20.06 22.16-2.14 1.85-3.82 4.26-5.55 6.53-4.82 6.34-10.97 11.1-17.97 14.69-6.7 3.44-13.63 6.43-20.45 9.63-3.22 1.52-6.42 3.1-9.65 4.59-.58.27-1.3.37-1.94.33-3.17-.22-5.66.57-8.3 2.79-2.28 1.92-5.87 2.21-8.8 3.46-.71.3-1.67 1.72-1.48 2.23 2.35 6.2-.81 10.06-5.62 12.92-14.39 8.56-28.9 16.94-42.73 25.03-1.94-1.07-3.32-1.57-4.35-2.47-.9-.78-2.17-2.33-1.9-3 .96-2.48-.73-3.75-1.7-5.47-1.9-3.35-3.72-6.75-5.33-10.24-.6-1.31-.06-2.17 1.59-3.2 1.67-1.05 2.57-3.87 3.1-6.09 1.86-7.81-.66-15.28-2.7-22.62-3.97-14.25-11.66-26.84-18.63-39.72-2.6-4.82-5.65-9.4-8.38-14.16-.97-1.69-1.73-2.36-3.79-1.25-3.91 2.1-4.68 1.87-6.83-1.87-4.7-8.12-10.8-15.1-17.07-22-2.27-2.5-4.92-5-4.5-8.97.05-.44-.27-.97-.53-1.4-6.35-10.59-14.37-19.85-22.58-29.02-8.28-9.24-16.14-18.86-24.18-28.32-6.45-7.59-13.52-14.74-19.2-22.87-6.87-9.83-12.98-20.26-18.69-30.83-6.72-12.42-13.4-24.97-18.75-38-5.75-14-10.35-28.5-14.64-43.03-1.85-6.26-6.02-10.65-9.25-15.8-6.2-9.83-15.1-17.25-23.3-25.26-6.02-5.9-12.04-12.16-19.1-16.59-9.7-6.07-16.36-15.37-25.6-21.76a6 6 0 0 1-1.96-1.96c-1.67-3.39-5.4-2.04-7.87-3.54-.15-.09-.53-.08-.6.02-2.55 3.77-5.47 1.05-7.82.04-2.55-1.09-4.64-3.26-6.91-4.98-.63-.48-1.21-1.02-1.89-1.6-1.56 6.97-3.07 13.5-4.45 20.06-.23 1.08.27 2.3.13 3.43-.28 2.3-.53 4.67-1.22 6.87-1.86 5.91-3.92 11.75-5.94 17.6-.93 2.7-1.13 5.48-4.3 7.35-1.72 1.02-1.99 4.65-2.71 7.15-2.3 7.88-5.08 15.67-6.5 23.71-.87 4.95-3.6 8.74-5.3 13.12a74 74 0 0 1-4.49 9.5 47 47 0 0 1-5.04 7.17c-5.08 6.02-10.29 11.92-15.47 17.84a5 5 0 0 1-1.89 1.45c-4.66 1.6-9.26 3.74-14.06 4.43-4.1.6-8.45-.55-12.7-.86-3.27-.23-6.57-.23-9.83-.57-9.1-.95-18.17-2.02-27.26-3.03-5.75-.65-11.51-1.2-17.26-1.92-5-.62-9.98-1.72-15-2.02q-11.44-.68-22.9-.5c-6.67.09-13.25-.02-19.23-3.34-4.35-2.42-6.62-6.2-5.3-11.85-1.65.7-2.76 1.12-3.84 1.63-1.9.9-3.15.73-4.88-.98-1.42-1.4-4.14-1.53-6.3-2.1-.78-.21-1.63-.11-2.45-.16-1.79-.09-3.17.04-3.33 2.48-.24 3.9-1.95 6.86-5.97 8.2-5.28 1.78-4.94 6.91-6.37 11.01-1.81 5.17-3.43 10.47-5.95 15.28-.91 1.76-4.1 3.04-6.38 3.24-5.3.46-10.7-.31-15.98.23-9.58.98-19.1 2.6-28.64 3.87-4.79.64-9.6 1.11-14.4 1.61-3.48.37-7 1.38-10.38-.59-1.37-.8-2.93-1.3-4.2-2.24-4.37-3.26-9-4.44-14.19-2.19-2.11.92-3.93.65-5.96-.68-5.7-3.73-10.17-8.03-10.46-15.47-.1-2.77-1.17-5.51-1.74-7.99-2.03-.57-4.08-.83-5.8-1.72-2.41-1.25-1.43-3.5-.9-5.44 1.22-4.59 1.24-4.58-3.1-6.99l.1.09zm406.79-143.18 35-17.32c-4.66-2.05-8.91-4.64-13.53-5.7-3.34-.77-7.84-.6-10.64 1.09-8.14 4.93-9.7 13.6-10.83 21.93"/><path fill="#fff" d="M173.3 763.68c.28 2.73 1 5.5.73 8.17-.38 3.65-4.9 6.15-8.6 5.28-.57-.14-1.14-.34-1.72-.51l-2.4 13.98c1.77-.3 3.32-1 4.63-.68 1.54.38 3.37 1.3 4.2 2.56 2.44 3.69 2.4 8.05 2.51 12.32.06 2.38-.2 4.84.23 7.16 1 5.59-.13 10.98-1.66 16.17-.87 2.94-3.18 5.58-5.25 8a326 326 0 0 1-13.21 14.6c-1.15 1.2-2.98 1.76-4.5 2.62l-.97-.3c0 7.06.08 14.13-.02 21.2-.08 5.61-.36 11.23-.6 16.85-.18 3.9-2.4 6.7-5.42 8.75-3.6 2.43-7.37 4.65-11.2 6.69-2.23 1.17-4.39.3-6.5-1-2.37-1.46-4.86-2.92-7.5-3.66-5.86-1.64-8.71-4.86-9.01-10.82-.36-7.07-1.14-14.14-1.14-21.2 0-7.83.7-15.66 1.06-23.49.03-.5.14-1.18-.13-1.48-3.7-4.15-2.13-9.18-2.13-13.83 0-3.19 1.45-6.36 1.63-9.57.2-3.46 2.53-4.62 5.03-5.57 3.26-1.23 4.47-2.78 4.38-6.11-.1-4.22-.34-8.49.12-12.66.2-1.72 1.88-3.44 3.25-4.79 1.3-1.28 3.09-2.07 4.25-2.82-2.28-3.51-4.73-6.8-6.62-10.4-1.03-1.96-1.04-4.44-1.68-6.65-.76-2.64-2.2-5.19-2.45-7.86-.49-4.96-.87-10.03-.3-14.94.88-7.48 2.59-14.87 4.03-22.27a3.2 3.2 0 0 1 1.48-1.98c5.16-2.56 10.6-2.52 16.01-1.13.98.25 1.78 2.06 2.23 3.31.5 1.37.52 2.92.8 4.77 1-.38 1.86-.57 2.58-1.01 4.34-2.62 7.89-2.41 11.74.6.84.65 1.92 1.1 2.97 1.38 4.18 1.13 7.24 3.74 9.74 7.13 1.5 2.01 1 6.32-1.09 8.56-.75.83-1.64 1.55-2.55 2.2-5.25 3.79-5.29 3.92-2.09 9.6l1.28 2.3c5-3.54 8.8-3.34 13.93.62l-.08-.08zm279.23-246.92c-.3 2.87-.87 5-.63 7.03a37 37 0 0 0 2 8.02c.7 1.92 1.02 4.46 4.13 4.34.39-.02.98 1.13 1.23 1.83 2.02 5.77 3.94 11.56 5.97 17.32 1.27 3.6 2.8 7.1 3.95 10.74.3.95-.4 2.23-.65 3.36-.97-.26-2.2-.25-2.87-.85-1.11-1-1.87-2.4-2.86-3.75-2.22 1.53-3.79.83-4.91-1.31-4.48-8.53-9.27-16.93-11.16-26.55-.05-.25-.39-.45-.73-.83l-2.56 3.1-.9.02c-.2-1.31-.96-2.9-.5-3.9 2.66-5.73 5.61-11.35 8.51-16.97.25-.48.92-.76 1.98-1.6M680.8 264.91c4.35 2.13 8.72 4.2 13.02 6.44.8.42 1.4 1.4 1.87 2.25.13.23-.83 1.39-.9 1.35a429 429 0 0 1-15.1-7.78c-.57-.3-.57-1.62-.97-2.9l-9.23 2.12.2 2.99c.66-.05 1.47-.25 2.23-.13.92.15 1.8.55 2.7.85-.42 1.07-.73 2.97-1.3 3.05-1.76.25-3.84.27-5.37-.5-1.42-.7-2.46-2.42-3.34-3.89-1.39-2.32.15-3.3 2.16-3.88-1.44-2.8-.74-4.7 1.96-5.89 4.31-1.9 8.07-.87 11.33 2.15.85.77 1 2.28 1.48 3.45l-.74.34zM195.06 462.54l-4.35 3.82c0 2.13.22 3.62-.05 5.01-.47 2.45-.98 4.96-1.98 7.21-.74 1.67-2.3 2.99-3.49 4.46-1.28-1.65-3.18-3.15-3.68-5.02-.5-1.88-.31-4.7.8-6.12 2.87-3.66 6.38-6.83 9.76-10.05.55-.52 1.8-.31 2.71-.44zm-4.79-20.41c-2.13 1.63-4.03 3.6-6.36 4.63-1.04.46-2.92-.98-4.42-1.55.95-1.04 1.7-2.53 2.87-3.03 2.4-1.02 5-2.49 7.91-.05m-19.95-29.4c-6.75 3.5-13.9 3.48-15.84 0zM411.73 42.58c-5.13.84-9.16.83-11.99-3.74 4.66-.81 7.88 1.59 12 3.74m-210.51 379.8c-4.16-1.81-7.97-4.05-10.2-8.26q.38-.46.74-.93l10.12 8.45zM700.7 295.72c-1.8-.81-1.7-2.33-.8-4.01 1.27-2.4 3.06-2.15 5.17-.8zm-6.02-57.01 4.77-3.3c1.43 3.1-.98 3.47-1.97 4.53-.36.39-1.6-.06-2.45-.12z"/><path fill="#000" d="M453.23 617.22c-3.93-1.93-7.91-3.75-11.76-5.81-9.3-4.97-17.32-11.39-22.74-20.64-.57-.97-1.2-1.98-1.45-3.05-.32-1.37-.51-2.7 1.9-1.82 2.15.8 2.9-1.27 3.46-2.78 2.76-7.4 5.27-14.9 8.13-22.27 4.64-11.98 8.06-24.46 14.68-35.97 4.92 11.83 10.18 23.23 17.46 33.54l.66-.36c-1.23-2.11-2.5-4.21-3.72-6.35a144 144 0 0 1-13.97-34.64c-1.43-5.52-.58-11.46 1.5-16.9.6-1.53.26-2.09-.89-2.42-2.42-.7-3.97-3.54-7.1-2.72-.76.2-1.17-1.05-1.27-2.09-.29-3.03.85-5.63 2.23-8.15 4.57-8.33 9.37-16.54 15.02-24.19a3.8 3.8 0 0 0 .72-3.54 64 64 0 0 1-1.35-9.32c-4.21 1.56-8.3 3.12-12.41 4.58-11.45 4.05-22.79 8.41-34.41 11.97a5.7 5.7 0 0 0-3.26 2.57c-1.05 1.6-2.28 3.22-4.4 3.6-1.96.34-1.17 2.18-1.53 3.21-1.36 3.97-2.04 4.54-5.9 2.91-2.55-1.08-5.3.01-7.84-1.05-.68-.29-1.04.66-1.33 1.38-1.77 4.4-4.6 7.95-9.39 8.97-3.75.8-3.76 4.09-4.58 6.4-1.05 2.98-2.32 5.3-5.4 5.89-4.17.78-8.14 2.63-12.58 2.2-.96-.1-2.4.47-2.98 1.22-2.8 3.72-5.54 1.57-8.29.12-1.39-.73-2.05-2.34-4.4-1.86-1.24.25-2.3-2.85-1.74-4.57.9-2.7-.55-3.98-2.4-5-2.55-1.44-3.61-4.13-5.56-6.05-1.24-1.23-.13-2.54-.06-3.76.08-1.35.73-2.68 1.3-4.6-3.23 1.81-6.14 2.55-9.34 1.72-5.83-1.51-6.9-3.2-5.5-9.12a126 126 0 0 1 4.65-15.88c-2.95.03-5.64-.36-8.25-1.35-2.29-.87-3.31-2.57-2.77-4.79a9 9 0 0 0-.04-4.67c-1.39-4.97 1.7-8 5.58-11.8-5.42 1.24-7.48-2.33-10.63-4.45-8.35-5.6-17.37-4.76-23.57 4.55-3.06 4.6-4.66 9.94-7.38 14.7-5.11 8.94-11.83 16.12-21.87 19.57-6.66 2.28-13.58 2.12-20.4 1.59-4.7-.37-7.58-4-10.3-7.59-4.3-5.65-6.33-12.1-7.29-19.36 2.13 3.28 5.22.71 7.68 1.85 4.55 2.09 8.4 5.1 11.79 8.67 2.19 2.31 4.43 2.81 7.43 1.76 6-2.1 10.02-6.53 13.82-11.23 5.49-6.79 10.86-13.64 17.08-19.81 7.74-7.7 16.98-11.19 27.76-10.31 3.7.3 7.26 1.56 8.3 6 2.08-1.67 2.12-1.71.8-3.04-4.13-4.13-6.6-8.75-4.52-14.74.36-1-.3-1.58-.73-2.22-2.04-3.07-2.65-6.5-2.84-10.1-.5-9.36.73-18.33 5.56-26.55 2.83-4.83 6-9.56 12.13-10.2 2.65-.26 3.62-1.5 4.6-3.48 3.65-7.28 9.92-9.89 17.65-7.11 1.48.53 1.96.27 2.62-.86 3.33-5.68 8.12-9.13 14.84-9.4 1.26-.04 1.55-.82 1.97-1.57 2.27-4.07 4.42-8.23 6.79-12.26 1.13-1.93-.43-2.1-1.36-2.94-1.45-1.28-1.67.15-2.13.86-2.94 4.55-4.43 9.75-6.65 14.65.8-5.25 2.7-10.13 5.07-14.84.66-1.34 1.75-2.49-.13-3.88-.93-.7-.21-1.85.3-2.78 2.7-4.94 3.97-10.41 5.85-15.66.25-.68.75-1.32-.21-1.8-.71-.37-1.36-.84-2.25-.25-2.66 1.74-4.7 3.92-5.2 7.19-.27 1.7-.43 3.42-.7 5.12-.1.6-.36 1.18-.64 1.71-2 3.7-10.4 7.28-14.66 6.79-4.77-.56-9.28-1.56-13.3-4.3-1.14-.78-3.01-1.28-.55-2.78.69-.41.07-1.1 0-1.63-.08-.8-.5-1.6-.46-2.38.1-1.47-.86-3.44.52-4.31 1.45-.91 2.62.78 3.87 1.6 4.06 2.64 8.17 1.13 10.44-3.53 2.12-4.37 3.76-9.06 7.23-12.64 4.85-5 9.7-5.55 15.65-1.95 2.66 1.62 4.99.99 6.58-1.72 3.92-6.69 7.9-13.33 11.76-20.06 1.38-2.4 3.3-3.2 5.99-3.47a99 99 0 0 1 10.76-.53c.62 0 1.28.05 1.62-.61 2.99-5.67 8.61-4.95 13.63-5.51 1.83-.2 3.45.02 4.6-2 1.49-2.58 4.24-2.63 6.85-2.35 1.9.2 2.7-.6 3.26-2.27 2.77-8.21 5.5-16.44 8.48-24.58a111 111 0 0 1 12.93-25.37c2.94-4.21 2.52-7.57 1.27-11.43-1.02-3.17-2.69-3.25-4.8-.64q-2.9 3.64-5.49-.23c-1.02-1.54-1.96-3.13-2.93-4.7-.74-1.22-.85-3.5-3.25-1.53-.86.7-1.78-.4-2.23-1.13-.6-.98-.75-2.14.17-3.13 1.02-1.1 1.23.45 1.81.57 4.48.92 5.28 5.32 7.66 8.15 1.41 1.7 2.03 2.39 3.94.75 2.47-2.12 4.83-1.62 6.7 1.2 1.74 2.62 2.28 5.64 2.27 8.74 0 1.66.04 2.83 2.22 3.23 2.84.52 2.38 3.06 2 5-.66 3.5-1.9 6.88-3.38 10.12a288 288 0 0 0-12.24 31.94c-.59 1.83-.8 2.9 1.5 3.83 3.96 1.61 5.98 6.43 4.72 10.88-.54 1.87-.34 2.21 1.57 2.4 2.37.22 4.26 0 5.81-2.1.74-1 2.05-1.63 3.17-2.34 2.02-1.27 3.69-.65 5 1.16 2.26 3.11 2.32 6.68 1.9 10.45 12.4-3.5 24.66-6.96 36.9-10.48.73-.2 1.3-.94 1.94-1.42 1.11.6 2.1.16 3.21-.16 23.56-6.7 46.98-13.94 71.62-15.95 6.1-.5 10.87 1.15 15.09 4.93 12.65 11.34 19.72 25.93 23.57 42.17 1.94 8.19 2.91 16.58 3.96 24.96 1.08 8.61 1.68 17.12-.29 25.58-.62 2.68-.02 3.06 2.4 2.97 3.73-.13 4.96 1 4.47 4.41-1.03 7.28-3.18 14.24-6.98 20.6-.97 1.63-2.6 3.2-4.28 3.26-4.82.14-9.3 2.46-14.16 1.99-1.27-.13-1.98.47-2.3 1.55-1.73 5.86-5.98 9.87-10.28 13.76a18.5 18.5 0 0 1-6.46 4.04c-.7.23-1.25.22-1.64-.33-.57-.83.26-.9.74-1.24 5.97-4.23 9.58-10.65 14.53-15.83.48-.5 1.4-1.61-.06-1.8-1.98-.28-3.74-1.55-5.39-1.7-2.2-.2-2.26 2.93-3.3 4.56-2.34 3.66-5.2 6.84-8.13 9.99-2 2.14-2 7.43-.1 8.72a26 26 0 0 1 9.06 10.96c.78 1.72 1.5 2.17 3.46 1.47 5.45-1.95 10.91-4 16.74-4.62 3.49-.37 6.78 1.16 7.72 3.87 1.87 5.36 4.06 10.6 4.81 16.32.2 1.48-.19 3.72 1.89 4.46 1.65.6 2.62 1.75 3.71 3.03 2.56 3 5.35 5.81 8.62 9.32-.52-4.84.5-8.8.6-12.89q.22-7.66 1.3-15.26c1.06-7.48 1.61-15 2.33-22.51.61-6.52 1.07-13.06 1.64-19.58.45-5.2.99-10.4 1.45-15.59.1-1.14.1-1.91-1.66-1.4-2.72.79-5.57 1.24-8.42.23-3.07-1.1-4.7-4.04-1.82-6.4 2.93-2.4 5.75-4.88 8.87-7.02.67-.46 2.05-.62 1.76-1.84-.65-2.72-.6-5.7-2.55-8-4.24-4.98-5.82-10.62-4.34-17.05.2-.92.06-1.76-.29-2.68-1.92-5.02-2.83-10.29-5.74-15.12a29 29 0 0 1-3.99-14.71c-.05-3.69-2.45-7.28-3.35-11.03-2.22-9.17-7.7-17.72-4.58-27.94 1.24-4.06 1.76-8.36 3.82-12.15 1.04-1.91.5-2.95-1.1-4.07a103 103 0 0 0-12.11-7.04 306 306 0 0 0-42.87-18.12c-2.01-.67-4.19-2.09-6-1.73-1.74.35-1.35 3.35-2.4 4.96q-.09.12-.15.26c-3.7 8.75-11.28 14.5-16.97 21.68-5.16 6.5-12.27 11.2-18.59 16.6-3.49 3-7.8 4.96-10.72 8.63-2.2 2.76-4.23 5.66-6.33 8.5.98-3.75 1.66-7.63 3.03-11.23 1.52-3.98 5.38-6.23 8.19-9.23a86 86 0 0 1 20.45-16.14c3.66-2.06 4.5-5.15 5.88-8.14 3.21-6.93 6.9-13.58 10.77-20.14 1.48-2.49 3.57-1.43 5.44-1.53.94-.05 1.93.5 2.97.57 1.56.13 3.64 1.72 4.46.75 1.18-1.43 1.53-3.74 1.8-5.73.35-2.77.23-5.6.45-8.4.12-1.46-.42-2.29-1.78-2.68-5.18-1.49-9.28-4.64-13.06-8.35-2.6-2.56-5.72-3.22-9.26-2.16-4.16 1.25-8.18 2.6-12.8 1.94-7.04-1-11.01-5.28-13.79-11.18-.5-1.06-.92-2.08-1.85-2.74-4.6-3.24-6.68-8.32-9.5-12.87.03-.4.18-.85.06-1.22-2.76-9.1-3.79-18.3-2.54-27.8.33-2.48 1.16-5.06.48-8.47-3.41 7.6-5.3 14.6-4.33 22.3.67 5.3 2.84 9.94 5.19 14.57-4.4-3.5-6.23-8.54-7.28-13.68-2.1-10.32.17-19.67 7.77-27.56a9.4 9.4 0 0 1-4.64-5.68c-1.54.54-1.26 1.86-1.59 2.82-3.32 9.83-9.85 15.72-20.43 16.7-.76.08-1.4-.24-2.09-.32-2.2-.23-4.87-1.65-5.05 2.6-.1 2.12-2.19 2.39-4.08 2.25-2.1-.15-3.87-.3-4.72 2.6-.97 3.26-4.07 4.24-7.28 4.7-7.57 1.1-9.72 3.58-10 11.3-.04.81 0 1.64 0 2.47 0 4.54.45 4.9 4.7 3.74-1.64 2.33-1.67 2.33-6.1 1.96.45 3.83 2.7 6.3 5.73 8.25-3.9-.4-6.17-3.13-7.72-6.22-1.6-3.15-3.2-6.25-5.02-9.3-4.54-7.58-2.05-12.96 6.66-15.09 1.19-.29 2.12-.62 2.85-1.52a16.7 16.7 0 0 1 10.37-6.08c-.1-1-.84-1.53-1.53-1.76-2.85-.93-5.29-2.58-7.76-4.2-2-1.32-3.54-1.26-4.45 1.4-.56 1.6-.65 4.66-2.3 4.32-2.15-.44-.81-3.3-.92-5.07-.09-1.56-.27-2.5-1.94-3.18a10.3 10.3 0 0 1-5.84-6.2c-3.06 3.55-5.27 7.5-7.37 11.56-.75 1.46-.48 3.94-3.16 3.93.39 2.03-1.35 2.2-2.49 3.1-4.27 3.32-6.44 2.7-7.65-2.46-.16-.68-.55-1.37.02-2.29 1.31 1.14 1.44 2.97 2.6 4.17 1.13 1.14 1.86 1.12 2.59-.16.45-.79 1.1-1.76.97-2.54-.55-3.47.58-6.7 1.23-9.98.18-.95.34-1.6-.49-2.4-4.74-4.49-4.84-13.31-2.83-19.17-7.01 3.9-12 9.49-16.2 15.82-1 1.54-1.67 3.26-3.8 2.74-2.25-.55-2.54-2.53-2.78-4.56-1.15-9.53 7.28-18.86 16.65-20.78 4.19-.85 8.38-.27 13.05-.7-4.38-3.46-8.37-7.03-9.7-12.13-1.06-4.1-3.59-6.17-7-7.73-3.68-1.67-7.48-2.7-11.6-1.7-4.57 1.12-7.19 4.45-9.42 8.16-1.8 3-2.61 6.42-3.74 9.7-.21.63 1.18 2.21-.7 1.86-1.04-.2-2.5-.15-2.99-1.73-2.2-7.2.67-15.87 6.85-20.38 3.52-2.57 7.66-3.23 11.83-3.76a36 36 0 0 1 17.4 2.14c-2.72-4.27-4.05-8.3-3.29-12.8.1-.5 0-1.09.25-1.5 2.53-4.36 4.61-8.89 5.24-13.96.05-.38.4-.7 1.02-.66.8 1.25-.16 2.75.4 4.2 1.84-.37 1.61-1.97 1.99-3.21.6-1.94.64-3.83 3.26-4.94 3.03-1.29 2.8-1.86 5.84-1.77-1.5 3.48-.79 7.04.02 10.43 1.66 7.02 4.7 13.15 12.4 15.4 5.75 1.7 10.47-1.23 15.3-3.54.6-.3.56-1.02.72-1.62 3-11.44 9.75-19.32 21.55-22.07 3.97-.92 11 1.16 13.1 7.62 1.24 3.84 2.1 4.17 5.95 2.76a10 10 0 0 1 3.92-.66c2.34.09 4.24 2.1 3.54 4.26-.71 2.19-.09 3.65 1.15 5.36 4.26 5.84 5.9 12.6 6.57 19.7 5.95-7.9 6.87-21.73 1.62-29.46 4.78 1.73 5.35 5.7 6.3 9.27 1.76 6.67-.2 12.91-2.6 19.05-.33.83-.73 1.61-1.36 3.02 2.6-1.27 4.5-.69 6.43.36 2.71 1.48 3.87 1.02 4.93-2.07 5.29-15.34 16.68-23.3 32.03-26.16 3.85-.72 8.07-.85 11.87.63 2.09.82 3.72.54 5.72-.08a38 38 0 0 1 16.32-1.65c2.87.37 5.28-1.23 7.95-1.73 6.15-1.14 12.03-.03 17.89 1.15 9.63 1.93 18.98 5.13 28.67 6.9 1.47.26 3 .22 5 .37-2.78.84-6.68.55-12.85-.72-4.29-.88-8.59-1.7-12.87-2.6-4.13-.85-8.24-1.75-12.39-2.47 11.76 5.1 24.4 7.59 36 13 2.4 1.12 4.87 2.21 7 3.74 2.74 1.97 5.1 1.16 7.25-.54 5.38-4.22 8.65-9.83 9.07-16.67.3-4.81-1.63-9.12-4.67-12.9 3.64 3.1 6.44 6.79 6.56 11.76.24 9.83-4.37 16.77-13.32 21.06 4.56 5.28 9.26 10.47 13.69 15.89 6.13 7.5 11.74 15.26 13.46 25.24.56 3.23 2.36 6.26 3.03 9.62.29 1.46 1.26 3.08 3.63 2.26 1.5-.52 3.21-.52 4.84-.65.77-.06 1.9-.37 2.13.65.27 1.13-.97 1.12-1.65 1.37a125 125 0 0 1-17.89 5.34c-2.58.55-5.2.92-7.83 1.25-.9.12-1.25.42-1.28 1.31-.36 10.4-2.6 20.54-4.28 30.75-.01.08.06.18.09.26 1.26-2.37 3.35-2.8 5.33-1 1.69 1.54 4.24 1.3 5.75 3.5 5.55 8.03 7.87 16.73 5.4 26.24-2.7 10.42-6.01 20.66-13.22 29.09a58 58 0 0 1-10.93 10.2c-2.45 1.7-4.94.81-7.38 1.05-2.9.28-5.85.26-8.76-.86-2.81-1.1-5.39-2.48-7.49-4.59-1.4-1.41-2.5-1.86-4.72-1.48-4.41.74-8.98.7-13.48.77-2.06.03-3.22.74-3.74 2.72-.65 2.45-1.24 4.94-2.76 7.03-.92 1.27.05 1.51.81 2.05a41 41 0 0 1 6.31 5.31c3.4 3.58 4.5 7.32 2.67 12.07-1.41 3.68-2.23 7.58-3.5 11.32a4.5 4.5 0 0 0 .1 3.47c3.75 8.84 6.61 18.01 9.75 27.08.64 1.86 1.47 2.89 3.43 3.04a4.4 4.4 0 0 1 3.8 2.77c1.57 4.29 3.07 8.64 3.41 13.27.1 1.3-.08 2.72-1.2 3.26-2.2 1.08-1.77 2.63-1.23 4.34.33 1.07.8 2.11 1 3.2.6 3.3 1.27 6.24 5.83 4.35 1.1-.46 2.53-.2 2.86 1.45.9 4.36 2.89 8.44 3.3 12.95.24 2.61-.6 4.3-3.26 4.77-2.2.4-3.08 1.39-2.38 3.7.44 1.45.5 3.04.64 4.57.14 1.4.05 2.68 2.24 2.43 1.27-.15 1.52 1.06 1.52 2.33 0 7 .07 14-.65 20.97-.23 2.24.35 2.97 2.7 2.1a11.5 11.5 0 0 1 9.51.33c2.72 1.37 5.27.5 7.54-.8 8-4.62 16.62-7.87 25.06-11.51 1.73-.75 3.72-1.12 4.68-3.09.15-.3.7-.6 1.04-.58 6.97.4 6.75-5.57 8.17-9.66 1.5-4.3 2.15-8.9 3.6-13.28 1-3.03 2.53-5.62 5.08-7.53.86-.65 1.18-1 .55-2.11a8.5 8.5 0 0 1 3.71-11.98c.27-.13.83-.1.86-.23.75-3.6 3.6-6.1 4.83-9.43.32-.85.18-2.19-.77-2.45-2.61-.74-1.27-2.82-1.62-4.28-.22-.9.55-1.44 1.5-1.6 1.53-.24 6.77 2.19 6.97 3.66.29 2.2 1.52 1.34 2.5 1.1 9.03-2.32 18.13-3.92 27.5-3.54 2.87.12 2.97.13 1.56 2.51-.43.73-.21 1.06.08 1.59q1.62 2.91 3.2 5.89c.66 1.27 1.83 1.06 2.94 1.17 3.88.42 5.61 1.83 6.25 5.1.24 1.26.28 2.68-1.34 2.97-1.4.25-2.99.45-4.02-1.04-.1-.16-.03-.43-.13-.59-.85-1.18 0-3.42-1.27-3.81-1.78-.55-3.89-.3-5.83-.1a2005 2005 0 0 0-40.33 4.3c-1.27.15-2.21.65-2.13 2.36.12 2.47-1.41 4.8-.95 7.6 3.74-3.03 8.6-1.65 12.4-3.87 1.22-.71 2.75-.8 3.8-1.87.58-.6 1.52-.9 1.91-.32 1.78 2.67 3.67.62 5.3.08a65 65 0 0 1 19.63-3.37 18 18 0 0 1 4.58.54c4.66 1.1 4.89 1.15 4.69 5.91-.09 2.09.77 3.28 2.28 4.27 3.75 2.47 5.07 5.4 3.8 9.86-.79 2.72-1.08 5.16-.02 7.91.94 2.45-.9 4.94-3.52 5.4-.8.14-1.6.19-2.34.64-.44.28-1.38-.13-1.25.9.09.74.64.59 1.23.77 2.34.71 2.67 3 2.67 4.93 0 2-.57 4.04-1.23 5.95-.46 1.34-.7 2.98-3.2 2.7-1.92-.23-3.99 4.26-2.77 5.95 1.3 1.81.34 2.55-.86 3.48-3.09 2.38-6.75 3.38-10.47 3.78-5.69.62-11.5 1.39-17.12 1.06-5.79-.34-11.5.5-17.24.08-3.02-.23-5.83 1.46-8.68 2.42-.84.29-.58 1.26-.32 2.15a56 56 0 0 1 1.49 6.8c.07.48.93 1.43-.26 1.74-.9.24-1.23-.49-1.54-1.17l-4.29-9.53c-.42-.92-.7-1.93-1.6-2.54v.01l-4.15-8.9c-8.1 5.5-16.63 9.95-25.84 14.5l1.07-2.58c-.7-.9-1.4.96-2.15-.05 2.8-2.6 6.15-4.45 9.5-6.18 4.82-2.49 9.82-4.63 14.82-6.76 1.3-.56 1.39-.98.92-2.2-2.54-6.56-2.45-6.49-8.63-3.12-7.34 4.01-14.72 7.98-22.42 11.3-.81.35-1.6.7-2.18 1.56-2.75 4.09-7.18 5.28-11.86 3.41a12 12 0 0 0-4.9-.97c-3.47.1-3.6 1.93-3.8 4.43-1.29 15.71-3.73 31.25-6.69 46.72a221 221 0 0 0-3.27 23.2c4.44-1.97 8.72-3.6 11.67-7.44 2-2.6 4.87-4.38 7.88-5.13 9.45-2.34 14.15-8.86 16.97-17.54 1.29-3.97 3.13-7.75 4.8-11.6.5-1.13 1.08-1.93-.13-3.2-1.08-1.15-2.03-2.91.42-4.14.58-.29.75-1.4 1.08-2.14.8-1.82 2.5-1.48 3.71-1.08 1.17.38.63 1.7.24 2.65-.23.54-.66 1.04-.26 2.05 7.44-5.86 14.45-12.02 23.07-15.89l-.4-.8-12.99 4.93q-2.99 1.1-5.97 2.24c-.57.22-1.15.6-1.68.03-.48-.53-.24-1.2-.05-1.75.34-.97.86-1.73 1.86-2.3a192 192 0 0 1 15.57-7.94c.44-.2 1.1-.9 1.55-.05.34.64-.08 1.22-.63 1.56-2.25 1.43-4.53 2.83-6.62 4.61 3.2-.92 6.4-1.92 9.63-2.72.8-.2 2.18-1.38 2.54.15.27 1.16 1.28 2.51-.21 3.94-2.69 2.58-5.82 4.52-8.87 6.55a341 341 0 0 1-15.58 9.65c-2.01 1.18-2.99 2.78-3.72 4.92-3.02 8.73-6.2 17.41-10.64 25.58-2.83 5.22-7.21 8.57-12.7 10.42a24 24 0 0 0-6.74 3.54c-3.47 2.6-7.4 3.76-12.05 4.23 1.5 1.07 2.68 2.08 4 2.83 6.35 3.54 12 8.1 17.76 12.47a6 6 0 0 0 4.19 1.3c5.75-.24 11.5-.48 17.26-.57 4.23-.06 6.73 3.49 5.45 7.54-.55 1.72-1.45 3.28-.48 5.26.5 1-.39 1.84-1.68 1.99-3.26.38-6.49.22-10.18-.22 1.96-2.08 4.38-1.56 6.33-2.31 1.22-.47 1.31-.9 1.24-2.38-.21-4.12-2.68-3.93-5.49-3.73-.92.07-1.86.1-2.78 0-2.29-.25-2.97.15-2.23 2.8 3.47 12.31 4.57 24.86 2.59 37.58a35 35 0 0 1-5.5 14.54c-.4.6-.63 1.26-1.73 1.37q.57-5.09 1.15-10.07c.85-7.06.81-14.13.03-21.17-.76-6.9-1.8-13.74-2.59-20.63-.15-1.37-.6-2.03-1.76-2.84-8.2-5.85-17.36-10.15-25.66-15.83-3.2-2.2-6.15-4.57-4.18-9.18.35-.83-.34-1.32-.93-1.74a58 58 0 0 1-14.68-15.43 97 97 0 0 1-5.37 15.12c-.25.54-.4 1.2.34 1.61 1.9 1.04 2.8 3.25 5.15 4.24-.68-3.53-4-6.09-2.87-10 2.14.4 3.6 1.9 5.08 3.21 2.83 2.54 5.5 5.28 8.23 7.91.43.42.91 1.13 1.36 1.12 4.36-.12 2.32 2.81 1.6 4.08-4.39 7.71-8.83 15.43-14.96 21.96-2.79 2.97-2.89 2.97.23 5.63 5.49 4.68 10.41 9.9 15.15 15.33.83.95 1.5 1.94 1.75 3.19.25 1.27.17 2.54-1.02 3.28-1.08.67-1.9-.26-2.57-.93-1.43-1.42-2.01-1.17-3.05.64-2.5 4.33-5.89 8.05-9.22 11.76-1.87 2.07-4.45 2.61-6.7.67-1.13-.96-1.63 0-2.38.1-.59.09-.74.71-.53 1.23.37.9 1.24.43 1.89.58 9.5 2.24 17.55-1.72 25.61-5.89 3.13-1.62 6.04-4.23 10.04-3.34.2.05.38.17.63.29-1.16 4.4-5.48 5.83-8.7 8.96 6.7-1.68 12.33-4.4 18.03-7.32 5.2-2.68 2.66-6.21 2.58-9.64-.01-.39-.36-.78-.36-1.17 0-1.4-1.09-3.65.63-3.95 1.84-.32 4.3.77 4.6 3.13.63 4.94 1.92 9.78 2.04 14.8.03 1.8-.75 3.76 1 5.45.78.76-.19 1.9-1 2.6-.89.77-1.96 1.25-2.05 2.82-.05 1.06-.93.78-1.7.1-2.16-1.99-2.29-4.62-2.47-7.23-.11-1.6-.02-3.22-.02-5.51a48.6 48.6 0 0 1-23.52 12.27c-2.8.6-5.9 1.9-8.44.87-3.74-1.5-7.56-.34-11.15-1.35-2.52-.72-3.14.59-3.25 2.39-.24 4.29-1.3 8.43-1.91 12.65a2696 2696 0 0 1-2.59 17.22c-.06.4-.5.8-.42 1.13.38 1.67 1.36 3.46-.55 4.72-2.26 1.48-4.86 1.43-7.4.93-1.56-.3-3.03-1.08-4.9-1 7.9 11.19 15.65 22.23 23.46 33.22 2.94 4.15 6.08 8.17 9.04 12.3.97 1.35 1.67 2.86 3.69 2.77.21 0 .64.3.65.49.73 10.07 8.11 16.59 13.31 24.14 8.5 12.34 16.2 25.15 23.68 38.09 7.14 12.33 15.39 23.94 22.91 36 5.52 8.83 9.94 18.45 10.65 29.18.17 2.61-.25 5.31-.73 7.92-.82 4.48-.43 8.5 1.95 12.64 10.94 19.07 21.2 38.51 29.92 58.71 9.82 22.74 21.99 44.18 35.43 64.95 6.1 9.41 12.15 18.9 16.39 29.36.28.7.53 1.19 1.21.94 3.2-1.15 4.62 1.45 5.88 3.23 4.37 6.2 8.16 12.77 11.67 19.5 1.17 2.25 1.5 5.18-.38 6.27-1.68.97-3.6-1.47-4.96-3.1-4.31-5.24-7.39-11.2-10.27-17.29-1.07-2.25-2.06-3.12-3.96-.69-.86 1.09-2.16 1.83-3.71 3.08 2.44-.5 3.8.58 5.08 1.83 5.2 5.05 9.38 10.9 13.47 16.83 1.42 2.05 2.62 3.28 5.04 1.39a8 8 0 0 1 3.1-1.23c1.92-.44 3.5-.7 3.25-3.49-.18-1.83 3.41-3.09 5.37-1.96 4.22 2.4 7.7 5.72 11.14 9.1 3.09 3.01 5.5 6.6 8.53 9.92 2.55-6.43 5.93-11.98 11.23-16.23a12.6 12.6 0 0 1 7.2-2.98c4.52-.27 6.87 2.46 5.95 6.9a62 62 0 0 1-4.05 12.4 94 94 0 0 1-3.55 7.4c-.79 1.44-.36 2.1 1.02 2.32 9.54 1.58 19.06 3.18 28.74 3.83 8.81.58 17.76.6 26.28 3.54.94.32 1.65.35 2.6-.66a194 194 0 0 1 20.68-19.15c8.05-6.4 15.35-6.03 23.5-.3 2.14 1.5 4.27 3.17 5.42 5.86l3.2-2.98c.57-.52 1.13-.83 1.9-.21.72.58.76 1.15.21 1.8-1.08 1.32-.34 2.21.65 3.08 3.52 3.09 4.48 7.67 6.6 11.55.61 1.14.32 2.8-.74 4.3-5.63 7.87-12.4 14.67-19.42 21.24-11.47 10.73-22.78 21.62-34.89 31.62-6 4.95-12.37 9.31-20.6 9.67a24 24 0 0 1-9-1.46 3.9 3.9 0 0 0-3.95.62 198 198 0 0 1-8.28 5.76c-1.26.81-1.73 1.54-.9 2.93.4.69.55 1.53.74 2.33.62 2.59 2.03 4.66-2.14 6.59-6.21 2.88-11.7 7.31-17.5 11.08-9.87 6.43-19.53 13.21-30.15 18.46-1.53.76-3.2 1.09-4.72 1.92-1.05.57-2.5-.36-3.33-1.44a95 95 0 0 1-12.21-20.93 7.8 7.8 0 0 1-.02-5.68c.64-1.86.26-3.17-1.54-4.46-6.05-4.34-10.31-9.98-12.2-17.36-.8-3.16.47-5.77 1.19-8.81a13.5 13.5 0 0 1-5.86-2.32c-2.13-1.58-1.25-3.96-1.74-5.91-.58-2.3 2.43-4.71 6.8-5.91-2-2.97-3.76-6-5.91-8.74-3.93-4.98-7.12-10.43-10.16-15.92-1.71-3.1-4.81-3.79-7.07-5.83-1.08-1-2-2-2.6-3.2-1.29-2.61.2-4.9 3.05-4.99 1.13-.03 2.36.45 3.1-1.18.74-1.65-.42-2.26-1.23-3.08a330 330 0 0 1-22.66-25.18c-1.44-1.79-3.92-3.93-2.9-6.1 1.7-3.62-1.25-4.44-2.7-6.12-7.36-8.53-14.83-16.97-22.24-25.46-8.65-9.92-17.4-19.74-25.56-30.07-12.96-16.4-24.5-33.68-33.45-52.63-4.24-8.99-8.94-17.75-13.46-26.61a254 254 0 0 1-13.45-32.05c-3.19-9.18-6.82-18.23-9.45-27.56-1.27-4.46-3.79-7.5-6.73-10.63-8.5-9-18.46-16.32-27.8-24.35a351 351 0 0 1-30.9-29.65c-2.07-2.27-4.2-4.5-6.12-6.89-1.84-2.29-3.52-2.87-6.66-1.92-4.25 1.28-8.64 3.52-13.43 1.57-1.1-.45-2.36-.55-3.3-1.4-1.53-1.36-.53-2.05.7-2.67-.29-.4-.53-.85-.88-1.18a193 193 0 0 1-16.53-18.25c-2.58-3.25-3.7-7.31-6.53-10.35-.9-.97-1.55-2.19-2.46-3.16-.46-.5-.7-1.79-1.81-1.06-1.03.66-.73 1.5-.1 2.37.4.57.64 1.25.99 1.93-7.34 1.88-14.7.4-21.98-.01a123 123 0 0 1-28.44-5.28c-2.04-.62-3.83-2.1-6.12-1.87zm-55.6-356.83c-2.05-.64-3.18.4-4.2 2.03-2.25 3.62-4.64 7.16-6.96 10.73-.32.5-1.35.8-.47 1.74 2.27-2.09 4.08-4.54 5.9-6.98q2.83-3.8 5.72-7.55c.5 1.86 2.1 1.6 3.4 1.6 11.3.1 22.32 2.4 33.42 4.08 5.41.81 10.8 1.7 16.31 2.57-.17-.72-.44-.94-.9-1.05-13.4-3.23-26.9-5.92-40.72-6.92-3.86-.27-7.68.12-11.51-.25zm388.36 662.89c5.6 2.88 9.24 7.9 13.11 12.54 1.96 2.35 3.11 3.35 5.26.64-5.27-6.53-11.42-12.41-16.33-19.37-.76-1.08-2.89-2.6-3.16-2.39-1.6 1.26-4.1 1.7-4.48 4.23-2.56.05-3.9 2.29-6.12 3.27 3.06 2.72 6.32 4.9 9.45 8.39-.71-3-2.93-4.54-3.09-7.54 2.39 3.72 4.24 7.13 6.6 10.15 2.37 3.04 5.34 5.6 7.86 8.55.74.85.9 1.29 2.03.53 2.9-1.94 3-2.27.68-5.03l-11.82-13.97zM627.19 449.7a6 6 0 0 1-3.4-1.83 54 54 0 0 1-8.47-10.26c-1.72 2.53-3.21 4.84-4.82 7.06-.9 1.23-1.18 2.07.6 2.71a4.7 4.7 0 0 1 2.88 2.47 10 10 0 0 0-3.82-1.77c-.74-.17-1.52-.99-2.2-.19-.66.79-.3 1.82.14 2.6 1.77 3.25 3.82 6.24 6.87 8.53 1.35 1 1.98.78 3-.28 3-3.08 6.1-6.08 9.15-9.13 1.7-1.3 2.02-2.4.12-4.03-2.5-2.14-4.63-4.68-7.86-6.66.82 2.07 2.38 3.01 3.34 4.41 1.47 2.14 3.97 3.55 4.47 6.37m23.95-297.29c-1.96.08-3.64 1.1-5.5 1.54 4.47 9.75.68 17.16-9.03 17.84.26 2.63 1.65 3.32 4.17 2.77 4.28-.94 8.01-2.43 10.02-6.76.42-.9.73-2.14 2.05-2.68a9.7 9.7 0 0 1-2.6 7.93c-3.2 3.44-7.46 3.74-11.84 2.97 4.42 10.52 10.61 18.84 22.87 20.08-4.11-5.19-4.52-6.2.32-12.91a82 82 0 0 0 6.19-9.83q3.59-6.91 7.43-13.69c2.4-4.2 2.07-4.92 7.87-3.15a32.5 32.5 0 0 0-3.29-22.84c-1.36-2.4-2.17-2.44-3.78-.16-1 1.41-2.08 2.77-3 4.23-2.28 3.6-5.55 6.56-6.97 10.73-.24.72.38 1.85-.73 2.13s-1.52-.88-2.19-1.45c-.86-.74-1.2-2.2-2.94-1.24-2.99 1.65-6.1 3.08-9.16 4.6zM457.16 496.1h-.03c11.12 6.33 22.16 12.82 34.12 17.33 0-8.72 4.14-16.52 5.73-24.9-5 6.38-7.5 14.06-11.53 20.93.04-4.62 2.16-8.75 2.7-13.65-2.17 4.14-3.13 8.24-4.53 12.45-1.3-1.84-1.01-3.55-.62-5.25 1.16-4.9 3.14-9.5 5.17-14.09.78-1.77 1.4-3.63 2.24-5.37.52-1.08 1.48-1.78 2.79-1.33 1.32.46 1.07 1.43.8 2.52-.2.88-.04 1.85-.04 2.96 1.94-1.1 2.96-3.83 5.13-2.47 2.07 1.29 1.02 3.66.56 5.57-1.7 7.03-4.61 13.66-7.13 20.4-.86 2.3-.1 2.94 1.57 3.61 13.92 5.6 27.8 11.31 42.36 15.42l6.7-28.03c-4.1 5.58-7.27 11.45-9.01 17.98-.32 1.22-1.09 2.02-2.1 1.7-.77-.25-.35-1.41-.05-2.2.39-1.04.63-2.14 1.06-3.17 1.37-3.34 1.99-6.8 2.43-11.22-3.96 6.37-5.36 12.96-9.08 18.45 2-8.06 4.15-16 5.08-24.28-1 .75-1.3 1.84-1.76 2.84a121 121 0 0 0-6.19 16.21c-.4 1.4-.67 3.1-2.86 3.14-.07-.5-.26-1-.18-1.47 1.62-8.65 5.44-16.35 10.2-23.64a1.8 1.8 0 0 1 2.15-.77c1.15.4 1.37 1.5 1.23 2.57-.3 2.27-.71 4.54-1.07 6.8a50 50 0 0 0 3.6-6.68c.52-1.07.96-2.67 2.4-2.16 1.25.44.83 1.98.43 3a5.6 5.6 0 0 0-.32 2.74c1.2-.95 2.55-1.92 3.78-3.01.79-.7 1.62-.97 2.53-.59.84.35 1.05 1.15 1.09 2.05.12 2.69-.2 5.3-1.07 7.84-2.28 6.73-4.5 13.48-6.84 20.19-.55 1.6-.54 2.27 1.44 2.85 13.75 3.99 27.77 6.86 41.68 10.17 1.05.25 2.06.22 1.98-1.43-.17-3.52 1.3-6.85 1.46-10.33.23-4.5 1.94-8.86 1.34-14.16-4.05 7.71-6.32 15.43-10.03 22.5.35-5.57 3.04-10.52 4.11-16.56-2.22 3.53-3.02 7.07-5.68 10.61 2.3-7.28 5.13-13.38 7.56-19.65.48-1.24 1.6-2.68 2.61-1.6.94.99 1.15.7 1.9.22 1.77-1.14 2.52.08 2.77 1.49.25 1.29.22 2.69.02 4A192 192 0 0 1 584.4 542c1.68.4 3.34.84 5.02 1.15 5.38 1.01 10.64 2.68 16.14 3.05 1.45.1 2.94.18 2.82-1.99-.27-4.84.03-9.68.7-14.44.82-5.95.85-12.28 5.66-16.62-.76-2.46-6.94-.15-4.27-5.39-.18-.08-.42-.13-.53-.28-1.43-1.92-1.08-3.23 1.32-3.56 4.8-.65 8.4-3.05 11.5-6.63a36 36 0 0 1 5.45-5.01c2.22-1.67 1.82-2.9-.14-4.34-4.11-3.02-8.53-5.74-12.13-9.28-2.75-2.7-4.65-3.45-7.73-.85-1.23 1.02-2.82 1.67-4.77-.07-3.3-2.91-7.36-5-10.74-7.76-5.08-4.17-10.05-6.84-16.59-3.9a1 1 0 0 1-.3.02c-1.27-.2-3.41.63-3.61-.5-.32-1.85 2-1.53 3.18-1.92 7.57-2.55 14.82-5.66 20.84-11.08 9.89-8.93 15.6-20.38 20.27-32.6 1.44-3.77 1.07-6.67-.81-9.9-1.95-3.35-3.79-6.86-4.1-10.76-.2-2.5-.7-2.79-3.08-2.14-7.36 1.98-14.55 4.49-21.82 6.71-1.14.35-2.62.95-3.3-.45-.67-1.39 1.18-1.59 1.7-2.4.99-1.6 3.64-2.9 1.98-5.3-2.15-3.11-4.66-5.99-6.94-9.01-.64-.86-1.13-1.17-2.28-.79-8.64 2.86-17.7 3.46-26.63 4.67-5.65.76-11.3 1.56-16.96 2.23-4.87.57-9.76 1.02-14.65 1.45-.59.05-1.57.46-1.76-.63-.14-.82.52-1.29 1.1-1.7.7-.49 1.47-.6 2.3-.76 7.3-1.33 14.56-2.88 21.87-4.08 9.34-1.53 18.55-3.84 28.03-4.56 4.27-.33 4.25-.38 3.32-4.84-.14-.7-.2-1.46-.09-2.15.31-1.95-.64-3.2-1.92-4.54-6.65-6.94-14.35-12.56-22.14-18.08-3.73-2.65-7.8-4.85-10.74-8.5-.53-.68-1.78-1.38-.75-2.26.85-.73 2.05-1.07 3.33-.11a50 50 0 0 0 6.19 3.97c12 6.48 22.44 14.89 31.54 25.35a123 123 0 0 1 8.05-13.6c1.6-2.37 3.31-3.55 6-1.02 3.6-13.02 5.09-26.16 9.34-39.5-3.54 3.07-4.87.65-5.94-1.35-5.44-10.13-10.88-20.27-16.66-30.23-2.75-4.74-5.7-9.41-7-14.97-.91.72-.1 2.24-1.42 2.03-.89-.14-1.04-1.15-1-2.01.34-6.55 1.22-12.98 3.64-19.14.17-.45.84-.96.16-1.62-.63-.6-1.1-.14-1.64.09-8.31 3.42-17.12 5.11-25.77 7.34-13.51 3.48-26.96 7.23-40.6 10.22-4.35.96-8.92 1.47-12.92 3.74-.51-.03-1.07-.23-1.53-.1-7.38 2.23-14.74 4.53-22.14 6.69-1.27.36-1.18 1.1-1.37 2-1.2 5.67-2.09 11.41-4.14 16.84A3087 3087 0 0 1 452 330.3c-.68 1.73-.85 2.87 1.33 3.36 1.99.45 2.98 1.76 3.49 3.76.61 2.38 1.37 4.7 1.14 7.19-.14 1.54.78 1.87 1.86 1.5a35.6 35.6 0 0 0 15.64-10.52c-3.18.34-3.78-1.2-3.9-3.48-.17-3.16-.28-6.37-.74-9.45-.55-3.66 1.17-5.6 3.69-7.35a10 10 0 0 1 3.28-1.56c1.87-.45 2.34-1.26 1.9-3.18-1.19-5.11-1-10.36-1.4-15.56-.38-5.05 1.49-8.43 5.56-10.96 1.39-.87 2.7-1.87 4.17-2.59 1.58-.77 2.39-1.87 2.98-3.57.78-2.26 1.01-4.85 3.04-6.56 2.06.52 1 2.18.87 3.14-.27 1.98-1.81 4.04-1.47 5.81.9 4.7-2.74 6.17-5.11 8.68-1.57 1.65-4.6 2.76-4.2 5.3.66 4.23.4 8.41.39 12.61 0 2.02.67 2.94 2.5 3.31 2.66.53 5.19 1.38 6.94 3.59.66.82 1.79 2.03.9 2.96-2.91 3-2.8 7.11-4.26 10.63-2.08 5.04-4.2 10.01-7.24 14.6-1.61 2.42-2.61 5.28-3.71 8.01-1.41 3.48-4.75 5.66-6.1 9.07a25.5 25.5 0 0 1-5.89 9.16c-3.61 3.5-3.86 7.25-1.06 12.83 6.94-9.77 12.35-20.4 17.27-31.24 8.22-18.13 16.6-36.17 26.06-53.7.6-1.12 1.26-2.48 2.69-1.82 1.26.59 3.07 1.06 2.92 3.13-.08 1.01-.05 1.99-.34 3.02-1.72 6.2-4.47 12-7.2 17.76-6.46 13.57-13.05 27.08-20.34 40.24-5.79 10.44-12.36 20.36-20.8 28.92-2.03 2.05-2.68 6.13-1.35 8.71a120 120 0 0 0 18.8 26.44c9.18 9.9 20.06 17.9 30.29 26.64 1.32 1.13 2.6 1.19 4.17.56 9.75-3.86 20.05-5.62 30.26-7.7 2.64-.54 4.21 1.14 3.97 2.8-.34 2.4 1.22 2.21 2.29 2.72 4.04 1.89 8.14 3.66 12.2 5.52 1.6.73 2.58 2.27 2.37 3.8-.26 1.86-2.16.7-3.28.93.66 1.66 1.33 3.23 1.93 4.83.57 1.5-.1 2.87-1.38 3.32a5.1 5.1 0 0 1-5.67-1.33c-1.4-1.56-3.26-3.67-1.86-5.64 2.19-3.1.04-3.17-1.9-3.8-1.26-.41-2.6-.75-3.68-1.47-1.9-1.26-4.7-1.63-5.24-4.32-.4-1.97-1.6-1.44-2.58-1.09-7.8 2.82-15.7 5.42-23.3 8.72-4.27 1.85-7.75 1.15-11.13-1.27-8.37-5.96-16.4-12.38-23.53-19.78-1.78-1.85-2.9-2.28-5.3-.74-6.35 4.09-13.54 6.48-20.52 9.26-2.15.85-3.92 1.81-3.16 4.53.6 2.11.57 4.25.62 6.4.09 3.94 1.03 7.25 5.85 7.71 1.07.1 2.08.81 3.1 1.26l26.59 11.7c-1.58-4.69-3.03-8.87-4.35-13.1-.23-.74-1.64-1.8-.38-2.29 1.2-.45 2.88-1.64 4.14.2.52.77 1.06 1.51 1.5 2.32 1.68 3.15 3.63 6.2 4.92 9.5 2.06 5.27 6.07 7.83 11.14 9.55 9.97 3.38 20.22 5.9 30 9.83 2.06.83 4.48 1.18 6.48 4-5.15-1.82-9.66-2.72-14.16-3.66-12.04-2.54-23.6-6.71-35.11-10.93a317 317 0 0 1-35.3-15.15c-.99-.5-2.13-2.39-3.17-.51-.8 1.46-2.41.19-3.4 2.04-3.8 7.06-8.22 13.79-12.58 20.53-.8 1.25-.27 1.7.5 2.07 3.85 1.85 7.46 4.16 11.5 5.61zm105.12 157.2c1.23 2.12 3.4 3.06 5.03 4.62 8.5 8.2 17 16.42 25.73 24.4 2.8 2.56 5.5 5.27 8.36 7.78a230 230 0 0 1 30.21 32.04c5.94 7.63 9.05 16.9 12.66 25.78 7.7 18.9 15.2 37.9 24.2 56.23a347 347 0 0 0 34.76 56.3 1134 1134 0 0 0 32.37 40.6c5.55 6.7 11.39 13.17 16.15 20.5 2.96 4.55 2.97 4.7 7.2 1.69 8.03-5.7 17.08-9.56 25.58-14.4 3.8-2.17 3.81-2.22 1.5-6-5.65-9.25-10.5-18.96-16.35-28.09-6.1-9.48-12.23-18.97-17.51-28.92-7.5-14.13-14.49-28.52-21.86-42.7-8.45-16.24-16-32.93-24.58-49.1-1.44-2.73-2.9-5.54-3.34-8.83-.75-5.62-1.94-11.2-2.83-16.8-1.42-9.01-6.22-16.74-10.8-24.4-5.41-9.08-11.94-17.48-17.2-26.7a530 530 0 0 1-14.93-28.01c-7-14.2-17.93-25.92-25.04-40.44-9.33 10.75-20.6 18.66-32.45 25.84a265 265 0 0 1-36.86 18.6zm95.57-566.07c-2.92 4.12-5.7 7.5-9.23 10.18-4.14 3.14-8.46 5.62-13.81 6.54-2.04.35-3.04-.47-3.44-1.32-.7-1.5.22-2.67 2.11-2.85.87-.09 2.05-.3 2.41-1.17 1.86-4.36 3.95-8.65 5.04-13.33-1.27 1.38-2.23 2.97-3.45 4.3-1.13 1.25-2.5 3.03-3.86.03-.52-1.13-1.74-.84-2.76-.86-5.45-.1-10.85.69-16.2 1.4-12.77 1.71-25.43 4.2-38.38 4.17-.93 0-1.98-.14-2.16 1.13-.4 2.9-2.78 3.54-4.94 4.39-1.99.79-4.03 1.47-6.04 2.19q1.2.4 2.19.1c2.1-.63 4.88-1.16 6.1.1.85.88-.53 3.8-1.88 5.47.92.41 1.68.05 2.49-.09.72-.12 1.5.07 1.14 1.19-.69 2.09.69 4.06.29 6.25-.2 1.09.26 2.58.42 3.9.15 1.28-.01 1.98 1.89 1.07 9.93-4.76 18.05-3.46 24.5 3.65 1.98 2.19 3.2 4.91 4.66 7.47 2.3-2.76 3.96-6.01 6.93-8.25 1.46 1.52 2.2 3.1.76 4.9-1.9 2.41-3.73 4.9-6.07 6.94-1.13.98-1.92 1-3.12-.02a29 29 0 0 1-6.35-7.63c-.86-1.52-1.77-3.02-3.7-3.9-3.44-1.58-6.8-1.2-10.17-.34-7.2 1.84-11.5 9.25-10.35 15.63 1.39 7.82 6.18 12.29 12.66 15.77 2.1 1.12 3.23.7 4.26-1.42 2.72-5.55 8.1-5.68 12.6-3.86 1.88.75 2.57.5 3.78-.68 4.14-4.1 9.31-5.22 14.91-4.66 5 .5 8.99 3.28 12.74 6.33 2.91 2.37 6.58-.65 9.46 1.52.01.01.27-.26.37-.43 3.42-5.14 8.89-7.06 14.4-7.13 5.75-.06 8-3.24 10.05-7.46.17-.35.48-.63.76-.98-2.72-.48-2.84-2.42-2.9-4.48-.31-9.6 2.2-18.77 4.04-28.06.43-2.2 2.43-4.21 2.29-5.98-.28-3.27-1-6.72-3.02-9.64-1.5 3.07-2.98 6.17-4.54 9.23-.75 1.47-1.61 2.96-3.65 2.71-1.88-.23-2.34-1.9-2.56-3.27-.41-2.65-.44-5.35-.67-8.75M967.32 953.1c-.28.13-.5.17-.61.3-15.6 15.86-31.98 30.87-48.72 45.49-6.58 5.73-13.12 11.35-21.2 15.39-12.1 6.05-24.71 9.61-37.9 11.74-6.24 1.01-12.27 2.65-17.88 5.79-9.15 5.12-16.36 12.51-23.82 19.65-1.12 1.07-.7 1.81-.04 2.91 2.8 4.72 5.56 9.48 8.16 14.32.8 1.49 1.34 1.86 2.9.91 4.76-2.9 9.71-5.52 14.45-8.45 10.88-6.74 21.06-14.64 33.1-19.37 1.13-.45 1.3-.94.95-2.29-1.7-6.43-.68-8.53 5.15-11.62l1.05-.61c5.01-2.81 10.11-5.44 15.67-7.04.74-.21 1.38-.64 1.78.3.35.78.05 1.38-.73 1.76-.44.21-.98.36-1.1 1.14.6.03 1.17.11 1.74.08.5-.02 1-.16 1.5-.25 6.82-1.27 12.05-5.44 17.06-9.75a2084 2084 0 0 0 38.82-34.03c5.38-4.86 10.53-10.08 13.94-16.67.3-.6 1.1-1.02.36-1.84-2.1-2.28-3.12-5.23-4.63-7.86M361.3 489.65c1.52.4 3.15-.55 4.88-.67 1.17-.07 2.01-1.02 1.98-2-.1-3.43 1.48-6.3 2.62-9.34 4.21-11.19 8.34-22.41 11.45-33.97 1.8-6.7 4.91-12.97 6.3-19.8.33-1.66.24-2.57-1.84-2.22-8.9 1.5-16.73-1.22-23.8-6.4-4.88-3.55-4.79-3.67-6.97 1.8-.07.2-.07.42-.15.6-5.9 14.17-12.73 27.95-17.43 42.62-.8 2.48-.71 3.72 1.55 5.1 2.76 1.68 2.43 2.58.79 5.29-1.43 2.34-3.21 2.45-5.4 2.28-.85-.07-1.6.01-2.1.9-.56 1-.21 1.74.43 2.5 1.19 1.4 2.14 3.12 3.58 4.13 7.17 5 14.8 8.93 24.1 9.18zm274.06-303.88c-.19-.57-.28-1.07-.5-1.5-2.2-4.1-4.79-8.07-4.83-12.98 0-.26-.17-.61-.38-.76-4.92-3.3-9.9-6.5-16.06-6.9-.63-.04-1.33-.25-1.53.92-.95 5.67-7.96 7.67-12.76 6.04-5.75-1.95-10.1-5.22-11.3-11.54-.2-1-.7-1.48-1.6-1.55-1.22-.1-.86.91-.89 1.53a12.6 12.6 0 0 1-2.63 7.42 88 88 0 0 0-10.44 16.73l-.41.74c14.56 4.24 28.33 10.27 41.68 17.42 1-3.6 2.07-6.98 3.19-10.36 1.03-3.09 3.03-3.89 5.76-4.52 4.15-.97 8.36-.27 12.7-.7zM431.11 405.26c-1.98 5.32-4.55 6.12-8.2 2.89-.86-.76-1.7.27-1.96 1.24a37 37 0 0 1-5.25 11.3c-1.66 2.43-1.61 4.13.37 6.32 2.32 2.55 1.29 7.55-2 8.48-4.69 1.32-5.43 4.99-6.27 8.68-.28 1.2-.4 3.29 2.26 2.3 12.19-4.61 24.5-8.86 37.13-12.13.66-.18 1.9.03 2.05-.99.64-4.52 3.42-8 5.51-11.83.6-1.08.48-1.74-.92-1.78-3.7-.1-7.19-1.26-10.55-2.57-5.3-2.06-11.2-3.7-12.17-11.91m284.08-48.9c6.06-3.44 12.12-6.53 19.24-3.33-.82-3.18-1.59-5.9-2.24-8.65-1.46-6.21-1.62-12.73-3.89-18.7-.95-2.5-.46-4.35 1.1-5.68 3.03-2.58 4.98-5.92 7.33-8.99 3.1-4.03 3.2-4.25.98-8.97-.4.36-.74.74-1.15 1.03-3.29 2.42-6.66 4.87-10.98 4.6-3.3-.19-4.75.42-5.77 3.52-1.02 3.09-1.36 6.3-1.9 9.48-.5 2.85-.25 5.88-2.02 8.48-2.12 3.11-4.06 6.34-6.09 9.5-.6.95-1.04 1.71-.31 2.96 2.65 4.53 4.17 9.55 5.7 14.75M456.08 395.7c2.54-2.65 3.46-6.12 4.76-9.45.35-.9 1.34-1.5 2.54-1.13.77.23 1.1-.34 1.33-.95.23-.65-.26-.87-.66-1.2-1.27-1.04-2.37-2.1-2.8-3.87-1.4-5.59-1.8-10.9 2.88-15.32.35-.33.87-.69.5-1.29-.34-.53-.9-.31-1.4-.31-1.44 0-3.06.43-4.29-.08-2.29-.96-2.87.21-3.75 1.88-2.32 4.38-5.76 6.85-11.06 6.34-1.88-.18-3.85.3-5.76-.08-1.57-.3-2.05.68-2.66 1.83-.78 1.49.38 1.62 1.16 2.18a5.8 5.8 0 0 1 2.63 5.48 33 33 0 0 1-2.6 10.94c-.71 1.68-.4 2.45 1.06 3.49a99 99 0 0 0 18.46 10.19c4.58 1.96 5.03 1.75 5.92-3.1.45-2.4.57-4.43-2.21-6-1.91-1.07-2.26 1.87-4.04.45zm287.95-94.36c1.01 3.44.83 6.7-1.61 9.7-1.8 2.2-3.23 4.72-4.93 7.01-2.34 3.16-2.6 4.73-1.37 8.25 2.85 8.18 4.16 16.7 5.33 25.24.12.86-.23 1.94 1.23 2 4.6.2 9.2 1.18 13.8.41 3.44-.58 7.28-.4 9.66-3.75.86-1.22 2.53-2.71-.83-2.99-1.25-.1-2.47-.87-3.75-1.26-2.94-.89-3.63-4.06-1.5-6.33 2.27-2.4 5-4.12 8.06-5.36 1.12-.46 2.34-.83 2.82-2.17.3-.82.24-1.72-.8-1.3-2.08.83-4.85.56-6.04 3.01-.91 1.9-2.5 3.01-4.13 3.95-4.98 2.87-10.27 3.39-15.4.58-4.92-2.7-7-7.36-6.76-12.79.3-6.99 4.03-12.1 10.1-15.3 5.77-3.03 11.1-.74 16.13 2.22 1.65.98 2.98 2.55 2.5 4.87-.16.72-1.23 1.99.5 2 .8 0 2.12 0 2.32-1.75.76-6.71 1.78-13.4 2.7-20.1-9.4.38-18.36 3.93-28.04 3.86zM218.1 444.17c-2.84 1.4-2.51 3.59-1.26 5.69a52 52 0 0 0 4.32 6.28c2.28 2.83 5.15 3.85 8.6 3.82q4.02-.06 8.04 0c4.62.06 8.88-1.3 12.6-3.87 8.85-6.09 15.64-13.9 19.62-24.02 2.08-5.32 5.2-10.2 10-13.27 6.17-3.97 12.66-2.5 18.93.58 1.04.51 2.18 2.73 3.52.77 1.21-1.77-.47-3.1-1.65-4.14a13 13 0 0 0-5.18-2.52c-3.09-.85-6.1-.44-9.13.08-5.4.92-10.36 2.7-14.45 6.66-6.22 6-11.5 12.76-16.74 19.61-5.07 6.64-10.87 12.4-18.66 15.97-5.46 2.5-9.5 1.16-12.48-3.05q-3-4.24-6.09-8.57zm95.82-27.21c0-4.45-3.64-8.18-.82-12.38.12-.19-.19-.77-.41-1.08-1.14-1.58-.7-2.4 1.06-3.22 2.35-1.12 2.59-3.2.93-5.37-1.57-2.05-1.07-3.86 1.01-5.43 1.41-1.06 3.7-.39 4.48-2.57 1.03-2.87-2.4-2.5-2.96-4.24-.33-1.03-1.32-1.84-.74-3.1.58-1.27 1.59-1.78 2.88-1.88.6-.05 1.25-.1 1.85 0 1.87.3 2.65-.56 3.22-2.3.7-2.19-1.15-1.72-1.97-2.18-2.7-1.52-3.53-4.07-1.64-6 1.57-1.6 3.42-3.16 5.8-3.07 2.52.09 3.04-1.87 2.58-3.11-.56-1.54.82-1.53 1-2.28-1.74-1.16-4.3-1.72-4.13-4.34.18-2.62 3.4-5.1 5.94-4.4 2.07.55 2.43-.39 2.94-1.8.44-1.24.97-2.46 1.48-3.67.32-.77.38-1.74-.67-1.42-3.52 1.06-7.79.46-9.79 4.95-3.51 7.88-7.36 15.6-10.41 23.69-3.16 8.33-6.73 16.52-9.36 25.04-.95 3.12-2.24 6.61-.97 9.54 1.79 4.1 4.9 7.55 8.72 10.64zm289.72-105.71c2.3-11.44.94-22.73-4.4-32.9-5.2-9.9-10.43-20.23-20.91-26.38-.8 2.95-1.53 5.57-2.2 8.21-.67 2.6-1.96 5.1-1.6 8.22 5-3.59 5.87-3.5 9.93.93a44 44 0 0 1 6.54 9.9c5.23 10.3 9.25 21.08 12.64 32.02m2.45 46.63c3.3-.46 7.23-1.03 11.16-1.56 1.46-.2 2.28-.99 2.75-2.38 1.57-4.7 2.86-9.46 4.04-14.27.86-3.45-.8-3.19-2.71-2.77-5.52 1.22-10.99 2.67-16.49 3.98-1.35.32-1.87.96-2.2 2.4-.74 3.37-1.13 6.83-1.94 10.13-.8 3.2.2 4.04 2.92 4.27zm175.7 591.05-.64.56c-.69-.43-1.5-.74-2.03-1.32-4.48-4.9-9.07-9.75-11.82-15.92-.46-1.03-1.9-2.35-.2-3.48 1.46-.95 2.9-.61 4.22.59 1.66 1.5 3.43 2.9 5.15 4.33l.29-.33-5.29-9.2c-3.9 2.4-7.81 5-12.11 6.82-2.02.86-1.58 1.45-.5 2.72q5.03 5.99 9.92 12.09c4.01 5 7.98 10.06 11.92 15.03 1.98-2.67 3.68-5.52 6.16-7.65 2-1.74 1.42-2.86-.24-4.26a44 44 0 0 1-4-3.84q-6.18-6.72-12.33-13.48c2.7 6.53 8 11.36 11.5 17.34m-372.5-491.5c24.03-10.15 48.86-18.1 73.73-26.13-1.3-2.4-2.7-3.44-5.14-1.74-.96.67-2.24.94-3.4 1.27a2062 2062 0 0 0-59.4 17.8c-6.06 1.93-6.06 1.96-6.05 8.16 0 .17.13.34.25.65m-39.37-54.24c-4.11-.8-4.16 2.53-5.5 4.45-.77 1.1-.35 1.6.59 2.16a53 53 0 0 0 16.8 6.81c1.4.3 3.18 1.6 4.26.16 1.3-1.7.82-3.95.01-5.85-.55-1.32-1.72-2.11-3.21-2.58-1.04-.32-2.4-.49-2.85-1.97-1.75-5.63 2.67-11.37 8.42-10.84 2.09.2 1.86-1.4 2.12-2.64.18-.91.82-1.9-.84-2.25a155 155 0 0 1-11.26-2.63c-1.28-.38-1.76.01-2 .95-.8 3.11-1.93 6.34-.68 9.47.93 2.31-.09 3.16-1.79 4-1.42.69-2.95.69-4.07.76m395.02-83.47c-3.78-5.62-7.4-10.93-15.26-8.1-4.85 1.76-7.89 6.8-7.59 12.73.28 5.71 4.87 11.62 10.08 12.98 4.34 1.14 8.5-.58 11.02-4.54-6.36.88-12.53 1.11-16.82-4.98-.45-.66-1.8-1.23-.65-2.23.8-.71 1.33.5 2.04.67.8.2 1.39 1.98 2.35.61 1.69-2.4 4.15-3.51 6.65-4.68.15-.08 1.88.42.7-1.1-1.39-1.78 1.26-2.39 1.6-3.77.08-.33 1-.49 1.35-.04.9 1.12-.21 2.08-.37 3.13-.02.18.04.38.07.69zm-435.5 148.96c-1.92-.14-3.48.11-3.98-1.54-.83-2.78 2.37-6.61 5.4-6.62.8 0 1.94.87 2.11-.78.2-1.96 1.99-3.7.81-5.8-.19-.34-.94-.65-1.32-.56-4.35 1.19-8.2-.4-11.99-2.18-.91-.43-1.11-.3-1.3.63-1.3 6.05-3.51 11.92-4.08 18.12-.38 4.17 2.98 6.42 7.14 5.6 3.9-.75 4.43-4.48 7.22-6.87zM769.3 286.54a21 21 0 0 1-4.36-6.15c-.59-1.36-1.75-1.18-2.89-1.04-9.52 1.2-18.94 3.07-28.52 3.77-.83.07-1.23.26-1.6 1-1.09 2.24-2.28 4.43-3.67 7.09 13.7-3.16 27.19-3.72 41.04-4.68zM453.75 432.47c6.9-1.62 13.45-3.18 20.01-4.68 4.98-1.13 5.18-1.23 2.1-5.23-4.25-5.5-7.75-11.44-11.06-17.77-.79 1.02-1.24 1.52-.38 2.67a10.3 10.3 0 0 1 2.15 7.72c-.21 1.37-.1 3.1-2.86 3.2-1.47.06-4.28.43-5.25 2.91-1.45 3.68-3.59 7.06-4.72 11.17zm-3.59-97.5c-1.66 4.47-3.2 8.74-4.83 12.96-1.97 5.11-4.02 10.18-6.05 15.26-.38.94-1.22 2.14.74 2.03 2.46-.14 4.64.7 6.82 1.55 1.9.74 2.45.36 2.55-1.74.25-5.4.79-10.8 1.18-16.2.08-.99.45-2.04 1.28-2.32 2.77-.95 1.9-2.78 1.44-4.68-.58-2.41-1.74-4.52-3.13-6.86m-109.2-29.69c4.48.06 9.13-4.53 9.37-8.3.3-4.71.85-9.24 5.98-11.68 1.94-.93.75-3.24-.07-4.32-.87-1.15-1.59.6-2.24 1.17-3.32 2.85-5.24 6.76-7.2 10.5-4.44 8.55-7.74 8.54-14.63 4.22-.52-.33-1.15-1.01-1.9-.52-.83.55-.42 6.15.5 6.43 3.58 1.1 7.18 2.16 10.18 2.5zm90.67 71.04c-1.73 4.68-3.53 9.31-5.17 14-1.24 3.53-2.79 6.95-3.15 10.76-.3 3.17 2.5 2.37 3.92 3.2 1.72 1 1.36-1.07 1.63-1.63 1.73-3.46 3.67-6.91 4.67-10.6 1.41-5.25 4.91-10.98-1.9-15.73m169.32 78.5c-3.33 3.36-6.48 5.51-10.04 6.99-2.48 1.02-1.67 2-.1 3 3.67 2.32 7.4 4.55 11.08 6.88.97.61 1.63.48 2.4-.26 2.08-1.98 4.15-3.96 6.31-5.84 1.47-1.26.5-1.58-.6-1.9a25 25 0 0 1-5.55-2.5c-2.13-1.25-4.14-2.57-3.5-6.38M523.87 51.25c-5.4-1.25-6.55-.95-8.47 4.03a201 201 0 0 0-7.18 22.55c-.23.9-1.35 2.02-.16 3.11.67.62 1.4 1.78 2.2 1.43a4.8 4.8 0 0 0 2.77-3.51c1.84-9.8 6.07-18.66 10.85-27.63zm102.46 98.78c0 3.78.15 6.93-.08 10.06-.08 1.12.14 1.74.98 2.2 1.94 1.07 3.3 2.77 4.83 4.28 2.91 2.87 6.44 3 9.5.17 1.4-1.32 2.78-2.78 1.76-5.05-1.04-2.3-4.86-4.46-7.6-4.24-2.48.2-.82 2.59-1.87 3.59-.24.23-.07.83-.27 1.17-.18.31-.56.66-.9.7-.7.08-.77-.54-.74-1.04.17-1.97-.79-3.78-.69-5.78.16-3.07-2.18-4.32-4.93-6.06zm-166-124.14c9.17-4.64 17.65-9.77 27.6-11.56-7.7-7.1-23.27-.12-27.6 11.56m-58.55 300.83c3.92-3.59 4.38-8.91 6.32-13.5 2.03-4.8 3.94-9.66 5.95-14.47 2.06-4.9 4.2-9.76 6.25-14.67 1.95-4.64 3.83-9.31 5.75-13.96l-.78-.3c-8.33 18.72-18.35 36.73-23.49 56.9m374.69-5.55c-6.88 1.31-13.34 4.25-19.99 6.59-1 .35-2.67.82-1.95 2.5.63 1.48 2.01 1.04 3.23.76 4.37-1.02 8.77-1.88 13.08-3.1 2.48-.7 5.34-.6 7.2-3.1.78-1.07 1.55-2.02 1.1-3.26-.58-1.67-1.7.47-2.68-.4zM355.8 496.54c2.56.33 4.94-.8 7.41-.62 1.12.08 1.38-.67 1.27-1.6-.21-1.85-1.19-.27-1.75-.3-.66-.04-1.35.52-2.03.53-11.94.2-21.6-4.17-28.36-14.28-.5-.74-.55-2.4-2-1.67-1.05.53-1.3 1.87-1.03 3 .18.76.7 1.49 1.2 2.11 6.48 8.16 15.19 11.9 25.3 12.82zm419.16 428.99c4.6 8.15 10.37 15.4 15.56 23.11 4.03-3.59 3.95-3.55 2.4-5.78-4.81-6.98-11.23-12.32-17.95-17.33zm-95.01-760.94c-4.66 8.88-9.4 17.72-14.84 26.14l-.7-.32 10.46-21.98c-4.61 5.04-7.39 11.1-10.72 16.85-1.77 3.06-1.9 5.44.65 8.13 6.76-8.75 12.8-17.8 15.15-28.82M302.99 389.78c3.94-11.98 7.08-23.64 12.32-35.27-7.8 6.59-14.4 21.62-12.32 35.27m148.76-198.74c-.72.03-.94.56-1.2 1.12-2.24 4.74-4.57 9.44-6.68 14.23-.21.48-1.78 2.34.15 2.19 1.57-.12 3.54 2.54 4.9-.51 1.84-4.18 3.92-8.25 5.9-12.36 1.36-2.8 0-4.87-3.08-4.68zM574.35 19c-12.23-4.78-34.94 5.65-40.74 19.86 5.57-5.86 11.32-10.93 18.07-14.72C557.31 21 563 18.11 569.8 20.7c1.7.65 3.36-.14 4.54-1.7zm32.97 146.64c-3.68.81-7.36-1.55-8.82-5.17-1.91-4.81.4-6.6 4.65-9.53-4.53-.66-7.63 1.52-10.17 7.34-1.15 2.63.23 4.45 2.18 6.02 4.12 3.34 8.55 3.97 12.16 1.35zM410.75 330.96c-.87-1.28-1.65-1.88-3.17-1.2-1.55.71-3.27 1.05-4.94 1.5-6.34 1.74-12.69 3.42-18.67 6.27-1.93.91-1.13 2.1-.77 3.12.6 1.7 1.67.44 2.4.03 1.69-.94 3.2-2.07 5.1-2.7 6.7-2.22 13.3-4.64 20.04-7.02zm63.31-235.4c8.66 3.57 20.5-.72 22.84-7.96a39 39 0 0 1-8.44 4.22 24 24 0 0 1-9.34 1.3c-.51-.03-1.17-.08-1.38.45-.66 1.69-2.11 1.81-3.68 2zM435.1 396.5q-3.6 8.52 4.31 12.4c.27.14.58.2.84.37.61.38 1.31.92 1.94.38.84-.72-.02-1.44-.24-2.18-1.26-4.2-3.82-7.56-6.85-10.97m170.89-240.7c.44 1.3-.45 4.07 2.17 3.42 2.57-.63 6.6.77 7.38-2.65.43-1.85-.39-5.19-2.92-6.4-1.28-.61-6.68 4.22-6.63 5.63m251.05 778.74c-5.09 4.63-7.92 10.5-10.15 16.75-.34.97-.17 1.49.8 1.89.78.32 1.52.88 2.06-.17 3.08-5.9 5.87-11.92 7.29-18.47M483.91 315.35c1.59 1.32 1.43 2.71 1.37 4.16-.13 3.23-1.53 6.07-2.52 9.04-.42 1.24-1.32 2.47.7 3.18 1.91.67 2.6-.38 2.98-1.94.84-3.46 1.7-6.92 2.49-10.38.98-4.32.96-4.32-3.44-4.25-.31 0-.62.07-1.58.2m-56.25 10.96c-1.51.38-3.17.9-4.86 1.2-.82.16-1.4.32-1.41 1.23-.03 1.29.96.69 1.54.76 5.27.62 10.5 1.38 15.31 3.79.83.4 1.53.7 2.12-.25.64-1.02-.22-1.43-.8-1.98-3.3-3.1-7.53-3.86-11.9-4.74zm194.57 105.4c0 .38-.1.72.02.94 1.52 2.87 3 5.77 4.65 8.57 3.04 5.16 3.09 5.13 7.14.76.1-.1.07-.32.08-.48-4.03-3.16-7.56-6.88-11.89-9.8zM499.26 257.05l-.31-.92c-7.8 2.32-15.74 4.12-23.13 7.71a1 1 0 0 0-.26.17c-.53.43-1.47.75-1.16 1.56.34.9 1.3.95 2.12.62q11.4-4.55 22.74-9.14M310.65 425.92c.85-.56 2.26.58 2.98-.45 1.46-2.07 1.1-4.61.54-6.77-.21-.82-2.64-1.06-4.04-1.61-.67-.27-.56.24-.66.57-.54 1.94-1.73 3.63-2.69 5.32-1.36 2.39.24 2.48 1.58 2.9.65.2 1.42.04 2.29.04m306.88-277.51c.87 2.68 2.18 5.3 1.88 8.15s2.04 3 3.45 3.13c2 .2.72-1.8.96-2.78.25-.96.06-2.03.05-3.06-.02-5.73-.42-6.1-6.35-5.44zm-275.4 216.75c1.88-1.96 2.1-3.99 3.04-5.67.7-1.26 1.24-2.6 2.91-2.85 2.11-.31 2.28-1.46 1.28-3.08-.55-.88-.38-1.67.09-2.57q2.12-4.1 4.02-8.26c.54-1.22 1.5-2.42.8-4.3-1.97 1.4-2.23 3.54-3.22 5.2-2.12 3.57-1.81 8.66-6.56 10.63-.46.2-.48.66-.37 1.05 1 3.35-1.08 6.14-2 9.85zm524.45 605.13c.8-.2 2.28-.47 3.68-.97 1.73-.62 2.43-1.53 1.12-3.43-.95-1.38-1.58-2.19-3.3-1.27-1.33.72-2.63-.94-3.63-.61-1.44.46-3.06 1.76-2.72 3.54.39 1.98 2.09 2.85 4.85 2.74M321.35 443c.23 1.59-1.29 2.51-.44 3.97 1.25 2.16 6.26 4.27 8.63 3.42.93-.33 2.6-.38 2.49-1.65-.1-1.2-.9-2.35-2.5-2.64-2.76-.5-5.39-1.5-8.18-3.1m37.07-160.94c-.68 2.2.6 3 2.49 3.46.86.2 1.65.7 2.5 1 .7.24 1.64 1.2 1.98-.3.35-1.6 2.62-3.1.76-4.78-1.13-1.04-2.81-1.64-4.35-2.04-2.04-.54-4.1-.6-3.38 2.66m285.43 22.26c.6 1.66.22 3.55.6 5.34.26 1.28.97 2.45 1.27 3.72.42 1.81 2.01 1.4 2.97 1.36 1.73-.06.86-1.4.62-2.29-.84-3-1.65-6.02-2.63-8.99-.25-.75-.32-2.14-1.5-1.98-1.48.2-1.07 1.7-1.33 2.84m-204.79-84.57c1.35.37 2.56-.19 3.53.67.73.65 1.3.4 1.63-.44.87-2.17 1.77-4.34 2.56-6.54.2-.57.6-1.48-.66-1.59-3.7-.33-4.78.37-5.96 4.03-.4 1.26-.72 2.53-1.1 3.87m340.16 93.13c-.03-2.43-1.13-4.41-2.33-4.45-2.14-.08-4.03 2.95-3.98 6.6.04 2.24 2.17 1.86 3.27 1.9 2.83.1 2.76-2.35 3.04-4.06zM387.2 358.52c-.15 1.98 0 3.67 2.7 3.7 2.9.05 5.4-1.7 5.58-4.07.13-1.58-2.18-3.83-4.06-3.97-1.9-.15-4.1 2.12-4.22 4.34m60.19-108.55c.16-2.98.26-5.6-1.04-8.2-.8-1.62-2.43-2.14-3.4-1.74-.83.35-1.71 2.61-1.32 3.43.78 1.61-.15 3.82 1.58 4.9 1.17.73 2.6 1.03 4.17 1.61zm-11.82-18.22c1.3-2 4.69.99 5.37-2.66.4-2.2 1.87-4.13 2.03-6.17-5.56.13-6.65 4.25-7.4 8.83m416.37 740.09c3.31-2.52 5.54-5.3 6.9-8.78.26-.7.5-1.49-.31-1.86a2.3 2.3 0 0 0-1.77.08c-2.77 1.43-5.24 6.61-4.83 10.56zM439.33 233.6c-1.35-.11-2.16.63-3.12.86-1.26.32-2.45.49-2.8 2.14-.28 1.38-.92 2.68-1.35 4.03-.07.21.12.6.3.78.58.52 4.85-.64 5.1-1.43.66-2.08 1.23-4.2 1.86-6.37zm84.9-124.57c-2.25-6-5.02-11.75-5.59-18.21-.07-.8-.64-1.1-1.22-1.14-.79-.07-1.05.6-.96 1.24.93 6.76 3.94 12.62 7.77 18.1zm110.62 161.62c-1.15.52-1.25 1.58-1.05 2.56.55 2.76 1.2 5.5 1.84 8.23.18.77-.19 2.07 1.27 1.8 1.4-.25 2.34-1.33 1.7-2.66-1.36-2.85-1.76-5.98-2.9-8.88-.19-.45-.15-1.04-.86-1.05M452.82 412.72c-1.53-5.24-3.13-6.68-7.66-6.92.48 4.41 2.43 7.29 7.66 6.92m313.27-69.5c3.38-.28 5.94-1.47 8.53-2.6 2.57-1.12.8-2.76.32-4-.75-1.92-1.8.19-2.07.37-2.39 1.67-4.83 3.33-6.78 6.22M433.38 43.45a33 33 0 0 1-9.58-8.43c-2.47-3.23-4.07-7.02-5.9-11.08-.28 7.36 8.82 18.77 15.48 19.5zm44.68 288.6c1.86-4.83 1.47-9.96 3.16-15.25-2.07 1.2-4.05 1.75-3.99 3.84.13 3.81.54 7.61.83 11.41m-20.02 23.26c-.17 1.73.07 1.96 1.58 1.7q5.16-.92 2.3-5.52c-.16-.25-.2-.58-.36-.83-.51-.82-1.31-.91-2.17-.8-1.1.16-.77 1.07-.76 1.7 0 1.34-.08 2.66-.6 3.75zM539.25 43.1c6.49-5.84 14.31-9.52 21.85-13.65-8.24 3.05-16.46 6.11-21.85 13.65M403.76 250.53c2.34-.05 4.63-.43 6.94-.3 1.34.06 2.68-.04 4.02 0 1.26.05 1.46-.96 1.73-1.78.2-.6.07-1.3-.82-1.27-4.23.11-8.46.26-11.86 3.35zM601.73 78.4c-10.6 3.02-21.54 3.93-32.43 5.18a89 89 0 0 0 32.43-5.18m-138.71 335c-3.21-5.5-3.27-5.53-8-4.33q1.78 4.74 8 4.33m.98-64.05c1.67 1.33 2.43 2.88 3.16 4.45.23.48.03 1.23 1.09.99 1.98-.45 2.73-2.47 1.97-4.34-1.4-3.42-3.46-2.48-6.22-1.1m371 613.18c1.1-.34 3.07-.4 2.87-1.8-.31-2.23-2.6-2.85-4.55-2.94-1.07-.05-3.14-.24-3 1.69.18 2.68 2.71 2.5 4.67 3.06zM432.38 38.86c4.18 5.13 11.33 7.48 16.88 5.36-6.24-.8-11.86-2.08-16.88-5.36m95.79 110.22c3.84 3.94 8.83 4.95 15.82 3.52-5.12-2.2-10.37-1.36-15.82-3.52m-44.43-93.64c-5.34-2.76-16.15.44-21.21 6.08 6.36-3.92 13.04-6.83 21.2-6.08m396.42 911.79c1.09-2.16-.54-3.32-1.57-3.31-1.6 0-2.42 1.69-2.12 3.26.29 1.54.25 3.47 2.18 4.11.35.11.98-.62 1.47-.99 1.41-1.05-.4-2.26.05-3.07zm-543.9-607.45c1.3-.28 2.62-.44 3.85-.88.67-.24 2.07-.4 1.16-1.83-.5-.78-.49-2.12-2.1-1.4-1.1.5-2.32.79-3.52.93-1.09.13-1.45.45-1.13 1.54.27.92.4 1.87 1.75 1.64m509.62 603.45c.92.23 2.6.88 2.5-1.01-.11-2.5-2.8-2.28-4.45-2.86-.91-.33-2.3.66-2.02 2.06.42 2.05 2 2.2 3.97 1.8M642.98 42.93l-.8.13 1.67 18.9c.39-6.4.98-12.8-.86-19.04zm-33.07 415.02a87 87 0 0 1-3.5-7.5l-3.68 3.07zm-238.7-110.29c1.38-1.17 4-.67 4.21-3.18.03-.42.02-2.65-1.53-1.96-1.48.66-4 .27-4.1 2.73-.02.41-.4 2.34 1.41 2.42m209.4-98.17c1.84-4.4 4.84-8.17 6.77-12.6-2.56.15-5.54 5.53-6.77 12.6m-43.82-118.11c.4 5.09 8.13 10.36 14.29 9.64-6.05-1.49-10.86-4.52-14.3-9.64M468.2 96.05c-1.3 2.08-.54 4.37-1.33 6.4-.36.93-.3 1.93.94 2.12 1.1.18 1.85-.65 1.88-1.58.1-2.4.56-4.95-1.5-6.95zM356.12 349.76c1.26 3.91 3.62 2.95 5.88 1.86 1.41-.68.2-1.8-.15-2.24-2.1-2.64-3.7.76-5.73.38m20.98-4.81c1.58-1.34 4.19-.8 4.23-3.33.01-.73-.07-2.43-1.8-2.03-2.75.63-2.76 2.7-2.43 5.37zm-1.33-48.85c2.59-3.77 5.93-12.3 5.61-14.46-2.62 4.78-4.06 9.59-5.61 14.46M502.3 36.55c.5-4.05.25-7.1-2.94-9.03-2.68-1.63-3.66-1.64-5.5-.33 6.26 1.14 7.26 2.16 8.43 9.36zm-78.08-7.46c-2.06-4.22-2.56-8.07-3.53-12-1.81 2.65-.36 7.78 3.53 12m67.65 8.68c3.2.83 3.6 4.27 6.27 5.78-.94-5.4-2.87-7.28-6.26-5.78m-153.6 456.67c2.5 3.93 6.8 5.11 8.6 2.81-2.78-.47-5.35-1.61-8.6-2.81m26.25-146.28c.23.7-.04 2.03 1.34 1.74 1.11-.24 2.72-.46 2.74-1.87.02-.93-.81-2.39-2-2.27-1 .09-2.62.47-2.07 2.4zm76.53-265.43c-1.63 3.42-.86 6.4 1.95 8.2.85-3.05-1.5-5.29-1.95-8.2m-70 400.87c2.4-.54 4.4-1.01 5-2.52.44-1.07-1.46-1.82-2.53-2.67zM542.2 53.52c-4.03.2-8.23-.23-11.47 2.97zm64.56 405.22-.2.4c1.92 1.3 3.89 2.53 5.75 3.9.88.66 1.24.07 1.73-.4.89-.88-.06-1.43-.52-1.61-2.22-.85-4.5-1.54-6.75-2.29zM428.12 61.68c4.15 3.54 5.03 3.69 8.47 1.29-3.1-.07-5.78-.6-8.47-1.29m32.12 33a46 46 0 0 1 3.83-11.8c-3.02 3.76-4.65 8.58-3.82 11.8m-75.08 280.46a16 16 0 0 0 4.22-5.22c-3.06.07-3.41.5-4.22 5.22m-31.47-24.07c-.69.08-1.7.06-1.35.81.46.98.27 2.71 1.9 2.7.53 0 1.88-.32 1.65-1.4a2.55 2.55 0 0 0-2.2-2.12zm-26.54 16.32c-1.34-.3-2.83-.68-3.31.96-.24.82.58 2.4 1.43 2.32 1.73-.15 1.21-2.13 1.88-3.29zm92.17-281.73c-.57 2.2.17 3.5 1.04 4.73.3.44.76 1.17 1.43.68.53-.4.4-1.15.07-1.67-.67-1.1-1.44-2.13-2.54-3.74m113.45-23.45c-1.5-.18-2.98-.32-4.46-.52-.96-.13-1.38.43-1.34 1.19.06.95.95.57 1.42.5 1.45-.23 2.84-.78 4.38-1.17M377.73 479.5c1.85-2.46 1.66-2.8-2.92-4.9 1.38 1.63 2.15 3.27 2.92 4.9m98.09-132.28c-.9-.6-.2-2.4-1.78-2.52-.4-.03-1.43.26-1.01 1.14a9 9 0 0 0 1.82 2.7c.28.27.87-.57.96-1.32z"/><path fill="#000" d="M135.58 847.22c-2.94-2.87-5.5-6.06-9.56-7.77-1.78-.76-1.32-3.8-.9-5.73 1.11-5.18-.23-10.15-.9-15.17-.25-1.86-2.02-2.94-3.59-4.06a39 39 0 0 1 3.15 16.63 9.4 9.4 0 0 1-1.47 5.2c-.61.9-1.7 1.97-3.1 1.06-1.47-.94-1-2.09-.04-3.06.9-.92.98-1.99.86-3.13-.12-1.12-.23-2.25-.43-3.36-1.5-8.29-1.76-9.57-10.7-10.74-.55 7.21-1.33 14.4-1.18 21.65.05 1.94.5 2.75 2.53 2 2.13-.78 4.68-.65 6.16-2.83.4-.6.93-.43 1.33-.18.72.45 1.25 1.16 1.06 2.06-.45 2-.9 4.14-3.2 4.85q-4.65 1.42-9.4 2.53c-1.68.4-2.55-.35-2.89-2.2-1.26-6.78-.44-13.51.35-20.23.31-2.62 1.06-5.18 1.51-7.79.64-3.72 2.69-5.8 6.66-5.72-2.13-5.72-.54-11.21.31-16.68.19-1.17.54-2.75 2.8-2.18.99.24 2.5-.67 3.51-1.67-2.8-3.01-6.28-5.48-6.59-10.2-.08-1.37-1.9-.59-2.9-.69-1.73-.16-3.52-.1-1.6-2.51.5-.64.4-1.4.3-2.08-1.42-9.8 1.13-19.24 2.4-28.82.88-6.75 2.23-13.43 3.06-20.17.38-3.05 1.97-4.63 4.36-5.05 6.78-1.2 13.67-1.09 20.52-.72 2.18.12 2.95 1.7 2.4 3.72-.4 1.45-1.1 2.8-1.75 4.42 6.75-2.82 13.38-2.77 20.09-.3 2.98 1.1 5.62 2.73 7.39 5.24 1.12 1.6 4.13 1.9 3.43 4.76-1.18 4.8-.8 9.98-3.63 14.35-.47.73-1.3.9-2.06 1.23-1 .41-2.1.81-1.6 2.43.43 1.4 1.18 1.59 2.42 1.24.48-.14 1.03-.04 1.54-.02 2.16.08 4.25-1.18 5.67-2.52 1.44-1.36-.25-1.58-.42-2.34-.49-2.28.4-4.49.69-6.7.46-3.51 1.8-6.83 3.73-9.84.56-.88 1.26-1.84 2.46-1.47 2.79.88 5.71.28 8.52.9 1.89.42 3.04 1.07 2.05 3.37a4.7 4.7 0 0 0 .03 3.47c6.71-.95 13.33-2.04 19.98-2.78 10.27-1.14 20.54-2.3 30.84-2.97 6.34-.43 12.7-1.17 19.1-.8.85.06 1.8.02 2.1.9.33 1.03-.5 1.38-1.38 1.63-.71.21-1.6.21-1.02 1.58.59 1.36 1.28 1.25 2.31.78a85 85 0 0 1 3.34-1.44q4.78-1.92 4.37-6.88c-.13-1.49-1.35-3.03-.34-4.45a12.4 12.4 0 0 1 5.55-4.25c16.87-6.79 33.95-12.84 52.03-15.73 11.81-1.88 23.7-2.83 35.62-3.73 9.2-.7 18.38-1.46 27.6-1.78 3.64-.12 6.36 1.24 8.08 4.47a69 69 0 0 0 5.97 9.52c2.24 2.9 4.93 6 10.08 5.38 8.01-.96 16.18-.6 24.2-1.95 1.05-.18 1.67.8 2.62.54l-.1-.09c-.77 3.97-4.27 4.52-7.15 4.88-6.3.78-12.65 1.34-19.03 1.42-2.19.03-4.26-.63-6.42-.65-2.27-.03-3.3-.7-1.44-2.96-10.57-.11-11.45.9-13.21 12.23h7.73c4.26 0 5.88 1.86 4.76 5.95-.66 2.37-.7 3.2 2.27 3.5 4.73.49 7.1 3.23 6.6 6.45-.68 4.57-4.84 7.28-9.26 5.75-2.3-.8-3.07-.76-3.26 2.07-.16 2.46-1.42 4.86-2.37 7.22-.6 1.5-2.03 1.83-3.56 1.85q-8.94.04-17.88.18c-2.05.04-4.08.37-6.13.41-4.4.09-5.6-1.03-5.77-5.43-.12-2.97-.11-5.94-.35-8.92-.11-1.44-.5-1.74-1.73-1.75-5.97-.05-11.88.56-17.81 1.1-4.18.37-8.41.07-12.76 1.12 2.78 4.13 1.88 9.2 3.47 13.73 1.15 3.3 3.3 4.42 6.68 4.37 6.97-.11 13.96-.12 20.9.42 4.08.31 8.2.52 12.27.8q18.24 1.3 36.44 3.1c11.7 1.16 23.34 2.74 35.1 3.37 6.16.33 12.4.42 18.46 2.28 2.62.8 5.01-1.22 7.33-2.42 4.08-2.1 7.1-5.46 10.07-8.85 5.85-6.72 11.9-13.27 16.69-20.84 1.78-2.8 2.25-6.04 3.23-9.1 8.34-26.04 16.12-52.27 24.86-78.2q.12-.27.28-.54c.6-1 .49-3.1 1.7-2.85 1.63.32 2.47 2.18 2.22 3.92-.48 3.3-.97 6.64-1.86 9.86-4.97 18.16-9.45 36.5-16.7 53.92-5.65 13.58-11.22 27.3-20.41 39.03-5.65 7.2-10.6 15.17-19.43 19.2a19 19 0 0 1-9.14 1.93c-5.65-.27-11.27.72-16.94.64-8.42-.13-16.71-1.34-25.03-2.3q-9.6-1.09-19.17-2.1c-9.53-1.03-19.06-2.08-28.6-3.05-4.97-.5-9.99-.66-14.94-1.34-7.3-.99-14.8-.84-21.72-4.21-3.92-1.9-6.8-4.46-8.26-8.52-.3-.8-.32-1.6-1.48-1.45-4.38.6-8.07-1.57-12.1-3.18-.28 1.64-.56 3.12-.8 4.61-.53 3.45-1.77 6.16-5.77 6.73-1.74.24-2.73 1.23-3.18 3.33-1.38 6.3-2.82 12.64-5.47 18.58-.27.61-.41 1-.04 1.64 1.27 2.22-.07 4.89-2.69 5.38-2.12.4-4.23.7-6.42.67-6.8-.07-13.62-.22-20.42.02a253 253 0 0 0-24.7 2.29c-9.31 1.24-18.65 2.6-28.08 2.62-1.94 0-3.85-.13-5.81.48-1.61.5-3.19-.04-4.2-1.73-.9-1.53-2.01-2.94-3.13-4.56-.81 3.06.2 5.81.5 8.6.18 1.64-.24 2.3-1.88 2.2-4.1-.23-8.2-.41-12.3-.74-1-.07-1.87-.69-2.6-1.46-6.82-7.1-10.51-15.93-14.02-24.88-.47-1.2-.26-1.83.93-2.4 1-.5 1.83-1.32 2.35-1.71-3.63-4.74-7.3-2.26-11.13-1.22-3.06.83-2.35 3.36-2.62 5.04-.18 1.08 2.42 1.41 3.6 1.15 2.76-.61 3.46.73 4.2 2.96 1.03 3.18 1.2 6.38 1.18 9.66-.05 7.73-.36 15.48.1 23.18.27 4.42-1.63 7.72-4.1 10.54-5.3 6.06-10.23 12.47-16.32 17.82-.94.82-.39 2.18-.16 3.3.25 1.22 1.18 2.58-.51 3.46-1.35.7-2.7.61-4.06-.18a38 38 0 0 1-7.58-5.67c-1.93-1.92-3.88-3.86-6.45-4.99zm265.4-128.15c-2.26-3.02-4.47-5.72-6.38-8.6-.99-1.51-2.1-1.86-3.76-1.86-10.07 0-20.1.3-30.16 1.13-10.8.9-21.57 1.92-32.18 4-18.92 3.72-37.03 10.44-55.47 15.9-.67.2-1.54 0-1.14 1.2 2.3 6.87 1.57 14 1.65 21.04.03 2.4 1.12 3.35 3.44 3.17q6.27-.46 12.54-.85c14.93-.96 29.85-2.03 44.78-2.82 10.66-.56 21.26-1.64 31.9-2.4 3.4-.24 6.64-2.13 10.2-.8 1.58.6 2.2-.41 2.58-2 1.46-6 7.6-8.17 12.64-4.72 2.08 1.42 2.42 3.3 1.85 5.35-1.16 4.25-8.28 8.39-11.84 6.03-3.36-2.23-6.5-.47-9.63-1.34-.92-.25-3.25-.63-3.34 1.63-.1 2.36.18 4.73.2 7.09.02 1.1.25 1.7 1.55 1.64 7.79-.4 15.58.05 23.37.19 2.16.03 2.84-1.14 2.92-2.93.1-1.85-.09-3.72.07-5.56.2-2.27 2.32-3.5 3.36-2.02 1.98 2.86 5.48 1.4 7.78 3.35 1.02.87 2.97 0 3.53-1.55.57-1.58-.9-2.03-2-2.58-2.13-1.08-4.4-.75-6.63-.77-2.05-.02-2.9-.65-1.82-2.83 1.05-2.11.03-4.54.66-6.76.1-.36.01-.92-.48-1-3-.55-6.06-1.66-8.99-1.4-3.22.28-5.43-1.54-4.98-4.95.39-2.87 1.66-5.41 2.4-8.14.67-2.53 2.16-4.27 5.08-4.54 2.03-.2 4.02-.81 6.31-1.3zM147.8 778.34c-6.65 4.33-14.03 8-20.56 12.99-.56.42-1.12.55-.4 1.24s.32 1.19-.18 1.81c-.75.96-1.5.26-2.2.09-1.1-.29-1.82-1.24-3.37-.75-5.66 1.76-5.69 1.64-6 7.63-.06.91-.32 1.82-.46 2.73-.26 1.7-.42 2.79 2.13 3.15 5.74.8 9.7 4 10.79 10.07.91 5.07 1.66 10.2 1.04 15.28-.42 3.45.08 4.74 3.59 6.47 6.52 3.2 11.67 8.62 16.57 13.77 2.81-.97 2.2-4.07 3.54-6.12 4.13-6.37 9.58-11.52 15.05-16.66.93-.88 1.25-1.5 1.04-2.77-.9-5.7-.64-11.46-.66-17.2-.02-2.9-.15-5.79.03-8.67.2-3.05-.37-6.35 2.14-8.88.45-.46.26-1.14-.26-1.25-1.77-.4-3.58-.84-5.37-.86-1.14-.01-1.22 1.42-1.65 2.31-1.37 2.74-4.06 4.19-6.47 3.56-3.83-1-5.8-3.1-5.73-6.44.09-4.07 1.44-8.34-2.61-11.52zm163.32-9.31c.67-4.09-.47-8.23.72-12.26.37-1.27-.87-1.15-1.63-1.1q-4.6.3-9.19.75c-7.42.75-14.83 1.62-22.27 2.27-2.3.2-4.73.44-6.96-.59-1.74-.8-3.6-1.66-1.41-3.89.5-.52.49-.93.3-1.61-.52-1.86-.66-3.84-1.31-5.62-.67-1.82 1.23-4.7-1.17-5.32-1.77-.46-4 1.1-6.09 1.5-1.37.27-1.47.46-1.06 1.9 2.1 7.52 2.3 15.08-.54 22.49-.72 1.9.94 2.53 1.56 2.16 2.04-1.2 3.9.04 5.7-.13 7.27-.67 14.48-2.01 21.71-3.06 3.94-.57 7.88-1.23 11.88-1 1.08.05 2.78 0 1.04 1.8-.56.58-1.41 1.15-.7 2.05.57.75 1.4.3 2.2.2 2.4-.24 4.74-1.27 7.23-.54zm-196.54-6.51c1.62-.49 1.74-1.43 1.7-2.36-.16-5.66.65-11.25 1.32-16.85.58-4.9 1.75-9.67 4.45-13.86 1-1.55 2.17-3.54 4.38-3.42s2.72 2.2 3.4 3.91c.82 2.03 2.11 3.03 4.49 2.97 1.66-.04 3.34.7 5 1.1 1.07.26 2.11 1.02 3.25.38 2.28-1.3 4.78-1.13 7.22-.98 2.9.19 6.01.7 7.27 3.65a9.8 9.8 0 0 1-1.1 9.48c-1.9 2.78-4.48 5.08-6.4 7.85-2.27 3.27-5.83 5.79-6.18 10.24-.09 1.08-1.45 2.59.78 2.69 1.58.07 3.48.24 3.7-2.48.6-7.4 6.76-15.12 13.92-16.7 3.9-.86 3.28-3.74 4-6.08.67-2.25-.49-3.84-2.4-5.1-3.47-2.25-7.27-3.42-11.29-4.26-4.46-.93-9.22-.23-13.44-2.48-.35-.19-1.12-.07-1.42.21-2.34 2.17-2.4-.23-2.78-1.46-.29-.95-.2-2.04-.14-3.06.07-1.28-.3-1.89-1.7-1.84-4.1.15-8.23-.22-12.32.57-1.23.25-1.3.75-1.56 1.73a122 122 0 0 0-3.26 22.89c-.25 4.34-1.24 8.65-.9 13.24zm134.21-17.66c.08-2.8-1.92-4.22-4.75-3.76a172 172 0 0 1-12.46 1.54c-6.13.53-12.3.7-18.4 1.38-3.4.38-6.9.62-10.13 2-.6.25-1.5.41-1.36 1.4.1.76.84.88 1.37 1.1.56.21 1.2.3 1.8.32 7 .29 13.9-1.07 20.84-1.54 6.71-.46 13.44-1.82 20.2-.4 1.58.32 2.97.12 2.9-2.04m50.58 32.53a33 33 0 0 0-3.63 7.83c-.52 1.8-1.42 2.85-3.51 3.35-2.75.66-5.02 2.6-7.29 4.3-1.87 1.4-1.1 3.5-.64 5.12.42 1.44 2.06 2.21 3.74 2.18 3.29-.06 7.54-3.9 7.75-7.2.17-2.8 1.2-5.33 2.02-7.93.7-2.22 1.98-4.28 1.56-7.65m-142.4-16.02c-1.4-.39-1.7.42-2.25 1.04-2.53 2.85-3.92 6.58-7.22 8.86-2.43 1.69-5.6 2.52-6.95 5.59-.1.2-.07.79-.64.14-1.52-1.72-2.62-1.9-2.55.96.03.94-.2 1.88-.31 2.96 2.68-1.48 5.13-2.91 7.65-4.2 4.52-2.3 4.54-2.26 8.12 1.36.1.1.31.07.29.06 1.72-1.72 1.6-3.43.68-5.54-.7-1.6-.33-3.53.03-5.39.45-2.32 2.57-3.58 3.16-5.84zm102.97 18.7c-.02-4-3.07-7.06-6.71-7.06-1.56 0-3.85 2.74-3.8 4.52.1 2.89 3.3 5.81 6.47 5.68 2.13-.08 4.4-.36 4.03-3.14zm-83.9-23.9c-.46 2.01-.54 3.45 1 4.9a7.6 7.6 0 0 1 2.47 6.32c-.13 1.82.04 3.63-.6 5.42-.62 1.73 1.11 2.2 2.02 3.04.52.48 1.1.21 1.52-.4 2.51-3.7 2.38-10.83-.4-14.35-1.59-2-3.76-3.34-6.01-4.92zm154.13-1.61c-3.68-.67-7.18.85-10.8.52-.66-.07-1.9-.48-1.83.87.06 1.26-.81 3.21.66 3.65 2.35.7 4.6 1.81 7.38 1.36 4.05-.66 3.78-3.77 4.6-6.4zM165.4 777.4c3.65.1 6.61-.62 8.27-3.6 1.81-3.27.2-6.26-1.55-9-.48-.75-1.3-2.4-2.52-1.4-1.06.86-1.98 2.25-1 3.98 1.72 3.04 1.33 5.4-1.59 7.16-1.27.76-1.05 1.75-1.61 2.86m219.94-25.68c2.49-.03 4.23-1.56 4.16-3.7-.08-2.39-2.15-4.24-5.02-4.06-2.5.14-3.24 2.1-3.33 4.3-.11 2.86 2.13 3.04 4.19 3.46m-225.5 21.73c-.4 1.06-.38 2.21-.55 3.29-.71 4.64-3.51 8.6-4.12 13.3-.25 1.88.41 2.28 1.67 2.63.96-5.19 3.66-9.57 5.35-14.3.82-2.32.27-4-2.35-4.92m61.6 29.82c9.48.9 18.71-.85 27.97-2.3-9.33.7-18.75.35-27.97 2.3m-97.05-14.63c1.7-1.18 4.48-.64 3.62-3.52-.55-1.84-.4-3.63-.57-5.44-.08-.86.7-2.26-.99-2.41-1.71-.16-2 1.16-2.04 2.43-.07 2.76-.02 5.53-.02 8.93zm4.92-2.3c4.74-1.92 6.5-5.96 4.63-10.15-.18-.4-.3-.75-.82-.64-.47.1-.55.48-.68.9-1 3.26-2.06 6.51-3.13 9.9zm-6.14 1.67c-.42-1.64-1.02-3.25-1.22-4.91-.54-4.4-.47-4.4-4.92-3.9-.13.02-.24.22-.46.42a36 36 0 0 0 6.6 8.38zm45.7-27.24c-3.1.08-5.49.31-7.9 1.48 2.41 1.1 5 .69 7.9-1.48m75.55 15.11c-2.47 3.11-2.44 4.8-.03 6.85-1.34-2.15.22-4.25.03-6.85"/><path fill="#000" d="M135.47 847.1c1.94 2.87 4.74 4.86 7.23 7.15q3.31 3.03 5.96 6.62c1.56 2.14.34 4.69.9 7.08 1.54 6.5 1.46 13.2 1.45 19.86 0 2.45-.73 4.82-.83 7.29-.07 1.98-1.93 3.15-3.46 4.38-4.4 3.53-9.3 6.19-14.33 8.65-4.1 2-8 .55-11.87-.68-5.19-1.66-9.6-4.97-14.63-7-1.68-.67-2.15-2.47-2.47-4-1.1-5.18-2.05-10.41-1.88-15.72.16-5.25-.72-10.44-.5-15.66q.25-6.42 1.17-12.79c.26-1.89 2.21-2.66 3.81-3.16 6.4-1.98 12.84-3.74 18.66-7.34 1.76-1.09 3.77 1.14 5.65 1.87 2 .78 3.09 3 5.26 3.57zm-18.53 2.32c-2.3.71-4.51 1.48-6.77 2.05-.82.21-1.3.39-1.25 1.32.25 4.7-.95 9.3-.27 14.1 1.1 7.84 2.16 15.82 1.9 23.7-.2 5.78 1.5 8.79 6.9 10 .19.04.38.12.66.2-.36-3.38-.77-6.71-1.05-10.07-.57-6.7-1.05-13.4-1.59-20.12-.4-4.96-1.17-9.92.7-14.81a12.3 12.3 0 0 0 .77-6.38zm23.59 41.5c3.1-2.11 4.52-4.26 5.02-7.5.88-5.74-.61-11.15-1.45-16.65-.15-1.01-.14-2.83-1.75-2.8-1.52.03-1.95 1.65-2.38 2.87-.26.74-.09 1.63-.1 2.45-.1 7.03 1.04 14 .66 21.64zm-5.05 2.58c.1-1.63-4.2-5.3-5.94-5.18-1.9.12-1.99 1.58-1.96 2.8.05 1.7 5.17 4.83 6.76 4.3.92-.3 1.28-.98 1.14-1.92m-14.7 6.19c-.72 4.06 2.96 4.27 4.93 5.2 2.38 1.12 3.52-1.94 5.82-2.93-3.9-.98-7.75 1.05-10.74-2.28zm25.06-8.4c-1.33 1.01-2.6 1.75-3.56 2.78-.93 1-2.86 1.16-2.95 3.17 6.68-2.25 7.3-2.81 6.5-5.94zM722.5 272.12c-.16.62-.36 1.52-.64 2.38-.26.78-.6 1.62-1.6 1.66-1.19.04-1.4-.9-1.7-1.81-.58-1.74-1.15-3.5-1.95-5.13-1.68-3.47-4.39-3.78-7.18-.85a35 35 0 0 0-3.16 3.76c-3.96 5.55-13.79 7.27-20.66 1.12-.76-.67-1.68-1.16-2.44-1.82-1.59-1.37-2.85-.68-3.98.6a7 7 0 0 0-1.31 2.07c-.96 2.4-1.77 4.88-5.07 4.81-4.21-.1-7.78-1.4-10.04-5.23-2.08-3.52-2.26-6.99-.19-10.66a20 20 0 0 1 6.54-7.18c6.14-3.95 11.57-1.37 16.64 3.53 2.63 2.54 4.68 5.64 7.76 7.79 2.1 1.46 3.8 1.49 5.7-.29 2.82-2.63 5.42-5.55 9-7.27 3.56-1.7 6-1.44 8.87 1.24a16.6 16.6 0 0 1 5.41 11.29zm-44.06-10.03c-2.8-3.25-5.97-4.16-8.7-2.65-1.68.95-2.03 1.73-.2 3.06 3.07 2.2 5.88 1.38 8.9-.41M440.02 720.42c-.72-10.9 1.35-21.58 2.37-32.34.38-3.96.54-7.97.72-11.95.4-9.22 1.68-18.33 2.78-27.47.72-6.08 1.37-12.17 2.25-18.22.56-3.8.87-7.67 2.16-11.36.55-1.55 1.32-2.21 2.93-1.86l-.1-.1c1.57 13.5-.99 26.74-2.4 40.05a1489 1489 0 0 1-3.9 33.54c-1.06 8.17-3.2 16.14-5.27 24.12-.48 1.84.4 4.13-1.64 5.5zm271.15-429.3c-4.51-3.13-4.21 1.62-5.26 3.1-1.85 2.6-2.76 5.85-4.13 8.8a9 9 0 0 1-1.52 2.28c-1.06 1.13-2.37 2.27-3.99 1.74-1.7-.56-1.65-2.28-1.9-3.83-.69-4.41 1.1-8.2 2.8-12 1-2.24 7.86-5.13 10.2-4.36 1.84.6 3.51 1.57 3.8 4.27m-511.1 152.5c-6.1-.01-10.76 3.04-15.56 5.77-.77.44-1.68.63-2.52.95-1.64.62-3.26.6-4.6-.6-1.4-1.27-1.16-2.94-.77-4.58 1.38-5.72 8.04-8.7 14.24-7.27 3.38.78 6.89 1.85 9.2 5.73zm-19.03 3.33c2.74-.9 5.05-2.57 7.6-3.97-4.5-1.9-8.05-.04-7.6 3.97M193 466.42c-2.74 3.87-1.05 7.64-1.8 11.2-.63 2.96-1.45 5.74-4.54 7.15-3.71 1.69-7.18-.1-7.78-4.08-1.17-7.72 6.69-18.78 14.3-20.08.7-.12 1.45-.02 2.17 0 .74.02 1.18.48 1.16 1.16-.03.95-.9.66-1.39.62-6.54-.45-12.17 7.1-13.56 12.29-.64 2.35-.82 4.6.44 6.84.94 1.69 2.4 2.28 4.15 1.87 1.68-.38 1.96-1.73 2.03-3.33.15-3.44.33-6.92 1.8-10.15.54-1.16.91-2.47 3.03-3.49zm-36.53-52.68c1.28 2.57 4.07 1.7 5.95 3.53-2.05 0-3.65-.03-5.24 0-3.28.05-3.67-2.73-4.19-4.8-.53-2.17 1.4-3.53 3.27-3.73 5.23-.56 10.16.37 14.18 4.16.5.48 1.24.93.85 1.79-.45 1-1.36.75-2.14.56-4.05-1-8.06-2.22-12.69-1.52zm494.9-12.12c-.76-1.58.44-2.24 1.28-2.86 7.62-5.64 15.17-11.38 23.21-16.43 1.4-.88 3.32-2.95 4.63-.76 1.27 2.13-1.5 2.66-2.84 3.5-7.9 5-15.85 9.94-23.78 14.9l-2.52 1.65zM696 243.79c-1.65-.25-2.77-.69-2.84-2.62-.18-4.99 4.17-7.69 8.85-5.78 2.42.98 3.78 2.1 3.58 4.78-.07.96-.34 1.85-1.37 1.39-2.25-1-3.8-.06-5.5 1.27-.73.59-1.87.68-2.72.96M194.89 419.36c-3.08-.7-5.52-2.97-5.72-5.9-.16-2.4 1.07-3.57 3.35-2.93a11.7 11.7 0 0 1 5.63 3.48q3.34 3.8 6.4 7.84c.47.62 1.57 1.56.65 2.39-1 .9-1.88-.2-2.54-.88-2.03-2.04-3.97-4.16-5.95-6.25q-1.04-1.14-2.12-2.23c-.52-.52-1.16-1.07-1.81-.26-.5.6-.44 1.36.04 2 .82 1.12 1.68 2.21 2.07 2.73zm456.84-181.47c.06-3.68 4.2-8.16 7.45-8.07 2.03.06 2.88.94 1.84 2.88-1.57 2.9-3.61 5.43-6.6 6.97-2.06 1.05-2.74.54-2.7-1.78zm59.09 120.29c-6.86 4.58-14.23 8.21-21.76 11.5-.56.26-1.23.34-1.68.72-.58.49-1.11 1.7-1.85.84-.77-.9.26-1.91.96-2.49 2.23-1.83 4.92-2.87 7.53-4.04 4.83-2.15 9.7-4.24 14.53-6.4.8-.37 1.48-.72 2.27-.12zm38.03-112.76c.3 1.98-.32 3.7-.97 5.42-.23.62-.38 1.48-1.41 1.17-.78-.23-1.22-.75-1.1-1.58.12-.91.34-1.8.46-2.72.27-1.91 1.1-3.87-1.6-5.06-1.32-.59-1.12-2.37-.71-3.64.36-1.13 1.57-1.27 2.6-1.11 1.36.2 2.14 1.11 2.15 2.52.03 1.72 1.09 3.32.59 5zm-8 22.13c-.19.74.5 1.87-.57 2.36-.9.4-1.7-.11-2.5-.67-2.2-1.55-4.15-3.23-4.4-6.13-.06-.75-.26-1.7 1.06-1.72 3.23-.04 6.38 2.93 6.41 6.16M663.5 305.6c-.08-2.01.8-3.68 2.49-3.81 1.6-.13 1.55 2 1.7 3.11.22 1.57-1.1 2.65-2.55 2.85-1.56.22-1.67-1.11-1.64-2.15m16.38 2.76c-1.17.04-2.2-.32-2.02-1.2.36-1.72 2.16-2 3.52-2.35.84-.21 1.9.87 1.73 1.72-.37 1.75-2.36 1.12-3.23 1.83M155.86 460.07c.07 1.04-.42 1.74-1.38 1.67-1.78-.11-2.24-1.56-2.47-3-.21-1.37 1.15-1.53 1.84-1.55 1.93-.06 1.32 1.93 2.01 2.88M437.89 150.4c-3.58.76-1.25 2.42-.96 3.69-1.47.7-2.4.38-3.08-.99-.55-1.13-.5-2.13.33-3.07 1.16-1.3 2.22-.33 3.7.36zm171.96 363.99c-1.64-.94-3.8-1.06-4.54-3.4-.36-1.1-1.5-.77-2.37-.98-2.24-.54-4.45-1.2-6.32-1.7-.16 11.01-4.37 21-7.78 31.17l4.6-22.9-.36-.16-2.23 4.29-.54-.24c1.32-3.66 2.6-7.34 3.98-10.97.4-1.07.85-1.52-.85-2-11.7-3.27-23.26-7.06-35.17-9.56-1.2-.26-2.48-.13-3.63-.49-1.12-.34-2.77-.51-2.96-1.84-.17-1.21 1.05-2.07 2.06-2.85a39 39 0 0 0 6.01-5.6l-7.65 4.07c-.9.47-1.79 1.04-2.75 1.32-1.5.45-3.07-.09-3.78-1.28-.85-1.42.72-2.08 1.74-2.7 6.02-3.63 12.53-6.31 18.92-9.21.81-.38 1.8-.41 2.73-.49 1.12-.08 2.27-.1 2.95 1.07.75 1.27-.21 2.08-.86 2.91-3.57 4.6-8.49 7.58-13.53 11.05 4.16 1 8 1.85 11.82 2.85 12.55 3.28 24.33 8.8 36.62 12.85 1.75.58 3.01 2.67 4.5 4.06zm-15.25-98.95c-3.57 2.08-7.43 3.58-11.3 5.03-12.31 4.62-24.67 9.15-37.44 12.43-1.56.4-3.16.88-4.76.94-1.84.07-3.18-1.33-3.72-2.8-.6-1.68 1.22-2.16 2.4-2.59 4.76-1.7 9.52-3.44 14.35-4.9 9.1-2.75 18.22-5.48 27.59-7.16 4.21-.75 8.48-1.2 12.72-1.8zm-69.25-134.26c-1.18-.06-2.39.25-3.06-1.35-.67-1.62.69-1.98 1.34-2.66 4.12-4.2 9.5-6.37 14.68-8.8a188 188 0 0 1 24.8-9.7 25 25 0 0 1 3.28-.76c1.05-.16 2.44-.88 2.92.65.45 1.4-1.1 1.54-1.9 1.93a677 677 0 0 0-27.17 13.88c-4.01 2.2-7.79 4.85-12.2 6.3a7 7 0 0 1-2.69.5z"/><path fill="#000" d="M576.66 522.94c-.54-2.81 1.3-5.3.59-8.54-3.18 5.98-5.54 11.94-8.31 17.75.03-6.76 5.34-12.24 4.44-19.23-1.45 1.19-1.94 3.05-2.75 4.7q-3.1 6.32-6.14 12.66c-.4.85-.8 1.97-1.82 1.68-1.2-.35-.62-1.55-.46-2.4 1.38-7.27 5.9-13 9.53-19.14.63-1.06 1.75-2.06 3.08-1.5 1.69.7.19 2.58 1.12 3.88q1.03-1.74 2.03-3.35c.5-.78 1.05-1.8 2.14-1.17.83.47.51 1.5.29 2.26-1.21 4.15-2.5 8.28-3.75 12.42zm-109.74-28.02c1.97-6.4 4.83-12.44 5.34-19.32-1.47 3-3.02 5.96-4.42 8.98-1.46 3.15-2.8 6.35-4.18 9.53-.58 1.32-1.19 3.2-2.8 2.68-1.86-.6-1.25-2.8-.86-4.07a55 55 0 0 1 7.19-14.41c.85-1.27 1.81-2.46 2.75-3.66.68-.87 1.31-2.08 2.67-1.5 1.33.58 1.94 1.74 1.8 3.26-.36 4.1-1.67 7.93-3.37 11.64-1.12 2.44-1.83 5.12-4.12 6.88zm-9.76 1.18c-1.64-3.74.42-7.12 1.1-10.63.18-.95.96-1.76.77-3.3l-5.48 10c-.85-3.56.6-6.13 1.72-8.6 1.89-4.2 4.5-8.04 7.1-11.85.48-.7.97-1.34 2-.98 1.11.4 1.11 1.23 1.1 2.23 0 2.4-.97 4.56-1.73 6.75a145 145 0 0 1-6.61 16.38zm144.1 23.3c-2.67 4.8-4.2 10.02-6.47 15.73.39-8.32 2.95-15.18 6.8-21.6.5-.8 1.2-1.81 2.48-1.18 1.53.77 1.44 2.25 1.17 3.51-1.14 5.34-2.57 10.59-4.8 15.6-1.45 3.3-2.45 6.8-4.57 9.82 1.7-7.34 4.17-14.46 5.39-21.88m-7.63-88.86c-.5 2.85-2.33 4.4-4.52 5.64-.37.21-.86.34-.97-.2-.12-.58-.23-1.36.05-1.77a61 61 0 0 1 3.72-4.8c.26-.31.9-.3 1.37-.45zm-26.04-236.37c-1.31 4-3.84 7.47-6.13 11.04-1.09 1.7-2.57 3.14-3.82 4.75-.28.36-.5.62-.95.58-.66-.07-.7-.6-.8-1.1-.32-1.51.25-2.86.77-4.17 1.67-4.2 4.2-7.92 6.84-11.57a3.6 3.6 0 0 1 3.48-1.48c.95.12.43 1.19.62 1.96zm7.5 5.03c-3.26 3.38-4.13 7.81-7.73 10.51-1.1-3.03.31-5.04 1.56-7.07 1.6-2.6 3.17-5.23 5.2-7.52.53-.59 1.09-1.3 2.08-.94 1.06.39 1.18 1.25 1.26 2.22.17 2-.51 3.77-1.18 5.58a38 38 0 0 1-5.41 9.92c.4-4.37 3.39-7.86 4.22-12.7m29.26 24.71c-.48-2.48-1.26-4.6-.8-7.07-.45.32-.65.4-.72.54-.75 1.43-.86 4.01-3.17 3.24-2.62-.88-.54-3.05-.26-4.46.4-1.95 1.5-3.77 2.38-5.6.5-1 1.02-1.96 2.57-1.63 1.5.31 1.72 1.28 1.72 2.45-.02 4.1.01 8.2-1.72 12.53m-24.47-11.88 1.52-6.95c-2.88 1.77-3.2 5.64-7.22 6.35a53 53 0 0 1 8.45-12.3c.47-.5 1.36-1.29 2.16-.59.62.55.48 1.3.1 2.21-1.58 3.78-2.51 7.84-5.01 11.29zm33.85 23.08c-8-2.69-17.63-8.53-19.47-11.8 3.52-.35 19.09 9.09 19.47 11.8m-34.12-16.97c-9.77-.65-19.36-2.62-29.53-4.16 2.73-1.57 2.75-1.74 7.88-.8 5.66 1.03 11.36 1.89 16.93 3.43 1.57.43 3.25.42 4.88.62zm31.48 6.09c-.42-1.48.93-2.3.14-3.46l-2.91 3.25c.19-4.6 2.36-7.83 4-11.22.28-.6 1.1-.25 1.66.03 1.1.55 1.28 1.56 1.15 2.62-.4 3.3-1.5 6.28-4.04 8.77zm-19.32-8.92c-.06-1.46-.1-2.55-.16-3.67-1.43.54-1.14 3.66-3.22 2.42-2.23-1.32-.04-3 .42-4.46.32-1.03 1-1.97 1.55-2.92.44-.75.71-1.9 1.92-1.6a2.3 2.3 0 0 1 1.65 2.6c-.55 2.43-.25 5.11-2.16 7.63m51.35 138.35c-.43.95-.36 2.1-2.03 2.44-2.2.47-4.29 2.12-6.37-.16-.13-.14-.29-.38-.24-.52.64-2.27 2.58-3.1 4.45-4.03 1.78-.88 2.86.28 3.98 1.28.18.15.13.57.21.98zm-49.48-237.33c3.85.66 7.18 1.06 10.22 2.86l-10.95-1.38c-.56-.07-1.13-.4-1.09-.92.32-3.24-1.5-2.4-3.54-2.24-3.08.24-6.24.66-9.61-.19 2.16-2.57 5.25-2.32 7.84-3.2 1.06-.35 2.25-.26 3.36-.47.7-.14 2.02.18 1.66-1.14-.27-.95-1.18-1.16-2.25-.63-1.23.62-2.53 1.49-3.73-.31-.75-1.13-.93-1.94.35-2.6a20 20 0 0 1 3.09-1.29c2.51-.78 4.96-1.43 6.49-4 1.66-2.79 4.95-2.02 7.52-2.67 2.83-.71 5.81-.7 8.64-1.75 2.4-.9 4.35.97 3.27 3.33-2.7 5.9-3.44 12.3-5.34 18.4-.24.75-.5 1.7-1.62 1.47-.99-.2-.7-1.08-.8-1.76-.73-5.36 1.4-9.97 3.8-14.51.28-.55.85-1.02.93-1.57.15-1.07.93-2.21.29-3.2-.81-1.24-1.83.11-2.75.18-3.03.23-6.05.7-9.05 1.23-1.32.23-2.33 1.1-1.78 2.59.46 1.25 1.45 1.76 2.84 1 1.54-.86 3.08-1.04 4.48.36.85.86.9 1.93.34 2.82a5.3 5.3 0 0 1-4.36 2.41c-.86.05-1.57-.4-2.58-.26-1.93.26-2.92 1-3.02 2.86-.1 1.82-1.18 3.08-2.65 4.57zm2.94-10.5c-3.15-.05-6.29-.05-10.03 1.42 3.93.13 7.1.33 10.03-1.43m-7.73 30.94c-2.92-1.37-5.83-1.72-8.69-2.16-1.63-.26-2.84-1.02-2.8-2.51.03-1.55 1.44-1.79 2.94-1.92 7.31-.65 12.32 2.56 15.69 8.84.49.93 1.18 1.96.25 2.77-.89.77-1.71-.29-2.4-.8-1.08-.81-2.06-1.37-3.19-.12-.6.66-1.55 1.35-1.15 2.3.44 1.03 1.57.7 2.47.54.72-.13 1.67-1.05 2.05.08.37 1.1-.87 1.49-1.64 1.86-2.58 1.23-4.29-.45-5.8-2.06-1.58-1.69-1.2-3.54.4-5.13.5-.5 1.06-.96 1.87-1.69m66.84-16.47c2.31-.22 4.79.44 7.26 1.05.7.17 1.56.51 1.51 1.31-.05 1.04-1.07.78-1.71.74-2.48-.14-4.45-.03-4.47 3.4 0 1.17-1.03 3.36-2.88 2.73-1.31-.44-2.52-1.93-1.4-3.87.46-.82-.3-1.01-.97-1-1.43.04-2.89-.18-4.28.35-1.25.48-2.38-.08-3.57-.33-.9-.2-1.27-.82-1.29-1.47-.02-.6.71-.84 1.31-1.07 3.3-1.27 6.72-1.73 10.49-1.84M624.6 99.9c-3.28 0-5.83-2.02-5.67-3.92.17-2.06 2.15-3.02 5.18-2.59 1.36.2 2.74.33 4.12.3 2.54-.05 2.54 1.28 1.48 2.86-1.35 2.01-3.34 3.19-5.1 3.35m3.71-5.35a9 9 0 0 0-4.82.32c-.9.29-1.93.2-1.63 1.6.26 1.2 1.05 1.77 2.23 1.56a5.1 5.1 0 0 0 4.22-3.48m-8.84 12.16c-.22 1.57-1.47 2.7-3.31 3.03-1.25.22-2.42-.34-2.15-1.84.34-1.85 1.4-3.43 3.3-3.9.27-.08 2.27.73 2.15 2.7zm-33.76-8.54c-1.45.54-3.05.78-3.15-1.07-.11-2.1 2.15-1.59 3.38-2.08 1.24-.48 2.92.19 2.92 1.37 0 1.75-1.55 2.27-3.15 1.78m24.9 39.36c-.94.12-1.23-.47-1.11-.9.4-1.46.86-3 2.66-3.31.79-.14 1.69.32 1.64 1-.14 1.99-2.53 1.85-3.2 3.2m-26.95-34.91c-.4.8.06 2.1-1.17 1.99-1.17-.11-2.49-.38-2.57-2.08-.06-1.01.4-1.79 1.3-1.64.99.16 2.16.54 2.44 1.73M379.65 438.49c-.68-.43-1.25-.68-1.66-1.08-1.4-1.35-1.96-.85-2.4.83-.52 1.95-2.08 4.08 1.6 4.54.36.04.7.69.96 1.11 1.19 1.98.17 6.7-1.97 8.4-2.32 1.84-4.66.76-6.86-.4-1.36-.71-1.28-2.11-.93-3.29.42-1.4 1.82-1.53 3.06-1.6 1.58-.1 1.08 1.15 1.12 1.97.07 1.43.85 1.22 1.61.69a5 5 0 0 0 2.1-4.55c-.08-1.55-1.29-.29-1.87-.65-1.37-.86-3.65-.7-3.6-3.13.04-2.67 2.63-5.88 4.83-6.11 1.98-.21 3.19.7 4.02 3.28zm-17.07-5.7c-2.85-2.76-3.95-.95-5.23 1.18-1.7 2.82-3.05 5.73-3.4 9.03-.12 1.23.08 2.78 1.21 3.2 1.53.56 1.54-1.27 2.06-2.14.73-1.22 1.16-2.64 1.96-3.8 1.17-1.66.97-2.69-1.24-3.1 1.55-1.45 2.65-.3 3.5.35 1.16.9-.4 1.54-.7 2.2-1.09 2.37-1.32 5.2-3.62 6.95-1.69 1.29-2.87.7-3.48-1.05-1.9-5.49.54-12.47 5.4-15.7 2.08-1.38 3.28-.6 3.54 2.89zm4.04 15.1c1.55-5.16.18-10.84 2.88-15.79.31 5.49-.37 10.8-2.88 15.79m-7.26-.56c.05-2.74 3.71-8.4 6.6-10.32-2.09 3.86-4.06 7.24-6.6 10.32m291.67-294.8c3.5.1 4.11 1.52 2.47 6.84l-2.36-6.95zM384.87 391.67c0 1.87-4.55 5.63-6.09 5.17-.85-.26-2.18-.61-1.8-1.93.27-.92-.6-2.73 1.7-2.51 1.07.1 1.62-1.12 2.3-1.82 1.06-1.1 1.89-.07 2.78.12.61.13 1.08.55 1.1.97m-65.26 73.79c-.4-3.93 1.34-7.27 2.83-10.67.02 3.83-1.11 7.33-2.83 10.67m73.34-106.75c-.02 1-.88.99-1.7 1-.98.03-1.9.01-1.94-1.35-.03-1.08.68-1.5 1.5-1.63 1.26-.18 1.83.67 2.14 1.97zm-60.97 379.88a9 9 0 0 1 5.12-1.5l17.3.03c.41 0 .87-.08 1.23.07 1.08.45 2.7.32 2.93 1.8.26 1.61-1.4 1.83-2.38 2.33-3.01 1.51-6.36 2.16-9.63 2.47-7.14.7-14.32.95-21.49 1.33-10.94.59-21.87 1.14-32.76 2.37-2.5.28-5.1.52-7.64-.33-1.66-.56-1.79-1.54-.44-2.29 1.99-1.11 4.06-2.34 7.15-2.1l-5.07 2.24c.32 1.23 1.21.7 1.77.71 6.57.1 13.03-.97 19.54-1.68 3.25-.36 6.56-.6 9.8-.63 7.5-.06 14.97-.82 22.49-.88 4.27-.04 8.74-.2 13.59-2.12a214 214 0 0 0-21.5-1.82zm-48.3-6.78c7.69-6.05 79.66-17.57 86.77-13.97a686 686 0 0 0-43.25 5.32c-14.36 2.21-28.38 6.03-43.53 8.64zm103-18.9c1.89.03 3.83.5 3.85 3.3 0 2.51-1.76 2.87-3.78 2.97-2.75.12-3.24-2.08-3.47-3.85-.22-1.75 1.17-2.68 3.4-2.4zm-224.32 97.36c1.88-.07 3.85 3.76 3.15 5.89-1.56 4.74-4.86 8.42-7.84 12.24-2.56 3.29-5.03 6.71-8.2 9.48-.92.8-.74 1.53-.3 2.4.6 1.17 1.21 2.34 1.73 3.54a.96.96 0 0 1-.48 1.3c-.51.24-.73-.22-1.02-.47a11 11 0 0 1-2.88-12.42c3.26-7.8 8.57-14.25 13.95-20.64.5-.6 1.32-.94 1.88-1.32zm-18.44 18.58c-.78-1.04-.28-2 .2-3.03 2.76-6.04 5.89-11.86 9.96-17.14.43-.56 1-1.02 1.5-1.53 1.1-1.13 2.51-1.26 3.6-.38 1.2.97.15 1.96-.52 2.88l-13.52 18.36c-.26.36-.46.96-1.22.84"/></svg>