<svg xmlns="http://www.w3.org/2000/svg" width="1080" height="1080" fill="none" viewBox="0 0 1080 1080"><path fill="#fff" d="M584.87 685.95c.8 6.88 1.47 13.04 2.21 19.2.75 6.16 1.42 12.35 2.41 18.49 1.8 11.1 3.65 22.19 5.76 33.23 2.23 11.68 4.86 23.3 7.2 34.97 1.95 9.7 3.71 19.43 5.54 29.15q.94 5.04 1.85 10.06c.03.2.08.46 0 .61-3.27 5.92.76 10.99 2.36 16.06a316 316 0 0 1 10.14 41.8c.97 5.64 2.54 11.18 4.06 16.72.48 1.72-1.52 4.58 1.42 4.82.12 4.44 1.67 9.54-5.17 11.06 2.45 5.42 4.34 10.54 7 15.22a134 134 0 0 0 10.22 15.3c2.61 3.42 6 6.26 9.04 9.34.28.29.74.82.91.75 2.83-1.24 3.89 1.25 5.07 2.68a117 117 0 0 0 29.54 25.86c11.69 7.1 23.62 13.78 35.43 20.68 2.78 1.62 5.5 3.35 8.22 5.08 3.43 2.16 6.56 10.9 5.54 15.34-1.23 5.34-5.2 8.55-11.24 9.15-4.04.39-8.12 1.4-12.12 1.14-5.73-.38-11.41-1.66-17.11-2.57-7.4-1.17-14.82-2.3-22.2-3.56-6.17-1.05-12.29-2.35-18.46-3.36-4.17-.69-8.42-.96-12.61-1.59-2.9-.44-5.48-1.42-8.68-.13-6.03 2.44-10.9-1.05-16-4.01-6.16-3.56-4.57-9.13-3.8-13.79.86-5.12.71-9.67-.8-14.56a870 870 0 0 1-8.7-30.62 131 131 0 0 1-3.02-14.13c-.34-2.22.55-4.6.35-6.86-.07-.86-1.5-1.88-2.52-2.32-1.84-.8-3.18-1.53-3.75-3.81-1.09-4.37-3.42-8.4-3.01-13.18.06-.69-1.64-2.15-2.56-2.18-6.25-.2-12.53 0-18.8-.14-3.08-.06-6.2-.4-9.24-.92a4.4 4.4 0 0 1-2.87-2.03c-2.93-5.99-6.14-11.9-8.34-18.16a557 557 0 0 1-10.06-32.26c-2.36-8.26-4.08-16.7-6.2-25.02a68 68 0 0 0-2.57-7.75c-.85-2.19-1.33-4.12-.66-6.64.51-1.9-.6-4.27-1.08-6.42-1.15-5.2-2.3-10.4-3.57-15.57-.25-1.03-1-1.94-1.52-2.9-1.16.91-3.26 1.77-3.32 2.77-.34 5.2-3.86 8.83-6.1 13a939 939 0 0 1-22.26 39.34 1166 1166 0 0 1-25.2 39.76c-1.83 2.78-4.6 5.57-7.56 6.75-2.23.89-5.59-.48-8.26-1.4-8.16-2.76-16.2-5.88-24.35-8.7-3.43-1.19-3.63-.92-3.95 2.6l-6.32-2c-4.13 5.57-3.2 11.59-3.36 17.46-.27 10.4-.22 20.73-2.8 31.05-1.59 6.38-.32 13.35 1.7 19.92a36 36 0 0 1 1.63 9.81c.05 3.29 1.94 4.58 4.42 5.27 2.1.6 4.4.63 6.61.74a51 51 0 0 1 16.71 3.51c5.16 2.05 7.68 8.03 6.12 13.98-2.16 8.17-8.54 11.06-15.7 12.8-10.41 2.53-21.1 4.17-31.72 2.93-7.97-.92-15.92-3.25-22.1-9.2a43 43 0 0 0-5.47-4.32c-3.56-2.47-6.38-5.46-8.23-9.46-5.92-12.8-12.62-25.34-15.66-39.22-2-9.15-3.17-18.52-4.06-27.85-.34-3.6.8-7.48 1.88-11.04 1.47-4.82 6.26-7.09 11.16-6.12 1.41.28 2.97-.1 4.44-.32a94 94 0 0 0 6.56-1.25c1.88-.43 4.17-.3 3.83-3.53-.1-.99 1.27-2.2 2.07-3.22 4.6-5.96 9.16-11.98 13.9-17.82 2.86-3.51 6.04-6.75 9.24-10.31-1.98-2.59-3.96-5.12-5.89-7.7-1.34-1.78-3.84-3.74-3.68-5.42a23 23 0 0 1 3.38-9.9c5.85-9.08 11.85-18.1 18.4-26.67 6.57-8.62 13.74-16.8 20.89-24.95 14.2-16.18 28.35-32.41 42.95-48.22 6.6-7.13 14.18-13.36 21.42-19.88 5.38-4.84 10.75-9.6 12.07-17.59-3.74-.29-7.35-.66-10.98-.83-6.38-.3-12.79-.81-19.17-.62-7.36.22-14.7 1.49-22.05 1.57-5.32.06-10.66-.96-15.97-1.67a867 867 0 0 1-20.74-3.08c-6-.95-11.97-2.1-17.97-3.05-6.98-1.1-13.96-2.35-20.98-3.07-6.33-.64-11.24-3.98-15.96-7.61-1.92-1.48-3.4-2.3-5.8-1.44-2.42.87-3.7-.5-3.08-2.96.16-.65.63-1.58.36-1.91-2.75-3.43-2.4-7.29-1.73-11.2.3-1.7.69-3.37 1.02-4.94l-6.9-1.59c.5-.67.88-1.1 1.15-1.59.38-.71 1.03-1.55.89-2.18-.12-.51-1.22-1.03-1.93-1.1-1.53-.17-3.18-.38-4.63 0-5.94 1.58-10.93-.83-16.2-3.04-7.76-3.27-16.04-5.35-23.63-8.92-8.46-3.99-16.47-8.98-24.54-13.76-2.66-1.57-3.38-5.23-2.52-7.97 3.32-10.42 6.68-20.82 9.78-31.3 5.18-17.6 9.86-35.33 16.33-52.56 5.6-14.86 10.21-30.08 15.26-45.14 2.43-7.26 4.91-14.5 7.21-21.8.4-1.26-.02-2.77-.04-4.16-.02-.78-.19-1.62.04-2.32.74-2.23 1.35-4.58 2.57-6.53.63-1 2.44-1.75 3.74-1.77 8.37-.13 16.48-1.77 24.6-3.62 1.76-.4 3.68-.08 5.53-.2 1.5-.09 3-.35 4.64-.56-1.29-4.64.35-8.73 2.02-12.41 3.4-7.5 7.53-14.67 11.43-22.09-6.7-4.32-13.83-8.76-20.77-13.47a36 36 0 0 1-13.02-15.77c-1.88-4.42-4.19-8.73-3.92-13.89.1-1.96-1.84-4.1-1.58-5.98.51-3.85 1.2-7.97 3.03-11.31 6.8-12.45 14.3-24.52 21.14-36.96 3.25-5.9 5.68-12.28 8.35-18.5 4.89-11.41 12.2-21.25 19.63-31.07a481 481 0 0 0 15.99-22.2c7.35-10.97 15.78-20.69 27.24-27.68 5.09-3.1 9.58-7.13 15.87-7.71.48-.05 1.16-1.1 1.24-1.75.97-7.74 5.27-12.73 12.54-15.2 2.93-1 4.58-2.9 5.43-5.8.4-1.36 1.1-2.84 3-1.18.4.35 1.52.26 2.1-.03 7.43-3.9 15.4-5.74 23.97-6.52l1.15-11.91c-3.39-.69-6.87-1.2-10.23-2.15a32 32 0 0 1-7.41-3.1c-3.86-2.27-5.07-6.87-3.2-10.86.27-.55.61-1.41 1.02-1.47 3.4-.52 2.23-3.03 1.88-4.74-.89-4.47-1.5-9-6.4-11.57-3.38-1.77-8.16-9.96-6.7-16.2.69-2.94.54-6.07.8-9.12.4-4.87 1.15-9.73 1.14-14.6 0-6.22-.28-12.49-1.04-18.67-1.04-8.28-1.23-16.65 2.73-23.93 2.34-4.28 6.89-7.82 11.2-10.47 7.5-4.6 15.58-8.25 23.4-12.33 9.37-4.88 17.57-2.92 25.56 3.48a83 83 0 0 0 29.02 15.1c5.63 1.61 11.03 4.34 16.17 7.22 5.66 3.17 10.99 6.97 14.85 12.43 2 2.84 2.34 5.89 1.76 9.2-.16.9-.11 1.97.2 2.8 1.75 4.55 1.48 9.1.75 13.8-.74 4.7-.98 9.48-1.25 14.23-.56 9.81.14 19.66-2.94 29.34-1.19 3.73.29 8.29.48 12.47.07 1.45.28 3-.16 4.32-2.78 8.48-7.94 15.58-13.95 21.96-5.46 5.79-12.83 6.03-20.21 5.43-1.9-.15-3.77-.55-5.54-.82-.76 3.79-1.56 7.51-2.22 11.26-.1.58.22 1.41.63 1.87a1963 1963 0 0 0 16.4 18.2c6.66 7.29 13.25 14.62 21.35 20.45 8.54 6.16 16.84 12.66 25.31 18.93 2.7 2 5.68 3.62 8.34 5.66 1.24.96 2.13 2.46 2.95 3.84.27.44.06 1.56-.34 1.93-1.4 1.3-3.42 2.14-2.54 4.73.14.43-.25 1.28-.65 1.63-2.94 2.52-5.87 5.06-8.97 7.37-1.35 1-2.18 1.48-1.56 3.58 3.34 11.2 6.68 22.35 12.57 32.57 4.37 7.55 4.1 15.53 1.48 23.49-2.26 6.81-4.14 13.56-.75 20.5a6.6 6.6 0 0 0 2.75 2.68c8.27 4.33 14.61 10.58 19.52 18.48 7.29 11.73 14.54 23.49 22.24 34.94 2.64 3.93 6.46 7.13 9.97 10.41 10.15 9.47 18.84 20 24.44 32.81.95 2.17 1.01 4.75 2.05 6.86 2.47 5.03 5.27 9.9 7.96 14.82 1.89 3.45 4.12 6.76 5.59 10.38.69 1.71.5 4.23-.23 6-2.16 5.2-6.7 8.09-11.78 9.74-1.81.59-4.88.16-6.19-1.07-3.27-3.1-7.82-4.95-9.4-9.86-.78-2.42-2.56-2.27-4-.14-5.62 8.34-12.35 15.34-21.68 19.75-4.48 2.12-8.6 5.2-12.44 8.37-1.86 1.53-2.94 4.18-3.98 6.5-.73 1.62.43 2.69 2.12 2.76 10.03.45 20.06.9 30.1 1.24 4.23.14 8.47-.03 12.7.04a42.5 42.5 0 0 0 18.5-3.92c9.02-4.13 18.48-6.15 28.34-6.63 1.08-.06 2.16-.57 3.23-.52 1.05.05 2.6.2 3.06.89 1.63 2.42 3.81 4.44 4.54 7.54 1.2 5.18 2.85 10.26 4.4 15.35 2.38 7.8 4.9 15.54 7.23 23.35 1.6 5.38 2.66 10.93 4.53 16.2a223 223 0 0 0 7.39 17.68c3.82 8.4 8.05 16.62 11.71 25.08 1.67 3.85 2.2 8.18 3.6 12.17 2.38 6.73 5.01 13.37 7.6 20.03 1.6 4.12 3.8 8.09 4.75 12.36.53 2.4.46 5.23-.02 8.06-.69 4.04-2.74 7.33-3.87 11.04-.92 3-2.54 3.6-5.58 2.72-.31-.1-.71 0-1.04.1-8.12 2.48-16.23 4.94-24.32 7.5a30 30 0 0 0-5.6 2.33c-14.25 7.87-29.6 12.9-45.3 16.55a55 55 0 0 1-26.44-.55c-7.74-2.05-15.54-2.83-23.52-3.06-6.95-.19-13.9-1.26-20.8-2.27a164 164 0 0 1-15.92-3.17c-8.97-2.23-15.55-7.61-21.2-14.99-4.6-5.97-10.65-10.83-16.14-16.1-1.97-1.88-4.2-3.47-6.92-5.7z"/><path fill="#000" d="M414.18 912.61c-2.97-1.25-5.03.36-7.35 1.96-2.76 1.9-9.88.7-12.6-1.81-5.2-4.78-10.1-9.8-12.36-16.94-2.4 4.75-4.66 9.3-6.99 13.84a7.5 7.5 0 0 1-7.12 4.36c-2.8-.01-5.64.15-8.22-1.35-.42-.24-.97-.54-1.4-.47a29 29 0 0 0-11.93 4.53c-2.15 1.48-1.95 4.57-1.15 6.19 1.6 3.29 1.3 6.76 1.95 10.08 1.5 7.54 3.06 15.1 4.82 22.53a173 173 0 0 0 10 30.36 141 141 0 0 1 4.56 11.62c.47 1.37 1.1 2.18 2.61 1.92 2.66-.46 4.84.88 6.82 2.19 4.47 2.96 9.54 4.8 13.77 8.32 5.21 4.33 11.57 5.37 18.29 3.59 6.59-1.75 13.41-2.9 19.8-5.08 5.68-1.94 11.38-3.96 17.08-5.94 1.97-.68 4.5-1.44 5.7-.02.71.83-.71 3.44-1.8 5.17-1.48 2.36-3.86 2.96-6.02 3.8-5.94 2.29-11.9 4.77-18.06 6.22-7.86 1.86-15.58 5.06-23.8 4.57-6.72-.41-13.4-1.56-20.08-2.58a855 855 0 0 1-25.1-4.24c-1.3-.24-3.8.21-3.53-1.83.15-1.17 2.54-.62 3.86-.37 6.34 1.18 12.78 1.43 19.14 2.3 3.95.53 7.91.92 12 1.07-3.19-1.38-5.43-4.09-8.98-5.04-2.84-.77-4.32-3.95-6.67-5.74-8.24-6.24-11.86-15.77-17.45-23.9-3.59-5.21-5.47-11.12-8.06-16.72-1.55-3.35-1.82-7.28-2.77-10.92-1.6-6.21-2.48-12.6-4.03-18.75-1.2-4.82-.97-9.67-2.11-14.4-.62-2.57.83-5.23-.42-8-.42-.93 1.04-3.2 2.95-3.83 3.67-1.22 7.31-2.5 10.97-3.73 2.58-.88 5.12.18 7.55.62 2.07.37 4.08.3 6.1.36 3.65.11 4.47-3.08 5.64-5.53 1.8-3.75 3.3-7.66 4.86-11.52 1.52-3.74 1.73-3.87 5.01-1.79 1 .64 1.35-.09 1.64-.67 2.1-4.24 4.6-8.23 7.73-11.79.47-.53.6-1.03.27-1.66-1.42-2.68-1.43-5.96-4.37-8.07-1.8-1.28-2.54-3.9-2.77-6.3-.16-1.67.03-3.04 2.28-3.58 2.62-.63 4.08-2.48 4.63-5.44 1.01-5.45 3.74-10.3 6.7-14.94 4.77-7.54 9.43-15.22 15.39-21.85 6.9-7.66 12.4-16.43 19.33-23.96 6.05-6.56 10.6-14.14 16.13-21 4.52-5.6 9-11.26 14.08-16.45 4.55-4.63 8.32-10.03 12.45-15.09 3.73-4.58 7.13-9.46 11.99-13.05 1.69-1.24 2.89-3.12 4.02-5.27-5.09-.46-9.92-.88-14.85-.75-5.02.12-10.07-.76-15.11-.75-5.75.03-11.4-.9-17.12-1.14-11.84-.48-23.6-1.76-35.4-2.75q-13.54-1.17-26.83-3.62c-7.43-1.36-14.94-2.26-22.32-4.33-5.9-1.65-11.96-3.08-17.88-4.8-4.13-1.2-8.48-1.57-12.38-3.57-2.36-1.2-2.83-3.35-.6-4.62 1.2-.69 2.18-.96 2.32-2.64.05-.61 1.58-1.81 2.1-1.86 4.45-.36 4.14-4.22 5.13-6.9 1.22-3.3 1.9-6.82 3.81-9.85.97-1.53.43-1.92-1.13-2.36-8.79-2.48-17.45-5.5-26.33-7.5-5.05-1.13-9.49-3.62-14.31-4.9-8.89-2.35-16.2-7.71-24.27-11.58-4.43-2.12-5.71-5.71-4.62-10.6 1.88-8.45 4.1-16.86 7.68-24.7 3.12-6.86 5.33-14 6.96-21.17 2.98-13.16 8.43-25.6 11.02-38.8 2.56-13.09 8.44-25.1 11.87-37.85 3.43-12.8 9.53-24.6 12.92-37.38.53-1.99 1.4-3.6-1.87-3.38-.77.05-2.2-.4-1.87-1.46.38-1.2-.13-3.23 1.98-3.38 3.26-.25 6.19-2.91 9.74-1.31.69.3 1.68.21 2.45 0 6.85-1.78 13.94-.62 20.8-1.72a56 56 0 0 1 9.29-.7c1.45.02 1.8-1.05 1.9-1.93.2-2.2 1.17-4.13 2-6.06 1.82-4.22 1.8-9.01 4.2-13.03 2.13-3.54 3.02-7.58 4.7-11.3.7-1.59.73-2.54-1.04-3.64-2.9-1.82-6.09-3.12-8.69-5.61-1.7-1.63-4.7-1.8-7.1-2.8a25 25 0 0 1-7.55-4.92c-2.97-2.77-6.74-4.71-8.39-8.74-.2-.47-.8-.95-.72-1.33 1.17-6.34-4.28-11.34-3.04-17.5-1.33-.3-1.23 1.2-1.9.91-.4-.18-.44-.95-.41-1.63.19-5.06 2.55-9.4 4.4-13.93 4.14-10.05 10.36-19 15.26-28.64 4.1-8.08 8.5-16 12.18-24.3 1.83-4.11 5.01-7.38 7.03-11.38.59-1.15 1.69-2.04 1.62-3.53-.04-.9.64-1.63 1.31-1.99 3.15-1.64 6.38-3.11 9.54-4.73 1.78-.91 1.8.28 2.1 1.46 1.02 4.3 3.97 6.84 7.93 8.4.57.23 1.25.47 1.71-.08s.12-1.1-.17-1.68c-1.23-2.6-1.9-5.4-3.28-7.96-1.11-2.05-.37-3.75 2.06-4.53 2.14-.69 4.2-1.64 6.34-2.3 2.32-.74 2.72-2.94 3.56-4.68.32-.66.07-2.65-2.03-1.8-3.11 1.27-6.3 2.34-9.4 3.63-2.04.85-3.26.63-3.84-1.76-.2-.81-.15-2.05-1.53-2.4-.6-.16-1.04-1.1-.44-1.83 1.68-2.07 2.09-4.8 3.64-6.92a352 352 0 0 0 17.44-26.05c3.26-5.41 7.82-9.36 13.47-12.19 2.05-1.02 3.8-2.58 5.6-4.07a69 69 0 0 1 13.52-8.54c.63-.3 1.5-.41 2.06.1.63.56-.26 1.05-.33 1.62a4.6 4.6 0 0 1-2.5 3.61c-2.19 1.19-3.28 3.48-5.08 5.09-5.2 4.67-11.6 7.68-16.94 12.16-.46.38-1.12.57-1.33 1.17-3.1 8.59-9.02 15.46-13.8 23.03-.58.92-1.22 1.82-2.02 3 5.28.24 10.75 4.57 14.3-2.52 1.08 1 .22 1.43.16 1.96-.16 1.52-2.86 2.36-1.1 4.42 1.8 2.1 4.12 2.04 6.45 1.62 1-.19 1.95-.48 3.48-.15-3.2 2.05-6.63 2.1-9.7 3.23.83.94 2 .92 3.28 1.05-2.65 4.1-2.78 9.03-5.75 12.88-2.11 2.74-1.8 2.97 1.32 4.18-.04.19-.1.54-.13.54-3.17-.38-4.43 1.52-5.41 4.13-1.04 2.75-2.4 5.39-3.71 8.03-1.44 2.9-2.77 4.4-8.06 4.18-2.25-.09-4.5.14-6.72-.5-1.29-.38-1.66.83-2.27 1.64-.92 1.24-1.91 1.05-1.96-.47-.05-1.42-.56-2.27-1.81-2.28-2.23 0-4.39-.1-6.53-.88-.9-.33-1.3.6-1.72 1.37a408 408 0 0 1-5.05 8.99c-2.21 3.86-5.14 7.25-7.2 11.24-3.48 6.76-6.8 13.66-10.83 20.09-4.09 6.52-7.52 13.41-11.73 19.84-1 1.52-.48 2.6-.4 3.92.37 6.9 2.87 13.12 6.14 19.08 1.46 2.65 4.17 4.08 6.24 6.13 2.9 2.87 6 5.38 9.43 7.71 4.35 2.96 9.75 4.32 13.2 8.95 2.14-4.02 3.23-8.04 4.6-11.95 4.6-13.16 9.85-26.02 17.44-37.8 1.2-1.86 2.3-3.98 4.22-5.2 2.79-1.79 1.3-2.86-.4-4-5.14-3.39-10.33-6.7-15.4-10.15a52 52 0 0 1-7.4-5.99c-.7-.69-1.25-1.43-2.59-1.67-1.46-.25-2.03-2.1-1.44-3.8.73-2.14 2.59-1.58 4.04-1.5 2.64.14 4.07 2.51 5.97 3.88 5.34 3.82 11.1 7.12 15.69 11.97 1.52 1.6 2.72 3.56 5.4 5.27-.7-4.55.56-8.37.45-12.34-.14-5.27.12-10.5 1.78-15.59.3-.95.61-1.73 1.77-1.77 1.59-.06 1.3 1.14 1.48 2.11 1.64 8.97 2.26 17.94.55 26.97-.26 1.34-.54 1.71-1.62 2.9 1.9.93 3.9.96 5.93.76.7-.07 1.37.06 1.88-.7 1.99-2.99 4.55-5.49 6.55-8.56 2.58-3.96 3.96-8.06 5.02-12.49 1.98-8.35 3.42-16.88 6.46-24.9 2.37-6.23 1.54-12 .34-18.18a249 249 0 0 0-4.92-21.04c-2.07-7.25-4.57-14.36-6.28-21.76-.75-3.25-.77-6.32-.88-9.5-.05-1.17.4-2.47 1.59-2.68 1.06-.18 1.05 1.24 1.48 1.98 5.99 10.45 8.53 21.9 10.65 33.65 1.38 7.7.93 15.46 2.26 23.1.1.56-.25 1.25.44 1.65 4.53 2.61 3.33 6.94 3.13 10.86-.6 11.7-4.52 22.66-7.9 33.72a40 40 0 0 0-1.26 16.17c.23 2.05.13 4.11-1.78 6.13 8.35.28 16.08 1.7 23.85 2.63 2.97.36 5.9 1.18 8.86 1.23 2.4.04 4.97-.26 7.2-1.1 5.3-2.02 9.95.18 14.75 1.7.34.1.85.59.82.83-.57 3.9 1.8 3.18 4.36 3.23 5.02.12 9.54 3.03 14.48 3.43 5.17.43 9.47 3.21 14.3 4.5a5.9 5.9 0 0 1 4.17 5.21c.15 3.42-2.3 5.27-4.45 7.2-1.04.94-2.44 1.5-3.74 2.11-1.5.72-3.06 2.68-4.77.86s-2.32-4-.68-6.5c2.07-3.17 1.97-3.44-1.86-4.32-6.34-1.44-12.67-2.9-18.87-4.9-3.48-1.12-3.79-.6-4.4 3.54-1.09 7.31-3.66 14.26-5.57 21.36-2.19 8.15-4.16 16.35-6.22 24.54-.22.85-.24 1.3.64.33.39-.43 1.06-.08 1.14.52.42 3.17 2.14 2.09 4.06 1.47 2.57-.83 5.31-.34 7.97-.31 3.16.04 6.1-.4 9.14-1.54 3.42-1.26 7.12 0 10.61.66 2.15.41 3.03-.15 3.99-1.95 5.81-10.92 10.34-22.38 14.27-34.08.07-.2.08-.43.2-.58.86-1.06.78-3.53 2.33-3.16 1.7.4 2.33 2.44 2.43 4.41.24 4.7-1.58 9-2.7 13.37a67 67 0 0 1-8.82 20.48c-3.78 5.75-8.23 10.3-15.52 11.1-2.56.29-4.57 2.08-6.74 3.25-4.72 2.54-8.89 1.09-12.82-1.32-1.6-.99-2.16-1.72-3.92-.08-1.53 1.43-4.37 1.24-6.04.19-1.4-.9-1.7-3.18-.34-4.96 1.32-1.74-.73-3.27-.47-5-1.35 5.6-2.66 11.22-4.05 16.81-.59 2.37-.15 3.65 2.66 3.45 2.04-.14 4.54-.98 5.05 2.44.16 1.01 1.42.64 2.15.57 3.56-.34 7.22-.38 10.62-1.35 2.23-.63 4.2-2.32 6.7-1.68 3.86.98 7.95.68 11.66 2.64 2.36 1.24 3.34 3.26 3.9 5.4 1.81 6.73 3.3 13.54 4.92 20.32.38 1.6.19 3.25.38 4.89.68 5.66 2.07 11.2 2.31 16.94.22 5.32 1.25 10.6 1.93 15.9.97 7.56 1.87 15.13 2.95 22.68.81 5.75 2 11.45 2.75 17.2 1.02 7.8 2.65 15.51 4.3 23.14 1.52 7.12 2 14.41 3.95 21.45a57 57 0 0 1 1.85 12.63c.13 3 2.4 5.11 2.26 8.32-.1 2.23.43 4.84.77 7.25.44 3.1.57 6.22 1.86 9.32.92-3.7.05-7.44.71-11.1.9-4.96 1.72-10.04 1.71-15.07 0-9.15 2.22-18.04 2.54-27.1a100 100 0 0 1 2.13-17.9c2.53-11.46 3-23.15 4.45-34.7 1.07-8.44 2.1-17 2.2-25.54.1-7.46 1.24-14.89.93-22.3-.32-7.71.88-15.4.22-23.03-.65-7.5.3-15.05-.83-22.45-.97-6.41-.2-12.9-1.35-19.24-1.14-6.3-.9-12.77-2.16-19-.98-4.9-.9-10.14-2.6-14.64-2.47-6.48-2.74-13.43-5.3-19.74-2.01-4.98-1.99-10.7-4.6-15.18-3.23-5.55-4.5-11.81-7.67-17.34-1.88-3.3-2.2-7.44-3.87-10.9-2.5-5.2-3.78-10.88-6.22-16.05-4.29-9.12-6.72-18.8-9.7-28.34-2.9-9.29-5.2-18.77-8.34-27.96-2.19-6.41-3.25-12.91-4.5-19.48-1.22-6.36-1.28-12.85-2.71-19.15-1.16-5.05-2.65-10.06-3.37-15.17-.5-3.53-2.88-7.06-.52-10.86.67-1.08-.43-1.7-1.55-1.26a1480 1480 0 0 0-15.92 6.26c-.44.17-.98.46-.78 1.12.97 3.15-1.42 3.94-3.48 4.84-2.15.94-4.37 1.72-6.56 2.56-.47.18-1.1.6-1.43.14-1.18-1.68-2.5-1.36-3.94-.48-2.34 1.43-4.9 2.74-5.98 5.4-.33.8.76 2.07.73 3.1-.16 4.5.16 9-.38 13.54-.43 3.77.64 7.68.3 11.58-.47 5.23-.86 10.47.06 15.73a17 17 0 0 1-.32 6.45c-.82 3.7-.12 5.64 3.3 6.84 3.9 1.4 7.1 3.54 10.18 6.24a25 25 0 0 0 7.37 4.27 100 100 0 0 1 14.1 7.1c2.94 1.73 3.27 5.63.43 7.58-6.3 4.36-12.76 8.47-19.2 12.6-1.12.7-1.52.06-1.61-1.2-.28-3.64 2.42-5.4 4.61-7.33 2.32-2.05 4.97-3.73 7.9-5.9-6.35-1.79-12.13-3.56-17.13-7.13-2.8-1.99-5.66-3.9-8.4-5.98-1.11-.84-1.91-2.08-3.45-2.4-.9-.18-1.51-.65-1.6-1.87-.56-7.24-3.26-14.02-4.88-21.03-2.25-9.77-2.54-19.54-1.8-29.48.3-3.88 0-7.75 1.75-11.43.39-.82.48-1.96 1.33-2.27 3.6-1.31 5.29-4.76 8.08-6.96 1.42-1.11 2.48-2.58 4.36-3.22.89-.3 1.92-.88 2.18-2.57.43-2.71 3.6-3.16 5.44-2.8 3.57.73 6.15-.93 8.85-2.37 4.92-2.63 10.26-3.73 15.63-4.77 1.61-.32 2.88.2 3 2.29.5-2.2.77-4.47 1.56-6.56.8-2.15.3-2.59-1.87-2.6-9.68-.09-16.86-5.56-23.18-11.94-1.98-2-2.01-5.97-2.82-9.08-.16-.59.6-.96 1.11-1.33q1.26-.88 2.36-1.96c3.66-3.7 3.64-6.84.15-10.58a77 77 0 0 1-7.59-9.14c-2.93-4.32-2.73-8.77-1.53-13.08 1.3-4.66.75-9.37 1.6-14 .76-4.2 1.17-8.52 1.58-12.74.4-4.25.98-8.7-1.26-13.18-2.23-4.44-1.08-9.63.06-14.43 1.15-4.82 3.65-9.05 6.15-13.27.94-1.6 2.5-2.5 3.93-3.4 4.81-2.96 9.26-6.43 13.72-9.85 5.45-4.15 11.56-6.49 18.1-8.18 3.02-.79 5.44-3.22 9.06-2.8 8.81 1.01 16.96 3.24 24.62 8.19 4.03 2.6 5.96 7.26 10.48 9 .37.15.67.47 1.04.61 7.97 2.96 15.57 6.86 23.78 9.16 4.89 1.38 8.33 5.1 12.48 7.7 3.64 2.26 4.64 6.08 6.5 9.55a16 16 0 0 1 1.58 12.12c-.44 1.76.77 3.85.36 4.44-1.36 2-.69 3.98-.9 5.94q-.99 9.46-1.84 18.93c-.82 9.19-1.17 18.44-3.97 27.31-.57 1.78.13 3.26.34 4.78a56 56 0 0 1-3.51 28.53c-.95 2.4-3.11 4.35-4.88 6.37-2.15 2.46-4.8 4.44-6.63 7.24-2.21 3.38-6.18 3-9.45 3.9-4 1.09-8.13 1.87-12.36 1.14-1.09-.18-1.65.28-1.17 1.64.32.92.24 2.08.03 3.06-.7 3.36.78 5.13 3.98 5.14 3.85 0 4.84 2.61 5.34 5.48.38 2.16 1.4 3.66 2.78 5.26a147 147 0 0 0 23.3 21.87c10.78 8.13 21.63 16.2 33.8 22.25a67 67 0 0 1 6.93 3.83c3.06 2 3.93 5.34 4.54 8.7.08.4-.23 1.1-.58 1.32-3.26 2.06-5.26 5.62-8.89 7.24-4.13 1.85-6.46 5.6-9.1 9-.71.92-.61 2.07.04 2.8 1.35 1.53 1.91 3.38 2.42 5.22 2.02 7.29 5.61 13.96 8.46 20.9 1.98 4.8 4.8 9.4 7 14.22 2.47 5.39 3.1 10.85 1.24 16.52-1.8 5.5-1.51 6.43 3.1 10.22a8 8 0 0 1 1.7 2.16c2.74 5.1 6.13 9.93 7.44 15.65.48 2.1 2.61 2.51 3.2 4.22a84 84 0 0 0 9.43 18.77c3.8 5.73 7.08 11.78 10.84 17.53 4.03 6.15 8.6 11.9 12.6 18.04a12.7 12.7 0 0 0 4.95 4.53c3.02 1.49 4.56 4.13 6.53 6.61 3.54 4.5 5.28 9.9 8.06 14.75 1.77 3.1 2.4 6.9 3.18 10.48.3 1.36.95 2.19 1.82 3 4.86 4.54 9.58 9.21 12.85 15.08a33 33 0 0 1 3.28 7.48c1.23 4.64-2.3 7.13-5.22 9.67-1.08.95-1.6 1.27-.7 2.79 1.94 3.25 2.63 7.01 3.53 10.66.5 2 2.02 3.82 1 6.12-3.4.16-5.29-1.53-6.67-4.68-1.25-2.81-2.48-5.7-4.56-8.17-1.17-1.4-1.5-.84-2.17-.06a8.8 8.8 0 0 1-4.98 2.95 29 29 0 0 1 7.83 14.14c.26 1.06.7 1.46 1.86 1.13 3.14-.87 6.3-1.4 9.37-2.8 2.97-1.34 6.45-1.73 9.75-2.1 2.43-.26 4.8-.9 7.31-.75 2.68.15 3.4-2.83 5.48-3.93 3.53-1.85 6.7-.95 8.04 2.84 1.6 4.52 3.13 9.03 5.29 13.38 2 4.03 2.24 8.9 4.01 13.07 2.33 5.47 3.25 11.36 5.92 16.74 1.95 3.95 2.34 8.62 3.96 12.77 2.03 5.18 2.42 10.88 4.67 15.85 4.4 9.7 6.83 20.05 10.58 29.93 1.85 4.88 3.13 10.01 5.32 14.68 4.83 10.3 8 21.24 12.53 31.64 2 4.62 3.27 9.57 4.8 14.39.16.52-.02 1.29-.3 1.79a1447 1447 0 0 1-9.79 16.67c-.63 1.05-1.36 2.16-2.93 1.29-1.67-.93-3.12.55-4.77.46-5.6-.29-11.16-.03-16.44 2.21-.56.24-1.19.25-1.62.78-4.78 5.74-11.84 6.75-18.38 8.81-3.94 1.25-7.6 3.2-11.65 4.17-7.13 1.72-13.61 5.29-20.63 7.32-6.3 1.83-12.23 4.69-18.62 6.25-.58.14-1.4.21-1.66.6-1.22 1.92-2.63 1.63-4.27.69-1.17-.67-2.01-.4-2.53 1-.5 1.34-1.27 2.57-1.84 3.89q-.76 1.74-2.47 1.14c-1.13-.4-1.4-1.21-1.18-2.44.29-1.63 2.2-3.29.77-4.8-1.13-1.2-3.2-1.05-4.86-1.44a591 591 0 0 0-22.32-4.82c-4.52-.89-8.55-2.88-12.94-3.9-6.49-1.49-12.74-3.78-19.1-5.6-4.66-1.32-9.83-1.2-14.75-2.1a9.3 9.3 0 0 1-5.77-3.46c.42-.79 1.48.06 1.77-.86-5.06-.66-9.92-2.09-14.78-3.5-1.14-.32-2.2-.35-3.3-.39-2.16-.07-2.48 1.16-2.28 2.95a25 25 0 0 0 2.44 8.5c1.55 3 1.58 6.18 2.15 9.24a768 768 0 0 0 4.2 21.52c1.32 6.14 1.86 12.41 3.47 18.44 1.5 5.61 1.61 11.45 3.1 17 2.37 8.9 3.29 18.09 5.8 26.93.46 1.64 0 3.28.45 4.88 1.95 6.94 2.37 14.28 4.44 21.1 1.87 6.13 2.14 12.55 4.45 18.61 1.5 3.94.88 8.67 2.17 12.83 2.16 7 2.31 14.4 4.65 21.42 1.39 4.17 1.87 8.75 2.63 13.16.29 1.65 1.04 3.1 1.55 4.58.79 2.31-1.1 3.1-1.86 2.87-1.92-.58-3.49.89-5.31.3-.96-.3-2.2-.3-1.22 1.54 3.1 5.84 4.34 12.4 6.9 18.47.34.83.45 1.76.65 2.65.61 2.77.05 6.63 5.07 5.12 1.29-.4 1.63.9 2.07 1.77.68 1.38-.82.66-1.18 1.16-2.4 3.29-6.4 3.49-9.83 4.37-6.5 1.68-10.14 5.29-10.36 12.13-.08 2.7-1.12 5.6 2.23 7.62-3.04-1.98-6.95.81-9.66-3.12-1.36-1.98-5.35-1.03-8.14-1.4-.47-.06-1.01.28-.76 1.24.51 1.95.34 4.15 1.11 5.96 2 4.63 2.92 9.52 4.1 14.34.31 1.27.52 2.15 2.44 1.85 2.72-.42 4.4 1.4 4.34 4.14-.06 2.55.35 5.15-.46 7.65-.51 1.59.81 2.65 1.6 2.8 8.92 1.64 16.32 7.16 24.93 9.57 1.34.38 4.13.64 3.44 2.98-.67 2.32-2.77 1.69-4.88 1.31-8.41-1.53-15.93-5.92-24.36-7.29-.59 4.22.44 6.19 4.53 7.03 2.06.42 3.85 1.26 5.7 2.03 9.64 4.06 19.85 5.77 30.08 7.46 4.5.74 8.93 1.98 13.45 2.5 7.42.84 14.7 2.76 22.27 2.5 2.94-.1 5.9.59 8.88.57 5.95-.04 11.7-1.47 17.55-2.08 3.15-.33 6.01-1.93 9.79-1.67-2.32-5.45-2.61-11.31-5.7-16.17-1.07-1.7-3.15-2.8-4.86-4.05a2 2 0 0 0-2.34.03c-6.69 4.76-14.58 7.17-21.68 11.12q-1.48.8-2.85 1.76a5 5 0 0 1-4.9.73c-1.22-.43-2.46-.83-2.64-2.21-.17-1.32.63-2.29 1.83-2.91 7.93-4.11 15.45-9.23 24.73-10.01.35-.04.67-.38 1.05-.61-4.78-2.77-9.83-4.84-13.71-8.83-.93-.94-2.77-.41-4.21-.91-6.26-2.19-12.28-4.8-17.62-8.77a37 37 0 0 1-4.66-4.22c-1.16-1.22-2.05-1.62-3.64-.53-5 3.4-10.04 6.76-15.68 9.08-1.41.58-2.8 1.24-4.23 1.8-.9.35-2.07 1.36-2.74.24-.6-1.01.3-2.25 1.13-2.96 3.26-2.83 6.65-5.55 10.55-7.47 3.13-1.54 6.4-2.8 9.7-4.24-1.13-.97-2.24-1.72-3.08-2.7-3.4-4-3.26-3.76-7.92-1.82-5.57 2.33-10.76 5.6-16.75 6.92-1.54.34-2.94.93-4.66.08-2.61-1.3-2.9-2.17-.58-4.1 2.38-1.96 5.27-3.2 8.1-4.1 4.35-1.37 8.34-3.63 12.77-4.72 1.51-.38 1.76-1.21.73-2.25-2.6-2.63-3.54-6.48-6.94-8.62-2-1.27-2.13-7.29-.64-9.14 1.25-1.56 2.52-1.94 4.4-.48 3.54 2.75 6.77 5.66 9.02 9.64 1.13 2 3.34 3.2 4.99 4.84 5.04 5.04 9.96 10.38 15.76 14.41 3.96 2.75 8.06 5.49 11.8 8.46 3.26 2.58 7.49 3.94 10.04 6.94 4.38 5.15 10.62 4.07 15.88 6.1 4.12 1.58 8.33 3.25 11.56 6.12 3.13 2.78 4.58 6.96 5.57 11.11 1.26 5.29.56 10.56-.01 15.85-.12 1.04-.89 1.38-1.61 1.64-4.29 1.48-7.94 4.73-12.57 5.06-4.28.3-8.6 2.19-12.92.1a3.3 3.3 0 0 0-2.1-.17c-8.19 2.23-16.62 1.01-24.91 1.72-2.03.18-3.72-.91-5.68-1.09-6.72-.6-13.45-1.09-19.98-3.39-3.41-1.21-7.28-1.24-10.88-2.25-15.56-4.38-31.48-7.06-47.35-9.98-9.5-1.75-19.05-3.3-28.56-5.06-1.22-.22-3.44-.16-2.9-2.27.42-1.63 1.58-2.5 3.93-2.18 5.46.73 11.1 2.13 16.36 1.63 3.95-.37 7.8.36 11.65-.15.87-.11 1.36-.13.68-1.1-.08-.11.24-.74.4-.75 5.15-.18 4.6-5.78 7.69-8.18 2.6-2.03 1.94-6.32.47-9.2-2.32-4.5-3.1-9.4-4.75-14.05-1.72-4.83-3.32-9.7-4.98-14.55-.12-.37-.23-.99-.46-1.04-3.93-.94-3.23-3.37-2.81-6.5.46-3.44-1.7-6.66-3.64-9.45a22 22 0 0 1-3.06-6.07c-1.68-5.3-5.8-9.76-5.75-15.58.03-2.94-1.47-2.7-3.4-2.7-7.88.02-15.79.45-23.51-1.84-2.42-.72-4.32-1.66-3.77-4.56.35-1.87-1.9-1.52-2.16-3.18a51 51 0 0 0-2.74-9.6c-2.5-6.77-3.48-13.95-6.1-20.7-1.63-4.17-1.94-8.84-3.33-13.13-1.94-6.01-2.3-12.39-4.32-18.3-1.74-5.09-2.17-10.41-3.72-15.47-2.52-8.24-3.77-16.77-6.1-25.05-.93-3.3-1.43-6.71-2.2-10.4-4.6 10.29-9.07 20.28-15.02 29.4-6.67 10.2-12.45 20.9-18.88 31.23-6.56 10.52-12.28 21.58-18.39 32.4-.8 1.4-1.74 2.74-2.47 4.18-1.18 2.33-2.87 3.75-6.15 3.28 1.15 1.1 2.42 1.82 1.6 3.16-.71 1.16-1.85.59-2.78.35-7.2-1.77-14.43-3.31-21.43-6.04-4.5-1.75-9.22-3-13.59-5.2-1.1-.55-2.02-.27-2.87.89-1.57 2.12-2.43 4.61-4.02 6.77-1.08 1.48-3.27 1.2-3.63 3.12l.1-.04zm53.36-343.55c0-7.25-.08-14.5.02-21.75.08-5.76.74-11.52.5-17.26-.28-7.07.45-14.1.92-21.1.23-3.49-.56-6.85-.13-10.33.66-5.18.84-10.41 1.13-15.62.09-1.6-.96-3.12-.41-4.81.86-2.7.28-5.52.46-8.27.06-.97-.18-1.5-1.32-1.55-3.16-.09-6.37-.69-9.48-.35-7.4.78-14.84.33-22.26.7-6.04.3-12.15-.1-18.27.15-11.57.47-23.15.98-34.72 1.24-9.96.22-19.91 1.1-29.88.78-.93-.03-1.87-.1-2.78.03-7.5 1.04-15.06.51-22.59.6-1.32.01-2.21-.19-2.4 1.73-.31 3-1.28 5.94-1.74 8.93-.27 1.73-2.53 2.85-2.28 3.68.49 1.62-.22 2.8-.58 3.98-4.1 13.76-8.6 27.4-13.01 41.05-5.74 17.8-11.82 35.5-17.64 53.28-3.44 10.48-6.96 20.92-9.83 31.56-1.89 6.98-6.04 13.11-7.84 20.16 4.72.3 9.32.55 13.44 3.17 2.85 1.81 5.74 3.82 8.9 4.85 6.61 2.15 12.71 5.63 19.58 7.1 5.43 1.16 10.65 3.16 15.93 4.78 6.86 2.1 13.82 4.38 20.17 7.98.56.32 1.14.86 1.96.62 3.67-1.07 7.5-.6 11.22-.9a491 491 0 0 1 37.37-1.76c6.81-.04 13.61.29 20.76-.48-6.8-5.14-14.8-5.35-22.33-6.4-7.07-.98-14.25-1.57-21.35-2.31-10.76-1.12-21.5-2.47-32.28-3.54a187 187 0 0 1-17-2.76c-7.68-1.49-15.62-1.86-22.97-5.08-4.03-1.77-8.38-2.78-13.26-4.35 4.16-1.62 7.48-1.92 11.01-.8 2.3.74 4.76 1.2 7.16 1.3 7.9.33 15.57 2.43 23.51 2.72 5.98.22 11.9 1.93 17.85 2.9 5.56.9 11.12 1.64 16.77 2.08 6.15.47 12.27 1.79 18.47 2.35 4.16.38 8.34-.19 12.53 1.06 4.35 1.3 9.12.46 13.6 1.09 7.2 1.01 14.43 1.46 21.66 2.1 4.46.39 8.93.76 13.36 1.36 6.76.92 13.51 1.85 20.32 2.37 5.49.42 10.95 1.16 16.44 1.66 3.77.34 7.56.54 11.51.81-3.24-7.68-10.89-11.14-14.43-17.98-.52-.99-1.56-1.67-.97-2.94.82-1.8 1.98-.4 2.8-.09 6.9 2.51 11.35 8.02 15.7 13.45 2.03 2.51 3.55 3.9 7.26 4.05 8.46.35 16.74-.57 25.08-1.39 2.49-.25 2.79-1.34 2.26-3.18-1.52-5.26-1.08-10.8-2.74-16.12s-1.56-11.08-3.05-16.6c-1.61-5.93-1.85-12.2-3.46-18.22-1.44-5.36-1.84-10.92-3.28-16.34-1.64-6.16-2.65-12.57-3.76-18.88-2.04-11.64-3.48-23.4-5.58-35.05-1.13-6.27-1.13-12.74-2.14-19.11-1.12-7-1.13-14.15-2.04-21.23-.8-6.15-.94-12.37-2.9-18.34-.5-1.52-1.1-2.81-3.03-2.69-1.63.1-3.27.1-4.91.3-3.85.46-8 1.61-11.54.64-3.73-1.03-6.4.9-9.57 1.2-1.38.13-1.71 1.35-1.34 2.59.35 1.13.94 1.47 2.3 1.07 2.82-.84 5.74-1.34 8.63-1.93 5.58-1.13 7.07-.22 8.4 5.3 1.7 7.1 2.95 14.31 3.55 21.57.25 3.02 1.27 6.5-1.36 9.37-3.14-6.15-5.28-12.49-7.62-18.73-1.06-2.83-1.73-5.8-2.69-8.69-.43-1.28-.8-2.66-2.7-2.82-2.5-.21-4.86.68-7.32.7-.98.01-1.01.8-1.04 1.57-.17 4.93-1.19 9.84-1.16 14.72.07 10.2-2.34 20.16-2.5 30.32-.07 3.57-.79 7.13-1.35 10.68-1.28 8.22-1.01 16.56-1.96 24.78-.35 3.08.1 6.34-1.74 9.29zm157.84 348.18c.83-.89.54-1.48.2-2.17-3.47-7.04-4.42-14.87-6.78-22.27-1.76-5.52-2.21-11.38-3.86-17-1.82-6.2-2.67-12.65-4.4-18.9-1.1-3.99-1.22-8.29-2.62-12.15-2.22-6.13-2.77-12.6-3.96-18.87-1.68-8.86-3.78-17.68-4.93-26.64-.41-3.2-1.85-6.07-2.63-9.11-1.08-4.2-1.1-8.79-2.23-12.9-2.08-7.49-2.23-15.3-4.63-22.73-1.8-5.57-2.42-11.52-3.5-17.28a372 372 0 0 0-6.61-27.92c-1.86-6.92-2.72-14.04-5.11-20.87-1.95-5.56-2.45-11.65-3.73-17.48-1.7-7.74-3.46-15.55-4.33-23.47-.16-1.42-.22-3.25 1.32-3.74 1.55-.48 3.43-.74 4.82.94 1.27 1.54 2.71 2.95 3.41 4.88q2.95 8.2 5.87 16.39c2.17-4.47 5.34-8.48 6.28-13.6.44-2.4.99-4.77 1.39-7.17.83-4.9 2.74-9.54 3.79-14.37 1.67-7.66 4.8-14.88 6.3-22.6.95-4.86 2.84-9.52 3.7-14.43.26-1.49.88-2.92 1.33-4.37 2.88 1.25 1.34-1.33 1.75-2.12.36-.67.32-1.55.51-2.65-6.3.65-12.37-.06-18.48-.02-6.97.05-13.96-1-20.92-1.77-4.55-.5-4.27-.62-3.5-5.2.48-2.84 2.6-5.79.26-9.1-.41.66-.9 1.08-.9 1.5 0 5.75-1.72 11.37-1.66 17.06.05 5.06-1.3 9.88-1.42 14.94-.2 8.5-2.74 16.85-3.02 25.49-.18 5.5-1.86 10.93-2.77 16.42-.53 3.2-1.52 6.51-1.14 9.64.51 4.26-.45 8.36-1.2 12.28-.77 4.06-2.12 7.5 1.37 10.84.75.71 1.21 1.8 1.62 2.9 2.16 5.71 4.94 11.08 9.18 15.63 1.6 1.7 1.56 4 .86 6.12-1.09 3.3-.09 6.95-2.75 10.42 3.31-1.11 5.47-2.12 5.63-5.19.04-.71.83-1.3 1.53-1.19.55.1.73.87.88 1.51.77 3.22-.74 5.17-4.5 7.46-2.92 1.79-6.58 2.15-9 4.83-.35.39-1.05.71-1.21.05-.46-1.85-1.66-.93-2.68-.93-4 0-7.98.93-11.9.83-8.1-.22-16.2.55-24.3-.13-2.1-.18-4.18-.87-6.57-.31 1.95 4.53 2.85 9.23 4.34 13.76 3.36 10.19 5.99 20.63 8.8 31 1.86 6.83 2.76 13.88 4.07 20.81 1.52 8.09 3.6 16.05 5.07 24.15 1.58 8.73 2.82 17.58 5.17 26.16 1.06 3.9 1.3 7.92 2.75 11.82 2.65 7.13 3.09 14.86 5.04 22.26 2.38 9.05 4.12 18.28 6.85 27.28a309 309 0 0 1 6.18 24.28c.56 2.6 1.52 3.15 3.94 3.38 6.02.57 12.02-.59 18.03.02q5.46.55 11-.26c3.73-.52 7.58-1.97 10.95-1.9 4.62.12 8.32-1.66 12.35-2.8 1.5-.41 3.8-.53 3.64-3.3-.05-.87 1.3-.96 2.07-.7 1.8.62 4.1.16 5 2.56zm72.03-186.88c1.44-4.33 2.8-8.32 4.1-12.32 2.03-6.28 3.8-12.66 6.77-18.6.64-1.27 1.34-2.76 3.04-2.55 3.31.39 4.31 2.16 3.39 5.61-.67 2.54-2.27 5.23-1.86 7.57.9 5.1 1.1 10.18.99 15.29-.05 2.2.83 1.98 2.4 1.5 2.25-.68 4-2.34 6.32-2.87 8.62-1.97 16.55-6.05 25.13-8.16 6.76-1.66 13.02-4.97 20.13-5.65 2.45-.24 5.26.2 7.5-1.21 5.13-3.24 10.7-3.99 16.61-3.65 1.5.09 3.72.45 4.65-.8 1.98-2.68 3.9-5.45 5.22-8.6.67-1.6.4-2.84-.5-4.23-4.27-6.57-7.19-13.85-10.78-20.77-1.7-3.28-1.79-7.34-3.93-10.07-4.08-5.2-3.84-12.26-8.25-17.23-1.1-1.24-1.15-3.44-1.57-5.23-1.2-5.19-4.2-9.64-5.81-14.69-3.04-9.58-6.54-19.02-9.76-28.54-.8-2.38-.9-5-2.14-7.23-3.36-5.98-4.5-12.76-6.5-19.17a216 216 0 0 1-5.06-19.74c-.94-4.45-2.39-8.8-3.24-13.27-.82-4.3-.61-4.33-4.65-2.89l-1.42.53c-6.2 2.05-12.72 3.06-18.6 6.1-.67.36-1.71 0-1.01 1.45 4.16 8.54 5.2 18.04 8.1 27 3.4 10.49 5.26 21.44 8.78 31.95 1.58 4.69 1.66 9.88 3.33 14.52 2.37 6.58 3.05 13.55 5.39 20.11 1.67 4.72 1.46 9.9 3.63 14.56 1.09 2.34 1.37 5.08 1.9 7.66.24 1.15-.55 2-1.42 2.56-.69.46-1.2-.17-1.3-.8-.65-3.34-2.7-6.06-4.04-9.1-2-4.52-3.1-9.33-4.87-13.94-3.07-8.06-6.37-16.03-8.81-24.36-2.25-7.65-4.53-15.34-6.92-22.97-2.1-6.7-4.37-13.37-6.2-20.15-1.8-6.67-4.62-13.11-4.73-20.18-.02-1.6-.98-2.25-2.24-2.45a21 21 0 0 0-4.32-.2c-2.22.1-3.42.98-3.44 3.6-.04 3.33.89 6.51 1.05 9.77.3 5.75-.55 11.66.46 17.27 1.46 8.1.72 16.3 2.2 24.36.9 4.92.54 10.08 1.48 15 1.69 8.84 1.27 17.91 3 26.71.78 3.99-.14 8.1 1.58 12.04 1.57 3.57-.2 6.49-4.09 6.44-2.03-.03-4.77-1.43-5.83-3.44-1.59-3-2.58-6.38-3.43-9.7-1.46-5.73-1.43-11.69-2.35-17.52-1.14-7.14-.83-14.5-1.49-21.73-.5-5.52-.01-11.08-.67-16.54-1.05-8.78-.4-17.6-.84-26.39-.27-5.44-.07-11.1.48-16.62.25-2.6-.85-2.27-2.42-1.53-.08-1.36 2.16-1.85.88-3.23-1.74-1.88-1.28-4.16-.89-6.16 1.39-7.2.32-14.7 2.87-21.76.72-2.01-1.74-2.14-2.77-2.97-1.2-.96-1.24.72-1.75 1.31a22 22 0 0 0-4.44 8.48c-1.27 4.77-2.87 9.4-4.62 13.97-.84 2.18-1.69 3.61 1.75 4.03 1.78.2 3.44 1.61 5.1 2.58a2.5 2.5 0 0 1 1.17 2.37c-.08 1.37-1.3.57-1.9.93-1.44.88-3.05.76-4.5.47-4.12-.83-8.36-.27-12.4-.2-5.24.09-10.32-.3-15.45-.92-1.9-.24-3.17-.07-2.94 2.74.68 8.39 2.57 16.68 2.08 25.16-.23 3.98 1.13 6.54 5.08 8.35a35 35 0 0 1 11.82 9.16c6.92 8.08 12.32 17.2 16.61 26.92 2.74 6.19 4.45 12.9 3.9 19.57-.8 9.9-5.58 18.22-13.05 24.83-1.13 1-1.36 1.57-.96 3 1.43 5.03 4.67 9.17 6.56 13.95 2.96 7.47 8.39 13.72 10.48 21.66.28 1.09.98 2.02.68 3.27a53 53 0 0 0-1.5 17.37c.76-3 1.58-2.55 2.48-1.02.57.98.8 2.05 1.15 3.1.68 2 .05 4.28 1.41 6.51zm-190.2 13.45c-.49 3.4-2.31 4.94-3.95 6.67-3.04 3.21-7.22 4.49-10.89 6.64-8.75 5.12-17.4 10.44-26.63 14.71-3.04 1.4-5.28 4.24-8.62 5.28-4.23 1.32-6.77 4.66-9.4 7.91-2.58 3.17-4.87 6.54-7.39 9.72-6 7.57-12.28 14.94-18.53 22.33-2.63 3.1-4.16 7.11-7.02 9.84-3.92 3.74-7.03 8.1-10.67 12.02-5.59 6-8.93 13.76-15.03 19.36-1.03.94-.86 1.64.22 2.47a21 21 0 0 1 5.01 5.47c4.66 7.25 10.79 13.16 17.1 18.89 3.33 3.02 7.35 5.08 11.09 7.53 9.9 6.5 20.53 11.35 31.85 14.82 2.65.82 4.3 2.62 5.73-2.07 1.96-6.4 5.77-12.2 8.67-18.3 3.84-8.07 7.18-16.4 11.43-24.24 10.5-19.33 21.43-38.42 32.08-57.66 2.74-4.97 7.54-9.26 4.32-16.22-1.63-3.53-1.04-8.05-2.36-11.8-2.4-6.87-2.14-14.23-4.52-21.1-1.24-3.6-.85-7.66-2.5-12.26zm85.36-645.47c-2.9.88-5.62 1.77-8.3 2.23-8.55 1.45-17.15 1.36-25.42-1.71-3.2-1.2-6.71-2.24-9.17-4.39-1.65-1.43-3.19-1.57-4.15-.86-1.55 1.15-3.32 1.32-4.84 1.43-3.34.25-4.58 2.13-5.78 4.86-1.06 2.42-2.46 5.18-4.95 6.24-4.13 1.74-6.38 4.93-7.86 8.73-.76 1.96-1.6 3.49-3.49 4.31-4.34 1.9-5.29 5.67-5.22 9.8.07 4.8-.22 9.49-1.86 14.06-.88 2.47-2 4.92-1.9 7.63.05 1.36-.12 2.75-1.8 2.52-1.5-.2-2.71-1.14-2.56-3.07.08-.96.4-1.82.33-2.9-.25-4-2.86-6.55-5.32-8.97-6.3-6.22-11.37-4.83-13.89 3.23-.18.58-.15 1.22-.3 1.8-.81 3.45.31 7.11-.31 10.28-.86 4.34.77 7.39 2.53 10.71.64 1.18 1.6 2.52 2.93 2.55 3.2.1 6.24 1.08 9.4 1.26 3.64.2 6.6 2.1 6.53 6.33-.05 2.93-.83 5.59-1.68 8.4-1.33 4.41-2.28 8.96-4.02 13.26-.37.91-.09 1.58.26 2.23 1.9 3.57 2.23 7.64 4.57 11.21 2.06 3.13 2.22 7.48 3.36 11.25.44 1.48 1.11 3.96 1.9 4.06 3.9.47 7.32 2.54 11.17 2.97 6.5.72 12.87 2.25 19.55 1.63 2.2-.2 2.88-.8 3.19-2.44.91-5 1.7-10.01 2.54-15.02.66-3.9 1.98-7.7 1.85-11.72-.03-.76.25-1.9-1.11-1.65-3.6.66-6.74-1.07-9.97-1.98-7.5-2.1-14.73-4.95-20.94-9.9-.95-.76-1.77-1.36-1.3-2.63.49-1.32 1.53-1.9 2.93-1.7 2.92.41 5.8 1.12 8.04 3.11a9 9 0 0 0 3.72 1.89c7.76 2.28 15.42 5.03 23.53 5.85 4.93.5 9.73.73 14.22-2.52 4.2-3.05 7.03-7.2 10.52-10.8 3.4-3.52 5.9-7.4 6.64-12.1.4-2.46 2.16-5.26.03-7.63-.97-1.07-.9-1.7-.5-2.89a55 55 0 0 0 2.63-15.88q.16-11.11 2.37-22.07c1.4-6.85 1.77-13.81 1.92-20.99zM554.2 209.9c-.66 4.38-1.35 8.63 1.18 12.75 2.38 3.87 3.86 8.19 5.73 12.3 3 6.65 5.75 13.4 8.82 20 4.22 9.09 7.72 18.5 11.5 27.8 2.55 6.24 4.8 12.62 7.65 18.74 3.55 7.65 5.87 15.82 9.77 23.33a24 24 0 0 1 2.2 7c.85 5.15 3.46 10.25 1.38 15.56-4.35 11.13-3.26 22.72-2.5 34.1.61 9.21.97 18.46 2 27.66.47 4.25.11 8.6.5 12.87.9 9.96 1.3 19.94 2.24 29.9.86 9.12 1.73 18.25 2.73 27.34a349 349 0 0 0 4.42 29.05c.83 4.22 1.12 8.56 2.11 12.74a459 459 0 0 0 6.68 25.4c.82 2.72-.07 6.63 4.14 7.79.95.26.87 1.66.4 2.45-1.4 2.28-.72 4.48-.04 6.73.96 3.15 1.9 6.3 3.01 9.42 2 5.53 2.78 11.48 4.97 17 1.76 4.43 2.3 9.19 3.88 13.72 2.64 7.6 5.85 14.96 8.44 22.56.59 1.73.65 3.91 1.77 5.14 4.43 4.88 4.7 11.55 7.78 17.01 2.15 3.8 3.23 8.2 4.94 12.27 4.13 9.82 7.63 19.9 11.3 29.9 2.19 5.93 3.48 12.1 4.93 18.23.17.7.53 1 1.23 1.12 3.89.68 7.38-2.9 6.02-6.55-2.67-7.18-6.3-13.87-10.13-20.53-4.95-8.6-9.2-17.65-13.04-26.8-4.3-10.23-7.37-20.92-11.67-31.2-3.8-9.07-5.83-18.92-8.22-28.52-1.61-6.45-1.98-13.22-2.3-19.77q-.74-14.92-1.53-29.83c-.13-2.65.06-5.49-.85-7.89-2.56-6.8-3.44-14.03-5.9-20.89a1230 1230 0 0 0-9.06-24.46c-2.42-6.32-3.82-12.85-5.82-19.23-1.56-4.98-1.25-10.31-1.96-15.45a177 177 0 0 1-.96-38.56c.22-2.65-.15-5.23.06-7.8.35-4.35 1.18-8.66 1.58-13 .38-4.2 1.34-8.3.83-12.67-.4-3.46.73-7.08 1.05-10.64a80 80 0 0 1 3.32-17.3c1.3-4.04 3.14-7.9 4.73-11.85 1.38-3.45 1.7-6.81-.34-10.21-4.17-6.95-6.97-14.52-9.67-22.11-.95-2.66-1.25-5.6-2.46-8.11-2.38-4.97-2.85-10.2-3-15.54-.04-1.6.46-2.7 2.24-2.55 1.34.12 2.02-.63 2.82-1.51 2.58-2.89 5.14-5.8 7.93-8.48 1.51-1.45.66-1.77-.43-2.7-1.4-1.2-3.27-1.14-4.7-2.37-5.69-4.89-12.03-8.94-17.89-13.67-6.7-5.41-13.43-10.8-19.98-16.41-3.62-3.11-7.22-6.17-10.44-9.73-2.33-2.57-4.44-5.27-5.87-8.33-1.8-3.87-3.04-8-4.45-12.05a4.6 4.6 0 0 0-3.07-3.18zM366.24 695.15c3.58 1.25 7.06 1.13 10.3 1.98 6.86 1.78 13.9 2.12 20.82 3.4 4.86.9 9.78 1.35 14.68 1.67 3.49.24 6.78 1.53 10.29 1.4 7.42-.28 14.64 1.7 22.05 1.8 4.48.06 8.98 1.34 13.43 1.15 7.09-.3 14.1.72 21.1 1.1 9.53.53 19.1.7 28.62 1.45 5.86.47 11.76.3 17.62.76 2.99.23 5.95-.58 8.86-.04 6.13 1.13 12.36.7 18.5 1.28 3.19.3 4.12-1.25 4.72-3.72.5-2.08.81-3.7-1.6-5.3a20 20 0 0 1-8.9-14.53 3 3 0 0 0-.97-1.86c-2.05-1.81-3.46-4.54-3.05-6.81.92-5.02-.61-9.95.28-14.9.46-2.58-.93-4.13-3.25-3.5-1.35.36-2.63.2-3.92.41-3.07.52-7.46-.03-8.17 3.5-.68 3.39-2.9 4.2-4.96 4.89-1.68.57-3.68.9-5.6 1.09-6.67.7-13.38.48-20.07.9-7.63.5-15.33.33-22.99.06-6.1-.22-12.2.01-18.31-.34-6.18-.35-12.57-1.1-18.72 1.37-8.58 3.42-17.67 5.27-26.45 8.17-8.16 2.69-16.4 5.07-24.5 7.96-6.44 2.3-12.73 5.16-19.8 6.66zm261.8-315.98c-1.05 2.93-.93 5.65-1.47 8.23-.94 4.52-.52 9.17-1.6 13.7a166 166 0 0 0-3.92 28.57c-.06 1.06-.27 2.72 1.55 2.1 2.2-.78 4.48-.53 6.7-.84 3.83-.55 7.73-.62 11.6.28 1.5.36 2.22 1.31 2.25 2.49.04.98-1.21 1.06-2.1 1.3-1.6.45-3.2.62-4.85.6-4.22-.04-8.46.1-12.68-.06-2.1-.08-2.65.67-2.51 2.63.22 3.01.51 5.96 1.02 8.97 1.08 6.38 1.3 12.88 3.27 19.15 1.17 3.69 1.3 7.73 2.67 11.32 1.05 2.76 1.21 6.19 3.6 8.18 4.53 3.81 7.94 8.68 12.44 12.55 4.1 3.52 7.13 8.07 10.13 12.62 1.08 1.63.4 2.75-.07 3.73-.66 1.37-2.02.65-3.22.17-4.6-1.83-7.84-5.95-12.91-7.35 2.84 4.97 4.49 10.4 6.38 15.76.35 1 1.11.81 1.7.24 1.73-1.7 4.07-2.32 6.12-3.4 3.88-2.05 7.18-5.03 11.34-6.59 3.97-1.48 3.93-1.59 1.69-5.37-1.47 1.86-3.55 2.27-5.71 2.58-1 .14-1.97.82-2.74-.38-.73-1.13-1.3-2.14-.73-3.67 1.63-4.32 4.38-7.96 6.91-11.7 4.6-6.76 11.12-11.55 17.4-16.57 2.96-2.35 6.08-4.18 9.88-4.9 2.9-.56 5.63.92 8.78.27-2.56-3.38-4.14-7.08-5.95-10.64-.51-1.02-1.21-.84-2-.94-2.53-.36-4.8.66-7.17 1.23-4.83 1.17-9.78 1.95-14.47 3.5-3.85 1.27-7.41 3.4-11.08 5.19-.98.47-2 .93-2.77-.08a2.5 2.5 0 0 1 .06-3.13 5 5 0 0 1 1.35-1.25A37 37 0 0 1 673.2 462c5.6-.53 11.22-.71 16.84-1.01 1.07-.06 2.29-.5 1.35-1.47-3.7-3.87-4.89-9.28-9.6-12.8-6.83-5.1-12.63-11.67-17.39-18.87-3.63-5.48-8.45-10.11-11.26-16.17-2-4.3-5.88-7.37-7.9-11.66-2.17-4.59-4.9-8.8-8.62-12.23-2.85-2.63-5.78-5.16-8.55-8.6zM473.31 80.47c5.6-5.94 11.85-10.86 17.59-16.35 2.51-2.41 5.32-4.5 8.04-6.68.86-.69 2.03-.94 2.81-.11.93.98-.4 1.53-.8 2.26-1.7 3.03-4.8 4.67-7.05 7.18L478.49 83.9c-2.54 2.81-4.16 5.88-4.24 9.88-.05 2.9 1.35 6.4-2.22 8.5-.21.13-.16.79-.15 1.2.1 3.08.05 6.16.27 9.25.28 4.04 1.7 8.23.22 12.14-2.37 6.31-1.97 12.08 1.83 17.66.59.85 1.13 2.23 2.03 1.97 1.13-.32 2.53-.88 3.03-2.26.3-.86.38-1.79.7-2.63.97-2.55 1.31-5.75 3.9-7.07 3.6-1.84 4.6-5.15 6.01-8.37 2.55-5.79 6-10.92 11.27-14.6 1.98-1.37 4.14-2.49 6.2-3.74 5.81-3.5 10.93-8.2 17.59-10.24 4.65-1.43 8.07-5.47 13.3-5.86 7.67-.58 15.05-3.5 22.82-3.18 4.68.2 9.3-.68 14-.13 3.55.42 7.01 1.07 10.5 1.82.87.18 2.85 1.1 2.58-1.22-.79-6.64-3.33-12.18-9.27-16.03-4.2-2.74-9-4.12-13.24-6.73-2.85-1.75-6.02-3.96-9.54-3.02-5.7 1.5-11.57 1.98-17.3 3.27a249 249 0 0 0-25.39 7.25c-3.63 1.23-7.42 2.3-10.7 4.2-6.7 3.9-13.6 7.5-19.93 11.97 17.89-18.22 40.7-25.96 65.2-30.29-4.41-4.26-9.98-6.81-14.37-11-2.02-1.94-4.98-2.86-8.19-3.17-3.43-.32-6.7-2.14-10.09-3.13-1.25-.36-2.8-1.18-3.98.02-2.36 2.43-5.54 3.2-8.43 4.56-8.1 3.84-14.98 9.65-22.84 13.86-1.56.83-2.42 2.1-3.24 3.54-3.14 5.54-4.28 11.47-3.48 18.16zm-7 297.5c-10.74.37-21.06-.53-31.38-1.27-4.9-.36-9.9-.89-14.35-3.41-1.04-.6-1.39-.18-1.4.98-.02 4.7-1.67 9.08-3.37 13.28-2.35 5.8-4.82 11.56-7.16 17.38-.84 2.1-1.95 4.23-1.71 6.45.76 7.12 1.43 14.23 1.79 21.37.05.96.33 1.44 1.4 1.6 6.56 1.02 12.58 3.97 19.15 5.14 6.48 1.15 12.67 3.64 19.33 4.33 2.53.26 3.05-.68 2.76-2.4-.67-4.02.58-7.79 1.09-11.65.82-6.25 2.86-12.3 3.62-18.52a59 59 0 0 1 3.62-14.23c2.41-6.2 3.96-12.63 6.62-19.05zm-53.1-9.23c-2.14.33-3.46.87-4.35 2.73-4.02 8.42-8.3 16.73-12.31 25.16-3.22 6.77-6.58 13.5-8.92 20.64-1.34 4.1-2.91 8.1-4.57 12.08l-13.5 32.22c4.46 0 8.57.12 12.67-.05 2.89-.1 5.4.41 7.33 3.17.48-1.69-.33-2.6-.8-3.73 7.02-.07 13.99.2 20.93-.6 1.27-.14 2.65.07 2.68-1.69.09-5.55 2.57-10.62 3.15-16.02-5.3-1.36-10.74-2.23-15.72-4.61-1.51-.73-2.26-.37-2.74 1.04-1.2 3.47-2.8 6.77-3.95 10.28-1.24 3.74-3.13 7.27-4.92 11.31-.66-2.47-1.5-4.36-1.1-6.46 1.44-7.56 2.62-15.18 4.36-22.67 3.88-16.72 8.34-33.27 15.5-48.96 2.05-4.48 4.07-8.99 6.27-13.84m260.12 289.6c.42-.11.68-.1.78-.22 8.5-10.77 12.29-22.45 7.66-36.11-3.02-8.9-8.3-16.47-13.33-24.2a43.6 43.6 0 0 0-14.12-13.77c-.06 7.08 1.32 13.64 2.81 20.2.77 3.37 1 6.93 2.16 10.15 2.21 6.08 3.4 12.43 5.75 18.46 1.5 3.86 2.1 8.08 3.71 11.88 1.39 3.27 2.31 6.62 3.26 10 .34 1.24.88 2.42 1.32 3.62m26.83-181.75c-5.75-1.1-9.29 2.91-12.9 5.87-7.54 6.15-12.94 14.34-19.25 21.65-.79.91-1.26 1.9.6 2.81 2.55 1.25 4.84 3.06 7.14 4.76 3.34 2.46 3.82 2.44 6.57-.66a4.3 4.3 0 0 0 1.19-3.62c-.16-1.42-.2-2.93.11-4.3.49-2.06 1.55-3.08 3.98-1.88 3.09 1.52 4.8 4.26 6.8 6.73 2.02 2.5 4.8 4.24 6.53 7.01 1.31 2.12 3.19 1.06 3.97-.15 2.18-3.38 5.26-5.87 7.92-8.76 2.43-2.65 3.02-5.07.59-7.66-1.66-1.76-3.07-3.7-4.64-5.5-2.02-2.3-3.57-4.93-5.54-7.26-2-2.37-4.48-5.15-3.06-9.03zm-80.24 445.8a41 41 0 0 1-10.8 4.38c-2.45.59-2.97 1.87-3.01 4.13-.1 5.95-.48 11.86-1.63 17.75-.69 3.5-1.65 6.93-2.16 10.45-.54 3.7.13 4.48 3.73 4.39 1.98-.05 3.9.27 5.64 1.03 1.66.72 2.24.6 2.55-1.28.94-5.54 4.63-8.58 9.7-10.28q3.75-1.3 7.5-2.65a195 195 0 0 1-11.54-27.9zM462.29 458.43c2.52.95 3.86.34 3.46-2.77-.14-1.05.39-2.19.54-3.3.77-5.56 1.33-11.18 2.3-16.71 1.88-10.7 5.91-20.89 7.56-31.7.97-6.39 3-12.64 4.68-18.91 1.25-4.64 1.25-4.34-3.51-5.98-3.01-1.04-3.41.36-3.58 2.54-.2 2.65-.25 5.39-.79 7.89-2.81 13.05-6.08 26.02-8.26 39.2-1.41 8.56-4.88 16.57-6.4 25.08-.3 1.68-1.93 3.62-.95 4.8.64.76 3.15-.04 4.94-.14zm-68.92 420.03c-1.99 4.28-3.61 8.56-6.29 12.26-.66.93-.02 1.16.35 1.71 3.21 4.9 7.15 9.18 11.35 13.17 2.3 2.19 5.05 4.07 8.32 4.67 1.56.28 2.88.27 1.76-2.22-1.4-3.12-2.26-6.5-3.3-9.77-.99-3.07-1.03-7.09-3.07-9.03-3.38-3.23-5.38-7.46-9.12-10.8m277.1-334.52c1.17.14 1.92-.06 2.04-1.53.58-7.07 2.6-13.85 4.27-20.7.13-.53.76-1.15-.09-1.58-.77-.4-1.04.43-1.39.8a65 65 0 0 1-12.39 9.81c-4.59 2.9-8.59 6.8-14.01 8.29-.49.13-.71.82-.57.85 1.61.38 1.03 3.67 3.61 2.7.66-.24 1.4-.49 2.07-.42 5.49.55 10.97 1.17 16.46 1.77zm-56.2 169.36c5.78 1.46 11.75 2.08 17.71 2.66 8.35.8 16.69 1.63 25.05 2.23 7.16.52 14.26 1.9 21.48 1.53 1.78-.1 3.45-.4 5.22-1.42-6.62-2.17-43.36-5.36-69.47-5M425.7 458.57l.14.6h2.93c5.22-.05 10.44-.17 15.66-.1 2.76.04 4.71.21 4.82-3.8.06-2.4-.76-4.16-1.17-6.24-.78-4.06-3.5-1.62-5.36-2.11-1.77-.47-2.63.01-3.15 1.8-.3 1.03-1.36 1.72-2.34 2.35-3.86 2.47-7.69 5-11.53 7.5m246.53 57.56c-1.15-.41-1.14-2.53-3.4-1.32-7.32 3.92-13.54 9.66-21.32 12.8-1.07.44-1.39 1.2-1.15 2.19.32 1.36.1 3.15 1.25 3.92.71.47 1.94-.66 2.75-1.46 2.01-2 3.83-4.27 6.11-5.88 5.04-3.54 10.3-6.74 15.76-10.25m28.46 9.38c-.4 4.47-1.99 8-3 11.72-.27.99-1.77 2-.66 2.92a5.5 5.5 0 0 0 4.55 1.15c2.27-.4 3.87-2.12 6.01-2.66 1.36-.34 1.84-.8.84-2.16-2.49-3.39-4.86-6.87-7.73-10.96zM577.1 572.8c0-1.34.04-2.68-.01-4.02-.05-1.14-.26-2.3-1.6-2.57-1.67-.36-2.24 1-2.5 2.13a66 66 0 0 0-1.43 8.43c-.36 3.95-.26 3.83 3.63 3.1 1.5-.29 1.9-.93 1.9-2.21zm26.6 2.37c0 1.41-.07 2.45.03 3.47.1 1.03-.71 2.59 1.55 2.51 1.82-.06 2.86-.9 2.68-2.52-.48-4.1.91-8.04.8-12.08-.03-.77.53-2-.95-2.2-1.13-.14-1.79.26-2.35 1.4-1.54 3.14-1.83 6.43-1.75 9.42m-16.09.93v3.52c0 .8.14 1.3 1.14 1.43 2.54.34 4.5-1.2 4.42-3.75-.08-2.5-.91-4.98-.03-7.52.3-.88.05-1.95-1.03-2.28-.89-.27-1.44.43-2.07 1-2.48 2.21-2.57 5.08-2.42 7.6zm13.32-28.22c.71-2.66-.27-2.97-1.8-2.65-2.16.45-3.07 1.59-3.86 3.88-.7 2 .15 3.01.6 4.44 1.56-.58 3.63.4 4.67-1.8.72-1.53.02-3.2.39-3.87M542.68 311.6c2.82.06 6.75-1.85 6.3-3.1-.66-1.83-2.4-2.65-4.3-2.87-1.35-.16-3.5 3-3.51 4.87-.02 1.33.79 1.15 1.5 1.1m44.95 37.07c0-2.32-2.22-4.74-4.31-4.7-1.03.02-1.83.32-1.8 1.54.04 2.18 2.46 6.05 3.74 5.73 1.17-.28 2.67-.73 2.37-2.58zm-55.47-113.01q-2.17 0-2.18 1.2c-.02 3.1 2.1 5.02 5.33 4.92.92-.02.93-.57.88-1.21q-.39-4.94-4.03-4.91m53.12 232.7a8 8 0 0 0 4.69-2.93c1.18-1.37 1.03-2.55-1.09-2.92-1.16-.2-5.21 2.03-5.49 3.12-.46 1.85 1.14 2.03 1.9 2.72zm-13 46.96c-1.73-.38-2.96.67-4.24 1.48-.42.26-.69.7-.31 1.3.27.43.39.95 1.06.89l5.57-.51c.68-.06 1.26-.44 1.38-1.04.15-.78-.49-1.43-1.08-1.71-.7-.33-1.58-.3-2.38-.4m-.25-110.62c-1.3-.18-1.95.16-2.23.87s-.16 1.28.74 1.66c.83.36 1.29 1.15 1.64 2.08.78 2.01 2.1.4 2.91.05.92-.4 1.8-1.67.67-2.62-1.2-.98-2.75-1.53-3.72-2.05zm3.52 152.77c-.08-1.4-.63-3.4-3.34-3.67-1.15-.12-1.34.65-1.28 1.58.14 2.2 2.23 4.7 3.77 4.45.79-.13 1.22-.66.85-2.36m-9.73-187.5c-1.06 0-4.52 3.3-4.03 3.92.52.68-.14 2.06 1.23 2.12 1.3.07 4.14-3.34 4.16-4.85 0-.98-.52-1.25-1.36-1.2m-5.43-14.94c-.62-.48-1.22-1.17-1.98-1.51-1.04-.46-2.24-.65-2.99.54-.56.9-2.1 1.31-1.68 2.69.34 1.15 1.58 1.15 2.33.78 1.45-.73 3.65-.14 4.33-2.5zm27.19 215.14c-.24-1.95-4.66-3.75-6.2-2.74-.52.33-.32.74-.23 1a3 3 0 0 0 2.48 2.07c1.24.18 2.44 1.13 3.74.33.18-.11.17-.54.2-.67zM469.18 200.7c.44 1.71-.51 3.69 2.26 3.46 1.74-.14 2.42-.68 2.3-2.38-.19-2.29-2.34-1.86-3.6-2.38-.88-.37-1.1.86-.96 1.3m88.42 83.26c1.2-.14 2.24-.38 2.05-1.59-.4-2.61-2.86-2.13-4.54-2.7-.6-.22-1.55-.03-1.3 1.07.49 2.11 2.6 2.23 3.8 3.22m-32.02-46c.46-2.34-.72-3.18-2.24-3.33-1.37-.13-1.96.74-2.02 2.26-.1 2.78 2.28 1.83 3.48 2.3 1.22.49.71-1.02.78-1.23m-8.64-.29c-1.02-2.51-1.38-5.18-4.24-6q.07 5.64 4.24 6m62.56 157.7c1.34-.37 2.86-1.24 3.3-2.83.3-1.1-1.02-1.6-2.11-1.5-2.03.16-2.28 2.13-3 3.42-.48.85.8.8 1.81.91m-7.53-74.3c.14 1.95-3.39 2.5-1.76 4.63.54.72 2.36.72 3.07-.07 1.64-1.76-1.13-2.8-1.3-4.56zm-37.6-57.36c-.03-1.12.7-2.64-1.4-2.63-1.35 0-1.07 1-1.06 1.75.02 1.36-.04 3.3 1.37 3.54 1.29.2 1.14-1.57 1.09-2.66m59.46 236.9c-.63.27-1.16.6-1.03 1.1.44 1.62 1.08 3.28 2.71 4.01.92.41.7-.67.73-1.16.12-1.88-1.47-2.67-2.41-3.94M524.4 293.1c1.4-.13 2.2-1.04 2.56-2.27.23-.8-.16-1.35-1.13-1.35-1.47 0-2.28.84-2.54 2.14-.14.68.13 1.44 1.12 1.48z"/><path fill="#000" d="m414.07 912.64 3.5-.52c2.07-.33 3.13.79 3.38 2.62.64 4.64 1.3 9.31 1.73 13.95.65 7.03-1.6 13.85-3.28 20.61-.86 3.45-.6 6.93-1.2 10.39-.96 5.4-1.12 10.97-1.39 16.48-.22 4.54.12 4.38 4.52 4.22 3.85-.13 7.8.3 11.56 1.14 3.54.79 7.17 1.42 10.56 2.95 4.61 2.08 6.74 8.01 4.1 12.19-1.14 1.8-2.87 2.17-4.78 2.12-2.02-.06-1.64-1.84-1.97-2.97-1.85-6.56-3.96-8.27-11.5-8.74-8.82-.56-17.6.43-26.31 1.5-3.75.45-7.53 1.65-11.36 2.13-1.36.17-3 .44-3.5-1.55-.44-1.74 1.27-1.72 2.07-2.47 1.42-1.31 3.25-1.74 5-2.1 4.36-.9 8.46-2.86 12.95-3.1 1.49-.07 1.57-.86.93-1.79-1.7-2.44-2.18-5.42-3.86-7.92-1.71-2.55-1.81-5.81-2-8.84-.23-4.06-.05-8.14-.07-12.21 0-.85.13-1.7-1.33-1.12-1.3.52-2.75.7-4.15.9-1.15.16-2.56.14-2.7-1.32-.13-1.33-.12-2.97 1.8-3.37 1.4-.3 2.83-.9 4.19-.78 2.79.24 3.7-1 4.17-3.56.7-3.81.86-3.82-3.04-3.94-4.46-.15-8.96.39-13.37-.65-.9-.2-2.34-.24-2.03-1.58.28-1.22.4-2.83 2.55-2.77 5.2.14 10.42-.17 15.56 1.18 1.68.45 2.76.1 3.48-2.18 1.59-5.02 1.3-10.33 2.93-15.3.52-1.6 1.31-2.95 2.96-3.64zM534.6 386.9c.34.89-.27 1.62.15 2.5.52 1.07-.53 1.76-1.35 2.03-1.02.34-1.31-.55-1.54-1.4-.24-.89-.6-1.74-.93-2.6a81 81 0 0 0-18.38-27.82c-4.6-4.56-9.03-9.26-14.27-13.14-1.52-1.12-2.73-2.78-3.82-4.38-5.55-8.12-13.15-14.63-18.12-23.22-1.23-2.11-3.45-3.54-4.56-5.9-.72-1.52-.41-2.58.52-3.55 1.1-1.12 2.2-.4 3.25.33 3.3 2.24 6.18 4.96 9.12 7.65 6.97 6.38 12.46 14.17 19.65 20.29 3.86 3.28 6.57 7.6 10.31 10.87a63 63 0 0 1 14.17 17.73c3.5 6.47 5.66 13.33 5.8 20.61M363.65 919c1.14-.02 1.6.6 1.81 1.67q.66 3.29 1.44 6.55c1.7 7.28 4.41 14.27 6.49 21.45 1.44 4.96 2.32 10.15 4.23 14.89 2.62 6.47 3.31 13.6 6.92 19.7.45.77 1.53 1.74-.22 2.75-1.39.8-2.12.53-3.2-.35a11 11 0 0 1-2.8-3.62c-2.89-5.55-5.56-11.21-8.6-16.67-3.45-6.15-5.04-12.96-7.56-19.43-2.44-6.24-2.5-12.79-4.08-19.1-1.06-4.24 1.66-7.73 5.58-7.83zm106.8-700.35c-.91.63-1.67-.9-2.06.08-.31.82.26 1.79 1.26 2.04 2.65.64 1.66 1.7.38 2.83-2.47 2.18-5.38 1.85-8.35-.95-2.5-2.35-2.57-3.57-.38-5.86 1.88-1.97 6.14-1.93 7.97.09.47.53.8 1.18 1.18 1.77m-4.66 39.8c-1 .28-2.8.71-3.14-1.1a4.8 4.8 0 0 1 1.93-5.03c4.33-3 5.55-2.7 8.86 1.1 1.6 1.83.7 2.8-.61 3.61a10.4 10.4 0 0 1-7.03 1.42zm5.03 14.36c-1.75.02-3.55.11-4.48-1.87-.67-1.43-.6-2.9.51-3.97 1.42-1.38 2.86-2.86 5.34-1.8 1.75.75 4.82-.5 4.52 3.04-.22 2.65-2.91 4.6-5.89 4.6m-4.88-30.32c-2.67-.2-3.5-3.25-3.11-3.58 1.72-1.48.57-5.44 4.13-5.05 3.59.4.5 3.95 2.31 5.27-1 1.34-.93 3.88-3.34 3.36zm-81.3 45.08c3.54-.17 1.16 2.17 1.36 3.22.31 1.71-1.75 1.84-2.73 2.7-1.14 1.01-.48-1.24-1.4-.87-.14.06-.48-.05-.55-.17-.4-.76 2.59-4.97 3.33-4.87zm-1.25 213.23c3.85-2.64 7.12-.75 10.3-.48 3.88.34 7.72 1.1 11.27 2.75 7.03 3.28 14.56 5.33 21.08 9.94 4.68 3.3 9.28 6.49 13.05 10.86a44 44 0 0 1 5 7.27c4.14 7.39 4.38 15.22 4 23.52-.55 12.27-6.46 21.86-13.86 30.61a60 60 0 0 1-21.02 16.14c-7.26 3.32-14.8 4.9-22.25 7.15a8 8 0 0 1-2.75.3c-7.88-.48-15.73 1.25-23.64.07-6.38-.94-12.8-1.6-18.76-4.27-3.97-1.77-8.3-2.68-11.8-5.5-1.35-1.08-2.86-1.96-3.76-3.48-1.54-2.58-4.61-3.14-6.78-4.93a33 33 0 0 1-3.98-3.99c-4.01-4.63-5.72-10.08-6.84-16.1-2.05-10.99.57-20.96 5.02-30.73.96-2.11 1.05-4.54 2.65-6.4 2.87-3.36 6.44-5.98 9.73-8.83 6.32-5.44 12.97-10.63 21.11-13.2 7.71-2.44 15.25-5.67 23.61-5.42 1.47.04 3.26.09 4.43-1.43.24-.3 1.1-.5 1.4-.31 2.11 1.3 4.68.88 6.9 2.17 1.8 1.05.74 1.46.06 1.87a7 7 0 0 1-4.68.82c-8.74-1.37-17.09-.4-25.01 3.74-4.24 2.23-8.92 3.56-12.85 6.4-8.57 6.23-16.04 13.46-19.6 23.7-1.07 3.07-3.23 5.73-3.48 9.04-.45 6.07-1.88 12.58.42 18.1 3.85 9.23 8.73 18.51 18.26 23.16 4.97 2.42 9.36 6.14 15.15 7.09 7.18 1.18 14.22 3.2 21.6 2.93 4.41-.17 8.94.56 13.19-.72 7.6-2.3 15.6-3.23 22.3-8.42 4.19-3.24 8.72-5.99 12.24-10.03 7.29-8.37 11.92-17.72 12.94-29.1.63-6.98-.63-13.43-3.03-19.58-2.08-5.3-6.46-9.32-10.8-13.07-2.18-1.87-4.16-4.07-6.58-5.52a429 429 0 0 0-19.12-10.62c-4.56-2.42-9.5-3.93-15.12-5.5m119.54 110.06c-.96-4.02-1.77-8.1-2.89-12.07-2.13-7.55-4.8-14.97-6.58-22.6-2.15-9.28-5.08-18.34-7.1-27.68-1.38-6.34-2.4-12.87-4.45-19.15-1.49-4.58-1.84-9.55-2.59-14.36-.37-2.39-1.8-4.56-1.3-7.13.18-.92.02-1.84 1.18-2.22 1.37-.46 1.4.76 1.94 1.4 3.32 3.96 3.42 9.03 4.88 13.64 1.75 5.53 2.06 11.35 3.37 16.92 1.64 7 2.1 14.16 3.75 21.1 1.1 4.65 1.26 9.43 2.45 14 1.76 6.68 2.22 13.66 4.3 20.18 1.66 5.2 1.9 10.6 3.5 15.75.2.65.02 1.41.02 2.13z"/><path fill="#000" d="M355.14 569.08c7.52 5.63 15.9 7.34 24.53 6.22 6.35-.83 12.72-2.63 18-6.76a12 12 0 0 0 3.74-4.7c.76-1.66 1.47-3.34 3.8-.63 3.9 4.55 3.48 8.33-1.96 11.04-2.92 1.45-5.13 4-8.39 5.1-4 1.34-8.1 1.8-12.17 2.62-7.16 1.42-13.59-1.22-20.25-2.58-3.24-.65-7.6-6.96-7.3-10.31m-4.25-6.91c4.3-4.41 6.6-10.34 11.08-14.63a10.3 10.3 0 0 1-1.69 5.06c-3.2 5.41-7.83 9.78-10.82 15.39-1.1 2.05-3.5 3.45-4.6 5.77-.5 1.09-1.51 1.83-2.74 1.11-1.22-.72-1.94-1.94-1.2-3.32a48 48 0 0 1 3.53-5.71c2.77-3.82 5.33-7.6 5.24-12.7-.02-1.53 1.04-3.36 2.14-4.59 2.66-2.97 4.4-6.54 6.7-9.72.48-.66 1.14-1.19 1.68-1.8.47-.55 1.09-.73 1.66-.45.69.32.5 1.07.35 1.63-.31 1.06-.58 2.2-1.15 3.12-2.73 4.5-4.5 9.5-7.5 13.9a20 20 0 0 0-2.7 6.93zm50.4-12.59c.19 1.94-.64 3.48-2.37 3.45-1.55-.04-3.49-.78-3.15-3.13.27-1.96-1.67-3.53-.82-5.59.34-.82.24-1.92 1.33-2.2 1.02-.25 1.36.72 1.84 1.34 1.46 1.87 3.58 3.42 3.18 6.12zm-64.99 31.97c-.02-1.64 3.8-4.63 5.36-4.2 1.24.34.98 1.16.48 1.86a13 13 0 0 1-3.6 3.64c-.53.35-.95.78-1.62.54-.99-.34-.5-1.2-.62-1.84m34.56-56.2c.16 3.1-2.58 4.6-3.85 6.9-.24.44-.84.68-1.31.28-.44-.38-.35-.94-.1-1.41 1.25-2.34 2.73-4.49 5.26-5.78zm-21.06 19.67c-1.06 3.93-2.14 7.9-4.68 11.27 1.35-3.83 1.82-8 4.68-11.27m204.66 275.93c6.62 3.37 6.33 10.2 8.49 15.84 2.12 5.55 2.56 11.48 4.43 16.99s2.46 11.3 4.35 16.66c1.81 5.16 2.3 10.58 4.16 15.64 2.13 5.75 3.2 11.79 5.27 17.54.84 2.31-.15 4.91.69 7.31.07.2-.44.62-.68.93-.5-.49-1.2-.88-1.48-1.48-1.46-2.97-3.24-5.88-4.13-9.03-2.12-7.6-4.9-14.98-6.78-22.7-1.36-5.61-2.34-11.4-4.18-16.87-2.67-7.9-3.93-16.13-6.26-24.1-1.57-5.4-3.6-10.8-3.87-16.73zm-52.01-667.92c-.12 1.1 0 2.14-.38 2.91-.44.87-1.22 1.89-2.06 2.14-1.23.36-1.11-1.17-1.46-1.87-.82-1.62-1.16-3.63-3.7-1.69-.78.6-1.63-.08-.97-1.23 1.27-2.22.43-3.88-1.23-5.45-1.28-1.2-1.54-2.76-.42-4.1 1.32-1.54 3.08-1.94 4.9-.65 3.49 2.47 4.76 6.12 5.32 9.94m43.97-34.96c.51 0 .72-.04.92 0 1.3.29 3.4.1 3.57 1.43.25 1.95-1.61 3.5-3.27 3.98-2.41.7-4.8 1.44-7.14 2.32-1.78.66-2.85.42-2.24-1.87.34-1.25.26-3.44.87-3.64 2.5-.8 4.78-2.54 7.3-2.23zm26.97 37.02c.4-.56.87-1.1 1.2-1.7.71-1.3 2.57-2.42 1.89-3.9-.37-.77-2.42-.81-3.72-1.08-.64-.13-1.26-.12-1.25-.97.01-.87.73-.76 1.29-.97 2.7-.99 5.34-1.4 8.08.02 2.1 1.09 2.74 2.7 1.29 4.5-1.5 1.86-3.25 3.52-5.85 3.55-1.05 0-1.82.57-2.93.55m8.28-33.3c2.5-.03 5.92 2.85 6.32 5.07.26 1.43-.59 1.96-1.7 1.56-1.72-.6-3.44-.43-5.15-.43-1.85 0-3.78-.21-3.93-2.4-.13-1.95 1.12-3.3 3.33-3.38.47-.02.92-.33 1.13-.41m-42.95 15.8c-.04-2.45 2.77-4.53 6.13-4.11 1.2.15 3.05.88 2.64 2.76-.46 2.06-.38 4.79-3.35 5.12-2.41.26-5.4-2-5.42-3.78m28.78 38.7c-1.17-.26-2.82.62-2.87-1.46-.04-1.66-.1-3.6 1.92-4.05 2-.44 4.11-.04 6.1.54.92.26 1.96.73 1.61 2.13-.32 1.26-.68 2.25-2.37 2.22-1.5-.03-3 .4-4.39.61zm-31.27-56.14c-.45 2.07-1.08 3.73-1.13 5.4-.07 2.35-1.91 2.37-3.12 2.27-1.77-.14-1.48-1.77-1.27-3.15.48-3.02 2.95-3.59 5.53-4.52zm46.56 17.1c2.49-.28 2.64 1.67 2.8 3.19.19 1.65-.54 3-2.56 3-1.88 0-2.86-.95-2.82-2.8.04-1.71.5-3.22 2.58-3.4m23.17 134.93c2.4.1 3.64 1.77 4.22 3.48.32.94-1.25 2.23-2.47 2-1.93-.35-3.66-1.43-3.94-3.62-.2-1.57 1.4-1.38 2.2-1.86zM487.58 92.89c2.95.78 3.83 3.1 4.22 5.77.2 1.32 1.55 3.36.38 3.8-1.53.58-1.82-1.8-2.58-2.94-1.32-1.95-3.04-3.82-2.02-6.63m29.14 3.24c-1.16-1.57.82-2.27 1.23-2.48a68 68 0 0 1 14.76-5.14c-5.22 2.8-10.9 4.56-16 7.6z"/><path fill="#000" d="M516.72 96.1c-3.33 2.48-7 4.16-11.27 4.52q4.64-2.33 9.29-4.6c.63-.31 1.36-.54 1.98.1z"/></svg>