<svg xmlns="http://www.w3.org/2000/svg" width="1080" height="1080" fill="none" viewBox="0 0 1080 1080"><path fill="#fff" d="M617.65 721.74c.4 2.68.78 4.87 1.07 7.07 2.08 15.92 9.22 29.79 17.51 43.18 7.64 12.33 13.68 25.43 18.72 38.99 5.86 15.78 12.02 31.47 17.18 47.48 4.4 13.65 7.86 27.63 11.2 41.59 2.53 10.53 4.23 21.27 6.29 31.92.26 1.4.27 2.87.78 4.16.26.65 1.39 1.54 1.65 1.88 2.32 3.02 6.32 3.4 8.67 5.66 4.07 3.91 6.34 9.37 6.69 15.07.32 5.4-.5 10.88-.38 16.3.12 5.18.64 10.37 1.27 15.51.58 4.72 1.12 9.51 2.43 14.06 2 6.93 4.73 13.64 6.95 20.52 1.18 3.65 2.32 7.38 2.76 11.17.6 5.16.64 10.41.72 15.62.06 4.13-4.28 8.53-8.4 8.41-10.84-.3-21.72-.42-32.51-1.34-6.35-.54-12.98-.16-19-3.07-1.19-.57-2.35-1.24-3.58-1.74-4.6-1.93-6.34-5.63-6.41-10.35v-3.1c0-5.27.79-6.22 6.17-7.19-2.29-7.42-1.36-14.37 1.64-21.64a33 33 0 0 0 2.02-15.9c-.46-3.64-2.17-7.31-1.74-11.17.83-7.65 2.21-15.24 2.74-22.91.28-4.1-.66-8.28-1.2-12.4a97 97 0 0 0-1.63-8.92c-.24-1.04-.98-2-1.62-2.91-1.22-1.74-3.1-3.25-3.69-5.16-3.33-10.74-6.1-21.66-9.57-32.36-4.54-14-11.14-27.12-18.24-40-5.83-10.58-11.15-21.44-16.95-32.04-7.42-13.56-12.11-28.2-17.5-42.58-3.34-8.93-8.3-17.24-12.45-25.87-9.84-20.51-20.1-40.83-27.13-62.55-.4-1.24-1.12-2.37-1.5-3.15-7.64 1.68-15.11 3.1-22.47 5a151 151 0 0 0-15.06 4.95c-2.73 1.02-3.86 4.29-2.16 6.64 2.12 2.9 1.02 5.6.5 8.5-.95 5.37-1.28 10.88-2.66 16.13-1.05 4-2.71 8.13-7.9 9.03-.9.16-1.85 1.9-2.1 3.05-.16.73.74 1.92 1.46 2.6 3.14 2.93 4.95 6.6 6.18 10.61 1.12 3.64 2.14 7.32 3.29 10.95a6 6 0 0 0 1.36 2.32c3.89 4.35 7.9 8.58 11.67 13.04.92 1.1.65 3.2 1.58 4.28.84.97 2.69.98 3.87 1.76 1.44.93 2.89 2.03 3.89 3.39 1.02 1.4 2.15 3.2 2.12 4.79a514 514 0 0 1-1.15 22.66c-.53 7.93-1.21 15.86-1.84 23.8-.74 9.27-1.44 18.55-2.25 27.83-.23 2.6-.23 4.79 1.56 7.16 3.12 4.15.98 8.71-.15 13.06a12 12 0 0 1-1.59 3.55c-3.34 5.07-2.98 10.59-1.8 16.09 1 4.66.58 8.94-1.3 13.34-3.55 8.27-6.77 16.69-10.2 25.23 1.42.31 2.51.74 3.61.76 7.28.1 12.68 5.88 13.8 12.36.77 4.46-.19 9.2-.23 13.81-.01 1.77-.12 3.83.7 5.24a26.5 26.5 0 0 1 3.52 14.18c-.08 4.65 1.01 9.31 1.06 13.97.05 5.9-2.42 10.87-6.67 15.01-6.88 6.72-14.46 12.59-22.9 17.09-3.15 1.69-7.2 2.29-10.84 2.31-6 .05-12.02-.8-18.05-1.2-1.67-.11-3.36.04-5.05.11-11.18.4-22.36.75-33.53 1.27-4.15.19-8.29.9-12.44 1.13-2 .11-4.02-.53-6.02-.48-3.67.09-7.36.17-10.98.73-5.87.9-8.91-.73-10.96-6.36-.41-1.13-1.22-2.13-1.65-3.26-2.58-6.79.12-10.06 5.2-14.41 8.68-7.42 17.77-14.34 26.71-21.44 2.7-2.14 5.5-4.16 8.2-6.28a7 7 0 0 0 1.8-2.04c1.69-3.02 3.87-3.63 6.92-1.82 2.94 1.74 7.63-1.28 8.8-4.51 2.93-8.18 1.2-16.52 1.66-24.77.16-3.08-.13-6.2.12-9.27.12-1.45.2-3.04 2.7-3.44 3.5-.56 2.83-4.16 3.37-6.67.79-3.63 1.47-7.27 5.16-9.18 2.98-1.54 3.16-4.05 2.86-6.94-.48-4.58-.66-9.18-1.21-13.75-.7-5.81-1.26-11.69-2.6-17.37-1.11-4.73-5.07-7.61-9.28-9.54-4.35-1.98-6.4-5-6.7-9.7a489 489 0 0 0-1.83-21.35c-.93-8.9-2.1-17.75-3.03-26.64-.4-3.75-.36-7.56-.69-11.32-.52-6.07-1.4-12.12-1.72-18.19-.23-4.28.2-8.6.38-12.9.08-2.13.47-4.14-1.04-6.17-.88-1.2-.69-3.17-.86-4.16 3.96-3.82 8.01-2.9 12.16-2.02.6-1.02 1-2.26 1.85-3.03 2.4-2.21 3.4-4.09 1.22-7.4-.94-1.42.2-4.48.89-6.64 1.26-3.9 4.51-6.22 7.8-8.3 6.04-3.84 7.72-5.1 2.9-12.04-5.56-8-7.98-16.88-10.65-25.87-.47-1.61-2.12-2.88-3.28-4.37-4.07 4.39-7.6 8.2-11.3 12.17 1.82 2.4 3.95 4.97 5.78 7.73.75 1.12.84 2.68 1.24 4.04-1.64.23-3.34.82-4.9.58-1.73-.27-3.3-1.4-5-2.01-2.4-.84-4.57-1.84-7.44-1.03-3.7 1.04-7.27-1.27-9.28-3.8-6.83-8.63-13.76-17.32-19.3-26.77-6.13-10.44-13.92-20.04-17.25-32.1-2.67-9.64-5.77-19.14-5.94-29.26-.19-11.1-.9-22.22-.45-33.28.62-15.6 5.72-30.23 10.91-44.81 1.63-4.59 1.84-9.68 3.52-14.24 3.22-8.78 7-17.36 10.59-26.02 1.12-2.71.47-3.41-2.36-3.84-2.86-.43-5.59-1.62-8.4-2.33-1.57-.4-3.2-.53-4.81-.68-4.97-.44-9.95-.81-14.92-1.24-2.45-.21-3.33-1.87-2.52-3.86 1.14-2.78-.27-4.09-2.14-5.62-5.04-4.16-9.96-8.46-14.96-12.65-3.84-3.21-3.96-7.13-2.47-11.47a142 142 0 0 1 13.15-27.77c-2.78-3.21-5.4-6.64-8.44-9.64-2.91-2.86-2.13-6.12-1.21-9.08 2.29-7.42 4.8-14.82 9.51-21.18.25-.32.37-.79.68-1 8.64-6.02 10.88-15.56 13.49-24.82 2.49-8.82 8.16-14.91 15.73-19.55a30 30 0 0 1 2.91-1.53c3.04-1.45 4.16-3.58 2.8-6.88-.38-.94-.07-2.13-.15-3.2-.61-8.76-1.51-17.5-1.81-26.26-.58-17.12 1.97-33.65 11.18-48.5 3.12-5.02 6.84-9.65 10.4-14.61-1.09-2.33-2.68-5.32-3.9-8.46-1.43-3.74-.98-5.86 2.24-8.14a217 217 0 0 1 16.98-11.1c12.9-7.41 25.98-14.5 38.97-21.75.77-.43 1.65-.88 2.16-1.55 2.72-3.54 6.47-5.63 10.51-6.93 2.44-.79 2.6-2.14 2.35-4.03-.48-3.52-1.05-7.02-1.67-11.13-1.7.21-3.73.7-5.78.68a280 280 0 0 1-16.9-.65c-1.03-.08-2.17-1.27-2.93-2.21-3.86-4.72-5.93-10.37-7.93-16.01-.59-1.65-1.05-3.02-3.28-2.81-.7.07-1.67-.7-2.21-1.34-3.34-4.01-7.53-6.68-12.42-8.45-7.66-2.76-10.66-9.16-12.4-16.45-2.56-10.85-1.35-21.25 4.29-30.86a546 546 0 0 1 14.67-23.37 422 422 0 0 1 14.9-21.6 52 52 0 0 1 9.5-9.63c4.85-3.77 9.2-8.16 15.03-10.79 8.44-3.81 25.48-4.5 33.11 6.86 4.17 6.2 8.36 12.41 12.31 18.75 4.3 6.87 9.68 11.57 18.39 10.95q10.06-.7 20.14-1.17c9.19-.44 17.91 1.53 25.17 7.15 3.49 2.7 5.7 7.08 8.38 10.78 2.25 3.1 4.71 6.11 6.47 9.49 3.25 6.26 8.99 8.13 15.15 9.58 3.33.79 6.68 1.56 9.96 2.54q9.03 2.7 7.18 11.77c-.91 4.45-1.5 9.07-3.2 13.23-1.32 3.27-4.06 5.98-6.22 8.91-1.87 2.54-3.87 4.98-5.66 7.57-1.44 2.06-2.28 4-1.17 6.92 1.37 3.59-1.94 5.53-4.75 7.92.53-1.8.9-3.06 1.35-4.53-4.62 2.73-4.1 7.3 1.68 10.8-3.92 3.4-7.73 6.54-11.3 9.93-1.25 1.19-1.93 3-2.83 4.57-.32.58-.32 1.6-.76 1.83-1.92.97-2.88 2.46-2.1 4.41.95 2.33 2.07 4.78 5.33 4.55.3-.03.62.05 1.55.7l-4.63 3.46c1.12 3.38 2.06 6.32 3.09 9.24 1.17 3.33-.44 6.2-2.65 7.86-4.53 3.4-9.6 6.1-14.46 9.03-.74.46-1.64.65-2.47.97l1.06 1.4c3.2 0 6.4.14 9.59-.03 3.94-.21 7.87-.78 11.81-1 3.02-.17 5.34 1.46 7.99 2.8 8.01 4.08 9.98 12.17 13.67 19.04a526 526 0 0 1 14.73 29.63c5.9 12.86 12.8 25.16 20.1 37.26 4.44 7.36 9.2 14.53 13.52 21.96 2.79 4.8 6.5 8.67 10.25 12.66 1.6 1.7 1.91 5.1 1.9 7.72-.02 6.76-.44 13.52-.94 20.27-.22 2.9-1.27 5.74-1.48 8.64a10 10 0 0 0 1.07 5.43c4.16 7 8.76 13.74 12.86 20.77 2.7 4.64 3.22 9.16.9 14.8-4.2 10.26-7.77 20.95-9.9 31.8-1.65 8.45-.78 17.4-.89 26.12-.06 5.2-2.17 9.6-5.05 13.7-1.75 2.5-4.5 1.6-6.85 1.34-1.87-.2-3.67-1.06-5.71-1.7-3.05 5.09-6.15 10.23-9.2 15.4-.28.46-.46 1.18-.3 1.66 6.6 20.29 14.88 39.67 29.2 55.97 7.55 8.6 14.65 17.6 22 26.38.51.62 1.39 1.3 2.1 1.3 4.43 0 4.8 3.58 5.87 6.31-10.88 11.5-16.32 25.82-22.12 40-3.74 9.17-8.14 18.06-12.24 27.08-3.1 6.85-6.44 13.6-9.17 20.6-1.03 2.62-.27 5.9-1 8.68-2.45 9.28-7.54 16.99-15.53 22.33a16.4 16.4 0 0 1-14.44 2.14c-5.26-1.63-10.64-2.87-15.92-4.46-1.22-.37-2.31-1.38-3.3-2.27-3.71-3.34-5.42-8.7-10.8-10.42-3.04-.97-5.97-2.3-8.82-3.42z"/><path fill="#fff" d="M631.01 172.65c-.45-5.71 3.37-11.78 7.54-12.01-2.07 4.22-2.65 9.1-7.54 12.01m-8.94 22.9c.13 5.5-2.08 7.03-7.24 5.48z"/><path fill="#000" d="M453.06 733.85a100 100 0 0 1-18.8-30.06l1.04-.94c1.44 1.26 3.19 2.3 4.26 3.81 2.56 3.63 4.8 7.48 7.12 11.16l3.34-4.55c-3.42-6.45.55-14 7.55-17.49-1.95-.7-3.24-1.14-5.01-1.77l3.08-1.95c-2.4-2.1-5.56-3.9-7.2-6.63-1.23-2.06-1.5-5.77-.45-7.88 1.75-3.54.58-6.22-.36-9.4-3.23-11.01-6.24-22.1-9.27-33.18-2.56-9.36-5.32-18.67-7.46-28.11-3.33-14.64-6.3-29.36-9.27-44.08-1.62-8.04-2.93-16.15-4.4-24.22-.08-.38-.36-.72-1.34-1.26-1.6 5.45-3.06 10.95-4.84 16.33-.7 2.1.18 5.32-3.53 5.94-2.53-4.23-2.22-8.74-1.03-13.13A116 116 0 0 1 420 515.8c8.34-13.51 16.7-27.02 24.99-40.55 3.4-5.56 6.97-11.04 9.85-16.87 1.41-2.85 1.95-6.4 1.96-9.63.04-11.2 0-22.42-.63-33.6-.5-8.72-2.04-17.37-2.9-26.08-.63-6.48-.77-13-1.37-19.49-.63-6.97-1.57-13.9-2.32-20.86-.69-6.27-1.52-12.54-1.92-18.84-.57-8.88-.85-17.8-1.15-26.7-.08-2.66-.3-5.13 1.97-7.62 1.38-1.52.66-4.9 1-7.43 1.63-12.36 5.07-24.08 13.44-33.68 8.07-9.25 16.13-18.57 24.93-27.11 3.3-3.21 3.25-5.6 2.14-9.2-.83-2.68-1.2-5.5-1.83-8.55l-34.57 19.5c-11.73 6.64-23.08 13.82-32.92 22.86 4.25 9.62 8.4 19.23 12.78 28.72 1.39 3 1.77 5.06-.86 7.88-4.48 4.8-8.23 10.26-12.65 15.91 7.05 12.08 8.14 26.8 12.86 40.37 2.41 6.94 5.33 13.7 8.02 20.55 3.53 9 6.23 18.21 6.77 27.9.37 6.47 1.11 13.02.47 19.4-.84 8.3-2.78 16.48-4.46 24.67-1.84 8.94-3.93 17.84-5.94 26.75-.11.53-.55 1-.84 1.49l-.84-.12c.17-2.2.2-4.43.54-6.6 1.39-9.01 3.04-17.98 4.26-27 .9-6.66 1.95-13.42 1.71-20.08-.27-7.68-1.62-15.36-2.99-22.95a113 113 0 0 0-4.22-15.87c-2.44-7.27-5.54-14.32-7.94-21.6a136 136 0 0 1-4.1-16.17c-2.07-10.4-6.26-20.06-9.92-29.93-.7-1.87.01-5.21 1.36-6.7 3.79-4.15 8.15-7.82 12.52-11.41 1.46-1.2 1.25-1.7.37-3.05-4.33-6.72-8.51-13.53-12.75-20.3-5.54-8.86-3.8-11.97 4.2-18.5 20.15-16.44 43.4-27.77 66.62-39.09a3.2 3.2 0 0 0 1.52-2.4c-.04-3.26-.4-6.5-.66-10.13-3.67.78-7.16.28-10.8 1.71-5.88 2.34-12.33-.36-15.46-6.59-2.77-5.5-5.2-11.18-7.8-16.82-1.03 0-2.26-.09-3.48.03-.74.07-1.7.26-2.13.77-.37.45-.35 1.49-.11 2.11.57 1.52 1.45 2.91 2.06 4.42 1.84 4.57-.43 7.81-5.36 7.72h-1.55c-3-.07-4.04-1.35-3.53-4.37 1.07-6.36.23-8.63-4.97-13.02l-2.68 6.21-1.12-2.17c-2.68.77-5.4 1.18-7.73 2.36-1.08.55-1.82 2.58-1.92 4-.09 1.2.65 2.97 1.6 3.6 2.07 1.38 4.53 2.18 6.81 3.25.72.34 1.51.66 2.04 1.2.5.52.7 1.32 1.04 2-.63.21-1.28.65-1.9.62-6.06-.36-11.62-1.8-14.72-7.73-2.3-4.4-.03-11.58 4.27-13.9.44-.23.84-.53 1.45-.9-2.5-2-5.29-3.6-7.12-5.93-1.17-1.5-1.07-4.1-1.24-6.24-.07-.91.65-1.89 1.12-3.14-6.15.68-11.64 2.32-15.95 6.67-2.01 2.02-3.58 4.33-.48 6.89.4.32.44 1.07.65 1.63-4.68-.27-5.05-5.6-3.9-9.85 1.04-3.85 3.93-6.32 7.27-8.12 1.84-1 2.98-1.76 2.41-4.27-.27-1.25 1.01-2.85 1.63-4.37-3.29-2.4-3.14-4.54.5-8.5l1.51-1.2-.4-.52-1.65 1.27c-4.14 2.1-6.25 5.95-8.37 9.78-.38.68-.66 1.41-1.24 2 .05-5.19 2.3-9.53 5.89-13.04 1.85-1.8 4.33-3.52 6.76-3.98 1.45-.27 2.96-.2 4.3-1.08.06-.04.07-.16.17-.39-3.57-4.4-7.18-8.9-5.76-15.26-3.56.79-7 5.03-7.77 9.74-.43 2.56-.02 4.84 3.02 5.81l-.07.85c-1.2.22-2.64.97-3.53.55a7 7 0 0 1-3.16-3.21c-1.55-3.59-.38-7.09 1.04-10.5.3-.72.5-1.49.74-2.24l.43-.47-.75.12-4.38 1.9c-.52-3.29.55-5.09 3.02-6.52 2-1.16 3.64-2.94 5.29-4.33l-3.97-7.17c2.76-4.91 2.88-6.24.66-7.68-2.05 2.43-1.33 5.09-.65 7.75-3.79-3.52-2.26-7.2-.11-10.92q-3.45.32-2.76 10.95l-.89.2-1.94-8.67c-3.89 2.75-3.79 3.7 1.67 12.73-2.37-.4-5.14-3.4-5.5-6.22-.62-4.85-.16-9.15 4.55-12.3 1.62-1.09 2.8-3.12 2.48-6.13-.45-4.37 3.1-7.33 6.7-9.42 3.57-2.07 7.4-3.68 11.01-5.7 1.02-.55 2.17-1.7 2.37-2.75.99-5.26 4.94-7.29 9.24-9.09 1.61-.67 3.46-1.29 4.6-2.5 3.5-3.74 6.3-4.07 11-.96.5.34 1.05.62 1.12.66 2.73-4.46 5.21-8.99 8.16-13.2a25.5 25.5 0 0 1 11.14-9.1c2.61-1.08 5.04-1.01 7.29.98.5.45 1.57.74 2.2.53 6.98-2.35 10.24 1.55 11.65 7.55l12.64-10.6-.9-1.76c-.4.18-.62.31-.86.39-3.59 1.21-7.15 1.32-10.54-.55-2.27-1.25-2.34-3.37-.24-4.82 5.8-4 15.72.97 15.95 7 .01.3-.13.78.02.9 2.51 1.9 4.8 4.45 7.65 5.48 4.13 1.5 8.32 2.44 10.8 6.57.53.88 1.47 2.01 2.32 2.1 3.7.38 2.77 2.88 2.45 4.99-.41 2.61-1.1 5.18-1.73 8.14 6.06-.2 10.5 1.34 14.16 5.04 2.38 2.42 2.78 6.44 1.08 9.55-.43.77.3 2.1.08 3.1-.37 1.65-1.08 3.23-1.8 5.27 2.6-.52 4.95-.84 7.21-1.47 3.53-1 6.94-2.5 10.52-3.24 2.01-.42 5-1.84 5.6 2.41.17 1.23 2.14 2.2 3.52 3.5.62-.69 1.36-1.65 2.24-2.47 1.68-1.56 3.72-1.94 5.53-.54 1.81 1.39 3.06 1.1 4.75-.2a13.2 13.2 0 0 1 11.43-2.3 6.3 6.3 0 0 1 3.3 2.45c1.2 1.69 2.28 2.9 4.63 2.5 3.8-.65 4.62 2.45 5.78 5.15 3.25-.2 6.5-.77 9.68-.53 3.46.27 6.44 1.91 8.12 5.27.95 1.89 2.01 3.72 2.9 5.64.5 1.1 1.13 2.34 1.05 3.46-.28 3.67 2.15 5.5 4.72 6.92 5.65 3.12 7.03 5.37 6.4 11.83-.08.81-.01 1.64-.01 1.65 2.75 1.77 4.93 3.48 7.38 4.63 1.26.6 3.01.37 4.5.19 4.1-.5 6.69 1.59 6.66 5.67-.01 2.06.61 3.67 1.63 5.56 1.65 3.02 2.47 6.76.5 10.13-2.17 3.72-4.67 7.25-7.05 10.9 2.9 2.42 3.2 4.66.89 7.98-.33.46-.85 1.1-.74 1.5.83 3.2-1.33 5.48-2.32 8.13-.35.96-.58 2.24-.24 3.13 1.36 3.58.18 5.88-3.33 7.44-1.88.85-3.31 2.7-4.95 4.09l-3.5 2.96c.06.08.13.29.26.37 4.71 3.04 4.7 4.91-.13 7.75-1.64.97-3.33 1.84-5.54 3.04 3.33 1.02 6.17 1.8 8.94 2.76 2.84 1 5.4 2.55 6.27 5.62 1.46 5.18-3.37 9.55-7.98 8.42-2.62 2.58-4.66 5.12-7.23 6.9-1.26.89-3.52.6-5.28.4-.81-.1-1.49-1.3-2.46-2.22l-3.3 1.49c.97 1.98 2.34 3.94 2.88 6.1.66 2.61-1.38 3.74-4.28 4.36 3.01.73 3.01 1.86 1.21 3.17-3.47 2.53-6.99 5-11.16 7.99l29.3 1.7c.1 0 .22-.03.31 0q1.87.65 3.73 1.33-1.8 1.2-3.64 2.38c-.22.14-.48.23-.57.27 7.65 12.84 15.28 25.59 22.84 38.37 9.09 15.35 18.03 30.8 27.21 46.1 5.6 9.32 11.6 18.4 17.31 27.66 1.43 2.3 2.36 4.9 3.71 7.24 3.1 5.4.88 10.87.42 16.34-.68 7.91-1.51 15.85-1.44 23.77.02 2.16 3 4.35 4.74 6.44 4.4 5.35 9.14 10.56 10.62 17.6.38 1.82.14 4.34-.88 5.77-4.22 5.9-6.46 12.66-8.43 19.4-3.39 11.63-4.61 23.66-5.1 35.76-.24 6.22-.6 12.44-1.29 18.63-.33 2.93-1.25 5.79-4.23 7.62-3.61 2.23-6.93 4.84-11.44 5.15-1.6.11-3.14.94-4.7 1.45l-1.1-.78c.12 1.66-.21 3.54.45 4.96a2571 2571 0 0 0 18.67 39.4c4.29 8.83 11.42 15.55 17.47 23.09 6.73 8.38 13.3 16.88 19.87 25.39 1.44 1.86 1.5 3.76-.2 5.81a14 14 0 0 0-2.46 5.12c-3.4 11.99-9.44 22.75-15.17 33.68-7.87 15.03-17.07 29.44-22.11 45.82-1.18 3.82-1.63 7.87-2.52 12.33H688c-2.65 5.36-5.14 11.33-8.48 16.77a37 37 0 0 1-8.7 9.6c-5.22 4.05-11.3 2.6-17.09.98-9.53-2.68-17.14-8.62-24.62-14.77a49 49 0 0 0-8.28-5.67c1.53 2.95 2.91 5.98 4.61 8.83a6346 6346 0 0 0 29.65 49.51c5.74 9.48 8.98 19.85 11.62 30.49 3.07 12.34 6.31 24.65 9.33 37.01 3.78 15.5 7.13 31.1 11.2 46.52 3.05 11.58 6.94 22.95 10.46 34.41.2.66.52 1.31.56 1.98q.42 6.87 7.13 8.87c2.82.84 5.02 4.23 4.28 7.01-1.57 5.9-.88 11.67.17 17.56.64 3.54.3 7.27.32 10.91.01 4.22-.16 8.45-.07 12.66.03 1.11.66 2.24 1.1 3.32 1.56 3.8 3.26 7.54 4.73 11.36q2.74 7.2 5.18 14.51c.56 1.7.65 3.54.96 5.35 4.12.54 5.5 2.17 5.88 8.16.43 6.82.2 13.66-1.93 20.22-.44 1.36-1.65 2.66-2.83 3.54-7.17 5.27-15.14 8.38-24.14 8.61-2.53.06-5.07.64-7.58.5-8.35-.48-16.73-.8-25-1.91-5.98-.8-11.81-2.72-17.67-4.23-.7-.19-1.72-.96-1.76-1.53-.06-.82.39-2.06 1.04-2.5 1.6-1.07 1.4-1.9.19-3.05-2.95-2.78-3.37-6.55-3.08-10.14a86 86 0 0 1 2.43-13.57c.87-3.55 2.85-4.6 6.59-4.32q.2.5.43.99l.38-.15-.29-1.28c-1.14-4.51-.13-8.85 1.12-13.15.8-2.77 1.88-5.47 2.5-8.27.3-1.29-.2-2.74-.28-4.12-.4-7.97-1.2-15.96-1.05-23.92.11-5.83 1.7-11.6 2.17-17.45.18-2.2-.46-4.76-1.53-6.71-4.67-8.54-6.6-18-9.47-27.12-2.07-6.58-3.36-13.44-5.92-19.8-2.08-5.16-5.68-9.68-8.37-14.6-6.26-11.48-12.85-22.82-18.43-34.62-7.8-16.5-15.32-33.17-21.96-50.16-4-10.24-6.11-21.22-9.13-31.86-.36-1.29-.8-2.83-1.74-3.66-11.01-9.81-16.83-22.86-22.24-36.04-4.18-10.18-7.58-20.68-11.25-31.07-.49-1.39-.96-2.16-2.65-2.14-9.62.1-19.26-.37-28.76 1.83-2.2.5-3.6 1.32-3.84 3.63q-.98 9.44-1.9 18.87-.4 4.41-.63 8.82c-.22 4.22-2.58 7.5-5.37 10.14-2.4 2.27-2.2 4.54-.5 6.12 5.77 5.33 7.38 12.38 9.07 19.5.16.63.47 1.26.8 1.83 3.65 6.36 7.32 12.7 10.77 18.68.96-.16 2.5-.9 3.72-.54 4.17 1.22 7.12 4.4 9.39 7.79 1.25 1.88 1.12 4.86 1.16 7.35q.19 12.09.02 24.18c-.08 6.47-.15 12.93-.64 19.37-.8 10.52-2.14 21-2.82 31.54-.2 3.24.48 6.4-.69 9.74-2.2 6.26-5.6 11.66-9.9 16.88 4.85 9.36 4.9 18.7-.86 28.22-3.38 5.6-5.68 11.85-8.48 17.82 8.8-1.67 14.8 2.72 18.93 9.7 3.93 6.63 2.54 13.27-2.44 19.34 5.19 2.88 7.66 7.71 9.66 12.82 2.23 5.7.21 10.75-2.8 15.55 2.71 2.12 3.17 3.78 1.14 6.87-1.45 2.2-2.26 4.32-1.64 6.88.1.42.48.76.71 1.12-2.87.99-3.66 3.35-4.05 6.66-.24 1.98-2.16 4.36-3.98 5.43-5.17 3.03-10.72 5.44-16.05 8.23-.87.46-1.33 1.66-2.05 2.45-.55.62-1.13 1.5-1.81 1.64-4.67.93-9.34 2.26-14.04 2.43-14.67.5-29.35.44-44.03.78-10.85.25-21.72.45-32.52 1.31-6.56.52-12.97.64-19.38-.78a7.4 7.4 0 0 1-3.23-1.51c-2.32-2.1-4.74-2.34-7.8-1.89-2.67.38-5.6-.26-8.26-.99-1.12-.3-1.86-2.01-3.3-3.68l13.52-3.58c-.28-1.25-.87-2.79-.88-4.34 0-.75 1.05-1.52 1.66-2.25.23-.28.65-.44.8-.75 2.85-5.64 8.26-8.67 12.82-12.53 8.82-7.44 17.84-14.64 26.64-22.1 2.42-2.06 4.26-4.79 6.54-7.01 2.64-2.58 6.28-2.46 9.62-3.08.96-.18 1.94-.28 2.23-.32 0-4.65-.23-8.88.04-13.07a542 542 0 0 1 1.99-21.72c.61-5.81.71-5.8 6.61-6.66-1.87-7.48-1.13-10.42 8.18-16.3l-4.04-31.43c-5.72-.68-10.3-4.45-14.1-8.58-2.36-2.58-3.46-6.83-3.96-10.49a369 369 0 0 1-2.57-26.78c-.65-10.03-.8-20.1-1.34-30.13-.5-9.4-1.44-18.76-1.84-28.16-.29-6.92.06-13.86-.02-20.8-.03-2.43 1.17-3.59 3.3-4.03 3.24-.68 6.5-1.23 9.74-1.89.87-.17 1.7-.51 2.57-.79-3.37-6.99 1.4-12.65 6-16.67 1.52-1.32 3.34-2.3 4.78-3.7 1.46-1.4 2.61-3.11 3.62-4.36-2.68-3.89-5.81-7.5-7.85-11.65-2-4.03-2.83-8.62-4.25-12.95-.24-.71-.74-1.77-1.27-1.86-1.28-.23-3.03-.48-3.9.18-1.76 1.34-3.16 3.2-4.49 5.01-.34.48-.01 1.61.25 2.35 1.3 3.57 2.74 7.09 4.02 10.66 1.05 2.93.9 3.38-2.32 2.75-6.59-1.3-13.04-3.28-19.61-4.65-5.13-1.07-7.82-5.18-10.74-8.6-7.2-8.43-14.28-17.04-20.48-26.2-4.29-6.34-7.43-13.55-10.37-20.66-3.49-8.43-6.73-17.04-9.12-25.83-2.09-7.69-3.05-15.72-4.11-23.66a111 111 0 0 1-1.15-17.34c.33-12.29 1.82-24.44 5.06-36.38 5.16-19.01 12.98-36.86 22.66-53.94l.65-1.18q-4.42 2.3-5.45-.6c-2.24.09-4.66.35-4.7-2.44-4.7 0-9.52 1.02-13.7-.18-16.53-4.8-30.99-12.25-36.46-30.71-1.6-5.4-.21-8.9 3.12-12.55 1.7-1.88 3.1-4.05 4.7-6.03q5.88-7.18 11.87-14.41l-10.77-9.57c-3.4-3-4.23-7.88-2.29-11.94 2.21-4.63 4.43-9.26 6.23-14.05 2.8-7.42 8.16-12.5 14.86-15.98 3.22-1.67 3.8-3.77 4.09-6.8.46-4.66 1.24-9.3 1.95-13.94.72-4.6 3.74-7.55 7.35-10.07 4.94-3.44 9.98-6.75 14.7-10.48 1.05-.83 1.35-3.2 1.23-4.81-.41-5.79-1.3-11.54-1.73-17.33-.56-7.66-1.4-15.35-1.16-22.99.47-14.65 3.85-28.56 12.83-40.6.53-.7 1.18-1.67 1.9-1.8a4.6 4.6 0 0 1 3 .73c.39.27.36 1.6.13 2.32-2.29 7.34-4.97 14.57-6.9 22-2.03 7.77-2.4 15.72-1.93 23.83a800 800 0 0 1 1.27 43c.04 6.63-1.03 13.26-1.6 19.94-5.11-.9-3.87-4.91-4.37-7.66-.66-3.67-.53-7.48-.76-11.72-4.45 3.78-8.77 7.14-12.68 10.93-1.1 1.06-1.15 3.3-1.51 5.04-1.78 8.42-4.49 16.51-8.68 24.06a7 7 0 0 1-1.64 2.18c-1.4 1.12-2.8 1.6-2.91-1.3-5.67 3.79-8.9 8.76-10.42 15.22-.93 3.98-2.95 7.7-4.34 11.2 3.12 3.39 6.38 6.9 9.63 10.44 1.16 1.26 2.43 2.47 3.38 3.88 1.63 2.43-.12 6.33-3.05 8.33-2.05 1.4-4 3.2-5.35 5.26-3.15 4.8-5.75 9.96-8.91 14.75-1.43 2.15-1.45 3.88-.05 5.72 3.36 4.44 6.6 9.03 10.34 13.15 4.68 5.15 9.86 9.85 14.7 14.85.57.58.42 1.85.6 2.8l-.55.84 1.22-.3 14.48 1.34c-.4-12.44 5.26-23.1 12.37-33.2.7-.99 1.34-2.15 2.3-2.84 3.57-2.58 4.66-6.17 4.6-10.94-4.66.74-9.3 1.4-13.92 2.23-3.75.68-7.45 1.73-11.23 2.25-1 .14-2.48-.82-3.22-1.71-1.53-1.84.41-2.7 1.57-3.04 4.73-1.4 9.47-2.86 14.31-3.7 4.2-.74 8.54-.67 13-.97l1.57-13.27-13.49-1.95-11.4-1.61c-1.7-.23-2.82-1.31-2.22-2.85.4-1 2-2.34 2.9-2.24 8.2.97 16.37 2.22 24.9 3.44.68-4.32 1.68-9.43 2.15-14.6.12-1.24-1.5-2.65-2.49-4.27l-7.23 5.51-.84-.74 5.85-6.96-9.34-7.8c-2.98-2.48-6.06-4.87-8.93-7.48-1.95-1.77-1.43-2.8.97-3.8 2.52-1.08 4.59-.37 6.65.89 6.05 3.68 11.48 8.05 15.38 14.1.39.6.94 1.07 1.72 1.93 1.15-7.15 2.08-14.04 3.44-20.84.66-3.28-.15-7.3 3.65-9.43.17-.1.38-.12.91-.29.3.63.87 1.3.89 1.98.06 4.22.26 8.47-.1 12.67-.56 6.5-1.49 12.95-2.34 19.42-1.16 8.78-2.47 17.54-3.57 26.32-.62 4.97-.89 9.97-1.38 14.95-.78 7.99-1.47 15.99-2.5 23.95-.78 6.08-1.7 12.18-3.16 18.12-1.27 5.2-4.63 9.34-8.7 12.84a5.5 5.5 0 0 0-1.62 2.06c-5.7 15.67-11.59 31.28-16.88 47.09-3.48 10.35-6.27 20.97-6.72 31.99-.31 7.58-1.09 15.23-.5 22.75 1.2 15.43 2.27 31.03 7.93 45.64 3.1 7.99 7.12 15.66 11.18 23.23 7.31 13.64 16.56 25.98 25.63 37.15 2.7 0 4.8-.43 6.67.08 5.75 1.56 11.41 3.48 17.11 5.26l1.1.44zm16.13-354.23.37 1.72.52-.13-.47-1.96-1.45-4.16-1.87-6.73-.68-3.78c-.2-.95-.42-1.9-.77-3.43 19.94 9.39 37.7 6.4 54.2-7.82-.34 1.18-.61 1.83-.7 2.5-.64 5.14-3.4 9.78-2.74 15.32 1.36 11.57 2.1 23.21 3.17 34.81 1 11.05 1.67 22.15 3.23 33.12a622 622 0 0 0 6.85 39.03 603 603 0 0 0 9.26 38.63 256 256 0 0 0 9.91 29.4c7.65 18.55 19.7 34.3 32.93 49.19a1134 1134 0 0 0 16.01 17.66c7.68 8.28 15.07 16.86 23.25 24.61 9.21 8.73 17.74 18.03 25.03 28.32 5.67 8 10.14 16.84 15.27 25.23 2.25 3.68 4.3 7.74 7.38 10.61 4.18 3.88 9.27 6.78 13.98 10.1 1.4.99 4.52-.14 4.56-1.73.22-8.19 3.34-15.52 6.89-22.64 7.2-14.44 14.88-28.64 21.96-43.13 3.82-7.8 6.86-16 10.1-24.07.3-.72-.17-2.1-.76-2.75a4036 4036 0 0 0-29.07-31.84c-8.72-9.45-14.37-20.65-18.89-32.52-1.65-4.34-3.04-8.78-4.42-12.83-3.45 6.3-6.87 12.74-10.5 19.07-1.5 2.63-3.66 4.42-7.14 4.04-8.49-.93-16.99-2.12-25.5-2.38-7.26-.21-13.6-4.98-21.06-3.61-1.22.22-2.52.03-3.79.03l-.05.85 8.12 2.8c-2.14 4.06-2.15 4.2-6.38 4.02a32 32 0 0 1-15.62-4.96c-12.74-7.87-16.9-20.4-18.31-34.4-.47-4.65.78-8.13 5.03-9.4-3.92-7.1-7.9-14.06-11.6-21.18-.75-1.46-1.1-3.89-.39-5.2 3.75-6.95 8.16-13.55 11.85-20.53 4.25-8.04 8.42-16.08 14.24-23.15 1.9-2.3 4.12-4.76 4.88-7.5 1.95-7.01 3.15-14.23 4.69-21.5-4.36-3.46-8.5-7.3-5.25-14.06.19-.39-.33-1.11-.5-1.69-1.19-4.13-3.42-7.95-4.75-11.86-5.3-15.61-9.55-31.59-14.21-47.42-.73-2.5 1.28-3.13 2.59-2.77 1.82.5 1.99-.3 2.08-1.48.65-8.76 1.17-17.54 1.9-26.3.41-4.82 1.13-9.61 1.71-14.35 3.55-.32 4.58.74 5.07 4.9 1.24 10.43-.33 20.73-1.57 31.04-.4 3.3-1.83 6.75-1.27 9.86 1.7 9.54 4.12 18.95 6.16 27.96l10.4-34.33c2.04-.34 1.96 1.33 1.76 2.76-.76 5.23-1.31 10.52-2.56 15.63a358 358 0 0 1-6.95 24.65 9 9 0 0 0-.44 4.82c1.15 5.9 2.1 11.85 3.18 17.77.1.52.47 1.08.87 1.43 3.17 2.72 6.49 5.29 9.55 8.12 3.32 3.06 6.61 6.2 9.51 9.64.91 1.08.52 3.25.73 4.92-1.15-.2-2.42-.17-3.42-.68-2.64-1.34-5.15-2.91-7.82-4.45-.5 4.92-.99 9.5-1.4 14.06-.12 1.33-.27 2.68 1.82 2.83 8.03.54 16.05 1.3 24.08 1.77 9.54.55 19.1.86 28.64 1.35 1.05.05 2.07.62 3.1.94q-.05.51-.12 1.01c-2.64.36-5.28.94-7.93 1.04-13.02.5-26.04.87-39.06 1.31-.9.04-1.79.33-2.69.36-2.56.1-5.3.75-7.64.05-3.9-1.15-6.16-.23-8.07 3.31-2.85 5.29-6.1 10.37-9.3 15.73 1 .26 1.55.42 1.84.5-1.2 1.05-3 1.95-3.76 3.39-4.23 8.1-8.22 16.31-12.27 24.5-.39.8-.98 1.85-.75 2.52 2.42 6.76 4.77 13.56 7.62 20.14 1.55 3.57 1.12 5.43-3.02 6.7 3.1 14.09 10.04 25.54 22.65 33.19-.38-1.13-1.18-1.95-1.78-2.9-.94-1.47-2.78-3.37-2.4-4.48.66-1.98-.4-2.4-1.3-3.38-2.27-2.4-4.57-4.8-6.56-7.42-.52-.69.05-2.2.11-3.33 1.04.25 2.15.32 3.07.78a6.4 6.4 0 0 1 2.28 2c3.18 4.61 8.49 6.69 12.39 10.44.2.2.65.18 1 .2 6.97.58 13.98.84 20.89 1.77 8.94 1.2 17.81 2.92 26.69 4.42l24.7-47c.88.2 1.74.12 1.97.47 2.42 3.72 5.36 1.52 8.06.64.7-.23 1.46-1.54 1.49-2.39.2-6.39-.13-12.81.38-19.18.64-7.9 1.86-15.74 2.97-23.6 1-6.98 2.46-13.85 6.17-20.04a116 116 0 0 0 5.45-10.2 4 4 0 0 0-.34-3.4c-4.25-5.97-8.74-11.8-13.04-17.74-2.72-3.75-5.33-7.63-4.4-12.65.15-.8.7-1.53 1.07-2.29.6.42 1.27.75 1.79 1.25.85.84 1.6 1.78 2.67 2.98-.38-2.19-.87-3.85-.92-5.53-.22-6.53-.2-13.07-.47-19.6-.13-3.36 2.12-6.78-.8-10.12-2.6-2.99-4.77-6.38-6.96-9.71-8.22-12.54-16.55-25-24.48-37.73-4.57-7.34-8.56-15.04-12.61-22.7a1194 1194 0 0 1-17.53-33.94c-2.25-4.59-3.55-9.65-5.2-14.3-9.26.13-18.93 1.14-28.43-1.65-1.51-.44-2.55-.52-4.03.7-7.74 6.41-15.73 12.52-23.58 18.82-2.12 1.7-4.03 3.67-6.35 5.82 1.03 0 1.44-.04 1.85 0 7.1.61 14.2 1.2 21.28 1.95.58.06 1.64 1.4 1.49 1.8-.93 2.47-1.77 5.11-4.65 6.2a4 4 0 0 0-1.78 1.31 167 167 0 0 0-18.63 30.76c-10.4 22.02-16.07 45.54-20.95 69.22-3.1 15.03-5.08 30.29-7.63 45.43-.28 1.7-1.03 3.3-1.55 4.96l-.9-.12c-.18-1.36-.61-2.73-.51-4.07q.78-10.69 1.83-21.36c.96-9.64 1.64-19.33 3.2-28.88 1.76-10.72 4.24-21.33 6.64-31.94a159 159 0 0 1 22-51.92c2.96-4.58 6.04-9.08 9.16-13.77-5.67-.3-11.05-.4-16.39-.95-2.61-.27-6.22.5-6.72-3.8q-.61.07-1.24.17l.04.08c.33-.67.5-1.52 1-1.97 8.23-7.18 16.26-14.62 24.82-21.38 10.52-8.3 21.46-16.07 32.85-21.91-.88-1.24-1.79-2.38-2.54-3.62-1.51-2.47-2.5-5.44-4.49-7.42-7.35-7.28-16.44-11.9-26.23-14.86-10.66-3.24-21.5-5.85-32.06-8.68-1.91 3-1.74 5.12.16 8.47 8.04 14.15 9.89 29.11 5.48 44.76-3.59 12.75-7.4 25.43-11.17 38.13-1 3.37-2.28 6.65-3.22 10.04-1.58 5.68-3 11.4-4.64 17.74-2.52-9.12-6.98-16.18-14.04-21.34-13.1-9.57-27.43-11.02-42.44-5.4-5.64 2.1-11.2 4.68-14.89 9.88l-.86.94c-2.42 2.28-5.02 4.45-5.73 8.89L458 300l.82-.87c7.27-4.02 13.98-9.38 22.62-10.24 5.08-.5 10.25-1.34 15.2.9-.34.17-.87.26-1 .53-2.23 4.73-4.68 9.37-6.48 14.25-1.04 2.84.8 5.02 3.52 6.2 2.5 1.08 6.2 1.2 7.93-.92 2.04-2.52 4.33-4.85 6.27-7.44.74-1 .83-2.51 1.2-3.76l.45.55.15-.22-.6-.29c-2.97 3.25-5.91 6.53-8.95 9.7-1.6 1.7-5.06 1.67-7.59.24-2.42-1.36-1.22-3.44-.86-5.1.4-1.76 1.48-3.36 2.22-4.95l9.08 4.38.54-1-8.88-4.88 3.3-7.36c.38 0 .77-.08 1.12.01 13.7 3.3 23.14 11.52 28.08 24.7.94 2.51 1.67 5.57 1.15 8.1-1.44 6.98-3.53 13.84-5.52 20.7-.73 2.51-1.33 5.38-2.94 7.28-12.01 14.14-32.28 18.23-48.97 10.2-1.61-.77-3.28-1.44-4.92-2.15l-1.21-.18-1.83-7.21-.88.22 2.15 7.67.62 1.88 1.04 3.8.82 3.61 2 7.2q.75 2.02 1.53 4.03zm14.36 59.37c.16-.1.42-.18.47-.32l14.1-40.67c.6-1.69 1.15-3.39 1.73-5.08l1.73-5.02c-7.74 16.39-13.36 33.48-18.42 50.77l-.35 2.06.48.07zm-16.95-86.9c-.14.14-.29.27.04-.04zc.07-.9.28-1.82.17-2.7-.34-2.99 1.6-2.77 3.54-2.67 4.07.22 8.14.56 12.21.59 6.83.04 13.03-2.16 18.82-5.68.67-.41 1.6-.42 2.3-.6l1.8 5.8c2.24-5.43 1.26-11.08 3.97-16.23q-2.15.49-3.1 1.74c-3.88 5.16-8.28 9.45-14.76 11.36-9.86 2.91-19.68 1.42-29.59.2-.06.83-.16 1.53-.16 2.24 0 2.2 2.8 5.64 4.8 5.94m-61.08 678.57c-2.78 1.71-3.51 3.85-2.7 7.22.72 2.91.16 6.12.16 9.6.73.12 1.9.51 3.05.46 8.07-.34 16.13-.79 24.19-1.16 9.92-.45 19.86-1.03 29.8-1.23 10.3-.21 20.62.04 30.93-.09 3.84-.05 7.68-.59 11.9-.93-2.12-6.71-7.34-10.98-10.41-17.24 3.66-3.94 7.77-8.48 12.02-12.89 1.02-1.06 2.41-2.23 3.74-2.39 1.57-.18 3.78.2 4.76 1.23 1.05 1.11 0 2.65-1.55 3.66-4.64 3.02-9.14 6.26-13.7 9.41l3.72 5.55.4.44 3.78 9.01c1.1-1.45 1.77-2.58 2.68-3.47q3.74-3.66 7.68-7.12c1.92-1.68 3.77-3.83 6.04-4.61 2.48-.84 2.5-2.34 2.5-4.1 0-4.25 1.37-5.32 4.48-4.13l6.11-5.83c-1.9-1.71-4.11-3.67-6.3-5.66-1.22-1.12-2.17-1.04-3.68-.13-3.25 1.97-6.75 3.54-10.19 5.17-.55.26-1.6.3-2-.04-5.52-4.83-10.98-9.76-16.48-14.64-.61-.54-1.34-1.3-2.05-1.34-9.49-.48-18.97-.96-28.47-1.2-4.28-.1-8.6.26-12.87.55-5.17.35-10.4.72-12.74 6.78 1.16 0 2.26-.02 3.38 0 1.95.03 3.95-.13 5.84.22 1.17.21 3.39.69 2.07 2.73-1.99 3.12-4.35 6.01-6.54 8.99l-.73-.44 3.63-8.88c-3.27-.15-6.44-.31-9.6-.42-.46-.02-1.06.04-1.36.32-3.67 3.36-7.3 6.77-11.12 10.34l14.65 1.3c-.73.77-1.51 1.23-2.32 1.27-4.91.26-9.84.42-14.76.61-.54.02-1.27-.22-1.6.04-5.1 4.06-10.14 8.17-15.2 12.28l-1.13.74zm41-254.56-.6-.3q.04.39.1.76l1.66 19.57 2.4 27.8c.32 3.8.6 7.59.9 11.53 6.3-5.75 13.05-4.88 18.05.91a16 16 0 0 1 4.02 11.27c-.09 5.6-1.88 10.44-6.11 13.95-4.38 3.62-9.49 4.43-14.87 1.48l1.91 21.68c2.27-.4 4.32-.8 6.39-1.1 1.6-.25 4.27.14 4.64-.63 1.11-2.31 2.83-1.3 4.32-1.53.6-.1 1.25.01 1.84-.12 7.48-1.58 14.91-.88 22.32.43 6.1 1.07 12.18 2.24 18.32 3.39.89-4.43-2.36-9.06 1.75-13.7 1.77 5.23 3.7 9.71 1.47 15.57 3.77 0 7.26.28 10.68-.1 1.91-.22 3.61-1.47 3.64-4.04.05-3.46.45-6.91.57-10.37.26-8.13.43-16.25.63-24.38.05-2.16-.08-4.33.05-6.5q.84-13.78 1.83-27.55c.3-4.26.85-8.5 1.17-12.75.06-.74-.19-1.8-.7-2.23-3.5-2.95-7.41-5.5-10.61-8.73-3.36-3.4-6.08-7.43-9.05-11.16 0 2.75.04 5.7 0 8.65-.14 8.24-.24 16.48-.48 24.72-.12 4.07-.68 8.14-.73 12.2-.12 9.03-.04 18.06-.04 27.09-.02-1.07-.5-2.21-.6-3.38q-1.02-12.8-1.94-25.61c-.41-5.67-.98-11.35-1.1-17.03-.1-5.1.71-10.24.43-15.33-.33-6.17-1.39-12.29-2.19-18.84-2.4.26-5 .6-7.6.8q-12.95.99-25.9 1.9-4.43.35-8.84.6-8.85.55-17.71 1.07zm97.91-533.5c-3.48 1.15-6.33 2.16-9.24 2.99-.6.17-1.38-.32-2.08-.5.46-.55.82-1.4 1.38-1.58 3.33-1.08 6.7-2 10.18-3 .23-1.88.89-3.93.65-5.89a426 426 0 0 0-2.87-19.15c-.32-1.97-.42-4.6-1.7-5.68-4.55-3.87-6.8-9.12-9.66-14.06-.64-1.12-1.99-2-3.21-2.56-4.58-2.09-5.52-7.02-1.95-10.55.66-.66 1.5-1.69 1.41-2.45-.41-3.42-1.45-6.8-1.63-10.23-.12-2.18.86-4.42 1.35-6.63l1.04.04a5.94 5.94 0 0 0 6.18 4.33c3.17-.2 6.5-1.66 7.1-5.26.56-3.51.58-7.24.06-10.75-.25-1.7-2.29-3.14-3.73-4.97l-3.5 7.1c2.99 1.59 3.66 3.31 2.76 5.16-1.61-.2-2.99-.68-4.27-.49-2.74.43-3.86-.2-3.3-3 .56-2.78 1.91-5.4 2.76-7.67-3.27-5.04-9.23-4.83-14.41-6.23-5.46-1.48-10.5-5.03-15.81-4.02-2.9 4.16-5.3 7.9-7.99 11.42-4.84 6.37-11.6 7.64-19.02 6.47-5.43-.85-9.51-3.8-12.24-9.16-1.84 1.37-3.58 2.43-4.97 3.83-.73.73-1.38 2.87-1.17 3.01a15 15 0 0 0 4.44 1.93c1.15.3 2.43.06 4.05.06-.8 1.07-1.04 1.48-1.36 1.8-1.16 1.16-2.26 2.44-3.62 3.34-.28.2-1.5-1.11-2.34-1.66-1.39-.9-2.82-1.72-4.23-2.59l-.69.35 3.9 14.05h10.47l1.04 3.15-9.53.72c1.29 2.82 2.76 5.44 3.73 8.24 1.38 4.01 3.47 6.87 8.1 7.04 1.18.04 2.36.6 3.52.53 6.23-.33 12.47-.57 18.66-1.25 8.02-.87 15.84-2.58 22.7-7.24.58-.4 1.37-.5 2.62-.95-2.73 5.21-7.35 6.8-11.65 8.78-2.17 1-4.37 1.64-5.93 3.8-1.86 2.55-3.96 5.1-6.47 6.96-1.65 1.23-2.04 2.2-1.63 3.92 1.94 8.2 4.07 16.36 5.75 24.61 1.06 5.26 1.51 10.65 2.08 16 .08.78-.76 1.66-1.17 2.49-.62-.68-1.58-1.26-1.81-2.06-1.52-5.23-2.9-10.52-4.33-15.88l-10.96 14.8 3.74 2.17q-6.44 1.12-9.58 5.7c6.68 3.96 13.7 7.36 21.3 8.6a82.5 82.5 0 0 0 35.1-1.78c3.17-.86 7-1.32 8.5-4.87 1.45-3.46 2.26-7.2 3.5-11.29zM701.68 946.5c-2.2.29-3.78.62-5.36.66-1.05.02-2.13-.63-3.16-.54-5.23.5-10.5.88-15.67 1.8-4.94.9-9.44 3.52-10.59 8.55-1.89 8.32-3.63 16.65-3.43 25.43.24 10.19-.76 20.44-1.84 30.61-.5 4.79-3.43 9.3-1.7 14.38.6 1.72.78 4.4 1.95 4.96 8.21 3.92 17.1 4.74 25.98 3.75 8-.89 15.9-2.76 23.83-4.19l6.26-1.16c-.46-1.12-.8-2.38-1.45-3.45-1.24-2.05-3-3.84-3.94-6.01-3.5-8.08-7.66-15.79-7.36-25.26.29-9.04-1.22-18.14-1.97-27.2-.08-.99-.49-1.95-.59-2.93-.45-4.24-.94-8.46-1.2-12.7-.14-2.19.15-4.39.25-6.7zm-82.2-296.17-1.3.61c.3 5.19.67 10.37.84 15.57.5 14.9 1.03 29.8 1.23 44.69.05 3.7.57 6.35 4.34 7.9 1.9.79 3.4 2.55 5.14 3.77 6.55 4.54 12.68 10 19.8 13.31 11.15 5.17 18.51 4.94 25.76-6 2.98-4.5 5.25-9.44 7.7-13.9-1.64-1.17-3.02-2.2-4.45-3.18-4.92-3.35-10.38-6.11-14.65-10.14-6.28-5.92-11.92-12.56-17.45-19.22-9.15-11-17.99-22.25-26.95-33.4zM518.8 994.06c.06-1.27.65-2.85.1-3.7-4.81-7.53-6.18-16.27-8.66-24.6-1.24-4.1-1.54-8.5-2.36-13.35l-47.58-1.38c.35 12.76 1.58 25.35-3.06 37.55 8.1 0 16.12-.15 24.13.05 4.96.13 9.95.55 14.86 1.3 2.25.34 4.54 1.5 6.44 2.84 1.7 1.18 2.87 3.1 4.37 4.79 2.72-3.98 5.13-5.55 11.77-3.5zm-3.69-295.64c5.49-1.26 11.08-2.8 16.77-3.78 3.8-.65 7.74-.5 11.62-.67 2-.09 3-.7 2.34-3-5.33-18.73-10.56-37.49-15.89-56.22a1491 1491 0 0 0-8.85-30.17c-1.84-6-4.05-11.9-5.94-17.43l-3.53 27.46c.07 0 1.48-.05 1.49.01.15 2 1.2 1.35 2.36.97 4.45-1.49 6.35.13 6.5 5.01.17 5.82-3.07 10.22-5.73 14.88-.34.6-1.05 1.17-1.04 1.74q.1 6.1.49 12.2c.05.76.5 1.87 1.08 2.15 3.15 1.5 4.41 3.65 4.8 7.32.69 6.4.5 12.57-3.5 17.67-2.12 2.7-2.63 5.05-2.47 8.3.25 4.78-.31 9.6-.5 13.56m21.65-560.84c1.18-2.79 1.32-4.57-.75-6.24-.75-.6-1.24-2.36-.94-3.28 1.1-3.3.67-4.28-2.48-5.4q-6.64-2.35-13.1-5.16c-.82-.36-1.16-1.81-1.73-2.76 1.14-.2 2.36-.74 3.4-.51 2.72.59 5.35 1.51 8.33 2.4-1.08-2.56-1.76-4.52-4.95-4.72-3.15-.19-6.25-1.36-9.3-2.33-1-.32-1.76-1.34-2.63-2.04 1-.73 1.91-1.83 3.03-2.1 1.55-.36 3.25-.09 4.78-.09l1.27-3.02c-6.42-1.58-13.48.48-19.5-3.15l-.01-1.2c5.65-.33 11.3-.64 16.13-.91-6.32-3.27-14.06-3.35-22.25-3.74l2.4-2.79c-4.4.38-8.5.4-12.47 1.15-5.16.97-10.23 2.47-15.29 3.9-.65.18-1.25 1.18-1.52 1.93-3 8.12-5.95 16.27-8.94 24.51 2.88-.4 5.76-1.05 8.66-1.15 9.24-.34 18.48-.58 27.72-.6 2.57 0 5.2.7 7.7 1.41 1.49.42 2.73 1.64 4.2 2.2 7.66 2.97 15.57 5.33 22.08 10.74 1.65 1.38 3.98 1.94 6.16 2.96zM717.12 1036c-8.77 2.68-17.3 5.71-26.05 7.85-8.52 2.09-17.26 2.56-25.6-1.16-3.59-1.59-7-3.59-10.36-5.35l-.77 13.73 23.48 3.12c6.62.86 13.26 1.51 19.86 2.55 6.98 1.11 13.92 1.75 21.02.26zm-206.17-85.58c2.77-5.9 5.33-11.98 8.4-17.77 3.77-7.1 2.2-14.52 2.49-22.38-1.63 1.46-2.79 2.45-3.88 3.5-7.53 7.2-15.13 14.31-24.14 19.69a818 818 0 0 0-16.32 9.96c-1.29.8-2.34 1.98-3.8 3.23zm-8.76-58.08c-.02.26-.1.66-.1 1.05.1 9.79-4.86 16.47-13.23 20.69-4.32 2.18-9 2.12-13.47-1.16l1.56 14.6c16.1-10.03 30.7-21.75 44.7-33.49zm-31.45-2.02c.6 2.6 1.2 4.91 1.63 7.26.62 3.4 1.85 6.34 5.09 8.1 4.66 2.52 9.02 1.25 13.02-1.34 4.13-2.67 5.58-7.04 5.95-11.73.04-.55-1.1-1.6-1.83-1.75-7.93-1.55-15.9-1.91-23.86-.54m31.7-256.3.67.67-14.18 13.65 1.35 5.05c8.88-3.6 14.11-10.15 18.84-18.05 4.1-.5 9.03-6.63 8.37-11.46-.14-1.04-1.03-2.63-1.8-2.78-1.32-.25-3.43-.05-4.14.82-2.33 2.87-4.18 6.13-6.15 9.15l1.3 3.89zm-47.5 210.05c.93 2.28 2.32 4.04 2.14 5.61-.4 3.38-3.82 1.52-5.74 2.43l.7 5.65c2.06-4.19 5.11-4.2 8.26-4.33 1.06-.04 2.23-.94 3.1-1.7 1.4-1.26 2.6-2.74 4.02-4.27.6 3.54-1.72 5.5-3.88 7.16-2.22 1.71-4.9 2.83-6.93 3.97 4.87 1.91 9.56.46 12.87-4.32 2.93-4.23 2.18-8.84-.1-13.2-2.48-4.72-6.62-5.94-11.68-5.2zm-41.72-366.42c-9.08 11.66-12.87 29.54-7 38.7.9-2 1.4-4.87 3.1-6.39 2-1.8 2.5-3.78 2.94-6.03.4-2.09.78-4.2 1-6.3.65-6.35 1.22-12.7 1.82-19.05l-.7-.18-1.86 3.36-.45-.18zm102.37 480.3 8.55 23.13c5.06-1.31 9.28-10.04 6.44-17.1-2.64-6.58-7.37-8.62-15-6.03m-13.7-823.86c1.83.34 3.35.47 4.78.92 7.23 2.26 14.54 4.37 21.63 7.03 3.36 1.26 6.22 1.72 9.34-.82-9.92-7.14-21.97-9.68-32.8-14.84zm-12.66 616.05c-2.54 3.97-1.9 6.22 2.99 7.85 1.57.53 3.5.56 5.12.2 2.43-.52 4.03-3.07 3.36-4.62a6.9 6.9 0 0 0-7.25-3.9c-1.2.2-2.42.28-4.22.47M455.2 127.71l-.6-1.02c-1.65.56-3.84.63-4.85 1.76a323 323 0 0 0-13.12 15.76c-.7.88-.6 2.4-.86 3.62l.84.3zm31.1-5.33c-2.44.54-4.76.36-5.97 1.45-6.49 5.82-11.99 12.5-16.01 20.27l.75.73 21.21-22.45zm-15.82 542.04 3.38 6.05c3.09-3.67 8.67-5.3 8.36-11.5-1.47-2.16-3.3-1.94-5.23-.26zm27.6 22.3 8.18-7.71-4.21-4.52-7.36 4.99 3.4 7.25zm18.24-29c-1.7 5.8-5.57 9.76-9.68 13.33l1.75 4.4c2.3-2.06 4.83-4.28 7.26-6.6.44-.4.63-1.24.64-1.89.06-3.08.03-6.16.03-9.24M460.28 675c-4.08 3.43-8 6.9-5.88 13.22 1.25-1.5 2.13-3.3 3.56-4.14 3.72-2.2 4.22-5.06 2.63-8.7q-.12-.19-.31-.38m2.69 33.8-3.51-8.62-.7-.17-3.2 11.46zm51.23 295.68c1.86-1.76 6.06-1.66 4.14-6.24l-7.9 1.22zm-44.03-331.09c-.74-.7-1.43-1.3-2.05-1.95-.65-.72-1.23-1.5-1.83-2.25-3.74 2.85-3.82 4.38-.49 8zM451.93 33.53c3.6-.47 6.9-.68 10.07-1.42 1.08-.26 1.84-1.87 3.23-3.39-5.98-.57-9.52 1.94-13.3 4.8m19.99 670.7-5.58-7.38c-1.77.92-.85 5.8 2.11 9.37zm.57-11.2-2.31 1.56 4.93 7.84 2.56-1.75zm21.05-12.86c-3.26 1.92-3 5.46 1.13 8.92l2.1-1.53zm-7.5 6.47-3.95 2.6q1.5 2.34 2.73 4.31l3.99-2.16zm18.18 222.8c-1.3 2.25-1.4 2.33.97 5.11.6.72 2.1.67 3.19.98-.05-1.14.34-2.64-.25-3.33-.98-1.19-2.57-1.87-3.9-2.77m120.09-795.06c2.64-.83 2.8-1.08 2.79-4.57-.01-2.37-.2-4.66-2.79-5.96zm-92.66 70.62-1.28-.9c-1.17 1.05-2.9 1.91-3.34 3.22-.4 1.14.64 2.78 1.04 4.2l1.6-.04zm96.07-6.43c-2.7-.9-6.19 1.07-7.41 3.93q3.42 1.06 7.41-3.93M589.12 80.5c.91-2.14 5.08.64 4.54-3.2-.11-.86-1.48-2.32-1.99-2.2-2.75.58-3 2.81-2.55 5.4m-95.37 238.55c.59 1.45.93 2.73 1.61 3.78.36.54 1.35.9 2.04.9.4 0 .95-.84 1.18-1.41 1.09-2.7.03-3.49-4.83-3.27m-31.56 5.65h-1.43c0 2.13-.12 4.28.09 6.39.05.53 1.2.95 1.83 1.42.34-.62 1.06-1.3.96-1.84-.34-2-.95-3.98-1.46-5.96zm170.28-116.66c.65-4.72-1.46-6.61-5.64-6.54zM488.35 684.43c-2.09 1.06-.56 2.7.17 4.01.85 1.55 2.1 2.84 4.44 2.17zM454.8 836.91c-2.6.73-4.04 2.16-3.45 4.86.2.86.7 1.66 1.24 2.9zm37.13 86.08c-1.9-1.67-2.52-1.4-4.68 2.09 2.06 1.04 2.7.75 4.68-2.1m140.76-803.66c-1.93-3.49-3.73-3.72-5.64-.66zm-70.53-41.55 1 .81c1.12-1.27 2.28-2.52 3.34-3.83.2-.25.03-.8.03-1.2-.43.04-1.06-.09-1.26.15-1.1 1.3-2.09 2.7-3.11 4.07m-85.13 236.36-1.3-5.83c-2.33 2.56-1.38 4.4 1.3 5.83m-8.6 443.8-1.32-.22c-1.08 1.5-2.44 2.96 0 5.79z"/><path fill="#000" d="M403.76 601.01c3.62 1.14 4.63 3.92 5.5 6.78 3.3 10.77 6.48 21.57 9.9 32.3 1.44 4.57 3.4 8.97 5.06 13.47.33.9.44 1.9.64 2.86l-.93.47c-.85-1.02-1.87-1.93-2.51-3.07-8.4-14.7-13.68-30.59-17.6-46.97-.42-1.75-.06-3.67-.06-5.84"/><path fill="#fff" d="m496.66 289.82.29-.07-3.3 7.36 8.88 4.89-.54.99-9.08-4.38c-.75 1.58-1.83 3.19-2.22 4.95-.36 1.66-1.56 3.74.86 5.1 2.53 1.42 5.98 1.45 7.58-.23 3.04-3.2 5.98-6.47 8.96-9.7v-.07c-.38 1.27-.46 2.78-1.2 3.78-1.94 2.6-4.23 4.93-6.28 7.44-1.72 2.12-5.44 2.01-7.93.92-2.7-1.18-4.56-3.36-3.51-6.2 1.8-4.88 4.26-9.52 6.48-14.25.13-.27.66-.36 1-.53zm-13.5 148.85c5.07-17.29 10.7-34.38 18.43-50.77l-1.73 5.02-1.73 5.09-14.1 40.66c-.05.14-.31.22-.47.32zM462.2 324.72c.51 1.98 1.12 3.95 1.47 5.96.09.55-.62 1.22-.96 1.84-.65-.47-1.8-.89-1.84-1.42-.22-2.11-.09-4.26-.09-6.4l1.43.01zm170.3-116.67-5.64-6.53c4.17-.08 6.28 1.82 5.63 6.53M396.53 95.14c-.68-2.65-1.4-5.32.65-7.75 2.22 1.44 2.1 2.77-.66 7.68zm95.4 827.85c-1.98 2.84-2.63 3.14-4.68 2.1 2.15-3.5 2.78-3.77 4.68-2.1m140.76-803.66-5.64-.66c1.91-3.06 3.71-2.83 5.64.66m-70.52-41.56c1.02-1.37 2.01-2.76 3.11-4.07.2-.24.83-.11 1.26-.15 0 .41.17.95-.03 1.2-1.06 1.31-2.22 2.56-3.35 3.83zm-93.74 680.17c-.39 1.6-.76 3.21-1.32 5.57-2.43-2.83-1.08-4.3 0-5.8zm-2.14-389.57 1.87 6.73-.5.5-1.99-7.2q.3-.03.62-.03m-3.1-9.26.56-.69 1.21.18c.1 1.03 1.33 2.6-1.15 2.38z"/><path fill="#fff" d="m468.16 375.1 1.45 4.16-.41.36-1.54-4.03zm15.4 63.9-.26 1.8-.48-.06.34-2.06q.2.14.4.32"/><path fill="#fff" d="m469.61 379.26.47 1.96-.52.13-.37-1.73zm38.5-80.53.6.29-.16.21-.44-.55z"/><path fill="#000" d="M562.24 506.3c-7.68-11.48-24.4-61.2-23.07-67.49 1.03 1.45 1.97 2.33 2.37 3.42 3.2 8.63 6.5 17.23 9.35 25.98 3.8 11.66 7.23 23.44 10.8 35.18.28.94.36 1.94.54 2.91m28.67-60.38c-7.36-5.93-28-57.12-24.98-63.18 1.37 2.13 2.84 3.72 3.53 5.6 3.65 9.98 6.96 20.09 10.65 30.05 3.04 8.2 6.43 16.24 9.66 24.36.35.89.65 1.8 1.14 3.17m.6-179.83c3.5-6.4 25.49-16.9 30.96-14.93-10.7 4.2-19.64 11.27-30.96 14.93m-41.8 10.1-3.88 6.53c-1.67-2.79-.15-5.27 3.92-6.45zm-70.1 521.66c.96-3.74 1.72-7.55 3-11.18.34-.96 2.25-1.37 3.44-2.04.4 1.1 1.15 2.22 1.13 3.31a218 218 0 0 1-.64 14.08 6 6 0 0 1-1.6 3.36c-.72.72-2.24 1.37-3.05 1.07-.74-.27-1.27-1.83-1.4-2.87-.22-1.82-.06-3.7-.06-5.54l-.8-.2zm-15.28 3.53c0 1.64.3 3.37-.1 4.89-.3 1.07-1.59 1.87-2.43 2.8-.77-.78-2.08-1.47-2.23-2.36-.84-4.89-1.39-9.81-2.06-14.72-.28-2.01.72-3.15 2.37-4.06 1.79-.97 3.01-.74 3.31 1.37.56 4 .97 8.03 1.44 12.05zm9.17 5.76c-3.28-2.75-4.96-18.7-2.47-22.43 3.93 7.45 2.52 15.02 2.47 22.43m52.95 41.46c-1.5 2.15-2.74 4.38-4.49 6.1-.48.47-3.02-.17-3.65-1.01-1.85-2.48-.4-5.22.89-7.3.82-1.31 3.13-2.01 4.88-2.24.5-.07 1.35 2.45 2.37 4.45m-8.03-30.84c2.59 1.4 4.88 2.66 7.27 3.97-4.19 1.2-7.43-.27-7.27-3.97m-21.9-656.7c2.18-2.08 4.27-4.26 6.55-6.22a264 264 0 0 1 9.75-7.88c.83-.63 1.92-.92 2.9-1.37l-.06-.07c-1.09 1.43-1.95 3.12-3.28 4.25a341 341 0 0 1-13.12 10.5c-.72.55-1.89.5-2.84.74z"/><path fill="#000" d="m496.42 161 .13.43-.4-.03.36-.35zm19.28-15.42.45-.44.08.27-.58.1zm-110.2 885.05 1.56-.22c1.33-.12 2.64-.31 3.97-.36 11.7-.43 23.41-.96 35.12-1.21 9.22-.2 18.45-.04 26.51-.04-2.19.3-5.57.94-8.98 1.2-7.06.53-14.12.83-21.19 1.3-8.68.58-17.35 1.27-26.03 1.8-2.99.19-6 .2-8.97-.07-.73-.07-1.33-1.56-2-2.4m95.95 1.24c5.65-6.04 11.27-12.14 18.49-16.44-5.3 6.42-11.54 11.81-18.1 16.88zm175.88-65.27c5.27.68 11.22 1.27 17.1 2.3 1.6.28 2.98 1.86 4.46 2.85-1.62.44-3.22 1.19-4.86 1.26-6.72.3-13.45.65-20.16.46-2.28-.06-4.55-1.54-6.73-2.56-.38-.18-.62-1.43-.4-1.95a2.7 2.7 0 0 1 1.73-1.38c2.7-.41 5.42-.62 8.85-.98zm-3.08 16.75c-.3-5.05-.07-5.46 4.66-5.26 5.88.26 11.75.73 17.61 1.31 1 .1 1.88 1.24 3.2 2.17-5.7 2.45-18.33 3.2-25.48 1.77zm-3.87 15.13c.44-3.03 2.33-4.35 4.6-4.9 5.66-1.38 11.36-2.56 17.06-3.75 2.75-.58 5.54-.98 9.33-1.63-1.17 1.41-1.61 2.48-2.32 2.7q-12.45 3.9-24.97 7.54c-1.04.3-2.23.04-3.71.04zm3.71 8.84c.3-4.04 3.22-4.83 5.4-4.94 8.43-.45 16.92-.82 25.16 1.8.16.05.25.3.99 1.23zM495.1 955.38c3.18 1.3 4.08 3.41 3.92 5.92-.3 4.58-.7 9.16-1.33 13.7a71 71 0 0 1-3.11 12.94c-.39-1.02-1.12-2.03-1.1-3.04q.17-12.14.6-24.26c.07-1.64.62-3.26 1.02-5.25zm-12.55-836.94c.92-3.24 1.77-6.28 2.68-9.3.08-.29.54-.56.88-.67 3.88-1.19 10.03 1.8 11.4 5.57.62 1.69.42 2.96-1.87 3.13-4.17.31-8.31.8-13.1 1.27m-1.11-9.22c-.35 3.1-.56 5.69-.98 8.25-.13.74-1.04 2.02-1.27 1.95-1.09-.32-2.58-.78-2.98-1.63-1.04-2.2-1.26-4.56 1.32-6.14zM459.2 841.1c1.35.22 3.24 0 3.89.78.74.9.36 2.72.51 4.63l-4.87-4.19z"/></svg>