<svg xmlns="http://www.w3.org/2000/svg" width="1080" height="1080" fill="none" viewBox="0 0 1080 1080"><path fill="#fff" d="M481.05 48.8c-.1 2.62 1.63 2.48 3.48 2.52 3.36.08 6.88-.2 10.04.7 7.75 2.2 15.62 3.5 23.5 5a82 82 0 0 1 36.32 16.74c5.65 4.53 10.85 9.65 16.06 14.71 2.95 2.87 3.94 6.62 4.13 10.8.36 7.82 1.44 15.62 1.68 23.45.14 4.83.11 9.97-1.39 14.46-1.35 4.05.91 4.51 3.13 5.7 5.14 2.72 5.95 5.24 3.53 11.28-3.35 8.37-7.03 16.63-9.96 25.14-1.75 5.1-6.07 5.25-9.94 7.39-.87.48-5.19-.37-6.4-.98-5.54-2.8-8.56-4.6-14.76-4.44-1.6.04-1.52 1.42-3.71 1.24-2.35 8.13-7.82 16.5-8.88 25.04-.8 6.54 1.59 13.57 4.52 20.03 3.79 8.34 5.59 17.02 9.35 25.38 3.75 8.34 7.62 16.67 12.07 24.65 6.98 12.53 14.45 24.8 21.83 37.1 1.18 2 2.92 3.66 4.42 5.47 4.25 5.16 6.3 11.48 7.87 17.7 1.51 6.04 1.84 12.47 1.95 18.74.17 9.04-.45 18.07-.47 27.1 0 3.74.81 7.47.98 11.22.08 1.72-.39 3.52-.84 5.22-1.49 5.58-2.2 11.2-.7 16.85.32 1.2 1.94 2.07 3.24 3.35-.41.77 2.62 2.03 1.9 3.36 6.4 8.94 11.71 18.1 18.3 27.27.5.72 1.07 1.67 1.81 1.91 3.7 1.2 3.34 3.99 4.84 7.23 1.79 3.88 3.25 7.92 4.82 11.9 2.35 5.94 2.57 12-.03 17.83-1.87 4.2-.05 7.08 2.86 10.87 4.86 6.32 7.38 13.48 11.49 20.36 4.33 7.24 8.03 14.92 12.95 21.74a62 62 0 0 0 15.39 14.92c2.35 1.56 4.1 4.16 5.8 6.52 1.64 2.26-.59 4.59-2.57 5.94-1.97 1.35-4.08 4.05-6.96.8-.32 2-.63 3.64-.85 5.28-.64 4.83-3.66 7.87-8.37 8.56-5.06.73-10.08 1.8-15.17 2.25-2.34.22-5.01-.18-7.11-1.18-3.72-1.76-8.23-2.63-10.22-6.93-2.2-4.78-4.5-9.54-6.37-14.46-1.86-4.94-3.21-10.08-4.83-15.12-.16-.5-.5-1.07-.92-1.36-3.91-2.7-7.86-5.35-12.1-8.2-2.52 2.24-5.05 5.14-8.17 7.09-2.61 1.63-5.85 2.55-8.93 3.12-7.82 1.45-15.56 1.16-23.06-2.02-1.9-.8-4.16-.97-6.26-.95-11.9.11-23.82.27-35.72.63-6.72.2-13.44.57-20.12 1.23-8.05.8-16.05 2.18-24.1 2.98-7.2.72-14.52 1.8-21.67 1.21-6.48-.52-12.6-3.3-18.2-7.18-4.38-3.05-6.16-7.81-9.3-11.64-2.1-2.54-.34-5.52.62-8.05 2.04-5.36 2.2-10.44-.13-15.83a87 87 0 0 1-4.81-14.69c-.47-2.03.37-4.63 1.27-6.69 2.86-6.56 6.03-13 9.24-19.82-5.35 0-10.42-.21-15.46.07-3.92.21-7.8.95-11.68 1.64-.98.18-2.51.95-2.63 1.65-1.19 6.8-5.93 9.77-12 10.48-5.37.63-10.99.9-16.27.01-4.22-.72-8.1-3.37-10.52-7.48s-4.97-8.17-7.65-12.1c-3.35-4.9-.72-18.6 5.72-21.2 3.74-1.52 5.65-4.58 5.49-8.98-.17-4.62-.27-9.37.58-13.87.62-3.28 2.82-6.26 4.45-9.67-1.46-.43-2.84-.64-4.06-1.2-8.14-3.77-10.34-8.42-9.98-18.62.48-13.45 3.68-26.36 7.05-39.24 1.06-4.07 3.5-7.77 5.18-11.69 1.57-3.65 4.74-5.43 8.08-6.77a10 10 0 0 0 5.77-5.92c1.39-3.47 2.82-6.92 4.07-9.97l-4.83-1.3-.03-1.24q3.32-1.6 6.63-3.23c2.03-1 2.84-2.27 1.04-4.26-1.31-1.45-.87-3.08-.85-4.92.07-6.8-.55-13.6-.93-20.39q-.31-5.64-.72-11.29c-.4-5.48-.98-10.95-1.15-16.44-.06-2.02-1.02-4.9.24-5.84 1.24-.93 4.21-5.4 5.91-4.53 1.24.63 3.09 7.78 3.57 9.41a65 65 0 0 1 1.92 8.54c1.03 6.69 1.74 13.43 2.83 20.11 1.07 6.55 2.44 13.04 3.88 20.62 1.54-1.7 3-2.84 3.83-4.33 2.28-4.1 4.18-8.4 6.45-12.5 1.6-2.9 3.36-5.77 7.16-6.45.72-.13 1.57-1.35 1.79-2.2 1.92-7.57 4.55-14.77 9.42-21.02 1.06-1.35-.16-3.29-2.12-3.89-3.15-.97-6.36-1.85-9.39-3.13-1.14-.48-2.44-1.87-2.65-3.03-.54-3.1-.37-6.32-.78-9.45-.3-2.32 2.37-7.46 3.84-8.18 4.55-2.22 7.95-.72 12.79-2.1 3.88-1.1 8.1-.99 12.48-1.44.18-.59.47-1.75.91-2.85 1.39-3.5-.51-6.66-4.27-6.31-7.87.73-14.8-1.4-21.33-5.6-3.1-2-4.47-4.82-4.97-8.23-.3-2.05 2.4-5.29 4.48-5.4 4.94-.26 8-2.14 9.62-7.42 2.42-7.82 6.51-15.12 8.95-22.93 2.8-9 4.56-18.35 4.07-27.86-.27-5.34-1.7-10.62-2.06-15.96-.62-9.03-2.9-18.28 1-27.04 1.83-4.1 4.5-7.91 7.23-11.51 4.48-5.9 9.04-11.8 14.1-17.2 5.54-5.9 11.7-11.21 17.58-16.79zM380.79 459.48c-1.9-2.09-3.18-3.84-4.81-5.16-.87-.7-2.77-.25-3.46-1-1.73-1.9-4.99-1.54-6.1-4.3-.09-.2-2.17-.02-2.82.55-.91.83-1.44 2.13-2 3.3-3.06 6.47.01 11.76 3.08 17.23 3.5 6.24 9.43 7.77 15.64 8.14 5.8.35 9.55-4.25 9.71-10.7.15-5.95-4.55-9.57-9.23-8.06zM376.45 1036c-4.02-.62-8.03-1.66-12.06-1.77a54 54 0 0 1-23.97-6.35c-5.22-2.73-9.94-1.49-14.6.97-4.58 2.41-8.97 2.77-13.88.75-7-2.88-14.25-5.19-21.36-7.82-2.18-.8-3.48-2.15-2.05-4.7 5.04-8.98 7.1-19.05 9.6-28.83 2.37-9.24 4.6-18.46 8.42-27.2 1.5-3.4 3.46-6.6 5.28-9.85 1.41-2.53 4-2.5 6.3-2.26.74.07 1.3 2.04 2.24 3.67 1.33-.23 3.18-.6 5.05-.85 1.08-.15 2.25-.36 3.28-.12 5.23 1.24 10.46 2.46 15.6 4 2.65.8 5.3 2 7.54 3.59.98.7.93 2.85 1.34 4.34l-.81.32c1.03.57 2.24.95 3.04 1.75 1.16 1.15 2.13 2.22 1.43 4.47-1.19 3.77-1.52 7.81-2.22 11.77l7.7-.45c-1.4 2.78 1.43-1.64 3.61-1.12 2.36.57 3.08 6.76 4.95 8.45 5.1 4.61 9.59 10 15.05 14.12 7.43 5.61 15.22 10.91 24.4 13.5 3.97 1.13 8.04 1.9 12.02 3.04 1.99.57 3.86 1.59 5.77 2.45.22.1.34.48.5.74 1.43 2.45-.69 9.36-3.39 10.24-3.82 1.25-7.76 2.13-11.65 3.16h-3.71c-.19-.18-.36-.51-.56-.53-3.93-.26-7.86-.58-11.8-.65-1.03-.02-2.07.76-3.1 1.18zm477.82-110.79c-.51 1.64-.76 3.43-1.56 4.9-4.16 7.64-10.22 13.69-16.8 19.16-7.64 6.35-15.57 12.35-23.36 18.51-6.83 5.4-13.72 10.75-20.4 16.33-1.55 1.28-2.4 3.4-3.52 5.19-2.71 4.34-7.2 6.34-11.56 8.27a233 233 0 0 1-19 7.45c-2.23.76-4.9.7-7.3.38-2.37-.33-3.81-2.18-4.93-4.41-5.1-10.18-10.42-20.25-15.52-30.43-2.38-4.76-4.45-9.69-6.88-15.04 1.29.11 2.33.21 3.82.36 1.02-2.52 2.2-5.44 3.13-7.78h7.85c.77-3.2 1.77-6.1 6.16-5.72 1.33.11 2.77-1.2 4.73-2.14 1.07-2.25 1.36-6.15 5.9-6.56.47-.04.99-.76 1.28-1.28.75-1.32.99-3.72 3.18-1.21.57-.51 1.26-.94 1.67-1.56.3-.46.1-1.25.38-1.74 2.53-4.22 2.86-4.16 6.51-.74 3.43 3.2 6.89 6.43 10.67 9.17 3.9 2.82 8.42 2.62 12.85 1.12 5.12-1.72 10.17-3.64 15.32-5.25 3.52-1.09 7.3-1.41 10.72-2.73 7.47-2.86 14.7-6.34 22.18-9.15a26 26 0 0 1 9.98-1.66c1.56.08 3 2.65 4.48 4.09v2.47zm-305.7-344.74c1.45.87 2.4 1.47 3.38 2.02.5.29 1.1.42 1.52.77.73.6 5.2 3.48 5.9 3.67-1.18 2.32-2.32 4.66-3.57 6.95-.55 1.02-.52 1.27.47 2.28.93.94.93 3.73.23 5.16-3.5 7.1-7.4 14-11.1 21-1.4 2.65-2.64 5.37-3.96 8.06-.73 1.46-1.6 2.87-2.14 4.4-.55 1.53-.34 3.39-2.86 3.45-.54.01-1.4 1.71-1.45 2.67-.09 1.9.33 3.81.45 5.72.05.8.17 2.15-.22 2.34-2.19 1.14-1.44 2.97-1.42 4.68.02 2.13.34 4.3-2.55 5.23-.88.29-1.27 2-1.93 3.03-.51.8-1.1 1.54-2 2.8l-12.84-20.91.86-.66 3.28 1.51c-1.25-5.94.72-9.21 4.65-7.98.57-4.04 1.25-8.1 1.65-12.18.31-3.12 1.3-5.74 4.2-7.2 3.37-1.67 3.28-5.22 4.55-8a485 485 0 0 0 6.98-16.23c.94-2.28 1.12-4.98 2.42-7 1.42-2.2 3.73-3.84 5.5-5.58m84.55 289.48a24.7 24.7 0 0 1-12.35-12.36c-1.79-3.75-3.95-7.66-4.31-11.66-.63-6.95-4.64-12.73-5.58-19.44-.12-.85.24-1.76.38-2.64.88.42 2.2.6 2.56 1.3 3.5 6.68 6.82-.75 10.2 5.99 1.82 3.6 3.69 21.35 5.46 24.96.33.67.4 1.48.52 2.23.19 1.21.16 2.48.5 3.65.74 2.57 1.66 5.09 2.63 7.98zm-234.95-150.5c-1.03 5.4-2.03 10.82-3.1 16.21-.67 3.45-1.1 6.88-5.6 7.9-1.67.38-2.98 2.37-4.44 3.62l-.92-.3c.15-1.91-.15-4.02.54-5.71a272 272 0 0 1 8.46-18.48c.81-1.6 2.86-2.57 4.34-3.82l.72.6zm-7.85 244.51c-2.51-1.8-6.85.28-8.17-4.03 2.82-4.25 7.07-4.33 11.76.14l-3.6 3.89"/><path fill="#000" d="M491.57 42c2.72.42 5.43.9 8.16 1.23a118 118 0 0 1 32.5 8.71c3.6 1.53 6.84 3.9 10.45 5.42 2.9 1.23 6.31 1.3 9.1 2.7 4.84 2.4 9.44 5.33 14 8.24 3.23 2.07 4.4 5.25 3.75 9.02-.25 1.5.35 2.28 1.55 3.12 9.24 6.38 13.87 15.7 16.4 26.28.3 1.27.38 2.59.65 3.86 1.7 8.22-3.92 12.23-9.3 16.45a6 6 0 0 0-1.9 2.98c-.58 2.01-.85 4.13-1.18 6.2-.3 1.88.13 3.2 2.23 4 3.03 1.15 6.17 2.45 7.39 5.88.35.98.64 2.66.12 3.18-3.42 3.37-3.34 8.03-4.85 12.1-2.12 5.7-4.6 11.27-6.75 16.96-2.19 5.75-7.24 7.69-12.4 8.93-2.44.59-5.34-.53-7.99-1.08-5.09-1.08-10.14-2.3-15.27-3.48l-2.99 5.04c2.57.97 1.95 2.28 1 4.43a78 78 0 0 0-4.9 14.4c-.5 2.25.7 4.9 1.28 7.35a629 629 0 0 0 4.19 16.88c.27 1.02 1.25 1.83 1.75 2.82 7.25 14.26 14.35 28.6 21.76 42.78 4.22 8.09 9.08 15.85 13.44 23.87a1536 1536 0 0 1 20.4 38.37c.85 1.68-.23 4.39-.52 6.6-.56 4.3-1.5 8.57-1.75 12.9-.44 7.38-.45 14.79-.7 22.18-.07 1.82-.61 3.62-.53 5.42.08 1.82.9 3.6.95 5.41.07 2.6-.25 5.21-.41 7.81l-.9 14.72c1.5 1.49 3.05 2.58 4 4.08 7.78 12.1 15.44 24.28 23.22 36.56.56.4 1.82.84 2.36 1.72 1.91 3.16 3.44 6.57 5.42 9.68 1.2 1.88 3.2 3.25 4.44 5.12 2.2 3.3 1.58 6.71.09 10.23-1.03 2.43-1.44 5.12-2.1 7.7-.06.19.07.48-.03.6-2.7 3.3-.66 5.7 1.1 8.58 2.55 4.16 4.44 8.72 6.6 13.12 1.28 2.63 2.33 5.05 5.79 6.06 2.73.8 3.2 4.14 3.2 6.89-.02 2.63.55 4.44 2.71 6.48 4.55 4.28 8.42 9.27 12.47 14.07 5.12 6.05 10.04 12.27 15.26 18.24 1.8 2.04 2.06 3.72.43 5.77-2.35 2.98-4.25 6.59-8.93 6.38-.41-.02-.97.63-1.25 1.09-.45.77-.73 1.64-1.08 2.47-3.55 8.3-10.78 12.44-18.85 13.39a35.3 35.3 0 0 1-22.1-4.76c-2.31-1.39-3.65-4.56-5.2-7.06-1.12-1.83-1.84-3.9-2.84-6.08l1.09-1.45c-1.9-.29-3.93-.06-5.18-.93-1.21-.85-1.97-2.75-2.34-4.33-1.22-5.3-2.17-10.67-3.3-16.42-4.2-1.3-5.12-6.45-8.09-9.35l-5.51 6.95a265 265 0 0 1 27.84 58.93c4.37 13.19 7.45 26.83 10.59 40.4 3.88 16.83 7 33.84 13.68 49.9a96 96 0 0 0 13.67 23.14c8.37 10.47 13.53 22.58 17.97 35.09a412 412 0 0 0 9 23.13c2.92 6.9 6.4 13.55 9.42 20.41 2.1 4.8 3.64 9.84 5.78 14.6 2.6 5.84 5.02 11.87 8.5 17.18a2084 2084 0 0 0 33.9 50.09c7.98 11.44 16.41 22.55 24.73 33.75 2.43 3.27 5.16 6.32 7.81 9.54l-46.18 32.13c4.19 2.27 6.88 6.73 8.87 11.69.77 1.91 1.38 3.12 3.93 2.07 3.88-1.6 7.94-2.72 11.96-3.96 2.07-.65 2.37-2.4 3.23-4.06 2.73-5.25 5.8-10.31 8.87-15.38 1.1-1.82 2.55-3.44 3.88-5.12 1.98-2.5 4.32-4.33 7.79-3.89.01 1.43.52 3.1-.05 4.24a433 433 0 0 1-9.92 18.82c-2.79 5-6.82 8.69-12.4 10.48-4.87 1.57-9.73 3.19-14.28 4.68l12.24 27.9 36.56-15.59c-1.78-3-1.01-6.08 2.16-8.64 8.6-6.99 17.14-14.05 25.83-20.93 9.4-7.44 19-14.63 28.39-22.1 4-3.17 8.6-6.18 7.65-12.51-.1-.62.34-1.32.54-2.03-2.88-1.5-5.18-1.57-8.32.16a246 246 0 0 1-25.15 12.12c-10.56 4.34-21.5 7.55-33.15 7.23-3.98-.1-7.58-.91-10.13-4.3-.75-2.7-1.67-.47-2.53-.07q-1.46-1.96 3.16-4.6c1.6.47 2.56 1.04 3.49.98 17.76-1.1 34.32-6.72 50.64-13.35 4.6-1.87 9.3-3.6 14.06-4.97 1.81-.52 3.96.04 5.94.3 1.92.25 3.02 2.75 5.62 1.85.62-.22 2.1 2 3.19 3.1v.63c-.83 2.4-1.62 4.82-2.5 7.21-1.33 3.67-1.8 7.74-5.03 10.55-4.57 3.96-8.85 8.29-13.62 11.99-13.21 10.27-26.64 20.24-39.88 30.48-1.49 1.15-2.6 3.08-3.3 4.88-1.94 5.14-3.75 10.23-10.25 11.14-.56.08-1.04.6-1.58.86-9.2 4.38-18.27 9.07-28.4 11.1-3.55.72-5.77.15-7.76-2.8-4.17-6.19-8.6-12.22-12.31-18.68-2.36-4.11-4.68-8.78-5-13.34-.24-3.4-1.66-5.33-3.21-7.73a42 42 0 0 1-3.21-6.32c-.33-.77-.05-1.79-.05-2.67-5.14 1.66-9.74 3.48-14.52 4.57-4.93 1.14-10.07 1.41-15.06 2.34-7.71 1.44-15.37 3.17-23.08 4.63-1.3.24-3.08.92-3.78-1.38-.65-2.15-1.65-4.18-2.41-6.3-3.6-9.95-6.5-20.2-10.89-29.78-5.4-11.77-12.06-22.97-18.13-34.45-3.96-7.5-8.88-14.55-10.3-23.22-1.86-11.28-3.93-22.52-5.9-33.77q-.83-4.82-1.63-9.63l-1.07.15 2.8 26.22c-1.86-2.33-3.33-4.5-5.13-6.35-5.1-5.29-10.75-10.1-15.45-15.72-12.83-15.33-22.28-32.8-29.99-51.1-7.77-18.43-14.6-37.26-21.84-55.91-1-2.55-1.42-4.93 1.74-6.02-5.22-12.88-10.25-25.55-15.5-38.12-3.94-9.45-8.22-18.75-12.22-28.17a5.2 5.2 0 0 1-.05-3.62c1.53-3.7 3.33-7.26 5.05-10.87l21.86-46.06c.42-.9.63-1.9.93-2.86a2.7 2.7 0 0 0-1.38 1.4c-4.5 9.05-8.85 18.18-13.56 27.12-4.39 8.34-9.09 16.51-13.77 24.7-1.93 3.37-5.1 5.79-6.74 9.56-2.86 6.6-6.6 12.8-9.67 19.33-6.7 14.19-13.89 28.2-19.61 42.79-4.45 11.32-6.96 23.38-11.93 34.6-9.83 22.2-19.44 44.5-29.24 66.73-4.13 9.35-8.54 18.58-12.75 27.9-8.2 18.13-14.69 36.9-20.69 55.84-2.55 8.04-4.92 16.18-8.1 23.98-2.5 6.1-2.9 12.5-4.28 18.76a157 157 0 0 1-4.29 16.18c-.46 1.38-2.96 3.16-4.22 2.94-1.9-.32-2.97.45-4.36 1.08-1.8.83-3.62 1.85-5.53 2.23-6.32 1.22-12.7 2.2-19.16 3.28l-1.03 6.39 9.68-.48c-1.35 3.08 1.02 4.06 2.47 5.5 10 10.03 21.12 18.46 34.1 24.4 8.23 3.77 16.25 8.01 24.34 12.12 3.33 1.69 4.97 6.74 3.41 10.36-.43 1-1.22 1.85-1.88 2.81 1.57.67 4.09 1.04 2.93 4l-2.37.97h-6.2c-.48-.21-.97-.6-1.46-.6q-10.44-.05-20.9.01c-.8 0-1.6.38-2.39.59h-14.85c-.32-.19-.62-.55-.94-.58-9.05-.65-18.13-.88-27.11-2.02-6.55-.83-12.94-2.84-19.4-4.33-1.12-.26-2.3-.95-3.34-.77-2.76.47-5.44 1.4-8.19 1.94-3.26.64-6.72 1.93-9.82 1.38a107 107 0 0 1-17.9-5.01c-5.96-2.18-12.02-4.45-16.66-9.17v-1.24h2.61c.6-5.03.7-9.78 1.82-14.27a366 366 0 0 1 7.58-25.62c.49-1.46 2.76-2.34 4.22-3.48.55-.43 1.55-.73 1.65-1.23 1.36-6.32 2.59-12.67 3.89-19.18-1.4-1.43-3.17-3.14-4.83-4.94-1.56-1.7-3.76-3.43-.26-5.44.35-.2.49-.88.6-1.36 1.68-7.33 3.29-14.67 5-21.99 3.82-16.22 7.38-32.51 11.62-48.62 3.45-13.06 7.77-25.9 11.63-38.85 3.3-11.02 6.3-22.21 12.32-32.1a1157 1157 0 0 1 24.52-38.2c4.3-6.46 8.98-12.72 13.9-18.73 4.41-5.4 9.4-10.3 14.08-15.47 1.91-2.11 3.67-4.36 5.5-6.55l-.57-.52-8.47 7.38-.4-.54c.23-.67.56-1.32.67-2 1.05-6.57 2.12-13.14 3.07-19.72.53-3.7 1.38-7.18 4.5-9.63q6-4.7 11.91-9.49c.69-.55 1.57-1.43 1.57-2.16 0-2.53-.45-5.06-.54-7.6-.11-3.07-.03-6.14-.03-9.16l2.52-.55c-.24-2.33-.64-4.45-.64-6.57q.01-6.86.4-13.72c.6-10.4.95-20.85 2.1-31.2a381 381 0 0 1 4.95-31.69c2.05-10.38 4.76-20.63 7.35-30.89 1.67-6.63 1.76-6.5-4.56-9.98-3.07-1.68-7.07-2.72-6.7-7.6.04-.5-.8-1.13-1.32-1.6-2.02-1.85-2.22-4.05-1.19-6.4 2-4.6 4.18-9.12 6.1-13.75.4-.97.43-2.67-.15-3.37-1.29-1.51-3.26-2.43-4.62-3.9-2.26-2.44-5.02-5.18-4.14-8.67a48 48 0 0 1 5.01-12.07c2.54-4.39 5.82-8.33 8.6-12.23-5.31-.52-10.72-.89-16.07-1.65-2.61-.37-3.72.4-4.62 2.95-.88 2.48-2.1 5.34-4.07 6.85-7.8 5.98-16.77 6.97-26.31 5.29s-16.26-7.53-22.29-14.4c-3.56-4.05-6.15-8.98-5.89-14.4.42-8.51 4.58-15.34 11.53-20.38 1.62-1.17 4.23-1.95 4.72-3.45.54-1.64-1.01-3.9-1.35-5.93-1.66-10.02-3.87-7.82 6-14.32q2.4-1.57 4.8-3.11l-.43-.86-6.1 2.47c.27-.46.65-1.1 1.02-1.76-1.72-.5-3.36-.9-4.94-1.47-6.32-2.28-10.86-8.52-10.37-14.98a285 285 0 0 1 2.5-22.1 586 586 0 0 1 4.9-26.51c1.12-5.49 2.51-11.16 7.73-14.23 3.33-1.96 7.28-2.87 11.26-4.37l4.31-10.58c-.67 0-1.32.14-1.88-.03-1.35-.42-2.66-.99-3.98-1.49.5-1 .75-2.38 1.55-2.91 2.75-1.81 5.7-3.32 8.31-4.8-.63-4.31-1.5-8.84-1.92-13.42-.95-10.24-1.65-20.51-2.53-30.75-.34-3.95-.68-7.92-1.36-11.81-.82-4.66-.15-6.8 3.2-9.17l-.72-7.2 1-.39c1.1 1.58 2.15 3.19 3.31 4.72.48.64 1.12 1.55 1.76 1.63 5.31.62 7.25 2.4 8.9 9 2.9 11.63 4.71 23.4 5.04 35.42.11 3.74 1.14 7.46 1.83 11.73.86-1.06 1.45-1.54 1.72-2.16 1.54-3.6 2.95-7.26 4.49-10.86 1.8-4.25 3.4-8.81 7.68-11.17 2.42-1.33 3.04-2.84 2.8-5.3-.54-5.68 1.83-10.18 6.46-14.37-4.05-.82-7.67-1.9-11.36-2.21-2.42-.2-3.21-1.01-3.18-3.23.05-3.71.39-7.47-.08-11.12-.64-5.05 2-7.99 5.6-10.56 6.25-4.48 13.62-5.23 20.93-6.15q1.56-.21 3.13-.45l-.03-.87c-.96-.18-1.91-.49-2.87-.5-2.8-.07-5.62.2-8.4-.07-9.99-.96-16.73-6.4-20.76-15.45-1-2.25-2-4.52-3.17-6.7-.51-.96-1.42-1.7-2.43-2.87h27.53l-7.67-1.03c0-.67-.07-1 .02-1.3 3.13-10.87 6.31-21.73 9.42-32.62.84-2.95 2.12-5.65 1.33-9.09a343 343 0 0 1-4.53-24.66c-.82-5.32-1.04-10.73-1.56-16.1-.7-7.22.16-14.3 1.72-21.27h4.13l-.53-2.92c1.1-.53 1.79-1.27 1.9-2.09.39-2.95.97-5.7 3.83-7.35 1.1-.63 2.3-1.22 3.2-2.08 6.37-6.06 12.47-12.43 19.05-18.25 5.88-5.2 12.23-9.88 20.18-11.6 1.85-.4 3.72-.66 5.58-.98zm-21.59 18.64.84-1.1q-.2-.2-.4-.37l-1.05 1.16-.4.5-1 1.52-.64.6-1.26 1.57.46.36 1.45-1.64a.8.8 0 0 0 .37-.46l1-1.53zm-85.74 367.7-2.75-4.49v5.36l.4.05.26-2.14 1.66 1.78 2.08 3.01 1.07-.38-.73-6.67-.61.05.71 6.08zm150.1-321.9c7.48-4.7 14.8-9.6 20.23-16.73-1.87 1.07-3.4 2.53-5.06 3.85Q541.67 99.8 533.8 106l-2.83 1.93.43.6zm-166.98 255.1c-.37-.72-1.1-1.48-1.03-2.14.36-3 .9-5.98 1.47-8.96.3-1.5.77-2.98 1.16-4.47l.5.1.35 2.53 3.98-.34.92-14.55c-6.44 2.33-10.47 6.62-11.85 13.1a687 687 0 0 0-5.54 28.01c-1.16 6.86-1.66 13.85-2.57 20.76-.34 2.56.91 4.27 2.88 5.24 4 1.95 8.17 3.57 12.5 5.42v-17.39c-2.99-1.35-7.57-.03-8.76-5.45l9.07 1.76 1.83-8.66-8.3-1.57.01-1.08c1.59-.38 3.17-1.09 4.74-1.05 1.72.04 3.42.77 5.13 1.2v-8.09q-5.54-.5-6.59-4.45l6.57-1.68v-7.22l-4.8-1.67zm238.37 183.13 31.93-16.5c-1.14-3.86-4.87-7.13-3.28-11.84.03-.1-.28-.27-.39-.45l-11.44-18.55-31.7 8.57-.37-1.3c9.45-6.34 20.33-8.38 31.05-9.64-.19-2.07-.65-4.05-.48-5.96.42-4.87 1.5-9.7 1.57-14.56.03-2.22-1.44-4.63-2.7-6.66-1.71-2.74-3.94-5.14-5.78-7.81-.36-.53.02-1.6.1-2.4.07-.67.52-1.56.24-1.97-6.96-10.12-13.9-20.25-21.08-30.22-1.53-2.1-2.5-5.4-6.58-4.7 1.35-7.56-4.76-11.09-8.04-16.08 1.92-2.03 3.27-4.85 6.87-3.21v-9.21c0-1.5.05-2.86 2.22-1.87.3.14.87-.36.85-.34-.86-1.3-2.04-2.36-2.33-3.62-.67-2.94-1.28-5.98-1.27-8.98.05-12.35.34-24.7.54-37.04.01-.9.38-2.01 0-2.68-4-6.82-8.23-13.5-12.17-20.37-7.15-12.46-14.41-24.88-21.12-37.59-5-9.45-9.34-19.24-13.67-29-2.9-6.53-5.33-13.27-7.78-19.98-.36-1 .35-2.4.57-3.61a11 11 0 0 0-2.52-4.4c-4.29-4.73-10.19-6.37-16.02-7.97-4.81-1.3-10.5-.6-13.23-6.33-.25-.52-1.6-.51-2.2-.69.65-4.83-4.6-6.05-5.5-9.7-1.9.9-3.54 1.71-5.23 2.44a16819 16819 0 0 1-37.3 16.07c-1.47.63-2.12 1.53-2.68 3.19-.7 2.05-2.31 4.49-4.16 5.3-2.38 1.03-5.42.46-8.13.86q-7.2 1.03-14.31 2.48c-2.08.42-3.04 1.55-2.36 4.13.88 3.3 1.17 6.77 1.35 10.2.17 2.97 1 4.8 4.4 4.89 1.76.05 3.56.67 5.24 1.3 5.8 2.15 11.56 4.42 17.22 6.6.96-1.6 1.8-2.96 2.6-4.34a128 128 0 0 1 21.9-27.92c2.9-2.8 5.6-6.44 10.22-6.7 2.77-.16 5.62-.35 8.34.1 5.86.95 11.82 1.8 17.45 3.62 6.96 2.26 12.55 6.86 17.33 12.48 5.5 6.45 8.93 13.97 12.08 21.7 3.84 9.46 6.98 19.13 8.79 29.19.4 2.25.06 4.65.06 6.98l-1.37.24c-.99-2-2.17-3.93-2.93-6.02-2.56-7.02-4.9-14.13-7.5-21.13-.64-1.74-2.33-3.09-2.94-4.82-1.12-3.18-1.4-6.7-2.76-9.74-1.3-2.86-1.63-6.23-4.82-8.27a262 262 0 0 1-19.18-13.28c-3.06-2.36-5.35-5.08-9.82-5.36-6.76-.43-13.52-.13-18.26 4.6-5.16 5.16-9.53 11.34-13.18 17.68-4.54 7.86-8.04 16.31-11.84 24.58a10 10 0 0 0-.62 4.68c.2 2.6 1.06 5.18 1.11 7.78.22 10.6-.33 21.23 1.23 31.8.58 3.94.42 7.98.7 11.97.8 11.29 1.72 22.56 2.39 33.86.13 2.15.14 4 2.2 5.23.47.28.89 1.01.93 1.56.27 4.2.2 8.43.71 12.58.68 5.38-.2 11.06 2.79 16.06 2.57-2.03 4.57-4.11 4.02-7.9-.88-6.04-1.38-12.14-1.92-18.23-.85-9.64-2.1-19.27-2.27-28.92-.25-14.79.22-29.6.5-44.39.06-2.55.68-5.08 1.05-7.63.44-3.14.95-6.29 1.32-9.44.3-2.53.33-5.1.72-7.61.27-1.75.97-3.43 1.47-5.14l1.4.25c.6 7.63-.62 15.11-2.16 23.26l-1.8-2.23-.64 2.21c3.01.68 4.83 2.7 4.73 5.59-.31 8.44-.95 16.89-1.04 25.34-.1 8.89.24 17.79.45 26.69.16 6.46.3 12.92.65 19.37.25 4.87.6 9.76 1.26 14.6 1.34 9.68 2.94 19.33 4.45 29.14 1.9-.1 2.29 1.12 1.14 3.01-4.22 6.98-8.43 13.96-12.78 20.85-1.31 2.07-4.22 3.8-4.34 5.8-.16 2.58-1.49 3.26-2.98 4.42a6.4 6.4 0 0 0-1.64 2.22c-2.65 5.5-5.2 11.06-7.86 16.56-1.56 3.22-3.25 6.37-4.91 9.54-.7 1.33-1.2 2.56-3.4 1.82-1.98-.67-3.86.17-5.27 2.16a144 144 0 0 1-9.99 12.9 4.7 4.7 0 0 0-1.34 3.88c.12 1.71.35 3.43.6 5.13.13.86.22 1.82.67 2.52a204 204 0 0 0 6.46 9.68c2.12 2.97 3.1 5.73 1.21 9.41-2.4 4.66-4.15 9.64-5.99 14.03 5.52 2.76 11.43 5.42 17.03 8.64 3.74 2.14 7.02 2.95 11.39 1.57 13.98-4.4 28.52-5.65 43.1-5.81 8.46-.1 16.97.35 25.38 1.25 8.71.93 17.31 2.8 26 4.07 6.89 1.02 13.8 2.13 20.75 2.52 6 .33 12.06-.34 18.1-.49 2.86-.07 4.26-1.58 4.84-4.23.57-2.52 1.01-5.12 1.97-7.5.63-1.55.26-2.19-.93-2.92-2.67-1.64-5.3-3.36-7.97-4.98-9.83-5.96-19.62-11.99-29.54-17.78-5.13-3-10.18-6.1-13.8-10.84-2.93-3.83-5.36-8.04-7.9-12.14-5.59-8.97-13.7-16.1-17.5-26.51-3.35-9.23-9-17.59-13.16-26.56-3.21-6.95-8.16-13.17-9-21.23-.25-2.53-1.83-5-3.07-7.34-1.4-2.65-3.15-5.12-2.07-8.69 2.53.83 3.22 2.83 3.94 4.76 1.06 2.84-.2 6.96 4.38 7.84.13.03.2.34.3.52 1.64 2.95 3.54 5.79 4.89 8.86 4.95 11.27 9.66 22.65 14.6 33.94 1.54 3.5 1.14 8.46 6.47 9.42.24.04.45.4.63.65 5.86 7.86 11.93 15.57 17.52 23.62 5.53 7.97 11.98 14.68 20.85 18.97a64 64 0 0 1 11.22 7.03c6.36 4.94 12.44 10.24 18.6 15.43 2.44 2.06 5.16 3.96 7.06 6.45 3.1 4.08 5.64 8.58 8.27 12.68zM364.91 981.55c-3.96 1.63-7.75 3.17-11.53 4.74-7.05 2.93-14.26 4.41-21.42.78-8.46-4.3-17.58-4.84-26.73-5.44-.77-.05-2.07.83-2.34 1.56-1.22 3.27-2.07 6.68-3.21 9.99-3 8.69-5.88 17.44-10.91 25.45 6.01 1.92 12.07 3.89 18.16 5.77 4.13 1.28 8.27 3.29 12.54.27.45-.32 1.15-.35 1.74-.39 3.67-.22 7.48.13 10.98-.76 4.7-1.21 8.33.89 12.32 2.42 8.92 3.43 17.95 6.56 27.7 6.35 13.46-.3 26.92-.83 40.38-1.17 4.78-.13 9.57-.02 13.95-.02.56-6.7-3.58-9.62-8.84-11.64l-1.99-.75c-14.12-5.65-28.07-11.56-39.24-22.38-4.5-4.35-9.1-8.63-11.55-14.77zM569.83 95.26c-3.67 6.3-6.96 12.72-10.96 18.65-6.64 9.87-15.38 17.41-26.46 22.12-1.5.64-2.7 1.98-4.05 3 .16.73-.2.8-.43.66-3.76-2.2-7.38-4.64-11.26-6.54-2.62-1.27-5.6-2.4-8.43-2.43-2.26-.03-4.88 1.31-6.66 2.84-.86.73-.2 3.31-.09 5.05.11 1.72.48 3.42.59 5.14.35 5.75 5.01 9.4 10.84 8.6.65-.09 2 .82 2.07 1.38.25 2.02.17 4.1.1 6.15-.27 6.81-1.32 13.42-4.9 19.42-.83 1.4-1.38 2.96-2.06 4.45l.72.4c.64-.92 1.34-1.81 1.9-2.78.84-1.44 1.49-2.29 3.56-1.47 4.71 1.87 9.63 3.21 14.41 4.89 2.71.95 5.4-.5 6.03-3.36.11-.52.75-1.27 1.22-1.32 1.42-.16 2.92-.27 4.3.03q10.2 2.2 20.37 4.58c2.27.51 3.77-.1 4.61-2.4 2.2-6.02 4.23-12.13 6.86-17.97 1.86-4.13 1.92-9.75 7.8-11.18.17-.04.2-.54.35-.8 2.52-4.33 2.31-5.13-2-7.6-.62-.34-1.22-.73-1.87-.94-4.12-1.3-4.68-4.71-4.97-8.3l-1.3-16H559.1l-.2-1.19c2.98-3.4 7.48-1.33 10.95-2.23V95.27zm-266.05 880.1c5.14 0 9.83.14 14.51-.03 5.37-.2 10.31 1.09 15.24 3.15 3.35 1.4 7.01 2.66 10.57 2.75 3.37.09 6.78-1.44 10.02-2.22v-8.52c-15.84-1.36-30.89-4.69-44.49-13.62zm62.76-526.81c-4.14 5.1-3.34 10.23-1.24 15.55 3.8 9.63 13.92 12.83 22.52 7.04.57-.38 1.34-.48 1.92-.84 2.35-1.48 4.9-2.74 6.9-4.6 1.56-1.47 3.34-3.59.58-6.1-.46 4.4-4.02 6.27-6.83 9.57-.46-3.13-3.95-4.96-1.1-7.85l-14.81 1.43-3.28-2.23.6-.09c-1.7-3.87-3.42-7.73-5.26-11.88m296.78 117.18-1.63.93c-5.76 3.46-11.43 7.1-17.33 10.28-1.84 1-4.48 1.42-6.5.97-5.88-1.3-11.64-3.2-17.21-4.79.02.1.13.66.29 1.21 1 3.5 1.53 7.36 6.75 6.91 1.52-.13 3.1.71 4.68.95 3.4.51 6.91 1.7 10.16 1.2 5.32-.84 10.48-2.7 15.64-4.36 1.25-.4 2.88-1.5 3.19-2.6.92-3.24 1.26-6.64 1.96-10.7M386.47 364.1c-2.2 1.07-3.6 1.86-2.06 4.27.23.36-.06 1.01 0 1.52q1.27 12.07 2.65 24.13c.06.54.77 1 1.16 1.5 0-4.3.15-8.26-.04-12.2-.18-3.86-.75-7.72-1.05-11.58-.32-3.98-.43-7.97-.83-11.93-.09-.84-1.05-1.59-1.6-2.38l-.75.52v4.9zm94.19-195.94c3.21-.63 6.07-27.01 3.02-30.95-.44.59-1.18 1.11-1.22 1.68-.65 9.76-1.22 19.52-1.8 29.27m-85.83 122.26c-.91.6-1.75 1.35-2.73 1.75-2.54 1.02-2.97 2.94-2.66 5.34.34 2.7.61 5.4.95 8.44 1.34-1.06 2.34-2.09 3.54-2.75 2.72-1.49 2.58-3.93 2.25-6.38-.3-2.14-.89-4.24-1.35-6.41zm-5.89-.9c1.24-.91 2.42-1.56 3.3-2.49.87-.92 2.09-2.15 2.05-3.2-.14-3.58-.75-7.15-1.15-10.42-7.72 3.6-4.16 10.14-4.19 16.12zm1.4-33.15c-1.5 1.9-3.75 3.42-3.78 5-.09 3.84.85 7.71 1.39 11.59 4.05-1.17 5.29-3.06 4.5-6.65-.67-3.1-1.3-6.2-2.1-9.95zm47.14 121.14c-3.35-.15-5.06 1.87-5.25 5.62-.05.97.8 2.83 1.23 2.83 1.2 0 2.45-.67 3.57-1.28a3.3 3.3 0 0 0 1.46-1.68c.39-1.19.78-2.53.57-3.7-.14-.83-1.29-1.48-1.58-1.79m-28.56-74.98q-2.14.66-2.14 13.66v14.56l1.05.02 1.09-28.23zm-23.08-45.99c5.23-3.9 3.78-3.14 2.62-12.07-4.41 1.1-4.94 3.56-2.62 12.07m-21.6 185.37c-4.54 4.94-8.87 9.34-10.19 15.7 2.52 1.3 2.79-.75 3.14-1.98a15.7 15.7 0 0 1 8.22-9.98zm75.6-45.44c-1.9 1.76-3.81 2.9-4.72 4.57-.63 1.17.1 3.08.23 4.67 1.3-.53 3.1-.7 3.78-1.66 1.3-1.85 2.45-4.1.7-7.58zm-10.5-35.28c3.55 1.39 4.6-1.87 6.14-3.63 1.18-1.36-.75-3.67-2.78-3.6-2.76.06-4.37 3.57-3.36 7.23m11.5-247.98-1.43.41a103 103 0 0 0 6.39 20.9l.8-.24zm-68.12 294.27c3.11 1.56 4.35-.66 5.94-1.48a49 49 0 0 0 5.47-3.2c1.56-1.09 2.95-2.41 4.41-3.63l-.76-1.03zm18.8 65.3c-.5 3.4-6.44 2.48-4.6 7.73l8.72-4.5zm26.5-274.1c-.46 5.33 6.71 10.18 14.52 9.58-6.6-1.1-10.74-4.99-14.52-9.58m10.5 67.71c6.84.22 4.86-5.78 6.78-8.97-3.51 1.99-4.67 5.77-6.79 8.97m-58.36 214.05h12.75c-1.55-1.72-10.65-2.26-12.75 0m-17.12-18.7c1.85 2.38.3 6.5 4.95 6.75l-1.69-6.76zm12.96 16.88-.46.25-8.48-7.17q.91-.94 1.84-1.86l-2.4 1.1c3.42 2.76 6.46 5.22 9.5 7.7zm131.78-412.1 4.17-8.18c-3.1.13-4.84 3.4-4.17 8.18m-27.1-8.2.94 1.03 7.87-7.29-.86-.94zm-26 202.38c-3.6-2-3.68-1.96-4.71 1.97zm225.95 302.94-2.48-3.3-.55 6.6zM508.6 184.52l-.8-.58q-1.34 2.22-2.7 4.43l.52.32z"/><path fill="#fff" d="m440.82 113.2 5.77 21.07-.8.24a102 102 0 0 1-6.4-20.9zm-22.81 85.48c3.78 4.6 7.91 8.48 14.52 9.58-7.81.61-15-4.24-14.52-9.58m52.63-140.36 7.96-7.2.86.94-7.87 7.3zm-86.4 370.01 2.1 2.65-.71-6.07.6-.06.74 6.68-1.07.38-2.09-3.02z"/><path fill="#fff" d="M383.81 428.9c-.5-.55-1.01-1.1-1.66-1.78l-.26 2.14-.4-.05v-5.36l2.76 4.5zM468 63.24l-1.46 1.64-.46-.36 1.27-1.57zm1.37-1.98-1 1.52-.38-.42 1-1.53zm.02-.93 1.05-1.16.4.36q-.41.56-.84 1.11z"/><path fill="#fff" d="m467.34 62.95.64-.6.37.43a.7.7 0 0 1-.37.47zm1.64-2.13.4-.49.6.31-.62.62z"/><path fill="#000" d="m389.8 728.27-1.23 1.29-.37-.25 1.2-1.58zm124.8-422.35.35-6.75c-5.16-1.1-10.16-1.64-14.97.9-1.7.9-3.41 1.52-3.84 3.88-.17.91-1.7 1.8-2.78 2.2-.42.16-1.28-1.18-2.06-1.64-1.23-.74-2.51-1.55-3.88-1.87-.52-.12-1.64.91-1.95 1.64-.72 1.73 1.68 4.94 3.7 5.08 1.52.1 3.05.02 4.67.02-1.85 2.37-5.45 3.78-7.45 3.03-2.9-1.1-4-4.65-3.08-10.38-.8.96-1.3 2.1-2.09 2.36-.92.3-2.51.22-3.05-.38-1.02-1.13-1.57-2.72-2.19-4.17-1.64-3.9-1.96-6.4 1.33-9.3 2.33-2.04 4.08-4.65 7.54-5.45a5.1 5.1 0 0 1 4.92 1.12c2.63 2.1 9.7 2.03 12.36-.02 1.75-1.35 3.32-.43 4.83.52.86.54 1.64 1.22 2.83 2.12-.66-4.51.73-5.85 4.5-5.38q4 .46 8.02.52c2.64.05 4.09 1.17 4.59 3.84.38 2 1.68 3.91 1.75 5.89.12 3.56-1.81 5.4-4.28 5.81l-4.94 5.53c.67 4.17.14 8.72-5.93 10.38 1.85-3 2.27-6.23 1-9.6zM536 292c.5.63.9 1.7 1.5 1.83 3.24.7 3.52 3.27 4.27 5.8 2.32 7.79 4.96 15.46 7.27 23.24 2.16 7.28 3.8 14.71 6.12 21.93 4.15 12.87 8.65 25.64 12.99 38.45.12.37.12.78.18 1.2-2.44 1.3-3.55-.45-4.29-2.04a1138 1138 0 0 1-10.52-23.24c-1.08-2.48-1.75-5.14-2.77-7.65-.91-2.21.04-3.15 1.5-3.48-3.3-8.26-6.8-16.53-9.9-24.95-3.1-8.44-5.77-17.02-8.69-25.52-.78-2.3-.94-4.14 2.12-4.63.17-.03.25-.62.38-.95zm-99.6 227.24c1.08-.82 2.07-2.14 3.27-2.38a158 158 0 0 1 16.09-2.54c7.27-.65 14.58-1.1 21.88-1.1 7 0 14.01.66 21.02 1.01 1.33.07 2.68-.02 4.01.02 6.34.2 12.68.4 19.02.69.72.03 1.43.55 1.96 1.54-3.47.29-6.95.76-10.43.83-6.6.13-13.19-.12-19.77.08-8.38.25-16.75.73-25.1 1.22-9.68.55-19.34 1.22-29.01 1.82-.77.05-1.55-.11-2.33-.18l-.62-1zm38.03-273.08c.9-1.33 1.5-3.32 2.76-3.9 6.97-3.19 14.08-6.05 21.17-8.98.28-.12.74.16 2.13.52-1.78 1.6-2.88 3.07-4.35 3.82-5.41 2.8-10.92 5.4-16.43 8-1.4.65-2.92 1-4.39 1.5z"/><path fill="#000" d="M536 292h.16c-3.02-2.47-5.89-9.36-4.72-11.72 3.06 1.4 2.98 4.6 4 7.07.58 1.39.4 3.1.57 4.65m81.6 212.1 2.9 9.14c-4.06-2.82-5.23-6.97-2.9-9.14M511.59 316.37c-4.26.95-8.52 2.11-12.84-.66 2.43-2.42 4.35.13 6.37.19 2.16.06 4.32.3 6.48.48zm2.92-10.55-1.25 2.62-1.2-.33c0-1.4-.58-3.56.1-4.07 1.82-1.38 1.37 1.47 2.44 1.87zm10.36-159.1c-1.73.22-3.12.57-4.5.52-1.68-.05-3.7.03-4.86-.86-.6-.49.3-2.91.57-4.8l-11.63-4.99v-1.03c.88-.17 1.9-.71 2.61-.44 3.56 1.34 7.04 2.9 10.53 4.4 1.11.47 2.14 1.14 3.28 1.5 2.97.94 4.66 2.64 3.99 5.7zm43.7-17.83-4.96 10.28-1-.24c-.37-1.72-1.07-3.45-1-5.15.08-1.9-.8-2.26-2.28-2.7-1.31-.41-2.49-1.28-3.73-1.94l.49-1.36zm-64.22 176.05-.73.97a.9.9 0 0 0-.1.84c.3.76.96 2.11 1.68 1.39.95-.96.93-2.08.68-2.94-.2-.68-1.1-.83-1.53-.26m3.32 3.2h2.48l-1.24 1.24z"/></svg>