<svg xmlns="http://www.w3.org/2000/svg" width="1080" height="1080" fill="none" viewBox="0 0 1080 1080"><path fill="#fff" d="M854.16 493.46v2.47c-3.42 1.5-6.63-1.34-9.11-2.64-2.14-1.13-4.2-2.4-6.3-3.62l-1.1-.42.54.83 2.09 4.46c-2.09.81-3.77.97-4.6 1.9-1.9 2.11-3.31 2.49-4.6.11-2.12-3.94-6-5.33-8.32-6.9-2.72 1.24-4.65 2.13-6.59 3l-.51-.77c-.82 2.25-1.48 4.58-2.54 6.7-.4.8-1.88 1.67-2.66 1.51-1.4-.28-2.74-1.22-3.96-2.1-.58-.4.1-1.27.06-1.95-.14-2.68-1.3-5.37-1.3-8.44-4.22 4.57-7.9 10.23-15.34 9.5-.72-2.05-1.43-3.97-2.05-5.92-.43-1.37-1.4-3.08-.96-4.1.96-2.13-.02-2.96-1.49-3.85-6.96-4.18-12.18-10.04-16.8-16.62-2.3-3.26-5.31-6-8.2-9.2.2 3.25.37 8.4.53 11.08-38.8-4.51-25.07-8.5-26.24-10.31-1.2 1.46-2.39 3.12-3.8 4.56-1.17 1.22-2.47 2.5-3.97 3.2-2.34 1.08-4.9 1.67-7.37 2.47-4.86 1.6-5.9 1.23-8.63-3.06-.14-.23-.61-.28-.94-.39-4.63-1.53-8.67-3.64-12.27-7.3a41 41 0 0 0-15.04-9.95 7 7 0 0 1-2.04-1.24c-3.7-2.98-7.3-6.05-12.21-7-1.38-.25-2.67-1.34-3.84-2.24a136 136 0 0 1-18.56-17.47c-5.75-6.54-13.38-8.96-20.27-14.48-.75-.6-2.06-3.3-3.05-3.18-2.08.24-1.64.82-4.15 1.36 3.22 7.83 3.63 15.72 7.18 23.3 4.13 8.8 10.64 15.89 17.5 22.71 4.97 4.94 9.39 10.41 14 15.7 3.19 3.66 6.15 7.53 9.46 11.07 3.84 4.13 8.12 7.86 11.88 12.05 4.78 5.32 9.26 10.91 13.8 16.42 4.47 5.42 9 10.8 13.27 16.37 5.53 7.22 11.15 14.42 16.16 22a342 342 0 0 1 15.44 25.77c2.87 5.3 4.33 11.35 7.06 16.73 2.9 5.74 2.59 12.17 5 18.08 2.19 5.38-1.87 10.53-3.96 15.42-2.67 6.24-6.27 12.09-9.43 18.12q-2.68 5.18-5.3 10.38c-1.33-1-.76 2.5-1.44 2.47-3.81-.16-3.07-4.48-3.19-8.47-.06-2.34-2.91-4.67-3.1-6.55-4.68 2.17-8.97 4.66-13.57 6.17a41 41 0 0 0-11.72 5.91c-2.8 2.06-5.5 4.33-8.5 6.04-8.23 4.67-16.42 9.47-24.96 13.5a73 73 0 0 1-16.89 5.31c-6.38 1.27-12.96 1.51-19.46 2.2-1.47.16-3.43 1-4.34.36-4.37-3.1-9.22-3-14.13-2.76-1.21.06-2.4.84-4.17 1.5l4.61 4.14c-.24.7-.52 1.34-.7 2-2.7 9.72-6.85 18.78-11.7 27.62-5.87 10.67-11.29 21.58-16.83 32.43-4.14 8.1-7.62 16.6-13.7 23.53-7.79 8.9-11.98 19.61-16 30.47-2.56 6.97-5.11 13.97-8.26 20.68-4.37 9.3-9.25 18.37-13.99 27.5-2.58 4.97-4.92 10.15-8.12 14.73-5.26 7.51-11.2 14.53-16.66 21.9-1.54 2.08-2.38 4.67-3.64 7.23l5.57 1.22-1.15 36.44c-2.55-.96-3.7-.83-3.9 1.61-.48 5.73-1.27 11.45-1.79 17.18-.52 5.77-.98 11.54-1.17 17.33-.06 1.67.97 3.35 1.35 5.07.22.99.57 2.35.1 3.02-2.25 3.24-4.4 6.69-8.34 8.24h-13.62c-1.21-1.35-2.48-2.65-3.63-4.05-1.8-2.16-3.44-4.94-4.02-7.26-2.57-10.07-3.46-20.32-4-30.5-.19-3.61 2.92-6.47-.13-8.72-4.04-2.99-7.57-6.86-11.93-9.18-3.37-1.8-5.76-3.91-6.55-7.3-1.36-5.84-1.85-11.88 1.65-17.22 2.26-3.46 3.16-7.05 2.57-10.98-1.34-8.88-3.39-17.68-4.16-26.6-.93-10.84-1.5-21.81-1-32.67.4-9 2.85-17.9 3.93-26.88 1.48-12.38 2.59-24.81 3.73-37.23.57-6.3.92-12.6 1.22-18.9.1-2 .34-4.36-.55-5.95a120 120 0 0 0-8.95-13.97c-4.7-6.22-6.96-13.4-9.07-20.69-2.48-8.62-4.77-17.3-7.46-25.86-1.6-5.08-3.5-10.1-5.77-14.93a163 163 0 0 0-8.15-14.88 601 601 0 0 0-11.93-18.7c-1.3-1.97-7.65-3.2-9.45-1.8-3.69 2.84-7.99 3.28-12.17 2.56-3.16-.54-5.74 2.39-8.4 3.81-.6.33-1.32-.8-1.97-.55-5.32 2.03-10.87 2.4-15.9 5.01-5.98 3.1-11.85 5.58-18.8 4.95-4.02-.36-6.94-2.26-8.3-6.23-.7-2.06-1.52-4.07-2.14-5.72-5.93 3.42-11.69 6.68-17.38 10.05-3.76 2.2-8.1 3.93-11.02 6.97-7.35 7.68-14.05 15.98-21.08 24.1-1.7-.76-3.47.1-4.55 1.85-1.3 2.1-2.58 4.37-3.13 6.75-.8 3.43-1 7.02-1.3 10.55-.2 2.27-2.12 2.89-3.61 3.43-.86.31-2.41-.7-3.37-1.46-.99-.79-1.45-2.26-2.47-2.96-6.39-4.42-11.63-9.97-15.24-16.73-2.84-5.33-4.7-11.19-6.94-16.83-3.08-7.73-4.32-15.79-4.34-24.09 0-1.78-.54-3.58-.97-5.34-1.49-6.1-3.78-12.12-4.39-18.3-1.22-12.33 2.41-24.2 5.22-36.03a74 74 0 0 1 14.79-29.66c5.16-6.35 10.37-12.83 16.52-18.14 7.84-6.78 16.6-12.5 25.04-18.57 14.33-10.28 28.73-20.48 43.09-30.73 8.72-6.22 17.48-12.4 26.1-18.76a144 144 0 0 0 10.85-8.97c3.09-2.79 5.92-5.86 8.87-8.8l16.25-16.3c2.75-2.77 6.1-5.22 7.93-8.5.85-1.53-1.27-4.7-2.04-7.14 4.14-.35 4.51-1.13 2.15-4.59-.68-1-1.57-1.85-2.22-2.86a6 6 0 0 1-1.05-2.59c-.26-2.7-.34-5.4-.5-8.3-4.12 4.2-7.35 8.4-11.43 11.44-5.62 4.19-11.84 7.59-17.86 11.2-12.04 7.24-3.2 6.96-16.23 12.08-2.1.83-25.57 7.65-27.08 4.96-.25-.44-1.28-.54-1.96-.6-4.91-.45-9.8-.95-14.33-3.18-1.33-.66-2.74-1.2-4.1-1.8-5.04-2.18-10.73-3.5-14.93-6.75-5.57-4.31-10.07-10.04-14.81-15.34-3.63-4.05-6.97-8.36-10.35-12.62-1.04-1.3-2.5-2.8-2.58-4.28-.29-4.91-.7-9.97.15-14.77 1.73-9.89 4.26-19.63 6.42-29.46.51-2.35 1.68-5 1.06-7.08-1.62-5.45-4.17-12.06-4.26-17.81-.04-2.94 1.45-3.88 4.2-5.5 1.2-.7 2.43-2.18 2.67-3.49 1.2-6.68 1.87-13.45 3.17-20.1.83-4.3.67-7.66-4.2-9.1-.18-.05-.3-.3-.45-.41-6.58-5.35-9.26-12.64-10.53-20.53l-5.6 2.79c-4.06 2-4.99 1.48-5.4-2.83-1.92-.57-4-.73-5.5-1.76-2.43-1.7-4.07-4.98-7.86-3.03-2.5-2.14-5.6-3.88-7.33-6.53-1.64-2.48-1.83-5.91-2.66-8.93v-4.95c3.05.03 3.92-2.06 4.22-4.51.66-5.35 2.42-10.1 6.06-14.29a22 22 0 0 0 4.46-8.06c1.54-5.53 5.35-8.57 10.27-10.18 3.64-1.2 7.62-1.6 11.48-1.86 2.82-.18 4.83-.7 5.79-3.7a15 15 0 0 1 2.74-4.96c2-2.38 4.04-4.8 6.35-6.9.62-.56 2.24-2.65 3.1-2.47 3.28.68 6.39 3.73 9.23 4.45 1.34-1.08 2.55-2.43 4.05-3.18q6.13-3.04 12.48-5.65c.67-.28 3.34-2.98 3.94-2.43 1.71 1.53 3.94 4.56 5.57 6.19 1.49 1.48.74 5.59 2.5 5.96 2.24.48 2.7 1.76 3.38 3.3.8 1.84 1.45 3.75 2.43 5.48 1.1 1.93 2.74 3.1 5.12 1.99 1.35-.63 2.61-1.48 4-2 2.2-.83 4.44-1.9 6.24 1.01 1.43 2.32.65 4-.88 5.7-1.23 1.36-2.66 2.59-3.68 4.1-5.49 1.68-2.57 5.08-4.36 7.18-2.64 3.1-5.76 5.8-8.68 8.68-2.2 0-5.6-1.71-6.86.12-1.67 2.42-1.67 2.09-1.67 7.9 0 1.54-.08 3.1.03 4.63.3 3.8 2.28 7.63 5.61 9.9 2.71 1.85-2.56 3.7-4.03 5.8-3.83 5.44-5.23 11.66-5.9 18.08a284 284 0 0 0-1.25 15.56c-.32 6.44-.55 12.9-.57 19.35 0 1.81.85 3.62 1.33 5.48 4.11-1.9 4.78-1.9 6.5 2.06 1.99 4.55 4.06 9.23 4.96 14.07 1.26 6.89 5.16 11.8 9.73 16.46 4.5-5.3 8.79-10.62 13.37-15.68 8.12-8.99 16.49-17.73 24.6-26.72 7.6-8.41 15.28-16.75 24.4-23.54 5.08-3.77 10.68-6.84 16-10.28 2.41-1.54 4.48-.5 6.38.86 1.14.82 1.96 2.09 3.02 3.25 17.14-15.07 32.08-27.07 49.94-39.2-3.65-3.14-3.46-2.67-6.18-5.66-5.05-5.56-10.16-12.54-12.97-19.4-4.47-10.96-5.09-22.22-4.31-34.15.56-8.6.9-17.1-.53-25.67-.47-2.82.22-6.23 1.45-8.88 2.42-5.2 6.9-8.7 12.03-11.12 13.39-6.3 27.5-10.46 41.93-13.54 2.09-.45 4.22-.7 6.33-1.04h8.67c4.72 1.04 9.4 2.62 14.18 2.97 7.12.51 13.09 3.28 18.44 7.62 3.72 3.01 7.25 6.3 10.7 9.62 3.21 3.09 6.72 6.05 9.2 9.68 4.5 6.6 6.88 14.21 8.05 22.08.56 3.77.54 7.7.22 11.52-.43 5.1-3.26 9.2-6 13.46-2.9 4.54-6.4 7.4-11.64 8.77-4.81 1.26-7.72 5.22-9.66 9.57-2.3 5.17-4.02 10.6-6.26 15.8-1.13 2.63-2.84 5-3.88 6.8 1 3.35 1.8 6.1 2.61 8.84 9.94 4.89 20.03 9.88 30.15 14.8a61 61 0 0 0 7.93 3.26c2.67.85 5.64.91 8.2 1.97 8.1 3.34 16.19 5.53 24.06 9.37 3.06 1.48 6.98 1.45 9.5 3.81 5.66 5.32 9.28 15.42 15.55 19.82 9.63 6.76 16.68 15.42 21.8 25.6 4.63 9.24 8.2 19 12.18 28.57 1.45 3.5 2.34 7.28 4.16 10.55 2.8 5 6.3 9.59 9.24 14.5.86 1.42 2.69 3.32.24 5.17-.16.12.1 1 .36 1.4 2.91 4.6 5.49 3.24 10.06 3.87 3.48.48 8.56 5.55 11.35 6.92 3.76 1.85 7.08 4.86 11 6.05 12.78 3.87 21.7 9.77 32.22 16.58 3.28 4.36 5.01 14.1 8.67 18.12 3.3 3.61 7.5 6.37 10.9 9.9 4.2 4.4 9.22 7.46 14.44 10.38a520 520 0 0 1 16.9 9.86c2.4 1.47 5.67 1.87 8.16 2.26 4.83.78 7.71 5.04 11.28 8.11 3.26 2.82 6.28 5.95 9.3 9.04.87.9 1.22 2.3 2.08 3.2 4.77 4.86 9.63 9.64 14.45 14.47a18 18 0 0 1 1.6 1.83c1.1 1.44 2.08 2.98 3.26 4.36.75.88 2.61 1.77 2.48 2.27-.59 2.28 2.5 2.48 3.57 3.37zm-94.63-35.44.7-.32-.94-1.84-.57.26z"/><path fill="#000" d="M859.11 495.31c-2 1.72-4 3.43-7.19 3.47 1.03-1.28 2.04-2.45 1.42-4.22-.57-1.6-1.85-2.23-3.1-3.05a29 29 0 0 1-4.72-3.88c-8.01-8.01-16.12-15.95-23.67-24.4-2.7-3.03-5.67-5.9-7.72-9.48-1.1-1.92-2.97-2.63-4.8-3.48q-15.37-7.06-30.72-14.14c-1-.46-1.73-1.03-2.9.12-5.83 5.8-11.04 12.09-15.22 19.2-.32.54-.64 1.04-.23 1.98 3.05-2.08 5.02.61 6.38 2.23 5.72 6.84 12 13.28 16.53 21.07.44.76 1.71 1.05 2.64 1.5 5.37 2.57 10.8 4.06 17.02 3.35 5.73-.66 11.69-.74 17.32 1.34 1.13.42 1.44-.12 1.84-.92.4-.78.54-1.18-.27-2a36 36 0 0 0-20.33-10.35c-1.4-.22-2.82-.39-4.2-.7-.67-.15-1.78.38-1.82-1.02q-.06-1.42 1.15-1.98c1.8-.86 3.74-.73 5.66-.77 9.75-.18 17.12 5.13 24.38 10.64 5.3 4.02 11.03 7.4 16.9 10.44 2.18 1.13 3.98 2.83 6.26 3.74.8.32 1.47 1.03 1.17 1.93-.34 1.04-1.46.73-2.14.55-2.44-.63-4.83-1.46-7.29-2.22-.59.95-.24 1.85.12 2.84.28.75.53 1.82-.14 2.34-.84.65-1.8-.16-2.52-.62-.73-.46-1.24-1.28-1.85-1.95-.43.6-.98 1.17-.47 2.13q.73 1.37-.8 2.29c-1.25.75-1.85.02-2.6-.73q-4.42-4.47-8.82-8.87c-2.24 3.36-4.38 6.54-6.47 9.74-1.97 3.03-4.73 4.67-8.34 4.54-1.92-.06-3.22-.44-3.92-3.04-.84-3.15-.33-5.9.13-8.84.13-.78.62-1.94-.56-2.4-.93-.37-1.84 0-2.46.8-2.55 3.28-6.21 4.37-10.02 5.4-5.7 1.53-9.2-1.36-7.83-7.05.55-2.29-.04-3.14-1.98-4.07-3.02-1.45-5.43-3.04-6-7.23-.37-2.81-3.53-5.26-5.5-7.83-1.55-2-3.18-3.96-4.8-5.96-.88.68-1.86 1.27-2.62 2.06-5.5 5.78-11.55 4.88-17.8 1.53-3.24-1.74-6.53-3.42-9.6-5.42-1.47-.95-2.44-.92-3.87-.12-4.97 2.78-10.06 5.34-15.02 8.14-1.26.71-1.95-.13-2.78-.48-6.68-2.81-12.14-7.42-17.55-12.05-9.13-7.81-19.08-14.14-30.48-18.2-10.23-3.66-18.45-10.09-23.9-19.56-2.49-4.31-5.72-7.26-10.42-8.64-.73-.2-1.46-1.17-2.23-.37-.74.78.15 1.54.39 2.26 3.58 10.58 9.16 20.16 15.06 29.58 8 12.77 17.44 24.39 27.42 35.65 12.27 13.84 24.18 28 36.09 42.16 10.36 12.33 20.68 24.72 27.4 39.61 4.56 10.1 8.1 20.57 11.5 31.09.7 2.15 2.22 3.85 2.6 6.1 1.43 8.61-.86 16.67-4.19 24.35-4.5 10.38-9.78 20.4-16.6 29.52-.68.92-1.17 2.46-2.73 1.89-1.27-.46-.63-1.81-.64-2.73-.05-4.57-1.99-8.67-3.14-12.96-.43-1.58-1.31-.82-2.17-.1-7.59 6.33-15.62 12-24.41 16.61a218 218 0 0 1-32.4 13.76c-7.23 2.42-14.46 4.64-21.94 6.13-8.74 1.73-17.47 1.79-26.1-.46-2.22-.58-3.05-.5-3.82 1.98-5.73 18.28-11.48 36.5-20.53 53.6-7.13 13.46-14.95 26.52-21.87 40.1a25 25 0 0 0-2.66 8.32c-1.27 11.04-5.4 21-11.13 30.41-5.94 9.76-11.49 19.78-18.68 28.7-5.65 7.01-11.53 13.85-17.3 20.76-3.74 4.48-7.46 8.97-11.82 14.22 3.33-30.36 9.62-59.6 9.05-89.52-.3 3.91-.63 7.82-.89 11.74a254 254 0 0 1-2.95 24.57c-1.75 10.42-3.34 20.87-5.14 31.28-1.37 7.96-2.41 15.95-2.44 24.06 0 3.48-.07 7.23.84 10.35 1.65 5.6 1.17 11.15.85 16.61-.45 7.51-.31 15-.42 22.49-.02 1.48-.55 2.18-1.89 2.72-2.92 1.18-4.58 3.02-4.42 6.64.32 7.38-.22 14.76-1.12 22.1-.1.8-.19 1.79.18 2.43 6.02 10.68 7.23 22.43 5.67 34.07-.97 7.26 1.34 13.51 2.44 20.15 2.66 15.98-1.51 29.66-11.7 42.29-4.82 5.99-9.9 4.76-15.52 3.74-4.46-.81-6.87-4.64-9.6-7.67-3.73-4.14-7.36-8.43-10.1-13.39-4.23-7.63-5.22-15.68-4.4-24.29.58-5.92 3.26-11.48 2.76-17.49-.7-8.06-1.75-16.08-1.97-24.17-.2-7.17-.42-14.3 4.6-20.3 1.1-1.32.66-3.06.41-4.47-.6-3.27-.54-6.53-.52-9.81 0-1.33-.22-2.11-1.65-2.83-2.75-1.4-3.15-4.54-4.42-7.41-1.44 2.22-2.97 3.29-5.86 2.9-3.04-.4-3.96-2.47-5.54-4.26-7.1-8.12-4.6-23.7.49-30.36 1.5 5.59 2.5 11.25 7.09 15.59l-4.05-19.43c-2.07-9.87-5.88-19.29-7.37-29.33-1.27-8.64-2.77-17.23-3.58-25.95-.45-4.93-.43-9.83-.5-14.73a95 95 0 0 1 7.22-37.57c1.81-4.45 1.6-7.97-.16-12.05a76 76 0 0 1-5.1-18.08c-.41-2.52-.13-4.86 2.11-6.68 4.45-3.61 8.92-7.23 13.14-11.1a324 324 0 0 0 13.56-13.33c1.12-1.17 2.03-2.5 3.4-3.46.54-.37.72-1.4.83-2.16.04-.27-.3-.98-1-.88-.88.12-.9.98-1.33 1.44-4.65 4.89-9.01 10.05-14.8 13.78-4.48 2.9-4.12 2.94-7.53-1.25-12.31-15.15-22.38-31.77-32.37-48.46-8.52-14.24-15.12-29.4-21.28-44.77-1.31-3.29-2.9-6.46-4.2-9.76-.6-1.54-1.4-1.3-2.62-.97-8.42 2.26-16.4 5.73-24.64 8.5-8.29 2.8-16.54 5.76-25.52 5.47-5.38-.17-9-2.47-11.1-7.5-1.86-4.43-2.28-4.6-6.6-2.29a92 92 0 0 0-18.35 13.22c-7.57 6.85-14.62 14.1-20.53 22.44-2.18 3.09-4.43 3.64-6.95 2.15a177 177 0 0 0-2.9 15.57c-.47 3.43-1.86 6.8-1.96 10.4-.02 1.1-.74 1.24-1.72.58-11.09-7.54-20.29-16.86-27.03-28.51-7.57-13.08-11.79-27.2-13.72-42.14-.85-6.54-3.11-12.83-4.05-19.4-.35-2.41.52-4.96-.82-7.24v-11.14c.2-.46.57-.92.57-1.38-.06-6.5 1.52-12.74 2.86-19.02 3.4-15.97 11.57-29.29 23.2-40.45 9.45-9.07 20.43-16.24 31.43-23.24 20.58-13.09 41.29-25.95 60.72-40.74 10.26-7.81 20.22-15.98 29.46-24.97 5.6-5.45 11.2-10.91 16.24-16.9 5.2-6.16 10.12-12.57 14.03-19.68.54-1 .84-1.82.26-2.75-1.71-2.77-2.55-5.91-3.86-8.97-1.85 2.04-3.46 4.23-5.46 5.95-8.74 7.5-17.85 14.54-28.3 19.47-3.1 1.47-4.91 4.55-8.36 5.36-3.65.86-7.21 2.08-10.8 3.16-2.37.71-5.44-.18-6.8 2.97-.1.25-.95.27-1.44.25-4-.17-7.97.02-12-.45-17.26-2-31.66-9.42-43.43-22.07a166 166 0 0 1-20.4-26.74c-2.2-3.63-3.28-7.4-2.16-11.92 2.22-9.08 6.07-17.57 8.95-26.42.53-1.63 1.42-3.14.95-4.96-1.65-6.49-2.57-13.15-4.72-19.52-1.9-5.6-.26-8.53 6.1-11.85 1.4-.73 1.75-1.15 1.62-2.85-.57-7.45-.87-14.94.1-22.4.32-2.42.58-4.33-1.88-6.26-2.75-2.17-6.27-4.26-6.14-8.67-3.51-1.4-3.44-4.87-4.55-7.91-1.32 2.3-3.66 1.32-5.48 1.94-3.15 1.07-3.44-1.62-4.79-2.96-.22-.21-.52-.4-.64-.67-.77-1.73-1.69-1.82-3.45-.98-2.81 1.34-5.44 1.38-7.92-1.5-2.78-3.24-5.57-6.4-8.05-9.91-3.33-4.72-3.35-9.6-2.25-14.84.18-.83.64-1.55.28-2.61-1.12-3.25-1.54-6.05 1.9-8.9 3.24-2.69 5.87-6.26 8.96-9.28.84-.82 1.42-1.6 1.38-2.9-.1-3.06 1.2-5.78 2.67-8.33 1.08-1.88 2.69-3.52 5.1-3.41 2.13.09 3.53-.48 4.68-2.43.84-1.41 2.62-2.06 4.28-1.41 3.35 1.32 5.8-.03 8.25-2.16a28 28 0 0 1 5.77-3.9c2.49-1.24 3.2-2.9 3.39-5.7.5-7.18 5.25-9.07 11.34-4.78.99.7 1.36.13 2.07-.29 6.08-3.49 12.23-6.83 18.87-9.23 1.54-.56 3.56.32 4.4-.75 2.6-3.31 3.82-.93 5.26.93 5.58 7.23 9.35 15.41 12.63 23.95 2.71-2.63 6.15-3.8 9.4-5.14 1.83-.77 4.5-1.11 5.7 1.38 1 2.04 2.2 1.62 3.94 1.28 6.9-1.31 11.71-.69 15.63 5.78.58.95.92 2.2 1.74 2.83 4.7 3.58 5.86 8.43 5.4 13.97-.08.9-.29 1.85.92 2.33 4.34 1.74 5.67 5.66 6.79 9.67.3 1.1.2 2.26 1.9 2.11 3.05-.27 5.33 1.26 7.13 3.49.98 1.22 1.77 1.66 3.32.88 2.92-1.48 5.52-.5 7.86 1.51.52.45 1.21 1.53 1.6 1.16 2.03-1.92 5.23-1.28 7.07-3.2a20 20 0 0 1 7.62-4.93c.58-.21 1.62.12 1.6-1.02-.1-4.37 3.14-6.07 6.3-7.78 1.11-.61 1.47-1.05.95-2.47-1.61-4.4-.55-6.7 3.34-8.88 2.9-1.63 6.03-2.2 9.25-2.63-2.44-.35-4.88-.74-7.22.27-2.48 1.09-3.94.96-2.9-2.39-.84 0-1.37-.06-1.86.02a27.4 27.4 0 0 1-20.01-4.38c-4.37-2.9-7.64-6.75-8.2-12.25-.1-.98-.5-2.14 1.04-2.84 1.41-.65 1.86.4 2.58.94 2.2 1.63 4.14 3.62 6.67 4.86 2.2 1.08 3 .55 2.66-1.82-.65-4.52 1.2-8.11 4.59-10.73 2.28-1.76 2.5-2.61-.33-3.55-1.02-.34-1.16-1.38-1.63-2.13-1.14-1.77-.65-4.95-1.78-5.58-1.71-.95-4.28-.72-6.4-1.5-.38-.14-.8-.15-1.18-.3-4.15-1.62-6.36-4.95-6.7-9.11-.29-3.49 1.87-6.12 4.87-7.95 2.52-1.54 5-3.14 7.62-4.8a33 33 0 0 1-11.89-4.95c-7.33-4.98-10.7-12.88-8.74-21.07.9-3.76 2.99-6.87 5.81-9.52.5-.46 2-.8.94-2.08-3.34-4.07-1.85-8.2.33-11.94 3.67-6.3 9.88-9.44 16.49-11.77 1.16-.4 1.9-.65 2.38-1.87 2.95-7.34 8.66-11.69 15.87-14.33 1.91-.7 3.73-1.54 5.57-2.38 3.06-1.4 5.2-2.68 5.62-6.8 1.04-9.97 19.74-19.9 30.14-13.87.51.3 1.26 1.33 2.27-.02 3.74-4.97 8.88-7.96 14.78-9.74h7.42c2.8 1.3 5.89 2.03 8.25 4.22 4.4 4.07 5.79 9.2 5.37 14.97-.11 1.55-.08 2.57 2.15 2.62a10.4 10.4 0 0 1 5.94 2.08q.46.32.95.58c1.1-2.01 3.61-2.9 4.58-4.74 2.3-4.37 5.18-5.29 9.14-2.2.65.51 1.16 1.1 2.1 1.06a11.8 11.8 0 0 1 7.16 2.19c2.88 2.05 5.37 1.74 8.51.78 6.44-1.94 12.77.58 12.09 8.53-.2 2.37-.6 4.2 2.8 5.52 4.46 1.71 5.49 6.5 5.8 11 .14 1.82.12 3.18 2.28 4.07a8.3 8.3 0 0 1 4.82 5.3c.55 1.88 1.1 1.5 2.47.65 5.43-3.37 10.66 1.1 10.9 6.03.06.99-.27 2.03.51 3.37 2.77-3.18 5.28-6.17 5.71-10.47.45-4.38-1.52-7.7-4.37-10.8 4.09 1.33 6.58 4.22 7.77 7.97 2.3 7.27.55 13.8-4.5 19.41.6.7 1.3 1.05 1.85 1.71 3 3.65 2.74 8.02 2.15 12.06-.47 3.24 1.08 4.63 3.18 5.85 8.68 5.08 9.09 17.72 2.92 23.94-1.33 1.35-2.61 2.76-4.1 4.34 2 .88 3.9 1.62 5.71 2.51a13 13 0 0 1 6.15 6.2c3.3 6.96 2.12 13.5-2.07 19.6-1.5 2.16-2.7 3.93-1.2 6.72.8 1.52.32 3.53-.68 5.21-1.83 3.1-4.75 4.6-8.01 5.65-1.83.58-3.3 1.15-3.09 3.7.13 1.62-.6 3.4-1.23 4.99-2.85 7.2-13.93 12.37-22.85 8.72-1.14-.47-1.85-.78-2.48.86-1.47 3.86-4.24 6.97-6.95 9.98-4.25 4.7-9.8 7.04-16.1 7.7.15.29.17.43.25.46 11.19 5.05 22.17 10.45 32.16 17.68.3.22.98.45.99.43 1.19-2.34 2.94-.97 4.54-.72 11.55 1.78 22.21 6.17 32.51 11.43 4.69 2.38 8.98 5.57 9.25 11.63.14 3 1.68 4.33 4.52 5.12 2.1.58 3.97 2.04 5.88 3.2 11.47 6.97 19.04 17.32 24.52 29.22 9.09 19.72 17.82 39.6 26.7 59.42.6 1.34 1.26 2.45 2.76 3.02 5.08 1.9 9.6 4.9 14.27 7.6 13.78 8.01 27.45 16.23 42.04 22.74 1.62.72 3.16 1.5 4.03 3.1 2.8 5.18 5.24 10.52 6.2 16.4.15.9.42 1.61 1.2 1.99 5.53 2.7 10.26 6.62 15.01 10.38 2.55 2 7.04 2.66 6.88 7.4-.01.33 1.1.78 1.75 1.01 1.62.6 3.32 1 4.91 1.65a3366 3366 0 0 1 26.43 11.01c2.6 1.1 5.46 1.83 7.32 4.22q11.58 14.85 23.08 29.78c3.46 4.5 7.21 8.58 12.82 10.37 1.42.46 2.38 1.46 3.38 2.45v2.48zM408.66 253.84c-9.56 6.19-18.65 12.58-27.11 20.58l8.16 2.56c2.52.77 5.22 2.47 7.51 2.02 2.28-.44 2.88-3.9 4.38-5.96-1.21 3.19-2.06 6.4-4.11 9.34a151 151 0 0 1-17.32 20.64c-.56.55-1.35 1-1.24 1.99.24 2.11-1.16 2.2-2.71 2.23-7.98.14-15.72-1.53-23.4-3.36-1.13-.28-1.6-.4-2.41.38-4.03 3.84-7.55 8.17-11.5 12.06-3.15 3.08-3.18 5.94-.75 9.28.47.64.73 1.45 1.02 2.2q5.79 15.17 11.62 30.32c2.36 6.14 4.7 12.3 7.24 18.37 1.08 2.57-1.04 3.57-2.14 4.75-.87.93-2.3-.27-2.97-1.38-10.33-17.04-20.58-34.14-26.75-53.27-.51-1.58-.82-3.37-2.78-4.13-.98-.38-.93-1.28-.63-2.36 1.2-4.37 6.13-5.96 10.8-3.3 3.5-7.66 8.86-14 14.55-20.04 10.15-10.75 20.19-21.6 31.3-31.4 9.04-7.95 18.8-14.8 29.77-19.78 3.15-1.43 6.42-2.7 9.9-.43.85.55 2.06 0 3.1-.71a664 664 0 0 1 19.42-12.7c5.27-3.28 10.33-7.01 16.32-9.3.4 2.45-1.3 3.49-2.55 4.52-5.98 4.95-12.34 9.39-18.58 14-7.56 5.6-15.46 10.78-22.9 17.28 5.52 2.72 9.58 6.92 13.5 11.24 3.42 3.76 6.8 7.59 8.98 12.3.72 1.55.64 2.47-.84 3.83-5.62 5.11-11.57 9.87-16.88 15.34-3.66 3.76-4.68 7.9-3.54 12.9a74 74 0 0 1 1.99 21.02c-.53 9-1.58 17.98-1.65 26.98-.08 10.78-.58 21.42-4.03 31.71-5.57 16.68-15.66 30.62-27.33 43.41a252 252 0 0 1-25.9 24.33c-14.14 11.66-29.18 21.99-44.47 32-15.44 10.13-31.41 19.45-46.12 30.68-8.09 6.16-15.78 12.76-21.9 21.01-7.65 10.33-11.87 22.09-14.82 34.4-1.09 4.54-2.68 9.05-2.38 13.77.72 11.5 1.38 22.95 4.03 34.31 3.65 15.64 8.27 30.65 18.04 43.7 4.6 6.12 9.78 11.63 15.68 16.85.73-6.2.55-12.03 1.55-17.8 1.03-6 3.8-11.34 5.63-17.02 7.4-22.93 19.44-43.37 33.13-62.91 13.9-19.83 29.82-38.03 45.95-56.06 9.7-10.85 19.36-21.73 28.72-32.89 5.44-6.5 11-12.92 15.46-20.08 5.54-8.88 10.47-18.14 15.59-27.29 6.7-11.98 12.27-24.43 15.71-37.79 2.58-10.01 4.23-20.22 6.58-30.27 1.86-7.92 3.89-15.83 4.8-23.9 1.08-9.55 2.7-19.05 3.3-28.68.54-8.67 1.67-17.3 2.34-25.96.65-8.35 1.87-16.61 3.5-24.82a305 305 0 0 1 8.39-32.1c2.99-9.51 6.11-19.03 12.02-27.34q-.67-.4-1.34-.77c-3.27-1.88-7.2-3.03-9.23-6.4-1.42-2.34-3.26-4.16-5.08-6.07q-2.43-2.53-4.72-5.23c-1.8-2.16-2.32-6.61-6.98-4.63-.29.12-.83-.5-1.3-.65-1.88-.64-4.16-.6-5.5.39-3.39 2.48-5.4 2.91-9.39.71.42 6.32-.16 7.1 3.17 10-.76-1.5-1.38-2.64-1.9-3.81-.22-.52-.51-1.36.34-1.5 1.85-.33 3.66-.16 5.27 1.03 1.84 1.35 2.72 3.15 2.19 5.36-.4 1.66-1.15 2.86-3.24 3.53-3.6 1.15-5.34-.78-7.13-3.11-.48-.62-.65-1.91-1.41-1.78a4.2 4.2 0 0 0-3.4 3.15c-.36 1.3-.73 2.74 1.06 3.31 1.7.55 2.72 1.88 3.73 3.12 1.99 2.44 1.4 6.61-.98 7.95-3.13 1.76-6.59.86-8.05-2.28-.82-1.78-1.27-3.72-1.9-5.58-7.25 2.38-8.4 7.8-3.38 13.03-.44-2.11-.6-3.98-1.58-5.7-.55-.95-.55-2.2.54-2.67.9-.4 1.37.74 1.67 1.43.63 1.4 1.35 2.83 1.56 4.31.34 2.39-.26 4.64-2.87 5.44-2.42.73-3.72-1.1-4.87-2.78-1.72-2.5-2.22-5.37-1.83-8.49-3.9 1.6-3.97 1.86-2.8 5.44.45 1.35.8 2.78.92 4.2.2 2.69-2.1 5.16-4.68 5-2.74-.18-3.42-2-3.42-4.47 0-2.52.42-4.84 1.88-6.92.28-.4.83-.77.45-1.33a6.6 6.6 0 0 0-3.6-2.7c-1.6-.46-3.54.34-3.77 1.34-.4 1.8-1.95 2.85-2.24 4.47-.19 1.02-1.6 2.33-.8 2.75 1.6.85 1.3-1.58 2.34-2.07.36-.17.36-1 1.12-.6.58 1.53.12 3.04-.39 4.46-.78 2.2-2.76 3.1-4.81 3.14-1.94.03-2.8-1.55-3.34-3.41-.95-3.32.45-5.9 2.65-7.9 1.57-1.45 1.1-2.47.1-3.53-1.34-1.42-3.24-3.01-5.01-2.22-2.33 1.04-5.53 1.04-6.7 3.97-.47 1.18-.28 2.74 1.05 3.18 1.76.58 1.23-1.44 1.83-2.21.25-.34.1-1 .1-1.52-.04-1.59 1.6-1.39 2.21-1.5 1.25-.21.84 1.13.7 1.8-.41 2.03-.88 4.05-2.61 5.45-2.17 1.74-4.52 1.63-6.55-.43-1.92-1.94-1.66-3.9-.1-6.01 1.19-1.64 2.94-2.48 4.42-3.7.5-.41 1.27-.36 1.41-1.39.38-2.6-1.83-8.18-4.2-9.42a8.5 8.5 0 0 0-9.16.55c-.91.63-1.9 1.37-1.47 2.77.29.94.8 1.75 1.78 1.96 1.4.3 2.33-.52 2.98-1.64.51-.88.88-1.84 1.37-2.73.3-.53.9-.46 1.38-.34.52.13.35.55.29.97-.67 4.21-6 7.53-10.08 6.25-2.74-.86-3.66-3.72-1.89-6.07 1.92-2.53 4.63-3.78 7.63-4.58 3.56-.94 3.74-1.43 2.81-5.11-.4-1.57-.66-3.16-1.9-4.63-1.17 3.02-3.07 5.26-6.2 5.95-2.6.58-5.35 1.05-7.5-1.18-1.83-1.9-1.86-4.35-.9-6.57 1.35-3.17 4.31-4.62 7.35-5.84-2.07-3.64-5.42-4.25-9.23-4.09-1.73.08-2.42.56-2.3 2.33.07 1.16.4 2.51-1.06 3.26-3.42 1.72-6.24 4.64-10.3 5.03-.8.08-1.17.45-.8 1.19 2.57 5.15-2.05 8.02-4.11 11.33-1.92 3.07-5.46 5.16-9.01 6.65-.7.3-1.48.42-1.94 1.25-2 3.68-.77 10.71 2.4 13.16 3.18 2.46 4.26 5.74 3.27 9.62-1.57 6.19-5.1 11.5-7.7 17.22-1.3 2.86-3.27 5.67-3.42 8.7-.36 7.29.04 14.6-.7 21.89-.08.7-.35 1.62 1.07 1.61 4.08-.01 5.06 3.27 6.33 6.2 2.86 6.56 4.06 13.56 5.48 20.5.2.97.42 2.21-1.06 2.48-1.32.24-1.68-.73-2.05-1.8-2.35-6.63-5.3-13.04-7.13-20.22-6.63 8.01-14.9 12.94-24.28 16.2-6.5 2.27-13 1.85-19.44.04-.8-.23-1.69-1.41-2.5-.72-1.04.87-.1 2.07.2 3.12 1.35 4.69 2.6 9.4 3.13 14.27.18 1.6 3.84 5.84 5.19 5.88 7.48.24 14.92-.17 22.27-1.57 3.68-.7 7.27-1.9 10.9-2.9 1.4-.37 2.55.1 3.13 1.28.74 1.51-1.02 1.56-1.66 1.89-10.54 5.2-21.55 7.97-33.4 6.37-.98-.13-2.55-.93-2.74 1.27-.9 10.06-3.48 19.76-6.85 29.23a5 5 0 0 0 .6 4.85c6.59 10.1 13.88 19.6 22.76 27.85 6.27 5.84 13.02 10.84 20.94 14.17 5.62 2.37 11.24 5.15 17.47 4.76 6.49-.41 12.92-1.57 19.53-2.42-2.8-1.9-2.77-2.65.9-4.84 8.38-5.02 16.88-9.84 25.3-14.8 6.3-3.7 12.94-6.92 18.21-12.19 1.51-1.5 1.98-2.92 1.32-5.17-3.31-11.34-5.63-22.9-5.67-34.76 0-3.18-1.26-3.9-4.02-3.75-2.13.12-4.28.2-6.36-.58-.91-.35-1.42-.86-1.33-1.79.1-1.11 1.14-.73 1.7-.77 2.57-.16 5.11.2 7.5 1.1 2.15.81 2.57-.01 2.53-2-.09-4.2-.18-8.46 1.57-12.41.51-1.15.68-3.27 2.04-3.04 1.16.2 1.12 2.34 1.27 3.62.9 8.22 1.84 16.45 2.47 24.7.7 9.26 2.05 18.41 3.78 27.52.87 4.52 1.66 9.06 3.67 13.57 2.02-2.34 2.41-5.05 3.37-7.46 2.22-5.61 4.13-11.63 3.62-17.47-.65-7.5-.94-15.04-1.85-22.54-1.14-9.5-2.76-18.91-4.37-28.34a17.4 17.4 0 0 1 3.82-14.38c6.71-8.21 15.84-13.16 24.85-18.39a71 71 0 0 0-11.21-10.24c-4.22-3.03-8.56-5.88-12.86-8.78-4.05-2.72-4.31-5.01-1-8.65.52-.55 1.37-.91 1.37-2.24zm14.78 191.18c6.5 1.87 12.95 3.66 19.36 5.6 16.66 5.01 33.56 8.42 51.1 7.56a2.3 2.3 0 0 0 1.64-.67 23.2 23.2 0 0 1 14.83-7.16c9.34-.92 18.3-.33 26.16 5.57.54.4.85 1.12 1.81.82 8.5-2.73 17.45-3.6 25.98-6.2 7.17-2.2 14-5.4 21.28-7.27 1.3-.33 2.03-1.13 1.83-2.65a72 72 0 0 1-.63-6.7 148 148 0 0 1 2.48-32.67c.27-1.47.52-3 2.1-3.82.78-.4 1.37-1.13.72-2s-1.35.12-1.86.35a73 73 0 0 1-18.54 5.38c-.77.13-2.25 1.25-2.62-.25-.34-1.38 1.17-1.98 2.22-2.58.34-.19.81-.13 1.2-.27a230 230 0 0 0 15.9-6.28c2.04-.9 2.5-2.07 2.1-4.06-1.9-9.23-3.68-18.47-5.59-27.68a302 302 0 0 0-10.86-38.84c-2.78-7.91-5.34-15.9-8.04-23.98-17 11.98-36.32 15.87-56.47 16.7-20.24.85-39.89-1.4-58.15-13-1.92 33.77-5.14 67.05-14.7 99.52 1.43.12 2.35.1 3.25.29 7.97 1.7 15.99 3.11 24.15 3.61.73.05 1.48.04 1.72.94.2.7-.35 1.1-.7 1.59-.75 1.06-1.77 1.2-2.97 1.2-7.68-.03-15.44.46-22.97-1.35-3.16-.76-3.55.54-4.07 3.02-2.55 12.04-6.13 23.76-11.66 35.29zm47.36-221.44c.22 1.7.43 3.07-.05 4.46-5.08 14.94-8.72 30.3-13.24 45.42-2.12 7.06-2.06 7.31 4.66 10.75 13.29 6.8 27.68 8.65 42.3 9.28 7.05.3 14.06-.56 21.02-1.78 10.31-1.82 20.15-5.02 28.9-10.83 5.3-3.53 4.62-2.1 1.94-7.8-6.11-13.01-14.24-24.83-22.9-36.28-2.77-3.68-5.17-7.73-5.9-12.12-1-5.96.25-12.03 1.42-17.98.94-4.82 1.82-9.66 2.76-14.67-3.74 1.38-4.69 5.76-9 7.04 2.63-4.3 4.69-8.08 7.14-11.58 2.74-3.91 5.4-8.39 11.52-6 .34.12.83-.02 1.2-.16 10.99-4.1 15.7-14.67 6.94-24.95-2.78-3.26-7.88-4.13-10.38-1.71-3.52 3.4-6.68 7.2-9.94 10.87-.75.86-1.3 1.92-2.66 1.7-1.26-.2-1.35-1.3-1.66-2.25-1.4-4.4-.06-8.48 1.37-12.57.49-1.43 1.93-2.72 1.55-4.21-.7-2.7.26-4.98 1.18-7.33-4.3-.8-4.58-1.3-4.8-5.52-.15-2.61 1.25-4.44 2.43-6.44.39-.66 1.49-1.1 1.05-2-.44-.86-1.49-.4-2.27-.49-7.81-.94-15.82-2.26-21.53-7.85-3.65-3.57-6.06-2.12-9.22-.56-.18.1-.34.24-.52.32-7.14 2.9-14.36 5.33-22.26 4.4-2.8-.32-5.36-.16-7.4 2.42-.93 1.2-2.7 1.73-4.1 2.55-4.31 2.53-9.18 3.31-13.97 4.22-1.72.32-1.57 2.15-1.43 2.2 1.89.7 2.66 3.56 5.76 2.15 3.57-1.63 7.22-.29 9.44 2.33-.95.8-1.79-.75-2.87-.05a158 158 0 0 1-7.58 4.53c-1.17.67-1.53 1.52-1.63 2.9-.27 3.87-.6 7.76-1.3 11.56-1.8 9.81-2.87 19.45.62 29.27 2.7 7.56 4.93 15.15 11.72 20.27.88.66 1.38 1.82 2.23 2.53 3.67 3.1 6.37 7.75 12 7.76 6.17 0 12.31 1.06 18.5.65 1-.06 1.97-.1 3-.4 6.85-2.06 13.75-3.96 20.7-5.92-.77 4.57-4.95 6.16-8.17 8.08-4.27 2.53-9.53 2.65-14.38 3.6-7.26 1.43-14.6 2.36-22.2.2zm164.18 184.49c-.41-1.12-.6-2.03-1.06-2.76-1.64-2.63.05-4.46 1.85-5.54 2.2-1.3 2.81 1.22 3.74 2.52a34 34 0 0 1 2.35 3.93c3.08 5.83 6.12 11.56 11.3 16.03 5.66 4.87 11.33 9.38 18.56 11.93a95 95 0 0 1 30.66 17.87c4.7 4.05 9.61 7.85 14.22 11.99 2.5 2.24 4.4 1.55 6.62-.23 3.1-2.48 6.42-4.63 10.24-5.97 1.28-.46 2.67-.26 2.9.76.47 2.05 2.16 2.1 3.44 2.5 3.32 1 6.6 2.15 9.57 3.9 2.52 1.46 3.28.86 3.98-1.89a62.6 62.6 0 0 1 14.89-27.62c2.8-3 2.86-2.95-.32-5.7-.84-.72-1.72-1.44-2.55-2.16-4.49-3.96-9.53-7.49-12.17-13.13a309 309 0 0 1-7.24-16.46 6 6 0 0 0-3.48-3.52c-5.96-2.7-12.02-5.2-17.83-8.2a328 328 0 0 1-27.33-15.72c-2.22-1.43-4.6-2.6-7.42-4.16 1.47 3.5 2.8 6.35 3.86 9.28.63 1.73 2.13 4.11.08 5.26-1.16.65-2.76-1.72-3.6-3.12-3.64-6-7.26-12.03-10.6-18.2-3.97-7.32-7.7-14.77-11.45-22.21-.73-1.45-1.08-1.86-2.7-.74-2.15 1.5-4.78 2.62-7.5 1.78-5.18-1.61-9.7-4.02-12.1-9.47-1.17-2.64-2.2-5.3-2.59-8.05-1-7.04.72-13.65 5.82-18.6 2.13-2.05 1.63-3.1.62-4.88-.5-.88-1.12-1.7-1.65-2.58a70 70 0 0 0-21.23-22.27c1 5.16.74 9.72.75 14.28.02 7.14-.78 11.5-2.38 13.25-1.02-.76-.83-1.9-.64-2.86 1.18-5.88-.13-11.64-1.05-17.36-.7-4.38-2.87-8.87-2.66-13 .26-5.4-2.27-7.47-6.09-9.53-9.32-5.04-19.14-9.01-28.8-13.35-.58-.27-1.25-1.04-1.88-.18-.7.94.41 1.25.81 1.63 3.8 3.42 7.52 6.9 9.9 11.53.3.61.78.51 1.26.6 2.34.47 2.91 1.52 1.18 3.43-.88.98-1.64 2.06-2.48 3.1-4.24 5.2-9.54 9.47-13.63 15.12 8.45 3.92 15.97 8.82 23.73 13.29 3.27 1.88 5.93 5.24 10.32 4.98.74-.05 1.04.82 1.38 1.66 1.01 2.56-.5 4.93-.13 7.43 1.21 8.39 1.24 16.88 2.4 25.3 1.44 10.28 2.31 20.64 3.16 31 1.02 12.48 2.48 24.89 4.95 37.18 1.28 6.34 1.12 6.36 8.02 7.9zm-39.4.67c-1.79 7.06-2.1 14.16-1.97 21.31 0 .36.28.74.5 1.07 9.4 13.43 15.67 28.45 21.87 43.49a283 283 0 0 1 13.48 42.14c.67 2.78 1.56 4.52 4.66 6.01a20.85 20.85 0 0 1 10.36 25.42c-1.75 4.97-5.66 8.1-9.11 11.64-.79.8-1.61 1.4-1.6 2.77.07 4.93-.14 9.85-.48 14.8-.48 7.02-.97 14.08-2.13 21a738 738 0 0 1-7.45 37.57c-2.2 9.96-4.32 19.97-7.6 29.67-.72 2.1.22 2.93 2.11 2.96 7.76.11 15.5.32 23.18-1.55 16.2-3.92 31.66-9.85 46.82-16.6 10.67-4.73 21.45-9.28 31.32-15.66 1.87-1.2 2.14-2.24 1.53-4.1-10.05-30.99-22.1-61.06-40.2-88.4-6.61-10-13.38-19.89-20.97-29.14-11.7-14.27-23.76-28.26-34.6-43.22-6.53-9.03-11.87-18.81-16.88-28.75-3.18-6.32-6.21-12.79-8.11-19.62a84 84 0 0 0-4.73-12.82zM727.75 648.3c6.22-11.69 13.08-22.17 17.83-33.75 2.1-5.09 3.58-10.55 1.07-15.98a456 456 0 0 0-12.45-25.05c-8.04-14.9-18.08-28.3-29.28-40.92a939 939 0 0 1-16.1-18.58c-6.85-8.14-13.3-16.64-20.4-24.52-10.34-11.46-20.46-23.02-28.62-36.17-5.74-9.24-11.83-18.3-15.87-28.47-6.51-16.4-8.43-33.8-10.5-51.12-1.03-8.61-1.49-17.3-2.58-25.9-1.53-12-2.81-23.97-2.41-36.08.1-3.4.59-6.79 2.08-9.78 1.06-2.15.36-2.73-1.36-3.5-10.07-4.43-19.2-10.55-28.66-16.06-2.66-1.55-2.78-3.2-1.46-5.7 2.32-4.38 5.54-8.06 8.77-11.73 1.22-1.39 3.51-2.61 3.6-4.03.12-1.75-2.6-2.38-4-3.6a187 187 0 0 0-24.87-18.34c-7.78-4.78-15.74-9.29-23.56-14-2.5-1.51-5.12-3.04-5.5-6.45-.07-.6-1.17-1.24-1.25-1a51 51 0 0 0-1.72 6.63c-.1.52-.96 1.25 0 1.83.08.04.2.02.3.06 3.91 1.57 6.63 4.59 9.43 7.57a129 129 0 0 1 24.44 37.76c8.59 20.07 14.59 41.05 20.84 61.92 5.93 19.82 8.6 40.4 13.7 60.4 2.04 8.04 2.64 16.34 6.18 24.15 4.86 10.7 9.6 21.5 14.24 32.3 1.37 3.18 2.25 7.06 4.64 9.14 2.72 2.37 4.86 5.04 7.06 7.78 10.9 13.61 21.89 27.17 32.75 40.83 15.95 20.06 29.46 41.6 39.67 65.17 5.5 12.7 18.23 51.09 21.27 64.76.72 3.25 1.68 6.44 2.74 10.42zM367.43 532.73c-6.98 7.48-13.5 14.58-20.15 21.56a501 501 0 0 0-33.49 38.56c-12.98 16.75-24.63 34.35-33.21 53.8-2.27 5.14-4.38 10.39-5.56 15.97 4.45-7.51 10.35-13.75 16.68-19.6 7.92-7.32 16.03-14.61 26.32-18.34 8.52-3.1 13.79-3.9 17.34 5.74.73 2 2.3 2.79 4.54 3 5.37.51 10.33-.95 15.32-2.51 9.65-3.03 19.24-6.29 28.99-8.97 2.94-.82 2.33-1.76 1.42-3.5-5.93-11.27-10.77-22.89-12.75-35.6a448 448 0 0 1-3.36-29.15c-.61-6.8-.56-13.66-2.08-20.96zM318.3 207.8c2.17-1.48 4.1-2.49 5.63-3.91 1.23-1.14 3.46-1.9 3.33-3.8-.33-4.73-1.13-9.52-3.05-13.83-3.54-7.93-8.4-15.15-13.6-22.12-.93-1.25-1.4-1.36-2.86-.75-10.72 4.5-20.42 10.76-30.13 17.02a680 680 0 0 0-30.31 21.02 388 388 0 0 0-13.39 10.23c-1.84 1.46-2.72 2.86-1.2 5.64 5.42 9.85 12.2 18.76 18.41 28.08 2.46 3.69 5.44 3.92 9.12 1.19 7.04-5.23 13.06-11.73 21.24-15.59 5.1-2.4 9.44-6.44 14.15-9.7.8-.55 1.72-1.04 1.44-2.09-.44-1.6.75-2.18 1.59-3 1.15-1.13 2.33-2.18 3.4-3.42 3.13-3.64 5.76-7.63 8.62-11.45 3.2-4.3 3.03-4.28 7.93-2.57 1.4.5 1.45.9 1.12 2.13-.55 2.12-1.72 4.13-1.45 6.92zm-44.07 99.27c10.67-1.9 20.06-6.2 29.07-11.4 1.08-.61 2.63-.97 2.54-2.72-.28-5.22-.4-10.45-.91-15.64-.39-3.89-.72-7.7.26-11.54 2.89-11.36 4.6-23.08 10.52-33.48.7-1.22-.11-1.58-.83-2.13-1.38-1.05-3.08-2.03-3.26-3.9-.33-3.55-1.25-7.04-.63-10.7.6-3.5.63-7.08.92-10.62-.88.82-1.34 1.7-1.81 2.58-4.06 7.6-6.07 16.12-10.62 23.48-2.89 4.67-6.05 9.17-6.9 14.79-.19 1.2-.26 2.47-.76 3.54-.37.83-.58 2.25-1.87 2.14-1.01-.09-1.2-1.23-1.57-2.07-2.76-6.25-.72-11.5 3.33-16.35l6.5-7.76a29 29 0 0 0-6.32 3.92c-8.77 6.76-18.35 12.3-27.5 18.5-.86.58-2.3 1.64-1.77 2.08 1.78 1.49.26 3 .53 4.41.33 1.66-.06 3.87 1.22 4.85 4.94 3.8 8.7 8.7 12.9 13.19a121 121 0 0 1 7.4 8.97c.73.93 1.37 2.33.04 3.28-1.2.85-1.78-.57-2.44-1.18-1.94-1.78-3.8-3.64-6.11-5.9-.04 10.28-1.25 19.81-1.94 29.66zm180.91-24.64c-.65 3.87-1.79 7.23-2.31 10.75-.24 1.57.28 1.88 1.37 2.47 14.48 7.89 30.2 11.26 46.46 12.03 11.05.52 22.14.4 33.12-1.71 9.34-1.81 18.28-4.67 26.46-9.55 4.37-2.6 4.3-2.72 2.47-7.66-.39-1.04-.83-2.08-1.08-3.15-.48-2.04-1.26-2.02-2.94-.94-12.81 8.23-27.4 10.78-42.12 12.5-7.62.9-15.3.91-23.03.2-14.18-1.31-27.23-5.13-38.4-14.94m41.19 651.53a32.5 32.5 0 0 1-15.87 3.08c-4.01-.27-8.12-.56-12-1.8-1.22-.38-1.24.18-1.06.93 1.85 7.98 1.87 16.19 3.08 24.25 1.11 7.45 6.02 11.34 12.8 10.15 2.49-.44 4.92-1.2 7.39-1.77 1.92-.43 2.67-1.32 2.77-3.52.27-5.59 1.09-11.14 1.62-16.7.46-4.74.83-9.49 1.27-14.61zm24.44-444.83c1.61 0 2.97.13 4.3-.03 5.27-.62 10.27-2.9 12.59-7.38 4.22-8.15 2.03-15.94-4.11-22.63-4.87-5.31-11.2-6.18-17.91-5.86-10.28.49-15.96 4.75-18.94 14.23-1.56 4.96-1.86 10.17 2.58 13.47 6.35 4.72 13.24 8.84 21.49 8.2M396.49 280.8c-5.76-.86-11-1.93-15.9-4.08-1.32-.58-1.87-.04-2.6.65-2.59 2.48-5.27 4.89-7.76 7.48-4.57 4.77-9.03 9.65-13.35 14.29.43.14 1.5.67 2.75.58 3.7-.28 7.34.57 10.84 1.45 3.83.97 6.56.85 9.33-2.59 4.99-6.18 11.23-11.26 16.68-17.79zm76.54-247.45c1.95 1.84 3.35 4.1 4.68 6.38.63 1.07 1.1 1.38 2.4.77 7.35-3.51 14.52-2.34 21.26 1.6 2.33 1.36 2.27-.37 2.4-1.36 1.46-11.04-6.09-15.92-15.05-15.65-6.08.18-11.6 2.92-15.69 8.26M653.3 305.31c-5.21 7.41-4.44 20.65 1.14 27.2 2.93 3.43 7.7 2.8 10.58 1.33 1.26-.64.9-1.27.47-2.2-4.06-8.7-8.08-17.43-12.2-26.33zm-231.28 157.3c1.83 4.38 5.33 5 8.25 5.99 14.22 4.8 28.97 5.92 43.88 5.58.63-.01 1.53.27 1.68-1.03-18.24-.66-35.55-6.31-53.8-10.54m93.78 158.09c-1.02-4.7-1.9-9.45-3.09-14.1a2965 2965 0 0 0-9.61-36.99c-1.25-4.68-2.84-9.27-4.2-13.92-.3-1.05-.77-1.8-1.87-1.5-1.12.3-.67 1.4-.57 2.1.2 1.4.63 2.76 1.02 4.13 5.69 20.19 13.13 39.87 18.32 60.28m-104.5-519.61c.34.04 1.44.25 2.55.29.74.02 1.39-.3 1.44-1.23.05-.91-.55-.91-1.19-.97-3.89-.35-5.76-2.8-6.12-6.38-.17-1.7-1-1.94-2.15-1.6-2.12.62-4.22 1.28-6.03 2.7-1.28 1-1.37 1.61-.28 2.9 2.93 3.44 6.79 4.26 11.78 4.3zm136.5-42.35c1.93-1.25 3.4-2.67 5.16-3.24 3.01-.99 2.66-3.06 2-5.12-1.15-3.6-5.1-5.72-8.78-5.05-1.09.2-1.97.68-1.18 1.8 2.4 3.43 2.86 7.3 2.8 11.6m91.55 486.95c.23-.95-.35-1.38-1.02-1.73-1.35-.7-2.69-1.44-4.07-2.07-2.3-1.04-3.86-.05-5.55 3.52-1.28 2.7 1.78 1.37 2.36 2.42.25.47 1.27.56 1.44 1.01.91 2.47 3.22-.3 4.32 1.23 1.03-1.36 2-2.77 2.53-4.38zm-308.7-353.76c2.02-1.54 4-2.96 5.88-4.48 1-.82 2.46-1.43 1.3-3.35-1.04-1.71-2.18-2.06-3.83-1.21-2.2 1.13-4.4 2.29-6.87 3.58 2.08 1.45 2.34 3.73 3.52 5.46m-88.34 54.2-14.88-20.08c-1 6.57 10.26 17.53 14.88 20.08m320.73 226.55c6.21.1 24.76-7.91 27.76-11.97-9.6 3.55-18.25 8.77-27.76 11.97m55.56 92.13c1.65.13 5.62-2.24 5.8-3.37.08-.53-3.17-4.58-3.73-4.66-1.14-.16-4.52 4.66-4.6 6.74-.1 2.34 2.04.31 2.53 1.3zm-98.43 159.75c3.1-12.7 3.66-28.6.98-31.56.24 10.74-.56 21.16-.98 31.56m106.58-165.07c4.46-4.14 4.63-5.39.99-7.88-.94-.63-1.96-2.09-3.3-.24-.96 1.32-2.28 2.26-.41 3.99 1.14 1.06 1.79 2.67 2.72 4.13m13.06-18.1c.73-1.68-.22-3.11-.47-4.57-.96-5.48-.84-4.93-4.94-2.78-.71.37-2.03.45-1.42 1.84.36.8-.06 1.83 1.42 2.32 1.88.62 3.5 2.01 5.41 3.2m-65.58-346.53c4.6 4.35 11.57 2.32 13.03-3.54-4.17 1.8-8.29 3.22-13.03 3.54m252.37 292.6-.38.4c2.57 2.88 5.12 5.77 7.75 8.6.28.3.17 1.52 1.1.81.61-.47 1.57-1.58 1.45-1.75-1.02-1.45-.67-3.67-2.62-4.57-2.45-1.12-4.87-2.33-7.3-3.5zM359.35 193.89c-3.75-2.8-5.34-2.74-6.74-.04-.68 1.3-.77 2.7.16 4 .73 1.02 1.76 1.43 2.92 1 1.5-.57 1.46-1.96 1.48-3.28.02-1.1-.43-2.6 2.18-1.68m438.48 298.43c-2.37-.75-4.5-1.36-6.57-2.11-.8-.3-1.04-.08-1.35.6-1.59 3.5-.88 4.44 2.98 4.59 2.34.1 3.48-1.26 4.93-3.08m12.54-.6c.55 1.07.49 2.07.4 3.1-.14 1.58-2.46 3.68-.09 4.62 2.77 1.1 2.5-2.19 3.15-3.6 2.03-4.33 1.9-4.39-3.47-4.12zm-367.03 11.05c6.3 5.57 13.41 9.88 20.42 14.36l.44-.66-20.85-13.7zM590.11 97.03c-.09 3.58-.44 6.6-1.93 9.65 1.4-.33 2.62.52 3.5-.62 1.39-1.84.7-6.81-1.57-9.03m-18.27-9.9c-2.22 3.2-3.62 8.15-3.42 11.75 2.38-2.17 3.62-6.26 3.42-11.76m59.84 437.36c-.7 1.31.16 2.05.3 2.94.61 4.21.64 4.2 4.73 2.93-1.03-2.44-3.1-3.95-5.03-5.87m-9.2 47.04h-8.78c2.82 3.3 6.9 3.32 8.78 0M428.62 181.09c2.83-2.47 5.98-2.08 9.23-2.13-4.2-2.84-7.78-2.12-9.23 2.13m-153.69-6.68 6.8-4.43c-3.27-1.69-5.53-.28-6.8 4.43M539.16 64.78c-3.22 2.64-3.87 5.68-4.53 9.65 2.15-3.3 4.14-5.72 4.53-9.65M411.83 91.21a6 6 0 0 0 .63 4.68 1.8 1.8 0 0 0 2.4.72c.93-.47.3-1.3-.02-2.07-.57-1.4-1.71-2.17-3-3.34zm29.29 79.6c-1.13-1.71-2.84-2.57-4.5-3.4-.65-.32-1.73-.55-2.1.49-.4 1.12.37 1.64 1.38 1.92 1.7.46 3.54.26 5.23 1zm-9.26 17.74c1.03 1.4 2.45.89 3.57.72 1.26-.2 1.17-1.54.82-2.48-.46-1.24-1.18-.55-1.83-.07-.8.61-1.64 1.17-2.56 1.82zM403.65 75.98c-4.4 1.08-8.08 4.66-8.35 7.75 1.97-3.26 4.7-5.48 8.35-7.75m203.78 478.05.25.8 7.52-2.41c-3.2-.41-5.66-.1-7.76 1.61z"/><path fill="#000" d="M283.51 322.18c0 1.54.04 3.1-.02 4.64-.02.63.45 1.65-.63 1.73-.76.06-1.17-.68-1.35-1.45-.89-4.08-1.82-8.16-1.7-12.37.04-1.58.66-1.8 1.91-.86a4.2 4.2 0 0 1 1.8 3.97c-.11 1.44-.02 2.89-.02 4.34zm219.52 59.67c-3.1.88-5.9-.84-8.8.21-1.11.4-1.68-.07-1.24-1.5a104 104 0 0 1 6.44-15.62c.69-1.37 1-2.15-1.12-2.13-2.45.02-4.92.32-7.37-.24-1.63-.37-1.98-.92-1.35-2.62 3.3-8.9 6.45-17.85 9.57-26.81a60 60 0 0 0 2.19-7.97c.4-2 1.3-2.69 3.32-2.57 7 .4 14-.06 20.95-.7 3.6-.32 7.3-.36 10.84-1.6a8 8 0 0 1 6.36.2c-4.55 9.26-10.7 17.68-14.98 27.56 5.1 0 9.9-.02 14.7.01 1.08.01 2.47-.63 3.12.58.6 1.1-.41 2.09-1.06 2.95a43 43 0 0 1-6.86 7.05 57 57 0 0 0-9.01 9.27c-.98 1.3-.68 1.6.69 1.98 2.84.8 5.72.19 8.58.38 1.03.06 2.25-.18 2.79.87.5 1-.61 1.69-1.16 2.32-2.43 2.79-5.95 4.21-8.62 6.74-7.14 6.76-15.32 12.23-23.01 18.3-4.95 3.9-10.38 7.2-15.6 10.77-.32.22-.58.6-1 .19-.75-.73.1-1.02.4-1.45 5.43-7.87 7.7-17.08 11.24-26.16zm-2.58-250.25c5.25.45 10.22 1.39 13 6.6.43.8.96 1.52.16 2.44-.73.83-1.54.94-2.48.64q-2.46-.79-4.9-1.62c-6.16-2.14-12.38-1.88-18.65-.48-1.03.23-2.63 1.36-3.25-.1-.55-1.3.86-2.15 1.92-3.04 4.15-3.52 9.15-4.12 14.2-4.45zm-32.23 40.53c3.03.35 5.93-.34 8.72.7.96.35 2.14 1.14 1.95 1.64-.5 1.28.16 2.93-1.14 3.88-4.43 3.26-13.88-.07-15.2-5.4a6 6 0 0 1 1.37-5.7c.81-.9 1.69-1.62 2.92-1.21 1.32.44 1.81 1.55 1.72 2.9-.08 1.02-.21 2.03-.34 3.18zm36.73-18.27c-.4 2-2 2.61-3.53 3.06-1.76.5-3.18 1.1-3.17 3.24 0 .88-.63.94-1.28.89-2-.16-6.96-4.85-7.11-6.9s1.99-2.82 2.85-4.35c.51-.92 1.72-.61 2.68.08 1.94 1.4 4.36.33 6.48 1.16 1.51.6 2.32 1.67 3.08 2.82m-20.38 36.9c-2.47 3.84-6.2 3.6-9.4 4.3-1.76.38-3.67.24-5.49.09-1.33-.11-3.66.72-3.45-1.7.15-1.75 1.81-3.23 3.74-3.2 3.75.07 7.55-.64 11.28.47.84.25 1.83.04 3.32.04m-37.2-34.43c3.1-2.45 6.3-3.52 9.88-3.23 1.71.13 2.36 1.67 2.55 3.01.25 1.89.36 4.17-1.43 5.3-1.26.8-3.55 1.16-4.43-.53-1.38-2.66-4-3.1-6.57-4.55m90.48 8.34a8 8 0 0 1 4.89-6.55c2.64-1.24 5.09.04 7.34 1.41.5.3 1.12 1.12.58 1.84-.51.69-1.13.1-1.57-.25-1.06-.84-1.99-.82-3 .1-1.14 1.04.12 1.75.23 2.62.1.71 1.4 1.35.36 2.07-.63.44-1.37-.1-1.85-.7-1.43-1.72-1.98-.18-2.58.75-.62.95-1.15 2.16-2.47 1.8-1.47-.4-1.64-1.87-1.93-3.09m183.71 252.74c.59 2.75 2.45 4.66 3.74 6.9.34.59 1.6.96.55 1.9-.74.65-1.44.31-2.19-.25-2.89-2.21-5.05-5.07-7.17-7.96-1.91-2.62-4.17-4.99-5.6-7.96-1.25-2.62 0-4 2.72-4.61 4.37-.99 6.7 1.9 9.2 4.16 4.58 4.14 8.76 8.7 13.18 13.04 1.74 1.7 1.4 2.56-.83 3.18-1.63.45-2.97 0-4.3-.89-3.33-2.2-6.18-5-9.29-7.5zm8.56 27.75c-.58-1.09-1-1.72-.46-2.96a83 83 0 0 1 15.52-23.89c.28-.3.54-.67.9-.84 1.1-.53 2.16-2.2 3.45-.8 1.01 1.1-.37 2.28-.95 3.06-4.2 5.64-8.94 10.88-12.88 16.73-1.87 2.77-3.62 5.62-5.58 8.69zm11.96 6.04c.97-.22 2.08 1.2 3.46 1.97 1.13.62 3.06 1.5 2.52 2.53-.68 1.29-2.64.74-4.06.15-1.2-.5-2.44-.95-3.6-1.55-.85-.43-2.2-.7-1.82-2.05.37-1.36 1.69-.74 3.5-1.05M271.12 222.3c0 4.91-5.62 11.59-9.93 11.1-6.22-.7-11.8-4.35-11.71-12.7.07-6.64 4.6-10.74 11.05-11.04 5.19-.24 10.6 6.42 10.6 12.64zm-9.05-7.51c-3.84-.06-8.2 5.65-7.24 9.45 1.09 4.3 2.28 5.37 5.56 4.89 3.3-.5 5.46-2.54 7.02-5.35 2.3-4.12-.56-8.93-5.34-9zm54.61-31.33c-.5-.4-1.06-.72-1.45-1.16a27 27 0 0 1-4.18-6.3c-.95-1.96.54-2.61 1.65-3.37 1.41-.97 2.06.27 2.5 1.29a123 123 0 0 1 2.86 7.29c.41 1.17-.25 1.92-1.38 2.25m4.11 1.72c1.62.73 1.52 2.52 2.2 3.75.64 1.16-.22 2.68-1.49 2.73-1.72.06-1.78-1.7-2-3.02-.24-1.35-.16-2.61 1.28-3.46zm177.9 287.37c7.1 1.91 13.76.69 20.4.25-6.55-1.12-13.12-2.11-19.78-1.5-.88.09-.98-.04-1.04-.76a6 6 0 0 1 1.88-5.28c6.77-6.46 14.88-7.99 23.77-6.33 3.79.7 6.96 2.84 9.79 5.34 2.51 2.23 2.93 5.26 1.71 8.37-2.51 6.42-8.83 11.21-18.27 9.88-4.7-.66-9.23-1.27-13.25-3.92a13.3 13.3 0 0 1-5.2-6.05"/></svg>