<svg xmlns="http://www.w3.org/2000/svg" width="1080" height="1080" fill="none" viewBox="0 0 1080 1080"><path fill="#fff" d="M171.13 466.39c4.2-6.5 8.37-13.08 15.62-16.59 7.44-3.6 14.87-7.36 22.64-10.08 5.35-1.87 11.24-2.23 16.93-3 10.34-1.38 20.71-2.56 31.06-3.82-3.4-8.43-5.56-18.05-11.62-25.94l-2.95-3.97a.4.4 0 0 0-.28-.28q-1.32-1.61-2.66-3.21c-.77-2.49-2.3-1.04-3.59-.66-4.25 1.24-8.43 2.85-12.75 3.71-8.06 1.6-17.37-6.2-20.17-13.7-.9-2.4-1.68-4.85-2.53-7.28l-.75-3.7c.04-4.27-.07-8.55.16-12.8.16-2.94.57-5.88 1.24-8.73.54-2.28.05-3.88-1.44-5.67-4.04-4.82-8.2-9.6-11.61-14.85-2.25-3.45-3.44-7.61-4.8-11.55-1.05-3.05.4-6.85 3.21-8.71 1.18-.79 1.29-1.26 1.3-2.75.1-7.37.58-14.74 1.13-22.1.34-4.35 1.46-8.67 1.56-13.02.2-8.7 2.15-16.98 4.9-25.15 1.13-3.31 1.87-6.76 2.79-10.15l1.57-3.78c3.46-4.76 6.74-9.67 10.43-14.23 2.45-3.04 5.76-5.39 8.21-8.42 6.09-7.53 15-9.77 23.33-13.3 6.01-2.55 12.36-3.17 18.63-4.37 4.76-.92 9.35-2.66 14-4.12 7.2-2.27 14.24-5.24 21.59-6.74 7.79-1.6 15.87-2.6 23.8-2.45 8.11.16 16.23 1.84 24.28 3.24 5.58.98 11.06 2.59 16.57 3.96a58 58 0 0 1 23.5 11.95c13.55 11.37 24.97 24.63 33.2 40.34 2.8 5.34 4.3 11.37 6.23 17.14a738 738 0 0 1 7.42 23.4c.7 2.4.94 5 .97 7.5.11 9.12.53 18.28-.15 27.35-.38 5.07-2.74 9.98-4.13 15a895 895 0 0 0-4.8 17.88c-1.77 6.94-5.43 12.85-9.9 18.31-2.42 2.97-2.74 6.27-2.48 9.95.5 7.03 2.23 14.22-.29 21.07-1.52 4.16-4.3 7.85-6.52 11.76-5.99 10.52-15.08 17.25-26.17 21.66-1.9.76-3.54 2.29-5.19 3.6-1.47 1.18-1.52 2.43.38 3.26 8.93 3.9 17.9 7.77 26.82 11.69 5.87 2.58 12.23 2.24 18.37 3.24 7.26 1.2 14.32 3 18.67 10.15 5.8 9.53 12.2 18.69 18.03 28.2 2.3 3.77 3.72 8.07 5.54 12.13l.88-.24q-.87 1.33-1.79 2.64c-2.84 4.05-3.7 8.6-3.76 13.48-.05 5.74-.77 11.5-.47 17.21.32 6.35 1.5 12.64 2.24 18.96.51 4.34.68 8.74 1.41 13.05a387 387 0 0 0 4.45 22.4c.4 1.72 2.7 2.95 3.32 4.7 2.12 6.1 3.85 12.34 5.78 18.51 1.84 5.9 3.21 12.02 5.73 17.62 3.61 8.02-2.05 13.65-8.52 12.93-1.65-.18-3.37.34-5.1.55.85 2.37 1.36 3.81 4.78 3.33 7.66-1.07 15.48-.94 23.21-1.48 7.2-.49 14.36-1.19 21.54-1.86.67-.06 1.3-.55 2.17-.95-.58-.49-.77-.8-1-.84-3.91-.69-5.1-2.76-3.15-6.07a13 13 0 0 1 3.88-4.27c3.18-2.12 6.35-.21 6.63 3.73.21 3.19 3.12 6.02 6.28 5.93 5.31-.16 10.69.4 14.01 4.8a40 40 0 0 1 6.16 12.48c1.83 6.22 2.64 12.72 3.9 19.17 1.65-.62 3.1-1.23 4.6-1.73 3.7-1.25 6.1-.45 8.22 2.67 1.42 2.1.28 7.16-2.03 8.22-5 2.3-7.11 6.43-7.06 11.6.05 4.35 1.05 8.69 1.06 13.04.02 7.17-.36 14.34-.7 21.51-.22 4.73-.67 9.45-1.04 14.17-.18 2.33-.3 4.67-.7 6.96-.1.63-1.04 1.47-1.72 1.6-5.04.92-10.1 1.95-15.2 2.46-9.92 1-19.88 1.7-29.83 2.5-3.35.26-6.71.38-10.06.65-9.43.78-18.85 1.62-28.29 2.41-5.26.45-10.54.81-15.8 1.31-8.28.77-16.55 1.67-24.84 2.43-5.37.5-10.77.85-16.16 1.27-10.34.8-20.67 1.89-31.04 2.33-7.14.3-14.33-.29-21.5-.46-1.92-.04-3.78-.37-5.11 1.85-2.36 3.94-6.95 4.06-10.7 5.54-7.08 2.8-14.59 3.55-22.09 4.36-4.19.46-8.36 1.06-12.84 1.63 2.18 1.48 1.59 3.03 1.26 5.32-.5 3.53-4.4 1.89-4.77 4.86 3.19 4.39 7.64 7.64 13 9.87 6.82 2.84 13.52 5.97 20.32 8.87 2.23.95 1.45 2.6 1.28 4.11-.1.91-.39 1.8-.44 2.03-2.1 1.03-3.97 2.1-5.96 2.86-.9.35-2.1.36-3.04.11-10.65-2.82-20.26-7.77-29.16-14.21-1.93-1.4-4.14-2.43-6.2-3.68-4.47-2.7-4.66-3.36-2.31-7.87-3.85-4.9-9.55-6.65-15.07-8.44-9.6-3.1-19.66-4.84-28.89-9.18-6.12-2.89-12.24-5.83-18.52-8.33-6.14-2.45-12.51-4.3-18.73-6.55-4.84-1.75-9.55-3.91-14.43-5.54-7.3-2.43-14.7-4.53-22.04-6.82-7.3-2.3-14.63-4.56-21.89-7-12.72-4.26-25.41-8.65-38.12-12.98-1.28-.44-2.82-1.46-3.04 1.1-2.1-.33-4.72.03-6.2-1.11-3.6-2.77-6.45-6.46-6.66-11.29-.44-9.9 3.53-18.29 9.29-26.07 2.73-3.69 4.9-7.78 7.57-11.51 2.35-3.3 5.03-6.38 7.67-9.68-.14-.15-.77-.52-.75-.84.27-4-1-6.52-4.18-9.2a7 7 0 0 1-2.23-3.75c-1.12-6.14-2.18-12.41 1.24-18.18 1.82-3.07 4.26-5.76 6.38-8.66 1.2-1.64 2.81-3.2 3.36-5.05 2.82-9.6 5.59-19.23 7.93-28.95 2.2-9.18 3.87-18.5 5.76-27.76 1.1-5.4 2.24-10.8 3.24-16.23 1.46-7.94 2.76-15.93 4.22-23.88.56-3.06 1.38-6.07 2.1-9.1q.13-1.28.3-2.56l4.27-19.8.62-4.34 6.35-20.85 1.86-3.88 3.85-6.76 1.69-2.54zm286.19 187.54-.6-2c-8.3.55-16.83-.45-23.83 5.6 8.07-1.2 16.14-2.39 24.43-3.6m386.5-186.53q-14.3.91-28.6 1.88c-9.48.66-18.98 1.14-28.43 2.14-5.98.64-11.85 2.2-17.81 3.14-5.82.91-11.65 1.8-17.51 2.29-7.4.62-14.84.9-22.26 1.2-1.9.07-3.83-.62-5.73-.53-6.74.31-13.48.77-20.21 1.29-.76.05-1.8.72-2.12 1.39-1.18 2.52-3.32 1.86-5.02 1.4-3.42-.93-5.5-3.52-7.32-6.5-2.56-4.2-5.72-8.02-8.15-12.27-3.18-5.54-6.07-11.38-3.23-17.98a14 14 0 0 1 4.06-5.37c6.88-5.4 14-10.5 20.95-15.84a19 19 0 0 0 3.98-4.21c2.96-4.37.74-8.75-1.09-12.49-2.7-5.5-6.29-10.6-9.79-15.66a68 68 0 0 1-11.44-28.14c-.87-5.48-.92-10.98.74-16.41.5-1.6.48-3.38.57-5.08.45-8.35 1.3-16.7 1.14-25.04-.14-6.91-1.2-13.86-2.44-20.68-.47-2.57-3.07-4.68-3.84-7.26-1.53-5.14-7.22-7.56-7.9-13.26-.65-5.42 1.13-10.26 2.88-15.08 3.52-9.73 9.02-18.4 14.92-26.85 6.24-8.95 11.92-18.31 18.38-27.1 7.77-10.55 17.27-19.26 29.06-25.41 9.22-4.8 19-7.3 29.18-8.58 10.24-1.28 20.54-2.19 30.72-3.8 11.5-1.82 20.86 2.47 29.32 9.4 13.2 10.8 23.05 24.42 31.93 38.84 5.8 9.4 12.26 18.38 17.8 27.92 6.17 10.6 11.53 21.67 17.47 32.4a65 65 0 0 0 7.67 11.41c8.68 9.94 17.96 19.29 28.74 27.03 4.01 2.88 8.33 5.49 11.85 8.9a48.8 48.8 0 0 1 14.77 29.44c.98 7.47 2 15.07 1.64 22.56-.59 12.05-3.05 23.83-9.6 34.33a67 67 0 0 1-15.78 17.11c-8.2 6.39-16.6 12.53-24.9 18.8-4.18 3.17-8.19 6.61-12.53 9.55-6.33 4.29-13.66 6.21-21.06 7.56-7.25 1.3-14.59 2.16-21.9 3.14-3.01.4-6.06.56-9.08.84zm159.32 380.82c1.03.2 2.06.48 3.09.53.63.04 1.38-.14 1.9-.48 5.3-3.53 10.56-7.12 15.36-10.37 2.27 1.34 3.83 2.16 5.3 3.12 2.96 1.93 1.44 4.73 1.02 7.07-1.15 6.4-2.66 12.75-3.99 19.13-.13.58-.18 1.42.13 1.81 3.08 3.81 7 7.17 9.22 11.42 3.27 6.26 10.02 9.8 12.2 16.69.52 1.62.78 3.33 1.43 4.89.6 1.4-.09 3.63 2.55 3.96.46.05.69 2 1.06 3.18l2.43 1.53c-.67.88-1.25 1.83-2.02 2.6-4.65 4.66-10.98 5.05-16.88 6-6.67 1.09-13.37 1.94-19.62 4.58-10.44 4.4-21.22 5.1-32.3 3.62-5.8-.77-11.85-.64-17.38-2.28-6.73-2-13.11-5.27-19.48-8.32a125 125 0 0 0-30.67-9.86c-3.74-.71-7.5-1.67-11.26-1.73-4.22-.07-8.46.74-12.69 1.18-5.55.59-11.08 1.22-16.64 1.74-2.92.28-5.86.4-8.7.57-1.6 4.95-5.03 7.75-9.9 7.44-8.98-.6-17.93-1.56-26.9-2.33-3.44-.3-6.9-.55-10.36-.65-12.45-.39-24.69-1.84-36.2-7.13-6.14-2.83-12.57-1.16-18.9-.78q-2.88.17-5.76.43-13.05 1.19-26.1 2.44c-4.04.4-8.09.78-12.1 1.32-7.8 1.05-15.64 1.94-23.37 3.41-9.27 1.76-18.47 3.54-28 3.44-8.5-.09-17.02.2-25.52.61-7.83.4-15.64 1.42-23.47 1.66-2.4.08-5.29-.98-7.19-2.48a12.5 12.5 0 0 0-8.3-2.86c-5.8.12-11.6.59-17.37 1.18-7.17.75-12.98-1.67-18.47-6.25-7.1-5.9-12.3-12.9-15.36-21.57-1.27-3.6 1.07-11.18 4.12-13.69 9.03-7.44 20.05-10.09 30.96-12.95a580 580 0 0 1 20.46-4.97c4.4-.98 8.86-1.62 13.28-2.5 1.87-.38 3.8-.57 4.13-3.33.14-1.17 1.5-2.7 2.66-3.18 4.7-1.92 8.01-5.35 11.2-9.07 1.6-1.87.26-3.28-.6-4.56-3.8-5.59-8.02-10.92-11.6-16.64-4.5-7.19-8.98-14.45-12.64-22.07a223 223 0 0 1-10.05-24.93c-4.6-13.53-3.58-26.78 4.83-38.62 4.44-6.25 11.33-9.51 18.8-11.22 8.07-1.85 16.24-3.26 24.55-2.48 8.88.83 17.87 1.42 26.56 3.28 12.6 2.7 25.07 6.08 37.4 9.85 12.1 3.72 23.99 8.21 35.9 12.52 21.94 7.91 44.08 15.11 66.82 20.36 12.89 2.98 25.8 5.9 38.64 9.09 7.64 1.9 15.1 4.53 21.65 9.04 10.49 7.23 12.3 15.08 7.03 26.77-2.6 5.8-6.22 11.13-9.19 16.77-3.08 5.86-5.3 11.87-3.49 18.75 1.08 4.07-2.13 7.71-7.24 8.77.8.4 1.8.56 2.15 1.12 2.23 3.63 5.77 2.86 9.08 2.88 11 .08 21.72-2 32.55-3.55 12.2-1.75 23.53-6.22 35.23-9.53 7.23-2.05 14.83-2.77 22.22-4.28 7.73-1.59 15.19-.2 22.5 1.98 4.63 1.36 8.74 3.8 10.75 8.68l.54-.76z"/><path fill="#fff" d="M745.83 510.38c6.72-4.57 13.94-9.43 21.1-14.38 5.09-3.51 9.93-7.41 15.19-10.66a93 93 0 0 1 14.93-7.68c5.24-2.05 10.84-3.2 16.32-4.62 2.13-.55 4.36-.96 6.55-1 5.8-.14 11.68-.64 17.37.13 7.35.99 14.6 2.9 21.8 4.73 10.6 2.7 18.14 9.63 24.8 17.97 3.65 4.59 7.7 9.04 12.26 12.72 5.58 4.5 9.68 9.55 11.42 16.6.8 3.2 2.42 6.18 3.67 9.26l.9-.26q-.11-1.6-.18-3.2a13 13 0 0 1 0-1.55c.16-1.95 4.64-6.9 6.5-7.76 2.12-.98 3.31-.31 4.02 1.63 2.3 6.26 4.77 12.47 6.74 18.83 4.09 13.16 7.42 26.57 11.98 39.56a68 68 0 0 0 14.7 24.05c.76.8 1.42 1.72 2.03 2.64 2.86 4.34 7.2 5.88 12 5.6 6.3-.38 11.17 2.9 16.38 5.43 1.06.52 2.29.87 3.14 1.63 2.42 2.14 5.88 2.63 7.34 6.55.86 2.3 4.91 3.48 7.59 5.03 3 1.74 3.6 3.22 2.25 6.27-1.15 2.6-3.15 3.2-6.27 2.44-7.03-1.71-13.87-3.87-19.84-8.13-2.65-1.9-5.15-4-7.77-6.06-2.3 3.59-4.1 3.87-6.23 1.58a579 579 0 0 0-10.55-11.16 98 98 0 0 1-23.1-37.9c-1.05-3.19-2.13-6.36-3.32-9.9-1.55 2.03-3.04 3.91-5.5 1.7-.52.6-1.6 1.36-1.48 1.77 1.01 3.58-2.13 4.62-3.86 7.33.55.8 1.54 2.06 2.31 3.43 3.64 6.4 7.54 12.7 9.08 20.07 1 4.8 1.62 9.52-1.38 13.95-2.52 3.72-6.45 3.22-10.1 3.39-1.66.07-3.35-.5-5.15-.2 1.05.3 2.15.5 3.13.94.67.3 1.72 1.16 1.63 1.47-.8 2.6.16 5.95-2.41 7.72a8 8 0 0 1-5.31 1.17 745 745 0 0 1-27.3-4.98c-9.38-1.9-18.78-3.76-28.06-6.12-6.93-1.76-14.07-3.2-20.16-7.31-1.06-.71-1.54-2.28-2.28-3.46-.64-1-1.36-1.98-1.87-3.05-.7-1.51-1.25-3.1-1.72-4.26 1.06-1.14 2.4-1.92 2.6-2.92.52-2.81 2.4-2.92 4.4-2.5a824 824 0 0 1 19.69 4.44c11.1 2.62 22.15 5.46 33.28 7.9 3.34.74 6.9.63 10.34.68 7.58.08 15.16.02 22.94.02a29 29 0 0 0-4.34-12.16c-6.28-9.93-12.53-19.88-18.84-29.9-9.96 8-21 13.69-33.47 16.25a109 109 0 0 1-13 1.66c-8.63.71-17.28 1.24-26.71 1.9.72 6.05.87 11.45 2.1 16.6 2.84 11.93 6.45 23.67 9.28 35.61 1.56 6.63 2.54 13.45-.3 20.19a18.8 18.8 0 0 1-8.3 9.28 42 42 0 0 1-21.06 5.7c-14.54.15-27.21-4.88-39.19-12.49-4.8-3.04-9.74-5.85-14.38-8.63-1.78 1.26-3.28 2.32-4.76 3.4-2.24 1.63-4.32 1.9-6.58-.17-1.67-1.52-3.93-.55-4.18 1.64-.27 2.31-.44 4.64-.63 6.95-.2 2.31-1.2 3.98-3.45 4.89-.65.26-1.22.92-1.67 1.51-2.57 3.35-4.12 7.36-7.73 10.07-1.7 1.28-1.92 4.36-3.3 6.26a125 125 0 0 1-7.91 9.51c-1.05 1.17-2.46-.02-3.57 0-3.7.1-4.3-4.62-7.82-4.6-.23 0-1.09-2.77-.58-3.63a873 873 0 0 1 15.64-25.78c1.6-2.55 3.83-4.7 5.57-6.8-3.61-2.94-7.05-5.58-10.3-8.43s-8.84-3.3-12.06-.62l3.34 9.64c-4.34 1.3-6.3-1.08-8.1-4.07l-9 7.22c-2.23-.92-3.61-1.79-5.1-2.04-3.26-.53-3.55-3.11-3.27-5.28.64-4.95 1.81-9.84 2.84-14.74.33-1.55.75-3.13 1.45-4.54.52-1.02 1.51-2.45 2.38-2.51 3.11-.25 6.47-1.12 9.1 1.6 1.17 1.21 2.24 2.52 3.53 3.57.65.53 1.72.87 2.55.79 8.6-.79 15.77 2.35 22.13 7.84.37.32.9.43 1.48.68l2.7-5.19c-4.21-2.36-8.32-4.84-12.58-7.01-7.64-3.88-14.2-9.2-20.14-15.23-3.15-3.2-6.98-5.08-11.02-6.19-2.18-.59-4.92.47-7.31 1.13-14.88 4.05-29.7 8.39-44.62 12.25-7.19 1.86-14.58 2.98-21.9 4.26-1.88.34-2.75 1-2.5 2.94.1.7 0 1.44.03 2.16.2 5.2.19 5.23-4.77 6.56-2.64.7-7.21-1.09-8.43-3.44-1.06-2.03-2.36-4.07-2.79-6.26-.5-2.6-2.12-3.84-4.12-4.87-9.38-4.82-18.8-9.58-28.2-14.37-5.11-2.6-6.75-7.45-7.95-12.53a53 53 0 0 1-1.28-6.83c-.24-2.34-1.61-2.67-3.4-2.2-11.84 3.1-23.5 2.1-34.83-2.04-10.25-3.73-11.67-13.45-4.96-20.92 7.94-8.86 18.04-12.06 29.47-12.41a310 310 0 0 0 12.92-.68 2.5 2.5 0 0 0 1.73-1.21c3.28-7.13 9.63-9.8 16.65-11.02 4.5-.79 9.14-.7 13.9-1.03l-1.07-4.12.68.12c.34-1.48 1.25-3.1.92-4.42-.81-3.35-.91-6.35 1.55-9.08 2.97-3.3 6.17-6.2 10.96-6.31 2.78-.06 5.6.22 8.35-.08 2.35-.26 4 .85 4.82 2.52 2.13 4.33 5.49 8.2 5.52 13.4v2.15l8.45.74c-.55-2.31-1.48-4.3-1.4-6.25.18-4.48 5.38-8.71 9.97-8.8 6.53-.13 10.99 3 14.4 8.3 1.3 2.02 3.1 3.77 4.89 5.42.35.32 2.24-.18 2.48-.72 3.96-9.11 10.45-9.49 18.45-8.28 4.05.62 7.89 2.5 11.89 3.57 2.23.6 4.6.71 6.9.99.36.04 1.03-.06 1.11-.27 1.1-2.76 3.85-2.2 5.87-2.7 4.56-1.1 9.25-2.36 13.86-2.31 3.1.03 7.07-.97 9.56 2.54.38.53 1.4.9 2.1.86 2.24-.15 4.46-.54 6.7-.8 1.9-.23 2.07-1.3 1.87-3.03-.44-3.85-.47-7.74-.89-11.6-.23-2.2.43-4.18 2.3-4.85 1.6-.58 3.62-.03 5.46.1 1.5.1 3 .33 4.5.51zM56.93 933.95c-9.92.43-16.46-4.9-22.04-12.22-4.77-6.25-8.08-13.2-9.47-20.88-1.29-7.09.93-13.41 5.34-19.1 1.87-2.41 3.25-5.22 4.93-7.8 1.75-2.7 3.37-5.52 5.44-7.95 6.2-7.26 12.68-14.28 18.88-21.54a16.3 16.3 0 0 1 9.49-5.44 192 192 0 0 1 31.85-3.85c8.45-.3 15.92 2.9 23.69 5.17 4.08 1.2 8.17 1.8 12.5 1.87 9.9.18 19.76 1.04 29.64 1.71 4.76.32 9.53.7 14.26 1.28 8.85 1.1 17.86 2 25.83 6.35 6.44 3.52 10.12 9.17 10.93 16.76.85 8.03-2.9 14.4-6.64 20.85-3.91 6.75-9.17 12.32-15.25 17.17-4.23 3.38-9.27 4.58-14.34 5.66a1815 1815 0 0 1-29.8 6.02 2691 2691 0 0 1-30.48 5.76c-8.21 1.5-16.43 2.99-24.67 4.3-11.04 1.76-22.1 3.35-33.16 4.99-2.3.34-4.61.6-6.92.9zm357.53-71.08c1.72-.43 2.47-.7 3.23-.79 1-.12 2.69-.48 2.94-.06 2.82 4.67 6.55 1.34 9.49.8 12.6-2.28 25.1-5.13 37.64-7.75 7.84-1.63 15.67-3.33 23.55-4.74 6.18-1.1 12.43-1.82 18.65-2.68 6.36-.89 11.05 2.45 15.49 6.26 4.52 3.88 7.39 8.94 9.94 14.22 3.68 7.63 7.5 15.2 11.09 22.88 2.76 5.9 1.9 11.93-.9 17.43a106 106 0 0 1-9.3 14.85c-2.87 3.9-7.31 4.6-11.96 3.78-3.85-.69-7.7-1.83-11.55-1.93-3.92-.1-7.84 1.05-11.78 1.25-4.24.23-8.52.15-12.77-.09-3.83-.22-7.64-.72-11.43-1.3-7.72-1.2-15.5-2.22-23.13-3.87-11.8-2.55-23.45-5.82-35.26-8.3-6.63-1.39-13.45-1.85-20.19-2.65a7.05 7.05 0 0 1-6.17-6.63c-.15-3.46-.46-6.92-.58-10.38-.05-1.47.2-2.95.32-4.75-2.61.2-2.76 2.56-3.75 4.22-.9.07-2-.1-2.89.24-4.12 1.65-9.02-.99-8.99-5.3.02-1.58 1.46-3.32 2.6-4.68 3.6-4.29 8.5-6.66 13.59-8.64 1.57-.62 2.44-1.42 2.9-3.29 1.4-5.72 3.16-11.37 4.91-17 .36-1.17 1.3-2.15 2.52-2.97l-2.43 15.6 1.32.33c1.37-3.95 2.81-7.89 4.07-11.87 1.73-5.43 5.89-7.37 10.5-6.74 1.73.23 3.08 1.33 2.36 3.43-1.2 3.46-2.49 6.88-4.03 11.12m-16.28 29.36 2.87-10.24c-5.1 2.76-2.79 6.85-2.87 10.24M865.3 680.7c10.03 2.78 20.01 5.66 30.07 8.25 2.81.73 5.92.31 8.76.97 1.77.42 3.4 1.74 4.85 2.94.52.42.73 1.95.37 2.5a3.4 3.4 0 0 1-2.53 1.2c-3.35-.1-6.74-.2-10.03-.75a481 481 0 0 1-22.2-4.23c-12.16-2.63-24.27-5.51-35.82-10.28-3.54-1.46-5.38-3.83-4.5-5.57.64-1.32 5.07-1.98 7.3-1.32 5 1.48 10.01 2.93 15.08 4.16.86.2 2.03-.66 3-1.14 2.83-1.4 5.76.3 5.65 3.29z"/><path fill="#000" d="m284.33 193.36-18.84 4.3-.41-.5c.96-.85 1.79-1.97 2.9-2.5 3.76-1.74 7.61-3.29 11.43-4.9l3.09-.77 16.09-3.71 5.64-.97c6.09-.47 12.18-1.23 18.27-1.3 4.83-.07 9.65.74 14.49 1.1 1.63.12 3.28.05 4.92.06l2.48.5c6.9 2.01 13.95 3.64 20.67 6.13 13.4 4.98 25.27 12.49 35.2 22.89.63.65 1.45 1.11 2.18 1.66l1.96 2.29c14.02 16.08 22.6 34.84 27.28 55.52 2.77 12.2 4.87 24.47 5.05 37.25h8.95c2.4-.01 4.4.64 5.4 3.07 1.01 2.43 1.03 4.68-1 6.65-.59.57-1.1 1.23-1.7 1.8-3.19 2.97-3.96 6.55-3.9 10.91.05 4.1-1 8.27-4.3 11.46-5.8 5.58-7.66 13.36-11.03 20.3q-.42.84-.87 1.63l-2.26 3.58-6.43 6.26c-.96.92-1.67 1.48-1.17 3.34.8 3.04.55 6.37.74 9.57l-.4 1.9L414.9 405l-1.68 3.21c-3.92 6.2-7.4 12.72-11.86 18.48-5.48 7.1-13.28 11.03-22.58 13.44 1.63.4 2.69.65 3.74.92q1.62.46 3.22.94l1.36.78c5.2 1.62 10.35 3.38 15.6 4.81 4.65 1.27 9.4 2.17 14.1 3.23q1.56.3 3.1.64c3.98 1.17 7.98 2.32 11.95 3.54 3.4 1.05 5.33 3.7 6.84 6.67q10.03 19.71 20 39.47l.44 1.93 1.62-.86c2.33.59 3.05 2.03 3.12 4.44.32 10.51-1.82 20.67-4.1 30.8-.6 2.63-1.05 4.8 1.7 6.32l1.26 2.34.53 2 .63 3.09 1.3 9.57q.3 1.1.64 2.19l5.54 26.61 1.57 3.55 1.22 4.58.35 1.74 1.7-.68c12.34.4 22.97 4.66 31.4 13.86 4.35 4.75 7 10.42 8.9 16.53.42 1.33 1.5 2.89 2.7 3.46 6.22 2.96 6.41 4.82 6.75 11.19 4.23 1.24 9.06-1.6 12.89 2.1-.7.8-1.25 2.02-2.12 2.31-1.6.55-3.38.61-5.1.77-4.77.45-9.55 1.16-14.33 1.16-4.59 0-8.83 3.11-13.55 1.34q-.13-.02-.3.01l-17.95 1.85c-5.17.54-10.35 1.04-15.51 1.65-7.15.84-14.28 1.76-21.4 2.67-5.16.66-10.31 1.27-15.44 2.03a1018 1018 0 0 0-22.89 3.57c-5.28.9-10.5 2.08-15.75 3.13.86 5.85 1.72 11.36 2.47 16.88.72 5.33 1.35 10.67 2 16q1.52 12.08 2.93 24.16c.2 1.73-.03 3.49.04 5.24.17 4.64.64 5.38 3.54 5.11 6.3-.56 12.61-1.27 18.91-1.87q16.32-1.55 32.66-3.06c4.74-.44 9.49-.8 14.23-1.32 8.56-.94 17.1-2.06 25.66-2.99 7.06-.75 14.15-1.22 21.2-2 10.24-1.12 20.44-2.54 30.69-3.5 2.65-.25 3.12-1.27 2.92-3.42-.82-8.53-1.14-17.15-2.6-25.56-1.86-10.78-4.64-21.4-7.03-32.08l-2.7-12.04c4 0 6.28 2.76 7.87 5.7 3.02 5.58 5.52 11.43 8.24 17.17l1.06 3.12 1.34 5.8c2.79.32 5.38.3 7.75 1 1.52.44 3.5 1.7 3.93 3.03.94 2.89 2.79 2.59 4.95 2.47q11.2-.65 22.39-1.17c1.1-.05 2.22.21 3.2.32-.25-4.61-.6-9.42-.75-14.23-.13-3.64.38-7.35-.17-10.9-.4-2.54-2.1-4.86-3.16-7.3a4.4 4.4 0 0 1-.39-2.05c.27-2.78-.06-4.97-3-6.55-1.17-.62-1.84-3.08-1.88-4.73-.1-3.81-1.4-6.1-5.17-7.72-7.88-3.38-15.47-7.46-23.23-11.16a22 22 0 0 0-5.36-1.86c-4.3-.81-6.61-3.47-7.81-7.45-1.34-4.45-1.87-8.92-.72-13.5.2-.76.03-1.62.03-2.56-3.15.61-6.15 1.5-9.19 1.73-5.29.4-10.6.47-15.92.55-2.09.03-4.2-.2-6.28-.43-9.68-1.13-17.16-8.92-17.9-19.48-.33-4.92 2.36-9.08 5.63-12.66 6.03-6.58 13.87-9.23 22.49-10 7.21-.64 14.43-1.15 21.96-1.75 0-1.18-.08-2.6.01-4 .31-4.6 3.77-6.3 7.41-7.18 5.56-1.36 11.26-2.18 16.92-3.16 2.1-.37 4.22-.55 6.34-.83-.56-3.34-1.39-6.66-1.63-10.02-.58-7.9 1.8-7.78 8.2-10.15 1.76-.65 3.75-.68 5.77-1.02-.39-2.06-.5-4.19-1.2-6.1-1.74-4.7 1.32-8.16 4.48-10.36 2.1-1.46 4.58-.6 5.3 2.05.82 2.99 1.12 6.12 1.5 9.21.18 1.51.03 3.07.03 4.84h3.71l3.1.61c.78 1.66 1.6 3.16 3.82 3.24 2.3.07 2.05 2.27 1.94 3.46-.33 3.48-1.16 6.92-1.86 10.78l5-.46c.52-3.56.54-7.01 1.7-10.03.64-1.67 3.19-2.6 4.87-3.88l1.24-.05c5.99-.6 11.86.23 17.5 2.12 1.25.41 2.38 2.28 2.81 3.7.48 1.6.11 3.45.11 5.32h5.25c.13-4.78 5.1-8.25 10.78-7.16 5 .96 9.92 2.37 14.63 3.52 3.11-17.4 5.09-35.44 10.7-52.75l.74-2.28q.3-.89.64-1.78c2.66-2.1 5.06-4.7 8.02-6.19 9.65-4.81 19.5-9.2 29.27-13.77.88-.42 1.73-.91 2.6-1.37a31 31 0 0 0-8.14 2.1c-8.53 3.44-17.08 6.81-25.45 10.57-2.8 1.25-5.12 3.6-7.66 5.46l-2.45 4.73-7.45-4.36-3.57-2.32-6.76-7.96-1.05-2.33c-3.56-7.38-5.14-15.03-3.45-23.23.52-2.55.47-5.21.68-7.82l1.15-2.48c3.4-5.57 8.1-9.08 14.88-9.3a71 71 0 0 0 7.26-.6c2.35-.32 2.55-1.92 1.36-3.5a41 41 0 0 0-5.1-5.64c-3.13-2.84-6.45-5.46-9.7-8.17l-1.75-2c-3.97-5.01-5.51-10.61-5.07-17.06.55-7.98 3.76-14.82 7.54-21.64 2.3-4.14 3.84-8.7 5.73-13.09l.94-3.17c1.67-5.28 4.14-10.49 4.71-15.9.34-3.27-2.07-6.95-3.62-10.27-2-4.24-4.5-8.24-6.54-12.46-1.62-3.34-2.85-6.86-4.26-10.3l-.52-1.9a71 71 0 0 1-2.22-19.1l.1-1.86q.9-5.26 1.84-10.53l.83-3.05c2.7-7.31 5.1-14.76 8.18-21.9a186 186 0 0 1 10.17-20.2c1.28-2.2 1.71-4.21 1.24-6.27-1.05-4.63 1.86-7.43 4.5-10.08 3.14-3.16 6.8-5.85 10.37-8.56a210 210 0 0 1 34.83-21.33 475 475 0 0 1 39.27-17.24c9.53-3.63 19.67-5.61 30.08-4.61 5.78.55 10.27 3.98 15.1 6.77 5.28 3.06 10.82 5.66 16.28 8.4.51.26 1.27.43 1.77.25 5.55-2.07 9.88 1.12 13.92 3.77 13.08 8.58 21.85 21 29.49 34.34 5.27 9.19 9.58 18.8 11.72 29.21 1.01 4.92 1.35 9.99 1.95 14.99l2.68 22.35c.54 4.44 1.17 8.87 1.64 13.31.26 2.38 1.12 3.97 3.06 5.72 5.76 5.17 11.68 10.41 16.33 16.54 7.98 10.49 17.68 18.81 28.75 25.6 8.96 5.5 13.25 13.05 13.26 23.65 0 12.35-.71 24.44-4.81 36.27-1.2 3.44-.63 7.51-.87 11.29-.22 3.55-.56 7.11-.6 10.67 0 1 .59 2.4 1.37 2.94 5.54 3.83 9.25 8.6 7.83 15.71a97 97 0 0 1-3.67 13.23c-2.77 7.86-2.51 7.85 2.53 14.9a805 805 0 0 1 21 31.43c3.72 5.76 3.96 12.6 4.95 19.15 1.07 7.07 1.95 14.17 3 21.24a1143 1143 0 0 0 3.22 20.56c1.63 9.8 2.8 19.73 5.17 29.36 3.62 14.73 7.93 29.3 12.26 43.85 2.82 9.46 6.3 18.71 9.31 28.11 1.22 3.8 2.79 7.75 2.75 11.62-.07 5.6-1.5 11.19-2.24 16.8-.15 1.14.14 2.37.3 3.55.36 2.62 1.05 5.23 1.07 7.84.07 7.46-5.75 10.9-10.68 14.82-6.91 5.47-13.91 10.83-20.5 15.95 1.28 3.6 3.55 7.13 3.46 10.6-.1 3.37.38 6.3 1.56 9.26a6 6 0 0 0 1.82 2.55 102 102 0 0 1 22.25 22.43 169 169 0 0 1 12 19.12c3.47 6.62 6.19 13.65 6.66 21.33.49 8.02 1.79 16.04 1.69 24.05-.17 13.11-4.15 25.34-10.58 36.76-.74 1.3-1.48 2.62-2.3 3.88-1.51 2.3-3.33 2.53-5.59.85-.34-.25-.91-.2-2.23-.43 1.96 2.23 3.27 4 4.85 5.46 8.17 7.54 15.4 15.85 20.15 25.97 1.87 3.99 2.77 8.48 3.82 12.82.57 2.38-.86 3.46-3.28 3.45-1 0-2.03.75-2.99.67-2.83-.26-4.58-2.08-5.29-4.69-2.62-9.75-8.94-17.09-15.64-24.17-9.58-10.1-19.3-20.06-28.77-30.26-1.92-2.07-4.25-1.25-6.31-2.04-4.27-1.62-8.98-2.37-12.9-4.56-3.94-2.2-7.75-2.48-12.4-2.15 3.64 5.43 6.87 10.74 10.6 15.69 7.18 9.57 12.46 20.1 17.08 31.07 1.46 3.47 3.9 6.56 6.12 9.67 2.58 3.61 5.56 6.96 8.09 10.6 3.44 4.96 10.57 7.66 17.03 6.36 8.42-1.7 16.87-3.24 25.31-4.82.7-.13 1.48-.17 2.15.02.87.25 1.66.77 2.48 1.18-.42.73-.69 1.61-1.28 2.16a7 7 0 0 1-2.53 1.55c-6.2 1.92-12.39 3.89-18.66 5.55a239 239 0 0 1-16.47 3.7c-7.24 1.37-14.52 2.48-21.78 3.72-2.28.39-4.55 1.13-6.84 1.2a43 43 0 0 1-8.48-.58c-14.4-2.44-28.08-7.13-41.37-13.15-5.95-2.7-12.18-4.8-18.34-7.05a15 15 0 0 0-4.74-.77c-9.75-.26-19.5-.5-29.24-.6-2.1-.02-4.2.53-5.38.69-.98 1.55-1.48 2.99-2.48 3.79-3.46 2.78-7.52 3.98-11.96 4.2-1.26.06-2.49.76-3.73 1.19-.55.19-1.1.57-1.66.58-8.82.21-17.7 1.05-26.44.33-7.13-.59-14.09-3.11-21.14-4.7-6.62-1.48-13.23-3-19.9-4.22-4.77-.87-9.62-1.8-14.43-1.77-5.54.04-11.06 1.4-16.6 1.63-6.98.29-13.97-.1-20.95 0-3.47.05-6.93.5-10.4.88-4.83.52-9.65 1.18-14.48 1.67-3.64.38-7.3.6-11.1.89l1.13 2.85H674.3c-9.8 0-19.6-.08-29.4.01-10.92.12-21.85.4-32.77.6-2.78.04-5.56.1-8.33-.07-.71-.04-1.37-.96-2.05-1.48l.53-.85c-5.13.8-10.35 1.26-15.38 2.49-5.65 1.39-10.23-.99-14.91-3.24-2.43-1.17-4.53-3.02-6.98-4.14-8.04-3.68-10.58-10.95-12.67-18.64a28.5 28.5 0 0 1 1.23-19.14c2.92-6.95 8.58-11.08 15.29-13.65 6.05-2.32 12.4-3.85 18.57-5.86 3.39-1.1 6.63-2.7 10.06-3.64a39 39 0 0 1 8.1-1.07c4.9-.27 9.8-.29 14.69-.53 1.4-.08 2.74-.4 2.72-2.5a4.3 4.3 0 0 1 1.55-3.1c3.24-2.23 6.67-4.2 10.5-6.56l-6.38-3.43c-13.04-7.02-26.26-13.74-39.07-21.14-8.73-5.04-16.92-11.03-25.33-16.61-1.08-.73-2.06-1.62-3.05-2.47-2.29-1.93-4.94-3.06-7.7-4.24-6.46-2.76-9.44-8.66-11.47-14.94-.75-2.3-1.95-2.76-3.94-2.48l-10.09 1.5c2.21 3.07 4.26 6.6 7 9.47 1.84 1.93 4.78 2.76 6.97 4.42a27 27 0 0 1 4.76 4.95c.5.62.23 1.83.3 2.77-.84-.07-1.7-.01-2.5-.24-1.21-.36-2.36-.92-4.35-1.72 9.68 23.86 2.37 42.5-15.77 57.92 3.55 3.68 7.16 7.14 10.43 10.88 6.78 7.77 11.56 16.44 12.61 27.04.9 9.08.98 18-2 26.68a73 73 0 0 1-4.55 10c-.57 1.08-1.82 1.86-2.89 2.58-1.49 1-3.08 1.86-4.67 2.71-1.44.77-2.82 1.7-4.62.5-.76-.5-1.97-.42-2.98-.42-10.1-.02-20.2.16-30.3-.05-8.88-.18-17.79-.43-26.63-1.27a219 219 0 0 1-38.05-7.19c-8.55-2.38-17.21-4.34-25.83-6.47-1.26-.3-2.55-.47-3.75-.7-.93 2.47-1.51 4.8-2.62 6.86-2.72 5.05-7.81 4.24-12.3 4.42-3.65.13-7.32-.46-10.99-.54-9-.2-17.98-.62-26.7-3.14-3.26-.94-6.41-2.3-9.71-3.08-5.85-1.39-12.26-1.45-17.54-3.97-5.54-2.65-9.97.58-14.9.54-5.89-.06-11.78 1.45-17.68 2.2q-9.98 1.27-19.97 2.4c-2.63.31-5.28.58-7.92.68-6.96.26-13.92.58-20.89.54-1.74-.02-3.43-1.71-5.22-1.9-2.3-.23-4.67.26-7.01.47-4.48.4-8.94 1.47-13.4-.31-2.7-1.1-3.75-3.45-2.7-6.24.33-.91.34-2.02.25-3.01-.45-4.72-1-9.43-1.61-15.16-2.45 4.94-6.22 8.2-7.46 14.18l-34.9 5.49 1.15 3.18c-3.38.54-6.52 1.05-9.67 1.54-11.48 1.79-23.07 3-34.39 5.5-15.81 3.47-31.4 8-47.13 11.87a44 44 0 0 1-19.36.59 952 952 0 0 1-14.97-3.11c-5.48-1.18-7.62-6.1-10.4-9.99-2.99-4.18-5.1-8.98-7.66-13.66-.36-.26-1.48-.65-1.57-1.2a76 76 0 0 1-.48-20.17c.95-9.45 5.78-16.69 12.02-23.39 7.5-8.03 14.57-16.45 22.12-24.41 5.58-5.87 12.66-8.62 20.88-8.74 8.77-.12 17.53-.86 26.3-1.02 4.92-.1 9.85.43 14.77.67l.25-.8c-2.61-1.63-5.27-3.2-7.82-4.92-5.84-3.95-12.21-7.37-17.26-12.17-4.1-3.89-7.12-9.21-9.65-14.36-3.51-7.13-7.47-14.27-8.1-22.42-.36-4.84-.52-9.8.19-14.58.87-5.9 2.73-11.65 4.17-17.47 1.03-4.2 3.45-7.47 6.83-10.08l3.26-1.75 9.08-1.52q-.98-11.61-2-23.3l.07-1.24c0-7.98 3.75-13.9 9.6-19.12 5.4-4.82 10.13-10.4 15.26-15.74a40 40 0 0 1-12.02-20.84c-1.2-5.44-.52-11.84 5.31-15.27 5.48-3.21 8.58-7.93 9.94-14.17 2.18-10.01 4.78-19.94 7.2-29.9l.63-2.56c1.68-6.39 3.46-12.74 5-19.16 1.04-4.3 1.74-8.66 2.6-13l.43-1.26q1.55-6.91 3.05-13.84c.15-.69.1-1.43.15-2.14 1.04-13.3 1.38-26.71 3.3-39.89a102 102 0 0 1 11.36-34.02c2.72-5.03 5.3-10.16 8.4-14.96 1.17-1.83 3.4-3.2 5.43-4.23 5.79-2.94 11.54-6.16 17.65-8.26 8.28-2.85 16.81-5 25.35-6.98 5.84-1.36 11.88-1.91 17.82-2.87a3 3 0 0 0 1.6-.86c4.25-4.96 9.59-6.04 16.2-4.4l-2.78-5.45c-4.47 2.92-9.41 2.58-14.24 2.3-5.12-.3-9.09-6.27-7.93-11.35.33-1.45.4-2.95.61-4.54-16.03 1.29-26.63-6.36-33.06-20.64l-.9-2.48-.63-2.4-.6-2.48-.06-2.47-.52-3.1c.5-8.76 1.52-12.25 6.8-22.9-4.9.71-7.33-1.8-9.12-6-1.02-2.41-3.28-4.29-5-6.4l-2.51-3.14c-3.49-3.98-6.66-8.29-10.56-11.8-2.82-2.54-2.05-5.25-1.49-7.82.57-2.55 2.83-4.09 5.58-4.43 2.7-.33 5.4-.6 7.91-.86l-.34-7.2-.09-1.84c.06-2.56.2-5.13.16-7.69-.22-12.08 1.86-23.89 4.26-35.65l.65-3.1.73-2.39 1.27-3.77 1.45-3.64 1.12-3.14c2.3-4.35 4.26-8.94 7-13 8.99-13.33 21.73-21.7 36.83-26.63 6.71-2.2 13.56-4.08 20.72-3.7 2.25.13 4.55.84 6.65 1.7.8.32 1.74 2.03 1.5 2.73-.31.96-1.6 1.89-2.66 2.24-1.21.4-2.64.15-3.98.18h-1.86l-14.27 2.9-3.91 1.25q-3.96 1.46-7.9 2.94l-3.63 1.48c-10.46 4.82-17.7 12.86-23.01 22.86l-1.64 3.14c-1.92 4.8-4.21 9.5-5.68 14.45a454 454 0 0 0-6.54 25.3c-.7 2.96-.63 6.08-.92 9.13l-.47 3.1-.72 19.56c0 .2-.01.49.1.6 1.67 1.56 2.54 2.93 1.1 5.46-1.25 2.19-2.84 2.99-5 3.4-.18.05-.33.24-.61.45l6.49 14.4h2.27c3.46.01 5.19 1.72 5.59 5.11.3 2.63.96 5.23 1.64 8.73 4.41-6.43 9.77-10.28 15.92-12.98 8.73-3.84 17.23-3.9 25.09 2.32l2.46 2.53c2.01 3.74 4.17 7.5 3.68 11.92-.28 2.5-1.24 4.91-1.89 7.36l-1.3.17c-1.18-1.55-2.62-2.96-3.48-4.67-2.33-4.62-4.4-9.43-9.04-12.27a13.1 13.1 0 0 0-11.46-1.3l-3.3 1.11c-3.21 2.76-7.1 5.02-9.5 8.35-11.2 15.6-5.34 36.9 8.55 46.6 5.2 3.63 10.97 5.47 17.65 3.86-.02-2.48 1.36-3.55 3.88-3.69 2.54-.14 5.05-.9 7.57-.87.88 0 1.9 1.43 2.6 2.4 4.8 6.5 7.91 13.83 10.48 21.43l1.7 3.7c.97 2.8 1.07 6.03 4.08 7.82.23.13.05 1.75-.37 2.02-3.64 2.36-7.4 4.54-11.1 6.83-1.51.94-2.95 2.01-4.43 3.03l.03.81 2.37 2.46 1.92 2.45a49 49 0 0 0 15.43 13.89l2.58 1.5 4.78 2.6 5.05 2.63c9.47 4.9 19.16 9.49 29.85 10.73 5.59.65 11.4.9 16.97-1.47 4.67-1.99 9.77-2.96 14.37-5.05 12.56-5.7 22.64-14.23 28.5-27.06.52-1.13.65-2.43.9-3.41l-25.9 2.33-8.9 23c-.22.56-.31 1.29-.72 1.65-.65.57-1.52 1.2-2.3 1.2-.44 0-1.31-1.25-1.24-1.86q.54-5.34 1.52-10.62c.62-3.27 1.5-6.5 2.33-9.95-6.85 2.47-12.84-.22-18.74-2.57-4-1.59-7.57-4.2-11.48-6.09-2.7-1.3-5.61-2.13-8.7-3.27 2.2-3.48 5.25-3.28 8.2-2.97 4.53.48 9.04 1.12 13.54 1.77 4.4.63 8.78 1.36 13.17 2.06l1.32.3c4.66.87 9.35 2.53 13.98 2.37 5.23-.17 10.42-1.94 15.6-3.1 1.93-.43 3.8-1.14 5.7-1.72l2.55-.63c12.42-1.93 22.7-7.09 28.5-18.97.21-.44.52-.84.78-1.26l1.56-3.2 6.84-18.38.58-2.66 1.32-9.67c-10.15 1.09-20.19 3.71-29.94-1.49-6.38 8.29-13.93 11.18-17.41 6.65 2.05-1.58 4.2-3.04 6.11-4.78a20 20 0 0 0 3.59-4.37c1.4-2.34.68-3.51-2-4.32a13 13 0 0 1-3.76-1.85c-2.02-1.47-1.73-3.26.18-4.35l-6.19-13.6c-1.58-.37-2.77-.03-3.4 3.03-2.08 10.26-6.14 19.86-12.77 27.97-4.4 5.39-10.65 8.75-17.4 10.4-14.45 3.51-28.1.75-40.25-7.55-7.74-5.3-13.13-12.72-14.24-22.53-.13-1.1-.47-2.17-.7-3.25l-.45-3.12.34-5.91c-3.14-.9-6.24-2.17-9.43-2.53-1.42-.17-3.06 1.46-4.6 2.29l-5.6 3.07-2.23.23-.27-.64 9.17-7.11c-1.9-5.11-2.84-10.22-1-15.41.33-.9 1.65-1.43 2.5-2.14.77.87 1.48 1.8 2.32 2.58.25.24.86.1 1.3.12 3.11-.98 6.25-1.88 9.32-2.98 1.26-.45 2.75-1.06 3.47-2.08A142 142 0 0 0 298 285.01c.65-2.32 1.55-4.56 2.38-6.82.89-2.39 3.76-4.2 5.92-3.6 2.45.69 2.54 2.92 2.12 4.74-1.39 5.83-2.69 11.74-4.73 17.36-4.3 11.85-11.21 22.25-19.38 32.18 3.95-.39 7.58-.86 11.23-1.07 5.31-.31 10.66-.85 15.94-.55 8.91.5 17.8 1.6 26.69 2.45l1.26.45c4.42 1.88 8.8 3.86 13.27 5.6.99.4 2.29 0 3.44-.03l3.1-.1c2.35.1 4.7.22 7.05.28.49 0 1.12-.02 1.45-.3 7.69-6.6 17.1-9.49 26.56-12.11 3.9-1.08 7.98-1.51 11.97-2.24l.06-1.03-2.2-23.38-.23-2.52.38-1.82-.32-.6-.82.58c-6.23 1.8-12.36 4.13-18.71 5.2-5.18.88-10.82 1.77-15.67-1.8-.9-.66-1.57-1.62-2.48-2.58l33.19-7.1 1.26-.45c3.6-1.19 7.2-2.43 10.82-3.54.98-.3 2.28-.66 3.05-.25.94.5 2.06 1.8 2.04 2.71-.03 1.08-1.21 2.13-2.39 3.96 2.78 9.51 2.26 20.7.51 32.1 5.3.6 10.4 1.2 16.2 1.85-.61-1.6-1.18-3.04-1.7-4.48a2 2 0 0 1-.08-.91c1.36-7.32-.93-14.27-2.6-21.14a416 416 0 0 0-9.84-34.8 111.6 111.6 0 0 0-30.27-46.97c-2.43-2.24-5.3-4.01-7.96-6l-1.95-1.63-1.76-.85-3.19-2.34c-8.8-5.44-18.19-9.41-28.41-11.26l-1.92-.5c-3.56-.64-7.1-1.57-10.7-1.9-10.87-1-21.73-.88-32.52 1.15-4.14.78-8.32 1.34-12.49 2l-1.26.44zm599.19 214.8-.59-.65c-9.92-19.23-8.52-47.98 2.85-61.23-.9.24-1.98.5-2.42 1.16-1.52 2.32-3.19 4.65-4.15 7.22-3.94 10.63-5.72 21.66-4.31 32.94.92 7.34 2.93 14.47 7.7 20.47a.8.8 0 0 0 .4.4l.85 1.47.37-.1zM822.9 809.82l1.39.8.23-.6-1.7-.13-4.1-1.47-3.88-1.07c-.11-.15-.2-.4-.35-.45-20.7-6.97-41.52-13.59-62.07-20.95-38.57-13.8-77-28.06-115.49-42.09-2.58-.94-5.28-1.56-7.93-2.32.68.89 1.52 1.16 2.34 1.49 11.22 4.44 22.35 9.18 33.7 13.27 30.54 11 61.12 21.88 91.78 32.51 19.12 6.63 38.44 12.7 57.67 19.03l3.97.84zM512.73 641.55l-.35-.68-.18.45.59.15v2.38h9c.98-3.58.04-5.93-4.04-6.58-.2.71-.5 1.54-.66 2.39-.6 3.25-1.58 3.7-4.36 1.89m30.69-72.16h-.03l-13.8 4.02v5.3l18.64 1.11V557.4c-9.92 2.25-19.84 4.44-29.7 6.77-5.33 1.25-9.77 4.04-12.9 8.6a4.5 4.5 0 0 0-.54 3.3c1.56 6.2 6.46 8.94 12.04 10.27 3.9.93 8.05.94 12.1 1.21 6.4.42 12.82.7 19.62 1.06-.27-2.17-.95-3.89-.56-5.32.73-2.68-.75-2.43-2.4-2.42l-15.47.01c-.7 0-1.54-.06-2.04.29-2.6 1.8-3.81 1.57-6.15-1.6 3.22-.25 4.68-1.63 4.29-5.08-.18-1.58-.9-1.83-1.81-2.44-2.49-1.67-3.01-4.13-1.17-5.15 2.04-1.15 4.83-.12 5.83 2.22q5.37-.02 10.79.01c1.09.01 2.18.17 3.27.26zm189.39-19.74-4.46-.42v20.14c-1-8.72-2.38-17.44-.84-26.01l20.47 2.91c-.78-1.92-1.09-4.47-2.05-4.75-8.82-2.58-17.75-4.77-26.38-7 .42 7.59.76 15.16 1.26 22.71.5 7.65 1.3 15.3-.64 22.8l24.76-2.53c-.58-1.43-1.56-3.02-1.84-4.71-.45-2.73-.18-5.57-.67-8.29-.76-4.28-.13-5.63 4.06-6.73 1.26-.33 2.57-.46 4.12-.72-.43-1.18-1.12-2.3-1.22-3.47-.21-2.5-1.7-3.2-3.88-3.67-5.55-1.19-11.05-2.58-17.51-4.1 1.1 1.04 1.7 1.82 2.47 2.28.85.5 1.87.69 2.8 1.02zm-120.1 84.7q-4.35.93-4.03 5.25c.19 2.65-1.38 4.6-4.05 5.02-3.42.54-4.4 2.25-3.1 5.52.38.93 1.1 1.71 1.45 2.65.75 2 1.8 4.05 1.92 6.13.47 8.41-.88 16.94 1.66 25.1l34.04 6.7c-.67-1.44-1.46-2.22-2.19-3.06-3.09-3.54-6.38-6.92-9.15-10.7-1.8-2.44-.85-3.83 2.75-4.4-3.06-6.54-6-12.98-9.08-19.36-1.26-2.64-3-5.04-2.55-8.23.1-.71-.58-1.53-.95-2.4-2.53 2.36-4.94 1.97-5.67-.9-.57-2.2-.48-4.58-.68-6.88l.4-.5-.76.07zM409.05 880.28l-.45-.61 3.5-24.42-.85-.14c-3.54 16.5-7.68 32.9-8.2 49.79l42.99 11.19-1-1.87c4.67-2.66 9.2-5.05 13.53-7.76 4.84-3.02 9.28-6.56 12.25-11.61 2-3.4 2.63-8.16-.12-11.32-4.96-5.7-11.5-8.48-18.5-10.45-.69-.2-1.64.5-2.67.83l-1.54-2.9-8.84 2.14c4.1 8.86 4.12 17.6.48 26.18-1.3 3.05-3.58 5.72-5.7 8.33-.43.54-2.13.05-3.25.04.26-1.07.39-2.2.82-3.2.54-1.23 1.76-2.28 1.95-3.5a64 64 0 0 0-.64-24.38c-.15-.63-1.59-1.56-2.22-1.41-7.2 1.59-14.36 3.36-21.53 5.08zm403.45-271.4-.59.44.21.18.35-.65-.22 3.07.06-.1c-1.53-1.04-3.05-2.1-5.13-3.53l2.66 6.88c-3.87 2.63-3.82 2.6-6.3-1.15-.94-1.45-2.2-2.7-3.3-4.06-.53-.66-1.1-1.32-1.46-2.08-.36-.79-.31-1.8-.74-2.55-3.34-5.9-7.05-11.6-10-17.7-1.17-2.41-2.99-3.58-4.88-3.78-4.51-.47-7.36-3.67-10.9-5.7-3.72-2.13-7.22-4.67-10.87-6.93-3.3-2.03-6.7-3.92-10.24-5.98.2 1.39.59 2.4.45 3.35-.66 4.6.58 8.45 4.2 11.48.1.09.04.38.1.95-5.86 1.18-11.72 2.54-17.64 3.52-6.27 1.03-12.6 1.73-18.9 2.53-6.65.85-13.28 1.98-19.95 2.37-7.1.42-7.13.1-6.5 7.07 0 .14.25.26.18.19l52.5 2.83c-.55 2.34-1.3 4-3.58 4.22-2.85.28-5.7.55-8.57.62-10.37.26-20.74.44-31.11.66-.32 0-.63.12-.95.18v.78l3.66.26q1.87.18 3.76.4l-.05.77-5.04.97c1.68 2.93 4.28 3.82 7.5 4.38 7.53 1.28 14.98 3.03 22.47 4.64 4.78 1.02 9.54 2.11 14.3 3.17l-.18 1.54c-9.23-.2-18.34-2.08-27.5-3.39 3.21 1.73 6.39 3.43 9.7 4.8 13.7 5.6 27.39 11.2 41.15 16.62 4.8 1.88 9.36 4.6 14.97 3.96 2.42-.27 5.06.36 7.46 1.07 5.2 1.55 10.3 3.45 15.47 5.17 6.77 2.26 13.56 4.48 20.6 6.8l-4.83-45.57zM260.77 711.52l15.36-1.84a25 25 0 0 0-8.18-3.5c-6.42-1.63-12.72-1.54-19.11-1.45-5.9.08-11.64 2.06-15.71 6.06-12.46 12.22-18.85 26.87-14.97 44.67 1.76 8.08 8.06 16.88 18.88 16.09.5-.04 1.01.2 1.52.31l.04.79-6.01 1.12c7 2.67 13.49 5.21 20.03 7.62 6.78 2.5 14.08 3.76 19.83 8.64.56.47 1.53.45 2.3.68 4.16 1.22 8.31 2.47 12.48 3.65 4.29 1.22 8.57 3.42 12.95.47-.8-.46-1.76-.72-2.27-1.35-2.15-2.71-4.34-5.4-6.17-8.33-1.78-2.86-3.94-5.76-3.02-9.5.26-1.1.67-2.3 1.41-3.06 1.62-1.65 3.5-3.05 5.53-4.76-1.49.13-2.75.6-3.76.29-5.7-1.8-11.35-3.78-17.02-5.72l-20.77-7.14.7 4.81-7.83-4.46 2.74-5.6-.27-1.1c3.4.66 6.9 1.02 10.2 2.03 9.23 2.84 18.37 5.96 27.56 8.95 1.2.38 2.53 1.01 3.68.81 2.86-.5 5.63-1.49 8.46-2.15 1.57-.37 3.35-.94 4.77-.53 1.07.32 1.72 2.06 2.64 3.28 2.04-1.08 4.28-2.47 6.68-3.48 1.64-.7 1.68-1.77 1.94-3.26a46 46 0 0 1 2.46-9.46c1.1-2.7 3.49-4.92 6.55-4.4 4.68.78 8.86 2.84 10.88 8.98.95-1.49 1.67-2.21 1.9-3.07.41-1.56.3-3.27.81-4.8 1.8-5.38 4.99-9.68 10.49-12.09-5.09-2.22-10.04-4.3-14.89-6.6-1.1-.52-1.86-1.8-2.77-2.73l.78-1.02c9.9.5 17.6 6.4 26 11.3l1.89-10.4c-.77-.04-1.58-.12-2.39-.13-9.07-.18-11.4-3.25-8.96-11.81.1-.35.28-.67.38-.9l-18.53-10.7-44.15 16.02 1.4 1.86c-1.27 0-2.2.3-2.7-.05-2.13-1.41-4.02-.22-5.26.96-1.77 1.69-3.53 1.88-5.66 1.52-4.45-.74-8.89-1.43-13.02-2.1l.27-3.55-.1.1zm440.16-399.63-.05-.1 4 28.54c-1.65.55-3.08 1.54-4.2 1.28-2.05-.5-2.04.85-2.2 1.9a10 10 0 0 0 .19 3.34c1.52 7.28 5.08 13.6 9.64 19.32 6.38 8 12.75 16.17 22 21.07 7.5 3.98 15.33 7.37 23.1 10.8a55 55 0 0 0 24.25 4.58c3.07-.1 6.13-.44 9.2-.58 2.1-.1 4.49.48 4.76-2.8.02-.33.63-.68 1.03-.92 2.58-1.5 3.42 1.02 4.79 2.1l6.7-.96.7 1.04-3.55 4.24 2.4 30.57c-2.2-.99-4.03-1.8-5.85-2.6l-.54 1.01c.66.58 1.24 1.3 1.98 1.7 3.82 2.07 6.8 5.39 11.55 6.14 3.46.56 6.5 3.53 9.97 4.19 4.02.77 8.35.6 12.46.12 6-.7 12.21-1.26 17.8-3.32 6.97-2.57 13.41-6.58 20.04-10.05 1.65-.86 3.14-2.03 5.27-3.44a62 62 0 0 1-19.4-13.33 60 60 0 0 1-17.36-37.61c-1.16-13.17.77-26.1 4.5-38.75.36-1.22.94-2.64 1.88-3.37 3.32-2.57 6.84-4.88 10.28-7.3 1.16 1.74 3.92 2.32 6.24 1.02 9.71-5.46 19.37-17.57 15.44-31.76-2.27-8.18-5.62-15.62-12.32-21.2-2.76-2.3-6.43-3.04-8.71-1.29-1.99 1.53-4 3.2-5.49 5.18-3.69 4.96-6.26 10.47-7.1 16.7-.1.85-.86 1.6-1.32 2.41-.71-.77-1.95-1.5-2.05-2.34-.23-2.1-.37-4.4.21-6.39 1.32-4.5 3.09-8.88 4.69-13.37-8.95-2.85-15.58-9.42-21.59-16.67-1.2-1.44-2.12-1.96-3.9-1.98-13.17-.12-26.38.2-39.5-.74a235 235 0 0 1-33.68-4.97A105 105 0 0 1 717 241.53c-2.07-1.22-3.13-.97-4.54.7-7.85 9.31-15.78 18.58-23.52 27.68l7.16 14.44c3.32-2.42 6.25-5.75 10.98-6.68 2.22-.44 4.35.55 4.39 1.37.12 2.32 2.44 2.4 2.95 3.57l-1.71 4.44.7.51-16.02 6.32c.15 1.13.22 2.13.42 3.11q1.54 7.45 3.11 14.9zM226.5 709.9c-1.6.53-3.3.87-4.78 1.62-4.18 2.1-8.23 4.5-12.45 6.53-2.18 1.05-4.62 1.6-6.94 2.36l-.6-1.23q1.79-1 3.55-2.06c11.7-7.22 23.44-14.4 35.09-21.73 1.94-1.23 2.03-3.3.32-4.92-2.06-1.96-4.33-3.7-6.98-5.93-21.59 6.29-42.94 15.76-64.03 26.73l-1.4-2.92c-5.62 1.8-11.25 3.7-16.97 5.36-1.94.57-4.06.52-6.1.75l-.4-1.21c.83-.77 1.54-1.81 2.52-2.25 5.85-2.6 11.88-4.82 17.62-7.64 9.6-4.7 19.04-9.76 28.73-14.76-3.52-4.61-6.97-8.64-9.84-13.04a73 73 0 0 1-5.8-11.42c-1.02-2.37.22-4.67 2.51-5.51.83-.3 2.85 1.16 3.55 2.3 5.5 8.8 10.8 17.74 15.79 26.02 10.73-3.87 21.6-7.92 32.57-11.7 4.5-1.55 6.88-.39 8.54 3.49 1.93 4.5 3.76 9.05 5.57 13.42l3.7.27c-.1 1.1-.37 2.07-.2 2.95.2 1.04.77 2 1.29 3.26 11.67-1.12 22.5.64 29.82 10.85 10.08-7.9 22.03-10.75 33.27-14.94-.98-1.1-1.9-2.07-2.75-3.1-3.57-4.28-3.2-10.63.98-14.07.73-.6 2.4-.87 3.18-.45 5.29 2.9 7.28 2.53 10.9-2.38 2.5-3.36 5.5-5.94 10.04-5.12 2.25.4 4.68.9 6.58 2.07 4 2.48 7.72 5.44 11.62 8.26.82-3.85 3.74-5.28 7.33-5.37 3.25-.08 6.5.34 9.5.52 2.1-3.26 4.87-6.48 6.4-10.2 1.39-3.41 4.02-3.86 6.71-4.58 6.47-1.74 12.93-3.58 19.5-4.9 8.58-1.73 17.26-3.01 25.98-4.5-4.99-37.42-4.67-74.86-5.26-112.35l-2.05 2.25-.99-.31c.27-1.24.26-2.64.87-3.68a2117 2117 0 0 1 19.07-32.6c.93-1.55 2.63-2.65 4.29-4.25a7.8 7.8 0 0 1 0 8.2 105 105 0 0 1-6.03 9.42c-3.24 4.6-6.64 9.07-9.25 12.6 1.28 2.92 2.8 4.94 3.02 7.1 1.03 10.35 2.14 20.73 2.4 31.12.3 12.02-.28 24.05-.45 36.09q-.13 8.65-.16 17.3-.02 14.17 0 28.28l17.13-1.8c-1.77-4.77-3.7-9.51-5.25-14.37-.63-1.96-1.36-4.75-.46-6.15a20 20 0 0 0 2.88-7.63c1.41-7.38 6.18-12.54 12.41-16.42 1.18-.73 2.2-1.13 1.7-2.97-2.03-7.7-4.39-15.37-5.7-23.2a413 413 0 0 1-3.91-32.32c-.44-5.06.15-10.24.55-15.34a184 184 0 0 1 1.76-14.15c.8-5.06 1.33-9.69-1.94-14.52a486 486 0 0 1-19.22-30.97c-2.97-5.17-7.04-7.33-12.61-8.07-5.1-.67-10.22-1.51-15.15-2.92a107 107 0 0 1-30.76-14.01c-.65 1.92-1.28 3.58-1.78 5.27-3.3 11.22-10.31 19.38-20.23 25.4a85 85 0 0 1-30.1 11.17c-9.37 1.63-18.63 1.9-27.82-.61-13.85-3.79-26.85-9.76-39.15-16.99-8.96-5.27-15.43-13.42-20.48-22.58-1.14-2.06-.7-4.15 1.04-5.02 1.65-.81 3.9-.42 5.22-.52l7.63-8.1-10.95 1.43c-1.54 1.45-3.28 2.85-5.25 3.31-3.92.92-7.95 1.5-11.96 1.9-3.27.3-6.6.1-9.9.2-.56.02-1.14.33-1.66.6-7.74 4.11-15.62 8.01-23.17 12.45-3.97 2.33-8.63 4.02-11.02 8.45a623 623 0 0 0-8 15.36c-.27.56-.09 1.48.16 2.12 1.6 4.1 3.64 8.07 4.85 12.29 3.92 13.68 7.59 27.42 11.21 41.18.37 1.39-.2 3.02-.35 4.54-.92-1.04-2.25-1.93-2.7-3.13-5.87-15.68-11.61-31.4-17.71-47.98-2.87 10.5-6.02 20.41-8.23 30.52-2.01 9.26-3 18.74-4.48 28.1-.35 2.19-.2 5.08-1.53 6.32-1.83 1.7-1.8 3.5-2.1 5.43-1.8 11.15-3.22 22.36-5.39 33.44-1.96 10.06-4.71 19.97-7.1 29.95-2.58 10.8-5.4 21.42-14.87 28.7-1.03.8-1.51 2.61-1.78 4.04-1.47 7.92 3.04 14.08 6.26 20.62.13.26.36.54.6.66 3.67 1.64 3.97 1.83 1.8 5.07-3.15 4.7-6.7 9.14-10.2 13.6-2.95 3.76-7.23 6.65-8.25 11.68q-1.35 6.85-2.06 13.8c-.56 5.45-.8 10.93-1.2 16.7 1.72 0 3.22-.3 4.56.04 10.97 2.78 22.02 5.33 32.84 8.61 18.9 5.75 37.67 11.93 56.46 18.01 5.9 1.91 11.7 4.1 17.54 6.16l.52.47-.22-.77c-5.38-5.85-7.39-13.1-6.85-20.64.43-5.96 2.15-11.92 4.01-17.65 2.25-6.95 6.85-12.67 11.3-18.37l.46-.48-.8.1zm484.46-178.53s-.8-.06-1.59 0c-7.5.62-15.08.88-22.5 2.05-3.65.57-6.94 2.1-10.95 1.22-2.68-.58-5.75.7-8.65 1.03a9919 9919 0 0 1-33.66 3.73c-9.5 1.04-19 2.14-28.52 3.08s-19.07 1.7-28.61 2.55c-4.25.38-8.48.82-12.73 1.12-1.9.14-2.2.96-2.2 2.77 0 5.76-.28 11.53-.48 17.3-.2 5.4-.51 10.78-.65 16.18-.1 3.91-.02 7.82-.02 11.74v10.02c15.15-2.52 30.09-4.97 45-7.49 10.17-1.71 20.32-3.53 30.48-5.26q11.17-1.92 22.37-3.73c5.38-.87 10.75-1.75 16.16-2.39 2.54-.3 5.2-.38 7.7.1 1.25.25 2.21 1.96 3.3 3-.97.6-1.9 1.49-2.96 1.72-2.76.58-5.57.91-8.36 1.28-5.34.68-10.7 1.15-16.01 2.03-7.46 1.24-14.86 2.82-22.3 4.14-9.71 1.74-19.44 3.37-29.16 5.02q-14.47 2.49-28.95 4.89c-4.23.7-8.5 1.22-12.74 1.82l-.03.52 24.6 10.58c0-1.95-.28-3.35.07-4.58s1.08-2.85 2.09-3.31a16.4 16.4 0 0 1 13.8.13c1.32.6 2.41 2.41 2.85 3.9.2.64-1.53 1.86-2.85 3.32.22 1.36.56 3.45.82 5.15 13.6-2.16 26.88-4.45 40.21-6.32 9.66-1.35 19.4-2.1 29.09-3.22 2.2-.26 4.37-.92 6.58-1.3 1.54-.26 3.13-.27 4.68-.52.9-.14 2.12-.25 2.57-.84 1.12-1.5.42-6.55-.99-7.7-.87-.7-2.03-1.04-2.53-1.29.28-2.23 1.08-4.24.57-5.84-.57-1.85-1.22-3.24.04-5.05.88-1.27 1.3-2.85 1.93-4.3l-2.52-2.88c10.3-3.17 20.5-3.37 30.24-5.22-.9-5-1.96-9.94-2.66-14.93a1251 1251 0 0 1-3.85-30.8c-.12-1.1.86-2.3 1.32-3.45zM170.33 858.75c-3.82-1.8-7.31-3.5-10.86-5.06-1.27-.57-2.7-1.24-4.02-1.18-7.46.33-14.93.71-22.37 1.36-10 .87-20.06 1.62-29.97 3.15-8.94 1.38-17.73 3.68-26.55 5.75-.82.2-1.58 1.6-1.93 2.59-.8 2.36-1.04 4.95-2.05 7.21-5.04 11.23-10.4 22.33-15.34 33.6a32 32 0 0 0-2.28 19.29c2.68.22 5.23.82 7.67.53 6-.72 11.95-1.92 17.94-2.82 12.83-1.9 25.63-4.1 38.52-5.48 12.2-1.31 24.5-1.65 36.73-2.62 5.46-.42 10.88-1.28 16.3-2.05 3-.43 5.97-1.06 8.95-1.62l12.44-2.34c.55-1.77.75-3.2 1.41-4.37 2.72-4.74 6.07-9.18 8.26-14.14 1.91-4.34 3-9.17 3.63-13.9.3-2.18.36-5.52-2.77-6.61-3.3-1.15-6.7-2.56-10.11-2.69-5.62-.22-11.29.35-16.9.84-7.5.66-14.98 1.53-22.45 2.38-5.01.56-10 1.25-15.06 1.88.43 13.56.47 26.73-7 38.7-3.46-3-3.92-5.35-3.56-9.2.58-6.22.63-12.5.91-18.75l-.76-.09-10.54 15.93c-.07-9.6 2.73-18.37 6.88-26.93-3.46 3.5-6.74 7.11-9.34 11.16-3.37 5.26-5.61 11.04-5.02 17.52.1 1.06.6 2.08.9 3.12.93-.5 1.88-.96 2.79-1.51.9-.55 1.75-1.18 2.62-1.77l.63.68c-.7 1.48-1.09 3.3-2.18 4.39-3.1 3.1-10.05 1.65-12.16-2.52a18.5 18.5 0 0 1-1.47-13.96c2.2-7.86 6.79-13.96 13.08-18.74 3.82-2.91 8.3-4.82 13.58-4l2.32-3.95c3.77.2 7.2.79 10.54.47 4.92-.46 9.77-1.64 14.67-2.39 4.55-.69 9.13-1.22 13.92-1.86m240.24-118.1.09.46 19.48-2.04.2.78c-.42.19-.85.47-1.3.55-8.95 1.51-17.88 3.18-26.87 4.42-4.03.56-5.19 1.3-5.17 5.38 0 1.65.1 3.29.1 4.93.02 5.88 0 11.75-2.99 18.04 2.43.48 4.65 1.42 6.79 1.26 8.13-.57 16.24-1.53 24.36-2.29 7.39-.7 14.78-1.3 22.16-1.98l25.54-2.36c4.21-.4 8.43-.75 12.63-1.26 6.73-.82 13.42-1.94 20.15-2.62 9.21-.93 18.46-1.47 27.67-2.35 4.24-.4 8.43-1.28 12.66-1.8.78-.1 1.62.53 2.46.64 1.56.23 3.13.43 4.69.4.3 0 .87-1.07.86-1.64-.11-5.3-.4-10.6-.46-15.89-.03-2.53.63-5.09.43-7.59-.4-4.74-1.18-9.44-1.86-14.58-4.83.49-9.77 1.01-14.72 1.5-4.66.45-9.33.83-13.99 1.31-7.4.77-14.8 1.62-22.2 2.4-6.3.66-12.6 1.23-18.88 1.91-7.06.77-14.11 1.63-21.16 2.42-6.16.69-12.34 1.3-18.5 2-6.56.73-13.11 1.56-19.66 2.33-5.45.64-10.91 1.21-16.35 1.91-.46.06-.84.8-1.72 1.7 3.72-.6 6.59-1.12 9.47-1.51 2.9-.4 5.82-.7 8.74-1.03l.07.58zm598.13 180.58c-5.33-5.8-10.18-10.92-14.81-16.23-1.65-1.88-2.84-4.19-4.06-6.39-6.61-11.96-11.57-24.79-19.75-35.94-3.68-5-6.35-10.75-9.49-16.17l-29.56 6.8 3.68 43.17c-.11.02-.97-.13-1.46.24-2.4 1.8-4.03.46-5.25-1.39a51 51 0 0 1-8.6-26.33c-.15-3.74-.02-7.5-.02-11.34l-10.45-.63c0 3.7-.13 7.05.02 10.38.42 8.72-3.16 17.5.63 26.15-2.36 1.32-3.4-.26-4.3-1.72-3.43-5.58-4.72-11.87-4.95-18.23-.2-5.5.64-11.05 1.02-16.55l-8.1-.8c3.84 9.66 5.94 19.24 4.5 29.4-.92 6.4-3.02 11.97-8.79 15.57-1.57.98-3.1 2.04-4.21 2.77 4.73 0 9.8-.06 14.88.02 2.64.05 5.28.28 7.91.55 5.02.52 10.28.34 14.99 1.86 11.76 3.8 23.27 8.4 34.89 12.65 8.8 3.21 17.7 6.3 27.17 6.45 3.58.05 7.18-1.11 10.76-1.76 4.18-.76 8.35-1.58 13.33-2.53zM300.02 786.45c29.83-6 59.89-9.9 89.26-13.24-.93-8.05-1.93-16.16-2.74-24.28a7 7 0 0 1 1-4.07c2.15-3.63 4.58-7.1 6.82-10.68.38-.6.7-1.48.55-2.11-.77-3.32-1.92-6.55-2.53-9.88-1.66-9.03-3.48-18.07-4.53-27.18-1.04-9.04-1.22-18.18-1.78-27.34l-2.46-.57c-.26.58-.64 1.2-.8 1.86-2.5 9.93-5.18 19.81-7.37 29.8-1.8 8.19-2.86 16.53-4.51 24.75a238 238 0 0 1-4.04 16.27c-.55 2-1.65 3.7-4.31 3.45-1.38-.12-3.06-.21-4.14.45-5.95 3.63-11.67 7.62-17.62 11.26a1244 1244 0 0 1-27.75 16.53c-5.13 2.96-10.49 5.52-15.6 8.19zm153.51 83.22c1.64.3 3.16.48 4.6.89 7.33 2.07 14.31 4.75 19.69 10.52 4.86 5.22 5.17 12.24.37 17.46-8.53 9.28-19.2 14.83-31.74 17.6 20.55 4.75 41.3 5.3 62.08 6.62.4-1.2.88-2.22 1.1-3.3 2.16-10.17 3.72-20.34 2.58-30.87-1.1-10.23-4.66-19.02-12.51-25.82-3.79-3.28-7.5-4.55-12.93-2.65-10.83 3.78-22.06 6.41-33.24 9.54zm-167.1-524.95c.77 5.51 1.46 10.8 2.27 16.06.72 4.63 2.09 8.79 5.8 12.24a44 44 0 0 0 16.4 9.73c2.8.94 5.98 1.4 8.92 1.15a79 79 0 0 0 13.05-2.42c1.7-.43 3.79-1.51 4.59-2.93 6.42-11.37 9.91-23.43 7.49-36.62-.13-.7-1.16-1.56-1.93-1.77a72 72 0 0 0-9.42-2.24c-4.84-.7-9.73-1.47-14.6-1.4-4.92.06-9.89.83-14.74 1.8-6.3 1.27-12.68 2.55-17.84 6.4m354.44 562.7-.9.64c-1.18-.84-2.69-1.45-3.44-2.57a47 47 0 0 1-3.84-7.18c-2.52-5.69-4.32-11.56-4.16-17.88.14-5.24 2.6-8.62 7.48-10.27 2.48-.83 4.94-1.72 8.12-2.84-6.34-2.87-11.85-5.38-17.37-7.86-.26-.12-.61-.08-.92-.06-4.24.27-8.5.56-13.44.89 0 15.18.02 30.24-.03 45.29 0 1.76.4 2.54 2.34 2.47 2.67-.08 5.35 0 7.99.33.87.1 2.13 1.04 2.3 1.8.24 1.1-.33 2.39-.52 3.4l57.53-1.95c-4.62-1.15-9.1-1.74-11.32-6.13-.89-1.75-2.67-3.78-2.3-5.27.48-2.02-.4-2.7-1.34-3.86-4.68-5.77-9.35-11.54-13.9-17.4-1.8-2.3-3.27-4.86-4.65-6.94-2.88 1.67-5.55 3.08-8.07 4.73-1.24.81-3.04 1.99-3.14 3.12-.73 8.41-.43 16.76 3.17 24.67.38.84.28 1.9.41 2.87M47.33 923.59c-.62-3.66-1.49-7.35-1.84-11.08-.86-9.3 2.38-17.7 6.44-25.8q6.19-12.3 12.86-24.33c.77-1.4 2.42-2.5 3.9-3.3 1.75-.96 3.72-1.54 5.63-2.12 19.46-5.9 39.41-8.56 59.67-9.35 3.8-.15 7.6-.54 11.6-.85-.67-.39-1.14-.86-1.66-.93-9.22-1.28-18.42-2.76-27.67-3.67-5.31-.52-10.72-.29-16.07-.1a874 874 0 0 0-27.6 1.4c-4.43.3-8.77 1.6-11.76 5.07-9.36 10.84-18.9 21.57-27.58 32.95-3.72 4.88-6.6 10.8-3.91 17.9 2.5 6.62 4.79 13.16 9.26 18.81 2.43 3.08 4.87 5.58 8.73 5.4m786.4-416.64c-4.53 4.1-8.98 8.1-13.38 12.14a190 190 0 0 0-7.56 7.2c-1.72 1.77-3.06 3.93-4.82 5.66-2.43 2.38-5.08 4.51-7.64 6.77-.15.13-.34.34-.33.5.2 2.55-1.98 3.2-3.45 4.52-1.73 1.56-3.12 3.51-4.66 5.29l3.93 2.2c.12.07.16.3.5.98-6.8.07-13.1-.85-19.37-3.07a15 15 0 0 0 3.98 3.03c1.9 1.02 4.22 1.53 5.73 2.93 7.72 7.12 17.32 11 26.35 15.89a10 10 0 0 0 4.64 1.17c7.82-.08 14.95-2.8 21.73-6.38a44 44 0 0 0 9.09-6.07c2.68-2.43 4.59-5.7 7.05-8.42 3.64-4.03 4.74-8.94 5.03-14.06.52-9.04-2.1-17.3-6.7-25-.79-1.3-1.18-2.94-2.2-3.99-5.7-5.81-11.6-11.43-19.33-14.44-1.28-.5-3.39-2.28-4.69.62-.29.67-1.7 1.13-2.62 1.16-4.37.1-5.77 3.51-8.27 7 6.82-1.3 11.79 1.97 16.99 4.37M422.48 347.89l.75-.28c-1.11-4.06-1.94-8.22-3.4-12.13-1.24-3.32-4.36-5.01-6.81-4.6-3.6.63-7.22 1.1-10.78 1.83-6.7 1.36-13.43 2.61-20 4.44-2.32.65-5.49 2.5-6.04 4.42-1.37 4.82-2.9 10.35-1.78 14.98 2.52 10.5 9.26 22.47 25.62 20.64 3.73-.43 7.93-.1 10.9-3.1 7.17-7.25 11.53-15.8 11.54-26.2m178.84 513.08c-2.54.83-4.54 1.44-6.51 2.16-9.16 3.31-18.72 5.6-27.1 10.93-6.7 4.27-7.8 6.19-6.7 13.9 1.37 9.58 8.8 18.21 18.23 20.22 3.64.77 7.6.23 11.4.1 4.56-.18 9.1-.58 13.87-.9-5.1-15.13-5.81-30.45-3.18-46.4zm-96.1-6.53c3.23 3.47 7.34 6.71 9.92 10.89 8.09 13.1 8.66 27.44 5 41.99-1.36 5.39-3.8 10.51-5.79 15.88 3.77.38 7.7.9 11.66 1.16 5.48.35 6.04-.05 8.27-5.07a29 29 0 0 0 1.94-5.35c2.65-12.1 2.79-24.11-1.03-36.06-3-9.35-8.64-16.72-15.9-22.91l-3.55 1.52c-.22-1.03-.53-1.8-.5-2.54.08-2.58-.91-3.01-3.18-2.02-2.46 1.08-5.05 1.86-6.84 2.51m5.7-223.16c-3.99-17.82-21.44-30.4-34.46-25.22l9.92 38.56h19.64c-1.49-5.42-1.46-12.02 4.9-13.34m108.37 1.52c.78 1.86 1.37 3.53 2.18 5.08a3.8 3.8 0 0 0 1.85 1.73c6.4 2.2 12.8 4.44 19.28 6.4 4.58 1.4 9.26 2.47 13.93 3.49.83.18 2.23-.4 2.78-1.09 5.42-6.82 10.63-13.8 16.1-20.6 1.69-2.1 2.39-4.11 1.69-6.76zm267.68 223.64c-1.26-.23-2.63-.53-4-.74-3.01-.47-4.6.3-5.4 3.8-1.76 7.66-4.26 15.16-6.44 22.73q-2.88 10.06-5.68 19.99c.8.62 1.4 1.13 2.04 1.58 3.07 2.14 8.95 1.8 10.3-.67 2.58-4.76 5.18-9.52 7.54-14.4 2.53-5.24 3.98-10.82 3.48-16.69-.44-5.15-1.2-10.28-1.84-15.6m-521.7-162.41c-1.41-.57-2.91-1.1-4.33-1.77-3.18-1.5-7.1-2.27-7.36-6.94-.02-.28-.78-.5-1.17-.78-2.15-1.52-4.38-2.94-6.42-4.59-5.36-4.33-9.69-4.93-13.89-1.66-.97.76-1.84 1.67-2.61 2.62-1.6 1.98-3.42 2.05-5.63 1.1a37 37 0 0 0-6.77-2.34c-1.28-.28-3.7 0-3.94.64a7 7 0 0 0 .15 4.93c1.39 2.88 3.36 5.47 5.13 8.22 4-.64 8.1-2.61 12.23 0 .19.11.72-.25 1.07-.44 2.77-1.48 5.4-.5 7.7.9 3.76 2.28 7.3 4.93 11.01 7.48 2.28-3.41 5.79-4.34 9.4-3.43 3.47.88 5.45.61 5.43-3.95zM773.68 542.3c3.13.97 4.77-.3 5.22-3.27q.4-2.7.59-5.43c.39-4.85-.23-9.66 3.03-14.21 2.46-3.42 4.28-7.13 8.34-8.95.36-.16.86-.24 1.05-.52 2.57-3.78 7.08-4.35 10.67-6.4 1.83-1.05 4.48-1 5.91-2.33 3.05-2.86 5.55-6.3 8.58-9.88-1.18-.08-1.99 0-2.69-.22-5.67-1.84-10.92.45-15.82 2.43-3.96 1.6-7.38 4.79-10.7 7.65-2.88 2.5-5.35 5.47-7.89 8.33a31 31 0 0 0-3.81 5.1c-1.72 3-4.09 6.06-4.5 9.31-.78 6.1-.54 12.38 2.03 18.38zM672.92 847.47c-1.18 3.84.44 5.31 2.59 6.3 6.99 3.21 13.93 6.53 21.05 9.42 23.79 9.67 47.64 19.16 71.46 28.72l13.32 5.42.52-1.2c-36.1-16.5-72.14-33.17-108.95-48.66zm-216.8-225.8.92.34c1 1.33 2.44 2.52 2.94 4.02 2.2 6.65 4.14 13.4 6.31 20.58l10.59-.79-10.07-36.28zm469.95-3.1.16-.98c-1.1-.25-2.19-.57-3.3-.75-11.84-1.92-23.77-3.44-35.51-5.82-17.35-3.51-34.55-7.72-51.85-11.43-2.55-.55-5.73-2.27-8.16 1.7 32.54 8.97 65.58 13.25 98.66 17.27zm-133.12-84.73c2.2-.7 4.34-1.02 6.08-2.02 1.83-1.07 3.24-2.86 4.92-4.22 2.96-2.4 6.1-4.58 8.94-7.09a31 31 0 0 0 4.88-5.53 7.3 7.3 0 0 0 1.15-4.18c-.02-.4-2.19-.82-3.4-1.05-.9-.17-1.85-.04-2.78-.03-5.5 0-7.85 2.33-7.85 7.77 0 1.44-.1 2.9.02 4.33.18 2.23-1.16 2.38-2.74 2.05-7.02-1.5-11.14 2.5-9.21 9.98zm-204.48 1.37 19.64-2.11c-.46-2.44-.77-4.72-1.35-6.93-.2-.82-.88-1.84-1.6-2.16-5.58-2.43-11.34-3.45-17.57-1.7zm329.82 43.64q.5.08 1.03.13c.24-.76.72-1.53.7-2.29-.16-4.5-.24-9.02-.7-13.5-.88-8.86-1.97-17.7-3.08-26.53-.11-.92-.91-1.76-1.4-2.64-.91.51-2.22.8-2.65 1.59-.87 1.58-1.26 3.42-1.71 4.77q-4.63-2.39-9.31-4.84c-1.89-.99-2.74-.02-3.25 1.17 3.87 1.72 7.56 3.3 11.2 5 .64.3 1.38 1 1.54 1.64a564 564 0 0 1 3.76 16.34c1.35 6.37 2.59 12.77 3.87 19.16m-182.5 72.05-.95.06c-.76 1.28-1.39 2.67-2.3 3.83-3.5 4.38-5.69 9.17-5.79 14.9-.03 1.94-.19 4.42-1.35 5.7-4.65 5.13-9.75 9.87-14.61 14.81-.5.52-.58 1.44-.86 2.17.82-.27 1.82-.35 2.44-.87a869 869 0 0 0 14.92-12.84 7 7 0 0 0 2.05-2.83 534 534 0 0 0 6.15-19.42c.5-1.72.22-3.67.31-5.5zm161.86 45.22c-.6-.98-.64-1.11-.7-1.13-15.2-5.44-30.4-10.9-45.63-16.24-2.11-.75-4.5-1.2-6.46 1.54 3.2 1.14 6.25 2.33 9.35 3.3a6506 6506 0 0 0 40.12 12.5c.85.26 1.85.03 3.32.03m22.16-379.68-1.35.74c.67 1.4 1.14 2.94 2.06 4.14 1.93 2.5 4.15 4.79 6.16 7.24 7.66 9.37 13.68 19.56 15.65 31.76.12.76.7 1.44 1.06 2.15l.76-.42c-2.52-18.22-9.05-34.29-24.35-45.62zM644.12 530.03c-2.87-2.63-3.34-6.9-8.23-6.96-3.72-.04-7.4-.75-10.93.41v8.14zm-40.29 108.82-2.51-20.02-6.36-.73 1.43 18.4zm395.52-.73 1.21-1.33q-1.7-1.22-3.42-2.42c-3.82-2.66-7.5-5.6-11.54-7.87-5.33-3-10.9-5.58-16.48-8.08-1-.46-3.35-.08-3.71.62-.95 1.8.96 2.12 2.24 2.74 7.65 3.69 15.3 7.38 22.88 11.2 3.03 1.53 5.88 3.42 8.81 5.14zm29.1 210.97-16.36 3.24 13.62 12.37zM352.95 712l8.38 3.86 2.75-12.1c-2-.33-3.8-.85-5.6-.84-.94 0-2.37.67-2.75 1.44-1.12 2.35-1.82 4.9-2.79 7.64zM244.39 409.79l-2.1 3.32c-.82-.64-1.76-1.17-2.41-1.95-1.06-1.26-1.92-2.68-3.18-4.49 0 2.84.13 5.08-.03 7.3-.18 2.64 1.22 3.83 3.52 3.98 2.73.2 5.5.05 9.15.05zm117.5 268.92c-1.65 7.03-.4 9.6 5.12 10.93l3.41-10.93zm93.46-49.47c-3.66 1.23-3.71 3.38-2.25 6.4a49 49 0 0 1 3.75 9.85c.72 3 2.07 2.27 3.71 1.67zm-112.72 116.5 13.32-7.1c-6.45-4.2-12.9-.44-13.32 7.1m388.69-523.15-.14 1.33 40.49 3.9q.06-.52.1-1.06zm59.52 205.65c-6.59 1.58-13.53 2.13-19.23 6.33 7.12.02 12.94-3.84 19.23-6.33m-470.72 325.2.9.61 9.75-4c-2.3-1.59-4.66-3.43-7.12-1.89-1.63 1.03-2.38 3.47-3.53 5.28m370.5-101.82 1.16.57c2.14-4.16 4.31-8.3 6.38-12.48.3-.63.1-1.52.15-2.3-.7.44-1.74.7-2.02 1.31-1.98 4.26-3.8 8.59-5.68 12.9m-32.54-122.8 19.15-1.47c-4.42-.37-8.07-.22-11.46-1.07-3.2-.81-5.48-.4-7.7 2.54m-222.18-204.9c4.22.22 5.1-.34 6.77-4.57h-5.72zm124.85 364.86c1.66-1.63 3.87-2.86 3.8-3.91-.19-2.6-2.55-3.5-5.55-3.77zm180.63-167.75h-2.45v10.27c3.3-3.25 1.74-6.82 2.45-10.27m160.62-151.67-.93.18 2.75 14.4.86-.17-2.67-14.4z"/><path fill="#000" d="M240.8 315.5c-1.93-7.32-1-14.55.58-21.78.13-.59.14-1.2.21-1.8l.65-2.56c2.32-5.45 4.38-11.06 7.07-16.33 1.97-3.86 4.77-7.28 7.2-10.9l3.06-3.72c4.66-3.93 9.17-8.06 14.07-11.68 1.96-1.44 4.72-2 7.21-2.4.9-.14 2.43 1.17 3 2.2.36.65-.2 2.3-.88 2.96-3.78 3.7-7.72 7.23-11.6 10.81l-1.93 2.43-12.34 14.81-1.28 1.9a61.6 61.6 0 0 0-11.62 26.15c-.63 3.38-.53 6.91-.66 10.38-.04 1.28 0 2.35-1.77 1.83zm80.05-44.64c7.4 6.05 15.75 10.5 24.53 14.12 4.32 1.77 8.93 2.83 13.32 4.46.97.36 1.57 1.75 2.33 2.67-.97.29-2.01.95-2.92.8-14.1-2.2-26.88-7.74-38.9-15.37-14.31-9.08-24.51-21.8-32.91-36.17a107 107 0 0 1-5.2-10.1c-.65-1.43-.59-3.18-.85-4.78l1.26-.53c1.35 1.43 2.86 2.74 4 4.32 5.27 7.39 10 15.22 15.8 22.17 4.84 5.82 10.89 10.64 16.4 15.9zm3.73-59.38c-11.22-.33-22.4-.39-33.47 4.26.74-6.08 4.52-7.7 8.5-8.63 14.88-3.52 29.57-2.44 44 2.41 8.88 3 17.4 6.72 24.17 13.5a34 34 0 0 1 3.6 4.2c.45.62.42 1.61.3 2.56-7.77-7.56-17.06-11.87-27.2-14.58l-2.56-.63-14.86-2.58zm-77.58 9.9c3-1.6 5.93-3.34 9-4.75 1.42-.65 3.13-.7 4.72-.96 2.58-.44 4.23.35 4.81 3.19.58 2.8-1.58 3.3-3.2 4-6.4 2.79-12.61 5.89-17.92 10.5-6.06 5.29-11.8 10.84-14.58 18.72-.28.76-1.37 1.23-2.08 1.83-.31-.99-1.05-2.05-.88-2.95a39.6 39.6 0 0 1 8.76-18.35c2.5-2.98 5.31-5.7 7.99-8.55zm-11.6 151.53c-2.21 2.6-1.98 7.41-5.99 9.46-3.82-3.7-1.26-7.77-1.14-11.59.05-1.68.86-3.32.95-5 .17-3.33-2.86-3.43-4.86-3.9-4.31-.99-6.7.56-8.44 4.7-2.27-2.28-2.93-5.95-1.5-8.52 1.34-2.44 4.26-3.43 7.35-3.16 8.33.73 13.51 5.6 17.18 12.59.46.85.76 1.87.82 2.83.07 1.25-.17 2.52-.28 3.77zM319 244.25l.99 1.26 1.49 1.83 14.09 16.52-.71.88c-1.54-.73-3.39-1.15-4.56-2.26-7.4-7.02-14.65-14.21-20.34-22.76a34 34 0 0 1-2.78-5.27c-.31-.7-.08-1.64-.1-2.47.9.26 2.12.23 2.64.83 1.86 2.13 3.46 4.49 5.2 6.73.76.97 1.61 1.86 2.42 2.79l1.67 1.92zm-46.85 40.22c1.75-2.56 3.34-5.26 5.36-7.59.78-.89 3.04-1.67 3.77-1.2 1.9 1.23.9 3.19-.05 4.71-2.61 4.2-5.34 8.3-7.98 12.48-.99 1.57-1.85 3.22-2.78 4.83l-1.42-.55 1.73-9.58zm90.2-31.52c-3.84-1.06-7.64-2.52-11.56-3.07-2.93-.41-3.07-2.75-2.94-4.1.2-1.88 2.3-2.85 4.3-2.06a221 221 0 0 1 13.13 5.67c1.3.62 2.34 1.9 3.37 3 .31.33.19 1.07.26 1.62-.6.06-1.22.25-1.8.17-1.18-.18-2.33-.52-3.5-.78zm4.33 161.3 1.87-.01 1.93-.27.18.04.1-.15.92-.07h7.74c-1.15 1.14-1.55 1.89-2.1 2.02-4.4 1.04-8.82 1.96-13.24 2.91-.2.05-.45.08-.62 0q-1.88-1.03-3.76-2.1l3.27-2.34zm334.27-102.37c.08-2.3-.8-4.55 2.8-5.67 3.86-1.2 6.6-.3 7.06 3.8.41 3.72.86 7.43 1.05 11.15.04.73-1.06 2.16-1.62 2.15-1.46-.02-3.66-.2-4.23-1.12-2-3.28-3.45-6.9-5.11-10.4zm30.37-89.3 40.46 4.17-.1 1.07-40.49-3.9zm59.52 205.65c-6.28 2.5-12.1 6.36-19.23 6.34 5.71-4.2 12.64-4.76 19.23-6.34m111.15-58.87 2.67 14.4-.86.17-2.75-14.4zM474.6 666.46c-.26-.46-.53-1.35-.76-1.34q-6.75.3-13.48.8c-1.92.14-3.82.45-5.72.75-1.62.26-1.95 1.68-.86 2.33 5.15 3.04 4.9 8.45 5.88 13.15 1.7 8.1 2.84 16.3 4.19 24.47.1.7-.06 1.43-.1 2.24-2.64.37-3.54-1.66-4.04-3.33a346 346 0 0 1-5.7-20.94c-1-4.32-1.37-8.8-1.9-13.22-.2-1.58.4-3-1.11-4.6-2.4-2.56-1.4-5.06 2.08-5.93 7.48-1.88 15.12-2.3 22.8-1.94 2.2.1 4.78 3.3 5.27 6.15 1.06 6.04 1.97 12.12 3.13 18.14 1.24 6.4 2.73 12.76 4.02 19.16.3 1.49.5 3.11.19 4.56-.21 1-1.23 2.39-2.11 2.58-4.7 1.04-9.44 2.13-14.22 2.44-2.19.14-4.48-1.46-6.73-2.28l.33-.79c5.32-1.82 10.66-3.57 15.92-5.53.57-.22 1.15-1.73.97-2.45-2.77-11.21-5.68-22.4-8.52-33.6-.06-.23.29-.57.44-.87l.02.05zm-34.29 38.2c.58 3.21-1.1 5.9-3.59 8.27-4.62 4.43-9.06 3.73-12.03-1.96-2.95-5.67-2.32-11.04 1.77-15.05 2.01-1.97 4.16-3.66 7.15-2.35 3.46 1.52 6.38 3.64 6.68 7.9.07.92.01 1.85.01 3.18zm-4.3-1.8-.7-1.02c-.39-.07-.76-.18-1.13-.18-1.08.01-2.63-.36-3.13.2-1.1 1.2-1.72 2.89-2.33 4.45-.05.12 2.05 1.48 2.35 1.25 1.77-1.4 3.32-3.1 4.93-4.7zm-21.77-25.6c-.04-5.6 2.76-7.62 8.15-6.13 1.83.5 3.86.29 5.7.76 5.43 1.39 7.44 3.93 7.28 8.82-.1 3.16-3.38 6.12-7.57 7.23-6.41 1.72-14.58-5.08-13.56-10.69m7.77 4.44 1.11.54 5.08-5.34-.97-1.3c-1.74.82-3.69 1.4-5.12 2.57-.6.5-.1 2.31-.1 3.52zm88.26 12.34c2.19 0 4.35 1.88 4.3 3.75-.08 3.47-1.99 5.68-4.89 5.65-3.04-.02-5.05-2.06-5.04-5.09q.01-4.3 5.63-4.31m-8.2-31.87-.19-.56c1.16-.17 2.78-.92 3.38-.42a22 22 0 0 1 4.26 5.1c.2.3-1.2 2.31-1.99 2.4-2.19.21-4.6.28-6.6-.48-1.31-.5-2.03-2.55-3.01-3.9l4.24-2.24c-.08.61-.25 1.22-.23 1.84.03.9.09 1.83.37 2.68.06.16 1.68.1 1.75-.12.33-.97.67-2.17.34-3.03-.23-.63-1.51-.86-2.32-1.27m24.33 14.97c4.84-2.45 7.23-2.22 8.6.8.79 1.75-1.13 5.36-3.69 5.9-6.13 1.27-3.62-4.18-4.91-6.7m1.91-8.6c-2.25-.74-4.07-1.05-5.59-1.9-1.92-1.08-2.38-3.83-1.12-5.25 1.65-1.88 3.44-.86 5.15-.07.77.36 1.64.71 2.19 1.32.9 1.01 2.28 2.31 2.16 3.33-.12 1-1.87 1.8-2.8 2.6zm-22.7 16.37c-2.54-.05-4.6-2.39-4.64-5.07-.04-2.2 1.69-4.25 3.54-4.22 2.27.03 5.42 3.48 5.08 5.89-.31 2.25-1.63 3.67-3.98 3.4m-.78-7.52-1.61 4.43c1.01 0 2.31.4 2.99-.08 1.86-1.33.77-2.57-1.38-4.35m28.43 15.64c0 1.84.3 3.64-.08 5.28-.41 1.83-2.18 2.74-3.79 1.93-.73-.37-.82-2.31-.93-3.55-.26-3.09 1.48-4.03 4.8-3.65z"/><path fill="#000" d="m474.59 666.42-.43.61-.3-.34.74-.22zm-156.74-62.7c-1.78 8.76-2.9 17.7-6.85 25.91-2.51 5.26-6.99 7.7-12.92 3.27-5.96-4.46-8.37-10.55-8.68-17.54-.18-4.2.55-8.42.88-12.68-3.14 0-6.45-.06-9.76.01-8.22.19-12.6-5.15-15.58-11.6-3.64-7.88-5.4-16.37-3.43-25.03.96-4.19 3.17-8.09 4.68-12.17.37-1.01.34-2.23.29-3.34-.12-2.27-.54-4.59 2.23-6.03l3.67 1.23c8.9-7.64 19.24-11.76 30.84-13.3 4.58-.6 8.83.2 13.25.63 4.02.4 8.2 0 12.22-.58 9.95-1.48 19.36.3 28.54 4.03 1.3.52 2.6 1.1 3.77 1.89 2.17 1.47 3.84 1.88 6.28-.12 2.34-1.92 3.57.39 4.06 2.68-2.51 2-2.63 2.89-.35 5.46 6.53 7.35 8.09 15.95 6.14 25.3-.42 1.99-1.7 3.93-2.97 5.6-2.65 3.5-5.63 6.75-8.3 10.24-.48.62-.55 2.13-.12 2.8 4.86 7.67 6.56 15.76 4.25 24.73-.72 2.8-.91 5.65-3.38 7.5-3.03 2.3-7.1 2.42-10.65-.32-3.7-2.88-6.95-6.37-10.1-9.32-.21 1.88-.32 4.74-.86 7.51-1.23 6.27-5.34 11.26-12.25 11.07a7.7 7.7 0 0 1-4.36-1.7c-5.8-4.87-8.04-11.45-8.79-18.77-.25-2.47-1.19-4.86-1.81-7.29-.1-.38-.17-.78-.33-1.14-.64-1.46-1.63-2.79.72-3.88 2.36-1.1 3.57-.13 4.55 1.8.31.6.39 1.46.86 1.83 2.7 2.06 2.94 5.07 3.56 8.06 1 4.86 2.37 9.65 3.74 15.04 8.65-6.7 7.92-15.91 9.53-24.48l2.26 1.13c.6-.7 1.14-1.85 1.8-1.94.7-.09 1.8.64 2.3 1.32 1.83 2.57 3.2 5.53 5.29 7.84 2.4 2.65 5.15 5.22 8.22 7 2.86 1.65 4.8.11 4.49-3.26a54 54 0 0 0-1.87-10.47c-1.26-4.22-1.01-8.88-3.97-12.68-.85-1.1-.67-3.3-.38-4.88.94-5 4.03-8.53 8.29-11.15a5.9 5.9 0 0 0 2.99-5.62c-.18-7.96-3.86-14.03-10-19.18-11.94 7.8-25.01 13.24-38.9 17.32-.2 2.46-.5 5.1-.64 7.74-.53 10.57-5.43 15.71-15.76 15.2a43 43 0 0 1-14.7-3.44c-4.48-1.95-6.15-4.6-4.14-9.34 1.62-3.85 3.87-7.45 5.8-11.1l-16.15-8.63c-5.81 5.4-7.42 8.58-6.3 18.46 1.45 12.88 4.48 17.6 17.5 20.34 4.33.91 8.8 1.16 13.38 1.73-.1 1 .16 2.82-.37 3.08-1.88.93-1.43 2.45-1.62 3.9-.31 2.42-1.08 4.85-1.02 7.26.12 4.1.5 8.25 1.28 12.28.26 1.28 2.02 2.82 3.37 3.16.82.2 2.47-1.46 3.2-2.62 1.27-2.02 2.18-4.27 3.13-6.47 1.59-3.67 3.07-7.38 4.62-11.06 1-2.38 2.57-3.83 5.37-3.21zm35.84-58.52a49 49 0 0 0-24.48-5.8l1.39 3.41c-17.73-3.34-33.97-1.27-48.98 8.61l14.7 8.2c2.5-2.11 5.1-3.88 7.12-6.15 1.5-1.7 2.92-1.74 4.85-1.52 2.85.33 5.74.26 8.6.52.93.09 2.15.4 2.66 1.07 1.03 1.36 1.67 3.02 2.6 4.82zm-147.31 10.62c0 10.77-.07 21.54.02 32.3.14 18.16.5 36.31.55 54.46.02 10.59-.35 21.18-.67 31.77-.04 1.24-.46 3.03-1.34 3.58-2.46 1.58-3.7.95-4.15-2.03a384 384 0 0 1-2.42-18.04c-.91-8.4-1.61-16.8-2.4-25.2a19 19 0 0 1-.1-1.55c-.19-28.1-.52-56.21-.44-84.31.02-6.52 1.58-13.02 2.2-19.55.26-2.72 2.37-2.9 4.03-3.1.62-.07 1.87 1.98 2.2 3.22a32 32 0 0 1 1.19 7.5c.15 6.98.06 13.97.06 20.95zm179.2 78.1-12.4-8.39c-.35-.23-.78-.48-.91-.82-.57-1.38-1.04-2.8-1.54-4.21 1.61.03 3.7-.57 4.76.21 5.7 4.22 11.17 8.77 16.68 13.25.92.75 1.3 1.25.39 2.87-1.02 1.78-.42 4.53-.31 6.84 0 .25 1.66.84 2.14.56 2.15-1.23 3.14-3.1 2.49-5.69-.88-3.43.34-4.64 3.9-4.53 5.75.16 11-1.15 14.57-6.17 1.85-2.6 1.13-5.46-1.66-7.2l-8.1 6.42c-1.53-7-7.82-7.05-11.62-10.23-4.57-3.84-9.4-7.38-13.93-11.26-.96-.82-1.94-3.25-1.49-3.8 1.34-1.66 3.5-2.46 5.59-.98a381 381 0 0 1 11.61 8.53c3.9 2.98 7.68 6.1 11.76 9.34 2.8-5.96 7.99-4.66 12.71-3.43 5.24 1.36 8.92 8.08 3.6 14.04-4.25 4.75-9.36 8.07-15.77 9.27-.89.17-1.98 1.3-2.28 2.2-2.31 7.07-10.89 11.74-17.7 9.35a9.52 9.52 0 0 1-2.46-16.16zm-122.26 3.05c2.01 1.52 2.66 5.68 1.03 8.07-1.46 2.13-1.7 3.99.12 6.04 1.98 2.23 4.3 2.05 6.63.99 2.84-1.29 3.75-4.17 3.39-7.32a9.5 9.5 0 0 1 1.19-5.47c2.38-4.12 5.15-8.03 7.82-11.97.27-.39.98-.48 1.6-.76 1.57 4.48-1.74 7.49-2.85 11.01-.76 2.4-1.29 4.5-1.16 7.17.41 8.43-6.5 16.5-15.82 15.38-3.38-.41-7.72-5.86-7.57-10.03.1-3.03-.5-4.52-3.72-5.81-6.63-2.66-8.88-12.67-4.75-18.55 2.9-4.13 10.35-4.17 13.44-.07.54.73 1 1.52 1.57 2.4 5.47-4.24 9.55-10.12 15.93-13.43 1.57 3.65-.92 5.73-2.54 7.77a192 192 0 0 1-10.58 11.9c-1 1.07-2.48 1.7-3.74 2.54-1.06-1.26-2.38-2.38-3.12-3.8-1.23-2.33-3.2-2.74-5.38-2.44-2.85.39-3.35 1.88-1.68 4.2 1.56 2.18 7.02 4.27 10.19 2.18M238.17 533.2c-2.4-3.53-.66-7.29 2.44-10.23 3-2.85 6.89-3.46 11.03-2.19 4.68 1.43 7.78 4.6 10.26 8.56.38.59.8 1.36.73 1.98-.2 1.44-.68 2.86-1.04 4.28-1.44-.48-3.2-.59-4.25-1.52-3.78-3.34-7.36-6.87-12.96-6.43-.29.03-.56.16-1.22.36 1.13 2.24 2.26 3.9 5.1 3.52 2.89-.4 3.95.92 3.3 3.83-1.09 4.8-1.68 5.29-6.54 5.27a12.4 12.4 0 0 0-9.28 3.74c1.3 3.4 4.94 4.86 9.26 3.22 3.62-1.37 7.02-3.33 10.52-5.03l1.8-.86.75.55c-.8 1.5-1.22 3.5-2.45 4.39-4.36 3.16-8.71 6.56-13.58 8.74-7.13 3.2-13.37-1.4-13.35-9.2 0-.83.34-1.81.85-2.45 2.73-3.45 5.56-6.8 8.64-10.53zm147.45-12.88c-1.85 4.29-3.85 8.51-5.49 12.88-.89 2.4-2.43 2.94-4.6 2.64-2.37-.33-2.92-2.2-2.63-4.08.98-6.12 3.38-11.6 8.23-15.7 3.92-3.34 10.34-.46 11.5 3.82.7 2.51 1.33 5.04 1.96 7.41 2.23.54 4.38 1 6.5 1.58 6.2 1.72 8.03 8.24 4.09 13.26-5.09 6.46-12.02 6.8-19.27 6.55-.64-.03-1.36.1-1.9-.13-1.13-.5-2.4-.99-3.16-1.87-.51-.6-.66-2.4-.23-2.74.97-.8 2.56-1.66 3.62-1.4 3.97 1 7.56.02 11.28-1.13 3.05-.95 4-3.31 4.48-5.9.17-.93-.67-2.87-1.25-2.96-1.28-.19-3.21.06-3.96.93-1.75 2.02-3.83 1.7-5.9 1.5-.67-.06-1.59-.94-1.79-1.63-.19-.66.18-2.05.67-2.24 2.33-.98 1.7-2.6 1.17-4.22-.7-2.17-1.47-4.31-2.2-6.47zM762.3 277.1c-.9 3.1-2.34 3.61-4.89 2.29-4.27-2.22-5.34-6.63-7.28-10.37-1.15-2.22.62-3.09 2.63-3.17 6.65-.24 13.3-.7 19.95-.6 7.67.13 15.34.8 23.01 1.22.4.02.94-.09 1.2.12 1.28 1.01 3.16 1.9 3.57 3.23.8 2.59-1.98 2.24-3.35 2.77-1.46.56-2.87.75-3.32 2.65-.13.52-1.58 1.22-2.22 1.05-6.17-1.53-12.37-1.24-18.58-.53-3.51.4-7.02.87-10.72 1.34m-11.26 93.26-3.57-8.7c-1.43.16-3.4.46-5.38.55-.3.01-1.04-1.27-.92-1.4.88-1.04 1.77-2.42 2.94-2.78 2.85-.86 5.83-1.3 8.8-1.76 1.75-.27 3.58-.12 5.35-.34 2.17-.27 4.83 1.6 5.17 3.73.36 2.25.8 4.48 1.22 6.71 1.34 7.03-5.56 12.12-10.37 12.15-3.85.02-6.14-1.32-7-4.91-.69-2.86 1.49-3.26 3.76-3.25m-2.04-8.9c-.07-.06-.12-.16-.18-.17-.06 0-.12.1-.19.15l.27.18.09-.15zm-19.47-30c3.65 3 7.14 3.68 10.96 2.74 1.33 4.5-1.3 7.31-7.14 7.78-4.68.37-9.2-2.56-10.55-7.05a5.3 5.3 0 0 1 .05-3.32c1.23-2.96 2.38-6.06 4.25-8.61 1.26-1.74 3.59-2.77 5.6-3.82.5-.27 2.22.5 2.3 1 .25 1.35.38 3.06-.26 4.16-1.43 2.47-3.36 4.66-5.21 7.12M863.68 295c3.1 2.47 6.96 12.33 6.35 15.98-4.3-2.79-7.13-6.38-9.25-11.4l-2.08 4.65c-3.76-.1-4.47-1.18-3-4.94 1.52-3.92 3.82-7.2 7.8-8.86a15 15 0 0 1 5.23-.97c.72 0 1.46 1.07 2.18 1.66-.7.86-1.22 2.06-2.13 2.5-1.4.7-3.07.87-5.1 1.38m-91-3.77c-.37 2.52.55 3.54 2.8 3.96.88.17 2.04 1.81 2.09 2.83a32 32 0 0 1-.61 7.57c-.29 1.46-1.68 4.04-1.91 3.96-2.2-.66-4.86-1.3-6.18-2.94-1.45-1.8-1.68-4.61-2.34-7-.22-.78-.07-1.65-.17-2.47-.42-3.15.74-4.84 4.12-4.75.57.01 1.16-.6 2.2-1.17zM650.17 579.25c-1.54-.25-3.16-.41-4.72-.8-.57-.15-1.27-.76-1.39-1.27-.09-.4.66-.97 1.02-1.48.46-.65 1.34-1.35 1.28-1.96-.44-4.53-1.13-9.05-1.61-13.58q-.54-5-.74-10.03c-.12-2.81 2.93-4.67 6.38-5.13q14.36-1.9 28.74-3.7c5.22-.67 10.43-1.35 15.66-1.9 1.86-.18 3.13-.02 2.63 2.85-.56 3.24-.22 6.74.23 10.05.93 6.88-.74 13.32-2.97 19.66-.32.93-1.9 1.88-3.01 2.02-11.76 1.57-23.54 2.97-35.31 4.42-2.03.25-4.04.55-6.19.84zm4.61-28.99v22.76c6.9-.68 13.73-1.45 20.59-2 4.58-.38 9.2-.4 13.79-.76.85-.06 2.3-.97 2.34-1.57.5-7.74-.2-15.4-1.94-23.56zm-6.34 23.75c2.9-.12 3.43-.66 2.92-3.23q-1.1-5.57-2.26-11.12-.34 7.14-.66 14.35m-26.6 1.27c-4.12.3-7.77-.45-10.66-3.84-3.33-3.9-4.63-9.72-2.21-13.36 2.7-4.08 7.28-6.35 12.85-4.87 4.52 1.19 9.82 1.54 12.36 6.93 1.29 2.75 1.82 5.3.4 7.93-2.7 5-6.6 8.14-12.74 7.21m4.17-9.77c.04-3.22-2.29-7.53-3.62-6.77-2.13 1.2-4.86 3.03-5.33 5.05-.8 3.4 2.4 7.01 5.05 7.17 1.91.1 3.86-2.62 3.9-5.45m-30.29.61c.21 4.85-1.69 8.95-5.56 11.55-7.45 5.02-16.35 1.02-18.6-8.02-1.48-5.91 3.38-11.97 9.61-12.33 1.57-.1 3.04-1.46 4.64-1.77 6.71-1.3 10.61 4.92 9.91 10.57m-17.62 2.92c2.06 1.06 3.91 2.3 5.95 2.98 2.83.96 5.27-1.4 4-4a11 11 0 0 0-4.66-4.8c-.66-.33-2.81 2.26-4.2 3.6-.4.37-.53 1.04-1.1 2.22zm76.2 44.09c-1.76 2.06-3.23 2.27-4.79.7l-9.35-9.5c4.46-3.33 5.37-3.26 8.2.46 2.06 2.72 3.96 5.56 5.93 8.34zm-25.11-8.8c7.47 1.44 10.88 7.35 15.38 12.26-3.44.24-14.84-8.81-15.38-12.26m34.02 7.27q-2.8.2-9.3-9.57c2.35.33 4.31.02 5.4.86 2.75 2.1 3.88 5.22 3.9 8.71m-402.33 99.8c-2.8 1.47-6 2.46-8.3 4.48a43.2 43.2 0 0 0-14.3 24.97c-1.29 6.96-.24 13.35 5.13 18.49 3.52 3.37 7.08 6.71 11.2 10.61-1.46.16-2.3.52-2.9.28-7.23-2.96-14.14-6.4-17.68-14.04-2.69-5.82-1.9-11.8-.29-17.56 3.14-11.22 9.26-20.6 18.68-27.64 1.23-.92 2.83-1.4 4.29-2 2.45-1 3.55.32 4.05 2.52l.1-.11zm551.37-99.48.47-.11-.06.42-.35-.4zM418.61 759.05c-.13-4.4 4.35-9.23 8.63-9.29 5.71-.08 10.64 3.23 10.8 7.26.2 5.62-4.83 11.35-10.03 11.4-5.32.05-9.24-3.85-9.4-9.37m11.12 4.66c2.55.03 3.49-1.1 2.35-3.45-.86-1.77-2.37-3.25-3.7-4.77-1.23-1.42-2.88-2-4.15-.31a5.4 5.4 0 0 0-.96 3.83c.47 2.32 4.08 4.68 6.45 4.7zm19.85-6.45c.04-4.7 4.4-8.04 10.5-8.03 3.45 0 7.23 4.49 7.19 8.53-.04 3.83-4.75 8.2-8.84 8.2-4.72-.02-8.89-4.12-8.84-8.7zm13.36 4.04-3.21 2.14c1.5-5.27-1.44-7.98-4.5-10.7-2.46 1.82-2.45 4.45-1.51 6.82 1 2.52 3.06 4.55 6 4.4 1.21-.06 2.36-1.5 3.54-2.3l.41-.52zm25.15-2.83c-5.17-.5-5.26-.5-5.48-5.25-.04-.88.9-2.51 1.57-2.62 6.29-1.02 12.61-1.76 18.91-2.65 2.23-.32 3.6.64 3.88 2.72.27 1.95-.55 3.46-2.74 3.96-5.39 1.24-10.76 2.55-16.14 3.83zm2.02-6.1 15.4-1.61c-5.77-2.37-10.53.17-15.4 1.6m44.29-1.81c-1.31.66-2.58 1.5-3.98 1.9-.56.16-1.4-.68-2.12-1.07.34-.55.58-1.5 1.02-1.6 1.6-.38 3.25-.48 4.88-.68zM322.5 356.82c2.37-.04 4.96 3.23 4.98 6.3.03 3.8-2.38 6.56-5.74 6.63-2.14.04-4.53-3.5-4.58-6.8-.05-3.9 1.84-6.06 5.33-6.13m86.56 523.46-.72-.03.28-.57zm386.2-320.6c3.35-3.61 6.78-6 8.07-10.72.76-2.77 4.37-4.76 6.7-7.08 1.04-1.03 2-2.17 3.2-2.98 1.02-.7 2.32-1.03 3.5-1.5.35-.13.85-.03 1.07-.25 2.38-2.48 4.69-5.04 7.1-7.5 3.05-3.12 6.25-6.11 9.25-9.27 2.12-2.24 4.1-4.62 6.01-7.04 1.16-1.46 2.16-2 3.6-.4 3.15 3.53 6.9 6.72 6.55 12.15-.06.83-.28 1.68-.17 2.48.15 1.04.56 2.04.6 2.17l.4 7.75-.96.36.82.3c-.83 2.5-1.42 5.13-2.56 7.49-2.32 4.83-5.93 8.57-9.98 12.14-5.06 4.46-11.02 4.95-17.09 5.8q-3.13.43-6.17 1.32c-3.13.9-5.84.32-8.76-1.14-3.44-1.72-7.25-2.69-11.16-4.08zm12.74-.04c5.73 1.52 10.5-1 15.5-2.37-3.17-6.05.9-12.9-3.04-18.42-2.81 3.06-5.28 6.56-8.53 9.06-3.23 2.5-4.6 5.17-3.95 9.07.13.8.02 1.63.02 2.66m29.12-25.67c0-2.01-.22-3.59.06-5.06.25-1.32 1.16-2.72-.9-3.07-1.31-.23-3.17-.4-4 .32-1.75 1.48-2.94 3.6-4.4 5.4-1.2 1.5-2.48 2.92-4.32 5.07zM391.15 349.7a10.5 10.5 0 0 1 4.61 10.81c-.5 2.56-2.55 3.62-4.5 4.72-.34.18-1.3-.36-1.7-.8-2.14-2.38-2.6-9.95-.72-12.68.56-.82 1.51-1.36 2.31-2.05m342.12 199.4q2.28.49 4.57.96l-.13.66-4.9-1.07zm-189.85 20.3.65-.96.39.3-1.08.66z"/><path fill="#000" d="M490.11 752.37c4.87-1.45 9.63-3.98 15.4-1.61-5.5.57-10.44 1.1-15.4 1.6m-148.8-186.71c.11-.26.34-1.59.72-1.63 2.63-.27 5.44-.87 7.9-.22 2.25.6 1.85 3.14 1.18 5.1-.78 2.29-1.45 4.61-2.48 6.77-.37.77-1.74 1.62-2.52 1.52-1.22-.16-3.1-.92-3.33-1.78-.8-3-.98-6.15-1.48-9.77zM674 556.14c3.3.24 2.9 3.18 3.94 4.96.19.31-.4 1.4-.89 1.68-.38.22-1.34-.07-1.74-.45-2.9-2.68-3.07-3.61-1.31-6.19"/></svg>