<svg xmlns="http://www.w3.org/2000/svg" width="1080" height="1080" fill="none" viewBox="0 0 1080 1080"><path fill="#fff" d="M816.45 496.55c2.93 3.92 5.82 7.71 8.61 11.58 1.14 1.58 2.88 3.27 1.34 5.4-1.91 2.66-2.77 6.93-7.54 5.76-1.1-.27-.95.39-1.33.9-2.61 3.48-5.96 5.3-9.7-.01-2.24 5.69-4.28 11.33-6.97 16.72-5.25 10.51-10.68 20.95-15.25 31.8a262 262 0 0 0-13.42 40.97c-.69 2.88-1.33 5.77-2.09 8.63-.2.77-.26 1.43.47 1.72.69.28.86-.52 1.2-.94 1.06-1.34 1.84-3 3.99-2.96 1.06.02.96-.95 1.1-1.71q1.44-7.94 2.96-15.87c.1-.55.3-1.13.61-1.59.36-.54.82-1.24 1.63-.82.65.34.37.95.28 1.53-.89 5.7-1.72 11.4-2.62 17.08-.35 2.26.53 4.38.59 6.58.14 5.13-.5 10.3-2.05 15.06a58 58 0 0 0-2.7 25.37c.84 7.06-.48 14.12-1.44 21.17a423 423 0 0 1-4.81 28.34 9 9 0 0 0 .08 3.47c.83 4.11-2.16 7.23-2.75 10.95-1.3 8.13-2.73 16.21-3.33 24.47a1136 1136 0 0 0-2.47 46.26 833 833 0 0 0-.34 25.83c-.01 22.84.2 45.67-.09 68.5-.1 7.52.15 15.17-1.69 22.57-.83 3.36-2.58 6.4-5.73 8.18-1.31.74-3.15.19-4.36.38-3.4.55-2.28-2.21-2.42-3.01a127 127 0 0 1-1.1-32.63c.66-7.36 1.38-14.76 1.67-22.16.32-7.89.55-15.8.26-23.7-.26-7.2-1.24-14.38-1.83-21.58-1.3-15.76.69-31.17 3.52-46.59 1.7-9.25 2.43-18.63 3.19-28.02.6-7.43 2.19-14.79 3.53-22.14.8-4.44.3-8.87.34-13.3.06-8.97-.47-17.95-.11-26.92.02-.52.38-1.44-.41-1.44-2.67 0-2.1-2.25-2.23-3.5-1.18-11.84-1.02-23.63 1-35.4a390 390 0 0 1 10.6-44.59 248 248 0 0 1 16.36-41.1c4.32-8.58 9.11-16.92 13.16-25.61 1.56-3.34 3.72-6.57 3.84-10.64-7.69 1.75-15.3.94-22.93-.54a10 10 0 0 0-3.76 0c-1.38.3-2.45 1.07-1.46 2.83.87 1.57 1.1 3.2-.83 4.18-1.25.64.08 1.83-.95 2.67-2.22 1.82-4.38 3.06-7.15 1.43-1.47-.87-2.54-.6-3.85.41-3.16 2.47-6.7 4.42-9.82 7.49 1.92.08 2.58.19 1.31 2.17-1.43 2.27-3.57 3.47-5.4 5.1-5.84 5.2-11.78 10.28-17.69 15.4-.85.73-1.83 1.95-2.95.89-1.13-1.08-.3-2.4.55-3.34 2.82-3.12 5.7-6.17 8.48-9.36-3.67 2.2-6.78 5.13-10.16 7.72-1.57 1.2-2.88 2.86-5.43 1.94-1.37-.49-2.58 1.03-3.83 1.72a37 37 0 0 0-3.43 2.08c-1.72 1.21-3.45 1-5.03-.08-.79-.53-.19-5.49.65-6.23 1.22-1.09 2.58-2.04 3.77-3.17 1.36-1.31 3.81-1.72 3.62-4.41-.05-.63 1-.8 1.56-1.14l28.96-18.01c-2.54-2.1-3.8-6.14-2.39-9.25.86-1.89.28-2.72-.98-3.85-1.18-1.07-2.45-2.09-2.3-4.11.12-1.56-1.35-1.53-2.35-1.18-8.57 3.01-17.46 2.64-26.25 2.1-11.75-.71-23.51-1-35.26-1.68-7.88-.46-15.33-2.82-22.31-6.28-9.92-4.93-20.45-8.12-30.84-11.72-9.18-3.18-17.78-7.37-25.16-13.75-4.57-3.95-9.75-7.01-14.6-10.53-5.53-4-6.63-9.09-2.55-14.58 4.59-6.18 9.32-12.23 15.88-16.54 1.59-1.05 1.96-3.02 3.11-4.44 1.52-1.85 2.67-4 4.75-5.35 1.75-1.15 1.5-2.25-.16-3.3-2.4-1.52-3.87-3.59-3.98-6.57-.07-1.99 1.88-2.48 2.54-2.21 2.18.93 1.78-.76 1.47-1.43-1.02-2.2.83-5.79-3.15-6.66-.3-.07-.23-1.6-.43-2.44-2.34-10.46-3.81-21.05-5.14-31.68-.84-6.8-2.37-13.51-3.64-20.26-.36-1.96-.92-3.88-1.35-5.83-.1-.45-.21-1.09.01-1.38.6-.74 2.02-.9 1.3-2.43-1.16-2.49-1.58-5.34-3.6-7.42-.54-.58-1.42-.7-1.87-.38-3.9 2.65-7.78.43-11.24-.61-9.98-3.02-20.2-4.1-30.46-5.35-10.13-1.24-20.22-2.54-30.44-2.27-.89.02-1.4-.37-1.94-.99a117 117 0 0 0-32.07-25.04c-5.53-2.96-10.33-6.93-15.2-10.75-6.4-4.98-13.76-8.42-20.19-13.33-3.43-2.62-7.2-4.84-10.61-7.5-5.49-4.27-11.39-7.27-18.5-7.58-4.33-.19-6.29-3.06-7.8-6.9-2.63-6.65-2.05-13.5-2.16-20.33-.04-2.05.24-3.6-2.51-5-2.33-1.2-4.64-2.75-7.56-4.17a40 40 0 0 0 4 10.76c1.73 3.13.73 6.26 1.13 9.35.11.84-.34 1.76.1 2.74.46 1.06.25 2.2-.84 2.8-1.26.67-2.68.3-3.38-.75-.73-1.08-.92-2.16-2.7-1.46-.87.34-2-.95-2.18-1.6-.91-3.33-4.12-3.67-6.4-5.05a61 61 0 0 1-12.81-10.59c-2.3-2.43-5.52-4.01-8.37-5.91-3.48-2.32-5.15-7.03-3.72-10.4.71-1.68 1.72-2.14 3.33-1.25 4.25 2.34 8.34 5.01 11.28 8.89 2.1 2.78 4.87 4.56 7.7 6.94-.39-6.63-1.02-12.74-5.07-18-1.96-2.54-1.22-3.87 2-3.93 1.26-.02.85-1.46 2.3-1.66 4-.55 5.23 2.53 7.31 4.52.95.9 1.4 2.29 2.3 3.26.98 1.06 1.42 2.63 3.84 2.07 1.5-.34 3.66 1.33 5.04 2.92 1 1.16 2.07 2.27 3.58 2.82 1.15.43 2.42.65 3.29-.24 3.37-3.5 6.9-2.35 10.64-.76 4.43 1.87 8.95 3.58 13.87 3.65a12.4 12.4 0 0 0 6.2-1.44c4.12-2.11 8.6-1.06 12.75.87a100 100 0 0 1 15.9 9.07c2.1 1.5 4.05.15 6 1 8.46 3.73 16.67 8.38 25.7 10.45 7.25 1.66 13.75 5 20.73 7.19 1.1.33 2.15.78 3.23 1.17.53-2.05 3.09-1.51 3.98-3.14.58-1.06 1.35-1.17 2.63-.87 4.24 1.02 8.18 2.81 12.13 4.54 2.8 1.22 5.12 1.55 8.25.45 7.9-2.78 16.07-4.7 24.22-6.63 1.9-.46 3.74-1.21 5.7-1.86-1.16-1.3-2.23-2.41-3.2-3.6-.4-.5-1-1.32-.84-1.75 1.14-3.17-1.19-4.45-3.08-6.02-4.25-3.53-5.51-9.98-3.63-16.23 1.34-4.48 4.72-7.67 6.72-11.7 2.65-5.32 6.87-8.58 12.46-10.41 1.49-.49 1.98-3.04 4.32-2.37.27.07-.02-.77-.04-1.18-.16-3-3.27-4.53-3.78-7.01-.7-3.43-1.2-7.02-.64-10.63.56-3.69 1.14-7.36 2.09-10.96.22-.85.46-1.76-.35-2.69-2-2.28-1.37-4.7-.25-7.24 1.32-2.97 3.08-5.65 5.65-7.48 3.8-2.7 5.62-6.82 8.28-10.33 1.19-1.57-.44-3.31-.13-5.19.61-3.67 1.13-7.35 1.92-11 .25-1.15.4-2.5-.5-3.88-1.12.93-1.22 2.32-1.86 3.36-.78 1.23-1.35 3.02-3.47 2.05-.76-.35-1.16.2-1.35.67-1.3 3.29-4.63 4.53-6.88 6.85-.87.9-1.95 1.54-3.54 1.07-.98-.29-2.28.16-3.34.55-4.01 1.48-6.7-.3-6.95-4.61-.18-3.06.85-5.85 1.8-8.64 2.37-7.05 3.98-14.38 7.7-20.95 1.37-2.42 2.95-4.59 5.35-5.9 4.67-6.02 10.4-9.47 15.13-14.73 6.03-6.68 12.57-12.83 20.65-17.2 6.66-3.62 12.89-8 19.18-12.24 7.26-4.91 14.92-9.12 23.7-10.72.91-.16 1.26-.71 1.55-1.48 1.08-2.78 3.17-7.72 6.03-8.5 3.62-.97 6.4-.68 10.23-1.14.24-.03.5-.3.66-.51 4.48-5.8 11.51-7.58 17.56-10.75 4.42-2.31 9.75-2.54 14.49-4.36 2.57-1 5.33-1.48 7.93-2.4 4.5-1.57 8.14-.14 11.72 2.6 5.01 3.86 9.53 8.33 15.14 11.46 4.27 2.39 5.4 7.21 7.59 11.23 3.82 6.98 4.28 15.03 7.27 22.19 5.23 12.54 10.88 24.95 18.13 36.52 3.98 6.36 6.38 13.43 9.14 20.35 2.12 5.3 4.27 10.6 6.63 15.81 2.35 5.16 3.27 10.65 3.53 16.15a297 297 0 0 0 5.16 42.74c.53 2.7.83 5.51.8 8.34-.15 10.04 1.3 19.86 3.15 29.74 1.68 9 2.95 18.11 4.02 27.26 1.47 12.56 3.7 25.1 8.74 36.96 5.9 13.91 11.68 27.86 18.95 41.14 2.34 4.26 4.83 8.45 7.1 12.74 4.17 7.95 7.3 16.4 11.83 24.19 7.36 12.66 14.5 25.44 21.84 38.1 1.94 3.35 2.88 7.2 5.32 10.27.6.76.2 1.57.15 2.42-.63 11.13-6.18 20.13-12.37 28.84-6.4 9.02-10.97 19.07-16.41 28.64-1.67 2.92-3.78 5.55-7.03 7-1.68.74-2.51 2.44-3.33 3.88-1.3 2.3-3.47 3.62-5.45 4.92-1.99 1.3-4.41.29-6.53-.69-.28-.12-.2-1.02-.95-.24-4.06 4.26-9.64 4.49-14.94 5.52-2.68.52-5.51.13-8.29 1.42zm-61.06 8.2c8.96 2.07 17.4 4.1 25.9 5.94a43 43 0 0 0 15.47.73c3.33-.49 4.35-2.01 2.68-4.84a8 8 0 0 1-1.12-4.39c0-3.44-.34-3.69-3.9-3.6-2.01.05-4.94.76-5.88-.26-2.32-2.55-4.17-1.95-6.54-.63-.8.44-2.28.05-2.73.62-3.2 3.95-7.82 2.96-11.94 3.77-3.81.76-7.76.94-11.95 2.66zM278.56 861.34c-3.37.44-6.86-.23-9.9-1.8-6.62-3.41-13.12-2.81-19.92-.77-5.16 1.54-10.34 1.62-15.84.57a89 89 0 0 0-14.06-1.42c-12.05-.32-20.78-5.96-26.66-16.3-2.3-4.03-3.87-8.16-3.6-13.05.36-6.74 4.6-12.4 11.25-13.08a81 81 0 0 0 15.64-3.33c5.36-1.66 10.5-.07 15.73 0 1.23.01 2.4.01 3.63-.13 9.06-1.09 18.13-2.19 27.22-2.97 3-.26 6.05 1.08 9.14.14 4.86-1.47 9.05-4.23 13.03-7.2 5.97-4.43 11.86-8.94 18.83-11.76 1.02-.41 1.36-.85 1.22-2.14-.3-2.8 1.87-4.87 4.68-4.73 3.76.2 7.17 1.08 9.15 4.83 1.47 2.76 3.9 4.71 6.2 6.79 2.39 2.16 5.3 4.14 4.77 8.08 4.2 6.15-1.37 9.8-4.33 13.01-6.85 7.43-14.7 13.93-22.12 20.83-.77.71-1.88 1.46-2.06 2.34-1.1 5.65-5.1 9.35-8.6 13.43-1.62 1.9-3.27 3.8-4.7 5.84-2.19 3.1-5.34 3-8.7 2.83zm377.72 176.8c-.24-11.37 2.61-21.13 4.21-31.05.39-2.4 2.75-2.79 4.78-2.95 1.93-.15 3.88-.02 5.81.06 3.03.12 3.64-.86 3.44-3.77-.19-2.7-1.4-4.56-2.98-6.6-3.1-4.02-2.77-8.92-2.3-13.6.3-2.97 1.12-5.95 2.09-8.85 1.39-4.19 5.54-7.37 11.17-4.9 4.04 1.77 8.36 2.88 12.55 4.3 2.36.81 5 4.37 4.87 6.83-.16 3.22.78 6.5-.5 9.68q-.3.75.15 1.65c1.59 3.03 2.15 6.23 2.22 9.7.11 6.21 4.48 10.4 7.99 14.94 4.12 5.35 7.73 11.02 9.5 17.57a17.4 17.4 0 0 0 7.05 10.11c7 5.01 14.16 9.75 22.19 13.02 3.63 1.48 6.16 4.18 8 7.56.7 1.27.88 1.99-.9 3.05-1.97 1.18-3.27 3.54-4.76 5.46-.14.18-.02.63-.5.69-4.69.54-8.05 3.87-12.01 5.9-4.56 2.35-8.9 2.51-13.4.46-5.75-2.62-11.74-5.01-17.89-5.83-9.56-1.27-17.42-6.05-25.74-10.12-5.4-2.66-10.8-5.31-15.92-8.49-5.99-3.71-10.92-7.92-9.13-14.82z"/><path fill="#fff" d="M595.1 602.96q4.8-2.07 9.63-4.1c2.1-.86 4.35-1.45 6.35-2.5 1.9-1 3.08-.12 4.3.98 1.36 1.25 1.12 2.65-.56 3.05-6.92 1.7-12.63 5.9-18.87 8.99-4.3 2.13-8.48 4.47-12.66 6.8-3.01 1.66-4.96 4.54-7.5 6.76a443 443 0 0 1-6.4 5.45c-.79.66-2.24 1.12-2.51.2-1.18-3.98-2.57-.41-3.08.05-7.12 6.36-14.12 12.88-21.15 19.33-.84.78-1.77 1.46-2.67 2.19.43.61.77.2 1.18.03.32-.14.71-.13 1.24-.2-.14 1.38-.67 2.2-1.92 2.55-5.5 1.54-9.35 5.55-13.52 9.07-14.5 12.18-28.98 24.38-45.9 33.23-.84.44-1.61.62-.93 2.07.52 1.12-1 1.86-1.97 1.87-2.01.03-4.49 1.15-5.5-2.04-.39-1.22-1.69-.9-2.29.02-2.01 3.03-5.64 1.63-8.24 3.1-.84.47-1.62-.87-2.29-1.5-.81-.76-.24-1.57.27-2.32 1.91-2.9 4.7-4.91 7.33-7 7.85-6.2 15.8-12.31 24.3-17.66 1.83-1.16 2.86-3.1 4.28-4.65a106 106 0 0 1 18.14-15.6c1.05-.73 2.16-1.47 2.76-2.53 5.95-10.62 13.54-20.07 21.7-28.96 8.18-8.93 18.34-15.3 29.7-19.64 4.45-1.7 8.89-3.54 13.57-4.41 5.4-1.02 9.14-4.66 13.3-7.68q9.62-7.06 19.2-14.23c1.15-.86 2.1-2.02 3.3-2.79 14.57-9.24 28.53-19.39 42.87-28.95 1.32-.88 2.81-2.4 4.67-.9 1.15.92 2.26 2.6 1.7 3.6-1.22 2.18-1.48 4.79-3.19 6.7-2.78 3.08-5.35 6.38-8.32 9.27a214 214 0 0 1-44.08 33.23c-3.68 2.1-7.41 4.11-11.44 5.52a9.3 9.3 0 0 0-4.8 3.6M287.97 190.38c1.4-3.78.68-7.5 1.35-11.08.45-2.43 2.1-3.35 3.84-4.27 1.7-.89 2.59.69 3.65 1.62a9.5 9.5 0 0 1 2.91 5.22c1.14 5.21 4.1 9.73 5.25 14.88 3.46-1 5.02-4.5 8.37-5.21.57-.12.57-.76.46-1.23-1.62-6.3-1.97-12.8-2.81-19.22-.43-3.24.9-6.46 3.27-7.3 2.08-.71 4.99.7 6.75 3.3 7.23 10.66 15.6 20.43 23.8 30.33 1.73 2.1 2.8 4.88 3.69 7.5.3.9.63.7 1 .7 4.22.14 5.18 1.15 5.2 5.25 0 1.6-.61 3-.89 4.51-.18.98-.74 1.6-1.86 1.12-.88-.37-1.59.17-1.96.7-1.18 1.71-2.65 1.38-4.06.64-1.5-.78-2.85-2.18-4.38-.07-.13.2-.86.2-1.07.03-2.46-2.16-2.9.1-3.72 1.63-1.24 2.35-3.7 2.02-5.78 2.55-5.7 1.45-11.7.44-17.43 2.72a158 158 0 0 1-15.98 5.57c-3.74 1.04-6.7-.06-8.9-2.49-7.5-8.3-17.1-14.03-25.48-21.24-1.17-1-3.19-1.47-2.05-3.74.89-1.78 4.02-3.32 5.86-2.73 3.9 1.26 7.84 2.44 11.63 3.97 1.9.78 2.4.25 2.01-1.4-1.34-5.97-1.17-12.2-3.25-18.04-.8-2.26.07-3.96 2.1-4.9 2.1-.98 3.34.65 4.19 2.12 1.55 2.7 2.81 5.57 4.3 8.58zm167.9 451.33c6.39-3.5 12.74-7.1 19.18-10.52a70 70 0 0 1 16.94-6.59c3-.7 5.06.92 7.59 1.58-1.81.75-3.78.59-5.62 1.2-10.03 3.3-18.9 8.8-27.77 14.36-10.18 6.38-20.44 12.65-30.67 18.97-.56.35-1.18.81-1.8.84-1.2.06-2.62.61-3.57-.5-1.09-1.25.08-2.42.63-3.39 2.4-4.29 6.6-6.97 9.88-10.85-3.2-.37-2.81-1.68-1.5-3.96 2.61-4.5 7.14-6.58 11-9.49 6.36-4.77 13.14-8.87 19.85-13.12 3.25-2.06 7.08-1.48 10.27-3.33.67-.38 2.28.16 2.33 1.06.1 1.66.9 3.5-1.3 4.87a207 207 0 0 0-17.46 11.92c-2.78 2.15-5.5 4.38-8.24 6.57zm234 316.13c-1.69.9-2.63-.36-3.49-1.06-1.1-.91.05-1.96.5-2.8a4568 4568 0 0 1 19.71-36.52c1.16-2.13 3.25-3.36 5.63-3.9 2.05-.46 3.67 1.26 2.82 3.11-1.58 3.45-2.7 7.08-4.62 10.4-4.67 8.03-7.46 16.94-11.67 25.19-.95 1.85-1.16 4.42-3.85 5.11-.54.14-.16 1.48.64 2.04.4.28.4.6.08.88-.42.38-.86.83-1.38 1.02-.83.3-1.16 1.84-2.38 1.08-1.24-.78-.19-1.84.02-2.6.68-2.5-1-1.8-2.02-1.95z"/><path fill="#000" d="M275.52 810.65c9.16 2.71 9.46 10.16 10.34 17.29.07.55-.19.9-.57 1.24-2.35 2.1-2.26 5.06-.26 7.41 1.57 1.85 3.22 1.56 5.19 1.25 6.2-.95 10.23-5.13 14.33-9.33a211 211 0 0 1 17.57-16.45c.65-.53 1.42-.93 2.28-1.5l-2.58-2.73c-5.97 5.82-12.74 10.52-19.47 15.26-1.18.83-2.43 2.58-4.19.72-1.87-1.98-2.33-4.84-.96-6.6 4.54-5.8 10.1-10.55 15.7-15.24 1.48-1.25 2.45-1.93.86-4.23-6.01-8.77-11.6-17.8-13.53-28.55-.74-4.1.33-7.87 2.6-11.1 6.38-9.08 13.91-17.2 21.89-24.9 7.51-7.23 15-14.52 22.75-21.5 6.88-6.17 14.18-11.85 21.18-17.9a920 920 0 0 0 21.43-19.02c9.73-8.96 19.47-17.92 28.89-27.22 8.68-8.57 16.9-17.6 25.37-26.38 8.01-8.29 15.94-16.67 24.19-24.73a1733 1733 0 0 1 35.34-33.56c9.5-8.76 19.28-17.24 29.1-25.65 9.53-8.16 18.91-16.48 28.3-24.78 6.83-6.02 13.25-12.46 20.11-18.42 2.7-2.33 2.61-6.3 5.41-8.6.87-.72-.49-1.71-1.1-2.37-3.93-4.3-8.35-8-13.48-10.83-3.89-2.14-4.3-5.47-1.2-8.5.47-.46 1.1-.92 1.3-1.51 2.53-7.38 7.92-12.77 12.89-18.42 4.33-4.93 8.85-9.7 13.53-14.81-2.37-.54-4.1-1.65-4.71-4-.53-2.04-1.45-3.99-1.2-6.17.32-2.59 2.52-3.52 4.33-4.69 1.21-.79 1.53-1.3 1.11-2.9-2.68-10.33-4.45-20.86-6.08-31.42a1221 1221 0 0 0-6.54-37.19c-.23-1.23-.2-2.49.56-2.75.98-.34 1.94.46 2.64 1.61 2.69 4.47 3.47 9.52 4.52 14.44 3.1 14.44 5.42 29.03 7.66 43.63.67 4.36.76 9.06 2.57 12.92 1.32 2.8.55 5.15.83 7.67.24 2.25.01 2.27-2.22 1.37-.14 2.04.54 2.61 2.74 3.26 4.98 1.46 10.05 2.15 15.1 3.03 11.2 1.95 22.43 3.72 33.65 5.58l21.77 3.64c-.42 1.45-1.36 1-2 .97-7.88-.27-15.7-1.22-23.52-2.2-5.9-.75-11.85-1.22-17.77-1.86-8.47-.91-16.96-1.67-25.32-3.4-1.51-.32-2.64-.03-3.89 1.5-4.37 5.4-9.18 10.45-13.73 15.71-4.27 4.94-8.7 9.75-12.63 15.11a15.4 15.4 0 0 1 9.63 5.08c1.23 1.32 1.72.7 2.3-.34 1.9-3.4 3.24-4.03 6.89-3.17 6.15 1.44 11.98 3.8 17.75 6.27 22.39 9.62 45.05 18.5 68.47 25.3 5.87 1.69 11.87 2.91 17.81 4.32 1.7.41 3.5.93 4.6 2.19 1.57 1.78 2.86 1.61 4.87.8 13.22-5.33 27.07-8.55 40.92-11.67a2138 2138 0 0 1 46.15-9.8c10.75-2.18 21.58-3.98 32.36-6 1.3-.26 2.78-.3 3.56-1.95.5-1.08 2.05-.83 3.09-1.3.34-.16.75-.2 1.13-.2 8.59.17 9.07-1.62 11.25 7.88.37 1.59.92 3.12 1.5 5.02 2-2.3 3.16-4.79 4.17-7.37 3.8-9.73 10.17-17.85 16.34-26.07 5.54-7.39 11.12-14.76 17.43-21.53 1.42-1.53 2.98-3.25 5.62-2.3 2.88 1.04 3.38 1.92 2.02 4.8-2.57 5.48-6.03 10.44-9.37 15.45-6.5 9.74-13.67 19.05-19.2 29.37-2.88 5.38-6.51 10.41-8.22 16.38-.77 2.68-2.94 3.1-5.17 3.36a20 20 0 0 1-4.65-.02c-1.54-.2-2.1.28-2.31 1.8-1.17 8.17-1.29 16.45-2.36 24.62-1.06 8.06-1.96 16.14-3.31 24.17a193 193 0 0 0-1.85 17.17 681 681 0 0 0-1.9 39.92c-.13 7.41-.62 14.85-1.08 22.28-.57 9.2-1.71 18.37-2.17 27.58-.28 5.4-.95 10.73-1.36 16.1-.54 7.1-1.17 14.18-2.14 21.24-.88 6.49-1.11 13.06-1.9 19.56-.87 7.34-1.03 14.74-2.18 22.05-.42 2.64-.47 5.37-.6 8.04-.55 11.84-1.86 23.62-2.53 35.45-.9 15.79-1.76 31.56-2.3 47.37-.4 12.06-.66 24.13-1.22 36.18-.73 15.77-.1 31.53-.5 47.29-.22 9.04.36 18.08-.25 27.14-.18 2.68-.03 5.53-.4 8.17-.41 2.9-1.22 5.58-.66 8.64.25 1.4-1.94 2.66-3.44 3.59-9.08 5.61-18.78 9.94-28.63 13.98-9.64 3.96-19.5 7.19-29.78 8.98-3.97.7-8 1.13-12.01 1.44-2.89.21-5.78.11-8.67.53-5.04.74-9.93-.71-14.88-1.33-2.09-.25-4.16-.69-6.25-.86-.83-.06-2.8-.75-1.62 1.57.18.35-.29.91-.62.67-1.43-1.1-3.93.03-4.76-2.45-.28-.83-1.52-.93-2.5-1.02-1.22-.1-1.18.86-1.27 1.5-.4 2.93-1.45 5.7-1.95 8.62a5.8 5.8 0 0 0 .87 4.47 74 74 0 0 1 6.24 13.53c.77 2.13 1.98 3.02 4.22 2.79 1.43-.14 2.88-.03 5.1-.03-2.03 1.34-1.64 2.52-1.24 3.98 1.53 5.5 2.77 11.07 4.27 16.58.19.71.33 1.58 1.16 2.18 7.24 5.35 13.86 11.54 21.63 16.2 4.45 2.67 8.7 5.64 12.06 9.68.19.22.41.62.6.61 4.14-.3 3.96 3.39 5.18 5.69 1.1 2.07.15 4.56-1.54 5.1-6.02 1.97-10.56 6.49-16.35 8.81-9.36 3.76-18.78 3.97-28.33 1.17-1.69-.49-4.29.07-4.68-2.81-.01-.1-.52-.2-.8-.2-5.69.03-10.71-2.6-15.99-4.16-9.15-2.71-18.2-5.72-27.3-8.63-6.58-2.11-12.88-4.91-19.13-7.86-2.35-1.11-2.49-3.4-3.44-5.29q-.05-.13-.02-.28c.13-.86 5.27-5.64 6.22-5.79 5.13-.8 4.99-.81 5.06-6.17q.13-10.73 1.75-21.33c.42-2.75.78-5.51 1.34-8.25.4-1.96 2.22-2.89 2.61-4.71.03-.12.34-.33.42-.29 2.29 1.06 4.54.37 6.82.01.62-.1 1.37.89 2.12.23.68-.61.52-1.41.16-2.15-3.5-7.16-1.2-14.48-.64-21.76a48 48 0 0 1 1.92-9.6c.38-1.3.04-2.26-1.22-2.87-4-1.93-6.5-5.67-9.8-8.27-4.35-3.42-2.88-7.02-2.44-10.9.44-3.93.3-7.89.74-11.83 1.14-10.32 2.06-20.66 2.94-31 .82-9.68 2.26-19.29 3.02-28.97.61-7.83 1.9-15.6 2.74-23.43.73-6.8 1.18-13.63 1.86-20.44.66-6.58 1.62-13.13 2.15-19.72.53-6.7 1.7-13.3 2.53-19.94.88-7.01 2.05-13.99 3.11-20.98l3.25-21.26c1.05-6.82 2.17-13.64 3.14-20.48 1.15-8.07 2.18-16.14 3.27-24.2.94-7.01 1.96-14.01 2.84-21.03.87-6.93 1.56-13.89 2.41-20.82.8-6.47 1.7-12.92 2.58-19.38.87-6.35 1.82-12.69 2.63-19.04.83-6.56 1.78-13.12 2.2-19.7q.42-6.51.72-13.02c.06-1.26.15-2.54-.02-3.78-.28-2.03 1.84-4.66.42-5.7-2.52-1.84-5.85-2.57-8.83-3.77-.54-.22-.93-.02-1.25.4-4.86 6.46-11.55 10.96-17.42 16.32a898 898 0 0 1-16.02 14.2c-7.87 6.84-15.8 13.6-23.7 20.41-9.11 7.88-18.17 15.83-27.34 23.65-15.54 13.25-30.03 27.6-44.37 42.11-8.56 8.69-17.17 17.33-25.56 26.18-12.89 13.59-26.22 26.74-39.5 39.94a4381 4381 0 0 1-33.24 32.7c-7.27 7.07-14.73 13.92-22.01 20.98-6.6 6.4-13.07 12.94-19.58 19.43q-8.91 8.85-17.72 17.8c-1.57 1.6-2.73 2.34-4.83.55-1.26-1.07-3.32-1.63-5.04-1.66-7.6-.16-14.24-3.47-21.05-6.13-12.63-4.94-23.53-12.7-33.86-21.39-3.18-2.68-6.03-5.7-9.23-8.36-1.29-1.07-1.94-.91-2.77.2-4.95 6.6-11.79 11.08-18.08 16.17-.78.63-1.81.76-.73 2 .44.5-.23.82-.53 1.12q-1.16 1.1-2.34 2.17c-1.97 1.8-4.74 2.56-4.75 6.41 0 2.88-2.96 5.27-5.01 7.48a148 148 0 0 1-10.56 10.4c-2.65 2.33-5.64 1.93-8.33 1.42-4.92-.92-9.95-1.33-14.65-3.73-1.92-.99-5.04.24-7.6.63-10.41 1.6-20.7 4-31.38 3.82-10.3-.17-19.04-3.9-26.86-10.2-4.3-3.45-8.3-7.25-11.26-11.98-1.91-3.04-2.18-6.15 1.11-8.4.47-.3.64-1.15.82-1.78.86-3.12 1.37-6.37 2.56-9.36 1.61-4.04 5.18-6.46 9.04-7.76 6.39-2.15 13.23-2.11 19.87-2.92 8.38-1.02 16.63-2.68 24.87-4.38 5.75-1.18 11.47-2.48 17.4-2.14 2.61.15 5.15-.84 7.8-.6 1.2.1 2.74.2 3.06 1.2 1.2 3.77 2.21.74 3.08-.04 7.45-6.7 15.25-12.91 24.34-17.3.43-.21.85-.5 1.3-.58 1.69-.3 3.65-.02 4.35 1.35.96 1.84-1.06 2.86-2.3 3.8a335 335 0 0 1-26.17 17.96zm476.65 47.94c-.25.93-.71 1.87-.7 2.79.1 6.57-1.1 13.1-.56 20.1zc.5-4.81.47-9.65.74-14.48.67-12.06 1.54-24.1 2.34-36.15q.29-4.78.66-9.55c.93-10.97 1.91-21.95 2.82-32.92.65-7.88 1.13-15.77 1.85-23.65.86-9.31 1.97-18.6 2.83-27.9.71-7.69 1.08-15.4 1.86-23.08 1-9.89 1.61-19.8 2.4-29.7.42-5.3.1-10.61.84-15.92.54-3.79.1-7.72.1-11.58l-.72-.07c-.31 1.44-.9 2.86-.9 4.3-.05 9.3-1.13 18.52-1.65 27.78-.68 11.99-2.01 23.9-3 35.86-1.4 16.77-3.2 33.52-4.58 50.3a1961 1961 0 0 0-2.98 44.04c-1.2 20.2-2.2 40.4-3.28 60.61-.05.78-.06 1.58.68 2.1zM263 828.18a11.5 11.5 0 0 0-3.77-6.06c-3.92-3.34-8.66-5.2-13.3-7.2-.79-.34-1.66 0-2.53.21-13.83 3.38-27.77 5.95-42.1 5.52-6.9-.21-7.04.07-8 6.8q.02.15-.02.3c-2.3 5.03-.81 9.27 2.7 13.13 5.73 6.28 12.02 11.72 20.34 14.32 10.09 3.15 20.2 1.49 30.28.07 5.72-.8 11.41-1.54 17.2-1.73 3.35-.11 5.83 1.92 8.92 2.27 2.54.29 5.15.65 7.41 2.06.86.53 1.35.4 1.7-.58.77-2.26 2.42-3.91 4.09-5.52l6.76-6.47c-5.6-.54-13.11-7.86-13.12-12.45-.02-3.35-.55-6.74.37-10.07.15-.54-.03-.91-.42-1.27-1.34-1.25-2.55-2.66-4-3.75-3.91-2.92-8.65-3.35-13.25-4.1-.98-.16-2.29-.28-2.14-1.3.35-2.47-.84-1.5-1.9-1.08l-2.55.95c8.46 4.96 10.62 11.96 7.33 15.97zm399.42 182.3c-.39.65-.63.88-.67 1.14-.87 7.41-1.57 14.85-2.63 22.24-.5 3.55-.63 5.8 3.2 8.3 12.4 8.08 23.96 17.53 38.42 21.84 6.46 1.92 11.72 6.37 19.06 6.77 11.1.61 21.6.05 31.27-5.99 3.16-1.98 3.19-2.06 0-4.24-7.01-4.77-14.89-8.16-21.55-13.46-3.67-2.91-7.84-5.35-10.1-9.75-2.55-4.96-5.28-9.83-7.6-14.88-1.63-3.54-3.92-7.11-1.93-11.72-2.18 3.32-4.5 3.47-7.13 1.14-.25-.21-.72-.24-1.09-.24-3.1-.02-6.2-.14-9.3.03-1.8.1-3.28.88-3.52 3.08-.23 2.09-.82 4.13-1.08 6.22-.1.87-.54 1.14-1.2 1.35-1.08.35-.94-.63-1.2-1.15-.87-1.77-.42-3.75-.72-5.92-1.12.8-2 1.52-2.96 2.08-3.62 2.09-5.37 6.04-8.58 8.55-2.48 1.93-3.69 1.94-6-.21a8 8 0 0 1-2.06-3.44c-1.26-3.72-1.83-7.61-2.63-11.75zm13.06-20.9c1.59 3.95 2.52 7.84 3.59 11.69.23.84.21 2.04 1.25 2.48 3.9 1.65 7.81 3.24 12.2 2.83 1.67-.16 3.64-.98 4.87.6.64.83.93 1.78 1.96.96.9-.72-.2-1.43-.5-2.11-1.92-4.34-4.44-8.54-4.09-13.5.2-2.68-.76-3.16-3.22-3.11-5.28.1-10.53 1.48-16.07.16zm-20.87-429.17-.8-1.17c-26.68 15.13-51.3 33.36-76.16 51.25 25.3-17.24 51.2-33.56 76.97-50.07zm50.8.92c2.65-.7 4.95-2.07 7.18-3.52q19.52-12.68 38.98-25.44c2.99-1.95 6.03-3.83 8.65-6.29 1.14-1.08 1.24-1.98-.45-2.46-4.24-1.22-8.5-2.38-12.74-3.57 3.72 2.44 8.14 2.76 12.76 4.7-18 12.97-37.07 23.49-54.38 36.58m-15.8 412.43c-5.75 3.2-8.23 8.65-12.58 12.13 4.38.08 9.06.2 13.72.69 1.44.15 3.4 1.42 4.34.07 1.07-1.54-.98-2.9-1.63-4.3-1.46-3.2-1.88-3.27-4.86-1.52-.83.49-1.66.8-2.37.24-.73-.57-.1-1.37.09-2.1.49-1.82 2.31-2.7 3.3-5.2zm19.67-52.42c-3.76 2.33-20.14 34.27-19.96 39.8zm-234.22-296.3c-10.93 3.84-20.48 10.71-31.77 13.7-1.1.28-1.8 1.42-1.29 2.55s1.5.42 2.24.06c3.8-1.84 7.63-3.6 11.35-5.59 6.53-3.49 12.99-7.13 19.47-10.7zM686.5 974.09c-1.38-.97-2.94-.6-4.2-1.48-1.86-1.3-3.35-1.62-3.55 1.65-.2 3.2-1.05 6.35-1.61 9.51 2.9-3.59 6.2-6.45 9.35-9.68zm-381.35-158.5c4.92-2.5 9.12-5.8 13.76-8.46 1.9-1.07.19-2.04-.26-2.91-.42-.84-1.04-1.08-1.94-.17-3.8 3.9-7.7 7.7-11.56 11.53m364.69 193.68c1.94 1.64 3.67 3.2 6.32 1.84.85-.44 1.4.66 1.95 1.2.41-.76.65-1.71 1.25-2.21 1.74-1.46.74-2.27-.68-2.34-3.01-.15-6.04.06-8.84 1.5zM816.79 516.9c-4.4-3.7-6.98-8.47-8.28-14.3-.53 5 3.28 11.63 8.28 14.3"/><path fill="#000" d="M596.7 122.96c-2.19 2.76-3.86 5.46-6.65 7.22-2 1.27-3.7 2.8-6.3 1.6-1.07-.5-1.72.56-2.43 1.21-1.96 1.8-4.63 2.75-6.51 1.04-1.7-1.56-3.65-3.6-3.58-6.52.17-6.64 1.86-12.98 3.82-19.24 2.05-6.56 5.1-12.69 8.58-18.6.24-.41.45-1.04.82-1.17 5.79-2.07 8.59-7.56 12.9-11.3 7.16-6.23 14.88-11.7 22.59-17.19 11.23-7.99 22.59-15.8 34.55-22.67 3-1.72 6.06-3.34 9.49-4.14 1.15-.27 1.95-1.01 2.33-2.54.8-3.23 2.86-5.67 6.22-6.65 1.82-.52 3.22-2.2 5.33-1.87.13.02.42-.16.44-.3 1.23-5.6 6.38-4.65 10.1-5.81 5.46-1.72 11.1-2.86 16.64-4.35 2.47-.66 4.09-2.79 6.24-4.07 5.6-3.33 11.18-6.61 17.8-7.53 2.18-.3 4.02.27 5.96 1.38 8.36 4.78 14.01 12.31 20.11 19.4 2.1 2.43 3.7 5.26 6.94 6.66 2.36 1.02 2.45 3.81 2.92 5.92a431 431 0 0 1 4.7 24.16c.43 2.67 1.88 4.64 3.15 6.68a341 341 0 0 1 23.25 44.87c4.97 11.51 9.42 23.13 10.99 35.7a953 953 0 0 0 4.12 28.98c1.8 11.6 4.02 23.14 5.68 34.76 1.37 9.52 2.5 19.1 2.43 28.75-.06 7.46 2.69 14.2 5.26 20.97l13.82 36.4c7.29 19.08 15.4 37.8 23.82 56.4a1282 1282 0 0 0 20.12 42.13c3.5 7.03 7.66 13.72 11.47 20.6 1.57 2.83 3.14 5.72 1.8 9.17-.17.4-.17 1.26-.73.7-1.3-1.33-2 .23-2.58.6-2.62 1.66-3.84 1.63-5.79-.9-5.43-7.1-9.7-14.9-13.93-22.72-10.15-18.77-19.18-38.09-27.91-57.54-7.77-17.3-14.96-34.86-20.88-52.9-3.84-11.69-7.95-23.32-10.5-35.39-.88-4.14-1.85-8.2.19-12.6.96-2.07-.3-5.21-.65-7.86-1.12-8.5-2.19-17-3.44-25.46-1.18-7.99-2.69-15.92-3.86-23.9-1.34-9.16-2.5-18.35-3.68-27.52-.98-7.65-1.85-15.3-2.8-22.95-.21-1.72-.49-3.51-.45-5.18.13-7.14-3.84-12.85-6.45-18.95a291 291 0 0 0-16.93-33.45l-2.67-4.58c-.87.87-1.7 2.18-2.83 1.98-1.4-.23-1.4-1.86-1.75-3.02-2.75-9.02-6.72-17.52-11.16-25.82-1.87-3.5-.25-7.44-1.5-11.05-.5-1.43-1.25-3.14.13-4.66.5-.55-.1-.88-.42-1.13-7.42-5.96-13.66-13.34-22-18.22-2.73-1.6-5.23-1.92-8.14-.79-11.13 4.33-22.45 8.2-33.25 13.4-.83.4-1.69.75-2.49 1.1.39 1.63 3.54 2 2.14 4.17-1.3 2.03-3.03-.09-4.57-.21-3.45-.28-6.87-.68-10.33-.1-1.9.32-2.9 1.27-3.27 3.28-1.51 8.12-2.67 16.27-2.89 24.54a4 4 0 0 1-.85 2.33c12.1-2.98 23.43-1.98 34.32 3.2 3.17 1.5 6.84 1.42 9.83 3.66 3.55 2.65 5.79 5.9 5.8 10.31 0 1.68.46 2.42 1.84 3.3 8.46 5.32 15.69 11.8 18.58 21.83 1.3 4.54 2.36 9.16 1.03 13.93-.24.83 0 1.65.42 2.5 1.8 3.67 1.47 7.41.15 11.18-1.17 3.33-2.16 6.72-3.33 10.04-.49 1.37-.12 2.02 1.14 2.67 3.56 1.8 4.37 4 3.45 8.03-1.33 5.84-4.23 10.85-8.01 15.39-.9 1.08-1 1.69-.16 2.94 5.45 8.1 5.92 16.49 2.1 25.6-2.53 6.02-4.84 12.06-8.68 17.41-7.92 11.06-18.66 15.05-32.02 13.77-9.3-.9-18.23-3.15-27.22-5.35-3.6-.88-7.42.11-10.73 1.36-3.65 1.37-7.18 3.22-11.2 4.91.99.56 1.61.88 2.2 1.24.61.38 1.09.87.91 1.66-.16.77-.78.98-1.49 1.13-3.74.8-7.43 1.22-10.82-1.17-1.58-1.1-2.93-.54-3.69.85-1.77 3.27-4.88 4.44-8.05 5.59-20.5 7.44-41.45 13.44-62.64 18.59-4.9 1.2-9.9 2.02-15.38 3.12 9.26 5.48 18.96 9.26 27.63 14.93-2.84 1.05-5.1-.5-7.35-1.36-13.97-5.35-28.07-10.43-41.02-18.12a6.6 6.6 0 0 0-3.87-.87c-.96.06-1.74.22-1.91 1.32-.2 1.2.91 1.11 1.5 1.37 6.2 2.71 12.47 5.27 19.05 8.91-2.86.26-4.55-1.16-6.3-1.88-18.33-7.65-37.23-13.69-55.95-20.24-8.8-3.08-17.48-6.54-26.18-9.9-5.08-1.96-10.3-3.58-15.16-6.09-.9-.46-1.68-.45-2.36.29-1.45 1.57-4.18 1.83-4.52 4.6-.1.83-.97.15-1.46.1-5.68-.7-11.37-1.42-16.86-3.22-.82 8.36-2.63 16.49-4.4 24.63-.49 2.25-1.06 4.53-.5 6.9.3 1.26-1.35.44-1.57 1.6 2.63 1.69 5.85 1.45 8.82 2.07 2.24.46 4.53 1.2 6.73 1.3 8.35.37 13.33 6.6 19.34 10.83 18.3 12.88 36.43 26.01 53.97 39.94 4.3 3.43 8.46 7.06 12.6 10.67a6.3 6.3 0 0 0 5.12 1.72c13.12-.82 26.16-.35 38.97 3.23 7.74 2.17 15.81 2.87 23.56 5.07 1.34.38 2.01-.05 2.1-1.73.18-3.74.77-7.46 1.04-11.2.11-1.6 1.08-3.17 2.22-2.74 1.45.56 3.75-.13 4.39 2.05 2.13 7.18 5.65 13.78 8.53 20.63.17.4.02.95.02 1.68-4.4-1.17-4.56-5.72-7.25-8.25-.2.49-.55 1.01-.58 1.55-.24 3.9-2.64 5.4-6.05 3.22-2.7-1.73-5.63-1.9-8.47-2.14-11.06-.97-21.98-2.77-32.94-4.58-6.2-1.02-12.55-2.1-18.95-.94-2.9.52-5.78-.3-8.64-.6-1.88-.2-3.5-.86-4.22-3.49-.45-1.65-3.32-2.64-5.1-3.92-16.02-11.54-33.1-21.48-49.37-32.64-8.9-6.1-17.78-12.23-25.5-19.84-.21-.2-.57-.3-.68-.54-2.25-4.58-6.05-4.94-10.67-4.75-4.22.18-8.5-.68-12.8-.65-1.28 0-2.38-.89-2.68-2.52-.44-2.43-1.2-4.8-1.68-7.23-.24-1.18-.4-1.66-1.82-1.08-4.57 1.88-6.09 1.44-8.04-3.2-1.4-3.35-3.65-5.3-6.83-6.69-5.01-2.18-10.05-4.44-14.5-7.6-3.55-2.52-6.34-6.01-9.91-8.6-1.1-.8-1.43-2.4-1.54-3.92-.07-.9-.27-2.26-1.92-.94-4.92 3.88-11.36 1.85-13.95-4.44-3.27 3-7.19 4.52-11.42 5.37-.56.11-1.17.4-1.68.28-6.31-1.5-11.75 1.31-17.3 3.5-2.4.93-4.87 1.78-7.1 3.04-5.44 3.12-9.45 1-14-2.43-8.85-6.68-16.33-14.96-25.34-21.54 3.24 1.59 6.63 2.93 9.7 4.8 7.32 4.49 14.8 8.8 20.69 15.22 1.38 1.5 2.68.62 3.96.26 1.6-.47.38-1.55.23-2.35-1.21-6.7-1.07-6.9 5.52-9.21 3.96-1.4 7.8-3.24 12.17-2.91.67.05.99-.55 1.5-.76 1.15-.47 2.42-1.54 3.54-.02 1 1.37.88 2.92.18 4.34-.3.6-1.13 1.61-1.81.73-2.64-3.44-5.64-.56-8.36-.44-2.69.12-5.31 1.42-7.97 2.17-1.2.34-1.91.77-1.38 2.28.48 1.34.57 2.81.85 4.34 5.89-2.87 11.77-5.84 18.34-6.48 3.12-.3 3.48-1.24 3.14-4.2-1.05-9.06 3.92-14.4 9.8-16.81 2.75-1.13 5.65-1.41 9.15-1.07a185 185 0 0 1-13.06-12.08c-4.74-4.89-9.03-10.07-11.29-16.64-.63-1.83-2.41-2.03-3.9-2.47-.81-.24-1.32.01-.96 1.3 1.42 5.11 3.86 9.95 4.38 15.34.12 1.22.88.49 1.49.38 1.69-.3 3.31-1.06 5.09-.77.52.08 1.23-.27 1.44.54.16.63-.18 1.17-.62 1.54-1.44 1.2-3.17 1.77-4.97 2.2-1.29.3-2.31.67-1.64 2.5.77 2.13.38 4.43.23 6.64-.09 1.13-.58 2 .5 3.07 1.15 1.14-.4 1.59-1.12 2q-9.54 5.62-19.12 11.2c-1.1.64-2.46.87-2.4 2.76.04 1.4-1.18 1.4-2.38 1.11-10.2-2.46-19.8-6.32-28.6-12.04-1.67-1.08-2.46-1.07-2.96.87q-.06.14-.14.26c-.63 1.55-1.02 4.06-3.1 3.27-1.35-.5-.62-2.9.04-4.4a52 52 0 0 1 2.58-5.13c1.88-3.18 4.52-1.6 6.84-.8 2.97 1.01 5.83 2.35 9.04 3.68-.7-4.34-1.4-8.5-1.88-12.69-.26-2.33-.15-4.63-.3-6.94-.07-1.3.2-2.53-1.18-3.62-1.25-.98-.46-2.07.95-2.42 3.96-.97 8.29 1.23 10.24 4.88.87 1.65 1.08 3.64 2.8 5.36v-5.15c.02-4.6 3-7.93 7.47-8.64 2.07-.34 3.4.32 4.12 2.17 2.38 6.02 4.81 12.01 6.96 18.11.47 1.34.75 1.4 1.9 1.08 4.6-1.25 4.38-1.2 4.09-5.15-.52-7.22-3.08-13.99-4.26-21.06-.08-.45-.48-.95-.37-1.31.47-1.56 1.55-3.2 3.1-3 2.67.34 2.15-3.18 4.46-3.07 2.11.1 3.58.9 4.78 2.67a3268 3268 0 0 0 20.21 29.46 81 81 0 0 0 5.39 6.76c.66.77 1.32 1.62 1.36 2.47.09 1.65.96 1.7 2.23 1.78 4.28.25 9.86 4.43 10.8 7.91.25.92.18 1.82.2 2.99 1.4-4.65 4.86-3.41 7.97-3.07.38.04.92.27.99-.1.71-3.96 4.24-4.99 7.03-5.18 3.65-.24 6.73 2.37 8.76 5.4 1.9 2.8 4.36 4.36 7.48 5.38 2.91.96 5.69 2.35 8.53 3.53.63.27 1.2 1.04 1.93-.06 1.83-2.8 3.67-3.45 7-2.47 5.49 1.6 10.97 3.23 16.4 4.98 1.1.35 1.66.24 2.52-.46 3.13-2.56 6.3-2.96 10.31-1.3 18.16 7.47 36.23 15.19 54.84 21.55 7.38 2.52 14.56 5.64 21.84 8.5-.17-4.67 7.53-6.94 11.04-5.13 3.25 1.68 6.6 3.17 9.8 4.92 1.19.64 2.02.86 3.43.44 9.84-2.94 19.74-5.71 29.75-8.57-1.58-1.88-3.35-3.66-4.73-5.7-4.12-6.07-6.22-12.7-4.76-20.08.5-2.54 1.77-4.73 4.23-5.9a3.4 3.4 0 0 0 2.04-3.12c.13-5.13 3.62-7.87 7.44-10.15a33 33 0 0 1 11.13-4.23c1.42-.26 1.96-.69.93-2.16-2.91-4.15-4.87-8.74-5.27-13.81-.27-3.47.58-6.85 2.04-10 .84-1.82.72-2.91-1.13-4.19-4.35-3.02-5.39-8.88-2.55-13.55 3.1-5.13 7.51-9.04 12.49-12.26 1.97-1.28 3.2-2.41 3.1-5.13-.1-2.78.86-5.58 1.43-8.78zm128.77 47.46a64 64 0 0 0 9.9-21.21c.43-1.6.62-3.57-1.54-4.77-3.36-1.86-3.7-3.34-2.52-7.17 1.28-4.1 3.02-8.04 3.82-12.3.45-2.43.68-4.52-1.34-6.36-.77-.72-1.02-1.75-1.26-2.82-.47-2.1-.28-4.23-.63-6.3-1.62-9.52-5.76-17.74-12.95-24.35-1.76-1.63-3.66-3.18-4.9-5.33-.32-.57-1.11-1.18-.46-1.75 1.26-1.1.37-2.02-.04-2.98-1.82-4.27-4.94-7.27-9.01-9.38-.83-.43-2-.53-2.32-1.59-.47-1.52-1.67-1.48-2.9-1.73-5.52-1.13-11.08-.73-16.64-.55-3.07.1-6.02.83-8.95 1.72-1.67.52-2.66 1.31-2.33 3.28.22 1.27-.36 2.72-1.74 2.32-1.82-.52-3.65-.41-5.43-.61-6.55-.73-13.05-.09-19.02 2.92-5.51 2.78-9.98 7.1-14.9 10.78-5.71 4.29-8.18 11.14-13.03 16.12-1.01 1.04-.84 4.27 0 5.83 2.3 4.3.75 8.25-.26 12.27-.98 3.91-3.6 7.21-4.78 10.97-1.13 3.6-2.75 6.75-5.93 8.33-2.96 1.47-4.61 3.83-6.49 6.17q-1.07 1.37-2.17 2.7c-2.8 3.32-5.6 6.63-7.68 10.47-1.78 3.3-1.72 5.42.53 6.87 2.16 1.4 2.1 2.98 1.09 4.93-.92 1.78-2 3.5-2.72 5.35a19.7 19.7 0 0 0-.5 13.24c1.1 3.54 2.21 7.1 6.57 8.16.95.24 1.73 1.4 1.62 2.72-.13 1.51-1.14 1.96-2.42 2.33a84 84 0 0 0-6.74 2.3c-4.67 1.82-9.09 4.03-12 8.39-.7 1.05-1.35 2.12-.27 3.3 1.05 1.16 1.34 2.93.18 3.53-1.33.7-3.47 1.98-4.8-.16-.82-1.32-1.31-1.07-2.13-.23a9.6 9.6 0 0 0-2.42 3.84c-1.07 3.3-.4 6.5.32 9.65.47 2.04.28 4.7 2.2 5.91 1.57.99 2.87 2.06 3.58 3.62 1.06 2.36 2.7 2.07 4.6 1.5 4.94-1.5 9.84-3.12 14.82-4.4 14.83-3.78 29.01-9.55 43.5-14.37a488 488 0 0 0 20.49-7.35c3.49-1.34 7.05-1.08 10.57-1.62 2.36-.36 4.5-1.69 6.94-1.76 1.14-.04 1.38-.56 1.24-1.7-.63-5.42-1.87-10.74-2.25-16.19-.2-2.82-.92-4.8-4.18-6.54-6.6-3.55-12.93-7.9-17.36-14.34-.35-.51-.5-1.14-1.31-1.4-2.43-.8-4.8-1.76-7.1-2.63-.96 3.28-2.18 6.24-5.25 8-.86.48-2.1 1.13-2-.56.2-3.64.43-7.37 3.96-9.84l-5.33-4.42a20.5 20.5 0 0 1-6.75 8.03c-3.13 2.24-6.22 4.47-9.87 5.82-1.64.61-2.67-.14-3.51-1.18-.95-1.19.51-1.67 1.05-2.27 3.86-4.32 7.64-8.73 11.77-12.8 2.08-2.04 2.75-3.51 1.59-6.51-3.35-8.65 1-14.68 10.2-14.8.64 0 1.3-.08 2.01-.13-.88-3.07-1.75-5.99-2.52-8.93-.29-1.1-.75-1.28-1.71-.77a9.8 9.8 0 0 1-7.32.76c4.52-3.86 8.76-7.47 12.99-11.1a139 139 0 0 0 17.83-18.21c3.15-3.9 5.67-8.23 8.32-12.46 2.35-3.74 3.75-3.76 6.62-.5.18.21.54.25.76.43 3.25 2.7 7 3.84 11.2 3.76 3.5-.06 7.42-.96 8.54 4.13.15.72 1.11 1.32 1.8 1.85 4.75 3.74 9.6 7.32 15.21 9.73.8.35 1.6.93 2.45.58 3.2-1.3 3.75.97 4.36 3.14 2.26 7.99 4.4 16 6.75 23.96 1.35 4.56 3.22 8.98 3.34 13.82.15 6.03-1.35 11.77-3.44 17.36-.73 1.94-1.4 3.69.4 5.47zm-5.81 8.45c-.87.98-.97 2.44-2.43 2.09-.52-.13-.4-.83-.3-1.28a411 411 0 0 0 4.7-32.11 11.4 11.4 0 0 0-.6-5.19c-1.97-5.88-4.06-11.73-4.83-17.95-.57-4.66-1.55-9.26-2.18-13.91-.18-1.33-.75-1.89-1.9-2.08-9.07-1.46-16.7-5.48-22.66-12.55-.75-.89-1.49-1.03-2.7-.96-4.8.28-9.6.22-14-2.2-.88-.48-1.5-.45-2.14.43-2.63 3.57-5.19 7.19-8 10.6-5.76 7.05-11.95 13.7-19.26 19.2-3.31 2.47-3.35 2.39-1.61 6.02a69 69 0 0 1 2.07 4.72c1.7 4.38 3.12 8.85 3 13.61-.02.82.02 2.17-1.15 2.37-1.2.2-2.12-.74-2.27-1.81-.55-3.82-3.26-3.63-5.95-3.32-2.46.29-4.77 1.2-5.91 3.55-1 2.04.08 3.81 1.3 5.55 3.1 4.38 7 7.99 10.83 11.66 2.03 1.95 4.28 3.68 7.44 2.01.56-.3 1.74-.47 2.12.3 1.09 2.24 3.07 3.68 4.86 5.09 6.85 5.35 12.26 12.82 21.75 14.97-3.28.04-2.93 1.65-2.08 3.54.14.33 0 .78.07 1.16.95 5.48.5 11 .55 16.52.02 1.56.1 2.37 2.1 2.85 7.12 1.7 14.2 3.58 21.5 4.22 5.88.52 11.82.74 16.98-3.03 2.29-1.67 4.2-3.4 3.75-6.83-1.16-8.95-2.03-17.93-3.05-27.23zm-144-51.34c4.75-3.7 8.53-8.3 12.44-12.78.7-.8 1.1-1.18-.04-2.31-1.13-1.13-.45-2.94 1.23-3.66 1.3-.55 2.72-.9 4.13-1.16q4.66-.83 9.36-1.52c1.03-.16 2.02.11 2.36 1.2.28.9-.54 1.37-1.21 1.7-.87.43-1.04 1.12-1.36 1.98-.8 2.13-.22 4.04.05 6.14.47 3.71.2 7.5-.9 11.15-.2.61-.52 2 .71 1.4 2.24-1.08 5.16-1.33 5.68-4.87.55-3.75 2.2-7.35 2.6-11.1s2.78-7.22 1.34-11.2c-1.51-4.16-.85-5.86 4.25-9 1.16-.71 1.86-1.3 2.19-2.71 3.05-13.16 12.52-20.55 24.35-24.57 6.6-2.25 13.75-4.36 21.12-3.26.9.13 3.5-3.52 3.2-4.35-1-2.8-1.24-5.74-1.65-8.67-.54-3.89-.32-7.8-.6-11.93-9 5.54-17.82 10.7-26.35 16.27a584 584 0 0 0-37.51 26.55c-5.62 4.35-11.83 8.09-14.7 15.56-3.92 10.22-8.23 20.27-10.7 31.12zm151.7 76.35c4.82-3.88 5.38-9.4 6.9-14.3 2.16-6.88-.28-13.45-2.96-19.8-.42-.98-.95-.56-1.58-.15-.96.63-1.95 1.3-3.04 1.65-1.18.39-1.2 1.14-1 2.03a82 82 0 0 1 1.67 17.53zM291.9 180.15c0 3.64-.21 7.3.08 10.9.16 1.93-.08 3.9.53 5.85.58 1.83 1.1 2.49 2.96 1.22a24 24 0 0 1 5.11-2.53c1.53-.56 1.57-1.1.64-2.3a56 56 0 0 1-7.7-13.63c-.2-.51.18-1.64-1-1.15-.66.27-1.52.59-.62 1.64m2.76 24.06c1.29.38 1.97.3 2.77.05 5.81-1.83 10.82-5.63 16.86-6.93.28-.06 1.22-.05.97-1.01-.37-1.4-2.97-2.94-4.27-2.25-5.56 2.9-11.08 5.9-16.33 10.14m-15.73-19.03c.04.56.04 1.13.15 1.68 1.1 5.75 3.88 11.08 4.26 17.02.09 1.24 1.61 1.02 2.3 1.72.44.43 1.22.5 1.36-.28.18-.95 1.75-1.34.86-2.75-3.47-5.48-5.76-11.57-8.93-17.4zm63.92 15.34c-3.54-.32-6.66-.17-9.3 2.33.94.5 1.65 1.02 2.44 1.27 1.94.6 3.5 3.72 4.94 2.71 1.37-.96 1.3-3.97 1.92-6.3m-3.19 8.95c-2.46-.68-4.99-1.17-7.35-2.1-1.93-.77-2.73-.27-3.07 1.6 2.56.3 2.94.46 4.86 2.07 3.04 2.55 3.7 2.37 5.55-1.57zm-5.07 5.73c-2.6-.73-5.27-1.08-6.02-5.06v8.13c2.16-.8 4.24-1.25 6.02-3.07m55.51 10.82c-.78-1.67-1.45-3.24-2.26-4.75-.5-.94-1.13-.09-1.7.1-.85.28-.55.74-.28 1.3.56 1.2 1 2.45 1.56 3.65.28.6.71 1.27 1.52.6.4-.33 1.24-.18 1.16-.9m-44.5-14.68c1.98-.4 2.92-1.97 4.66-1.67 1.02.18.8-.8.82-1.43.04-.7.05-1.23-.9-1.44-3.62-.79-3.38 2.2-4.58 4.53zm49.82 34.81c-.43-1.16.53-3.15-1.83-3.2-1.9-.04-.9 1.49-1.1 2.32-.4 1.61.36 2.58 1.95 2.75 1.67.17.6-1.21.98-1.86zm-2-11.15c-.71-2.07-.42-3.88-1.95-4.57-.47-.21-2.21.68-1.7 1.73.56 1.13.01 3.36 2.4 3.2.67-.05 1.42.01 1.25-.36m198.63-117.34.56.58 5.31-6.67c-4.7-.3-4.34 3.71-5.87 6.1m-207.43 97.54c-.7.5-1.62.91-1.34 1.55.4.94.45 2.36 1.8 2.52.32.04 1.7.08 1.35-.94-.38-1.11-1.18-2.08-1.81-3.13M360 222.35c1.89-.78 2.38-2.4 2.76-4.1.08-.38-.03-.77-.45-.95-.47-.21-.78.1-.92.43-.63 1.45-1.75 2.78-1.4 4.62z"/><path fill="#000" d="M667.45 362.75c.15-.26.22-.44.35-.56 2-1.82 3.5-5.26 5.8-5.34 2.18-.07 4.45 2.63 6.67 4.11 8.7 5.83 18.35 9.23 28.56 11.28a72 72 0 0 0 21.61 1c18.28-1.91 33.92-8.92 43.43-25.76 5.3-9.4 6.83-19.54 5.39-30.28-2.01-15.02-8.9-27.35-20.03-37.36-7.71-6.94-16.63-11.95-26.44-15.38-1.25-.44-3.48-.2-3.22-2.35.25-2.1 3.15-3.94 5.28-3.39a65 65 0 0 1 8.97 2.96c10.1 4.27 19.18 10.13 26.55 18.32 8.7 9.66 15.19 20.66 16.24 33.82 1.84 22.92-6.55 41.29-26.06 54.05-7.66 5-15.83 9.04-24.74 11.24a72.4 72.4 0 0 1-34.93.17c-11.25-2.72-21.6-7.23-30.84-14.24-.92-.7-1.74-1.53-2.59-2.29"/><path fill="#000" d="M761.16 331.44c.34 4.68-1.84 8.17-5.54 10.69-11.08 7.51-23.12 12.88-36.44 14.76-6.62.93-13.13-.34-18.46-4.72-6.4-5.25-6.14-11.49-1.26-18.7 3.3-4.9 8.58-7.4 13.81-9.46a173 173 0 0 1 25.31-8.03c6.26-1.42 18.43 2.71 21.63 10.12.77 1.77.93 3.5.96 5.35zm-15.04 11.13c-15.27-5.87-29.34-1.58-43.53 4.32a6 6 0 0 0 3.15 2.59 28.5 28.5 0 0 0 14.52 1.91c9.29-1.1 17.66-4.5 25.86-8.82m-33.54-3.63c1.43-.72 4.17.21 5.4-1.93a22 22 0 0 0 2.24-6.4c.43-2.09-.95-2.93-3-2.04a98 98 0 0 0-5.94 2.85c-1.07.56-3.25.41-1.62 2.91.59.9-.73 2.82.55 4.15.55.57 1.14.65 2.36.46zm22.89-10.83c.14-5.31-.85-6.02-5.5-4.4-.8.28-1.7.41-2.42.81-1.44.8-4.26.77-4.21 2.1.06 1.65 2.18 3.05 3.76 4.1 1.95 1.3 4.16 1.95 6.51.88 1.7-.78 1.78-2.33 1.86-3.48zm-66.53-43.96c-.4 0-.52.04-.58 0-5.73-3.69-5.75-3.7-9.63 2.12-6.86 10.33-8.9 21.62-7.17 33.85 1.72 12.1 7.57 21.88 15.7 30.61 1.64 1.75 2.83 1.57 4.35.03 3.59-3.61 7.16-7.25 11.7-10.77a10 10 0 0 1-2.4 3.76c-4.47 4.7-8.74 9.61-13.47 14.02-14.75 13.75-28.65 28.33-43 42.47a31 31 0 0 1-3.1 2.61c-.42.32-.97.86-1.5.25-.5-.55-.03-1.05.29-1.54a34 34 0 0 1 4.32-5.37c12.13-12.14 24.13-24.4 36.73-36.04 1.43-1.32 1.37-2.03.12-3.38a67 67 0 0 1-14.8-25.73c-5.42-17.47-1.76-33.5 8.64-48.2 3.74-5.28 3.88-5.26-1.72-8.5-11.46-6.62-21.94-14.64-32.64-22.36-.15-.12-.35-.2-.47-.33-.85-.97-2.37-2.16-1.49-3.29.83-1.06 2.36.23 3.24.88a3045 3045 0 0 1 35.75 26.46c1.62 1.22 2.42.92 3.6-.3 8.83-9.13 19.65-14.83 31.74-18.29.1-.03.18-.1.27-.11 2-.34 4.74.22 5.73-1.48.9-1.52.18-3.96.25-6 .08-2.3-.22-4.6.5-6.9.45-1.38.95-1.23 2.06-.84 3.37 1.19 4.82 3.45 4.42 6.99-.21 1.91.31 3.86-.36 5.76-.56 1.61.8 1.2 1.5 1.2 2.24-.05 4.42.09 6.53.98.92.39 2 .76 2 1.82.03 1.34-1.38.72-2.04.9-2.1.57-4.3.87-6.48 1.14-2.14.26-3.18 1.26-3.54 3.49a38 38 0 0 1-3.07 9.51c-.37.82-.45 2.3-2.12 1.65-1.25-.48-2.06-1.3-1.69-2.63.79-2.78.79-5.69 1.47-8.46.4-1.69 0-2.26-1.57-1.93-11.87 2.52-22.82 6.86-31.48 15.82-1.63 1.69-1.68 2.6.55 3.67 1.05.5 2.28 1.05 2.87 2.47zm119.33 159.7c-1.98 1-4.1.78-6.02.44-4.06-.7-8.1-.41-12.16-.44-11.74-.06-23.48.21-35.2-.09-11.3-.28-22.61-.99-33.48-4.62-1.26-.41-2.54-.9-3.67-1.6-.64-.39-1.55-.94-1.23-2.06.33-1.18 1.32-1.03 2.14-.94 3.34.35 6.74.49 9.98 1.25 3.14.75 6.32.66 9.45.91 7.6.62 15.25.78 22.88.66 9.3-.16 18.58.5 27.85.78 5.2.15 10.51.55 15.6 2.15 1.9.6 3.2 1.58 3.86 3.54zm13.43-58.95c-2.67-24.2-6.76-48.15-9.5-72.26-2.73-23.95-8-47.47-11.92-71.25 2 .78 2.39 2.51 2.9 4.02 3.89 11.4 6.37 23.12 8.27 35a640 640 0 0 1 4.08 31.94c1.73 16 3.24 32.03 4.63 48.06.7 8.18 1.54 16.34 1.54 24.5m-17.69-155.7c.1.67-.06 1.26-.75 1.34-.84.1-1.07-.65-1.36-1.27-1.77-3.93-3.49-7.9-5.37-11.77-7.27-14.95-14.63-29.85-21.86-44.81-1.62-3.35-3.27-6.73-4.11-10.4-.1-.45-.5-.9-.47-1.32.08-1.1-.67-2.69.56-3.2 1.39-.58 2.02.96 2.74 1.94 11.2 15.25 18.55 32.38 24.53 50.18q2.8 8.38 5.51 16.79c.26.81.4 1.68.58 2.52m-14.9 14.22c-8.3-25.76-17.08-51.34-27.26-76.44-.57-1.4-1.16-2.82-1.57-4.27-.21-.77-.59-1.93.34-2.35 1.14-.5 1.67.48 2.06 1.45q1.34 3.33 2.71 6.65c9.81 24.38 17.09 49.55 23.73 74.96zm-44.06 4.3c-1.22 7.42-2.36 15.28-6.5 22.28-.48.8-.76 2.41-2.14 1.88-1.57-.6-.32-1.85-.11-2.72 1.34-5.6 1.73-11.33 2.37-17.04.27-2.35-.44-5.29 2.73-6.7.88-.4 1.48-1.73 2.67-1.23 1.38.58.82 1.99.98 3.53m33.13 50.9c.1 2.7-1.43 3.83-2.8 5s-2.56-.05-3.65-.65c-2.58-1.44-4.64-8.1-3.35-10.73.62-1.27 1.52-2.62 2.78-.48.3.52.64.58 1.11.67 3.56.7 5.86 3.35 5.9 6.2zm37.7 122.9c-3.63 3.47-7.96 5.79-12.42 7.87-6.41 2.99-12.88 5.83-19.93 7.06-.89.16-1.91 1.05-2.35-.36-.4-1.3.83-1.59 1.71-1.88 6.56-2.24 13.14-4.39 19.68-6.65 4.61-1.6 8.82-4.1 13.3-6.04z"/><path fill="#000" d="M677.26 315.93c0-1.9.79-2.78 2.82-2.56 4.43.5 7.28 2.47 7.9 5.65.46 2.41-2.73 5.3-5.05 4.57-3.66-1.15-5.68-3.88-5.66-7.65zm155.66 96.53c-.79-.02-1.32-.23-1.68-.72-.48-.65 0-1.07.41-1.46q4.53-4.24 9.1-8.46c.71-.67 1.54-.8 2.33-.13.95.81 1 1.69.32 2.79-1.8 2.91-4.8 4.3-7.47 6.13-1.01.7-2.1 1.3-3 1.85zM412.5 244.03c2.37-2.11 9.45-1.02 13.36 1.95-2.17.51-10.34-.62-13.36-1.95m8.5-11.11c1.8-.08 3.3.91 4.93 1.38.49.14 1.47.14 1.1 1.18-.24.7-.73 1.1-1.52 1.03-1.98-.2-3.97-.33-5.94-.63-.9-.13-2.23-.39-2.22-1.4s1.37-1.1 2.23-1.42c.44-.15.95-.1 1.43-.14m-6.86 19c.27-.1.52-.24.78-.25 1.5-.1 2.86.26 3.66 1.65.2.35-.29.55-.69.66-1.56.44-2.73-.17-3.76-2.06zm16.53 96.9c-1.93.3-3.45-1.73-5.53-.65 1.38-2.06 3.67-1.72 5.53.64M223.3 850.67c-8.77.29-16.15-4.18-23.12-9.6-1.55-1.2-2-2.88-.82-4.52 1.07-1.5 2.59-.9 3.88-.2 3.83 2.14 7.62 4.34 11.45 6.5a39 39 0 0 0 14 4.54c.83.12 1.85-.16 1.94 1.15.08 1.19-.85 1.52-1.67 1.6-1.72.16-3.38.88-5.66.53m478.17 197.46c-.2 1.19-1.03.97-2.21.41-3.07-1.44-5.72-3.52-8.25-5.68-4-3.43-8.52-6.27-11.7-10.69-1.5-2.09-.67-3.47.6-4.79 1.55-1.59 2.98-.63 4.18.7l16.51 18.23c.38.42.98.66.87 1.82m-44.56-852.36a9 9 0 0 1-1.26 5.4c-.28.47-.61 1.1-1.3.9-.7-.22-.68-1.07-.49-1.47 1.89-3.94-.55-6.68-2.48-9.64-1.06-1.62-2.8-4.07-.91-5.29 2-1.27 3.3 1.52 4.5 3.03 1.62 2.02 2.45 4.34 1.94 7.06zm-24.72 12.15c2.55-9.3-.28-17.07-6.19-24.03 1.97-.48 3.62.2 5.48 3.16 4.26 6.76 4.27 13.76.7 20.87m8.27-11.5c-.62-2.24 1-3.58 3.37-4.47 1.9-.7 2.97.33 3.05 1.93a8.5 8.5 0 0 1-2.59 6.46c-1.84 1.81-3.16 1.27-3.67-1.28-.13-.66-.08-1.35-.15-2.63zm4.76-69.34c.23-3.09 3.07-4.66 5.88-6.11 2.49-1.28 5.27-.99 7.96-.85.96.05 1.96.58 2.36 1.49.5 1.12-.5 1.81-1.23 2.37-3.27 2.49-6.53 5-9.93 7.32-1.92 1.3-5-.98-5.05-4.22zm55.63-18.7c2.47.1 4.33-.26 6 .8.86.53 1.98.8 1.75 2.25-.2 1.27-.65 1.94-2.07 2.3-4.45 1.1-8.89 2.08-13.48 2.27-1.28.05-2.82.37-3.1-1.23-.26-1.47.2-3.1 1.7-3.95 3.05-1.75 6.33-2.66 9.2-2.44m-10.4 34.29c.91-2.64 2-5.17.48-7.89-2.23.37-3.68 2.35-5.9 2.84-.9.2-1.71.45-2.3-.3-.64-.83-.04-1.67.42-2.38 1.41-2.17 7.35-4.43 9.8-3.78a3.73 3.73 0 0 1 2.36 5.23c-1.2 2.35-2.6 4.58-4.85 6.28zm-26.02-3.37c0 .54.02 1.21 0 1.88-.03 1.12-.79 1.76-1.7 2.09-1 .36-1.87-.09-2.5-.94-1.65-2.21-1.94-4.74-1.49-7.34.14-.76.74-1.86 1.67-1.65 1.22.27 2.56.56 3.39 1.73a4.9 4.9 0 0 1 .63 4.22zm40.83-10.07c-.06 1.97-.43 3.75-2.95 3.7-2.43-.06-4.83-3.1-4.6-5.97.06-.93.17-2.18 1.73-2.1 3.92.17 5.9 1.63 5.82 4.37m-4.28 27.39c-.14 2.09-2.8 5.22-4.2 4.66-1.73-.67-4.52-.41-4.37-3.5.1-2.03 2.73-3.39 5.86-3.41 1.77-.01 2.29.97 2.71 2.25m-55.91-1.98c-.09.12-.2.4-.4.53-.56.33-.83-.2-1.17-.49-1.72-1.44-3.82-1.97-5.88-2.65-.73-.24-2.23.3-2.04-1.14.19-1.4.85-2.75 2.67-2.88 2.57-.19 6.92 3.93 6.81 6.63z"/></svg>