<svg xmlns="http://www.w3.org/2000/svg" width="1080" height="1080" fill="none" viewBox="0 0 1080 1080"><path fill="#fff" d="M594.29 560.52c-3.36.64-6.84.96-10.05 2.05-2 .7-3.46 2.84-5.43 3.82-1.94.96-4.2 1.28-6.4 1.9-2.1 9.51-.82 18.53-3.37 28.64-.65 2.6-5.87 8.83-7.43 11.14-.36.55-1.56-1.83-2.27-1.85-3.05-.09-6.11-.14-9.12-.6-5.16-.79-11.01.53-13.98-3.74-3.38-4.87-5.5-13.59-7.56-19.11-2.67-7.17-4.06-14.6.42-22.11 1.85-3.12 2.02-7.3 2.65-11.06.65-3.9 1-7.84 1.3-11.78.1-1.08-.45 2.14-1.14 1.54-3.4-2.92-3.74-11.75-4.67-15.93-14.73-1.06-24.05-9.73-30.5-22.22 1.03 5.74 2.3 11.45 3.02 17.23.83 6.58 4.25 13.34 2.44 20.3a57 57 0 0 0-1.86 17.68c.26 4.54-2.32 7.65-4.8 10.88-.23.3-.64.5-1 .6-5.08 1.45-10.19 2.79-15.23 4.34-8.33 2.56-16.8 2.5-25.42 2.3-6-.14-12.02 1.29-18.06 1.61-7.43.4-14.89.5-22.33.52-3.15.02-6.3-.46-9.44-.7l-31.9-2.47c-8.23-.63-16.5-.98-24.7-1.96a147 147 0 0 1-26.54-5.96c-6.49-2.03-13.4-2.66-19.93-4.58-4.45-1.3-8.63-3.64-12.8-5.75a5.7 5.7 0 0 1-2.4-3.03 279 279 0 0 1-5.77-17.99c-.55-2-.26-4.43.32-6.47.66-2.27-.18-3.3-1.64-4.84-3.53-3.7-6.53-7.9-9.97-11.7-3.63-4-7.5-7.8-11.3-11.65-2.78-2.85-3.4-6.06-1.77-9.71 3.15-7.1 3.53-15.29 8.56-21.67.27-.34-.38-1.72-.93-2.32-2.43-2.65-5.36-4.92-7.38-7.83-2.26-3.25-6.56-.3-9.32.25-3.67.72-2.72-1.78-3.73-5.23-3.17-10.86-5.1-22.05-9.67-32.54-1.65-3.8-4.5-5.23-7.6-6.6-8.55-3.76-16.1-8.73-20.5-17.2-1.61-3.12-2.89-6.83-2.85-10.26.08-7.83 1.36-15.64 1.61-23.47.32-10.3 2.9-19.97 6.9-29.32 2.71-6.38 5.2-12.95 8.76-18.86 11.63-19.31 20.9-39.8 30.61-60.06 1.6-3.33 1.88-7.48 1.97-11.28q.4-15.14.04-30.3c-.3-13.24 2.52-25.85 6.85-38.22.73-2.09 1.01-4.38 2.02-6.3a8.35 8.35 0 0 1 8.21-4.65c3.02.16 5.5-.84 7.95-2.44 3.68-2.4 7.37-4.83 11.26-6.86 1.98-1.03 4.39-1.22 6.7-1.81.94-2.92 1.92-6.17 3.05-9.39 2.36-6.74-.84-10.17 14.27-9.32 6.1-1.54 11.53.74 17.21 1.93 2.75.57 5.56 1.12 8.36 1.19 8.34.2 16.7.05 25.04.26 4.54.12 7.1-1.81 11.03.72 2.26 1.46 2.06.24 4.95.62.34.04 2.2-.02 2.48-.62 2.26-4.93 4.89-5.51 3.71-11.14-.56-2.7 2.84-6.4 3.01-9.24-5.28-2.46-8.94-6.25-10.5-11.92-.44-1.63-1.43-3.13-1.79-4.77-1.34-6.14.8-11.78 3.18-17.19a10.8 10.8 0 0 0 .3-8.48c-2.53-7.4-5.2-14.75-7.41-22.25-1.78-6.04-2.05-12.44.95-18.07a21.6 21.6 0 0 1 12.96-10.7c2.22-.65 5 .15 7.42.71 1.72.4 2.59-.24 2.92-1.57 2.05-8.2 8.73-10.04 15.67-11.49.7-.15 1.66.1 2.27.51 10.62 7.2 22.53 12.19 33.08 19.64 5.5 3.9 12.74 5.34 19.18 7.88.65.26 1.33.44 1.96.72 3.16 1.4 6.2 3.54 9.49 4.06 6.07.97 13.3 8.67 14.18 15.72.15 1.2-.78 2.73-1.6 3.8-2.66 3.45-5.4 6.84-8.31 10.07-2.3 2.55-3.62 4.81-3.2 8.78.96 8.84-.42 17.65-2.97 26.24-.86 2.89-1.27 5.91-2.14 8.8-.36 1.2-1.15 2.72-2.16 3.18-2.46 1.14-2.04 2.77-1.85 4.87.6 6.41-1.33 12.21-4.97 17.47-.79 1.13-1.66 2.22-3.05 4.1 1.62 0 2.6-.04 3.56.02.27.01 2.52-1.26 2.75-1.07 5.9 4.77 11.54 5.45 18.17 7.79 1.85.65 4.89 2.13 4.84 3.1-.1 2.03-1.7 4.13-3.08 5.88-.86 1.1-2.46 1.63-3.83 2.48 1.03 2.62 2.4 5.27 3.12 8.09a680 680 0 0 1 5.97 25.77c.43 2.04.9 4.68-2.37 5.5 1.3 4.18 2.64 8.01 7.5 9.44 1.43.42 2.7 2.17 3.57 3.6 4 6.67 6.77 13.8 8.56 21.4 1.8 7.69 4.46 15.17 6.3 22.85 2.32 9.76 3.96 19.68 6.3 29.44 2.56 10.72 6.2 21.08 11.94 30.63 4.2 6.99 5.16 15.06 7.24 22.77 1.81 6.73 4.3 13.27 6.42 19.92 1.89 5.91 4.84 11.65 3.97 18.1-.48 3.56-1.65 7.03-2.38 10.57a424 424 0 0 0-3 15.72c-.16 1 .22 2.87.83 3.1 5.01 1.92 5.29 6.93 6.9 10.78 4.13 9.83 7.63 19.93 11.43 29.9.24.62.9 1.08 1.35 1.62l.6-1.8c1.7-5.08 3.47-10.14 5.07-15.26.39-1.23.1-2.65.34-3.95.42-2.37.69-4.83 1.55-7.05 2.6-6.7 5.51-13.27 8.18-19.93 6.9-17.26 13.68-34.57 20.6-51.82.95-2.4 2.5-4.56 3.58-6.92 1.4-3.07 2.82-6.17 3.81-9.4 1.22-3.97 3.64-6.7 8.18-9-1.7-1.24-2.91-2.47-4.38-3.16-5.71-2.68-11.04-5.88-15.41-10.5-2.25-2.38-2.7-4.92-2.32-8.34.96-8.6 6.27-15.06 9.84-22.37.87-1.79 1.94-3.48 2.72-4.85-3.24-4.53-6.29-8.68-9.19-12.93-.51-.75-.56-1.92-.57-2.9-.07-4.24-.31-8.5.03-12.7.44-5.26 2.06-10.2 6.22-13.83 11.67-10.17 23.27-20.4 35.12-30.37 3.88-3.27 8.5-5.67 10.96-10.4.35-.7.83-1.44.83-2.17.07-4.45.02-8.9 0-13.35 0-1.85.37-3.81-.12-5.54-1.77-6.34.84-12.25 1.56-18.33.1-.8.73-1.72 1.4-2.21 5.4-4.02 8.5-9.7 11.55-15.5 3.8-7.27 9.74-12.5 16.87-16.37 11.1-6.03 20.85-13.79 29.87-22.58 4.5-4.37 10.32-4.34 16.04-4.06 3.73.19 7.43.76 11.15 1.19 2 .23 4 .56 6 .84 5.78.82 7.22 5.81 9.55 9.94.48.87.93 1.82 1.1 2.79 1.17 6.45 5.12 10.75 10.86 13.3 7.3 3.23 11.68 8.96 14.36 16.07 3.16 8.38 6.27 16.8 8.63 25.43 1.07 3.94.65 8.41.3 12.6-.5 5.75-1.5 11.46-2.39 17.16-.96 6.2-1.85 12.4-3.17 18.52-.85 3.99.8 7.16 2.77 10.03 4.87 7.12 10.41 13.77 15.18 20.95a43 43 0 0 1 7.28 20.65c.45 6.33-.7 12.72-4.07 18.32-1.6 2.65-1.83 4.98-.37 7.65 3.15 5.76 5.61 11.78 6.39 18.35.82 6.87 1.6 13.75-1.95 20.17 4.8 2 5.44 3.1 5.2 8a76 76 0 0 0 2.8 24.25c1.48 5.34 2.37 10.86 3.32 16.34 1.16 6.8 1.73 13.7 3.23 20.42a197 197 0 0 0 5.93 20.29c2.73 8.05 5.76 16 8.93 23.89.83 2.06 2.86 3.6 4.05 5.56 1.94 3.16 3.31 6.73 5.53 9.66a75 75 0 0 1 8.95 15.33c4.05 9.24 7.76 18.53 8.04 28.89.13 4.83-1.95 8.8-3.54 13-2.4 6.33-2.65 12.8-1.61 19.4.12.8.1 1.63.1 2.45 0 5.87.47 11.8-.1 17.61-.75 7.48 2.16 13.48 6.23 19.18 3.52 4.94 4.66 8.05.07 14.53-.5.71-.64 1.92-.5 2.83 1.14 7.59 2.11 15.21 3.68 22.72 1.15 5.49 3.13 10.8 4.72 16.2.32 1.07.5 2.16.79 3.24 1.35 5.06.22 9.03-4.7 10.23-1.41.34-2.27 2.93-3.71 3.71 1.7-3.06-1.33-1.18-3.72-2.47-3.06 2.49-2.24 1.23-7.63 2.76 0-2.78.2-1.41.2-4.62-2.61 1.41-5.01-1.15-7.84.37.26-1.72.1-3.2.73-4.25 1.8-3.05-.02-6.9 2.38-9.83.34-.43-.3-2-.86-2.76-2.08-2.76-4.68-5.2-6.4-8.15-2.73-4.68-5.08-9.6-7.26-14.57-1.3-2.94-3.27-2.68-5.35-1.67a658 658 0 0 0-21.55 10.7c-5.04 2.66-9.61 6.48-14.9 8.34-5.56 1.96-6.72 6-7.65 10.63-.32 1.6.4 3.44.02 5-1.45 5.76-6.38 7.78-11.14 10-8.92 4.15-17.58 2.09-26.12-1.09-13.57-5.04-24.3-13.65-30.39-26.92-3.4-7.44-5.85-15.4-8-23.32a189 189 0 0 1-5.27-29.36c-1.35-12.83-.62-25.61-.97-38.41-.26-9.43-.6-18.87-.54-28.3.04-8.68.68-17.36.8-26.05a47 47 0 0 0-1.08-9.62c-.34-1.7-1.19-3.48-3.59-3.49-6.35-.02-12.7-.24-19.05-.07-.84.01-2.32 1.72-2.37 2.71-.34 6.21-.81 12.47-.37 18.65.68 9.29 1.43 18.5-.6 27.71-3.37 15.2-10.03 29.13-16.62 43.08a102 102 0 0 0-8.53 27.13 52 52 0 0 0-.62 6.4c-.26 6.9-1.03 13.84-.53 20.68 1.03 13.8-16.42 26-26.05 24.62-3.66-.53-7.28-2.37-10.6-4.18a636 636 0 0 1-24.03-13.88c-3-1.81-6.08-3.75-7.74-7.44l2.31-.62c-1.95-6.81 1.4-12.79 3.02-18.98 1.12-4.3 2.19-8.4 1.86-12.97-.36-4.9.25-9.9.44-14.85l.43.06-.09-.38-.28.4zm136.37 245.9c1.75 4.76 3.76 9.55 3.36 14.7s-1.45 10.23-2.15 15.34c-.74 5.31-1.99 10.63-1.98 15.94.01 8.7-2.06 17.05-3.2 25.55-.42 3.12-.8 6.38-.37 9.47.8 5.7 0 11.22-1.92 16.41a114 114 0 0 0-6.97 32.35c-.33 4.9.6 9.86.56 14.79-.04 4.15-.55 8.31-1.05 12.44a218 218 0 0 1-2 12.98c-1.05 5.71-2.55 11.35-3.33 17.1-.48 3.58-.05 7.29.1 10.94.16 4.14.96 8.32.57 12.38-.61 6.32 2.19 10.86 5.75 15.6 4.17 5.53 7.2 11.77 4.23 18.97-.65 1.57-2.06 3.29-3.55 3.94a69 69 0 0 1-12.12 4.14c-3.33.77-6.89.9-10.33.81-3.83-.09-7.67-.68-11.49-1.18-6.7-.88-12.22-4.31-17.25-8.49-2.55-2.12-3.08-5.01-2.2-8.5 1.25-4.95 1.67-10.11 2.66-15.13.19-.94 1.25-1.98 2.17-2.45 2-1 3.22-5.5 1.48-6.8-2.72-2.03-5.68-3.74-8.49-5.66-.78-.53-1.68-1.22-2-2.04a112 112 0 0 1-3.65-10.66c-.31-1.12.35-2.56.74-3.8.6-1.89 1.34-3.73 2.01-5.6 1.75-4.87 3.3-9.83 5.3-14.6a9.3 9.3 0 0 0 .1-7.8c-1.35-3.38-1.82-7.14-2.4-10.78-.83-5.18-1.67-10.38-1.97-15.6-.09-1.47 1.35-3.76 2.7-4.39 1.8-.85 1.75-1.99 1.42-3.16-1.08-3.84-2.5-7.58-3.57-11.43a168 168 0 0 1-3.14-12.74 356 356 0 0 1-3.57-20.24 218 218 0 0 1-1.96-19.66c-.3-6 5.88-11.97 12.33-12.06 5.52-.07 11.06.34 16.6.54.3.02.68-.08.91.06 6.87 4.3 15.02 2.76 22.33 4.99 4.23 1.28 8.4 2.74 12.98 4.24l3.53-23.09-1.03-.19c-.48 1.38-.76 2.86-1.48 4.09-.75 1.3-2.4 3.52-2.83 3.34-1.86-.77-4.24-1.53-4-4.43q.38-4.74.57-9.5c.03-.64-.1-1.73-.44-1.86-5.3-2.06-3.55-6.45-3.54-10.29 0-1.75-.3-3.5-.36-5.24-.07-2.11-.02-4.23-.02-5.72-2.37-1.07-5.19-1.9-7.4-3.53-1.17-.85-1.82-3.17-1.76-4.78.4-9.18 1.16-18.33 1.6-27.5.07-1.23-.97-2.51-1.5-3.77-.38-.93-1.14-1.88-1.1-2.8.16-3.5.59-6.98.91-10.45.01-.1-.06-.25-.01-.3 2.4-3 1.1-7.97 5.56-10 2.3-1.04 4.16-3 6.37-4.3.71-.43 2.45-.43 2.78.04 2.64 3.72 5.8 7.22 5.79 12.26 0 2.1.5 4.2.78 6.42H724c1.17-2.23 1.02-5.64 4.88-5.53.33 0 .84-.23.98-.08 1.66 1.83 3.42 3.6 4.84 5.62 1.15 1.63 2.39 1.94 3.51.5 1.32-1.67 2.21-1.14 3.74-.33 2.67 1.42 3.95 3.23 3.29 6.3-.56 2.62.48 5.22-2.03 7.84-4.48 4.69-5.84 10.75-4.3 17.28.13.56-.57 1.36-.96 2-.3.5-.95.9-1.04 1.41-.37 2.13-1.27 3.52-3.65 3.8-.79.1-1.49 1-2.23 1.53l-.21-1.01-.36.06.23 1.27zm-2.6-28.09c-3.93 4.52-3.05 9.07-3.05 13.34h4.48zM415.84 966.5l-7.48-4.87c-1.54 2.1-3.18 4.02-4.45 6.16-2.63 4.45-5.5 8.77-10.39 10.82a13 13 0 0 1-7.54.8c-8.22-1.86-15.43-5.7-21.15-12.11a23 23 0 0 0-4.62-3.93c-5.26-3.39-6.43-8.73-7.2-14.32-.76-5.56 1.61-10.59 2.56-15.86a360 360 0 0 0 2.96-18.87c.87-7 .86-14.13 2.22-21.02a41.3 41.3 0 0 1 9.88-19.77c1.63-1.81 2.87-4.93 4.78-5.4 6.2-1.48 10.43-5.95 15.56-8.98 3-1.77 6.15-1.27 7.62 1.87 2.89 6.14 5.35 12.48 8.39 18.54 2.45 4.9 5.9 9.3 8.15 14.26 2.36 5.18 4.57 10.67 5.38 16.24.47 3.25-2 6.9-3.02 10.4-1.91 6.7-4.02 13.35-5.42 20.15-.5 2.42.47 5.34 1.38 7.8 1.32 3.54 3.02 6.86 2.11 10.85-.21.96.47 2.11.7 3.18q.4 1.85.77 3.7zm42.22 22 3.53 20.01q2.33 13.13 4.63 26.27c1 5.69 2.01 11.38 2.87 17.09.3 2.01.43 4.15.12 6.14-.4 2.51-1.55 4.29-4.78 4.35-1.96.04-3.98 1.36-5.81 2.38-3.92 2.17-8.08 3.02-12.52 3.07-3.47.04-6.92.52-10.38.58-2 .03-4.04-.24-6-.64-5.61-1.15-11.19-2.43-16.77-3.68-4.88-1.09-8.99-6.75-9.33-12.35-.65-10.78 4.2-19.08 10.74-26.79 3.1-3.66 4.25-7.65 3.32-12.42a265 265 0 0 1-2.74-16.76c-.42-3.24 1.9-5.4 4.15-7.13 1.45-1.12 1.34-2.08 1.18-3.59a80 80 0 0 1-.44-9.6c.02-1.52.97-2.53 2.8-2.32 4.14.48 8.28.96 12.44 1.26 2.8.2 5.63 0 8.44.13 3.65.16 7.57-.26 10.85.98 2 .76 3.44 4.02 4.32 6.45.7 1.91.13 4.28.13 6.44zm-1.08-278.24c3.19 5.3 5.9 9.82 8.7 14.45l1.68-4.82 1.19.2c.25 1.7.7 3.41.72 5.13.1 5.07-1.33 10.66.34 15.1 2.9 7.73.29 14.8-.27 22.1-.23 3.07-1.11 6.11-2.03 9.06-1.26 4.05-2.94 4.37-6.05 1.57-.63-.57-1.49-.9-2.75-1.64 0-3.65.38-7.8-.1-11.84-.67-5.83-2.02-11.57-2.99-17.36-1.18-7.04-2.41-14.08-3.33-21.16-.31-2.36-.2-5 .61-7.18.54-1.46 2.67-2.34 4.27-3.61zm-85.6 133.26c-3.3-4.73-6.32-8.76-9-13.02-2.97-4.74-4.19-5.47-9.37-4.29.5 2.5-.44 4.38-2.64 5.77-1.79 1.14-2.9.6-3.5-1.16a53 53 0 0 1-1.85-6.6c-.18-.87.41-1.88.39-2.83-.07-2.23-.63-4.5-.38-6.67.49-4.22 2-8.22 3.59-12.13a8 8 0 0 1 3.02-3.35c1.87-1.18 3.56-.87 4.57 1.51q6.38 15.13 12.87 30.18c.97 2.26 2.07 4.45 3.13 6.67.83 1.74.98 3.4-.83 5.92m260.53-181.9c1.28.23 2.7.2 3.85.73a42.4 42.4 0 0 0 18.97 3.76c.47-.01.96-.08 1.4.04a1804 1804 0 0 1 18.84 5.11c.74.21 1.4.75 2.1 1.11 2.46 1.28 2.44 2 .5 3.78-4.42 4.08-9.43 4.34-14.97 3.01-8.2-1.96-16.46-3.68-24.7-5.44-6-1.27-10.18-4.63-12.21-10.43-.24-.67.26-2.24.74-2.4a8 8 0 0 1 3.82-.17c.49.08.83 1.09 1.23 1.67zm115.87 93.09c-3.46-4.38-4.28-9.72-4.71-14.82-.42-4.89.7-9.9 1.14-14.86l1.22-.45c1.36 1.32 3.02 2.46 4.01 4.01 1.05 1.65 1.4 3.74 2.19 5.58 2 4.68 4.57 9.19 6 14.04 1.5 5 .22 9.9-3.4 13.94-1.75 1.94-3.93 2.72-6.24 1.65-1.61-.75-2.13-5.41-1.18-7.28.27-.53.56-1.05.97-1.81m-19.69-77.63c6.23.32 12.45.72 18.67.88 1.22.03 3.1-.49 3.59-1.36 1.75-3.11 4.19-5.43 6.63-7.95 1.95-2.02 3.8-2.53 6.07-2.76.6-.06 1.81.93 1.87 1.53.23 2.24.34 4.56.05 6.79-.5 3.88-.99 7.84-2.18 11.54-.58 1.78-2.58 3.33-4.29 4.44-1 .65-2.92.36-3.28-1.43-.68-3.4-2.5-4.41-6.02-4.68-6.4-.5-12.73-1.8-19.04-3.03-1.1-.22-1.93-1.76-2.88-2.68zm-400.37 78.34c1.3-4.4 1.14-8.33 6.04-9 1.16-.15 2.2-1.18 3.3-1.8.7 1.5 1.81 2.95 2.05 4.54a318 318 0 0 1 1.98 16.28c.11 1.16-.2 2.41-.51 3.56-.13.48-.74 1-1.23 1.14-.3.08-.78-.54-1.2-.82a9 9 0 0 0-1.16-.68c-.82-.4-1.68-.7-2.49-1.12-.85-.42-2.09-.73-2.4-1.43-1.68-3.73-3.13-7.56-4.38-10.67"/><path fill="#fff" d="M486.75 101.12c.58 3.85 1.32 7.69 1.7 11.56.25 2.64-1.03 3.99-4.36 5.02l2-16.52zm4.5-5.47 4.81 1.12c-.24 2.54-.46 5.14-.8 7.72-.06.47-.58 1.2-.96 1.25-.4.05-1.2-.51-1.29-.91-.64-2.9-1.14-5.81-1.76-9.17z"/><path fill="#000" d="M536.83 603.16c-1.02-.88-2.41-1.55-2.98-2.66-3.88-7.52-7.78-15.04-11.28-22.74-2.8-6.17-.8-11.57 3.24-16.73 1.47-1.88 1.6-4.84 2.26-7.32.85-3.15 1.63-6.32 2.55-9.97-5.63-4.13-9.1-9.78-6.35-17.92-6.37-.72-13.2-2.05-18.66-6.5-.3 7.46 1.8 15.09-1.45 21.98 1.19 3.7 2.6 7.14 3.3 10.72a7.8 7.8 0 0 1-1.16 5.44c-2.49 3.5-5.44 6.67-8.32 9.88-.98 1.1-2.32 1.88-3.73 2.98-.46 6.7-.82 13.81-1.46 20.9-.65 7.17-1.51 14.32-2.37 21.48-.79 6.62-1.56 13.25-2.58 19.83a835 835 0 0 1-3.98 23.14c-1.14 6.2-1.96 12.5-5.31 18.05-.37.62-.58 1.43-1.1 1.83-4.62 3.5-3.53 7.96-2.05 12.38 1.3 3.85 2.49 7.83 4.42 11.37 3.55 6.52 4.69 13.24 3.08 20.42-1.56 6.95-2.92 13.96-5.03 20.74-1.66 5.3-4.31 10.3-6.52 15.45h-1.03l-11-28.99-2.12-7.4 5.26-5.73-.8-.83c-1.52 1.37-3.19 2.62-4.5 4.16-.77.91-1.5 2.37-1.35 3.46.29 2.16 1.2 4.24 1.83 6.34 1.52 6.06 2.7 12.23 4.66 18.15 1.97 5.94 3.86 12.21 7.3 17.3 5.7 8.4 7.12 17.92 8.8 27.3 1.77 9.84 1.2 19.86-.86 29.76-.86 4.14-.91 8.45-1.44 12.67-.69 5.4-1.76 10.75-2.15 16.16-.48 6.72-2.61 13.2-.2 20.33 1.44 4.28-.76 9.72-1 14.66a271 271 0 0 0-.17 16.01c.06 5.87.68 11.75.35 17.59-.33 5.7-1.68 11.35-2.3 17.05-.23 2.07.4 4.22.52 6.34.14 2.55-1.3 4.04-3.5 5.07-1.98.94-3.86 2.08-6.04 3.27 1.8 2.3 1.23 5.87 5.18 6.48.62.1.89 3 1.17 4.63.13.8-.37 1.8-.08 2.49 1.12 2.54 2.03 5.01 1.13 7.87-.17.54.8 1.35.88 2.06.45 3.82-1.11 5.84-5.89 6.43-2.47.3-2.74 1.24-2.77 3.28-.18 9.13 2.47 17.8 4.63 26.47 2.94 11.83 6.56 23.5 9.76 35.28.78 2.9 1.02 5.96 1.53 9.1l7 1.24c-2.25 2.47-3.8 4.51-5.67 6.17a176 176 0 0 1-9.74 7.94c-2.33 1.77-3.09 1.44-4-1.4-10.42 3.73-21.28 4.29-32.22 5.04-9.73.67-19.1-1.19-28.61-2.11-2-.2-3.94-1.32-5.8-2.23a3.4 3.4 0 0 1-1.68-2.08c-.1-.47.91-1.26 1.54-1.75.78-.6 1.7-1.04 2.72-1.65-.3-.67-.44-1.55-.95-2.03-4.34-4.02-3.46-8.54-1.24-13.07a976 976 0 0 1 13.34-26.44c1.21-2.3.98-4.36.5-6.58-.95-4.32-2.04-8.61-2.95-12.93-.96-4.6.49-8.4 4.24-11.27 1.43-1.1 2.9-2.15 4.37-3.25-.44-3.41-3.38-6.61-1-10.54l-7.89-3.56c-.13-.37-.2-.47-.2-.56.28-3.56-.12-7.24 3.37-9.9.58-.43-.44-3.16-.91-4.76-.81-2.75-1.74-5.48-2.7-8.18a26.5 26.5 0 0 1-.59-16.3 46 46 0 0 0 1.45-14.3c-.36-9.34.22-18.7.36-28.07a5.4 5.4 0 0 0-.52-2.58c-3.5-6.32-7.08-12.6-11.19-19.85-1.36 5.96-2.82 11.1-3.64 16.34-.78 4.94-5.45 6.63-9.38 5.9a15 15 0 0 0-2.4-.28 11.5 11.5 0 0 1-8.16-3.45 15 15 0 0 0-2.8-2.36c-3.4-2.02-4.76-1-5.24 2.93-.8 6.4-2 12.74-3.06 19.1q-1.8 10.98-3.7 21.95c-1.67 9.5-1.92 19.06-1.91 28.67 0 3.22.55 5.88 3.29 7.83 4.5 3.21 8.67 7.03 13.5 9.63 11.87 6.4 20.93 3.38 27.37-8.6 1.54-2.88 2.77-5.93 4.21-8.87.15-.32.81-.66 1.11-.57s.72.74.66 1.07a78 78 0 0 1-1.49 6.74c-.34 1.22-1.16 2.3-1.54 3.5-2.92 9.44-12.08 16.93-23.68 14-10.38-2.63-18.72-8.04-26.74-14.75-4.14-3.47-4.92-7.78-5.19-12.35-.36-6.3-.54-12.69.03-18.96.63-6.99 2.1-13.92 3.37-20.83a228 228 0 0 1 3.39-15.55c1.29-5 2.96-9.89 4.45-14.78-1.4-.74-2.74-1.2-3.77-2.05-1.63-1.31-3.11-3.15-1.65-5.19 1.06-1.48.19-2.02-.39-2.97q-4.06-6.8-8.08-13.63c-.15-.26-.48-.52-.46-.75.65-6.17-1.51-11.94-2.37-17.9-.64-4.4.67-8.91 3.43-12.73.58-.8 1-1.73 1.5-2.6l-.75-.46-2.35 3.1c-5.34-6.38-9.14-13.46-10.65-21.68-.5-2.69-.53-5.53-1.43-8.07a20 20 0 0 0-4.02-6.82c-4.12-4.4-7.44-9.2-9.44-14.88a8 8 0 0 1-.55-3.2c.36-4.13.52-8.33 1.47-12.33.46-1.93 2.3-3.74 3.92-5.11 1.36-1.14 2.3-1.65 1.48-3.8a383 383 0 0 1-8.7-24.35 701 701 0 0 1-9.28-33.03c-2.99-11.7-5.54-23.5-8.29-35.26a50 50 0 0 1-.58-19.43 401 401 0 0 1 4.58-23.87c.78-3.46 2.4-6.76 3.92-10 .63-1.34.55-2.16-.15-3.4-3.02-5.4-6.69-10.62-8.56-16.4-1.73-5.36-1.93-11.37-1.79-17.07.04-1.37 1.8-3.37 1.46-5.49-2.62-1.73-7.25-.3-8.22-5.36 2.3 0 4.24-.09 6.18.03 2.06.11 3.7-.1 5.18-2 1.59-2.06 3.5-1.26 4.41 1.3.27.79 1.27 1.72 2.05 1.85 11.74 1.95 23.47 3.9 35.25 5.57a442 442 0 0 0 22.94 2.5c8.42.77 16.86 1.57 25.3 1.9 15.38.58 30.78 1.24 46.16 1.08 10.78-.1 21.55-1.31 32.3-2.42 5.58-.57 11.08-1.92 16.6-3.04 5.33-1.07 8.06-5.42 10.77-9.42.72-1.05-.37-3.39-.74-5.12-.4-1.85-1.24-3.69-1.26-5.53-.02-1.38.9-2.8 1.52-4.15.28-.63.89-1.1 1.25-1.7 2.33-3.85 2.95-7.48 1.12-12.11-3.03-7.66-5.07-15.73-7.28-23.7a31 31 0 0 1-.93-8.4c0-1.08 1.26-2.17 1.95-3.26l1.1.43-2.7-14.44c2.35-.86 3.8-.36 4.58 1.79q3.02 8.5 6.08 16.99c2.2 6.07 3.93 12.3 7.82 17.69 2.05 2.85 4.89 3.24 7.75 3.92 3.01.72 6.08 1.17 9.1 1.89 2.65.62 3.77 2.53 3.78 5.16v7.37c10.99 6.75 38.12 8.84 41.2 4.16 4.29 3.03 8.36-.3 12.57-.43 1.55 3.07 2.23 3.94-9.45 7.57v20.4c2.64-1.78 5.48-3.75 8.4-5.63.43-.27 1.16-.11 1.76-.13 1.46-.04 2.93.05 4.37-.14 2.9-.4 3.96-2.2 4.4-5.1a351 351 0 0 1 4.2-22.64c1.92-8.65 4.19-17.23 6.38-25.82.46-1.82 1.27-3.55 1.95-5.31.82-2.11 1.83-3.66 4.6-2.47.64.28 2.3-.38 2.62-1.03 1.38-2.8 3.26-5.72 3.45-8.69.61-9.76.47-19.57.82-29.35.14-4.27.83-8.5 1.15-12.77.08-1.07-.37-2.17-.37-3.26-.02-1.41-1.1-2.93.62-4.24.5-.38.29-1.7.41-2.58.2-1.39.5-2.75.56-4.14.02-.74-.15-1.76-.64-2.2-5-4.37-5.17-9.94-4.44-15.97.56-4.77.65-9.6.73-14.42.02-.94-.77-2.14-1.55-2.78-2-1.63-4.09-3.26-6.38-4.43-3.18-1.64-3.54-4.34-3.05-7.23.58-3.48 2.73-6.75 1.18-10.48-.1-.25-.04-.82.08-.87 3.68-1.34 2.7-5.83 5.21-7.78 1.99-1.54 4.38-2.6 6.67-3.7 1.02-.5 2.26-.56 3.5-.85 0-1.99-.21-3.87.07-5.67a5 5 0 0 1 1.74-2.95c.7-.52 1.98-.23 3-.3.02 1.08.3 2.24-.03 3.2-.48 1.46-1.4 2.78-1.81 4.5 8.22-2 16.06-4.7 25.26-4.12-2.15-2.36-4-4.16-5.55-6.2a3.7 3.7 0 0 1-.36-2.94c.99-2.88 2.24-5.66 3.67-9.16-3.77 2.9-6.5 5.95-9.92 7.45-7.43 3.26-14.83 3.89-21.89-3.45-.72-.75-.93-1.99-1.37-3 1.6-.52 3.26-1.58 4.79-1.4 1.4.14 2.7 1.58 4 2.49 5.38 3.77 10.85 3.63 15.8-.47 3.98-3.3 7.43-7.26 11.13-10.92.57-.56 1.2-1.07 1.9-1.7 3.52 6.1 1.98 11.99-.55 18.6 5.78-1.84 10.73-3.6 15.77-5a64 64 0 0 1 9.42-1.65c2.89-.36 4.4 1.14 4.9 4.34.65-1.14 1.24-2.3 1.97-3.4 1-1.5 1.96-3.05 3.17-4.37 2.66-2.9 4.58-2.98 7.6-.66.9.69 1.85 1.33 3.32 2.37 1.14-5.4 2.06-10.2 3.2-14.96.37-1.5 1.56-2.81 1.94-4.32.42-1.63.86-3.56.39-5.07-2.94-9.2-6.12-18.34-9.26-27.47-3.02-8.77-6.16-17.49-9.05-26.29a5.4 5.4 0 0 1 .5-4.24c1.1-1.57 3.68-.84 4.56 1.1 1.3 2.85 2.49 5.74 4.07 9.43 0-3.51-.17-6.09.07-8.62.15-1.68.89-3.3 1.52-5.48-5.08-3.77-12.08-7.01-14.83-14.88l-11.33 14.87c-2.48-2.77-.92-4.81 0-6.78 1.06-2.26 2.61-4.3 3.47-6.6.72-1.96.74-4.16 1.1-6.4 2.77-.96 5.15-4.3 5.15-7.6 0-4.74.06-9.48-.06-14.22-.01-.78-.62-1.9-1.28-2.25-6.06-3.33-7.16-6.4-4.96-13.08.48-1.42-.32-3.23-.1-4.8.15-1 .97-2.58 1.7-2.72 7.33-1.42 14.71-2.53 22.05-3.85a58 58 0 0 0 9.02-2.43c-7.24-.78-14.4.23-21.4 1.92-7.05 1.7-13.94 4.06-19.95 5.86-.36 1.74-.25 3.12-.88 3.9-2.71 3.41-5.42 6.89-8.55 9.9a304 304 0 0 1-17.23 15.44c-6.55 5.39-13.5 10.3-20.19 15.51-4.95 3.87-9.96 7.7-14.56 11.97-1.4 1.29-1.98 3.95-2.08 6.02-.28 5.56-.57 11.19.12 16.67.32 2.48 2.8 4.8 4.62 6.92.91 1.07 2.52 1.56 3.96 2.4l3.73-3.28q.31.2.63.38l-1.2 4.5 9.72 5.27-.33.91-11.97-3.51-7.03 15.17c-1.09 2.33-2.58 4.55-3.23 7-2.6 9.8-1.27 11.9 8.5 16.1 2.7 1.15 5.57 3.12 8.93 1.98 4.3 3.46 10.63 3.98 13.59 9.18.88 1.55.86 3.8.68 5.67-.1 1.18-1.25 2.23-2.42.36-1.98-3.16-5.15-4.42-8.6-5.33-6.9-1.83-14.05-3.1-20.63-5.8-8.42-3.43-8.76-9.2-7.42-17.12 1.64-9.66 7-17.66 12.47-25.53.55-.8 1.01-1.67 1.56-2.6-6.46-.72-9.73-7.2-10.03-13.06-.32-6.27-.12-12.57-.06-18.86.06-5.57 3.46-9.09 7.52-12.33 13.28-10.6 26.46-21.33 39.68-32 2.19-1.78 4.4-3.52 5.92-4.75-.45-2.37-.95-4.16-1.11-5.97-.7-7.6-1.26-15.22-1.93-22.82-.25-2.88.25-5.26 3.48-6.02-1.08-3.1 3.3-10.3 6.29-11.47 1.04-3.1 2.07-5.68 2.77-8.36 1.52-5.76 5.35-10.17 9.35-14.03 7.29-7.02 16.02-12.06 25.66-15.32.95-.33 1.95-.45 2.6-.6.75-1.5 1.23-2.93 2.07-4.1 5.28-7.35 12.17-12.7 20.86-15.17 3.25-.92 6.94-.3 10.42-.4 7.55-.21 14.84 1.61 21.97 3.55 5.57 1.52 8.74 6.18 9.91 11.94.5 2.46.76 5.01 1.66 7.31.47 1.24 2.05 2.06 3.18 3.01 1.14.96 2.4 1.79 3.5 2.8 1.51 1.37 2.82 2.98 4.38 4.28 5.82 4.89 10.56 10.54 13.71 17.53 1.54 3.4 3.82 6.48 5.28 9.91a32 32 0 0 1 2.4 8.96c.42 3.98.44 8.07.07 12.06-.2 2.14-1.12 4.67-4.89 4 1.38 1.92 2.12 4.1 3.53 4.7 2.6 1.1 2.64 3.59 2.48 5.03a164 164 0 0 1-3.23 19.29c-.58 2.52-2.54 4.73-4.5 8.19 2.34 3.8 5.09 8.88 8.4 13.55 5.43 7.65 11.3 15 16.86 22.55 5.2 7.06 5.9 14.8 2.53 22.78-1.98 4.7-4.5 9.18-6.96 14.15 10.97 12.96 15.89 27.47 6.36 44.32 4.64 3.53 4.59 9.12 5.46 14.18 2.28 13.31 4.1 26.7 6.29 40.02 1.66 10.05 2.03 20.43 6.2 29.91a593 593 0 0 0 12.17 25.6 608 608 0 0 0 11.4 21.8c5.34 9.76 10.32 19.67 13.54 30.37.6 2 1 4.06 1.56 6.35 2.7-.13 3.62 1.7 3.34 4.26-.9 8.3-1.89 16.6-2.86 24.9-.46 3.94-1.02 7.85-1.44 11.78-.86 7.95-1.64 15.9-2.52 23.83-.1.84-.63 1.64-.65 1.68 3.54 6.4 6.95 12.34 10.07 18.43.42.83-.19 2.91-1 3.52-7.4 5.54-7.36 5.46-5.15 13.69a2185 2185 0 0 1 8.77 33.73c.2.84-.34 2.1-.9 2.89-2.22 3.08-4.6 6.04-6.87 9.1-1.84 2.49-4.64 2.64-6.88 1.73-1.08-.44-1.23-3.28-1.66-5.07-.19-.77-.03-1.63-.03-2.77l-2.98 1.47-2.64-3.2-5.67-6.77-3.54 8.06 9.3-1.38.42 4.38.73-.63c1.15.44 3.03.63 3.28 1.36.33.98-.28 2.72-1.1 3.53-1.24 1.25-3.63 3.16-4.4 2.73a6.2 6.2 0 0 1-3.32-6.08c.06-.67 0-1.36 0-1.64-2.58.54-4.96 1.17-7.37 1.51-2.66.38-4.43-1.64-3.24-3.96 1.7-3.34 3.96-6.39 5.89-9.6.37-.62.7-1.75.4-2.2-3.21-4.87-6.8-9.5-9.72-14.5-1.18-2.03-.97-4.85-1.38-7.26-2.4-.47-5.15-1.2-7.93-1.45-1.15-.1-2.53.6-3.58 1.28-10.32 6.76-21.81 10.84-33.19 14.87.86 6.9 1.77 13.84 2.6 20.79.65 5.52 1.4 11.05 1.72 16.6.2 3.22-.08 6.55-.73 9.7-.24 1.13-2.1 2.16-3.44 2.7-.5.2-1.61-1.15-2.77-2.04-7.89 4.16-17.26 4.96-26.53 5.82-9.45.88-18.96 1.18-28.5 2.24l26.93 1.65c-.45 3.55-.77 7.74-1.52 11.85-1.9 10.37-3.97 20.7-5.99 31.05-.56 2.85-1.8 5.75-1.56 8.52.3 3.38 1.58 6.76 2.9 9.95 1.66 4.04 2.8 8.16 1.05 12.26-1.77 4.16-4.79 7.45-9.2 9.15-.26.1-.78-.04-.86.11-1.2 2.16-3.1 4.27-3.33 6.55-.86 8.9-.97 9.64-7.42 16.46 1.34 2.29 2.5 4.61.79 7.3-.28.44-.19 1.6.17 1.86 2.12 1.64 1.78 3.5 1.53 5.93-.5 4.83-.15 9.75-.15 14.89l2.29.29c-.16 1.12-.47 2.11-.4 3.07.65 9.76-2.03 18.97-4.62 28.17-3.1 11.05-6.41 22.03-9.65 33.04-.28.96-.85 1.86-.96 2.83-.08.78.14 2.2.55 2.32 3.5 1.11 2.54 4.06 2.08 6.06-2.44 10.74-5.2 21.4-7.88 32.09-.97 3.88-1.97 7.75-3.11 11.59-.44 1.46-1.34 2.79-2.19 4.5 4.6 1.96 3.27 6.13 2.73 9.92-1.53 10.6-3.34 21.15-4.77 31.75-1.07 7.91-1.28 15.97-2.75 23.8-.92 4.88 2.4 7.86 3.4 11.81.94 3.76 2.4 7.4 3.66 11.08.19.56.39 1.42.78 1.57 4.36 1.53 4.72 5.29 5.05 8.98.32 3.74 2.32 5.54 5.9 5.91.78.08 1.55.3 2.7.52-.66.83-1.05 1.53-1.63 1.99-7.06 5.52-14.88 9.25-23.92 10.08-4.23.39-8.46 1.03-12.7 1.19-7.97.3-15.47-2.08-22.97-4.4-5.39-1.66-10.8-3.22-16.2-4.86-.64-.2-1.2-.63-2.46-1.32 2.53-1.09 4.47-1.93 6.5-2.79.25-2.77.29-5.75.87-8.63.34-1.67 1.61-3.13 2.36-4.74 3.74-8.01 7.24-16.14 11.24-24.02 1.89-3.72 1.5-7.32 1.12-11.08-.4-4.11-1.07-8.22-1.17-12.34-.34-12.73-.13-25.5-.87-38.2-.21-3.74.42-6.16 3.12-8.35.24-.2.16-.79.23-1.2l-.1.12 2.58-1.26-.07.06c.36-.4 1.03-.79 1.06-1.2.37-6.68.53-13.37 1.02-20.04.3-4.23 1.1-8.43 1.64-12.65q.96-7.37 1.84-14.75c.06-.47-.09-.96-.14-1.44-8.73 1.16-17.1.9-25.34-3.68.56 4.22 1.03 8.23 1.63 12.22 1.57 10.47 4.67 20.75 4.06 31.5-.06 1.09-.34 2.16-.51 3.24l-1.38.2c-1.43-4.15-3.3-8.2-4.18-12.46-1.95-9.54-3.47-19.17-5.02-28.8-1.16-7.17-2-14.4-3.2-21.58-.21-1.25-1.54-2.31-2.43-3.58 4.56-2.47.74-6.22.33-9.44-1.05-8.17-2.99-16.22-3.9-24.4-.88-7.94-.93-15.96-1.34-23.95-.41-8.17-.79-16.34-1.25-24.51-.36-6.52-.58-13.06-1.28-19.55-.85-7.73-2.1-15.41-3.26-23.1-1.31-8.66-2.96-17.29-4.04-25.97-1.1-8.88-1.28-17.89-2.68-26.71-1.13-7.21-3.47-14.23-5.41-21.85 14.37 5.67 29.37 6.07 44.1 8.1-6.42-1.37-12.84-2.67-19.24-4.1-7.12-1.6-14.33-2.94-21.28-5.07-11.87-3.64-23.81-7.2-34.95-12.88-1.95-.99-3.84-2.1-5.78-3.1-2.26-1.15-2.47-2.68-.58-4.23 1.76-1.45 3.75-2.6 6-4.13.76-4.47 1.72-9.61 2.47-14.77.1-.8-.5-2.01-1.17-2.53-2.54-1.97-5.4-3.51-7.82-5.6-2.74-2.38-3.68-5.33-2.69-9.2 2.34-9.09 4.2-18.3 6.25-27.48.08-.4.16-.9 0-1.22-2.43-4.5-.1-8.85.43-13.25.1-.94.15-1.9.27-3.33-5.48 2.42-10.4 4.79-15.47 6.74-2.46.95-2.67 2.8-3.15 4.8-.87 3.69-1.83 7.36-2.73 11.04-.54 2.22-1.15 4.43-1.57 6.68a6.5 6.5 0 0 1-4.6 5.09c-4.53 1.5-9.2 2.6-13.83 3.74-1.76.42-3.58.57-5.39.72-1.01.08-2.05-.1-3.08-.17l-.63-.54c-3.1-1.04-5.19-2.9-5.28-6.43q-.28-11.19-.63-22.38c-.08-2.25-.03-4.68-3.38-4.7-.57 0-1.14-.43-1.7-.67l.74-1.08 3.11.5.06-1.27c.88-2.6 3.07-3.96 4.35-2.41 1.84 2.2 3.66 4.95 4.09 7.7 1.2 7.63 1.67 15.38 2.51 23.95 4.5 0 9.3.04 14.08-.04.84-.01 2.19-.33 2.42-.88 1.1-2.63 2.26-5.32 2.74-8.1a398 398 0 0 0 3.1-21.47c.66-5.63.93-11.3 1.42-17.37-12.06 2.24-23.73 3-34.9-.8-3.23 8.2-2.3 17.34-7.12 24.92-.24.39-.12 1-.17 1.5l-.46 1.18c1.55 5.04 3.07 10.1 4.67 15.12 1.63 5.1 3.34 10.19 5.02 15.28l.12-.09zm177.41 213.4-.87.31-.6.5-.93.9.32.38.95-.75.6-.63 1.05-.37a.6.6 0 0 0 .33-.33l3.05-2.3-.53-.64-2.77 2.3zm18.58-46.3.43.81c2.12 2.89 3.05 6.87 7.48 8.09l2.18-6.64-6.37 1.84-3-3.59-.36-.84-1.1-1.04-.28.25q.5.57 1.02 1.13zM681.56 413.2l-1.09-.44.51.83c.74.54 1.4 1.25 2.22 1.6a54 54 0 0 0 23.79 4.2c2.5-.13 4.95-1.05 7.42-1.61l-.17-.75c-2.65.4-5.29.99-7.96 1.14-8.65.5-16.77-1.85-24.72-4.97m51.6-62.86 1.77.67c-12.97-13.28-50.13-9.94-57.85-.97 13.6-4.72 27.1-7.65 41.6-4.86-.74.85-1.32 1.41-1.77 2.06-2.82 4.02-6 7.84-8.3 12.14-2.73 5.11-1.03 9.3 3.53 10.47 3.18.8 5.5-1.02 7.67-2.9a135 135 0 0 0 6.99-6.44c2.73-2.72 5.47-5.5 5.96-9.63l.39-.53zm-126.2 173.38c.7-.1 1.43-.38 2.12-.3 4.96.62 7.94-2.03 10.45-5.88 3.2-4.89 6.7-9.57 10.04-14.37 1.43-2.08 2.77-4.23 4.5-6.87l-23.6 7.14c-.12.86-.2 1.88-.41 2.88q-1.76 8.48-3.54 16.94l-.33.58.75-.11zm263.73 94.44q-.73 7.68-1.44 15.38c-.07.77-.27 2.12-.02 2.22 2.73 1.06 2 3.46 2.17 5.44.15 1.68.04 3.37.04 5.47l6.54-6.12-5.82-17.78c-.27-.86-.42-1.77-.7-2.63-.22-.65-.58-1.26-.87-1.89-.03-1.18.06-2.39-.12-3.55-.76-4.76-1.61-9.52-2.4-14.11-2.73 1.57-5.5 3.83-8.65 4.81-4.93 1.52-10.11 2.17-15.82 3.32.77 1.71 1.15 2.9 1.79 3.93 4.42 6.95 9.05 13.78 13.28 20.84 1.54 2.57 2.2 5.66 3.62 9.44l3.43-26.75 1.05-.68q1.95 1.34 3.93 2.66zm-80.07-439.4.88 1.41.46-.21-.79-1.93c-.23-1.6-.75-3.22-.64-4.8.49-6.75-1.51-12.93-3.82-19.13-4.05-10.87-10-20.22-19.33-27.42-5.5-4.25-10.12-9.74-12.31-16.27-1.9-5.69-4.53-8.6-10.65-8.85-6.4-.25-12.78-1.73-19.18-1.77-4.05-.03-8.62.09-11.64 3.92-1.51 1.92-3.2 3.72-4.57 5.74-3.1 4.53-6.32 8.74-11.52 11.3-4.68 2.28-8.99 5.3-13.43 8.06-7.9 4.9-14.33 12.83-16.37 18.75 4.86-1.65 9.8-3.59 14.87-4.98 13.1-3.59 26.4-5.83 40.01-3.93a91 91 0 0 1 30.75 10.21c14.28 7.66 26.55 17.83 37.28 29.91zm-47.55 73.26c-5.12 3.14-9.75 7.32-16.73 8.13.68-1.06.89-1.68 1.32-2.02q10.06-8 20.17-15.94c1.41-1.12 3.65-1.97 4.11-3.4 1.6-4.93 3.19-10.01 3.67-15.14.73-7.86.47-15.82.81-23.73.08-1.88.88-3.74 1.37-5.71.04.04-.02-.06-.1-.1-9.26-3.22-18.74-5.87-27.16-11.21-1.49-.94-4.21-.93-5.95-.26-3.3 1.25-6.22 3.5-9.49 4.9-1.91.8-4.19.75-6.46 1.1l9.1 5.04-3.44 15.22c-.33 1.43-.9 2.26-2.66 2.13-2.67-.2-5.35-.05-8.2-.05-.43 2.47-1.72 4.44-4.37 3.56-1.21-.4-1.92-2.35-3.14-4-2.96-.6-6.68-1.38-10.49-2.17-.1.63-.22 1.02-.24 1.42-.2 5.5-.44 11.02-.56 16.53-.03 1.5-.18 3.34.57 4.45a94 94 0 0 0 7.7 9.77c4.7 5.23 9.6 10.26 14.37 15.32l-1.9 2.28-3.68-2.4c-.55 4.88-1.14 9.6-1.59 14.34-.22 2.28-.9 4.88-.11 6.82 3.48 8.55 7.49 16.9 8.75 25.07l10.03 1.81c.03-.07.28-.52.48-.98 5.21-11.37 10.32-22.79 15.67-34.1 2.61-5.51 5.66-10.83 8.51-16.23l.4-.51zm56.54 220.15c1.4-2.68 2.94-5.58 4.44-8.5 1.9-3.7 3.7-7.48 5.75-11.12.42-.73 1.75-.94 2.67-1.4.2.9.73 1.9.55 2.72a57 57 0 0 1-1.97 6.63c-3.15 9.06-7.8 17.62-9.13 27.3-.34 2.44-.93 5.04-.45 7.36 3.38 16.24 7 32.42 10.57 48.6 2.88 13.05 5.75 26.1 8.8 39.12.29 1.25 1.69 2.5 2.89 3.23 3.37 2.04 6.9 3.8 10.92 5.97l-5.2-.67-.52.86c1.4 1.6 2.68 3.32 4.23 4.76 5.16 4.79 11.4 4.7 17.76 3.61 4.24-.73 8.11-2.28 11.27-5.43 2.88-2.86 6-5.47 9.25-8.39-1.52-3.44-3.21-7.3-4.94-11.14-.35-.77-.87-1.45-1.31-2.17l-2.15 1.76c-3.3-1.45-4.62-4.57-5.85-7.72-5.1-13.16-6.42-27.18-9.14-40.88-.04-.21.43-.54 1.02-1.21l12.02 37.32c.42-1.23.6-2.4.39-3.48-1.6-8.38-.51-16.76.84-24.93 1.6-9.57 4.53-18.92 6.86-28.38.2-.87.46-1.88.2-2.68-1.6-5.1-2.84-10.42-5.15-15.22a1844 1844 0 0 0-22-43.78c-5.12-9.9-10.92-19.52-13.92-30.34-2.26-8.14-3.53-16.56-5.69-24.74-4.07-15.4-6.9-30.93-6.95-46.9v-5.13c-3.5 1.87-6.77 4.42-10.46 5.35-3.67.92-7.75.2-11.46.2-.33-1.7-.8-3.18-.8-4.64 0-.66 1.12-1.96 1.43-1.88 5.62 1.49 9.63-1.46 13.24-4.94 3.86-3.72 5.24-8.4 5.85-13.86.86-7.59-.15-14.44-4.51-20.58-4.98-7-10.34-13.74-15.48-20.63-.84-1.12-1.36-2.48-2.02-3.72l.97-.77 16.15 15.85c.65-2.05 1.13-4 1.86-5.86 3.87-9.73 2.48-18.33-4.3-26.58a196 196 0 0 1-15.81-22.4c-4.59-7.51-8.65-15.47-8.62-24.73a2 2 0 0 0-.8-1.43c-6.38-4.14-11.8-10.08-19.75-10.96.45 2.14 1.14 4.24 1.27 6.36.12 2.1-.26 4.25-.53 6.36-.9 6.95-1.77 13.9-2.85 20.82-.37 2.33-2.3 4.79-1.84 6.8.73 3.23-.02 5.87-1.28 8.5-4.1 8.67-8.55 17.17-12.47 25.9a824 824 0 0 0-13.24 31.44c-1.8 4.5-4.53 9.18-2.38 14.2 2.32 5.4 5.21 10.59 8.02 15.78.44.81 1.72 1.2 2.66 1.71 1.65.89 3.28 1.68 3.01 4.05-.06.6.23 1.5.67 1.88 3.9 3.38 7.8 6.75 11.87 9.91.7.55 2.21.28 3.28.07 7.47-1.51 13.93-5.28 19.72-9.97 2.55-2.07 6.86-3.56 5.8-8.67 1.6 1.62 2.65 3.42 3.98 4.97 4.54 5.3 4.68 6.96 5.62 12.45.5 2.94-1.03 3.32-2.43 4.3-1.3.93-2.82 1.57-4.29 2.27l-16.6 7.98c11.1 3.48 22.05 6.88 32.96 10.42.82.26 1.75 1.62 1.79 2.5.1 2.58-.24 5.17-.4 7.7 3.4-3.3 4.62-9.73 11.75-8.05a73 73 0 0 1-8.94 11.12c-.96.98-2.88 1.04-4.84 1.67l-2.67 12.83-.62-.03-1.06-2.3c-.48 2.73-1.3 4.8-1.1 6.76.51 4.9 1.56 9.75 2.26 14.64.69 4.87 1.19 9.76-2.32 13.9.6.5 1.56.88 1.59 1.33.73 12.35 1.38 24.7 2.03 36.95zm-62.9-88.3-.6-.04c-1.09 1.68-2.43 3.24-3.23 5.05-2.18 4.92-5.58 9.84-5.91 14.93-.85 12.93-.28 25.94-.3 38.92l-.02 46.92c0 8.66-.2 17.33.04 25.99.48 17.03 1.15 34.06 1.88 51.08.2 4.8.76 9.58 1.36 14.34.88 6.97 1.9 13.92 2.94 20.87.64 4.28 1.42 8.55 2.02 12.14 1.64.57 2.7.8 3.62 1.29.88.47 1.54 1.58 2.43 1.76 6.06 1.22 12.1 2.78 18.23 3.27 10.2.8 20.38-.15 30.42-2.34 12.86-2.82 25.34-6.74 37.03-12.49-1.47-4.03-3-7.94-4.3-11.92-.47-1.48-.42-3.13-.72-5.56-2.34-.92-5.48-2.82-9.37-.9-2.26 1.12-4.73 1.81-7.1 2.7 2.28-2.28 4.9-3.78 7.3-5.58.7-.51 1.25-2.1.97-2.88a378 378 0 0 1-15.2-60.3c-9.57-1.52-19.64-.15-28.35-6.25 1.36 6.11 2.53 12.27 4.75 18.01 4.18 10.84 9.05 21.42 13.46 32.17 1.23 2.97 2.88 5.02 6.12 5.8 4.25 1.02 8.45 2.28 13.3 3.6-.97.69-1.86 1.74-2.95 2.02a25.2 25.2 0 0 1-18.12-1.92 7 7 0 0 1-2.78-2.89c-2.29-4.5-4.22-9.16-6.55-13.64-10.8-20.81-16.57-42.94-17.7-66.34-.1-2.38.22-4.12 3.07-4.73 1.26 1.95 2.24 3.87 5.55 3.8 6.92-.12 13.88.56 20.8 1.17 1.69.15 3.3 1.34 4.93 2.05l-.3 1.21c-8.94 2.48-17.99.06-27.06-.27 1.48 3.6 2.72 7 4.27 10.26 2 4.21 4.91 7.55 9.8 8.56 5.56 1.14 11.1 2.33 16.72 3.51-.61-3.83-.98-7.77-1.9-11.58-1.35-5.6-.8-11.32-1.98-17.05-1.98-9.67-1.81-19.82-2.23-29.77-.29-6.96-.05-13.94-.05-20.87-2.7 1.18-5.63 2.54-8.62 3.75-2.53 1.02-3.79 2.53-2.29 5.66-1.44-.17-2.57-.12-3.58-.45a116 116 0 0 1-35.84-18.92c-2.7-2.12-5.56-5.18-6.35-8.3-1.95-7.67-.98-15.6.26-23.4.65-4.15 1.4-8.28 2.12-12.43zm-82.85-33.64c7.16 22.44 9.1 46.04 13.52 69.22-4.25-6.35-4.82-13.98-7.5-21.25a64 64 0 0 1-39.51.8c-.04.88-.1 1.6-.1 2.3 0 6.1-.12 12.21.13 18.3a6.2 6.2 0 0 0 2.25 4.2c9 6.52 19.48 5.27 29.69 5.22 1.69 0 3.56-1.36 4.45 1.4a4.3 4.3 0 0 1-4.64 5.75c-2.41-.27-4.84-.6-7.26-.6-7.01 0-14.05.37-20.69-3.27l-2.96 62.42c3.44-.75 6.96-1.45 10.45-2.3 1.23-.3 2.38-.98 3.55-1.52.93-.44 1.83-.94 2.75-1.4.28 1.04.85 2.12.78 3.14a1037 1037 0 0 1-1.82 21.36c-.79 8.33-1.68 16.65-2.48 24.98a3621 3621 0 0 0-3.05 32.9c-.32 3.63-3.75 9.5-6.47 10.1-9.5 2.07-19.04 2.8-28.7.34-1.92 9.16-3.8 18.23-5.78 27.65 7.1 3.93 14.1 8.04 21.3 11.76 7.57 3.91 15.77 5.23 24.24 4.84.5-.03 1.4-.45 1.4-.71q.09-2.69-.2-5.35c-.14-1.27-.92-2.54-.81-3.76.64-7.28.96-14.64 2.3-21.8 2.11-11.2 4.92-22.25 7.47-33.36q5.27-22.79 10.57-45.56c2.92-12.58 6.28-25.08 8.62-37.78a608 608 0 0 0 6.12-42.16c1.04-9.23 1.07-18.6 1.32-27.9.2-7.44-.09-14.9.1-22.34.26-9.7.9-19.37 1.1-29.06.1-4.2-.54-8.4-.85-12.61l-19.3 6.06zM409.31 874.9c.1-1.06.25-1.74.24-2.42-.08-14.88-.8-29.8-.05-44.64.52-10.43 3.04-20.76 4.62-31.14.54-3.59 1.83-7.38 1.18-10.78-1.47-7.74-3.94-15.28-5.98-22.92-.61-2.28-1.7-4.6-1.62-6.87.34-9.37 1.49-18.74 1.5-28.1.03-12.6-.68-25.2-1.13-37.8-.37-10.23-1.06-20.46-1.17-30.69-.1-10.14.53-20.3.51-30.45-.03-13.88-.37-27.76-.57-41.63-.02-1.12 0-2.23 0-3.68l-6.64 1.56c-.9 11.86-1.53 23.28-2.71 34.64-.88 8.42-2.6 16.75-3.73 25.14a473 473 0 0 0-2.35 21.23c-.58 6.5-.86 13.04-1.31 19.56-.8 11.73-1.76 23.44-2.39 35.18-.48 8.89-.39 17.81-.84 26.7-.3 6-.84 12.03-1.78 17.97-.5 3.2.03 5.27 2.69 7.25 1.4 1.04 2.37 3.12 2.78 4.9.94 4.02 1.86 8.14 1.97 12.23.25 9.78.8 19.49 2.5 29.15 1.17 6.68 1.74 13.46 2.6 20.2a2725 2725 0 0 0 2.42 18.5c.09.65.13 1.55.53 1.85 5.01 3.62 5.85 9.6 8.73 15.04zm248.44-687.76c3.11-5.7 8.4-7.74 13.69-9.53 11.72-3.98 23.7-5.31 36.17-4.57a122 122 0 0 1 30.88 5.97c16.52 5.41 31.51 13.93 45.75 23.8 2 1.37 4.18 3.14 2.29 6.3-.3.5.46 1.64.74 2.48l.97.05c.52-2.16 1.32-4.3 1.47-6.49.25-3.62-1.03-7.76.32-10.8 2.43-5.45 1.06-9.18-2.83-12.8-.3-.27-.56-.6-.84-.9-11.1-12.01-23.85-21.78-38.92-28.31-10.12-4.39-20.61-7.17-31.74-6.91-3.26.07-6.56.16-9.78.64-6.87 1.04-13.76 2.07-20.53 3.6a93 93 0 0 0-32.97 14.5c2.96 9.11 3.05 18.27 1.07 28.03l7.59-3.29zm28.94 752.18c-1.4 2.04-2.64 3.74-3.76 5.52-.48.77-1.03 1.71-1 2.56.2 9.25.51 18.5.83 27.73.05 1.64.44 3.28.39 4.9-.29 8.4.18 16.93-1.29 25.11-1.15 6.44-4.69 12.45-7.25 18.62-1.56 3.78-3.27 7.5-5.12 11.71 16.03 4.24 31.75 5.27 47.94 2.37-1.82-3.49-3.43-6.27-4.76-9.17-3.6-7.84-7.43-15.59-5.87-24.74.96-5.62 1.02-11.38 1.97-16.99 2.1-12.25 4.3-24.49 6.94-36.64.58-2.64-.17-3.74-1.86-5-8.31-6.22-17.78-6.99-27.17-5.97zM463.57 1039.5c1.49 1.99.66 3.04-1.29 3.99-7.12 3.5-14.67 5.62-22.44 6.92-8.14 1.37-16.26.98-24.08-1.86-2.71-.98-5.54-2.18-6.13-5.96-1.25 2.9-2.46 5.55-3.5 8.26-.26.7-.2 1.71.11 2.39a49 49 0 0 0 3.4 6.43c.77 1.2 1.92 2.65 3.16 2.97 4.37 1.13 8.81 2.32 13.28 2.55 7.6.41 15.26.39 22.88.02 5.56-.26 11.08-1.37 16.4-2.07-.49-5.64-.91-10.44 1.04-15.15.49-1.16.62-2.66.37-3.89-.59-2.96-1.56-5.83-2.27-8.76-2.34-9.76-4.74-19.5-6.9-29.29-1.11-5.08-1.75-10.27-2.65-15.73-1.69 1.22-3.4 2.07-4.58 3.4-1.7 1.93-3.67 2.36-6.05 2.32a65 65 0 0 1-20.46-3.82c-.24-.08-.46-.21-.65-.3l-1.57 3.06-3.67-6.84c-.5 2.07-1.59 3.85-1.1 4.92 4.56 10.01 5 20.6 4.73 31.3-.04 1.77-.5 3.66-1.27 5.24-.49 1-1.86 1.7-2.99 2.16-.26.11-1.14-1.31-1.82-2.12l-4.6 10.12c17.67 4.89 35.05 5.67 52.65-.26M740.6 388.34c-.54 10.04-1.13 19.5-1.47 28.98a5.2 5.2 0 0 0 1.87 3.78 238 238 0 0 0 14.17 9.6 506 506 0 0 0 18.52 10.96c.76.43 2.28.24 3.06-.26a169 169 0 0 0 12.5-8.57 6.4 6.4 0 0 0 2.26-4.48c-.1-5.49-.7-10.97-1.11-16.44l-.18-2.3c-10.38-.3-29.27-5.85-49.62-21.27M625.92 579.01c0-7.08-.3-13.24.08-19.36.46-7.3 1.5-14.57 2.32-21.84.73-6.56 1.53-13.1 2.27-19.67.56-4.95 1.06-9.91 1.59-14.87a197 197 0 0 0-11.97 17.23c-3 4.68-6.89 7.7-12.76 7.2-1.85-.15-2.4.64-2.7 2.4-1.33 7.57-2.9 15.09-4.3 22.64-.18 1 .16 2.1.32 3.79-3.4 4.72-4.42 10.76-3.13 17.9zm76.82 98.79-8.31-1c-1.64-.19-2.5.35-2.44 2.2q.14 4.85.03 9.68c-.17 9.14-.3 18.28-.63 27.4-.28 7.78-.77 15.54-1.23 23.31-.58 9.81-1.24 19.62-1.83 29.42-.25 4.18-.68 8.36-.56 12.53.23 8.66.58 17.33 1.25 25.96.53 6.98 1.72 13.92 2.34 20.9.3 3.36.05 6.79-.14 10.17-.37 6.6-.89 13.2-1.34 19.8l.83.05c.45-5.84.81-11.7 1.39-17.53.93-9.4 2-18.77 3.03-28.15.4-3.65.7-7.33 1.28-10.96.65-4.14 3.83-5.45 7.4-3.25.67.4 1.4.7 2.18 1.09l1.13-2.92c-4.3-1.43-7.4-3.96-8.35-8.48-.86-4.1-1.33-8.19 1.4-11.78-3.78-3.15-3.86-6.96.04-9.05 4.66-2.5 8.05-7.44 14.13-7.34-4.19-1.98-8.1-2.03-11.45 1.32-1.75 1.75-3.59 1.95-6.28 1.08.55-9.27.95-18.55 1.68-27.8.86-11.07 2.06-22.1 3.01-33.17.37-4.19.44-8.4.7-12.6.21-3.6.5-7.2.76-10.88zm36.79-297.72c2.16 1.43 4.44 2.89 6.66 4.41 12.8 8.79 26.83 14.87 41.84 18.7 1.4.36 4.03.16 4.48-.65 2.08-3.77 4.06-7.72 5.17-11.84 1.23-4.58 1.48-9.44 2.18-14.26-1.52-.28-3.22-.56-4.9-.9-10.36-2.14-20.72-4.32-31.09-6.41-2.28-.46-4.94-1.52-6.86-.79-6.76 2.56-13.7 5.11-17.49 11.74zm-126.57 6.2c13.54 13.08 29.72 11.91 46.35 9.23l-8.74-36.8c-10.14 2.75-20.14 5.4-30.1 8.24a4.6 4.6 0 0 0-2.7 2.58c-1.8 5.7-3.33 11.47-4.82 16.75m73.74 550.16c8.63-1.6 17.21-2.13 25.64 1.9l6.26-24.9c-8.86-3.93-18.3-4.85-27.21-6.56zm7.5-55.2c-.59 4.22-1.1 7.7-1.54 11.2-.43 3.54-.78 7.08-1.17 10.66 13.43-.55 22.92 3.57 27.55 8.54 1.98-6.46 3.89-12.97 6-19.4.52-1.56.37-2.16-1.2-2.67-4.72-1.53-9.35-3.4-14.13-4.75-5.08-1.43-10.28-2.4-15.51-3.59zm-26.65 168.5c17.6 10.46 35.82 7.23 53.96 1.7l-2-11.91c-2.71 1.56-5.33 3.48-8.25 4.68-6.1 2.49-12.49 2.42-19.04 2.06-8.3-.45-16.45-1.04-24.17-4.22zm115.74-707.36c-1.19 1.12-2.87 3.02-4.85 4.51-7.94 6.02-16.24 10.44-26.4 5.1-2.15-1.12-4.31-2.19-6.44-3.33-1.83-.99-3.61-2.04-5.42-3.06l-10.08 35.61c3.21-3.31 5.68-7 8.37-10.5 1.28-1.67 2.72-3.5 4.51-4.45 14.89-7.83 30.36-14.28 46.28-18.78zm-96.62 543.28 2.78-19.1-31.22 1.54c.3 2.17.93 4.65.93 7.13.01 2.64 1.17 3.9 3.56 4.5 7.8 1.9 15.58 3.85 23.95 5.93m-267.09 90.85c1 3.23 1.83 6.02 2.74 8.77.23.7.63 1.76 1.12 1.87 5.29 1.2 10.56 2.6 15.92 3.2 6 .66 10.89-2.62 15.75-5.71 2-1.27 2.27-2.5 1.28-4.6-12.64 2.9-24.88 1.64-36.81-3.53m290.35-784c-2.8-.43-5.33-1.64-6.5-.85-5.74 3.84-11.11 8.22-17.23 12.89 3.46.74 5.81 1.3 8.2 1.72.56.1 1.37-.03 1.75-.39 4.45-4.24 8.84-8.55 13.78-13.36zm2.33 250.6c-12.01.47-23.8-.75-35.7-2.86 1.54 1.42 3.19 2.75 5.05 3.24 2.4.63 4.98.74 7.49.81 5.5.16 11 .3 16.5.16 2.23-.05 4.44-.88 6.66-1.35m12.5 333.9c3.23.07 3.65-.38 3-3.53-.75-3.64-4.07-4.04-6.78-5.06-.75-.28-2.12.15-2.73.75-.5.48-.6 1.78-.36 2.56 1.03 3.4 3.5 5.22 6.85 5.28zM696.92 189.9l-.68-1.04c-6.9 2.64-11.04 8.72-16.1 13.95.88.27 1.87.4 2.37-.03 4.86-4.24 9.62-8.57 14.41-12.87zm53.87 568.9c4.7.45 7.04-2.37 7.85-8.83l-4.36.74zm-32.35 32.76c-3.45-1.4-6.99-2.87-10.56-4.25a2.6 2.6 0 0 0-1.93.01c-.29.15-.4 1.22-.18 1.65.5.96 1.1 2.08 1.96 2.6 3.83 2.26 7.56.79 10.7 0zm3.3 7.67 3.34 2.6c2.13-1.17 4.4-2.31 6.57-3.62 2.8-1.7 2.97-2.36 1.88-5.62-3.28 3.28-6.3 7.02-11.78 6.64zm31.95-51.58h4.5l.68-.85c-1.55-1.93-3-3.98-4.75-5.7-.36-.35-1.91.54-2.8.81zm-20.62 69.74-1.02-.3c-2.64 6.98-2.87 14.41-4.37 21.6l1.15.22zm-49.81-429.95c2.69-4.4 3.34-12.04 1.43-14.84-4.11 4.53-.72 9.63-1.43 14.84m39.55 415.23c-5.04 3.23-9.75 1.27-14.44-.95 4.6 5.64 11.78 6.72 14.44.95M340.08 752.7l-.25-.84-11.72 3.17.4 1.3zM749 740.25l3.51-2.23-2.84-4.5-1.02.3zm-43.47 25.61-.78-.43q-4.18 5.5-3.29 7.63zm16.21 45.64-.55-.6-3.36 2.44.45.64 3.47-2.48z"/><path fill="#000" d="M482.3 90.86c7.03.55 14.06 1.14 20.66 3.87 1.58.65 2.72 1.65.6 3.23-.47.35-.94 1.35-.77 1.8 1.72 4.58-1.34 7.83-3.12 11.38-2.57 5.1-11.1 12.2-16.68 13.34-2 .4-4.36-.96-6.41-1.48l-4.3 3.61c2.68 6.97-.73 13.55-2.54 19.88 6.73 2.42 13.19 4.45 19.38 7.07 3.53 1.49 6.93 3.8 6.17 8.61a7 7 0 0 1-1.44 3.46c-2.05 2.28-3.13 4.1-1.84 7.65 2.32 6.34 3.83 13.03 5.04 19.69.87 4.77.37 9.64-3.44 13.28 7.67 4.45 13.61 10.69 18.99 17.52 3.84 4.88 4.38 10.7 5.1 16.64a288 288 0 0 0 4.53 25.52c.97 4.53 2.92 8.83 4.2 13.3 1.5 5.18 2.5 10.51 4.18 15.63 4.51 13.77 9.31 27.44 13.9 41.18 2.06 6.14 3.76 12.4 5.91 18.48 1.59 4.49 3.77 8.76 5.47 13.2 2.4 6.28.2 12.22-1.53 18.22-2.15 7.48-4.1 15.04-6.07 22.35l5.27 1.6c.74 2.16 1.4 4.26 2.19 6.31 2.92 7.56 5.96 15.07 8.85 22.64a6452 6452 0 0 1 16.6 43.83c3.62 9.66 2.85 19.4-.05 29.06-1.46 4.85-3.2 9.62-4.92 14.4-.29.82-1.06 1.47-1.6 2.2-.46-1-1.37-2.06-1.29-3.01.27-2.9.99-5.77 1.44-8.66.97-6.29 1.73-12.61 2.87-18.86.59-3.23.56-6.17-.6-9.33-1.3-3.54-1.74-7.37-2.86-10.98-.46-1.5-2.03-2.66-2.54-4.16-.84-2.44-1-5.12-1.84-7.56-3.14-9-6.48-17.9-9.67-26.88-1.8-5.06-3.12-10.3-5.24-15.2-1.67-3.9-4.23-7.41-6.66-11.54-3.1 6.84-.95 14.65-5.23 20.5l-1.24-.19c-.1-1.42-.3-2.83-.28-4.24a207 207 0 0 1 4.61-39.59c.75-3.57 2.26-7.02 2.64-10.6.3-2.77.09-6.04-1.16-8.43-6.37-12.33-9-25.95-13.9-38.77-1.57-4.1-2.9-8.27-4.43-12.37-.34-.91-1.25-1.6-1.62-2.5-.47-1.17-.66-2.45-.97-3.67-.36-1.4-.57-2.87-1.1-4.22a299 299 0 0 1-12.92-43.66c-.42-1.89-1.45-3.67-1.77-5.57-.32-1.84-.05-3.78-.12-5.68-.12-3.55-.38-7.1-.43-10.64a25.6 25.6 0 0 0-7.45-18.13c-3.5-3.65-6.8-7.5-10.1-11.34-1.08-1.26-1.86-2.8-3.1-4.7-.45 1.02-1.1 1.82-1.14 2.65-.5 9.85-1 19.7-1.31 29.57-.48 14.84-1.02 29.69-1.11 44.54-.04 6.65 1 13.31 1.47 19.97a9 9 0 0 1-.5 3.12c-.97 3.47-2.02 6.92-3.04 10.38-2.4-.35-1.7 1.28-1.63 2.53-.15 2.92.31 6.04-.56 8.72-3.29 10.16 1.76 19.43 2.68 29.1.7 7.3 2.27 14.52 3.32 21.78 1.1 7.5 2.78 15 2.82 22.5.04 6.95 5.1 10.84 7.55 16.25 2.1 4.64 5.18 8.82 7.56 13.34.78 1.47 1.31 3.5.98 5.06-.51 2.48-2.18 2.7-3.85.64l-5.13-6.32v22.45c0 2.12-.05 4.26 0 6.39.06 2.18-1.63 2.7-3.12 2.83-.53.05-1.6-1.48-1.79-2.42-1.9-9.94-3.62-19.93-5.56-29.87-.59-3.04 1.33-4.82 2.66-6.99.37-.6.68-1.85.37-2.18-4.04-4.31-4.27-9.78-5-15.18-.85-6.49-2-12.94-3.04-19.4-1.24-7.85-2.38-15.71-3.76-23.53-.68-3.88-.67-7.95-3.09-11.44-.56-.8.3-2.46.09-3.65-1.05-5.83-2.3-11.61-3.35-17.43-.48-2.67-1.43-5.54-.9-8.05 1.78-8.46-1.92-16.33-2.04-24.54 0-.6-.74-1.15-1.02-1.78-.31-.72-.86-1.6-.67-2.22 2.2-7.1-.46-14-.7-21-.1-2.73-.38-5.47-.66-8.19-.99-9.58-2.05-19.16-3-28.74-.37-3.66-.52-7.34-.8-11.57-12.34 7.61-25.11 13.48-40.15 13.85-.19 1.85-.49 3.7-.55 5.57-.45 12.29-.83 24.57-1.27 36.86-.17 5-.31 10-.63 15-.3 4.45-.8 8.88-1.25 13.32-.04.38-.26.76-.5 1.08-1.71 2.42-3.45 4.82-5.33 7.42 1.18.6 2.13 1.06 3.33 1.66l.73-5.15c2.1 1.67 3.37 5.56 2.06 7.89-.68 1.2-2.32 2.44-3.64 2.6-3.3.37-6.76-4.04-6.5-7.9.21-3.53.74-7.05.74-10.57 0-3.64-.67-7.29-.69-10.92a4486 4486 0 0 1 .02-45.53c.03-5.45.34-10.9.52-16.35.02-.3.07-.71-.09-.9-2.77-3.04.24-5.98.22-8.97-.02-1.85 3.6-2.93 7.2-.73-.12-2.34 2.09-4.6-.36-6.92 4.95-7.07 12-12.03 18.3-17.77 2.7-2.47 7.05-3.37 7.77-7.84.05-.3.56-.68.91-.74 6.14-1.05 9.52-6.21 14.1-9.55 2.27-1.66 3.76-4.34 5.9-6.24 1.66-1.48 3.71-2.56 5.7-3.63.48-.26 1.9.1 1.96.4.41 1.65 4.21 1.68 2.2 4.38-2.27 3.04-4.22 6.48-7.01 8.93a741 741 0 0 1-27.55 23.02c-4.07 3.24-8.75 5.71-13.09 8.64-.8.55-1.8 1.59-1.82 2.43-.17 5.3-.09 10.6-.09 15.89 4.93-.28 54.12-29.38 55.46-33.2 4.47.68 7.1-2.75 10.22-4.96.7-.5.66-2.48.48-3.7-.96-6.12-2.08-12.22-3.2-18.64-3.9 1.78-5.68 8.12-11.37 3.68 2.18-3.56 4.33-7.13 6.54-10.66 1.47-2.36 2.82-4.85 4.61-6.96 1.71-2.01.86-2.57-1.02-3.33a443 443 0 0 1-12.88-5.56c-1.72-.77-3.37-1.7-5.05-2.58-8.85 13.6-22 14.5-36.05 12.93-.49 3-1.09 6.25-1.47 9.55-.07.62.58 1.46 1.1 2 .6.64 1.43 1.07 2.17 1.59 1.55 1.09 2.2 2.66.89 4.04-.76.8-2.4.8-3.68 1.08-.37.08-.8-.09-1.56-.2l-1.85 7.78 2.63.47c-.26.8-.32 1.76-.8 2.37-4.51 5.64-8.93 11.36-13.72 16.75-3.9 4.4-8.18 8.48-12.49 12.5-1.12 1.04-2.5 3.34-4.5 1.66-1.91-1.61-.24-3.31.81-4.59 3.68-4.45 7.36-8.91 11.29-13.14 3.95-4.27 8.24-8.24 12.25-12.45a5.2 5.2 0 0 0 1.17-3.15c.36-6.96.52-13.92.9-20.88.13-2.4.67-4.78.9-6.34-5.11-3.55-9.91-6.78-14.6-10.16-2.29-1.65-1.6-3.92-.54-5.92 1.3-2.45 3.54-1.75 5.35-.91 3.61 1.69 7 3.87 10.64 5.52 7.16 3.26 14.66 5.47 22.52 3.24 3.9-1.11 7.57-3.16 11.17-5.13 1.6-.88 3.17-2.35 2.7-4.74-.09-.4.17-1.15.5-1.32 4.42-2.28 4.38-7.23 6.54-10.85.65-1.09.89-2.42 1.38-3.85-1.46 0-2.9.18-4.25-.08-.65-.12-1.4-.98-1.6-1.66-.13-.39.62-1.29 1.18-1.6 1.97-1.09 4.02-2.03 6.26-3.13-1.5-1.03-2.9-1.82-4.1-2.85-1.28-1.1-2.97-2.13-1.94-4.36 1.1-2.39 2.56-3.87 5.34-2.4 1.56.84 3.85 1.36 4.5 2.68 1.36 2.73 3.82 4.06 5.78 5.98 11.3-4.78 14.05-11.51 14.92-20.49-6.46-1-12.89-2.03-19.34-2.95-.65-.09-2 .55-2 .84 0 1.2.4 2.4.72 3.85-1.96 2.25-3.78 5.5-8.22 4.31l-.3-2.13c-2.25-.55-3.14.22-3.61 2.4-2.64 12.06-12.28 16.92-22.98 14.98-3.94-.7-8.03-.3-11.26-3.21-1.23-1.1-2.59-2.25-3.37-3.67-1.62-2.93-3.82-5.58-2.7-9.6.78-2.85.15-6.09.15-9.8l-12.87-3.66c-.46 3.13-.99 6.18-1.33 9.25-.28 2.58-1.78 4.46-4 4.9s-4.63-.3-5.66-2.98c-1.28-3.32-2.39-6.75-4.09-9.85a8.2 8.2 0 0 0-4.3-3.4c-6.6-2.24-15.77 4.47-15.3 11.24.28 4.2 2.5 7.65 6.19 9.79 2.93 1.7 6.04 3.39 9.63 2.72 1.7-.32 3.29-1.14 4.83-1.7.26 2.33-1.77 5.5-4.95 6.64-2.45.88-3.18 2.66-3.42 4.97-.23 2.19-.6 4.36-.92 6.7 3.25 1.05 6.7 2.12 10.1 3.28 3.5 1.18 4.38 3 3.2 6.44q-3.36 9.72-6.75 19.42l-1-.31 6.07-21.73-12.32-3.66-.59 2.27c1.73.27 4.23-.08 5.05.94 1.62 2 2.74 4.66 3.27 7.21.77 3.75-.48 5.12-3.92 7.13-2.5 1.47-4.7 3.48-7.23 5.39l7.69 5.56-.21.66-11.8-3.19c-1.98 4.77-4.45 9.59-5.91 14.69-.92 3.18-2.21 4.99-5.38 5.64-.94.19-1.77.89-3.26 1.68l26.34 36.26-.4.5c-.65-.35-1.44-.56-1.93-1.07-9.1-9.42-18.24-18.82-25.67-29.67a131 131 0 0 1-6.14-10.2c-.47-.85-.34-2.03-.55-3.58l4.73 2.64 10.28-6.06 2.2-7.85c-3.75.18-6.25-1.26-7.1-4.45-.93-3.56.37-6.87 2.57-9.63 1.14-1.43 3.02-2.22 4.44-3.45.97-.83 1.72-1.91 2.66-3-12.92 0-25.24-.09-37.55.03-12.13.12-24.22.11-36.11-3.1-3.69 5.59-4.88 12-5.5 18.42-.17 1.85 1.96 3.96 3.1 5.9 1.67 2.86 3.42 5.67 5.3 8.77-.91.56-1.75 1.53-2.52 1.48-4.53-.27-7.82 2.35-11.12 4.7-1.1.8-2.18 2.93-1.86 4.03.38 1.3 2.54 3.23 3.5 3 3.97-.9 6.2 2.1 9.09 3.44 4.79 2.21 9.2 5.4 14.13 7.1 4.03 1.4 7.1 4.25 11.06 5.65 4 1.41 7.78 3.53 11.6 5.45 5.23 2.62 10.22 5.85 15.66 7.88 4.97 1.85 9.08 5.2 14.05 6.92 5.1 1.78 10.06 3.94 15.12 5.82 2.7 1 5.47 1.76 8.73 2.8-3.97 3.09-2.77 7.08-2.94 10.79-.6 13.26-1.07 26.54-1.92 39.79-.46 7.16-1.57 14.28-2.43 21.41q-.13 1.15-1.18 2.14V285.5c-.01-15.73-.07-31.45.01-47.17.02-2.4.68-4.79 1.08-7.4l-5.67-.94c.28 3.6.72 7.02.76 10.44.12 8.97-.04 17.94.1 26.9.17 11.21.31 22.43.9 33.62.27 5.22.3 10.27-1.58 15.2-1.17 3.05-.72 3.78 2.7 4.35.67.1 1.32.4 2.5.79V310.3c3.57.48 3.8 2.45 3.32 4.94-.42 2.18-1.62 4.84-.81 6.48 1.16 2.39-1.01 3.16-1.28 4.86-.43-.8-.84-1.61-1.33-2.57-2.2.26-4.41.46-6.6.8-3.94.63-5.53-2.32-6.6-5-.58-1.47-.03-4.57 1.11-5.36 4.68-3.27 2.57-7.67 2.52-11.65-.05-3.64-.6-7.3-1.1-10.93-.25-1.94-.95-3.82-1.17-5.77-.11-1.02.6-2.11.58-3.17a895 895 0 0 0-.5-17.79c-.08-2.26-.35-4.52-.6-7.4.01-.03.45-.82.48-1.63a1722 1722 0 0 0 .62-20.44c.06-2.36.02-4.72.02-6.56L336 215.57c-.28 3.61-.39 7.43-.9 11.19-1.3 9.5-2.75 18.97-4.23 28.44a1707 1707 0 0 1-4.44 26.81c-.93 5.35-2.4 10.64-2.97 16.02-.87 8.24-3.86 15.95-5.28 24.03-.6 3.41-2.8 5.37-5.26 7.34-3.86 3.07-7.63 6.24-11.43 9.4-.4.34-.67.85-1.02 1.26-.58.66-1.17 1.3-2.08 2.3l33.03 62.7c-1.33-.87-2.47-1.22-2.95-1.99-6.33-10.1-12.79-20.11-18.76-30.42-5.6-9.66-10.64-19.63-16-29.58-.54 2.28-1.2 4.7-1.67 7.15-.44 2.36-.48 4.8-1.07 7.1-.88 3.44-2.12 6.78-3.18 10.17-.18.57-.07 1.3-.38 1.75-3.8 5.48-1.04 10.72.87 15.76.77 2.03 3.5 3.23 4.76 5.18 2.4 3.75 4.29 7.84 6.59 11.67 2.64 4.39 5.43 8.69 8.28 12.95 4.36 6.52 8.67 13.08 13.34 19.37 1.28 1.73 3.8 2.5 5.66 3.84 2.47 1.78 4.96 3.56 7.2 5.6 1.01.92 2.26 2.77 1.93 3.65-.41 1.13-2.31 1.7-2.94 2.11-2.42 3.83-4.42 7.35-6.76 10.63-5.5 7.71-13.77 11.39-22.42 9.74-8.07-1.53-11.97 3.06-16.95 6.84-1.94 1.47-3.69 3.21-5.51 4.85-2.44 2.17-5.6 2.33-8.58.45-1.34-.84-2.8-1.52-4.07-2.46-1.29-.95-2.4-2.11-3.93-3.47-2.45 5.86-4.83 11.4-7.07 17-.24.6.04 1.69.47 2.24 7.48 9.59 15.03 19.12 22.53 28.69.55.7.87 1.57 1.1 2 6.07 1.34 11.88 3.06 17.8 3.83 7.27.94 14.3 3.04 21.63 3.64 8.69.7 17.3 2.15 26 2.91 5.13.46 10.33.09 15.5.34 2.85.15 5.68.8 8.52 1.22 1 .15 2.04.15 2.98.46.88.29 1.64.9 2.46 1.38l-.3.83c-.75.07-1.5.2-2.26.2-6.08.02-12.16.1-18.24 0-10.08-.15-20.16-.17-30.22-.7-11.37-.61-22.75-1.54-33.86-4.28-3.05-.76-5.99-1.97-9-2.98 2.12 6.7 4.1 12.87 6 19.06.31 1.04.55 2.3.24 3.27-.34 1.09-1.17 2.4-2.12 2.77-.56.23-2.14-.97-2.61-1.88-2.8-5.38-5.68-10.75-7.93-16.37-.94-2.35.02-5.18 1.8-7.38 1.52-1.85 1.46-3.38-.44-5.21a886 886 0 0 1-20.72-20.83 85 85 0 0 1-7.2-8.91c-2.38-3.28-1.3-6.72.27-9.9 2.17-4.38 4.59-8.63 6.96-12.9.63-1.13 1.5-2.13 2.28-3.23l-8.76-9.97c-.53.22-1.74.61-2.87 1.15-4.15 1.97-7.31.8-8.55-3.73-2.07-7.56-3.77-15.23-5.64-22.85-.95-3.9-2.1-7.75-2.85-11.68-.53-2.8-2.13-4-4.7-4.72-7.96-2.23-15.06-6.03-20.45-12.42-3.52-4.17-7.58-8.16-8.5-13.87-.34-2.06.1-4.28.36-6.4.86-6.64 1.85-13.26 2.72-19.9.7-5.41.87-10.93 2.1-16.21 1.06-4.57 3.38-8.83 4.99-13.29 3.69-10.25 6.86-20.71 11-30.77 5.08-12.33 10.86-24.38 16.5-36.47 2.74-5.89 5.88-11.59 8.77-17.4.37-.73.65-1.82.37-2.5-2.6-6.43-1.7-13.03-.89-19.56a588 588 0 0 1 3.6-23.94c1.75-10.5 3.66-20.97 5.54-31.45.46-2.55.83-5.15 1.63-7.6 1.5-4.6 5.35-6.68 9.59-8a895 895 0 0 1 22.6-6.68c1.12-.32 2.41-.04 4.44-.04-.6 2.67-1.38 5.15-1.58 7.67-.08.98 1.2 2.06 1.85 3.1l.83-.4.85-9.26c.61-6.34 1.09-12.7 1.92-19 .47-3.6 4.13-5.57 7.85-4.4 7.38 2.34 14.95 2.5 22.56 2.38 8.3-.13 16.6-.75 24.89-.44 8.32.31 16.62 1.45 24.91 2.36 1.68.19 3.28 1.04 5.3 1.72l4.07-17.23c-3.2-.52-5.83-1.02-8.48-1.34-3.13-.38-6.49-3.81-6.26-6.96.24-3.5.69-7.03 1.4-10.46.64-3.07-.6-7.32-3.14-9.08-1.66-1.15-1.76-2.54-.56-4.02 1.29-1.6.89-2.68-.5-4.13-4.91-5.08-7.16-11.5-8.29-18.29-1.2-7.25-1.3-14.56.8-21.7 1.95-6.64 6.14-11.81 11.89-15.47 4.4-2.79 9.05-5.38 13.94-7.1 2.78-.99 6.24-.04 9.55.04 1.45-7.07 9.34-10.88 16.84-11.61 16.49-1.64 31.36 3.78 46.07 10.29 13.54 6 25.96 13.81 37.68 22.74 4.33 3.3 7.94 7.55 11.82 11.42 2.16 2.16.54 3.9-.96 5.38-.97.96-2.45 1.4-3.41 2.37-.66.66-.86 1.8-1.19 2.75-.46 1.3-.52 2.92-1.35 3.91-3.4 4.07-6.22 8.85-12.13 10.03-.72.14-1.08 2.16-1.58 3.32l-3.75 8.76-2.04-2.34c-3.15.96-3.98.7-4.07-1.76-.16-4.46-.34-8.97.05-13.4.4-4.69-.95-6.26-5.73-6.6-5.93-.43-11.97-.8-17.68-2.25-8.8-2.25-17.36-5.37-26-8.2-2.77-.9-4.65-.03-5.66 2.44-1.48 3.64-3.36 7.12-4.92 10.73-1.4 3.2-2.64 6.5-3.87 9.78-.37.99-.5 2.07-.72 3.04l-7.76-1.49q-1.27-.16-2.56-.36l.01.73 2.58-.47c.12.3.17.84.37.9 4.8 1.48 9.58 3.07 14.44 4.32 3.36.85 6.65 3.12 10.36.92.49-.3 1.45.17 2.17.35 1.48.4 2.92 1.07 4.41 1.18 1.47.12 2.99-.53 4.47-.5 3.99.1 8.02.03 11.93.67 5.84.95 11.73 2.14 15.8 6.77l-2.88 2.79c2.95.5 4.49-.2 5.32-2.28 1.22-3.08 3.69-4.18 6.79-4.26l5.23-.11zm-183.17 221.9c3.2-37.97 5-75.27 3.97-112.84l-11.44-6.96L258.97 241l-.6-1.23c-1.34 3.6-2.23 6.9-3.74 9.88-5.56 11.03-11.66 21.8-16.91 32.97a787 787 0 0 0-16.44 38.01c-4.43 10.9-8.32 22.04-12.5 33.06-.63 1.66-2.07 3.14-2.29 4.82-.5 3.96-.4 8-.74 11.98-.59 7.03-1.1 14.08-2.1 21.06a7.5 7.5 0 0 0 1.78 6.4 58.4 58.4 0 0 0 23.22 17.18c2.54 1.05 4.8 2.8 7.19 4.22l-1.13.85c.17 1.23.22 2.5.56 3.67.58 2.02 1.49 3.96 2.03 6 2.23 8.27 4.35 16.57 6.58 25.09l2.44-.86c6.11-2.2 12.15-4.64 18.37-6.44 1.81-.53 4.36.34 6.18 1.3 1.69.9 1.76 2.71-.35 3.73-4.36 2.1-8.74 4.14-13.2 6.25 1.14.93 2.35 2 3.62 2.98 5.17 3.98 10.3 8.03 15.6 11.84.85.6 2.9.6 3.76-.02 8.93-6.46 17.74-13.1 26.57-19.7 4.7-3.5 9.37-7.05 13.51-10.17-1.02-1.36-1.91-2.4-2.64-3.55-.97-1.52-1.63-3.25-2.72-4.67-5.73-7.48-11.7-14.77-17.26-22.36a91 91 0 0 1-7.74-12.83c-1.62-3.23-2.45-6.87-3.72-10.6-6.07 1.53-11.39 2.95-16.76 4.17-.8.19-1.81-.48-2.73-.76l-.15-1.26 16.48-9.9-4.63-10.74-32.4-1.84c-.74-2.78.41-4.37 3.32-5.18 8.6-2.4 17.26-2.2 25.99-.86 2.8.43 5.38 1.04 6.76 3.8 1.34-5.63 2.71-11.2 4-16.8 3.11-13.65 6.18-27.33 9.32-40.99.22-.96.91-1.8 1.38-2.7q.36.05.71.12l1.53 5.83zM462.38 96.2A83 83 0 0 0 432.6 93c-.13 2.67-.31 5.33-.38 8-.13 5.3 1.3 7.43 6.39 9.14 2.86.95 5.78 1.82 8.74 2.38 4.81.93 10.46-1.6 12.07-7.24.87-3.04 1.95-6.03 2.94-9.06m-160.82 368.8c7.26 1.83 13.1.05 17.8-5.39 2.3-2.67 4.65-5.33 6.83-8.12 2.05-2.63 1.67-4.44-1.09-6.44-.92-.67-1.88-1.28-2.06-1.4-1.4 1.94-2.4 3.87-3.9 5.27-5.7 5.39-11.57 10.6-17.59 16.08zm73.29-308.66 16.76-11.15c1.33-3.98.32-5.66-6.09-7.61.54 2.05 3.72 3.77.88 5.9l-2.3-2.57-.96.18-1.11 5.14-1.09-2.02c-4.3.5-1.49 4.42-3.71 6.85l.46-5.88c-3.36 3.23-3.19 6.87-2.84 11.16m42.04 84.83h-.38c-.74 9.3-1.57 18.61-2.2 27.92-.38 5.41-.43 10.84-.67 16.26l-1.11 25.02 2.62.63zm-160.35-9.27c3.71-4.37 6.32-8.82 5.58-14.5-.04-.26.21-.56.25-.85.62-4.23 1.81-8.43.86-12.75-.16-.76-.84-1.4-1.29-2.1-.6.56-1.28 1.05-1.76 1.7a4 4 0 0 0-.55 1.72c-1.03 8.86-2.05 17.73-3.08 26.78zM390.61 31.37l-.53 3.04c1.96-.99 3.46-1.74 5.13-2.6-2.61-1.9-4.26-4.66-7.64-3.34-2.66 1.03-5.2 2.17-7.16 4.92zm-99.38 135.41c-8.71 3.54-13.41 11.71-12 20.45.09-9.12 5.47-15.1 12-20.45m-28.28 19.65c.08 1.57-.28 2.95.25 3.62 1.69 2.12 3.62 4.23 7.04 2.57-.36-3.78-3.42-4.67-7.29-6.19M407.73 13.88c-3.42.07-6.34 2.63-6.3 5.94l3.54-.38z"/><path fill="#000" d="M400.02 230.03c-2.94-1.57-6.05-2.9-8.8-4.75-9.4-6.34-18.67-12.88-28-19.3-1.52-1.05-3.28-1.78-4.75-2.9-1.34-1.02-2.37-2.43-3.64-3.57-9.74-8.74-19.75-17.2-29.16-26.27-5.67-5.46-10.86-11.61-12.48-19.76-.27-1.36.15-2.86.26-4.29l.9-.46c1.25 1.61 2.55 3.2 3.75 4.85 5.92 8.08 13.14 14.89 20.7 21.37 4.28 3.65 8.36 7.55 12.63 11.21 7.47 6.4 15 12.73 22.52 19.07a2919 2919 0 0 0 15.88 13.27c3.11 2.58 6.3 5.08 9.34 7.73.76.66 1.14 1.77 1.7 2.67q-.43.55-.85 1.12zm180.06 221.73-4.14-10.65c-1.56 2.9-2.85 5.29-4.13 7.7l-1.18-.45c.57-2.84 1.27-5.67 1.67-8.53.3-2.23.04-4.53.37-6.75.5-3.24.88-6.6 2.02-9.63 4.74-12.55 9.6-25.07 14.68-37.48 6.45-15.75 13.14-31.38 19.77-47.06.33-.78 1.02-1.4 1.9-2.6 1.2 4.59.1 8.16-1.2 11.6-5.35 14.2-10.81 28.38-16.23 42.56l-6.95 18.22c-2.18 5.67-4.65 11.24-6.47 17.02-.7 2.19-.17 4.86.15 7.26.6 4.37 1.66 8.68 2.09 13.06.18 1.84-.73 3.8-1.13 5.7zm97.76 487.23H665.4c.86 3.65 1.9 7.47 2.66 11.33a223 223 0 0 1 2.28 13.4c.76 5.6-1.45 10.71-2.99 15.92-1.03 3.53-1.85 7.14-3.17 10.55-1.72 4.46 1.44 6.88 3.63 9.7 1.06 1.37 2.53 2.41 3.65 3.75.48.58.52 1.53.75 2.31-.72.19-1.43.54-2.15.54-4.36.04-6.49-3.29-8.97-6.09-.31-.36-.53-.8-.8-1.2l-.87.16c.16 1.06-.08 2.55.54 3.12 3.3 3.09 5.7 7.28 10.56 8.55.69.17.98 1.86 1.45 2.84-1.36.64-2.85 1.99-4.06 1.78-4.18-.72-7.33-3.35-9.92-6.64-.31-.39-.56-.84-.9-1.2-4.92-5.21-4.5-7.15-.48-13.5 1.56-2.48 2.98-4.84 3.84-7.59 1.44-4.62 3.14-9.19 4.2-13.89.47-2.14-.15-4.59-.58-6.84-1.52-8-3.3-15.94-4.73-23.95-.67-3.68 1-6.47 4.68-8.07 3.56-1.56 7-1.72 10.62-1.66 4.19.07 5.7 1.64 5.61 5.6l.07-.06-2.58 1.26zm-12.01-3.11-.1.98c2.9 2.46 6.18 1 9.33.91l.09-.84zm-28.01-659.5c-1.11-3.15-2.91-6.22-3.22-9.44-1.34-14.26 4.36-26.49 11.97-37.99 3.1-4.68 6.51-9.18 9.95-13.63 1.18-1.54 2.89-2.68 4.36-4l1.14.83c-1.88 3.35-3.67 6.74-5.65 10.03-2.94 4.91-6.37 9.56-8.9 14.66-3.35 6.72-6.37 13.51-8.36 20.93-1.68 6.24-2.1 12.02-.87 18.14zm32.58 40.57c0-4.02.08-8.54-.04-13.06-.04-1.3-.75-2.6-.96-3.92-.17-1.15.03-2.35-.1-3.5a26 26 0 0 0-.76-3.6c-1.22-4.54-2.88-8.68-6.47-12.14-2.15-2.08-3.05-5.43-4.59-8.17-1.17-2.08-2.7-3.99-3.63-6.16a9 9 0 0 1-.4-4.64c.18-1.12 1.25-2.05 2.42-.57 3.74 4.74 7.86 9.24 11.08 14.3a38.4 38.4 0 0 1 6 19.28c.33 7.62.1 15.05-2.62 22.26-.06.16-.24.3.07-.08"/><path fill="#000" d="M585.96 433.4c5.03-1.38 7.28 1.64 9.33 4.76 6.82 10.34 9.37 22.3 12.48 34.01.17.62-.34 1.99-.7 2.06a5.2 5.2 0 0 1-3.1-.36c-.71-.35-1.3-1.34-1.51-2.16-.29-1.16.17-2.57-.28-3.62q-6.32-14.8-12.9-29.5c-.8-1.78-2.12-3.32-3.32-5.18zm-43.94 167.3.64.53c.33.44.6 1.2 1 1.28 5.82 1.1 11.64 2.16 17.49 3.09.71.1 1.8-.46 2.31-1.05 2.03-2.32 3.9-4.78 6-7.14-1.7 5.06-2.58 10.65-7.43 13.99-1.28.88-3.6.68-5.35.39-4.92-.85-9.8-1.92-14.67-3.08-1.5-.36-2.9-1.26-4.3-2-1.58-.82-1.84-2.05-.9-3.55l-.11.1c1.04-1.32 2.05-2.64 4.02-1.38.13.08.85-.76 1.3-1.18M396.38 442.78c-.93.26-1.85.75-2.77.75-11.85.06-23.7.23-35.53-.03-4.9-.1-9.78-1.08-14.65-1.82-.98-.15-1.85-1.02-2.78-1.56 1.08-.91 2.13-2.54 3.25-2.59 3.43-.15 6.9.2 10.34.55 4.93.5 9.82 1.31 14.75 1.77 9.02.82 18.05 1.47 27.07 2.2zm-34.13 520.51c2.38-2.78 4.53-1.82 6.52-1.66 6.33.49 12.65 1.53 18.29-2.97 3.63-2.9 7.66-5.3 11.54-7.9.73-.48 1.55-.83 2.98-1.6-.45 1.62-.43 2.9-1.06 3.57-3.71 3.97-7.14 8.4-11.5 11.48-3.78 2.65-8.9 2.65-13.54 2.02-4.26-.57-8.42-1.84-13.23-2.94M648.1 325.61c-1.24-2.54-2.72-5-3.67-7.63-2.66-7.36-5.64-14.67-4.96-22.8.29-3.49 1.7-6.26 4.58-6.9-2.08 12.89 3.51 24.56 5.76 36.74zM332.64 436.88c-7.26-8.6-15.56-16.12-18.32-27.21 2.68-1.82 3.92-.9 5.2 1.28 4.98 8.38 10.14 16.65 15.29 25.04zm61.85 463.43c-3.31 3.62-7.53 2.3-11.32 2.16-4.6-.17-9.19-1.04-13.76-1.78-.99-.16-2.46-.87-2.66-1.62-.5-1.86 1.05-2.08 2.5-2.08 2.89.02 5.8-.21 8.66.08 4.6.49 9.18 1.27 13.75 2.03.96.16 1.84.77 2.83 1.21m282.7-600.51c.5-3.07 1.38-6.38 1.55-9.71.23-4.27.56-8.66-2.89-12.22-.63-.66.08-2.44-.35-3.48-1.03-2.45-2.44-4.74-3.58-7.15a11 11 0 0 1-1-3.76c10.45 6.25 13.87 28.46 6.27 36.32M655 250.37l15.98-25.3 1.36.44c-.35 2.16-.05 4.77-1.15 6.42-4.27 6.36-8.97 12.45-13.6 18.56-.4.52-1.56.46-2.37.67zM386.31 920.4c-5.13.04-10.28.21-15.43.06-2.86-.08-1.33-3.05-2.3-4.46a4.7 4.7 0 0 1 1.92-1.62c5.07-1.38 9.83.27 14.5 1.92.79.27 1.11 1.82 1.65 2.78zM299.2 368.66c1.44 5.02 3.04 10 4.2 15.08.21.95-1.31 2.28-2.03 3.45-.86-.64-2.2-1.1-2.5-1.94-1.25-3.47-2.6-7-3.05-10.61-.24-1.9 1.26-4.03 1.98-6.05zm88.3-266.02c-1.16-.86-2.73-1.8-3.94-3.06-.6-.61-1.03-2.2-.65-2.77 3.16-4.8 8.57-3.05 10.9.87 1.12 1.86-.47 4.28-2.7 4.44-1.25.1-2.48.36-3.62.52m234.26 213.42c-3.23-4.36-7.64-8.14-7-14.39 2.56-.22 3.28.7 7.54 10.1.64 1.4 1.7 3.12-.54 4.3z"/><path fill="#fff" d="M457.66 726.93c-.65-2.11-1.55-4.19-1.84-6.34-.14-1.1.58-2.54 1.35-3.46 1.32-1.55 2.98-2.8 4.5-4.17l.8.84-5.26 5.72 2.12 7.4z"/><path fill="#000" d="M447.9 140.62c3 .5 5.37.84 7.7 1.36.52.1.9.84 1.34 1.28-.55.48-1.02 1.17-1.65 1.4-2.45.84-5.58-.64-7.38-4.03zm190.33 135.29.63.97-.34.25-.7-.76z"/><path fill="#fff" d="m733.1 817.4-4.24 21.51-1.16-.22c1.5-7.19 1.74-14.61 4.37-21.6zm-393-64.68-11.58 3.64-.39-1.3 11.72-3.17zm381.66 58.8-3.47 2.48-.45-.64 3.37-2.45zm-6.92 4.43 2.77-2.31.53.64-3.05 2.3zm-1.73 1.96-.95.74-.32-.38.94-.89z"/><path fill="#fff" d="m713.71 817.27-.6.63-.34-.52.6-.5q.15.2.34.4"/><path fill="#fff" d="m714.76 816.9-1.05.37a3 3 0 0 1-.35-.4l.88-.3q.26.15.52.33"/><path fill="#fff" d="m714.24 816.56.6-.62.24.63a.5.5 0 0 1-.32.33z"/><path fill="#000" d="M767.06 334.82c-3.88.52-3.25-1.75-3.23-3.73.16-13.08-.73-26.02-5-38.52-.23-.67-.53-1.33-.7-2-.2-.87-.31-1.76-.47-2.63.95.38 2.33.48 2.78 1.17 2.1 3.26 4.42 6.5 5.79 10.08 4.1 10.72 4.98 21.75 1.9 32.93-.3 1.04-.8 2.02-1.07 2.7m13.7-71.91c-1.22-.33-2.4-.28-2.86-.84-5.35-6.54-9.05-13.96-10.32-22.33-.55-3.65-.11-7.45-.06-11.19 0-.67.13-1.5.54-1.98.81-.95 1.85-1.7 2.8-2.54.72.87 1.88 1.64 2.1 2.63.65 2.91 1.13 5.9 1.3 8.88a74 74 0 0 0 6.17 25.65c.12.27.12.57.34 1.73zm7.05-7.02c-4.46-3.79-6.23-8.94-7.15-14.45-.1-.58.73-1.3 1.12-1.96.61.51 1.59.91 1.78 1.55 1.5 4.93 2.85 9.9 4.25 14.86m-5.49 54.05c.03-4.5.03-9.01.1-13.53.03-1.47.25-2.94.42-4.86 4.48 3.72 4.05 13.16-.19 18.77zm11.39-3.05-.87-8c2.71-.14 4 1.32 4.3 3.48.33 2.4-.95 3.93-3.42 4.53z"/><path fill="#000" d="m782.66 310.32-.85.1.51-.48zm11.16 281.39c-4.95 3.63-29.3 6.65-30.91 4.16zm-194.22 2.55 16.75 4.43c-2.85 1.82-13.96-.42-16.99-3.55zm128-371.72c-4.29-.56-8.6-.96-12.83-1.8-1.02-.2-1.89-1.8-2.51-2.93-.16-.3.96-1.85 1.31-1.8 4.53.77 9.04 1.62 13.48 2.74.6.16.82 1.88 1.21 2.87zm7.8-17.43c.48-3.49 2.94-3.79 5.04-3.96 4.26-.36 7.72 1.43 10.58 4.64-1.77 2.29-3.68 1.9-5.9 1.28-3.12-.86-6.35-1.3-9.71-1.96m-26.28 24.44 15.57 3.66c-2.2 3.46-5.3 2.88-7.62 2.35-3.16-.73-7.12-.85-8.47-4.8zm-269.09 779.04c-3.05-.68-6.11-.1-7.49-3.22-.66-1.5-.76-3.07 1.63-2.54 2.2.49 4.38 1.21 6.44 2.14.71.32 1.41 1.61 1.34 2.37-.05.54-1.42.96-1.91 1.25zm330.72-616.36c-5.38.05-8.38-2.75-8.2-6.5.15-3 5-7.96 7.52-6.93 3.04 1.25 5.78 3.55 8.15 5.89.54.53-.44 3.68-1.57 4.59-1.96 1.57-4.58 2.33-5.9 2.95m2.41-4.68c-.09-3.3-2.47-6.4-3.8-5.69a5 5 0 0 0-2.35 3.56c-.16 2.23 1.19 3.98 3.72 3.65 1.03-.13 1.93-1.2 2.43-1.52m-134.81-10.16c3.95-.87 7.09 3.24 6.73 7.66-.3 3.73-3.75 7.74-7.28 7.81-2.67.06-7-4.26-6.87-7.12.2-4.69 3.17-9.32 7.42-8.35m3.9 10.43c.3-4.63-3.04-7.58-6.6-6.46-.68.21-1.52.96-1.65 1.6-.12.55.48 1.63 1.05 1.9 2.22 1.06 4.55 1.9 7.2 2.96m90.37-37.92c-4.84 5.32-9.6 10.7-14.55 15.91-1.87 1.96-4.12 3.84-7.2 2.23-1.8-.93-2.31-6.35-.84-9.05.78-1.42 1.78-2.7 2.72-4.1l8.45 4.13.41-.75-7.9-4.58c1.94-2.38 3.7-4.86 5.81-6.98.7-.69 2.47-.9 3.5-.56 3.25 1.06 6.39 2.48 9.56 3.76z"/><path fill="#000" d="m732.76 350.88-.15-.98h-.03l.57.45z"/></svg>