<svg xmlns="http://www.w3.org/2000/svg" width="1080" height="1080" fill="none" viewBox="0 0 1080 1080"><path fill="#fff" d="M755.88 306.95c-1.5 3.65-2.36 7.78-4.66 10.84-3.1 4.13-4.73 8.8-6.78 13.34-1.28 2.85-.67 5.75.55 8.56 2.16 5 4.37 10 6.34 15.08 2.94 7.57 2.5 15.03-1.45 22.15-3.29 5.92-6.74 11.75-10.12 17.6-.25.45-.43 1.04-.82 1.29-5.21 3.38-5.29 9.03-5.85 14.19-.91 8.28-4.68 15.2-9.9 21.2-3.12 3.58-7.55 6.04-12.13 9.57 2.44 6.38 5.02 13.24 7.69 20.07 2.2 5.64 4 11.5 2.97 17.5-.87 5.07-4.08 9.2-7.56 13.02a1153 1153 0 0 0-15.13 16.98c-.46.53-.64 1.44-.67 2.2-.1 1.74-.22 3.53 0 5.25.86 6.84-3.16 11.21-7.79 15.08-5.79 4.82-13.13 6.13-20.12 8.17-2.88.83-5.8 1.54-8.64 2.45-13.2 4.23-26.29 8.75-39.56 12.66-7.47 2.2-15.25 3.4-22.88.32-1.64-.67-3.1-1.99-4.39-3.25-1.06-1.04-1.66-2-3.53-1.27-10.1 3.96-20.38 7.54-30.42 11.69-7.36 3.04-14.42 6.77-21.63 10.16a36 36 0 0 0-13.42 10.78c-1.44 1.9-1.15 5.13-1.57 7.77-.42 2.71-1.37 5.02-4.03 6.28-1.76.85-2.78.52-3.47-1.51-5.45-16.14-11.25-32.16-16.31-48.42-1.1-3.56-2.82-4.98-5.81-5.78a8.2 8.2 0 0 1-6.23-6.31c-1.21-4.96-2.04-10-3.2-14.98-.45-1.98-.94-3.4-3.7-4.44-4.7-1.75-8.99-4.95-12.95-8.15-6.05-4.88-10.56-11.15-14.24-18a9 9 0 0 1-.74-7.23c1.73-6.28 3.56-12.6 4.33-19.05 1.77-14.68 3.98-29.2 9.94-42.65l-24.82-18.92c-.33-.25-.6-.6-.95-.76-7.22-3.46-6.43-7.15-5.45-14.2.66-4.8.85-5.2-3.14-7.49-1.56-.88-3.04-1.88-4.58-2.8-2.26-1.36-4.38-2.31-7.36-2.38-5.06-.1-9.58-2.68-13.36-6.21-2.37-2.22-4.6-4.6-7.02-6.75-4.98-4.4-6.9-10-6.94-16.46 0-1-.6-2-1.16-3.76.31-2.4.86-5.82 1.17-9.26.33-3.63 0-7.39.82-10.88.42-1.77 2.74-3.1 4.66-5.12l-1.07-4.11c-2.72-.6-5.2-.73-7.27-1.72-1.1-.53-2.11-2.56-2.06-3.87a9 9 0 0 1 2-5.08c1.3-1.52 2.7-2.66 2.39-4.93-.1-.71.27-1.58.64-2.25 1.5-2.7 3.13-5.33 4.6-8.06 2.1-3.93 3.83-4.8 7.64-2.54 2.72 1.61 5.16 1.59 8.03.92 2.93-.68 5.98-.81 8.95-1.33a5 5 0 0 0 2.63-1.21c3.71-3.74 8.42-3.67 12.67-2.3 4.37 1.43 8.27-.63 12.42-.25 2.4.22 4.93-.6 7.35-1.15 2.86-.65 9.37 1.4 10.52 3.49 4.21-.63 3.67-4.3 4.26-7.03.87-4.1 1.35-8.28 1.96-12.43.1-.73.31-1.78-.06-2.2-2.93-3.15-2.28-6.63-.63-9.87 2.32-4.55 5.13-8.85 7.61-13.32 1.54-2.76 2.83-5.66 4.3-8.46.89-1.68 2.12-3.2 2.82-4.93.5-1.23.63-2.74.45-4.06-.29-2.23-1.15-4.4-1.4-6.64-.42-3.66 2.13-7.7 5.5-9.47 3.33-1.77 6.72-3.5 9.84-5.6 1.84-1.24 3.33-3.08 4.74-4.83.32-.4-.13-1.72-.55-2.41-4.42-7.29-8.9-14.5-11.8-22.62-.69-1.93-3.2-3.38-5.14-4.65-2.81-1.83-4.44-4.14-3.92-7.53.84-5.46-.65-9.64-5.56-12.74-4.5-2.85-4.46-8.06-5.63-12.63-1.67-6.58-1.23-13.83-6.44-19.38-1.08-1.15-.64-3.7-.96-5.6-.51-3.05-1.31-6.08-1.48-9.14-.07-1.16 1.39-3.48 1.93-3.42 4.06.49 5.98-2.95 8.36-4.8 6.45-4.98 13.73-8.16 21.25-10.63a861 861 0 0 1 43.5-13.1c9.88-2.68 20.02-4.36 30.04-6.51.15-.03.26-.29.39-.43h5.57c5.53 1.17 8.57 4.91 10.27 10.02.31.94.53 1.93.96 2.83 1.64 3.44 2.96 7.16 6.9 8.83.44.19.93.7 1.03 1.14.9 4.27-2.9 12.25-6.52 14.06l2.75 15.05c1.05-.36 1.85-.52 2.55-.88 2.45-1.29 3.68-.62 3.69 2.2 0 1.18-.24 2.4-.59 3.53-.86 2.84-1.92 5.62-2.77 8.45-1.56 5.2-2.21 10.22 1.12 15.26 2.33 3.53 3.82 7.6 5.5 11.04 12.03-3.97 22.1-.5 31.9 5.46 2.24-2.67 5.45-4.1 8.93-3.42 4.96.97 9.78 2.7 14.68 4.01 5.1 1.38 10.2 2.81 15.35 3.9 4.77 1.01 8.53 3.02 11.37 7.24 2.99 4.42 6.75 8.3 10.06 12.5a340 340 0 0 1 8.9 11.9c.54.76.91 1.98.74 2.86-.86 4.32-1.93 8.61-2.98 13.17.05.03.78.33 1.45.74 7.87 4.82 15.5 9.92 18.15 19.52.88 3.19 1.6 6.14 5.83 5.84.29-.02.67.43.9.73 1.94 2.48 5.25 3.68 6.17 7.18a8.2 8.2 0 0 0 2.93 4.15c6.24 4.6 10.04 11 13.16 17.8 1.5 3.25 3.3 6.72.91 10.53-1.87 2.99-.85 6.12-.08 9.28.88 3.6 1.13 7.36 1.95 10.97.53 2.31 1.6 4.5 2.42 6.74v8.05zM328.2 998.92c1.71-5.63 5.51-9.44 11.12-10.6 3.45-.72 7.35-.49 10.81.31a65 65 0 0 0 26.75.4c12.9-2.36 25.09-6.9 35.24-15.2 10.13-8.27 19.53-17.48 22.63-31.1.29-1.27 1.85-2.23 2.74-3.4.41-.52.67-1.18.93-1.81 1.38-3.32 2.69-6.67 4.15-9.96.38-.86 1.24-1.52 1.88-2.28l2 2.3c4.72-1.84 8.79.43 12.73 3.34 2.76 2.03 5.7 3.8 8.38 5.93 3.7 2.95 7.5 5.89 10.7 9.36 1.11 1.22 1.28 4.23.65 6-2.64 7.4-5.6 14.71-8.74 21.93-1.89 4.35-1.2 7 4.18 11.03-1.85 6.7-3.85 13.6-5.64 20.55-2.05 7.98-4.16 15.96-5.77 24.04-1.86 9.28-7.68 16.55-11.84 24.66-.6 1.17-2.27 1.8-3.45 2.68h-4.33c-.74-.41-1.46-1.11-2.24-1.18a109 109 0 0 0-10.07-.64c-6.47-.05-12.75-.69-18.89-3.1-7.5-2.95-15.1-5.8-22.87-7.96-7.13-1.98-13.88-4.31-19.94-8.73-7.57-5.53-14.68-11.75-23.39-15.67-4.09-1.84-7.82-4.56-11.55-7.12-3.69-2.53-5.34-6.41-6.17-10.68zm369.25-87.18c1.52 1.27 2.6 2.11 3.6 3.05.41.4.79.94.95 1.49 2.4 8.2 4.77 16.4 7.2 24.78l5.29-2.17c6 5.24 6.68 12.77 9.04 19.33 3.9 10.8 6.76 21.96 10.1 32.96.51 1.7 1.1 3.4 1.97 4.93 1.27 2.26.16 3.65-1.42 4.99-.38.33-.82.59-1.24.88-8.09 5.52-16.06 11.21-24.28 16.51-6.58 4.24-13.47 8-20.22 11.98-5.22 3.08-10.16 6.81-15.7 9.12-6.54 2.75-13.57 4.39-20.44 6.31-3.74 1.05-7.64 2.47-11.41 2.34-9.6-.33-19.43 1.04-28.68-2.99-2.35-1.02-5.25-1.04-7.3-2.42-4.2-2.83-4.93-9.15-2.12-13.72.3-.48.3-1.15.86-.93 1.93-.88 4.12-1.43 5.73-2.7a514 514 0 0 0 15.77-13.09c6.26-5.35 12.84-10.41 18.55-16.3 4.37-4.5 7.92-9.92 11.22-15.3 1.4-2.29 1.53-5.52 1.7-8.34.3-4.73.37-9.5.13-14.21-.12-2.15-.43-4.18 1.37-5.62 1.25-1 2.75-1.77 4.26-2.34 1.7-.66 3.6-.83 5.27-1.56.56-.24.93-1.56.86-2.34-.04-.49-1.08-.87-1.66-1.32-.63-.5-1.8-1.02-1.8-1.54-.03-3.49.06-6.98.36-10.46.55-6.66 5.4-10.36 10.24-13.75 3.68-2.57 7.89-4.38 11.86-6.53.26-.14.7-.48.76-.41 3.5 3.43 6.59-.65 9.2-.64zm-136.37-148.7c-4.1-4.13-5.93-9.33-6.27-14.76.39-.96.96-1.9 1.13-2.9.76-4.41 1.4-8.85 2.17-13.84l3.19 2c1.09-3.1 1.71-6.7 3.48-9.6 5.8-9.52 7.93-20.5 12.72-30.4 1.54-3.19 2.19-6.83 3.9-9.88 1.87-3.3 4.5-6.17 6.9-9.37 3.25 1.13 3.42 1.6 2.34 5.46-3.77 13.48-8.02 26.85-14.45 39.25a151 151 0 0 0-8.1 18.52c-.1.29-.2.74-.4.8-4.17 1.28-2.83 5.44-4.28 8.13-1 1.87-2.32 3.72-2.7 5.72-.36 1.97.26 4.13.52 6.19.19 1.46.5 2.92.74 4.38zM393.73 246.5c-.26 1.82 2.02 3.33-1.41 4.37-3.1.94-2.8-.9-3.6-2.5z"/><path fill="#fff" d="M420.55 276.02c-2.23 3.28-6.4 1.93-9.14 4l-.44-1q4.59-1.95 9.18-3.94zm18.1-5.3h11.41l-.03.77a93 93 0 0 1-11.42.06zm-27.83 9.37-.44.7c-.14-.16-.44-.35-.42-.5.03-.2.28-.38.44-.58z"/><path fill="#000" d="M591.06 124.5c.95 2.18-1 3.22-2.1 4.12-.82.69-2.82.74-3.87.22-1.92-.95-3.2-2.5-4.14-4.8-1.84-4.49-.29-8.06 1.8-11.59.8-1.33 2.26-2.75 4.4-.86.68.6 2.66-.28 4.24-.51-3.27-6.5-6.2-7-10.84-2.3-1.5 1.52-2.74 3.3-4.18 4.87-.53.57-1.33.88-2 1.31-.34-.86-1.1-1.81-.95-2.58 1.6-8.2 8.67-13.1 15.6-10.03.26.1.55.14.92.24V93.5c-.85.65-1.54 1.26-2.31 1.73-3.2 1.96-6.99-.14-7.48-3.93-.73-5.69.07-10.64 5.55-13.83 2.41-1.4 1.35-4.55.46-5.02-2.66-1.4-1.3-3.58-1.87-5.51-16.7 5.25-33.93 9.3-46.91 22.37-.93.93-2.11 1.62-2.97 2.6-2 2.33-4.58 4.54-2.24 8.23-5.35-.39-5.31-5.39-7.63-7.38-6.23 1.28-12.17 2.6-18.15 3.7a437 437 0 0 1-17 2.76c-8.55 1.24-17.13 2.53-25.76.87-.9-.17-1.8-1.72-2.21-2.8-1.53-4.01-2.87-8.08-4.21-12.15-.25-.76-.47-1.72-.22-2.42 1.15-3.17-1.08-5.12-2.36-7.5-2.11-3.94-5.53-7.34-5.15-12.39.26-3.53.63-4.09 4.03-4.1 6.81-.02 6.9 0 8.97-6.83.6-1.99.6-4.17.98-7.15l9.68-5.73c-.16-1.7-.47-3.74-.48-5.78 0-1.55-.1-3.52.77-4.5.56-.62 2.82 0 4.2.4 1.8.53 3.47 1.56 5.28 2.04.7.19 2.31-.45 2.38-.9.57-3.44 3.35-4.27 5.9-5.4 1.1-.5 2.19-1.2 3.33-1.33 3.25-.35 4.28-2.36 4.53-5.23.14-1.62.32-3.66 2.49-3.4 1.76.2 4.39-.33 4.45 3.13.02 1.27 1.22 2.95 3.6 1.8 2.1-1.04 4.6-1.21 6.85-2 .94-.34 1.7-1.24 2.45-1.98.49-.49.84-1.13 1.18-1.75q2.73-4.9 7.64-4.18c.85 1.75 1.14 3.38 2.1 4.13 2.61 2.02 0 3.88.22 6.24 1.57.29 3.26.6 4.92.88.96-2.26 1.64-4.26 2.6-6.1.9-1.72 2.08-3.28 3.13-4.9l1.12.23.54 4.86c1.5-.3 3.65-1.4 5.42-.96 4.83 1.18 7.82-.62 10-4.68.32-.6.85-1.1 1.3-1.65h3.09l2.6 11.08 7.93 3.11c1.75-.5 2.95-1.2 4.1-1.1 1.3.12 2.54.93 3.95 1.5 0 1.14-.57 3.04.1 3.71 2.83 2.83.96 5.7.54 8.56 4.77 2.11 8.79 6.66 11.16 11.96.34.74.1 1.86-.16 2.72-.33 1.05-1.27 1.96-1.45 3.03-.62 3.7-1.54 7.46-1.38 11.16.14 3.45-.27 7.84 4.98 8.78.85.14 1.67 1.15 2.25 1.94 4.1 5.61 4.75 13.41-1.36 19.01-.45.41-.62 1.11-.98 1.78l3.08.26c-.94 1.68-1.34 3.38-2.42 4.17-2.7 2-2.82 1.84-2.4 4.39 1.15-.73 2.58-2.36 3.88-2.27 1.38.09 3.41 1.59 3.82 2.88.79 2.57 1.26 5.55.74 8.13-.76 3.8-2.45 7.4-1.88 11.45.08.52-.4 1.11-.53 1.69-.5 2.1-1.8 4.45-1.24 6.24 1.5 4.89 3.79 9.53 5.57 13.83 4.1-.85 8.48-1.85 12.89-2.65 5.29-.97 10.47-.65 15.44 1.64a11 11 0 0 0 3.48 1.13c5.76.5 11.6.51 17.3 1.38a78 78 0 0 1 22.23 7.15c5.45 2.63 11.12 4.91 14.86 9.94 1.51 2.04 3.2 2.79 5.65 3.22 3.65.64 6.97 2.27 9.36 5.42.65.85 1.78 1.4 2.8 1.9 4.18 2.06 6.6 3.8 6.15 8.92-.36 4.06-.2 8.17-.72 12.2-.44 3.41-1.53 6.73-2.29 10.1-.1.47-.14 1.23.13 1.44 3.01 2.45 6.09 4.82 9.15 7.22l.67-.6c.38 1.87.82 3.72 1.15 5.6.49 2.88.49 5.93 1.54 8.58.49 1.23 2.95 1.67 4.5 2.49q.95.5 1.8 1.09a68 68 0 0 1 18.87 20.58c4.67 7.69 7.5 16 9.13 24.79.56 3.01 1.22 6 1.84 9v16.7c-.62 3.3-1.14 6.6-1.87 9.86-2.09 9.2-4.92 18.06-11.32 24.83 2.38 7.2 5.09 14.09 6.83 21.21.92 3.8.97 8.2-.02 11.95-1.37 5.18-4.08 10-6.35 15.29 1.35-.73 2.5-1.47 3.76-2 .62-.27 1.85-.45 2.03-.16.44.66.8 1.86.48 2.42a13 13 0 0 1-3.1 3.76c-3.12 2.53-6.44 4.81-9.6 7.3-.77.6-1.67 1.59-1.73 2.45-.65 10.07-1.54 20.15.4 30.2.14.76-.17 2.09-.71 2.4-1.67.94-3.59 1.43-5.33 2.26-6.48 3.06-12.92 6.19-19 9.11 2.51 6.9 4.64 13.37 7.24 19.67 3.37 8.18 2.52 16.7 2.17 25.1-.11 2.72-2.6 5.5-4.45 7.92-1.5 1.95-3.68 3.35-5.5 5.06-1.03.97-1.78 2.48-2.98 3-3.58 1.56-7.32 2.75-10.5 3.9l3.2 23.9-1.25.64c-1.25-.88-2.5-1.77-3.3-2.32-5.53 3.4-10.9 7.16-16.67 10.16-11.08 5.8-23.17 8.76-35.27 11.58-.73.18-1.61.97-1.88 1.68a1176 1176 0 0 0-8.46 22.5c-.81 2.24-1.83 4.62-1.73 6.9.35 8.34 1.5 16.67 1.66 25.01.29 15.52-.07 31.05.13 46.57q.35 28.17 1.26 56.33c.22 6.7 1.02 13.4 1.97 20.04.7 4.82 1 9.34-3.1 13.14 1.3.78 2.42 1.48 3.56 2.12 1.49.83 3.05 1.52 4.5 2.41a17.8 17.8 0 0 1 7.78 9.26c3.18 8.14 8.57 15.44 11.65 23.6 6.72 17.82 12.44 36 18.81 53.94a2729 2729 0 0 0 17.54 47.66c3.09 8.2 6.54 16.28 9.74 24.45.38.96.69 2.45.22 3.14-1.92 2.8-4.15 5.38-6.77 8.66 1.12 3.76 2.48 8.5 4.04 13.18.18.53 1.83 1.18 2.28.91 3.55-2.12 3.6-2.17 5.83 1.34.81 1.28 1.76 2.5 2.32 3.89 3.24 7.93 6.71 15.8 9.46 23.9 4.06 11.94 8.11 23.95 9.57 36.58.16 1.37-1.3 2.93-2 4.4l-3.33-2.11-1.35-.86.1.11c-.16-.78-.16-1.64-.5-2.32-.8-1.58-2-2.98-2.6-4.61-2.97-8.22-5.8-16.5-8.69-24.76l-9.38-26.85-9.54 12.99-3.9-.5.6-.74c-1.04-1.2-1.95-2.57-3.16-3.57a41 41 0 0 0-5.96-4.12c-1.15-.64-2.78-1.2-3.96-.9-5.94 1.51-11.81 3.34-17.7 5.03-1.38.4-3.92-1.54-3.25-2.46 1.71-2.33.04-4.67.47-6.98.41-2.25-1.1-3.14-3.14-2.73-2.85.57-5.66 1.41-8.5 2.05-8.27 1.9-16.64 2.93-25.07 1.53-2.9-.49-5.68-1.76-8.47-2.77-2.07-.74-2.45-4.2-5.51-3.54-.11.03-.72-1.02-.57-1.25.64-1.04 1.47-1.96 2.33-3.05-1.78-3.91-4.14-8.37-5.85-13.05-5.95-16.35-11.93-32.7-17.43-49.19-5.43-16.28-10.24-32.77-15.43-49.13-6.7-21.07-13.52-42.1-20.23-63.17a5 5 0 0 1 .13-3.14c1.89-4.9 3.9-9.75 5.9-14.6l9.7-23.5 7.07-16.28-.8-.34-6.84 15.96-19.9 46.79c-.8 1.88-2.48 4-2.11 5.65 2.54 11.42 2.94 23.02 3.33 34.62.26 7.74.73 15.58-1.62 23.14a1727 1727 0 0 1-9.13 28.3c-1.47 4.46-3.64 8.74-4.6 13.3-1.86 9-2.58 18.26-4.73 27.19-2.74 11.4-3.67 22.96-4.62 34.56-.79 9.5-1.37 19.05-2.62 28.5-.75 5.72-2 11.5-5.62 16.36-1.3 1.75-2.57 3.53-4.39 6.01h8.55c-3.92 3.67-8.38 1.64-12.15 2.46-.6 1.84-.54 4.78-3.38 3.8a739 739 0 0 1-29.94-11.22c-2.04-.81-2.8-1.03-4.19 1.03-1.36 2.03-.37 2.87.82 3.76 4.17 3.14 5.63 6.93 4.1 12.14-1.86 6.26-3.1 12.7-4.76 19.02a173 173 0 0 1-4.08 13.82 280 280 0 0 1-7.72 19.93c-1.66 3.74-4.74 6.87-6.19 10.66-1.2 3.17-2.98 4.75-5.97 5.61-1.65.48-3.68.79-4.72 1.93-1.7 1.86-3.04 1.63-5.05.84a28 28 0 0 0-6.61-1.59c-6.51-.86-13.12-1.15-19.55-2.41-15.3-3-29.56-9.16-43.31-16.22a340 340 0 0 1-32.8-19.38c-5.35-3.56-10-8.49-12.03-15.18-.3-1.03-1.75-1.71-2.67-2.55v-3.09c3.2-4.94 6.3-9.96 9.66-14.78a9.3 9.3 0 0 1 4.07-3.07c1.74-.7 3.1.36 3.84 2.14.1.24.95.24 1.44.22 8.43-.38 16.85-.72 25.27-1.21 4.76-.28 9.6-.37 14.23-1.34a65 65 0 0 0 13-4.43c11.1-4.94 21.06-11.61 29.35-20.58.6-.65 1.22-1.72 1.1-2.48-.51-3.07.28-4.74 3.12-5.84 4.18-1.62 7.99-.3 11.45 1.81 5.44 3.35 10.12 7.46 11.82 14.08.16.62 1.45 1.4 2.19 1.37 6.13-.18 11.12 2.47 15.8 5.97L474 957l-32.26-21.83c-1.76 4.14-3.38 8.2-5.2 12.16-1.52 3.29-3.09 3.59-5.77 1.6.45-2.88.81-5.63 1.33-8.35.5-2.67 1.18-5.32 1.78-7.97.07-.3.27-.69.16-.89-2.48-4.38.85-7.97 2.07-11.53a647 647 0 0 0 19.57-69.9c4.1-18.62 7.88-37.3 11.83-55.95.3-1.46.69-2.94 1.21-4.33 2.2-5.82-.07-11.38-1.53-16.7-2.66-9.62-2.02-18.99.67-28.26a2656 2656 0 0 1 15.9-52.32c4.06-13 8.7-25.8 12.61-38.84 4.62-15.39 8.6-30.97 13.12-46.38 2.94-10.06 6.33-19.99 9.55-29.96 1.92-5.93 3.91-11.83 5.84-17.76.18-.56.1-1.2-.48-2.02l-11.96 30.62c-5.04-13.01-9.8-25.4-14.7-37.73-.4-.98-1.75-1.81-2.84-2.22-2.21-.83-4.55-1.36-6.85-1.97-2.71-.73-3.25-2.63-3.35-5.2-.19-5.28-.78-10.54-1.08-15.81-.15-2.53-.03-5.08-.03-8.09-2.04-.93-4.65-2.1-7.24-3.33-2.01-.97-4.28-1.82-2.9-5.4 1.33.27 3.07.3 4.48.98 2.24 1.08 4.27 2.6 6.37 3.96 3.65 2.36 4.1 6.35 4.77 10.06.77 4.3 1.03 8.68 1.5 12.82 5.58 1.65 11.21 3.32 17.75 5.24 0-4.42.23-8.7-.06-12.94-.36-5.17-1.57-10.3-1.71-15.47-.59-21.09-1.24-42.18-1.18-63.27.03-10.85 1.52-21.7 2.33-32.55.43-5.79.81-11.59 1.26-17.38.38-5 .68-10.04 1.33-15.02.16-1.24 1.4-3.04 2.45-3.28 1.82-.42 3.33.26 3.73 2.92 1.54 9.97 1.53 19.92.6 29.92-.29 3.04-.4 6.1-.7 9.14-1.83 18.3-1.98 36.65-1.97 55.02l.06 17.49c0 1.25.18 2.52.02 3.75-.43 3.16 1.62 3.17 3.78 3.17 8.97-.02 17.93.06 26.9-.04 7.8-.1 15.6-.27 23.4-.63 6.73-.3 13.44-.93 20.3-1.43-1.11-5.16-2.38-10.3-3.29-15.5a437 437 0 0 1-3.53-23.02 492 492 0 0 1-2.44-26.47c-.37-5.63-.14-11.3-.14-16.96 0-6.68-.1-13.37.12-20.05.07-2.06-.54-4.85 3.04-5.83-5.07-5.52-9.99-10.96-15-16.32-3.46-3.7-7.86-5.56-12.81-6.24-.29-.04-.55-.26-.82-.39a31 31 0 0 0-16.32-2.74c-1.36.14-2.8-.31-4.2-.57-5.66-1.06-9.34 2.11-12.94 5.77-.95.97-2.68 1.31-4.12 1.63-11.39 2.51-22.75 5.12-34.2 7.32-4.88.93-9.92 1.09-14.9 1.34-6.87.34-13.76.45-20.63.64-1.1.03-2.22-.09-3.62-.15l-5.56 11.84c11.77 4.67 20.81 12.96 30.76 19.9 2.17-6.58 1.68-14.07 7.2-19.74 2.45 4.05 1.12 7.72.34 11.1-1.42 6.11-3.7 12.02-5.16 18.12-2.09 8.73-3.61 17.6-5.64 26.33-2.44 10.48-4.9 20.96-7.89 31.28-1.22 4.19.6 7.03 2.45 9.98 2.97 4.75 6.35 9.24 9.44 13.9.65.99.85 2.27 1.25 3.43l-.81.6c-2.26-1.62-4.89-2.9-6.69-4.92a166 166 0 0 1-11.36-14.22c-3.54-5-3.43-10.48-1.71-16.38 2.78-9.54 4.7-19.32 7.33-28.92 1.82-6.63 4.19-13.12 6.32-19.67.2-.65.45-1.28.73-2.09-12.53-5.08-23.77-12.18-34.59-20.02-1.76-1.28-2.33-5.07-.92-7.84 1.8-3.53 3.78-6.97 5.94-10.92l-7.93-4.97c-3.93-2.48-7.82-5-11.8-7.4-.7-.42-1.74-.24-2.61-.39-4.6-.78-9.19-1.74-12.35-5.55-1.08-1.32-1.56-3.17-2.26-4.8-.55-1.26-.77-2.75-1.56-3.83a17.3 17.3 0 0 1-3.04-14.6c-5.34-3.17-6.43-6.82-2.63-12.88 2.27-3.62 3.13-7.3 3.47-11.29.23-2.65 1.48-3.86 4.3-3.38l-2.01-4.21c-6.42 2.2-10.2-2.22-11.39-6.08-1.28-4.2 1.16-6.94 6.98-8.1-3-4.7.14-7.77 2.79-11.07.68-.85.63-2.3 1.31-3.14 1.2-1.5 2.7-2.74 4.43-4.44-2.54-7.53-5.32-16-8.31-24.4-.57-1.58-2.1-2.78-2.97-4.27-.95-1.64.52-5.7 2.16-6 2.43-.46 3.67 1.03 3.98 3.2.23 1.59.02 3.25.01 4.89 0 1.12-.27 2.33.07 3.34 2.38 7.07 4.88 14.1 7.35 21.14 1.04 2.94 5.35 4.01 7.7 2.09 7.4-6.04 15.98-9.5 25.3-11.2 3.17-.57 6.41-1.22 9.61-1.17 8.7.13 17.18 1.54 25.97 5.95 0-5.1.5-9.79-.11-14.32-.87-6.46.34-12.6 1.86-18.7.38-1.49 1.93-3.02 3.35-3.81 2.89-1.62 4.95-3.68 5.61-6.95.51-2.53 4.41-4.01 2.17-7.53-.36-.56 1.07-2.25 1.85-3.76-2.2-4.27-3.14-9.12-.1-14a6 6 0 0 1 2.05-2.02c5.2-2.99 10.46-5.9 15.9-8.93-5.86-7.08-10.2-14.28-11.9-23.03-4.36-.7-6-2.68-6.33-7.24-.3-4.22-.87-8.42-1.45-12.6-.26-1.86-6.03-6.53-8.08-7-.58-.14-1.3-.93-1.44-1.54-1.96-8.52-3.96-17.03-5.65-25.6-.86-4.4-1.14-8.93-1.69-13.4l1.2-.45c.55.65 1.43 1.22 1.62 1.97 2.15 7.94 4.3 15.88 6.16 23.89.46 1.96 1.3 2.08 2.9 2 2.73-.16 5.5-.23 8.55 2.46l-9.85 2.1c1 1.78 1.94 3.8 3.21 5.58 1.34 1.9 3 3.57 4.51 5.36.26.3.34.91.62 1 4.6 1.3 2.9 5.03 3.16 8.02.2 2.34-.21 5.1.92 6.87 1.08 1.7 3.74 2.46 5.8 3.45 1.16.57 2.5.79 3.76 1.17l-3 2.83c-.22.21-.43.44-.84.86 1.94 3.6 3.91 7.3 5.95 10.97.62 1.1 1.25 1.52 2.89 1.1 2.7-.71 5.61-.57 8.95-.82-1.76 3.34-4.82 3.7-7.84 4.76 6.5 6 13.58 9.76 22.53 7.61a415 415 0 0 0 20.48-5.63c1.49-.44 2.78-1.6 4.15-2.41 1.5 2.39 1.05 3.7-2.45 6.77-1.84 1.61-3.77 3.11-5.68 4.7 1.04.62 2.29 1.13 3.23 1.98 5.4 4.87 11.78 5.02 18.02 2.85 9.2-3.2 18.16-7.04 27.14-10.82 1.72-.73 3.03-2.42 5.16-4.18-1.39 4.83-3.52 8.1-7.16 10.24-8 4.67-16.23 9.09-25.44 10.44-6.86 1-14.13 1.53-20.12-3.46-1.67-1.38-3.02-3.15-4.6-4.82l-4.56 2.1.88-.02c.02 3.16.58 6.43-.04 9.45-3.05 14.87-6.66 29.63-9.58 44.52-1.77 9.02-2.79 18.19-3.87 27.32-.76 6.45-1.04 12.96-1.54 19.44l-.9.25c-.43-1.9-1.15-3.77-1.27-5.68-.35-5.33-.8-10.68-.58-16 .23-5.96.95-11.92 1.79-17.82 1.29-9.03 2.54-18.08 4.39-27 2.32-11.19 5.24-22.25 7.9-33.36-8.62 3.73-16.77 1.6-23.74-4.04-5.22 3.65-10.08 7.38-15.3 10.55-3.43 2.08-5.23 4.12-4.8 7.93.07.73.71 1.68 1.36 2 2.95 1.45 5.99 2.76 9.03 4.02 1.13.47 2.44.55 3.52 1.08 1 .5 2.2 1.17 2.65 2.08 1.74 3.57 3.18 7.29 4.82 10.9.26.58 1.17.83 1.5 1.4.54.9 1.3 2.02 1.15 2.9-.89 5.07-1.7 10.17-3.15 15.07-1.39 4.7-3.74 9.13-5.26 13.8-.85 2.6-1.1 5.47-1.21 8.24-.38 8.81-.58 17.63-.81 26.45-.06 2.24-.38 4.15-3.65 4.02.9.46 1.58.64 2.01 1.06 2.39 2.29 4.69 1.13 7.18.13 3.96-1.58 7.95-3.27 12.09-4.1 2.1-.4 4.7.67 6.83 1.6 9.29 4.1 18.5 8.39 27.8 12.63.35-2.89 3.08-2.73 5.19-2.66 6.42.19 12.84.65 19.23 1.28.8.08 1.44 1.84 2.5 3.3 4.65-.69 10.43-1.04 15.91-2.48 5.28-1.39 10.15-4.23 15.4-5.79 2.37-.7 5.68-.68 7.75.47 8.24 4.58 16.2 9.7 24.19 14.71 7.23 4.54 14.39 9.22 21.54 13.8-1.18 2.8-3.2 3.85-5.52 2.8-14.64-6.67-29.76-12.3-43.5-20.83-.6-.37-1.33-.65-1.82-1.15-3.68-3.77-7.68-2.14-11.75-.86-2.7.86-5.47 1.67-8.27 2.03-3.74.47-7.53.5-11.3.66-1 .04-2-.1-3.03-.15l-1.06 17.93-.9.11c-.43-1.3-1.03-2.57-1.26-3.9-.36-2.1-.95-4.33-.58-6.34.69-3.68-1.7-5.93-3.18-8.64-.22-.4-.83-.75-1.3-.84-4.02-.72-8.04-1.37-11.83-2-.13 16.07-1.27 31.42-12.1 43.44 4.75 1.6 9.8 3.34 14.9 4.94.73.23 2-.02 2.5-.55 4.87-5.13 9.59-10.39 14.43-15.54.68-.72 1.76-1.06 2.8-1.65 1.04 4.54.76 6.52-12.33 23.08a139 139 0 0 1 23.05 24.86 8.4 8.4 0 0 1 1.42 4.81c-.06 2.24.74 3.31 2.74 4.05a172 172 0 0 1 10.72 4.37c.84.38 1.38 1.44 2 1.57 3.7.53 7.48.83 11.13 1.64 6.73 1.5 13.4 3.3 20.09 4.95.54.13 1.18.3 1.66.12 11.97-4.28 24.45-6.3 36.93-8.3 5.5-.89 11.12-1.08 16.62-2.02 1.99-.34 3.75-1.97 5.63-2.98 10.08-5.38 19.98-11.17 30.34-15.95 5.46-2.52 9.3-5.4 10.2-11.54.7-4.59 1.96-9.11 2.31-13.72.2-2.62-.67-5.42-1.52-7.98a298 298 0 0 0-5.81-15.55c-.62-1.55-1.77-2.87-2.55-4.36-.39-.75-.45-1.66-.68-2.5q-1.14-4.2-2.32-8.38c-2.73-9.47-5.68-18.9-8.14-28.44-2.21-8.57-3.9-17.27-5.77-25.7-1.21.87-3.1 2.28-5.03 3.64-11.57 8.15-25.8 4.82-32.95-6.61-2.91-4.66-3.24-9.88-2.72-15.4a25.6 25.6 0 0 1 9.05-17.54c4.22-3.68 9.1-6.01 14.93-6.46a23 23 0 0 1 13.2 2.85l-1.28-17.43c-3.74-2.02-8.26-4.32-12.66-6.86-6.5-3.76-12.68-7.95-17.12-14.22a2 2 0 0 0-1.55-.72c-5.38.67-10.7 1.75-15.47 4.41-1.07.6-1.43 2.68-1.9 4.16-3.03 9.48-6.2 18.92-8.9 28.48a103 103 0 0 0-3.4 16.92c-1.15 10.7-2.36 21.45-2.42 32.18-.05 10.55 1.48 21.06 3.8 31.42.7 3.12.7 6.4.45 9.84l-1.88-3.67-1.16 5.83q-.3.42-.57.85l1.1-.43h10.5c-1.73-4.15.7-6.18 3.73-7.83q17.51-9.55 35.1-18.98c.57-.3 1.54.17 2.32.28-.23 1.4.03 3.27-.78 4.12-1.56 1.64-3.68 2.78-5.65 3.98a4933 4933 0 0 1-27.94 16.74c-1.1.65-2.33 1.08-3.75 1.72 4.76.83 9.24 1.45 13.65 2.41a75.6 75.6 0 0 1 32.79 15.9c1.8 1.51 2.95 3.85 4.33 5.86.26.38.13 1.02.25 2.26-9.26-9.33-20.3-13.54-32-15.87-9.37-1.88-18.97-2.6-28.48-3.85-1.5-.2-3.12-.13-4.46-.71-1.08-.47-2.72-1.92-2.57-2.59.89-3.98-3.16-5.5-3.91-8.65a50 50 0 0 0-3.2-9.4 95 95 0 0 1-7.39-23.32c-2.76-15.42-2.88-30.97-2.24-46.48.47-11.3 2.34-22.56 7.26-33.4l-15.46 2.49-.8-3.6-.86.18a138 138 0 0 0-1.79 32.67c.57 9.2.99 18.42 1.61 27.62.38 5.52-.44 10.28-4.58 14.63-3.34 3.5-5.94 7.91-8.06 12.3-1.76 3.67-2.3 7.9-3.49 11.85-.27.9-1.03 1.66-1.57 2.5l-1.01-.37c.34-4.7.51-9.42 1.1-14.08.33-2.52.9-5.23 2.22-7.33a66 66 0 0 1 7.9-10.15c3.16-3.38 4.16-6.54 2.67-11.28-3.16-10-4.42-20.36-4.64-30.92-.2-9.45.97-18.7 2.78-27.87.5-2.52 2.4-4.82 3.88-7.08.88-1.33 2.18-1.22 3.54-.29.74.5 1.82.91 2.66.79 6.15-.93 12.28-2.06 18.42-3.03 9.37-1.48 18.75-2.89 28.13-4.31.4-.06.9-.17 1.22 0 4.33 2.23 7.47-1.52 11.45-2.25-4.58-1.1-6.5-3.8-5.98-8.35.37-3.33-3.25-7.18 1.35-9.96-2.47-6.87-9.08-7.49-14.64-9.04-10.3-2.88-20.81-4.97-31.57-7.46-1.14 5.08-2.14 9.56-3.13 14.05-.45 2.06-.74 4.17-1.36 6.18-.8 2.6-2.25 4.68-5.47 4.72v-29.68c-2.67-2.28-6.8-1.97-10.6-2.07s-7.64.73-12.43 1.26c1.37 1.14 2.17 1.82 2.99 2.48 2.42 2 5.02 3.8 7.16 6.05.77.8.93 2.84.52 4.02-4.13 12.11-8.5 24.14-12.68 36.23a246 246 0 0 0-4.68 15.2c-.52 1.92-.36 4.02-.6 6.02a3499 3499 0 0 1-2.9 24.14c-.64 5.1-1.54 10.18-2 15.3-.98 10.56-1.75 21.15-2.6 31.71-2.48-.28-2.66-.26-2.98-2.86-.73-5.94-1.67-11.89-1.8-17.85-.16-8.42-.12-16.88.65-25.25.86-9.4 2.61-18.74 4.02-28.1.26-1.77.41-3.66 1.17-5.23.6-1.25 2.08-2.07 3.1-3.14.58-.6 1.2-1.27 1.46-2.03q6.03-18.1 11.98-36.23 1.42-4.35 2.82-8.72l-1.3.47c-1.22-.95-2.53-1.83-3.66-2.9-1.28-1.2-3.32-2.5-3.44-3.89-.48-5.49-3.92-9.77-5.41-14.8-.19-.63-.43-1.25-.76-2.2-2.8 2.15-4.67 5.9-8.87 4.61-1.28-.39-2.44-1.12-3.99-1.85 6.37-2.2 8.82-7.04 10.8-12.27.3-.83.59-1.74.55-2.6-.01-.35-.92-.66-1.41-.99l2.71-9.88.73.18-1.52-2.47 3.62 1.6c2.4-1.33 2.37-4.74-.4-6.62-.47.89-.9 1.8-1.42 2.64s-1.15 1.64-1.72 2.46l-3.77 4.46.32.9-4.9-.69-1.67 2.63 4.86-.25.2 1.07-3.18 1.55 2.2 3.52 4-1.19zM469.98 277.18l-2.13-.33c-.68-.48-1.29-1.2-2.04-1.43a66.5 66.5 0 0 0-29.38-2.01c-9 1.33-17.03 4.73-24.77 9.29 1.7-.02 3.4-.08 4.98-.55 3.28-.99 6.71-.7 9.8-3.37 2.96-2.56 7.57-3.99 11.54-1.92 3.08 1.6 5.98 1 8.95.92 7-.19 14-.66 21-1.03l1.5.85 24.94 28.33c-3.64-13.98-11.57-23.44-24.39-28.75m222.34 234.68c-.15.01-.38-.03-.55.04-11.56 4.24-23.12 8.49-35.37 10.3-2.47.37-5.07-.17-8.08-.3 1.05-2.92 2.59-4.03 4.67-4.52 2.35-.55 4.76-.92 7.05-1.64a3866 3866 0 0 0 45.8-14.61c1.23-.4 2.25-2.05 2.96-3.35 1.78-3.25 2.75-7.13 5.1-9.84 3.59-4.13 3.9-8.72 2.55-13.18-2.4-7.94-5.8-15.59-8.57-23.43a301 301 0 0 1-6.4-19.93c-1.22-4.42-1.71-9.03-2.58-13.85l-39.68 8.9c5.87 2.79 9.38 6.75 12.52 11.3a16 16 0 0 1 2.98 9.63c-.09 4.43-.92 8.84-1.11 13.27-.35 7.68-.47 15.37-.65 23.05-.05 1.75.11 3.51-.04 5.25-.08.86-.66 1.68-1 2.51l-1.22-.24q-.75-14.66-1.46-29.32c-.23-4.61-.4-9.22-.64-13.83-.03-.46-.16-1.07-.48-1.34-3.42-2.94-6.47-6.7-10.42-8.54-9.84-4.6-20.09-8.35-30.2-12.38-1.83-.73-4.47-2.23-5.56-1.54-2.51 1.62-4.23.34-6.26-.3l-4.01-1.24c0 13.95-.12 27.62.07 41.3.06 3.93.75 7.9 1.6 11.75 1.3 5.88 3.08 11.65 4.39 17.52.22 1.02-.94 2.34-1.46 3.51-.91-.6-2.23-.98-2.69-1.84-5.81-10.8-8.79-22.5-9.83-34.58-.84-9.78-.64-19.65-.7-29.48 0-3.71.6-7.43.93-11.35-1.41-.58-2.95-1.38-4.6-1.85-5.36-1.53-7.69-6.08-7.86-10.6-.23-6.04-5.13-7.88-7.62-12.36 1.04 12.35 2.13 23.97 2.98 35.6.77 10.5 1.02 21.03 1.96 31.5.9 10 2.27 19.98 3.66 29.93 2.15 15.42 6.85 30.16 12.77 44.5.32.79.93 1.49 1.55 2.09 1.12 1.1 2.62 1.9 3.49 3.17 1.82 2.66 3.24 5.6 5.05 8.28.46.69 1.89 1.32 2.65 1.13 10.31-2.65 20.58-5.5 30.88-8.2 12.99-3.4 25.77-7.37 37.94-13.1 3.14-1.47 6.12-3.26 9.14-4.9zm-296.44 494.75-.52 1.22c-1.66-.54-3.66-.66-4.91-1.69-9.31-7.6-20.74-8.87-31.88-10.9a178 178 0 0 0-16.6-1.98c-2.18-.18-4.91-.3-6.5.8-3.2 2.22-5.8 5.31-9.17 8.55 1.31 0 1.66.09 1.92-.01 5.66-2.38 10.7-1.08 15.58 2.29 6.55 4.51 13.06 9.1 19.87 13.18 9.38 5.62 19.08 10.71 28.52 16.22 3.11 1.82 6.08 3.27 9.84 3.1 2.28-.11 4.8.21 6.84 1.15 4.24 1.93 8.59 3.96 12.26 6.77 5.82 4.46 11.96 8.13 18.98 10.19 5.96 1.75 8.01.64 10.95-4.68 1.67-3 3.86-5.7 5.75-8.59a8 8 0 0 0 1.33-2.8c.74-4.27.9-8.7 2.06-12.85 3.88-13.93 6.04-28.4 12.79-41.11-4.15-3.05-8.2-6.07-12.3-9-3.35-2.4-5.05-2.34-7.36-.33-.91.79-2.24 1.1-3.38 1.61-.57-1.32-1.76-2.75-1.56-3.95a6.9 6.9 0 0 0-2.57-6.66 53 53 0 0 0-10.85-7.1c-4.22-1.96-7.17-.54-9.82 3.47a23 23 0 0 1-2.04 2.68c-3.26 3.64-6.56 7.25-9.7 10.7l19.41 5.24.06.98c-.78.49-1.64 1.51-2.32 1.4a415 415 0 0 1-19.28-3.5c-2.52-.53-4.59-.47-6.41 1.7 2.43 1.94 7.76.7 6.6 6.75-3.66-.56-7.17-.93-10.6-1.68a10.3 10.3 0 0 0-7.48.91c-6.07 3.17-12.55 5.1-19.54 4.69-.58-.03-1.18.23-2.04.43 4.54 1.8 8.86 3.1 12.76 5.19 3.98 2.13 7.55 5.05 11.3 7.62zm81.26-685.52L459.66 287l-62.82 7.01 6.88 21.7c2.44.67 5.64 1.23 8.58 2.43 5.56 2.27 11 4.85 16.41 7.45.75.36 1.51 1.63 1.47 2.42-.05.74-1.04 1.7-1.84 2.07-2.16.98-4.44 1.7-6.98 2.65.55 1.06.89 2.15 1.56 2.94q3.21 3.7 6.59 7.25c2.59 2.73 2.8 5.02.79 8.35-.32.53-.19 1.32-.3 2.19l-4.94-.8 11.66 25.55c22.1-.44 43.65-1.62 65.33-6.88-2.42-4.83-4.63-9.62-7.18-14.23-1.42-2.55-2.77-5.31-5.8-6.6-2.64-1.12-3.78-3.41-4.31-6.13-.3-1.52-.83-2.78-2.9-2.9-.94-.06-2.16-1.15-2.62-2.09-1.03-2.1-1.68-4.4-2.6-6.96-3.46.7-4.53-2.72-4.28-4.99.25-2.12 2.86-3.97 4.76-6.34zm26.36 31.96-.5 1.45c1.4.87 2.7 2.33 4.17 2.53 7.45 1.02 14.94 1.7 22.41 2.52 3.63.4 7.24.87 10.87 1.2 1.92.16 4.81.89 5.6-.04 2.07-2.47 5.41-4.35 5.06-8.53-.25-2.9.17-5.9.59-8.8.92-6.5 2-12.96 3.05-19.44.27-1.69-.6-2.32-2.05-2.7-9.14-2.4-18.27-4.87-27.42-7.26-1.76-.47-3.66-1.2-5.37-.93-3.06.46-6.08 1.4-9 2.45-11.15 4-22.25 8.14-33.37 12.22l-.04.86c6.04 1.6 12.14-.45 18.15-.9 6.16-.46 12.26-1.66 18.38-2.53l.2 1.12-30.6 7.3c1.14 1.29.11 4.34 3.58 4.37 7.07.07 14.14.34 21.2.59 4.2.14 8.4.31 12.58.65 1.55.13 3.06.76 4.58 1.15l-.12 1.05-36.94 1.92c.98 1.02 1.66 2.42 2.53 2.55 10.8 1.59 21.62 2.96 32.42 4.47 1.84.26 3.64.88 5.45 1.34l-.29 1.4zm219.99-120.4c.3 3.1.53 5.94.87 8.76 1 8.34 2.08 16.67 3.05 25.02.55 4.74.66 9.55 1.46 14.24 1.14 6.72 2.77 13.36 4.12 20.04.71 3.56.83 7.3 2.03 10.68 2.04 5.77 4.73 11.3 7.1 16.87 18-24.02 9.54-76.44-18.63-95.62zm-230.31 61.77c.36-5.74.22-10.71 1.08-15.5 1.2-6.58 2.5-13.08 2.4-19.85-.05-3.88.94-7.8 1.54-11.68.67-4.32 3.2-8.48.85-13.03-.77-1.5-1.07-3.28-1.98-4.68-.95-1.47-.1-4.3-2.8-4.39-2.9-.1-2.63 2.7-3.23 4.38-1.5 4.3-3.56 8.06-7.4 10.75-.9.63-1.53 1.88-1.9 2.97-1.14 3.48-1.98 7.07-3.18 10.53-2.2 6.4-4.57 12.75-6.89 19.15 9.4 4.68 16.45 11.59 21.51 21.34zm210.12-44.8c3.25 1.71 4.53 4.58 4.24 8.04-.2 2.55-1.59 4.57-4.33 5.08-4.11.77-8.75.92-11.51-2.08-3.33-3.6-6.07-1.06-9.2-1.12 1.07 5.32 2.8 9.09 5.04 10.9 9.79 7.87 24.48 5.73 31.87-2.94.64-.76.6-2.1.77-2.79-2.02.31-3.95 1.24-4.9.63-2.78-1.75-3.78-.86-4.6 1.85-1 3.35-2.2 3.8-5.33 2.4q-2.03-.92-4.05-1.88l-.78 1.25-1.96 3.22c-.28-1.34-.61-2.67-.82-4.01a2.4 2.4 0 0 1 .23-1.47c1.07-1.82 1.84-4.1 4.8-2.14 1.36.9 3.2 1.07 5.05 1.64.57-1.34.89-2.78 1.73-3.8.7-.85 2.56-1.94 3-1.63 1.67 1.19 3.26 2.11 4.97.57a5.8 5.8 0 0 0 1.9-5.42c-.84-6-1.5-12.05-2.25-18.22-1-.23-2.24-.3-3.29-.78-2.85-1.29-4.04 0-5.15 2.54-1.5 3.43-3.5 6.63-5.43 10.16M668.75 942.2c5.19-1.38 9.85-3.1 15.29-2.94 6.43.22 8.36 5.6 12.7 8.71l6.8-9.94c-4.3-4.72-5.96-10.5-8.36-15.2l-27.76 14.45 1.33 4.9zm-172.7-627.96-27.76-34.59-5.14 5.21 18.85 35.1zm-70.37 36c1.14-3.71-.55-5.96-2.55-8.13-1.53-1.64-3.18-3.24-4.4-5.1-1.17-1.74-2.6-2.43-4.56-2.9-6.25-1.45-13.03-.91-18.84-5.21-.34 2.78-.75 5.06-.81 7.36-.02.74.72 1.91 1.4 2.2 9.87 3.98 19.8 7.86 29.76 11.78m-3.47 1.9-27.71-6.87c1.11 4.88 4.51 8.07 8.92 10.53q6.3 3.51 12.35 7.4c1.04.68 1.64 2.02 2.44 3.05l-.51.76-6.27-.63-.07.44 11.71 4.5-3.43-7.13 3.32-2.18zm260.72-96.5c4.84-1.47 9.47-2.54 12.57-6.7.52-.7 2.18-.47 3.29-.8.9-.26 2.17-.44 2.54-1.08 1.98-3.45 3.72-7.02 5.56-10.58-9.28-.85-21.26 7.44-23.96 19.16M396.5 318.2c-.95 3.2 1.18 4.02 3.46 4.86 5.2 1.92 10.47 3.76 15.54 5.98 2.15.95 3.53.6 5.05-.84.81-.77 1.79-1.36 2.55-1.94-8.29-5.84-17.28-7.41-26.6-8.06M594.1 80.43c-1.82-3.38-1.77-3.34-4.1-.38-.9 1.13-1.84 2.48-3.08 3-3.96 1.67-3.2 4.75-2.9 7.98 1.99 0 3.95-.4 5.65.09 3.33.94 5.2.11 6.38-3.5.7-2.15-.62-3.88-3.9-4.54zM397.76 291.36l33.43-4.24c-1.47-.83-2.74-1.58-4.03-2.28-.5-.27-1.09-.7-1.58-.63a354 354 0 0 0-11.67 1.8c-1.54.26-3.35.35-4.5 1.22-2.2 1.69-4.27 2.7-7.1 1.85-1.97-.58-3.63.1-4.55 2.28m38.54-4.68 16.6-1.56-4.32-3.49c-4.78-1.39-7.98 3.02-12.28 5.05m79.4 79.78-.2-.61-12.83-1.8 3.5 7.1zm1.11 184.19.64 1.14 16.16-8.9-.55-1c-5.7 2.42-11.81 4.08-16.25 8.76m-65.58-270.52c2.28.84 4.62 1.2 3.67 4.24 4.63 1.66 6.8-1.47 9.13-4.24zM390 307.2l-.1 1.05 4.83 2.13.46-.8-3.01-9.47-3.22 5.39 3.61.36zm38.38-25.57c3.4 1.87 8.48 1.05 11.68-1.68-4.2-1.77-7.91-.7-11.68 1.68m47.74 789.7c-.82-.77-2.18-1.92-.1-2.32 2.38-.46 4.9-.11 7.67-.11l-3.85 2.43z"/><path fill="#000" d="M494.3 478.5c-.48-1.42-1.23-2.8-1.4-4.25-.93-7.65-1.9-15.31-2.5-23-.81-10.47-1.28-20.97-1.9-31.45-.41-6.82-.9-13.64-1.21-20.48a55 55 0 0 1 .5-10.66c3.29 2.9 3.46 6.72 3.77 10.38a1727 1727 0 0 1 2.2 30.5c.12 1.75-.28 3.52-.29 5.27-.04 7.47-.2 14.94.04 22.39.22 6.99.9 13.96 1.37 20.94l-.58.34zm151.68-101.95c-15.53 2.32-29.89 8.62-45.25 11.9-.43-2.56 1.26-3.98 3.38-4.7 7-2.4 14.03-4.76 21.15-6.8 5.4-1.54 11-2.33 16.4-3.86 4.82-1.38 7.97-.31 11.02 3.98 2.97 4.17 7.29 7.38 10.94 11.09.64.65.92 1.66 1.36 2.51-.95.12-2.06.62-2.82.3-6.79-2.9-13.11-6.39-16.17-14.42zm29.52-25.22c3.13 4.25 5.98 8.49 9.22 12.4 4.93 5.97 10.1 11.74 15.26 17.51.77.86 1.98 1.39 3.06 1.9 2.24 1.07 4.35.91 5.8-1.32 1.68-2.6 1.13-4.93-1.14-6.76a736 736 0 0 1-13.36-11 10 10 0 0 1-2.23-2.7c-.4-.66-.69-2.14-.47-2.27.81-.45 1.96-.84 2.79-.6 1 .3 1.87 1.18 2.68 1.94 3.96 3.73 7.83 7.54 11.82 11.24 3.45 3.2 3.97 6.33 1.71 9.93-2.18 3.47-6.49 4.7-10.8 2.78-5.88-2.62-10.1-7.3-14.12-11.96-3.58-4.16-6.33-9.05-9.25-13.75-2.1-3.4-2.04-4.07-.97-7.35zM561.81 178.74c.08-1.07-.15-2.28.27-3.2 4.34-9.57 8.72-19.12 13.26-28.61.63-1.34 2.15-2.25 3.26-3.36.5 1.7 1.68 3.54 1.38 5.09-1.82 9.6-6.33 17.95-12.68 25.33l-4.29 5.02zm-38-50.74c-5.86.7-10.94 1.29-16.01 1.94-2.59.34-5.15.91-7.75 1.16-.7.07-1.5-.67-2.24-1.04.4-.76.61-1.84 1.25-2.24 5.23-3.32 10.99-5.2 17.17-4.5 2.62.29 5.5 1.24 7.58 4.68m182.45 88.34-44.07 23.84-.69-.67c.83-.88 1.52-2.03 2.54-2.58 8.36-4.6 16.76-9.16 25.22-13.58 4.33-2.27 8.8-4.25 13.24-6.32 1.12-.53 2.33-.87 3.5-1.3q.14.3.26.62zM599.72 361.6c-.13-1.4-.62-2.7-.27-3.72a86 86 0 0 0 4.15-30.4c2.65-.29 3.03 1.43 3.1 3.18a64 64 0 0 1-4.96 27.87c-.38.9-.88 1.75-1.34 2.62-.04.08-.16.1-.68.45m-93.16-220.86 4.36 3.12 14.15-.96c-2.83 3.69-5.88 5.52-9.54 6.15-2.1.36-4.33.14-6.49 0-.58-.04-1.44-.66-1.62-1.2-.73-2.12-1.25-4.32-1.84-6.48zm35.3-33.07c5.37.76 12.64 7.26 13.4 11.63zm13.23-5.8 9.35-4.25c-1.13 3.7-6.86 6.44-9.35 4.25"/><path fill="#fff" d="m570.24 716.13-.57-.67 6.84-15.96.8.34z"/><path fill="#000" d="M729.83 1001.35c-.81 1.98-1.2 4.31-2.5 5.87-9.24 11.11-21.18 19.07-32.66 27.54-4.75 3.5-9.88 6.48-14.9 9.61-1.31.82-2.82 1.33-4.8 2.25l28.2-1.11.36 1.29c-1.36.74-2.67 1.95-4.1 2.14-4.95.64-9.94.88-14.9 1.37-7.88.77-15.74 1.66-23.61 2.41-5.28.5-10.56.83-15.83 1.3-3.94.35-7.87 1.07-11.8 1.12a94 94 0 0 1-12.2-.81c-4.82-.57-9.6-1.37-14.38-2.21a54 54 0 0 1-7.2-1.84c-1.85-.61-2.8-3.9-1.92-5.6.26-.5.2-1.24.1-1.84q-.68-4.31-1.5-8.61c-.6-3.1.8-5.39 2.82-7.45.27-.28.8-.67 1-.58 2.73 1.29 3.67-1.2 5.1-2.46 4.83-4.3 9.64-8.62 14.34-13.07a4682 4682 0 0 0 32.73-31.24c1.14-1.08 2.33-2.13.78-4.39-1.31-1.9-1.34-4.8-1.6-7.3a332 332 0 0 1-1.27-16.42c-.18-3.54 1.65-3.85 4.92-3.44 5.08.65 4.42 3.89 4.3 7.02-.27 6.52-.76 13.02-1.16 19.61 4.83.3 9.6.7 14.37.85 4.59.16 9.26-.26 13.31 2.42l-.02.96c-9.93.55-19.84 1.1-30.12 1.65-1.58 5.98-6.01 10.98-10.62 15.53-9.2 9.11-18.96 17.66-28.55 26.48 12.22.71 24.64 1.83 37.21-.73-1.74.83-3.4 1.99-5.23 2.43-9.32 2.24-18.7 3.29-28.36 2.19-6.11-.69-12.53-2.06-18.05 2.08l1.58 11.19c6.92 1.98 13.63 3.59 20.12 5.85 6.9 2.41 13.65 2.16 20.65.7 7.48-1.55 15.07-2.64 22.61-3.85 3.24-.52 5.9-1.67 8.53-3.96 4.88-4.26 10.28-7.96 15.67-11.6 11.4-7.7 22.93-15.22 34.42-22.79 1.37-.91 2.85-1.64 4.27-2.46z"/><path fill="#000" d="M660.73 987.99c2.4.77 4.8 1.22 6.88 2.29 1.77.91 1.31 2.6-.5 2.83-2.37.32-4.91.28-7.2-.3-1.02-.25-1.6-2.21-2.39-3.4 1.03-.45 2.06-.9 3.21-1.42M482.07 365c-4.74-2.77-7.51-6.26-9.13-10.7-.23-.66-1.6-1.36-2.38-1.28-6.16.63-12.3 1.46-18.45 2.19-4.9.58-9.8 1.12-15.12 1.72 3.49 4.98 6.74 9.66 10.05 14.3.28.38.96.73 1.42.68a2041 2041 0 0 0 22.03-2.45c4.08-.48 8.15-1.02 12.48-1.08-1.74.76-3.4 1.88-5.21 2.2a912 912 0 0 1-23.85 3.8 49 49 0 0 1-7.3.55c-.58 0-1.19-1.12-1.71-1.77-.33-.41-.5-.94-.79-1.38-2.74-4.1-5.45-8.22-8.24-12.28-.76-1.11-1.93-1.97-2.6-3.13-.23-.41.38-1.88.84-2.02 3.07-.88 6.17-1.81 9.32-2.18a1228 1228 0 0 1 29.68-3.09c.94-.09 2.47.34 2.84 1.02 2.13 3.83 4.06 7.78 5.89 11.77.4.89.18 2.08.24 3.13zm-64.5-49.36-4.3-5.85c.2 1.86.38 2.82.36 3.78 0 .86-.24 1.72-.39 2.58-1.1-.3-2.94-.31-3.2-.96a92 92 0 0 1-3.66-11.3c-.16-.63 1.16-2.22 2.02-2.43 5.83-1.41 11.72-2.6 17.6-3.8 1.47-.3 3.01-.71 4.44-.51 3.2.45 4.6 2.93 5.38 5.75.6 2.12.71 4.39 1.5 6.41 1.05 2.65-.07 3.61-2.33 4.5-4.65 1.85-14.59 3.44-20.02 2.4l2.56-.6 17.46-3.3c-2.59-4.2-2.56-4.1-6.95-2.6-.93.3-2.27-.22-3.29-.64-.76-.33-1.33-1.12-2.28-1.97-.21 5.1-4.57 2.15-6.37 3.96l1.44 4.58zm15.2-7.33c-.79-2.77-1.2-4.72-1.94-6.53-.3-.71-1.46-1.66-2.05-1.56-5.29.97-10.54 2.14-15.95 3.28.55 1.08.88 1.93 1.39 2.67.63.93 1.29 2.31 2.16 2.5 1.5.32 3.3.7 4.21-1.72.3-.79 2.62-1.36 3.86-1.13 2.68.47 5.24 1.52 8.34 2.48zm21.7 1.72c-5.67-.02-9.26-3.18-9.3-8.15-.03-4.56 3.76-7.98 8.77-7.94 4.24.03 8.04 4.89 7.96 10.06-.06 4.04-3.39 6.33-7.43 6.04zm4.64-5.21c-1.46-3.95-3.28-6.42-7-7.18-.92 2.87-.39 5.71 1.35 7.63.74.82 3.54-.23 5.65-.45m-9.25-7.58c-3.67 3.48-3.86 5.3-1.08 6.79z"/><path fill="#000" d="M467.38 358.37c-4.16 3.39-19.65 4.66-23.4 1.92 4-3.11 20.99-4.5 23.4-1.92m-1.1-29.63c.17 2.7-1.89 5.33-4.28 5.46-3.24.19-5.52-1.59-5.67-4.48-.13-2.3.02-5.07 2.73-5.3 6.17-.51 6.98.22 7.23 4.31zm-7.4-1.8c.42 2.57 1.4 3.33 4.27 3.22-.06-2.94-1.5-3.9-4.27-3.23m4.62 39.1-11.42 2.83c.59-3.78 7.1-5.47 11.42-2.83m251.56-113.22c-1.1-2.13-2.26-4.23-3.21-6.43-.2-.47.36-1.27.58-1.92.61.26 1.6.38 1.77.83.91 2.26 1.62 4.6 2.4 6.91zm-231.32 58.82c-5.5-2.98-7.25-8.13-9.94-12.54-.17-.26.47-1.48.83-1.53 1.19-.15 3.03-.45 3.53.17a89 89 0 0 1 7.02 10.2c.38.64-.83 2.22-1.45 3.7zM586.75 84.45c1.08.7 2.33 1.26 3.2 2.18.43.46.17 1.57.24 2.38l-.95.35-3.35-3.9z"/><path fill="#fff" d="m449.86 297.25-1.08 6.79c-2.78-1.48-2.59-3.31 1.08-6.79"/></svg>