<svg xmlns="http://www.w3.org/2000/svg" width="1080" height="1080" fill="none" viewBox="0 0 1080 1080"><path fill="#fff" d="M709.48 208.72c4.92.2 9.95-.18 14.73.76 3.45.68 7.27 0 10.46 2.52 1.67 1.32 2.1 2.33 1.03 4.53-5.55-.64-11.26-1.49-17-1.9-3.09-.23-6.25.2-9.36.5-2.6.24-5.18.85-7.79.97-.99.05-2.02-.84-3.57-1.55l-3.33.55c3.3 4.31 5.77 8.93 5.57 14.79 4.7 2.46 12.27.92 14.86 7.3 2.1 5.18 7.35 9.47 5.38 16.13 1.77-3.85 4.38-6.77 8.55-7.58 5.85-1.15 13.18 3.15 11.88 8.96-.65 2.88-3.36 5.43-5.48 7.81-1.75 1.96-4 3.48-6.03 5.18-1.87 1.56-3.77 3.1-6.11 5.03 3.31.58 6.04.99 8.73 1.56.72.15 1.9.77 1.91 1.2.06 2.51 1 4.89-.47 7.58a181 181 0 0 0-8.49 18.07c-1.3 3.16-1.73 6.68-2.4 10.08-.08.4.74 1.26 1.3 1.5 2.92 1.2 6.02 2.03 8.84 3.43 3.4 1.7 3.94 7.35 1.07 9.82-1.48 1.27-1.62 2.49-1.4 4.39.36 3.32-.06 6.72.05 10.09.1 2.74.65 5.47.7 8.22.06 3.25-.17 6.51-.31 9.76-.01.25-.25.56-.46.7-3.14 2.03-5.5 5.6-9.81 5.31-3.28-.22-6.54-.76-9.8-1.04-.73-.06-1.79.16-2.2.65-2.36 2.92-4.58 5.96-6.58 8.61 5.34 4.48 10.56 8.69 15.6 13.11 9.4 8.3 18.34 17.17 28.13 24.99 15.1 12.08 29.63 24.73 43 38.7a731 731 0 0 1 14.2 15.34c2.33 2.58 2.1 3.39-.78 6.9-6.03 7.35-14.24 11.82-22.03 16.86-3.55 2.3-7.06 4.68-10.74 6.76-8.4 4.78-16.95 9.29-25.3 14.16-2.06 1.2-3.35 3.73-5.39 5.02-5.88 3.72-11.59 8.43-18.07 10.3-8.6 2.48-16.54 6.32-24.9 9.25-3.4 1.19-6.65 2.82-9.97 4.25-.25.1-.74.27-.73.33.6 3.19-2.17 2.88-3.82 3.58q-2.96 1.24-6.05 2.11c-7.98 2.3-16.09.02-24.13.5-.85.05-1.84-1.2-2.64-1.98-1.8-1.71-3.43-3.59-5.26-5.25-3.27-2.96-6.69-5.75-9.93-8.73-1.32-1.21-2.39-2.05-4.47-1.82-3.77.43-5.1-.83-6.8-5.58l-63.8 13.76 5.99 12.08c2.94-1.22 5.4-1.15 6.78 2.77-1.1.56-2.23 1.38-3.5 1.75a1168 1168 0 0 1-26.19 7.42c-6.54 1.75-13.08 3.88-19.75 4.6-12.96 1.43-24.98 6.2-37.38 9.58-10.12 2.76-19.92 6.73-29.87 10.13-1.76.6-1.76.5-3.74-.5-.38-.18-1.07.07-1.55.28-4.94 2.11-9.86 4.3-14.82 6.38-2.68 1.12-5.41 3.51-8.14-.26-.45-.63-2.36-.36-3.58-.26-5.31.4-10.47-.42-15.58-1.78-8.7-2.31-17.4-4.66-26.16-6.76-3.25-.77-6.87-.28-9.98-1.38-7.28-2.57-14.46-5.27-22.03-7.04a37 37 0 0 1-13.07-6.3c-4.8-3.56-10.2-4.3-15.64-5.56-7.86-1.8-16.03-2.65-22.9-7.7-2.15-1.6-4.6-8.09-4.33-10.2.8-6.15 1.34-12.35 2.3-18.49.75-4.89 2.07-9.68 2.91-14.57.88-5.08 1.49-10.22 2.2-15.35.2-1.49.36-2.98.55-4.61-3.43-.38-2.55-3.16-2.17-4.96 2.32-11.1 4.87-22.15 7.4-33.2.4-1.74 1.09-3.04-.27-5.08-1-1.48-.03-4.38.33-6.6.4-2.55.84-5.15 1.7-7.57.75-2.07 2.55-3.8 3.14-5.88a480 480 0 0 0 6.83-26.05c1.27-5.66 1.85-11.5 2.45-17.27.07-.67-1.58-1.95-2.63-2.22-5.06-1.31-10.2-2.3-15.27-3.55-1.78-.44-3.47-1.32-5.37-2.07l-1.9 2.3c-1.47-1.05-3.45-1.91-4.52-3.41-1.16-1.61-1.47-3.83-2.11-5.7-.38-.04-.55-.03-.7-.08-3.91-1.2-5 1.64-6.84 4.18-2.27 3.14-1.92 3.75-6.8 1.55.09-.46.43-1.15.23-1.45-3.1-4.5.74-6.92 3-9.69 2.34-2.9 4.95-5.58 7.6-8.53l4.23 3.8.75-.25c-1.45-6.76-3.05-13.5-4.3-20.3-1.75-9.36-3.7-18.74-4.62-28.2-.5-5.22 2.16-10.18 6.12-13.84 1.93-1.78 4.62-1.6 6.87-.07a17 17 0 0 1 6.83 8.78 2810 2810 0 0 1 10.24 31.77c1.37 4.34 2.47 8.76 4.45 13.37.88-1.53 1.7-3.1 2.64-4.6 5.05-8.15 9.5-16.77 15.42-24.23 3.52-4.44 6.65-9.49 11.34-12.98 1.49-1.11 2.01-3.7 4.98-2.92.87.23 2.38-1.93 3.57-3.02 4.2-3.8 8.37-7.6 12.85-11.67l1.88 1.73c.61-.42 1.4-1.03 2.25-1.53 2.06-1.22 1.34-2.16-.06-3.45-4.14-3.87-8.16-7.88-12.2-11.85-.54-.53-.9-1.23-1.44-1.77a12.1 12.1 0 0 1-3.56-10.66c.92-7.01-1.76-12.72-6.05-18.01a52 52 0 0 1-5.54-8.42c-1.88-3.57-.1-8.22 3.4-10.28a595 595 0 0 0 15.36-9.35c.68-.42 1.4-1.62 1.28-2.32-.74-4.5-1.7-8.96-2.62-13.44-.45-2.19.7-4.02 3.05-4.4a998 998 0 0 1 22.59-3.4q11.1-1.54 22.24-2.7c5.95-.6 11.93-.92 17.9-1.35.77-.05 1.55.08 2.3-.04 3.16-.51 6.15-1.26 5.43-6.06-3.68-1.85-7.92-3.73-11.91-6.04-6.85-3.97-13.04-8.78-17.9-15.15a7.1 7.1 0 0 1-.24-8.22c-7.88-6.09-13.85-13.98-19.95-21.7-4.87-6.17-8.24-13-8.86-21.1-.45-5.88-1.76-11.69-2.68-17.52-1-6.46 1.36-12.13 3.96-17.83a251 251 0 0 0 6.48-16.03c2.27-6.05 7-9.69 12.24-12.8 6.93-4.1 14.04-7.87 20.92-12.04 4.01-2.44 7.73-5.36 11.55-8.11 6.46-4.65 14.2-6.01 21.48-8.64 3.13-1.13 6.42-2.24 9.13-4.12 6.07-4.2 12.78-4.06 19.6-3.75 1.88.08 3.77.46 5.64.4a51.6 51.6 0 0 1 22.58 4.38c3.83 1.7 6.45 6.22 9.46 9.6 6.66 7.47 13.65 14.27 24.15 15.99 6.9 1.12 11.46 5.71 15.44 11.06 2.16 2.9 4.38 5.8 6.83 8.45 2.26 2.47 3.33 5.33 2.17 8.28-2.14 5.4-.79 10.32.72 15.5 2.67 9.16 4.88 18.46 5.28 28.06.2 4.5-.76 8.5-5.14 11.2-2.75 1.7-4.94 4.3-7.1 6.71-.78 1.04-1.36 2.5-2.4 3.03-2.55 1.31-5.3 2.25-8 3.22-1.4.5-2.04 1.12-2.1 2.8-.2 6.1-1.3 9.3-.36 15.28.76 4.91 2.85 12.67 3.39 17.62a420 420 0 0 0 1.96 15.12c.71 4.86.74 9.69-.52 14.44-1.33 5-5.99 5.88-9.86 7.47-7.42 3.05-15 1.86-22.58.4-8.29-1.6-16.63-2.92-24.94-4.39-1.75-.31-3.46-.76-5.71-1.27.23 1.92.47 3.62.64 5.32.4 4.23.75 8.47 1.19 12.7.19 1.83 1 3.05 2.82 4.03 5.44 2.93 10.66 6.26 16.06 9.26 1.51.84 3.38 1.01 5.04 1.61 1.21.43 2.36 1.05 4.26 1.93 2.32-1.68 5.63-3.62 8.39-6.17 5.3-4.91 8.41-4.8 14.2-.19 1.82 1.45 4.29 3.98 7.6 2.2.8-.45 2.06-.08 3.12-.08h25.43c.1.27.07-.11-.07-.16-4.52-1.62-4.55-1.85-3.6-6.92.34-1.87 0-3.86.08-5.79.14-3.3.23-6.63.67-9.9.1-.75 1.47-1.56 2.4-1.9a61 61 0 0 1 22.5-3.51c1.9.05 3.8 0 6.26 0-.33-2.37-.33-4.66-.98-6.74-1.82-5.84-3.97-11.58-5.84-17.41a10 10 0 0 1-.26-4.2c.18-1.64 2.68-2.02 4.6-.58 4.36 3.27 8.2 7.06 10.89 11.9 1.12 2.01 2.42 3.93 3.98 6.45 1.16-1.68 1.96-2.69 2.6-3.79a9.6 9.6 0 0 1 9.68-5.03c1.68.15 4.16 1.19 4.63 2.44.6 1.6.16 4.35-.95 5.66-1.88 2.22-4.61 3.72-7.01 5.5-2.55 1.9-5.13 3.75-6.96 5.09.55 1.91 1.34 3.5 1.4 5.12.2 4.24.07 8.5.07 12.7 7.49-1.29 14.84-.66 19.9-6.35-.96-1.45-2.12-2.82-2.87-4.39-1.45-3.05.12-5.63 3.43-5.75q4.63-.18 9.25-.07c1.66.04 2.86.65 1.88 2.68-.1.21-.25.57-.16.68 1.59 1.9 3.14 3.82 4.86 5.6.86.9 2.03 1.5 3.16 2.3 4.06-1.8 8.25-4.17 12.75-5.48 3.38-.99 6.69-2.02 10-3.2 4.31-1.54 7.44 1.53 10.6 3.61l5.69-1.05c0-1.23-.45-2.93.07-3.3 6.3-4.54 12.68-9.01 19.23-13.19 1.57-1 3.87-.9 5.83-1.23q4.27-.76 8.56-1.38c4.25-.62 8.52-1.18 12.96-1.79.41 3.39-1.38 4.43-3.68 5.16-5.03 1.6-10.14 3-15.02 4.96-5.26 2.12-10.31 4.76-15.43 7.23-.54.25-.89.92-1.32 1.4l-2.13.64.42.67 1.66-1.4zM408.24 957.4l15.22 31.86 2.75-1.35c.15.07.39.1.44.23 4 9.18 10.47 16.68 16.6 24.41 1.02 1.3 2.1 1.27 3.4.5 2.22-1.3 4.43-2.62 6.69-3.82 3.21-1.69 7.76-1.05 10.2 1.72 1.7 1.95 4.55 3.41 3.98 6.71a11 11 0 0 1-1.16 3.64c-2.72 4.66-5.34 9.86-10.79 11.5-4.1 1.24-6.38 4.47-9.74 6.33-3.63 2.01-7.45 4.03-11.45 4.94-3.57.82-7.72.71-9.5-4.03l-2.9 1.34c-.46-1.04-1.64-2.81-1.32-3.13 1.46-1.51 3.32-2.6 4.54-3.48l-10.56-1.45c-.82 2.59-4.43 4.56-4.1 8.7.07.87-1.1 2.26-2.05 2.72-6.25 3.04-12.59 5.9-18.91 8.78-.65.29-1.43.52-2.12.47-6.52-.51-13.04-1.11-19.55-1.64-1.52-.12-3.07.04-4.6-.07-7.16-.54-14.33-1.06-21.47-1.77-1.64-.16-2.43-1.14-2.64-3.3-.25-2.7.45-3.89 2.77-4.62.35-.11.71-.5.88-.85 1.46-3.06 3.18-6.03 4.23-9.22 1.05-3.18 1.33-6.61 2.1-9.88 1.44-6.09 2.53-12.32 4.6-18.18 2.09-5.9 3.75-6.48 9.8-6.17.77.04 1.53 0 2.66 0 1.59-6.8 3.13-13.61 4.77-20.4 2.43-10.06 4.2-20.32 8.64-29.82.33-.7-.1-2.36-.72-2.82-4.67-3.38-5.12-8.09-4.48-13.2.6-4.85 1.07-9.73 1.96-14.53.69-3.73 2.59-4.73 6.46-5.51 4.29-.88 8.47-2.09 9.85-7.33a160 160 0 0 1 4.75-14.54c1.15-3.1 2.75-6.04 3.99-8.73-2.18-.38-4.6-.74-6.98-1.21-5.18-1.03-9.2-7.47-4.77-12.96 4.75-5.9 9.58-11.73 14.27-17.67.96-1.22 1.42-2.83 2.16-4.35l1.87.86c.22-1.05.84-2.18.56-3.02-1.29-3.98-4.54-6.54-7.8-8.61-2-1.3-2.54-2.63-2.76-4.6-.9-7.96 1.8-15.08 5.6-21.77 3.63-6.37 7.9-12.38 11.52-18.75 2.13-3.74 3.48-7.91 5.32-11.81q4.95-10.47 10.1-20.85c3.27-6.6 6.7-13.12 9.96-19.73 1.95-3.95 5.71-5.21 9.3-6.87a204 204 0 0 1 38.86-13.68c4.72-1.12 9.44-2.39 14.43-1.45 5.76 1.08 8.26 3.44 8.22 10.52v1.98q6.59-3.31 13.15-6.56c.59-.3 1.3-.72 1.86-.61.83.16 1.8.59 2.25 1.22.29.4 0 1.68-.46 2.07-2.85 2.4-5.81 4.65-8.73 6.95-.27.21-.54.42-.64 1.08 4.78-1.02 9.55-2.09 14.33-3.05 4.7-.94 9.4-1.88 14.12-2.6 1.68-.25 3.68-.46 4.5 1.91.1.3 1.23.4 1.82.3 6.1-1.05 12.16-2.26 18.27-3.22 3-.48 6.05-.67 9.08-.68.95 0 2.1.84 2.8 1.62 1.95 2.14 4.14.53 6.06.4 6.02-.45 11.99-1.46 18-2.08a337 337 0 0 1 15.25-1.17c.77-.04 1.56.6 2.24 1.36q9.52-.99 19.03-1.93c2.55-.25 5.1-.49 7.66-.55 1.92-.06 4.04-.69 5.4 1.65.32.53 1.71.57 2.62.59 4.02.06 8.05-.1 12.06.11 1.03.06 2.83 1.2 2.83 1.84 0 1.42-.97 2.72-2.88 2.7-3.44-.05-6.89-.12-10.33.06-9.28.49-18.56 1.02-27.83 1.68-9.1.65-18.21 1.49-27.32 2.22-3.02.24-6.03.35-9.04.62-3.65.32-7.28.93-10.93 1.05-3.3.1-6.63-.62-9.9-.4-8.32.54-16.62 1.36-24.92 2.17-4.95.49-9.93.92-14.82 1.8-6.08 1.09-12.09 2.64-18.14 3.93-1.97.41-3.92 1.7-6.02.15-.44-.32-1.35-.2-1.97-.03-3.42.94-6.11-.7-9.21-2.5-2.88 6.4-5.84 12.85-8.67 19.35-2.3 5.25-4.46 10.57-6.64 15.87-3.96 9.66-7.76 19.38-11.89 28.96-2.18 5.08-5.08 9.85-7.37 14.9-2.98 6.55-5.59 13.3-8.58 19.85-.66 1.45-2.11 2.66-3.45 3.66-5.84 4.4-12.76 4.78-19.7 5.02-2.63.1-3.73 2.05-4.81 4-1.97 3.52-3.89 7.07-5.5 10.03 2.65 2.2 5.45 4.1 7.7 6.5 2.3 2.46 1.82 5.86 1.81 8.98 0 .32-.28.78-.56.92-2.5 1.29-5.1 3.65-7.56 3.52-4.87-.24-5.56 2.76-6.59 6.03-.28.88-.76 1.69-1.16 2.55-2.13-1.39-3.75-.64-4.46 1.58-1.56 4.92-3.34 9.76-4.97 14.66-.64 1.93.17 2.88 2.01 3.95 4.69 2.71 9.27 5.7 11.6 11 1.34 3.04.3 5.76-1.18 8.26q-3.33 5.72-7.2 11.08a25 25 0 0 0-4.84 13.55c-.07 1.14-.76 2.25-1.27 3.64z"/><path fill="#fff" d="M488.34 973c2.26 1.49 2.98-4.2 5.9-.14l-.17-2.72c2.02-.2 4.1-.18 6.05-.64 2.28-.53 4.42-1.65 6.69-2.23 4.52-1.15 9.09-2.1 14.35-3.3l3.9-10.25c1.51-4 2.1-4.34 6.27-3.67.45.07.93 0 .64 0 1.03 1.22 2.1 1.93 2.34 2.85.74 2.78 3.7 4.44 3.43 7.8-.31 3.77-.07 7.58-.07 11.47l-3.26.42c-.7 1.96.19 2.78 1.84 3.73 4.86 2.79 9.8 5.48 11.56 11.58 1 3.44 2.3 7 4.34 9.87 2.29 3.23 5.47 5.86 8.43 8.56 5.39 4.91 12.61 5.55 19.06 8 4.57 1.73 9.08 3.62 13.65 5.37 1.57.6 3.26.9 4.84 1.48 5.28 1.94 10.4 4.77 15.85 5.67 5.68.95 11.67-.01 17.52-.01 3.86 0 7.73.04 11.56.38 3.16.27 6.25 1.29 9.4 1.45a8.6 8.6 0 0 1 7.28 4.38c2.3 3.86 4.3 7.94 6.09 12.08 2.36 5.49 2.8 10.99-1.1 16.16-.4.55-.24 1.59-.7 2.04-.7.67-2.08 1.65-2.52 1.4-4.42-2.57-8.74-.91-13.1-.03-.45.09-.96.32-1.37.21-6.02-1.48-11.23 2.09-16.92 2.66-2.4.24-4.79.79-7.12 1.44-1.49.42-2.83 1.36-4.3 1.91-1.57.58-3.2 1.26-4.83 1.38-3.44.24-6.91 0-10.36.21-3.48.21-7 .48-10.41 1.17-6.56 1.31-13 .69-19.53-.14-3.39-.42-6.9.12-10.35.22-5.56.15-11.12.19-16.67.49-3.17.17-6.37.53-9.47 1.2-12.11 2.64-24.33 3.92-36.71 3.17-3.15-.19-6.24-1.34-9.38-1.55-4.3-.27-8.62-.21-12.92-.02-4.83.2-10.22-3.35-10.7-8.6-.13-1.46.4-3.02.77-4.49.88-3.4 1.66-6.85 2.83-10.15.95-2.68 2.47-5.15 3.65-7.75.64-1.41 1.47-2.88 1.58-4.37.76-10.36-1.62-20.4-3.31-30.51-.72-4.28-.65-8.7-.68-13.06 0-.86.96-2.1 1.8-2.5a22 22 0 0 1 5.82-1.9c3.87-.63 6.08-3.51 8.49-6.02 1.44-1.49 3.04-3.11 2.82-5.63-.2-2.1.44-4.34-2.04-5.74-.68-.38-.81-1.73-1.2-2.63l.42-.73zM644.5 639.1c-3.22-.96-5.49 1-5.32 3.34.16 2.25 1.36 5.13-2.47 5.85l-6.73-29.16c-2.4-10.47-4.93-20.9-7.14-31.4-.97-4.6-1.3-9.31-1.83-13.99-.1-.79-.02-2 .48-2.4 2.43-1.91 1.05-4.39 1.08-6.57.03-3.8-.41-7.6-.39-11.4.01-2.2 4.47-6.26 6.56-5.96.95.14 2.29 1.35 2.47 2.28.73 3.6 1.07 7.29 1.56 11 1.2.28 2.36.57 3.68.9.4 6.79.61 13.6 1.24 20.38.73 7.77 1.77 15.53 2.77 23.28.9 7 1.94 13.97 2.93 20.96.17 1.21.48 2.4.57 3.62.21 2.94.34 5.9.52 9.28z"/><path fill="#000" d="M408.05 41.97c-.43-1.26-1.1-1.61-2.22-1.6-3.53.02-4.32-1.61-3.62-5.12.79-3.94 3.29-6.72 5.67-9.46 5.2-5.98 11.03-11.18 18.65-14.19 8.2-3.23 16.4-3.76 25-1.99 3.67.76 7.45-.7 11.08-1.6 1.92-.48 3.67-1.55 5.71-.55.68.33 1.27-.12 1.9-.36 6.7-2.67 13.41-5.28 20.54-6.63.65-.12 1.3-.36 1.95-.32 1.75.12 4.13-.84 5.04.97 1.03 2.02-.15 4.23-1.4 6.1-.31.45-.71.84-1.68 1.99 4.66-1.7 8.27-.9 11.9.79 1.49.68 3.22-.53 4.86-.8 7.55-1.21 13.97 1.06 19.63 5.9 2.7 2.31 4.74 5.2 6.5 8.27.85 1.48 1.62 2.92 3.24 3.83 3.5 1.96 3.47 5.2 2.76 8.6-.09.44-.08.9-.13 1.53.43-.11.69-.13.9-.24 4.79-2.4 7.62-1.32 9.37 3.7.22.66.17 1.5 1.1 1.24 2.7-.78 1.93 1.12 1.82 2.35-.4 4.19.09 4.7 4.05 5.85 6.76 1.96 7.54 6.3 6.62 13.35-.21 1.61-1.56 3.11.9 4.48 1.4.78-.24 2.34-.57 3.53-.28 1.02-.5 1.3.72 2.38 3.13 2.75 6.56 2.88 10.25 3.21 4.7.43 7.5 4.5 6.77 9.61a27 27 0 0 1-3.8 10.28 7.5 7.5 0 0 1-3.62 3.17c-3.2 1.26-3.51 4.17-4.26 7.55 1.61-1.56 2.05-3.05 2.78-4.36.39-.7.64-1.83 1.78-1.4 1.05.4.35 1.28.28 1.98-.4 4.09-2.59 7.55-3.62 11.5l5.4-8.51c1.01 1.72.24 3.1-.37 4.17-2.49 4.43-5.56 8.42-9.8 11.4-.5.35-1.02.75-1.53.4-.78-.53.87-.85-.08-1.9-1.09 2.72-4.3 3.53-4.03 7.41a5.7 5.7 0 0 1-6.16 6.22c-3.74-.22-7.5 1.74-11.26-.1-.63 4.28-.5 8.37-1.22 12.4-.4 2.24 0 4.64 3.12 5.67 3.31 1.1 4.18 3.16 3.7 6.58-.14.97.21 1.72.85 2.32 1.7 1.6 1.67 3.52 1.1 5.55-.02.1-.12.18-.11.26.3 4.58-1.3 9.01-.48 13.73.82 4.8-.29 10.05 1.73 14.58 1.33 2.96.94 5.94.49 8.37a11.5 11.5 0 0 1-7 8.48c-2.74 1.04-4.11 3.3-6.27 4.76-1.27.86-2.4 1.57-3.93 1.09-.5-.16-.92-.28-1.33.05-3.75 2.96-7.92 1.56-12.03 1.27-3.31-.23-6.59.75-9.95.55-2.82-.16-5.67-.32-8.52.43-1.35.35-2.8-.24-4.3-.75-2.76-.93-5.94-.32-8.85-1.35-.6-.22-.74.57-.62.98.27.97-.84 2.36.8 2.92a22 22 0 0 1 9.3 5.81c2.83-1.16 3.22 2.81 5.95 2.73 1.81-.05 3.44 2.15 5.02 3.52 1.63 1.4 4.25.66 5.28-1.2 5.92-10.62 15.88-11.94 23.25-2.73 1.1 1.39 1.73 1.94 3.36 1.14.9-.44 2.03-.41 3-.74.55-.19 1.2-.33 1.34-1.22 1.5-9.23 7.64-10.93 14.05-10.17 1.1.13 1.95.76 1.99 1.68.03 1-1.06 1.26-1.95 1.17-3.99-.38-5.99 2.4-8.05 5.05-.52.66-1 1.87.46 1.8 4.57-.24 9.08 1.21 13.87.43-.85-1.3-.72-2.64-.72-3.97 0-4.98.03-9.96-.1-14.93-.08-2.75 1-4.7 3.56-5.5 8.12-2.57 16.3-4.96 24.96-4.61 1.5.06 1.72-.12 1.1-1.48a519 519 0 0 1-4.96-11.1c-1.25-2.88-2.23-5.8-2.15-9.03.1-4.18 3.33-6.73 7.43-5.86 7.5 1.57 12.43 6.53 16.68 12.42q.74 1.04 1.46 2.09c4.38-3.75 9.28-5.86 15.23-4.39 4.38 1.08 6.3 4.33 4.8 8.55a21.3 21.3 0 0 1-10.59 12.15 4 4 0 0 0-2.3 2.9c-.82 3.2-1.9 6.31-2.9 9.5l2.72 1.2c1.17-7.2 4.88-12.5 12.09-14.26 8.7-2.13 16.86-.77 24 5.09 1.25 1.01 1.36 3.43 3.1 3.3 1.32-.1 2.47-1.7 3.83-2.32 3.82-1.73 7.38-4 11.81-4.34 3.69-.28 6.54.62 8.84 3.46.34.42.82.74 1.12 1 9.54-10.04 20.41-17.8 34.3-19.57 6.95-.89 14.17-1.04 21.24.26 1.37.26 2.93.68 3.2 1.98.25 1.17-1.1 2.02-2.17 2.74-7.73 5.25-16.59 8-25.18 11.34-1.29.5-2.61.92-3.92 1.58 5.22-.08 10.3.61 15.31 1.92 2.06.53 3.94 1.41 5.73 2.5.81.5 1.5 1.23 1.27 2.36-.21 1.02-1.1 1.28-1.9 1.41-2.9.45-5.8 1.07-8.71 1.14-10.5.25-20.95 1.65-31.59 1.13.31 2.02 1.76 3.51 1.47 5.56-.2 1.4-1.14 1.89-1.83 1.2-1.56-1.57-4.1-2.12-4.96-4.33-1.26-3.27-3.55-5.78-5.56-8.53-1.82-2.48-3.94-2.93-6.7-2.12-4.56 1.36-8.62 3.73-12.75 6-1.37.75-1 1.88-1 2.98 0 .7 0 1.46-.64 1.81-.83.46-1.27-.4-1.46-.9-.5-1.26-.98-1.06-1.82-.3-1.1 1.01-2.33 1.88-3.4 2.93 1.1 1.46 2.7.37 3.1 1.84-1.87.68-3.5.09-4.98-.96-.93-.67-1.82-.33-2.17.4-.45.94.8.76 1.24 1.14 3.03 2.6 5.66 3.36 9.87 1.08 5.13-2.79 11.41-1.57 17.19-1.3 7.56.36 14.9 2.18 22.1 4.53a20 20 0 0 1 5.82 2.86c1.7 1.25 3.24 2.69 5.18.28.58-.73 1.45-.14 2.03.36 1.22 1.02 1.38 2.75.66 3.64-1.94 2.42-.36 4.3.37 6.39.43 1.24.74 2.53 1.17 4 3.82-2.37 8.03-3.75 12.4-4.73 5.62-1.26 10.82 1.12 12.3 5.9 1.13 3.65-.64 6.68-2.44 9.52-3.24 5.1-8.51 7.61-13.77 10.15 3.63-3.66 8.04-6.61 10.4-11.73-2.37.32-3.8 1.87-5.24 3.17-1.4 1.27-2.63 2.7-4.49 3.33-.17.06-.5.2-.48.25.94 4.16-4.96 4.05-4.64 7.77 7.93.72 16.13.72 24.06 2.88-1.46.95-2.9.28-4.32.22-22.78-.85-45.57-.87-68.35-.53-10.88.17-21.77.61-32.65 1.13-12.27.58-24.54 1.06-36.8 1.71-7.23.39-14.48.6-21.69 1.16-10.4.8-20.9 1.08-31.17 3.6.29 1.46 1.47 1.58 2.3 2.09 3.42 2.06 7.8 3.41 10.03 6.37 2.47 3.27 5.7 3.2 8.61 4.36 10.47 4.16 19.44 10 24.63 20.62 2.06-4.8 2.71-5.27 7.8-4.33 6.75 1.24 13.44 3.02 20.34 3.33 5.03.22 10.03.74 15.03 1.23a506 506 0 0 1 22.81 2.66c5.15.75 10.17 1.9 15.22 3.05 1.5.33 2.57.88 3.46 2.14 1.76 2.48 3.42 2.11 4.91-.41 3-5.1 6.83-9.62 11.17-13.62a6 6 0 0 1 5.96-1.1c6.7 2.47 13.02 5.78 18.55 10.3 1.12.91 3.48 2.41 2.34 4.28-1.03 1.69-2.9-.13-4.3-.5-5.22-1.35-10.3-3.15-14.55-6.67-1.25-1.02-2.15-.46-3.1.6-3.44 3.92-6.95 7.76-10.66 11.87 5.84 2.24 11.15 5.8 17.3 7.55 2.37.68 2.84 2.84 3 4.9.55 7.15 1.6 14.24 2.86 21.32.2 1.18.68 1.3 1.64 1.36 2.46.15 4.94-.45 7.38.38.82.28 1.04-.4 1.4-1.02 1.8-3.05 2.9-6.36 3.84-9.72.64-2.27-.3-4.53-.6-6.74-.53-3.8-.75-7.69-2.04-11.37-.28-.8.23-1.4.66-2.07a71 71 0 0 0 4.67-8.71c.9-1.96.39-2.93-1.17-3.89-2.92-1.8-5.85-3.56-8.7-5.47-.75-.51-2.31-1.04-1.6-2.27.41-.72 1.71-.17 2.65.16 4.98 1.72 9.71 3.87 13.5 7.64 4 3.99 3.61 8.94-1.05 12.07-2.57 1.73-3.51 3.36-2.73 6.83 1.66 7.38 2.83 14.9.09 22.46-1.26 3.48-3.46 6.3-5.25 9.4-.6 1.03-1.7 1.1-2.8.76-2.41-.76-4.93-1.08-7.3-2.03-2.43-.97-5.59 1.17-6.2 3.79-.25 1.08.56 1.33 1.02 1.73 3.82 3.3 7.7 6.52 11.52 9.8 2.96 2.55 6 5.01 8.79 7.73 9.23 8.96 19.07 17.22 28.84 25.58a297 297 0 0 1 19.14 17.66c3.8 3.87 7.95 7.4 11.7 11.31 5.97 6.24 11.8 12.61 16.85 19.65 1.45 2.03.5 5.04-2.26 6.88a8 8 0 0 1-3.64 1.41c-2.27.14-3.64-2.25-2.52-4.23 1.04-1.85 1.9-3.05-.09-5.32a506 506 0 0 0-32.82-33.9c-15.32-14.55-31.7-27.93-46.6-42.93-3.89-3.9-8.42-7.16-12.4-11.33-4.58 7.2-9.98 13.6-15.43 19.92-2.12 2.45-3.87 5.5-7.56 6.13-1.25.21-2.54.55-3.4-.55-.9-1.18-.12-2.41.5-3.45 4.43-7.38 8.57-14.94 13.46-22.03 3.43-4.98 6.42-10.32 10.99-14.42.9-.8.42-1.43.13-2.23-2.28-6.38-4.83-12.7-5.96-19.4-.43-2.5-1.69-3.34-3.77-4.26-6.07-2.68-12.09-5.48-17.41-9.51-.78-.59-1.62-.46-2.36-.77-10.53-4.47-21.83-3.88-32.85-5.14-11.07-1.26-22.21-1.66-33.26-3.27-2.8-.41-5.6-.96-8.42-1.22-1.13-.1-2.6-.62-3.36.84-.64 1.24-.5 2.44.32 3.7 1.01 1.58 1.7 3.37 2.63 5 .76 1.35.56 2.03-1.07 1.88-1.8-.18-1.56 1.08-1.32 2.03 2.94 11.62 4.6 23.5 7.19 35.19.3 1.37.62 2.76.74 4.15.07.85.49 2.15-.9 2.36-1.14.17-1.16-.96-1.41-1.78-1.78-5.8-3.67-11.57-5.36-17.4-2-6.84-4.22-13.62-5.27-20.71-.2-1.42-.44-2.7.53-4.08a3.1 3.1 0 0 0-.12-3.77c-5.18-6.06-9.48-12.83-15-18.6-3.96-4.15-9-6.88-13.66-10.14-10.29-7.2-22.45-10.69-33.18-17-3.78-2.21-7.58-4.36-10.97-7.16-.89-.73-1.95-1.63-1.23-2.88.65-1.13 1.77-.14 2.58.06 4.36 1.11 7.98 3.85 12.01 5.7.5.23 1 .44 1.96.26-2.03-2.37-4.01-4.79-6.1-7.1-8.03-8.95-16.7-17.3-24-26.9-.51-.68-.94-1.44-1.51-2.07-.82-.88-.75-3.01-3.03-1.98-.48.22-2.16-.77-2.25-1.36-.5-3.35-3.36-2.12-5.1-2.67-3.35-1.07-7.14-.64-10.16-2.93-.36-.28-1.11-.67-1.07-.76 1.05-2.69-1.21-2.3-2.44-2.45-9.03-1.1-17.87-3.66-27.1-3.22-2.24.1-3.18.3-3.93 2.87-3.33 11.21-7.13 22.29-10.76 33.41-4.87 14.93-8.07 30.3-11.8 45.52-.67 2.74-1.52 5.44-2.29 8.15-.4 1.41-1.11 2.54-2.7 2.89.2.21.3.42.45.48 1.5.55.41 3.45 2.63 3.11 1.36-.2 2.64-1.04 3.92-1.64q4.73-2.23 9.43-4.49c.92-.44 2.27-.29 2.05-2.1-.08-.67 1.13-1.08 2.11-.93a42 42 0 0 1 15.83 5.84c2.23 1.36 2.02 2.36-.17 3.66-1.52.9-2.77 5.22-1.92 6.85 11.76 22.67 20.55 46.6 29.9 70.3 5.21 13.19 11.24 26.02 17.22 38.86 7.44 16 15.73 31.58 24.34 46.99 6.97 12.46 14.12 24.83 21.1 37.3 1.83 3.28 3.41 6.73 4.93 10.17.66 1.53.77 2.28 2.8 1.1 1.84-1.07 4.35-1.2 6.6-1.36 11.23-.8 22.32-2.65 33.37-4.69 8.03-1.48 16.01-3.32 23.47-6.85.5-.23.96-.55 1.5-.87-1.1-.66-2.03.95-3.06.01-.3-.82.42-1.22.89-1.56 1.4-1 1.04-1.96.48-3.36a45 45 0 0 1-3.12-15.42c-.71-.35-1.47.22-2.48.23.76-1.63 1.32-3.22-.76-4.14.53-1.06 1.39-.88 1.87-.85 6.14.35 7.96-4.6 10.75-8.5 2.34-3.27 6.1-4.8 9.41-6.79 1.7-1.02 2.4-1.86 2.34-3.9-.26-8.69-3.16-16.57-6.88-24.23a176 176 0 0 0-24.23-37.2c-1.97-2.31-4.7-4.22-5.97-6.85-1.75-3.6-3.19-2.6-5.4-.81-1.2.95-2.73.49-4.14.13-11.83-3-23.32-7.04-34.79-11.17-19.15-6.89-38.31-13.79-56.49-23.05-8.52-4.33-16.79-9.18-23.71-15.95-.57-.55-2.13-.99-.76-2.38.93-.95 1.55-2.14 3.23-1.22 3.98 2.18 8.08 4.17 12.03 6.42 10.03 5.73 20.65 10.15 31.38 14.35 19.71 7.71 39.76 14.5 59.62 21.83 1.5.55 3.08 1 4.46 1.78 4.76 2.67 9.43 3.51 14.93 1.76 9.62-3.05 19.64-4.52 29.65-5.77 1.19-.15 3.24-.8 3.58.5.52 1.97-1.69 2.18-3.06 2.57-8.53 2.38-17.07 4.67-25.82 7.06.98 1.77 2.78 2.52 4.12 3.7 9.9 8.66 17.14 19.3 23.21 30.83 4 7.57 7.2 15.44 8.8 23.9 1.28 6.72.83 13.5.77 20.27-.01 1.1-.86 2.3-1.6 3.24a32 32 0 0 1-10.84 9.01c-3.03 1.52-4.25 4.05-3.53 7.26.08.37.24.72.38 1.06.47 1.16-.5 2.93.59 3.5 1.36.69 3.13.62 4.73.8q12.14 1.43 24.27 2.8c2.16.25 4.32.5 6.5.63a4.8 4.8 0 0 1 3.07 1.06c-2.79 1.26-5.63.9-8.26.5-4.17-.65-8.37-.44-12.55-.83-5.37-.51-10.78-.67-16.09-1.74-.87-.18-1.4-.12-1.53 1-.34 2.76.32 5.45.93 8.03.25 1.04 2.37 1.57 3.24 2.88 3.4 5.14 6.21 10.61 9.02 16.09q2.18 4.25 4.14 8.63c.51 1.15 1.21.95 1.94.52 1.86-1.11 3.4-1.92 4.78.83.44.88 2.33 1 3.52 1.55.84.37 2.47.12 2.19 1.53-.28 1.34-1.76.69-2.75.77-2.47.2-4.8-.66-7.64-1.23 1.65 4.7 3.5 8.87 5.04 13.15a318 318 0 0 1 9.54 31.82 350 350 0 0 1 5.58 28.28c1.12 7 1.66 14.08 2.43 21.13.75 6.97 1.53 13.94 2.19 20.92.47 5.1.9 10.2 1.13 15.3.74 15.52 2.14 31.01 1.95 46.59-.02 2.31-.95 4.53.2 7.2.83 1.93-1.74 3.96-4.21 4.86-4.65 1.67-9.55 2.12-14.3 3.3-13.08 3.27-26.31 5.85-39.56 8.33-8.06 1.5-16.1 3.22-24.33 3.76-1.52.1-3.42 1.71-4.46.17-.85-1.27.56-3.08 1.11-4.53 1.21-3.15 1.53-6.46 2.3-9.68.17-.66.65-1.37-.16-1.7-1.07-.43-1.11.74-1.35 1.31-2.28 5.58-3.9 11.37-5.77 17.1-3.96 12.13-8.3 24.14-12.41 36.23-6.17 18.08-11.5 36.4-15.02 55.2a2364 2364 0 0 1-6.68 34c-1.46 7.19-2.31 14.52-3.08 21.84-.71 6.74-2.1 13.43-2.75 20.18-.74 7.62-1.88 15.16-4.14 22.45-2.94 9.46-4.33 19.26-6.76 28.82-.4 1.6 1.93 4.36 3.53 4.25.22-.02.46-.46.58-.74.4-.94.76-1.89 1.16-2.88 1.5 1.44 2.73 2.81.89 4.76-.87.91-.17 1 .61 1.48 6.34 3.84 10.3 9.17 9.76 16.95-.14 2.01.59 2.68 2.38 3.44a78 78 0 0 1 10.39 5.38c5.85 3.59 12.14 5.83 18.78 7.56 10.64 2.77 21.32 5.56 31.51 9.75 3.3 1.36 6.31 2.07 10.02 1.8 9.32-.69 18.6 0 27.54 3.25 4.19 1.53 8.25 3.3 11.85 5.97 3.28 2.43 4.7 6.08 5.92 9.79.43 1.33-.25 3.12 2.06 3.54.5.08.97 2.09.37 2.84-2.28 2.85-1.19 6.81-3.36 9.64-.27.36-.15.96.15.98 2.45.18 3.26 3.57 6.21 2.98a8.3 8.3 0 0 1 4.8.27c.62.26 1.75.23 1.51 1.28-.16.72-1.05.62-1.72.69q-6.54.69-13.08 1c-8.18.4-16.26 2.11-24.47 1.86-6.55-.21-12.52 2.48-18.78 3.7a429 429 0 0 1-26.18 4.42c-10.37 1.34-20.76 1.26-31.14.98-6.65-.18-13.22 1.07-19.78.81-5.19-.2-10.28.29-15.4.35-15.02.16-30.04 1.22-45.06.6-6.31-.27-12.59-.69-18.68-3.32-4.25-1.82-9.2-2-13.85-2.92-1.3-.26-2.6-.69-3.92-.74-2.6-.12-3.23-2.56-4.67-3.94-.78-.75-.62-2.57 1.46-2.83 4.03-.48 8.02-1.27 12.05-1.65 4.32-.4 6.75-4.58 4.69-8.4-.36-.67-.7-1.31-.39-2.16 1.77-4.83 3.52-9.68 8.74-11.96 1.29-.55 1.6-1.42 1.35-2.7a386 386 0 0 1-4.33-28.23c-.32-2.73-.52-5.47-.85-8.2-.05-.43.55-1.45-.75-1.17-1.36.28-2.64-.22-3.1-1.38-.58-1.52.5-2.84 1.62-3.7 3.7-2.88 7.83-4.9 12.6-5.06 2-.07 3.3-.18 2.83-2.73-.31-1.66 1.26-1.98 2.37-2.34.92-.3 2.14-.3 1.63-1.64-.6-1.57 1.35-4.01-1.15-4.77-7.48-2.24-6.53-5.83-3.25-11.04 1.72-2.72 2.1-5.58 2.46-8.86.77-6.94.43-13.86.98-20.77.75-9.35.58-18.68.1-28q-.49-9.97-1.4-19.89a499 499 0 0 1-1.85-34.18c-.27-9.89-.49-19.79-1.08-29.66-.4-6.78-.7-13.51.07-20.27 1.26-11 2.91-21.92 6.94-32.32.64-1.63 1.24-3.28 1.24-5.18q-2.67 6.1-5.3 12.2c-4.42 10.29-8.73 20.63-13.27 30.86-1.93 4.35-5.34 8.23-6.02 12.88-.63 4.32-2.7 7.78-4.23 11.58-3.22 7.97-10.08 10.62-17.68 12.14-3.34.66-6.62.24-9.73-1.26-2.1-1-1.16 1.3-2 1.72 4.45.06 8.62 1.1 12.69 2.47s5.48 4.65 4.72 9c-1 5.75-4.22 9.67-8.55 13.5-4.15 3.67-8.03 7.67-12.6 10.86a39 39 0 0 1-7.67 4.21c-.53.21-1.14.58-1.62.46-4.37-1.05-4.28 2.41-5.06 4.95-1.32 4.25-2.57 8.52-3.9 12.76-.26.8-.65 1.53.6 1.64 5.04.45 8.04 4.01 11.17 7.32 4.25 4.5 4.93 9.36 1.93 15.04-3.43 6.48-6.22 13.3-9.8 19.72-1.03 1.85-2.14 3.42-4.72 2.51 4 10.46 9.06 20.24 12.56 30.67.35 1.02 1.08 1.37 2 1.16 4.16-.97 6.62 1.43 8.69 4.44 4.47 6.51 8.31 13.42 12.28 20.25.69 1.18 1.34 2.21 3.47 2.5-1.17-.99-2.04-1.66-1.73-2.85.3-1.12 1.17-1.75 2-2.33 4.1-2.84 11.48-2.13 15.97 1.47 5.04 4.06 5.87 8.51 3.48 14.53-3.1 7.8-9.48 12.05-17.6 13.75a11 11 0 0 0-4.74 2.17c-4.5 3.44-9.52 5.83-15.46 5.29-1.33-.12-2.66-.41-3.64-1.33-2.77-2.61-6.54-2.83-9.82-4.2-.58-.25-1.6-.55-1.73.22-.63 3.55-3.84 4.32-6.24 5.7-5.95 3.41-11.86 6.91-18.76 8.33-6.73 1.38-13.44 1.02-20.2.8-5.66-.18-11.2-1.97-16.95-.97-2.2.38-4.33-.58-6.48-1.06a86 86 0 0 0-10.08-1.79c-3.85-.38-7.64-1.21-11.48-1.63-1.74-.19-1.58-1.07-1.13-2.1.81-1.83 2.11-2.98 4.3-3.15 3.29-.25 6.56-.79 9.86-1.09 1-.1 1.22-.53 1.33-1.41a615 615 0 0 1 1.64-11.78c1.6-10.75 4.76-20.96 10.94-30.03a13 13 0 0 1 4.58-4.27c2.32-1.27 4.63-2.03 6.76 1.44.5-5.33.98-10 2.18-14.55 3.03-11.48 6.07-22.95 10.88-33.87.36-.8 1.27-1.9-.05-2.7-4.39-2.7-4.44-7.29-4.76-11.54-.47-6.46-.06-12.9 1.8-19.18 1.64-5.54 4.52-6.25 10.16-5.02 1.84.4 1.98.18 2.5-1.46 2.26-7.08 4.76-14.08 7.16-21.12.43-1.26.74-2.02-.93-3.24-2.88-2.1-5.72-4.3-8.6-6.44-1.56-1.16-1.85-2.91-1.2-4.77q2.64-7.46 5.23-14.94c1.03-2.97 1.07-6.12 1.6-9.19 1.01-5.8 3.75-8.23 9.6-8.23h6.06c-3.62-2.8-7.05-5-9.05-8.6-.27-.5-.85-.77-.83-1.45.17-5.92-.7-11.87 2.22-17.56 2.3-4.5 3.2-9.6 5.2-14.3 2.94-6.89 7.04-13.1 11.04-19.38 6.34-9.96 12.52-20.03 17.92-30.55.76-1.48.7-1.43-.92-2.07-1.6-.64-1.8-2.17-1.43-3.5 3-10.68 4.65-21.67 7.27-32.44.8-3.3 1-6.77 1.18-10.18.54-10.67 1.51-21.3 1.93-31.99.52-13.24 1.8-26.46 2.74-39.69.8-11.12 1.76-22.22 1.74-33.39-.01-4.21.1-4.22-4-2.96-3.45 1.06-6.44 3.44-10.5 2.7-8.24-1.48-16.46-2.88-24.41-5.55a668 668 0 0 0-39.85-12.04c-18.17-4.86-36.06-10.52-53.48-17.61-5.77-2.35-11.77-4.27-17.05-7.73a3 3 0 0 0-1.23-.49c-2.45-.3-3.5-1.69-3.55-4.11-.23-10.6.88-21.12 1.54-31.67.6-9.59 2.26-19.01 3.72-28.48.78-5.16 1.91-10.27 3.1-15.36.39-1.67.29-2.51-1.41-3.28-4.3-1.95-4.68-6.17-5.18-10.08-1.3-10.24 3.37-18.37 9.6-26-11.93-13.68-20.85-29.26-28.1-45.9-1.62-3.73-3.69-7.27-5.54-10.9-.51-1-.38-1.68.18-2.91 3.23-7.24 8.98-12.41 14.05-18.15.38-.43.65-.98 1.23-1.05 3.01-.37 2.86-1.94 2.42-4.53-1.95-11.65-5.66-22.91-7.47-34.57-1.12-7.22 1.05-13.58 6.78-18.3 5.85-4.85 14.47-4.49 18.07.57 2.62 3.67 3.73 8.01 4.77 12.28 2.62 10.8 6.14 21.31 9.59 31.85.14.44-.21 1.51.8 1.42.65-.05 1.18-.46 1.24-1.3.64-9.92 8.02-16.1 13.28-23.35a179 179 0 0 1 22.9-25.9c2.23-2.08 4.65-3.93 7.05-5.82.39-.3 1.07-.24 1.9-.4-4.23-2.79-8-5.87-10.76-9.96-1.8-2.68-3.28-5.6-3.87-8.75-.4-2.1-.3-4.28.98-6.32 1.67-2.66 1.15-4.7-1.62-6.34-6.67-3.96-10.5-9.87-12.37-17.25-1.08-4.28.59-7.53 4.24-10.18 4.4-3.18 9-5.97 13.69-8.63 2.53-1.44 1.46-3.9 1.14-5.62-.8-4.25-.2-8.5-.72-12.73-.17-1.32 1.14-1.86 2.17-2.37 6.35-3.2 13.1-5.3 20.09-6.42a657 657 0 0 1 36.92-4.74c5.02-.52 10.03-1.08 15.09-1.08.66 0 1.64.41 1.84-.77.06-.36-.05-.75-.08-1.12-.61.1-1.28.07-1.83.31-.93.43-2 .9-2.49-.24-.8-1.89-2.23-1.66-3.75-1.58-1.94.1-3.86.19-4.28-2.48-.15-.96-.73-.78-1.64-.6-4.13.83-7.81.22-9.88-4.1-.04-.08-.07-.23-.12-.25-3.02-.67-5.54-1.75-5.77-5.49-.05-.7-1.13.03-1.7.25-3.5 1.35-5.36.3-5.8-3.23-.14-.99-.48-1.96-.75-3.03-1.28.84-2.48 1.55-3.58 2.38-.87.65-1.56.38-2.34-.1-.92-.57-.81-1.48-.46-2.15 1.02-1.91.08-2.42-1.57-3.19-2.96-1.39-6.22-2.55-7.78-5.85-.28-.6-.85-1.37-.67-1.81 1.23-3.1-.66-3.17-2.86-3.27-.9-.04-1.76-.65-2.65-.98-5.67-2.07-7.3-5.6-4.58-10.85 1.62-3.14.6-6.33 1.07-9.47.66-4.46-1.9-5.19-5.6-5.11a6.5 6.5 0 0 1-4.34-1.79c-2.17-2-2.6-4.06-.87-6.6 1.24-1.85 3.1-2.38 5.26-1.33.63.3 1.4.33 2.03.47 1.15-3.38-.59-5.47-2.87-7.5-2.31-2.05-3.1-4.53-1.65-7.6 1.43-3.06.77-6.8 3.03-9.68.28-.36-.22-1.4-.43-2.1-.62-1.93-1.77-3.87.26-5.68.3-.27.44-.65.2-1.03-1.99-3.06-1.13-6.95-3.24-10.1-1.85-2.78-.33-7.19 2.68-9.6a22.4 22.4 0 0 1 14.1-5.17c1.69-.02 3.49.34 2.27-2.49-.4-.95.07-2.39 1.27-2.85 1.43-.57 1.11 1.02 1.64 1.6.36.4.97.83 1.43.79 1.16-.12-.18-.82.17-1.22.44-.49.82-1.04 1.29-1.49 1.45-1.4 2.7-2.55 2.89-5.03.19-2.55 2.95-3.35 5.42-3.68 2.23-.3 4.43.25 6.52.74 2.76.64 5.4.2 8.22.31zM552.03 266.2l-.1-.1c4.03 3.3 7.83 1.25 11.26-.92 1.76-1.12 1.61-.35 1.3.7-.36 1.27.44 1.27 1.11 1.39.9.15.61-.67.82-1.13.88-1.86 1.68-3.8 2.84-5.49 1.13-1.6 1.41-2.94.07-4.47a55 55 0 0 0-27.48-17c-7.4-2.01-14.83-2.37-22.63-.32 9.1 9.18 17.78 18.38 25.05 28.8.42.6.63.7 1.25.2 1.9-1.53 4.23-1.54 6.5-1.66zm-126.67 53.99c-.71.34-1.34.57-1.89.93-8.92 5.65-17.75 11.46-27.16 16.28-1.61.83-1 1.76-.64 2.79 8.7 24.5 16.1 49.45 25.67 73.64.25.63.37 1.2-.44 2.02-1.86-4.17-3.72-8.06-5.36-12.05-9.56-23.4-19.72-46.54-28.65-70.2-.42-1.11-.96-1.73-2.37-1.98a179 179 0 0 0-30.04-2.82 129 129 0 0 1-15.13-.8c-1.94-.23-2.32-.1-2.28 1.73.1 3.71-.75 7.32-1.42 10.94-1.68 9.07-3.93 18-5.96 27-3.14 13.92-5.92 27.93-8.9 41.89-2.58 12.03-5.38 24-7.76 36.08-3.89 19.66-9.25 39.01-12.46 58.81a393 393 0 0 0-3.13 23.02c-.7 6.86-1.05 13.76-2.88 20.45-.32 1.16-.63 1.72 1.1 2.3 19 6.26 37.85 12.94 57.15 18.23 10.9 2.99 21.78 6.02 32.68 9 11.83 3.22 23.1 8.3 35.15 10.77 6.1 1.25 11.82 3.47 18.6.54 24.47-10.54 50.1-17.63 75.99-23.81 14.13-3.38 28.5-6.04 41.9-12 1.5-.67 2.6-.23 3.66.59.51-.6.33-1.02.16-1.48-6.02-15.33-13.02-30.14-21.9-44.07a802 802 0 0 1-31.96-54.78 651 651 0 0 1-14.88-30.13c-4.4-9.41-8.77-18.85-12.51-28.52a3309 3309 0 0 1-22.9-61.12c-1.3-3.56-3.65-7.28-1.4-11.54.49-.93.2-2.4.7-3.57.15-.38.41-.71-.33-1.01-3.19-1.28-6.23-2.39-9.7-.56-4.6 2.41-9.28 4.68-14.23 6.26-1.4.45-1.72.88-1.28 2.42a837 837 0 0 1 6.2 23.37c1.84 7.35 3.87 14.68 4.3 22.35-5-17.03-10.23-33.97-15.7-50.99zm-10.63-119.03c-1.3.57-1.9.95-2.58 1.13-14.67 3.97-28.72 9.68-42.85 15.18-1.2.46-2.51.83-3.42 1.92-1.75 2.1-3.25 4.83-6.8 3.25-.23-.1-.66.25-.98.44q-6 3.5-12 7.07c-.87.53-1.92 1.13-1.38 2.46 1.93 4.78 3.62 9.77 7.58 13.34 3.3 2.97 5.5 6.47 6.35 11a853 853 0 0 1 38.8-28.69c-.52 1.79-1.34 2.33-2.06 2.9-7.86 6.27-15.94 12.28-23.55 18.84-5.27 4.53-12.09 7.56-14.92 14.69-.58 1.46-.96 2.5-.14 3.92a58 58 0 0 0 12.09 14.7c1.21 1.06 2.13.89 2.77-.32.85-1.63 2.46-2.34 3.68-3.5.65-.62 1.61-1.18 1.89.28.47 2.57 1.45.17 1.55.05 2.13-2.54 4.1-5.23 6.24-7.75 5.1-6 10.28-11.91 15.42-17.87 6.7-7.75 13.29-15.57 21.64-21.73 4.76-3.51 9.17-7.5 12.51-12.53.4-.6 1.42-1.3 2.2-.5 1.53 1.62 3.1.83 4.78.44 6.48-1.51 13.11-2.64 19.72-2.4 9.15.35 18.2 1.92 26.88 5.37a126 126 0 0 1-2.16-16.7c-.2-3.33-.76-7 3.77-8.27.26-.07.38-.62.63-1.06-1.2-.26-2.27-.53-3.35-.73-7.17-1.27-14.42-1.97-21.61-3-7.82-1.1-15.68-1.51-23.52-2.07-7.5-.54-15.04.39-22.56.96-9.45.73-18.83 2-28.25 2.88-8.97.85-17.62 2.85-26.17 5.55-1.84.58-1.68 1.14-1.16 2.56a59 59 0 0 1 2.04 7c.44 1.92.62 3.86 3.4 2.37.3-.16 1.1 0 1.29.27.76 1.14 1.5.69 2.41.25 10.25-4.82 21.08-7.96 32.03-10.65 2.91-.71 5.91-1.75 9.8-1.05m24.44 643.14c1.37.35 2.8-.4 4.29-.63a31 31 0 0 0 8.54-2.79c2.62-1.28 4.78-2.45 4.8-6.2 0-2.42 1.74-4.92 3-7.24 4.79-8.92 8.78-18.18 12.66-27.53 4.81-11.61 10.28-22.95 15.54-34.37 3.82-8.3 6.93-16.93 11.11-25.08.4-.78.45-1.79 1.74-1.91 9.9-.92 19.8-2.13 29.71-2.79 9.11-.6 18.21-1.45 27.34-1.95 3.6-.2 7.23-.2 10.83-.54 8.33-.8 16.65-1.6 25-2.12 5.12-.32 10.21-.95 15.33-1.34 9.08-.69 18.15-1.48 27.21-2.26 7.36-.64 14.64.11 21.96.13 2.94 0 5.88.35 8.81.64.69.06 1.57.9 1.8-.3.21-1.15-.94-.85-1.61-.94-5-.7-10.04-.8-15.08-1.06-11.22-.6-22.35.4-33.5 1.15-10.45.7-20.87 1.94-31.31 2.74-9.9.76-19.8 1.22-29.7 1.88-10.84.71-21.7 1.4-32.54 2.27-6.64.53-13.25 1.45-19.88 2.06-6.05.57-12.02 1.8-18.05 2.37-7.74.73-15.37 2-23.02 3.3-6.14 1.05-12.17 2.83-18.43 3.08-1.91.08-4.14-.52-5.65.29-1.55.82-1.02 3.38-1.65 5.12-4.21 11.5-10.48 21.95-16.82 32.32a198 198 0 0 0-17.53 36.21c-2.2 6.13-1.32 11.22 3.17 15.77 1.66 1.69 3.57 3.16 5.18 4.9 1.77 1.9 2.95 1.44 4.23-.51 1.75-2.69 3.67-5.27 5.48-7.91 3.16-4.63 6.5-9.14 10.55-13 2.96-2.8 5.84-3.01 9.08-1.32 2.27 1.19 2.88 3.45 2.02 7.3a35 35 0 0 1-.59 2.2c-1.51 5.3-4.2 10.12-6.2 15.21-1.13 2.86-1.17 2.84 2.17 2.84zm34.83 207.7a28 28 0 0 0 4.25 4.99c.56.5.99.73 1.91.72q16.78-.23 33.58-.15c1.96.01 3.94.45 5.87.89 5.52 1.24 11 2.86 16.74 2.47 3.78-.27 7.54-.89 11.33-1.1 8.57-.48 17.16-.6 25.7-1.29 3.14-.26 6.28-.26 9.4-.56q14.14-1.36 28.28-2.78c7.54-.76 15.09-1.44 22.6-2.41 9.1-1.17 18.16-2.64 27.25-3.88 2.07-.28 2.77-1.04 1.95-3.02a17 17 0 0 1-1.14-4.65 8.1 8.1 0 0 0-4.73-6.62c-2.22-1.09-4.47-2-6.9-2.65-2.14-.57-3.06.14-4.08 1.84a99 99 0 0 1-5.5 8.21c-1.96 2.66-5.17 3.84-7.71 2.72-6.2-2.76-12.6-5.17-18.04-9.4-1.72-1.34-3.44-3.03-3.35-5.01.1-1.82-.93-1.79-1.74-2.02-3.8-1.08-7.63-2.03-11.46-2.98-3.15-.78-3.16-.75-3.08 2.55l.01.86c.44 5.49.33 6.13-4.76 5.18-4.07-.76-9.02.84-12.2-3.37-.09-.13-.34-.21-.5-.2-5 .21-9.37-2.65-14.32-2.83-2.67-.1-4.36-1.73-4.4-4.53-.08-4.02-.34-8.07.1-12.05.25-2.22.2-3.75-1.58-5.23-1.57-1.31-2.65-3.8-4.34-4.24-2.52-.65-2.91-1.77-2.85-3.92.17-6.44-3.5-11-7.69-15.27-1.07-1.08-1.91-.43-2 .62-.4 5.1-3.62 8.69-6.71 12.18-1.69 1.9-.8 2.6.47 3.63 3.85 3.16 8.25 5.31 12.9 7.01.63.23 1.84-.15 1.59 1.02a1.7 1.7 0 0 1-1.96 1.33c-2.86-.53-4.67.94-6.71 2.74-1.92 1.69-3.78 3.48-5.78 5.11-4.24 3.43-8.43 6.99-11.9 11.18-3.45 4.18-4.47 4.74-9.44 2.37a75 75 0 0 1-12.58-7.68c-1.7-1.27-3.35-2.51-4.32-4.46-.37-.74-.75-1.52.08-2.02 1.31-.8.97-1.75.67-2.91a55 55 0 0 0-3-9.09c-.98-2.14-2.28-4.11-4.5-5.3-2.72-1.44-10.82-.91-13.26.9-.62.45-.54.9-.4 1.45 1.82 7.25 2.57 14.68 3.87 22.01.24 1.41.43 2.07 2.15 1.34 6.64-2.82 12.65-.78 18.27 2.87 3.17 2.06 6.1 4.49 9.16 6.74 2.15 1.58 4.35 3.13 6.9 3.96 2.81.92 4.92-.79 7-2.47q-.1.79-.44 1.18c-3.36 3.96-8.4 4.67-13.57 1.76-4.64-2.61-8.48-6.36-12.89-9.3-4.26-2.84-8.64-5.36-14.26-3.86-2.03.54-1.76 1.3-1.49 2.74.98 5.15 1.88 10.34 1.42 15.58-.18 2.08.02 4.85-2.93 5.51-2.23.49-3.6 1.95-4.9 3.6zM416.95 95.5c4.77-.19 9.31.62 13.86 1.26 1.29.19 1.43-.6 1.67-1.34.89-2.87 3.28-3.53 5.59-2.98 5.61 1.34 11.45 1.6 16.88 3.9 3.37 1.42 4.04 1.8 3.55 5.64-.24 1.96.23 2.54 2.23 2.81 4.4.61 6.26 4.33 4.36 7.85-1.5 2.77-4.25 3.13-6.8 3.46-1.7.22-2.37.77-2.95 2.28-1.92 5.02-5.9 7.44-11.2 7q-3.13-.24-6.26-.62c-5.35-.68-7.2-2.24-8.25-6.94-.13-.64-.23-1.15-1.04-.84-1.85.71-3.79.32-5.68.35-1.12.02-1.58.3-1.29 1.47.73 3.04 3.26 5.33 3.56 8.57.02.14.65.26 1 .34 4.44.95 7.25 3.6 8.32 8.4.47-.86.7-1.37 1.01-1.83 2.09-2.99 4.03-3.36 7.14-1.3.73.5 1.31.22 2.06.17 3.5-.21 6.42 2.09 9.8 2.5.08.02.16.13.2.21.98 2.08 1.63 4.57 4.91 3.49.3-.1.9.6 1.33.99 2.35 2.09 2.81 4.8 2.64 7.79-.06.98-.52 2.8.3 2.87 3.27.29 3.42 2.97 4.3 5.02.64 1.47 1.3 1.17 2.06.34 1.73-1.87 2.14-.86 2.66.95.25.85.54 1.68.33 2.47-.24.94-.16 1.68.87 1.18 2.64-1.28 3.55.56 4.67 2.25.23.33.14 1.12.76.96 3.18-.87 3.42 2.23 5.12 3.47 2.03-1.36 3.98-2.98 6.98-1.06 1.26.8 3.47 1.63 5.13.36a9 9 0 0 1 5.78-1.91c2.21-.02 3.2-1.9 2.39-4.04a8.64 8.64 0 0 1 3.87-10.62c.76-.45 1.3-.66 1.98-.19.91.64.26 1.29 0 1.98-.65 1.65-1.35 3.3-1.76 5.02-.2.79-.26 2.66.34 2.44 1.37-.5 2.56.7 4.01-.26 2.12-1.4 4.59-2.26 6.96.05 1.04 1.02 2.99.92 3.76.27 2-1.7 4.2-1.47 6.45-1.54 1.6-.04 3.14-.79 3.81-2.06.6-1.15-.56-2.38-1.32-3.42-.34-.45-.88-.82-1.05-1.33-2.27-6.77-5.9-13-7.91-19.9-1-3.41.67-6.61 4.26-6.73a20 20 0 0 0 7.91-2.05l-2.5-.27c.75-.95 2.27-.58 2.7-2.08-2.34.15-5.16-.5-6.53.63-2.33 1.9-3.14-.29-4.63-.62-.48-.1-1.11.63-1.72.87-1.3.51-2.43.87-4.04.34-1.53-.49-3.26.89-4.28 2.24-.4.53.13 1.67-1.26 1.64-1.35-.03-1.14-1.2-1.36-1.85-.78-2.32-1.27-4.73-2-7.07-1.55-4.9-2.76-10.15-9.5-10.4-.73-.03-1.3-.22-1.7.5-.62 1.12.38.92.94 1.12.82.28 1.1.9 1.1 1.77a9 9 0 0 0 1.1 4.31c.34.66.77 1.44-.02 2.02-.77.57-1.07-.42-1.57-.7-.77-.43-1.2-1.2-2.47-.73-2.2.81-3.17-.66-3.34-2.64-.1-1.15-.04-2.13-1.28-2.87-3.02-1.8-4.97-4.64-6.77-7.57-.5-.83-1-1.6-2.08-1.73-6.06-.72-10.85-3.97-15.22-7.92a4.6 4.6 0 0 0-3.53-1.32c-3.55.11-7.25-.04-10.18-2.07-2.6-1.8-5.2-2.04-8.07-1.93-1.05.04-2.12.12-3.15-.05-.79-.13-1.82-.42-2.23-1-1.21-1.69-1.75-2.23-3.4-1.75-3.04.87-6.04.57-9.07.1-1.01-.15-2.11-.55-2.99.3-3.63 3.5-7.78 6.55-10.26 11.57zm18.45 134.38c.27 3.7-1.54 6.34-2.92 9.05-6.3 12.35-14.27 23.72-21.37 35.6a327 327 0 0 0-24.3 49.53c2.42.36 3.92-.73 5.68-2.43 4.93-4.82 10.6-8.07 17.93-5.54 1.1.38 1.77.17 2.07-1.37 1.05-5.36 1.93-10.76 3.25-16.08 6.56-26.39 15.53-51.78 29.8-74.95-2.03-.18-4.85-.18-6.5 1.17-2.75 2.25-5.8 4.23-8.2 6.9-7.71 8.55-15.58 16.96-22.85 25.9a214 214 0 0 0-18.12 26 499 499 0 0 0-13 23.54c-2.6 4.98-5.03 10.05-7.56 15.12 3.28.47 6.29.85 9.27 1.34 4.47.74 4.47.77 6.21-3.55l.07-.28a264 264 0 0 1 19.4-40.86c8.35-14.2 17.48-27.89 26.1-41.9 1.46-2.36 2.53-5.03 5.04-7.18zm182.03 9.73c.78-.15 1.5-.38 2.22-.4 9.4-.31 18.19 1.52 26.01 7.07 1.57 1.12 3.77 2.3 5.35 1.73a29 29 0 0 1 5.37-1.56c8.67-1.4 16.28.8 22.78 6.75 4.02 3.66 5.97 8.57 7.75 13.46.77 2.08 1.7 2.5 3.63 2.46 2.47-.04 4.96.18 7.43.26 7.4.24 14.83.08 22.17.08-1.5-2.68-1.87-6.2-1.95-9.63-.1-4.98-.99-9.76-2.4-14.49-1.49-5.02-4.57-8.9-9.5-10.54a56 56 0 0 0-16.66-3c-7.79-.12-15.61-.7-23.6.71 1.69 2.59 3.34 5.09 4.96 7.62.67 1.06 1.42 2.5.34 3.34-1.03.81-1.96-.56-2.8-1.28-5.77-4.92-11.54-9.86-18.07-13.79-1.26-.76-2.46-1.33-3.91-.58-2.88 1.5-5.96 1.62-9.13 1.63-6.28.02-12.08 1.58-17.2 5.5-1.66 1.26-2.64 2.55-2.78 4.66zM354.5 1013.64c3.17.63 6.3 1.23 9.41 1.93.56.13 2.95.24.36 1.44-.25.11-.1 1.07-.15 1.63a96 96 0 0 1-3.2 17.77c-.5 1.83-1.38 2.2-3.02 2.12q-4.52-.18-8.5-2c-1.1 2.48-.57 5.05-1.2 7.45-.32 1.22.3 1.71 1.4 2.01 9.55 2.57 19.37 3.34 29.42 4.6-1.62-5.63-1.67-11.21-2.14-16.73-.47-5.46-.45-11.02.98-16.44.2-.74-.03-1.72 1.33-1.51 1.25.19 2.24.47 2.18 2.04-.06 1.53.05 3.07-.08 4.59-.7 8.22-1.63 16.43-1.08 24.7.1 1.36-1.05 3.24 1.8 3.55 1.6.18 3.94 1 4.64.12 1.68-2.12 4.03-1.72 6-2.58 4.35-1.89 8.65-3.89 13.03-5.73 1.61-.68 1.26-1.43.53-2.51-5.11-7.52-10.09-15.13-15.35-22.55-3.7-5.21-7.8-10.19-14.58-11.49-4.34-.84-8.8-.49-13.14-.13-1.84.15-3.71-2.19-5.42.08-1.28 1.69-1.76 3.75-2.62 5.64-.27.59-.38 1.26-.6 1.99zM323.74 362.5c.32-1.02-.37-1.42-.57-1.98-.5-1.43-2.27-.75-2.65-1.58a381 381 0 0 1-14.44-37.01c-2.18-6.5-3.67-13.23-6.38-19.57-2.07-4.85-7.3-6.63-11.02-3.44a11.7 11.7 0 0 0-3.89 7.64c-.58 4.48.6 8.77 1.23 13.11.24 1.67 1.2 2.22 2.8 1.42 1.84-.91 3.82-.85 5.8-.96 1.68-.1 2.11 1.03 2.63 2.12.65 1.37-.5 1.94-1.38 2.4-1.4.73-2.93 1.76-4.4 1.76-3.31 0-3.55 1.1-2.72 4.05 1.36 4.86 1.1 4.96 6.09 5.24.9.05 1.97.12 2.08 1.03.12 1.05 0 2.36-1.21 2.96q-1.52.73-3.16 1.19c-.96.27-1.36.5-1.1 1.75 1.65 8.11 2.7 16.33 3.69 24.55.16 1.26.7 1.32 1.67 1.22 6.83-.7 13.55-2.16 19.52-5.52 2.73-1.54 4.8-1.38 7.42-.4zm265.12 710.54c6.8.26 15.42-.75 24-1.93 10.43-1.45 20.72-3.71 30.95-6.22 6.16-1.51 12.22-3.43 18.32-5.21 1.97-.57 1.47-2.27 1.33-3.59-.19-1.75-1.37-.39-1.93-.31-8.57 1.1-17.17 2.05-25.67 3.54a547 547 0 0 1-36.7 4.97 487 487 0 0 1-32.18 2.32c-13.4.53-26.83.29-40.08 2.89a5.3 5.3 0 0 1-2.82-.19c-8.56-3.35-17.55-3.53-26.54-3.79-4.1-.12-8.25-.06-12.29-.67-3.11-.46-6.48-.07-9.33-2.05-.49-.33-1.9-.51-1.91.41-.04 2.14-1.86 4.35.19 6.48.45.46.88 1.12.68 2.03-.44 2.01.58 2.49 2.5 2.45 10.89-.24 21.78.08 32.68-.31 10.65-.38 21.32.89 31.98-.21 1.76-.19 2.95-.54 3.98-2.08 2.07-3.1 5.26-3.72 8.6-2.06.98.48 1.84 1.09 3.06 1.3 9.7 1.62 19.47 2.18 31.18 2.25zm33.03-803.98h17.77q5.03-.02 10.03-.09c.67 0 1.43-.01 1.67-.78.15-.5.25-1.1-.47-1.45-2.34-1.15-2.66-3.62-3.37-5.68-1.83-5.33-4.87-9.64-9.84-12.37-5.92-3.24-12.1-5.49-19.04-3.8-1.7.41-3.41.65-5.19.83-9.59.99-18.03 4.85-25.4 11.14-4.02 3.44-4.64 9.03-8.46 12.72 13.52-.78 26.93-.47 40.38-.52-.3-1.5-1.34-2.2-1.93-3.2-1.04-1.73-.55-4.8.87-5.34 1.63-.62 3.62 1.06 3.52 1.43-.62 2.37 2.48 4.66-.55 7.11zm-223.03 732.55c2-1.73 3.72-3.38 5.6-4.82 3.3-2.54 6.17-5.74 10.01-7.46 1.45-.65 1.33-1.03.83-2.17a1901 1901 0 0 1-7.9-18.39c-1.56-3.65-1.53-3.67-5.18-2.02q-.13.05-.27.08c-7.87 3.35-15.93 3.94-24.13 1.44-1.01-.3-1.37-.59-1.72.73-1.95 7.51-4.05 14.98-5.48 22.76 12.73-5.68 25.05.58 28.24 9.85m-22.67-69.07q0 6.92 5.42 8.9c3.87 1.43 8.07 2 11.44 4.68.95.76 1.24 0 1.54-.8.62-1.7 1.43-3.27 3.25-4.07 2.02-.89 5.03.54 5.33 2.62.1.7-.02 1.39-.72 1.71-.18.08-.77-.24-.83-.47-.9-3.57-2.05-1.42-3.09-.12-.71.9-1.29 1.9-2.01 2.78-.46.55-.83.96-.19 1.63.56.57 1.47 1.3 1.9.95 2.77-2.23 4.99-.46 7.23.85 1.13.65 1.43.15 1.82-.78.8-1.9 1.74-3.73 2.55-5.62 2.77-6.43 6.24-12.5 9.44-18.71 1.93-3.73 1.86-4.53-1.15-7.35-2.42-2.28-5.1-4.29-7.58-6.52-1.35-1.21-1.75.2-2.02.79-1.5 3.25-.42 5.39 3.22 6.61.93.31.66.75.24 1.2-2.03 2.15-4.08 4.01-7.29 4.59-4.82.86-8.88-.72-12.88-2.94-1-.55-1.74-1.27-1.86-2.65-.5-5.68-1.27-6.16-6.65-4.52q-1.22.39-2.42.82c-.86.29-1.53.86-1.76 1.73-1.34 5.22-2.86 10.41-2.93 14.7m113.85 59.88 2.08 1.83c3.58 3.16 6.94 6.53 7.89 11.45.5 2.6.71 5.26.83 7.91.05 1.19.4 1.84 1.41 2.45 3.83 2.29 7.69 4.56 11.36 7.09 1.58 1.1 2.34.72 3.47-.48 1.64-1.72 3.26-3.46 5.17-4.94 5.1-3.95 10.31-7.75 16.16-11.14-3.93-1.36-7.5-2.76-10.04-5.74-1-1.18-2.05-1.4-3.46-1.46-2.8-.1-5.62.72-8.42-.51-8.19-3.6-16.93-4.99-26.46-6.46zm-50.1-827.05c-1.7 3-1.72 3-1.66 6.87.07 4.09-1.23 7.87-2.54 11.64-.37 1.06-.74 1.8.9 1.86q5.12.23 10.25.58c2.59.18 2.65-1.13 2.44-3.26-.35-3.5-2.64-6.27-3.15-9.72-.76-5.16-.98-10.49-3.8-15.17-.65-1.09-.6-2.52-.75-3.84-.25-2.19-.42-4.87-2.24-6.1-2.47-1.67-3.37-3.84-4.07-6.46-.4-1.46-.08-3.45-1.63-4.29-2.65-1.43-5.08-3.4-8.14-3.9-4-.66-7.6.37-10.45 3.25-2.66 2.67-2.62 5.88-1 9.1 3.7 7.4 8.58 13.9 15.74 18.3 2.96 1.82 6.3 3.14 10.1 1.14m165.42 43.03c-4 2.95-8.57 4.47-13.1 6.1-1.4.52-2.84 1.07-2.89 3.04-.11 4.02.2 8 .58 11.97.1.93.55 1.02 1.3 1.04 3.6.08 4.98 1.05 6.12 4.45.91 2.7 1.42 5.48 1.24 8.36-.07 1.1.1 1.92 1.57 1.4a38 38 0 0 1 9.58-2.28c1.9-.17 3.51-2.18 2.86-3.08-1.37-1.88.12-3.48-.4-5.19-.63-2.05-.73-4.26-.98-6.41a165 165 0 0 0-3.53-19.15c-.2-.86-.67-1.54-1.88-1.77a39.5 39.5 0 0 0-15.82.5c-2.72.61-5.57 1.06-8.45 2.56 1.16.47 2.03.65 2.68 1.12 2.7 1.95 5.31 1.49 8.18.22a56 56 0 0 1 8.83-2.96c1.23-.32 2.72-1.04 4.12.08zm-153.97 14.75c-1.68-.42-2.36.38-3.14 1.52-7.78 11.23-12.74 23.86-17.45 36.5-6.6 17.76-11.5 36.07-15.9 54.5-.2.79-.6 1.66.38 2.3.88.57 1.64.58 2.63.02 2.12-1.2 4.37-2.19 6.57-3.24 1.03-.5 1.5-1.31 1.65-2.4a399 399 0 0 1 5.94-32.22c4.42-19.59 10.12-38.8 19.32-56.98m168.33-7.57c-.8-2.76-.38-5.8-.45-8.82-.07-2.76 1.04-4.46 3.71-5.7 5.24-2.43 8.45-6.72 9.7-12.42.27-1.16-.01-1.95-1.1-2.49-2.54-1.25-4.92-.38-6.97.98-2.07 1.38-4.01 3.57-3.43 6.11.65 2.86.2 3.47-2.7 3.63-1.96.11-2.53-.85-3.2-2-1.35-2.26-2.51-4.63-3.81-6.9-2.77-4.84-6.18-9.01-11.35-11.51-1.71-.83-2.2-.33-2.23 1.34-.06 3.12 1.13 5.88 2.46 8.57 1.82 3.7 4.12 7.2 5.57 11.04.95 2.52.76 5.11 3.71 6.9 1.67 1.02 2.6 4.01 2.97 6.25.72 4.34 2.76 6.17 7.13 5zM411.2 881.07c-2.03-.28-4.04 1-6.2 1.05-2.04.05-2.5 1.19-2.96 2.73-2.77 9.27-5.55 18.55-9.61 27.35-1.05 2.27.38 3.84 1.44 4.94 1.18 1.24 3.97 2.63 4.92 2.06 2.42-1.45 5.43-2.93 5.61-6.58a5.2 5.2 0 0 1 1.54-3.3c1.28-1.28 1.51-2.87 1.9-4.52 1.62-6.85 3.35-13.69 5.99-20.24 1.43-3.55 1.56-3.5-2.63-3.5zm25.4-59.77c-1.59.11-3.94 1-5.14 3.08-5.44 9.42-12.02 18.1-17.6 27.42a35 35 0 0 0-3.59 7.97c-.2.66-.66 1.35.15 2.05 1.7 1.5 7.83 1.25 9.38-.53a44 44 0 0 0 2.94-3.81 99 99 0 0 0 7.95-13.55c3.04-6.36 7.04-12.3 9.55-18.95 1.17-3.12.74-3.65-3.63-3.68zM536 982.54c-8.15 1.14-14.6-1.59-20.9-4.87a20.7 20.7 0 0 0-13.56-2.08c-2.25.4-5.2-.63-6.57 1.1-1.32 1.68-1.08 4.5-1.83 6.71-.67 1.96 0 2.28 1.76 2.27 11.18-.07 21.59 3 31.47 8.02.94.47 1.54.62 2.06-.41 1.88-3.7 4.5-6.9 7.57-10.74M381.54 285.23q-1.86 1.97-3.74 3.93c-.83.86-1.89 1.7-3 1-3.08-1.94-4.6-.18-6.1 2.16-1.03 1.59-2.27 3.04-3.39 4.57-5.87 8-10.88 16.52-15.32 25.27 4.42-.24 8.76-.34 13.11-.03.82.06 2.11.87 2.18-.97.17-4.87 2.48-9.05 4.57-13.25 3.76-7.58 7.82-15 11.7-22.68m190.78-34.42c-.84-2.2-1.79-3.93.34-5.57.87-.68 1.06-2.43 2.64-1.95 1.29.4 2.61 1.13 2.7 2.74.11 1.94 1.99 2.55 3 2.88 1.82.6 4 .1 4.7 3.26.5-2.64-.1-3.81-2.16-4.46-2.28-.72-1.05-2.77-.94-4.15.1-1.49 1.8-1.2 2.55-.84 2.27 1.05 4.91 1.6 6.32 4.04.34.6.32 1.86 1.68 1.1.91-.5 1.6-1 1.37-2.18-.52-2.68-1.09-5.36-1.52-8.06-.2-1.27-.66-1.5-2-1.58-8.3-.52-16.58-.19-24.87-.3a40 40 0 0 1-3.99-.26c-1.3-.14-2.97-1-3.83-.48-1.4.86-.3 2.45.16 3.71.03.08.06.2.03.27-1.72 3.3.91 4.24 2.96 5.55a26 26 0 0 1 2.97 2.2c2.2 1.9 4.75 3 7.89 4.1zm174.25-58.87c-20.32-3.68-37.89 7.08-46.85 17.7 14.92-7.36 31.71-10.26 46.85-17.7M395.46 960.38v.57c2 0 4.04-.24 6 .07 2 .32 1.33-1.9 2.53-2.18-.37-1.4.02-3.69-1.36-3.99-1.95-.42-3.35-1.8-4.98-2.24-4.69-1.28-9.04-3.73-14.08-3.94-1.3-.05-1.55 0-1.85 1.08-.86 2.98-1.7 5.97-2.72 8.9-.52 1.5-.05 1.77 1.34 1.75 5.04-.05 10.08-.02 15.12-.02M453.91 98.3c-3.11-1.71-6.36-1.28-9.3-2.14-1.84-.53-4.17-1.38-5.62-.7-1.66.78-.93 3.59-1.7 5.38-.1.22 0 .52.01.84 3.1-2.22 7.35-.33 8.74 2.08 1.25 2.16-.08 8.4-2.07 9.74-2.99 2.03-6.5 1.14-8.97-2.25-1.18 2.6-.67 5.38-.77 8.11-.02.84.11 1.3 1.18 1.5 3.85.78 7.65 1.78 11.52 2.7-2.1-5.11 2.26-21.43 6.98-25.26m-84.34 902.5c8.62-.87 16.03.4 22.32 5.71.6.5 1.2.55 1.75-.09.47-.54.95-.89.72-1.91-2.2-10.07-15.4-15.84-23.08-8.8-.88.8-3.35 1.31-.53 2.95.82.47-.1 1.24-1.18 2.14m217.25-770.2c-.24-.88-.51-1.57-.62-2.3-.67-4.34-3.65-8.42-1.63-13.1.35-.8-.34-.69-.67-.82a424 424 0 0 0-7.34-2.91c-1.2-.46-2 .18-1.85 1.28.67 5.24.17 10.49.27 15.72.03 1.31.65 1.52 1.68 1.75 3.32.74 6.65.15 10.16.39M307.53 434.28c-11.28 9.72-15.3 28.55-7.44 32.92zm51.85 602.45c-1.08-5.26.38-10.32.3-15.43-.04-1.55 1.33-3.37.84-4.58-.55-1.36-2.95-.27-4.3-1.2-1.96-1.33-2.55-.13-3.06 1.54a116 116 0 0 0-3.71 16.23c-.21 1.36.37 1.22 1.14 1.21 3.09-.04 5.95.81 8.79 2.23M407.33 29.64c2.45.94 4.64 1.7 6.6 3 .35.23.9.7 1.27.26 1.95-2.34 4.22-4.54 5.62-7.19 1.05-2.02 1.78-4.2 3.6-5.65 2.47-1.97 3.82-4.4 3.73-7.75-8.86 3.47-15.25 9.72-20.8 17.33zM451.3 1030.1c6.27-3.02 9.76-7.62 11.58-13.5.84-2.68-.32-4.22-3.08-5.15-2.42-.83-4.8-.69-7.2.12-1.07.37-1.15.67-.8 1.96.42 1.52.8 3.21.63 5-.38 3.64-.45 7.33-1.14 11.56zm191.97 1.25-.45-.82c-5.64-1.05-11.35-1.25-17.07-1.31-.38 0-1.04.04-1.08.18-.88 3.54-3.47 2.25-6.14 1.69 4.51 3.84 9.42 6.02 13.75 9.1.55.39 1.18.59 1.94-.17 2.94-2.96 6.01-5.79 9.04-8.66zm-1.05-393.42c1.11-2.32.1-3.73-.07-5.2a475 475 0 0 0-2.33-17.72c-1.22-8.12-2.65-16.21-3.87-24.34-1.28-8.5-2.6-16.97-4.71-25.3-.18-.68-.1-2.1-1.18-1.93-1.18.17-.64 1.34-.5 2.15l4.87 28.47a9782 9782 0 0 0 5.56 31.8c.66 3.8 1.4 7.58 2.23 12.07M380.5 57.63c-12.52 1.22-18.2 6.32-17.28 11.18 1.97-3.12 3.87-6.12 7.64-7-1.97 1.59-4.06 3-5.43 5.25-2.5 4.12-2.47 4.6 1.35 7.55 3.48-6.21 5.76-13.35 13.72-16.98m152.04-35.2c-5.71-9.3-13.18-13.18-22.34-9.72q2.97 2.73 6.73 2.37c3.38-.33 7.25 1.27 7 3.38-.4 3.6 1.76 2.79 3.7 2.97 1.55.15 3.08.6 4.91 1M394.7 325.74c1.9.16 3.2-.07 4.12.41 2.9 1.54 5.16.42 7.44-1.23 1.06-.77 2.19-1.45 3.3-2.15.98-.61 2.63-.77 2.2-2.44-.44-1.69-2.07-1.74-3.46-1.83-5.8-.38-9.37 3.39-13.6 7.24m31.42 711.56c5.87 4.3 10.95 1.87 16 .07 2.5-.9 4.62-5.04 4.5-8.54-2.7 3.14-5.18 6.49-10 5.34-.32-.08-.72.19-1.06.34-2.77 1.21-5.68 1.94-9.44 2.79m-6.97-41.09c-.79-.9-.4-2.6-1.66-3.08-1.08-.4-1.48.96-2.15 1.55-2.47 2.13-4.97 4.24-7.26 6.55-3.08 3.1-6.9 5.42-9.5 9.04-.41.57-1.24 1.15-.69 1.84.87 1.07 1.43-.13 2.07-.53.16-.1.27-.27.41-.4 5.67-4.98 11.3-10.04 17.88-13.84.42-.24 1.25-.22.9-1.13M700.93 214.1c5.75.35 11.47.4 17.19-.13 5.53-.52 11.17.56 16.66-1.04-11.36-1.64-22.7-2.48-33.84 1.17zM404.54 961.05c-4.26 2.76-9.05 2.84-13.89 2.8-3.51-.03-7-.1-10.41-1.08-1.23-.35-2.52-.34-2.86 1.39-.36 1.9 1.17 1.13 1.98 1.45 1.66.64 3.38.43 5.09.52 5.9.33 11.72-.71 17.58-1.11 3.93-.27 4-.16 2.5-3.97zm133.88-801.89c.4.07.77.1 1.13.2 1.13.3 1.6 2.49 2.98 1.48.88-.65.18-2.34.75-3.53.25-.52-.3-1.41-.47-2.14-.57-2.46-1.34-4.9-1.6-7.4-.17-1.85 1.63-4.27-.17-5.53-1.53-1.07-3.83.56-5.83.47-.72-.04-1.5.2-1.67.77-.2.68.6 1.1 1.12 1.51.37.3.86.46 1.19.79 5.8 5.64 7.19 7.03 2.58 13.39zM660.7 252.5c.27 1.95.93 2.7 2.97 2.3 2.18-.4 4.05.24 3.4 3.21-.13.53-.1 1.52.6 1.21 3.06-1.36 5.95 2.92 9.05.18.39-.35 1.43-.31 1.85.71.33.82 1.07 1.23 2.05.82-3.72-4.63-7.3-6.15-19.92-8.44zM395.32 872.06c1.82.42 3.58.38 5.44.14a392 392 0 0 1 17.76-1.97c1.63-.14 3.2.45 4.54 1.83 1.52 1.56 3.27 3.15 5.9 3.25-4.13-5.4-7.68-6.98-13.45-6.26-3.57.44-7.18.57-10.72 1.16-3.15.52-6.47.3-9.47 1.84zm168.17 139.1a28 28 0 0 1-.69 8.74c-.56 2.69.78 3.6 2.57 4.64 1.1.64 1.55.34 1.58-.88.04-2.1-.12-4.24.23-6.29.7-4.09.68-4.33-3.69-6.21m19.01 9.7c0 2.22-.04 4.31.02 6.38.05 1.86.81 2.67 2.93 2.77 2.76.13 3.57-.62 3.47-3.44-.11-2.76-.67-4.54-3.75-4.78-.9-.07-1.77-.61-2.67-.93M388.1 92.19c6.88-9.16 14.52-15.37 26.61-8.67-1.27-3.44-5.07-5.09-9.82-4.62-6.78.67-16.23 7.29-16.79 13.3m-41.64 218.95c-5.42 2.77-8.26 7.23-10.54 12.56 2.22.02 5 .21 5.6-1.36 1.42-3.75 3.1-7.38 4.94-11.2M578.04 79.41c-.13 2.7-1.37 4.73-2.42 6.83-.43.88-1.9 1.88-.24 2.82 1.05.6 1.64 1.5 2.36 2.34.06.08.52-.09.75-.23 3.34-2.17 3.23-9.48-.45-11.76M327.99 338.9c.16 3.96-4.32 3.94-5.66 6.62 1.46 0 2.9-.13 4.32.04 1.32.14 1.83-.37 2.17-1.56 1.41-4.96 2.9-9.9 4.36-14.84l-.44-.18-7.18 11.64c1.44-.59 1.34-1.77 2.43-1.73zm89.5-234.9c.86 2.8 2.12 3.65 4.54 3.85 1.99.16 4.21-.17 6.08.93 1.58.92 1.68-.44 1.92-1.27.26-.92.73-2.08-1.06-2.24-3.74-.35-7.46-.82-11.48-1.27m124.22 129.33c-6.5-5.1-8.59-4.46-14.44.5 5-.83 9.6 1.88 14.44-.5M531.5 52.76c1.27.42 2.11.3 2.96.56 5.33 1.73 6.92 6.31 8.34 10.92 1.2 3.9 1.32 8.01 1.5 12.1.29-1.91.27-3.8.3-5.7.04-4.8-.52-9.46-2.96-13.72-2.3-4-5.48-5.39-10.14-4.17zm40.3 963.47c-.45 1.94-.05 3.78-.6 5.55-.84 2.71-.02 4.57 3.05 4.91.23-.83.51-1.71.7-2.61 1.22-5.76 1.1-6.11-3.14-7.85zM523.24 185.2h-3.64c-1.36-.02-1.49.84-1.47 1.92 0 1.09.5 1.63 1.57 1.5a597 597 0 0 0 10.13-1.25c.47-.06.85-.5.85-1.02-.01-.68-.63-.58-1.06-.62-2.38-.21-4.76-.4-6.37-.53zm-116.9-98.47c-2.78-3.11-5.6-2.4-8.74-.7-4.96 2.7-8.6 6.51-9.25 12.42 3.54-8.4 10.97-13.48 18-11.72zm12.75 944.65c-3.4-6.29-6.96-12.4-12.19-17.34 2.83 6.64 8.26 11.51 12.19 17.34m21.82-920.8c2.2.31 2.46-1.52 2.99-2.8.35-.87-2.69-3.39-3.88-3.19a3.3 3.3 0 0 0-2.78 3.43c.08 2.05 2.02 2.34 3.68 2.55zm-24.93-12.04c-1.03-.38-1.34.3-1.43.96-.16 1.05.93 1.04 1.45 1.1 4.56.6 9.15 1.05 13.6 2.33.6.17 1.17.04 1.24-.73.05-.6-.39-.78-.9-.88zm.79 13.29c.15 1 .87.88 1.54.96 2.63.29 5.28.47 7.88.95 3.39.61 3.64.44 3.28-3.27-4.03 2.36-8.51.46-12.7 1.36M524.2 23.47c2.47 1.4 5.32 1.9 7.03 4.5.33.5 2.79.14 3.39-.93.61-1.1-1-1.27-1.73-1.7-2.67-1.56-5.52-2.46-8.69-1.87m53.7 237.76c-3.67 1.23-4.54 2.8-3.27 6.23.62 1.65-.45 2.03-1.93 2.67 3.16.07 3.07.05 3.53-2.34.4-2.1 1.05-4.16 1.67-6.56M426.54 61.5c-1.1 7.92 2.13 11.8 9.09 9.67-6.51-.68-9-4.18-9.09-9.67m260 207.53c-1.67-1.42-1.96-4.9-4.18-2.12-1.57 1.96-2.78 1.62-4.52 1.24-1.76-.38-3.54-.58-5.33.88zM461.3 111.28c-.05-2.17-1.08-3.45-2.62-3.55-1.6-.1-.55 1.59-.91 2.4-.11.25-.03.58-.13.84-.32.78-.86 1.68.05 2.25.57.37 1.41.14 2.15-.2.97-.47 1.56-1.03 1.46-1.73zm80.3 25.64c-1.04-1.1.46-2.76-1.33-2.78-3.15-.06-6.25-.45-9.37-.67-.41-.03-1.06-.1-.8.7.14.42.19 1.16.81.92 3.62-1.4 6.57.98 10.68 1.83zm191.47 111.93c3.13-1.38 4.14-1.27 5.24.34.42.61.6 2.04 1.68 1.38 1.26-.76-.07-1.64-.46-2.28a4.7 4.7 0 0 0-4.04-2.24c-1.97-.09-3.6-.14-2.42 2.8m-91.03-38.65c2.72.81 5.58-1.96 7.33 1.34 0 0 .47-.27.74-.36l2.94-1.05c-3.56-.53-7.05-2.55-11.01.07M345.16 322.24c1.15.35 1.98.62 2.5-.62 1.2-2.84 2.48-5.67 3.73-8.5l-.45-.2zM408.6 59.78c-3.5-3.04-7.96-2.63-13.01 1.34 4.57-1.58 8.6-3.84 13.01-1.34m168.24 19.8c-2.29-.24-4.07-.02-5.17 1.58-.55.81.46 1.9 1.12 1.97 2.44.27 2.32-2.39 4.05-3.54M363.3 73.8c-.45 1.84-.28 2.82.18 3.82.29.62.13 1.57 1.17 1.5.83-.07 1.26-.72 1.55-1.45 1.11-2.9-2.1-1.92-2.9-3.87M490.8 18q2.13-.9 4.25-1.83c.59-.26 1.44-.52 1.12-1.32-.35-.89-1.24-1.18-2.14-.73A5.8 5.8 0 0 0 490.8 18m55.46 185.12c1.02-2.23.6-4.28.4-6.3-.01-.23-.52-.53-.85-.6-.46-.1-.66.31-.62.7.2 1.98-.73 4.13 1.06 6.2zM326.05 353.99l1.22-5.14c-1.36.8-2.53.6-3.66.83 1.12 1.2.8 3.09 2.43 4.31zm75.14-289.55c1.35-1.06 2.14-1.8 3.33-1.68 1.22.12 2.46.02 3.69.02h2.76q-8.3-.86-9.79 1.66zm17.93 101.67c.82 2.94 2.59 4.15 5.7 3.29zm130.03 68.37-6.46.98c2.52 1.2 4.6 2.53 6.46-.98M496.62 80.31c-.86-4-3.4-4.83-8.12-2.7 3.07.2 6.79-2.02 8.11 2.7m-74.56-37.14c-2.82 2.3-4.28 7.2-2.76 9.26-.28-3.52.9-6.5 2.76-9.26m-7.5 133.4c1.54 1.3 3.03 1.47 4.6.8.12-.05.11-.92-.06-1.02-1.42-.85-2.9-1.08-4.55.22m23.42-164c-2.7-1.4-4.48-.6-6.24 2.11zm178.4 212.17c.38-1.92 1.14-3.07.6-4.42-.06-.16-1.14-.2-1.3.03-.92 1.26-.3 2.48.7 4.38z"/><path fill="#000" d="M786.56 484.53c-3.82.29-7.02 1.59-10.29 2.46-23.6 6.34-47.17 12.8-70.76 19.18-7.99 2.16-16 4.18-24.01 6.28-1.2.31-2.43.59-3.54-.13-2.87-1.83-2.8-3.4.4-4.95 4.56-2.23 9.45-3.6 14.3-5.02a994 994 0 0 1 48.27-12.71c14.93-3.56 29.86-7.08 44.83-10.44 4.04-.91 8.1-1.76 12.16-2.63q2.09-.44 4.17-.94c.9-.22 1.93-1.7 2.65-.34.75 1.45-.87 2.06-1.84 2.78-7.21 5.38-14.35 10.88-22.43 15.91 2.41.84 4.41 1.4 6.3 2.25.65.29 2.33.36 1.65 1.68-.62 1.18-.9 3.17-3.09 2.72-.18-.04-.4 0-.57-.06-8.04-3.13-13.06 1.34-17.73 6.91-4.07 4.85-5.63 10.9-8.17 16.47a6.1 6.1 0 0 1-6.81 3.65c-2.1-.33-1.56-1.99-1.7-3.28-.62-5.21 3.58-8.15 5.75-12.04.63-1.12 1.63-2.02 2.46-3.03l-.44-.54q-5.22 3.17-10.45 6.31c-10.95 6.5-22.04 12.74-34.01 17.2-1.36.51-3.06 1.74-3.58-1.14-.2-1.12-1.16-.06-1.5.14-9.4 5.62-19.34 10.27-29.14 15.14-4.65 2.31-9.23 4.82-14.27 6.27-.86.24-1.68.23-2.54.29-.95.07-1.34-.62-1.75-1.25-.53-.81.3-1.16.66-1.66 1.77-2.45 4.57-3.34 7.13-4.52 12.67-5.79 25.17-11.97 38.07-17.27a171 171 0 0 1 6.33-2.48c1.07-.4 2.23-1.22 2.87.78.32 1.02 1.03-.04 1.5-.27 14.31-6.78 27.66-15.2 41.02-23.63l27.25-17.2c.21-.14.36-.39.84-.9zm-195.71-54.88c1.84.57 1.54 1.85 1.04 3.18-2.1 5.49-5.24 10.36-8.76 15-6.46 8.54-14 16.1-21.4 23.78-1.54 1.58-3.26 3.17-5.51 3.92-1.58.53-3 .1-4.1-.77-1.25-.98-.06-2.2.18-3.34 1.44-6.6 6.98-10.33 10.74-15.26 7.32-9.6 15.09-18.87 22.68-28.27 1.37-1.7 2.86-3.3 4.08-5.1 1.27-1.88 1.92-.55 2.23.44.72 2.28.33 4.5-1.15 6.45-1.11 3.15-3.51 5.6-4.71 8.68 1.83-2.76 4.96-4.8 4.68-8.7zm93.2 66.94c15.87-13.53 32.27-25.37 48.38-37.59 3.4-2.58 6.73-5.24 10.15-7.8 2.6-1.93 5.3-2.7 8.74-1.78 11.38 3.02 23.13 4.45 34.51 7.56 1.9.52 3.76 1.21 5.6 1.88.46.16.84.57.69 1.12-.18.66-.73.43-1.17.35-11.4-2.35-23.12-1.98-34.57-3.95a7 7 0 0 1-1.64-.45c-6.16-2.8-10.64.03-15.25 3.94-6.43 5.45-13.3 10.4-20 15.53a313 313 0 0 1-24.04 16.73c-3.33 2.09-6.63 4.49-11.4 4.47zM500.3 233.45c.88.15 2.17-.51 2.56.63.38 1.1-.95 1.6-1.62 2.05a78 78 0 0 1-19.38 9.3c-1.88.6-3.05 1.2-4 3.13-2.43 4.87-6.23 8.87-9.62 13.07-4.25 5.23-8.2 10.66-12.17 16.08-.66.91-1.07 2.3-2.71 2.09-2.8-.36-3.34-1.24-2.28-4.22 1.3-3.66 3.23-7.03 5.18-10.35 3.82-6.5 7.8-12.9 12.57-18.77.79-.97 1.5-2.06 2.67-2.56 8.47-3.59 16.9-7.3 25.74-9.98 1.02-.3 2-.58 3.07-.48zm70.14 75.95c-10.14-1.34-20.33-1.24-30.46-2.29-4.98-.52-10.02-.68-15.02-1.26-11.34-1.34-22.6-3.05-33.39-6.98a7 7 0 0 1-2.5-1.3c-.7-.66-2.21-.94-1.52-2.6.6-1.47 1.79-1.34 2.87-1.16 3.34.57 6.64 1.34 9.98 1.92q12.97 2.25 25.98 4.35c14.55 2.34 29.3 3.37 43.67 6.9.19.04.4.01.57.1.93.5 2.78.28 2.54 1.74-.28 1.67-1.89-.27-2.7.58zm-8.74 200.47c-2.76-.23-5.57 0-7.6-2.7-1.56-2.08-.38-2.87 1.3-3.01 17.18-1.4 33.53-6.73 50.23-10.41.36-.08.75-.16 1.06-.34 1.93-1.16 3.88-1.25 4.73 1.03.77 2.08-1.3 2.94-2.78 3.6-5.54 2.43-11.45 3.73-17.25 5.33-7.23 1.98-14.38 4.35-21.82 5.53-2.61.4-5.19 1.1-7.88.98zm34.9-102.71c.17 1.86 1.11 3.5 1.96 5.17 7.6 14.7 16.99 28.34 25.3 42.62 2.62 4.5 5.27 8.96 7.05 13.9.7 1.92.06 3.23-1.28 4.21-1 .74-2.03 1.4-2.48-1.1-.8-4.44-2.85-8.52-5.31-12.42-7.25-11.46-14.52-22.91-21.1-34.78a73 73 0 0 1-6.63-16.6c-.26-.93-.3-1.9.53-2.65.51-.47 1.12-.5 1.51-.01.34.41 1.68.7.44 1.66zm13.04-81.23c2.57.2 4.4 1.9 6.36 3.32 7.9 5.7 15.69 11.56 22.53 18.56.47.47 1 .9 1.37 1.46 1 1.49-.14 2.77-.72 3.95-.34.68-1.46.5-2.3-.02-9.79-6.22-20-11.83-28.46-19.95-1.66-1.6-1.85-3.26-1.34-5.32.36-1.41.93-2.28 2.56-2.01zm27.89 67.86c1.84 0 3.23-.28 4.45.07 1.71.48 2.68.29 4.06-1.09 1.72-1.7 4.37-.76 6.56-.6 5.18.37 10.33 1.1 15.5 1.57 2.69.24 5.3 1.09 8.13.23 1.07-.32 1.44 1.72 1.81 2.85.47 1.44-.43 2.36-1.48 3a14.4 14.4 0 0 1-6.76 1.9c-6.63.35-13.28.27-19.65-2.04-1.86-.68-4.02-.91-4.43-3.54-.14-.9-1.27-.55-2-.66-1.96-.3-4.03-.22-6.19-1.68zm84.77-88.53c-1.93.14-2.63-.7-2.2-2.56 2.2-9.8 7.8-17.76 13.82-25.49.39-.5 1-.89 1.6-1.17 1.59-.77 3.47-1.26 4.89-.21 1.65 1.22.59 3.13-.1 4.44-4.4 8.24-9 16.37-15.19 23.45-.75.87-1.48 1.82-2.81 1.54zm-2.7-25.48c-.3.82-1.05 1.38-1.82 1.95-4.27 3.16-9 5.55-13.67 8.04-7.85 4.19-15.75 8.3-23.39 12.88-.4.24-.85.4-1.25.66-.91.57-1.7.74-2.34-.4-.62-1.12-.1-1.72.79-2.36a257 257 0 0 1 22.94-15.11c4.57-2.62 9.13-5.26 14.2-6.81.9-.28 1.8-.6 2.7-.75 1.3-.22 1.5.9 1.84 1.89zm-76.96 2.47c-23.61 1.94-47.17 4.72-70.9 4.99 23.4-4.94 47.19-4.5 70.9-4.99m6.54 102.02c4.98-2.76 10.34-4.2 15.55-5.97 7.1-2.44 14.27-4.67 21.66-6.11q1.4-.25 2.82-.25c.91-.02 2.16-.29 2.25 1.05.08 1.03-.8 1.57-1.85 1.82-5.15 1.21-10.3 2.42-15.42 3.76a1699 1699 0 0 0-22.64 6.14c-.74.2-1.38.72-2.37-.44M536.2 322.3c-.56-.6-2.1.17-2.3-.81-.26-1.3 1.17-1.2 2.03-1.44 9.1-2.53 18.37-4.32 27.64-6.09 1.83-.34 4.53-.28 4.92 1.6.41 2-2.4 1.81-3.78 2.1-9.39 2-18.86 3.51-28.5 4.64zm122.85 150.31c1.03.38 1.77 1.06 1.98 2 1.5 6.58 2.97 13.17 5.42 19.48.14.35.38.63-.16.87-.73.32-1.4.15-1.77-.42a33 33 0 0 1-2.2-3.93c-2.4-5.16-4.1-10.5-3.97-16.26.01-.61-.47-1.6.7-1.73zM318.7 551.56c2.87-2.55 6.36-2.7 9.71-3.2 6.64-.99 13.3-1.84 19.95-2.74l18.62-2.45c8.36-1.1 16.7-2.4 25.08-3.26 7.28-.74 14.56-1.49 21.87-2.02 9.32-.68 18.64-1.4 28-1.58 6.27-.13 12.2.14 18.35 3.13 12.27 5.96 25.85 8.48 38.92 12.32a2997 2997 0 0 0 21.96 6.32c.49.14.94.2.97 1.04-3.79.17-7.4-.95-10.98-1.78-16.06-3.7-32.24-6.96-47.86-12.39-2.41-.84-4.95-1.5-7.14-2.75-2.72-1.55-5.42-1.42-8.27-.98-.74.11-1.5.21-2.26.2-10.9-.16-21.76.6-32.61 1.28a459 459 0 0 0-32.82 3.25c-9.29 1.26-18.66 1.84-27.96 3-10.77 1.35-21.61 1.8-32.41 2.75-.37.03-.75-.1-1.12-.15zM435 448.42c-1.11.24-.96-1.05-2.06-.79 6.37 27.01 10.7 54.5 19.69 80.9l-1 .3c-1.52-3.9-3.23-7.74-4.52-11.71a535 535 0 0 1-14.62-55.04c-1.32-6.27-2.91-12.5-3.57-18.9-.03-.28-.27-.57-.22-.82.24-1.28.12-3.07 1.6-3.36 1.3-.27 1.34 1.46 1.76 2.39 1.04 2.3 1.95 4.64 2.94 7.03m-111.47 86.35c2.13-.55 2.27-2.58 3.15-3.97.5-.8.6-1.9 1.97-.97 1.43.97 0 1.37-.34 1.9-.94 1.46-1.66 3.24-3.78 3.36-.33.01-.67-.21-1-.32m120.94-212.31c2.91-2.1 5.69-.3 8.51.15-2.84.37-5.68.73-8.5-.15M316.56 465.57c2.25.4 4.03 1.68 6.32 3.39-3.16-.03-5.05-1.11-6.32-3.39m70.9-211.61c5.44-6.4 12.86-10.06 19.81-14.36l.49.66-19.86 14.27zm187.95 790.06c.93-3.28 2.59-6.23 4.08-9.27.54-1.11.94-1.28 2.32-.98 3.04.65 6.03 2.27 9.34 1.01.87-.34.86.36.73 1.19-.76 4.7-2.6 9.05-4.26 13.46-.48 1.28-.69 2.78-1.92 3.68-2.22-1.7-1.6-4.12-1.36-6.26.26-2.33 1.12-4.59 1.54-6.92.1-.57 1.52-1.63-.17-1.91-1.03-.17-2.56-.77-2.84 1.28a44 44 0 0 1-1 4.95c-.95 3.66-2.44 4.41-5.76 2.5a68 68 0 0 1-17.06-13.68c-1.7-1.9-2.59-1.04-3.25.5-2.37 5.54-4.6 11.14-6.86 16.72-.14.33-.3.98-.2 1.03 1.52.83 3.32.18 4.92.91.9.42 1.51-.58 1.61-1.23.4-2.64 3.66-4.16 2.67-7.42-.32-1.09 3.32-2.35 4.73-1.58a9 9 0 0 1 2.28 1.71c3.54 3.87 7.76 6.96 12.06 10.32-1.54 1.12-2.8 1.36-4.63.7-4.54-1.66-8.39-4.33-12.05-7.44-1.16 2.38-2.62 4.59-3.16 7.22-.25 1.22-1 2.21-2.39 1.78-2.1-.65-4.3-.52-6.44-.98-2.59-.57-3.1-2.1-2.52-4.1a177 177 0 0 1 7.67-20.69c1.23-2.82 3.94-3.17 6.54-.91a20 20 0 0 1 3.7 3.96c1.1 1.65 10.12 9.58 11.7 10.45zm-21.6-32.56-18.6 21.16c5.26-7.86 10.25-15.93 17.71-21.92zm-46.67-888.5c-.19.66-.4 1.04-.26 1.57 1.22 4.29-.36 6.26-4.59 5.09-4.26-1.19-8.06.28-12.02.98-.4.07-.73.55-1.27.33-4.87-1.95-9.26-1.28-13.05 2.45-.99.97-1.9.6-2.85.05-1.47-.85-3.13-1.57-3.22-3.63-.05-1.13 3.3-5.5 4.4-5.5 1.43.03 2.32-.62 3.15-1.58.18-.22.5-.6.62-.55 2.65 1.02 4.8-1.11 7.46-1.08 4.85.06 9.82.29 14.61-1.09 1.5-.43 3-.57 4.51-1.23 2.54-1.12 1.67 1.7 2.31 2.76.26.44.15 1.1.18 1.44zm-4.2 18.71c-.74-.24-.67-1.18-.97-1.32-.99-.45-1.3-1.97-3.4-.29s-2.72 4.52-5.32 5.56c-.9.36-1.73 1.16-2.72 1.42-1.9.48-3.56.22-3.5-2.25.05-1.59-.52-1.85-1.84-1.33-.26.1-.55.28-.81.25-1.28-.15-3.08.94-3.54-1.23-.42-1.96 1.24-2.2 2.56-2.75 4.6-1.88 9.7-2.42 13.83-5.62 1.6-1.23 3.23.61 4.5 1.5 1.2.84 2.35 2.2 1.8 4.06zm-15.26 20.63c.16-1.04.19-2.77 1.96-2.9 1.25-.08 1.88 1.51 1.75 2.44-.19 1.3-.66 3.03-2.36 3.15-1.42.09-1.38-1.27-1.35-2.7m-.2-5.58-6.36 6.05c1.42-3.14 3.41-5.06 6.36-6.05m-90.31 155.05c6.93-21.28 19.14-39.84 29.82-59.02.6.1.69.09.73.13.06.06.13.18.12.25-.18.63-.32 1.29-.6 1.87-9.06 19.42-21.03 37.32-30.07 56.76zm301.04-57.6c1.74-.2 3.31.03 4.87.51.56.17 1.44-.2 1.4.9-.03.73-.3 1.4-.95 1.65a20.5 20.5 0 0 1-10.24 1.37c-1.22-.16-1.17-1.21-.6-2.21 1.28-2.3 3.35-2.5 5.52-2.2zm4.35-7.83c-1.2-1.44-.47-2.98.18-4.36.66-1.4 2.2-2.04 3.37-1.03.9.77 2.64 2 .97 3.7a1.7 1.7 0 0 0-.45 1.58c.53 2.55-1.53 3.5-3.05 3.5-1.61 0-1.94-1.74-1.02-3.39m-13.74-1.24c-.66 1.15-.22 3.03-2.38 3.56-1.86.44-2.7-.94-2.77-1.94-.14-1.95.05-4.2 1.34-5.74 1.37-1.64 2.83-.98 3.23 1.18.16.92.36 1.84.58 2.94m-298.35 789.32c1.5.63 3.4.77 3.52 3.05.07 1.4-.53 2.72-1.91 2.68-2.16-.06-2.75-2.03-3.2-3.76-.3-1.1.41-1.76 1.59-1.97m215.21-769.84c-1.07-3.95-1.95-3.11-5.39-2.26 1.36 1.32.88 3.1-1.08 3.77-.7.24-1.48.25-2.22.4-1.28.28-2.7.82-3.74-.28-.91-.97.44-1.7.82-2.4.63-1.15 1.35-2.69 3.25-1.87.45.2 1.2.39 1.25-.01.11-.76.19-1.63-.52-2.3-1.93-1.82-.72-3.03 1.06-3.4 2.79-.58 5.59-1.43 8.55-.42 1.81.63 1.54 2.64 2.89 3.45-.71 1.05-1.02 2.56-2.44 2.85-1.31.28-1.68 1.28-2.43 2.45zM617 248.84c-.1-1.25-.08-2.37 1.06-2.88 1.02-.46 2.1-.04 2.74.74.95 1.13 2.48.55 3.58 1.72 1.58 1.67 1.6 3.4.76 4.94-.76 1.39-4.43.89-5.66-.43-1.16-1.24-3.33-1.86-2.5-4.09zm-227.6 676.9c-.21.9-.5 1.43-1.52.77a22 22 0 0 1-5.54-4.73c-1.76-2.2-.33-3.4 1.1-4.66 1.1-.97 2.04.08 2.28.74a38 38 0 0 0 3.48 7.09c.14.22.14.54.2.78zm16.6 2.93c-1.17.15-1.84-.03-1.77-.72.15-1.61 1.75-1.5 2.79-1.97.51-.25 1.31.46 1.1.82-.55.98-1.44 1.73-2.12 1.87M552.03 266.2c-.02-2.33.33-4.6 1.7-6.51.99-1.4 2.05-2.53 1.45-4.48-.3-1.02 3.36-2.92 4.21-2.05 1.21 1.25 2.8 1.92 3.91 3.14.39.43 1.04 1.45.51 2.32-.63 1.03-1.77 1-2.78 1-.64.01-1.6-.96-1.47.6.11 1.29-.46 2.11-.98 3.24-1.57 3.37-4 2.92-6.65 2.63zM423.9 153.47c-.03-2.96 2.61-6.92 4.76-7.33 2.4-.45 1.28-1.38.36-2.07a15.4 15.4 0 0 0-7.94-3.28c-.54-.05-1.7.55-1.8-.7-.1-1.16.9-1.33 1.72-1.53 2-.49 3.94.04 5.82.63 5.18 1.63 8.2 5.54 10.55 10.13.38.74.55 1.44-.15 2.07-.69.6-.9-.31-1.35-.45-2-.6-3.86.63-5.85.5-.5-.04-.44.8-.25 1.19.61 1.23 1.2 3 2.67 2.85 1.72-.18 1.29.6 1.02 1.37-.64 1.86-1.26 3.78-3.62 4.18-2.52.43-3.59-1.21-4.52-3.09a14 14 0 0 1-1.4-4.46zm7.46 674.28c-.03-1.45.33-2.73 2-2.95 1.63-.21 3.84 2.6 3.74 4.64-.07 1.21-.8 1.98-1.9 2.15-1.57.24-3.83-2.12-3.84-3.84"/></svg>