<svg xmlns="http://www.w3.org/2000/svg" width="1080" height="1080" fill="none" viewBox="0 0 1080 1080"><path fill="#fff" d="M1022.04 947.15v4.96c-1.57 5.4-3 10.84-4.75 16.18-2.5 7.6-5.52 14.94-12.08 20.16-4.53 3.6-8.74 7.67-13.53 10.86-3.56 2.36-7.89 3.54-11.78 5.45-3.04 1.49-5.91 3.34-8.92 4.92-7.69 4.05-16.48 4.97-24.33 8.92-4.72 2.39-10.77 2.19-16.23 3.06-1.81.29-3.79.71-5.5.29a36 36 0 0 0-16.6-.07c-2.95.64-6.2 1.14-9.07.57-9.25-1.83-18.38-4.28-27.59-6.31a45 45 0 0 0-19.44-.07c-7.57 1.69-15.29 3.21-22.97 2.06-5.16-.78-9.86.36-14.69 1.22-7.95 1.41-15.83 3.95-23.81 4.31-8.94.41-17.96-1.18-26.96-1.7-9.12-.53-18.26-1.34-27.36-1.09-12.61.35-25.2 1.55-37.78 2.48-2.98.21-5.92.87-8.9 1.07-2.21.15-4.88.92-6.1-2-1.1-2.65-2.63-2.83-4.74-1.14-1.17.93-2.39 2.41-3.68 2.52-5.7.49-11.42.78-17.14.73-3.65-.03-7.4-.36-10.9-1.31-4-1.09-7.13 1.39-10.69 1.94-3.93.61-8.48 1.9-10.26 6.67-1.38 3.7-4.33 4.93-8.07 5.14-3.88.22-7.83.39-11.57 1.29-14.02 3.36-28.41 3.51-42.6 5.43a936 936 0 0 1-24.22 2.9c-3.87.42-7.77.74-11.66.79-3.46.04-6.93-.63-10.38-.51-5.22.19-10.44.71-15.65 1.23-9.82.98-19.61 2.12-29.43 3.06-2.62.25-5.3-.01-7.94 0l-9.99.07c-3.08.02-6.2-.31-9.22.1-4.9.66-9.56 1.37-13.04-3.37-.6-.83-2.07-1-2.79-1.79-1.88-2.07-4.9-4.23-5.04-6.5-.25-3.87-1.87-6.82-3.56-9.93a5 5 0 0 0-1.33-1.47 63 63 0 0 0-4.48-3.06c-.9-.55-1.9-1.16-2.9-1.26q-4.8-.5-9.6-.64c-3.83-.11-7.66-.29-11.46-.01-6.31.46-12.6 1.32-18.9 1.89-2.1.19-4.22-.01-6.33-.01-6.41-.02-12.84.13-19.24-.06-8.57-.27-17.12-.79-25.68-1.22-10.56-.52-21.12-1.09-31.68-1.59-6.83-.33-13.66-.77-20.5-.82-7.4-.05-14.8.59-22.19.38-10.27-.3-20.53-1.35-30.8-1.64-10.36-.3-20.73-.13-31.09-.03-12.84.13-25.68.43-38.53.6-7.37.1-14.73.04-22.1.14-7.49.1-15 .64-22.48.41-7.7-.24-15.38-1.12-23.07-1.81-2.2-.19-4.37-.7-6.63-1.08-2.2 3.47-3.96 3.65-5.94.29-.58-.99-.69-2.28-.93-3.45-.63-3.01.5-4.19 3.67-4.43 4.3-.34 8.6-.94 12.96-1.44-1.94-7.21-3.73-13.92-5.6-20.6-.2-.75-1.03-1.95-1.4-1.9-3.4.52-5.98-1.1-8.79-2.58-2.16-1.15-3.38-2.23-2.6-4.97H76.6c-.56-3.29-.95-6.37-1.65-9.4-.19-.81-1.35-2.1-1.92-2.02-2.74.35-4.95.31-7.4-1.72-1.37-1.12-2.92-1.81-3.54-3.6v-1.24l13.6-2.84c0-3.73.62-8.23-.13-12.48-1.57-8.93 2.06-15.34 8.9-20.2 2.44-1.73 2.75-3.76 2.68-6.06-.17-6.13-.52-12.27-.95-18.4-.17-2.51.93-3.16 3.24-3.2 6.23-.1 12.46-.4 19.42-.64-4.24-2.4-7.6-4.2-10.88-6.17a21.4 21.4 0 0 1-9.03-11.11c-.49-1.3-1.05-3.53 1.3-3.6a41 41 0 0 1 9.45.84c3.1.64 6.06 1.96 9.1 2.91 6.07 1.89 12.58 2.1 18.4 4.93.44.2 1.53-.16 1.84-.6a15 15 0 0 0 2.32-4.13c1.62-5.23 4.42-9.48 9.22-12.32 1.47-.88 2.7-2.32 4.25-2.86 3.53-1.24 7.24-2.99 10.8-2.83 3.54.15 6.07-1.11 8.86-2.53 1.12-.57 2.4-.85 3.64-1.17.61-.16 1.37.05 1.9-.22 6.8-3.37 14.07-4.3 21.52-4.38 4.06-.05 8.14 0 12.41 0 4.79-20.92 13.4-39.79 20.92-59.98-.92-.7.78-1.32-.03-1.9a33 33 0 0 0-2.49-1.6c-2.16-1.26-2.7-4.02-.92-5.8 9.87-9.9 12.51-22.55 17.74-35.09 2.42-5.8 6.27-12.06 8.78-17.82 3.71-8.52 7.12-17.1 9.2-26.2.9-3.98 2.22-8.28 6.58-9.82 1.82-.64-1.06-1.43-.46-3 1.06-2.8 2.06-5.63 3.33-8.33.72-1.52 5.5-2.97 6.69-4.15 1.95-1.94 3.61-3.53 1.77-6.67a12.8 12.8 0 0 1-1.33-9.88c1.51-5.83 5.5-8.75 11.11-7.8 2.85.5 5.67 1.15 7.7 1.56 1.47-2.74 2.82-5.2 4.11-7.7 4.14-8 8.11-16.08 12.41-24 3.73-6.85 7.84-13.49 11.76-20.24 6.95-12 10.73-25.59 19.05-36.96 4.8-6.54 8.47-13.9 12.7-20.88 2.75-4.51 5.78-8.85 8.33-13.47 2.2-4 3.72-8.4 5.87-12.45 6.82-12.8 15.97-24.18 22.1-37.46 4.94-10.72 10.98-20.94 16.77-31.24 2.53-4.5 5.5-8.91 10.5-11 3.38-1.42 7.25-1.72 10.55-3.27 9.14-4.28 18.47-4.78 28.19-2.73 3.78.8 7.67 1.07 11.51 1.58l.2-.87c-2.4-1.05-4.74-2.22-7.2-3.12-6.46-2.36-12.63-5.75-16.9-10.87-7.17-8.63-8.06-20.28-1.6-30.02 6.23-9.4 15.44-17.01 25.56-21.93 4.25-2.06 11.04-1.35 15.81-.4a64 64 0 0 0 22.8.35c3.34-.53 6.92-4.48 9.66-1.61 2.66 2.8 5.75 10.14 9.14 13.14-.27-5.52.5-10.07-1.9-14.58-6.26-11.83-12.07-23.9-18.21-35.8-.63-1.22-2.14-2.18-3.45-2.83-6.66-3.33-12.99-6.87-14.32-15.2-.8-4.97-1.56-9.94-2.54-14.87-1.63-8.13-2.8-16.35-.98-24.5 1.5-6.68 2.97-10.6 11.27-12.28 4-.8 6.9-3.24 9.5-6.05 8.82-9.5 12.42-21.55 16.15-34.02-5.23 3.4-10.3 6.4-15.05 9.84-8.18 5.9-16.1 12.09-21.66 20.81-5.6 8.81-9.45 18.32-7.55 28.66 2.2 11.86 5.86 23.46 9.02 35.13 1.04 3.86 2.49 7.6 3.76 11.4l-.71.35c-1.2-1.82-2.63-3.54-3.57-5.49-6.06-12.46-9.94-25.66-13.05-39.11-1.39-6.03-1.86-12.12-.43-18.14 3.13-13.19 10.54-23.93 20.75-32.46 8.51-7.11 17.85-13.22 26.78-19.83 5.19-3.85 10.58-7.36 15.07-12.19 3.02-3.25 6.93-5.8 10.74-8.18 7.71-4.82 16.4-7.3 25.06-9.79 10.55-3.02 21.22-5.28 32.27-5.12 7.58.12 15.18.1 22.72.7 6.2.49 12.42 1.4 18.46 2.87 4.36 1.06 8.3 3.8 12.66 4.97 8.46 2.27 15.79 6.25 21.79 12.58 3.08 3.26 6.15 6.56 8.86 10.13a2258 2258 0 0 1 25.4 33.94c4.44 6.04 6.32 13.2 7.36 20.44.66 4.62 1.39 9.71.09 13.99-1.63 5.4-4.83 10.51-8.19 15.15-5.58 7.68-11.78 14.92-17.8 22.29a6.9 6.9 0 0 0-1.58 6.44 9 9 0 0 1-.63 5.56c-1.94 4-11.78 6.1-15.52 3.6q-5.23-3.44-10.45-6.83c-.68.8-1.2 1.13-1.29 1.55-1.53 7.04-5.3 12.93-9.53 18.57-2.8 3.74-5.04 8.22-8.6 10.98-5.47 4.24-5.94 10.37-8.06 14.85 4.65 3.25 9.05 5.86 12.9 9.14 3.3 2.83 6.26 5.4 10.87 6.5 8.83 2.1 17.46 5.16 26.05 8.18 5.79 2.04 8.6 6.46 9.03 12.71.31 4.6 1.51 9.13 2.12 13.71a35 35 0 0 1 .22 7.13c-.27 3.5-.86 6.98-1.2 9.63 6.53 4.19 12.5 7.86 18.3 11.8a62 62 0 0 1 7.69 6.44c3.76 3.59 7.56 7.18 10.94 11.11 2.65 3.08 5.64 6.37 6.87 10.1 6.3 19.23 12.11 38.62 18.05 57.97 2.65 8.63 8.6 14.47 16.17 18.74 4.75 2.67 10.03 4.32 11.06 10.93.48 3.1.55 5-2.38 7.12-3.97 2.86-8.04 6.31-6.21 12.33.67 2.2 1.54 4.34 2.25 6.31-.85.47-2.27.85-2.32 1.37-.08.8.72 1.73 1.27 2.52.7 1.01 1.8 1.83 2.23 2.93 1.04 2.62 1.84 5.34 2.65 8.04.73 2.4 1.92 4.87 1.85 7.28-.1 4.03 1.63 6.94 4.05 9.77a220 220 0 0 1 6.64 8.13c.44.55.46 1.48.55 2.24.13 1.1.13 2.21.19 3.32-1.14.82-2.51 2.1-2.32 3.07.32 1.65 1.3 3.93 2.6 4.45 2.3.92 3.3 2.6 4.5 4.38.47.72 1.2 1.72 1.88 1.78 3.06.24 4.59 2.36 6.1 4.53 7.6 10.86 15.28 21.69 22.77 32.63 5.78 8.44 11.26 17.1 17 25.56 2.08 3.06 4.7 5.72 8.74 6.04 3.77.3 7.56.63 11.33.62 7.58 0 15.1.36 22.42 2.54 15.53 4.65 24.65 16.76 26.64 31.61 1.17 8.75-.32 17.36-3.05 25.71-4.26 13.08-9.68 25.58-18.42 36.41-4.08 5.07-8.33 10.01-12.1 15.3-3.53 4.95-3.13 6.04 1.67 9.69 5.61 4.26 5.4 10.75-.79 15.13l-1.58-6.25-.82-.06c-.24.85-.72 1.7-.69 2.53.1 2.22.49 4.43.64 6.66.25 3.57-.02 7.24.68 10.71a76 76 0 0 1 1.04 21.5c-.15 1.78-.63 3.6-1.32 5.24-3.17 7.5-6.6 14.87-9.65 22.4-1.01 2.5-1.15 5.33-1.7 8.04l3.37-.38 2.87 5.46c3.67-1.53 7.2-2.5 10.17-4.35 4.64-2.88 9.76-2.26 14.7-2.96 3.03-.42 6.08-.62 9.09-1.1 5.16-.83 10.28-1.95 15.46-2.65 2.54-.34 5.18.09 7.77 0 4.4-.13 8.82-.29 13.2-.64 2.63-.2 5.21-.78 7.8-1.21 3.57-.6 7.11-1.39 10.7-1.8 5.17-.57 10.4-.7 15.56-1.36 6.32-.8 12.6-2.33 18.55 1.42.67.42 1.46.78 2.24.9 6.48 1.02 10.25 5.77 13.98 10.4 1.18 1.46 1.77 3.58 2.12 5.5.5 2.79.38 5.69.82 8.5.31 1.9 1.13 3.7 1.72 5.54zm-718.11-68.54c-.41-1.43-.62-3-1.3-4.34-1.16-2.25-2.77-4.25-3.9-6.5-5.89-11.66-12.84-22.83-16.09-35.7-.58-2.27.74-4.7-1.05-6.84a5.2 5.2 0 0 1-.9-3.56c.35-3.13-.4-4.2-3.42-3.86-2.32.26-4.57.67-4.83 3.76-.07.83-.71 1.64-1.17 2.4-6.67 11.12-13.3 22.25-20.04 33.33-3.37 5.54-6.73 10.87-3.55 17.82 1.28 2.82 4.26 6.17 7.36 6.4 2.18.16 4.62-.59 6.52.16 6.03 2.38 12.2 1.44 18.33 1.49 6.1.05 12.2.04 18.3.28 2.71.1 5.4.91 8.12 1.12.95.08 1.97-.7 2.96-1.1-.41-.87-.6-2.01-1.27-2.54-1.27-1-2.81-1.63-4.06-2.32zM701.3 286.1c4.22-5.14 7.33-10.32 7.42-16.51.07-4.3-.92-8.64-1.77-12.89-1.73-8.7-7.24-15.24-13.03-22.54 4.83 17.33 5.55 34.37 7.38 51.94M118.7 894.54l.55-1.02-15.48-5.63-.34.89z"/><path fill="#fff" d="m118.7 894.53-15.27-5.77.33-.89 15.48 5.63z"/><path fill="#000" d="M710.67 634.26c-1.5-4.87-3.15-9.7-4.47-14.62a2527 2527 0 0 1-9.68-36.93c-.15-.6.65-1.79 1.32-2.19 1.33-.8 2.95-2.46 4.34-.17 1.3 2.13 2.75 4.3 3.4 6.67 3.06 11.12 5.9 22.29 8.73 33.47 1.4 5.57 2.56 11.19 3.92 17.2 3.63-2.19 6.99-4.46 10.55-6.32 10.32-5.4 20.72-10.62 31.1-15.9 3.04-1.55 6.03-3.27 9.2-4.48 1.96-.75 4.03-3.4 6.46-.31.48.6 2.55-.29 3.48.24a25 25 0 0 1 5.46 4.2c3.48 3.58 6.73 7.38 10.08 11.1l5.24-1.98c1.97 2.84.92 5.26-.49 7.65-1.93 3.27-3.89 6.53-5.51 10.13.5-.35 1-.76 1.54-1.07 3.25-1.85 4.6-1.36 6.83 1.57 3.43 4.52 7.1 8.86 10.68 13.25 10.89 13.32 21.96 26.53 29.29 42.3 1.1 2.36 2 4.8 3.1 7.48 2.91-1.81 5.68-3.9 8.73-5.4 12.84-6.34 25.94-12 40.05-14.95 7.87-1.65 15.53-.5 23.13 1.74 7.23 2.12 14.52 4.06 21.74 6.22 2.11.63 4.57 1.26 5.99 2.73a10 10 0 0 1 2.55 6.18c.03 3.38 1.62 5.68 3.4 8.17 7.91 10.99 14.36 22.71 18.01 35.87.89 3.18.56 6.05-.99 8.77-6.9 12.14-13.56 24.43-20.91 36.29-6.83 11.01-13.93 21.92-21.82 32.17-7 9.09-15.2 17.26-22.95 25.76q-4.07 4.43-8.53 8.46c-2.4 2.17-4.24 4.71-7.8 5.9-3.03 1.02-5.36 4.32-7.83 6.77-2.02 2-3.8 4.25-5.7 6.39l-.05.98-.68-.11.18.84-.62-.3-.14.48q.34-.12.65-.26l.5-.7.66-.59q3.46-3.02 6.9-6.05 1.49-1.3 2.88-2.6c8.14 20.53 5 39.99-5.37 59.58l7.66-1.58c11.7-2.43 23.4-4.77 35.06-7.33 9.2-2.02 18.53-2.34 27.8-1.66 6.42.47 12.25-1.87 18.44-2.25 4.77-.29 9.49-1.34 14.26-1.56 5.98-.29 12.05-.57 17.96.1 3.98.46 8.32 1.82 11.5 4.14 4.37 3.19 8.07 7.46 11.5 11.7 1.35 1.7 1.3 4.56 1.74 6.92.34 1.82.44 3.7.65 5.54v7.42c-.21.5-.54.97-.6 1.48-.46 3.72-.47 7.53-1.34 11.14-2.14 8.83-5.13 17.39-11.27 24.39-9.43 10.75-21.26 18.3-34.34 23.54-10.14 4.06-20.85 6.71-31.29 10.02-5.67 1.8-11.33 3.68-17.8 5.79l2.2-1.73 3.55-2.1c3.46-1.89 6.85-3.94 10.4-5.64 9.64-4.62 19.58-8.67 28.97-13.74 8.14-4.4 16.06-9.41 23.4-15.05 8.59-6.59 13.37-15.99 16.39-26.33 2.91-9.97 3.07-20.16 3.04-30.4a4.3 4.3 0 0 0-.65-2.31c-3.01-4.44-6.64-8.14-12.14-9.37-8.58-1.93-17.12-.51-25.92.53 1.3 1.46 2.93 2.5 4.24 3.84 2.13 2.18 4.38 4.37 6 6.92 2.94 4.6 3.03 10.07 3 15.25a93 93 0 0 1-3.56 24.88c-2.11 7.47-4.45 14.85-8.87 21.3-6.28 9.16-15.29 14.83-25.44 18.77-6.65 2.58-13.45 4.75-19.59 6.89l.28 3.98-3.4 2.19q-11.82.33-23.67.69c-6.62.19-13.13-1.25-19.66-1.66-10.42-.65-20.94.14-31.41.37q-12.33.27-24.65.65-8.62.27-17.22.62c-.51.02-1 .2-1.5.27-8.34 1.14-16.65 2.73-25.02 3.25-6.07.37-12.21-.81-18.34-1.08-12.12-.54-24.25-1.14-36.38-1.29-8.5-.1-17.04.26-25.53.93-4.1.33-9.08-1.45-11.31 3l-11.17-2.26.45-2.84c-2.18-2.19-4.1-1.28-6.56-.4-4.8 1.72-8.5 7.16-14.8 4.42-2.07-.9-4.71-.37-7.03-.78-2.85-.51-5.62-1.66-8.46-1.89-2.93-.24-5.95.72-8.86.42-4.81-.5-7.52 2.95-9.2 5.9a7.7 7.7 0 0 1-5.2 4.06c-1.61.47-3.32.62-4.99.93-8.2 1.56-16.38 3.23-24.6 4.64-7.28 1.24-14.6 2.24-21.92 3.28-8.6 1.22-17.18 2.51-25.8 3.52q-10.6 1.21-21.23 1.87c-8.73.56-17.47 1-26.2 1.23-13.1.34-26.2.45-39.3.66l-1.55.05c-7.02.4-14.05.82-21.07 1.15a4 4 0 0 1-2.26-.72c-8.04-5.24-12.72-12.7-14.6-22.03-1.9-.72-3.98-1.25-5.8-2.25-1.78-.97-3.28-2.45-4.95-3.64a2.3 2.3 0 0 0-1.4-.36c-7.82.54-15.63 1.39-23.47 1.6-10.56.29-21.14.05-31.71.1-13.7.07-27.4.24-41.1.29-7.75.03-15.5-.21-23.26-.09-2.36.04-4.7.89-7.07 1.28-.92.14-1.9.16-2.82.03-.98-.14-1.9-.72-2.86-.75q-12.15-.4-24.3-.65c-12.82-.24-25.65-.34-38.46-.65-13.48-.31-26.96-.76-40.44-1.23-9.63-.33-19.25-.88-28.88-1.2-8.92-.31-17.84-.56-26.77-.62-15.88-.1-31.76 0-47.65-.06-1.85-.01-3.7-.48-6.06-.81l2.53-5.47c-2.18-2.37-.58-4.98.92-6.84 2.55-3.16 6.25-3.7 10.71-2.07-.88-4.94-1.95-9.33-2.37-13.79-.4-4.24-2.25-5.74-6.49-5.85-3.51-.08-6.04-2.64-7.66-5.78-1.33-2.6-.36-4.67 2.37-5.15 3.48-.61 6.98-1.12 10.65-1.7-.17-.53-.57-1.11-.5-1.63.44-3.04-1.4-3.08-3.56-2.88-2.31.22-4.63.52-6.94.51-1.95 0-4.08.05-4.23-2.94-.05-1.07-.94-2.09-1.44-3.13v-.62c2.53-7 9.98-6.19 15.1-9.49-6.9-10.95-1.77-20.06 3.82-29.14.25-1.57.43-3.15.76-4.7.5-2.33 2.34-2.49 4.25-2.48 1.85.02 3.7 0 5.12 0-1.02-6-2.01-11.94-3.07-17.87-.31-1.78-.8-3.54-1.17-5.3-.7-3.44.72-4.64 4.14-4.2 2.85.37 5.78.08 9.35.08-3.7-3.33-6.68-5.92-9.56-8.61-2.63-2.46-2.12-5.2.96-6.88.84-.46 1.3-1.69 1.84-2.62 1.05-1.8 2.05-3.65 3.09-5.51 3.68 4.77 8.42 7.08 13.44 8.78 4.95 1.67 10.1 2.79 15.1 4.37 2.54.8 4.93 2.08 7.38 3.15 2.68-6.48 6.42-12.89 11.8-18.26 4.17-4.14 9.6-4.9 15.53-1.87-7.09 1.34-10.08 6.95-12.73 12.24-3.25 6.48-5.63 13.42-7.95 20.3-1 3.01-.94 6.38-1.42 10.07l10.77-5.73c1.53-5.89 3-11.93 4.7-17.92 1.19-4.21 2.28-8.53 4.13-12.46 4.16-8.85 12.08-13.3 20.94-16.02 6.43-1.98 13.1-2.66 19.75-.7.97.28 1.9.74 2.72 1.08-7.13 1.51-14.17 2.64-20.97 4.61-3.49 1.02-6.67 3.36-9.75 5.46-3.62 2.45-3.67 6.75-4.72 10.49-1.52 5.39-2.56 11-4.72 16.11-1.68 4-2.42 8.09-3.26 12.2-.54 2.57 1.32 4.46 3.96 4.5 1.3.02 2.6 0 4.23 0-1.18 2.78-3.34 2.96-5.4 3.07-4.5.23-8.59-.45-10.54-5.67l-6 6.3c-3.6 3.76-10.18 2.99-12.43-1.78-1.12-2.37-1.34-5.2-1.69-7.88-.25-1.9-.05-3.89-.05-5.7l-35.4 2.06v19.96c.3.03 1.07.15 1.84.15 7.4.02 14.79-.07 22.18.03 7.8.11 15.6.25 23.39.64 9.28.46 18.56 1.13 27.83 1.84 9.63.74 19.26 1.62 28.88 2.48 2.22.2 4.42.58 6.65.88.72 2.54-.36 4.04-2.87 4.54-1.78.35-3.6.66-5.41.72-7.63.25-15.26.63-22.88.52-8.47-.12-16.94-.68-25.4-1.12-11.2-.58-22.4-1.24-33.6-1.85-4.24-.23-8.51-.17-12.72-.68-4.18-.5-7.56.67-10.37 3.63-5.72 6.04-9.14 13.06-9.13 21.5.4.15.57.28.76.29q14 .34 28.01.64c11 .23 22 .35 33 .68 9.32.28 18.65.72 27.97 1.21 10.32.55 20.64 1.2 30.95 1.86 8.55.56 17.1 1.25 25.65 1.82 9.8.66 19.6 1.33 29.4 1.85 9.5.52 19.02.82 28.53 1.29 8.08.4 16.16.92 23.82 1.36-.74-7.2-1.43-14.24-2.2-21.27-.22-1.92.84-3.33 2.32-3.33 1.5 0 3.79.3 4.07 2.5.35 2.72.59 5.52.35 8.25-.38 4.22-1.19 8.4-1.93 13.38l63.86-6.16c-4.05-4.48-8.1-9.17-12.39-13.62-3.31-3.44-7.05-6.46-10.35-9.9-1.71-1.8-3.44-1.7-5.54-1.36-2.9.46-5.83.85-8.77.93-.93.03-1.9-.98-2.86-1.51.76-.72 1.44-1.9 2.3-2.05 3-.52 6.07-.68 9.33-1-.34-.48-.67-1.05-1.1-1.52q-13.37-14.69-26.83-29.32c-.5-.53-1.4-1-2.11-1-12.73-.28-25.46-.25-38.17-.77-6.33-.26-12.62-1.51-18.93-2.3l.3 5.07h33.4l.05 1.13-34.74 1.63c-3.02 6.95-6.28 14.35-9.43 21.8-.37.86.01 2.02-.27 2.96a30 30 0 0 1-2.14 5.3c-.1.18-1.81-.73-2.76-.7-1.92.06-3.81.56-5.72.62-2.49.09-5.05.27-7.46-.2-3.35-.66-3.84-3.87-1.88-6.74 1.16-1.72 1.62-4.14 1.77-6.28.53-7.65.79-15.32 1.14-22.68l-27.99-9.35-13.87 11.84.2.9h34.37l.16 1.03c-.76.3-1.49.8-2.27.88q-7.57.77-15.16 1.39c-3.04.25-6.08.6-9.12.6-3.35-.02-6.7-.55-10.03-.53a5 5 0 0 0-3.48 1.54c-2.92 3.67-5.58 7.54-8.33 11.36-2.39 3.33-6.54 4.92-10.26 3.65-.62-.21-1.4-1.57-1.24-2.2 2.32-9.85 4.31-19.82 7.35-29.45 2.54-8.06 7.63-14.91 12.7-21.7 4.5-6.04 11.2-5.99 17.5-7.15 1.4-.25 2.89.05 4.33-.05 2.63-.19 4.29.86 4.93 3.82-4.3 1.17-8.57 2.74-12.98 3.43-6.96 1.08-11.63 4.97-14.76 10.9-3.26 6.16-6.54 12.34-9.22 18.75-2.33 5.57-3.83 11.5-5.74 17.37 2.39.66 3.85-.4 4.98-2.37 4-7 8.16-13.92 14.55-19.04 6.43-5.15 13.18-9.82 21.42-13.6l-.5 3.7c7.22 2.83 14.53 5.78 21.9 8.53 1.12.42 2.56-.06 3.85-.1 1.8-.05 3.39.38 3.75 2.44.66 3.74 1.8 7.53 1.64 11.25-.24 5.61-1.4 11.2-2.26 16.77a7 7 0 0 1-1.1 2.78c-1.59 2.39-.54 3.48 1.83 3.88 1.29.21 2.61.18 3.12.2 1.7-6.57 3.25-12.81 4.99-19 .45-1.62 1.32-3.2 2.34-4.55 3.37-4.43 2.52-8.85.9-13.72a93 93 0 0 1-3.88-16.7c-.41-3.1.43-6.14 3.2-8.94s3.85-7.22 5.92-10.79c6.57-11.29 12.87-22.76 20.07-33.64 2.68-4.05 1.98-7.56 1.78-11.54-.2-3.8-.05-7.63-.24-11.43-.05-.89-.65-2.1-1.38-2.56-2.7-1.72-4.09-4.39-3.49-7.63 1.9-10.35 6.23-19.76 11.23-28.94 5.29-9.7 12.25-18.04 20.68-26.16-6.92-1.93-13.4-3.78-19.88-5.52-4.14-1.12-8.35-1.97-12.46-3.2-1.07-.32-2.7-1.73-2.6-2.43.25-1.85 1.77-2.94 3.82-2.42 7.55 1.93 15.14 3.76 22.61 5.97 3.23.96 6.28 2.62 9.27 4.24 1.3.7 1.95.41 3.11-.21 3.76-2.05 7.7-3.76 11.49-5.78 2.8-1.5 5.48-3.28 8.01-4.82.7.36 1.74 1.32 2.25 1.1 2.53-1.1 5.55-1.97 7.24-3.91 8.15-9.34 22.33-10.66 33.05-4.3 1.02.61 2.13 1.06 3.66 1.82 0-2.8.29-5.26-.05-7.62-.9-6.24 2.93-9.56 7.42-12.43a35 35 0 0 1 6.35-3.01c7.37-2.83 7.06-9.92 8.45-15.76 2.56-10.76 4.5-21.68 6.54-32.56.47-2.55.1-5.26.42-7.86.48-4.01.98-8.05 1.91-11.97.43-1.8 1.89-3.34 3.16-5.48l-3.16.39 1.44-3.98c2.3-.24 1 5.4 4.95 2.7.36.8.95 1.49.96 2.2.23 13.24.9 26.5.33 39.7-.26 6.03-2.99 11.96-4.6 17.95l-2.8 10.35 12.81-5.46 1.35 1.65c-.87.31-1.81.48-2.57.95-6.73 4.13-13.38 8.37-20.15 12.41-2.23 1.34-4.64 2.65-7.15 3.22-6.44 1.46-7.47 6.4-8.94 11.73-1.57 5.68.99 8.1 5.35 10.67 4.85 2.86 9.11 6.7 13.79 9.9 7.1 4.86 14.34 9.53 21.57 14.31.29-3.72.65-7.44.84-11.15.48-9.1.74-18.2 1.33-27.3.67-10.08 1.6-20.15 2.44-30.22.16-1.92.42-3.83.52-5.75.22-4.08 2.52-7.66 2.2-12-.32-4.2.61-8.5.99-12.76.41-4.64.92-9.28 1.19-13.93.1-1.87-.57-3.77-.48-5.64.31-6.5.48-13.02 1.31-19.46.64-4.96 3.87-5.96 8.16-3.11.5.33 1.09.53 1.6.78 5.12-4.4 10.23-8.8 16.64-11.2a4.5 4.5 0 0 1 3.31.07c23.65 12.26 47.09 24.9 68.17 41.37a4179 4179 0 0 1 44.07 34.79 1338 1338 0 0 1 35.32 29.25c5.84 5.02 11.05 10.78 16.82 16.5 27.02-27.77 56.97-52.11 90.86-71.72l-1.84-4.82-1.89 3.98-15.3-13.3c-1.82-1.59-1.59-3.72-.45-5.21 1.24-1.6 2.92-.47 4.1.7q6.09 6.06 12.13 12.18l.7.76.35-.25-.64-1.04zm-17.33 383.22 5.57-4.33 2.14-1.51-.6-.7-1.93 1.64-5.74 4.5q-2.21 1.72-4.41 3.46l.45.55zm54.97-43.44v-3.1q.38-2.3.78-4.59c.8-4.45 1.86-8.88 2.35-13.37.65-6.08.91-12.2 1.27-18.32q.68-11.16 1.18-22.33c.03-.72-.62-1.45-.95-2.18a44 44 0 0 0-1.46 10.01c-.27 5.64-.3 11.3-.67 16.93-.74 11.3-1.63 22.6-2.46 33.9-2.58 2.69-4.92 5.67-7.78 8-9.71 7.94-19.62 15.62-29.44 23.43-2.53 2.01-5 4.11-7.5 6.17a3.4 3.4 0 0 0 2.65-.74c5.9-4.47 11.82-8.9 17.64-13.48 8.38-6.58 16.69-13.27 25.03-19.91l.47-.85zm78.05-56.87c-.9.37-1.9.6-2.68 1.15-2.8 2.03-5.58 4.07-8.24 6.27a3403 3403 0 0 0-26.1 21.85 676 676 0 0 0-13.67 11.94c-4.75 4.23-9.4 8.57-14.09 12.87l-.66.87 1.12-.43c1.54-1.1 3.15-2.14 4.63-3.34 9.14-7.44 18.32-14.82 27.35-22.4 10.4-8.73 20.66-17.62 30.93-26.5.65-.56.91-1.57 1.35-2.36l.61-.08-.08-.28zM312.32 892.7l.75.16-.42-.48c-.54-.84-1.17-1.64-1.61-2.52-1.9-3.8-4.3-5-9.03-4.53-9.97 1.01-20.08.7-30.13.85-5.8.1-11.58.02-17.35.02l1.04 3.1c1.3 0 2.43-.05 3.56 0 12.05.61 24.1 1.17 36.15 1.89 5.69.34 11.36 1 17.04 1.51m95.12-10.88 11.7 9.04.63-.83-10.49-8.18c-.18-.24-.33-.52-.56-.7-10.35-8.74-20.6-17.6-31.1-26.15-6.52-5.3-13.41-10.12-20.09-15.22-1.52-1.17-2.85-.85-3.53.6-.31.65.33 2.28 1.04 2.82 7.41 5.63 14.93 11.13 23 17.1-8.38-1.04-16.05-1.98-23.71-2.94 1.04 1.02 2.27 2 3.6 2.17 6.16.77 12.37 1.13 18.52 2 2.3.33 4.76 1.24 6.66 2.58 8.2 5.76 16.24 11.78 24.33 17.7zM825.9 697.04l.06.07c-.5-1.09-.87-2.27-1.52-3.26a1200 1200 0 0 0-10.51-15.56c-7.91-11.5-17.87-21.83-21.01-36-19.27 26.49-32.8 55.87-41.75 87.03 2.36-.25 4.86-1 7.16-.6 1.95.34 3.77 1.86 5.48 3.07 6.05 4.29 12.12 8.53 17.97 13.07 3.71 2.88 7.06 6.24 10.42 9.24 1.2.62 2.57 1 3.45 1.88.81.8 1.23 2.08 1.58 3.23 1.13 3.67 2.15 7.39 3.3 11.37 7.6-6.82 15.04-13.48 22.45-20.2.46-.42.71-1.19.86-1.84.8-3.21 1.45-6.46 2.27-9.68 1.27-4.94 2.69-9.84 3.94-14.78 1.11-4.42 2.08-8.89 3.48-14.95zm-220 37.31.03.08c-1.03-2.8-.1-5.2 2.25-6.56 3.68-2.14 7.63-3.82 11.48-5.67.78-.38 2.2-.53 2.3-1a3.4 3.4 0 0 0-.77-2.7c-9.64-9.1-18.98-18.56-29.14-27.05-13.98-11.67-28.59-22.59-42.9-33.85-9.8-7.69-19.33-15.73-29.4-23.01-10.72-7.75-21.88-14.88-32.96-22.1-8.5-5.52-17.21-10.73-25.8-16.14-1.33-.85-2.46-2.03-3.42-2.84-2.74 7.21-10.44 6.59-14.58 10.12 55.66 30.35 107.85 65.5 152.32 111.35a3.8 3.8 0 0 1-2.64-.9c-10.56-8.66-21.04-17.43-31.67-26.03-10.6-8.58-21.28-17.1-32.07-25.45-14.57-11.3-29.98-21.39-45.79-30.87-11.85-7.12-23.74-14.2-35.55-21.4-3.06-1.86-5.96-3.84-9.65-3.17q-1.68 16.15-3.38 32.18c-.8 7.47-1.75 14.91-2.46 22.38a942 942 0 0 0-2.28 27.37c-.46 7.01-.5 14.04-.84 21.05q-.85 18.24-1.94 36.47c-.13 1.98.7 2.88 2.15 3.8 10.9 6.98 21.62 14.25 32.7 20.92 13.35 8.02 27.05 15.48 40.45 23.41 1.4.84 2.2 3.2 2.64 5 .35 1.46-.35 3.15-.45 4.74-.27 4.3-.6 8.6-.65 12.9-.08 8.3 0 16.59.07 24.89 0 .4.5.81 1.3 2.04.49-1.97 1.03-3.21 1.08-4.47.28-7.5.35-15 .7-22.48.18-3.83.82-7.63 1.32-12.04l70.74 36.62 3.05-1.6c.28 1.22.6 2.44.83 3.67.1.52-.14 1.28.14 1.56 2.81 2.74 5.36 6 8.66 7.95 5.95 3.5 12.23 6.5 18.6 9.11 8.8 3.6 17.82 6.64 26.72 9.96 6.3 2.35 12.57 4.78 18.8 7.15l-4.77 12.95.94.4c1.8-4.13 3.56-8.27 5.39-12.37.78-1.75 1.16-4.08 4.1-3.18.32.1 1.02-.5 1.3-.93 2.76-4.15 5.53-8.28 8.15-12.52 6.55-10.55 14.98-18.9 26.51-24.04 9.83-4.38 19.44-9.23 29.14-13.89.42-.2.75-.63 1.83-1.57-11.76 2.64-22.57 5.15-33.42 7.46-3.07.65-6.41 1.44-9.38.87-5.97-1.15-11.75-3.3-17.68-4.81-2.85-.73-5.33-1.61-5.77-4.9h-8.17c1.47-2.78 2.63-4.63 5.65-5.17a931 931 0 0 0 31.09-6.12c10.12-2.14 20.3-4.17 30.26-6.9 6.59-1.8 12.86-4.76 19.28-7.2-19.7 13.16-42.3 18.48-65.92 23.4 7.09 2.2 12.74 6.14 19.71 4.97 1.4-.24 2.8-.49 4.22-.61 9.75-.85 19.5-1.64 29.24-2.5 3.75-.34 7.33-1.19 10.41-3.62 1.76-1.39 3.72-2.52 5.61-3.74 12.89-8.3 25.42-17.07 36.82-27.4 2.84-2.57 5.79-5.33 9.2-6.93 13.03-6.15 26.43-11.56 39.4-17.83 11.66-5.62 22.93-12.02 34.37-18.07l4.75-2.67-.52-.89-4.82 3.1c-15.37 7.07-30.7 14.22-46.12 21.2-6.85 3.11-13.85 5.88-21.17 8.97-.9-3.77-2.2-7.22-2.46-10.74-.3-4.36-1.4-6.57-6.22-8.18-8.96-3-16.22-9.36-23.6-15.23-2.92-2.3-5.16-3.94-9.86-2.49-7.13 2.2-14.97 2.07-22.52 2.94-.62-2.2-.94-3.8-1.9-4.75-4.92-4.8-10.32-9.16-14.9-14.25-2.7-3-5.1-2.81-8.7-1.5 2.59 11.1 5.21 22.1 7.61 33.15.25 1.12-.48 2.93-1.37 3.73-1.92 1.74-4.24 3.04-7.19 5.06.16-3.09.3-5.46.4-7.85.1-2.16.58-4.41.19-6.48-1.48-7.85-3.33-15.61-4.88-23.45-.96-4.86.25-6.94 4.75-9.25.34-.18.6-.56.86-.87q3.14-3.58 7.4-1.5c.81.4 1.65.75 2.4 1.25 1.63 1.09 3.38 2.1 2.05 4.63-.24.46.28 1.6.78 2.1q6.47 6.57 13.13 12.95c.57.54 1.78.86 2.53.67 4.35-1.15 8.64-2.48 12.27-3.54 3.79-36.22 19.1-66.84 40.6-94.96a24 24 0 0 0-4.46 2.28c-15.8 10.22-31.84 20.09-47.3 30.81-12.64 8.79-24.73 18.4-36.76 28.01-11.71 9.36-22.99 19.26-34.56 28.8-3.2 2.63-6.78 4.8-10.19 7.2 39.47-42.5 85.97-75.77 135.3-104.3l-15.75-13.91c-1.63 1.1-3.71 2.7-5.97 3.99-8.93 5.1-18.02 9.9-26.86 15.16-13.44 7.98-26.7 16.27-40.06 24.37-17.37 10.54-32.76 23.57-47.69 37.23-6.16 5.63-12.9 10.62-19.08 16.24-2.9 2.63-8.05 3.98-6.77 9.64.03.17.08.33 0-.02l7.12 4.5 12.3-14.94q.44.33.85.67c-.34.58-.63 1.22-1.04 1.74-3 3.85-5.87 7.82-9.13 11.45-1.73 1.92-1.42 3.4-.25 5.19.42.63.9 1.21 1.29 1.72 1.36-1.49 2.62-3.12 4.14-4.46 8.35-7.38 16.67-14.81 25.2-21.99 4.73-3.97 9.86-7.46 14.8-11.16l.53.48c-7.31 6.25-14.7 12.42-21.93 18.77-7.2 6.35-14.23 12.89-21.73 19.7 5.72 1.04 6.65 4.61 6.1 9.03-.59 4.71-.93 9.5-1.9 14.13-2.69 12.8-5.5 25.57-8.54 38.3-2.72 11.38-5.75 22.7-8.76 34a519 519 0 0 1-5.45 18.79c-.21.68-1.3 1.09-1.98 1.62-.4-.72-1.16-1.46-1.14-2.17.05-2.43.24-4.88.64-7.27 1.56-9.53 3.12-19.07 4.9-28.57q3.31-17.91 7.03-35.75c2.46-11.8 5.12-23.56 7.81-35.31 1.32-5.78-.84-7.58-4.58-10.28-6.17-4.46-12.45-2.34-18.61.05-2.91 1.12-5.67 2.65-8.5 3.99zm46.72 270.26c-3.66-7.92-7.39-15.45-10.66-23.18-5.86-13.83-13.01-26.7-24.34-36.93-6.6-5.97-7.95-6.05-16.25-2.16-4.69 2.19-9.7 4.25-14.76 4.96-7.96 1.1-16.08 1.2-24.14 1.37-8.86.17-17.53-1.5-26.12-3.56-5.73-1.38-11.52-2.55-17.33-3.81l3.03 3.24c-1.96 0-3.62-.37-5.05.06-7.02 2.13-12.92 6.3-18.03 11.35-7.9 7.8-13.85 17.18-18.43 27.2-7.72 16.83-12.21 34.43-10.08 53.21.7 6.15.64 6.15 6.54 5.84l.3-.01c17.1-.62 34.17-1.27 51.25-1.84 1.57-.05 2.25-.42 2.66-2.12 1.62-6.6 3.76-13.08 5.2-19.71 1.8-8.27 3.5-16.6 4.47-24.99.7-6.13.44-12.43.07-18.62-.5-8.26-3.23-15.8-9-21.99-.4-.42-.83-1.08-.78-1.6.07-.81.52-2.28.82-2.28 1.55-.02 3.74-.23 4.56.68 3.16 3.46 6.36 7.03 8.65 11.08 4.45 7.83 3.91 16.7 3 25.14-.89 8.24-3.07 16.41-5.32 24.43-2.77 9.88-6.2 19.58-9.43 29.58 3.34-.26 6.8-.47 10.26-.82 10.04-1 20.12-1.8 30.1-3.18 13.02-1.8 26-3.99 38.95-6.22 3-.51 6.1-1.38 8.7-2.86 2.79-1.57 5.04-4.09 7.57-6.14 2.08-1.7 4.22-3.33 6.5-5.12l-15-16.75c-2.15-2.4-2.04-4.54.6-6.73 1.95-1.64 3.75-.92 5.29.83.6.69 1.27 1.35 1.81 2.1 4.11 5.72 8.21 11.46 12.4 17.32l12-7.76zm-586.2 11.9c5.24-.31 10.5-.91 15.76-.88 17.28.07 34.56.32 51.84.58 6.72.1 13.42.34 20.13.61 8.5.35 17 .83 25.51 1.22 9.2.43 18.38.93 27.58 1.22 21.58.68 43.17 1.26 64.76 1.89 1.42.05 2.87.56 4.23.35.85-.13 2.23-1.21 2.24-1.87.05-10.14-1.54-19.57-12.44-24.93 1.69-.3 2.94-.54 4.34-.8l-.51-1.74c1.71-.46 3.33-1.26 4.97-1.28 9.64-.11 19.28-.21 28.91.06 4.36.12 8.69 1.14 13.03 1.7 3.51.46 7.03 1.23 10.54 1.16 2.87-.05 5.74-1.06 8.58-1.75a8747 8747 0 0 0 35.33-8.67c2.63-.65 5.22-1.47 7.82-2.2q.28.58.54 1.17c-1.08.76-2.06 1.8-3.25 2.23-9.8 3.6-19.57 7.28-29.48 10.55-6.97 2.3-14.13 3.63-21.63 2.88a419 419 0 0 0-24.78-1.52c-9.12-.36-18.25-.45-27.2-.64 7.34 5.68 11.7 13.37 11.06 23.14 5.83-.32 11.43-.64 17.02-.93 4.61-.24 9.21-.5 13.83-.66 12.13-.42 24.26-1.12 36.4-1.11 12.87.01 25.73.78 38.6 1.07 7.33.17 14.65.03 20.98.03l10.1-21.76c-1.34-.66-2.9-1.15-4.1-2.07-7.43-5.7-14.91-11.33-22.11-17.3-5-4.16-9.88-8.54-14.24-13.35-2.95-3.27-5.75-4.2-9.71-2.64-1.3.51-2.76.6-4.16.85-5.95 1.07-12.13 1.46-17.8 3.37-7.29 2.44-14.75 2.52-22.15 3.42-4.44.54-8.98.54-13.31 1.49-2.53.56-3.72-.07-4.45-1.86l-3.78.47c-1.21 1.35-1.95 2.59-3.03 3.3a108 108 0 0 1-8.8 5.24c-3.64 1.92-7.38 3.58-10 7.04-.92 1.2-2.51 2.04-3.95 2.7-11.89 5.43-24.3 4.31-36.75 2.9-5.73-.65-11.5-1.02-17.24-1.51 3.87 1.4 4.3 1.77 4.5 4.46-1.58.18-3.18.54-4.77.51-8.53-.14-17.06-.3-25.58-.6-9.11-.33-18.21-.96-27.33-1.18-13.98-.34-27.98-.46-41.97-.66-4.33-.06-8.67.07-13-.09-12.71-.47-25.43-1.05-38.24-1.59 2.12 6.5 3.98 12.86 3.07 19.55-.36 2.62-1.78 5.08-4.6 5.69-1.37.29-3.05-.36-4.46-.9-4.13-1.58-6.37-.41-6.84 3.65zm836.78-58.67c-.67 10.09-1.02 19.77-2.07 29.38-.66 6.06-2.35 12.02-3.58 18.02-.4 2.01-1.56 2.73-3.7 2.03 0-11.31-.19-22.65.08-33.98.12-5.18 1.02-10.37 1.8-15.53.44-2.98 2.83-4.32 5.73-3.44 1.97.6 3.87 1.43 5.59 2.08 6.43-13.97 16.1-24.94 30.34-32.47-1.23.1-1.86.08-2.44.22-5.75 1.37-11.48 2.83-17.24 4.13-14.85 3.36-29.72 6.62-44.56 10.04-.88.2-1.7 1.28-2.27 2.13-1.46 2.17-2.76 4.43-4.12 6.66l-.83-.4.5-4.6c-2.06.15-3.87.25-5.67.43-1.66.16-3.4.12-4.92.66a640 640 0 0 0-20.32 7.44c-1.73.67-3.66 1.6-4.76 2.99a252 252 0 0 0-10.62 14.67c-5.05 7.48-10.74 14.7-12.96 23.65-.89 3.6-.69 7.48-1.05 12.05 4.36 1.7 8.88 4.21 13.7 5.17 8.22 1.62 16.64 2.29 24.98 3.29q18.48 2.23 36.97 4.32c3.15.35 6.34.59 9.5.59 9.6.01 19.2-.11 28.8-.21 2.2-.03 4.71.47 6.53-.4a591 591 0 0 0 24.32-12.56c9.11-4.92 16.22-11.78 20.64-21.35a102 102 0 0 0 8.34-28.03c1.1-7.46 1.82-14.83-.02-22.29-1.35-5.42-7.25-10.16-12.77-9.77-7.55.54-14.95 1.87-22.03 4.69-12.67 5.05-21.52 14.63-29.65 25.07-2.35 3.01-4.9 5.87-6.96 8.32zm-392.1-17.83c-3.39-.4-6.78-.98-10.19-1.15-9.48-.46-18.94.15-28.14 2.55-4.15 1.08-8.69 1.64-11.56 5.76-4.82 6.93-10.11 13.53-14.86 20.5-5.36 7.91-10.22 16.22-12.05 25.73-1.23 6.41-1.67 13.01-2.19 19.54-.54 6.93-.33 13.92 2.52 20.38 1.93 4.37 4.6 8.41 6.43 11.72 6.88-.57 13.14-1.05 19.4-1.64 1.5-.14 2.96-.63 4-.85-1.18-4.68-2.87-8.78-3.15-12.97-.65-9.78-.69-19.68 1.97-29.19 5.37-19.22 13.66-36.9 29.1-50.35A47 47 0 0 1 511.1 940zm-217.08 28.13c-4.43-.24-9.8-.63-15.2-.82-8.3-.28-16.62-.4-24.94-.66a445 445 0 0 1-14.1-.64c-11.82-.74-23.63-1.57-35.45-2.29-5.81-.35-11.64-.53-17.46-.77q-14.85-.64-29.7-1.23a1318 1318 0 0 0-17.77-.57c-10.25-.26-20.5-.35-30.75-.77-6.3-.26-12.58-1.06-18.88-1.48-5.22-.35-10.52-1.43-15.63.36-3.02 1.06-5.83 2.67-9.25 4.27 1.2 0 1.88.08 2.54 0 4.42-.58 8.83-1.73 13.24-1.7 10.33.1 20.69.44 30.99 1.3 8.97.74 17.89 2.23 26.8 3.57 7.88 1.18 15.72 2.62 23.58 3.9 6.06 1 12.12 2 18.2 2.86 5.53.78 11.08 1.38 16.6 2.07 7.74.96 15.46 2 23.2 2.88 6.46.73 12.98 1.05 19.41 1.98 10.31 1.5 20.62 2.72 31.06 2.34a4.5 4.5 0 0 0 2.21-.65c7.3-4.74 14.57-9.53 21.28-13.95zm-18.3-144.16c-7.46 13.92-15.52 27.79-25 40.8-1.1 1.52-1.7 2.93-1.2 4.7.77 2.8 1.54 5.62 2.53 8.35.25.7 1.3 1.53 2.03 1.57 6.15.3 12.3.38 18.45.64 3.79.16 7.57.53 11.35.83 7.2.58 14.4 1.19 22.06 1.82-12.37-18.81-21.65-38.64-30.22-58.72zm-52.66 163.99.16-.55c-4.44-.52-8.86-1.07-13.3-1.55-6.15-.67-12.34-1.12-18.48-1.97a963 963 0 0 1-27.52-4.25c-8.95-1.5-17.86-3.31-26.82-4.77a433 433 0 0 0-19.64-2.6c-4.85-.57-9.73-.94-14.6-1.32-7.61-.57-15.22-1.07-22.84-1.6-.43 4.64 1.7 9.32-3.14 12.29l-2.03-3.05c-1.69.36-3.35 1.06-4.98.99-3.16-.15-3.39 1.33-2.55 4.25 9.72 0 19.47-.1 29.21.03q19.7.25 39.4.76 21.39.53 42.78 1.24c5.84.2 11.68.61 17.53.88 8.94.43 17.88.8 26.83 1.2zm-96.74-100.91c-1.76-.33-3.1-.63-4.47-.84-4.17-.64-8.4-1-12.52-1.92-6.27-1.42-12.33-3.46-16.02-8.79l-3.89 3.04c4.4 3.8 8.49 7.35 12.63 10.84a4.3 4.3 0 0 0 2.38 1.1c6.95.09 13.9.05 21.03.05zm560.63 74.57c2.36-5.52-19.73-44.57-27.25-47.3-1.05 1.81-.22 3.08.87 4.62 5.24 7.39 10.58 14.73 15.35 22.42 4.07 6.54 7.4 13.53 11.03 20.26m-38.34-68.48-.7-1.31-30.84 16.7.49.92c10.46-5.23 21.35-9.65 31.05-16.3m-35.36 18.35c-.47 0-1.51-.32-1.92.06-2.06 1.91-4.65 3.7-5.77 6.12-1.56 3.4-1.99 7.32-2.9 11.03l1.22.37zm43.2 103.44.57-.42-2.86-6.05-2.5 2.59 4.79 3.89zM842.93 733.4l-.15-.94-7.3 2.86.54 1.23zm-18.09 284.18c-3.59-2.06-5.96-1.94-7.37.49zm-123.69-7.27.53.74 2.23-1.49-.42-.62zm87.42-374.28-.82-.8-1.26.69 1.14 1.14zm-516.4 359 .2-.18q-.19-.1-.39-.17c-.05-.02-.13.1-.19.16l.37.2zM634.7 49.74c9.14-1.85 14.04 2.87 17.71 11.9 1.02 2.5 2.12 4.95 2.96 6.9 2.67-3.1 5.1-6.64 8.2-9.42 5.05-4.49 10.98-3.55 15.79.96 2 1.9 3.68 2.72 6.4 1.75 4.31-1.53 8.54-.69 12.6 1.2.99.46 1.98 1.06 3.03 1.2 5.38.7 8.77 4.1 8.52 9.53-.21 4.86-1.14 9.69-1.74 14.46 7.67-.74 14.96.52 20.04 7.6 6.16-3.89 12.9-.82 13.99 5.64 1.1 6.57 1.32 12.52-1.87 18.82 1.97.31 4.03.31 5.82 1 2.2.86 4.41 2.02 6.18 3.56 1.4 1.21 2.36 2.47 4.49 2.86 8.05 1.5 10.16 7.9 11.33 13.5.47 2.27.57 4.62.88 7.23 1.25-.47 2.18-.16 3.78-1.33 5.9-4.3 6.53-3.76 7.82-7.17 1.4-3.7 2.99-7.73 2.83-11.55a42 42 0 0 0-7.12-22.23q-.3-.45-.57-.92l.91-.53c2.09 3.54 4.76 6.87 6.11 10.66 2 5.66 3.77 11.58 4.37 17.51.68 6.8-1.82 12.99-7.08 17.63 2.1 1.78 4.52 3.25 6.16 5.34 1.58 2 3.05 4.56 3.34 7.02.6 5.2 1.33 10.37-.01 15.78-1.02 4.13-.6 8.56-2.77 12.57-3.34 6.18-3.33 6.25-3.05 13.13.41 10.26-5.16 17.47-12.33 24.7 1.09 2.52 2.43 5.4 3.56 8.35 1.15 2.98 2.09 6.04 3.24 9.42a37.7 37.7 0 0 0 18.9-15.44c1.81.6 2.52 1.4 1.62 3.55-4.98 11.84-12.82 21.08-23.99 27.54-1.6.92-2.56 2.9-3.9 4.31-2.49 2.57-5.04 5.08-7.65 7.7 2.06.23 4.09.23 6 .67 8.55 2.01 12.05 15.07 5.2 21.62-5.9 5.63-13.06 7.86-20.77 8.83-3.64.45-3.83.26-2.6 3.57 2.63 7.02-4.1 16.72-10.13 17.43.34-5.76 5.2-10.52 3.43-16.92-4.88 2.46-10.89-1.23-15.61 3.1-.42 6.41-1.06 12.86-8.04 16.42 2.94 7.7 2.2 15.27-1.52 22.42-1.28 2.46-3.46 4.62-5.66 6.36-1.12.88-3.22.53-4.91.34 5.28-1.15 7.4-3.02 8.6-8.48 1.29-5.83 1.54-11.66-.52-17.28l-12.06 1.29c-.43 6.2-2.12 11.75-8.5 14.55 3.6-2.97 6.34-6.32 4.9-12.03-1.64 1.8-2.87 4.33-4.74 4.95-4.67 1.56-6.76 5.24-9.2 8.88a9 9 0 0 1-9.12 4.17c-.4-.05-.84.08-1.26.14-4.37.56-7.04-1.12-8.92-5.2-1.3-2.83-2.93-5.5-4.44-8.24-.98-1.77-2.36-2.7-4.49-1.83-2 10.05 3.71 19.5 14.07 23.41 1.87.7 4.6.83 4.24 4.03-8.06.94-18.26-6.84-22.38-16.1-3.2 2.66-6.5 6.25-10.55 8.54-3.72 2.11-4.77 5.26-5.9 8.77 5.68.89 10.66 3.61 14.98 7.17 4.9 4.02 10.22 6.2 16.4 7.51 7.3 1.55 14.42 4.1 21.41 6.76 6.36 2.42 8.34 8.1 8.31 14.34-.02 5.07-.87 10.14-1.12 15.22-.2 4.04.1 8.1-.08 12.13-.16 3.53-2.16 5.07-5.55 5.28-1.95.12-4.03.48-5.78 1.3a234 234 0 0 0-46.27 28.83c-6.42 5.14-12.37 10.85-18.71 16.09-5.67 4.68-11.59 9.06-17.36 13.55-2.45-1.88-2.82-3.2-.83-5.3 8.2-8.62 15.99-17.66 24.42-26.05 10.74-10.68 22.71-19.8 36.32-26.66 6.18-3.12 12.23-6.5 18.45-9.52 2.57-1.25 5.42-1.92 8.55-2.99 0-4.55.04-9.69-.02-14.83-.03-2.31.28-4.84-.52-6.9-1.8-4.7-5.72-7.58-10.38-8.95-6-1.78-12.13-3.28-18.3-4.34-6.34-1.1-11.53-4.04-16.31-8.13-3.32-2.83-6.89-5.4-10.34-8.08-3.01 4.65-5.78 9.46-9.09 13.87-3.36 4.48-7.27 8.57-10.94 12.83l-1.06-1.23c.47.66 1.42 1.4 1.33 1.98-1.9 12.29-3.28 24.61-3 37.08.01.75-.28 1.59-.66 2.24s-1.2 1.66-1.57 1.56a3 3 0 0 1-1.86-1.66 30 30 0 0 1-1.42-6.12c-1.14-10.43-.7-20.74 2.54-30.81.04-.16-.06-.38-.05-.31-4.73 1.94-9.39 4.34-14.32 5.75-5.6 1.61-11.37 2.57-17.39 1.48-4.19-.77-8.56-.52-12.85-.74-11.07-.55-20.77-4.57-29.28-11.62-2.26-1.87-4.57-3.7-7.21-5.85-.6 2.21-.85 4.3-1.69 6.12a819 819 0 0 1-12.05 25.21c-.74 1.48-2.65 2.38-4.33 3.81 6 12.21 13.49 24.41 26.3 32.32 7.05 4.36 12.27 10.62 17.8 16.62 5.12 5.55 10.82 10.56 16.28 15.8.81.8 1.66 1.54 2.44 2.27 4.71-5.5 9.24-11.15 14.17-16.45a1058 1058 0 0 1 26.46-27.54c7.85-7.85 16.1-15.3 24.12-22.99.82-.78 1.2-2.01 1.85-3 .26-.4.67-.72 1-1.08.35.52 1.1 1.17.97 1.52-.52 1.5-1.06 3.1-2.03 4.31-3.79 4.8-7.53 9.65-11.68 14.11-9.18 9.88-18.66 19.49-27.9 29.31-6.37 6.77-12.51 13.74-18.8 20.58-1.25 1.34-2.7 2.48-4.32 3.94 1.96 1.74 3.96 3.41 5.81 5.23.58.57.77 1.54 1.14 2.34-.97.13-2.15.69-2.87.33-4.21-2.14-8.43-4.3-12.43-6.81-8.09-5.08-16.22-10.16-22.65-17.39-2.78-3.12-4.96-6.84-8.03-9.62a183 183 0 0 0-15.1-12.07c-7.26-5.33-12.59-12.33-16.55-20.16-5.98-11.85-11.24-24.06-16.78-36.12-.26-.58-.32-1.26-.53-2.1 4.92-.97 7.09 2.38 9.09 5.44 3.34 5.11 6.32 10.45 9.4 15.6 4.14-12.64 6.73-25.91 12.85-37.67l-8.2-15.3c-7.02 7.38-16.34 7.7-26.2 6.47-7.95-.98-16.1-2.32-23.81.68-3.99 1.55-7.47 4.43-11.1 6.82-1.36.88-2.5 2.08-3.77 3.1a11.5 11.5 0 0 0-4.57 8.48c-.44 5.93-1.18 11.83-1.67 17.75-.23 2.84 1.88 4.4 3.87 5.82 8.7 6.2 17.45 12.32 26.17 18.48.56.4 1.07.87 1.7 1.38-.6 1.06-.92 2.28-1.71 2.87-.78.58-2.25 1.02-3.06.68-8.43-3.46-17-6.68-25.11-10.78-9.24-4.67-11.37-11.18-9.63-21.49.89-5.29 1.97-10.6 3.73-15.65 1.13-3.22 3.26-6.31 5.61-8.85 5.8-6.27 11.8-12.4 18.1-18.16 3.97-3.63 9.21-4.76 14.59-4.97 8.22-.33 16.1 1.25 23.96 3.57 3.8 1.13 8.05.75 11.85 1.04l1.7-12.9c-.72-.07-2.37-.12-3.97-.4-.73-.15-1.38-.76-2.27-1.27-1.83 3.32-5.33 5.23-9.27 6.2-2.31.56-5.11 1.12-7.18.33-4.58-1.74-8.95-4.24-10.23-9.56l1.18-1.18c.36.78.67 1.6 1.09 2.35 4.09 7.3 10.29 5.71 14.98 1.85.79-.65 1.48-1.42 2.19-2.16 3.21-3.4 3.22-3.8 1.26-7.95-1.17-2.51-2.13-5.13-3.24-7.84-.5.4-.82.53-.91.76-.67 1.6-.9 4.21-2.01 4.67-3.28 1.35-6.88 1.98-10.42 2.57-.84.14-2.21-.77-2.8-1.6-4.72-6.58-9.3-13.26-14.44-20.64-3.21 1.59-6.9 3.62-10.76 5.24a73 73 0 0 1-10.72 3.5c-.99.24-2.45-.72-3.46-1.45-1.4-1.02-2.57-2.34-3.84-2.6l-9.77 2.32c.11.19-.1-.02-.15-.27-.51-2.77-1.38-4.96-4.28-6.5-2.93-1.55-2.55-5.02-2.37-7.98.09-1.39.43-2.77.66-4.16-3.3-.37-6.42-.31-9.3-1.1-7.54-2.06-12.34-8.28-11.9-15.3.25-4.2 2.78-8.85 7.38-10.22-.72-1.13-1.59-2.14-2.08-3.31-.92-2.15-2.59-2.28-4.49-1.97a8.5 8.5 0 0 1-8.91-4.86c-.46-.99-1.27-2.3-2.12-2.48-.7-.16-1.98.97-2.54 1.83-1.54 2.36-3.63 4.61-2.83 7.84.87 3.54 4.74 5.26 9.63 4.28.84-.17 1.68-.38 2.56-.36a12.7 12.7 0 0 1-10.64 2.2c-6.35-1.4-8.13-5.52-4.92-11.42 1.23-2.25 3.47-3.93 5.08-6 .87-1.13 1.4-2.54 2.06-3.84.44-.86.84-1.74 1.31-2.7-6.74-5.57-3.52-16.61 2.3-20.5.83-.56.95-2.16 1.45-3.25s1.06-2.13 1.73-3.45c-5.3-3-9.87-6.65-12.04-12.9-2.2-6.31-1.67-11.81 2.83-16.89-4.29-3.1-6.53-7.22-7.57-12.2-1.08-5.19.33-9.7 3.06-14.02 4.44-7.01 10.41-11.89 19.06-13.7-.46-1.07-.73-2.17-1.33-3.04-5.2-7.64-1.18-22.75 8.67-26.85 3.28-1.37 2.92-3.85 3.3-6 1.14-6.64 5.11-11 10.64-14.11 1.8-1.01 2.84-2.11 3.43-4.08 2.47-8.26 8.5-13.2 16.18-16.15 6.25-2.4 12.7-4.26 19.06-6.38.28-.09.5-.35.89-.66l-4.88-7.77c-3.3.96-6.4 1.86-9.62 2.78-.76-2.93-.05-4.37 2.28-5.8 4.25-2.62 8.98-3.66 13.64-4.3 8.12-1.14 12.79 3.53 14.65 11.68 1.56 6.9 1.02 9.68-1.11 16.3 1.54.3 3.07.8 4.62.86.63.03 1.7-.7 1.89-1.31 2.8-8.7 9.33-13.3 17.32-16.1 1.7-3.72-.73-6.27-2.08-9.33-3.68-8.27-2.04-16.1 3.25-23.25 4.63-6.26 11.4-8.39 18.67-9.31 6.05-.77 12.14-1.23 18.2-1.91 2.17-.25 4.37-1.24 6.46-1 3.63.38 6.16 2.75 7.78 6.03.4.8.88 1.56 1.13 2 3.96-1.76 7.82-3.38 11.56-5.22.74-.36 1.45-1.57 1.48-2.42.2-4.3 1.5-7.87 5.58-9.97 4.27-2.19 8.26-1.28 11.95 1.26 1.34.92 2.16 1.02 3.67.31 11.22-5.3 21.52-2.61 31.46 3.73 2.72 1.74 5.86 2.81 8.75 4.3 3.96 2.02 5.7 5.33 5.5 9.74-.03.7.13 1.4.2 2.11zm14.87 23.07.69 2.2.46-.14-.67-2.64c-1.16-3.03-1.68-6.58-3.65-8.94-1.98-2.37-8.43-1.14-11.33 1.29 5.19 2.14 10.7 3.7 14.49 8.24zM517.24 357.14l-.84-.54.4 1.12c.76 2.26 1.35 4.6 2.32 6.77a64.6 64.6 0 0 0 20.06 25.1c7.55 5.8 15.16 11.47 24.4 14.26 5.27 1.59 10.9 2.12 16 4.1 3.29 1.29 5.8.33 8.47-.6a53 53 0 0 0 9-4.07c16.78-9.7 30.03-22.83 38.29-40.13-6.05 0-12.43.34-18.75-.11-4.6-.33-9.6-.76-13.58-2.8-9.84-5.02-18-12.06-19.85-23.88-.68-4.36-.7-8.8-.98-12.55-2.97-.93-5.82-1.74-8.57-2.77-.5-.2-.92-1.32-.9-2 .02-.35 1.08-.97 1.64-.96 3.45.13 6.89.42 9.5.6 8.18-11.27 20.2-14.13 31.77-17.88-3.27.1-6.54.5-9.79.42-1.1-.03-3.16-1.33-3.11-1.91.17-2.06-.15-4.3 2.8-5.55a49 49 0 0 1 21.2-4.09c5.48.18 11.8-.34 13.47 7.02 4.56-3.26 9.13-5.33 15.37-2.77-.3-4.11-.44-7.9-.91-11.64-.35-2.72-1.04-5.15 1.89-7.17 2.5-1.71 4.5-4.13 6.55-6.06l-3.02-5.2c-3.4.15-6.67.38-9.93.33-.4-.01-1.33-1.98-1.07-2.34 1.37-1.82.64-3.04-.76-4.47l-.88 1.05c-1.72 2.22-4.15 1.86-6.1.97-.58-.26-.16-3.08.1-4.68.14-.83 1.13-1.5 1.37-2.34.18-.6-.24-1.35-.4-2.05-.57.2-1.23.28-1.68.64-.87.66-1.5 1.75-2.44 2.19-1.02.47-3.03.88-3.31.45-.66-.97-.68-2.48-.66-3.76.02-.8.58-1.6 1-2.65q-6.97 3.15-9.62.29l2.67-4.03c-1.88.36-3.39.52-4.81.95-5.55 1.69-8.65-.88-7.76-7.04-1.24.15-2.86-.15-3.44.49-3.22 3.57-7.76 2.2-11.59 3.36-.43.13-1.11-.56-1.76-.91l2.22-3.86q-2.64.33-3.86 3.28c-1.12 2.7-5.75 5.38-7.44 3.8-2.73-2.56-5.78-1.85-8.5-1.48-4.66.62-9.6-2.7-13.98 1.01-3.26-1.43-5.02.98-7.33 2.53-1.49 1-3.33 1.29-3.96 3.34-.14.44-.96.7-1.5.96-.98.49-1.99.91-2.72 1.25-3.86-2.35-6.12-6.04-6.08-11.26-2.38 2.53-3.85 5.18-5.76 7.46-2.37 2.83 2.04 5.38-.34 8.84l-2.19-7.74-5.92-2.25c0 1.57.16 2.85-.03 4.08-.37 2.37 1.74 5.63-1.9 6.83-1.36.45-3.1-.29-4.94-.52-.13.22-.7.8-.77 1.42-.45 4.1-2.78 6.73-6.23 8.72-2.25 1.3-1.87 3.31-.96 5.33.08.19-.16.52-.32 1l-1.96-.74c-6.53 8.83-7.38 19.37-10.25 29.6 1.01 0 1.61.07 2.2 0 6.51-.83 13-2 19.54-2.43 6.5-.44 13.06-.23 19.41 1.64 8.98 2.65 17.81 5.36 24.1 13.23 1.52 1.9 1.89 2.87.93 4.64-.4-.1-.96-.44-1.15-.29-2.39 1.87-3.77.32-5.69-1.11-3.5-2.61-7.15-5.33-11.18-6.85a75.6 75.6 0 0 0-33-4.45c-5 .4-9.99 1.17-15.13 1.78.3 1.97.7 3.37.7 4.78.08 8.73 2.24 17.1 4.53 25.42.52 1.89 1.3 4.41 2.74 5.23 5.74 3.18 11.55 7.04 17.8 8.3 6.52 1.32 13.58.1 20.39-.32 8.34-.52 12.13-6.05 14.06-13.46 1.14-4.37 2.28-8.76 3.79-13 .48-1.36 2.43-3.34 3.28-3.14 1.4.32 2.8 2 3.56 3.44.57 1.1.4 2.78.13 4.13-.82 4.14-1.79 8.26-2.78 12.37-1.95 8.04-5.48 14.8-14.46 16.67-4.63.96-9.37 1.39-14.02 2.29a32.6 32.6 0 0 1-18.86-1.84c-.73-.3-1.95-.86-2.23-.58-2.62 2.57-4.03.08-5.74-1.22zm112.82-49.45c-2.04.19-3.87.2-5.65.54-11.87 2.22-22.75 7-33.08 13.1-1.37.81-2.32 1.68-1.61 3.9 1.61 5.03 2.35 10.35 4 15.38 1.88 5.73 5.12 10.63 11.54 12.14 5 1.16 10.05 2.4 15.14 2.93 6.2.67 12.43.7 18.06-3 6.49-4.26 9.34-10.94 12.04-17.66 1.52-3.76 2.33-7.81 3.67-12.44-4.44 4.06-9.99 2.86-15.65-.41-6.87-3.96-9.45-7.78-8.46-14.48m47.77-8.62-9.26-17.97-3.74 8.6.52 1.1c2.83-2.39 4.12-.3 5.21 1.23 1.24 1.73 2.49 3.75 2.8 5.8.6 3.82.06 7.84.9 11.59.63 2.82-.14 4.85-1.39 7.01-.77 1.35-1.62 2.64-2.43 3.96l.42.63c1.56-.55 3.66-.66 4.56-1.75 3.28-4 6.54-8.11 9.05-12.6 1.6-2.86 1.85-6.46 2.7-9.72l-.9.33c-.34-.72-.95-1.43-1-2.18-.25-4.87-2.52-8.2-7.17-9.87-2.04-.74-4.04-1.58-6.06-2.38l-.41.74c4.21 4.02 6.16 8.95 6.19 15.48zm75.14 3.34c6.06-.78 15.98-6.48 19.2-11.02 2.61-3.66 2.35-7.83-1.04-9.56-1.96-1-4.44-1.04-6.7-1.39-2.2-.34-2.68.9-2.42 2.82.53 3.86-1.14 6.84-4.24 8.9-4.11 2.73-8.4 5.18-12.5 7.68l4.12 3.7 3.72-6.59c.11 1.12.26 1.7.22 2.27-.07 1.06-.24 2.12-.37 3.19zm-107.76-2.52c-.14 1.4-.13 2.33-.34 3.21-1.07 4.66-.96 5.16 2.86 7.32.99.56 2.3.78 3.46.76 2.23-.05 4.48-.67 6.68-.51 4.73.33 7.87-2.52 11.2-5.1.28-.2.62-.66.55-.92-.72-3.16-1.52-6.32-2.09-8.65zM536.94 40.5c-5.33 1.04-10.21 1.71-14.92 2.98-11.02 3-15.36 10.69-14.15 19.25 5.01-6.98 12.22-8.03 19.91-8.18 1.8-7.48 2.38-8.39 9.16-14.05m-48.53 240.97c-.91 2.64-2.29 5.33-2.63 8.12-.2 1.6 1.3 3.4 2.03 5.1l.69 1.66c3.23 7.26 2.46 14.98 2.3 22.56-.11 4.84 2.89 7.13 6.17 10.03-.42-3.2-.8-5.9-1.12-8.6-.52-4.36.23-8.95-2.63-12.88a6.5 6.5 0 0 1-1.17-3.39c-.05-1.58-.71-3.78 2.19-4.04l1.75 4.91 3.58-1.8c-4.96-6.6-3.83-16.34-11.15-21.67zm-62.43 19.67c-3.96-3.08-7.87-5.95-7.64-11.26H406.3c-1.98 7.8 6.97 17.04 16.66 15.68zM413.27 140c-4.77 2.74-7.59 6.95-8.88 12.34-1.29 5.34.3 9.01 5 10.36-1.3-4.37 1.64-6.64 4.22-9.13.54-.53.93-1.34 1.13-2.1.64-2.41 1.15-4.87 1.8-7.66zm267.62-76.75c-1.12-.82-1.86-1.23-2.44-1.81-3.26-3.18-5.27-3.65-9.18-1.4-4.79 2.76-7.87 7.06-10.3 12.28 2.58 0 4.73.07 6.88-.03.85-.04 2.1-.19 2.45-.74 2.79-4.4 7.17-6.32 12.59-8.3M548.17 53.09c-1.27-2.24-2.22-4.08-3.34-5.82-1.57-2.45-4.11-3.15-6.37-1.52-3.26 2.37-5.52 5.56-7.04 9.75 5.9 1.03 11.33 1.52 16.74-2.4zm35.8-22.3c-2.9-1.72-7.08-3.28-11.22-.87-3.38 1.97-4.45 5.55-3.68 9.51 2.44-.2 4.75-.32 7.03-.65.83-.13 1.8-.57 2.35-1.2 1.95-2.21 3.75-4.57 5.53-6.79m-81.61 55.65c-7.34 2.65-12.4 7.2-14.66 14.89l5.18 2.26 9.7-14.11.66.4zm131.83 121.7-.04.9c.86.62 1.65 1.38 2.6 1.85 2.5 1.25 5.07 2.34 7.6 3.55 2.23 1.09 4.4 2.63 6.79.28.2-.2.77-.03 1.7-.03l-2.24 3.92c4.75-2.3 4.67 2.56 7.16 3.7 1.67.76 2.58 3.35 5.36 1.8-.64-.96-1.1-1.97-1.84-2.72a50 50 0 0 0-23.68-13.9c-1-.26-2.27.41-3.41.65M390.25 182c4.26-2.9 8.74-6.63 13.8-9.16 3.05-1.53 5.17-2.9 5.34-6.38-7.97-1.15-18.6 7.79-19.15 15.54zm243.88 125.5c-.77 6.92.26 9.35 5.34 12 4.79 2.51 9.64 1.79 14.43.02-1.34-.26-2.71-.05-4-.3-7.35-1.41-11.27-2.22-11.16-10.4 0-.43-.81-1.16-1.34-1.26-1.06-.2-2.2-.06-3.27-.06m-227.4-66.54c1.55 3.03 2.85 6.02 4.54 8.77.96 1.55 2.81 1.34 3.45-.27.8-2.01 1.16-4.29 1.21-6.46.07-2.65-1.99-3.95-4.56-3.28zm17.01-109.95 3.73-10.96c-4.13-1.14-8.72 5.19-8.13 10.96zm302.85-5.95c7.1-3.53 9.9-10.2 8.38-20.1-3.25 3.05-1.27 7.16-3 10.09-1.83 3.12-3.45 6.38-5.38 10m-63.97 197.5 7.94-10.84-.66-.9-7.28 4.49zM734 309.31l9.85-2.06-.2-.68-3.43-1.2.1-.66 2.33-.54-2.03-2.9zM628.39 298.9l-.05.82 10.97 1.09.28-2.77zM418.84 137.5l1.84 4.4c1.58-1.8 2.97-3.42 4.7-5.4zm222.9-81.08c-4.76-3.42-6.77-3.2-7.03 0zm40.38 227.6c-.85-3.76-3.5-5.09-6.86-3.9zm8.4-3.35 2.12 7.24c1.1-5.62.94-6.2-2.13-7.24m-15.04-7.4 4.55.63c-.77-2.74-2.74-3.81-4.81-2.63zM636.2 246.7c-.1-.18-.24-.46-.27-.45q-.4.12-.75.36c-.03.02.13.32.2.48l.83-.39zM440.16 435.14c-3.66 2.85-8.2 3.33-12.54 4.15-5.52 1.03-11.03 2.22-15.03 6.36-2.21 2.28-3.7 5.35-5.17 8.23-2.08 4.06-3.5 8.49-5.82 12.4-4.45 7.56-9.58 14.73-14 22.32-9.26 15.97-19.33 31.5-25.73 49.03-2.38 6.51-6.41 12.43-9.9 18.5-7.44 13-15.2 25.84-22.43 38.95-2.93 5.32-4.42 11.44-7.3 16.78-5.18 9.6-10.9 18.9-16.4 28.33-2.47 4.21-4.8 8.52-7.5 12.6-2.48 3.74-5.32 7.08-10.78 5.12-1.46-.52-3.28-.22-4.91-.03-4.33.5-5.66 2.04-6.59 6.48-.25 1.21-1.43 2.24-2.18 3.35-.72-.94-1.75-1.78-2.12-2.85-1.79-5.18-.94-9.18 5.24-10.79 2.13-.55 4.33-1.9 6.35-1.67 4.5.54 5.87-2.55 7.5-5.42 6.01-10.61 12.12-21.18 17.81-31.96 3.27-6.18 5.63-12.82 8.7-19.11 3.58-7.3 7.1-14.67 11.32-21.6 8.23-13.52 16.93-26.76 25.45-40.1 1.14-1.79 2.19-3.7 3.63-5.21 1.19-1.26 2.85-2.75 4.37-2.84 2.34-.14 2.96-1.5 3.7-3.05q12.92-27.07 25.82-54.16c2-4.19 3.57-8.68 6.11-12.5 6.09-9.16 12.35-18.45 24.47-20.38 5.86-.94 11.8-1.44 17.7-2.14l.24 1.23z"/><path fill="#000" d="M285.8 669.98c1.03 4.75-1.98 7.72-4.63 10.96a14.5 14.5 0 0 1-10.03 5.45c-5.03.63-6.68 4.13-5.05 9.04.24.72-.26 2.21-.9 2.62-4.96 3.23-6.74 7.95-7.5 13.6-1.16 8.69-5.56 16.28-9.12 24.13-4.84 10.7-9.48 21.5-14.6 32.09-2.83 5.86-6.47 11.33-9.73 16.99-.58 1.01-1.1 2.06-1.96 3.68 15.94-2.21 30.92-1.24 45.32 4.35l-.12 1.2-16.44-1.47-12.18 25.75-.81-.86c-1.97 0-3.93.05-5.9-.01-4.25-.13-8.5-.3-13.18-.47-4.04 11.9-6.9 25-12.58 37.1-6-3.57-3.44-8.66-2.33-12.64 3.92-14.05 8.5-27.92 12.91-41.84.6-1.9.7-3.56-1.35-4.32-2.31-.84-1.74-2.71-1.06-3.72 9.03-13.42 11.28-29.43 17.01-44.1 2.74-7 5.5-14 8.71-20.78 4-8.42 7.72-16.9 9.88-26 .96-4.04 8.1-8.45 12.85-7.09-1.22-5.4-.55-10.45 4-13.9 3.54-2.66 7.59-2.99 11.17.33 2.67-3.47 5.18-6.77 7.7-10.06l-.07-.06zm-60.56 142.8 13.23-.71c2.56-6.55 5-12.8 7.45-19.03-2.65-.98-3.8-.03-4.87 2.2-2.46 5.17-7.48 5.93-11.3 1.76l-4.52 15.78zm1.81-18.11c-1.02.84-2.04 1.25-2.24 1.92-1.56 5.13-2.97 10.3-4.45 15.56h1.95zm550.57-213.73c2.96 5.94 3.29 12.68 4.45 19.4-5.85-.06-6.02-4.85-7.64-8.19-1.02-2.12-1.49-4.5-2.35-7.23-1.83 1.37-3.4 2.74-5.15 3.83a187 187 0 0 1-11.17 6.5c-.94.5-2.37.08-3.66.08 2.55-2.9 4.47-5.52 6.8-7.7 6.23-5.8 12.62-11.42 18.95-17.1q.47-.4.91-.83c1.43-1.52 4.2-3.26 4-4.52-.51-3.2-2.35-6.31-5.71-7.67a56 56 0 0 0-9.16-2.98c-6.57-1.42-10.76-5.2-13.18-11.45-5.8-15-12.1-29.81-17.65-44.9a136 136 0 0 1-7.37-31.7c-.14-1.18-1.6-2.5-2.78-3.24-8.67-5.37-17.46-10.54-26.11-15.95-2.38-1.49-5.68-2.2-6.29-5.68-.15-.85-.21-1.92.18-2.6.24-.4 1.49-.42 2.22-.28 10.68 2.09 19.46 8.01 28.1 14.15 2.08 1.47 3.85 3.38 5.78 5.06.52.45 1.32 1.3 1.66 1.15 3.09-1.26 3.03 1.23 3.52 2.9 5.95 20.06 13.34 39.61 21.29 58.96 3.28 7.98 6.44 16 9.82 23.94.5 1.16 1.8 2.15 2.97 2.79 3.52 1.92 7.15 3.61 10.73 5.4 3.39 1.7 4.89 4.76 5.72 8.2.43 1.76-.12 3.82 2.16 4.83.22.1.1 1.93-.4 2.52-3.51 4.2-7.16 8.3-10.65 12.3zm-108.19-38.38c.4 1.5 1.2 3.13 1.1 4.7-.08 1.21-1.05 2.93-2.1 3.4-2.97 1.32-6.18 2.12-9.34 3.14 1.3 1 3.01 2.16 4.53 3.54 1.3 1.18 4.35 1.4 2.9 4.46-5.84-2.6-11.73-4.83-17.2-7.82-4.13-2.27-7.8-5.44-11.57-8.35a232 232 0 0 1-10.36-8.58 4.7 4.7 0 0 1-1.52-2.8c-.12-1.16.44-2.4.7-3.62.97.4 2.12.61 2.88 1.26 2.18 1.81 4.06 4.22 7.5 2.38 0-1.29-.1-2.63.04-3.95.09-.93.49-1.83.75-2.74l2.63.96-.41-.6 7.39-4c-.31-1.44-.58-3.4-1.2-5.24-.21-.6-1.3-1-2.06-1.3-2-.78-2.76-2.32-1.87-4.1.91-1.86 2.45-2.49 4.19-.55.3.34 1.2.05 1.76.25 1.03.36 2.02.86 3.02 1.3-.56 1.04-1.06 2.12-1.7 3.1-.24.38-.82.53-1.26.8l.13.5c.67 3.54 2 5.78 6.33 4.33 1.76-.6 3.89-.01 5.83-.17 1.1-.09 2.18-.57 4.15-1.13l3.03 7.25c2.5.3 6.14-.4 6.94 3.57 1.11 5.44-.06 7.49-5.22 10.01zm-7.35-18.3c-7.06 2-13.48 5.58-20.8 5.31.4 2.13.96 4.46 1.24 6.83.47 4.03 1.55 7.59 5.49 9.65 1.41.75 2.65 1.83 4 2.7.47.3 1.08.66 1.57.6 4.35-.64 8.7-1.36 12.96-2.05zM407.2 593.87c-2.39.65-3.02-.36-2.96-2.5.14-6.02.15-12.04.22-18.06.12-10.76-.1-21.52.56-32.24.28-4.65-.97-8.6-2.4-12.72q-4.19-12.15-8.32-24.31c-.22-.65-.68-1.4-.53-1.97.31-1.3.93-2.55 1.43-3.81 1.74.76 4.43-1.47 5.39 1.94.96 3.47 2.48 6.79 3.4 10.27 2.06 7.84 4.31 15.67 5.68 23.65.86 5.03.36 10.31.26 15.48-.08 4.18-.5 8.36-.73 12.55-.24 4.38-.36 8.77-.65 13.15-.4 6.1-.88 12.21-1.35 18.57m272.35-111.1c6.41 17.55 14.43 34.14 22.87 50.63-1.59 2.6-2.1 2.67-3.75.16-9.27-14.06-18.06-28.39-23.42-44.5-1.7-5.12-.46-6.63 4.3-6.3M307.3 927.95c-.96.33-1.91.92-2.88.94-12.21.26-24.44.66-36.65.55-5.95-.06-11.9-1.05-17.82-1.83-1.04-.14-1.94-1.35-2.9-2.07.98-.69 1.94-1.95 2.94-1.98 5.12-.16 10.25-.03 15.38.05 1 .02 2 .28 3 .36q16.4 1.26 32.81 2.45c1.96.15 3.93.02 5.9.02zM459 463.4c.3 1.32 1.2 2.86.81 3.92a3372 3372 0 0 1-17.69 46.42c-.45 1.17-2.3 2.96-2.75 2.75-2.04-.88-3.02-2.79-2.12-5.05 1.56-4 3.25-7.95 4.94-11.9q7.31-17 14.65-33.98.47-1.06.98-2.1zm24.1 103.3q-1.68-8.88-3.33-17.76c-1.15-6.25-2.36-12.48-3.35-18.74a72 72 0 0 1-.92-10.32c0-1.04 1.26-2.1 1.95-3.14.77.92 2.05 1.75 2.21 2.76a627 627 0 0 1 3.18 22.2c.9 7.17 1.65 14.34 2.33 21.53.1 1.2-.52 2.47-.8 3.71zm59.34-78.54c-2.35-1.13-4.73-2.19-7.03-3.4a13285 13285 0 0 1-35.82-18.85c-1.52-.8-3.1-1.58-4.42-2.65-.74-.6-1.05-1.75-1.55-2.66.94-.3 1.92-.92 2.82-.83 1.25.13 2.55.63 3.65 1.27a9232 9232 0 0 1 41.57 24.44c.59.36.97 1.06 1.46 1.6z"/><path fill="#000" d="M713.48 547.33c-1.61-11.75 9.7-37 17.04-38.67l-4.42 10.87c-3.3 8.1-6.57 16.21-9.94 24.27-.47 1.1-1.48 1.98-2.69 3.53zm-6.19-42.63c2.14-14.98 4.87-29.81 11.46-43.65q.46-.09.93-.16c.32.97 1.03 2 .89 2.9-.52 3.3-1.14 6.6-2.06 9.8-2.75 9.66-5.64 19.28-8.54 28.9-.29.97-.98 1.83-1.48 2.74zM285.9 670.04c.96-3.1 2.3-3.9 4.28-2.1 7.5 6.93 12.72 15.18 13.84 25.6.05.4 0 .8-.67 1.58-2.67-4.28-5.18-8.67-8.05-12.8-2.97-4.25-6.3-8.24-9.47-12.34zm428.48-112.49c2.97.03 3.78 1.02 2.6 3.19a341 341 0 0 1-9.3 16.07c-.88 1.42-2.2 2.9-4.53 1.54-1.6-.93-2.07-1.89-1.16-3.3a1038 1038 0 0 1 11.23-17.09c.25-.36 1.03-.37 1.16-.41M390.6 297.25c4.21-5.48 3.76-8.97 1.93-10.79 1.89-1.36 3.15-1 3.9 1.12 1.15 3.3-1.3 7.68-5.83 9.67m267.02 69.77c2.21-1.85-.29-4.98 1.67-6.9l1.55.43-2.05 6.8zm-268.18-68.74-2.02 1.45-.4-.51 2.03-1.5z"/><path fill="#000" d="m389.05 297.71 1.5-.94.42.66-1.53.85z"/><path fill="#fff" d="m407.45 881.83 1.84.03 10.48 8.17-.63.84zm435.5-148.44-6.92 3.16-.53-1.23 7.3-2.87z"/><path fill="#000" d="M605.91 734.36c2.35 5.82.37 11.58-.72 17.18-2.3 11.82-5.09 23.55-7.86 35.27-2.83 11.92-5.9 23.78-8.85 35.66-.97 3.91-1.87 7.84-2.93 11.73-.22.84-1.12 2.23-1.5 2.16-1.4-.23-3.1-.48-2.82-2.76.36-2.95.4-5.92.73-8.88.75-6.65 1.5-13.3 2.42-19.93.96-6.9 1.79-13.82 3.25-20.6 2.82-13.05 6.01-26.02 9.13-39 .58-2.41 1.81-4.7 2.22-7.12.53-3.12 2.27-3.82 5-3.48.64.08 1.32-.08 1.97-.15zm-110.46 27.43c-1.1 3.66 1.3 5.07 3.73 6.18 4.53 2.07 8.54 5.39 13.83 5.75.48.03.85 1.71 1.27 2.63-.83.22-1.88.89-2.46.6-5.08-2.48-9.99-5.34-15.14-7.67-2.99-1.34-3.86-3.36-3.27-6.2.4-1.94-.34-2.98-1.89-3.91a16 16 0 0 1-2.82-2.35c-2.91-2.91-2.77-4.2 1.22-7l-27.27-18.25.16-.4c2.96 1.44 6.09 2.62 8.85 4.39 4.93 3.15 9.58 6.75 14.46 9.98 5 3.3 10.15 6.39 15.23 9.56 8.58 5.33 17.07 10.8 25.76 15.94 6.27 3.72 12.9 6.84 19.18 10.54 3.1 1.81 5.77 4.33 8.63 6.54l-.36.72c-2.32-.98-4.73-1.84-6.97-2.98-5.8-2.98-11.55-6.08-17.32-9.14-1.42-.75-2.82-1.56-4.25-2.32-.52-.28-1.24-.87-1.58-.7-4.74 2.29-8.34-1.1-12.03-2.75-5.84-2.6-11.3-6.05-16.96-9.15zm20.13 7.51 5.7 3.33q.16-.35.36-.7l-5.45-3.07-24.83-17.79-.6.85c6.14 8.71 16.25 12 24.82 17.39zm-56.09-38.97-2.46-.86c.4-.95.6-2.05 1.23-2.81q11.41-14.06 22.9-28.05c.78-.96 1.49-1.99 2.39-2.82 2.07-1.91 4.22-3.08 7.26-1.63 3.24 1.56 6.72 2.6 10.1 3.88 2.89-3.88 3.25-4.09 7.97-2.45 10.69 3.7 19.87 9.94 29.14 17.25l-2.67 3.26-.98-.52c-.16-5.63-5.07-6.68-8.51-8.87a210 210 0 0 0-16.86-9.46c-3.14-1.6-3.28-1.34-4.76 1.35 7.83 4.6 15.6 9.22 23.44 13.75 7.8 4.5 15.65 8.9 23.47 13.34l-.57 1.47c-1.41-.3-3.02-.28-4.2-.97-10.7-6.15-21.2-12.64-32-18.58-7.2-3.97-14.8-7.2-22.21-10.79-1.17-.56-2.32-1.19-2.76-1.2-4.66 5.87-9.2 11.84-14.02 17.57-4.81 5.74-11.28 10-15.89 17.14zm277.93 53.6c-3.13 1.95-6.15 4.1-9.4 5.82-12.35 6.49-25.67 10.44-38.87 14.69-10.27 3.3-20.62 6.4-30.96 9.5-1.38.42-2.9.39-4.36.57l-.42-.98c1.8-1.08 3.48-2.46 5.4-3.19 17.4-6.54 34.84-12.99 52.28-19.44 6.39-2.36 12.78-4.73 19.21-6.97 2.1-.73 4.32-1.07 6.5-1.59z"/><path fill="#000" d="M477.98 729.3c3.64-6.94 8.88-12.15 14.4-17.42 4.24-4.06 7.2-3.02 11.06-.82q14.25 8.12 28.49 16.29c.92.53 1.66 1.4 2.48 2.1l-.23 1.08c-1.32-.08-2.87.28-3.92-.3-11.38-6.26-22.7-12.66-34.38-19.22l-15.11 16.64c18.18 9.96 36.7 19.21 52.76 32.52-19.66-8.13-37.07-20.29-55.55-30.88zm175.4 82.54c.36-5.2 2.05-9.77 6.21-12.8 13.37-9.74 26.88-19.28 40.32-28.91 3.31-2.37 6.51-4.9 9.91-7.1.96-.62 2.45-.4 3.7-.57-.43 1.23-.5 2.93-1.36 3.62a1537 1537 0 0 1-31.07 24.15 449 449 0 0 1-20.43 14.33c-2.93 1.97-6.6 2.99-7.29 7.28m-102.86-83.8c.55.77 1.47 1.48 1.6 2.32 1.52 9.48 3.05 18.96 4.32 28.48.68 5.15.85 10.38 1.32 15.56.2 2.23.6 4.43.86 6.66.2 1.79.31 3.6.46 5.39l-1.08.49c-.7-1.19-1.71-2.28-2.07-3.56-2.95-10.51-3.39-21.37-4.4-32.16-.71-7.55-1.58-15.1-2.38-22.65zm58.79-11.18c-3.26-2.88-6.55-5.73-9.75-8.67-4.91-4.5-9.82-9-14.6-13.63-1.45-1.4-3.17-3-1.66-6.43l26.31 28.44zm23.19 26.23c-5.67.97-11.37 1.91-16.8-1.06-.95-.53-1.49-1.83-2.22-2.77 1.04-.53 2.16-1.65 3.09-1.5 4.85.8 9.66 1.88 14.47 2.99.69.16 1.24.91 1.86 1.39zM520.7 790.33c-12.73-3.2-22.06-12.55-34.34-15.77q.25-.73.48-1.48c1.5.28 3.16.26 4.5.89a731 731 0 0 1 23.7 11.59c2.01 1.04 3.56 2.97 5.65 4.77z"/><path fill="#000" d="M535.01 732.25c1.82 8.92 4.64 17.8 1.38 26.94-1.54-8.94-3.24-17.86-1.38-26.94m141.04 21.6c-2.53 4.92-6.65 8.33-10.92 11.6a73 73 0 0 1-7.44 4.98c5.06-6.72 10.9-12.58 17.94-17.2zm-199.87-52.77c-.3.08-.66.29-.86.19-4-1.97-6.14.34-8 3.4a10 10 0 0 1-1.65 2.18c-2.26 2-3.99 4.05-.72 7.21h-4.34c.66-2.17.88-4.22 1.85-5.8a56 56 0 0 1 6.4-8.79c2.36-2.56 5.49-1.71 7.3 1.61zm50.42-16.73v-4.7c.3.06 1.32.14 2.22.5 1.92.8 2.37 2.87.81 4.18-1.5 1.28-3.2 2.54-5.38 1.34-2.44-1.36-5.23-2.3-4.95-6.09.19-2.7 1.74-3.92 3.85-4.83.4-.16 1 .18.82.14-.93 1.68-2.25 3.2-2.65 4.93-.75 3.23 2.43 3.4 4.14 4.67zm28.86 64.24c5.4-.7 7.93.9 9.14 5.51 1.15 4.35-.67 8.33-4.1 9.88.43-2.83 1.5-6 1.24-9.04-.27-3.27-1.61-6.63-6.28-6.35m-37.77-52.09c.76-2.95 1.45-5.92 2.35-8.83.13-.42 1.39-.85 1.93-.68.65.2 1.66 1.2 1.55 1.6-.86 3.17-1.83 6.34-4.78 8.26zm-3.98 40.96c-1.57 2.05-6.71 1.02-9.65-1.93 3.14-2.58 5.75-2.06 9.65 1.93m7.1-.2c-1.36-1.95-.76-5.18.95-5.9.43-.18 1.28-.07 1.55.25.3.35.4 1.22.18 1.62-.78 1.37-1.74 2.64-2.68 4.02zm-38.8 32.9-6.45-2.37c2.7-2.82 5.18-1.85 6.45 2.37m16.26-47.06 4.04-3.17c.32.45.98 1.24.9 1.31-1.13 1.18-2.36 2.27-3.58 3.39zm148.26-11.6 4.01-4.33.65.62-4.02 4.34z"/><path fill="#000" d="m675.63 753.24 3.55-2.7.46.6-3.6 2.72zm6.4-58.4.87-1.15.44.34-.78 1.3zM593.3 951.82c4.71-.2 5.77 3.12 7.16 5.92 4.22 8.5 7.5 17.38 9.11 26.73 1.13 6.5 1.48 13.2-.59 19.64-.55 1.75-1.9 3.27-3.03 4.79-.24.33-1.08.21-1.64.29-.07-.49-.2-.97-.2-1.46 0-3.8.65-7.73-.08-11.37-1.88-9.38-4.3-18.66-6.65-27.94-1.14-4.48-2.65-8.87-3.89-13.33-.28-1.04-.14-2.2-.19-3.27m-8.32 20.47c.17 2.65.72 6.21.56 9.74a776 776 0 0 1-1.88 28.62c-.16 2.05-1.3 4.02-2 6.01l-1.4-.16c-.49-3.53-1.34-7.06-1.4-10.6-.09-6.75.37-13.5.42-20.24.03-3.89-.38-7.77-.47-11.65-.07-3.3 3.58-6.94 6.77-6.64.84.08 1.6 1.05 2.4 1.6zm-26.42 44.64c1.1-6.3 2.17-11.76 3-17.25.71-4.6 1.05-9.25 1.79-13.84.64-3.97 1.3-7.99 2.53-11.8 1.3-4.05 5.66-6.03 9.63-4.8.63.2 1.43 1.27 1.4 1.9-.05.8-.91 2.27-1.34 2.24-6.46-.43-6.34 4.44-7.34 8.64-2.58 10.85-5.33 21.67-8.07 32.48-.17.65-.77 1.2-1.6 2.44zm-273.09-29.28c-.08-2.38.73-3.46 2.95-3.67 10.36-.96 20.7-2.08 31.06-3.04 5.68-.53 11.37-.87 17.06-1.25 9.58-.64 19.16-1.22 28.73-1.88 2.53-.18 5.05-.56 7.58-.84l.36 1.17c-1.64.51-3.25 1.25-4.93 1.5-10.42 1.52-20.83 3.04-31.28 4.34a1028 1028 0 0 1-28.72 3.1c-5.89.57-11.8.93-17.7 1.22-1.68.09-3.39-.41-5.1-.64m552.67 14.63c-2.8-.24-3.24-1.51-3.12-3.3.6-8.52 2.71-16.7 5.75-24.62 2.79-7.26 5.92-14.4 11.71-19.94 1.2-1.14 5.19-1.5 6.17-.25.58.74.84 2.3.44 3.12-2.5 5.1-5.26 10.1-7.86 15.16-4.53 8.8-8.75 17.73-11.3 27.35-.25.92-1.19 1.65-1.8 2.48zm41.32-39.94c-1.11 0-2.2.33-2.9-.05-3.4-1.83-4.83.5-6.05 2.83-4.67 8.88-9.17 17.85-13.86 26.72-.74 1.42-2.1 2.5-3.18 3.75l-.8-.48c-.09-.55-.41-1.19-.24-1.63 4.13-10.6 8.32-21.17 12.46-31.76 1.82-4.68 6.02-5.48 10.16-6.13 2.85-.45 4.63 2.35 4.41 6.75m-9.31 42.61c2.58-15.22 5.1-30.42 12.65-44.15 1.48-2.67 3.25-4.92 6.06-6.1 1.31-.55 3.22-1.18 4.18-.61.97.56 1.31 2.53 1.52 3.94.14.96-.44 2.02-.82 3.56l-3.5-3.73c-8.44 15.05-12.46 31.84-20.1 47.08zm-44.24-307.9c-1.35 1.6-2.72 2.19-5.1 1.75-8.34-1.54-16.77-3.54-25.16-3.57-7.82-.02-15.65 2.3-23.48 3.46-.97.15-2.04-.43-3.07-.67.46-.8.77-1.77 1.42-2.35 4.42-3.85 9.9-5.34 15.46-6.23 13.08-2.1 25.46.6 37.32 6.14.92.43 1.77 1.01 2.66 1.52zm-12.86 47.33c-.98-.16-2.04-.17-2.95-.53a170 170 0 0 0-35.1-9.39c-1.48-.24-2.99-.6-4.37-1.19-.76-.32-1.28-1.2-1.9-1.83.67-.6 1.3-1.67 2.02-1.72 2.76-.2 5.58-.38 8.32-.03 7.36.95 14.64 2.46 21.37 5.7 4.55 2.18 8.82 4.96 13.21 7.47zM529.77 322.64c-2.42-4.86-6.42-8.18-10.81-11.13 5 1 8.61 4.24 10.53 8.53 1.75 3.92 4.46 4.67 7.97 4.77 2.76.08 5.54-.09 8.3.1.91.06 1.77.93 2.65 1.43-.56.81-.94 1.88-1.7 2.39-3.56 2.38-7.66 2.34-11.73 2.28-1.45-.01-2.51.04-2.65 2.02-.3 4.13-1.72 4.91-5.75 3.45a4 4 0 0 1-2.2-1.83l5.96 1.24 1.62-4.38c-3.03-.82-5.83-1.5-8.57-2.36-1.02-.32-2.3-.83-2.76-1.64-.77-1.35-.98-3.02-1.43-4.55 1.47-.35 2.94-1 4.4-.96 1.88.06 3.75.67 5.63 1.04l1.08.42-.52-.83zm-15.78-29.63c8.43-7.42 26.64-9.6 38.13.84-.74 2.73-3.06 2.06-4.74 1.8-4.98-.79-9.87-2.38-14.87-2.75-4.7-.35-9.48.52-14.23.73-1.22.06-2.46-.35-4.29-.63zm75.07 70.7c-1.77 3.72-4.8 4.29-7.57 5.18-7.28 2.34-14.08 1.12-20.25-3.22-1.08-.75-1.72-2.34-2.12-3.68-.12-.39 1.28-1.77 1.99-1.77 1.98-.01 4 .3 5.92.8 1.53.41 2.91 1.36 4.4 1.96 4.47 1.8 9.02 2.7 13.8 1.18 1.03-.32 2.17-.27 3.83-.46zm-3.53 24.85c-6.69 1.1-13.34 2.86-19.96.26-1.02-.4-1.77-1.48-2.4-2.66 7.96-1.71 15 1.54 22.36 2.4m-25.35-49.34c-5.6-4.68-11.37-3.5-17.44-1.72 2.27 3.48 5.72 1.56 8.41 2.98-2.55-.26-5.12-.4-7.65-.82-.69-.11-1.25-1.02-1.87-1.56.58-.65 1.03-1.57 1.76-1.9 4.04-1.84 8.22-1.58 12.54-1 2.67.36 3.87 1.26 4.25 4.03zm-41.58-.78 21.9 4.04c-7.66.25-15.12-.53-22.21-3.33zm118.07-17.21c-1.73 4.43-5.04 5.86-8.16 7.14-5.94 2.44-12.16 3.88-18.68 3.26-1.49-.14-3.1-.15-4.39-.78-.95-.47-2.06-1.85-2.04-2.81.02-1.37.73-2.73 2.86-2.65 5.07.18 10.14.02 15.22.1 5.15.07 9.91-1.28 15.18-4.26zm6.93 13.4c-4.67 1.27-9.3 2.69-14 3.8-4.96 1.18-4.93 1.06-5.66 6.3-.26 1.85-.87 3.65-1.31 5.47l-.86-.15c.54-3.48 1.04-6.97 1.67-10.44.1-.49.71-1.12 1.2-1.27q9.3-2.76 18.62-5.44zm5.77-33.32c.87 1.4 2.1 2.7 2.48 4.22.22.9-.9 2.14-1.42 3.23-.98-.6-2.72-1.13-2.8-1.82-.16-1.78.4-3.64.68-5.47zM234.3 807.27l-5.35 1.94-.78-.84c.43-.98.66-2.6 1.35-2.83 1.36-.44 2.98-.13 4.5-.13zm427.73-269.58q-5.67 1.4-11.36 2.78c-3.26.78-5.35-.43-6.36-3.69-.4-1.32-.9-2.66-1.02-4.02-.04-.56.66-1.6 1.19-1.72a315 315 0 0 1 13.79-2.85c3.09-.56 4.3.63 4.08 3.69-.13 1.84-.2 3.7-.32 5.81m-12.32 5.93c2.21-.81 3.89-1.53 5.63-2 .52-.15 1.7.32 1.75.65.19 1.15.32 2.48-.13 3.5-.27.6-1.87 1.26-2.44.99-1.72-.8-3.22-2.06-4.81-3.14"/></svg>