<svg xmlns="http://www.w3.org/2000/svg" width="1080" height="1099" fill="none" viewBox="0 0 1080 1099"><path fill="#fff" d="M563.18 768.65c-2.7-5.73-5.32-11.29-4.79-17.72.24-2.96.53-5.92.59-8.89.05-2.26-.77-3.9-3.28-4.8-11.58-4.16-22.97-8.95-34.7-12.65-7.71-2.43-15.86-3.58-23.87-4.97a843 843 0 0 0-28.12-4.3 388 388 0 0 0-20.54-2.35c-1.38-.11-2.86 1.1-4.32 1.64-4.09 1.54-7.69-.57-11.34-1.75-1.66-.54-2.99-2.06-4.54-3-1.28-.78-2.62-1.7-4.04-1.97-8.01-1.54-16.03-3.88-24.09-4.06-9.65-.22-19.36 1.03-28.97 2.97-9.66 1.95-19.52 2.93-29.33 4.1-9.91 1.18-19.87 2.14-29.81 3.05-2.86.26-5.84.48-8.62-.07-6.34-1.25-9.9-7.65-8.37-14.11 1.97-8.37 6.72-15.27 11.7-22 3.59-4.84 7.6-9.36 11.46-13.98 2.9-3.47 2.16-7.54 1.82-11.45-.2-2.47-1.12-4.89-1.6-7.35a11.4 11.4 0 0 1 2.15-9.51c1.97-2.54 4.04-5.12 6.53-7.1 4-3.2 4.58-8.28 7.36-12.08a389 389 0 0 1 10.48-13.7c.56-.7 2.13-1.3 2.87-1.02 4.7 1.8 8.9 4.1 12.25 8.37 3.92 5 8.6 9.6 13.6 13.57a160 160 0 0 0 28.55 18.43 7.8 7.8 0 0 1 3.66 4.87c.71 3.81 3.4 5.49 6.19 7.18a192 192 0 0 0 13.85 7.96c1.67.84 3.93.56 5.92.69 6.14.37 12.2.65 18.15 2.86a67 67 0 0 0 15.84 3.8c8.1.91 16.3.88 24.44 1.45 3.57.26 7.1 1.05 10.65 1.54q6.97.96 13.96 1.81c6.23.76 12.47 1.45 18.71 2.17.39.04.78 0 .58 0-.78-5.97-1.31-11.94-2.43-17.8a40 40 0 0 0-3.42-9.91 517 517 0 0 0-10.85-20.83c-.43-.8-1.8-1.44-2.8-1.53-2.45-.22-4.96.11-7.4-.15a4.8 4.8 0 0 1-3.09-1.81c-1.73-2.58-4.67-3.78-7.77-3.7-7.96.2-15.92.02-23.87.1-3.04.02-6.08.32-9.12.49-.81.04-1.74.26-2.44-.03a425 425 0 0 1-12.26-5.4c-3.77-1.72-3.05-4.92-2.64-8.07.84-6.34 1.59-12.69 2.5-20.1-6.6 3.7-12.47 7.07-18.45 10.24-1.27.67-3.06 1.08-4.4.75-5.83-1.42-11.5-3.6-17.39-4.64-4.6-.82-9.46-.76-14.12-.27-1.93.2-3.6 2.6-5.45 3.92-1.02.74-2.59 2.14-3.15 1.84-1.39-.75-3.1-2.2-3.3-3.57-.47-3.48-.6-7.14-.01-10.59.28-1.68 2.19-3.47 3.8-4.5 5.36-3.45 11.22-6.18 16.3-9.95 4.5-3.33 8.37-2.29 12.76-.43a55 55 0 0 0 10.26 3.34c2.16.44 4.8.41 6.77-.46 5.94-2.63 11.61-5.84 17.47-8.65 1.7-.82 2.1-1.94 2.56-3.63 1.8-6.55 4.02-12.99 5.96-19.5 2.45-8.26 4.23-16.77 7.31-24.78 2.83-7.35 7-14.18 10.57-21.25.3-.58.54-1.18.99-2.14h-25.72c-3.12 5.6-6.22 11.51-9.6 17.23-4.68 7.88-12.23 12.6-19.78 17.23a31 31 0 0 1-5.36 2.8c-1.28.47-2.78.32-4.18.44l-.22-.76c-1.66 1.85-3.38 3.66-4.98 5.58-1.46 1.75-5.02 1.66-7.19-.27a17 17 0 0 1-5.57-9.53c-1-4.93-2.9-9.87-2.81-14.77.13-7.06 3.15-13.5 7.4-19.29 2.2-3 4.08-6.24 6.45-9.91-2.04 0-3.43.04-4.81-.01-4.8-.18-9.6-.33-14.4-.65-2.78-.18-6.89-5.28-7.42-7.96-.38-1.92-1.73-3.71-2.87-5.4-4.28-6.4-9-12.52-12.84-19.15-1.99-3.45-5.1-3.54-7.95-4.51-2.22-.76-3.29-1.87-3.48-4.14-.06-.7-.72-1.36-1.22-2.23l1.54-1.22-4.24-9.36-15.66 11.26c-1.9-2.19-1.81-2.09.3-3.83 4.04-3.36 7.98-6.84 12.03-10.3l-3.56-6.04c-18.19-1.33-27.57-13.9-30.99-28.82-.8-3.54.13-7.73 1.15-11.37a204 204 0 0 1 7.39-22.4c2.18-5.32 5.54-10.16 8.31-15.1-3.69-5.55-6.41-10.91-3.87-18.68 2.65-8.07 8.05-13.84 12.7-20.35.47-.66 1.18-1.34 1.27-2.06.45-3.83 3.2-5.7 6.04-7.65 2.93-2 5.9-4.01 8.54-6.38 1.3-1.15 1.9-3.09 2.75-4.71.75-1.45 1.11-3.18 2.13-4.37 1.63-1.9 3.67-3.45 5.66-5.27 1.93.74 4.08.83 4.7-1.96.2-.92-.96-2.14-1.53-3.3 6.36-.56 10.28-6.67 16-9.9 3.51-2 7.04-3.55 11.13-3.72 6-.25 10.96-2.12 14.92-7.2 5.53-7.1 11.77-13.65 17.75-20.4 2.98-3.36 7.14-3.9 10.3-1.05 1.55 1.4 2.16 3.4.32 5.36-2.01 2.14-3.91 4.39-5.97 6.7 1.62 1 3.15 1.88 4.6 2.89 1.43.98 2.77 2.07 4.66 3.5 6.26-5.97 12.71-11.91 18.92-18.1 6.69-6.65 12.99-13.7 19.78-20.25 4.39-4.24 9.4-7.82 14.05-11.8 5.34-4.59 10.57-9.3 15.3-13.45-1.41-2.94-2.85-5.07-3.43-7.41-.59-2.37 1.14-3.66 3.63-3.5 8.43.6 16.86 1.14 24.68 1.66 6.75-9.42 12.92-18.23 22.7-23.36 3.02-1.6 6.64-2.15 10.04-2.96.86-.2 2.77.56 2.75.71-.38 3.21 2.35 4.1 4.1 5.63 3.15 2.76 3.38 5.3 1.17 10.48-1.75 4.1-3.95 8-5.93 11.94 2.96 1.16 6.03 1.7 8.14 3.41 1.64 1.32 3.1 2.18 5.06 2.4 3.2.36 5.8 2.35 6.36 5.25.28 1.47.05 3.05.05 4.77 4.58-1.37 8.85-2.62 13.11-3.92 3.02-.91 4.15-3.07 4.33-6.13.08-1.38.94-2.72 1.5-4.07.5-1.18 1.88-2.08.03-3.6-.7-.59-.1-2.72-.1-4.27 2.75-1.19 2.94-1.9.9-4.4-.8-.95-1.73-1.76-2.56-2.67-1.04-1.14-1.82-2.2-.58-3.85.39-.52-.05-2-.55-2.76-6.2-9.22-12.57-18.32-18.69-27.58-3.71-5.63-7.11-11.47-10.57-17.25-3.37-5.64-6.14-11.38-4.16-18.32 1.5-5.26 5.14-8.9 8.96-12.31 12.26-10.95 26.17-19.41 41.07-26.23 11.62-5.32 23.4-10.22 35.9-13.27a870 870 0 0 0 33.12-8.63c8.13-2.32 16.08-5.29 24.13-7.93 7.6-2.5 15.27-4.44 23.39-4.47 5.27-.02 9.82 2.1 14.57 3.78 6.45 2.28 11.2 7.01 16.09 11.42 4.02 3.63 7.51 7.85 11.24 11.81.14.15.43.34.4.45-1.4 5.53 4.52 7.71 5.56 12.2.78 3.37 2.35 6.54 3.41 9.85.7 2.18 4.47 4.14 7.3 3.6.98-.18 1.96-.27 4.04-.56l-3 5.78c2.11 2.66 1.48 5.54-1.43 8.3-1.98 1.9-3.67 4.12-5.39 6.08l4.97 4.12c-6.2 3.36-10.25 9.29-18.3 8.24l-1.73 19.4 9.95 2.12c2.5.55 4.2 1.88 3.55 4.68-.96 4.18-1.5 8.62-3.36 12.4-3.32 6.74-7.49 13.07-11.27 19.5l10.71 6.06c1.27.72 3.31 1.24 3.64 2.28.7 2.26 1.07 4.9.61 7.19-1.56 7.77-5.78 14.24-11.2 19.85-1.67 1.72-1.57 2.63-.1 4.2 5.76 6.2 11.75 12.23 17.02 18.83 3.3 4.14 5.72 9.06 8.03 13.88a4.04 4.04 0 0 1-2.45 5.56 70 70 0 0 1-9.53 2.46c-6.34 1.25-12.74 2.13-19.04 3.51-6.86 1.5-13.63 3.4-20.45 5.09-.58.14-1.22.08-1.84.1-3.87.07-6.49 2.45-6.45 6.4.07 9.24.4 18.48.53 27.72.02 1.59-.3 3.21-.67 4.76-.15.62-.97 1.62-1.28 1.55-3.24-.74-2.43 1.99-3.28 3.46-2.07 3.6-4.45 7-6.74 10.47-1.83 2.78-5.13 4.74-4.76 8.74.03.38-.5.85-.83 1.21-11.13 11.88-18.97 25.93-26.4 40.23-.3.58-.23 1.5-.02 2.17 1 3.13 2.04 6.26 3.28 9.3.27.65 1.62 1.5 2.14 1.32 3.66-1.33 7.14-3.32 10.9-4.21 1.51-.36 3.6 1.42 5.32 2.4.58.33.69 1.46 1.25 1.83 6.66 4.28 13.53 8.26 19.97 12.85 2.16 1.54 4.1.31 6.11 1.37 0-4.85.3-9.42-.09-13.93-.37-4.37 2.29-7.2 5.06-9.14 3.26-2.26 10.09.23 12.69 3.54 1.32 1.67 2.75 3.28 4.6 5.48 9.05-4.5 17.95-9.21 27.1-13.3 2.39-1.05 5.67-.38 8.47-.02.65.09 1.69 2.31 1.45 3.28-1.1 4.47-2.65 8.83-3.92 13.26a13 13 0 0 0-.43 3.97c.17 4.62 1.23 9.37.5 13.82-.64 3.84-.4 7.1.57 10.76.51 1.9-.3 4.76-1.55 6.42-2.52 3.38-5.67 6.3-8.67 9.29-3.91 3.9-7.95 7.68-11.88 11.57-.51.51-1.06 1.33-1.03 1.98.13 2.8-1.46 3.57-3.86 3.95-5.17.82-10.29 1.96-15.47 2.71-2.39.35-4.86 0-7.3.13-1.3.06-2.97 0-3.84.75-8.4 7.1-18.48 11.2-28.31 15.65-2.38 1.08-5.36.8-8.06 1.16l-9.1 1.14-1.01 38.36c4.98-2.1 9.48-3.93 13.9-5.92 4.46-2.01 8.99-3.49 13.97-3.3 3.62.14 5.05 1.92 4.55 5.47-.25 1.8.12 3.68.21 5.31 8.18-3.2 15.75-6.78 23.69-9.08a49 49 0 0 1 18.79-1.63c1.01.1 1.97.77 3.01 1.21-2.2 3.46-5.39 3.03-8.55 2.94-6.2-.18-12.3-.6-18.3 2.27-4.9 2.34-10.35 3.6-15.61 5.12-1.37.4-1.9.82-2.07 2.25-.1.77-1 1.63-1.75 2.08-1.8 1.06-3.75 1.89-5.79 2.88-.31-.36-.9-1.04-1-1.13l2.79-10.16c-8.48 3.56-16.2 6.63-23.77 10.04-5.86 2.63-5.77 2.8-5.77 9.42v17.32c0 .82-.08 1.68.15 2.44.67 2.21.54 3.45-2.25 4.18-4.45 1.17-8.7 3.05-13.26 4.7.36 5.62.4 11.65 1.28 17.56.51 3.38-1.32 4.57-3.45 5.67-4.27 2.2-8.67 4.14-13.51 6.42 3.4 8.25 6.77 16.57 10.28 24.84 5.62 13.2 11 26.52 17.14 39.47 4.78 10.06 10.46 19.7 15.93 29.43 4.41 7.83 9.1 15.5 13.66 23.24 6.43 10.92 13.06 21.73 19.2 32.82 2.99 5.42 5.18 11.3 7.42 17.1a6.3 6.3 0 0 1-.38 4.83c-7.24 11.92-15.08 23.52-26.87 31.41-6.6 4.43-13.99 7.35-22.4 4.23-7.34-2.7-14.73-5.35-22.28-7.34-10.77-2.83-21.7-5.13-32.6-7.44-2.36-.5-4.93.03-7.38-.17-2.25-.2-4.45-.87-6.7-1.1-3.04-.34-6.13-.3-9.16-.7-2.77-.36-4.15 1.48-4.47 3.39-.52 2.94-1.06 6.44.04 9 2.96 6.86 2.12 13.79 1.63 20.75-.37 5.39-1 10.76-1.74 16.1-.16 1.16-1.32 2.2-2.09 3.24-.74 1-1.64 1.88-2.35 2.9-3.13 4.56-5.96 9.33-9.39 13.64-2.93 3.7-7.19 4.33-11.6 2.85-7.69-2.57-15-5.91-20.45-12.2-6-6.94-5.67-19.76-.78-26.9 3.14-4.59 11.33-6.65 18.42-5l-3.66-18.38-25.89 1.99zm57.1-75.87.5-1.08c1.01 2.27 2.2 3.03 4.43 1.42 1-.73 2.71-.85 4.04-.7 2.8.32 5.63.8 8.33 1.61 1.54.47 2.73 2.07 4.27 2.55 2.87.88 5.85 1.43 8.82 1.92 4.54.76 7.49-1.66 7.33-6.15-.07-1.97-.75-3.92-1.17-5.87-.64-2.95-1.22-5.9-1.97-8.82a3.6 3.6 0 0 0-1.36-2c-13.97-8.82-27.97-17.58-41.96-26.37-2.16-1.36-4.28-2.79-7-4.57.65 5.83 1 10.9 1.85 15.88.88 5.25 2.2 10.43 3.38 15.63.57 2.55.46 5.87 2.05 7.44 2.37 2.35 3.14 5.35 4.96 7.8.63.84 2.3.9 3.5 1.3zM331.49 351.21c-7.86 10.85-13.3 22.34-11.14 35.99.96 6.08 2.57 12.24 6.85 17.09 2.44 2.76 5.25 5.1 9.35 4.7 1.72-.17 2.34-.96 2.25-2.8-.1-2.34.24-4.7.5-7.05.17-1.6.65-3.19.76-4.8.45-7.1.55-14.24 1.3-21.3.42-3.93 1.24-8.2 5.7-9.92 2.76-1.05 3.48-2.7 2.57-5.43-6.77.43-12.12-3.1-18.13-6.47zm77.27 173.89c1.4-.85 2.94-1.56 4.24-2.57q5.69-4.41 11.24-9c4.4-3.61 9.69-6.34 12.47-11.62 2.42-4.6 5.47-9.02 5.46-14.41-4.34-.62-8.42-1.26-12.51-1.76a221 221 0 0 0-13.31-1.3c-.9-.05-2.32.77-2.76 1.58-2.88 5.4-5.6 10.9-8.25 16.4-.32.66-.3 1.9.11 2.41a8.8 8.8 0 0 1 1.72 8.36c-1.4 4.22-.73 7.84 1.58 11.9zm17.17-285.56-15.51 16.95c1.77 1.82 3.38 2.94 5.88 1.65 1.12-.57 2.58-.5 3.89-.68 1.72-.23 3.45-.4 5.16-.62 2.02-.28 2.28-2.16 3.3-3.42 1.94-2.4 4.42-4.34 6.55-6.36zM559.6 170.8c.84-4.9 1.83-9.76 2.44-14.67.35-2.81-1.08-3.79-3.26-2.68a25.3 25.3 0 0 0-13.24 15.87zm119.33 377v-9.34l-5.37 1.21z"/><path fill="#fff" d="M392.34 937.05c2.95 2.55 5.67 4.71 8.15 7.1 2.6 2.5 5.57 4.87 7.34 7.9 3.52 6.07 1.3 10.68-5.36 13.02-9.9 3.47-20.04 6.28-30.03 9.47-1.16.37-2.53 1.17-3.07 2.16-1.93 3.6-3.46 7.42-5.32 11.07-2.7 5.3-5.2 10.77-8.45 15.73-3 4.55-6.63 8.77-10.45 12.68-4.27 4.38-7.13 9.45-9.38 15.03-1.35 3.35-2.7 6.82-4.76 9.73-3.74 5.25-5.27 11.17-5.74 17.28-.62 8.18-.52 16.43-.71 24.65-.02.51-.1 1.16.16 1.5 2.24 2.89-.42 4.62-1.87 6.06-1.15 1.13-3.4 1.16-5.16 1.67l.47-1.18c-2.15-4.57-4.69-8.99-6.35-13.73-3.04-8.69-6.01-17.45-8.12-26.39-1.32-5.56-1.06-11.5-1.4-17.27-.67-11.33-1.75-22.66-1.71-33.99.03-9.01 1.66-18 2.2-27.03.25-4.34 1.14-8.58.44-13.16-.54-3.5 1.72-7.47 2.87-11.2a11 11 0 0 1 1.78-3.04c.33-.44 1.38-.98 1.52-.85 3.04 2.92 4.88-1.13 7.42-.9l.5-.72c-2.14-2.7-4.19-5.48-6.42-8.1-2.32-2.73-4.8-5.34-7.25-7.95-2.8-2.96-2.86-6.59-2.57-10.3.37-4.77.63-9.56 1.25-14.31 1.1-8.5 2.15-17.04 3.81-25.44.64-3.25 2.6-6.36 4.5-9.18.84-1.26 2.97-1.74 4.6-2.38.81-.32 1.9 0 2.7-.32 2.24-.9 3.86-.05 5.54 1.37a40 40 0 0 0 5.18 3.62c3.59 2.16 7.41 3.97 10.82 6.36a42.4 42.4 0 0 0 19.25 7.28c7.83 1.02 15.9 2.27 23.4-.8a312 312 0 0 0 29.53-13.92c6.1-3.3 11.77-6.87 19.07-6.8 2.03.03 4.15-1.58 6.1-2.67 9.37-5.2 18.96-10.06 27.93-15.88 6.2-4.03 11.56-9.4 17.26-14.2 1.8-1.52 3.48-3.18 5.22-4.77.37-.34.9-.65 1.06-1.08 1.29-3.3 2.43-6.67 3.78-9.95.6-1.47 1.54-2.8 2.31-4.14l3.28 1.7c3.57-4.64 7.12-9.35 10.76-13.97 2.45-3.11 4.89-6.26 7.63-9.1 1.2-1.24 3.17-1.74 4.77-2.6 5.97-3.2 12.47-3.98 19.1-4.34 3.23-.18 6.44-.68 9.64-1.14 2.46-.36 5.14 1.66 5.1 4.22-.1 4.96-.45 9.9-.58 14.86-.23 9.4 2.23 18.21 6.47 26.51 1.89 3.7 4.28 7.13 6.57 10.61.3.47 1.39.36 1.97.74.89.59 2.04 1.24 2.31 2.1.2.62-.7 1.85-1.41 2.42a57 57 0 0 1-5.86 4.2c-10.35 6.45-21.34 11.6-32.67 16.08a65 65 0 0 0-11.78 6.36c-6.58 4.37-14.15 5.97-21.45 8.32-1.8.58-3.82.6-5.52 1.37-1.4.63-2.38 2.17-3.75 2.96-3.7 2.15-7.59 3.97-11.25 6.19-5.23 3.17-10.33 6.57-15.47 9.89-2.43 1.57-4.72 3.43-7.3 4.69-2.99 1.45-5.58 3.03-7.63 5.82-1.1 1.5-3.52 2.2-5.47 2.92-14.38 5.33-28.21 11.68-40.6 20.89-1.3.96-2.75 1.7-4.08 2.62s-2.6 1.95-4.82 3.64zm-49-205.18c.24-4-.07-7.83 5.08-7.82l.1-.84-3.62-3.1c-1.78-2-.6-3.49 1.8-4.08a336 336 0 0 1 17.07-3.84c.9-.17 2.53.62 3 1.45 1.84 3.25 4.65 4.6 8.12 5.39.93.2 1.55 1.79 2.15 2.54-5.4 5.27-12.43 4.24-18.36 6.56a92 92 0 0 1-10.03 3.24c-1.77.47-3.67.37-5.31.5m-59.83 20.55c-.74 4.61-1.42 8.59-2 12.58-.66 4.7-1.23 9.42-1.82 14.14-.43 3.4-.38 6.97-1.45 10.15-.54 1.63-2.95 2.88-4.78 3.72a1.81 1.81 0 0 1-2.43-2.09c1.96-12.3.47-25.26 6.76-36.77a11 11 0 0 1 2.14-2.9c.59-.53 1.83-1.01 2.39-.73.69.36.97 1.5 1.18 1.9zm56.01-475.24c3.88-8.34 15.14-17.58 25.73-16-4.14 1.75-8.72 3-12.5 5.45-3.62 2.35-8.06 4-10.13 8.41-.37.81-1.65 1.18-3.1 2.13m15.62 198.38c-3.65-2.01-4.76-4.76-4.14-8.86zm-4.97-201.01 6.02-5.67c-.52 4.14-2 5.5-6.02 5.67m-3.64 1.46-1.35 5.9c-1.41-2.32-.22-4.3.93-6.28q.2.2.41.38z"/><path fill="#fff" d="m346.12 275.62 2.55-3.7q.16.2.35.38l-2.49 3.7z"/><path fill="#fff" d="m348.67 271.92.76-.17-.41.55a3 3 0 0 1-.35-.38"/><path fill="#000" d="M530.45 675.09c-5.2-15.33-10.4-30.66-17.48-45.24-1.63-3.35-1.24-7.42-4.26-10.26a73 73 0 0 1-8.81-9.69c-.33-.44-.76-1.05-1.7-.47 2.25 6.23 8.89 9.85 10.16 16.7a133 133 0 0 1-31.97 1.36c-10.98-.95-21.33-4.64-31.15-9.68-1.9-.97-3.75-2.07-5.75-2.74-2.35-.78-3.09-2.56-3.04-4.59.04-1.93 2.1-2.26 3.44-2.4 1.77-.2 2.28-1.17 2.4-2.48.45-4.76 1.54-9.4 2.84-14.37-3.96 2.7-7.85 4.87-11.17 7.7-4.9 4.2-9.8 3.8-15.32 1.64-4.06-1.6-8.11-3.21-11.88-5.36-4.4-2.5-8.19-1.4-11.9 1.22-2.51 1.78-4.93 3.68-7.47 5.42-.64.44-1.42 1.48-2.4.56-.84-.8-.99-1.9-.11-2.73 1.53-1.47.37-2.47-.46-3.57-.29-1.46.95-1.65 1.8-2.08a92 92 0 0 1 19.75-7.12c1.29-.31 1.33-.52 1.4-1.74.1-2.1-1.45-4.1-.38-6.35 2.84.89 2.19 3.22 2.07 5.09-.13 2.1.32 3.17 2.54 4.01 5.4 2.05 10.65 4.52 15.88 6.96a4.2 4.2 0 0 0 4.55-.3c14.04-9.25 28.6-17.7 42.25-27.54.35-.26.18-1.49 1.13-.76.44.34.69.79.26 1.32-.44.53-.52 1.1-.14 1.7q.29-.1.55-.26c5.19-3.21 5.65-7.64 1.15-11.7-.95-.87-.92-1.68-.06-2.28 1.39-.95 2.68-1.53 1.4-3.7-.34-.58.26-2.07-.96-2.65-1.24-.59-2.79-.02-3.43.6-2.66 2.6-6.08 4.12-8.85 6.49-4.78 4.1-11.26 6.16-14.54 12.07-.13.23-.83.42-1.06.28-1.25-.73-1.87.3-2.64.85-2.4 1.74-4.76 3.53-7.16 5.27-3.87 2.8-7.94 4.87-12.97 4.58-6.48-.38-12.25-2.6-17.58-6.11-1.59-1.05-2.92-1.25-4.7-.37-7.8 3.85-14.65 9.17-21.83 13.98-.31.21-.76.77-.68.93 1.39 2.77.83 6.06 2.35 8.79-.21.68-.78 1.49-.58 2.02.6 1.7-.87 1.42-1.55 1.93-1.04.77-1.47-.07-1.94-.71-2.49-3.4-4.03-7.27-5.68-11.1-.3-.7-.22-1.17.3-1.62 5.9-4.97 11.14-10.75 17.95-14.6 2.38-1.35 4.82-2.63 7.21-3.97 4.64-2.6 9.07-1.35 13.46.68 3.86 1.78 7.47 4.11 11.89 4.62 3.77.44 6.43-1.77 9.29-3.4 4.42-2.54 8.62-5.47 12.95-8.18a4.8 4.8 0 0 0 2.26-3.32c4.4-18.33 8.85-36.66 17.53-53.6 1.11-2.18 2.28-4.33 4.01-6.1.62-.64 1.15-1.54 2.32-.95.97.5.8 1.38.76 2.16-.18 3.32-1.68 6.23-2.94 9.22a627 627 0 0 0-17.33 46.48c-.18.56-.12 1.2-.2 2.2 4.3-2.48 8.46-4.59 12.3-7.15 4.96-3.3 10.46-5.54 15.66-8.35.44-.24.96-1 1.57-.34.38.4.24.95 0 1.43-.59 1.25.62 2.3.2 3.73 2.89-1.3 5.52-2.5 8.17-3.68-1.56 2.9-4.57 3.86-6.82 5.77-1.84 1.55-1.86 1.91.29 2.85 2.05.9.18 1.83-.22 2.22-1.29 1.28-2.22 2.46-2.09 4.49.1 1.53.96 1.3 2.1 1.34-1.3 1.9-4.08 3.34-2.67 5.7 1 1.67 3.22 2.61 5.05 4-2.28.8-3.96-1.76-5.83-.36-1.49 1.1-2.9 2.42-2.18 4.65-1.03.2-1.33-1.08-2.51-.53-3.67 1.71-3.73 1.6-4.7-2.35l-19.73 14.3a3.8 3.8 0 0 0-1.72 3.22c-.3 5.6-2.58 10.78-4.13 16.1-.82 2.84-.53 3.52 2.59 3.74 5.75.41 11.43 1.7 17 3.3 1.35.38 2.28.2 3.4-.54 21.68-14.6 45.08-25.91 68.93-36.42a528 528 0 0 1 76.22-26.7c1.78-.47 2.64-1.06 2.7-3.18.17-5.59 1.86-11.1 2.29-16.5.46-5.87 4.39-5.99 7.6-7.81 1.6-.91 3.31-1.73 4.88-2.56s4.02-.7 6.12-1.22c5.58-1.4 11.28-2.32 16.94-3.42 3.8-.73 7.62-1 11.46-.26 1.36.26 1.46 1.43 1.6 2.35.75 5.41 1.84 10.8.94 16.32-.18 1.1-.1 2.26-.13 3.4-.18-.47-.45-.92-.5-1.4-.68-5.66-1.6-11.28-2.36-16.93-.44-3.21-2.28-2.87-4.08-2.41-8.54 2.15-17.03 4.48-25.53 6.79-1.6.43-3.26.91-2.89 3.43-.74-1.64-1.59-2.06-3.16-1.32a38 38 0 0 1-6.33 2.2c-2.4.64-3.25 2.3-3.28 4.48-.07 5.34-.03 10.69-.03 16.24 1.35-.32 2.43-.6 3.52-.84 6.77-1.54 13.54-3.11 20.31-4.61q12.29-2.68 24.58-5.3c3.56-.57 7.28-.34 10.55-2.4 1.3-.82 2.6.66 4.1.46 4.46-.63 8.96-1 13.64-1.48a25 25 0 0 1-1.07-13.73c2.95-13.37 1.17-26.93 2.4-40.33.62-6.65.5-13.32 1.1-19.96.12-1.38 1.58-3.15.27-3.95-.7-.44-2.7.1-4.1.2-5.96.38-11.7-1.24-17.53-2a365 365 0 0 1-23.94-4.23c-12.41-2.5-24.78-5.21-37.17-7.8-4.76-.99-9.52-2.06-14.33-2.71-5.06-.68-8.64-3.67-12.3-6.76-9.35-7.85-18.88-15.47-28.12-23.43-6.4-5.51-12.01-11.84-17.45-18.3-1.4-1.67-2.56-2.34-4.86-1.66-5.83 1.72-11.96 1.26-18.24 2.06 3.4 3.6 2.96 7.45 1 11.48-.64 1.33-1.19 2.88.05 4.3.61.7.55 1.57.44 2.36-.43 3.15 1.03 4.68 3.93 5.81 4.07 1.6 4.98 5.52 4.82 9.3-.35 8.31-2.77 16.32-4.34 24.45-2.03 10.53-3.67 21.14-6.14 31.59-1.5 6.31-2.94 12.64-4.45 18.95-.38 1.6-.61 3.25-3.14 1.89-.97-.53-3.1.74-3.08 1.82.05 2.7-1.9 3.92-3.51 4.5-5.3 1.94-10.72 3.66-16.57 2.24-2.9-.7-4.92-2.47-6.74-4.5-2.54-2.82-5.9-4.78-8.1-7.93-.33-.46-.8-.7-1.35-.57-6.54 1.57-13.06-.48-19.6-.12-2.14.11-3.22.6-3.95 2.72-3.58 10.56-10.47 18.72-18.86 25.85a46 46 0 0 1-14.45 8.3c-5.01 1.82-8.37 6.43-13.03 9-.16.09-.4.16-.45.3-.81 2.07-.9 2.04-2.72.52-8.5-7.2-13.86-16.24-15.4-27.29-1.09-7.69-.32-14.98 6.22-20.5 3-2.52 5.62-5.4 6.5-9.89-3.65 0-7.33-.38-10.9.09-5.67.73-9.43-1.96-12.72-5.98l-.76-.94c-.06-.08-.18-.1-.54-.3-2.62 3.87-7.32 4.57-11.12 6.75-5.09 2.92-14.73.31-18.5-4.35-1.72-2.13-2.18-4.74-2-7.46.57-8.64 3.54-16.56 7.36-24.22l1.48-3.03c-3.88-.46-4.88-1.77-4.45-5.7.08-.7.26-1.4.27-2.1.05-1.97-1.15-3.4-2.2-4.9-1.87-2.67-2.8.55-3.89.94-2.5.91-4.7 2.8-6.88 4.48-.98.76-2.05 1.25-3.13 1.76-1.37.64-2.75 0-3.59-.77-.82-.76.28-1.75.82-2.62a28 28 0 0 1 10.95-9.93c.59-.31 2.6-.36 1.26-1.94-1-1.16-.4-3.94-3.02-3.43-8.08 1.58-14.88-1.47-20.4-6.67-5.34-5.02-9.6-11-10.91-18.73a55.7 55.7 0 0 1 3.1-30.34c3.25-8.2 7.49-15.89 13.2-22.66 1.28-1.5.22-2.02-.53-2.97a25.8 25.8 0 0 1-5.71-18.66c.05-.6-.12-1.4.53-1.67 5.2-2.22 6.17-8 9.76-11.56.3-.3.52-.64.8-.93 2.11-2.09 2.95-3.87 1.56-7.27-2.55-6.25-.04-12.37 2.79-18.12.72-1.48 1.22-2.68.8-4.53-1.06-4.53 1.78-7.65 6.74-8.14 3.75-.38 7.04-2.02 10.36-3.76 5.44-2.85 11.17-4.33 17.15-1.42.97.47 1.65.3 2.47-.42 2.67-2.39 5.51-4.59 8.15-7.01 3.8-3.5 8.53-5.11 13.29-6.48 2.75-.78 5.68.38 8.49.8 1.29.2 1.78.07 2.43-.95 7.49-11.73 17.62-20.91 28.5-29.34 3.54-2.75 7.28-.97 8.1 3.51.64 3.41-.23 6.16-2.77 8.49-.98.9-1.81 1.96-2.8 3.06 2.05 1.53 3.71 3.7 5.29 6.17 5.4-5.25 10.26-10.97 15.41-16.4 5.66-5.98 11.58-11.71 17.34-17.59 9.08-9.25 19-17.55 28.93-25.83.4-.33.7-.77 1.12-1.07 2.15-1.56 1.97-2.57-.68-3.12-2.15-.44-3.48-1.92-3.64-3.99-.18-2.25.29-4.12 2.87-5.42 1.9-.96 3.25-1.28 5.33-.87 7.15 1.41 14.48 1.29 21.72 2.02 2.03.2 3.05-.54 4.01-2.37 4.48-8.53 10.03-16.2 18.69-21 4.41-2.45 9.33-4.8 14.24-3.62 9.99 2.4 12.25 5.75 10.88 15.3-.73 5.01-1.76 10.1-5.86 13.6 5.08 1.48 10.3 2.2 14.81 5.22 2.26 1.51 2.55 3.46 2.45 5.77l-.23 4.96a32 32 0 0 1 5.33-2.6c3.46-1.22 6.99-2.28 8-6.79a5.7 5.7 0 0 1 4.65-4.33 21 21 0 0 0-4.39-4.22c-3.47-2.48-3.14-5.16.71-7.12 1-.5 3.27.09 2.58-2.49-.11-.38 1.44-.26 2.24-.32 7.58-.57 15.17.06 22.75-.06 7.49-.11 14.93.65 22.44.3-4.17-.46-8.33-1.03-12.5-1.39-10.38-.9-20.79-.6-31.18-.63-1.22 0-2.45-.19-3.64.4-.64.32-1.53.49-2.02-.15-2.72-3.47-7.03-4.38-10.52-6.6-9.96-6.3-19.12-13.64-27.96-21.37a664 664 0 0 1-26.2-24c-5.16-5.03-9.75-10.52-11.66-17.95-1.75-6.87 1.37-11.5 5.72-15.76a36 36 0 0 0 3.05-3.28c7.46-9.42 17.73-15.24 27.74-21.3 14.5-8.77 29.61-16.42 45.78-21.7 12.42-4.06 25.14-7.07 37.71-10.57q16.09-4.49 32.21-8.84c8.14-2.18 16.58-3.12 24.7-5.1 7.1-1.72 13.2-.08 19.65 1.55 15.2 3.85 29.34 10.03 42.01 19.38 3.63 2.67 7.38 5.16 10.9 7.96 2.6 2.08 4.74 4.7 7.27 6.93 2.14 1.88.32 4.33-.49 6.23-.9 2.13-.6 3.28 1.08 4.82 4.61 4.24 7.43 9.41 7.03 15.91-.1 1.53.51 2.1 1.95 1.86 1.9-.32 3.82-.56 5.67-1.07a5.1 5.1 0 0 1 5.71 1.9c1.25 1.68-.25 3.33-1.34 4.61-1.21 1.42-1.95 2.51-1.51 4.71.72 3.66-2.33 5.87-4.53 8.25-.74.8-1.86 1.24-2.4 2.37 1.35.74 3.03-.25 4.17 2.1 1.27 2.63.83 3.94-1.04 5.4-4.38 3.46-8.53 7.3-14.03 9.04-.3.1-.66.42-.84.33-4.35-2.11-3.25 1.53-3.8 3.53a36 36 0 0 1-4.12 9.87c-.37.58-.71 1-1.62.77l.7-4.7c-.77-.03-1.37-.05-1.98-.1-3.66-.35-6.8-.08-7.57 4.6a6.5 6.5 0 0 1-3.01 4.47c-.58.35-1 1.23-1.8.53a1.5 1.5 0 0 1-.48-1.65c.53-1.84.32-3.87 1.37-5.56 1-1.6.19-2.05-1.26-2.2q-.15-.01-.3-.07c-1.52-.4-4.33.47-4.07-1.72.2-1.77 3.02-1.05 4.64-.95q5.98.4 11.92 1.28c2.26.33 3.03-.14 2.94-2.6-.2-6.46.08-12.94-.62-19.4-.11-1.03-.78-3.02.87-3.07 1.6-.04 3.71.06 4.5 2.38.96 2.8.7 5.66.76 8.5.02.72 0 1.44 0 2.5a109 109 0 0 1 11.07-7.55c-.8-1.27-2.17-2.2-1.86-3.93.14-.73.14-1.38.77-1.89 4.46-3.52 5.31-4.58 7.11-8.78-1.77.04-3.37-.62-4.04-2.19-.72-1.7.76-2.78 1.84-3.9.77-.78 1.85-1.34 2.18-2.7-.98.19-1.86.44-2.75.54-4.08.45-6.57-1.33-6.9-5.31-.88-10.72-7.69-16.64-16.6-20.96-.99-.47-1.47-.2-1.96.67q-10.17 18.3-20.32 36.61c-2.42 4.37-4.77 8.77-7.49 13.78 2.72-.8 4.1-2.36 5.75-3.5a74 74 0 0 0 12.77-11.06c1.35-1.49 3.03-2.1 4.64-1.3 1.8.9.83 2.61.38 4.08-.52 1.72-.88 3.49-1.42 5.62 3.12-1.76 5.81-3.57 9.44-3.84-4.06 5.95-9.47 9.98-14.87 14a5 5 0 0 1-2.23.9c-.86.1-1.95.49-2.62-.33-.7-.87.1-1.68.44-2.5a42 42 0 0 0 2.82-8.14c-2.32 1.68-4.6 3.4-6.95 5.02-2.67 1.85-5.35 3.76-8.7 4.18-.86.1-1.23.65-1.55 1.32-4.64 9.62-8.46 19.58-12.12 29.6-.15.43-1.06 1.6-.18 1.48 2.23-.3 2.23 4.21 5.08 2.08a49 49 0 0 1 6.14-4.03c4.38-2.36 8.81-1.19 12.88.77 2 .97 3.06.47 4.57-.61 4.56-3.25 9.18-6.23 14.9-7.42 5.44-1.13 10.53-1.67 15.85.78 4.37 2.02 6.3 4.09 5.65 8.76-1.3 9.35-3.96 18.24-9.53 26.04-.24.33-.4.71-.58 1.07-.8 1.49-3.5 2.2-2.68 4.05.5 1.14 2.71 1.59 4.23 2.17 1.84.71 3.4 1.88 4.95 3.02 3.34 2.46 3.9 6.23 1.9 12.06-2.07 6.05-5.48 11.42-8.84 16.78-.94 1.5-1.04 2.01.52 3.3 11.67 9.57 22.88 19.65 31.93 31.87 1.53 2.06 2.95 4.23 6.13 3.66 1.07-.2 1.54.25 1.25 1.67-.26 1.3-2 2.14-1.13 3.76.04.07-.5.78-.89.21-1.15-1.72-2.48-.45-3.53-.06-14.69 5.47-30.06 8.27-45.3 11.58-5.14 1.12-10.4 1.74-15.6 2.58-.51.08-1.37 0-1.47.23-1.24 2.97-3.42 3.96-6.55 3.68-.85-.08-.4 1.03-.27 1.72 1.24 6.71 2.4 13.4 2.89 20.24.65 8.88-3.3 15.57-9 21.82-12.21 13.38-24.69 26.6-33.92 42.34-3.09 5.26-4.86 11-1.72 17.12.52 1.03.85 1.27 1.76.72.35-.21.67-.47 1.02-.7 5.21-3.32 9.91-3.34 15.26.56 7.15 5.22 14.56 10.14 21.93 15.29-.14-5.79.36-11.4.9-17.02q.09-1.14.82-1.94c2.1-2.3 7.54-3.52 10.52-2.49 1.4.48 2.74 1.68 4.37.12.7-.66 1.35.58 1.97 1.06 2.42 1.85 3.82 4.55 5.64 6.89.84 1.08 1.48 1.21 2.7.48 9.64-5.75 20.19-9.69 30.05-15 2.44-1.3 4.55-.5 5.69 1.66 2.55 4.82 4.73 9.82.72 15.04-.3.4-.49.9-.78 1.33-1.64 2.42-2.42 4.61-.89 7.73 1.85 3.76 2.67 8.48 1.6 12.26-1.46 5.1 2.03 9.08 1.4 13.8-.4 3.09-.46 5.4-3.92 7.32-4 2.2-6.98 6.2-10.54 9.25a73 73 0 0 0-7.51 7.7c-1.17 1.34-2.27 3.04-4.54 2.68-.25-.03-.67.13-.8.34-3.24 5.13-8.98 5.12-13.89 6.25-5.7 1.32-11.48 2.81-17.45 2.54-.6-.02-.95.26-1.33.6-3.57 3.27-7.93 5.4-11.75 8.29-1.8 1.36-2.96 3.55-5.24 4.69-3.77 1.87-7.86 2.75-11.76 4.19-.31.11-.87.04-1.11-.16-3.25-2.71-7.05-.85-10.65-1.5 1.47 6.9.2 13.6-.03 20.29a126 126 0 0 1-1.12 12.88c-.36 2.61.64 2.25 2.25 1.51 7.34-3.34 14.83-6.24 22.86-7.42 5.1-.76 6.5.7 5.98 5.89-.15 1.5-1.16 2.91-.32 4.76 5.5-2.8 11.24-5.08 17.12-7.06a89 89 0 0 1 20.7-4.08c2.4-.2 4.88.37 7.29.78 1.23.2 2.23.85 2.2 2.49-.03 2.21-1.18 3.29-3.47 3.51 1.3 1.33 2.53 2.26 2.78 3.9-11.58-4.4-22.7-1.5-33.68 2.2-7.02 2.36-13.91 5.06-20.4 8.72-2.42 1.37-3.2.8-3.42-2.03-.13-1.84-.47-3.67-.1-5.52.4-2.11-.54-1.93-2.03-1.29a577 577 0 0 1-14.99 6.28c-.79.32-1.97 1.53-2.65.13-.59-1.22.74-1.56 1.6-2.08 7.73-4.62 16.02-7.86 24.62-10.38.9-.27 2.3-.26 2.15-1.6-.17-1.58-1.65-.83-2.5-.82-4.04.02-7.74 1.62-11.5 2.76-4.18 1.27-8.23 2.94-12.4 4.17-1.97.58-2.86 1.6-3.05 3.53-.44 4.7-.76 9.41-1.45 14.07-1.15 7.88.1 15.83-1.02 23.73-.18 1.33-.29 1.58-1.45 1.83-6 1.27-11.97 2.64-18.07 4.2 2.73.8 3.13 2.7 3.32 5.1.39 4.97 1.21 9.9 1.77 14.86.3 2.7-1.33 4.27-3.66 4.9-3.12.87-6.39 1.13-9.43 2.4-1.46.6-1.87-.74-2.35-1.73-2.76-5.77-5.51-11.53-8.39-17.25a105 105 0 0 0 8.25 21.42c4.98 9.73 9.22 19.8 13.9 29.66a821 821 0 0 0 26.36 50.48c12.6 22.4 25.7 44.53 37.28 67.5a78 78 0 0 1 6.54 18.26c.97 4.38-1.17 8.16-3.72 11.6-5.4 7.27-11.69 13.76-18.18 20.04-1.47 1.43-3.04 2.75-4.76 4.29 1.77 1.12 2.9-.88 4.2.32-.56.95-1.69 1.3-2.73 1.7a62 62 0 0 0-10 5.11c-3.76 2.34-7.76 2.83-12.23 2.27-22.97-2.83-44.73-10.45-66.85-16.61-8.52-2.38-16.94-5.12-25.43-7.7-.19.8.36.78.65.85 4.28 1 6.03 3.75 6.22 8.08.38 8.9 2.22 17.63 3.12 26.48.38 3.7 1.75 7.46-.78 10.95-.08.11-.08.33-.03.47 1.46 4.25-1.36 8-6.28 8.98-6.68 1.34-13.06.2-19.38-1.74-1.38-.42-1.06-1.97-1.55-3-.29-.59-.28-1.53-1.18-1.64-.33-.04-.9.15-1.02.4-.35.73.13 1.28.54 1.92 4.5 7 8.2 8.56 16.96 6.28 3.04-.78 3.04.3 2.64 2.55-1.55 8.76-5.91 15.24-14.62 18.28-6.14 2.14-11.92.48-17.45-1.95-10.6-4.66-17.44-12.79-18.23-24.4-.76-11.3 2.88-18.5 16.82-23.3 2.02-.7 4.1-1.1 6.28-.2 1.74.72 2.32-.22 2-1.93-.5-2.71-.63-5.53-1.49-8.11-1.11-3.35.28-4.57 3.2-5.4 2.95-.84 5.77-2.14 8.72-3 3.1-.9 6.33-1.25 9.52-1.73-9.34.27-18.55.7-27.64 3.79-6.25 2.12-12.89 3.64-19.7 3.6-2.4-.02-3.88-.83-4.77-2.97-1.88-4.5-3.97-8.87-2.9-14.07.44-2.18-1.38-4.13-2.15-6.2-1.08-2.93-2.47-5.74-3.8-8.8l3.32-.5c-1.61-2.39-4.1-2.27-6.17-2.75a1635 1635 0 0 0-31.77-6.98c-12.98-2.72-25.97-5.3-38.96-7.98-7.64-1.57-15.26-3.28-22.9-4.78-3.05-.6-6.17-.82-9.3 1.04-.43-1.76-2.01-3.04-1.78-5.18.07-.71-.34-1.87-.89-2.2-2.19-1.25-1.74-3.26-1.29-4.91 2.84-10.28 6.5-20.24 12.09-29.43 1.38-2.28 3.94-3.8 4.31-6.78-1.23-.67-2.57-.45-3.87-.37-9.13.57-17.82-1.31-26.3-4.52-2.23-.85-4.02-2.37-6.02-3.58-4.99-3.03-10.9-4.3-15.53-8.59-4.75 14.2-15.38 24.88-20.54 38.76 4.62.74 9-.15 13.34.77 6.09 1.32 9.94 6.16 9.08 12.3-.3 2.07-.27 2.93 2.5 3.43 7.88 1.43 16 1.64 23.7 4.14 2.81.92 5.6 1.87 8.12 3.42 1.15.72 2.3 1.87 1.73 3.2-.6 1.37-2 .65-3.24.38-9.72-2.04-19.16-5.07-28.73-7.65a12 12 0 0 1-4.55-2.18 51 51 0 0 1-3.86 11.96c-2.49 5.1-5.82 8.2-11.82 6.9-2.22-.5-3.94.63-5.91 1.14-5.6 1.4-11.34 2.21-17.04 3.23-1.16.2-2.02 0-1.9-1.54.13-1.73-.05-3.46.38-5.22.32-1.34.6-2.8-.29-4.19-.5-.78-1.13-.81-1.84-.74-.9.1-.72.88-.69 1.42q.24 4.45.61 8.89c.13 1.48-.35 2.5-1.87 2.55-2.05.09-1.14-1.6-1.14-2.46.02-2.66.36-5.32.43-8 .03-.88.5-2.4-1.16-2.3-1.36.07-1.83 1.04-1.92 2.54-.14 2.82.8 5.5.7 8.28-.07 2.26-2.38 4.28-4.59 3.8-1.37-.3-.77-1.49-.73-2.29.1-2.97.4-5.95.42-8.93 0-.68.58-2.04-.93-2.13-1.33-.08-.83 1.14-1.1 1.8-.91 2.22-.13 4.46-.07 6.7.16 5.85 1.49 5.23-4.87 6.62.73-4.57.84-9.07.63-13.8-1.33.09-2.1.31-2.47 1.88a23 23 0 0 0-.17 10.07c.43 2.18-.15 2.8-2.18 3.35-5.49 1.46-10.9 3.22-16.35 4.87-1.26.38-2.3.8-3.05 2.19-6.56 12.32-14.63 23.69-22.6 35.11a454 454 0 0 1-15.37 20.82c-1.84 2.34-3.93 3.25-6.89 2.54-2.46-.59-4.67-2-7.3-2.12-1.45-.06-1.5-1.32-1.5-2.54 0-5.04.47-10.04.95-15.05.13-1.33.69-2.81-.66-4.52-.53 4.36-1.15 8.3-1.46 12.27-.2 2.55-1.03 5.03-.68 7.63.16 1.24-.74 1.26-1.6 1.19-1.97-.17-2.92-1.69-3.26-3.22a58 58 0 0 1-.88-18.86c.74-6.69 1.47-13.35 2.55-20 1.56-9.62 3.92-19.06 6.32-28.48 3.74-14.65 7.9-29.17 13.71-43.14 2.26-5.43 4.58-10.96 8.77-15.27 4.15-4.26 9.25-7.24 14.7-9.58 2.32-.99 4.69-1.87 7.33-2.92-2.5-1.63-4.96-3.17-7.36-4.8-4.1-2.79-5.07-4.92-2.99-9.42 5.46-11.77 10.56-23.72 18.78-33.95a85 85 0 0 1 8.02-8.96c1.67-1.56 3.68-2.16 5.8-2.92 4.03-1.47 7.08-1.24 9.45 2.58.23.37.9.45 1.5.73-5.07 6.73-10.25 13.35-13.73 21.08 3.25-4.5 6.46-9.04 9.75-13.51 1.27-1.73 2.78-3.29 4.04-5.02 1.5-2.05 3.2-2.02 5.31-1.02 6.16 2.93 11.26 7.37 16.5 11.55 7.67 6.1 15.79 11.58 23.53 17.56 2.62 2.02 5.74 3.7 7.17 7.03.33.78.68.99 1.63.68 1.87-.6 4.12-1.02 5.24 1.01 1.29 2.32 3.06 4.89 1.26 7.7-1.19 1.85-.8 2.66 1.16 3.34a12 12 0 0 1 5.57 3.66c1.3 1.62 3.32 1.64 5.03 1.81 9.6.99 19.23 1.83 28.87 1.21 4.13-.26 6.89 1.54 9.62 4 .34.3.69.86.68 1.3-.12 3.55 2.07 3.56 4.77 3.52 10.96-.17 21.82 1.1 32.71 2.32 9.6 1.07 19.13 2.52 28.69 3.85 1.38.19 2.13 1.97 3.77 1.62.61.07 1.24.06 1.82.2 10.96 2.58 22.17 3.6 33.3 5.07 7.68 1.01 15.45 1.52 23 3.2 6.13 1.36 12.1 3.42 18.26 4.75 7.85 1.71 15.92 2.2 23.72 4.28 6.65 1.76 13.37 3.23 20.08 4.78.78.18 2.11.79 2.13-.7.03-3.9 1.25-7.82-1.04-11.67-1.57-2.63.41-4.91 3.53-4.8 1.1.04 2.08 1.36 3.27.34-24.64-13.07-47.55-28.87-71.36-44.28.59.67.8 1 1.08 1.22 4.8 3.64 9.64 7.24 14.4 10.94.92.72 2.23 1.04 2.55 2.5 2.36 10.8 5.3 21.49 6.81 32.48.25 1.81-.27 2.78-2.3 2.39l-17.89-3.4a409 409 0 0 0-32.56-4.64c-6.17-.67-12.3-1.72-18.47-2.24-3.41-.28-6.84-1.66-10.33-.41zM424.83 237.58c2.37-2.68 4.8-5.27 7.7-7.42 2.86-2.12 3.05-3.7.9-6.51-.47-.62-.9-2.15-2.23-.74-.77.8-1.79 1.34-.36 2.56.66.56 1.4 1.5.97 2.68-.82.14-1.34-.44-1.86-.84-1.12-.85-1.95-2.05-3.5-.33-1.57 1.75.53 1.93.91 2.82.25.59 1.38.97.7 1.74-.56.63-1.28.17-1.84-.38-.29-.29-.71-.43-1-.7-1.46-1.34-2.15.1-3.03.81-1.28 1.05-.07 1.52.55 2.07a6.8 6.8 0 0 1 2.11 4.26c-1.51-.81-3.05-1.6-4.54-2.45-1.73-.98-2.42.52-3.28 1.4-1.31 1.37.55 1.3.97 1.87.78 1.05 1.66 2.03 2.53 3.08l4.31-3.93zm181.84-43.12a229 229 0 0 1 28.5-4.73c8.81-.94 17.68-.88 26.48.03 4.52.47 9.17.71 13.42 2.66 1.07.5 2.66 1.03 2.37 2.41-.34 1.6-2.05 1.04-3.18.98-8.09-.38-16.13-1.41-24.26-1.28-6.89.11-13.8 0-20.64.77-6.44.72-12.82 2-19.2 3.04-8.74 1.42-16.37 5.03-22.06 11.92-4.62 5.59-8.88 11.48-13.23 17.28-14.62 19.46-25.57 41.1-37.12 62.39-4.84 8.93-9.24 18.21-15.62 26.15-4.4 5.5-7.58 10.88-6.76 18.24.2 1.88.05 4.06 1.08 5.41 2.25 2.95 3.6 6.38 5.58 9.44 12.33 19.15 26.23 37 42.7 52.85 10.22 9.84 21.58 18.42 31.32 28.76 1.58 1.69 2.91 2.91 5.14 1.17.9-.7 2-.43 3-.39 10.51.51 20.75 2.9 31.07 4.67 8.09 1.39 16.11 3.1 24.18 4.6 8.97 1.67 17.94 3.37 26.94 4.84 4.41.72 8.73 2.47 13.27 1.9 3.07-.38 6.2-1.05 9.17-.46 6.07 1.18 11.3-.5 16.67-3.12 2.97-1.45 3.65-2.62 2.62-5.7-.95-2.84-1.82-5.83-1.62-8.94.13-2.14 1.87-2.94 3.45-3.26 2.07-.44 1.26 1.54 1.55 2.56 1.17 4.08.62 8.45 2.05 12.56 1.78-.8 3.02-2.16 4.35-3.42 3.17-2.99 5.81-6.66 10.2-8.13 1-.34.63-1.17.65-1.8.26-7.6-.45-15.07-2.2-22.5-1.97-8.3-4.44-16.55-3.91-25.24.07-1.1-.33-1.56-1.26-2.08a1083 1083 0 0 1-18.3-10.37c-2.67-1.55-5.15-4.52-7.83-4.67-2.9-.15-5.85 2.52-8.94 3.43-1.82.54-1.69 1.35-1.38 2.61.43 1.8 1.4 3.52.9 5.55a2.7 2.7 0 0 1-2.17-1.74c-2.34-5.6-4.85-11.13-6.78-16.86-1.11-3.3-3.25-5.21-6.2-6.05-21.98-6.21-44.68-8.06-67.25-10.55-8.43-.93-16.9-1.57-25.31-2.6-1.9-.23-4.14-.24-6.49-2.27 4.86.05 8.72-1.63 12.85-1.25 10.27.96 20.57 1.4 30.8 2.94 7.13 1.07 14.34 1.7 21.44 3.07 2.97.57 8.55-1.25 9.06-3.25 2.51-9.84 5.98-19.4 8.7-29.17 4.79-17.16 8.24-34.62 11.26-52.17.45-2.57.77-5.25 2.07-7.64.36-.67.78-1.1 1.65-1.11 1.03-.02 1 .72 1.33 1.35.56 1.08.48 2.22.4 3.32-.43 5.81-.95 11.62-2.16 17.34l-3.86 18.23a307 307 0 0 0 7.84-16.9c1.06-2.43 1.72-5.43 4.24-6.49 2.81-1.18 3.51-3.46 4.49-5.74.72-1.68 1.21-3.45 1.93-5.14 3.22-7.68 4.1-15.73 3.58-23.93-.2-3.3-.73-6.66-3.3-9.26a191 191 0 0 0-16.74-14.99c-4.49-3.57-7.23-5.02-8.56-9 6.82 1.6 12.6 5.02 17.78 9.65 2.5 2.24 4.49 5.52 7.21 6.86 3.13 1.53 4.28 3.75 5.3 6.4.94 2.4 2.72 2.7 4.71 2.24 2.5-.6 4.88.19 7.31.1.5-.02.93.03 1.14.7 1.3 4.15-1.12 9.73-5.06 11.53-1.3.59-2.57 1.23-3.92 1.68-1.13.38-1.48.96-1.54 2.18-.16 2.97-.6 5.91-.9 8.87-.68 6.42-4.01 12.14-4.9 18.53-.69 4.95-2.67 9.62-4.1 15.2 1.38-1.12 2.27-.9 3.28-.76 3.42.46 6.74 3.62 10.4.38.77-.69 1.54.41 1.88 1.4.4 1.16-1.38 2.8-.1 3.19 1.41.43 1.29 1.85 2.5 2.4 1.89-4.6 3.89-9.04 5.55-13.61 3.09-8.48 4.5-17.36 4.93-26.3.41-8.66.6-17.45-4.87-25.04-.34-.47-.39-.71.04-1.23 1.4-1.66.2-2.88-1.18-3.25-1.61-.43-2.32-1.55-3.18-2.66-2.96-3.84-5.42-7.88-10.31-10.06-9-4-17.88-8.26-27.14-11.64-3.96-1.45-7.43-3.97-11.27-5.4-5.86-2.2-12.17-2.9-18.49-3.3-6.12-.39-12.23-1.45-18.38-1.03-7.12.49-14.26.92-21.28 2.37-5.46 1.12-11.21 1.59-16.27 3.71-8.94 3.75-16.62 9.7-23.65 16.4q-3.53 3.37-7.1 6.72c-.44-1.11 1.68-1.44.71-2.66-2.55 1.56-17.15 26.67-22.87 39.3 1.74.49 3.64.68 5.19 1.52 3.58 1.94 5.3.3 6.52-2.85.07-.18.32-.34.33-.51.04-1.23-.54-2.28-1.04-3.36-2.18 1.87-1.4-.56-1.32-1.05a46 46 0 0 1 6.77-17.14c.36-.57.8-.96 1.48-.8.85.19 1.07.93 1.1 1.66a6 6 0 0 1-.63 2.94c-.75 1.5-1.35 3.08-2 4.62 6.41-6.91 12.57-13.91 19.24-20.44a12.2 12.2 0 0 0 3.73-6.81q1.47-8.14 9.45-10.76c2.52-.84 4.92-2.03 7.33-3.17 4.57-2.16 5.18-1.87 5.67 3.01zM506.57 183c-3.99 4.49-8.38 8.36-12.72 12.26-11.24 10.1-22.53 20.15-33.11 30.99-10.57 10.81-20.52 22.22-31.58 32.55-1.42 1.32-3.14 5.38-6.43 1.5-.93-1.08-8.3 1.45-9.35 2.82-7.7 9.97-15.52 19.83-22.51 30.32-3.79 5.7-7.6 11.37-11.55 17.26 1.94.28 3.42.18 4.94-.02q8.16-1.03 16.35-.37c1.26.1 1.8.96 2.36 2.06 1.34 2.59-.59 4.72-.65 7-.09 3.43-2.12 4.68-4.65 5.84-8.65 3.98-17.76 4.97-27.1 4-2.14-.22-3.51.1-4.56 2.05a97 97 0 0 1-4.28 7.06c-1.34 2.03-1.65 3.1 1.53 2.98 2.83-.12 5.66.52 8.4 1.32 2.24.65 3.36 2.74 2.47 4.47-3.22 6.27-5.1 13.36-10.64 18.26-.4.35-.77.5-.53 1.16.82 2.26-.57 2.81-2.42 3.22-4.9 1.08-9.86.36-14.79.57-1.13.05-2.35-.23-2.22 1.6.29 4.02-.53 8-.57 12-.01.85-.7 2.4.96 2.4 1.17 0 2.58.9 3.51-1.23 1.38-3.15 5.03-3.19 6.49-.22.64 1.3 1.45.88 2.23.83 1.43-.09.42-1.13.35-1.56-.7-4.4 2.46-6.97 4.59-10.02.1-.16.55-.08.78-.12.77 1.29-.73 3.18 1.4 4.03 2.73 1.09 3.58 3.5 3.74 6.17.07 1.2.4 1.61 1.6 1.6q5.38-.04 10.75.53c8.5.88 16.94 2.17 25.38 3.5 3.91.63 7.65 2.53 11.49 2.62 11.47.27 22.12 3.85 32.83 7.25 1.9.6 2.3.18 2.92-1.28 1.48-3.49 2.85-7.07 5.52-9.89.9-.95 2-2.68 3.16-1.9 1.29.89-.05 2.44-.7 3.53a303 303 0 0 1-6.21 9.85c-.72 1.09-.8 1.58.54 2.22 4.22 2.05 7.94 4.94 11.82 7.56.9.6 1.48 1.87 3.44 1.64-1.93-1.76-3.5-3.17-5.05-4.6-.7-.65-1.54-1.69-.63-2.36 2.3-1.68 2.49-4.4 3.64-6.62 8.78-17 17.7-33.91 26.92-50.67 1.7-3.1 3.29-3.57 5.72-1.2 3.03 2.97 3.58 7.31 5.36 10.99.83 1.72-.71 3.68-1.44 5.45-5.98 14.61-14.77 27.68-22.79 41.16-2.3 3.87-5.61 7.13-6.76 11.68-.15.62-.51 1.02 0 1.59 3.63 3.93 6 8.67 8.42 13.69 1.49-2.97 2.71-5.63 4.13-8.2 3.35-6.04 6.22-12.6 14.02-14.29.63-.13.67-.59.85-1.09a758 758 0 0 1 5.29-15c.6-1.65.15-2.3-1.44-2.92-4.18-1.61-5.28-4.25-3.77-8.39 1.7-4.63 6.56-7.29 10.8-5.71 1.56.57 1.56-.64 1.8-1.28 1.8-5.02 4.94-9.34 7.16-14.15.46-1.02.8-1.86.17-2.85-2.43-3.87-4.17-8.58-7.5-11.43-4.78-4.11-4.68-8.92-4.5-14.15.02-.72.05-1.45-.01-2.17-.17-1.8.6-3.11 1.88-4.32a44 44 0 0 0 8.6-11.46c5.38-10.21 10.7-20.45 15.81-30.79a412 412 0 0 1 15.22-27.57c1.25-2.12.58-2.63-1.62-2.66-2.04-.03-4.07-.36-6.09-.67-3.27-.49-6.3-4.35-5.12-7.24 2.28-5.56 4.5-11.14 7.53-16.33 4.06-6.92 8.32-13.72 12.2-20.73 3.35-6.05 7.34-7.78 13.8-5.37 1.68-5.23 5.71-8.62 9.52-12.19 1.6-1.48 1.98-6.57.4-7.83-2.23-1.79-4.54-4.58-6.95-4.74-3.04-.2-4.91-2.26-7.53-2.77q-.3-.05-.62-.03c-5.96 0-11.88-.83-17.86-.65-7.47.2-14.95.35-22.42.16-8.12-.2-16.35.78-24.33-2.16-.08 1.9.89 2.74 2.09 3.38 3.41 1.8 6.91 3.21 10.83 1.67 2.1-.83 4.27-.52 6.39-.41q8.5.46 16.98 1.16c2.95.23 5.87.68 8.81 1 5.6.57 11.13 1.97 16.84 1.22 1-.13 2.03.03 2.77.8 2.3 2.42 1.56 9.18-1.18 11.1-1.8 1.27-3.08.79-3.46-1.57-.16-1-.66-.8-1.2-.84-4.79-.42-9.59-.94-14.39-1.22-8.2-.5-16.4-.79-24.6-1.3-4.18-.26-8.33-.8-12.49-1.2-1.47-.16-2.63-.77-3.18-2.33m-90.22 300.41c4.97.03 9.66 1.3 14.4 2.45 6.06 1.46 6.09 1.35 8.06-4.56.86-2.57 2.27-4.08 5.34-3.43 1.32.28 3.17.67 4.1-.58 1.88-2.53 3.07-.93 4.28.45 2.1 2.37 3.33 4.99 2.46 8.36-.22.82-1.18 3.11 1.27 2.9 4.48-.4 8.88.2 13.28.73 2.15.25 2.9-.4 2.71-2.62a79 79 0 0 1 .57-19.33c.27-1.62-.36-2.62-1.74-3.8-9.73-8.32-19.77-16.25-28.83-25.37-10.02-10.08-18.98-20.87-25.8-33.37-.48-.88-.95-1.5-2.25-1.59-7.76-.5-15.5-1.36-23.26-1.75-10.35-.52-20.7-.58-31.06-1.2-6.12-.37-12.27-.08-18.3-.08-.28 1.96 1.05 3.45-1 4.43-.43.2-.67 2.75 1.55 2.05 1.96-.6 5.14.74 5.33-3.04 0-.12.6-.38.76-.3 1.7 1 3.06-.31 4.57-.62 4.3-.86 5.76.61 5.69 5.05-.04 2.67-1.75 3.63-3.6 4.81-3.31 2.1-7.47 1.93-10.7 4.17-.8.56-1.93.9-1 2.32 3.3 5.08 6.54 10.2 10.08 15.75 1.06-4.36 3.51-6.63 7.31-7.62 9.42-2.43 18.27-1.03 26.26 4.36 6.14 4.14 8.51 11.82 6.11 18.2-.72 1.92-1.7 3.96-4.52 2.5-.95-.5-1.76-.52-2.35.93a400 400 0 0 1-6.95 15.96c-.49 1.07-.1 1.38.47 2.19 4.76 6.76 11.97 7.87 19.34 8.65 1 .1 2.32.28 2.6-1 .87-3.84 3.11-7.69-.42-11.52-1.63-1.76-.63-3.6 1.72-4.16 4.5-1.06 8.97-.5 13.45.08 1.52.2 2.29.95 2.16 2.68-.15 2.02-.83 4.9.2 5.94 2.53 2.54.46 4.16-.26 6.13-.59 1.6-1.8 2.93-2.02 4.87zM512.22 497c.52-10.95 3.94-20.98 4.68-31.44-10.72.54-18.4-4.36-19.99-9.63-2.88-9.55-1-17.95 5.61-22.71a28 28 0 0 1 10.3-4.57c4-.9 7.53.29 10.56 3.14 1.24-3.5 1.67-7.08 2.86-10.38 1.07-2.96-.08-4.15-2.42-5.16-5.75-2.46-11.93-3.2-17.96-4.48q-1.54-.33-2.78.9c-1.44 1.44-2.8 2.86-3.7 4.77a223 223 0 0 0-16.04 45.48c-1.78 7.7-3.66 15.38-5.41 23.07-.2.89-.85 2.7 1.14 2.3 3.6-.72 7.08-.26 10.67.09 8.2.8 16.04 2.29 22.48 8.61zm283.07-89.13c1.13-.95 1.83-1.51 2.5-2.1 1.45-1.33 4.34-1.38 4.58-3.49.22-1.96-.9-4.07-1.44-6.12-.1-.39-.08-.86-.29-1.17-2.3-3.3-1-5.99 1.46-8.4 1.04-1.02 1.28-1.84.52-3.2-1.03-1.84-1.44-4.1-2.7-5.74-2.55-3.34-1.86-6.46-.12-9.7a94 94 0 0 1 2.79-4.75c2.66-4.31 2.64-4.9-.4-8.9-1.08-1.43-2.04-1.68-3.84-.75-9.6 4.95-19.34 9.58-29.53 13.19-1.13.4-2.57 1.98-3.7-.13-.12 1.3-3.25-1.02-1.78 2.29-3.64-2.9-6-6.07-7.74-9.65-1-2.06-2.6-1.26-3.98-1.17-1 .06-2.21.15-2.31 1.84-.29 5-1.25 9.96-1.2 14.98.03 2.03-.09 3.97-2.27 5.72 3.56-.1 5.75 1.68 7.94 3.24 3.67 2.62 7.14 5.49 10.72 8.23.73.57 1.2 1.53 2.54.53 4.35-3.28 9.46-3.6 14.63-3.1 7.37.74 11.39 4.68 12.95 12 .4 1.92.37 3.84.67 6.36zM706.3 161.64l-.16.47c4.76 1.54 9.57 2.93 14.25 4.66 5.23 1.92 11 2.02 15.93 4.96 11.78 7.03 24.23 12.92 35.47 20.89.85.6 1.64 1.04 2.2-.21 2.77-6.27 7-11.66 10.35-17.58.85-1.5.57-2.4-.9-3.07a49 49 0 0 0-3.06-1.27c-6.5-2.5-13.28-4.1-19.74-6.76-11.37-4.66-22.27-10-31.08-18.86-1.9-1.9-3.67-3.84-4.96-6.22-.43-.8-1.16-1.66-2.16-1.36-.9.26-.25 1.25-.34 1.9-.57 3.88.7 7.48 1.95 11.01 1.77 4.96 3.85 9.8 5.8 14.7.76 1.89.38 2.61-1.77 1.91-1.63-.53-3.32-.9-5-1.3q-8.4-1.95-16.8-3.86zm40.88 221.96c1.13 5.31 1.95 9.92 3.08 14.46 2.1 8.45 3.28 16.98 1.44 25.56-.6 2.75-.43 5.35-.5 8.03-.04 1.5.3 1.97 1.96 1.5 6.94-2 13.95-3.68 21.09-4.82 1.8-.28 3.53-.7 4.78-2.59 3.85-5.8 8.03-11.36 13.64-15.65.3-.23.6-.65.63-1 .3-3.76.17-7.64-2.9-10.23-5.51-4.65-15.72-5.68-21.7-2.82-1.44.7-2.4.46-3.12-.15-5.44-4.61-12.01-7.45-18.4-12.3m-328.45 19.17c15.3 23.42 33.71 43.04 54.5 60.72 1.97-7.57 3.1-15.28 5.75-22.6.14-.39.58-.9-.07-1.35-2.87-2.03-2.86-6.93-7.37-7.35-.33-.03-.92-.51-.9-.73.36-3.38-2.62-4.35-4.48-5.85-10.5-8.42-22.5-14.1-35.02-18.75-3.9-1.45-7.9-2.62-12.4-4.1zM734.2 253.3c-1.64 11.46-5.6 22.16-9.91 32.76-1.8 4.4-2.45 9.15-5.1 13.36-2.57 4.08-6.67 6.58-9.3 10.5-1.94 2.9-4.58 5.23-7.26 7.51-1.8 1.53-5.09 2.78-5.35 4.27-.62 3.6-3.2 3.26-5.3 4.03-1 .36-1.85.82-2.61 1.53-5.16 4.83-11.22 8.42-17.09 12.27-1.32.87-2.58 1.8-3.57-.66-.76 1.85-.23 2.14 1.25 2.42 7.65 1.46 15.35 2.85 22.8 5.14 1.76.54 2.13-.16 2.74-1.25 1.93-3.47 3.75-7.01 5.83-10.4 2.5-4.08 4.52-8.83 8.36-11.62 3.18-2.3 4.58-5.37 6.58-8.08-1.3-.95-1.61 1.94-2.87.46-1.31-1.54.58-2.03 1.18-2.92a5 5 0 0 1 1.09-1.1c6.49-5.35 12.68-11.02 18.12-17.48 3.47-4.12 6.37-8.62 5.52-14.12-1.38-8.9-3.64-17.67-5.1-26.63zM358.95 482.9c5.56 0 9.73-2.79 11.4-6.58a5781 5781 0 0 1 11.56-26.1c.4-.92.85-2.5 1.64-2.39 2.24.34 1.48-1.08 1.25-1.9-.67-2.42-1.87-4.56-4.29-5.66a25 25 0 0 0-16.92-1.5c-.87.22-1.66.43-2.12 1.49-4.2 9.74-8.58 19.44-10.81 29.87-.6 2.8-2.41 6.12.34 8.65 2.55 2.34 5.67 3.98 7.95 4.12m-25.23-129.26c-3.12 4.2-5.41 8.84-7.43 13.57-3.75 8.84-4.32 18.14-3.15 27.58.67 5.38 5.78 11.18 10.94 12.46 1.58.39 2.35.31 1.56-1.72a41 41 0 0 1-2.4-8.12c-.24-1.4-1.67-4.33 2.18-3.8.99.13.5-.87.73-1.32 2.05-3.96 2.3-8.32 2.31-12.59 0-2.74 1.26-5.3.34-8.3-.71-2.34 1.22-4.98 2.27-7.39.67-1.54 2.24-.7 3.17-1.3 1.38-.9 3.14-1.48 3.92-3.41-5.52-.17-10.52-1.33-14.44-5.65zm13.36 54.55c-3.88 1.64-7.72 3.17-11.67 2.81-6.78-.6-16.19-9.14-17.63-15.75-.83-3.77-1.11-7.67-1.44-11.53-.5-6.02 1.02-11.77 3.18-17.26 3.63-9.27 9.39-17.16 16.68-23.97-2.65-3.23-3.32-3.26-6.33-.3-6.5 6.39-10.65 14.32-14.64 22.32-3.66 7.36-5.3 15.37-5.62 23.5-.37 9.1 3.24 17.03 10.73 22.2 7.19 4.95 15.17 8.46 24.1 3.4 2.17-1.23 3.16-2.76 2.65-5.43zm62.52 115.3c1.22-1.51 2.47-1.88 2.07-3.38-.33-1.27.7-1.72 1.67-2.18 11.5-5.36 17.9-15.1 22.6-26.32.71-1.7.05-1.83-1.4-1.94-5.87-.44-11.64-1.66-17.4-2.85-1.97-.4-2.52.24-3.05 1.78-3.8 11.04-3.77 22.55-4.5 34.88zm4.27-48.5c-4.58-1.95-6.22-1.07-7.24 3.65-1.68 7.77-4.96 14.68-11.43 19.61-2.05 1.58-2.67 3.66-2.74 5.82-.32 10.22 1.19 20.09 6.69 28.96 3.64 5.86 1.95 5.83 7.07.18.72-.79 1.95-1.33.98-3.27-4.8-9.5-6-19.68-3.98-30.05 1.75-8.99 5.13-17.44 10.64-24.9zm106.66-31.8.32.2q.43-1.74.84-3.5c1.72-7.46.55-8.74-7.07-7.73a9 9 0 0 0-.9.18c-10.42 2.68-16.1 10.87-14.92 21.5.8 7.2 11.67 12.48 18.12 8.92 1.86-1.02 1.05-2.77 1.34-4.04.28-1.22-1.54-.6-2.43-.6a15.5 15.5 0 0 1-8.92-2.72c-1.17-.8-1.9-2.77-3.88-1.16-.45.35-1.04-.45-1.11-1.12a6.6 6.6 0 0 1 1.23-4.6c.77-1.1 1.83-.86 2.77-.67 1.08.22 1.33 1.05.95 2.13-.34.95-.18 1.64.95 2.18 2.99 1.43 6.03 2.44 9.38 2.27.92-.04 1.95.07 2-1.3.12-3.08 2.26-6.06.12-9.3-.7-1.08-.5-2.78-.67-4.2-.06-.53.12-1.08.75-1.13.66-.06.87.52.92 1.01.12 1.22.14 2.45.2 3.68zm-70.8 35.31c-1.92.28-3.52.47-5.1.77q-1.53.26-1.52 1.95c-.05 6.6-2.56 12.5-5.72 18.07-4.75 8.36-10.6 15.9-19.75 19.75-3.9 1.64-5.45 4.91-7.64 7.85-.74.99-.44 2.18-.06 3.24.19.51.62 1.4 1.3.85 2.9-2.27 6.95-1.83 9.76-4.09 11.89-9.57 20.73-21.2 24.69-36.25 1.04-3.95 1.5-8.15 4.04-12.13m-33.1-84.21c.76 1.34 1.37 2.34 1.15 3.72-.18 1.08.43 1.4 1.45 1.41 6.2.13 11.94 2.23 17.63 4.35 13.14 4.87 24.95 11.88 33.4 23.32 2.69 3.63 4.3.57 5.95-.13 1.81-.78.06-2.42-.5-3.5-4.58-8.94-13.36-13-21.38-17.77-7.14-4.26-15.45-5.48-23.4-7.6zm273.22-97.12c-2.29 4.98-4.44 9.6-6.54 14.24-2.93 6.47-1.96 8.22 5.1 9.39.31.05.66-.06.93.05 3.22 1.37 5.55-.23 7.59-2.4 3.64-3.89 7.24-7.8 10.56-12.8-6.96-.73-12.97-2.98-17.64-8.5zm-357.42 3.45c5.53-5.62 10.14-11.53 15.48-16.71 5.44-5.27 10.72-10.7 16.16-16.15-11.95-.51-32.64 14.17-31.65 32.86zM473.19 408.4c1.59-4.71 4.05-8.98 6.15-13.42 2.12-4.47 4.07-9.02 6.15-13.51s4.42-8.9 6.3-13.5c1.78-4.34 4.51-8.37 5.06-13.18-3.44 5.11-6.47 10.4-9.64 15.6a4731 4731 0 0 1-18.86 30.63c-.46.73-1.17 1.4-.08 1.98 2.3 1.2 3 3.78 4.92 5.4m-97.66-92.98c-1.69.92-4.18-.09-5.38 2.22-1.04 1.99-2.27 3.87-3.27 5.88-.44.9-1.34 2.3.31 2.72.88.22 2.9 1.72 3.08-1.06.06-.99.8-1.37 1.77-1.26.9.1 1.34.55 1 1.46-.56 1.46.6.99 1.11.91 8.38-1.18 16.54-2.99 23.67-7.99 1-.7.65-1.32.74-2.02.13-1.1-.72-1.06-1.44-1.04q-1.07.05-2.14.18-7.12.82-14.26 1.68c-2 .25-3.33-1.42-5.18-1.68zm-37.27 30.77c-1.88 2.06-1.62 3.14.55 4.46 2.9 1.78 6 2.67 9.17 3.72 3.23 1.07 3.57-.86 4.54-2.77.87-1.7-.68-2.5-1.29-3.44-.83-1.28-1.3-2.3-.32-3.58 1.1-1.46.3-2.41-.82-3.3-5.83-4.64-11.14-9.9-17.26-14.19a34 34 0 0 0-7.73-4.18c-1.75-.64-2.99-.49-2.72 2a30 30 0 0 0 2.26 8.79c1.33-2.18 2-4.88 5.26-3.63 7.46 2.86 13.68 7.12 17 14.78.77 1.8-.11 2.98-1.03 4.16-.98 1.25-2.41 1.06-3.69.56a8 8 0 0 1-3.92-3.4zm202.29 37.05a248 248 0 0 1-14-19.1c-3.84 6.79-5.77 14.05-9.14 21.12 1.58-.23 2.68-.47 3.79-.54 1.63-.1 2.53-.3 2.56-2.52a9 9 0 0 1 2.75-6.3c.69-.66 1.35-1.02 2.1-.63.86.44.37 1.16.11 1.85-.9 2.38-1.72 4.78-2.61 7.29 1.88-.23 3.67-.23 2.45-2.75-.22-.46-.13-1.38.2-1.74.57-.6 1.28.03 1.94.23 2.12.62 1.53 2.18 1.22 3.7 2.77.2 5.37-.18 8.63-.6zm23.92-237.74c-1.87-1.66-3.9-.93-5.8-.3-5.26 1.77-9.47 5-12.9 9.36-3.57 4.52-6.86 9.2-9.84 14.62 2.08 0 3.72-.22 5.28.05 2.83.5 4.02-.87 5.1-3.26 3.95-8.7 8.5-16.96 18.15-20.48zM477.7 490.76c8.55 10.78 19.24 11.98 31.15 9.12-9.01-7.18-19.74-8.29-31.15-9.12m92.96-335.3c-.23-1.76.75-4.13-.69-5.17-1.45-1.04-3.55.02-5.15 1-1.24.77-2.73 1.2-2.38 3.36.33 2.1 1.06 4.17.64 6.38-.47 2.4-.81 4.82-1.17 7.25-.1.66-.3 1.58.02 1.99 1 1.22 5.62-.1 6.12-1.73 1.28-4.27 2.75-8.5 2.6-13.08m-139.37 93.22c-.14-.15-.36-.54-.69-.72-2.15-1.12-4.36-2.14-5.74-4.32-.65-1.03-1.12-.2-1.59.3q-5.5 5.74-10.99 11.51c-.52.55-1.36 1.02-.64 2.04.7.99 1.43.33 2.14.1 3.25-1.03 6.44-2.5 9.98-1.26.64.22 1.14 0 1.61-.54q2.52-2.89 5.1-5.74c.32-.36.94-.49.83-1.37zm146.04 554.05c-1.22-.17-1.89.74-2.23 1.66-1.87 5-1.57 12.3 5.1 15.57 1.1.54 2.45 1.37 3.39.31 1.07-1.22 2.12-2.92 1.42-4.61-1.6-3.86-3.44-7.61-5.31-11.35-.4-.79-.96-1.9-2.37-1.58m177.9-771.9c-7.63 6.8-27.63 40.44-29.85 50.2 1.07-.28 1.23-1.33 1.63-2.06 1.88-3.39 3.6-6.86 5.47-10.26 6.61-12.03 14.75-23.07 22.26-34.52.65-.98 2.11-1.99.48-3.35zM677 313.27l-8.12 23.45.58.4 13.78-11.78c-5.05-2.77-6.18-6.98-6.24-12.07m-267.18-68.84c.94.8 2.3 1.2 2.73 2.61-4.73-1.11-5.7-.6-8.17 4.27 2.07 1 4.02 2.2 5.77 3.93 2.25-4.11 5.21-7.44 7.83-11.03.33-.46 1.27-.7.39-1.65-2.46-2.64-4.74-2.74-7.07-.1-.53.61-.98 1.3-1.47 1.97zm289.12 43.3c-2.58 1.73-2.7 3.94-3.65 5.7-1.07 1.99-.69 3.36.94 5.03 3.67 3.78 8.7 4.24 13.18 6.03.92.36 1.41-.31 1.78-.85 2.56-3.67 5.77-6.89 7.73-10.96 2.4-4.94 1.91-5.98-3.48-7.6a1.85 1.85 0 0 0 1.13 2.25c2.06.89 1.75 1.95.93 3.76-1.66 3.67-4.57 6.52-6.24 10.12-.72 1.55-1.59 1.56-2.83.98-3.14-1.47-6.34-2.84-9.4-4.48-2.47-1.31-3-3.8-1.71-6.36.48-.95.88-1.95 1.62-3.62M356.68 434.98c.94 1.33 2.23 2.03 3.55.94 4.47-3.71 9.5-2.75 14.4-1.74 7.52 1.56 13.01 8.31 12.25 13.96-.1.83-.83 2.66 1.14 2.48 1.4-.14 2.8-1 2.74-2.77-.09-2.47-.7-4.8-2.23-6.86-5.54-7.53-24.26-12.08-31.85-6zm352.04-134.85c2.11-3.3 4.15-6.43 6.14-9.59.36-.59 1.26-1.33-.11-1.9-.89-.36-1.38-.13-1.92.71-1.2 1.86-2 4.02-3.94 5.32-.78.52.97 2.04-.38 1.77-1.2-.23-3.39-.15-3.17-2.7.3-3.47 2.2-6.05 4.29-8.58-1.26-.84-2.48-1.42-3.55.06-1.99 2.7-3.85 5.5-5.9 8.16-.85 1.1-.31 1.5.55 1.92 2.81 1.4 5.6 2.85 8 4.82zm-196.4 78.02c-.84.07-1.62.21-2.4.18-2.79-.12-2.83 2.3-3.47 3.94-.71 1.81-.42 4.53 1.2 4.91 2.28.53 3.63 2.07 5.1 3.27 3.53 2.87 7.48 5.67 7.77 10.93.01.16.46.3.72.45 1.48-5 1.14-6.14-2.65-9.17-2.47-1.97-4.96-3.9-7.36-5.94-2.06-1.75-2.96-3.57-.06-5.54.89-.6 1.07-1.88 1.16-3.04zm52.1-191.42c-1.22-2.01-.84-4.48-4.12-4.23-9.33.7-18.67.47-28-.23-2.2-.17-4.44-.03-6.65-.03 12.72 2.75 25.73 1.4 38.76 4.5m54.72 612.63.92.01v-2.96a212 212 0 0 0-.7-23.1c-.12-1.3.87-3.79-1.22-3.75-1.88.03-1.04 2.73-1.76 4.12-.15.29.1.78.16 1.19q.92 6.65 1.77 13.3c.48 3.72.14 7.51.81 11.2zM352.32 281.46c10.55 8.1 8.46 16.87-1.5 22.45 6.32-.9 11.77-8.03 11.15-12.88-.76-5.97-5.1-10.08-9.65-9.58zm377.75-147.1c1.84-.03 1.61 4.06 4.26 1.91 2-1.62 4.17-2.49 6.7-2.26 1.46.13 2.07-.46 2.12-1.84.04-1.28-.01-2.15-1.72-2.63-5.12-1.46-7.78 2.43-11.37 4.82zm-332.5 514.25c-4.64 1.82-13.85 19.86-12.32 23.18zm336.37-161.17c-2.77 1.2-6.08.96-5.28 5.52.34 1.93-1.17 4.18-1.95 6.65 2.27-.9 4.09-1.7 5.96-2.34.89-.3 1.35-.56 1.3-1.64-.1-2.63-.03-5.26-.03-8.2zM717.8 222.8c-1.97.31-3.74.86-5.5.8-1.44-.06-1.74.96-1.62 1.58.3 1.62.26 3.22.33 4.83.02.57.26 1.11.86 1.03 2.2-.33 4.64-.26 6.47-1.27 1.36-.76-.53-2.58-.54-4zm31.93 264.87c9.36-2.36 18.67-5.07 28.47-2.22.13-3.18-1.19-4.1-3.96-3.86-2.53.22-5.08.12-7.6.67-5.8 1.25-11.5 2.84-16.9 5.41zm-50.2-221.8c-5.88 6.41-7.33 14.77-10.12 22.55 2.34-1.4 9.2-16.56 10.12-22.56m-324.2 428.38c-5.85-.45-30.31 7.66-35.24 11.64a804 804 0 0 1 35.23-11.64m182.27-536.5c-3.26 4.01-5.83 7.42-7.8 11.5 1.27 0 2.3-.12 3.3.03 2.6.38 4.08-.2 4.28-3.27.17-2.46.05-4.9.2-8.27zm31.76 46.48c3.92-2.54 7.72-5.1 11.64-7.47 1.28-.78 1.13-1.5.52-2.47-.75-1.21-1.45-.13-2.02.18-2.57 1.46-5.02 3.16-7.65 4.49-2.2 1.11-3.3 2.53-2.5 5.27m-76.83 191.84c-1.75 4.03-3.31 7.6-5.2 11.9 2.64-1.47 2.73-3.78 4.28-5.1 3.19-2.7 3.07-2.85.92-6.8m-96.82 75.68c-1.6-3.99-2.13-4.24-7.06-3.68-.67.07-1.5-.15-1.4 1.02.06.94-.04 2.13 1.27 2 2.38-.23 4.63.75 7.19.67zm330.67-341.6c-.09 1.28.15 2.25-.23 2.64-3.76 3.93.8 2.76 2.12 3.44.6.3 1.4.2 2.1.28.47.04 1.04.36 1.33-.29a1.2 1.2 0 0 0-.26-1.4c-1.57-1.49-3.17-2.93-5.07-4.67zM780.7 219c-4.71-6.21-9.76-12.1-16.12-16.68 5.59 5.36 10.25 11.6 16.12 16.68M519.8 410.16q-.78-1.75-1.64-3.5c-.37-.76-.65-2.16-1.77-1.46-1.34.84-2.65 1.96-3.13 3.64-.13.46.35.38.6.42 1.92.38 3.6 2.12 5.95.9zm-83.45-166.83c-2.02-1.23-4-2.27-5.8-3.57-1.84-1.33-1.76-1.44-3.1.54.51.07 1.14-.02 1.5.25a41 41 0 0 1 4.25 3.49c1.4 1.37 2.32 1.24 3.15-.71m298.14-104.78q3.96 2.94 7.08-2.02c-2.57-.3-4.8.46-7.08 2.02M576.47 795.31l6.3-4.23c.8-.54 1.23-1.39.23-1.83-2-.88-6.59 3.33-6.54 6.06zm-120.6-178.06c5.22 1.54 10.6 1.8 16.05 1.47-5.37-.13-10.59-1.8-16.06-1.47m-47.62-219.47c-.28-4.2-3.3-2.32-5.22-2.7-.76-.15-1.36.12-1.35 1.12 0 .93.45 1.25 1.29 1.3 1.7.07 3.4.18 5.28.28m-43.69-12.39c-.66-1.55-1.32-3-1.9-4.48-.24-.6-.53-1.25-1.2-1.18-1.13.12-.54 1.09-.6 1.69-.3 2.62-.3 5.02 3.7 3.97m-.78-33.82c-1.22-1.84-3.17-1.79-4.86-2.06-1.12-.18-1.46 1.02-1.48 1.93-.01 1.34 1.27 1.1 1.79.82 1.42-.77 2.96-.27 4.55-.69m32.17-93.25c-.63.18-1.72-.35-1.62.85.13 1.59 1.44 2.22 2.76 2.48 1.35.26 1.39-1.04 1.35-1.8-.07-1.58-1.44-1.4-2.5-1.53zM778.9 147.08c-3.12-1.27-6.16-2.8-9.46-1.98l-.1.84zM337.97 432.93c-.41-1-1.07-1.66-1.9-1.49-1.44.3-2.08 1.56-2.5 2.83-.24.67.63 1.48.86 1.33 1.27-.77 2.4-1.77 3.55-2.67zm38.47-38.46c.64-.28 1.77.28 1.62-.89-.17-1.37-1.48-1.58-2.6-1.56-.76 0-2.24-.61-2.14.8.14 1.85 2.2.77 3.12 1.65m-26.65 44.9c1.03.57 2.24-.3 3.06.78.3.39.25 1.58 1.22.92.75-.5.84-1.31.26-2.11-.45-.62-.84-1.26-1.27-1.9-.84 1.04-1.72 2.08-3.27 2.32m-8.45-141.89c2.66 2.95 5.55 3.23 6.87.64-2.45.93-4.62.14-6.87-.64m53.12-31.2c-.92-2-2.04-2.73-3.8-2.27-.57.15-.91.66-.68 1.16.89 1.9 2.55 1.07 4.48 1.11m-50.34 125.25a5.9 5.9 0 0 0 5.07.83c.03 0 .05-.81-.16-.97-1.5-1.25-3.06-.75-4.92.14zm360.57-109.92c2.28-.3 4.34-.03 5.98 1.67-.13-2.45-2.85-3.33-5.98-1.67M399.44 396.84c-.1-1.74-.72-2.69-2.54-2.4-.8.14-1.69.6-1.28 1.27.83 1.34 2.37 1.19 3.82 1.13"/><path fill="#000" d="M449.26 904.56c.67.38 1.14.59 1.52.9 1.07.88 1.77 2 1.59 3.44-.2 1.56-1.64 1.69-2.75 2.03-6.65 2.1-13.46 3.62-20 6.12a155 155 0 0 0-17.14 7.86c-2.09 1.1-4.46 1.51-6.4 2.98-1.19.91-1.45-.12-1.25-1 .35-1.62 1.65-2.56 2.9-3.47 9.33-6.79 19.74-11.23 30.8-14.28 1.36-.38 2.7-.83 4.06-1.24 3.22-.97 4.2-3.29 2.69-6.23-5.44-10.55-8.46-21.89-10.78-33.44-.3-1.44-.48-2.56-2.34-2.57-.88 0-1.93-.62-1.8-1.66.41-2.95-.9-2.37-2.65-1.52a808 808 0 0 0-35.16 18.2c-2.15 1.17-5.57 1.74-6.23 3.43-.7 1.8 2.34 3.88 3.53 5.98 5 8.85 7.24 18.6 9.32 28.4.74 3.48 1.04 7.09 2.07 10.47.65 2.17-.14 3.29-1.53 4.44-1.71 1.42-3.48 2.79-5.7 4.57 3.48.35 6.43.1 9.26.86 3.98 1.06 7.85 2.4 10.53 5.73 1.36 1.69 1.67 3.56 1.03 5.97-1.36 5.1-2.73 10.13-4.73 15.03-1.03 2.52-3.02 3.33-5.08 3.49-10.16.79-20.1 2.83-29.97 5.16-1.65.4-2.24.17-3.1-1.1-1.3-1.94-2.86-3.73-4.35-5.54-.43-.53-.94-1.24-1.8-.81-.95.48-.72 1.47-.53 2.2.43 1.71 1.5 3.11 2.65 4.42.95 1.07 2.62 1.88.41 3.46-.45.33-1.06 1.5-.57 2.82l-8.85-6.4c1.17 2.7 3.3 4.4 5.58 5.65 2.4 1.31 2.9 2.68 1.63 4.98-.54.96-.86 2.04-1.32 3.16-3.08-1.62-6.1-3.29-9.19-4.77-.9-.44-2.15-1.53-3.04-.28-.92 1.3-.06 2.59.91 3.55 2 1.96 4.52 3.11 6.93 4.45.89.48 2.46.4 2.25 2a8 8 0 0 1-1.9 4.09c-.6.7-1.06-.07-1.53-.36-1.64-1-3.24-2.11-4.95-3-.54-.27-1.25-1.15-1.91-.45-.7.76-.4 1.81.08 2.59a7.2 7.2 0 0 0 3.5 2.94c3.3 1.22 3.15 3.1 1.82 5.78-3.02 6.07-5.76 12.29-9.87 17.76-.12.16-.25.35-.43.45-6.6 3.55-7.73 10.46-9.92 16.6-3.82 10.72-7.44 21.52-9.82 32.66-.95 4.47-1.58 9.02-2.08 13.56a20 20 0 0 1-1.6 5.63l-11.92-17.8-.61.38q4.79 8.19 9.62 16.33c1.97 3.28 1.72 4.28-1.48 6.49-1.89 1.3-4.1 1.73-6.14 2.58-1.26.52-1.74-.44-2.43-1.26-4.75-5.65-7.73-12.44-11.93-18.42-5.73-8.18-7.38-17.41-8.28-27.03-.73-7.81-2.25-15.54-2.9-23.35-.87-10.45-1.34-20.92-.25-31.42.47-4.47.1-9 .67-13.5.58-4.63.9-9.3 1.8-13.9.59-2.97-.4-5.9-.75-8.81-.3-2.58-.03-4.09 2.19-5.83 1.96-1.54 3.02-4.26 4.4-6.5 3.1-4.99 7.3-9.04 11.67-13.58-4.16-.33-7.62-1.94-11.32-2.7-2.53-.51-4.03-4.25-3.54-7.63 1.48-10.06 2.87-20.13 4.27-30.2q1.54-11.32 3.04-22.64c.06-.5.19-1.22-.07-1.5-2.26-2.35.63-3.52 1.47-3.73 3.62-.92 6.91-3.08 10.83-2.91 2.98.13 3.82 1.04 3.21 3.8-1.43 6.48-1.88 13.07-2.45 19.67-.33 3.73-.73 7.42.15 11.22.58-3.67 1.1-7.34 1.73-11 1.22-7.02 2.54-14.03 3.73-21.06.32-1.9 1.24-1.28 2.42-.96 5.3 1.5 10.2 3.97 15.17 6.28 11.28 5.26 23.21 8.19 35.37 10.37.6-1.23-.1-2.55.75-3.67 2.16-2.81 4.24.31 6.35.02.06-.01.15.15.24.18 1.82.68 2.77 3.36 4.71 2.97 1.76-.36 2.96-2.38 4.47-3.6 7.73-6.18 16.45-10.63 25.36-14.72 5.91-2.7 11.67-5.86 18.15-7.12.5-.09 1.21-.52 1.43-.34 3.82 3.2 5.58-.88 7.5-2.48 7.71-6.4 15.92-12.12 23.98-18.03 5.97-4.38 11.36-9.4 16.7-14.48 1.16-1.1.85-2.85 1.36-4.25 1.3-3.62 2.23-7.47 6.16-9.36.91-.44 1.93-1.15 2.82-.3 1.87 1.8 2.8.32 3.83-.93 4.98-5.94 10.3-11.61 14.59-18.13 1.55-2.35 4.34-3.02 6.86-3.76a117 117 0 0 1 34.44-4.96c2.25.03 4.52.26 6.74.6 2.11.33 1.36 2.13 1.1 3.2a99 99 0 0 0-1.78 9.22c-1.9 12.05 1.8 22.64 7.96 32.7 2.93 4.79 5.93 9.52 9.9 13.52 1.25 1.25.15 1.91-.54 1.78-2.93-.56-4.27 1.78-6.21 3.03-8.81 5.65-18.14 10.37-27.49 15.04-14.9 7.44-29.77 14.95-44.68 22.4-2.09 1.05-1.76 3.2-1.84 4.78-.34 6-4.05 9.77-8.2 13.3-2.63 2.25-10.13.5-11.82-3.7-.95-2.35-1.87-2.1-3.77-1.08-7.02 3.75-14.15 7.29-21.54 11.06zm43.35-90.47-.97.01c-2.2 11.36.82 22.6 1.02 34.38 6.41-4.1 12.7-7.07 19.75-8.45 7.57-1.48 15.97 2.8 18.73 9.97.33.86 1.02 1.58-.32 2.26-1.05.54-1.9.76-2.7-.28-.32-.4-.53-.9-.88-1.25-4.2-4.25-8.37-8.57-15.13-7.8-4.82.56-9.16 2.6-13.55 4.46q-5.36 2.27-4.71 8.16c.04.4-.02.82.02 1.24.5 6.16 1.5 12.29 1.22 18.81 1.27-.57 2.2-.94 3.09-1.4a976 976 0 0 1 37.6-18.16c11.37-5.24 23.25-9.48 33.31-17.16-8.64-7.05-14.93-15.74-17.89-26.23-2.92-10.4-3.07-21.02 3-30.75-1.52-.64-2.61.26-3.81.41-10.71 1.3-21.43 2.46-32.06 4.29-.86.15-1.55.19-1.95 1.1-3.06 7.1-7.72 13.15-12.41 19.19-3.5 4.49-7 8.96-11.35 13.46zm-12.58 20.06c-.59.32-.88.42-1.1.6-10.74 9.08-22.3 17.04-33.8 25.09-1.66 1.16-3.95 1.82-4.98 3.36-1.2 1.81.72 3.9 1.19 5.87a447 447 0 0 1 6.34 32.45c2-1.27 3.79-2.45 5.63-3.54 9.7-5.77 19.8-10.8 29.82-15.97 1.8-.92 2.22-1.92 1.96-3.81a535 535 0 0 1-2.32-19.1c-.21-2.12-.58-2.65-2.72-1.56-2.48 1.26-4.65 3.2-7.52 3.66q4.04-2.79 8.28-5.2c.95-.53 1.48-1.14 1.26-2.15-1.43-6.4-.91-13-2.04-19.69zM352.35 968.52c7.83-9.35 16.97-16.91 27.6-24.02-7.39-.18-26.8 17.24-27.6 24.02m132.85-82.39c-1.6.81-2.8 1.56-4.1 2.06-2.02.78-1.58 1.6-.25 2.66.54.43 2 .45 1.37 1.51-.74 1.27-1 2.08.7 2.28 1.5.18 2.22-.8 2.26-2.19.06-2 .01-4 .01-6.32zm-99.82 27.03c.05-4.46-5.67-20.23-8.46-23.1zm-78.62 56.95c-.35-5.37 1.62-10.75.71-16.19-1.53 5.34-.9 10.74-.7 16.19m-1.87 51.75c-.36 4.46-.6 8.9.78 13.85.44-5.04-1.01-9.41-.78-13.85"/><path fill="#000" d="M428.4 883.66c-2.84 3.67.5 5.46 2.9 7.58 1.74 1.54 1.99 3.77 2.45 5.78.5 2.18-2.7 4.58-5.39 4a327 327 0 0 1-16.3-4c-.91-.25-.98-1.75-.8-2.57 1.54-6.4 3.99-12.41 8.18-17.55 1.21-1.5 3-2.31 4.94-1.55 1.87.74 3.32 2 3.44 4.3.06 1.2.33 2.4.57 4.02zm14.16-209.86c-.18 2.49-2.15 3.48-3.95 4.6-1.02.62-2.2.9-1.1 2.6 1.37 2.08 1.18 4.8-.4 6.28-1.77 1.66-4.33 1.09-6.46-.45-4.1-2.94-6.91-6.97-9.16-11.31-1.16-2.25 1.77-3.32 2.94-4.48 3.61-3.63 13.1-3.35 17.12-.03.94.78 1 1.71 1.01 2.8m209.6-193.6c3.43-1.6 7.22-1.92 10.92-2.5 6.86-1.05 13.65-2.92 20.72-2.24 2.74.26 5.49.38 8.11 1.28.58.2 1.16.6.99 1.33-.16.7-.84.43-1.3.46-4.92.29-9.82.84-14.78.65-8.2-.32-16.37.66-24.65 1.02zm-60.89 11.04c12.37-4.72 24.87-9.04 38.53-7.1-12.6 3.53-25.73 4.34-38.53 7.1m-97.84 37.15-18.88 10.9c5.69-4.64 11.66-8.8 18.25-11.94zM536 509.98c-5.18 3.7-11 6-16.96 8.03 5.6-2.8 10.71-6.64 16.96-8.03m34.58-13.53c-.14 1.17-.1 2.6-1.97 2.65-.87.03-1.36-.57-1.1-1.37.4-1.15.3-2.75 1.97-3.03 1.33-.21 1.01.88 1.1 1.75m118.8-252.03c-1.97-.21-2.37-1.61-2.9-2.8-3.88-8.47-7.6-17-12.32-25.06-1.65-2.82-3.54-5.51-5.22-8.31-.36-.6-1.43-1.27-.56-2.12.95-.93 1.78.07 2.37.58 3.7 3.15 6.38 7.12 8.67 11.36 4.45 8.24 7.2 17.13 9.96 26.35m-35.48 91.7c-3.49-3.1-6.82-6.36-10.45-9.24-4.62-3.67-9.7-6.75-14.07-10.76q-.92-.83-1.89-1.58c-.65-.52-.86-1.31-.51-1.93.46-.83 1.2-.31 1.87-.04a27 27 0 0 1 6.78 4.02 123 123 0 0 1 18.3 18.16c.26.31.42.72-.03 1.37m83.1 56.51c-.09.96.05 2.09-.98 1.7-1.86-.67-3.75-1.65-4.45-3.65-.22-.63.38-1.93 1.8-1.83 2.57.17 2.5 2.63 3.63 3.78m.74 29.06c1.81-.08 3.1.1 3.15 1.12.1 2.59-2.42 2.43-3.98 3.04-.81.31-2.3-.51-2.04-1.61a3.5 3.5 0 0 1 2.87-2.55m-18.33-151c-1.13.02-2.08-.12-2.02-1.14.05-.85.9-1.54 1.76-1.22.74.3 2.07.44 1.98 1.53-.08.97-1.17.9-1.72.83m-312.65 82.07c4.5-1.37 9.01-2.47 13.81-1.7 12.31 1.97 23.84 5.56 32.8 14.92 2.7 2.82 4.42 6.2 5.8 10.11 5.2-8.56 10.28-16.68 15.12-24.94 5.41-9.24 10.56-18.65 15.96-27.9 1-1.7 1.07-2.78-.28-4.25-1.5-1.62-2.4-3.79-4.68-4.69a1.23 1.23 0 0 1-.54-1.85c2.75-4.01 4.3-8.8 7.8-12.3 2.18-2.17 4.42-1.65 5.8 1.14.39.79 1.21 1.36 2.02 2.23 2.34-3.79 4.62-7.38 5.75-11.57 2.92-10.87 7.24-21.27 10.9-31.9 1.97-5.77 3.54-11.63 3.5-17.85-.03-3.3-2.3-5.93-2.16-9.18.02-.48-.46-1.18-.26-1.42 3.25-3.95 1.43-8.29 1.16-12.97-1.4 1.13-2.54 1.95-3.58 2.88-2.05 1.85-4.03 3.68-1.16 6.5 1 .98 1.28 2.26-.28 3.31-4.16 2.8-5.43 7.14-6.18 11.78-.95 5.9-6.58 10.45-12.46 10.16-1.75-.09-2.38-1.5-2.85-2.84-1.16-3.32-.92-6.68.17-9.96 1.08-3.27 2.26-6.51 4.33-9.8-1.37.1-2.2.5-3.1.92a68 68 0 0 0-17.39 11.95c-11.34 10.66-21.33 22.56-31.65 34.16-1.35 1.52-2.6 3.12-4.24 5.08-1.35-2.67-.43-4.08.24-5.46 2.78-5.7 6.71-10.63 10.65-15.53 4.2-5.23 8.63-10.3 13.08-15.58-2.32-.47-4.25-.96-6-2.02-.6-.37-1.55-.52-1.23-1.39.26-.67 1.14-.65 1.9-.64a7.7 7.7 0 0 1 4.28 1.53c2.38 1.63 3.6.45 4.8-1.7l-6.32-1.48c-1.1-.25-2.15-.75-1.64-2.04.43-1.07 1.63-.63 2.46-.43 1.19.3 2.48.6 3.45 1.29 2.38 1.68 3.9.88 5.68-1.08a59 59 0 0 1 19.03-14.19c2.15-.98 4.37-1.6 6.75-1.7 1.37-.05 2.53.35 3.16 1.49 1 1.8 1.78.77 3.14.38 4.03-1.15 5.2-4.98 7.8-7.44.9-.84 1.74-1.75 2.66-2.58 1.25-1.12 3.62-5.53 3.83-7.25.35-2.82 3.42-5.91 6.17-5.77 1.13.06 1.69-.53 2.44-.92 4.6-2.4 9-1.39 13 1.2 3.67 2.38 6.56 5.56 6.23 10.5-.18 2.79-1.42 5.08-3.17 7.16-4.06 4.82-14 7.22-19.5 4.6-.45 3.25-2.17 6.02-1.69 9.64.36 2.79 2.23 4.58 2.78 7.13 1.19 5.59 1.59 11.11.53 16.73-3.03 16.03-9.44 30.74-17.79 44.63a128 128 0 0 0-4.5 8.1c3.2 2.3 6.8 4.6 9.29 8.2.62.91.82 1.75.3 2.86-1.68 3.59-9.05 8.49-12.89 8.34-.88-.03-2.08-.21-2.58-.8-2.24-2.61-2.93-.62-3.79 1.12-6.5 13.09-15.65 24.5-23.3 36.85-3.16 5.08-7.1 9.62-9.8 15.02-1.09 2.15-3.07 3.97-5.95 3.56-1.6-.23-2.63.97-4 1.35-4.08 1.11-7.88-.35-11.76-.86-1.14-.15-1.66-.25-2.4.93-3.2 5.1-11.3 5.92-15.46 4.07-7.02-3.13-9.27-7.81-7.3-14.91.58-2.13.2-3.29-1.82-4.16-4.41-1.9-7.3-5.62-10.33-9.1-.6-.69-.88-1.87-.54-3.16.45-1.73 1.33-3.2 2.01-4.78 3.11-7.23 4.38-15.09 7.67-22.3 4.6-10.04 9.7-19.75 16.28-29.1-2.13-.39-3.93-.6-5.65-1.07q-5.18-1.41-2.6-6.27c1.05-1.97 3.03-3.6 3.56-5.66 1-3.8 3.4-3.03 6-2.74 1.83.2 3.7.13 5.55.18 1.28.04 2.56-.2 3.4-1.16 5.94-6.85 13.37-6.36 21.07-4.28 2.08.56 4.39.8 6.24 2.77-1.68.4-2.26 1.3-2.93 2.82-1.4 3.2-3.8 5.98-5.74 8.96-.43.65-.97.62-1.59.6-7.1-.22-13.55 2.1-19.87 5a5 5 0 0 0-2.38 2.23c-4.85 8.7-9.95 17.26-14.7 26a160 160 0 0 0-9.27 20.5c-.23.64-.69 1.18-1.04 1.77q-.77 5.07 4.66 3.62c.2-.05.39-.16.59-.17.96-.05 1.44-.44 1.4-1.51-.04-1.3-.93-1.05-1.7-1.1-1.68-.13-3.49.46-4.97-.83zm18.53 16.85c3.29.36 6.9.85 10.02 3.07 3.59 2.55 3.72 2.82 2.06 6.74-.68 1.6-.9 3.45-.09 4.7.79 1.2 2.44-.13 3.68-.33 1.32-.2 2.6-.45 3.95-.53 2.99-.2 6.61-2.92 7.26-5.72.68-2.94-1.85-3.98-3.7-5.34a56 56 0 0 0-29.86-11.01c-2.59-.18-5.52.16-8.09 1.3-.78.34-2.47.74-1.7 2 1.5 2.49 4.16 3.92 6.24 5.9 1.07 1.01 1.89.02 2.82-.07l7.4-.72zm31.77 9.4c.31-.6.65-.95.65-1.3.02-5.2-2.58-9.16-6.38-12.28-8.13-6.68-17.4-10.91-27.97-11.76-2.6-.21-5.66-.87-7.66 2.31 12.25.97 22.83 5.82 32.58 12.63 3.7 2.59 7.69 5.12 8.78 10.4m2.14-93.6c-5.42.93-10.4 1.76-14.73 4.6a14 14 0 0 1-10.79 2.08c-2.28-.47-4.93-1.95-6.7-1.24-1.81.72-2.75 3.59-4.13 5.61 2.06.88 4.1 2.45 6.1 2.4 1.62-.04 2.2-3 4.02-3.85 1.21.54.62 1.84 1.12 2.68 3.6-2.32 9.21-3.84 12.88-4.2 2.7-.28 5.73 1.96 7.65.4 1.95-1.57 2.6-4.74 3.82-7.2.13-.27.3-.53.76-1.3zm65.69-66.48c1.08 1.34 2.06 2.7 3.55 3.46.49.25 1.27 1.22 1.79.2.76-1.51 2.06-.84 2.97-.71 6.22.84 12.15-9.57 9.46-14.41-.43-.78-.83-1.54-1.6-2.16-2.89-2.3-4.9-2.3-9.8.24 1.1 1.22 2.32 2.35 3.29 3.66 2.03 2.76.02 8.07-2.34 7.7-3.05-.47-4.9 1.18-7.32 2.02m-28.76 27.44c-.46 1.74-.45 2.55.75 2.6 2.73.15 7.43-3.62 8.14-6.29 1.3-4.92 1.56-10.46 7.36-12.85.98-.41.08-1.15-.1-1.44-.94-1.52-4.79-1.75-6.2-.57-6.04 5.09-9.54 11.48-9.94 18.55zm-4.62 64.98c2.43.79 3.5 2.73 4.68 4.68 1.54 2.55 1.5 5.77 3.62 8.09 2.7 2.97 4.74 2.74 6.24-.86.34-.84.66-1.72 1.15-2.47.95-1.45.51-2.32-.9-3.1-2.45-1.32-4.27-3-5.3-5.87-.96-2.67-1.89-5.63-4.24-7.59zm-71.32 69.49c-.56 1.1-.07 2.33.07 3.52.3 2.46 1.49 3.56 4.14 2.66a12.2 12.2 0 0 0 6.36-5c1.04-1.56 3.57-2.92 2.94-4.59-.73-1.92-3.54-1.8-5.54-2.33q-7.3-1.96-7.98 5.74zM532.3 202.66c-4.6-1.15-10.24 3.25-10.5 8.76 2.41-4.93 7.56-5.13 10.5-8.76"/><path fill="#000" d="M433.72 331.94c-6.42-.02-9.83-4.7-7.9-10.81 2.34-7.45 7.7-12 14.5-15.19 3.31-1.54 6.47-3.33 10.44-2.07 4.67 1.47 6.47 4.3 5.83 9.1-1.12 8.38-6.77 12.94-13.61 16.4-2.86 1.44-5.87 2.84-9.27 2.58zm20.55-18.18c.41-6.23-4.08-8.3-9.25-7.36-7.48 1.35-12.72 6.1-16.06 12.93-2.01 4.1-.47 7.83 3.86 9.54 3.91 1.54 7.4 0 10.9-1.3 5.84-2.16 10.53-8.41 10.55-13.8zm85.98-59.32c-5.5 12.1-12.81 23.18-19.84 34.44 5.71-11.97 11.7-23.78 19.84-34.44M463.8 347.2c2.65-7.5 6.44-14.38 10.43-21.16.5-.85 1.62-1.52 2.25-1.18 1.01.55.18 1.52-.17 2.35-3.06 7.35-8.27 13.37-12.5 19.98zm-10.38-96.63c-.55 1.7-1.48 3-3.18 2.97-1.01-.02-2.79.08-2.66-1.7.14-1.79 1.8-2.42 3.27-2.66.95-.16 2.06.42 2.57 1.4zm-73.83 97.57c-.85-.5-3.13.47-3.28-2.05-.1-1.53 1.51-1.46 1.86-1.25 1.28.78 3.35.86 3.43 2.9.02.64-.78 1.17-2.01.4m-2.81 4.27c.66-.29 1.68.03 1.84 1.03.22 1.33-1.2 1.13-1.99 1.34-1.15.3-2.38-.48-2.44-1.34-.12-1.71 1.51-.37 2.59-1.02zm22.52 58.1c5.26 0 9.07.14 12.84-.47 1.18-.19 2.14-.1 2.38 1.18.33 1.72-1.16 1-1.86 1.13-9.25 1.73-18.47 3.67-27.97 3.11-.72-.04-1.55.18-2.13-.11-1.3-.65-3.36-1-3.01-2.91.28-1.58 2.06-1.25 3.36-1.32 5.95-.3 11.88-.95 16.39-.61m3.14 20.41c-.99-.08-1.62-.05-2.2-.21-1-.27-2.15-.58-2.3-1.77-.15-1.3.99-1.5 2-1.85 5.26-1.88 10.9-2.03 16.23-3.57.77-.22 1.54-.34 1.96.73.4.98-.3 1.35-.81 1.74-2.97 2.33-6.5 3.35-10.1 4.17-1.68.38-3.42.55-4.78.76m15.57-14.1c-5 4-21.31 6.84-27.4 4.91 9.39-1.7 18.53-2.63 27.4-4.92m-21.54 170.24c-.24.93-.6 1.73-1.92 1.64-2.28-.14-2.61-2.18-3.5-3.6-.2-.3-.21-1.71.98-1.87 1.1-.14 4.35 2.62 4.44 3.82zM768.96 409.5a54 54 0 0 1 11.73-10.88 3 3 0 0 1 2-.6c.83.12 1.98-.36 2.42.72.38.93-.52 1.46-1.04 2.07-1.5 1.72-3.5 2.79-5.46 3.84-3.16 1.71-6.43 3.24-9.65 4.85m7.51 7.87 9.44-10.4c.2-.22.47-.5.74-.52 1.35-.12 2.88-1.82 3.93-.43 1.13 1.48-.6 2.54-1.59 3.5-3.54 3.5-7.3 6.68-12 8.46zm9.6-16.49c.58 4.88-7.6 12.44-14.72 13.69 5.48-4.35 9.8-9.1 14.72-13.69m-322.93 30.31c-.1.56-.46 1.03.02 1.7 2.22 3.12.9 5.33-2.18 7.24-1.47.9-2.89 1.05-4.28.28-1.65-.92-2.6-2.7-2.3-4.38.56-3.14 2.13-5.9 5.25-7.3 2.12-.97 3.64.16 3.5 2.45zm-7.95-4.47c.05 3.4-1.55 4.91-4.07 4.83-2.7-.09-5.88-3.69-5.48-6.3a5 5 0 0 1 2.93-4.06c1.64-.69 2.68.73 3.64 1.74 1.29 1.37 3.09 2.5 2.98 3.79m15.16 13.45c.07 1.8-1.43 2.36-1.68 3.47-.2.88-.9 2.18.44 2.65 1.16.4 1.42-.9 1.8-1.66.24-.5.18-1.14.27-1.8.3.21.58.32.58.43.02 2.13-.35 4.13-2.63 4.99-1.04.4-1.6-.21-1.92-1.34-.73-2.62.26-5.1 3.15-6.74zm-103.31 7.06c-.92 3.74-1.63 7.23-3.12 10.44-1.11 2.4.43 2.86 2.05 3.65 2.23 1.1 1.97-1.13 2.2-1.83 1.22-3.86 3.83-6.95 5.56-10.5.56-1.16 1.37-.73 2.03-.62.83.13.94.92.84 1.7-.29 2.36-1.5 4.4-2.24 6.6-.91 2.7-3.7 4.55-3.38 7.85.04.44-1.38 1.3-2.22 1.45-.6.12-1.64-.3-1.69-1.35-.12-2.38-2.33-2.3-3.72-2.88-1.47-.61-1.22 1.35-1.87 2.06-.94 1.03-1.5 2.56-3.28 2.37-1-.1-2.13-.79-1.9-1.65.48-1.9-.5-4.66 1.7-5.55 1.82-.74 1.77-2.07 2.17-3.26 1.01-3.07 1.79-6.22 2.73-9.3.34-1.09.88-2.28 2.37-1.71 1.22.46 2.13 1.31 1.77 2.53m136.95-2.92c.97-3.26 2.45-4.2 5.49-3.66 2.52.44 3.73 1.8 3.57 4.42-.11 1.88-1 2.56-2.54 1.49-2-1.39-4.3-1.63-6.52-2.25m191.16-132.8c-1.2.05-2-.54-1.8-1.38.44-1.98 2.43-1.77 3.87-2.26.73-.25 1.9.33 1.75.77-.6 1.84-2.6 2-3.82 2.85zM522.87 828.76l13-4.06c2.06-.63 4.17-1.08 6.17-1.82.98-.35 2.2-.77 2.85-.37.95.59.03 1.8-.3 3.18 4.96-2.53 6.67 1.12 8.74 4.07-1.67.45-3.2.34-4.28-1.26-.94-1.37-2.35-1.11-3.64-1.01-3.58.27-3.58.3-2.23-3.04-7.73 1.02-14.8 4.54-22.56 5.63-.08-1.82 1.12-2.14 2-2.75 5.65-3.86 11.28-7.75 16.95-11.58.83-.56 1.47-.97 1.25-2.14-.85-4.5-.4-5.31 4.26-7.73-.02 1.47-1.04 1.89-1.95 2.45-1.32.83-2.48 2.19-1.43 3.55 2.35 3.07-.16 4.37-1.93 5.6-3.82 2.66-7.86 5-11.81 7.48q-2.65 1.67-5.27 3.35zm2.17-35.96c-1.08-.43-2.5.58-2.67-.63-.19-1.43 1.38-1.06 2.29-1.3 4.3-1.12 8.53-2.52 12.96-2.97.65-.06 1.8-.58 1.99.7.13.91-.51 1.49-1.34 1.84a14 14 0 0 1-4.08 1.16c-3.14.32-6.26.81-9.15 1.2m-70.01 81.47c-.78-2.24 1.03-2.56 2.28-2.73 1.55-.2 2.3 1.03 2.51 2.51.58 3.81-1.94 6.6-4.43 8.08-3.54 2.12-3.69 4.3-2.58 7.54.34.98.14 2.13.2 3.32-1.83-.33-2.1-1.53-2.48-2.7-1.33-4.13-2.8-8.22-3.98-12.39-.32-1.14-1.96-3.75 1.71-3.12.4.07.98-.64 1.43-1.05 2.66-2.43 3.33-2.37 5.34.54m-3.57 8.48c3.5-1.36 1.34-3.56.89-5.46-.13-.55-.2-1.55-1.18-1.17-.74.28-1.44.85-1.14 1.87zm12.1-24.95c-.55 1.3-1.01 2.88-3 3.07-.83.07-1.61-.2-1.27-1.12.54-1.42.58-3.35 2.53-3.77 1.08-.22 1.64.52 1.74 1.82m-8.06 5.88c-.41 1.05-.92 2.04-2.24 2.09-.97.04-1.5-.48-1.43-1.51.1-1.5 1.37-1.93 2.4-2.2.85-.22 1.13.8 1.27 1.62"/><path fill="#000" d="M432.55 320.6c2.01 1.04 2.92.38 3.98-1.02 1.5-1.98 3.4-1.66 4.01.6.46 1.68 1.27 1.27 2.21.98 2.26-.71 3.77-2.4 5.15-4.2.78-1.01 1.64-.8 2.38-.3.7.49.7 1.26.3 2.15-2.35 5.33-14.07 6.86-18.03 1.8zm13.86-6.37c-.07-.49-.23-.88-.16-1.23.23-1.1-.68-2.46.7-3.24.15-.09.84.33.9.6.33 1.49.7 3.06-1.44 3.87"/></svg>