<svg xmlns="http://www.w3.org/2000/svg" width="1080" height="1080" fill="none" viewBox="0 0 1080 1080"><path fill="#fff" d="M531.12 759.6c-.52 1.63-1.38 3.22-1.46 4.87q-.33 7.07-.1 14.15c.03.79 1.1 1.9 1.96 2.26 7 2.94 13 7.37 18.47 12.5 10.1 9.48 20.08 19.12 31.81 26.61a55 55 0 0 1 17.68 18.02c1.07 1.76 2.57 3.25 4.5 5.64.93 5.28-2.73 10.78-3.05 16.82 5.9 1.92 11.97 3.42 17.63 5.88 4.5 1.93 8.46 5.08 12.71 7.59 2.95 1.74 6.08 3.17 8.94 5.02 3.5 2.26 5.09 5.38 6.05 9.77 2.26 10.33-3.5 16.4-9.95 22.4a13 13 0 0 0-3.08 4.07c-5.52 12.01-11.12 23.98-16.69 35.96-1.32 2.88-2.45 5.85-3.95 8.63-2.78 5.15-1.9 11.06-3.76 16.43-3.17 9.13-5.96 18.39-8.96 27.57-1.22 3.73-2.58 7.43-3.87 11.14H140c.78-3.9 1.08-7.97 2.45-11.65 2.6-6.97 5.83-13.7 8.74-20.57a2543 2543 0 0 0 9.99-23.94c.7-1.7.9-3.49-.6-4.94-1.4-1.36-1.16-2.83-.58-4.45 2.51-6.97 4.95-13.96 7.48-20.92 3.98-10.99 7.92-22 12.04-32.93 4.7-12.48 9.23-25.05 14.48-37.29a87 87 0 0 1 12.26-20.56c7.72-9.5 15.25-19.13 22.82-28.75 7.17-9.11 14.4-18.19 21.36-27.46 2.97-3.95 5.32-8.37 7.97-12.56.67-1.07 1.54-2.03 2.12-3.13 2.78-5.29 7.72-8.43 11.98-12.25 2.35-2.11 3.85-4.42 3.62-7.93-.18-2.79.33-5.79 1.26-8.44a24 24 0 0 0 1.35-9.96c-.73-9.15 1.64-17.84 3.66-26.6.8-3.43 1.38-6.92 2.1-10.62-.62-.34-1.26-.77-1.96-1.08-5.64-2.49-7.8-6.69-7.32-12.96.34-4.4.05-8.87.04-13.6-4.56 2.46-8.35 4.72-12.31 6.57-3.45 1.62-7.06 2.85-11.04 2.45-6.23-.64-11.47-2.87-15.24-8.16-2.78-3.91-5.83-7.64-8.77-11.45l-1.98-4.85-1.2-3.17-.83.3.95 4 2.2 5.7 2.1 4.8c-2.55.44-3.05 1.89-2 4.08 2.01 7.91 6.59 14.53 10.7 21.4q-.26.2-.51.44c-7.37-4.45-11.66-11.55-16.04-18.59-.78-1.25-1.54-2.93-2.72-3.45-2.76-1.22-3.29-3.2-3.1-5.82.12-1.6.07-3.22.08-4.83l1.25-.1 1.56 7.59c1.8-3.3.27-5.31-.19-7.44 1.72-3.8 1.19-5.45-2.59-8.02l-.21-6.35c-.07-1.47.86-1.47 1.9-1.34l.2 1.66.4 2.8.99-.1.3-3.54-.04-1.92c.58-2.1 1.2-4.16 1.73-6.26.54-2.13.99-4.28 1.47-6.41l.79-1.06-.03.02c1.62.14 3.19.23 2.8-2.42l-2.38.46-.2-1.44c-.49-2.75.6-3.59 2.62-2.6l9.66-12.43 2.34-2.02.58-.87-.96.51-2.72 1.67c-7.84 2.87-13.88 7.9-17.48 15.46-2.9 6.1-6.04 12.18-6.71 19.07-.27 2.73-.03 5.5-.03 8.25v6.42a18 18 0 0 1-5.94-8c-.83-2.37-2.2-4.55-3.24-6.86-.45-.99-1.02-2.06-1-3.09.14-7.4.53-14.8 2.87-21.91.66-2.04 1.84-3.9 2.84-5.83.74-1.43 1.88-2.74 2.25-4.24.56-2.26.66-4.33 3.99-3.79 1.22.2 3.02-4.08 2.9-6.01-3.57-.9-7.15-1.57-10.56-2.72-1.75-.6-3.26-1.98-4.76-3.16-1.07-.85-1.77-2.2-2.9-2.95-3.56-2.32-7.03-4.69-8.46-8.88 2.24-.3 2.35-.43 4.12 1.03a10.5 10.5 0 0 0 8.04 2.54c3.07-.25 6.19-.15 9.28-.03 7.86.3 15.24-1.64 21.54-6.13 6.68-4.77 12.81-10.33 15.04-18.81.12-.44.02-.92.02-1.66-2.41.52-4.71.88-6.93 1.54-2.3.68-3.53.38-3.36-2.39.04-.67-.6-1.39-1.03-2.29H231l.02-1.74c2.66-1.87 5.09-4.5 8.05-5.46 5.97-1.95 9.86-6.78 15.06-9.74.76-.44 1.06-1.7 2.2-3.67-3.08.4-5.08.51-7.01.92a60 60 0 0 1-25.31.08c-2.33-.5-5.2-1.48-6.28-4.6 4.9-.31 9.72-.7 14.54-.87 4.8-.17 9.56-.5 14.1-2.14a8.5 8.5 0 0 0 3.98-2.98c.76.17 1.63.15 2.27.52 2.41 1.39 4.33.4 5.26-1.66 2.42-5.44 7.59-8.39 11.03-12.88 3.3-4.33 6.93-8.44 10.08-12.87 1.3-1.83 1.75-4.27 2.86-7.11-3.4-1.34-7.12-2.56-10.6-4.26-3.14-1.52-6.38-3.18-8.95-5.48-8.83-7.87-16.65-16.74-24.07-25.95a14 14 0 0 1-2.14-4.24c-1.13-3.22.07-5.12 4.58-7.74 1.86-6.19-.43-11.52-3.56-16.5-2.04-3.24-3.25-6.63-3.27-10.37-.04-9.94-.2-19.88.24-29.8.19-4.33 1.76-8.6 2.66-12.9 1.1-5.2 3.55-10.24 1.99-15.84-.16-.09-.43-.35-.7-.35-6.58-.03-8.7-1.89-9.83-8.28-.88-5-2.01-9.95-2.94-14.95-.2-1.1.16-2.28.02-3.4-.43-3.77-1.07-7.52-1.42-11.3-.31-3.36-.7-6.77-.4-10.1.31-3.34 5.6-7.2 9.58-7.73 3.13-.42 6.25-.9 9.53-1.38 1.05-10.73 3.48-21.22 6.24-31.68 1.85-7 3.05-14.2 4.78-21.24 1.39-5.68 3.22-11.25 4.7-16.93.9-3.48 1.52-7.04 2.35-11-4.12.24-7.29-.51-9.04-4.01.3-3.3 2.26-5.13 5.6-5.95-.11-5.92 2.1-11.25 4.2-16.6.23-.6.3-1.27.58-1.83a3524 3524 0 0 1 9.35-18.26c2.98-5.78 7.23-10.6 11.27-15.65 6.56-8.16 15.35-13.54 23.39-19.83a290 290 0 0 1 22.84-15.97c11.21-7.14 23.07-13.12 35.2-18.6 3.95-1.79 7.8-2.54 11.99-2.91 2.78-.24 5.72-.86 8.17-2.14 7.36-3.83 15.31-5.97 23.1-8.55 10.8-3.58 21.83-6.3 32.94-8.63 5-1.05 10.15-1.34 15.22-2.07 16.16-2.32 32.5-2.6 48.74-3.92 5.28-.43 10.55-1.53 15.82-1.47 11.54.1 23.07.78 34.6 1.18 3.58.13 7.2-.17 10.75.24 3.1.35 6.3 1.01 9.12 2.28 1.98.9 3.76 1.45 5.92 1.61a505 505 0 0 1 20.09 2.07c7.28.87 14.56 1.75 21.79 2.93 5.74.94 11.35 2.62 17.1 3.47 5.87.87 11.25 3.05 16.75 5.04 2.32.84 5.1.4 7.42 1.25 11.42 4.16 22.84 8.23 33.92 13.38 5.73 2.65 11.62 5.12 17.25 8 10.12 5.19 19.87 10.93 28.86 18.09A347 347 0 0 1 779 157.71c2.83 2.97 5.73 5.87 8.89 9.1 2.78-.5 6.14-1.32 9.56-1.66a513 513 0 0 1 25.15-2.1c6.8-.34 13.62-.2 20.43-.05 2.66.05 5.33.66 7.97 1.14.52.1.93.73 1.4 1.09l8.73 6.63a7.6 7.6 0 0 1-.99 6.39c-1.86 2.8-1.64 5.28.04 8.34 5.2 9.45 9.84 19.2 14.94 28.7 3.99 7.43 8.28 14.7 12.53 22 4.58 7.85 9.64 15.46 13.8 23.52 3.18 6.19 4.87 13.13 8.02 19.33 1.71 3.33.94 6.89 2.45 10.06 1.46 3.02 3.13 6 4.08 9.19 1.62 5.44 2.76 11.04 4.11 16.56 1.83 7.46 3.9 14.88 5.4 22.4.85 4.27.87 8.72 1.09 13.1a115 115 0 0 1 .17 11.74c-.3 5.84.3 11.5 2.61 17.24 3.85-.07 7.9.14 10.7 3.78 0 1.27-.34 2.83.08 4.15.64 2 .34 3.47-1.24 4.73-1.12.9-2.14 2.04-3.43 2.6-8.39 3.64-15.7 9.47-24.63 12-.58.16-1.1.54-1.14.57.88 5.07 1.74 9.87 2.54 14.67.66 4.04-1.88 6.76-4.34 9.25-5.35 5.42-12.3 7.58-19.4 5.9-3.91-.9-7.92-2.55-11.92-3.69-6.21-1.76-12.21-4.77-19.2-3.79v7.68l-2.46 1.97c-.75 6.35 3.17 11.77.62 17.86-.7 1.69.83 4.24 1.06 6.42.25 2.3.7 4.77.17 6.96-3.13 13-11.27 22.75-20.89 31.48l-2.13-1.1.2-1.77h-.06l1.01-1.01-.03.03 1.01-.98h.02l3.43-3.84a24 24 0 0 0 4.28-6.72l-.95-.55-4.16 6.42-2.7 2.67-5 2.76a1.5 1.5 0 0 0-.9.1l-.26-2a28 28 0 0 0 7.71-15.14 48 48 0 0 1-13.84 14.08l-.94-1.32c5.06-5.16 6.4-11.65 7.47-18.53a80 80 0 0 0 .74-17.22l.45-6.57 2.25-.42-1.39-1.92-1.35-6.62-.48-2.78-1.13.23.58 2.39.07 15.65c-.58 3.19-1.03 6.4-1.75 9.56-1.67 7.3-3.96 14.37-8.86 20.27-.27.33-.76.46-1.52.9 2.43-8.5 4.74-16.62 7.07-24.73l.18-2.94-.58-.12-.77 1.55c-1.9 2.37-3.83 4.72-5.69 7.11-2.4 3.11-5.79 4.52-9.44 5-6.16.81-9 7.32-7.33 13.03.21.74.46 1.5.52 2.27.05.62-.16 1.27-.39 2.82-3.52-7.1-4.16-13.42-.75-19.91q.7-1.29 1.43-2.54l1.43-2.46 8.5-12.91c-3.86-1.7-5.56 1.13-7.05 2.58-6.22 6.03-10.65 13.21-10.94 22.2-.2 6.18.11 12.37-.08 18.54-.22 6.66 1.86 12.81 3.25 19.17 1.72 7.85 3.19 15.8.67 24.07-4.58 15.03-13.77 26.68-25.08 37.02-.96.87-1.88 1.8-2.82 2.68l-1.58 1.24c-1.75.83-4.12 1.04-4 3.85l.05-.04c-1.86.28-4 .19-3.96 2.99l.04-.04c-1.07-.38-1.49-.11-1.02 1.04l.06-.07c-2.94-.26-4.55 2-6 3.8-1.5 1.89-3.72 3.86-2.68 6.88l1.3 1.66c-1.74 1.05-1.35 2.48-1.06 4.19 1.61 9.48 7.04 17.1 12.21 24.77 3.02 4.47 5.82 8.83 7.34 14.12.9 3.12 2.46 6.04 3.24 9.32.94 3.9 1.28 7.9.02 11.43-1.51 4.28-1.35 8.77-2.7 12.99l-1.62-.05.8-10.71-.07.1c.33-.83.9-1.65.95-2.5.1-2.76 0-5.53 0-8.3v-2.23l-.59-.21-.94 2.26.27 7.85-1.6.1-.3-2.84.08-1.8-.69-5.73-2.31 1.76-4.68-10.94-2.85-5.03h-.13l.21.06 1.07 5.05c.24 1.68.4 3.4.75 5.07a32.4 32.4 0 0 1-.07 14.36l-1.56-4.44-2.17 7.55c-3.73 7.16-9.18 12.47-16.72 15.53l-.08-2.06 5.15-5.68c2.92-1.19 3.06-3.83 3.72-6.45-1.62.15-1.83 2.87-3.72 1.41a27.6 27.6 0 0 0 0-14.49l-1.86-.21c-1.11-4.65-2.15-9.35-5.32-13.14-.55-.66-1.32-1.13-2.81-2.36 1.28 5.97 1.07 10.9-.85 15.64q-.9-.05-1.79-.12l-.16-1.78c.26-2.5.8-5.01.69-7.49-.08-1.84-1.5-1.53-2.25-1.07l.86 8.27-.3 2.97c-1.6 2.1-3.8 3.88-4.02 6.81-.57-.33-1.68-.77-1.63-.98.29-1.4.86-2.72 1.26-4.1 1.33-4.48-1.6-11.7-5.7-13.85-.8-.42-1.82-.39-2.74-.57l-1.95.2c-4.6-.03-8.66-1.4-12.07-4.65-1.07-1.01-2.57-1.58-4.18-2.54l-14.15 18.8c-2.47 0-4.03 1.5-5.57 3l2.03 2.21c-4.52 5.18-9 10.39-13.59 15.5-1.18 1.33-1.74 2.25-.74 4.14 1.77 3.37.9 6.46-1.74 9.3-3.6 3.88-6.55 8.4-10.42 11.93-4.58 4.17-9.82 7.58-16.63 6.74-4.9-.6-8.65-2.53-10.56-7.46-.72-1.86-2.29-3.4-3.46-5.08l-.17-2.86-2.74-.14c-6.68-6.2-14.72-9.55-23.4-11.94-8.16-2.26-16.08-5.38-24.16-7.97-2.26-.73-4.68-.96-7.03-1.43h-1.85l-.06.44 1.53.48c-3.33 7.2-5.06 14.88-6.5 22.6-.96 5.08.76 10.13 2.18 14.99a31 31 0 0 0 12.08 16.76c6.48 4.54 13.61 8.57 22.1 8.1 3.18-.16 6.33-.52 9.49-.8l1.67 1.3c-9.25 3.86-18.41 8.1-28.86 7.2q-4.48-.37-8.96-.7l-5.87-2.06-1.02.07-1.8-2.02-3.84-4.16-1.15-.82.02.03-.83-.64-.25.69c.3 1.06-3.22 1.9-.16 3.11l.77 1.28 1.37 1.02 2.15 1.49 1.78 1-.08-.05c.02 2.06 1.17 2.51 2.95 2.04l-.13.1 4.17 2.57a31 31 0 0 0 19.08 5.32c-6.38 2.06-12.72 2.5-19.12.6-1.15-1.44-2.53-2.15-4.68-.76q2.25 1.05 4.52 2.08l1.72 1.26c-3.1 1.2-5.83.13-8.5-1.03-7.28-3.18-13.84-7.36-18.43-14.06-1.18-1.71-1.97-1.83-3.02.18-2.45 4.62-5.17 9.1-7.52 13.77-.67 1.35-.43 3.15-.62 4.75l-1.83.6-1.68 1.05.45.63 1.51-1.36 1.54-.93zM802 448.45l-.96 1.13-1.01.72-1 .94-1.26 1.15.28.5 1.66-.75 1.02-.93.97-.99.94-1.02.56-.99zm42.74 37.02.53-1.6q-.49.56-.97 1.16l-.43 1.1zm-35.64-34.7-1.45.56.28.62 1.54-.8.92-1.03 1.24-.5c-.1-.12-.27-.35-.3-.33q-.54.33-1.06.7zm6.53 15.43-1.02 1.78.6.42 1.22-1.5.84-1.82c1.53-2.4 3.6-4.64 2.12-9.04l-2.9 8.77-.86 1.38zm-109.4 172.17-1.1-1.89-.55.16.86 2.5c.93 2.13 2.54 2.03 4.92 1.5zm59 5.67q-.28-.57-.52-1.13l.34-.18.18 1.24 2.66 6.3c.57-2.79.15-5.1-2.66-6.24zM779 564.25c-2.9.67-4.07 3.39-6.08 5.11l-18.46 13.05-.14.74 1.02-.11c7.24-2.72 13.14-7.42 18.8-12.5l4.94-5.95c1.77-.24 2.59-1.16 1.68-3.28l-1.77 2.95zm12.89-95.66-.73 1 .73.41.62-1.61c.22-2.86 2.7-5.29 1.75-8.78-3.24 2.66-3.31 5.69-2.36 8.98zm-77.1 151.23-4.24 4.09q4.63.05 4.25-4.09m35.38 38.25-1.16.06c-.26 1.67-1.15 3.44 1.16 5.27zm86.57-187.89 1.4.06v-4.13l-1.08-.06zm-79.27 183.3q-1.7 3.01-.23 5zm-197.23 96.08-.44.85 2.86 1.6.51-.98zm147.98-117.4c-.14-.25-.25-.68-.42-.7-.25-.04-.54.2-.82.33l.57.96zM526.03 763l.15-.22-.25-.04zm222.12-93.91.14-.26-.22-.03zm-122.3 24.88-.36.25c.1.11.19.29.3.3s.23-.14.35-.23zm127.5-110.47c-.12-.06-.27-.18-.35-.16-.14.05-.24.2-.37.3l.7.18v-.32zm-2.21 1.44.36-.27c-.11-.1-.22-.28-.33-.29s-.23.17-.35.26zM558.7 749.14c-.08-.08-.16-.23-.25-.25-.1-.01-.2.11-.31.18.08.09.16.24.25.26.09 0 .2-.12.31-.18"/><path fill="#fff" d="M227.17 662.64c-1.05-2.2-.56-3.64 2-4.08 4.34 6.38 9.4 11.99 16.6 15.27.56.26 1.22.35 1.83.52l-1.34 1.2a29 29 0 0 1-13.98-9.1c-1.36-1.58-2.26-4.1-5.11-3.8zm524.86-59.37-1.3-1.67 8.68-10.67-.06.06 1.02-1.03-.04.03c1.98-.1 3.39-.99 3.95-2.99l-.04.04 1.86-.14.9.7c-2.03 1.84-4.19 3.56-6.06 5.55-3.06 3.28-5.95 6.73-8.9 10.12zm79.22-150.98-.45 6.57-1-.05-.07-15.65 1.04.17 1.35 6.61q-.42 1.17-.87 2.35m-105.1 212.96c.22-2.93 2.4-4.7 4.01-6.8l1.15-.92 1.79.12c-.86 1.88-1.56 3.83-2.6 5.6-.91 1.58-2.3 2.68-4.37 2zM215.6 643.82c3.78 2.58 4.3 4.22 2.6 8.02l-1.38-.14-1.25.1zm539.99 25.65 2.17-7.55 1.56 4.44-1.58 6.35-2.16-3.24zM829.9 499a1.3 1.3 0 0 1 .9-.1l-.06 1.2-7.55 6.33-.89-.8 3.72-3.6zm-64.85 158.8 2.31-1.76.68 5.71-.95 1.56c-.56-.4-1.47-.71-1.59-1.22-.33-1.39-.33-2.86-.45-4.3m-21.1 14.43c1.89 1.45 2.1-1.26 3.72-1.42-.66 2.62-.8 5.28-3.72 6.45-1.47-1.68.06-3.35 0-5.04zm-62.52-9.44-2.03-2.22c1.54-1.5 3.1-3 5.57-3zm57.36 20.16.08 2.06-4.47 2.12-.49-.95z"/><path fill="#fff" d="m830.75 500.1.05-1.2 5.02-2.77.09 2.02h-.02l-1.01.98.03-.03-1.01 1.01h.05l-1.1.11-2.11-.13zm-.83-1.1-3.9 3.02c-.46-2.72 0-3.36 3.63-5.03zm-104.9 167.36c-.4 1.99-1.77 2.92-3.36 3.63l-.83-.66 3.16-4.19zm33.64-19.44-1.07-5.05-.08-.06 2.86 5.05zm-150 88.34 4.31-1.49q.19.45.34.92l-4.6 2.15zm-382.71-88.33 1.98 4.84-.87 1.98-2.2-5.7zM817.5 498.8l4.55-3.74 1.19 1.15-5.12 3.46zm-253.75 243q2.93 1.05 5.87 2.07l-1.18.89-1.81-.08.08.06zm3.94 5.71-4.17-2.57 3.19-.2-.08-.05 1.1 1.33zm-.2 7.24-4.51-2.09c2.15-1.39 3.53-.69 4.68.77l-.15 1.32zm266.28-252.88 2.13 1.1c-.55 2.2-2.33 1.91-3.95 1.99l-.67-.7 1.63-2.21zm-10.57 4.55-3.87 2.84c.33-2.42 1.62-3.07 2.98-3.65zm-576.94 169.1 1.34-1.2 3.66.83-.25 1.3zM717.5 647.8l1.18 4.75-.91.21-1.24-5.03zm-493.97-28.42 2.38-.46c.39 2.65-1.18 2.56-2.8 2.41zm545.94 60.65 1.63.05c-.04 1.53-.84 2.4-3.27 3.33zM621.4 694.85l2.74.14.17 2.86zm146.89-28.46 1.58-.09.32 3.13.07-.1c-2.56.3-2.23-1.34-1.97-2.94m48.6-165.77-2.73 1.39-.44-.62 2.22-1.68.96.9zm-1.16-7.92 1.34-2.38.96.62-1.71 2.32z"/><path fill="#fff" d="m717.49 647.8-.97-.07-1.14-1.79 1.95-.2zm50.75-64.6 1.58-1.24-1 3.23q-.6.12-.66-.48zm-549.1 51.84.05 1.92-1.7.84-.2-1.66zm612.81-130.07-1.98 2.1-.17-.38-.42.04 1.9-2.46q.36.33.68.69zm-28.58-36.37-1.44 2.46c-.42-1.35-.13-2.28 1.44-2.46M742.1 657.5l1.86.22-1.5 1.72-.36-1.92zM231.02 546.04l-.02 1.74-1.89-.61zm335.41 128.4-1.53-.48q.02-.23.06-.44h1.85zm42.25 60.83.04 1.58-1.27.54-1.67-1.3zm214.9-271.98q.4-.76.78-1.54l.58.11-.18 2.94-1.16-1.5zM567.73 746.02q-.54-.67-1.1-1.33.91.03 1.82.09zm199.38-82.7.95-1.57-.08 1.8-.47.03zm60.98-154.39-1.71.92-.3-.6 1.34-1.1zm-9.96-9.24-1.24.93-.95-.91 1.57-.9zm15.65 2.19-.86.18-.04-1.84 1.1-.1zm-17.45-8.62-.67.6.1-1.16q.3.27.58.56zm-91.3 173.1-1.04-1.21c1.4-.52 1.48.12 1.04 1.2m98.22-170.13-1.19-1.15q.1-.43.53-.46l.93 1.32zm-585.38 187.8.68.75-1.18-.3q.24-.23.51-.44z"/><path fill="#fff" d="m828.49 507.34.88-.6.42-.04.17.39-.94.85zM617.04 732.28l.12.3-.3-.04zm-2.2 1.17.34-.1-.03.27z"/><path fill="#fff" d="M827.41 508.14q.54-.38 1.08-.8l.53.6-.94 1zm-58.6 77.05-1.06 1.59-.68-.84 1.1-1.23q.06.6.64.47zm-1.06 1.59-.77.82-.9-.7.99-.96zM531.12 759.6l-1.54.93-.29-.3 1.84-.62zm243.03-189.06c-5.66 5.08-11.56 9.79-18.8 12.5l-.9-.63 18.48-13.05q.6.6 1.22 1.17zm-14.75 20.39-8.69 10.67c-1.04-3.02 1.19-5 2.7-6.87 1.44-1.8 3.05-4.07 6-3.8m-28.95 64.53-.86-8.26c.75-.47 2.17-.78 2.25 1.06.12 2.48-.43 5-.7 7.49l-.24-.39zm61.43-186.87c-.95-3.29-.88-6.32 2.36-8.98.96 3.5-1.52 5.92-1.75 8.78q-.39-.14-.61.2M559 741.85l-2.16-1.49.08-1.53h1.14l2.88 1.03 1.8 2.02-.09 1.34-1.95-.43.07.06q-.88-.51-1.77-1m279.5-248.39 4.16-6.42.95.55a24 24 0 0 1-4.28 6.71z"/><path fill="#fff" d="m774.16 570.54-1.22-1.17c2-1.72 3.18-4.44 6.07-5.1l.09.32zm42.33-105.72 2.9-8.77c1.49 4.4-.59 6.64-2.12 9.03zm-51.26 179.23c2.8 1.14 3.23 3.44 2.66 6.23l-2.66-6.3zm-50.42-24.2q.38 4.13-4.25 4.07zm35.38 38.25v5.32c-2.32-1.83-1.42-3.6-1.15-5.27zm-533.36-6.39 1.37.14c.46 2.13 1.98 4.16.19 7.44zm553.37 17.72-.32-3.13-.27-7.85 1.53.19c.02 2.76.1 5.54 0 8.3-.04.84-.61 1.66-.94 2.49m66.56-199.22.32-4.12 1.08.05v4.13l-1.39-.05zm-69.69 115.74-.98.96-1.86.15c-.12-2.8 2.24-3 4.01-3.85l-.08 1.5zm-9.59 67.57-.22 4.99q-1.48-1.99.22-5m-51.24-15.13 4.13 2.28c-2.38.52-3.99.62-4.92-1.5z"/><path fill="#fff" d="M764.28 587c-.56 2-1.97 2.89-3.95 3-.04-2.8 2.1-2.72 3.95-3m71.63-88.85-.09-2.02 2.7-2.67.82.85zM225.95 646.93l-1.08 1.12-.95-4 .83-.3zm-8.46-9.13 1.7-.84-.3 3.53-.99.1zM779 564.26l1.77-2.95c.9 2.12.09 3.04-1.68 3.28zm-218.06 175.6-2.88-1.03-1.7-2.38.72-.75zm1.72 3.36.08-1.34 1.02-.07 2.96 2.94-3.19.19.13-.11-.99-1.6zm268.1-299.9-1.03-.17-.57-2.39 1.13-.23zM554.72 738.05c-3.06-1.2.46-2.06.16-3.11l1.09-.04-.02-.03-.05 1.26-.93 1.72-.25.21zM831.25 452.3l.87-2.35 1.38 1.92q-1.12.23-2.24.43zM560.27 749.6l2.92 1.48-.51.98-2.85-1.6zM234.83 602.2l2.72-1.67.37.35-2.34 2.02z"/><path fill="#fff" d="m562.66 743.22.99 1.61c-1.78.47-2.93.03-2.95-2.04zM708.24 632.2l-.67.58-.57-.96c.28-.12.57-.36.82-.33.18.03.28.46.42.71m108.2-165.28q-.62.73-1.23 1.49l-.6-.42 1.03-1.78zm-24.55 1.7q.23-.35.61-.21l-.62 1.61-.73-.41zm-20.76 190.03-1.53-.19.95-2.26q.3.1.58.22zm-65.7-19.48-.84-2.5.54-.17 1.1 1.9-.78.77zM529.6 760.54l-1.5 1.35-.47-.63 1.7-1.04zm200.87-105.08.45-.1.25.38.16 1.79-1.15.9zm34.77-11.48-.18-1.24c-.12.06-.34.17-.33.18l.5 1.13zm45.03-194 1.08-.7c.02 0 .2.23.3.34l-1.25.5-.13-.12zm-.78 1.17-1.54.8-.28-.62 1.45-.54zm-9.77 1-1.66.76-.28-.5 1.26-1.16zm17.55 12.93-.83 1.83-.8-.71.85-1.38zm27.02 19.94.97-1.15-.53 1.6zm-318.26 278-.1-.25.25.04zm222.12-93.9-.08-.3.22.02zM625.85 694l.29.31c-.12.08-.24.25-.35.24s-.2-.2-.3-.3zm-69.88 40.9-1.09.03.25-.69.83.65z"/><path fill="#fff" d="m844.74 485.47-.87.66.43-1.1zM555.9 736.12l.05-1.25 1.15.82-.72.75a1 1 0 0 1-.48-.31m199.46-153.08-1.02.1.13-.73zm-2.03.47v.32l-.7-.17c.12-.1.23-.26.37-.3.1-.03.23.1.34.15zm-2.2 1.45-.32-.3c.12-.1.25-.26.35-.26.12 0 .22.18.33.29zM555.49 739.35l-.77-1.3.25-.21 1.18.73z"/><path fill="#fff" d="m556.92 738.83-.07 1.53-1.37-1.01.65-.78q.41.1.79.26m203.44-148.87-1.02 1.03c-.47-1.14-.06-1.42 1.02-1.03m40.37-138.74-1.02.93-.68-.9 1-.94zm9.66-1.09-.91 1.03-.37-.37 1.16-.8zm-10.36.18q.51-.35 1.01-.72l.66.64-.97.99zM237.56 600.53l.96-.51-.59.87zM558.7 749.17c-.1.07-.21.2-.31.18-.1 0-.17-.16-.25-.26.1-.06.21-.2.31-.18.1.01.17.17.25.26"/><path fill="#fff" d="m801.04 449.6.96-1.15.64.76-.94 1.02zM757.6 641.87l-.2-.06h.13zM802 448.45l1.2-.23-.56.99zm31.9 51.67 1.02-1.01zm-277 238.7a5 5 0 0 0-.78-.25l-1.18-.73.94-1.72q.19.22.47.31l1.7 2.38h-1.14z"/><path fill="#000" d="M365.92 529.23c-2.77-3.75-6.69-6.15-10.38-8.77-6-4.26-12.61-7.47-19.27-10.54-1.37-.64-2.53-1-3.63.84-5.65 9.43-12.9 17.58-20.84 25.12-1.85 1.75-3.2 4.06-6.28 5.7.78-4.27 3.8-6.17 5.6-8.81 2.01-2.96 4.36-5.7 6.55-8.54l6.24-8.15c2.08-2.72 4.17-5.42 6.65-7.7-.47-1.18-1.47-1.35-2.37-1.69-4.87-1.84-4.8-1.81-7.18 3.03-3.57 7.25-8.93 13.21-14.42 19-13.73 14.47-28.92 27.28-45 39.04q-.6.44-1.2.83c-.98.62-2.04.48-2.68-.29-.92-1.09.23-1.7.93-2.3 4.55-3.96 9.24-7.76 13.64-11.88 13.21-12.38 25.97-25.2 36.37-40.14a63 63 0 0 0 6.48-11.53c-2.75-.88-5.28-1.74-7.85-2.5-7.34-2.22-14.57-4.67-21.18-8.7-2.85-1.75-3.06-1.64-4.89 1.38a78 78 0 0 1-15.88 19.1c-10.99 9.42-24.06 12.47-38.2 11.98-1.11-.04-2.23-.52-3.35.04 2.18 2.2 2.95 2.29 11.21 3.9 4.2.81 8.41.4 12.7.66-.54 2-2.06 1.67-3.21 1.79-9.59 1-18.87-.55-27.82-3.88a87 87 0 0 1-31.48-20.17l10.45 5.61c6.17 3.33 12.32 6.66 18.73 9.52a17 17 0 0 0 7.07 1.51c7.85.06 15.63-.06 23.13-2.89a55 55 0 0 0 22.84-16.19c4.04-4.72 7.7-9.7 11.1-14.89 2.02-3.1 1.9-3.36-1.82-4.51-6.72-2.07-13.28-4.4-19.22-8.32a23 23 0 0 1-5.38-4.77 289 289 0 0 1-14.98-19.94c-1.17-1.73-2.9-2.54-4.4-3.75-4.17-3.4-3.68-7.63 1.48-9.1 3.08-.89 3.82-2.25 3.54-5-.14-1.45-.03-2.92-.03-4.79-2.48.53-4.47 1.97-6.96 1.21-1.65-.5-2.66-1.14-2.92-2.74s-.5-3.24-.43-4.85c.85-19.7 2.6-39.3 6.44-58.65.7-3.5 1.4-7.02 3.2-10.2 1.06-1.85.66-3.12-1.7-3.33-.64-.07-1.26-.32-1.9-.42-2.51-.37-3.72-1-4.33-4.29-1-5.35-3.16-10.58-4.55-15.93-2.3-8.84-4.25-17.72-3.2-27 .87-7.79 3.84-10.7 11.5-10.7 5.1 0 6.68-1.32 7.93-6.27 3.3-13.1 5.76-26.4 8.5-39.62 1.9-9.27 4.04-18.46 7.52-27.27.8-2.04.53-2.8-1.68-3.38-7.18-1.92-7.2-2.02-5.66-9.11.65-2.96 1.62-5.75 5.6-5.37.32.03.7-.6 1.09-.93.38 1.52 2.4 1.23 3.35 2.75-2.88 1.04-5.53 2.03-5.98 5.25a3.5 3.5 0 0 0 2.59 1.24c5.06.44 9.89 1.89 14.75 3.19 3.01.8 5.84 2.03 8.54 3.53 1.27.71 2.5 1.54 1.8 3.48-.8 2.19-2.19 1.34-3.56.92-.47-.14-.97-.2-1.41-.4-1.72-.75-2.73-.27-3.3 1.57-1.81 6-3.72 11.97-5.58 17.96l2.7 1.15c4.87 2.06 5.27 2.82 4.25 8.18-.79 4.16-1.45 8.34-2.4 12.46-2.49 10.69-2.57 21.97-7.87 31.94 2.8 1.4 6.16.72 9.02 3.26-1.26.17-1.87.35-2.47.34-7.96-.33-15.96-.14-23.83-1.72-1.7-.34-2.95-.42-3.95 1.6-1.56 3.2-2.66 3.71-5.75 2.32-3.2-1.43-5.98-.56-8.94.3-1.24.37-2 .92-2.07 2.29-.4 7.35.17 14.57 2.37 21.7 2.77-.61 5.1-2 7.72-2.13 2.77-.12 5.55-.32 8.3-.17 11.64.67 24.74 7.17 29.19 21.45 1.35 4.35 2.53 8.75 3.68 13.16.45 1.72.55 3.72 2.29 5.02.74-1.58-.37-2.66-.62-3.88-.33-1.58.12-2.5 1.61-3 4.86-1.6 8.92-4.67 13.29-7.18a40 40 0 0 1 5.73-2.68c1.37-.52 2.93-.75 4.07.6 1 1.2.38 2.44-.07 3.68-.79 2.18-2.2 3.97-3.47 5.87-1.41 2.12-3.43 3.87-4.23 6.39 2.96 1.6 3 1.6 3.5 5.44.12.94.46 1.6 1.23 1.9 3.95 1.59 5.18 4.57 4.27 8.66 5.23.9 10.16 1.86 15.05 3.09 1.84.46 3.8 1.58 5.64.92 1.59-.57.63-3.09 2.1-4.1.12-.07.3-.06.47-.1l-.1-.1q-.15 1.46-.26 2.92c-.07.91-.63 1.97.6 2.56 1.44.68 2.45-.05 3.42-1.06 1.13-1.19.95-2.71 1.25-4.12.83-3.9 2.04-7.78 5.7-9.87a44 44 0 0 1 16.94-5.67c7.1-.8 14.24-1.2 21.37-1.8 3.7-.3 3.75-.39 4.66-4.26 1.1-4.62 2.96-8.96 4.76-13.32 8.87-21.47 22.04-39.87 39.76-54.87 13.24-11.21 28.52-18.74 44.92-24.17 16.44-5.45 33.35-8.69 50.51-10.66 12.16-1.4 24.42-1.6 36.61-.9 16.54.93 33.05 2.66 49.49 4.78 8.06 1.03 16.13 2.06 24.02 4.12 1.23.33 2.4 1 3.83.3-.72-2.68-2.13-5.1-2.58-7.87-1.57-9.85-.29-19.48 2.16-28.99.73-2.82 1.84-5.65 5.66-5.73.66-.01 1.4-.76 1.95-1.33 4.26-4.46 9.61-7.23 15.1-9.76a1917 1917 0 0 1 23.57-10.7c19.85-8.83 40.26-15.9 61.64-19.98 4.78-.92 9.7-1.2 14.4-2.35 6.96-1.7 13.84-3.67 20.87-5.07.96-.2 1.95-.28 2.65-1.19-2.74-8.39-9.48-13.73-15.35-19.67-6-6.08-12.41-11.74-19.83-16.8l-3.27 40.08q-.56-11.75.56-23.35c.5-5.2.53-10.4.78-15.6.13-2.85-.9-4.6-4.11-4.95 0 3.41-.05 6.66 0 9.91.15 8.99-.3 17.92-2 26.76-.6 3.14-2.07 6.2.18 9.38-2.17.11-3.06-1.26-4.12-2.15-10.24-8.6-19.81-17.95-29.14-27.52-2.05-2.1-4.1-4.2-5.96-6.47-1.53-1.85-3.1-2.03-5.14-1.02-1.61.79-3.32 1.35-4.96 2.07q-12.96 5.75-25.92 11.46a39 39 0 0 1-5.47 2.08c-2.3.6-3.31-.6-2.64-2.97a12 12 0 0 1 .74-1.8c4.97-10.24 9.37-20.79 16.81-29.66-7.53-8.25-13.7-17.5-20.78-26-.83-1-2.27-2.34-2.07-3.19.63-2.6-1.16-2.72-2.6-3.07-19.28-4.85-38.68-9.01-58.44-11.41-5.19-.63-10.46-.09-15.53-.95-12.82-2.17-25.74-2.62-38.66-2.9a440 440 0 0 0-82.65 5.82c-31.76 5.35-62.6 13.82-92.17 26.68-26.7 11.6-51.14 26.54-71.57 47.59-13.23 13.63-23.63 29-29.39 47.27-.42 1.34-.56 2.96-2.37 3.37 1.91-13.2 7.63-24.86 14.96-35.76 11.98-17.86 27.65-31.96 45.37-43.93 31.62-21.37 66.6-34.62 103.58-43.12 21.74-5 43.76-8.06 65.99-10.05 21.46-1.92 42.95-2.56 64.4-1.4 51.22 2.78 101.1 11.98 148.39 32.77 20.2 8.87 39.57 19.18 57.12 32.67a152 152 0 0 1 27.74 27.4c1.94 2.5 4.81 3.77 6.7 6.3 1.02 1.35 3.1.37 4.66.08 11.35-2.23 22.8-3.9 34.33-4.47 8.6-.43 17.25-.1 25.89-.08.32 0 .64.08.96.16 4.67 1.27 9.2 11.36 6.58 15.38-2.13 3.27-2.2 6.66-.65 9.66 6.9 13.3 12.36 27.33 20.55 39.97 4.16 6.42 7.86 13.15 11.81 19.72 9.8 16.32 16.61 33.88 21.68 52.17 3.18 11.46 6.6 22.84 9.13 34.47a57 57 0 0 1 1.26 8.2c.57 7.96 1.23 15.93 1.37 23.9.08 4.43 2.44 8.45 1.8 12.93-.15.97.72 1.38 1.53 1.56.95.2 1.93.3 2.9.43 6.05.81 7.4 2.67 7.56 8.55.2 7.46-3.38 12.35-9.62 15.67-4.76 2.53-9.72 4.5-15.15 5.23-4.55.6-6.04 2.53-5.48 7.16a38 38 0 0 0 1.96 7.54 16.4 16.4 0 0 1-.24 11.01c-1.66 4.69-5.53 6.9-10.51 7.14-14.56.7-28.34-2.85-41.98-7.23-.2.27-.47.48-.54.75-.31 1.3 1.14 3.39-.88 3.77-1.7.33-1.99-1.89-2.4-3.13-1.54-4.75-3.33-9.5-2.83-14.64.1-1.06-.35-1.47-1.17-1.75l-4.6-1.64c-13.49-4.9-26.5-10.92-39.6-16.74-.57-.25-1.15-.45-1.65-.64-1.14.85-1.22 2.1-1.84 3.04-2.22 3.41-4.45 4.63-8.12 3.03-1.66-.73-3.38 1.56-4.7-.81-1.09-1.99-3.6-2-5.52-2.77-1.81-.71-3.74-1.13-5.6-1.7a231 231 0 0 1-5.58-1.82c-.9-.3-1.74-.92-3.05-.45 1.05 3.15 3.42 5.32 5.46 7.72.85 1 1.96 1.88 1.5 3.37-2.52 8.36-.05 16.84-.65 25.25-.07 1.04-.12 2.09-.47 3.14-.08-4.37-.88-8.6-1.66-13.79-2.37 4.75-3.1 9.1-4.44 13.2-6.16 18.89-12.15 37.83-18.28 56.72-.6 1.87-.7 3.09.86 4.7 8.24 8.58 15.39 18.12 22.93 27.31.69.84.96 2.12 2.72 2.38 3.88-11.4 2.36-22.94.53-34.72 1.65.5 1.66 1.64 1.94 2.61 3.1 11 2.97 21.87-1.37 32.55-.85 2.1-1.55 4.24-3.94 5.32-.92.42-1.47 1.68-2.12 2.62-9.5 13.68-20.4 26.22-31.78 38.35a9.5 9.5 0 0 0-2.86 6.41c-.34 5.23-2.35 10.14-4.18 15a9 9 0 0 1-4.8 5.3c-1.42.61-1.87 1.37-1.55 3 .57 2.86-1.43 4.5-3.77 4.7-2.74.23-3.91 1.83-5.16 3.75a867 867 0 0 1-26.2 37.72c-4.5 6.2-9.4 12.07-14.81 17.54-2.7 2.73-4.78 6.05-7.22 9.05-.83 1.02-.72 1.85-.37 3.08 1.45 5.05.32 9.48-3 13.68-4.58 5.8-9.5 11.14-15.91 14.95a33 33 0 0 1-10.98 3.93c-7.04 1.35-12.6-1.59-17.59-6.13-4.34-3.96-8.54-8.04-10.7-13.74-.86-2.26-3.22-2.6-5.16-3.3-11.3-4.18-22.63-8.27-33.95-12.4-1.37-.5-2.76-.96-4.14-1.47-4.66-1.75-4.81-1.88-7.98 2.15-4.34 5.52-7.4 11.87-11.09 17.83-4.52 7.33-8.45 15.05-14.9 21.5 2.7 2.07 5.27 3.99 7.78 5.96 1.15.9 2.34 1.8 3.33 2.87 1.9 2.06 1.9 3.65-.53 4.62-2.65 1.06-3.54 3.1-4.64 5.28a866 866 0 0 1-7.89 15.18c-1.24 2.32-1.42 4.16.07 6.73 2.75 4.74 2.7 9.94.28 14.98-1.54 3.21-1.54 3.23 1.31 5.31a855 855 0 0 1 46.93 36.74c8.11 6.83 15.6 14.3 22.35 22.48 1.25 1.51 1.99 7.87 1.03 9.75-2.06 4.05-4.17 8.07-5.15 12.53a190 190 0 0 1 46.2 22.02 37 37 0 0 1 4.97 3.92c1.1 1 2.07 2.56 1.1 3.91-1.28 1.8-.35 2.68.85 3.63 3.26 2.59 4.6 6.12 5.37 10.1.53 2.75.2 5.18-1.2 7.5-3.48 5.74-5.87 9.1-13.73 5.94-.24-.1-.61.1-1.23.22.17 2.99.56 6.03-.14 9.07-.6 2.67-1.42 5.06-4.45 5.8-1.76.43-2.14 1.44-1.96 3.22a7.4 7.4 0 0 1-3.57 7.07c-2.1 1.36-3.32 2.87-3.57 5.35a5 5 0 0 1-1.34 2.57c-2.07 2.22-1.92 4.43-1.7 7.44.35 4.69-1.9 9.16-6.2 11.91-1.22.78-1.98 1.11-1.6 2.88.46 2.2-1.42 3.58-2.96 4.7-2.25 1.62-3.63 3.58-4.01 6.37-.35 2.53-2.26 4.26-3.8 6.28.6.96 1.3 1.84 1.75 2.84 1.36 3.04.86 4.86-1.59 7.39-1.71 1.78-3.76 3.08-3.59 6.4.14 2.52-2.42 4.7-5.1 5.14-2.2.36-3 1.63-3.79 3.25h-4.9c1.4-6.2 3.65-12.13 5.64-18.16.3-.92.87-1.97.69-2.81-.81-3.71 1-6.69 2.55-9.69a62 62 0 0 0 4.82-11.72c1.92-6.73 4-13.43 5.63-20.24A181 181 0 0 1 631 903.6c3.5-6.02 7.56-11.68 11.2-17.29-.4-1.25-1.24-1.47-1.94-1.84-11.9-6.05-23.8-12.14-35.72-18.13-4.4-2.21-6.81-6.58-6.1-11.35.57-3.86.87-7.77 1.65-11.57.5-2.44-.3-4-1.9-5.62a197 197 0 0 0-14.9-13.4c-16.96-13.77-34.44-26.87-51.11-40.99-4.36-3.69-7.9-8.25-12.26-11.75-4.38-3.53-9.62-6.07-14.32-9.31a1454 1454 0 0 1-52.68-38.1c-9.6-7.28-19.59-14.1-27.42-23.48a6.3 6.3 0 0 0-2.73-1.98c-2.5-.89-4.5-2.61-6.56-4.19a776 776 0 0 1-27.03-21.76c-2.58-2.2-4.95-4.69-8.13-6.19-4.73-2.23-5.3-3.54-4.32-8.76-4.45-.53-8.67-1.61-10.65-6.31-.23-.56-.71-.59-1.19-.66-5.76-.9-10.64-3.88-15.61-6.63-.85-.47-1.83-1.3-2.62-1.17-3.15.51-4.82-1.35-6.47-3.46-1.4-1.8-3.06-2.88-5.37-1.5-2.24 1.35-3.54.38-4.69-1.65a87 87 0 0 1-5.69-12.15c-1.7.77-1.52 2.19-2.3 3-.47.49-1.24 1.2-1.55.71-1.38-2.21-3.37-1.11-5.16-1.44-1.34-.25-2.04-.2-2.92.64-.81.78-1.6 2.17-2.68 1.95-3.12-.65-4.06 1.98-5.65 3.52-2.6-1.09-3.74-3.34-5.17-5.27-.92-1.23-1.8-1.81-3.2-.67a59 59 0 0 1-8.45 5.8c-.87.49-1.63 1.17-1.1 2.36 2.22 5.08 2.01 11.03 5.2 15.68 1.93 2.84.97 5.58 1.07 8.4.02.77-.58.86-1.27 1.08-4.92 1.54-7.02 6.16-10.17 9.64-.17.19-.11.64-.06.94.63 3.38.35 6.8.46 10.2.05 1.56.7 2.41 2.38 2.37q4.4-.14 8.8-.11c2.1.02 4.24.02 6.31.36 1.33.21 2.2 1.37 2.45 2.76.22 1.27-.75 1.73-1.7 1.98-2.13.56-2.3 2.14-1.95 3.82a21 21 0 0 1 .47 6.3c-.8 8.25-1.51 16.51-2.8 24.71-1.55 9.97-2.64 20-6.46 29.5-.63 1.57-1.2 3.1-2.51 4.02-5.08 3.62-10.5 6.8-16.78 7.4-2.48.22-3.35 1.03-4.18 3-3.65 8.6-8.6 16.43-14.11 23.95a85 85 0 0 1-10.12 11.25c-2 1.92-4.55 3.6-5.06 6.76 38.8-.92 77.35-1.63 116.38-4.38-5.37-12.95-10.5-25.44-12.7-39.13 1.83.24 1.65 1.27 1.92 1.93 4.32 10.74 8.41 21.55 11.35 32.76.48 1.86.76 3.83 3.11 4.53 4.7 1.4 6.42 5.76 8.47 9.47a9.2 9.2 0 0 0 4.29 4.24q41.95 20.45 83.86 40.96c24.3 11.88 48.3 24.33 72.82 35.74 2.35 1.1 2.87 3.84.7 5.22-1.76 1.13-1.64 2-1.05 3.52 1.47 3.77 3.05 7.62 3.96 11.46a612 612 0 0 0 10.11 37.67c5.2 17.15 10.05 34.4 14.96 51.61.97 3.42 2.44 6.76 2.45 10.41H139c2.17-8.88 5.54-17.38 9.27-25.66 4.2-9.27 6.82-18.92 9.28-28.71a1034 1034 0 0 1 18.71-64.73c5.03-15.66 10.13-31.28 16.64-46.4 7.32-16.97 16.34-32.96 28.1-47.3a45 45 0 0 1 11.28-10c4.78-2.92 8.5-7.07 12.09-11.29a172 172 0 0 0 15.66-21.82c.66-1.07 1.43-1.98 1.18-3.53-.56-3.52-.44-3.58 2.9-4.62 2.3-.72 4.57-1.55 7.23-1.09-.66-19.42 4.37-37.87 6.67-56.9l-2.71-.27c-1.28-.12-2.73.22-3.66-.94-.84-1.05.37-2.1.25-3.21-.67-6.47-1.83-12.9-1.6-19.44.03-.98 0-1.96.04-2.94.06-1.77 1.19-3.6 2.4-3.95 5.25-1.53 7.09-6.92 11.38-9.46 1.42-.84.83-2.22.34-3.5-1.34-3.5-2.54-7.05-3.89-10.54-1.45-3.75-.97-6.7 2.41-9.44a174 174 0 0 1 9.7-7.4c2.25-1.58 2.2-2.84-.42-3.68-1.93-.63-2.9-1.88-2.6-3.5.53-3.07.88-6.29 3.84-8.42 2.16-1.56 4-3.54 5.9-5.24-.56-1.05-1.22-1.18-1.83-.92-4.82 2-9.48 4.36-13.87 7.15-2.22 1.41-3.53 3.8-4.82 6.08-6.31 11.19-7.98 23.87-5.98 35.79-3.5-2.37-3.8-3.73-4.07-19.22l-2.13 5.46c-.82-2.87.17-5.37.84-7.85a54 54 0 0 1 6.26-14.26c3.52-5.67 8.23-9.8 15.11-11.34 2.92-.64 5.39-3.12 8.3-4 3.45-1.05 5.14-3.13 6.58-6.29 4.59-10 10.78-18.95 18.93-26.45 2.21-2.04 4.43-4.12 8.37-5.6-1.75 2-2.65 3.31-3.8 4.32-12.74 11.13-21.2 24.88-25.88 41.13-.8 2.75-2.18 5.4-2.91 8.23-.43 1.63-.66 3.23.27 4.7.6.97.5 2.96 2.33 2.46 1.4-.38 3.9.38 3.66-2.58-.02-.18.76-.4 1.17-.62l-.07-.09c-.69 1.4-.7 2.74.22 4.03 1.42.35 1.59-.9 2.08-1.6 5.08-7.26 11.2-13.66 16.92-20.4.16-.19.58-.17.88-.24l-.07-.07c-.06 2.71-2.67 3.96-3.6 6.43 4.37 1.44 3.27 6.4 6.04 9.58.5-4.73-.9-9.47 2.14-13.4-1 4.88-.55 9.68.42 14.47.37 1.8 1.61 3.67-1.22 4.92-.86.38.03 1.97.8 3 .68-1.96 1.8-3.97 3.77-3.94 2.5.03 2.59 2.98 4.02 4.77 1.82-.67 3.19-1.42 3.1-3.96-.52-14.64 4.43-27.8 11.3-40.38a89 89 0 0 1 5.88-9c.87-1.22 1.6-2.95 3.65-2.75l-.07-.06c.15 1.84-1.28 2.94-2.11 4.26a114 114 0 0 0-16.17 41.08c-1.08 6.01.6 11.55 1.65 17.25.15.84.54 1.63 1.41 1.81 1.85.38 2.75 2.2 4.5 2.9-1.56-22.15 8.17-39.91 21.3-56.36 1-1.26 2.38-2.23 3.67-3.22.76-.6 1.7-1.09 2.58-.07.77.87.64 1.78 0 2.66q-1.02 1.36-2.08 2.71c-7.08 9.38-13.3 19.27-18.03 30.42 1.43.95 3.43-.05 4.46 1.38 1.02 1.42.76 3.13.9 4.71.16 1.88.38 3.27 2.82 2.46 1.48-.5 2.83-.08 4.15.77 4.44 2.88 8.91 2.4 13.36-.06.42-.24.83-.51 1.29-.68.82-.3 1.74-.3 2.16.47.23.42-.09 1.24-.33 1.81-.55 1.27-1.84 1.79-2.8 2.65-1.2 1.06-2.6 2.06-1.98 4.68 1.93-1.4 3.62-2.68 5.37-3.86 1.57-1.06 2.96-2.56 5.27-1.75 1.87.65 2.52-1.15 3.34-2.23 4.53-5.96 9.28-11.75 13.42-18 5.77-8.68 11.62-17.31 16.97-26.64-3.45-1.54-6.89-2.85-10.1-4.57a98 98 0 0 1-13.93-9.02c-1.58-1.23-3.14-2.09-5.18-1.76l.11.11c.46-1.32-.25-2.14-1.22-2.89-9.46-7.3-17.14-16.43-25.24-25.12a32 32 0 0 0-5.44-4.87zm174.5 31.64c1.33-.43 2.37-1.16 3.13-3.23-1.74.97-2.97 1.43-3.5 2.84-1.25.57-2.4 1.24-2.68 3.4 1.47-1.14 2.51-1.8 3.06-3.01zm226.24-343.82c.95-2.36 4.65-3 3.98-6.39-1.1 2.28-4.32 3.24-4 6.41-1.95-1.84-.25-3.66.64-5.67-1.85.5-2.35 1.57-2.78 2.55-.92 2.1.16 2.95 2.16 3.1m-62.2 6.3a57 57 0 0 0-11.93.1c3.99.43 7.97.75 11.94-.1.08.3.09.8.26.87q5.83 2.28 11.68 4.52l3.6 6.27q-.41-4.3-3.7-6.17c-.07-1.2-1.1-1.45-1.9-1.92-3.1-1.83-6.6-2.5-9.96-3.56zm27.85 68.66 5.77.3a14.6 14.6 0 0 1 3.7 5.5c1.36 3.45 3.57 6.32 6.99 8.1a51 51 0 0 1-6.46-11.18c-.72-1.83-2.28-2.67-4.34-2.3-1.8-1.46-3.74-.87-5.67-.41-2.7-3.74-2.65-8.55-4.62-12.57.2 4.7.14 9.52 4.63 12.57zM597.9 402.02c-5.95 3.38-11.09 7.79-16.06 12.43 5.71-3.53 11.3-7.2 16.01-12.06.07-.07-.04-.32-.05-.47 1.94.42 2.38-1.17 3.24-2.2a5 5 0 0 0-3.15 2.3zm-351.07 32.69c.36 2.58 2.36 3.03 4.42 3.48 10.78 2.33 21.6 4.45 32.57 5.73 6.96.82 8.1-.07 8.72-6.92.17-1.72-.23-2.79-2.14-3.03-3.5-.44-6.98-.97-11.35-1.58 2.63 1.65 4.76 1.7 6.74 2.28 2.4.7 1.95 2.7 1.62 4.44s-1.45 2.36-3.25 1.86c-1.74-.49-3.53-.8-5.48-1.25 2.09-1.2 4.75.5 6.8-2.26-12.46-3.44-25.32-2.62-37.32-6.7.8-1.65 2.17-.8 2.76-1.69-3.9-.66-3.92-.66-4.1 2.89-.05.97.08 1.94.1 2.89-1.76-1.54-1.23-3.89-2.04-5.77-.35-.83-.76-1.44-1.67-1.4-1.37.05-1.38 1.2-1.3 2.1q.21 2.86.76 5.68c.25 1.33 1.35 1.63 2.57 1.65 1.8.03 1.3-1.44 1.58-2.4zm171.26-41.66c-.6-2 1.9-3.66.7-6.05-3.44 1.67-6.69 3.27-9.6 6 3.29 1.4 6.19 1.89 9.06-.1-.02.92.42 1.8 1.23 1.87 3.2.28 6.31 1.47 9.61 1.13.9-2.3.33-4.6.46-6.85.13-2.27.05-4.57.36-6.82q.69-5.33.7-10.7a11 11 0 0 0-3.4-8.34c-1.83-1.8-2.42-1.62-3.5.95q-2.97 6.95-9.75 6.42c-2.98-.25-4.44-1.48-4.87-4.46-.25-1.7-.2-3.44-.33-6.04-4.99 3.8-7.81 7.82-7.53 13.62-.62.64-1.37 1.22-1.84 1.96-.65 1.03-.17 1.7.98 1.9-3.75 2.32-4.64 6.2-6.14 10.9 5.69-4.92 10.98-8.64 16.93-11.3 2.67-1.18 5.47-2.07 8.21-3.06.83-.3 1.64-.12 2.17.63.54.8.24 1.55-.32 2.2-.74.88-1.43 1.8-2.25 2.57a106 106 0 0 1-11.02 8.88c-1.78 1.28-4 2.15-5.07 4.54 1.77.35 2.77.88 4.2-1.07 3.37-4.56 8.5-6.93 13.8-8.6 2.51-.8 3.88.9 2.78 3.26a16 16 0 0 1-5.57 6.55zm4.84 102.29-.16-.16c.7 1.34 1.94 2.17 3.06 3.08 4.72 3.87 7.26 3.72 11.75-.62a38 38 0 0 0 1.69-1.75c1.35-1.48 1.71-2.95.55-4.82-1.66-2.69-2.01-5.77-2.32-8.87-.58-5.93.38-11.62 2.67-17.4-6.8-.27-13.23-.88-19.63-1.76-1.25-.17-1.83.4-2.05 1.48a26 26 0 0 0-.4 2.88c-.51 5.81-.1 11.61.03 17.42.1 4.45 1.39 7.83 4.8 10.5zM776.7 295.8c1.99 1.3 1.88 3.6 2.67 5.49.7 1.68.85 3.85 3.41 4.35.57-3.2-.61-5.95-1.37-8.73-4.05-14.7-10.7-28.3-17.51-41.84-7.4-14.7-14.78-29.4-18.98-45.44-.34-1.24-.78-2.17-2.16-2.16-1.1 0-1.74.83-2.04 1.8-.39 1.24-.83 2.5-.94 3.77-.37 4.59-.06 9.07 1.81 13.41 2.86 6.57 6.16 12.94 8.53 19.72a76 76 0 0 0 6.53 13.63 28 28 0 0 1 2.7 5.72c.87 2.8.21 3.53-2.69 3.5-1.46-.02-2.91-.2-4.38-.23-2.05-.02-2.7.98-2.7 3.07-.02 3.33 1.84 5.49 4 7.49 2.53 2.35 5.64 3.86 8.76 5.25a26.7 26.7 0 0 1 11.83 9.88c.6.9 1 2.19 2.31 2.29.6.04.43-.66.33-1.1zM489.73 485.77l-.07-.04c.38.62.17 1.15-.1 1.8-1.1 2.49-1.78 4.56 1.53 6.45 2.05 1.18 2.26 4.17 1.82 6.68-.31 1.76-.78 3.5-1.17 5.23-1.95 8.62-3.28 17.3-2.26 26.15 1.03 8.87 1.92 17.77 4.08 26.46.71 2.9 2.1 6-2.32 7.25-2.87 5.04-7.07 9.1-11.27 14.42 12.63-7.52 17.03-9.02 22.32-7.8-.7 1.45-2.27 1.38-3.4 1.54-7.85 1.17-14.34 4.93-20.37 9.9a30 30 0 0 1-6.56 3.9c-3.51 1.65-6.31 4.67-9.13 7.74 2.5 1 4.6.65 6.68.31 16.1-2.54 29.35-11.12 42.47-19.98 1.8-1.21 2.05-2.62.73-4.5-3.29-4.71-5.47-9.99-7.37-15.37-5.31-15.04-8.09-30.5-6.96-46.5.44-6.28 1.64-12.44 1.06-18.86-.82-9.24-.25-18.53 1.4-27.7.2-1.04.59-2.26-.93-2.9-2.14-.92-4.24-1.96-6.5-3.02-1.24 6.32-1.01 12.39-2.16 18.3-.67 3.48-1.86 6.91-1.53 10.54zm68.49-19.16c.17-1.59 1.3-2.6 2.3-3.64 14.97-15.74 28.79-32.41 40.86-50.48.54-.8 1.68-1.5 1-3.3-12.07 12.17-27.29 19.36-40.58 29.29-.66.48-1.33.97-2.06 1.3-10.08 4.58-20.27 8.75-31.45 10-8.5.95-16.85 1.74-24.5-3.27-.51-.33-1.19-.6-1.77.02 4.94 3.99 11.7 5.97 19.03 5.58a98 98 0 0 0 31.33-7.01c2.72-1.1 5.03.18 5.6 3.04.31 1.57.17 3.24.19 4.86.02 4.54-.83 9.08.07 13.61-1.15 1.34-1.1 2.95-1.22 4.6-.5 6.65-.3 13.5-2.01 19.85-1.22 4.53-.3 8.06 1.04 11.95q.95 2.77 1.97 5.52a420 420 0 0 0 11.83 28.94c.86 1.94 1.55 3.82 4.6 2.69 2.3-.86 4.3.93 6.1 2.37 9.6 7.66 16 17.93 22.62 27.99a13 13 0 0 1 1.63 4.57c.42 2.27.5 4.66-1.47 6.35-1.75 1.5-.92 2.8-.08 4.25a182 182 0 0 1 13.44 29.28c3.01 8.32 7.08 16 11.7 23.5 11.48 18.64 11.36 18.7 28.73 31.95 1.68 1.29 3.27 2.7 5.02 3.9 1 .68 1.66 2.03 3.4 1.9 1.67-2.52 4.17-4.45 6.12-6.8 2.58-3.12 6.42-4.9 8.34-8.72 6.1-12.1 13.45-23.47 21.52-34.32 4.93-6.63 9.67-13.5 16.6-18.43 1.58-1.12 3.08-2.75 3.36-5.33-1.57 0-2.87.1-4.15-.02-3.22-.31-6.48-.43-9.59-1.54-1.56-.56-2.6-1.75-2.48-3.23.16-1.98 2.02-1.78 3.44-1.74q1.96.1 3.85.5a349 349 0 0 1 9.04 2.09c1.75.42 2.93.14 4.07-1.59a25 25 0 0 0 2.9-5.55c2.57-7.35 4.82-14.9 8.8-21.63 5.5-9.32 12.94-17.14 20.13-25.12a305 305 0 0 1 16.34-16.83c-.96-1.83-2.4-2.94-3.62-4.22-6.65-6.94-13.78-13.42-20.16-20.64-2.99-3.38-3.62-6.8-2.86-11.17a421 421 0 0 1 16.78-65.68c1.08-3.12 2.01-6.3 3.16-9.9-2.29.98-3.94.98-5.8.84-6.51-.5-12.75-2.44-19.14-3.4-8.99-1.33-18.08-1.98-27.1-3.08-1.7-.2-2.75.5-3.99 1.29a48 48 0 0 1-12.77 5.98 16.6 16.6 0 0 1-8.5.37c2.55-3.93 6.62-4.94 10.07-6.97 10.97-6.45 21.6-13.4 31-22.07.65-.6 1.25-1.75 2.38-.87 1.15.9.74 1.98.12 3.05a31 31 0 0 1-5.26 6.41c-2.97 2.9-6.02 5.73-9.27 8.8 1.82.58 2.4-.6 3.2-1.3 1.74-1.49 3.52-2.84 5.94-3.14 2.74-.34 5.46-.82 8.18-1.3 5.83-1.04 11.57-1.24 17.22 1.07 2.1.86 4.3 1.42 6.3 2.6 1.71 1.02 3.5 1.46 5.52.5 2.14-1.04 4.41-.8 6.6.08.6.25 1.2.6 1.81.62.97.04 1.78-.74 1.07-1.5-3.17-3.32-4.71-7.86-9.56-10.04-12.08-5.43-24.68-9.19-37.31-12.93-11.4-3.37-22.75-6.77-34.62-8.15-6.5-.75-13-.85-19.49-.2-2.8.27-5.17 1.26-6.39 4.35a23 23 0 0 1-4.6 7.23c.83-3.91 3.24-6.34 3.66-9.53-.47-.07-.64-.15-.78-.12-7.88 1.65-15.12 5.05-22.32 8.45-11.06 5.22-21.9 10.85-31.65 18.34-1.22.95-3 1.6-3.12 3.42-.18 2.6-1.75 4.53-2.94 6.6-12.26 21.34-29.12 38.71-47.36 54.89zm137.9-139.12c-.82-1-1.07-1.46-1.43-1.72-6.4-4.48-12.42-9.54-19.4-13.14a19 19 0 0 1-5.77-4.45c-4.92-5.72-9.27-11.8-11.68-19.03-.56-1.67-1.65-2.78-2.8-3.9-5.38-5.27-10.38-10.85-14.43-17.18-1.55-2.42-3.52-3.5-6.19-4.17-8.23-2.06-16.7-2.63-25-4.31-20.3-4.14-40.93-5.15-61.48-7-.93-.09-2.1.01-2.82.52-2.7 1.92-6.24 1.87-8.83 4.04-1.33 1.13-3.2 1.32-4.58.26-3.91-2.98-7.02-.91-10.05 1.4-2.2 1.68-4.25 3.56-6.32 5.4-2 1.76-4.35 2.48-6.81 1.7-4.58-1.49-8.3-.35-11.58 2.95-1.02 1.02-2.24 1.34-3.56.61-3.52-1.93-6 0-8.1 2.4-1.81 2.07-3.18 4.52-4.8 6.76-3.2 4.44-5.03 4.44-8.03.06-.37-.54-.68-1.11-1.04-1.66-4.38-6.86-8.4-8.01-15.58-4.29-24.75 12.85-43.19 32.21-57.17 56.04-5.04 8.6-8.41 18-11.83 27.33-1.16 3.15-2.9 4.83-6.34 4.98-4.55.19-9.1.6-13.65 1.06a101 101 0 0 0-18.19 3.5c-6.29 1.82-9.4 5.6-10.39 11.98-1 6.4-1.3 6.33 5.1 8 13.76 3.6 27.95 4.27 41.94 6.37 2.05.3 2.88-.86 3.54-2.55 2.44-6.22 5.17-12.33 7.39-18.63 1.5-4.25 4.33-7.62 6.51-11.41a4.2 4.2 0 0 1 3.62-2.23c2.15.02 3.6-1.13 5.2-2.31 4.21-3.12 9.14-2.38 11.75 2.03a6.2 6.2 0 0 0 3.6 2.85c5.91 2.19 8.52 5.92 8.46 12.2a67 67 0 0 1-.36 6.82 253 253 0 0 1-2.98 20.1c1.06.37 1.8.76 2.59.86 9.05 1.16 18.08 2.37 27.14 3.36a493 493 0 0 0 30.68 2.45c4.99.22 9.63.1 14.63-1.5 15.03-4.75 28.8-12.13 42.68-19.27 1.52-.78 3.3-1.37 3.33-3.74 0-1.19 1.32-2.17 2.4-2.08 3.53.28 4.43-2.27 5.24-4.7.6-1.83 1.76-3.07 3.03-4.33 6.76-6.68 14.6-11.97 22.19-17.6 4.07-3.03 7.97-6.26 9.99-11.11.64-1.54 1.86-2.13 3.18-2.81 3.64-1.9 5.32-4.7 5.08-9.04-.4-7.19 1.22-14.2 2.76-21.19a3.6 3.6 0 0 1 2.5-2.73 5.7 5.7 0 0 1 5.93 1.01 44 44 0 0 1 10.38 12.08c1.37-.38 1.98-1.4 2.7-2.26 2.22-2.7 4.84-3.15 8.26-2.28a19.3 19.3 0 0 1 10.7 7.06c1.56 2 3.27 2.34 5.4 2.3 9.13-.13 18.17 1.17 27.24 2.01 5.17.48 10.17 2.18 16.04 2.1zm-401.91 68.9c2.85-.46 4.99-.1 5.73 2.34.7 2.3 2.38 2.82 4.29 3.39 9.51 2.84 19 5.78 28.5 8.63 19.37 5.8 38.99 10.48 59.07 13a473 473 0 0 1 32.3 5.23c.9.18 2.43-.32 2.31 1.56-.04.6.57.78.94.46 2.3-1.98 6.15-2.26 6.47-6.44a5.6 5.6 0 0 1 4.3-4.9c4.26-1.01 7.53-3.23 10.45-6.32.73-.78 1.95-1.12 3-1.58 4.63-2.07 9.52-2.35 14.37-1.42 5.48 1.05 10.99 1.33 16.5 1.69 7.99.52 15.85 1.73 23.6 3.78 3.6.95 5.98 2.78 6.88 6.63.75 3.17 1.74 6.25 1.8 9.56.09 3.41.15 3.33 3.7 2.69 4.9-.9 9.35-2.97 13.42-5.67 15.21-10.12 30.01-20.78 43.7-32.93 12.68-11.26 25.52-22.31 38.21-33.55 11.31-10.01 24.7-14.92 39.5-16.14 14.43-1.19 28.58 1.07 42.55 4.4 20.03 4.75 38.96 12.77 58.05 20.23 13.36 5.22 26.05 11.95 39.2 17.63 20.33 8.78 40.34 18.31 61.1 26.07 13.1 4.89 26.26 9.66 39.42 14.44 1.22.44 2.12.95 1.91 2.32-.16 1.12-1.04 1.48-2.12 1.63-2.02.27-3.84-.33-5.66-1.12-8.36-3.65-17-6.61-25.56-9.74-1.18-.43-2.34-1.09-3.74-.7-.65 1.78-.18 3.54 0 5.31.1 1.14.66 1.57 1.79 1.88 8.63 2.34 17.01 5.58 25.83 7.23 4 .75 7.97 1.69 12.08 1.52 5.67-.25 8.61-2.76 10.17-8.1 1.1-3.79-.13-7.05-1.5-10.36-2.18-5.18-1.95-10.15 1.12-14.92.33-.51.95-.95.42-2.19h-6.46a86 86 0 0 1-15.02-1.42c-14.94-2.53-29.55-6.53-44.2-10.35-19.2-5-38.5-9.79-56.9-17.47-14.12-5.9-28.26-11.77-42.31-17.82-6.3-2.71-12.34-6.04-17.64-10.4-4.7-3.88-9.53-7.22-15.7-8.26-1.55-.26-3.07-1.15-4.4-2.05-1.72-1.15-3.48-1.8-5.5-1.29a5.6 5.6 0 0 1-2.86-.19c-3.63-.88-7.26-1.83-10.92-2.58-11.3-2.34-22.58-4.94-34.27-4.57-9.56.3-18.47 2.13-27.1 6.85a339 339 0 0 0-57 39.39c-2.91 2.47-5.73 4.72-6.03 8.85-.16 2.2-1.42 3.27-3.6 3-2.67-.36-4.72.82-6.67 2.4q-.59.43-1.2.84c-12.9 9.28-26.23 17.7-42.44 19.95-.48.07-1.22.07-1.38.35-2.03 3.85-5.39 2.46-8.46 2.22-1.13-.09-2.26-.23-3.4-.3-18.66-1.13-37.25-2.94-55.7-6.14-3.95-.68-7.84-2.36-11.99-1.14-3.03-2.4-6.02-1.16-9.05.02-.56.22-1.3.03-1.93-.03-15.68-1.57-31.39-2.98-46.95-5.56-12.18-2.02-24.45-3.44-36.49-6.42a611 611 0 0 0-40.6-8.44c-.91-.16-2.06-1.1-2.74-.22-1.8 2.36-3.24.71-4.42-.37-5.94-5.47-11.05-11.44-12.97-19.67-1.59-6.8-2.98-13.7-5.64-20.22-3.1-7.58-8.29-12.59-16.43-14.67a41.5 41.5 0 0 0-18.36-.38c-2.07.39-2.75 1.2-2.29 3.25a516 516 0 0 1 2.85 13.37c.8 3.97.73 4.1 4.75 4.57 4.88.57 9.63 1.55 14.23 3.31 4.14 1.6 7.21 4.24 9.05 8.39 2.44 5.5 5.07 10.93 7.6 16.4.35.74 1.02 1.77.77 2.25-1.23 2.26.44 3.16 1.7 4.32l6.5 5.93a58 58 0 0 0 18.62 11.47c.9.34 1.9 1.3 3.04.28-.44-2.1-2.66-1.58-4.2-2.99zM515.94 582.4c-.97.26-1.32.26-1.56.43a200 200 0 0 0-5.52 4c-9.72 7.35-19.98 13.44-32.52 14.6-8.18.77-16.33 1.6-23.56-3.52-2.23-1.6-3.1-.24-4.28 1.23-5.87 7.4-11.7 14.83-17.7 22.14-4.31 5.24-8.85 10.3-13.24 15.38.62 1.3 1.78 1.63 2.73 2.23 13.81 8.62 27.83 16.93 41.43 25.88 21.1 13.87 41.25 29.11 62.03 43.43 2.83 1.95 5.43 4.55 9.13 5.3a379 379 0 0 1 17.04-38.12c.5-1 1.35-2 .85-3.2-1.93-4.61-3.26-9.66-7.98-12.45-5.51-3.25-9.85-8-15.05-11.66a6 6 0 0 1-1.7-1.73c-1.22-1.87-.22-3.83 1.98-3.63a14 14 0 0 1 5.97 1.93 894 894 0 0 0 18.67 10.63c13.27 7.38 26.99 13.72 41.56 18.09 4.37 1.3 8.8 2.5 13.45 1.84 2.21-.32 2.66-1.16 1.29-2.84a219 219 0 0 0-8.08-9.16c-2.85-3.13-5.36-6.77-8.77-9.1a55 55 0 0 1-10.23-8.93c-5.52-6.27-9.62-13.54-14.23-20.44-.96-1.43-1.5-3.25-3.42-4.06-3.47 4.5-7.73 4.23-12.27 2.08-.88-.42-1.77-.84-2.56-1.4-11.36-8.1-20.41-18.15-26.24-30.94-.94-2.07-1.92-4.15-1.56-6.56.36-2.37-1.32-2.93-2.8-3.62-1.16.9-1.05 1.94-1.21 2.87-.96 5.6-1.8 11.24-2.89 16.83-3.15 16.04-9.66 30.35-21.83 41.7-3.36 3.13-6.97 5.87-11.36 7.42-2.26.8-4.49 1.09-6.96-1.53 3.8.5 6.06-1.25 8.3-2.8a67 67 0 0 0 11.36-9.95c13.46-14.73 18.23-33.03 21.73-52.37M857.8 174.52c.18-.75-.44-1.13-.83-1.58-2.17-2.57-5.57-4.07-6.56-7.7-.33-1.2-1.6-.88-2.51-.9-4.4-.02-8.82-.24-13.2.05a414 414 0 0 0-45.93 5.66c-29.03 5.3-57.63 12.3-85.25 22.73-20.4 7.7-40.5 16.14-59.07 27.91-4.89 3.1-4.43 7.42-5.23 11.71-.26 1.4 1.07 1.4 1.9 1.72 2.5.93 4.64 2.27 6.2 4.54a21 21 0 0 1 3.22 8.63 30 30 0 0 0 4.49 11.26c5.6 8.99 11.1 18.04 16.91 26.9a89 89 0 0 0 27.66 27.17c3.05 1.89 6.28 2.93 9.76 1.93 3.37-.98 6.18.18 8.7 1.99 4.9 3.5 10 6.76 14.44 10.87.84.77 1.57 1.61 2.7 2.05 14.54 5.73 28.65 12.47 42.9 18.88 2.18.98 4.1 1.75 4.4 4.54.15 1.48 1.24 2.56 2.71 3.2 4.33 1.9 8.54 4.05 13.12 5.3 2.4.66 4.76.97 7.17 0 2.2-.88 4.28-.59 6.6.23 7.04 2.48 14.2 4.73 21.39 6.81 23.44 6.78 46.98 13.21 71.1 17.21.94.16 2.25.32 2.7.95 1.97 2.86 4.93 2.56 7.77 2.93 2.08.27 4.18.7 6.16 1.38 2.01.7 5.45.36 5.35 3.16-.1 2.65-3.19 3.77-5.51 4.93-.28.14-.66.08-.95.2-2.94 1.14-5.86 2.28-9.2 2.7 1 1.97 1.64 3.95 4.01 2.9 6.7-2.98 13.77-5.08 20.2-8.65 4.42-2.46 5.04-4.15 4-9.23-.4-1.92-1.14-3.25-3.32-3.6-5.3-.85-10.54-2.07-15.84-2.8-11.44-1.56-22.99-2.13-34.4-3.94-19.78-3.14-39.34-7.3-58.41-13.56-13.3-4.37-26.2-9.88-39.43-14.46-25.92-9-48.7-23.2-69.84-40.33a14 14 0 0 1-3.1-3.1c-1.76-2.8-4.37-4.39-7.31-5.44-7.24-2.56-12.37-7.59-16.55-13.79q-2.61-3.84-5.25-7.66c-1.03-1.51-2.07-2.63-4.24-2.69-4.9-.13-8.24-2.9-9.98-7.35a37 37 0 0 0-4.06-7.75c-1.67-2.4-1.89-4.92-1.15-7.87 1.19-4.71 4.22-8.09 7.47-11.21 2.22-2.13 1.98-3.45.3-5.66-3.5-4.66-4.24-10.16-3.69-15.82.37-3.74 2.44-6.49 6.17-7.34 4.19-.95 7.91-2.99 11.9-4.36a585 585 0 0 1 91.62-23.5c6.47-1.1 13.31-.8 19.24-4.44.64-.4 1.58-.34 2.39-.45 17.73-2.31 35.47-4.48 53.38-4.7.91-.02 1.94.36 2.75-.56zm-99.4 155.23c2.08 2.1 4.12 2.79 6 3.7 15.38 7.52 31.53 13.19 47.47 19.33 24.68 9.5 50.2 16.02 76.33 20.05 1.45.23 2.88.56 4.31.78 1.86.27 2.03-1.25 2.43-2.44.55-1.63-.75-2.1-1.8-2.27-1.77-.27-3.57-.23-5.37-.27-4.85-.14-7.22-3.15-4.99-7.26 1.55-2.83.69-3.94-1.36-5.52-2.3-1.8-4.63-3.85-4.65-7.13-.03-3.63-2.24-5.18-5.25-6.12-1.87-.58-3.78-1-5.62-1.65-2.45-.85-4.99-1.57-7.06-3.25-2.56-2.07-3.09-3.85-1.77-6.87.65-1.48 1.59-2.83 2.49-4.18 1.53-2.31 3-4.67 3.92-7.3.98-2.79.27-4.23-2.38-5.5a8 8 0 0 0-5.24-.49 58 58 0 0 0-10.26 3.09c-7.4 2.99-14.55 6.54-21.74 9.99-16.06 7.7-32.86 10-50.41 7.27-4.93-.77-9.63-2.38-15.06-3.95zM474.08 548.27c-.82-.33-1.54-.82-2.3-.89-8.9-.78-17.8-1.86-26.77-1.47a8 8 0 0 0-2.78.74c-.64.28-.9 1.43-.44 1.58 3.08 1.02 1.65 3.27 1.18 4.82-2.72 8.88-5.8 17.62-10.38 25.75-9.87 17.51-21.3 33.88-35.23 48.44-3.87 4.04-3.72 4.18-.41 8.43l2.07 2.72c2.5 3.18 3.48 3.45 6.83 1.1a63 63 0 0 0 9.68-8.18c16.45-17.23 30.78-36.17 44.3-55.72 5.82-8.44 10.97-17.31 14.25-27.33zm37.39-108.25c.1-6.1-1.33-11.14-2.46-16.25-.95-4.32-.82-4.28-4.92-5-13.44-2.34-27.16-2.13-40.64-4.4-4.6-.78-9.39.83-13 4.39-1.2 1.2-3.49 2.27-2.65 4.18.75 1.72 2.92.48 4.42.42 8.81-.33 14.18 3.86 15.78 12.51.83 4.52.82 4.6 5.5 5.19 6.29.78 12.54 1.24 18.94.5 6.42-.72 12.82-1.82 19.01-1.54zm43.6 164.97c-2.08-.2-4.45.22-5.77-1.83-3.08-4.82-7.03-8.98-10.25-13.67-2.71-3.94-2.43-6 1.08-9.34a879 879 0 0 1 16.46-15.29 120 120 0 0 1 9.36-7.8c3.75-2.74 4.5-2.77 7.74.71 3.88 4.16 7.44 8.62 10.91 13.12 1.93 2.5 1.49 4-1.23 6.68a569 569 0 0 0-16.8 17.07c-2.19 2.35-4.64 4.26-1.76 7.67.35.43.28 1.2.4 1.76 2.47.3 3.76-1.29 5.14-2.64a5981 5981 0 0 0 22.97-22.66c2.84-2.81 2.82-2.88.55-6.5-4.94-7.9-11.23-14.76-17.22-21.85-2.27-2.68-3.18-2.68-6.32-.94-.85.48-1.7.99-2.46 1.58-13.96 10.93-27.9 21.88-41.74 32.73-.32 1.23.89 1.35 1.17 2.06 3.77 9.18 9.86 16.7 16.9 23.54 3.05 2.97 5.25 2.9 8.33-.11 1.15-1.13 2.18-2.4 2.53-4.3zM237.82 443.42c6.2 7.53 12.5 14.8 18.38 22.38 5.02 6.48 11.49 10.42 19.25 12.54.79.22 1.55.5 2.33.72 20.2 5.7 40.37 11.55 60.63 17.07 21.92 5.97 41.47 16.04 58.02 31.86a341 341 0 0 1 31.15 33.74c1.1 1.38 1.97 2.95 3.85 3.6 1.89.67 2.28-.66 2.79-1.8.41-.96 1.2-2.02-.6-2.72-4.59-1.8-7.48-5.61-10.42-9.3-5.2-6.47-9.78-13.4-15.52-19.48-15.8-16.66-35.7-27.05-55.94-36.95-1.16-.57-2.47-.82-3.7-1.25-23.25-8.09-47.67-11.83-71.13-19.16a4 4 0 0 0-.96-.18c-5.79-.31-10.21-3.5-13.84-7.47-5.47-6-11.34-11.77-14.98-19.2-1.38-2.82-4.76-3.06-6.41-5.51-.29-.43-1.86-.08-2.9 1.12zm663.37-151.3c1.21-1.68 1.95-3.46 3.28-4.36 2.3-1.57 2.02-3.18 1.22-5.37-4.13-11.37-9.59-22.1-15.39-32.69-8.84-16.14-17.73-32.27-24.01-49.65-1.57-4.35-4.54-7.9-6.74-11.88-.32-.6-.73-1.14-1.44-1.18-2.36-.13-3.13-1.93-4.14-3.64-1.86-3.14-3.22-3.01-5 .2a6 6 0 0 0-.07 6.07 28 28 0 0 0 2.73 4.02c4.97 6.45 10.18 12.73 14.93 19.35 7.18 10.02 11.3 21.61 16.14 32.82 3.1 7.17 5.75 14.54 8.99 21.65 2.14 4.72 1.6 7.87-2.75 10.68-1.07.69-2.5.84-3.2 2.1 3.06 3.05 3.7 3.06 8.06-.12 1.35-.98 2.7-2.11 4.41-1.18 1.52.83 1.27 2.53 1.3 3.96.02 3.03-.03 6.07 1.68 9.23M419.83 458.69l15.72 1.67c4.26.44 4.79.3 5.59-4.02.71-3.9 2.63-6.18 6.52-6.82.32-.05.61-.24.93-.31q2.15-.5 1.27-2.5c-.6-1.33-1.5-1.46-2.76-.8-1.08.55-2.08 1.67-3.77.81.06-1.7-.44-3.42-.6-5.34 1.98 4.43 8.25 1.56 10 6.18.06.15 1.48-.27 2.28-.34 2.53-.23 4.67-2.23 7.47-1.48.74.2 1.98-.6 2.08-1.71.1-1.2-.66-2.57-1.7-2.62-2.85-.13-3.58-3.3-6.78-3.5 1.77-1.1 2.85-1.81 3.97-2.47.82-.48 1-1.14.8-2.04-.78-3.39-4.55-6.28-8.53-6.48 1.32 3.67 1.34 3.72-2.15 5.08-2.88 1.14-5.84 2.03-8.7 3.19-10.6 4.3-18.9 10.81-21.63 23.49zm268.53-218.21c-2.44.44-5.37.02-8.28.72-7.27 1.77-11.57 9.92-8.49 16.7 1.48 3.25 3.3 6.34 5.04 9.47.97 1.76 2.48 3 4.26 3.9 3.16 1.57 6.46.68 8.53-2.19 1.61-2.24 3.59-4.27 4.9-6.68 1.72-3.16 4.39-4.2 7.62-4.32 2.6-.1 5.2.14 7.8.14s4.8-.79 5.93-3.4c1.05-2.43.53-4.99-1.68-7.09a15 15 0 0 0-3.18-2.23 39.5 39.5 0 0 0-22.45-5.03zm-107.1 333.89c-.4-.66-.69-1.25-1.1-1.72a1317 1317 0 0 0-9.48-10.53c-1.08-1.2-2.1-1.03-3.32.04-7.82 6.9-15.66 13.78-23.6 20.53-1.71 1.45-1.88 2.66-.96 4.6 1.63 3.46 4.28 6.14 6.49 9.15 3.02 4.11 4.23 4.28 8.27 1.2a28 28 0 0 0 2.2-1.94c6.8-6.54 12.66-14.05 20.25-19.8.48-.38.8-.97 1.26-1.54zm329.6-239.38c.47-6.22-.2-12.5-1.96-18.66-.31-1.1-.61-2.22-1.16-3.2-.8-1.44-2.23-1.38-2.99.1-.5 1-.8 2.11-1.17 3.2-3.55 10.07-3.85 20.34-1.83 30.76.74 3.82.95 7.74 2.3 11.44.47 1.28 1.12 2.42 2.7 2.4 1.62-.03 2.18-1.22 2.44-2.57.31-1.6.69-3.19.79-4.8.37-6.16 1.25-12.3.88-18.67m-646.02-83.25c-2.73.7-4.75.13-6.81-.2-4.81-.79-6.25.53-6.27 5.53 0 .87.15 1.55 1.13 1.87 3.24 1.07 6.43 2.28 9.7 3.24 1.25.37 2.58.17 2.99-1.59 1.1-4.75 2.33-9.46 3.35-14.22.28-1.28.12-2.34-2.03-2.24-3.24.14-3.56-.56-3.51-3.63.01-1.22.58-2.14.93-3.2 2.23-6.82 3.3-13.53-2.68-19.47-.37.97-.77 1.83-1.04 2.73q-1.74 5.64 3.04 8.84c-.84.07-1.56.35-2.08.14-2.91-1.2-3.68.51-4.2 2.84a660 660 0 0 1-2.9 12.34c-.4 1.65-.2 2.66 1.77 3.15 2.81.71 5.58 1.7 8.62 3.88zM444.4 506.52c3.46 2.03 4.26 2.29 6.13 2.03 8.05-1.1 15.22-12.13 12.98-19.98-.57-2.03-1.61-3.4-4.04-3.5-4.66-.21-8.91.67-12.55 3.74 4.32 6.91 3.88 9.98-2.5 17.7zm-181.05-231.5c-4.34-.77-8.3-1.37-12.23-2.2-1.84-.4-2.76.16-3.16 1.9q-1.47 6.41-2.99 12.81c-.43 1.78.06 2.73 2.01 2.98 4.02.51 8.03 1.13 12.04 1.78 1.99.32 3.03-.16 3.16-2.4.28-4.85.75-9.7 1.17-14.88m330.08 369.92c2.76 2.62 4.18 5.68 6.78 7.72 1.47 1.15 2.51 1.42 4.02-.37 5.04-5.97 11.28-10.5 18.3-14.43l-3.76-6.9c-3.88 3.23-8.13 4.8-12.4 6.41-4.56 1.73-8.67 4.33-12.95 7.57zm202.45-452.02c-1.61-.98-3.08-.53-4.5-.45-5.01.27-10.1 1.36-15 .8-6.48-.75-11.25 2.64-16.67 4.68 3.11.7 6.15 1.03 9.17 1.46 1.95.29 3.7.94 4.97 2.68 2.08 2.89 2.2 2.92 5.12.7 4.54-3.44 9.2-6.64 14.74-8.25.77-.23 1.5-.54 2.17-1.63zm73.6 68.42c.6-.71.23-1.3 0-1.9-2.75-7.2-6.89-13.62-11.08-20.05-9.34-14.31-20.8-27.3-27.35-44.07-.72 3.4.53 5.75 1.48 8.13 1.93 4.87 4.9 9.17 7.65 13.6 9.35 15.02 21.33 28.3 29.3 44.3M448.75 539.98h-6.36a9 9 0 0 0-4.25.83c-3.2 1.5-4.8 5.9-3.12 8.97.33.59.85 1.13 1.53.75.6-.33.84-.99.15-1.55-2.14-1.75-1.17-3.52.2-4.98 1.68-1.79 3.88-3.93 6.31-2.45 2.51 1.5 4.95 1.22 7.48 1.32 7 .3 13.92 1.19 20.84 2.27 1.1.17 2.18.63 3.23 1.06 1.76.71 2.46 1.97 1.83 3.88a149 149 0 0 0-1.74 5.57c-.22.74-.63 1.68.5 1.98a1.6 1.6 0 0 0 1.93-1.13c.55-2.04 1.16-4.1 1.32-6.19.38-4.79-.53-5.95-5.23-7.17a108 108 0 0 0-24.63-3.14zm151.84 56.45c.2 3.34 1.5 5.43 2.38 7.65 2.75 6.96 5.6 13.87 8.3 20.84.8 2.1 1.82 2.98 3.7 2.34 2.24-.75 1.15-2.34.72-3.62a105 105 0 0 0-10.74-22.93c-.92-1.46-1.84-3.02-4.36-4.28m24.26 45.52a183 183 0 0 1-16.93 13.19c-1.71 1.17-2.68 2.33-.97 4.3 1.41 1.63 2.59 2.07 4.42.44 5.2-4.62 10.55-9.09 15.93-13.69l-2.45-4.23zm-235.2 7.17c-1.71-2.02-3-3.48-4.24-4.97-.93-1.1-2.1-1.76-3.4-1.01-3.08 1.77-6.02 3.8-9.12 5.53-1.74.98-.85 2.23-.6 3.35.28 1.31 1 2.5 2.68 2.22 5.08-.9 10.02-2.2 14.69-5.11m488.3-347.6c.81-.05 1.63-.04 2.42-.18 3.48-.59 4.62-2.77 3.14-5.92-1.24-2.64-6.02-5.63-8.72-5.47-.88.06-1.52.5-2.03 1.16-1.45 1.86-2.74 3.91-1.52 6.24a7.4 7.4 0 0 0 6.71 4.17m-387.25 153.5c.16-1.29-.94-1.77-1.87-2.4-6.08-4.11-12.55-1.66-18.89-1.09-.71.06-1.26 1.13-1.18 1.96.09.95.98 1.12 1.81 1.25 5.93.87 11.87 1.7 17.77 2.67 2.05.34 2.05-.99 2.36-2.4M250.83 262.61c-.4 1.45-.72 2.67-1.1 3.89-.68 2.27-.13 3.7 2.43 4.1 3.12.5 5.96 2.25 9.32 1.97 2.28-.19 2.8-.52 2.63-2.78-.1-1.24-.77-2.02-1.54-2.9-3.11-3.53-7.56-3.03-11.74-4.29zm-5.31 99.17h-1.36c-2.8 14.1-4.44 28.27-1.98 42.73.73-1.43.55-2.88 2.2-4.09 2.02-1.47-2.16-1.82-1.46-3.76.33-.89 2-1.38 1.22-2.25-2.79-3.07.54-3.02 2.12-3.83-3.42-2.26-3.58-2.4-3.3-5.25.4-4.35.96-8.67 1.44-13zm120.9 110.82c9.75-6.32 19.4-18.92 17.06-26.27-3.56 1.62-4.6 5-5.53 8.15-1.84 6.31-5.35 11.42-10.16 15.76-.56.5-1.29.91-1.36 2.36zm344.95-195.24c.46 3.03 1.83 4.62 3.22 6.13 9.85 10.7 20.8 20.16 32.44 28.87.37.27.82.4 1.2-.2-12-11.4-25.65-21.11-36.85-34.79zM547.58 612.6c2.09 1.79 3.24 3.4 4.77 3.91 1.69.58 2.4-1.78 3.79-2.47.71-.36 1.6-.52 2.15-1.05 2.4-2.3 6.69-3.73 4.14-8.52-.3-.56.58-1.51-.2-2.39-2.12.99-3.34 2.94-4.6 4.7-2.28 3.22-4.74 6-10.05 5.83zm-155.2-220.9c3.43 1.83 6.08 1.98 8.86-.94 2.43-2.57 5.47-4.54 8.2-6.82 1.8-1.5 4-2.6 5.7-5.56-8.64 3.6-14.99 9.33-22.75 13.32zm111.77 339.53c1.68-1.57 2.03-3.04 2.56-4.38.96-2.4 2.22-4.73 2.35-7.4.09-1.93-1-2.72-2.74-1.95a9 9 0 0 0-2.37 1.67 53 53 0 0 0-7.3 8.48c-.75 1.06-2.5 2.59-.74 3.73 1.67 1.08 2.33-1.12 3.2-2.15 2.38-2.82 4.01-6.27 7.76-9zm-93.07-373.55c4.01.54 4.02 2.76 3.52 5.16-.2.94-.58 1.84-.93 2.73-.43 1.08-.95 2.2.36 2.97 1.1.65 2.2.23 3.2-.36 2.45-1.45 3.74-6.72 2.38-9.65-1.2-2.58-3.26-2.93-8.52-.85zm43.54 325.8 1.74-3.3c.64-1.25.87-2.64-.26-3.58-1.34-1.13-2.46.21-3.4.93-4.74 3.66-9.32 7.54-13 12.32-.63.81-1.86 1.54-.78 2.9 2.03-.87 3.31-2.58 4.76-4.08 3.36-3.51 6.82-6.92 10.64-9.95.32-.25.63-.13.76.13.54 1.43-.82 2.44-.46 4.62zm24.33 25.4c1.82-2.25 2.48-4.74 3.37-7.12.28-.74.45-1.66-.16-2.31-.89-.94-1.9-.2-2.62.25-5.24 3.22-9.13 7.72-12.19 13 5.35-2.65 7.83-8.4 12.84-11.67.79 2.87-1.67 5-1.23 7.86zm-40.7-202.03c4.38-2.04 6.97-5.05 8.87-8.7.47-.9.4-2.03-.57-2.6-.94-.54-1.81-.2-2.49.75-1.12 1.56-2.9 2.91-3.35 4.63-.48 1.86-.84 1.82-2.45 1.43-1.61-.38-1.94.55-.96 1.94.43.61.55 1.44.96 2.55zm-66.93-62.29c-3.34.42-4.53 2.3-4.43 5.07.1 2.64-.58 5.1-1.26 7.6-.21.8-.95 1.66.32 2.51 4.05-4.25 5-9.47 5.37-15.19zm120.92 258.91c-6.72 4.48-10.96 10.6-15.12 16.79 2.57-2.2 4.64-4.88 7.03-7.2s4.01-5.73 7.73-6.71c.4 1.57-1.25 2.73.04 3.98.76-2.02 1.85-3.93.33-6.85zm26.89 23.84c-2.28-1.07-3.76.41-5.18 1.63-3.7 3.2-7.38 6.48-9.3 12.26 5.29-3.86 7.7-9.24 12.19-12.48 1.35 1.13-.69 2.25.5 3.26 1.08-1.36 1.87-2.81 1.78-4.68zm-281.14-327.8c.02-5.7 2.76-11.46.3-17.2-2.5 5.67-1.6 11.43-.3 17.2m596.51-88.63c-.06-1.02-.68-1.63-1.81-1.73-1.64-.13-5.97 2.17-6.62 3.58-.34.76-.36 1.57.21 2.28.48.6 1.09.55 1.74.37 1.89-.5 3.66-1.24 5.25-2.39a2.6 2.6 0 0 0 1.21-2.12zm-22.37-94.55a6.5 6.5 0 0 0 1.49 4.48c.88 1.08 2.1 1.54 3.44.88 1.23-.59 1.24-1.75 1.12-2.91-.21-1.94-1.34-3.25-2.94-4.18-1.95-1.14-3.05-.5-3.11 1.73m-303.65 281.5h26.03c-8.64-1.25-17.29-2.23-26.03 0m-85.76 28.47c-1.3.39-2.35.04-3.43-.26-1.07-.3-1.51.39-1.5 1.28.02.87.87 1 1.42.81 3.14-1.06 6.41-.58 9.6-.95.64-.07 2.12.43 1.96-1.57-4.32.12-8.33-2.03-12.7-1.91 1.4 1.13 3.29 1.02 4.65 2.6m-106.95-73.89c.29-4.83.45-8.84.83-12.83.1-1.12.43-2.24.17-3.36-.18-.77-.45-1.68-1.5-1.5-.73.13-.89.84-.92 1.52-.17 5.17.02 10.3 1.42 16.17m-3.98-3.95c.08-4.22.79-8.33 1.4-12.45.12-.86-.17-1.6-1.2-1.69-.86-.06-1.52.21-1.84 1.15-.52 1.56.42 10.87 1.64 13M391.5 633.9c-.45.3-.86.5-1.2.8-.58.51-.49 1.09-.02 1.65 1.62 1.99 3.21 4.02 4.9 5.95.57.67 1.33 1.66 2.35.7.94-.88.93-2.04.08-3.01a183 183 0 0 0-4.9-5.32c-.3-.33-.77-.5-1.21-.77m-33.35 372.88c2.09-9.74 2.1-12.29.48-14.5a20.7 20.7 0 0 0-.48 14.5m-16.93-21.49c7.58-1.67 15.36-2.45 22.65-5.3-7.49 2.03-15.58 1.46-22.65 5.3m169.13-431.34c-.34-1.95-.38-3.9-1.2-5.73-.36-.83-.85-1.43-1.77-1.26-.64.12-1.12.62-1.35 1.28-.65 1.82.7 7 2.23 8.2.84.67 1.57.2 1.9-.61.24-.55.13-1.25.19-1.88M305.24 447.48l1.05.03c1.37-3.42 1.49-7.12 2.12-10.7a3 3 0 0 0-.2-1.42c-.3-.85-1.03-1.27-1.87-1.29-1.18-.01-1.09 1-1.09 1.74q-.03 5.81-.01 11.64m330.91 253.77c-.11-.9-1.78-1.98-3.7-2.84-1.76-.8-2.82-.05-3.57 1.34-.79 1.48.45 2.47 3.68 3.3 1.57.4 2.87.52 3.5-1.32q.07-.24.1-.48M299.1 433.05c-1.84 1.4-1.89 2.8-2.4 3.93-1.66 3.76-1.6 3.77 2.4 5.72zm102.75 221.47c.32 2.78-1.46 4.57-1.05 7.89 1.23-3.7 3.68-5.8 2.89-9.01-3.54-.9-4.92 2.16-7.05 3.86-.1.09.08.55.13.82zM539.3 488.73c1.97.15 3.09-1.36 4.61-1.61 1.09-.18 2.24-.03 2.2-1.67-.03-.68-.04-1.32-.68-1.69-1.08-.63-2.26-.7-3.18.14-1.36 1.25-2.98 2.44-2.96 4.83zM393.92 643.32l-4.63-4.08c-2.93 1.83-1.62 3.67-.19 5.25 1.98 2.15 3.35.52 4.81-1.16zm-18.16-.04c5.37-.02 6.99-4.56 9.64-7.9zm80.22-53.97c2.53-.45 4.22-1.71 5.72-3.19.92-.9.11-1.77-.58-2.46-.79-.8-1.49-.38-1.96.36-1.1 1.73-2.13 3.51-3.19 5.28zm11.09-113c-4.35-3.32-7.84-3.8-10.82-1.83zm196.4 207.85c-1.68-.18-2.13.27-2.26.95-.3 1.56 1.31 3.96 2.72 4.05.67.05 1.2-.31 1.35-1.07.26-1.35-1.42-3.88-1.82-3.93zm-236.6-1.45a22 22 0 0 0 8.62-8.23c-3.5 3.08-6.6 5.06-8.62 8.23m83.54-182.56c-.7.09-1.76-.14-1.96.86-.26 1.28.91 1.5 1.8 1.8 1.28.45 2.55.55 3.58-.53.16-.17.2-.67.08-.87-.78-1.34-2.13-1.27-3.49-1.26zm-34.13 16.93c-2.63 1.6-4.39 3.65-4.44 7.11 3.1-1.74 3.79-4.44 4.44-7.11m-9.57-70.84c-1.9.83-3.34 1.38-4.7 2.05-.6.3-.92.91-.62 1.62.4.9 1.08 1.1 1.95.7 1.65-.75 2.86-1.86 3.37-4.37M621.96 685.9c1.25 6.4 1.52 6.92 4.66 8.5-1.78-2.83-2.34-5.9-4.66-8.5M408.91 493.02c-1.11-2.03-.34-4.73-2.47-6.89-.46 3.1.6 5.16 2.47 6.9m153.41 49.57c1.52-1.42 2.87-2.38 1.7-4.3-.12-.2-.67-.38-.85-.27-1.7.97-2.06 2.35-.85 4.57m-62.64 427.8c-1.25 2.3-.4 4.1 1.12 6.02.66-2.38-.79-4.11-1.12-6.02m345.86-670.94q3.16-1.78 4.2-4.08c-1.88.86-2.94 2.52-4.2 4.08m-13.49-19.5q1.18.62 2.35 1.1c.6.23.2 1.9 1.21 1.11.69-.54.65-1.82-.4-2.45-1.01-.63-2.1-.72-3.17.25zM761.86 407.2c-.5-.04-1.08.1-1.03.63.1 1.07.79 1.73 1.9 1.8.24.01.74-.27.75-.43q.09-1.7-1.63-2zm-347.31 33.74c.61-.63 1.3-1.22 1.84-1.9.54-.7 1.67-1.12 1.55-2.7-1.65 1.37-2.95 2.5-3.4 4.6m192.53-46.23c-1.21.57-2.6.98-3.04 2.84a6.2 6.2 0 0 0 3.04-2.84m143.14-69.37c-1.21-1.38-2.4-2.82-5.26-3.56 1.77 2.47 3.38 3.23 5.26 3.56M577.16 543.18c-.07-.82-.67-.96-1.3-.93-.84.03-1.59.46-1.59 1.3 0 .66.82.92 1.41 1 .97.15 1.3-.55 1.48-1.37m-217.88 97.29c-.15-1.22-.84-1.67-1.96-1.4-.4.1-.98.21-.88.87.18 1.06 1 1.56 1.93 1.74.97.19.74-.73.91-1.21m105.81-186.32c1.75-.79 2.85-1.43 2.87-4.24-1.25 1.7-2.5 2.23-2.87 4.24m404.46-183.9c-1.32.18-2.67-.61-4.74.63 2.1-.25 3.44.26 4.74-.63M250.59 408.7c-.16-.48-.27-.96-.93-.85-1.26.22-1.29 1.31-1.48 2.2-.1.49.34.86.9.76 1.18-.23 1.43-1.13 1.5-2.11m164.89 252.1c-1.52.68-2.89 1.53-3.4 3.76 1.83-1.13 2.97-2.12 3.4-3.77m193.48-267.82c1.6-.35 2.37-.8 2.64-1.83-1.11-.21-1.55.68-2.64 1.83m-58.33 113.6c.15-.23.28-.36.32-.5q.42-1.2-.24-2.26c-.14-.2-.62-.42-.77-.34-.95.56-.5 1.34-.16 2.03.2.38.54.7.85 1.07m-165.56-64.64c.24-.12.76-.24.97-.56.3-.47-.09-.84-.55-.97-.62-.17-1.28-.12-1.44.62-.1.5.3.82 1.02.91m-93.77 250.23c.07-1.03-.13-1.44-.64-1.56-.6-.16-.9.3-.98.77-.12.6-.2 1.37.78 1.26.42-.04.79-.44.84-.47m171.92 8.37c.86-1 2.09-1.32 1.47-3.05-.42 1.1-1.6 1.25-1.47 3.05m87.11-240.17v3.38c.65-1.22.46-2.26 0-3.38M417.1 658.76c.1.71.51.81.97.8.55-.02 1.29.32 1.41-.63.1-.72-.2-1.29-.96-1.1-.54.13-.99.63-1.42.93m306.8-380.52a3.2 3.2 0 0 0-3.19.04c1.1.48 2.13.7 3.2-.04M438.69 672.6q-.15.5.5.48c.28 0 .69-.03.79-.19.2-.35 0-.65-.4-.6-.31.04-.6.2-.9.31m273.55-400.17c-.39.1-.5.38-.25.7.29.38.62.8 1.03.99.27.12.43-.28.16-.64-.28-.38-.62-.72-.93-1.05z"/><path fill="#000" d="M560.79 1014.95a1539 1539 0 0 0-9.31-52.23c-.29-1.42-.57-2.9-.5-4.33.06-1.34 1.49-2.35 2.31-1.45 1.66 1.79 4.08 2.55 5.02 5.47 4.7 14.56 8.4 29.35 11.19 44.37.5 2.69 1.54 5.34 1.07 8.17h-1.96a232 232 0 0 0-8.51-31.17c.14 3.88.76 7.68 1.2 11.5.75 6.56 2.56 13 2.41 19.68zM211 651.18c1.3-.1 1.53.98 1.93 1.82.2.43.33 1-.19 1.28-.38.2-.98.32-1.34.16a17.5 17.5 0 0 1-6.43-5.15c-8.05-10.24-9.8-21.72-6.49-34.11a51 51 0 0 1 9.45-18.62c.97-1.23 2.45-2.22 2.55-4.18-3.28-1.28-6.64-2.45-9.89-3.88a47.7 47.7 0 0 1-19.95-16.03c-5.34-7.49-6.94-15.84-6.28-25.02.44-6.1 4.3-10.02 7.05-15.17 1.13 1.66.16 2.68-.18 3.75-1.9 6.06-3.39 12.09-2.54 18.65 1.37 10.68 7.76 17.02 17.16 20.6 11.86 4.5 31 3.57 41.85-12.19 1.38-2 2.85-3.97 4.2-6.02.7-1.07 1.23-2.26 2.16-4-5.54 1.04-10.38 4.9-16.04 1.6 1.9-2.33 5.33-1.62 6.73-4.42-2.45-1.75-5.25-2.1-8.16-2.18-.88-.03-2.14.28-2.26-1.13-.09-1.09 1.01-1.13 1.72-1.34 11.59-3.38 20.8-10.5 29.63-18.38 3.56-3.17 6.86-6.84 12.4-9.33-1.34 3.38-3.7 4.57-5.32 6.32-1.66 1.79-3.5 3.4-5.31 5.05a128 128 0 0 1-5.91 5.12 84 84 0 0 1-5.91 4.32 101 101 0 0 1-6.64 4.12c-2.1 1.19-4.3 2.18-7.14 3.61 3.54.9 6.06 2 5.09 5.68 5.1-.8 5.7-.6 13.46-6.94.22.2.66.49.62.59-3.1 7.72-6.58 15.25-11.9 21.78-5.9 7.23-13.76 10.82-22.81 11.83-8.85.98-17.55.25-25.74-3.7-.23-.1-.6.1-1.29.24 6.47 6.77 14.09 11.13 22.76 13.79 1.72.52 2.7-.5 3.89-1.4 2.15-1.62 4.22-3.62 7.41-3.01.32 2.68-3 2.98-3.1 5.6a36.6 36.6 0 0 0 23.67-4.76c-3.49 3.9-10 6.63-16.24 6.98a87 87 0 0 1-7.81.08c-1.75-.07-3.2.27-4.3 1.71-8.2 10.6-13.72 22.19-13.02 35.94.39 7.66 2.84 14.66 7.79 20.65.1.12.27.26.4.26.35-.02.48-.28.38-.68zm595.97-204.53c-1.65 1.73-3.48 3.32-4.91 5.22-7.86 10.3-10.74 21.98-9.76 34.83.71 9.37 3.4 18.2 6.2 27.05 2.16 6.83 4.05 13.74 3.98 21-.13 13.56-5.45 25.04-14.55 34.75-10.49 11.19-23.25 19.3-36.93 26.04-.56.28-1.2.56-2.03-.06 3.79-2.5 7.61-4.85 11.23-7.46 10.22-7.38 19.37-15.89 26.82-26.12 10.88-14.96 12.96-31.12 6.98-48.59-3-8.76-5.67-17.67-6.26-27.02-.72-11.34 1.15-22.1 7.64-31.69 2.77-4.1 6.43-7.09 11.6-7.96zm30.35-2.89c.47-5.98.52-12.02 2.34-17.83q.96-3.03 2.25-5.92c.37-.84 1-1.95 2.16-1.54.88.32 1.94 1.34 1.5 2.25-1.62 3.36 1.09 4.32 2.82 6.09 6.73 6.86 10.24 15.37 11.91 24.7 2.72 15.2-2.04 28.23-11.83 39.73a97 97 0 0 1-21.46 19.07c.57-1.85 2.31-2.7 3.65-3.8 8.8-7.29 15.91-16 20.59-26.35 7.4-16.37 5.3-32.39-3.33-47.76-1.09-1.93-1.97-4.13-4.24-5.6-2.89 3.98-3.37 8.73-4.68 13.16-.39 1.33.06 3.06-1.77 3.7l.1.08zM268.74 583.15c-13.5 12.5-22.92 26.65-27.3 43.9-1.67 6.54-2 13.18-1.76 19.89.14 3.95 1.75 7.52 3.16 11.31-1.84.84-2.55-.36-3.24-1.36-3.17-4.58-4.26-9.85-4.47-15.25-.9-21.83 7.98-39.48 23.63-54.06 2.55-2.38 5.33-4.86 9.98-4.45z"/><path fill="#000" d="M234.48 602.7c.52 1.49-.15 2.07-.61 2.7-10.88 14.52-15.76 31.02-14.6 48.96.92 14.31 7.96 25.2 21.41 31.33.43.2.84.47 2.01 1.13-4.79-.46-8.12-2.3-11.2-4.59-11.87-8.77-17.53-20.7-17.14-35.37a64 64 0 0 1 10.22-33.15c2.66-4.16 6.1-7.58 9.92-11.01zm582.18-110.84c9.96-11.78 11.6-25.19 11.42-39.1q-.09-7.81-.35-15.63c-.02-.8.97-2.35-1.24-2.26-.78.02-.39-1.12-.15-1.64 1.6-3.49 2.7-7.17 4.2-10.81.28 5.82 1.07 11.5 1.33 17.24.37 8.1 1.36 16.17.15 24.32a49 49 0 0 1-12.84 26.83c-.32.35-.74.62-1.14.9-.09.06-.25.04-1.38.15m-34.21-79.03c3.03-.38 3.5 1.8 4.35 3.39 2.4 4.49 2.46 9.48 2.42 14.32-.16 16.37-4.3 31.85-11.07 46.69-.44.95-.63 2.09-2.08 2.68 0-2.2 1.14-3.87 1.75-5.66 5.4-16 8.95-32.28 7.91-49.3-.25-4.18-1-8.21-3.28-12.12m-9.82 263.1c.68-6.01 1.87-11.84 1-17.94-1-7.07-3.56-13.5-6.94-19.67-3.83-7-7.73-13.95-11.56-20.95a37 37 0 0 1-3.25-8.15c-.4-1.5-.99-3.13.83-4.7 2.92 11.6 9.85 20.89 15.43 30.82 4.33 7.7 7.07 15.71 7.34 24.53.17 5.54-.5 10.98-2.86 16.05zM333.3 611c.75-9.4 1.67-18.76 4.36-27.85 3.1-10.49 6.95-20.66 12.7-30.01 1.67-2.69 3.38-5.4 6.4-6.93a149 149 0 0 0-9.26 17.88A179 179 0 0 0 334.82 608c-.16 1.05.5 2.77-1.54 2.92zm228.2 83.14c1.7 24.99 14.7 40.23 38.2 42.15-22.48 3.17-46.03-22.17-38.2-42.15m-170.14-92c-11.44-5.8-10.53-34.92-.3-43.61-5.96 14.63-8.7 29.15.3 43.6m414.3-162.57c3.68-7.7 2.36-15.94 2.72-23.9 2.34-.4 2.34 1.3 2.6 2.38 1.51 6.08-.85 16.13-5.32 21.52m-546.29 55.53c-7.69 2.76-15.47 4.44-23.47 1.6-5.37-1.89-8.05-6.08-9.8-11.29.92-.08 1.02.43 1.2.78 3.85 7.66 10.46 12.3 24.05 10.22q4.02-.64 8.03-1.31zm29.96 78.7a68 68 0 0 1 25.12-28.21c-9.51 8.43-18.42 17.38-25.12 28.2m31.65-35.66c2.37-3.72 6.37-5.94 8.9-9.51 1.13-1.58 2.39-3.08 3.6-4.6a1.4 1.4 0 0 1 1.76-.45c.91.47.7 1.32.35 2.1-.2.43-.4.92-.75 1.24-4.32 4.09-8.1 8.83-13.7 11.37l-.14-.14zM264 668.31c-5.9 5.7-13.19 5.68-17.18-.4 5.9 3.63 11.34 1.21 17.18.4M398.02 562.3c.07.63.32 1.32.16 1.87-2.7 9-2.49 17.78 2.45 26.68-6.19-5.1-7.15-18.75-2.48-28.43zM562.8 730.97c-5.17-5.03-7.62-11.19-7.47-18.41a431 431 0 0 0 7.37 18.51zm167.71-75.66c-.03-7.33-3.42-12.53-9.92-15.91 8.02.58 11.3 5.75 9.92 15.9m-519.4-4.23c-3.22-7.94-1.17-15.45 1.67-23.16.78 1.06.45 1.84.2 2.6-1.82 5.5-2.03 11.13-1.57 16.84.1 1.27.35 2.6-.4 3.81l.08-.09zm359.02 105.91c-7.63-.74-14.26-3.62-19.44-9.51 3.03 1.8 5.96 3.8 9.12 5.34 3.33 1.62 6.87 2.8 10.32 4.17m237.15-293.54c1.97-5.5 5.87-9.86 7.9-15.3 1.52.33 2.14 1.24 1.3 2.45-2.99 4.33-6.11 8.57-9.19 12.85zm-527.3 63.97c2.44-5.45 6.73-9.65 9.9-14.6-2.63 5.31-4.87 10.91-10.01 14.5zm-26.85 121.92c-2.5-2.63-3.09-5.69-2.05-9.13.38 3.14 1.41 6.09 2.05 9.13m113.1-119.82c-.93 2.36-3.02 3.61-4.96 5.05a14 14 0 0 1 4.65-5.33zm-65.45 46.3a7.5 7.5 0 0 1 3.24-4.92 8.2 8.2 0 0 1-3.24 4.92"/><path fill="#000" d="M562.7 731.06c1.8.85 2.69 2.48 3.45 4.21-1.4-1.2-3.26-2.02-3.35-4.3zM272.35 535.93l3.04-3.42c-.21 1.86-1.1 3.1-3.04 3.42m465.74 98.49c1.76.3 2.63 1.07 3.78 2.53-1.82-.43-2.7-1.18-3.78-2.53m-432.16-17.24c-.76-1.68-.5-3.4-.06-5.11.62 1.64.22 3.31-.03 5zm-26.07-89.85c.32 1.96-1.53 2.39-2.45 3.48.32-1.54.88-2.89 2.56-3.39zm41.27 10.93c-.37 1.4-1.47 1.78-3.16 2.21.92-1.42 1.56-2.4 3.02-2.35zm-53.88-45.68c-.94.76-1.66 1.56-2.89 1.32.54-1.23 1.6-1.34 2.89-1.32m58.7 106.32c-.15-1.85 1.34-2.49 2.48-3.37-.45 1.4-.68 2.98-2.54 3.3zm-80.35-14.12 3-2.36c.85.8.1 1.34-3 2.36m591.62-141.1c.75 1.14.69 2.33.03 4.04-.45-1.62-.43-2.76.09-3.93zM333.28 610.92l.48 4.24c-1.3-1.8-.21-2.97-.45-4.14zm28.9-42.37c-.32-1.37.62-1.8 1.71-2.27 0 1.34-.47 2.12-1.78 2.2zm59.72 212.6c6.35 5.1 13.36 9.25 20 13.93 5.58 3.93 10.85 8.32 17.15 11.22 3.09 1.42 2.9 1.77 1.22 4.76-1.25 2.22-2.3 4.56-4.28 6.62 2.43.22 3.7 1.52 5.26 2.76 2.77 2.2 6.15 3.64 9.29 5.37 34.18 18.68 68.24 37.6 101.19 58.41 3.02 1.91 5.96 3.97 8.88 6.04.84.6 2.17.95 1.88 2.48-.86.89-1.56.1-2.15-.28-22.53-14.45-46.17-26.92-69.62-39.77-32.72-17.93-66.04-34.75-98.68-52.86a651 651 0 0 1-72.24-46.65c-3.93-2.91-8.07-5.46-10.93-9.54-.35-.52-.66-1.05-1.17-1.87 2.64-1.45 4.84-3.27 7.82-3.7a304 304 0 0 1-3.65-33.7c-.06-1.45-.08-2.95-.79-4.3-3.73-7.06-1.4-13.94.57-20.84.48-1.7 1.04-2 3.07-1.5 2.47.63 4.44 1.63 6.34 3.18 17.69 14.42 34.6 29.73 51.9 44.59.92.79 2.2 1.49 2 3.31-1.85.99-3.7.33-5.53-.15-8.27-2.18-15.76-6.15-23.25-10.13a102 102 0 0 0-28.92-10.16c-.43-.08-.9-.01-1.64-.01-.16 6.93 1.04 13.68 1.51 20.48.25 3.57 1.11 7.1 1.24 10.68a8.4 8.4 0 0 0 3.69 6.95c9.87 7.44 19.49 15.2 30.27 21.39 1.24.7 1.65 1.03 2.6.03a61 61 0 0 0 6.43-8c.76-1.12 1.52-2.17 3.13-1.28 10.52 5.82 20.98 11.73 30.9 18.55 2.15 1.47 4.41 2.75 6.62 4.12l-.12-.14zm-17.97-3.32c.2 2.3 1.17 3.3 1.33 4.68.34 3.07 2.54-.36 3.62.71.7.7 1.03.39 1.1-.4.1-.86-.16-1.9-1.2-1.4-2.4 1.18-2.64-.38-3.07-2.02-.1-.35-.63-.58-1.77-1.57zm11.56 14c1.21-2.06 1.95-4.04.24-6.13-.48-.58-1.1-.51-1.63.05-.3.31-.76.94-.32 1.07 2.96.9.15 3.56 1.72 5zm17.92 6.3c-.5-1.21-2.23-.08-2.66-1.34-.48-1.39-.98-.76-1.42-.01-.32.53-.6 1.12.25 1.55 1.32.67 2.6 1.18 3.84-.2zm21.26 12.77c-.83-1.38-1.76-2.65-3.66-2.35-.23.04-.62.46-.58.61.42 1.69 2.66-.3 3.13 1.53.09.35.57.83 1.11.21m-69.36-39.08c2.28-.94 2.34-2.69 2.9-4.13a6 6 0 0 0-2.9 4.13m55.67 34.08c.55-.64 1.85-.62 1.75-1.84-.03-.47-.43-.94-.95-.8-.79.22-1.3.84-1.42 1.66-.07.4.06.87.61 1zm-48.92-35.28c-.8.98-2.81 1.35-2 3.35 1.24-.78 2.11-1.71 2-3.35m54.82 35.03c-1.61.32-1.9 1.28-2.3 2.12-.01.04.42.46.62.44 1.26-.13 1.2-1.24 1.68-2.55zm138.92 205.42c1.25-6.55 3.17-12.89 4.89-19.27 3.81-14.14 7.47-28.32 11.25-42.47 4.68-17.49 11.12-34.38 19.94-50.27q1.08-1.92 2.22-3.79c.16-.26.46-.45.87-.83.68 1.4-.15 2.53-.55 3.55-1.98 4.99-3.72 10.12-6.2 14.85-8.47 16.15-13.94 33.23-17.34 51.11-2.99 15.7-8.26 30.78-14.16 45.63-.21.53-.6.99-.91 1.48zm21.75-121.81c-.36.91-.58 2.09-1.21 2.99-1.15 1.62-2.05 4.75-4.17 3.95-2.88-1.08-.64-3.63.03-5.4.67-1.76.53-3-.8-4.38a33 33 0 0 1-4.25-5.3 8.7 8.7 0 0 1 .54-10.04c1.14-1.39 2.16-1.2 3.1.14.36.52.85 1.2.78 1.75-.58 4.82 2.86 8.04 4.56 11.95.58 1.33.91 2.77 1.41 4.34zm-170.18-143.5c-.29 1.86.09 4.6-2.14 5.73-2.18 1.11-3.74-1.23-5.53-2.2-1.93-1.01-2.47-2.38-1.27-4.33.33-.54.4-1.23.7-1.8.89-1.64 1.36-3.86 4.06-3.15 3.23.85 4.35 2.3 4.18 5.74zm187.9 145.28c-2 1.02-2.76-.07-3.65-.66a43 43 0 0 1-8.8-7.61c-.95-1.09-2.05-2.23-1.74-3.85.22-1.2 1.07-2.5 2.3-1.3 4.25 4.13 9.17 7.72 11.9 13.42z"/><path fill="#000" d="M327.47 713.55c-2.6-8.87-2.7-17.52-2.3-26.52 3.12 3 4.56 20.1 2.3 26.52m89.39 27.92c1.46-2.24 2.77-4.09 3.91-6.03.93-1.55 2.42-1.67 3.83-1.47 1.92.27 1.18 2 1.26 3.15.12 1.62.16 3.27 0 4.87-.3 3.05-1.99 3.92-4.6 2.4-1.38-.8-2.68-1.77-4.4-2.92m-15.5-8.93c3.7-1.93 6.32-3.55 9.13-4.7 2.66-1.1 3.8-.07 3.2 2.65-.47 2.17-1.24 4.28-1.98 6.78-2.99-2.19-6.26-3.05-10.34-4.73zm7.08-.94q2.16-.19 2.8-2.15c-1.36.19-2.32.82-2.8 2.15m161.72 110.74c6.2 3.18 11.31 7.91 16.78 12.14l-.56.8q-8.45-5.95-16.92-11.88l.7-1.07zm-275.2-98.64c2.2-.15 4.2 1.4 4.14 3-.1 1.86-1.39 2.89-3.03 3.3-1.39.36-3-1.35-2.87-3.13.1-1.37.14-3.04 1.77-3.17m34.97-15.72c-.1 1.28-.59 2.2-2.04 2.01-.72-.09-1.03-.73-.97-1.41.1-1.38 1.13-1.95 2.27-2.04.8-.06.64.87.74 1.43zm92.09 53.3c.27-1.19-1.52-1.54-1.1-2.98 1.42-.18 2.31.42 2.4 1.87.01.29-.94.64-1.44.96zm-39.38-28.43c2.14-.3 2.34 1.09 3.83 1.96-2.3.32-2.67-1.17-3.83-1.96m78.59 51.26c1.48.15 2.4.42 2.57 1.6.02.18-.35.61-.49.59-1.01-.18-1.77-.71-2.09-2.2zM456.85 249a135 135 0 0 1-10.62-24.5c-2.28-7.14-5.44-13.93-8.15-21.2-3.51 3.7-8.67 3.86-12.77 6.57.67 3.7 2.38 7.04 3.44 10.6 1.57.76 2.84-.45 4.25-.58 3.6-.35 4.7.44 5.21 4.07.52 3.72-1.81 8.35-5.4 9.85-2.17.9-2.64 2.08-2.03 4.12.79 2.65 1.5 5.33 2.3 7.98.52 1.74 1.34 3.07 3.48 1.88.28-.15.62-.2.93-.28q8.22-1.82 11.24 6.02c1.11 2.9.97 3.6-1.94 4.97a66 66 0 0 1-16.17 5.31c-3.84.72-3.8.7-5.18-2.98-1.84-4.87-3.31-9.89-5.69-14.55-.14-.28-.34-.57-.4-.88-2.24-10.78-6.95-20.9-8.5-31.86-.72-5.08.91-9.02 5.31-11.57a34 34 0 0 1 9.04-3.62c1.1-.27 2.24-.42 3.31-.8 5.4-1.92 5.4-1.94 8.5 2.72 0-3.72 2.84-3.85 5.1-4.49 2.1-.59 3.29.88 4.3 2.47 1.6 2.49 2.69 5.2 3.84 7.9 1.12 2.63 2.12 5.33 4.56 8.35.08-7.5.4-14.08 1.05-20.64.18-1.8.61-3.07 2.4-3.8a6.9 6.9 0 0 1 6.12.41c1.16.68 1.18 2.59 1.27 4.05.15 2.76.38 5.54.25 8.3-.32 6.67.68 13.3.27 20-.34 5.49.44 11.04.69 16.57.1 2.12.1 4.24.12 6.35a9 9 0 0 1-.7 3.32c-1.1 2.62-3 4.65-5.73 4.7s-3.26-2.7-3.83-4.9c1.2 1.48 2.59.79 4 .4 4.25-1.15 4.14-1.1 3.5-5.31-.73-4.97-1.55-9.89-.58-15.01a83 83 0 0 0 1.32-18.5c-.03-1.11.17-2.54-.42-3.3-2-2.63-1.55-5.52-1.5-8.44.02-1.7.42-3.5-.46-5.12-4.89 1.22-4.96 1.22-4.67 5.76.47 7.5.4 15 .23 22.49-.02 1.34 1.05 3.33-1.6 3.86-2.56.5-3-1.33-3.74-2.91-1.3-2.8-2.65-5.58-3.85-8.44-1.7-4.05-3.22-8.18-4.9-12.24-.4-.94-.68-2.38-2.37-1.72s-1.5 1.9-1 3.22q.35.92.78 1.8c4.33 8.26 7.17 17.12 10.06 25.94 1.91 5.84 4.5 11.5 5.33 17.67zm-10 6.68c-2.47-4.82-2.51-4.92-6.48-3.23-2.03.86-4.19.56-6.17 1.11-2.1.58-3.03-.28-3.91-1.8a25 25 0 0 1-3.41-12.57c-.04-6.26-.39-5.61 4.4-7.01.77-.23 1.5-.64 2.22-1 .93-.49 1.43-1.05 1.15-2.3-.72-3.3-1.45-3.95-5.01-3.88-3.7.06-4.4-.4-5.79-3.9a32 32 0 0 1-1.79-8.1c-.52-4.63-.16-5.05 4.2-6.91 2.4-1.03 5.08-1.51 7.33-3.19-1.36-1.55-2.55-1.33-3.84-.83-2.74 1.03-5.52 1.93-8.25 2.98-9.1 3.55-8.6 5.43-6.78 13.1 1.07 4.58 3.16 8.93 4.05 13.53 1.74 9 4.8 17.55 7.94 26.1 1.36 3.7 2 4.21 5.72 3.2a89 89 0 0 0 14.41-5.3zm94.86-50.2a30 30 0 0 0 1.22-11.73c-.35-4.55-.38-9.1-.35-13.64.01-2.8 1.15-4.26 3.83-4.68.8-.13 1.57-.43 2.38-.55 5.38-.75 6.07.03 6.04 5.37-.08 10.42-2.16 20.7-2.07 31.1.07 7.33-.41 14.62-.94 21.91-.34 4.69-.93 5.22-4.84 5.85-3.15.52-5.43-.65-6.83-4a94 94 0 0 1-4.34-11.9c-.98-3.68-2.47-7-4.24-10.33A151 151 0 0 1 521 187.22c-1.49-4.7 1.99-8.3 6.81-7.49 1.35.22 1.88 1.23 2.38 2.22q2.64 5.24 5.2 10.5c2 4.08 3.97 8.18 6.33 13.04zm4.23-7.04h.32c0 4.57.06 9.13-.04 13.7-.04 1.75.05 3.62-1.01 5.2-.65.94-1.74 1.36-2.34.22-2.64-4.97-6.68-9.11-8.21-14.77-1.8-6.65-5.4-12.54-8.5-18.62-.45-.85-.9-1.9-2.16-1.38-.98.4-1.43 1.28-1.47 2.34-.07 1.54.58 2.9 1.24 4.17 2.87 5.63 4.67 11.69 7.43 17.4 4.35 9.05 8.5 18.3 11.28 28.04.55 1.96 1.75 2.32 3.7 2.11 2.21-.22 2.13-1.56 2.11-3.06-.07-11.86 2.64-23.53 2.13-35.48-.2-4.9-.66-10 .33-15 .46-2.3-1.49-3.4-3.64-2.44-1.4.6-1.15 1.83-1.16 2.91q-.03 7.34-.02 14.66zm27 41.26h-3.92c-4.95-.05-5.71-.43-6-5.49-.64-11.2-2.37-22.33-2.44-33.58-.04-4.72-.5-9.43-.72-14.14a63 63 0 0 1-.02-5.38c.11-2.56 1.08-4.13 4-4.54 4.4-.61 8.73-.92 13.07.08 3.27.75 4.49 2.56 4.57 6.4.07 3.47-.22 3.87-3.95 5q-1.41.43-2.85.64c-3.92.57-4.03.55-3.92 4.28.09 3.24.44 6.48.75 9.7.1 1.16.4 2.45 1.91 2.36 3.4-.2 3.46 2.31 3.75 4.53.2 1.44 0 2.9-.31 4.36-.38 1.8-.89 3.14-3.06 2.94-1.99-.2-2.53.82-2.43 2.63a103 103 0 0 1 .21 7.82c-.03 1.86.63 2.77 2.54 2.59 2.8-.27 5.51.37 8.23.8 2.99.45 3.99 2.2 2.5 4.7-1.42 2.42-3.28 4.5-6.56 4.32-1.79-.1-3.59-.01-5.38-.01zm8.51-4.92c-4 .02-7.88-.33-11.73-.9-1.28-.19-2.21-.47-2.21-1.96 0-4.55-1.25-9.03-.75-13.61.15-1.27-.14-2.65.75-3.75.94-1.17 2.14.05 3.2-.29.46-.15.93-.25 1.4-.38 1.9-.53 2.44-1.87 2.37-3.71-.08-2-1.52-1.7-2.77-1.88-3.9-.55-3.9-.57-4.62-4.3-1.02-5.23.24-10.37.61-15.54.1-1.4.93-1.91 2.27-1.96 1.78-.06 3.58.23 5.33-.38 1.71-.6 1.99-1.83 1.95-3.45-.04-1.94-1.28-1.97-2.63-1.95q-4.4.11-8.78.24c-4 .1-4.18.33-3.78 4.17 1.07 10.19 2.29 20.37 1.79 30.64-.3 6.24.93 12.3 1.73 18.42.3 2.35 1.42 3.56 3.77 3.5q5.36-.12 10.72-.4c.95-.05 1.28-.85 1.37-2.5zm-163.97 46.28c-6.9-5.12-14.28-3.74-21.63-2.02q-4.09.96-8.24.78-6.63-.29-5.4-6.67c.37-1.9 1.07-3.76 1.56-5.65.41-1.57.89-3.14 1.08-4.75.46-4.1-.76-6.12-4.63-7.46-3.4-1.18-6.96-1.6-10.53-1.9-9.4-.77-18.8-1.39-28.1-3.09-6.11-1.12-12.05-2.8-17.63-5.58-10-4.95-15.06-13.16-15.44-24.21-.43-12.7 2.22-24.92 5.95-36.96 3.95-12.76 9.99-24.76 13.73-37.6.77-2.66 1.7-5.27 1.93-8.06.08-.96.16-1.97 1.34-2.4 1.03 1.43.2 2.81-.08 4.16-2.11 9.92-5.76 19.35-9.18 28.83-4.2 11.67-7.7 23.54-9.5 35.82-.96 6.58-1.82 13.17-.69 19.9 1.27 7.55 4.7 13.41 11.2 17.48 7.52 4.69 15.96 6.5 24.52 7.68 8.69 1.2 17.43 1.98 26.15 2.95 2.92.32 5.82.76 8.57 1.8 4.81 1.84 6.55 4.94 5.54 9.93-.61 3.04-1.53 6-2.06 9.05-.6 3.5.77 4.94 4.3 4.55 2.74-.3 5.47-.82 8.19-1.34 3.22-.62 6.47-.7 9.73-.7 4.06 0 7.06 1.9 9.33 5.47zm69.73-96.18c3.88-.23 6.05 2.1 7.54 5.54a117 117 0 0 1 8.13 27.58c1.07 6.42 2.32 12.81 4.43 19a10 10 0 0 1 .4 3.85c-.07 1.13-.8 2.02-1.73 2.1-5.82.52-10.96 3.47-16.64 4.5-4.25.76-4.88.57-6.82-3.32q-.24-.44-.4-.89c-4-11.86-8.52-23.58-10.52-36.02a567 567 0 0 0-1.89-11.06c-.5-2.72.42-4.64 2.73-6.23 3.84-2.65 10.5-5.1 14.77-5.04zm15.96 56.25c-1.1-3.4-2.05-6.36-1.95-9.47.1-2.98-.45-5.78-1.73-8.49a10 10 0 0 1-1.08-3.72c-.23-9.74-5.2-17.98-8.26-26.83-.77-2.21-2.25-3.04-4.52-2.6-2.06.4-4.14.72-6.2 1.12-9.06 1.78-8.42.61-7.12 10.73 1.86 14.38 8.66 27.16 13.03 40.73.58 1.8 1.61 2.04 3.28 1.96 4.94-.24 9.49-1.9 14.54-3.44zm17.54.2c-7.4 0-7.59.06-9.59-6.02-5.14-15.6-8.8-31.53-10.16-47.94-.1-1.31-1.1-2.97.87-3.84 2.14-.95 4.35-1.4 6.61-.56 1.08.4.92 1.65 1.16 2.52 1.1 3.9 2.02 7.86 3.08 11.78 2.62 9.7 6.95 18.91 8.43 28.95.27 1.8 1.27 2.87 3.32 2.7 1.62-.12 3.26-.07 4.87.03 3.75.25 7.03 4.1 6.9 7.93-.06 1.64-.49 2.67-2.42 2.96-4.49.66-8.91 1.81-13.07 1.49m1-1.96c3.62.1 6.75-.7 9.86-1.65 1.82-.55 1.77-1.63.86-2.96-.81-1.18-1.88-1.54-3.35-1.42-2.43.2-4.9-.09-7.3.24-2.67.36-4.09-.86-4.75-3.1-1.52-5.13-3.16-10.25-4.29-15.46-1.92-8.9-5.46-17.36-6.83-26.39-.14-.87-.52-1.55-1.6-1.32-.94.2-2.03.32-1.93 1.68.04.64.28 1.26.4 1.9 2.64 14.84 4.69 29.83 11.71 43.53 2.34 4.56 2.26 4.94 7.24 4.95zM436.33 155c-2.33.26-4.19.55-4.6-2.04-1.5-9.5-8.3-14.43-16.19-18.07-13.96-6.43-27.87-5.41-41.28 1.69-3.99 2.1-8.06 1.6-12.12 1.83-2.52.14-3.86-1.77-3.91-4.65-.05-2.6.23-5.2.24-7.8.02-3.78-.94-4.87-4.62-5.63-.16-.04-.32-.02-.48-.06-1.96-.45-4.9.34-5.35-2.27-.4-2.23 1.68-3.9 3.61-5.65q-.72 4.24 3.4 4.74c6.04.72 7.64 2.66 7.02 8.63-.18 1.78-.6 3.53-.76 5.3-.17 1.92-.63 4.22 1.76 5.04 2.41.82 5.08 1.47 7.37-.44 12.97-10.8 27.45-11.24 42.68-6.25a39 39 0 0 1 15 8.89c3.78 3.62 6.58 7.76 5.72 13.29-.34 2.17 1.54 2.16 2.52 3.45zm50.82-49.25c1.27 2.64 1.08 3.73-1.05 5.39-1.98 1.52-4.35 2.24-6.68 2.9-9.73 2.8-19.19 6.24-28.03 11.23-1.5.85-3.35 1.27-4.37 3.33 3.85.05 7.2-1.1 10.48-2.3a333 333 0 0 0 14.1-5.48c5.59-2.32 11.3-4.08 17.34-4.77 2.86-.32 5.25-1.31 6.99-3.85 1.37-2 1.65-3.42.07-5.63-4.12-5.75-3.33-8.5 3-12.55.56.84-.26 1.12-.64 1.54-2.9 3.24-3 5.75-.32 8.99 3.48 4.18 3.41 4.85-.12 8.78-2.7 2.98-6.26 4.16-9.99 4.56-7.05.78-13.61 3-20.08 5.72q-8.08 3.44-16.55 5.76c-1.76.48-3.5.75-5.3.61-.62-.04-1.35.03-1.56-.83-.18-.73.19-1.25.64-1.73a17 17 0 0 1 3.96-2.8c8.68-4.91 17.74-8.9 27.42-11.4a76 76 0 0 0 7.01-2.1c2.5-.9 4.12-2.58 3.79-5.51l-.11.12zm47.15 53.83a537 537 0 0 0 17.91-41.47c-1.49-1.87-2.64.17-4.6-.8.44.26.51.06 1-.04 4-.84 5.49-3.67 6.61-7.32 1.91-6.2 4-12.33 5.07-19.03.73 3.4.32 6.5-.4 9.56-.6 2.53-1.54 5.03-1.75 7.59-.18 2.13-2.98 4.23-.3 6.5.05.03-.03.3-.12.39-5.17 5.13-5.84 12.44-8.94 18.57-3.08 6.08-6 12.26-9.07 18.35-1.38 2.75-2.94 5.4-4.42 8.1zm116.11-4.5c-3.16-1.75-3.53-4-2.18-6.77 1.08-2.2 2.02-4.44 3.18-6.59a2677 2677 0 0 1 11.18-20.57c.61-1.12 1.12-2.36 2.48-3.1.82 1.33.09 2.43-.45 3.49-2.94 5.8-5.83 11.63-8.91 17.36-2.1 3.89-3.36 8.09-5.1 12.11-.58 1.35.13 2.5-.2 4.07m-5.3-66.51c5.87 3.93 19.16 21.04 21.23 27.1-8.93-8.21-15.45-17.38-21.24-27.1m48.81 53.27c-4.03 4.1-33.78 14.03-39.18 13.35zm-194.6-63.7c3.53-2.1 5.85-.95 5.93 2.91.01.49.11 1.1-.14 1.43-2.25 2.87-1.76 6.72-3.45 10.51-.96-3.44.3-5.74 1.07-8.18 1.27-4.05.4-5.59-3.5-6.78zm74.2 3.68a48 48 0 0 1-5.55 18.83c2.3-7.18 4.6-14.34 3.6-22.29 1.57.99.97 2.64 1.8 3.6zm136.93 70.64c.16-.01.37-.11.47-.04 6.06 4.24 10.48 10.18 15.95 15.06-6.6-3.8-11.36-9.56-16.33-15.1zm.1-.09c-5.26-2.7-10-6.14-15.3-10.57 5.58 1.62 13.15 7.15 15.2 10.66zM348.24 359.2l20-4.2c-6.25 3.37-13.14 3.7-19.8 5.13zM467.12 89.1c-.1-1.75 1.54-1.79 2.5-2.44 3.87-2.6 4.14-3.42 2.35-7.88 3.9 3.3 3.9 5.35-.14 7.95-1.49.96-3.03 1.9-4.82 2.25z"/><path fill="#000" d="M499.21 78.04c-.8 1.22-2.03 1.92-1.38 4.07.75 2.5-.41 5.24-1.82 8.67-.43-3.94 1.4-6.88-.3-9.96-.48-.84 1.68-2.65 3.6-2.67l-.09-.11zM385.1 335.2c2.9-2.75 2.1-6.51 2.78-10.17 1.65 5.55 1.2 7.34-2.78 10.17m11.48-25.3c.82-1.22.1-2.93 1.22-4.09 1.8-.19 2.58 1 3.58 2.75-1.66-.09-3.38-.39-3.66 1.75-.05.32-.8-.04-1.03-.51zm-68.41 66.06c-.77-3.63-.48-7.04 2.64-9.84l-2.75 9.72zm97.42-280.4c-.03 2.47-2.66 3.33-2.98 5.54-1.44-.55-1.36-1.24-.66-1.92 1.26-1.23 2.58-2.4 3.88-3.58zM533.21 74.6c1.63-.37 3.33-.71 5.15-.06-1.74.78-3.42.13-5.15.06"/><path fill="#000" d="M396.67 309.8c-1.69.19-3.17 1.06-5.57 2.29 1.75-3.41 3.4-3.52 5.46-2.17zm28.91-214.23.24.04c-.87-.35-1.38-.92-.38-1.56.6-.38 1.76-.44 1.87.53.1.92-.87 1.1-1.72 1zM312.82 374.24c-1.17 1.42-2.17 1.7-3.07-.28a3.2 3.2 0 0 1 3.07.28M453.52 93.4h-4.6c1.24-.32 2.44-1 4.6 0m-46.38 9.26-3.57 1.77c.47-1.23 1.2-1.67 3.57-1.77m59.88-13.68c-1.11.84-2.37 1.35-4.67 1.82 1.91-1.48 2.96-2.56 4.76-1.7zM413.45 99.7c-1.47 1.01-2.14 1.75-3.23 1.68.32-1.2 1.24-1.42 3.23-1.68m315.38 69.48c1.13.88 1.89 1.19 2.11 2.18-.98-.17-1.63-.62-2.1-2.18M445.05 94.12c-.85.44-1.69.67-2.57.07.86-.5 1.69-.63 2.57-.07m148.35 5.85c.07.67.18-.04-.44.14-.3.08-.9.03-.93-.05-.12-.64-.21.13.42-.07.3-.09.63-.02.96-.02zm-106.16 5.67L485 102.9c1.9.28 2.38 1.29 2.14 2.83l.1-.11zm79.85-18.38c.5.72.35 1.44.1 2.16-.69-.3-.42-.93-.44-1.42 0-.23.22-.47.34-.73zm6.27-5.29q.47.04.94.05c.6.01.83.39.8.9 0 .26-.19.51-.3.76-.31-.33-.65-.64-.92-1-.18-.24-.26-.56-.39-.84zm-7.51 24.17c-.53.23-.68.1-.52-.27.2-.43.38-.87.66-1.24.18-.23.5 0 .4.4-.1.43-.4.81-.55 1.1zm93.49 314.1c1.14 2 1.03 3.08.4 4.1-5.19 8.47-9.67 17.42-16.74 24.59-2.97 3-5.63 6.77-9.23 8.59-5.74 2.9-8.03 7.95-10.45 13.08-2.36 5-2.14 10.47-2 15.84.07 2.46.77 4.81 1.85 7.05 4 8.3 12.92 10.2 19.87 4.17 1.1-.95 1.98-2.15 3.3-3.62a11.2 11.2 0 0 1-10.35 8.8c-10.4.52-14.88-6.34-17.91-15-2.02 10.68-2.4 21.25 2 31.36 3.37 7.76 9.5 12.67 17.69 14.9 1.55.42 3.21.47 4.62 1.39-3.81.57-8.11-.4-12.46-2.84-9.14-5.1-14.97-12.72-16.02-23.18-1.6-16.16.12-32.04 7.95-46.53a104 104 0 0 1 31.37-35.67c2.39-1.7 4.91-3.24 6.12-7.04zm-22.33 29.74c-1.27 1.2-2.2 1.71-1.89 2.92.92-.42 1.35-1.18 1.89-2.92m3.36-3.9c-.6.68-2 .86-1.83 2.38 1.11-.6 1.72-1.29 1.83-2.38"/><path fill="#000" d="M630.08 464.51c18.22-13.4 33.23-29.74 47.44-46.85a312 312 0 0 0 24.45-34.08c.96-1.52 1.86-3.07 3.28-4.22.51-.41 1.02-.92 1.72-.62.97.42.82 1.4.6 2.1-.66 2-1.35 4-2.26 5.9-5.32 11.07-12.3 21.09-20.16 30.45-1.95 2.3-2.73 5.15-4.59 7.4-5.7 6.93-11.59 13.95-18.95 18.91-5.93 4-11.43 8.47-17.23 12.6-3.18 2.25-6.36 4.52-9.63 6.66-1.3.85-2.6 1.97-4.67 1.76zm69.3-26.35c5.56.45 11.5 1.27 17.3 2.94 3.61 1.04 5 2.25 4.46 4.14-.97 3.39-3.72 1.42-5.72 1.64-.61.06-1.27-.24-1.9-.39-1.74-.44-2.62-.04-2.88 2.02-.94 7.44-3.6 14.48-5.33 21.74-.73 3.12-3.61 3.94-5.54 5.75-1.14 1.07-3.11-.43-3.08-2.38.13-8.43-.27-16.9 2.23-25.12 1.06-3.46 1-3.47-2.74-4.66-.93-.3-1.88-.58-2.71-1.05-1.08-.6-1.55-1.66-1.42-2.9.16-1.49 1.3-1.7 2.5-1.73 1.46-.04 2.92 0 4.82 0zm-110.8 53.66c-2.6 4.66-6.38 5.57-10.03 6.84 4.9-5.05 9.2-10.58 13.57-15.6.34 12.5 4.43 23.81 10.97 34.21 6.62 10.53 15.48 18.72 27.32 23.34-.79 1.98-1.95.91-2.87.63-17.92-5.35-36.47-23.88-38.55-46.67-.04-.47-.13-.95-.4-2.75m-15.1-2.67c2.95-6 7.24-11.14 10.66-16.85 7.63-12.72 15.12-25.48 20.89-39.18 1.54-3.67 1.84-3.82 5.76-4.89a163 163 0 0 0-8.62 20.9c-.8 2.38-1.61-.44-2.1.13-.72.85-1.24 1.9-1.79 2.9-1.1 2-2.12 4.03-3.22 6.02a218 218 0 0 1-19.23 28.83c-.64.82-1 2.15-2.46 2.04zm69.79-79.1a170 170 0 0 0-23.29 34.18c-6.25 12.1-10.44 24.81-11.49 39.41-2.97-20.44 19-66.9 34.78-73.6m45.83-28.88c-1.78 6.17-8.56 18.54-14.15 26.27.4-3.88 10.17-22.34 14.15-26.27m-103.55 70.11c-2.12 7.86-8.15 12.52-14.56 16.87.88-4.03 4.65-5.81 6.8-8.85 2.14-3.03 4.56-5.85 6.86-8.75l.91.72zm123.03-52.11c1.67-4.62 5.28-8.08 7.44-12.42.98-1.97 1.58-4.26 3.53-5.86.3 4.67-5.49 14.08-11.07 18.19z"/><path fill="#000" d="M601.53 488.08c.27 7.1.75 14.13 2.43 21.73-2.93-5.2-3.53-10.75-2.43-21.73m106.96-89.01c.08 2.33-2 2.9-3.35 4.07.9-1.53 1.37-3.44 3.45-3.97zm-135.1 89.99c.28 1.76-1.22 2.49-2.26 3.47.25-1.46.85-2.7 2.36-3.37zm-87.36-94.64c-5.8-.07-10.57-4.75-10.78-10.2-.09-2.4.84-4.25 3.07-5.03 3.5-1.23 7.02-2.36 10.88-.84 4.22 1.68 6.54 4.74 6.05 8.84-.45 3.8-3.4 6.58-7.55 7.13-.65.08-1.3.07-1.66.09zm4.41-8.99c.24-2.78-1.14-4.22-4.4-4.63-3-.36-6.15 2.02-6.28 4.77-.12 2.58 2.08 5.7 4.1 5.83 3.1.2 6.31-2.72 6.58-5.96m23.24-77.9c5.37-.23 6.97 2.22 7 4.82.06 3.49-4.18 6.8-8.24 6.61-3.6-.17-5.75-2.23-5.53-5.29.3-4.26 2.6-6.35 6.77-6.14m2.89 5.3c-.3-1.27-1.22-1.69-1.99-2.25-1.27-.95-2.38-.45-3.51.31-.57.39-1.06.86-.87 1.54.4 1.5 1.82 1.76 3.05 1.9.9.11 1.88-.23 2.76-.56.32-.11.44-.73.56-.95m20.67 37.57c-4.4 0-7.62-2.58-7.43-5.95.12-2.25 3.96-5.62 6.55-5.77 2.74-.16 6.64 4.06 6.6 7.15-.03 2.78-2.25 4.56-5.71 4.57zm.36-8.82c-1.33-.02-3.4 2.59-3.35 4.23.04 1.21.44 2.43 1.86 2.26 2.16-.24 2.69-2.06 2.91-3.86.15-1.13-.12-2.24-1.42-2.63m-73.52-17c3.76-.1 5.83 1.62 5.87 4.9.06 4.04-2.64 6.96-6.51 7.07-3.19.1-5.55-2.02-5.5-4.92.05-3.34 3.2-6.97 6.14-7.05m2.86 6.28c.03-1.33-1.74-3.83-2.68-3.54-1.52.46-3.01 1.27-3.29 3.08-.2 1.28 1.84 3.05 3.32 2.75 1.2-.23 2.59-.6 2.65-2.29m129.63-59.04c-.86 4.15.83 6.05 4.88 5.45 3.1-.46 5.28-2.02 5-3.6-.26-1.57-2.97-3.26-5.4-3.34-1.48-.06-2.9.15-4.1 1.12.7-2.68 2.06-3.89 4.93-2.51 1.44.68 3.17.77 4.59 1.49 2.16 1.1 2.43 2.89 1.02 4.82-2.23 3.04-7.67 4.52-11 2.97-1.22-.57-2.3-1.33-2.25-2.87.06-1.62.01-3.37 2.34-3.52zm-195.3 62.71-6.02 11.49c.73-4.55 1.98-8.8 6.11-11.4zm-60.24 43.07c.18 1.66.79 3 2.06 4.08.57.48 1.07 1.24.39 2.06-.18.21-.52.41-.8.42-1.07.04-1.8-.54-2.15-1.53-.6-1.73.28-3.31.5-5.03m60.33-42.98c-.1-1.77 1.3-2.48 2.4-3.43-.38 1.45-.86 2.81-2.5 3.33zm133.08 87.09c2.46-4.12 6.58-6.6 10-9.72 3.25-2.97 6.51-5.88 9.28-9.31 1.97-2.45 4.63-4.1 7.1-5.94.82-.6 1.73-.9 2.85-.17-8.47 9.01-18.03 16.72-27.51 24.53-.52.43-1.11.65-1.8.53z"/><path fill="#000" d="M534.36 421.61c-3.23 4.1-10.57 8.23-17.01 9.52.6-1.4 1.88-1.73 2.93-2.15 4.95-1.98 9.28-5.16 14.17-7.29zM366.85 410.3c-1.2 1.73-.34 3.5-.92 5.33-2.52.28-3.41-2.34-5.4-2.87-.63-.17-.6-1.44-.14-2.2.59-.94 1.85-.68 2.03-.15 1.38 4.16 2.62-.2 4.43-.12zm-27.32-6.13c-.62 3.96-.82 4.05-3.74 2.86-1.05-.43-1.77-1.06-1.58-2 .26-1.27 1.64-1.06 2.3-.62 1.18.79 1.98-1.1 3.02-.23zm277.5-48.9c-.92-.12-1.59-.54-1.46-1.5.18-1.43 1.14-2.24 2.54-2.3.9-.04 1.56.6 1.46 1.48-.17 1.43-1.2 2.13-2.53 2.3zm-20.1 15.3-4.74 4.21c.7-1.87 3.08-2.75 4.75-4.21m-266.3 35.42c-1.51-1.5-2.82-1.5-4.4-.48.34-2.18 1.29-3.4 2.82-3.25s1.56 1.75 1.57 3.72zm-12.45-3.61c-.43-1.5.48-2.45 1.43-3.34.35-.33.95-.53 1.25-.05.41.66.87 1.45.87 2.19 0 1.27-.74.31-1.18.21-1.03-.24-1.18 1.6-2.37 1zm28.31 6.08c.02.84 1.03 2.2-.54 2.24-1.56.05-1.03-1.45-1.16-2.51-.12-1.07-.31-2.08 1.04-2.05 2.35.06.14 1.63.66 2.32m222.17-12.5c.27-.88.43-1.38.44-1.38 1.79.49.92-2.99 2.97-2 .22.09.43.51.4.76-.18 2.03-1.58 2.44-3.81 2.62m-244.52 4.43c3.2 1.92.59 3.12-.54 4.44zm32.64 7.93c1.2 2.6-.2 3.82-.16 5.26-1.9-1.74-.5-2.95.16-5.26m-42.82-8.28c.72-.85 1.37-1.87 2.64-1.02.26.18.4 1.12.21 1.3-.96.9-1.93.56-2.85-.28m269.54-16.28c.44-1.5 1.45-2.11 2.9-3.08-.5 1.82-1.46 2.48-2.9 3.08M351.69 409.3c-.2.5-.24 1.27-1.05 1.02-.2-.06-.29-.8-.26-1.23.02-.44.21-1 .8-.91.58.08.55.63.52 1.12zm2.6-.57c.35-.01.61.2.49.52-.26.7-.22 1.6-1.14 1.92-.1-.3-.27-.6-.27-.9 0-.66.24-1.24.92-1.54m-11-2.33c0 .23-.14.65-.73.54-.47-.1-.8-.4-.67-.92a1 1 0 0 1 .55-.59q.82-.2.84.97zm160.1 162.58c-5.56-2.18-8.15-9.37-6.62-18.28 2.22 6.47 1.22 13.6 6.62 18.28m-13.66-83.22c1.22-.37 2.44-.78 3.67-1.13 1.4-.4 2.56.05 3.38 1.22.9 1.3.36 2.48-.54 3.51-.95 1.09-2 2.08-3.75 1.94-.17-2.2 2.68-2.7 2.61-5.07-1.68-.72-3.74.7-5.43-.5zm4.29-47.44a6.5 6.5 0 0 1-.4-4.72c.35-1.18-.03-3.23 2.28-3.01 1.87.17 3.67.67 3.95 2.84.21 1.72.6 3.52-.15 5.53-2.09-1.2-1.32-3.07-1.39-4.61-.05-1.35-.4-2.26-1.94-1.98-1.65.3-1.56 1.18-.9 2.47.52 1.02.35 1.1-1.45 3.47zm-16.43.17c-2-1.49-1.82-3.22-2.04-4.78-.1-.8-.02-1.69.9-2.04 1.1-.43 1.23.63 1.72 1.2 1.49 1.78 2.81 2.36 3.5-.62.12-.49.45-.81 1.06-.7.59.1.73.54.79 1.02.15 1.44-.14 2.83-1.86 2.76-2.26-.1-3.65.84-4.06 3.16zm30.43-4.83-.7 3.51c-1.17-.3-2.22-.68-3.3-.82-1.52-.2-1.54-1.4-1.82-2.43-.24-.9.12-1.65.97-1.94.96-.33 2.57-1.28 1.3 1.18-.54 1.05.48 1.24 1.36 1.27.82.02 1.03-1.32 2.2-.77m-20.26 5.27c-.85-1.94-.51-3.87-.52-5.77 0-1.1.68-1.9 1.83-1.77 2.05.26.41 1.22.27 1.89-.13.56.15.88.66 1.05 1.89.64 2.27 1.44.12 2.23-1.21.43-.15 2.44-2.37 2.37zm-13.71-16.86c-.87.57-1.76.35-3.2.03 1.4-.36 2.26-.62 3.2-.03m99.9 168.58c.65.2.45 1.28 1.4.96.67-.23 1.3-2.14 1.96-.51.58 1.43-.94 2.27-2.21 2.48-1.09.18-2.33-.15-2.48-1.54-.09-.8.47-1.42 1.32-1.38zM753.3 273.52l7 6.5c-4.01-1.2-4.7-1.8-7-6.5m23.48 22.15-2.73-5.43q2.55 1.9 2.64 5.54zM437.65 454.01c0-6.08.03-6.18 2.5-9.95-1.09 2.97-.1 6.37-2.5 9.95m248.48-212.68c4.23-.05 7.96 4.06 7.87 8.65-.07 3.8-3.48 6.54-8.13 6.52a8.2 8.2 0 0 1-8.29-8.34c0-3.7 3.83-6.77 8.55-6.83m-.4 11.65c2.71-.09 4.94-1.53 5.08-3.27.17-2.16-1.46-3.05-3.04-3.9-.42-.24-.9-.4-1.34-.57-2.58-.98-5.12.3-6 3.01-.71 2.19.26 3.54 3.2 4.35.76.22 1.57.28 2.1.38m-6.57 8.75c.78-.8 1.9-.68 2.65-.41 3.77 1.39 6.08-.66 8.4-3.12 1.47-1.56 2.78-3.53 5.43-3.54-1.36 8.6-10.05 12.21-16.47 7.07zm-126.1 320.83a48.5 48.5 0 0 1 13.66-15.34c.5-.36 1.18-.53 1.81-.62 1.69-.27 2.5.78 1.81 2.3a6 6 0 0 1-1.08 1.6 62 62 0 0 1-16.21 12.06zm-130.13-87.22c-2-4.18-1.75-8.79-2.5-13.4 1.35-.08 1.98.63 2.4 1.76.7 1.87.76 3.8.85 5.76.1 1.8.14 3.53 3.07 2.75 2.77-.75 1.92 2.38 2.96 3.58l.08-.14c-2.21-2.04-4.62-1.24-7.03-.46l.16.17zm11.23-28.14c.28 6.72-.43 13.43 1.19 20.5-1.88-.28-2.53-1.4-2.61-2.55-.42-5.63-.48-11.25.69-16.83.09-.4.5-.74.74-1.12z"/><path fill="#000" d="M429.71 495.78c.68 1.35 2.88 1 3.13 3.01-2.65.59-2.45-1.7-3.05-3.14zm-29.5-118.1c.88-2.1 3.24-2.36 4.7-3.75.56-.52 1.47-.97.22-1.7.61-1.22 1.62-1.8 2.71-.88 1.05.88.08 1.79-.57 2.41-2.01 1.9-4.16 3.6-7.06 3.91zm55.88 117.11c.1.58-.04 1.21-.5 1.25-.6.04-1.31-.18-1.4-1.03-.07-.68.07-1.35.85-1.47.96-.14.8.8 1.06 1.25zm40.3-261.54c.22 1.76-.59 2.8-2.23 3.27-1.25.36-2.53.62-3.75 1.04-1.89.65-2.68-.18-3.1-1.93a100 100 0 0 0-4.6-13.85c-2.17-5.5-3.32-11.2-5.1-16.76-.5-1.53-.9-3.16-.98-4.76-.15-3.77 3.91-7.64 7.58-7.45.77.03 1.2.45 1.52 1.03.76 1.43 1.72 2.82 2.17 4.37 2.82 9.5 6.23 18.85 7.32 28.8.22 2.1.77 4.15 1.17 6.24m-7.14 1.27q4.47-1.81 3.87-5.66c-.13-.8-.25-1.6-.46-2.37l-5.85-20.55a337 337 0 0 1-2.43-8.9c-.46-1.81-1.46-1.85-2.9-1.18-1.98.91-1.65 2.3-1.27 4.04 2.48 11.56 7.71 22.37 9.04 34.61zm196.46 17.81c-1.2-.58-1.42-1.38-1.84-2.04-.33-.52-.76-.99-1.25-1.6 1.17-.86 1.9-3.11 3.7-1.77 2.35 1.77.58 3.58-.62 5.41z"/></svg>