<svg xmlns="http://www.w3.org/2000/svg" width="1080" height="1080" fill="none" viewBox="0 0 1080 1080"><path fill="#fff" d="M548.83 618.09a8.4 8.4 0 0 0-6.6 2.95 54 54 0 0 1-19.48 14.23c-4.45 1.9-9.33 2.78-14 4.19q-13.8 4.15-27.59 8.35c-5.07 1.53-10.1 1.68-15.19-.08-.73-.26-2.2.48-2.8 1.2a27 27 0 0 0-6.14 14.82c-.67 7.21-6.68 10.56-12.37 10.57-11.82 0-23.62-1.05-34.83-4.57-7.15-2.25-13.7-6.52-20.34-10.2a299 299 0 0 1-20.38-12.14c-5.77-3.84-7.36-8.58-5.27-15.11 2.78-8.74 6.02-17.32 9.04-25.97 3.08-8.86 6.35-17.66 9.13-26.6 2.02-6.5 3.32-13.21 5.04-19.8 1.17-4.48 1.12-4.86-3.26-5.91-6.28-1.52-12.56-2.93-16.8-8.47-.16-.2-.47-.3-1.08-.64-5.86 6.23-11.8 12.46-17.6 18.8-1.34 1.45-2.76 1.8-4.6 1.75-4.75-.08-5.04-.04-6.08 4.44-2 8.55-4.86 17-3.77 26.02.32 2.62.47 5.26.58 7.9.12 2.67-1.61 3.64-3.78 2.99a19 19 0 0 1-5.77-3.08c-3.38-2.57-6.56-5.4-10-8.27-5.43 8.35-9.13 17.1-12.6 25.95-.22.56-.39 1.14-.64 1.68-2.1 4.55-3.74 4.8-6.74.8-3.15-4.18-6.37-8.34-9.07-12.81-4.2-6.93-6.9-14.48-7-22.68-.06-5 .15-10.04.62-15.02.62-6.48 5.36-10.72 9.06-15.48 1.82-2.34 3.9-4.49 5.52-6.94 2.88-4.3 6.67-7.41 11.92-9.7-6.1-2.7-12.18-5.7-12.09-12.73a24 24 0 0 1 6.3-15.84c-6.51-5.52-3.39-13.77-4.53-21.03-.77-4.83-.5-9.9-.05-14.8.53-5.95 4.84-17.07 13.14-19.01 6.56-1.54 9.86-6.41 11.95-11.87 1.87-4.92 4.29-8.5 9.27-10.54 2.33-.95 3.05-3.17 2.86-6.14-.35-5.73-4.55-8.94-7.43-12.96-3.35-4.67-4.93-9.34-3.01-15.03 3.73-11.07 7.2-22.23 10.9-33.33 1.42-4.31 4.2-6.23 8.94-6.06 3.41.12 6.82.66 10.2 1.2 1.8.29 2.85-.29 3.72-1.81 3.58-6.24 7.4-12.34 10.81-18.67 2.71-5.03 8-7.21 11.53-11.22 3.8-4.32 8.21-4 13.03-2.72.78.2 1.86.17 2.52-.23 3.41-2.02 7.3-3.54 8.91-7.68a3 3 0 0 1 1.1-1.42c6.86-3.97 11.44-10.26 16.11-16.34 3.65-4.74 6.64-9.97 10.1-14.86 1.43-2.03 3.33-3.72 4.67-5.17-3.57-4.74-7.53-9.24-10.6-14.28a41 41 0 0 1-6.26-20.9c-.08-6.72 1.87-13.06 4.46-19.26 4.06-9.73 6.14-20.02 8.65-30.24 3.33-13.47 8.82-26.23 17.4-37.37 4.36-5.65 9.4-10.8 13.38-16.67 3.93-5.77 6.89-12.2 10.38-18.28 2.62-4.54 5.14-9.18 8.24-13.37 2-2.73 5.1-4.62 7.47-7.12 2.47-2.62 5.16-5.24 6.81-8.36 2.73-5.17 6.7-9.04 11.04-12.7 1.6-1.35 3.18-2.73 4.83-4.16 1.63 2.44 3.1.79 4.95-.62 6.88-5.23 13.67-10.65 20.97-15.24 3.44-2.16 7.94-2.7 12.02-3.75s8.77-.91 12.2-2.96c4.88-2.93 9.31-2.8 14.36-1.46 6.2 1.65 12.58 2.64 18.73 4.42C602.63 63.19 609.3 69 614 76.36c3.72 5.81 6.58 12.46 6.27 19.8a18 18 0 0 1-.44 3c-.82 3.78.4 5.8 3.3 8.4 4.07 3.69 8.29 7.49 11.32 12 3.4 5.05 2.7 11.3 2.35 17.22-.47 8.05-4.36 15.19-6.02 22.9a390 390 0 0 0-4.24 23.09c-.6 3.92-.52 7.95-.67 11.93-.25 6.85-1.84 13.34-5.62 19.1-2.06 3.15-1.7 6.8-3.67 9.37 4.16 7 10.13 10.28 8.54 19.8-.86 5.18-1.96 6.89-3.59 12.39 3.51 3.25 6.76 9.96 10.42 13.88 4.6 4.92 13.82 12.45 18.05 17.68 2.05 2.54-4.35 2.93-5.64 5.23-2.87 5.17-6.04 10.16-8.98 15.28-1.45 2.52-3.31 5.06-3.82 7.8-.5 2.8.8.31 1.11 3.26.1.9 4.3-1.52 4.33-.62.44 9.2-3.74 27.27-3.04 36.44.76 10 1.86 19.99 3.1 29.95.49 3.85 1 7.54-.48 11.3-.29.73.19 1.98.67 2.77 3.6 5.82 7.16 11.68 11.03 17.32 1.47 2.14 3.8 3.69 5.63 5.6 6.1 6.32 9.02 13.63 7.25 22.54-1.08 5.36 3.28 11.62 8.4 13.56 10.54 3.98 20.67 9.08 26.45 19.25 3.35 5.88 9.08 7.26 14.03 10.28.95.58 2.05.91 3 1.5 4.51 2.8 4.1 3.79 3.62 8.49-.42 4.2 1.34 7 5.58 7.4.45.04.9.42 1.29.72 7.02 5.38 14.27 10.5 20.94 16.3 3.3 2.87 5.55 6.95 8.15 10.57a39 39 0 0 1 3.16 5.41c2.76 5.54.72 6.84-3.94 9.66-4.08 2.47-8.7 2.28-13.13 3.05-1.48.26-2.99.57-4.48.6-4.55.08-9.26.75-13.6-.18-4.07-.88-7.76-3.51-11.6-5.4-.64-.3-1.19-.78-1.79-1.2-.78 1.5-1.36 3.02-2.3 4.25-.76.99-1.9 2.23-2.97 2.33-5.3.48-10.72 1.62-15.9-.5-3.54-1.44-6.93-3.23-11.33-5.32 1.75 4.96 3 9.2 4.71 13.23a401 401 0 0 0 10.01 22.18c5.03 10.07 7.88 20.88 11.13 31.53 3.83 12.53 7.2 25.24 8.8 38.31.12.9.52 1.75.57 2.65.4 6.4-1.63 9.67-7.97 11.9-8.77 3.06-17.7 5.5-27.02 6.34-7.94.7-16.06.21-23.72 3.04-2.53.93-4.92 2.22-7.38 3.35a34.6 34.6 0 0 1-19.44 2.94c-6.17-.81-12.46-.36-18.7.53-3.34.47-6.88.33-10.24-.14-4.97-.7-9.85-2.04-14.8-2.93-6.59-1.17-11.7-4.94-16.67-9.02-1.33-1.1-2.46-2.48-3.92-3.33-3.25-1.9-3.27-5.87-5.48-8.23-4.2-4.52-3.8-10.4-5.46-15.67-1.21-3.82-3.18-7.53-2.48-11.74.61-3.62 1.38-7.22 2.18-11.4zm-303.62 279c.24-18.31 3.38-34.79 8.56-50.94 2.83-8.82 9.68-12.25 17.98-13.38 5.23-.71 10.6-.79 15.9-.63 3.45.1 6.87 1.1 10.3 1.76a2.5 2.5 0 0 1 1.52.94c1.4 2.21 2.97 1.35 4.59.4 4.37-2.59 8.98-.46 10.66 4.2 2.93 8.12 1.19 16.34 1.08 24.51-.02 1.98-1.03 3.77-3.9 3.42-2.73-.33-5.56.09-8.32-.12-2.24-.16-3.07 1-3.73 2.8-3.97 10.8-8.11 21.53-11.92 32.39a89 89 0 0 0-3.5 13.68c-1.23 6.85-2.45 13.74-2.9 20.67a52 52 0 0 1-4 16.42c-.4 1.01-.75 2.07-1.26 3.03-1.79 3.36-3.98 4.05-7.14 1.87-6.01-4.14-11.09-9.29-14.11-16.02a113 113 0 0 1-8.95-30.7c-.72-5.14-.64-10.4-.85-14.3zm507.92 49.8c-1.62 1.33-1.37 2.44.17 3.73 2.84 2.38 5.5 3.3 9.57 2.42 4.92-1.06 10.25-.18 15.38-.44 2.47-.13 4.89-1.06 7.35-1.46.92-.15 1.94.08 2.86.34 5.48 1.57 10.5.11 15.47-2.13 4.38-1.98 8.73-4.17 13.31-5.54 3.92-1.17 8.16-1.3 13.1-2.03.09 4.54.22 8.65.18 12.76 0 .68-.67 1.54-1.27 1.98-2.1 1.52-4.23 3.1-6.52 4.29-3.04 1.59-4.85 4.14-6.91 6.75a46 46 0 0 1-9.35 8.54 2718 2718 0 0 1-42.94 30.08c-3.7 2.54-7.9 4.37-11.86 6.53l-9.52 5.25c-4.39 2.4-4.79 1.61-8.3-1.84-6.96-6.81-8.77-15.78-9.25-24.33-.52-9.38-4.74-17.49-6.1-26.44a53 53 0 0 0-7.26-19.56c-1.57-2.6-.92-3.46 1.94-4.43.7-.24 1.46-1.28 1.62-2.06.65-3.32 3.15-4.76 5.75-6.18 2.24-1.2 4.4-2.63 6.75-3.59 6.25-2.55 9.58-2.72 14.27 4.68 3.01 4.76 6.32 9.51 11.58 12.68z"/><path fill="#000" d="M429.4 289.75c-4.19-.75-6.75-2.94-8.29-6.25-.75-1.63-1.55-1.61-2.81-.73-2.24 1.57-4.23 3.25-4.13 6.38.05 1.48-.3 3.04-2.03 3.36-1.53.3-2.8-.54-3.63-1.82-1.97-3-3.2-6.18-1.54-10.44-5.09 1.97-9.2-.11-13.34-2.04-6.45-3-14.1 2.51-15.9 9.3-1.1 4.16-.38 8.12.92 12.05.3.9.77 2.01-.36 2.38-.97.32-2.17 1.28-3.24-.05-4.73-5.89-9.28-11.89-8.9-20 .3-6.38 4.02-10.56 9.48-13.27 3.67-1.83 7.56-3.22 11.3-4.9 7.32-3.3 13.51-7.58 17.63-15.04 2.56-4.64 5.65-9.01 7.57-14.03-3.07 2.44-3.36 6.71-6.25 9.36-.25-.77.38-2.53-1.56-1.23-5.54 3.68-12.25 3.83-18.36 5.82-.9.3-1.98.04-3.81.04 3.74-3.72 8.12-5.88 10.38-10.8-5.46 2.57-10.73 3.72-16.33 3.44a24 24 0 0 1-13.06-4.58c-.58-.42-1.63-.83-1.05-1.9a2.4 2.4 0 0 1 2.33-1.27c19.3 2.14 33.81-8 48.04-18.75 3.51-2.65 3.6-3.32 4.55-7.48-1.88.5-2.74 2.14-4 3.17-5 4.1-10.86 6.16-17.07 7.2-9.1 1.54-18.1 4.15-27.42 3.6-5.09-.3-9.94-2.01-14.65-4.03-1.83-.78-2.4-2.23-2.62-4.11a47.4 47.4 0 0 0 21.85 1.32c-3.22-.68-5.71-.86-7.9-1.75-2.5-1.03-5.88-.31-7.25-4.05-.45-1.23-3.4-1.33-4.94-2.5-.73-.54-1.75-.68-2.35-1.98 12.66 4.33 25.42 5.55 39.2 4-6-.6-11.3-.15-16.57-.88-8.27-1.14-16.4-2.86-23.92-6.42-5.2-2.46-8-7.17-8.24-13.06-.1-2.58.86-2.94 3.16-1.95 4.32 1.87 8.66 3.67 12.64 6.21.46.3.94.32 1.56-.18-3.93-2.65-7.98-5.14-10.18-9.52-.96-1.9-1.78-3.85-.6-6.04.89-1.63 1.94-1.84 3.1-.54 8.04 9 18.99 10.33 30.02 11.71 6.6.83 13.42 1.51 19.35-1.25 6.57-3.05 13.12-3.34 19.97-3.2.91.02 1.83 0 2.76-.22-4.93-.25-9.85-.44-14.75-.96-10.41-1.11-19.7-4.52-26.47-13-.81-1.02-2.47-2.4-.94-3.61 1.28-1 3.55-1.53 4.96-.19 6.45 6.18 14.2 4.28 21.77 3.92a82 82 0 0 0 19.86-3.23c7.5-2.28 13.65-6.71 19.02-12.37 10.4-10.94 17.61-24.07 25.48-36.76 5.57-8.98 11.62-17.6 19.06-25.2 2.3-2.34 3.4-5.67 6.3-7.78 4.57-3.34 9.54-5.75 14.99-6.79 3.44-.65 6-2.3 8.62-4.33 11.17-8.68 23.52-14.93 37.66-16.77 17.02-2.21 33.47.37 48.8 8.1 6.46 3.26 12.6 7.37 14.95 15.03.99 3.23 1.37 6.47.3 9.62-.48 1.43-.04 1.77.94 2.27 10.76 5.46 16.08 15.04 19.59 25.95 1.84 5.74 3.47 11.55 3.2 17.68-.22 4.77-.59 10.3-4.17 13.11-5.12 4.03-5.82 9.22-6.96 14.66a655 655 0 0 1-4.08 18.21 14 14 0 0 0-.31 3.35c.05 10.26.67 20.57-3.52 30.34-.4.92.04 1.75.3 2.66 2.03 6.71 6.48 11.82 11.39 16.45 7.66 7.22 12.22 15.86 12.73 26.36.16 3.3-.22 6.75-2 9.78-1.04-.64-1.66-1.3-1.43-2.74 1.27-8.19-1.65-14.85-7.61-20.39-3.47-3.21-6.98-6.4-9.97-10.1-1.05-1.31-2.14-2.7-4.26-3.69 1.64 2.06 2.78 3.86 4.29 5.27 1.86 1.73 1.61 3.68 1.05 5.67-1.05 3.75-2.39 7.4-4.72 10.57-1.18 1.6-.86 2.81.37 4.06 8.96 9.11 16.06 19.78 24.44 29.38.9 1.04.92 1.32-.13 2.73-2.33 3.13-3.4 7.16-5.48 10.51-4.04 6.48-4.81 13.4-5.14 20.93-.8 18.18 1.42 36.18 2.02 54.26.37 11.29 1.92 22.51 3.37 33.67 2.68 20.72 4.54 41.6 9.01 62.07a360 360 0 0 0 10.62 38.79 738 738 0 0 0 13.82 37.49c6.28 15.69 12.82 31.28 18.67 47.13 4.46 12.1 9.37 24.1 11.29 37 1 6.71 1.57 13.46 1.3 20.26-.04 1.18-.7 2.48.99 3.43.66.37.19 1.81-.2 2.84-1.39 3.72-4.35 5.7-7.62 7.48-7.19 3.9-15.12 5.35-22.96 7.05-5 1.09-10.05 1.86-15.3 2.81q3.38 6.52 6.71 13.05c8.81 17.43 16.94 35.14 22.27 54.02 1.47 5.2 3.82 10.1 6.34 14.81 2.74 5.13 3.62 10.72 5.14 16.13 4.8 17.15 10.04 34.2 14.05 51.58 3.33 14.44 6.4 28.95 10.36 43.24 3.68 13.29 7.18 26.63 10.75 39.95 2 7.45 4.9 14.8 5.66 22.38.59 5.87 4.1 10 5.72 15.11.43 1.34 1.06 2.61 1.4 3.96.66 2.69 3.15 2.14 3.93 1.26 2.46-2.8 5.46-1.9 8.17-1.61a97 97 0 0 0 19.47-.2c4.02-.38 7.74-1.97 11.56-3.18 5.65-1.78 11.2-3.86 16.89-5.58 3.7-1.12 7.46-1.4 11.16-2.16 7.6-1.57 13.33 4.3 11.66 11.85a15 15 0 0 1-2.98 5.91c-3.37 4.26-6.58 8.61-10.63 12.39-4.55 4.25-8.88 8.72-13.94 12.37a934 934 0 0 1-16.08 11.3c-6.7 4.62-13.36 9.33-20.2 13.73a103 103 0 0 1-13.8 7.72c-5.33 2.37-10.63 4.83-16.1 6.93-7.05 2.7-9.57 1.97-13.24-4.8a99 99 0 0 1-8.14-20.44c-1.15-4.06-3.1-8.27-2.18-12.26 1.1-4.83-1.12-8.36-2.41-12.4a120 120 0 0 1-2.72-10.66c-.48-2.15-1.48-4.16-1.4-6.5.03-1.36-1.67-1.37-2.46-.93-4.6 2.5-9.7 2.9-14.66 3.07-4.95.18-10.19.4-14.7-2.1a7.1 7.1 0 0 1-3.65-5.36c-.57-3.68-1.95-7.32-2.93-11-1.99-7.38-4.49-14.63-6.88-21.87-3.22-9.75-6.07-19.6-9.2-29.37-2.6-8.18-5.11-16.4-7.98-24.5-2.39-6.7-5.46-13.2-7.47-20.01-1.19-4.05-2.83-7.94-3.9-12.06a150 150 0 0 0-4.02-13.54c-2.12-5.85-2.83-12.04-4.06-18.1-2.28-11.22-5.72-22.17-7.94-33.4-1.02-5.18-2.6-10.3-2.15-15.66.43-5.16-3.18-8.28-5.83-11.82-10.96-14.62-22.04-29.14-33.06-43.71-5.14-6.8-10.22-13.65-15.35-20.46-1.3-1.74-1.59-3 .13-5 3.77-4.37 8.07-8.2 11.53-12.93-2.09 1.85-4.3 3.6-6.24 5.58-5.02 5.15-10.8 9.46-15.68 14.77-3.17 3.44-6.55 6.66-9.15 10.63-.86 1.31-2.42 2.41-3.75 3.5-4.73 3.86-7.7 9.14-11.25 13.93-3.04 4.1-5.72 8.45-8.52 12.73q-5.15 7.9-10.25 15.83c-4.52 6.98-8.85 14.1-13.58 20.94-8.13 11.76-16.14 23.6-24.83 34.95a18 18 0 0 1-6.33 5.52c-2.03 1.02-3.6 3.33-5.5 4.95-5.21 4.44-10.5 8.71-16.4 12.32-3.59 2.2-6.77 5.22-9.77 8.24a262 262 0 0 1-23.06 20.27 185 185 0 0 1-22 15.24 309 309 0 0 0-15.21 9.27c-6.94 4.57-14.19 8.65-20.87 13.62-4.54 3.38-9.39 6.34-14.15 9.42-3.1 2-5.3 4.84-7.62 7.62-1.4 1.67-2.85 3.32-5.4 1.22-1.04-.86-2.84-.75-4.12-1.42-2.69-1.39-4.8-3.49-6.81-5.78-4.4-5.01-7.1-10.83-8.55-17.26-.36-1.55-.8-1.81-2.5-1.47-1.38.27-2.77 1.19-4.34.66-1.28-.43-1.2.89-1.29 1.41-.98 6.55-2.74 12.9-4.6 19.22-.77 2.66-2.82 4.8-3.53 7.58a175 175 0 0 0-3.5 17.36 453 453 0 0 1-2.38 14.26c-1.07 5.88-2.7 11.6-3.96 17.43-1.26 5.77-3.98 10.88-9.08 14.12-3.93 2.49-11-.17-13.35-4.57-.1-.18-.34-.4-.3-.52 1.46-3.73-1.77-5.45-3.39-7.8a73 73 0 0 1-10.26-22.45c-2.05-7.44-3.93-14.95-4.62-22.51-.65-7.33-1.16-14.8-.28-22.27 1.25-10.61 4.33-20.73 7.46-30.84 1.33-4.3 3.25-8.42 4.94-12.6 2.66-6.64 8.46-8.17 14.7-8.82 4.64-.49 9.28-.94 13.97-.95 5.7-.02 11.6.27 15.9 4.14 2.9 2.62 5.02 1.6 7.86 1.11 2.79-.47 4.14-1.99 4.87-4.38.77-2.5 2.97-3.7 4.7-5.25 3.67-3.27 6.12-7.57 9.55-10.96 3.55-3.51 6.59-7.5 10.57-10.62 2.65-2.08 4.91-4.63 7.77-6.53 2.25-1.5 4.22-3.46 6.31-5.2 2.68-2.21 5.33-4.45 8.03-6.63 4.03-3.26 8.02-6.52 12.72-8.91a185 185 0 0 0 18.3-10.45c7.03-4.67 14.1-9.33 21.83-12.82.81-.37 1.87-.19 2.68-.55 4.13-1.84 7.68-4.04 8.76-9.1 1.87-8.85 4.4-17.55 6.73-26.3 2.28-8.55 5.38-16.83 7.82-25.32 1.24-4.31 3.2-8.46 4.5-12.97-4.63-.43-9.13-.18-13.61-.7-15.52-1.82-30.44-5.47-44.31-12.87-8.56-4.57-16.48-10.03-23.38-16.88-1.3-1.3-2.6-2.62-3.67-4.1-1-1.4-1.67-3.04.65-4 .82-.35.9-.99.95-1.75.9-12.78 5.62-24.49 10.35-36.15 3.92-9.65 8.33-19.1 12.37-28.7 1.02-2.4 1.3-5.12 2.2-7.59.62-1.66.04-2.17-1.41-2.5a27 27 0 0 1-7.7-2.83c-1.73-1-3.42-2.09-2.7-4.59-1.91 1.24-3.43.9-5-.32-1.99-1.52-3.41-1.74-5.1.98-3.8 6.13-8.89 11.27-14 16.34-1.08 1.07-1.78 1.64-3.14.05-1.35-1.57-3.63-1.14-5.49-.92-1.37.17-.69 1.67-.83 2.58-1.17 7.16.08 14.42-.87 21.58-.5 3.84.17 7.75-.87 11.56-1.1 4.07-3.22 7.26-7.32 8.77-4.66 1.7-8.06-.5-8.09-5.4-.01-1.89-1.03-2.82-2.2-3.76a17 17 0 0 1-4.34-5.09c-.53-.98-.9-2.25.2-3.03.93-.65 1.94-.64 2.99.4 1.05 1.05 2.66 1.56 3.25 3.12.26.7.99 1.2 1.38.76 3.12-3.3 4.28.25 6.06 1.64.06.05.17.05.61.14-.13-4.01.38-7.93.61-11.86a103 103 0 0 1 2.74-18.78c.51-2.07 1.29-4.1 3.09-5.54 1.16-.91 1.32-1.75-.02-2.89-9.72-8.22-19.83-15.79-32.06-20-1.4-.49-2.23-.61-3.4.6a106 106 0 0 0-18.42 26.73c-2.1 4.27-3.12 8.6-.78 13.27 2.11 4.22 2.26 8.92 2.45 13.54.23 5.97 3.3 10.97 4.99 16.96 2.65-9 2.04-17.85 4.92-26.07.43-1.22.68-3.38 1.87-3.09 1.83.45 1.07 2.49.89 3.98-.89 7.04-2.07 14.05-2.48 21.12-.28 4.74 1.48 9.3 3.66 14.14 2.57-6.52 4.9-12.55 7.32-18.55 2.87-7.16 7.1-13.75 8.79-21.42.2-.9.94-2.64 1.9-2.4 1.35.35 1.4 1.82 1.18 3.35-1.44 9.84-5.03 19.03-8.23 28.34-.98 2.81-2.3 5.51-3.17 8.35-1.3 4.22-4.41 6.83-7.67 9.33-2.3 1.75-5.45.36-6.35-2.92a80 80 0 0 1-1.8-8.98c-.21-1.46-.36-2.58-2.27-2.34a2.3 2.3 0 0 1-1.68-.62c-3.83-3.72-7.6-7.6-8.56-13.1-1.01-5.8-1.65-11.59-3.63-17.26-2.55-7.31.29-14.12 4.04-20.38a118 118 0 0 1 17.43-22.59c-5.77-2.19-6.54-7.16-6.68-12.28-.05-1.53.76-3.15 1.45-4.61 1.22-2.6 2.63-5.12 3.98-7.65.84-1.58 2.5-2.7-.43-4.5-1.77-1.07-1.29-4.29-.24-6.52.36-.76.88-1.4.6-2.29-1.15-3.68-.57-7.55-.94-11.32a161 161 0 0 1-.9-16.9 19.8 19.8 0 0 1 5.25-13.67c5.01-5.6 11.24-9.83 16.81-14.8-.86-2.45-4.2-3.84-2.97-7.24.25-.67-.94-.43-1.46-.62-5.08-1.86-6.21-3.89-4.78-9.2a275 275 0 0 1 17.56-47.43c2.52-5.26 4.88-10.57 6.07-16.34 1.3-6.27 5-9.97 11.43-11.24 5.55-1.1 11.17-1.38 16.74-2.15 2.73-.38 2.56.96 1.66 2.85-4.14 8.69-7.56 17.68-11.14 26.61a7.5 7.5 0 0 0-.7 3.58c1.87-3.61 3.77-7.2 5.56-10.85a4724 4724 0 0 0 16.71-34.32 237 237 0 0 1 11.21-21c5.37-8.82 13.66-13.21 23.44-15.22 2.57-.53 5.24-.82 7.61.9.64.45 1.18.17 1.57-.4a101 101 0 0 1 17.16-18.85zM550.05 186.7c.16-2.09 1.55-3.75 2.01-5.72.44-1.85-.36-3.57-2.22-2.85-4.32 1.66-8.68 2-13.19 1.84-1.7-.06-1.67 1.58-2.06 2.59-.43 1.12.8 1.13 1.5 1.32 2.75.77 5.53 1.06 8.43 1.07 1.84 0 4.54-1.4 5.53 1.74-.51 1.32-1.82 1.77-2.91 1.9-2.6.3-3.77 1.8-4.72 4.04a57 57 0 0 1-6.8 11.57c-1.76 2.38-2.72 4.2-2.12 7.6 2.25 12.82 5.34 25.3 10.93 37.13 2.08 4.4 9.32 8.8 14.32 8.43 1.17-.09 1.42-.17 1.16-1.58-.42-2.28-1.13-4.6-.77-6.98.93-6.01 2.76-11.7 6.61-16.68-2.58-.9-5.08-1.74-7.55-2.65a25 25 0 0 1-7.88-4.68c-1.52-1.31-1.93-3.2-1.1-4.66.87-1.52 2.57-.41 3.86.1 1.04.4 2.05.92 3.07 1.39 14.73 6.6 29.92 10.33 46.15 7.26 4.5-.86 9.18-1.49 11.9-5.98 3.06-5.05 5.92-10.18 7.95-15.75 3.03-8.34 1.65-17.4 4.25-25.8.54-1.75-.75-2.27-2.1-1.79-1.58.56-3.03.6-4.44-.22-1.95-1.14-2.66-2.95-1.58-4.92.88-1.62 1.7-3.85 4.55-2.1 2 1.22 3.7.13 4.1-2.2.22-1.3.17-2.66.48-3.94.87-3.57 2.14-7.11-2.84-8.9-1.42-.5-2.67-2.2-2.17-3.6.56-1.58 2.77-1.24 3.87-.77 4 1.73 4.8-.8 5.73-3.68.49-1.53.42-2.64-.65-3.89-.99-1.15-1.67-2.56-2.5-3.85-2.87-4.44-4.27-9.5-5.84-14.8a86 86 0 0 1-19.48 13.33c-10.1 5.08-20.33 9.8-32.14 8.47-1.14-.13-1.9.4-2.72 1.11-2.62 2.3-5.21 4.66-8.05 6.67-4.97 3.52-9.81 7.43-16.5 7.88 1.47 3.33 1.66 6.92 2.73 10.6 2.53-3.85 5.92-2.46 9.01-2.37l-3.38 1.31c5.3 3.65 5.92 6.98 2.46 10.77-1.39 1.53-3.24 1.53-4.88 2.24zm-8.72 82.27c2.88 5.68 6.41 9.86 9.71 14.24 1.81-1.44 1.9-2.92 1.22-4.91-1.5-4.43-3.22-8.85-3.88-13.5-.58-4.02-2.93-6-6.44-7.64-8.15-3.82-15.8-8.53-22.35-14.83-.6.86-1.12 1.9-1.9 2.67-.55.52-1.28 1.57-2.3.63-3.08-2.88-7.04-4.42-10.43-6.82-11.4-8.04-24.17-9.55-37.42-7.31-11.96 2-22.46 7.75-32.45 14.48-8.56 5.77-10.28 14.09-9.03 23.5.58 4.4 4.08 6.83 6.93 9.82 3.02 3.18 6.17 3.44 10.17 3.16 7.58-.51 15.2-.7 22.82.15 16.29 1.82 32.16 5.32 47.3 11.73 11.4 4.82 21.5 11.33 28.01 22.32.93 1.56 1.97 3.1 1.42 5.75-8.77-8.48-17.3-16.65-29-21.23 3.39 9.06 4.68 18.07 4.93 27.16.34 12.76-2.52 25.07-6.95 36.95-6.06 16.25-14.48 31.19-26.05 44.24-1.08 1.22-2.33 3.59-3.2 3.45-2.57-.4-2.52 1.29-2.99 2.65-6.55 19.06-16.04 36.67-26.56 53.75A102 102 0 0 1 432.95 493c-7.18 6.25-12.06 13.55-12.63 23.52-.44 7.43-1.18 14.95-3.12 22.16-2.77 10.32-9.1 18.01-21.37 15.96-1.73-.29-1.77.88-2.1 1.95-1.45 4.87-3.14 9.63-4.03 14.71-1.82 10.45-6.08 20.23-9.58 30.2-4.13 11.79-8.24 23.57-10.4 36.15 6.15-1.72 12.12-2.87 18.25-2.95 10.66-.13 21.29-.02 31.88 1.73 8.56 1.42 17.23 2.12 25.81 3.43a292 292 0 0 0 29.35 2.83c8.52.43 16.93-.61 25.3-2.37 12.97-2.72 25.53-6.63 37.47-12.44 3.28-1.6 6.6-3.35 7.09-7.75.1-.92 1.14-2.37 2.67-1.2.62.47.74 2.09 1.94.92 1.44-1.4 4.36-.98 4.57-3.9.36-5.04-1.46-9.66-2.81-14.34-3.29-11.34-7.53-22.4-10.44-33.86-2.07-8.17-2.95-16.52-3.67-24.91a108 108 0 0 1 1.16-28.86c1.34-7.3 3.16-14.5 5.13-21.68 5.31-19.42 6.72-39.44 8.73-59.35.95-9.39 2.17-18.73 3.48-28.07 1.68-12.07 3.34-24.17 3.86-36.33.64-15 .35-30.02-1.65-44.98-2.05-15.37-5.9-30.08-13.9-43.54-1.81-3.06-3.36-6.35-2.6-11.08zm-244.8 233.4c0 2.05-.08 4.1.01 6.15.14 3.35 1.07 4.36 4.43 4.27 11.37-.3 21.85 3.08 32.08 7.57 13.9 6.1 26.7 13.63 35.07 26.92.52.83 1.15 1.1 2.08.83 7.62-2.14 15.28-1.39 22.92-.17 4.82.77 8.52-.74 10.94-4.98a26 26 0 0 0 2.83-7.11c1.53-6.94 1.61-14.05 2.36-21.07.97-9.1 4.2-16.69 10.86-23.32 4.6-4.58 8.9-9.64 12.98-14.77 6.29-7.89 11.52-16.46 16.76-25.04a213 213 0 0 0 20.71-44.44c3.76-11.37 6.5-23.04 9.83-34.53 4.45-15.36 7.62-30.99 10.46-46.7.27-1.49.29-3.13-.02-4.6-2.32-11.05-7.4-20.75-14.5-29.46-.78-.97-1.66-1.7-3.06-1.8-7.87-.58-15.74-1.1-23.63-.85-2.88.09-5.73.35-8.6-.31-1.37-.32-2.87-.22-3.93 1.08-7.09 8.64-14.1 17.33-20 26.85-6.45 10.4-11.46 21.55-16.57 32.63-7.13 15.48-14.6 30.78-23.95 45.08a374 374 0 0 1-30.9 41.08c-5.27 6.05-10.7 12.02-16.8 17.22-6.95 5.9-14.34 11.27-21.5 16.92-4.4 3.48-8.66 7.2-9.37 13.2a224 224 0 0 0-1.48 19.35zm319.53-14.73a348 348 0 0 1-3.24-30.9c-.07-1.2.52-2.59-1.8-2.54-5.4.12-8.87-3.06-11.54-7.37-.42-.68-.77-1.54-1.4-1.96-4.21-2.77-6.77-6.3-7-11.65-.23-5.51.2-10.66 3.49-15.34 1.04-1.48 1.96-2.94-.95-4.16-4.72-1.99-7.85-5.68-9.34-10.77-.61-2.08-.13-5.69-2.17-5.87-1.79-.16-3.84 2.57-5.75 4.07-1.2.95-2.4 2.04-4 1.96-4.57-.22-4.57-.27-4.84 4.16-.04.62 0 1.24-.09 1.85-1.76 13.69-3.75 27.35-5.22 41.07-1.26 11.82-2.58 23.62-5.16 35.22-2.32 10.46-5.01 20.84-7.67 31.22-.63 2.46-.43 3.96 2.19 5.04 1.73.7 3.14 2.2 4.2 3.86 4.69 7.32 3.83 18.63-4.47 23.52-2.81 1.66-3.17 3.64-2.73 6.27a172 172 0 0 0 3.95 18.23c3.8 13.42 9.41 26.4 10.22 40.57.06 1.11.73 1.5 1.85 1.6 6.15.56 12.06 2.28 18 3.81a160 160 0 0 0 19.2 3.92c.97.13 2.5.88 2.83-.7.31-1.52 1.13-2.87 1.35-4.36.78-5.15 4.05-8.38 8.32-10.74 1.82-1.01 3.78-1.62 5.18.99.6 1.11 1.87 1.45 3.28 1.03a3.87 3.87 0 0 1 4.74 2.13 4.2 4.2 0 0 0 3.22 2.76c2.5.66 4 2.9 3.8 4.84-.4 3.73 1.28 2.65 3.4 2.37 8.39-1.12 13.14-6.12 15.31-13.95a52 52 0 0 0 1.71-15.83c-.05-1.52-.55-1.82-2-1.87-4.8-.17-11.1-5.92-11.58-10.84-.62-6.35.1-12.6 3.91-17.94 1.46-2.03 1.3-3.52.35-5.48-5.7-11.9-12.67-23.14-17.94-35.26-2.44-5.62-6.57-10.31-9.23-15.85-6.41-13.39-12.04-27.13-18-40.72-.37-.87-.8-1.7.47-2.65zm18.98-167.92c-3.6 2.9-6 6.53-9.06 9.57-5.84 5.82-10.3 12.67-14.29 19.86-.56 1-.69 2-.52 3.21.81 6.09 1.74 12.18 2.1 18.3 1.25 20.81 4.64 41.41 6.1 62.2.79 11.36 2.1 22.68 3.28 34 .7 6.73 1.6 13.44 3.3 20 4.49 17.43 12.65 33.38 20.68 49.3 5.57 11.06 10.47 22.25 13.6 34.22 3.07 11.76 3.32 23.36-1.7 34.7-1.28 2.88-3.03 5.62-3.93 8.62-1.48 4.9-3.97 9.05-8.3 11.63-4.95 2.95-10.51 4.63-16.14 6.03 1.13.25 2.2.32 3.33.04 4.54-1.11 4.56-1.1 6.9 2.96q1.31 2.26 2.58 4.54c.46.82.73 1.4 2.08 1.05 8.51-2.3 17.07-4.39 25.6-6.6.96-.24 2.12-1.13 2.63.13.52 1.27-1.1 1.27-1.8 1.59a182 182 0 0 1-23.59 8.7c-1.64.49-1.95.7-1.17 2.33 2.48 5.22 6.09 9.7 9.04 14.57 3.73 6.13 7.62 6.97 14.11 5.09 10.93-3.16 22.45-3.62 33.57-6.11 2.13-.48 2.83-1.48 2.75-3.28-.25-5.21-.37-10.45-1.46-15.56-2.02-9.5-5.67-18.46-9.16-27.42-6.33 6.73-14.23 10.86-22.79 13.9-4.24 1.5-8.6 2.62-13.2 1.97-1.13-.16-2.97.24-3.06-1.28-.08-1.3 1.04-2.6 2.52-3.14q1-.35 2.01-.67c10.93-3.42 22-6.44 31.96-12.43 1.5-.9 1.47-1.36.93-2.73-4.72-12.05-9.2-24.2-14.07-36.2a984 984 0 0 1-17.32-46.43 460 460 0 0 1-19.94-78.55 1183 1183 0 0 1-6.36-43.14c-1.48-12.01-3.06-23.99-3-36.11.05-8.32 0-16.65.32-24.95.3-7.9.2-15.81 1.48-23.9zm-82.34-57.4c1.96 4.49 3.69 8.5 5.47 12.5.29.64.5 2.2 1.39 1.45 1.8-1.5 4.05-.47 5.79-1.55 2.59-1.63 5.18-1.02 7.72.02 7.86 3.21 9.96 13.98 7.13 21.18-1.44 3.65-4.24 5.68-7.17 7.75-1.64 1.16-2.84 2.26-1.77 4.65 1.12 2.5 1.81 5.2 2.54 7.84 3.6 13.2 6.07 26.66 8.78 40.06 1.42 7.07 1.97 14.31 4.43 21.23.61 1.71 1.55 3.99 1.35 5.75-.83 7.13 1.42 13.72 2.88 20.43.66 3 1.96 5.77 5.56 6.68 1.47.37 2.12.34 2.38-1.16a320 320 0 0 0 2.56-20.07c.6-5.74.43-11.5.8-17.24.36-5.9.85-11.8.44-17.74-.17-2.52-1.54-3.37-3.52-3.16-4.86.53-9.02-.59-11.76-4.76-1.43-2.16-3.14-4.16-3.22-7.22-.1-3.89.1-7.46 1.37-11.25 1.96-5.87 5.52-10.1 11.03-10.96 1.38-.2 1.02-.94.92-1.72-.37-2.74-.56-5.51-1.16-8.2-3.79-16.84-8.74-33.28-18-48.09-.72-1.13-2.1-2.25-.72-3.7 1.37-1.4 3.04-.96 4.53-.19 2.74 1.42 4.59 3.8 6.2 6.31 11.3 17.72 16.33 37.45 18.3 58.1.65 6.73 1.19 13.45 2.31 20.5 2.28-3.16 4.16-6.19 6.46-8.85 7.58-8.74 15-17.53 20.79-27.67 3.23-5.65 6.21-11.64 11.5-16.19-7.71-5.58-13.08-13.37-19.46-20.19-3.35-3.58-6.17-8-10.35-10.37-9.97-5.67-20.48-10.56-32.46-8.33-6.02 1.11-11.86 3.25-17.9 4.95 3 3.68 1.7 8.4-2.49 9.78-4.12 1.37-8.22.61-12.65-.58zM258.76 891.96c-.77-4.29-.09-7.72.32-11.16q1.5-12.52 4.21-24.85a182 182 0 0 1 4.22-15.53c.25-.8 2.05-1.67.72-2.36-.76-.4-2.32.5-3.13 1.54-.44.56-1.06 1.04-1.32 1.68-1.26 3.03-2.62 6.04-3.58 9.17-1.1 3.65-2.16 7.35-3.36 10.93a114 114 0 0 0-4.3 17.45c-.9 5.35-1.3 10.9-1.51 16.44-.27 7.05.64 13.9 1.14 20.81.38 5.23 1.5 10.31 2.75 15.4 1.5 6.17 3.28 12.15 6.27 17.76 2.16 4.04 5.9 5.77 10.03 6.42 4.94.78 9.73-6.13 9.41-10.69-.3-4.53-.3-9.08-.89-13.64a68 68 0 0 1-.12-14.17c.71-8.62 1.95-16.78 7.74-23.63.43-.52.56-1.3.8-1.96.33-.96-.12-1.45-1.02-1.22-3.36.84-6.7.31-10.07.2-1.55-.05-2.97-.57-3.42-1.48-.36-.72.55-2.24 1.91-2.9.92-.43 1.5-.9 2.73-.7 3.36.57 6.82 0 10.22.85.73.18 2.94.8 2.65-1.88-.1-.86.13-2.4.8-3.35.9-1.25.72-1.3-.73-1.24-2.97.12-5.94.85-8.91.05-.88-.24-1.92-.43-1.48-1.75.36-1.1 1.04-.69 1.93-.53 2.94.49 5.95.63 8.89 1.1.73.13 1.03.26 1.34-.5.94-2.31 2.4-4.4 2.99-6.87.17-.72.04-1.46-.67-1.38-1.94.22-3.72-.7-5.51-.7-3.73 0-6.78-2.18-8.63-4.37-1.89-2.26-2.34-6.09-1.26-9.61 2.27-7.48 7.4-12.48 13.72-16.5 1.99-1.26 4.14-2.25 7-3.8-2.7 0-4.56.12-6.4-.01-6.8-.52-13.53.23-20.25 1.04-.8.1-1.87.5-2 1.64-.43 3.7-2.14 7.15-2.76 10.64-.88 4.92-2.54 9.6-3.6 14.45a1153 1153 0 0 1-4 17.66c-.85 3.57-.41 7.45-2.88 11.55zm252.3-757.57c-2.07-.26-4.17-.29-6.13-.81-2.5-.67-3.75 2.05-5.91 1.84-2.08-.2-2.77.52-2.38 2.58.17.88.1 1.88-.14 2.76-1.24 4.44-.73 9.5-5.25 12.74-1.74 1.25-3.76 3.41-3.89 5.28-.14 1.98-.73 3.1-2.05 4.02a8.7 8.7 0 0 0-2.88 3.83c-2.9 6.45-4.03 13-3.45 20.28 1.24 15.46 14.65 22.6 26.23 22.65 12 .05 24.4-8.33 28.54-19.84.3-.86.68-1.28-.37-1.93-2.52-1.55-2.7-4.29-2.01-6.57.6-2.02 1.07-5.36 3.87-5.16 2.43.18 2.15-.34 1.66-1.97-.37-1.27-.52-2.6-.92-3.86-3.32-10.31-10.46-17.11-20.13-21.56a4.3 4.3 0 0 0-.78 2.42c-.03.78.3 1.93-.8 2.05-1.02.11-1.5-.8-1.73-1.82-1.25-5.5-2.34-11-1.48-16.93m316.48 809.14c-1.56-.56-2.27.7-3.37 1.05-5.24 1.71-10.52 3.32-15.65 5.33-7.63 3-15.04 6.67-23.29 7.72a7.9 7.9 0 0 0-6.45 4.51 7 7 0 0 1-.98 1.52c-.3.34-.75.92-1.27.46-.4-.35-.9-.87-.62-1.54q.52-1.27 1.13-2.5c.25-.48.52-1.15-.2-1.18-2.02-.09-4.91-.81-5.91.22-4.27 4.42-9.15 8.28-12.77 13.32-.4.56-.58 1.37-1.6 1.05a10 10 0 0 1 .13-2.95c.84-4.44 3.75-7.6 6.4-10.93.47-.6 1.27-1.19.85-1.95-.92-1.68-5.79-2.08-6.73-.57-4.38 7.1-9.49 13.81-10.88 22.42-.32 2-1.98 3.37-4.45 3.52-5.07.32-9.97 1.34-14.49 3.9-1.21.69-1.62 1.33-1.2 2.6 2.45 7.32 4.7 14.7 7.4 21.92.92 2.44 1.06 5.38 3.3 7.26 4.73-3.77 10.17-6.27 15.44-8.78 7.5-3.56 14.14-8.43 20.9-13.02 6.33-4.28 12.62-8.7 18.97-12.94 5.51-3.69 11.07-7.34 16.13-11.53 5.83-4.82 11.4-10.07 15.95-16.2 2.08-2.81 4.06-5.7 4.47-9.95-11.49 11.4-25.04 19.09-37.85 27.83-12.88 8.79-25.3 18.25-38.83 26.06 23.1-21.64 49.6-38.68 75.47-56.64zM619.2 88.42a22 22 0 0 0-5.35-9.38c-7.87-8.2-17.6-12.91-28.6-15.12-10.4-2.1-20.8-2.86-31.34-.42-8.49 1.97-16.01 5.97-23.52 10.05-8.5 4.63-16.2 10.3-21.84 18.48 5.82-.84 11.62-.85 17.13.9 3.16 1.02 4.83.11 7.35-1.67 14.95-10.58 31.66-15.9 50.07-14.94 8.2.43 16.55 1.36 23.47 6.29 3.77 2.68 7.75 4.38 12.62 5.82zM292.91 532.53c20.95 7.28 39.55 17.53 54.53 33.91 4.1-6.32 9.28-11.17 14.58-15.9 1.28-1.12 1.26-1.71.1-3.03-7.6-8.68-17.02-14.93-27-20.47-1.68-.93-1.97.06-2.56 1.2-2.24 4.3-4.7 8.46-8.42 11.79-.97-1.3-.56-2.26-.06-3.15 1.86-3.32 3.53-6.78 5.74-9.86 1.32-1.85.73-2.4-.87-3.03-2.74-1.08-5.6-1.94-8.2-3.29s-3.86-.84-4.85 1.9c-1.08 2.97-2.54 5.84-5.1 7.93-.38.31-.79.71-1.35.5-.86-.32-.52-1.04-.38-1.58.5-1.86 1.08-3.7 1.63-5.57.5-1.65 1.25-3.28 1.42-4.97.2-1.97-2.02-1.47-2.74-1.49-2.23-.06-5.2-2.77-6.5-.32a110 110 0 0 1-9.96 15.42zM502.58 129.9v-.01c.42 0 .83-.03 1.24 0 8.92.7 15.65-2.41 19.19-12.97 1.1-3.3 2.16-6.52 5.15-9.12 3.44-3 1.87-7-2.53-8.3-6.9-2.04-13.97-1.8-21.03-1.8-1.26 0-1.81.79-2.5 1.53-7.29 7.94-10.25 17.8-12.44 28q-.61 2.73 2.25 2.68c3.56-.04 7.12-.01 10.68-.01zm236.37 806.78c-1.28.18-2.5.3-3.7.54-6.23 1.18-12.26 2.92-17.5 6.67-1.62 1.16-3.09 2.67-1.82 4.8.97 1.65 1.47 3.5 2.1 5.2a415 415 0 0 1 7.82 23.5c.53 1.76 1.02 1.84 2.4 1.2 3.1-1.4 6.16-2.96 9.75-2.59 1.34.14.97-.94 1.03-1.72.21-2.6.43-5.13 1.78-7.55a36 36 0 0 1 9.9-11.65c.4-.29 1.43-.33.54-1.65-3.55-5.33-8.07-10.06-10.48-16.13-.36-.9-1.24-.5-1.83-.62zM379.07 641c-2.78-.63-5.45.56-8.23.59-.66 0-1.45.27-1.7 1.08-.23.81.22 1.39.84 1.83 9.52 6.97 19.37 13.38 30.47 17.55 12.91 4.85 26.02 8.87 39.97 9.5 4.67.2 4.72.61 5.88-3.39.3-1 .47-1.73-1.16-2.03a52 52 0 0 1-11.52-3.32q-22.58-9.8-45.18-19.58c-2.99-1.3-5.84-3.1-9.37-2.24zm-69.32 193.7c-1.36.41-2.02 1.21-2.86 1.71-7.41 4.39-14.98 8.85-17.2 18.1-1.28 5.33-1.04 8.22 5 9.44 4.1.82 8.05-.16 12.07-.05.52.02 3.35 0 1.9-2.62a9 9 0 0 1-.68-3c-.47-7.84-.17-15.64 1.77-23.58m231.63-584.28c-6.85-12.36-11.7-24.47-12.11-38.58-1.36 1.7-3.57 1.73-3.41 3.87.54 7.69-1.2 14.93-4.02 22-.26.65-.77 1.19.3 1.68 6.48 2.9 12.03 7.43 19.24 11.03m28.75 119.45c1.98-.8 3.82-.42 5.59-1.1 1.33-.52 1.76-.62 1.44-2.39-2.01-11.34-4.8-22.5-7.14-33.77-1-4.74-2.44-9.39-3.68-14.07 2.67 16.94 4.35 33.9 3.78 51.33zm-227.5 4.4c1.72.33 3.58-.46 3.83-2.48.27-2.19-1.8-3.01-3.65-3.35-1.36-.25-4.83 2.85-4.48 4.16.48 1.82 2.38 1.6 4.3 1.67m-6.58 13.58c1.96.21 3.42-.91 5.02-1.48.84-.3 1.4-1.4 1.28-2.25-.1-.75-1.15-.99-1.9-1.16a5.6 5.6 0 0 0-5.3 1.38c-1.01.88-1.52 1.58-1.26 2.75.3 1.38 1.52.52 2.17.76zm76.45-121.1a98 98 0 0 1-19.23 7.52c5.72.74 14.8-3.1 19.23-7.52m159.2-154.97c7-4.2 14.46-7.45 21.62-11.27-8.1 2.05-14.98 6.46-21.61 11.27M331.2 400.1c-1.34.96-4.15-.17-4.7 2.06-.76 3.02 2.45 1.24 3.62 2.21 1.3 1.07 2.16-.59 3.05-1.34.59-.5 1.2-.97.7-2.03-.59-1.26-1.6-.5-2.68-.9zm203.63-250.37c7.55.08 13.47-4 19.52-7.77-6.46 2.7-12.73 5.94-19.52 7.77m73.5 253.03a35 35 0 0 1-1.95 7.18c-1.42 3.92-1.21 4.23 3.16 4.31zM471.9 139.45l8.26-14.81c-3.65 1.84-8.75 11.18-8.26 14.81m-7.93 82.83c1.31-8.58 4.94-15.13 10.13-20.92-5.02 2.55-10.66 13.9-10.13 20.92m148.1 221.22c-1.62 2.62-4.23 2.35-6.73 2.95 2.03 1.71 4.23 3.66 6.31 2.92 1.43-.5.45-3.5.42-5.87M473.6 220.82c1.46-2.61 3.47-4.74 5.2-7.15-3.67-.34-6 2.66-5.2 7.15m139.81 15.24 2.39 9.98c.2-3.55.08-7.02-2.39-9.98m-62.2-82.69c1.71-.68 2.95-2.02 3.97-3.55.23-.35-.29-.85-.7-.68-1.65.68-3.36 1.39-4.1 3.22-.2.5.05 1 .84 1.02zm32.84-42.97c2.88-1.02 4.77-2.52 6.72-3.93-2.52.34-4.81 1.1-6.72 3.93m33.24 124.74c-.37 2.57.74 4.36 1.49 6.81q.48-4.78-1.5-6.8"/><path fill="#000" d="M759.6 547.04c.88 4.8-1.22 7.3-6.01 7.25-.1 0-.22.04-.31 0-7.14-2.95-13.35.58-19.32 3.38-8.2 3.85-14.57 1.37-20.64-4.06-.83-.74-1.69-2.01-2.74-.63-2.87 3.74-6.6 3.17-10.23 2-1.75-.58-4.92-.74-4.62-3.06.19-1.47 3.37-1.53 5.19-1.28 3.67.5 4.86-1.15 6.1-4.43 3.37-8.88 6.44-17.83 7.76-27.23 1.09-7.72 1.08-15.54.78-23.35-.2-5.29-.09-5.29-4.94-6.9-1.25-.42-2.5-.83-3.71-1.33-1.2-.5-2.36-1.1-3.84-1.8 1.73 7.58-1.53 14.12-3.09 21.19 2.5-.32 4.8-.25 6.71 1.31-.85 2.45-2.6 3.25-5.04 2.87-2.23-.36-3.18.42-3.6 2.86-.36 2.03.14 4.37-1.52 6.29-2.82-2.38-2.2-5.58-1.88-8.5a136 136 0 0 1 5.22-25.01c.29-.94.46-2.21.06-3.02-3.95-7.95-8.27-15.68-17.32-18.88-3.83-1.36-7.86-2.1-11.57-3.87-6.32-3.03-9.6-8.36-11.48-14.76-.6-2.06 0-4.12 1.49-5.65 1.36-1.4 1.4-2.65.77-4.42-1.15-3.25-3.42-5.7-5.26-8.48-2.29-3.44-5.39-6.57-4.77-11.27.15-1.13.18-2.54 1.25-2.88 1.55-.5 1.56 1.24 2.03 2.12 3.1 5.86 7.97 10.41 11.68 15.83 3.4 4.96 4.61 9.89 2.82 15.63-.86 2.76.36 4.7 3.5 5.75 4 1.33 8.19 1.95 12.13 3.5 3.87 1.5 7 4.07 9.4 7.28 3.9 5.24 7.98 10.48 9.45 17.09.32 1.45.98 1.89 2.41 2.08 4.7.66 9.05 2.83 14.02 2.59 2.3-.11 3.63 2.32 4.26 4.7 1.14 4.3 1.5 8.7 1.32 13.11-.06 1.84.46 2.47 2.23 3.26 12.66 5.65 23.1 13.88 29.38 26.61.8 1.62 1.22 3.43 1.76 5.17.68 2.15.75 4.29 2.5 6.3 2.23 2.53-.95 2.24-2.33 2.63zm-1.38-6.57c-7.48-13.25-19.18-21.87-32.04-29.64-.33 1.45-.68 2.44-.77 3.45-1.02 11.13-4.37 21.54-9.34 31.52-.62 1.23-3.18 2.3-1.43 3.96 1.03.99 2.98 1.12 4.57 1.36 1.08.17 2.25-.04 3.36-.24 3.71-.69 7.5-1.14 11.1-2.24 4.77-1.46 9.26 1.5 14.13.22 3.96-1.05 4.35-.83 2.53-4.65a5.6 5.6 0 0 0-3.24-3.08c-1.8-.66-3.66-1.32-4.87-3.06-.64-.93-2.55-1.31-1.71-2.83.8-1.44 2.3-.72 3.59-.43 5 1.08 9.44 3.46 14.12 5.66m-107.8 484.14c-3.41.68-8.07-1.46-12.9-2.11-6.8-.91-13.57-.2-20.33-.58-4.16-.24-8.36-.52-12.32-1.96-1.75-.63-3.76-1.07-4.46-3.38-.45-1.46-1.97-.77-2.99-.78-7.68-.06-15.28-.63-22.61-3.14-2.1-.72-4.24-1.43-5.57-3.51-.63-.99-1.4-1.88-.7-3.03.72-1.2 1.97-.93 3.07-.71 3.7.72 7.42 1.24 11.14 1.81 5.04.77 10.05.35 15.08.52 1.24.05 2.6-.13 3.4.98 2.83 3.87 7 3.56 10.87 3.21 11.33-1.02 22.43-.43 33.48 2.54 9.51 2.55 19.34 2.01 29.08 1.92q.77-.01 1.54-.07c1.82-.1 2.59 1.32 3.02 2.59.59 1.78-1.23 1.92-2.26 2.22-8.14 2.29-16.5 3.02-26.54 3.48m-251.35-38.48c-2.67 5.97-8.45 8.89-14.47 7-3.33-1.05-6.1-1.26-9.28.9-4.14 2.8-8.36 1.85-11.73-1.91-1.15-1.3-2.1-1.25-3.45-.47-2.1 1.2-3.89 3.02-6.34 3.59-.67.15-1.58.41-1.96-.33-.22-.42 0-1.22.25-1.74 1.62-3.29 7.42-6.33 11.08-5.85 2 .25 3.7.87 4.81 2.8 1.1 1.9 2.6 2.58 4.81 1.16 3.36-2.15 7.2-2.77 10.89-1.27 4.75 1.93 8.48.44 12.21-2.37.87-.66 1.7-1.86 3.18-1.52"/><path fill="#000" d="M700.2 524.6c1.94.77 4.4 1.38 6.08 3.44.73.9 1.03 1.82-.33 2.44-2.13.98-6.95-1.25-7.8-3.59-.66-1.8-.28-2.33 2.05-2.3zm4.36 11.9c-3.83.65-7.4.14-11.16-1.96 4.76-2.68 7.68 1.04 11.16 1.96m-291.98 62.31c15.92.32 30.16 3.71 44.18 8.27 9.65 3.13 19.46 5.65 29.67 5.28 13.14-.5 25.83-3.5 38.16-8.03 1.01-.37 1.86-1.21 2.9.15 1.44 1.85.36 2.67-1.08 3.58-7.44 4.7-15.68 7.51-24.04 10-7.42 2.23-15 3.42-22.78 2.76-10.6-.9-20.57-4.45-30.66-7.46-16.06-4.79-32.41-7.34-49.2-6.46-3.16.17-6.3.82-9.45 1.2-.62.07-1.4.8-1.88-.23-.33-.73.06-1.34.44-2 1.87-3.28 5.3-4.14 8.46-5.02 5.32-1.47 10.85-1.87 15.28-2.04m97.29-92.27c-.12 3.81-3.01 5.6-4.86 8.04-.95 1.25-3.1 1.9-1.83 4.27.36.66-.67 1.72-1.54 1.28-1.86-.93-2.74.54-3.63 1.4-14.68 14.18-30.92 26.3-48.31 36.9-1.43.87-1.27 1.51-.73 2.6q1.68 3.47 3.38 6.92c.64 1.28 1.79 2.85.17 3.8-1.44.84-3.23 1.67-5.17.6-1.67-.92-2.37-2.5-3.32-3.94a17 17 0 0 1-1.05-1.86c-3.96-8.1-3.3-6.35 2.75-11.53 1.22-1.05 1.5-1.63.7-2.95-2.42-3.96-3.13-8.4-3.07-12.92.08-5.3-.57-10.64.94-15.9 3.11-10.87 10.91-16.15 21.36-18.44 6.42-1.4 12.81-2.11 19.27-.05 3.9 1.24 6.72 4.09 10.02 6.22.17.11.3.28.45.41 2.3 2.07 4.48 2.93 7 .13a17.4 17.4 0 0 1 7.47-4.97zm-14.08 10.32c-3.16-1.86-5.64-4.45-8.9-5.99-6.92-3.25-13.77-1.64-20.59.15-7.24 1.9-13.09 5.72-15.93 13.03-3.43 8.82-2.31 17.83-.83 26.83.25 1.48 1.18.32 1.5.11 2.2-1.48 4.32-3.1 6.5-4.64a628 628 0 0 0 38.25-29.5zm48.4-157.8c.27 15.98-3.3 31.4-7.03 46.77-3.32 13.7-7.72 27.16-10.1 41.08-.7 4.11-1.48 8.25-1.47 12.46 0 .73.06 1.46-.06 2.16-.24 1.54-.77 3.7-2.18 3.67-2.1-.04-1.38-2.35-1.43-3.75-.57-16.86 2.7-33.27 6-49.66 3.12-15.41 7.14-30.65 9.23-46.26.89-6.6 1.35-13.25 2.1-19.87.17-1.57-.17-4.19 1.73-4.2 2.07-.03 2.09 2.68 2.5 4.4 1 4.34.61 8.78.7 13.2zm-22.95 40.05c-1.15 5.07-2.89 10.23-4.64 15.4-3.45 10.14-6.8 20.32-9.52 30.69-.24.94-.1 2.5-1.3 2.24-1.22-.26-1.9-1.43-1.6-3.15a250 250 0 0 1 8.3-32.53 87 87 0 0 1 5.55-13.57c.5-.92.96-1.66 2-1.5 1.18.17 1.25 1.18 1.2 2.42zm-159 129.96c1.08-8.97 1.6-18.07 5.67-26.4 1.73-3.5 3.85-6.8 7.42-8.72 2.67-1.45 4.1-.76 5.06 2.1 1.15 3.41-.22 6.46-1.51 9.4a37 37 0 0 1-6.8 10.55c-2.67 2.83-3.03 6.14-3.56 9.51-.2 1.3-.52 2.61-.62 3.92-.2 2.48-1.1 5.03-3.62 4.78-2.4-.24-1.77-3.2-2.04-5.15zm13.3-29.62a26.4 26.4 0 0 0-4.43 12.99c2.37-3.71 4.18-7.62 4.42-13m57.36-181.49c15.07 1.86 30.25 3.28 44 10.6 2.81 1.5 5.3 3.5 7.7 5.62.79.7 1.08 1.64.66 2.5-.45.9-1.25.28-1.86-.03-12.8-6.48-27-8.24-40.64-11.87-3.92-1.05-7.93-1.86-11.61-3.66-1.08-.52-3.02-.7-2.49-2.5.4-1.32 1.98-.42 3.01-.64.39-.09.82-.01 1.23-.01zm-54.4 141.6c10.08 16.88 16.12 35.2 19.46 54.5l-1.52.54c-3.94-19.1-14.06-35.95-19.63-54.46q.85-.3 1.7-.57m216.91 25.69c-1.01 4.77-2.17 10.05-7.45 13.15-1.57.91-2.93 2.16-4.43 3.2-4.27 2.96-8.6 2.31-12.62-1.14-2.66-2.27-5.34-4.4-7.46-7.26-.75-1.02-1.32-2.24-1.1-2.93 1.45-4.73 1.2-10.12 4.53-14.13 3.37-4.02 8.16-5.8 13.17-6.53 7.87-1.16 12.44 2.37 14.3 10.35.36 1.57 1.1 3.05 1.07 5.3zm-11.03 112.99c-5.82-.26-9.27-4.23-12.74-8.17-.19-.21-.16-.66-.37-.8-3.93-2.72-2.53-5.89-.81-9.1.81-1.55.52-3.34.91-5 .9-3.87 3.72-5.7 6.48-7.7 3.35-2.41 7.53-2.77 11.34-3.67 4.76-1.12 10.64 5.24 11.7 10.4.56 2.79.77 5.23.5 8.08-.53 5.66-3.93 8.83-8.21 11.65-2.74 1.8-5.03 4.5-8.8 4.31m13.56-67.62c.84-6.4 1.88-12.7 7.6-17.02 2.97-2.24 5.28-2.22 8.04.45.72.69 1.48.59 2.27.63.83.04 2.18-.28 2.4.09 2.45 4.24 9.12 4.47 9.67 10.87.22 2.58 2.24 5.08 1.01 8-.43 1.03-.71 2.2-1.39 3.05-2.77 3.5-6.45 6.26-10.03 8.58-6.6 4.29-17.33-1.29-18.89-9.12-.35-1.8-1.04-3.58-.68-5.53m1.43-374.76c-5.6-1.59-12.07.11-18.52-.02-1.09-.02-2.77.82-3.13-.96-.35-1.73.47-3.12 2.2-3.95 3.09-1.5 6.46-2 9.75-2.36 3.63-.4 7.3-.75 11-.2 2.34.34 4.8.34 4.94 3.38.11 2.64-2.08 4.14-6.24 4.1zm22.73 34.7c-.48 1.89-1.05 3.6-2.98 4.42-2.32 1-4.61 2.37-7.22.9-1.07-.61-1.42-1.47-.37-2.48q.77-.75 1.52-1.53c2.85-2.9 2.78-2.76-.74-4.7-1.49-.82-4.14-1.9-3.47-3.65.87-2.28 3.37-.87 5.1-.35a13.2 13.2 0 0 1 6.8 4.43 6 6 0 0 1 1.36 2.96m-31.65-19.12c.13 2.44-2.56 6.64-4.5 7.49-2.37 1.02-3.15-.29-3.23-2.15a14.2 14.2 0 0 1 2.4-8.88c.77-1.12 1.82-1.98 3.2-1.91 1.66.08 1.28 1.8 1.87 2.75.57.9.04 1.82.26 2.7m7.19 39.53c1.79-.29 3.67.16 5.53.67.73.2 1.87.3 1.97 1.09.1.82-.46 1.72-1.22 2.31-2.08 1.63-9.6 2.01-11.82.67-.75-.45-1.09-1.14-.76-1.78.62-1.21 1.01-2.8 2.76-2.94 1.11-.1 2.25-.02 3.54-.02m-41.04-22.73c.64-4.05 1.18-7.73 1.82-11.4.18-1.06.5-2.85 1.56-2.62 1.5.33.85 2.03.62 3.18a193 193 0 0 1-1.72 7.75c-.29 1.14-.53 2.4-2.28 3.09m-32.86.16c0-2.36-.07-4.72.02-7.08.25-6.78-9.47-20.78-18.15-21.63-2.75-.27-5.53-.19-8.28-.66-1.28-.23-3.34-.06-3.44-1.16-.17-1.8 1.91-2.21 3.37-2.47 13.97-2.46 19.02-.27 26.37 12.11 3.98 6.72 2.06 13.9.11 20.9m-25.95 3.98c-2.76.07-5.23-.66-7.26-2.61-.75-.72-1.14-1.58-.51-2.45s1.52-.36 2.2.03c1.85 1.04 3.6 1.77 5.64.32 1.38-.98 2.97-.7 4.3.17.91.58.7 1.72.35 2.53-.7 1.59-2.14 2.07-3.8 2zm6.3-14.61c-.33-2.45.81-3.4 1.97-3.17 2.51.49 2.37 3 2.73 4.87.18.96-.3 2.65-1.7 2.24-2.18-.63-2.53-2.89-3-3.94m-15.1 2.3c-.1 1.02-.52 1.64-1.53 1.69-1.2.05-3.41-2.56-3.3-3.86.05-.79.39-1.66 1.19-1.41 1.8.55 3.3 1.59 3.65 3.58z"/><path fill="#000" d="M473.8 521.38c1.35 0 2.65.08 3.12 1.53.57 1.75.98 3.6-.36 5.23-2.41 2.94-5.9 4.04-9.37 4.79-2.55.55-4.4-2.9-2.93-5.42 2.1-3.65 5.46-5.52 9.53-6.13m.69 5.17c-3.77-.34-6.22 1-8.3 3.26 3.13.28 5.67-.84 8.3-3.26m-18.8 6.37c-.1.96-.7 1.8-1.54 1.48-1.87-.72-2.32-2.6-2.7-4.34-.2-.9.38-1.85 1.3-1.63 2.27.54 2.17 2.84 2.94 4.49m22.72-16.98c1.08.13 2.55.19 2.53 1.56 0 2.03-2.05.84-3.07 1.4-.83.47-1.93-.41-1.89-1.35.05-1.3 1.1-1.82 2.43-1.61"/></svg>