<svg xmlns="http://www.w3.org/2000/svg" width="1080" height="1080" fill="none" viewBox="0 0 1080 1080"><path fill="#fff" d="M331.12 999.28c-.24 3.1-.34 5.6-.69 8.06-.1.71-.79 1.56-1.44 1.9-2.73 1.42-3.44 3.84-3.31 6.55.2 4.42-1.88 7.38-5.37 9.81-10.3 7.21-21.64 11.5-34.04 13.61-11.25 1.9-22.33 4.71-33.52 6.93a70 70 0 0 1-10.96 1.17c-3.3.13-5.43-2.07-5.83-5.46-.1-.78-.01-1.59-.01-2.97-14 9.9-30.37 12.54-45.7 17.93-3.26 1.14-6.79 1.96-9.65 3.77-4.37 2.77-8.51 2.08-12.62.22-6.3-2.85-12.42-6.08-18.61-9.15-3.02-1.5-4.15-4.38-4.23-7.3-.24-8.84-.3-17.69.03-26.53.13-3.35 1.18-6.8 2.42-9.97 2.11-5.41 4.58-10.7 7.14-15.92 1.85-3.8 4.82-6.53 8.38-9.01 6.18-4.29 11.96-9.2 17.7-14.08 13.25-11.3 26.53-22.54 42.71-29.6 3.65-1.59 7.3-3.15 10.93-4.77 2.85-1.27 3.4-2.7 2.36-5.77-.35-1.03-.7-2.07-.87-3.14-.54-3.29.3-5.95 3.03-8.2 6.4-5.3 12.39-11.08 18.94-16.14 5.22-4.04 11.01-7.36 16.59-10.93 1.66-1.07 2.84-2.25 2.98-4.4a3.4 3.4 0 0 1 1.48-2.28c8.93-5.35 17.9-10.66 26.95-15.81.84-.49 2.46-.11 3.45.39.55.28.58 1.64.8 2.52.12.49 0 1.1.25 1.47 3.62 5.14 7.13 10.37 10.99 15.33 3.51 4.5 7.54 8.62 11.12 13.08a664 664 0 0 1 17.12 22.06c1.86 2.54 4.35 2 6.6 2.3a202 202 0 0 0 18.54 1.78c4.28.17 8.59-.46 13.55-.77-2.27-3.26-4.09-6.5-6.5-9.22-12.68-14.32-20.46-31.09-25.12-49.44-2.29-9-5.15-17.94-6.47-27.09a83 83 0 0 1-.15-23.2 442 442 0 0 1 7.96-40.62c2.33-9.7 5.92-19.1 9.1-29.1-3.98.72-7.72 1.23-11.39 2.11-4.49 1.08-10.29-2.78-9.9-7.4.41-4.8 1.7-9.53 2.85-14.24 1.1-4.49 2.5-8.91 3.78-13.4-6.39-.95-12.7-1.75-18.98-2.86-4.87-.87-9.68-2.13-14.53-3.18-.75-.17-1.77-.55-2.26-.22-3.98 2.73-8.46 1.79-12.63 1.43-5.87-.48-11.82-1.33-17.44-3-6.81-2.04-13.6-4.52-18.46-10.37-1.75-2.12-1.84-4.34-1.73-6.74q.32-6.07.67-12.15c.12-2.08-.09-4.24.42-6.22 1.18-4.58-2.11-6.98-4.31-10-3.63-4.99-7.17-10.05-10.73-15.08-.28-.4-.37-1.09-.73-1.25-6.78-3.12-2.68-9.08-3.49-13.72-.11-.66 1.9-1.5 2.24-2.48.68-1.94.96-4.03 1.25-6.08 1.24-8.47 2.21-16.99 3.7-25.42q3.68-21.15 7.97-42.2a219 219 0 0 1 5.76-22.37q7.26-22.74 15.2-45.25c3.86-10.98 8.27-21.77 12.35-32.67 5.37-14.34 11.96-27.98 22.06-39.72 4.45-5.17 8.32-10.85 12.96-15.83 8.17-8.76 18.25-14.77 29.3-19.3 12.26-5.02 25.17-7.7 38.17-8.93 14.42-1.37 29-1.16 43.5-1.29 5.08-.04 10.32.36 15.2 1.62 5.06 1.3 9.85 3.77 14.63 5.99 2.74 1.27 5 1.32 6.36-1 7.3-12.42 17.93-21.9 27.78-32.14 5.9-6.14 10.92-13.12 16.53-19.56 3.26-3.74 3.81-8.4 4-12.8.13-3.25-1.69-6.63-2.82-9.9-3.11-9-6.36-17.99-12.6-25.38-4.24-5-8.77-9.77-13.41-14.39-7.83-7.78-12.42-17.04-11.62-28.08 1.16-16.21 7.44-30.65 16.81-43.88 12.75-18 29.73-30.22 50.6-36.96 4.85-1.57 10.13-2.18 15.26-2.5 7-.4 14.14-.83 21.05.07 8 1.03 15.93 3.07 23.66 5.42 13.04 3.98 25.88 8.55 38.81 12.87 4.75 1.58 9.52 3.08 14.24 4.7 6.53 2.24 11.82 6.44 16.73 11.11 4.12 3.93 8.26 7.9 11.98 12.19 2.64 3.04 4.6 6.66 7.18 10.5l2.28-18.6c3.24.44 3 3.5 3.15 5.42.4 5.2-.43 10.52.27 15.65 1.2 8.82-1.85 16.96-3.42 25.26-1.19 6.32-4.35 12.26-6.65 18.37-.1.28-.2.66-.43.79-5.1 2.9-4.36 8.8-6.68 13.11-1.44 2.69-2.37 5.64-3.72 8.38-.5 1.02-1.55 1.76-2.83 3.16 3.9 1.61 8.07 3.28 12.2 5.06 4.54 1.97 9.52 3.06 13.2 6.8 2.54 2.6 2.7 5 .05 7.5-3.2 3.02-6.53 5.92-9.7 8.97-4.14 3.97-5.17 9.54-6.65 14.64a122 122 0 0 1-11.1 26.18c-.82 1.46-2.07 2.68-3.14 4-.57.71-1.4 1.3-1.7 2.1-1.21 3.27-4.05 6.98-7.49 6.64-.54-.05-1.14-.22-1.64-.08-7.85 2.2-15.7-1.55-23.57-1.58-9-.03-18.05-.14-27 .7-3.22.3-6.54 2.8-9.21 5.03-5.75 4.8-11.1 10.08-16.61 15.17-1.1 1.02-1.83 1.82-1.46 3.8 2.58 13.73 7.13 26.9 10.88 40.3 3.63 12.96 4.28 26.07 7.72 39.08 3.94 14.97 14.04 28.04 22.94 40.58a613 613 0 0 1 21.7 33.16 159 159 0 0 1 10.82 20.67c3.32 7.73.75 16.05-.52 24.17a199 199 0 0 1-3.77 19.43c-4.03 15.52-7.4 31.27-14.64 45.78-1.26 2.52-.69 5.05-1.8 7.63-.33.8-.51 1.95-.18 2.67 2.05 4.45 4.28 8.83 6.43 13.24.7 1.41 1.33 2.86 2.3 4.98 13.77-6.87 27.39-13.57 40.9-20.47 15.73-8.03 31.1-16.81 47.13-24.2 12.73-5.85 26.17-10.23 39.38-15 9.7-3.51 19.88-4.9 30.07-6.25 13.78-1.82 26.4 1.29 38.35 7.88 5.8 3.2 11.67 6.4 15.6 12a134 134 0 0 1 12.6 21.74c1.28 2.88 2.18 6 2.85 9.08 1.57 7.17 2.78 14.42 4.36 21.59 1.4 6.34 3.27 12.58 4.61 18.93 2.25 10.67 4.38 21.36 6.29 32.09a334 334 0 0 1 3.65 24.7c1.2 11.8 2.1 23.66.62 35.56-.97 7.78-2.08 15.46-5.3 22.75a17 17 0 0 1-8.07 8.45c-8.55 4.46-17.51 7.4-27.25 8.04-7.1.46-12.82 3.67-16.15 10.23-3.5 6.92-6.72 13.98-10.28 20.87-3.92 7.56-7.63 15.3-12.26 22.4-5.08 7.78-7.53 16.37-9.65 25.14a367 367 0 0 0-4.18 20.36c-.61 3.35-.64 6.42 2.65 9.1 4.76 3.87 8.8 8.58 13.37 12.7a692 692 0 0 0 20.06 17.46c5.62 4.68 11.22 9.45 17.29 13.5 5.32 3.54 11.16 6.42 17.02 9.05a78 78 0 0 0 13.43 4.36c13.53 3.3 23.91 10.74 31.73 22.26a78 78 0 0 0 11.6 13.09c3.82 3.54 4.81 7.8 3.71 12.14-2.48 9.74-6.24 13.81-17.52 14.05-10.58.21-21.23-.16-31.75-1.24-9.38-.96-18.64-3.24-27.95-4.93q-9.62-1.72-19.22-3.46c-.87-.16-1.72-.6-2.57-.59-1.76.02-3.51.37-5.27.37a74 74 0 0 1-6.82-.41q-8.23-.84-16.42-1.81c-11.35-1.35-22.89-2.08-33.23-7.65-8-4.31-16.62-6.61-25.3-8.97-5.5-1.5-10.7-4.07-16.04-6.16-2.77-1.08-5.49-2.36-8.34-3.19-3.97-1.16-7.53.58-10.89 2.38-8.09 4.34-16.34 8.27-25.35 10.28-5.03 1.12-10.13 1.83-15.15 2.97-4.91 1.12-9.75 2.56-14.64 3.83-12.36 3.21-24.66 6.72-37.12 9.53a520 520 0 0 1-32.82 6.05 523 523 0 0 1-31.75 4.27c-10.31 1.01-20.7 1.93-31.04 1.75-14.1-.25-28-2.15-40.22-10.27-7.63-5.06-12.3-12.08-14.77-20.82-.35-1.19-2.22-2.45-3.61-2.78-17.86-4.21-35.85-7.86-53.6-12.49-10.64-2.78-20.88-7.07-29.53-14.34a9 9 0 0 0-4.01-1.9c-5.05-.94-10.14-2.23-15.24-2.33-7.54-.14-15.1.56-22.65 1-4.37.26-8.72.71-13.33 1.1z"/><path fill="#000" d="M400.63 55.88c-2.49-4.16-.03-7.34 2.36-10.22a18.5 18.5 0 0 1 8.73-5.83c1.57-.5 3.05-1 3.74-2.99.18 1.09-.2 1.97 1.28 1.97 5.84-.01 7.9 3.83 8.88 7.82.15.67-.08 1.72.83 1.68.76-.03 1.43-.85 1.5-1.72.4-5.8 3.84-10.83 3.4-17-.39-5.31 6.04-8.68 10.69-6.24 1.05.55 1.24-.16 1.66-.53.9-.81 1.63-1.8 2.56-2.59.78-.65 1.66-2.06 2.72-1.1 1.38 1.21-.15 2.13-.93 2.93-2.4 2.48-4.6 5.1-6.15 8.2-.22.44-.34.93-.51 1.42 3.1.74 4.63-.43 5.02-3.5.44-3.52 2.44-6.04 5.48-7.86.52-.3 1.93.07 1.51-1.27-.36-1.17-1.23-1.91-2.54-1.63-1.85.4-3.72.8-5.5 1.44-.8.3-1.47.35-2.72.2a57 57 0 0 1 9.66-5.04c1.58-.62 3.47-.76 4.94.36 1.6 1.22 2.85 1.08 4.58.11 2.65-1.47 5.38-3.16 8.72-2.05.68.22 1.08-.45 1.47-.9.5-.59.88-.98 1.77-.51 5.75 2.98 12.13 4.5 17.86 7.57.8.43 1.48.77 2.51.24 4.4-2.28 8.71-2 12.98 1.07-.15-1.9-.14-3.54-.44-5.12-.6-3.12-.32-5.98 1.71-8.57.55-.7.87-1.6.13-2.44-.72-.82-1.4-.17-2.16.01-1.77.43-3.58 1.53-5.69.04 1.12-.8 2.12-1.42 3.02-2.18 1.55-1.28 3.1-2.3 5.17-1.16 2.16 1.18 2.53 3.35 2.93 5.47.1.47-.18 1-.16 1.5.1 2.56 1.15 3.18 3.61 2.7 1.94-.38 3.85-1.44 6 .34 1.44 1.2 3.66-.26 5.57-.33a26 26 0 0 1 15.1 4.2c1.32.84 2.03 1.39 3.55-.38 7.07-8.24 21.27-9.5 28.64-.93 3.96 4.6 4.95 10.03 3.7 15.8-.46 2.13.08 2.77 1.99 3.47a96 96 0 0 1 10.73 4.73c1.4.72 2.1-.04 2.94-.58 3-1.93 6.2-2.99 9.8-3.31 7.4-.67 11.62 4.48 11.94 11.01.14 3.1.97 5.6 2.61 7.98 3.96 5.73 4.5 11.9 2.65 18.46 3.02 1.47 6.52.47 9.55 1.76 2.35 1 4.69 1.88 7.15 2.6 1.87.56 2.17 3.76 3.19 5.77 3.74 7.38 2.3 14.53-.95 21.6-.12.27-.31.56.23.92 7.38-3.61 14.87-4.77 22.14.65 2.29-3.61 1.3-5.2-3.54-5.29-1.79-.03-3.16-.36-4.04-1.95-.23-.41-.48-.99-.38-1.4 1.4-5.46 2.42-11.13 8.1-14.22 4.85-2.63 9.63-5.4 14.75-7.48.34-.14.79-.02 1.32.2-5.81 3.15-11.56 6.34-15.7 11.95h4.92c-2.72.27-2.68 2.16-2.43 4.15.06.47-.13 1.2.57 1.21 4 .07 4.77 3.53 6.3 6.08 1.04 1.74 1.9 2.12 3.66.9 2.01-1.38 4.07-3.14 6.81-1.1.52.37 1.7-.2 2.58-.3 3.6-.39 7.03-.37 9.64 2.8.68.82 1.74 1.36 2.68 1.94 3.02 1.87 3.9 1.53 5.01-1.9.15-.46.29-.96 1.12-1.18.17 4.95.24 9.47-4.62 12.77-1.54 1.05-1.83 3.94-2.27 6.46.89-.53 1.75-1.1 2.67-1.58 3.7-1.97 7.54-2.96 11.83-2.3a8.5 8.5 0 0 1 7.24 6.1c.75 2.39 2.16 3.37 3.98 4.42 4.34 2.52 6.95 8.1 5.2 12.06-1.53 3.41-3.76 6.5-5.83 10-.8-1.6 1.04-2.3.52-3.56q-1.2.49-2.4.95c-1.88.69-1.01 2.27-.92 3.38.13 1.56 1.23.65 2.06.46 9.49-2.05 16.47 4.8 14.12 14.37-.9 3.62.27 6.6.62 9.9.61 5.76 5.84 8.1 8.56 12.27q.17.25.43.43c1.28.86 1.32 3.51 3.4 2.96 2.12-.58 2-3.05 2.84-4.7.58-1.15-.5-2.72 1.3-3.84.1 3.78-.5 7.13-2.55 10.02-.85 1.21-1.53 2.6-1.47 3.82.23 4.32-2.65 5.86-5.87 7-2.59.92-5.22 1.64-8.12 1.32-3.16-.36-5.34-1.5-5.86-5a7.8 7.8 0 0 0-2.88 5.02c-.28 1.61-.51 3.22-2.83 3.4-1.35.11-2.03 1.55-2.6 2.72-.38.8-.14 1.65-1.03 2.54-.88.86.68 1.28 1.58 1.17a9 9 0 0 1 5.02.62c5.43 2.44 6.25 5.93 2.33 10.52-.33.39-.57.9-1.17.76-.64-.15-.6-.74-.66-1.23q-.06-.6-.07-1.21c-.1-2-.16-3.62-3.11-2.44-1.84.74-3.95.09-5.77-1.07-1.28-.82-2.68-1.65-3.6.58-1.17 2.84-.72 4.69 1.47 5.47 4.16 1.5 4.54 2.05 4 6.13-.71-.96-1.2-2-2.03-2.58-.78-.53-2.13-2.15-2.74.4-.1.4-.96.65-1.5.9-1.75.79-2.4 2.12-2.53 4.03a53 53 0 0 1-4.34 17.75c-1.27 2.9-2 3.04-4.78.9-3.14 10-5.41 20.23-10.95 29.9 7.07-.92 12.46 2.64 18.2 4.96 6.23 2.5 8.54 8.84 5.42 14.32-1.45 2.55-3.95 3.81-6.57 4.34-2.53.5-3.49 1.8-4.39 4.08-2.66 6.75-5.74 13.33-8.63 20a4158 4158 0 0 0-8.83 20.57c-2.06 4.84-3.99 9.71-9.04 12.45-1.44.78-2.7 1.84-4.4 1.55-1.95-.33-2.75 1.67-4.52 1.92a59 59 0 0 1-15.39.08c-3.7-.46-7.46-.48-11.18-.63-3.22-.14-6.41-.92-10.01-.6 1.63 3.45 3.72 6.5 4.45 10.16 1.5 7.53-2.23 14.2-9.44 16.53-2.52.81-2.92 1.84-1.46 4 1.3 1.93 3.4 2.72 5.47 3.53 3.57 1.4 4.32 3.07 3.06 6.85-1.88 5.62-5.38 10.53-7.16 16.2-.35 1.13-.15 2.75-2.12 2.73-1.16-4.02.58-7.6 1.72-11.28q.24-.71.54-1.41 2.58-6.52-3.72-9c-5.1-2.02-7.71-7.8-5.45-12.65 1.22-2.6 4.16-3.3 6.56-4.3 1.64-.7 4.04.2 5.16-1.76 1.38-2.42.9-5.08.26-7.65-.89-3.53-2.54-6.72-4.31-9.86-1.4-2.47-3.9-2.8-5.62-.63-6.3 7.93-13.56 14.93-20.84 21.93-1.13 1.09-1.37 1.85-.78 3.52 5.02 14.34 8.53 29.1 11.27 44.03a216 216 0 0 1 3.05 25.43c.33 5.13 3.38 9.15 5.87 13.36 8.66 14.64 19.06 28.09 28.8 42 8.55 12.17 16.33 24.88 20.9 39.19 2.4 7.45 1.83 14.97.68 22.68-2.74 18.37-8.42 35.95-13.47 53.7a80 80 0 0 1-6.69 16.9c-.43.79-.26 1.18.1 1.83 2.11 3.9 4.26 7.78 6.23 11.75.88 1.78 1.61 1.55 2.9.48 17.8-14.7 36.82-27.64 56.43-39.76a510 510 0 0 1 39.58-22.23c16.04-8.04 32.01-16.33 49.78-20.04 8.2-1.7 16.45-3.78 24.87-3.83 10.26-.06 20.12 2.5 29.65 6.3 4.6 1.83 9.18 3.72 13.4 6.36 1.73 1.08 3.83.52 5.63 1.82 4.4 3.18 5.59 7.99 7.02 12.67.48 1.57 1.2 2.85 2.07 4.21 4.59 7.27 7.03 15.46 9.84 23.47a367 367 0 0 1 11.95 43.26 449 449 0 0 1 5.82 31.61c1.35 9.38 3.46 18.66 4.7 28.05 1.32 9.96 2.95 19.85 4.42 29.78 1.91 12.99 4.2 25.93 5.96 38.95 1.05 7.77 2.34 15.53 2.65 23.4.13 3.1.91 6.18-.13 9.23-.58 1.7-1.4 3.28-3.14 4.19-.8.41-1.63.78-2.1-.06-1.45-2.55-2.6-.68-3.76.18-9.84 7.28-21.01 12.02-32.25 16.54a286 286 0 0 1-31.22 10.48c-8.14 2.24-16.29 4.6-24.7 5.77-1.76.25-2.81 1.03-3.54 2.94-6.68 17.57-13.6 35.04-22.04 51.86-.52 1.05-.8 1.86.49 2.48 8.97 4.35 14.62 12.31 21.02 19.43 11.45 12.75 22.99 25.4 36.55 36.01 1.39 1.1 2.92 1.16 4.47 1.3 8.91.81 17.5 3.18 26.08 5.52 9.4 2.57 18.04 7.2 27.2 10.16 6.15 1.99 7.83 5.96 9.46 10.83 1.59 4.74 2.92 9.56 4.5 14.31.56 1.73.41 3.2-1.17 4.96 2.22 0 4.02-.15 5.79.04 1.89.2 3.14 1.07 1.86 3.22-.25.42-.43.61-.2 1.24 2.83 7.64-.23 14.98-6.94 20.29-4.06 3.21-8.37 5.37-13.04 7.21-2.14.84-4.28.95-6.55.75-9.27-.81-18.55-1.48-27.82-2.28-7.94-.69-15.88-1.49-23.83-2.24-7.02-.66-14.06-1.24-21.07-2.04-8-.91-16.01-1.78-23.94-3.11-12.09-2.03-24.19-4.1-36.03-7.3-11.21-3.02-22.39-6.15-33.27-10.25-.68-.25-1.51-1.1-2.26.26-7.39 13.31-19.3 19.96-33.61 23.79a170 170 0 0 1-37.07 5.84c-17 .71-34 1.19-51.06 1.21.88 2.13-1.07 4.68-3.77 4.81-3.03.15-6.09.49-9.08.5-6.5.01-12.97.59-19.45.85-11.7.47-23.38 1.51-35.07 2.29-3.22.22-6.44.26-9.67.57-7.72.73-15.52.72-23.26 1.37a303 303 0 0 1-33.1 1.13c-6.62-.17-13.18-.75-19.53-3.13-2.93-1.11-6.3-1.05-8.35-3.96-.2-.32-.72-.47-.84-.79-1.23-3.18-2.7-5.93-6.46-7.01-1.2-.35-2.3-2.77-1.86-4.06.57-1.65-.48-2.09-1.1-2.85.46-.93.96-.62 1.58-.42 1.26.42 1.91-.01 1.16-1.3-3-5.19-2.2-11.34-4.31-16.77-.57-1.43-1.02-2.42-2.57-2.89-20.86-6.36-41.31-13.91-61.5-22.11-3.4-1.38-6.87-2.8-9.85-5.12-1.73-1.35-4.04-1.21-6.07-1.43-9.37-1.02-18.75-1.81-28.01-3.68-1.68-.35-2.76-.32-2.01 2.33 1.17 4.18 2.19 8.51.8 13.01-.75 2.49-2.29 3.9-4.28 5.42-11.3 8.59-24.93 10.92-38.08 14.51a553 553 0 0 0-45.27 14.59c-13.42 4.93-26.59 10.6-40.41 14.4-11.88 3.26-23.82 4.3-36.14 2.5-4.07-.59-8.36-.1-12.47-1.26a77 77 0 0 1-30.44-16.33c-1.56-1.37-2.14-3.01-2.45-4.97-.19-1.15.62-1.86 1.04-1.88 3.15-.11 2.11-1.96 1.72-3.67a95 95 0 0 1-2.4-21.9c.08-10.22 1.91-20.11 8.44-28.34 4.66-5.88 10.41-10.78 16.16-15.59 10.46-8.78 21.54-16.78 32.82-24.47 9.93-6.77 20.07-13.25 30.2-19.73 2-1.28 3.28-2.3 2.08-4.9-.73-1.6-.84-3.48-1.24-5.22-.25-1.03.22-1.86.86-2.47 5.85-5.59 11.55-11.37 17.69-16.63a276 276 0 0 1 25.73-19.4c10.03-6.73 20.21-13.18 31.1-18.45 1.75-.85 4.37-2.35 5.45-1.69 2.6 1.61 5.92 2.12 7.78 5.16 3.1 5.08 6.68 9.86 10.02 14.8 2.01 2.98 3.91 5.92 6.83 8.3 6.44 5.24 10.8 12.27 15.23 19.19.5.78.77 1.58 2.03 1.89 2.89.7 4.07 3.13 3.45 6.23-.16.82-.46 1.4.9 1.6 7.86 1.08 15.74.32 24.57.61a102 102 0 0 1-14.91-12.12c-10-9.55-16.21-21.17-19.09-34.68-1.86-8.69-2.56-17.49-3.08-26.33-.33-5.6-.83-11.2-.48-16.78.7-11.21 1.28-22.43 3.3-33.55 3-16.44 7.67-32.28 14.71-47.44.12-.25.07-.58.12-1.12-4.31-.03-8.33.5-11.88 3.16-6.68-7.63-3.92-16.4-2.43-24.98a33 33 0 0 1 3.29-9.27c.23-.46.84-1.08-.01-1.54-.84-.44-.89.24-1.15.82-.82 1.73-2.52 1.82-4.1 1.87-8.82.24-17.54-.59-26.3-1.69-9.75-1.22-19.49-2.4-29.12-4.38a65 65 0 0 1-20.77-8.28c-4.93-2.99-5.4-8.1-4.24-13.36 1.36-6.21 1.93-12.58 3.85-18.67.36-1.14.47-2.09-1.09-2.91-3.03-1.6-4.39-4.86-6.3-7.52-3.9-5.38-7.44-11.05-11.6-16.24-3.43-4.29-3.93-8.75-2.84-13.83 1.86-8.58 2.41-17.37 4.09-26 2-10.31 4.54-20.5 7.1-30.67 3.06-12.23 5.69-24.59 9.65-36.59q5.19-15.78 10.36-31.6c4-12.15 7.87-24.37 12.05-36.46a295 295 0 0 1 17.36-40.64 368 368 0 0 1 18.57-31.5c7.35-11.19 17.75-18.7 29.28-24.9 10.3-5.55 21.53-8.14 32.9-10.46 8.17-1.67 16.29-3.79 24.56-4.52 9.5-.85 19-2.04 28.64-1.02 4.77.51 9.6.6 14.36 1.38 5.47.89 10.7 2.47 15.35 5.57 2.31 1.55 2.54 2.77 1.7 6.64 3.27-1.82 6.18-4.28 9.72-4.77 3.43-.47 4.87-2.34 6.55-5.11 4.96-8.25 11.3-15.52 17.63-22.75 3.5-3.98 6.9-8.07 12.6-8.94-.09-2.2 2.79-3.39 2.46-5.11-.64-3.47-.75-6.98-1.08-10.54-3.56 1.52-3.57 4.87-4.7 7.58-1.03 2.48-2.35 2.2-4.52.88-2-1.22-2.02-3.04-2.66-4.6-.86-2.14-2.84-3.38-3.73-5.42a26 26 0 0 0-5.58-8.21l-3.92 7.06c-.19.34-.49.87-.36 1.1 2.36 4.1-1.57 6.65-2.34 9.96-.53 2.34-2.14 2.63-3.84 3.06-1.11.28-1.9-.35-2.59-1.22-.8-1.02.2-1.34.6-1.96 2.14-3.25 1.81-5.42-1.23-7.46-2.22-1.49-3.17-3.16-2.33-5.97.98-3.3-1.2-5.3-5.06-4.74-.82.11-1.57.27-2.32 0-1.28-.47-2.42-2.04-3.8.06-.72 1.1-2.33 1.46-2.2 3.31.1 1.5-1.26 2.05-2.47 2.66-4 2.03-4.12 2.55-1.63 6.2 2.65 3.9-1.52 2.54-2.84 4.08.08-1.58 1.06-2.48-.53-3.57-2.67-1.84-1.62-4.74-.64-7.15.57-1.37.69-2.33-.32-3.45-2.07-2.28.33-5.2-1.46-7.76-.77.19-1.88 1.67-3.14.67-1.94-1.55-2.57-.2-3.2 1.27-.35.83-.56 1.72-.89 2.57a5.95 5.95 0 0 1-7.52 3.63 29 29 0 0 1-10.77-5.92c2.43-.47 3.78 1.6 6.31 1.6-4.08-2.5-5.1-5.84-4.24-9.77.22-.99.04-1.5-.62-2.02-.8-.64-1.33.09-1.85.45-2.18 1.5-3.86 1.94-5.56-.95-.97-1.64-2.58-3.54-5.25-.94-1.23 1.2-4.1 2.1-6.01-.16-1.77-2.08-1.38-4.53-.81-6.87.14-.6 1.1-1.26 1.72.04q.67 1.35 1.57 2.6c.7.99 1.45 1.36 2.8.65 4.4-2.3 6.7-1.87 10.06 1.85.92 1.02 1.68.93 2.49.23 1.36-1.17 2.97-1.55 4.93-1.68-6.39-4.8-7.33-10.88-4.76-18.1-3.46-.21-7.11.69-9.95-.93-3.84-2.2-6.12-1.47-8.77 1.82-2.11 2.63-5.38 1.93-7.23-.94-.38-.58-.81-1.14-1.28-1.79-1.09 1.02-2.14 2.1-3.65 2.48-.49-7.4 3.1-10.3 9.88-7.5-1.7-1.99-3.83-2.84-5.12-4.81-2.12-3.24-2.84-6.86-1.7-10.1 1.34-3.86-.68-5.93-2.68-8.15a37 37 0 0 1-4.3-5.44c-1.46-2.37-2.04-4.8-.04-7.27 1.2-1.48.19-3.24-.14-4.58-.81-3.3-1.26-6.47-.4-9.8.25-.98.31-2.18-.8-2.66-1.03-.44-1.53.65-2.2 1.23-2.65 2.25-5.16 4.64-8.75 5.49-1.11.26-1.62.4-2.03-.75-.11-.34-.51-.67-.86-.84-1-.5-1.78 1.81-2.68.41-.52-.81.74-2.24-.1-3.09-.48-.47-.73-1.56-1.81-1.32-3.24.7-4.46-1.29-5.42-3.88-.48-1.3-1.42-2.41-2.44-4.07-.77 2.67-.22 4.92-.41 7.1-2.18-1.56-3.93-7.32-2.77-9.43 1.34-2.4 3.39-1 5.15-.72.74.12 1.48.62 2.1 1.1 3.44 2.72 4.12 2.95 7.29.09 3.14-2.84 7.05-4.12 10.57-6.17 2.08-1.21 3.93-2.8 6.33-3.5 1-.29.18-4.37-1.35-5.21-4.32-2.4-6.5-6.1-7.24-10.82-.14-.96-1.07-1.14-1.76-1.51-4.8-2.62-7.74-6.41-7.26-12.14.22-2.73-1.82-3.04-3.25-2.58-2.55.8-4.27-.58-5.6-1.89-1.3-1.28-2.54-1.28-3.91-1.13-3.52.4-8.98-4.75-8.65-8.3.13-1.46 1.35-2.02 2.36-1.58 2.33 1.04 4.48 1.77 6.6-.28.64-.6 1.14.02 1.67.16q3.7 1 5.82-2.86a7.8 7.8 0 0 1-5.05-.97 32 32 0 0 0-10.2-3.44c-1.04-.14-1.75-.39-1.82-1.56-.08-1.19.36-1.87 1.58-2.2 4.43-1.17 8.86-.72 13.17.35 2.78.69 4.07.36 5.48-2.43 2.87-5.66 7.03-10.2 13.82-11.3.95-.15 1.54-.9 1.25-1.75-1.14-3.28.82-6.44.27-9.67-.24-1.43.18-2.96-2.14-3.5-3.65-.86-4.48-2.42-4.16-6.18a10.6 10.6 0 0 1 3.34-6.86c1.26 1.08.15 1.91-.1 2.73-.65 2.05.1 3.66 1.65 4.8 1.6 1.18 2.23-.68 3.22-1.36.59-.4 1.12-.92 1.77-1.17 1.43-.57 1.04-1.88 1.16-2.86.15-1.18-1.1-.96-1.78-1.2-3.7-1.32-7.22-3-10.32-5.44-5.84-4.58-7.2-12.6-3.52-20.54 1.39-3 1.35-6.26 1.77-9.41.13-.97-.35-2.07-1.8-2.4-1.12-.26-2.1-1.13-3.15-1.73 2.7-4.01 6.95-5.56 9.87.03.87 1.66 1.56 3.85 2.99 4.69 1.38.81 3.11-1.2 4.84-1.56 1.8-.39 3.86-.12 5.17-1.9 6.19-1.91 6.37-8.77 10.4-12.46-5.04 2.9-8.34 7.19-10.29 12.58zm-51.9 688.54c5.05-2 9.91-3.39 14.94-3.52 8.74-.24 17.46-.35 26.2 1.05 10.23 1.64 20.11 4.17 29.5 8.57 9 4.22 17.42 9.42 25.87 14.63a667 667 0 0 0 29.29 17.1c7.96 4.36 16.12 8.42 24.8 11.23 1.8.58 3.6 1.35 5.3-.26 4.78-4.54 10.84-6.54 16.9-8.54 12.21-4.02 24.73-6.8 37.35-9.1 2.14-.4 4.9-.4 6.2-1.72 1.65-1.66 2.87-1.35 4.51-.89 1.16.33 2.35.58 3.46 1 13.44 5.21 25.53 12.87 37.4 20.87 18.57 12.51 35.78 26.81 52.8 41.3a567 567 0 0 1 32.4 29.86c4.4 4.38 8.76 8.8 13.19 13.13.5.48.84 1.9 2.09.8 3.39-3 7.77-4.5 11-7.9 5.63-5.94 11.33-11.75 13.89-19.8 1.01-3.22 1.45-6.69 2.86-9.72.96-2.05.49-3.4-.25-5.12-1.37-3.21-3.38-6.36-2.87-10.01a115 115 0 0 0 1.13-20.3c-.21-5.82-.6-11.67-4.85-16.35-1.01-1.1-1.84-2.37-2.75-3.56-5.14-6.72-11.26-12.63-16.56-19.19-9.68-11.97-18.56-24.55-27.62-37-8.23-11.31-17.01-22.23-24.98-33.74-3.8-5.49-8.27-10.82-9.1-17.7-.63-5.4-3.94-9.22-6.44-13.52-4.24-7.28-8.98-14.27-13.14-21.6-8.5-15-15.84-30.58-21.66-46.84-3.3-9.21-6.45-18.48-8.88-27.96-3-11.64-5.06-23.48-7.14-35.3-1.88-10.65-5.47-20.98-5.72-31.93-.04-1.82-1.33-5.2-2.15-5-2.77.7-2.25-1.23-1.98-2.14.96-3.26-.44-6.06-1.3-9-4.56-15.74-10.62-30.92-17.24-45.88-.3-.68-.65-1.14-1.73-.98-2.08.3-3.14-.9-3.77-2.94-.52-1.65-1.16-3.36-2.8-4.51a78 78 0 0 1-9.2-7.9c-5.95-5.76-11.14-12.22-17.46-17.66-8.53-7.36-17.54-13.9-28.23-17.56-8.7-2.98-17.68-5.61-27.08-3.55-5.47 1.2-10.36 3.12-13.56 8.6-5.38 9.18-11.48 17.95-17.33 26.86-6.01 9.17-11.24 18.71-14.12 29.39-2.23 8.2-4.14 16.51-6.71 24.6a1375 1375 0 0 1-23.42 67.16c-1.05 2.8-3.07 5.6-2.98 8.35a24 24 0 0 1-1.14 8.17c-3.28 10.32-8 20.02-13.5 29.34-3.7 6.27-7.13 12.64-5.96 20.38.15.97-.3 2-.3 3 .07 4.7-1.75 9.41-.19 14.04 1.1 3.24 4.24 5.37 5.44 8.62.69 1.86 1.94 2.32 3.76 2.17 6.65-.54 13.33-.88 19.96-1.55 17.57-1.8 34.68-6.35 52.4-8.35-.95-2.13-1.8-4.05-2.64-5.98-4.79-10.89-9.77-21.7-14.3-32.7a1060 1060 0 0 1-15.77-40.57c-1.36-3.73-3.23-4.54-6.71-4.26-2.9.23-5.76-.55-8.46-1.74-.86-.39-1.88-.85-1.7-1.83.2-1 1.37-.5 2.12-.63 2.17-.35 4.2.66 6.33.63 1.6-.03 3.5 1.42 4.67.4 1.53-1.33-.85-2.95-.66-4.61.11-1.02-.94-2.35.44-2.98 1.29-.59 2.33.44 3.13 1.33.6.66.98 1.52 1.38 2.33 1.56 3.21 3.14 6.39 4.5 9.7a1375 1375 0 0 0 14.76 34.61 4236 4236 0 0 0 22.52 49.84c.95 2.1 1.17 4.9 4.11 5.77.54.15 1.23 1.37.82 2.07-1.03 1.76-.08 3.08.6 4.54 1.53 3.29 2.97 6.62 4.55 9.89 7.8 16.11 15.51 32.27 24.32 47.88 9.35 16.57 19.2 32.86 28.1 49.68.38.73.61 1.47 1.64 1.93 6.75 3.03 12.33 7.87 18.3 12.1 1.1.79 1.93 1.94 1.25 3.08-.76 1.25-2.06.43-3.21.03-10.1-3.48-17.88-9.52-23.57-18.84-8.62-14.11-17.42-28.12-25.78-42.4a652 652 0 0 1-31-59.34c-.73-1.61-1.3-1.4-2.61-.67-2.39 1.32-3.97 3.84-6.45 4.77a123 123 0 0 1-21.72 5.96c-7.82 1.4-15.71 2.2-23.58 3.21-8.12 1.05-16.26 1.55-24.39 2.22-5.43.46-10.87-.33-16.28-1.07a7.6 7.6 0 0 0-4.97.82c-6.31 3.5-12.23 7.6-18.17 11.67-2.48 1.7-4.64 3.66-5.59 6.85-2.22 7.43-4.26 14.9-5.4 22.57-.74 5.06.8 6.89 5.58 8.19 4.24 1.14 8.56 2.13 12.58 4 .66.31 1.33.43 1.43 1.33.1.93-.54 1.4-1.2 1.41-3.76.05-3.18 2.7-3.17 5.06q0 1.33-.3 2.7c-1.38 6.33-2.64 12.7-4.02 19.44zM466.22 373.3c-1.23-.6-2.02.5-3.07.33-4.34-.74-8.72-1.31-13.06-2.04a182 182 0 0 0-22.99-2.2c-12.02-.48-23.95.73-35.84 2.38-3.85.53-6.8 2.26-8.91 5.45-1.61 2.42-3.93 4.03-6.39 5.4-4.22 2.34-7.02 1.3-8.5-3.32-.6-1.91-1.37-1.7-2.77-1.15a121 121 0 0 0-14.87 7.12c-10.2 5.72-19.44 12.6-26.14 22.36-6.51 9.48-12.55 19.2-17.27 29.77-5.19 11.6-10.86 23-15.52 34.82-7.4 18.77-13.35 38.05-19.59 57.23-8.11 24.96-13.68 50.6-20.11 76-2.2 8.7-2.29 17.78-4.47 26.42-1.25 4.94-.54 8.02 3 11.62 5 5.08 7.8 11.79 11.05 18.1.49.94.73 1.94 2.02 1.79 1.55-.17 3 .44 4.5.55 12.98 1.02 26 1.66 38.96 3.04 8.83.94 17.62 1.96 26.26 4 3.34.79 6.11 1.15 9.36-1.55 7.33-6.12 15.23-11.62 24.49-14.66 1.49-.49 2.14-1.5 2.73-2.85 1.76-4.14 3.38-8.4 6.4-11.83 1.02-1.17.19-1.5-.43-2.08a40 40 0 0 1-6.96-8.43c-2.68-4.5-3.88-9.28-3.1-14.7.64-4.4 1.85-8.87 1.28-13.34-.4-3.23.52-5.92 1.92-8.59 3.8-7.28 7.68-14.5 11.47-21.8 2.54-4.89 5.9-9.6 7.2-14.83 1.87-7.43 3.52-14.9 5.82-22.23 3.3-10.47 6.46-20.98 9.89-31.41 4.58-13.93 10.22-27.52 13.37-41.9 3.18-14.5 8.35-28.09 17.35-40.1 6.67-8.9 13.08-18.02 19.57-27.06.32-.44 1.3-1.03.21-1.66-2.67-1.53-2.18-3.2-.49-5.22a97 97 0 0 1 13.62-13.43zm-.33 657.22c-1.42-7.45-3.02-14.26-3.84-21.25-.85-7.3-1.69-14.58-2.35-21.9-.45-5.06-.2-10.13-.64-15.15-.57-6.46-.54-12.92-.34-19.36.25-8.23 1-16.45 1.76-24.66.2-2.17-.52-2.15-2.23-2.07q-13.5.67-27.03 1.1c-23.42.72-46.83.32-70.23-.49-3.47-.12-7.05-.16-10.54-1-1.62-.4-3.37-.8-4.7 1.51a554 554 0 0 1-15.02 24.67c-3.42 5.27-5.14 10.61-3.22 16.79.42 1.34.75 2.72 1.16 4.07 2.6 8.7 5.42 17.3 10.08 25.17.48.8.9 1.64 2.04 1.46 7.22-1.14 14.51-.91 21.7-.2 8.04.77 15.98-.3 24.09 3.5 13.02 6.12 27 10.21 40.67 14.93 12.7 4.4 25.52 8.52 38.63 12.87zm156.28-777.64a33 33 0 0 0-3.7 12.31c-.72 6.56 1.28 11.86 7.75 14.76 1.54.7 3.05 1.55 4.4 2.57 1.98 1.5 3.61 3.18 3.74 6.05.38 8.5-8.2 21.31-16.67 24.4-1.15.42-1.67.41-1.28 2.11 1.15 4.84.16 5.96-4.87 6.71-4.65.7-6.98 3.3-7.22 8.14-.08 1.62 0 3.24-.05 4.86-.01.37-.07.91-.31 1.05-.47.28-1 .01-1.33-.4-3.97-5.15-4.5-11.54 2.23-14.84 1.95-.96 5.14-1 5.87-2.43.94-1.84-1.55-4.03-2.35-6.17-.66-1.78-.17-2.36 1.48-3.16 1.71-.83 3.78-.58 5.23-1.8a28 28 0 0 0 9.25-14.55c1.08-4.24.31-5.22-4.1-6.77-8.73-3.07-14.51-10.26-13.57-20.18.47-4.93 2.28-9.31 4.05-13.76.46-1.16.51-1.63-.4-2.47-2.37-2.22-4.48-4.74-6.95-6.83-4.03-3.38-7.7-7.76-13.88-6.7-5.61.97-11.28 2.22-14.17 7.83-2.19 4.24-3.7 8.84-5.54 13.34 1.9.42 3.73.3 5.52.5a180 180 0 0 0 17.8 1.24c2.04.02 2.39.42 2.83 2.2.94 3.75 1.9 7.6 3.64 11.02.98 1.92 1.32 3.5.84 5.35a14 14 0 0 1-13.33 10.33c-.71.02-1.14-.36-1.55-.8-2.7-3-6.25-5.23-8.5-8.61-1.51-2.27-3.22-2.46-6.14-1.8 4.34 5.28 4.38 12.9 11.37 15.83.14.06.29.35.28.52-.17 1.83 1.38 2.16 2.5 2.53 4.36 1.44 8.75 2.97 13.49 1.58.9-.26 1.9-.32 2.42 1.06.4 1.06.4 1.78-.54 2.33-2.88 1.64-5.72 3.26-9.26 3.3-4.32.04-8-1.49-11.46-3.85-.9-.61-1.52-1.4-2.77-.19-6.61 6.43-14.4 10.92-23.1 13.96-3.86 1.35-7.38 1.58-10.9-.9-2.19-1.52-4.94-2.01-7.13-.46-4.35 3.09-6.96 7.82-10.22 11.94-1.63 2.05-1.33 5.78-5.63 5.65 1.26 1 2.07 1.72 2.97 2.32 23.11 15.32 45.46 31.68 66.33 49.98.9.8 1.35.96 1.9-.34a42.4 42.4 0 0 1 11.19-15.2c4.96-4.42 8.76-11.06 16.2-9.4 2.83-5.97-.69-11.2-.73-16.76 0-.79.18-1.59.32-2.38 1.17-6.32 4.68-11.47 8.34-16.55 4.75-6.6 9.68-13.11 13.1-20.55 2.83-6.14 4.8-12.42.17-18.67-1.13-1.52-2.26-3.07-3.56-4.45-6.68-7.09-12.71-14.52-14-24.8M142.8 1038.86c-.74 5.66.52 9.99 6.15 12.86 4.97 2.53 9.4 6.09 14.38 8.7.7.36 2.13 1.36 2.24.17.25-2.76 2.08-2 3.47-1.9 1.35.09 1.68-.27 1.66-1.57-.06-3.04.27-6.05.5-9.08a504 504 0 0 1 3.19-31.04c1.35-9.85 5.27-18.19 13.62-24.2 17.31-12.47 35.51-23.25 55.6-30.73 6.96-2.6 14.17-4.9 18.59-11.75 1.72-2.68 4.05-5 6.17-7.41 14.39-16.32 29.97-31.48 45.75-46.43 4.33-4.1 4.5-4.13.85-8.92-3.4-4.5-6.35-9.3-9.53-13.93-.83-1.22-1.58-2.59-3.76-1.31a369 369 0 0 0-66.26 49.27c-2.09 1.96-1.99 3.34.23 5.72.68.73 1.7 1.63 1.02 2.83a16 16 0 0 0-1.98 9.2c.05.67.17 1.67-.9 1.53-1.52-.21-3.33.71-4.53-.72-.98-1.17-1.55-.55-2.36.04q-20.33 14.9-40.7 29.77c-10.06 7.33-19.52 15.38-28.87 23.59-5.33 4.67-11.37 8.9-11.37 17.15 0 1.29-.4 2.59-.57 3.89-1.03 8.1-2.42 16.16-2.6 24.26zm540.74-705.5c-1.78 0-3.38.12-4.96-.03-1.7-.17-2.85-.8-2-2.98 1.27-3.25 2.28-3.65 6.42-2.22 1.25.44 2.53 1.74 3.64-.5 3.47-6.93 6.95-13.86 11.49-20.18.31-.43 1.04-1.07.38-1.86-2.05-2.5.13-3.85 1.62-5.09 1.29-1.07 2.94-1.74 4.49-2.45a9 9 0 0 0 4.99-5.28c.45-1.22.3-1.89-1.1-2.19-1.95-.42-3.84-1.06-5.78-1.47-4.7-1-9.18-2.84-13.85-3.8-4.69-.96-9.64-.65-14.37-1.48-2.16-.38-4.47.12-6.5-1.03-7.5-4.23-14.09-12.82-9.39-23.02 3.98-8.64 9.57-14.43 19.4-15.64 6.4-.78 12.49.38 18.59 1.75 1.67.37 2.4.11 2.9-1.5 2.6-8.46 3.74-17.2 4.86-25.95.13-.97-.06-2-1.22-2.1-4.4-.39-7.18-3.32-10.04-6.18-2.65-2.66-5.93-2.21-7.54 1.22a12 12 0 0 1-2.85 3.85c-6.49 6.04-12 3.32-16-.95-1.1-1.15-.76-2.2 0-3.26 1.05-1.47 1.65.2 2.44.45.69.22 1.12 1.16 2.12.75-2.75-2.65-3.94-6.42-6.92-8.84-2.87-2.35-4.24-2.27-6.4.73-.82 1.15-1.65 2.3-2.33 3.54a4 4 0 0 1-2.2 1.89c-3.77 1.64-4.07 3.56-1.2 6.76 1.5 1.66 3.13 3.22 4.38 5.04 2.1 3.07 3.8 6.3 2.85 10.3-2.02 8.58-8.74 12.74-17.84 12.22-1.25-.08-1.8.05-2.21 1.24-2.5 7.12-1.43 13.8 2.53 20.05 2.8 4.43 6.03 8.58 8.73 13.07a22.4 22.4 0 0 1 2.43 18.12c-2.46 8.58-8.12 15.33-13.47 22.22-4.73 6.08-9.99 11.78-13.78 18.56-3.36 6-3.52 12-.14 18.07.79 1.4 1.66 2.14 3.34 2.01 4.87-.38 9.74.13 14.56.67 6.6.73 13.27 1.02 19.81 2.3 3.21.63 10.12-1.86 11.06-4.15 3.05-7.4 5.96-14.86 9.05-22.64zm-39.3 310.23c4.01-13.03 8.07-25.7 11.26-38.62 2.24-9.04 4.43-18.08 5.94-27.28a42.3 42.3 0 0 0-5.08-28.61c-7.75-13.72-16.62-26.68-25.95-39.35-9.35-12.67-18.24-25.64-24.74-40.08-.27-.6-.48-1.22-1.12-1.27-3.3-.3-6.18-1.9-9.33-3.3 0 .74-.1 1.17.01 1.53a48 48 0 0 1 1.86 21.47c-.46 3.1-1.11 6.47-3.89 7.69-2.6 1.14-2.16 2.33-1.5 4 2.56 6.51 5.38 12.92 7.75 19.5 4.59 12.78 7.78 25.96 10.76 39.18 4 17.79 9.93 34.9 17.32 51.55a481 481 0 0 0 16.72 33.58zM485.86 366.72c10.22.41 19.34 3.23 28.23 6.93 8.18 3.4 15.78 7.93 23.23 12.67 5.84 3.7 12.3 6.59 17.19 11.63a104 104 0 0 1 17.43 24.6c.96 1.84 1.35 4.1 2.63 5.65 5.18 6.28 9.77 12.99 14.65 19.49 3.57 4.75 7.22 9.47 12.17 12.95.73.52 1.72 1.5 2.17.17.77-2.25 1.97-4.23 1.26-7.1-4.44-18.03-8.43-36.16-12.8-54.21-.54-2.28-.1-5.04-2.28-6.83l-15.6-12.98c-13.2-10.91-27.06-20.96-40.78-31.18-6.58-4.9-13.33-9.69-18.4-16.23-.7 1.35-1.3 2.74-2.12 3.98-7.5 11.26-17.03 20.73-26.98 30.47zM818.46 875c-2.61.39-4.87.68-7.11 1.06a273 273 0 0 1-26.45 3.3c-8.7.6-17.41.89-26.11-.07-1.74-.19-3-.42-2.3 2.32.54 2.05.95 4.42.25 6.61-3.18 10.03-8.34 19-14.96 27.12-.86 1.07-1.16 1.51-.25 2.85a754 754 0 0 1 14.24 21.53c1 1.57 1.7 1.65 3.3.94 10.9-4.77 22.25-8.41 33.42-12.47 8.3-3.02 8.33-2.75 10.6-11.2 2.94-10.87 5.7-21.8 10.44-32.1 1.48-3.2 3.14-6.3 4.93-9.89m-66.63 159.01a210 210 0 0 1 20.89 4.59 309 309 0 0 0 34.16 6.95c9.5 1.39 19.06 2.53 28.63 3.56a1534 1534 0 0 0 33.83 3.41c14.6 1.24 29.2 3 43.88 3.18a20.8 20.8 0 0 0 17.98-9.19c1.58-2.24.31-5.13 1.22-7.62.33-.88-.66-.72-1.22-.63-3.92.57-7.86.97-11.73 1.75-10.34 2.09-20.66 3.8-31.29 3.31-16.86-.78-33.64-2.12-50.33-4.71-14.02-2.16-27.66-5.58-41.17-9.77-10.56-3.28-21.01-6.81-31.12-11.29-1.18-.53-2.5-1.4-3.5-.06-1.45 1.99-3.66 3.48-4.15 6.12-.37 2.05-1.59 3.64-2.69 5.34-1.08 1.68-2.84 2.9-3.38 5.07zm-9.78-174.88c-2.4 3.33-4.46 6.53-7 9.4-5.34 6.05-12.25 10.1-18.54 14.92-1.34 1.02-1.82 1.6-.44 3.15 4.82 5.43 9.84 10.67 14.24 16.47 2.78 3.66 5.6 7.3 8.6 11.2 2.2-7.72 5.12-14.74 8.27-21.65 1.46-3.18 2.09-6.05.82-9.5-1.1-2.96-1.43-6.22-2.13-9.34-1.1-4.83-2.13-9.69-3.82-14.65M564.68 247.65l-.82-.7c-1.05 1.35-2 2.79-3.18 4.02-.81.86-1.83 1.12-2.21 2.74a201 201 0 0 0-3.33 18.61c3.65 0 7.23.32 10.72-.08 3.61-.43 6.4 1.42 9.67 2.47.08-1.45.33-3 1.83-3.46 1.55-.48 2.25 1.08 3.14 1.96 1.23 1.2 2.53 2.34 3.33 3.91 1.84 3.63 4.05 5.87 8.81 4.57 2.43-.67 2.97-.89 2.09-3.28-.46-1.22-2.2-2.85-1.06-3.77 2.61-2.09.65-3.41-.3-4.96-1-1.62-2.14-3.14-3.13-4.76-.48-.78-1-1.14-1.94-1.12-3.96.12-8-.1-11.8-.8-4.2-.78-9.72 1.75-12.53-4.3a10.3 10.3 0 0 1-.84-6.32c.26-1.62 1.01-3.15 1.54-4.72zm173.88 477.37-1.07.27c-5.17-4-10.43-7.83-16.05-11.14a58 58 0 0 0-6.2-3.07c-1.14-.5-2.22-.13-2.75 1.13-.6 1.42.5 1.46 1.42 1.97 7.33 4.05 14.59 8.24 21.9 12.35 1.57.88 2.28 2.02 2.16 3.9-.45 6.88-.88 13.76-1.12 20.65-.17 4.97-.04 9.94-.04 14.53 0 .02.42-.38.45-.81q1-10.66 1.89-21.34c.29-3.52.4-7.06.74-10.58.15-1.48.57-3.19 2.77-.81-2.28-6.15-1.93-6.15-1.88-8.77.12-6.38 1.14-12.73.8-19.12-.06-1.41-.9-2.42-2.26-2.32-1.3.1-.74 1.45-.75 2.23-.05 6.96-.03 13.94-.03 20.91zm-465.34 294.15c.67 5.84 3.05 11.93 6.57 17.6.45.72 1.04 1.35 1.97 1.09 1.06-.31 1.14-1.23 1.16-2.19a8 8 0 0 0-.51-2.62 122 122 0 0 1-2.98-10.01c-.7-2.91-.93-5.92-1.51-8.85-.16-.74-.27-1.8-1.52-1.94-1.23-.14-1.61.69-1.9 1.52-.53 1.49-1.47 2.88-1.28 5.4m-80.44 10.84q10.97-3.86 22.18-6.99c5.87-1.64 11.74-3.22 17.8-4.08 2.85-.4 4.14.57 4.51 3.49.42 3.32 1.95 6.34 3.4 9.34.27.54.64 1.12 1.4.72.73-.39.1-.89-.02-1.26-1.18-3.63-1.65-7.41-2.48-11.1-.45-2.01-1.77-3.19-3.94-2.98-2.3.23-4.6.49-6.86.87a140 140 0 0 0-18.83 4.67c-5.92 1.88-11.94 3.62-17.16 7.32M698 123.09c2.46-2.8 5.62-1.39 8.45-1.85q4.37-.7 8.88-.92c-2.12-7-11.36-6.88-18.08-1.38.6 1.05 2.1.57 2.79 1.61-.7.85-1.98 1.07-2.04 2.52zM397.04 92.2c-5.97-6.76-14.17-11.4-15.6-21.12-1.01 10.87 5.92 20.24 15.6 21.12m455.16 913.18c3.75-6.07 9.21-10.8 12.42-17.11-4.14 3.2-7.3 7.27-10.29 11.41-4.88 6.75-4.79 6.99 3.28 9.17 4.94 1.34 9.84 3.01 15.04 3.26-6.6-2.88-13.6-4.5-20.45-6.73m-280.18-84.76c-6.33-3.8-52.24-17.1-57.47-16.62 19.62 5.37 38.66 10.51 57.47 16.62m266.54 53.65c-3.93-2.8-7.22-6.2-10.64-9.49-1.72-1.66-3.74-3.03-5.62-4.53-.76-.61-1.52-.62-2.11.14-.55.7.03 1.35.42 1.82a30 30 0 0 0 6.94 6.29c3.5 2.21 6.66 5.12 11 5.77M550.09 13.15c6.58 3.32 12.38-2.5 18.9-1.57-3.2-4.37-13.77-2.9-18.9 1.57m47.27 29.28c6.27-.33 11.09 1.55 15.84 4.94-.2-1.66-.2-2.77-.46-3.81-.47-1.99-1.65-3.97-3.56-4.2-3.94-.52-7.62.81-11.81 3.07m-295.88 983.84c2.36.12 3.35-1.22 2.62-3-.41-1.01-.78-2.03-1.33-2.96-.6-1.05-.8-2.68-2.57-2.48-1.71.2-2.51 1.85-3.63 2.84-.94.84-.06 2.6.82 3.48a8.3 8.3 0 0 0 4.08 2.12zm341.9-789.58c3-.62 4.7-1.85 7.41-4.97 3.1-3.58 2.55-6.67-2.04-9.58.94 5.98-1.24 10.63-5.37 14.55m37.22 30.4v1.39c.02.98-.25 2.26 1.03 2.49 1.18.2 1.63-.95 2.03-1.87.86-2 1.67-4.02 2.53-6.02.3-.72.98-1.55.11-2.12a2.5 2.5 0 0 0-2.31-.14c-2.85 1.25-3.53 3.63-3.4 6.27zm-95.35 201.2c-.96 1.7.04 2.88.24 4.14.67 4.45 1.48 8.88 2.29 13.31.09.48-.1 1.41.9 1.21.63-.13.52-.72.52-1.24.08-6.01-1.69-11.6-3.95-17.42m-301.77 215.8c.71 1.2-.74 3.7 1.34 4.11 2.73.54 2.27-1.98 2.43-3.67a.4.4 0 0 1 .1-.27c1.4-1.14.37-2.02-.27-2.98-.61-.92-1.3-.56-2.08-.27-1.4.52-1.47 1.7-1.52 3.09zM583.02 922.8a4.5 4.5 0 0 1-.02-3.7c.58-1.54.72-3.2.54-4.77-.3-2.84-.39-5.83-2.86-8.05 1.96 5.39.34 11.23 2.34 16.53zM311.6 704.96c-8.27-2.63-16.52-4.76-25.14-5zm181.94-411.41c-.76-.02-1.07 1.02-.9 1.62.44 1.58-.16 4.06 1.9 4.4 1.03.17 3.22-.33 3.81-2.02.39-1.14-2.7-3.77-4.8-4zm316.52 654.08c-1.5.22-3.11.29-4.62.73-1.1.32-1.86 1.3-1.57 2.57.35 1.45 1.64 1.06 2.47.82 1.5-.42 2.95-1.1 4.35-1.8.65-.33 1.6-.75 1.29-1.71-.26-.8-1.14-.63-1.92-.61M607.53 36.79c-4.7-2.16-8.34-.63-11.93.85-.58.24-2.16.28-1.5 1.69.52 1.07 1.46.72 2.36.34 3.3-1.4 6.6-2.83 11.07-2.88M417.7 650.08c4.15.67 8.11-.5 12.15-.8.86-.07 1.07-.74.85-1.57-.21-.81-.71-.78-1.37-.6q-5.8 1.5-11.63 2.97m-151.73 37.75 3.6-14.46-1.06-.25c-2.14 4.59-1.7 9.8-2.54 14.7m120.94-519.35c1.5-4.48 1.42-4.6-4.5-5.48.99 2.27 2.5 4.04 4.5 5.48m-86.4 516.8c-.05-.7.48-1.79-.86-1.74-2.2.07-1.97 2.25-2.7 3.52-.42.74.1 1.97 1.3 1.83 2.1-.24 1.76-2.21 2.26-3.61M498.73 21.64c1.7 2.27 4.14 3.33 5.27 5.63.19.38.34 1.76 1.36.75.47-.46.84-1.19.11-1.85-1.9-1.7-3.24-4.2-6.74-4.52zM415.28 41.5c4.51-1.67 5.97 2.2 8.49 4.94-1.18-5.44-4.05-7.04-8.49-4.94m23.2-11.02c.72-1.2 1.17-1.97 1.66-2.73.42-.66 1.17-1.32.48-2.1-.48-.54-1.31-.47-2.01-.27a1.7 1.7 0 0 0-1.3 1.81c.1.95.63 1.85 1.18 3.3zm-43.1 90.03c1.07-.06 2.42.07 2.34-1-.11-1.36-1.67-2.04-2.79-2.44-1.04-.36-.93.96-1.02 1.7-.16 1.27.28 1.96 1.46 1.74m327.19 30.79c2.97-.63 4.5 2.96 7.4 2.4-2.4-3-4.89-3.87-7.4-2.4M313.9 684.78c-1.51.36-.9 2.21-1.62 3.29-.31.49.24.95.8.86 1.72-.3 1.9-1.75 2.12-3.09.1-.63-.12-1.2-1.3-1.07m123.76-403.51c-1.59-2.59-.85-5.52-1.22-8.73-1.78 3.52-1.3 6.28 1.22 8.73M317.7 1013.97c.07-.8-.33-1.1-1.07-1.09-1.02.02-2.18-.01-2.38 1.27-.13.82.64 1.1 1.41 1.13 1 .04 1.77-.25 2.04-1.3zm74.21-838.44c-.59 2.37.53 4.2 1.9 6.75.27-3.08-1.06-4.84-1.9-6.75"/><path fill="#000" d="M479.47 538.3a863 863 0 0 1-37.16-35.03c3.02 14.09 13.02 22.67 24.32 30.8a28 28 0 0 1-11.06-6.41c-1.63-1.53-3.16-3.16-4.76-4.73-.97-.96-1.74-2-3.54-1.78-1.86.24-2.59-1.81-3.52-2.97a49 49 0 0 1-8.87-17.59c-.24-.82-.3-2.17.18-2.63 2.12-2.05.52-3.35-.64-4.87a44 44 0 0 1-4.86-7.9c-.25-.54-.62-1.23-.05-1.62.61-.42 1.17.16 1.46.69 2.65 4.8 6.5 8.62 10.22 12.53.4.42.98 1.08 1.39 1.02.87-.12.72-1.04.75-1.74.58-10.58 5.04-19.44 11.83-27.39 4.8-5.64 10.16-10.5 16.61-14.22 5.3-3.06 11.03-4.76 16.92-5.73 9.67-1.58 19.43-1.25 28.55 2.44 15.5 6.26 28.42 15.89 32.88 32.9 4.57 17.41 2.42 34.4-8.78 48.98-7.39 9.6-17.32 15.71-30.19 15.75-3.3 0-6.59.54-9.83-.34-1.43-.38-2 1.66-3.59 1.17l38.7 34.32-.6.72c-2.84-1.6-4.97-4.15-7.45-6.2-8.66-7.15-17.2-14.45-25.8-21.67-3.72-3.11-7.88-5.8-11.12-9.35-3.44-3.76-7.44-4.86-12.13-4.86a5.5 5.5 0 0 1-4.9-2.82c-.6-.94-.94-1.8-.16-2.77.78-.98 1.48.02 2.16.17 1.04.24 2.02.74 3.02 1.13zm-34.59-38.45c-.08.93.55 1.22.94 1.62 13.66 13.79 28.02 26.84 42.5 39.76.48.42 8.1.83 8.6.45q.22-.18.35-.49c1.09-2.21 3.06-2.32 5.16-2.27 4.84.1 9.62-.12 14.41-1.16a31.7 31.7 0 0 0 19.43-12.71c8.15-11.13 10.62-23.7 8.86-37.17-.48-3.63-1.2-7.27-3.34-10.51-5.43-8.2-13.43-13-22.02-17.04-1.24-.58-2.38-.29-3.39 1A163 163 0 0 1 499.5 480c-1.96 1.85-4 3.47-1.28 6.24.38.4.54 1.1.6 1.68.8 6.9-1.28 13.21-4.47 19.08-3.1 5.72-8.67 8.2-14.85 9.37-4.41.84-8.86 1.62-12.6-1.87a150 150 0 0 1-8.17-8.2c-.83-.9-1.93-1.87-1.95-3.3-.02-1.71-1.03-1.95-2.42-1.9-3.21.14-6.4 0-9.47-1.24zm63.71-41.9c-13.68-.94-25.97 1.52-36.68 9.62-8.06 6.09-14.72 13.49-19.36 22.5-3.1 6.03-2.91 6.1 3.61 7.27 1.49.27 2.94-.22 3.4-1.34 1.27-3.13 3.9-4.85 6.34-6.75 6.1-4.74 12.7-8.62 20.24-10.5a7.7 7.7 0 0 0 4.24-2.42 211 211 0 0 1 18.21-18.37zm-42.51 125.9c5 4.7 9.68 8.58 13.73 13.02C497.3 616 512.32 637.14 528.9 657a244 244 0 0 0 30.19 30.3 3003 3003 0 0 0 38.84 32.05c10.17 8.28 20.08 16.88 30.6 24.72.25.18.55.34.7.6.64 1.14 2.36 2.21 1.32 3.59-.91 1.2-2.18-.2-3.12-.7-8.42-4.33-16.03-9.9-23.6-15.54-14.51-10.82-28.26-22.6-42.07-34.28-15.22-12.84-28.61-27.45-40.98-43.06-13.25-16.71-25.53-34.15-38.62-50.96-5.07-6.51-10.38-12.84-16.06-19.86zm-19 173.91c-.76-5.3-.15-10.63.3-15.93.12-1.4.06-2.35-1.03-3.14-4.71-3.41-8.91-7.5-14-10.43-6.28-3.6-13.07-5.58-20.05-7.18-1.73-.4-1.68.81-1.83 1.56a52 52 0 0 1-2.55 8.28c-.27.73-.42 1.8-1.28 1.85-1.18.08-1.85 1.66-3.3.89-1.56-.82-.78-2.15-.83-3.22a229 229 0 0 1-.13-10.48c0-.58-.06-.85-.67-1.09-2.3-.9-4.8-.32-7.14-1.05-.66-.21-.5.65-.68 1.07a712 712 0 0 1-4.23 9.03c-.37.79-.55 1.71-1.47 2.17-.61.3-1.02 1.14-1.83.86-.96-.33-.92-1.25-.95-2.05-.15-3.94-.03-7.84 1.84-11.54-7.55-1.67-15.11-.32-22.5-1.54-.6-.1-1.3.12-1.8-.11-.91-.42-2.32-.35-2.3-1.95s1.32-1.4 2.27-1.61c9.32-2.08 18.76-1.5 28.15-.96 7.47.42 14.87 1.7 22.2 3.4a77 77 0 0 1 32.89 16.6c11.79 10.06 24.43 18.81 38.3 25.78 11.5 5.77 23.23 10.88 35.76 14 1.8.44 3.6.84 5.69 1.33-3.8 1.53-20.92-2.94-38.85-10-12.62-4.96-24.31-11.66-35.73-19.69l-3.43 15.19zm288.27 80.25q-.4.6-.82 1.15c-7.3 9.07-15.65 16.91-26.12 22.23-1.44.73-3.33 1.96-4.62-.6-1.22-2.43-.35-3.85 1.82-5.15 8.44-5.06 16.63-10.5 24.17-16.84.77-.66 1.48-1.39 2.24-2.05.51-.45 1.03-1.42 1.67-1.03.7.43 1.05 1.4 1.66 2.29"/><path fill="#000" d="M507.28 765.76c1.03-1.81 2.6-1.9 3.9-2.2 5.53-1.3 11.18-1.57 16.86-1.4.76.03 1.52.1 1.78.87.34 1.01-.77 1.2-1.26 1.33-6.93 1.89-13.93 3-21.27 1.4zm-18.84.54c-.2.64.63 2.05-1.2 1.96-.93-.05-4.25-3.48-4.28-4.42-.04-1.02.13-1.94 1.44-1.63 2.45.56 4.45 1.55 4.04 4.1zm-190.3-215.16c.2-8.36 2.28-16.43 4.39-24.43 4.34-16.49 8.98-32.9 15.19-48.8 3.7-9.49 6.94-19.24 13.38-27.4.37-.47.83-1.34 1.15-1.3 1.3.17 3.2-5.57 4.1.51.26 1.77 2.84 3.08 3.72 5.44a10 10 0 0 1 .02 7.56c-6.57 16.56-11.77 33.61-19.03 49.92-5.7 12.82-10.52 26-13.23 39.86a18 18 0 0 1-2.92 6.92c-1.57 2.22-2.74 2.26-4.61.24-2.27-2.45-2.26-5.47-2.16-8.52m37.41-99.47c-1 .52-1.69 1.66-1.18 2.1 1.8 1.63.38 2.82-.33 3.97-2.45 3.95-5.55 7.58-7.45 11.77-4.52 10.01-9.08 20.06-11.8 30.78-3.92 15.42-9.75 30.33-12.15 46.13-.56 3.68-1.5 7.43-.45 11.38 1.17-.71 1.24-1.67 1.52-2.61 2.65-9 4.08-18.3 6.96-27.24 7.34-22.77 17.62-44.46 24.83-67.29.99-3.12 1.33-5.89.05-8.99m33.37-59.9c.02 6.34-6.14 10.14-11.85 9.1-3.61-.67-6.34-4.65-3.2-8.8 2.43-3.23 5.5-5.63 9.74-5.74 3.38-.1 5.28 1.98 5.31 5.44m-6.1 1.4c-.14-1.36.17-3.51-2.33-3.27-1.61.15-3.16 4.8-2.25 6.2.6.93 1.53 1.94 2.67 1.4 1.61-.75 1.94-2.4 1.9-4.33zm.96 22.19c-7.06-.14-14.1-.46-21.08-1.5-1.26-.18-2.91-.38-2.94-1.92-.03-1.45 1.5-1.53 2.74-1.77 7.66-1.43 14.97.05 22.14 2.57.68.24 2.13.3 1.73 1.57-.35 1.06-1.6 1.05-2.6 1.05zM350.36 424c-2.38-.36-5.29-.09-8.12-.92-.93-.27-1.81-.36-2.03-1.45-.22-1.15.46-1.92 1.32-2.55 1.98-1.45 4.26-.97 6.45-.91 2.65.07 5.07 1.07 7.42 2.16.72.34 1.9 1.19 1.54 1.89-.44.83-1.11 2.03-2.46 2-1.21-.03-2.43-.12-4.12-.22M299.7 581.64c.1-1.09.35-1.88.19-2.58-.25-1.05-.6-2.43-1.67-2.7-1.26-.32-1.3 1.26-1.87 2-1.07 1.37-1.4 3.07-2.01 4.66.7 1.16 1.6-.88 2.4.27-1.96.82-4.05 2-5.77.17-1.5-1.6-.93-3.75-.08-5.67 1.38-3.14 3.94-4.68 7.16-5.29 1.26-.24 2.7-.04 2.9 1.42.36 2.51 1.09 5.2-1.25 7.71zm-8.75 10.86c-3.1 10.48-7.83 20.3-5.98 31.75-5.25-5.54-1.1-27.04 5.98-31.75M382 474.05c-3.82-1.17-7.79.37-11.43-1.03-1-.38-2.7.06-2.46-2.03.25-2.17 1.54-1.78 3.03-1.64 4.16.39 8.04 1.31 10.86 4.7m-106.67 65.3c2.06-6.1 3.39-12.45 7.13-17.76-.65 6.67-4.27 12.1-7.13 17.76m103.26-55.53c-3.76-.78-7.52-1.51-11.25-2.4-.73-.18-2.04-.48-1.8-1.63.2-1 1.35-.62 2.1-.62 4.3-.02 8.08 1.21 10.94 4.65zm-34.05-55.26c1.17 0 1.61-.12 1.96.02.76.31 2.09.23 2.09 1.22 0 1.03-1.18 1.1-2.09 1.17-.78.06-1.58.1-2.33.32-.91.26-1.9.61-2.27-.54-.43-1.28.83-1.64 1.64-2.06.5-.26 1.17-.15 1-.13m25.48 60.32c-.96-1.12-3.31.23-3.97-1.62-.38-1.06 1.38-1.29 1.94-1.23 1.36.12 2.78.71 3.35 2.14.2.5-.5.74-1.32.7M604.1 258.94c-3.31-4.03-7.58-5.5-11.97-6.65-5.36-1.4-6.68-.76-9.45 4.02-2.51-3.14-1.7-4.91 1.77-6.63 2.24-1.1 4.09-2.53 6.8-2.35 5.21.34 12.37 6.36 12.85 11.6M495.98 533.47c-3.73-1.14-7.88 0-11.78-1.69-1.99-.87-3.86-1.73-5.33-3.28-.76-.8-2.53-1.7-1.63-2.76.95-1.13 2.59-2.19 4.41-1.8 1.17.24 2.3.67 3.44 1.06 14.28 4.84 30.13.14 38.35-13.45 1.73-2.85 2.52-6.09 3.42-9.26.31-1.12-.21-1.86-1.28-2.43-.66-.34-1.34-1.19-.78-1.97.49-.67.98-1.23 2.19-1.51 2.97-.7 4.92 1.25 7.23 2.03 1.7.58 1.47 2.71 1.03 4.31-2.55 9.1-8.27 16-15.42 21.82-6.86 5.6-14.81 8.52-23.85 8.94zm15.62-49.83c.17-2.67 3.07-5.5 4.81-4.23 1.69 1.23 3.99 2.29 4.95 4.38 1.25 2.71 1.18 5.69 1.22 8.61.02.78-.5 1.27-1.35 1.32-4.3.25-9.93-5.64-9.64-10.09z"/></svg>