<svg xmlns="http://www.w3.org/2000/svg" width="1080" height="1080" fill="none" viewBox="0 0 1080 1080"><path fill="#fff" d="m513.4 158.05-4.85 1.94-3.18-5.56c3.18-.86 6.86-2.06 10.64-2.82 5.16-1.05 10.38-1.8 15.59-2.58 2.35-.35 4.75-.4 7.13-.67.34-.05.71-.54.9-.92 1.9-3.78 3.82-7.57 5.6-11.42.29-.61.17-1.97-.26-2.28-4.36-3.12-3.33-7.12-1.89-11.3-3.6-1.07-7.24-1.81-10.6-3.18-9.94-4.03-16.55-11.44-20.49-21.3a66 66 0 0 1-4.67-30.4c.58-7 2.1-13.95 2.56-20.96.2-3.18-1.24-6.45-1.78-9.7-.41-2.5-2.3-4.92-.57-7.56.41-.63.96-1.62 1.5-1.65 5.79-.4 11.36-2.7 17.37-1.6 1.73.3 3.87-1.33 5.75-2.22 11.58-5.54 23.73-9.53 36.38-11.33 4.35-.61 6.23-3.68 9.22-5.54 3.6-2.23 7.58-2.48 11.4-3.49.52-.13 1.8.66 1.88 1.15.6 4.17 3.49 7.04 5.9 10.04.94 1.17 3.39 1.59 5.13 1.55 3.52-.07 7.03-.71 10.55-1.07 2.54-.25 4.06.44 3.89 3.52a5.54 5.54 0 0 0 3.86 5.81c6.2 2.1 12.55 3.82 18.73 6 2.66.94 5 2.77 7.6 3.92 3.04 1.33 6.26 2.23 9.3 3.55a367 367 0 0 1 15.49 7.2c.64.32 1.3 1.8 1.1 2.44-1.11 3.22-2.26 6.49-3.89 9.46-.94 1.7-2.65 3.67-4.37 4.11-2.26.59-2.17 2.4-3.42 3.72 1.91 1.45 3.72 2.9 5.61 4.24 2.9 2.04 3.2 3.93 1.03 6.78-1.09 1.43-1.63 2.64-.36 4.64 1.11 1.78 1.01 4.31 1.5 6.79-7.47 3.7-13.57-1.73-20.94-3.02-.66 6.33-1.45 12.58-1.88 18.85-.12 1.7.35 3.85 1.37 5.14 3.99 5.09 3.1 9.87-.31 14.64-4.53 6.33-9.13 12.6-13.68 18.92-1.57 2.18-3.04 4.42-4.6 6.6-1.36 1.9-3.08 3.06-5.59 2.9-4.56-.27-9.2-.96-13.7-.47-6.74.74-13.07-.31-19.4-2.37-.51-.17-1.9.98-2.23 1.79-2.84 6.83-5.53 13.73-8.26 20.61-.25.63-.34 1.35-.72 1.87-5 6.6-1.7 12.15 2.66 17.03a221 221 0 0 0 17.03 17.04c4.07 3.66 6.03 7.95 6.9 13.15.75 4.48 2.1 8.87 2.84 13.35.98 6.06 1.81 12.16 2.36 18.27.76 8.68.49 17.5 1.97 26.05 2.38 13.7 2.06 27.5 2.95 41.25.5 7.75 2.57 15.4 3.95 23.1q.1.4.38.74c5.75 6.9 8.13 15.64 12.73 23.14 4.2 6.83 9.12 13.21 13.73 19.78 1.48 2.12 3.12 4.15 4.5 6.32 1.07 1.68 1.93 3.54-.44 5.3 8.88 13.4 17.8 26.78 26.6 40.21q4.06 6.18 7.58 12.66c2.06 3.8 3.1 7.75 2.59 12.38-.48 4.24.69 8.64 1 12.98.3 4.56-.12 9.26.88 13.64.78 3.43 2.92 6.73 5.05 9.65 2.71 3.7 2.02 7.14-.08 10.42-1.17 1.82-.97 3.02.05 4.6a119 119 0 0 1 12.78 25.46 52 52 0 0 1 2.07 8.94q1.23 7.55 2.08 15.14c.14 1.15-.36 2.36-.56 3.53-6.95-.56-7.84-7.9-13.14-10.65-1.47 1.67-2.95 3.58-4.68 5.22a6.4 6.4 0 0 1-3.4 1.62c-.59.07-1.84-1.15-1.9-1.87-.14-1.58-.06-3.35.53-4.8 1.3-3.17 2.95-6.2 4.68-9.75-1.7-5.14-6.9-6.56-12.27-8.6l1.04 11.86c.24 2.71.55 5.44-2.19 7.21-4.48-1.38-6.35-5.6-9.19-8.82-.13-.15-.2-.35-.34-.48-4.28-4-5.41-9.17-5.47-14.74-.04-3.87.23-7.76-.19-11.6-.32-2.9-1.63-5.68-2.3-8.56-1.48-6.42-6.65-7.39-11.91-8.25-2.4-.4-4.8-.68-7.18-1.1-3.51-.62-4.67.32-4.85 4.02-.05.96.11 2.05-.28 2.86-1.9 4.06-3.65 8.1-7.67 10.9-2.9 2.01-3.7 5.62-3.15 9.2 1.1 7.12 1.88 14.32 3.54 21.31 2.78 11.68 6.24 23.2 9.2 34.84 1.3 5.1 2.34 10.29 2.97 15.5.47 3.8-.85 5.23-4.49 6.54-1.95.71-3.94 1.3-5.79 1.9.81 5.27 1.22 10.68 2.52 15.87 2.84 11.27 5.8 22.55 9.4 33.6 2 6.2 5.6 11.87 8.07 17.94 2.87 7.08 6.22 14.15 7.71 21.57 2.17 10.83 2.1 21.98.95 33.04-.5 4.82-.75 9.66-1.28 14.47-.63 5.74-1.48 11.45-2.2 17.18-.46 3.74-.94 7.48-1.24 11.24-.32 4.08-.43 8.17-.64 12.25q-.24 4.79-.54 9.56a79 79 0 0 0 2.94 26.86c1.06 3.76 1.12 7.8 1.92 11.64 1.02 4.93 2.43 9.77 3.48 14.7 1.22 5.79 2.21 11.64 3.35 17.45.8 4.06 1.74 8.1 2.53 12.16 1.92 9.92 3.92 19.83 5.66 29.78 1.4 8.02 2.53 16.1 3.64 24.17.45 3.36-.13 6.99.87 10.14 3.91 12.27 9.84 23.52 18.57 33.13.35.4 1.14.38 1.74.52.33.08.82-.04.99.15 3.55 3.96 7 8.01 10.6 11.92 3.18 3.45 6.5 6.77 9.8 10.12q2.91 3.01 5.97 5.89c4.3 4.01 10.03 4.81 15.32 6.28 12.98 3.63 26.12 6.69 39.17 10.04 1.6.41 3.88.24 3.66 2.99-.01.18.33.43.55.57 1.2.75 3.23 1.3 3.44 2.25.6 2.81.84 5.8.56 8.66-.85 8.68-8 11.97-14.38 15.48-7.02 3.86-14.9 5.3-22.87 5.89-5.04.38-10.13.18-15.15.68q-13.23 1.27-26.39 3.17c-8.72 1.27-17.37 2.94-26.06 4.41-12.77 2.14-25.53 4.35-38.33 6.35-7.68 1.21-15.38 2.81-23.21.7-3.79-1.03-6.68-3.53-6.7-8.47 0-3.69-1.29-7.36-1.59-11.06-.25-3.1-.58-6.46.31-9.34a112 112 0 0 1 15.24-31.12c2.7-3.86 6.37-7.44 5.52-12.87-.18-1.21-.53-2.4-.83-3.6-.38-1.5-1.6-2.86.74-4.24.83-.49.46-3.02.6-4.35-.56-.11-1.2-.06-1.6-.34-2.31-1.64-1.58-4.33-1.54-6.37.15-5.97-1.67-11.5-2.94-17.17-2-9-3.54-18.1-5.6-27.1-3.4-14.77-7.02-29.49-13.09-43.5-4.3-9.93-8.6-19.85-11.08-30.48-.76-3.26-3.15-6.12-4.58-9.25-3.38-7.35-4.9-15.19-5.86-23.17-.19-1.53-.5-3.05-.74-4.54-2.88-.98-3.45-2.75-2.93-5.71.8-4.54.91-9.2 1.34-13.81q1.71-18.77 3.5-37.52c.94-9.77 2.4-19.51 2.84-29.3.5-11.02-3.28-21.25-8-31-7.63-15.78-15.65-31.37-23.47-47.06-1.68-3.38-3.2-6.83-4.84-10.36-2.55 2.33-2.92 6.1-4 9.42a730 730 0 0 0-8.54 27.88c-1.2 4.21-1.87 8.57-2.68 12.89q-1.1 5.94 4.15 9.06a30 30 0 0 1 3.32 2.27 7.7 7.7 0 0 1 3.18 5.9 23.96 23.96 0 0 1-16.45 24.06 65 65 0 0 0-10.12 4.3c-5.2 2.77-10.73 4.08-16.49 4.95a12 12 0 0 0-5.88 2.53c-12.65 10.98-24.02 23.18-33.5 37.03-5.67 8.3-10.42 17.28-16.4 25.35-6.85 9.24-14.57 17.84-21.98 26.66-5.75 6.85-12.36 13.12-17.2 20.55-6.42 9.83-14.37 18.31-21.42 27.56-3.58 4.7-6.59 9.82-9.93 14.7-3.05 4.46-6.21 8.85-9.32 13.28-.2.28-.34.62-.64 1.15.9.08 1.65-.06 2.18.23 1.56.81 3.5 1.43 2.23 4a89 89 0 0 0-3.54 8.18c-.35.92-.46 2.26-.05 3.1 4.7 9.53 7.72 19.65 9.67 29.99.94 5 1.22 10.07 4.05 14.45 3.16 4.9 6.73 9.56 9.75 14.55a1103 1103 0 0 1 18.5 31.49c2.45 4.37.35 9.5-3.8 12.24-4.54 3.01-9.44 5.32-14.77 4.99-4.19-.27-8.78-1.41-12.3-3.6-12.46-7.73-25.22-15.2-35.36-26.07a251 251 0 0 1-13.1-15.58c-5.78-7.27-11.33-14.71-17.01-22.05-.71-.92-1.62-1.7-2.5-2.48-7.56-6.81-15.04-13.73-22.76-20.36-5.16-4.43-5.33-9.33-3.5-15.49 2.28-7.64 7.92-11.98 13.79-16.2 6.52-4.7 13.3-8.9 21.08-11.58 3.24-1.12 5.81-4.72 8.2-7.6a306 306 0 0 0 14.49-18.51c3.37-4.74 6-10 9.1-14.93 1.41-2.25 3.47-4.14 4.72-6.46 1.97-3.65 3.52-7.53 5.22-11.33 1.52-3.4 2.95-6.82 4.47-10.22q5.38-12.08 10.8-24.14c.36-.79.68-1.58 1.08-2.34.83-1.58 1.34-2.88.2-4.84-.8-1.39-.7-3.84-.06-5.45 3.44-8.68 7.44-17.15 10.75-25.87a110 110 0 0 1 17.03-29.81 86 86 0 0 1 33.91-25.89c5.3-2.25 10.79-4.1 16.26-5.92 3.68-1.21 6.85-3 9.34-6 1.91-2.31 4.4-4.08 5-7.44.4-2.21 3.33-3.26 5.68-2.77 1.2.25 2.45.27 3.6.4 1-6.14 1.9-11.97 2.9-17.79 1.08-6.22 2.33-12.42 3.33-18.65.44-2.77.27-5.62.69-8.4.98-6.63 2.48-13.2 3.12-19.86.4-4.04-.35-8.2-.73-12.28-.05-.5-1-.93-1.52-1.39l-1.07.55c-.44-5.64-1.34-11.3-1.23-16.93.18-9.55-2.21-18.6-4.08-27.8-.88-4.33-.04-9.06.31-13.58.43-5.5 1.25-10.95 1.76-16.45.57-6.23.96-12.48 1.46-18.72.27-3.35.83-6.7.8-10.06-.01-1.24-1.38-2.46-2.44-3.4l-.6-2.98-4.34 1.14c-1.07-.4-2.77-1.03-4.57-1.68-3.77 4.9-7.68 9.85-11.4 14.95-.56.77-.47 2.2-.29 3.27 1 6.14 2.37 12.24 3.06 18.41.22 1.93-1 4.2-2.03 6.05-1.32 2.34-3.11 4.41-4.71 6.59-1.83 2.49-3.7 4.81-7.37 3.4-.68-.27-1.55-.04-3.07-.04-.1 6.59-.27 13.16-.26 19.73.02 3.4.46 6.78.51 10.18.02.95-.38 2.4-1.04 2.73-.67.36-1.97-.24-2.88-.66-.67-.32-1.19-1-1.72-1.58-5.56-6.1-10.96-12.37-16.77-18.22-1.68-1.7-4.51-2.31-6.87-3.27a40 40 0 0 0-5.4-1.73c-5.38-1.35-8.65-4.88-11.06-9.71-4.2-8.44-.63-15.08 4.47-21.47 3.89-4.87 8.14-9.5 11.64-14.63 1.75-2.58 2.15-6.07 3.26-9.1.76-2.07 1.43-4.25 2.63-6.07 2.06-3.12 2.67-6.07 2-9.95-.66-3.74.3-7.8.78-11.7.35-2.9-1.25-6.44-4.07-7.32-7.78-2.42-15.68-15.06-14.13-23.37 1-5.37 3.14-10.54 4.73-15.8.46-1.51.8-3.05 1.32-5.01-7.5.92-13.85-.87-19.49-5.09-5.17-3.85-9.87-8.14-11.76-14.6-1.13-3.85-1-3.89-5.03-3.42-1.29 4.83-5.53 6.66-9.39 8.46-3.3 1.55-7.09 2.07-10.65 3.06-1.38.38-2.93.51-4.08 1.26-2.65 1.72-4.2-.51-6.1-1.38-1.74-.8-2.17-2.33-1.76-4.14.01-.07.12-.12-.17.15 3.49 0 6.62-.13 9.73.03 5.15.26 8.93-2.26 12.45-5.57 1.27-1.19.97-1.92-.33-2.68-.57-.34-1.11-.74-1.67-1.1-1.53-1.02-3.97-1.75-4.4-3.1a20 20 0 0 1-.7-8.74c1.64-10.98 3.65-21.91 5.5-32.86.3-1.7.72-3.4.82-5.1.1-1.75-.07-3.52-.22-5.27-.25-3.06-.58-6.11-.9-9.35-.9.82-1.77 1.8-2.82 2.54-1.97 1.4-3.54.94-4.72-1.23-2.05-3.75-.87-8.93 2.75-11.28.62-.4 1.92-.23 2.67.14 1.93.92 2.9.89 4.3-1.26 2.99-4.54 2.6-9.93 4.51-14.72 3.55-8.85 6.5-17.95 10.15-26.76 1.88-4.55 4.94-8.42 10.42-9.33.7-.11 1.29-.82 2.47-1.62-4.15-.7-7.54-1.23-10.9-1.9a8 8 0 0 1-3.15-1.27c-2.47-1.83-2.45-2.55-.22-4.74.97-.97 2.1-1.82 2.87-2.93 3.46-4.9 8.17-5.12 13.38-3.83 1.3.32 2.63.45 4.52.11l-4.07-6.3c-2.05-3.2-.55-12.34 2.47-15.65 6.42-7.05 14.37-11.85 23.16-15.14 4.12-1.54 4.53-7.48 2.53-10.13-.95-1.25-2.6-1.96-3.88-2.96a2.5 2.5 0 0 1-.64-.92c-3.02-6.4-4.53-12.96-2.12-19.94 2.93-8.5 14.02-17.3 22.77-17.55 2.75-.09 5.54 1.14 8.34 1.55 2.27.34 4.6.45 6.9.48.54 0 1.43-.6 1.6-1.12a307 307 0 0 0 4.42-14.29 32.6 32.6 0 0 1 9.88-16.2c.44-.39 1.19-.45 2.7-.99.08 3.14.27 5.83.2 8.52-.09 3.2-.12 6.46-.67 9.6-.63 3.6-1.87 7.1-2.76 10.67-1 4.08-2.14 8.15-2.79 12.28-.55 3.5 2.92 3.43 4.94 4.46 2.08 1.06 2.14-1.02 2.78-2.12 6.62-11.42 13.87-22.3 25.93-28.8 1.87-1.01 2.55-2.21 2.2-4.38-.22-1.45.31-3.02.5-4.54l.4-.46-.72.08zm-78.06 62.31c3.2-8.18 8.97-14.35 15.19-20.16.32-.3 1.13-.16 1.7-.13 4.56.29 10.49-3.62 12.18-8.3-3.87-1.93-8.02-1.33-11.63-.08-2.57.9-3.38-.02-4.52-1.39a33 33 0 0 0-14.12 9.13c-5.08 5.4-6.17 15.97 1.2 20.93m-4.13 19.42-.71-.41c-4.75 2.6-8.83 5.79-11.53 10.76-3.82 7.03-2.16 13.87 4.57 17.84.79-.7 1.85-1.24 2.2-2.06.75-1.75 2.14-4.38 1.45-5.37-1.62-2.31-.47-4 .04-5.93q1.97-7.41 3.98-14.83"/><path fill="#fff" d="M356.26 475.3c-2.64-6.67-1.14-12.92.45-19.28 1.12-4.45 3.6-6.57 7.95-7.8 3.86-1.08 7.56-3.06 11-5.2 2.15-1.33 3.62-3.72 5.5-5.52.57-.56 1.5-.73 2.27-1.08-.04.77.17 1.69-.17 2.28-1.34 2.3-3.14 4.38-4.25 6.79-2.82 6.04-9.51 5.6-14.01 8.78-.86.6-1.87 1.3-2.26 2.19q-4.5 10.14 0 20.33c1.43 3.23 3.05 6.4 4.21 9.72.43 1.22.35 3.42-.43 4.07-.98.83-2.96.91-4.4.67-4.55-.77-5.73-4.59-6.88-8.27a38 38 0 0 1-1.05-4.47c-.33-1.71-.64-3.5 2.07-3.2z"/><path fill="#000" d="m459.72 567-2.03 1.31c-1.48 8.37.04 16.82-1.9 24.97l-1.04.09c-.7-3.12-1.61-6.2-2.04-9.34-.54-3.99-.69-8.02-.99-12.04-.01-.16.23-.38.18-.5-1.59-4.39.15-8.73.15-13.1 0-4.65.17-9.32.7-13.94.28-2.49 1.4-4.89 2.31-7.27.1-.28 1.71-.41 1.82-.2.68 1.32 1.5 2.74 1.57 4.17.17 3.89 0 7.8-.04 11.7l-.4 1.2-.98 8.9c1.1-.31 1.88-.82 2.27-.6 2.92 1.57 3.76-.79 4.82-2.51 2.31-3.78 4.5-7.62 6.91-11.71-5.86-6-7.76-14.53-10.7-22.54-.53-1.44-1.04-2.16-2.71-2.13-9.34.16-18.55-.66-27.39-4.04-.4-.16-.93-.02-.6-.02-1.62 4.17-2.31 8.58-4.72 11.6-5.11 6.43-8.65 13.8-13.42 20.38-.81 1.11-2.66 2.14-2.6 3.12.25 3.54 1.07 7.05 1.75 10.56.06.31.7.54 1.1.77q5.07 2.88 10.13 5.79 4.98 2.87 9.98 5.78s.1-.06.12-.14c.23-1.28.05-3.3.77-3.7 1.92-1.06 2.73 1.17 3.76 2.25.96 1.02 1.63 2.33 2.34 3.56 2.66 4.6 5.17 9.26 7.96 13.77.87 1.42 2.23 2.88 3.71 3.5 2.77 1.18 5.79 1.76 8.91 2.64.5 2.77.4 2.54-2.72 2.94-9.64 1.23-15.46-5.7-19.31-12.8-.98-1.79-1.85-3.64-2.7-5.36-5.63 1.21-10.63-.94-15.47-2.84-4.25-1.67-8.09-4.38-12.14-6.58-1.69-.91-1.67-2.07-1.59-3.9.12-2.97-.95-5.97-1.18-8.97-.33-4.4-1.54-8.73 1.9-12.9 2.96-3.57 4.7-8.13 7.21-12.1 2.38-3.73 4.02-8 8.55-10.21 1.26-.62 1.3-3.73 1.9-5.7l.86-2.85c-2.17-1.38-4.47-2.86-6.78-4.32l.1-1.12 5.49-1.14c.68-4.78 1.32-9.82 2.12-14.82.46-2.87.84-5.82 1.83-8.52 1.19-3.24.36-5.11-2.77-6.21-.3-.1-.55-.4-.82-.61l21.48 6.19.26-.7c-6.4-2.43-12.76-4.92-19.21-7.18-.8-.28-2.07.74-3.12 1.16-1.88-1.42-3.9-2.69-5.61-4.27-2.89-2.66-5.62-5.5-8.36-8.32-1.67-1.72-1.72-3.8-.79-5.87 1.24-2.74 2.9-5.3 3.88-8.13 1.56-4.46 2.7-9.08 3.96-13.41l-14.69-3.5c-4.8 7.06-7.19 14.1-5.78 19.13-1.32-.6-2.55-.75-2.92-1.4-2.67-4.64-3.39-9.43-.68-14.39 1.27-2.3 2.34-4.71 3.49-7.05-3.08-2.34-6.2-4.44-5.07-9.12.2-.8-1.2-2-2.26-3.63.4 2.05.8 3.4.93 4.8.75 7.19-.24 13.81-6.06 18.99-2.03 1.8-3.37 4.57-5.62 5.93-2.9 1.76-6.4 2.51-9.6 3.79-6.13 2.44-7.8 5.38-4.94 12.03 1.14 2.66 1.08 5.8 2.04 8.55 1.03 2.91 2.21 5.97 4.13 8.3 2 2.46 3.22 4.9 1.5 7.46-1.15 1.72-3.59 2.58-5.24 3.69.58.12 1.96.4 3.34.7-1.34 1.34-2.71 1.44-4.85 1.12-4.7-.71-7.4-3.57-9.46-7.21a39 39 0 0 1-4.9-25.34c.69-4.94 2.06-9.5 4.43-13.7 3.12-5.55 8.62-7.71 14.51-9.15 3.04-.74 6.23-.62 8.91-3.12 3.53-3.27 4.72-7.4 5.73-11.72.41-1.75.42-3.59.6-5.26-3.5 2.77-6.36 5.98-9.94 7.6-3.64 1.65-7.99 1.74-12.31 2.56-.55 2.18-2.54 2.77-5.01 2.97-2.84.23-4.5-1.02-5.77-3.39-1.32-2.46-2-4.97-1.36-7.7.54-2.28 1.92-3.58 4.43-3.66 2.6-.09 2.62 1.87 3.1 3.52l.48 1.67c-1.6-.48-2.96-.89-4.45-1.32-.02 4.4 1.35 5.92 4.47 5.6 1.88-.2 2.04-1.37 1.59-2.69-1.33-3.95 0-4.54 3.3-4.99 3.67-.49 7.32-1.05 10.57-3.78-1.3-.59-2.4-1-3.4-1.58-2.08-1.2-3.93-2.73-3.24-5.43.92-3.58-.57-6.93-.59-10.38-.03-6.07.26-12.14.67-18.2.34-4.8 1.07-9.56 1.63-14.33.5-4.3 1.03-8.58 1.55-12.94-1.52.1-3.25.5-4.85.22a6 6 0 0 1-3.55-2c-2.04-2.8-.6-8.23 2.08-10.54 2.1-1.8 4.17-3.1 6.98-2.59.57.1 1.03.75 1.55 1.15-4.09.94-5.6 5.34-4.57 10.54 3.3-1.03 5.56-6.4 4.47-10.57.35-.32.92-.58 1.01-.96 1.8-7.75 3.2-15.63 5.42-23.26a198 198 0 0 1 7.79-21.33c1.7-4.03 4.1-7.79 9.5-8.02.96-.04 1.82-2.28 2.86-3.68-.82-.38-1.3-.74-1.82-.81-1.38-.19-3.03-.4-2.46-2.2.3-.97 1.77-2.15 2.77-2.21 4.21-.25 8.45-.1 12.3-.1-2.87-3.26-6.01-6.4-8.62-9.91-2.76-3.74-2.55-7.96-.82-12.23 3.87-9.56 11.63-15.25 20.17-19.98 2.74-1.52 6.15-1.81 9.25-2.66.37-.1 1.02-.07 1.08-.26.54-1.59.8-3.3 1.5-4.8.92-2-.04-2.76-1.51-3.92-2.28-1.82-4.72-3.82-6.12-6.3-3.1-5.49-2.96-11.78-1.02-17.4 3.3-9.6 9.87-16 20.24-18.6 7.5-1.88 14.22-.74 20.9 2.26 2.3-7.12 4.83-14.22 6.87-21.46 1.45-5.16 4.23-8.82 9.17-10.9.51-.23.92-1.07 1.06-1.7.73-3.22 2.76-5.14 6-4.98 4 .18 8.18.07 11.92 1.24 3.16 1 5.79 3.65 8.44 5.43.54-.5 1.35-1.66 2.46-2.2 6.66-3.16 13.34-6.3 20.68-7.68 1.9-.36 3.4-.65 4.6 1.5.56 1 2.15 1.41 3.23 2.06l3.68-9.54c-4.88-2.95-5.31-7.34-3.88-12.22-11.81-2.57-21.54-8.17-28.97-17.7-3.07-3.94-6.44-7.62-8.05-12.47-3.47-10.48-2.9-21.02-.28-31.54 1.32-5.36 2.7-10.74 6-15.05-1.51-2.44-3.33-4.65-4.3-7.17a34 34 0 0 1-1.95-8.84c-.37-3.84 1.9-6.19 5.73-6.14 5.7.06 11.42.42 17.13.43 1.04 0 2.2-.98 3.12-1.72 7.85-6.3 16.97-9.49 26.74-11.09 4.06-.67 8.15-1.27 12.24-1.71 1.4-.16 2.88.23 4.32.37 5.05-5.81 11.67-9.1 19.13-10.83 1.8-.41 3.28.43 4.03 2.43 1.97 5.31 3.84 10.67 6.22 15.8 1.02 2.19 3.19 3.86 5.1 6.07 2.3-2.88 7.04-2.4 8.43-7.15-2.91.33-5.39.83-7.86.8-1.63-.01-3.24-.8-4.86-1.25.27-.8.38-2.17.84-2.3 4.35-1.26 8.7-2.66 13.17-3.26 2.5-.34 5.44.23 7.76 1.3 3.25 1.48 3.15 4.12.21 6.3-.52.4-1.07.77-2.4 1.74 2.66.33 4.55.44 6.39.8 12.59 2.54 23.74 8.75 35.28 13.96 4.35 1.97 8.92 3.52 13.48 4.97 1.3.42 2.95-.19 4.43-.37 1.5-.19 2.74-.16 2.7 1.92-.07 4.92-5.9 11.24-10.71 11.6 3.4 4.22-.82 7.8-.97 11.72 5.46 1.97 6.23 5.61 2.04 9.83-.28.28-.51.62-.83.83-3.11 2.06-3.59 4.72-2.27 8.13.56 1.47.54 3.28.36 4.89-.38 3.38-2.43 4.72-5.7 3.8-4.09-1.17-8.13-2.5-12.42-3.83-.6 4.81-.67 9.84-1.95 14.53-1.01 3.73.69 6.32 1.63 9.42.6 1.96 1.04 4.67.15 6.27-3.67 6.62-7.86 12.94-11.87 19.37-1.01 1.62-1.97 3.29-3.15 4.78-3.31 4.2-6.7 8.3-10.1 12.42-.34.41-.97.59-2.13 1.26-.28-7.86 3.5-13.85 6.73-20.11-.42-.04-.9.04-1.16-.15-.6-.45-1.1-1.03-1.65-1.57.76-.4 1.84-1.37 2.24-1.14 2.37 1.31 3.15-.37 4.2-1.83a1888 1888 0 0 1 12.22-16.67c.42-.57 1.13-.92 1.7-1.37-3.47-2.87-6.83-6.6-6.44-14.22l-8.29-1.04c.2 2.35-1.88 5.8-4 6.04-.68.09-2-.64-2.12-1.2-.46-1.98-.51-4.06-.75-6.41l-5.73-2.76c2.17-1.51 2.2-1.64 10.74.04 3.47.68 6.81 2.06 10 3.06.78-4.11 1.5-8.36 2.42-12.55.34-1.5.19-1.98-1.4-2.37a63 63 0 0 1-24.53-12.1c-.48 3.18-.69 6.33-1.48 9.32-1.17 4.43-2 9.03-5.21 12.71-3.36 3.86-6.02 8.48-9.84 11.77a80.6 80.6 0 0 1-32.65 17.11c-1.46.38-2.9.9-4.45 1.37l.75.44c-3.69.36-7.46.9-11.25 1.07-4 .19-8.01.04-11.98.04-1.66 2.54-.67 3.91 1.56 5.53 2.32 1.68 3.95 4.28 6.1 6.23 4.32 3.9 1.92 7.99.5 12.04-1.1 3.13-2.1 6.34-3.61 9.28-1.23 2.37-.59 3.91 1.03 5.54 5.69 5.68 11.32 11.43 17.05 17.07 1.9 1.88 4.06 3.5 6.3 5.4 2.16-5.63 4.85-10.38 4.11-16.02-.04-.33.16-.94.37-1 3.27-.99 2.84-4.14 3.73-6.43 1.5-3.89 2.7-7.9 4.12-11.81.72-1.97 1.35-4.1 2.63-5.66.67-.82 2.74-.99 4.03-.73 9.77 1.95 19.49 4.08 29.22 6.19.9.19 2.1.38 2.56 1 .74 1 1.32 2.37 1.28 3.56-.01.53-1.72 1.48-2.62 1.43a98 98 0 0 1-10.57-1.12c-7.1-1.15-14.29-2.12-21.04-6.1-.51 1.83-.85 3.53-1.46 5.14-2.3 6.11-4.58 12.23-7.1 18.25-.82 2-.97 3.6.07 5.53 3.02 5.68 5.57 11.66 9 17.08 1.59 2.5 4.8 3.98 7.3 5.9 3.01 2.3 6.02 4.63 9.1 6.86s3.01 5.72 3.3 8.85c.51 5.5.56 11.06.63 16.6.02 1.44-.68 2.88-.95 4.33-.11.63-.06 1.32.03 1.96l3.32 23q1.75 12.35 3.54 24.68c.74 5.02 1.65 10.02 2.3 15.06.54 4.3.3 8.75 1.3 12.91 2.69 11.09 5.9 22.04 8.8 33.08.8 3 2.63 4.77 4.9 6.84 3.78 3.43 6.67 7.88 9.66 12.1 7.79 10.94 13.6 23.05 20.13 34.74a316 316 0 0 0 15.8 25.17c4.95 7.18 10.6 13.88 15.92 20.81 2.57 3.35 5.27 6.62 7.61 10.12 1.05 1.56 2.58 3.52-.93 5-1.42.6-1.96 3.46-2.74 5.36-1.62 3.95-3.13 7.95-4.73 11.91-.15.37-.63.6-.56.54 2.72 3.03 5.45 6.18 8.3 9.2 2.39 2.54 2.47 5.27 1.47 8.43-1.43 4.52-2.6 9.13-3.76 13.73-.18.72 0 1.78.43 2.39 6.3 8.8 10 18.53 12 29.2.7 3.7.59 7.26.85 10.87.08 1.05-.7 2.15-1.07 3.23l-.74-.12c-.74-3.4-1.24-6.85-2.28-10.15-1.75-5.56-3.34-11.18-7.32-15.81-1.59-1.85-2.15-4.55-3.4-6.73-1.96-3.37-4.1-6.62-6.37-10.25l-26.3 8.17c0 4.55.06 8.68-.03 12.8-.03 1.66.38 2.62 1.85 3.75 5.1 3.92 7.71 9.69 10.46 15.3.33.68.55 1.43.83 2.15l.81.16c.44-2.12 1.41-4.28 1.2-6.33-.34-3.45-1.84-6.79-2.1-10.23-.35-4.55 2.2-6.13 6.07-3.88 3.03 1.77 5.7 4.14 8.57 6.2 5.82 4.16 9.36 10.1 12.63 16.23.58 1.08.92 2.28 1.36 3.44 1.04 2.74 2 2.97 4.02 1 .27-.27.8-.51 1.13-.43.31.08.78.72.7.92-.53 1.4-.93 3-1.93 3.96-.46.46-2.42-.04-3.26-.69a39 39 0 0 1-4.87-4.71c-1.53-1.67-2.91-3.49-3.9-4.68-2.15 2.57-4.44 5.19-6.6 7.9-1.43 1.78-3.58 1.96-4.95 1.01-1.3-.9-2.68-3.2-2.44-4.6.88-5.23 2.41-10.33 3.7-15.48.07-.28.18-.53-.33-.26l-4.96-6.73-.8.6v8.02l.6-.25c.54.98 1.7 2.13 1.5 2.9-.8 2.88-2.03 5.65-3.15 8.43-.62 1.53-1.38 3-2.2 4.76-4.64-5.68-8.88-10.9-13.18-16.07-.55-.65-1.38-1.1-2.14-1.55-3.1-1.82-3.54-4.7-3.37-7.92.27-4.67.43-9.35.62-13.53-.89-.63-2.2-1.22-2.14-1.56.62-3.37-2.22-5.53-2.76-8.37-1-5.14-5.12-5.19-8.82-6.18-2.72-.74-5.38-1.65-8.66-2.67.24 5.57.51 10.75.65 15.94.03.84-.3 2.2-.88 2.47-2.08 1.04-1.8 2.4-1.43 4.29a2368 2368 0 0 1 7.08 37.32c1.32 7.3 2.32 14.68 3.56 22 .66 3.9 1.58 7.75 2.28 11.64.98 5.41-2.1 10.58-6.59 12.09-.76.25-2.3.3-2.44-.02-1.14-2.51-3-1.22-4.45-.85-11.83 3-23.55 6.33-34.71 11.43-10.38 4.73-20.9 9.16-31.35 13.73-4.6 2.01-9.2 4.03-13.43 5.9 3.74 7.45 7.58 14.64 11 22.03 3.68 7.9 7 15.95 10.4 23.97a430 430 0 0 1 5.72 14.25 770 770 0 0 1 6.68 18.2c.64 1.8.87 3.74 1.3 5.6q2.65-.45 5.37-.94c0-.03.08-.23.02-.34-1.1-1.8-1.69-3.88.45-5 2.07-1.08 4.17-.16 5.51 1.87.74 1.13 1.2 2.45 2.02 3.5.55.72 1.5 1.14 2.64 1.95-.18-1.3-.37-1.99-.36-2.68.02-.87.2-1.74.32-2.62.82.45 1.9.7 2.4 1.39.94 1.22 1.52 2.7 2.51 4.58l2.4-4-5.04-4.64c1.35-2.27 2.56-1.86 5.4 2.04.99-4.93-.7-9.34-1.82-13.83-1.3-5.27-2.2-10.6-.24-15.89a13.5 13.5 0 0 1 7.46-7.73c.3-2.48.05-4.86.97-6.61.77-1.46 4.12.06 5.23 2.45q.86 1.88.7 4.25l-3.73-5.09-1.12.72 4.38 7.6c-1.59.24-4.34-.05-6.1 1.13-1.91 1.27-2.89 3.93-4.3 5.96-2.48 3.6-.8 7.1.35 10.53 1.98 5.97 1.47 12.1 1.33 18.2-.08 3.38-1.8 6.59-4.52 8.17-1.97 1.15-5.01.54-7.59.54-2.5 0-5.06-.53-7.53-.22-2.7.32-3.9 2.62-4.33 5.1-.26 1.5-.05 3.07-.05 4.97 1.8-1.1 3.25-2.13 4.81-2.9 2.95-1.47 6.2-2.23 9.28-1 8.26 3.3 14.27.61 16.77-8.42 1.15 5.63-4.4 11.71-9.54 12.6-2.4.42-5.08.05-7.52-.49-3.98-.87-7.8-1.03-11.34 1.23-.87.56-1.77 1.81-1.84 2.8-.7 10.08-1.1 20.18-1.84 30.26-.59 8.16-1.47 16.3-2.33 24.45-.69 6.6-2.03 13.2-2.16 19.8-.1 4.9 1.28 9.81 2.06 15.08 4.26-1.41 7.96-1.15 11.89 2.12.88-2.48 2.02-4.48 2.2-6.57.19-2.12 1.14-3.72 2.82-3.61.94.06 2.26 2.36 2.47 3.79.51 3.5.4 7.06-2.95 9.54 4.21 3.76 6.42 8.51 7.57 13.68.24 1.1-1.46 2.62-2.72 4.7-1.35-2.1-2.3-3.28-2.94-4.61a219 219 0 0 1-4.78-10.79c-.3-.72-.14-1.8.17-2.55.61-1.45 1.49-2.78 2.26-4.17l-.79-.54q-1.2.75-2.36 1.54c-2.07 1.4-3.8 1.4-5.97-.27-1.5-1.15-3.8-1.26-6.37-2.02 2.5 14.8 8.67 27.45 13.59 40.91 3.27-1.9 6.86-3.46 9.63-5.93.97-.87-.07-4-.22-6.67-3.15 2.14-5.02.58-6.01-1.4-.76-1.53-1.05-3.79 1.37-5.11l3.45 5.94 2.93-5.83.86.27c-.31 1.1-.66 2.2-.9 3.33-.2.92-.55 1.95-.33 2.79a36 36 0 0 0 2.4 6.64c1.14 2.25-.18 3.58-1.64 4.32-3.4 1.71-6.98 3.02-11.12 4.75 12.37 28.03 22.16 57.5 26.23 89.12 10.67-2.79 21.04-5.45 31.38-8.22a60 60 0 0 0 7.23-2.55c3.56-1.46 6.38-3.59 6.23-8.08.19.52.48 1.02.55 1.55.06.48-.13 1-.24 1.73 2.13-.78 2.69-2.06 2.2-3.9-1.92-7.15-3.76-14.33-5.84-21.43-.5-1.75-1.79-3.27-2.7-4.9l-.88.4.61 3.9-1.15.02-3.94-4.45c.46 2.63-4.81 3.23-2.4 6.73l-.38.64c-1.1-1.43-2.25-2.81-3.24-4.31-1.5-2.25-.83-4.7 1.79-5.34 1.73-.43 3.7.13 5.57.25l1.1-.08c2.22.45 3.76-1.14 3.23-3.41-.4-1.77-.9-3.52-1.21-4.7-1.04.68-2.21 1.93-3.58 2.2-1.4.29-5.03-4.34-5.04-5.9-.02-1.45 2.48-3.82 4.98-4.49-.93 1.35-1.82 2.41-2.41 3.6-.33.68-.16 1.59-.2 2.39h2l.1 1.93c.5-.08 1.23.02 1.5-.27.8-.88 2.1-2.02 1.98-2.88-.45-3.2-.9-6.57-2.3-9.41-1.03-2.13-3.52-3.55-5.9-5.8l4.75.99a380 380 0 0 1-13.78-70.54c-8.26 1.72-9.81-4.94-12.62-9.86-1.8-3.14-3.17-6.53-4.68-9.82-1.24-2.72-2.11-5.73 0-8.16 2.33-2.68 5.57-3.7 9.22-2.82 2.2.53 4.42.93 6.54 1.37.26-4.93.34-10.25.85-15.51a308 308 0 0 1 2.56-20.61c1.47-8.95 3.3-17.83 5.03-26.74.8-4.14 1.76-8.25 2.52-12.39a7 7 0 0 0-.16-3.32c-3.5-10.44-7.11-20.84-10.66-31.27-2.34-6.9-4.62-13.82-7.03-21.03-4.35 1.28-8.66.17-12.56-2.32-1.67-1.06-3.45-2.56-4.22-4.28a22 22 0 0 1-1.84-8.03c-.17-4.49.47-8.91 2.67-13 1.75-3.27 3.91-5.96 7.82-7.24-1.2-4.4-2.46-8.8-3.57-13.23-.17-.69.37-1.55.59-2.33.61.47 1.42.8 1.8 1.42 4.82 7.55 6.7 16.22 9.36 24.6 1.37 4.34 2.53 8.75 3.93 13.08 2.57 8 5.3 15.95 7.86 23.95 2.65 8.26 5.2 16.56 7.79 24.83 1.63 5.23 3.47 10.41 4.8 15.72.66 2.7 1.03 5.73-1.17 8.6l-2.07-3c0 3.79.24 7.43-.06 11.04-.37 4.45-1.18 8.87-1.83 13.3-.52 3.49-1.38 6.96-1.58 10.47-.72 12.58-1.68 25.18-1.66 37.77.02 9.35 1.36 18.7 2.22 28.04.47 5.18.93 10.36 1.8 15.48 1.04 6.2 2.52 12.3 3.76 18.46q3.09 15.41 6.16 30.83c1.67 8.3 3.4 16.6 5.02 24.93 2.09 10.73 4.23 21.46 6.07 32.23.78 4.65.88 9.4 1.22 14.12.2 2.88-.08 3.12-3.25 3.3-.25-1.67-.58-3.34-.73-5.03-.17-1.88-.91-2.57-2.63-1.48-1.83 1.16-4.06 2.07-5.3 3.7-2.42 3.2-5.82 4.52-9.24 5.72-10.1 3.55-20.51 5.55-31.14 5.38.8 5.31 1.64 10.64 2.4 15.98.28 1.9.3 3.84.66 5.7.13.66.92 1.63 1.46 1.68 3.42.24 6.87.17 10.29.38 3.16.2 6.3.66 9.47.93 2.42.2 4.68-.16 6.24-2.34.37-.52.98-.94 1.15-1.5 3.7-11.57 12.56-19.04 21.22-26.64 1.16-1.03 2.23-2.17 3.43-3.15 1.58-1.3 3.84-.6 4.82 1.1 4.28 7.39 8.67 14.7 13.2 22.36-1.6 3.34-2.71 7.36-1.43 11.53a5.3 5.3 0 0 0 3.1 3.02c.85.28 2.46-.84 3.29-1.74 1.14-1.23 1.86-2.85 2.99-4.65 1.56 1.24 3.16 2.54 4.79 3.8 6.01 4.66 13.22 6.56 20.4 8.08 7.86 1.66 15.88 2.63 23.86 3.59 5.67.68 11.4.89 17.09 1.23.78.04 1.58-.43 2.95-.84.32.11 1.35.71 2.4.78 5.62.37 8.03 2.58 8.27 8.09.12 2.91-.1 5.84-.16 8.76 0 .42-.1.99.14 1.26 3.24 3.77.69 7.38-.68 10.68-2.04 4.93-6.36 8.23-10.27 11.63-11.59 10.11-26 13.47-40.52 16.6-9.18 1.98-18.43 2.72-27.81 3.06-6.27.22-12.48 2-18.73 2.96-5.3.81-10.63 1.46-15.95 2.16-5.59.74-11.17 1.52-16.76 2.17-4.6.53-9.22 1.08-13.84 1.31-9.78.51-19.57.87-29.36 1.19-3.82.13-5.82-1.79-6.81-5.54a73 73 0 0 1-1.9-26.89c.04-.4-.16-.97-.45-1.23-4.18-3.76-4.84-8.83-4.94-13.95a55 55 0 0 1 4.9-24.39c.63-1.36 1.08-2.81 1.68-4.38-3.91.59-7.42 0-9.84-3.36-3.25-4.55-1.06-12.09 3.83-15.12 4.05-2.51 8.66-4.27 13.57-2.48 1.76.64 3.68 1.78 4.72 3.25 2.06 2.97 4.1 5.77 8.28 7.28-1.02-2.75-2.07-5.07-2.75-7.5-.94-3.36-1.7-6.77-2.4-10.2-1.6-7.96-2.98-15.98-4.7-23.92a688 688 0 0 0-7.13-30.42c-1.31-4.92-3.54-9.61-5.48-14.35q-5.12-12.45-10.34-24.86c-3-7.16-6.27-14.21-8.98-21.47a172 172 0 0 1-5.84-18.74c-2.12-8.58-4.36-17.22-3.81-26.17.24-4.08 1.12-8.1 1.66-12.17.43-3.21.88-6.43 1.14-9.66.68-8.37 1.21-16.74 1.9-25.1.89-10.83 1.77-21.66 2.86-32.46.58-5.79-3.1-9.84-5.43-14.4-1.98-3.89-4.81-7.35-6.77-11.24a408 408 0 0 1-8.95-19.56c-3.17-7.27-6.16-14.62-9.24-21.94-.13-.31-.32-.6-.76-1.42-2.06 6.98-3.87 13.56-5.96 20.04-1.33 4.13-3 8.16-4.67 12.16-.63 1.51-.92 2.2 1.12 2.88 4.34 1.43 5.87 5.58 7.78 9.2 1.54 2.92 2.76 6 4.06 9.04.22.51.42 1.45.16 1.69-3.96 3.66-3.96 9.21-6.57 13.52-2.45 4.07-4.2 8.63-7.08 12.34-4.23 5.46-12.42 7.82-18.81 4.97-.62-.28-1.82.31-2.55.8-8.32 5.48-16.92 10.31-26.82 12.36-.47.1-.97.44-1.3.82a5159 5159 0 0 0-17.42 19.99c-7.63 8.8-15.3 17.58-22.85 26.46a720 720 0 0 0-15.11 18.44 916 916 0 0 0-16.32 21.14c-5.29 7.08-10.28 14.4-15.58 21.48a965 965 0 0 1-15.74 20.31c-5.22 6.61-10.54 13.15-15.7 20.17 4.77-1.3 6.48 1.55 7.8 5.04-2.35 4.3-4.54 8.99-7.37 13.24-2.28 3.42-4.86 6.36-.75 10.09.15.13.02.55.02.96-2.24.3-4.5.51-6.7.9-1 .2-2.05.55-2.86 1.14-2.7 1.93-3.15 4.87-1.36 7.67.87 1.35 4.9 1.66 7.02.5 1.17-.66 2.3-1.4 3.44-2.08l3-1.73c3.49 9.1 6.89 18.13 10.4 27.12 1.42 3.6 2.77 7.3 4.8 10.56 1.67 2.68 4.25 4.81 6.5 7.1q6.48 6.57 13.05 13.04 5.24 5.13 10.56 10.17c4.27 4.05 4.74 8.9 3.13 14.07-4.23 1.27-6.77 3.95-8.98 7.71-1.63 2.77-4.65 4.99-7.49 6.76-5.5 3.44-11.18 3.46-17.67 1.63-13.71-3.87-25.34-11.28-36.62-19.45-3.25-2.36-5.85-5.61-8.72-8.48-4.4-4.41-8.88-8.75-13.14-13.28-7.33-7.78-14.32-15.86-19.75-25.13a6.2 6.2 0 0 0-4.11-3.06c-5.4-1.52-9.79-4.8-13.33-9.03q-6.75-8.07-13-16.53c-1.88-2.56-3.3-5.47-4.77-8.31a3 3 0 0 1-.02-2.53c2.59-4.73 4.24-10.1 8.82-13.54.82-.62 1.54-1.45 2.45-1.84 1.5-.63 2.02-1.68 2.78-3.1 1.74-3.3 4.12-6.27 6.48-9.18 2.19-2.7 4.5-5.35 7.09-7.66 4.4-3.92 9.04-7.55 13.84-11.52-1.95.3-3.74.42-5.44.86-3.53.91-6.43.65-8.72-2.76-.76-1.12-2.73-1.41-4.13-2.07 2.55-6.4 10.15-8.9 16.34-7.99 3.66.55 7.82 1.16 10.1 4.6 1.95 2.94 5.45 5.44 3.23 10.11h1.13c1.33-2.1 2.7-4.17 3.95-6.3 6.26-10.8 12.36-21.68 17.3-33.17a4437 4437 0 0 1 18.76-42.74c3.4-7.66 7.04-15.22 10.45-22.88 2.03-4.55 3.67-9.28 5.78-13.8 1.88-4.01 4.19-7.83 6.26-11.76 2.98-5.69 5.6-11.6 8.95-17.06 4.68-7.62 8.5-15.97 15.47-21.93 5.25-4.5 11.08-8.19 17.86-10.2 4.79-1.42 9.42-3.38 14.2-4.8 2.82-.83 5.8-1.07 8.71-1.62 1.5-.3 2.48-.77 3.26-2.56.65-1.52 3.14-2.26 4.85-3.28.36-.22.9-.13 1.84-.24-2.63-2.04-2.81-4.39-1.51-6.73 1.65-2.97 4.7-4.16 8.1-3.17 2.63.78 3.11-1.45 3.4-2.7.9-3.8 1.31-7.71 1.88-11.59.8-5.48 1.46-10.99 2.39-16.45 1.25-7.29 2.79-14.53 4.03-21.82.63-3.68.82-7.44 1.32-11.15.38-2.9-.59-3.9-3.58-4.3a91 91 0 0 1-10.62-2.05 6.24 6.24 0 0 1-4.64-6.37c.2-4.21.52-8.44 1.2-12.6.7-4.2 2.64-8.29 2.67-12.44.05-6.16 3.56-11.15 4.6-16.97.68-3.8-1.19-6.53-1.39-9.8-.16-2.61-1.1-5.2-1.11-7.8-.02-7-.16-14.07.58-21.03.65-6.16 2.4-12.2 3.73-18.28.37-1.72.93-3.39 1.39-5.02l-7.85.48c-2.26 2.63-5.15 5.93-7.97 9.29-2.28 2.7.22 4.9.98 7.2 1.73 5.26 4.21 10.35 5.19 15.72.4 2.22-2 5.19-3.63 7.45-2.16 3-4.87 5.6-7.23 8.45-1.64 1.99-4.52 2.83-6.5 1.67l.1-1-.63 1zm-91.33-116.58 9.12-2.4-.38-1.28-9.08 3.31-.97.27.08.35zm101.56-266.97h7.59l2.06-7.56c-2.04.71-3.7 1.77-5.34 1.76-3.89-.01-4.5 2.36-4.63 5.35l-.4.47zm174.03 266.12c-.13 1.04-.2 2.09-.4 3.12-1.8 9.25-3.73 18.5-5.41 27.77-.88 4.82-1.46 9.7-1.97 14.57-.54 5.04-.83 10.11-1.23 15.16a6.7 6.7 0 0 0 1.38-3.5c.73-5.25 1.33-10.5 2.14-15.72 1.17-7.51 2.48-15 3.78-22.49.74-4.28.9-8.83 2.57-12.72 1.19-2.77.7-4.45-.57-6.54-4.19-10.9-8.6-21.74-12.51-32.75-4.36-12.23-8.3-24.62-12.39-36.95-.96-2.89-1.8-5.82-2.7-8.74l-1.13.4c.47 1.17 1.04 2.32 1.38 3.53.41 1.47.5 3.02.94 4.5 5.09 17.44 10.24 34.86 17.89 51.42 2.89 6.26 5.5 12.63 8.23 18.95zM519.3 362.03l-1.65 13.16.65.08 1.75-13.22c.6-1.73 1.48-3.42 1.76-5.2 1.25-7.72 2.33-15.47 3.47-23.2 1.23-8.39 2.5-16.77 3.68-25.16a695 695 0 0 0 2.08-15.98c.55-4.7 1.06-9.41 1.38-14.13.06-.91-.84-1.9-1.3-2.84-1.23 2.05-1.64 3.7-2.12 5.33-1.42 4.86-.2 9.98-1.66 14.9-.74 2.53-.02 5.44-.3 8.14-.62 5.73-1.47 11.44-2.2 17.16-.51 4.11-.9 8.24-1.5 12.34-.8 5.34-1.8 10.64-2.58 15.98-.6 4.2-.98 8.42-1.46 12.64m-74.79-69.77c-.47-.06-1.02.04-1.4-.18-5.96-3.34-11.23-8.07-18.31-9.14l-.37 1.14.06-.08-4.12-1.08-2.86-1.93-1.05-.4.5.8c3.47 4.88 3 8.1-1.91 13l1 .39-4.6 4.46c-4.86-2.9-12.36-2.66-15.42-10.18-7.36 7.62-7.89 17.88-11.54 26.77 5.11 2.9 5.6 4.29 4.3 9.87-1.5 6.51-2.83 13.07-4.24 19.6l-2.1 9.77q-.58-.05-.57-.06c-.08-.46-.2-.93-.18-1.4.32-10.66 2.11-21.1 4.88-31.38.65-2.4.68-4.16-2.48-4.75l-8.78 41.33c1.2.29 1.8.42 2.41.56-3.06.29-2.38 2.68-2.52 4.4-.48 5.79-.79 11.6-1.26 17.38q-.78 9.35-1.72 18.68c-.18 1.77.49 2.63 2.21 3.1 4.14 1.09 8.24 2.36 12.41 3.58v-4.4c.06-5.57-.11-11.16.26-16.72.48-6.95 1.39-13.87 2.16-20.8.44-4.01.78-8.05 1.54-12 1.3-6.72 2.71-13.41 4.39-20.03 1.51-6 2.97-12.08 5.32-17.76 2.71-6.57 7.45-10.01 11.82-8.78 1.97-3.5 3.48-7.15 5.82-10.15 4.14-5.33 13.74-7.23 17.43 2.17.29.75.55 1.51.67 1.85l6.62-2.86 1.52-4.89 2.1 1.83c4.8-5.99 1.88-10.54-3.13-12.73-5.25-2.3-10.43-4.8-15.64-7.2-.27.58-.37 1.32-.77 1.58a8 8 0 0 1-2.98 1.23c-.36.05-1.36-1.14-1.25-1.55 1.1-4.13-2.65-4.91-4.48-7.1-2.57 4.1-2.86 6.05-.51 7.5a35 35 0 0 0 9.04 4.11c7.5 2 13.35 6.1 17.73 12.45M607.74 30l.03-.02c.23-.31.1-.14-.01.02.54.74 1.3 1.4 1.59 2.23 3.1 9.03 6.15 18.08 9.29 27.38.85.4 2.55.87 3.82 1.89a98 98 0 0 1 7.28 6.6c3.95 3.87 8.22 7.43 13.34 9.44 4.97 1.95 10.28 3.05 15.52 4.55-1.61 2.6-4.55 1.35-6.95 1.9l.12 1.97c3.76-2.2 7.29-.4 10.34.3.24-2.48-.11-5.08.85-7.04 1.3-2.63 3.62-4.75 5.67-7.3-2.02-.9-3.63-1.17-4.58-2.11-1.44-1.45-3.43-3.37-3.4-5.07.07-5.25 5.85-10.51 9.27-11.67.02-3.41 2.92-4.85 4.48-7.17-.33-.18-.63-.38-.95-.51a4 4 0 0 0-1.1-.3c-6.42-.6-12.36-2.81-18.24-5.29a5162 5162 0 0 0-33.97-14.13 3.4 3.4 0 0 0-2.27.11c-3.4 1.35-6.76 2.8-10.13 4.22M385.2 900.98c3.5-4.21 7.14-8.3 10.44-12.64A768 768 0 0 0 412 865.99c5.4-7.68 10.42-15.63 15.85-23.29a398 398 0 0 1 15-19.9c5.44-6.72 11.2-13.19 16.94-19.66 4.8-5.41 9.75-10.69 14.69-15.98q9.08-9.67 18.2-19.3c1.47-1.54 3.52-2.86 1.67-5.45-.23-.32-.12-.98-.01-1.44.67-2.92 1.45-5.83 2.09-8.76.89-4.08 1.7-8.17 2.36-11.45-4.05-2-8.2-3.38-11.57-5.82-6.38-4.61-12.3-9.85-18.48-14.75-.68-.54-1.88-1.05-2.6-.83a229 229 0 0 0-14.52 4.94c-4.01 1.56-7.87 3.51-11.8 5.28 3.3-.1 4.42 2.19 5.06 4.38.94 3.2 1.97 6.58 1.86 9.84-.2 6.17-1.17 12.32-6.61 16.52-4.56 3.51-9.6 5.56-15.4 4.38-3.25-.67-6.37-1.96-9.53-2.97-3.43 6.2-7.23 12.65-10.62 19.3-3.9 7.67-7.42 15.52-11.13 23.28-5.33 11.14-10.6 22.3-16.04 33.4-5.83 11.89-10.87 24.2-18.82 35 1.71 2.17 3.42 4.06 4.82 6.16 5.09 7.66 10.81 14.58 19.4 18.65 1.12.52 1.65 2.33 2.44 3.54-3.84.78-7.67 1.1-11.19-1.06a41 41 0 0 1-12.88-12.33c-2.07-3.1-3.48-6.64-5.25-10.1-.33.42-.71.85-1.03 1.33-2.39 3.62-4.64 7.34-7.17 10.87-3.18 4.42-6.6 8.67-9.84 13.05-.44.59-.84 1.7-.58 2.24 2.6 5.58 5.02 11.29 8.19 16.53 1.64 2.71 4.42 4.94 8.3 4.62 5.31-.44 10.64-.7 15.4-1 2.24-3.7 4.06-6.93 6.11-10 3.2-4.8 6.57-9.5 9.86-14.23zM510.15 28.85c.6 5.1 1.4 10.03 1.7 14.99.13 2.18-.8 4.42-1.07 6.66-.5 4.41-.83 8.84-1.32 13.26-.97 8.93-.82 17.82 1 26.62 2.58 12.38 10.88 20.24 21.5 25.88 2.78 1.47 5.9 3.93 9.6 1.71.25-.14.86.29 1.29.47 1.35.6 2.68 1.66 4.06 1.73 14.34.64 27.42-3.93 39.75-10.6a72 72 0 0 0 14.65-10.7c3.16-2.97 7.63-5.28 8.1-10.55.68-7.6 1.98-15.15 2.17-22.75.15-5.75-.64-11.6-1.71-17.27-1.33-7.03-2.68-14.17-6.76-20.32-1.95-2.95-4.25-5.7-6.1-8.7-3.15-5.11-6.07-10.35-9.12-15.6l-14.74 7.3 1.43 1.54c-11.19 2.93-22.23 5.85-33.29 8.7-6.43 1.67-11.81 6.28-18.9 6.24-4.22-.01-8.44.94-12.24 1.4zm-2.82 560.4-.78-.02c0 .85-.26 1.8.05 2.53 1.14 2.74 2.25 5.55 3.77 8.09 4.02 6.7 8.24 13.27 12.4 19.89 1.33 2.12 2.73 4.2 4.36 6.7-1.38.19-2.05.44-2.66.34-3.27-.52-6.51-1.5-9.8-1.65-5.72-.28-11.46-.08-17.26-.08-.26 3.66-.41 7.14-.74 10.6-.76 8-1.3 16.02-2.48 23.95-1.4 9.37-3.43 18.66-5.13 27.99a209 209 0 0 0-1.7 11.11c-.07.55.46 1.4.96 1.76 4.73 3.48 9.57 6.8 14.24 10.34 2.37 1.81 4.5 3.4 7.22.73.18-.17.55-.14.82-.22l34.2-9.51c0-.32-.16-1.13.03-1.85 3.3-12.72 5.64-25.72 11.05-37.83a5 5 0 0 0 .04-3.45c-1.64-4.38-3.49-8.68-5.27-13-.1-.24-.27-.54-.47-.62-3.03-1.09-5.11-3.3-6.81-5.88-1.72-2.6-3.27-5.3-4.73-7.68l-1.12 1.77c-.5-.49-1.1-.91-1.5-1.48-.54-.79-.83-1.74-1.39-2.52-5.36-7.55-10.86-15.01-16.1-22.65-3.9-5.68-7.49-11.57-11.22-17.37zM392.76 376.07c0 1.27.15 2.27-.03 3.2-1.6 8.38-2.27 16.8-2.41 25.33s5.78 16.88 13.5 19.5c3.88 1.31 7.81 2.51 11.65 3.94 1.6.6 2.09.31 2.65-1.32 2.98-8.57 6.17-17.08 9.19-25.64 2.84-8.06 5.31-16.26 8.44-24.2 2.97-7.51 6.6-14.75 9.92-22.12.64-1.45 1.14-2.95 1.71-4.43q-.34-.15-.68-.27l-2.22 5.02c-.21-3.24-.59-5.6-.48-7.95.17-3.77.99-7.52.93-11.27-.1-5.7-.52-11.43-1.16-17.1-.52-4.64-3.03-7.66-6.27-8.05-.36-.04-.85.15-1.12.41-.13.13-.02.73.17.96 1.58 1.79 1.59 1.76-.53 2.59a18.5 18.5 0 0 1-12.8.24c-3.72-1.26-7.1-3.57-10.84-5.53-2.48 1.91-6 3.98-6.98 8.35-.95 4.16-2.27 8.25-3.2 12.42-.92 4.1-.82 4.2 3.33 5.5 4.4 1.4 8.84 2.66 13.26 3.96 2.8.83 3.62 2.36 3.24 5.37-.64 5.08-.93 10.21-1.72 15.27a139 139 0 0 1-3.2 15.15c-.34 1.28-2.14 2.54-3.55 3.08-7.12 2.74-13.8.5-20.8-2.4zm87.78-163.76c-5.89-.38-11.59-.72-17.28-1.11-1.92-.13-3.89-.18-5.74-.65-1.4-.35-2.65-1.3-3.97-1.99l.4-1.04c9.21-.8 18.28.52 27.29 2.16l1.58-9.08-7.52 2c-1.06-.2-2.68-.79-4.26-.7-2.37.13-4.76.55-7.06 1.17-5.81 1.58-11.94 3.02-15.3 8.65a126 126 0 0 0-7.76 15.3c-5.28 12.4-7.38 25.7-10.52 38.69-.17.68.2 1.91.72 2.27 3.7 2.51 7.58 4.75 11.25 7.28 8.39 5.8 10.93 12.8 6.77 19.68 1.15 1.3 2.46 2.25 3 3.52.62 1.42.53 3.13.7 4.4 2.23.43 4.4.83 6.65 1.25l1.6-8.68c-6.02-1.15-6.82-1.84-6.07-5.29l7.26 1.14 1.63-6.62c-2.03-1.73-3.68-2.95-5-4.45-.25-.27.74-2.4 1.36-2.52 1.63-.28 3.37.08 5.3.2l1.24-4.96c-2.56-.54-5.44.4-6.75-3.54l7.88-.73 1.9-7.4c-1.14-.05-2.04.06-2.86-.16-4.22-1.14-8.5-2.14-12.6-3.64a5.94 5.94 0 0 1-3.82-6.28c.32-1.97 2.53-3.81 4.25-5.31 1.07-.94 2.75-1.43 4.22-1.59 3.05-.35 6.25-1.85 9.6.8-.97.47-1.68 1.08-2.44 1.16-3.22.32-5.99 1.2-8.08 3.97-.96 1.28-.99 1.68.1 2.86 3.33 3.64 7.98 4.03 12.11 5.62 2.3-6.82 4.52-13.46 6.78-20.23-6.26.86-11.6.6-16.17-2.9-3.06-2.33-5.45-5.49-3.99-9.57 1.29-3.6 4.06-6.17 8.12-6.51 4.68-.4 9.37-.51 14.34-.76l1.12-6.42zm138.43 858.24c1.83 0 3.49.11 5.13-.02 3.93-.32 7.85-.76 11.78-1.12 4.63-.42 9.27-.73 13.88-1.23 6.4-.69 12.76-1.67 19.17-2.26 8-.74 16.03-1.22 24.05-1.82 2.71-.2 5.43-.36 8.14-.65 6.69-.73 13.37-1.46 20.05-2.28 8.02-.98 16.1-1.74 24.05-3.16 10.33-1.87 20.65-4.13 30.23-8.63 6-2.83 10.69-7.29 13.7-13.52-10.66 3.78-20.96 7.65-31.4 11.07a947 947 0 0 1-34.58 10.56c-6.32 1.81-12.4 1.56-17.05-4.24-.51-.64-1.89-.84-2.86-.83q-17.83.18-35.68.49c-11.4.19-22.8.46-34.2.63-5.4.09-10.82.02-16.16.02zm-322.1-135.61c-2.22 2.86-4.25 5.53-6.33 8.15-1.02 1.28-1.1 2.37-.1 3.77 3.93 5.55 7.38 11.5 12.88 15.7 3.56 2.72 7.46 5 11.15 7.56 1.77 1.22 3.76 2.33 5.07 3.95 6.78 8.39 13.2 17.07 20.07 25.38a148 148 0 0 0 12.5 13.09c6.13 5.78 12.22 11.71 18.96 16.74 5.84 4.35 12.59 7.46 18.89 11.21 5.61 3.33 10.89 3.63 17 .7-3.13-1.39-6.15-2.84-9.25-4.09-8.34-3.38-15.92-8.16-22.86-13.72-5.38-4.32-10.03-9.6-14.8-14.65-4.88-5.17-9.51-10.58-14.25-15.9-5.13-5.74-10.37-11.42-15.36-17.29-5.83-6.85-11.43-13.9-17.16-20.85-5.4-6.55-10.85-13.07-16.39-19.75zM412.1 377.82l5.5-36.4-16.92-4.88-7.45 37.9zm96.15-213.43c-1.96-3.34-3.8-6.7-5.84-9.92a16 16 0 0 0-3.38-3.94c-4.41-3.61-9.34-3.99-12.17.6.57 1.18 1.54 2.23 1.52 3.27-.09 3.46-.11 7-.9 10.35-2.43 10.15-5.19 20.22-7.85 30.42l4.2 1.57c.27-.35.45-.47.5-.63 2.02-7.38 5.52-14 10.18-20.04.26-.34.45-.92.36-1.31-.56-2.54 1.01-3.86 2.84-4.88 3.22-1.8 6.53-3.42 10.54-5.49m-87.76 587.24-4.34 8.07c4.65 2.14 8.97 4.2 14.08 3.4 7.81-1.22 10.58-7.37 12.26-13.64 1.56-5.77-.3-11.59-3.04-16.93l-.97-1.82a68 68 0 0 0-17.3 19.4l8.92 5.5c-2.4 2.66-5.8 1.16-9.61-3.97zm222.62-89.74c-.51-2.3-.92-4.5-1.52-6.66-.26-.92-.72-2.2-1.44-2.5-3.97-1.66-4.57-6.96-3.02-10.46.28-.64.72-1.4.6-2-.68-3.34-1.5-6.65-2.3-10.06-4.57 3.46-5.02 4.36-6 9.06-.66 3.1-.42 6.37-.69 9.54-.6 7.18 6.79 14.53 14.37 13.08M507.55 428.46c.26 2.27.2 4.35.79 6.22a224 224 0 0 0 5.5 15.85c2.06 5.18 2.26 9.91-1.25 14.63-1.64 2.2-2.68 4.86-3.9 7.35q-4.5 9.08-8.85 18.2c-.39.82-.36 1.82-.52 2.73l.76.15q3.56-5.85 7.1-11.72c2.51-4.17 4.7-8.56 7.57-12.45 4.54-6.14 5.5-12.33 2.54-19.47-2.62-6.3-4.62-12.88-6.84-19.36-.22-.63-.03-1.38-.03-2.13zm-7.8 307.85c1.07-3.7 1.78-6.93 2.97-9.96.69-1.73.29-2.4-1.25-2.67-3.12-.54-5.32-3.57-9.21-2.64-1.6.38-3.96-1.9-5.78-3.23-3.34-2.43-6.53-5.06-9.88-7.68l-2.84 2.68zm-58.36-538.7c-3.77.23-7.26 2.85-7.4 6.29-.18 4.63.35 9.3.6 14.17 2.99-4.76 5.65-9.03 8.35-13.27 3.39-5.32 8.92-7.36 14.56-8.67 2.7-.62 4.4-1.11 4.14-4.15-7.07-.45-20.37 3.13-20.24 5.63zm62.93 524.07c.52-.8 1.17-1.77 1.8-2.76 1.15-1.87 1.16-2.64-1.45-3.67a97 97 0 0 1-23.71-13.74l-3.52 2.1c4.89 4.43 7.17 10.88 14.53 12.35 4.28.86 8.17 3.7 12.35 5.71zm133.32 74.54c.39 4.16 10.5 21.29 13.64 23.78l-1.1-22.96zM447.56 311.45c5.81 11.16 2.94 22.92 1 34.63l.98.17 8.5-38.8c-1.59-.4-3.67-.95-5.42-1.4zm173.22 203.68c-5.53.25-11.07.76-16.6.7-22.83-.28-45.65-.72-68.48-1.14-5.94-.11-11.88-.38-17.82-.58-.39-.01-.77-.11-1.15-.13l-11.94-.62-.02.8c38.62 3.3 77.26 3.95 116 .97zM428.43 241.96c-4.7 3.27-10 6.1-10.25 12.34-.2 4.73 3.83 7.45 6.9 9.9zm284.23 761.93c1.5 3.16 4.34 4.91 7.91 5.66 3.06.65 4.08-.15 3.94-3.29-.03-.58.42-1.19.63-1.74-3.87-2.74-5.02-3.85-5.97-5.57l-6.75 2.29zM545.1 137.3l-6.9 20.42h3.8l6.59-18.25zM428 299.33c-.76 2.74-1.57 5.53-2.3 8.33-.11.43-.07 1.26.17 1.37 2.86 1.41 5.42 3.84 9.04 2.97-3.37-10.33-3.95-11.36-6.9-12.66zm54.48-133.56-9.22 2.84-1.31 5.55h8.16zm-34.03 134.98-11.78 1.65.89 4.2c.99-.07 1.86-.24 2.71-.2 1.9.1 3.77.34 5.66.44 1.82.1 2.91-.63 2.7-2.67-.1-.95-.11-1.91-.18-3.4zm-26.94-59.07c-5.2.86-14.94 14.22-14.37 18.48 1.6-1 3.3-2 4.93-3.1.49-.32 1.11-.81 1.18-1.3a20.7 20.7 0 0 1 8.26-14.08m121.11 471.04-.33-1.52c-9.2 2.37-18.62 3.94-27.61 7.13l.32 1.25zM466.94 191.8c1.76 0 3.52-.17 5.22.04 2.45.3 3.9-.48 4.24-3 .15-1.1.38-2.17.62-3.45-3.87 1.72-9.95-.92-10.08 6.4m84.23 529L542.3 738l1.2.69 10.54-16.87zm-192.8-249.13c-.13 6.55-1.08 13.18 2.87 18.92l5.63-.82c-6.75-4.52-7.7-11.27-8.5-18.1m125.1-309.08-.4-6.1c-1.66.1-3.8-.39-4.89.47-1.45 1.15-2.09 3.33-3.14 5.19zm-46.38 346.31 1.39.03c.2-5.5 2.31-10.83.96-16.61-1.18.74-2.48 1.64-2.5 2.57-.13 4.67.07 9.34.15 14.01m-27.9-215.6c1.38-2.3 2.26-4.53 3.79-6.13 2.1-2.2-.34-3.05-.97-4.27-.39-.74-1.75-.98-3.36-1.78 1.58 4.53-2.1 8.16.53 12.18m279.35 267.06 8.3-5.2-4.82-5.5zM366.05 426.51c5.83-.14 10.66-2.5 15-6.55l-4.99-1.41a14.8 14.8 0 0 1-10 7.96zm111.22-191.66-12.1-3.64c2.63 4.24 6.7 5.74 11.33 6.36.26-.68.56-1.37.78-2.09.09-.26 0-.57 0-.63m-46.43-16.09c0-1.28.16-2.28-.03-3.21-1.28-6.43-.5-12.38 3.7-17.68.31-.4-.06-1.36-.16-2.7-5.2 6.41-7.53 17.75-3.5 23.59zm23.24-30.1.48-.6-.84-.9c.68-.14 1.47-.55 2.04-.35.71.25 1.18 1.12 1.88 1.5 1.44.81 2.97 1.47 4.67 2.3l1.18-4.62h-11.79l-.38.63zm-42.7 82.43c.48-1.83.66-3.5 1.34-4.92 1.56-3.32 1.66-3.27.95-4.2l-7.12 5.39zM370.94 408l-.64 1.27c3.5 3.18 8.46 3.64 12.36 6.3.63-3.08-1.58-3.02-3.18-3.6-1.14-.4-2.3-.8-3.38-1.33-1.75-.83-3.44-1.75-5.16-2.64m77.88-219c-1.76-2.93-3.56-1.2-5.41-.4l1.54 2.08zm-10.3 5.33 3.15-2.25-2.52-1.42-2.36 2.08zM660.18 923.3l.14.43q.53-.14 1.03-.34l-.13-.46z"/><path fill="#000" d="M629.01 723.64c-1.07-7.91-7.08-15.16-3.68-22.81-.85-1.62-2.24-3.1-1.92-3.87.88-2.06 2.88-1.4 4.09-.28a32 32 0 0 1 5.06 5.82c1.34 2.03 2.7 1.53 3.71.25 1.9-2.35 3.45-4.98 5.02-7.3a8.75 8.75 0 0 1-3.6 10.11c-1.82 1.24-3.66 1.61-5.46-.05l-4.64-4.27c.43 7.63 2.88 14.95 1.42 22.4M398.83 270.3c-1.42 1.65-2.48 3.15-3.82 4.31-.78.68-2.01.92-3.08 1.16-1.81.41-2.87 1.13-2.76 3.3.04 1.04-.9 2.12-1.68 3.75 1.81.9 3.94 1.96 5.85 2.93-2.8 1.83-8.47.49-10.1-2.75-.05-.08-.17-.12-.2-.2-.7-1.68 3.34-8.12 4.93-8.87 2.04-.96 3.76-2.6 5.63-3.93 1.98-1.39 4.76-.85 5.23.3m236.22 412.63c.66-.48 1.73-1.22 2.79-1.97.73 1.19 1.71 2.3 2.14 3.59 1.06 3.16 2.23 6.44-.97 9.94 1.44-4.48.36-8.01-2.17-11.91l-2.75 7.93-4.26-14.83.9-.37 4.32 7.6zM598.9 778.2c-2.66-2.33-4.72-10.33-3.44-13.07.72-1.54 1.98-2.24 3.51-.97.88.74 1.56 1.72 2.44 2.72-3.69.12-3.67.12-3.21 4 .27 2.35.45 4.7.7 7.32m11.5-12.75c.24 4.18-6.33 11.75-10.74 12.07l9.64-10.4-.77-1-7.08 3.06c.4-2.36 3.99-3.98 8.95-3.73m39.4 135.32 4.05 2.9v-7.59l.4-.03 3.56 11.78c-3.1-1.4-5.4-2.47-7.72-3.48-1.97-.85-1.98-1.96-.3-3.58z"/><path fill="#fff" d="M423.32 480.72c1.05-.42 2.3-1.44 3.11-1.16 6.45 2.25 12.82 4.75 19.22 7.17l-.27.7-21.47-6.19z"/><path fill="#000" d="M660.12 893.91c.66 2.96 1.2 5.37 1.8 8.13-4.67-2.86-5.22-4.75-1.8-8.13m3.21 36.39 1.07.54-.3.4-1.2-.96h.22zM459.72 567l.62-1-.08 1-.27-.05zm209.46 359.8 1.16-.03-.35.57z"/><path fill="#000" d="m663.33 930.3-.22-.02h-.21l-.45-.57.38-.64zm-34.85-245.46-.18-.1.2-.32c.07.07.19.15.18.22 0 .07-.13.13-.2.2"/><path fill="#fff" d="M519.3 362.03c.48-4.21.85-8.44 1.46-12.64.77-5.34 1.78-10.64 2.57-15.97.6-4.1 1-8.23 1.51-12.34.73-5.73 1.58-11.43 2.19-17.17.28-2.7-.43-5.6.3-8.13 1.46-4.92.24-10.04 1.67-14.9.48-1.63.89-3.28 2.11-5.33.46.95 1.36 1.93 1.3 2.84-.31 4.72-.82 9.43-1.37 14.13a706 706 0 0 1-2.08 15.97c-1.2 8.4-2.46 16.78-3.69 25.17-1.14 7.73-2.22 15.48-3.46 23.19-.29 1.78-1.16 3.48-1.76 5.21zm31.86 358.74 2.87 1.04-10.53 16.87-1.2-.7zm-183.1-270.73 9.07-3.32.38 1.3-9.12 2.39zm151.24-88.01.74.03-1.75 13.2-.65-.07z"/><path fill="#000" d="m660.17 923.3 1.04-.37c.04.16.15.45.13.46q-.5.2-1.03.34z"/><path fill="#fff" d="m368.39 450.42-1.22.26-.08-.35.97-.27z"/><path fill="#000" d="M554.19 60.42c2.8 3.05 5.92 3.12 10.42.4 2.47 4.56 2.2 8.3-1.27 11.66-2.98-2.32-6.13-4.58-9.04-7.12-1.46-1.28-2.07-1.07-2.96.47-1.45 2.52-3.13 4.9-4.61 7.41-1.37 2.3-2.88 2.09-4.66.54-2.55-2.22-3.5-5-2.97-8.47 4.58.98 9.19 1.55 11.84-4.24-3.72.82-6.72 0-9.07-2.77-1.13-1.32-1.4-2.5-.08-3.99 2.36-2.65 10.68-5.74 13.7-4.34 1.3.6 2.45 2.7 2.65 4.25.18 1.45-.83 3.17-1.63 4.6-.41.73-1.5 1.07-2.32 1.6m.1-7.2-9.19 2.03-.38.9c1.45.78 2.97 2.28 4.36 2.18 2.61-.2 4.18-2.28 5.22-5.12m24.64-20.96c-4.85 6.48-10.23 11.07-17.46 13.7.17-4.1 11.37-13.03 17.46-13.7M532.8 57.6l4 1.26c-2.8 2.9-10.65 3.57-13.89.97l7.77-1.74c-1.07-1.67-2.3-3.37-3.18-5.22-.1-.2 1.74-1.33 2.7-2.04 1.4 2.3 5.78 3 2.6 6.76zm48.85-10.45c-1.28 3.56-9.47 5.65-14.77 3.9 1.08-2.95 10.74-5.58 14.77-3.9m-60.47-2.25c3.14.5 6.29.95 9.41 1.5q3.87.7 7.68 1.6c.5.12.9.68 1.35 1.05-.45.25-.95.79-1.36.72-5.86-.93-11.86-1.4-17.08-4.87"/><path fill="#000" d="m577.6 42.2-4.27 5-1.22-.25c-.14-1.22-.8-2.7-.35-3.6 1.23-2.44 2.78-2.7 5.84-1.15M440.76 258.9l-.44 3.29 2.9 4.07c-.94.71-1.96 1.08-2.18 1.72-.92 2.73-3.03 1.44-3.7.6-1.81-2.29-4.17-4.55-3.96-7.79a4.3 4.3 0 0 1 1.98-2.96c.7-.4 2.04.3 3.09.53l2.3.55zm3.95-6.25-1.21 2.52c-4.4-.22-6.62-4.06-5.29-9.07l5.01 1.13-.7.3zm.45-31.8c2.1.52 4.13.83 6 1.58.5.2.5 1.72.72 2.63-.99.12-2.14.61-2.94.27-1.66-.72-4.24-.74-3.78-4.48m-5.7 19.33c1.67-1.02 3.27-2.21 5.05-2.98.46-.2 1.49.91 2.26 1.42-.51.67-.92 1.49-1.56 1.98a6.6 6.6 0 0 1-2.8 1.39c-.88.12-1.84-.4-2.77-.65z"/><path fill="#000" d="M440.75 258.92c.17.14.33.28.02.01.19.35.09.16 0-.03zm-16.32 25.16.54.08-.07.25-.42-.4zm6.55 465.03c.37-5.17 2.03-7.31 6.04-7.72-1.16 3.23-3.5 5.22-6.04 7.72m212.3 51.23 2.55 7.34c-2.49-2.19-4.1-4-2.55-7.34"/></svg>