<svg xmlns="http://www.w3.org/2000/svg" width="1080" height="1080" fill="none" viewBox="0 0 1080 1080"><path fill="#fff" d="M885.06 944.86v.62c-.4 4.46-.7 8.94-1.26 13.38-.7 5.52 1.02 12.04-5.94 15.14-.3.13-.43.68-.6 1.04-3.08 6.8-9.38 8.9-15.83 10.63-4.93 1.33-9.94 2.4-14.93 3.55-8.26 1.91-16.51 3.83-24.79 5.66-2.08.46-6.47-2.39-6.52-4.47-.1-4.58.15-9.17.31-13.76.05-1.44.38-2.87.4-4.3.05-3.38-.8-7.01.15-10.1 1.5-4.88.43-8.78-2.08-12.8-2.38-3.8-4.46-4.1-7.48-.85-.32.34-.96.39-1.46.57-.88-2.98-3.8-2.63-5.9-3.7-2.84-1.44-5.55-3.16-8.32-4.78-1.6-.93-7.29-.25-7.83 1.07-.98 2.41-1.67 4.95-2.71 7.33-2.16 4.9-4.23 9.86-6.77 14.56-2.75 5.1-6.05 9.88-9.02 14.85-4.63 7.75-9.41 15.4-13.7 23.34-4.82 8.92-9.7 17.88-13.56 27.24-3.41 8.26-8.18 14.55-16.58 17.93-2.2.89-4.92 1.75-6.2 3.51-4.8 6.54-12.04 9.03-18.91 12-3.69 1.59-8 1.72-11.77 3.17-6.45 2.47-13 4.33-19.88 4.74-3.07.19-6.2-.58-9.27-.44-2.48.12-5.7.18-7.22 1.66-2.4 2.36-4.58 3.78-7.88 3.17q-4.41-.82-8.78-1.69c.4-4.96.6-9.44 1.23-13.87a4.3 4.3 0 0 1 2.6-2.89c3.02-.8 4.24-2.5 4.2-5.53a31 31 0 0 0-6.86-19.36c1.25-.68 2.25-1.3 3.3-1.8 1.23-.58 3.61-1.28 3.56-1.54a23 23 0 0 0-1.98-5.29c-.34-.67-1.33-1.02-1.7-1.68-2.84-5.33-8.05-7.2-13.3-4.45-2.14 1.12-4.09 1.66-6.33.52-4.9-2.49-7.63-1.3-9.52 3.96a212 212 0 0 0-9.9 39.45l-1.2 7.57c-2.16-.42-3.84-.86-5.54-1.04-2.07-.21-4.2-.51-6.22-.21-3.53.54-6.97 2.02-10.5 2.15-4.28.17-8.41.44-12.37 2.2-1.38.62-2.8 1.43-4.26 1.56-2.77.24-5.58.11-8.37.04-5.64-.16-11.29-.41-16.94-.56-7.08-.19-12.91-3.62-18.73-7.11-3.3-1.98-6.44-4.4-9.97-5.81-6.72-2.69-13.87-3.82-21.09-4.49-4.6-.42-9.19-.96-13.75-1.7-4.25-.68-8.42-1.92-12.68-2.52-4.61-.66-9.3-.94-13.95-1.26-3-.2-5.76-.76-7.82-3.22-.55-.66-1.35-1.47-2.1-1.54-7.8-.71-15.46.27-23.05 2.09-6.77 1.62-13.57 3.09-20.38 4.62l-1.92 5.25c-.67 1.84-1.83 3.68-1.86 5.53-.04 2.53-2.01 2.51-3.16 2.54-.97.02-2-1.46-3.13-2.39l-1.2 1.34-3.53-1.49-1.13 2.43c-1.91.36-3.8 1.22-5.5.95-3.15-.52-6.28-5.62-6.13-8.92.21-4.64.56-9.29.37-13.91-.25-5.76-1.19-11.49-1.5-17.26a512 512 0 0 1-.62-22.17c-.09-9.41-.03-18.82.05-28.23.04-3.56.65-7.14.39-10.67-.29-3.83-1.34-7.6-1.93-11.41-.31-2-.25-4.07-.55-6.08-.47-3.17-1.39-6.3-1.61-9.48-.52-7.4-.71-14.83-1.07-22.24-.26-5.62-.66-11.25-.83-16.88a169 169 0 0 1 .08-12.49c.22-4.82.7-9.63 1.04-14.44.1-1.46-.15-2.44-1.98-2.81-2.03-.42-3.92-1.52-5.9-2.2-2.95-1-5.88-2.2-7.07-5.23-1.11-2.82-2.15-5.88-2.23-8.86-.1-4.37.93-8.75.99-13.13.07-5.91-.33-11.83-.52-17.75-.1-3.22-1.16-5.6-4.66-6.56-8.7-2.37-17.28-5.2-26.03-7.36-9.11-2.25-15.03-7.96-18.71-16.16-3-6.69-5.4-13.64-8.17-20.45a410 410 0 0 0-6.08-14.22c-2.77-6.17-6.29-12.09-8.36-18.47-3.1-9.6-5.52-19.44-7.66-29.3a66 66 0 0 1-1.58-16.57 577 577 0 0 1 2.74-34.06c.67-6.57 2-13.07 3.1-20.05-7 1.86-12.4-1.74-18-4.37q-1.77 3.42-5.2 3.43c-.29 0-.6.05-.84.18-4.84 2.59-12.07-.96-13.23-6.35-.83-3.86-.03-8.22-3.42-11.35a20 20 0 0 1-3.43-4.02c-2.6-4.27-4.53-9.13-8.72-12.05-1.58-1.1-2.76-1.84-2.93-3.75-.16-1.82-.69-3.68-.43-5.44.56-3.84 1.42-7.65 2.32-11.44.93-3.88 1.4-8.06 3.25-11.48 3.46-6.43 4.43-13.16 4.74-20.64-5.6 1.48-9.5-.46-12.12-5.15-.3-.52-.8-.93-1.16-1.42-3.97-5.5-7.48-11.03-3.62-18.19 1.23-2.27 1.86-4.89 2.6-7.4.44-1.48.57-3.06.85-4.6q-.54-.25-1.09-.54l-3.16 4.33c-.56-1.86-1.08-3.45-1.5-5.07-.44-1.67-.8-3.36-1.2-5.04v-12.38c.21-.31.55-.6.6-.93.52-3.41.54-6.97 1.57-10.22 2.98-9.46 5.49-18.94 5.4-28.99 0-1.8 1.13-3.86 2.3-5.35a48 48 0 0 1 6.24-6.34c3.74-3.26 7.61-6.36 11.48-9.45a4.3 4.3 0 0 1 2.12-.73c2.16-.24 4.82.37 6.4-.68 4.19-2.77 7.94-6.2 11.77-9.45 1.53-1.3 2.2-3.56 5.22-2.37 1.07.42 3.78.26 4.7-2.75 2.22-7.2 5.37-14.1 7.71-21.25.74-2.28.12-5 .12-7.5 1.25-1.33 3.32-2.73 4.2-4.66a8.2 8.2 0 0 1 6-5c2.02-.5 4.11-.9 6.03-1.69 4.95-2.04 9.89-4.15 14.71-6.47 4.26-2.04 8.9-3.78 12.43-6.77 5.68-4.8 10.6-10.52 15.97-15.98-6.92-2.7-13.89-9.32-14.47-13.67l-.65 1.5c-.95-2.91-2-5.68-2.72-8.53-2.34-9.08-4.55-18.2-6.84-27.3q-2.85-11.22-5.74-22.43c-3.12-12.15-2.81-24.39-.95-36.66.22-1.48 1.08-2.95.96-4.36-.54-6.34 1.09-9.75 6.71-12.38 2.69-1.27 5.59-2.08 8.42-3 5.34-1.75 10.62-3.72 16.06-5.04 7.2-1.74 14.51-3.06 21.82-4.34 4.8-.85 9.65-1.43 14.5-1.89 4.98-.47 10-.81 15.01-.93 3.95-.1 7.91.25 11.87.4 3.36.14 6.77.75 10.08.36 10.93-1.27 21.64-.16 32.4 2.3 2.62-6.71 5.63-13.41 7.85-20.38 1.97-6.16 4.5-12.4 2.71-19.15-.55-2.1-1.29-4.17-1.93-6.25q-2.33-7.73-4.73-15.44c-.7-2.2.44-3.76 2.15-4.42.73-.28 2.47.89 3.12 1.84 1.85 2.73 3.39 5.67 5 8.46 1.51-7.7 2.65-15.3 4.54-22.72 2.93-11.45 9.98-20 20.9-24.41 8.77-3.54 17.94-6.2 27.13-8.53 9.14-2.3 18.5-3.72 27.78-5.47 2.11-.4 4.28-.55 6.42-.82h19.8c.19.2.35.54.55.56 9.06.86 18.14 1.56 27.2 2.58 7.72.86 15.44 1.84 23.1 3.2 12.65 2.24 25.32 4.5 37.85 7.37a590 590 0 0 1 37.2 9.87c12.09 3.62 23.95 8 35.95 11.93a47 47 0 0 0 22.77 1.65c5.38-.91 10.75-2.06 16.16-2.4 14.92-.9 29.13 1.76 42.31 9.16 5.1 2.86 9.68 5.93 11.8 11.91 2.41 6.75 5.42 13.27 8.2 19.89 1 2.4 2.5 4.69 3.05 7.18 1.45 6.68 2.85 13.42 3.64 20.2.76 6.55-1.53 12-7.79 15.19a33 33 0 0 0-11.84 9.9c-.5.69-1.83.79-3.3 1.37-.42 4.64-5.98 4.95-8.69 8.2-.3.36-1.37.24-2.02.1-3.99-.9-5.68-2.98-5.87-7.22-.11-2.46-1.32-3.73-3.78-3.75-2.27-.02-4.54-.09-6.8.02-.85.03-1.81.32-2.48.82a17.4 17.4 0 0 1-14.71 3.07c-5.43-1.26-10.2.03-14.4 3.2a241 241 0 0 0-15.9 13.05c-3.81 3.4-8.3 6.4-9.62 11.89-.48 2.04-1 4.1-1.66 6.1-.8 2.38-.87 4.3 1.56 5.96.64.43.66 2.36.38 3.45-1.82 7.08-5.31 13.35-9.56 19.24-.54.75-1.38 1.72-2.17 1.8-3.51.37-4.39 3.27-6.38 5.58 1.51.1 2.57.02 3.54.26a119 119 0 0 1 27.67 10.7c3.71 2 7.2 4.43 10.8 6.64 3.93 2.4 8.12 4.47 11.77 7.24 4.82 3.68 8.37 8.45 9.45 14.68.62 3.57 1.47 7.12 1.74 10.72.35 4.56 2.1 9.33-.97 13.16 23.92 30.66 43.02 64.22 64.76 96.06l-1.05-.14c1.58 3.78 2.98 7.73 4.85 11.44 2.12 4.2 4.76 8.13 7 12.27 3.88 7.2 8.43 14.18 11.23 21.8 4.17 11.31 7.13 23.08 10.46 34.7 1.42 4.95 2.62 10.18.39 15.06-1.47 3.2-.91 5.9-.08 8.9 2.2 7.84 4.65 15.63 6.34 23.58 1.48 6.99 1.71 14.24 3.16 21.24 2.75 13.27 5.95 26.44 9.03 39.63.93 4 2.7 7.9 3.06 11.94.8 8.89.97 17.83 1.34 26.75.12 2.9-.07 5.8.12 8.7.26 3.93 1.1 7.84 1.09 11.75-.03 10.68-.35 21.35-.63 32.02-.09 3.36-.28 6.72-.65 10.05-.51 4.52-1.37 9-1.86 13.5-.96 8.74-7.71 13.3-13.22 18.78-.24.24-.76.24-1.17.27-1.54.13-2.19 1.32-3.13 2.33a317 317 0 0 1-14.33 14.56c-1.36 1.27-1.82 2.4-1.42 3.89 1.04 3.83 1.79 7.85 3.52 11.37 3.45 7.03 7.65 13.68 11.22 20.65 3.6 7.01 6.84 14.2 10.17 21.33 2.66 5.74 5.75 11.35 7.71 17.33 4.08 12.42 7.4 25.03 8.99 38.13 1.2 9.98 1.74 19.91 1.7 29.93 0 2.3.39 4.61.6 6.91zm-378.5-673.19c1.33 1.27 2.08 2.12 2.96 2.8a756 756 0 0 0 15.2 11.7c.61.46 1.8.16 3.23.26 4.07 5.26 9.3 10.62 11.82 17.72.52 1.46.77 3.28.4 4.74-.53 2.05-.05 3.15 1.93 2.78 2.64-.5 5.4-1.1 7.7-2.4 7.5-4.2 15.57-6.3 23.95-7.48 2.94-.41 4.5-2.5 4.23-5.54-.24-2.72-.33-5.45-.54-8.18-.16-2.13.14-4.5-.7-6.34-2.64-5.79-3.9-11.68-3.02-18.02.27-2.01.6-4.08.4-6.07-.16-1.62-.63-3.91-1.75-4.57-1.88-1.1-3.23.8-4.31 2.37-.24.34-.8.47-1.2.69-.75.4-1.77.62-2.17 1.24-1.53 2.36-3.15 4.73-4.19 7.32-1.06 2.68-2.73 4.14-5.46 4.72-2.15.46-4.25 1.16-6.4 1.63-1.06.23-2.34.53-3.23.15a84 84 0 0 1-7.74-3.94 1302 1302 0 0 1-15.44-8.7c-1.23-.7-3.13-1.36-3.4-2.39-.9-3.4-2.3-2-3.86-.79-.49.38-.97 1.07-1.46 1.07-3.02.05-2.29 2.39-2.61 4.08-.12.64-.03 1.34-.27 1.92-1.32 3.1-2.71 6.19-4.06 9.24z"/><path fill="#000" d="M650.35 1079.74h-1.24c-3.93-.42-7.86-.86-11.8-1.23-4.4-.41-8.89-.3-11.83-4.71-.97-1.45-2.9-2.27-4.35-3.35l4.9-50-17-1.71c.24 12.08-3.04 23.17-5.64 34.38-.86 3.72-1.03 7.62-2.2 11.22-.56 1.72-1.02 4.34-4.28 4.35-4.36.02-8.73.59-13.07 1.13-3.68.47-7.38 1-10.97 1.93-10.65 2.74-21.26 5.44-32.3 6.33-4 .33-7.31-.13-10.37-2.51a2.5 2.5 0 0 1-.82-1.97c.84-5.36 1.98-10.69 2.72-16.08.83-6.04 1.37-12.12 2.01-18.19.8-7.49 1.69-14.97 2.32-22.47.42-5.01.38-10.05.7-15.07.46-7.39 1.06-14.76 1.6-22.2h-2.68l-12.83 89.38c-1.12.14-1.51.21-1.91.24-5.26.41-10.53.71-15.78 1.28-2.79.3-5.55.98-8.28 1.63-3.66.85-5.18-.44-4.75-4.09a3.3 3.3 0 0 0-.37-1.97c-1.86-3-5.16-3.02-7.96-2.91-6.16.23-12.32.94-18.43 1.78-7.62 1.05-15.19 2.45-22.79 3.63-7.53 1.17-14.95 3.16-22.72 2.5-4-.34-8.1-.28-12.12.07-7.26.64-14.54 1.35-21.72 2.55-10.3 1.72-20.62 2.73-31.05 2.29-.96-.03-1.93-.79-2.83-1.32-.68-.41-1.2-1.29-1.9-1.44-1.39-.28-2.84-.19-4.27-.28-5.34-.29-7.48-1.57-8.28-5.36-.52-2.41.2-4.08 2.06-6.3 2.63-3.17 4.32-7.7 4.9-11.86 1.06-7.56 1.18-15.28 1.39-22.95.24-9.09.15-18.19.23-27.28.07-7.64.24-15.28.23-22.92 0-4.48-.42-8.98-.38-13.46.05-5.9.42-11.77.56-17.66.44-17.5.78-35 1.3-52.49.12-4.35.76-8.68 1.19-13.02.18-1.85-.05-3.28-2.14-4.13-3.07-1.26-5.99-2.9-9-4.31-.57-.27-1.36-.54-1.89-.35-3.55 1.24-5.77.04-6.11-3.8-.68-7.68-1.58-15.38-1.6-23.07 0-7.35 1.02-14.69 1.48-22.04.04-.69-.62-1.86-1.21-2.06-2.89-1-5.9-1.58-8.78-2.6-8.47-3.02-17-5.94-25.3-9.36a18.2 18.2 0 0 1-10.03-9.64c-2.28-5.13-5.02-10.06-7.57-15.07-5.64-11.09-11.65-22.02-16.85-33.31-5.7-12.36-10.71-25.03-12.74-38.62a343 343 0 0 1-2.77-21.72c-.43-5.1-.32-10.3-.03-15.42q.5-8.47 1.8-16.86c.91-5.82 2.29-11.57 3.46-17.37-5.83-2.68-6.93-1.9-8.06 5.76-2.66.13-5.38.76-7.9.28a24 24 0 0 1-8.02-3.27c-4.05-2.53-6.96-5.99-6.03-11.3.28-1.66.72-3.28 1.1-4.98-5.94-4.34-11.1-9.43-14.81-15.88-.46-.8-1.3-2.18-1.7-2.1-3.74.85-3.36-2.17-3.34-3.91.04-4.65.18-9.36.99-13.92 1.9-10.73 4.2-21.4 6.37-32.16-8.2-7.08-17.24-22.48-12.6-35.95-2.18-3.68-4.45-6.54-5.65-9.78-1.37-3.7-1.79-7.75-2.61-11.65v-20.42c1.03-4.56 1.89-9.17 3.13-13.68 4.12-15.05 12.46-27.1 26.14-34.92 4.2-2.4 8.43-5.68 13.94-4.06.26.07.73-.3 1-.56 2.09-2.05 4.32-3.97 6.18-6.2 2.8-3.37 6.3-3.48 10.09-2.77 1.1-2.8 2.15-5.62 3.28-8.4 2.92-7.14 5.51-14.44 8.92-21.32 2.26-4.56 4.97-9.46 10.66-10.64 8.78-1.8 14.79-8.66 22.68-12.01.3-.12.37-.68.62-.98 5.36-6.45 11.16-12.41 17.63-16.31-1.45-1.8-3.18-3.54-4.41-5.6-.65-1.06-.87-2-2.39-1.97-.42 0-.99-.91-1.26-1.5-1.33-2.85-2.95-5.63-3.8-8.62a743 743 0 0 1-8.36-31.61 569 569 0 0 1-6.63-32.17c-1.53-8.73-3.61-17.42-2.2-26.5 1.19-7.57 4.32-13.64 10.97-17.56 9.48-5.6 19.51-9.8 30.31-12.36 13.8-3.28 27.56-6.05 41.9-5.14 10.27.65 20.59.34 30.88.76 5 .2 10 1.04 15 1.71 2.05.28 4.06.9 6.1 1.36l.16 1.51c-1.21.52-2.44 1.51-3.63 1.48-7.84-.26-15.67-1.16-23.49-1.08-15.9.17-31.87-1.33-47.7 1.2-8.25 1.3-16.54 2.62-24.59 4.77-6.36 1.7-12.5 4.42-18.54 7.14-6.76 3.05-11.46 7.96-10.41 16.07.99 7.57 2.21 15.14 3.78 22.6 2.45 11.62 5.28 23.16 7.94 34.73 1.04 4.51 2 9.03 3.1 13.54q3.04 12.7 6.2 25.37c.11.46.42.94.78 1.25 2.6 2.17 5.25 4.3 7.97 6.51 2.28-2.61 4.43-5.09 6.6-7.54 4.87-5.52 9.39-11.43 14.73-16.46a437 437 0 0 1 25.15-21.73 135 135 0 0 1 17.2-11.91c9.33-5.38 19.74-8.1 30.15-10.6 12.47-3 24.95-5.31 37.63-.68 8.18 3 16.1 6.37 23.06 11.73 2.64 2.03 4.46 4.6 5.3 8.89-21.53-15.63-43.67-21.12-66.63-10.08 6.25 1.1 13.9 1.96 21.27 3.89a47 47 0 0 1 13.84 6.28c5.26 3.51 9.62 8.35 14.79 12.04 5.8 4.12 12.08 7.58 18.13 11.35 8.28 5.16 16.73 10.07 24.72 15.64 3.3 2.3 8.95 1.95 9.2 8.61.12 3.1 3.91 6.06 6.2 9.32.7-2.73 2.01-2.77 3.36-1.23 3 3.43 5.83 6.99 8.77 10.47 3.43 4.07 7.3 7.23 13.06 7.22 7.44-.01 14.86.19 22.3.31 3.7.06 7.6.95 11.06.05 4.92-1.28 9.5-3.86 14.27-5.9-1.18-1.04-2.06-1.71-2.83-2.5-5.5-5.68-10.89-11.47-16.5-17.03-3.56-3.52-7.4-6.76-11.22-10.02-5.32-4.55-10.76-8.93-17.44-11.44-.88-.33-1.57-1.13-2.79-2.02 1.28-.87 2.29-2.1 3.23-2.07 1.8.08 3.56.89 5.2 1.35 1.95-2.28 3.5-5.5 6-6.67 2.58-1.2 3.7-3.14 5.27-4.96l1.22-.67-.22-.48-1.62.7c-5.52 2.57-11.17 4.88-16.51 7.77-4.81 2.6-9.44 5.63-13.87 8.85-4.2 3.06-5.34 8.05-6.7 12.76-.6 2.05-1.02 4.15-1.53 6.22l-.91-.03c-.22-.89-.75-1.83-.6-2.65.87-4.61 1.7-9.26 2.93-13.79a20.8 20.8 0 0 1 9.1-12.39c1.54-.98 2.62-2.3 2.03-4.6-2.22-8.54-6.23-16.04-12.74-21.97-5.57-5.07-11.48-9.77-17.4-14.77-1.26 2.1-2.5 4.27-3.83 6.37-.8 1.26-2.4 1.85-2.71.2-.54-2.75-1.27-6.3-.04-8.43 3.6-6.25 8.13-11.97 12.38-18.02-3.06-2.55-6.49-5.3-9.8-8.2-6.46-5.65-12.92-11.3-19.22-17.11-2.24-2.07-4.26-4.57-3.48-8.08 1.3-5.72 2.58-11.45 3.97-17.15.18-.76.95-1.37 1.47-2.08.36.34.57.44.62.59 1.88 5.3-.1 10.4-.76 15.57-.1.75-.34 1.8.03 2.22 2.3 2.58 4.58 5.22 7.2 7.45a5334 5334 0 0 0 38.98 32.85c4.74 3.96 9.6 7.75 14.15 11.41 3.27-2.54 6.26-3.53 9.51-2.52 2-3.21 3.68-6.41 5.85-9.23a292 292 0 0 1 14.18-17.38c2.54-2.81 2.74-4.26-.64-6.26a17 17 0 0 1-3.12-2.35c-1.55-1.5-1.65-5.22-.12-6.27 2.12-1.46 3.33.38 4.73 1.56 1.46 1.22 2.9 2.69 4.61 3.3 1.48.54 5.53-5.02 5.14-6.8-.4-1.86-.95-3.68-1.5-5.49-1.3-4.3-3.23-8.4-2.88-13.13.2-2.68.97-3.6 3.52-2.66.65 1.61 1.37 3.2 1.94 4.84 1.87 5.3 4.27 10.5 5.38 15.95 1.21 5.94 1.36 9.78-4.94 12.58-5.35 2.38-8.2 6.41-10.63 11.18-.35.7-.78 1.54-.68 2.24a987 987 0 0 0 3.67 23.58c1.69 9.85 6.07 18.16 14.52 23.91a2143 2143 0 0 0 24.72 16.63c1.12.74 2.62 1.43 3.88 1.34a389 389 0 0 0 18.18-1.82c2.27-.27 4.74-.47 6.67-1.53 7.44-4.08 14.71-8.46 22.03-12.77 2.8-1.64 5.71-3.18 8.25-5.16 1.63-1.28 2.63-3.33 4-4.95a290 290 0 0 1 8.48-9.7c.52-.57 1.7-.5 2.58-.73-.08.9.16 2.01-.28 2.69-2.5 3.91-5.16 7.72-7.89 11.73l4.1 3.27c7.56-9.65 18.32-16.18 23.01-27.7-6.26-2.6-10.84 2.8-16.53 3.94a203 203 0 0 1 6.07-15.94c.16-.36.44-.88.74-.94 2.88-.6 3.09-3.3 3.6-5.25 2.98-11.3 5.72-22.65 8.44-34 .34-1.42.67-3.49-.07-4.39-4.07-5.06-8.33-10-12.8-14.71a492 492 0 0 0-17.53-17.49 18 18 0 0 0-6.5-4.08c-5.78-1.86-10.97-4.08-15.04-9.1-2.04-2.5-4.58-5.72-9-5.48-5.04.29-10.22-.59-15.15.23-7.5 1.22-15.05 2.85-22.14 5.47-5.38 1.98-10.11 5.73-15.08 8.79-.48.3-.6 1.18-.87 1.8-2.7 6.22-5.22 12.53-8.14 18.64-1.44 3.01-3.21 6.1-6.99 6.96-.03-.72-.3-1.5-.07-2.12 2.66-7.31 5.4-14.6 8.02-21.62-1.16-.9-2.21-1.4-2.83-2.22-4.48-5.94-10.93-9.31-17.23-12.63-4.11-2.16-8.93-2.96-13.38-4.53-1.45-.51-2.74-1.52-4.29-2.42 7.89-6.47 29.64.55 40.65 12.65 2.41-6.59 4.79-13.08 7.13-19.58a1.7 1.7 0 0 0-.06-1.08c-1.34-3.65-1.4-7.26.47-11.04l-40.27-17.77-3.53 7.59c.95 2.02 2.19 3.43 1.97 4.55-.21 1.1-1.78 2.3-3 2.75-2.42.88-5 1.46-7.56 1.83-5.16.75-10.35 1.26-16.17 1.94-.65 1.46-1.77 3.82-2.78 6.22-2.37 5.58-4.24 11.4-8.24 16.18-1.54 1.85-2.62 1.29-4-.07-1.02-1-2.1-2.28-3.38-2.65-2.8-.83-4.18-2.95-4.73-5.3-.73-3.16-2.24-5.67-3.88-8.42-3.93-6.57-8.2-12.33-15.4-15.78-4.56-2.17-5.88-2.53-9.3 1.1a20 20 0 0 0-2.23 2.87c-5.45 8.5-8.48 17.7-5.66 27.71 3.04 10.77 11.2 16.48 21.94 19.69-.52.58-.84 1.12-1.31 1.42-3.38 2.13-6.9.7-10.14-.13-9.2-2.4-17.07-6.84-21.46-15.8-4.42 2.96-8.9 5.92-13.32 8.95-1.31.9-2.72 1.8-3.7 3.01-1.04 1.3-1.65 2.96-2.4 4.48l-19.2 38.75c-.69 1.38-1.43 2.73-1.78 3.4 9.27 5.32 18.26 10.26 27.03 15.56 11.3 6.82 22.14 14.32 30.96 24.33 4.92 5.58 9.25 11.5 12.18 18.47a193 193 0 0 0 9.76 20.04c5.13 9.1 10.78 17.88 16.16 26.83.5.84.63 1.92.94 2.88l-.76.3c-3.35-4.66-6.78-9.27-10.02-14.01-3.49-5.1-7.07-10.17-10.1-15.55-3.3-5.84-5.48-12.36-9.08-17.98-5.8-9.05-12.1-17.85-20.88-24.41-7.47-5.6-14.66-11.63-22.54-16.57a173 173 0 0 0-24.45-12.67c-9.4-3.97-19.04-7.53-29.38-8.48-4.93-.45-9.83-1.23-14.75-1.62-5.13-.4-10.28-.73-15.42-.69-3.63.02-7.27.63-10.87 1.11-6.4.86-12.8 1.84-19.19 2.73-4.39.6-8.78 1.26-13.2 1.62-.94.07-1.97-1.07-2.96-1.65.63-.81 1.09-1.97 1.9-2.36 1.68-.8 3.56-1.18 5.35-1.73 14.47-4.42 29.12-6.88 44.4-6.23 11.14.47 22.26.72 33.07 3.4 4.83 1.2 8.94 1.8 13.7-.55 2.82-1.38 4.87-2.56 5.53-5.64q.17-.88.5-1.72l10.8-25.46c-.82-.05-1.8 0-2.74-.2-2.27-.45-4.57-.85-6.73-1.63-.79-.27-1.64-1.52-1.67-2.35-.03-.64 1.15-1.38 1.87-1.98 2.19-1.8 4.41-3.54 6.56-5.25l-.71-2.14-6.78 1.79c-.64-1.42-1.83-2.78-1.57-3.74.7-2.57-.92-3.74-2.33-5.12a11.5 11.5 0 0 1-3.32-10.62c.7-3.93 2.42-7.7 3.7-11.52-2.22-1.1-5.93-1.7-7.35-3.82a47.3 47.3 0 0 1-8.15-24.86c-.09-2.46 1.25-3.47 3.71-3.72 1.25-.12 2.42-1.21 3.54-2 .2-.15.1-1.3-.06-1.34-1.55-.49-3.5-1.63-4.65-1.09-3.47 1.62-6.6 4.02-10.9 2v-7.63l3.42.93V86.86c.27.08.79.21 1.27.4 2.41.94 3.38.26 3.1-2.3-.11-1-.66-1.97-.64-2.95.03-1.7-.2-3.76.65-5 1.77-2.58 4.04-4.82 7.45-5.5 3.14-.63 6.23-1.6 9.33-2.45 1.47-.4 2.9-.91 4.48-1.42.16-.32.62-1.1.9-1.94.4-1.1 1.24-2.56.84-3.3-1.07-2.03.06-3.6.37-5.38.55-3.05.8-6.16 1.17-9.24l5.25-.67c-.75-1.9.06-4.25-3.01-4.39-.46-.02-1.52-2.93-1.07-3.94a15.3 15.3 0 0 1 9.74-8.73l10.8-3.3c-4.44-2.57-3.2-6.56-3.42-10.21 1.9-.22 3.98-1.04 5.65-.53 2.36.7 3.58.36 4.32-2.62.61 1.2 1.16 1.8 1.19 2.42.17 3.54.94 4.19 4.47 4.37 5.34.27 10.68.75 16.27 1.16.35-1.48.44-3.84 1.46-5.69 1.03-1.85 2.96-3.23 4.52-4.77.68-.67 1.44-1.25 2.16-1.88h1.85c.37.68.62 1.45 1.12 2 1.32 1.44 2.74 2.78 3.72 3.78L501.81 9h3.1c2.7.85 5.6 1.33 8.06 2.63 5.32 2.82 10.98 5.55 11.98 12.3l9.97 3.92c.45-1.3 1.15-3.13 1.67-5 .14-.51-.22-1.17-.35-1.76.67.23 1.37.41 2.02.68.85.34 2.05 1.3 2.45 1.02 2.54-1.7 4.9-3.66 7.15-5.41 1.06 1.23 1.83 2.71 2.35 2.63 2.31-.36 2.49 1.33 3.24 2.66a7 7 0 0 0 2.04 2.28c1.3.94 2.81 1.55 4.1 2.5 2.32 1.69 4.56 3.37 7.03.47.76.9 1.58 2.09 1.73 2 .99-.51 1.83-1.3 2.61-1.92.93.4 2.12.86 3.24 1.43.54.27 1.2.64 1.43 1.14.94 2 1.96 3.69 5.04 2.88l-2.03 3.48c3.15 2.6 6.15 5.21 6.9 9.56.16.92.68 1.94 1.36 2.57 1.16 1.06 2.57 1.85 3.84 2.73l9.9-1c.45 2.46 3.14 4.18 5.02 3.73 7.69-1.85 14.47 1.99 16.64 9.03 1.27 4.1.64 8.78.88 13.42 3.35-.27 6.84.86 9.66 3.64 3.97 3.92 3.78 8.8 2.87 13.72-.29 1.54-.17 2.11 1.35 2.94 3.14 1.71 6.1 2.99 9.73 1.52 1.15-.47 2.56-.44 3.85-.42 6.53.1 12.63 2.17 18.85 3.92 3.83 1.09 7.9 1.98 12.17.42 2.53-.92 6.23-1.49 8.24-.28 2.76 1.66 4.9.5 7.3.46.59-.02 1.26-.6 1.73-.44a203 203 0 0 1 9.54 3.43c.34.13.58.84.62 1.3.2 2.6 1.83 3.97 4 4.97 2.07.97 4.1 2.03 6.2 2.95 2.6 1.15 5.24 2.2 7.47 3.12 1.37-2.57 2.07-4.92 3.6-6.43 1.36-1.34 1.67-2.52 1.8-4.21.07-1.02.99-1.98 1.52-2.96.59-.77.34-1.86.25-2.95-.08-1.12-.01-2.26-.01-3.28.83-.34 1.67-.44 2.07-.9 1.9-2.25 3.13-1.46 4.4.66 1 1.71 2.28 3.27 3.82 5.43.36-2.83.26-5.26 3.37-5.35a3.5 3.5 0 0 0 1.93-.61c1.6-1.25 3.85-2.35 4.47-4.02 1.52-4.11 1.96-.53 2.96-.23 1.46.01 3.23 0 4.02.86 1.04 1.14 1.3 2.99 2 4.77.65-.37 1.26-.65 1.82-1.02 2.55-1.69 4.95-3.62 7.63-5.04 4.13-2.19 7.8-1.47 11.06 1.83 1.77 1.8 3.33 3.84 5.16 5.57 4.5 4.26 9.04 8.47 13.7 12.53.92.8 2.74 1.47 3.71 1.1 3.18-1.24 4.85 2.8 7.77 1.9.08-.02.52.58.45.7-.95 1.72.85 1.41 1.38 1.62 1.3.5 2.75.65 4.13.96 4.37 1 5.47 3.1 4.21 7.47-.28.97.18 2.16.33 3.43-5.01.46-.21 4.95-2.18 6.49 2.22 2.15 4.76 3.94 6.38 6.35 1.74 2.57 2.62 5.73 3.8 8.46 3.47.62 7.44-1.56 10.63 1.67.71.72.9 2.04 1.68 2.61 2.22 1.64 3.02 4.23 1.09 6.1-2.24 2.15-4.98 3.79-7.78 5.85.57 6.71-4 10.72-9.03 14.67 2.83 5.1 5.01 10.65 2.34 16.92-.15.34.2.92.39 1.35 1.25 2.85 2.65 5.64 3.77 8.54.81 2.11 1.64 4.37-.9 6.14-.3.22-.1 1.16-.17 2.55-2.16-.88-3.92-1.65-5.72-2.3-.49-.18-1.11.05-1.67 0-2.38-.24-5.25.45-5.88-3.17-.05-.26-1.32-.62-1.82-.42-.88.34-1.6 1.08-2.13 1.47 1.6 1.46 3.8 2.61 4.47 4.36.58 1.47-.02 4.19-1.14 5.34-1.83 1.9-4.41 3.19-6.85 4.37-2.38 1.15-5 1.83-7.5 2.75-1.84.67-3.7 2.04-5.5 1.96-3.33-.16-5.4 1.16-5.41 4.46 0 1.24.4 2.68-.1 3.66-.81 1.62-1.96 3.43-3.46 4.21-1.12.58-3.24.03-4.5-.71a20 20 0 0 1-4.6-4.16c-1.1-1.27-1.85-2.88-2.6-4.06l-15.03-4.53c-1.02-.3-2.06-.89-3.08-.86-4.7.15-9.38.47-14.13.74-7.49 14.2-17.36 26.14-33.3 31.33 1.52 2.96 3.08 5.67 1.65 8.83-1.84 4.07-3.52 8.28-5.96 11.98-2.56 3.9-5.92 7.28-8.83 10.77.99.44 2.49 1.18 4.05 1.77 5.06 1.9 10.22 3.54 15.2 5.66 9.81 4.18 19.19 9.21 27.1 16.5 7.1 6.56 13.13 13.72 11.69 24.43-.92 6.9-1.77 13.81-2.64 20.65 2.56-.89 5-.6 7.06 1.84 2.79 3.28 6.09 6.17 8.55 9.67a385 385 0 0 1 14.72 22.38 1151 1151 0 0 1 22.38 38.4c7.29 13.18 14.13 26.6 20.99 40.01 3.03 5.92 5.6 12.07 8.38 18.12-4.44-2.1-8.4-4.59-12.35-7.07-3.01-1.9-3.54-3.67-2.15-7.12.24-.6.44-1.22.7-1.94-2.42.35-2.9 1.27-3.28 5.74l-4.15-2.25-1.5-1.28-.43.5 1.34 1.18c1.1.9 2.33 1.7 3.26 2.75a8 8 0 0 1 1.58 3.01c1.2 4.33 1.92 8.84 3.5 13.03 2.08 5.46 6.46 8.86 11.89 10.55-1.44 3.99-3.89 7.41-3.41 12.28 4.63-2.96 5.2-7.9 7.64-11.55l4.46-.29a412 412 0 0 0 6.68 14.13c6.13 12.28 7.21 26.05 9.49 39.42 1.2 7.13 2.2 14.29 5.57 20.87.8 1.56 1.06 3.48 1.2 5.27.51 6.12.88 12.24 1.24 18.37.1 1.76.02 3.53.02 4.94l-7.65-2.7c-4.36-23.76-10.14-48.18-11.93-73.2-4.84 2.62-9.43 5.05-13.96 7.61-.73.42-1.71 1.5-1.6 2.09.4 2.18-1.19 2.16-2.1 1.68a6.5 6.5 0 0 1-2.9-3 601 601 0 0 1-7.29-19.97c-6.13-17.63-12.17-35.3-18.33-52.93-.68-1.95-.58-3.5.81-5 2.52-2.72 5.02-5.46 7.6-8.26-18.11-32.17-35.04-65.64-57.09-95.65-.1.32-.46 1.2-.65 2.14-2.57 12.46-5.43 24.78-13.48 35.17-1.5 1.92-2.8 4.38-3.1 6.74-.63 4.97-.3 10.06-.8 15.06a427 427 0 0 1-3.17 25.92c-2 12.36-4.44 24.65-6.7 36.97q-2.82 15.53-5.61 31.05c-2.68 14.96-5.23 29.95-8.04 44.89-3.32 17.66-8.22 34.91-13.88 51.95-.51 1.54-1.19 3.01-1.79 4.51l-1.28-.06c-.31-1.97-1.13-4.01-.85-5.9a740 740 0 0 1 4.36-26.3c2.13-11.66 4.48-23.28 6.66-34.94 2.53-13.55 4.92-27.12 7.47-40.66 1.7-8.98 3.57-17.92 5.4-26.87 2.1-10.2 4.25-20.38 6.34-30.58 1.85-9.04 3.74-18.08 5.48-27.14.82-4.28 1.32-8.6 2.06-13.57-3.97 4.13-6.04 9.15-11.1 11.4a14 14 0 0 1 1.58-5.01c3.54-6.34 7.83-12.35 10.65-18.98 8.26-19.33 13.86-39.4 14.85-60.56.06-1.35.52-3.07-.1-4-2.27-3.32-4.51-6.85-7.51-9.44a95 95 0 0 0-23.22-14.7c-7.57-3.41-15.6-5.96-22.35-11.04-.94-.71-1.63-1.77-2.14-2.34-2.37 1.16-4.78 3.04-7.42 3.46-4.21.67-3.92-3.2-4.42-6.82l-7.06 9.46c4.64 2.17 9 4.36 13.46 6.27 5.5 2.35 8.7 11.05 7.82 15.85a84 84 0 0 1-3.41 12.1c-1.42 4.12-3.84 7.97-4.69 12.18-1.38 6.92-1.86 14.03-2.71 21.05-.82 6.74-1.67 13.48-2.43 20.24-.16 1.42-.53 3.17.1 4.26 1.79 3.13 1.46 6.19 1.2 9.6-.91 12.43-1.7 24.9-1.86 37.35-.13 9.93.58 19.88 1.16 29.8.68 11.74 1.63 23.46 2.45 35.2.63 9.17 1.33 18.34 1.83 27.53.53 9.93.99 19.85 1.24 29.79.32 12.93.44 25.86.56 38.8.1 10.14 0 20.3.12 30.44.04 3.77.3 7.55.68 11.3.7 6.97 1.57 13.92 2.39 20.89.6 5.1 1.22 10.2 1.88 15.66-4.84.92-10.13 1.98-15.44 2.92-7.34 1.3-14.7 2.46-22.03 3.79-.8.14-1.45 1.03-2.17 1.58.65.49 1.26 1.04 1.96 1.46 3.73 2.3 7.47.34 11.01-.4 8.8-1.81 17.45-4.25 26.18-6.37 1.42-.35 2.73-.4 3.76 1.3a47 47 0 0 0 5.7 7.88c5.87 6.33 12.19 12.26 17.92 18.72 9.38 10.57 20.05 20.17 24.8 34.25 3.08 9.12 7.1 17.91 10.75 26.98l6-4.4c-3.13-.94-5.33-2.67-2.56-6.12 5.78-7.22 11.58-14.43 17.48-21.76-3.77-1.18-5.67-3.61-4.4-7.82.1-.34-.28-.79-.26-1.18.35-5.87.4-11.79 1.28-17.58.37-2.4.69-4.43-.11-6.8-3.7-10.86-5.1-22.16-6.27-33.5-1.09-10.5-2.55-20.97-3.65-31.46-1.15-10.88-1.96-21.8-3.1-32.68-1.17-11.16-2.66-22.28-3.83-33.43-.93-8.93-1.62-17.88-2.38-26.83-.28-3.25-.41-6.52-.71-9.77-.06-.64-.55-1.24-.87-1.86-.5-.96-1.23-1.85-1.48-2.87-.85-3.41-1.38-6.92-2.3-10.3a7681 7681 0 0 0-12.92-46.91c-1.83-6.59-3.35-13.2-2.76-20.1.08-.94.36-1.86.55-2.78l1.11-.44c1.1 1.59 2.61 3.03 3.2 4.8 2.16 6.55 3.82 13.27 6.04 19.8a224 224 0 0 1 10.76 49.36c3.9-1.2 3.8-1.4 4.38-5.8a659 659 0 0 1 3.43-22.54c1-6.05 2.34-12.05 3.29-18.1 1.47-9.39 2.75-18.8 4.1-28.21l.68-.4c.9 1.64 2.48 3.26 2.55 4.94.28 7.23.58 14.52-.02 21.7-.71 8.56-2.21 17.05-3.6 25.53-1.44 8.85-3.18 17.65-4.72 26.48-.83 4.74-1.8 9.45-.47 14.3.57 2.04.67 4.22.88 6.35.65 6.38 1.17 12.77 1.9 19.14 1.15 9.85 2.79 19.65 3.56 29.53.99 12.52 1.25 25.1 1.94 37.64.77 13.97 1.53 27.95 2.57 41.9.5 6.72 1.61 13.4 2.45 20.07 2-1.89 3.55-4.2 5.72-5.26 9.53-4.63 19.24-8.9 28.9-13.25.36-.17.84-.02 1.27-.02-.01.44.16 1.02-.06 1.28-.97 1.15-1.88 2.5-3.12 3.24-5.4 3.26-10.95 6.27-16.37 9.48A91 91 0 0 0 787 704c-.78.6-.77 2.3-.93 3.53-.02.16 1.15.71 1.72.66 7.49-.73 14.95-1.94 22.43-2.2 7.01-.24 14.17-1.08 20.99 1.88 1.98.87 3.2 1.81 2.84 4.24-5 0-9.98-.18-14.94.05a97 97 0 0 0-12.4 1.34c-7.11 1.26-14.17 2.78-21.25 4.26-2.28.48-3.34 1.97-3.29 4.37q.12 6.34 0 12.7c-.02 1.48-.3 2.97-.5 4.73 4.3-2.72 7.13-8.38 13.2-4.55l-1.18-3.86c1.46.21 2.53.15 3.4.53 4.57 2 9.35 3.68 13.57 6.26 11.5 7.04 20.17 16.96 27.2 28.37l8.81 14.34c1.1 1.76 1.51 3.44.1 5.26-1.25 1.6-1.21 3.25-.32 5.15 4.2 8.95 8.35 17.92 12.36 26.96 7.08 15.98 14.16 31.96 21.03 48.04 7.15 16.77 10.84 34.45 11.76 52.55.6 11.94-.13 23.95-.61 35.92-.1 2.43-.84 4.61 1.38 6.39v6.19c-.2.28-.63.6-.58.85.6 3.25-1.16 5.22-3.4 7.24-7.21 6.5-15.09 12.04-23.84 16.11-7.6 3.55-15.54 6.36-23.37 9.4-6.26 2.43-12.78 1.23-19.18.99-5.3-.2-10.56-1.06-14.38-5.42 1.02-1.84 2.64-3.57 2.94-5.5 1.47-9.42 2.51-18.9 3.85-28.34.62-4.4-2.22-7.12-5.04-9.09-5.5-3.86-11.54-6.96-17.07-10.2-2.77 7.81-5.42 15.61-8.3 23.33-3.72 10-7.44 20.01-11.5 29.87a1787 1787 0 0 1-16.53 38.54c-5.2 11.84-10.64 23.56-15.88 35.38-.76 1.71-1.77 2.16-3.53 2.1-3.46-.13-6.93-.04-9.86-.04-1.02-.84-1.9-1.82-3-2.43-1.25-.71-3.1-.71-2.62-2.93l.87-.5-.2-.33-.92.54q-1.37.08-2.75.14c-6.27.17-12.7-.47-18.76.71-8.48 1.64-16.68 4.74-25.04 7.05-5 1.39-10.06 2.54-15.13 3.66-2.9.65-5.86 1.02-8.8 1.52zM514.53 590.28l-.85-.55.4 1.16c.25 1.3.4 2.61.76 3.87 1.08 3.7 3.89 6.88 3.16 11.14-.08.47.92 1.13 1.6 1.92 1.82-7.9.78-13.19-5.06-17.53zM338.75 859.44c.99-.43 1.96-1.16 2.98-1.23 4.69-.32 9.4-.49 14.09-.67 5.85-.22 11.73-.22 17.56-.65 8.93-.65 17.82-1.68 26.74-2.4 9.13-.73 18.27-1.25 27.4-1.9 7.28-.54 14.54-1.23 21.82-1.68 6.15-.38 12.31-.53 18.47-.8 1.02-.04 2.04-.2 3.06-.2 6.94.04 13.88.18 20.82.09 2.3-.03 5.12 1.36 7.17-1.93-6.55.8-12.3-.3-17.63-3.52-4.63-2.8-9.48-5.25-13.94-8.3-10.08-6.93-19.96-14.14-29.95-21.19-.6-.42-1.46-.8-2.15-.72-9.51.99-19 2.06-27.58 3l-2.9 17.4c-3.15-.31-4.47-1.53-4.41-4.21.07-3.4-.07-6.81.03-10.21.05-1.87-.56-2.67-2.5-2.41a681 681 0 0 1-14.16 1.76c-2.74.3-6.16-.78-6.52 4.15-1.07-3.25-2.67-3.72-5.46-2.95-2.63.73-5.53.5-8.43.69l-.92 18-1.12.09-2.26-17.2c-3.03.58-5.53 1.52-8 1.43-3.37-.12-6.72-1-10.45-1.63 0 2.97.16 5.8-.03 8.6-.65 9.3-1.42 18.57-2.14 27.86l-.44 1.1zm481.1-49.02-3.01 1.68c-.15 2.76.2 5.1-.48 7.1-1.88 5.57-4.25 10.98-6.26 16.51-.53 1.48-.7 3.19-.6 4.75.14 1.78.69 3.55 1.2 5.28 5.28 18.01 7.67 36.56 9.78 55.13.98 8.7 1.69 17.5 1.81 26.24.18 12.23-.17 24.46-.58 36.68-.14 4.12-1.03 8.23-1.76 12.3-.87 4.79-1.95 9.54-2.83 13.82 4.69 0 9.52.42 14.23-.12a52 52 0 0 0 12.24-3.15c14.2-5.38 27.1-13.17 39.48-21.86a4.6 4.6 0 0 0 1.7-3.4c-.44-8.38-.9-16.77-1.74-25.11-.78-7.75-1.49-15.58-3.21-23.15a321 321 0 0 0-9.1-32.75c-4.28-12.46-9.63-24.56-14.39-36.86a1589 1589 0 0 1-11.64-31.09c-1.7-4.64-3.01-9.43-4.48-14.11-2.65 4.43-5.34 8.78-7.88 13.22-2.93 5.1-4.6 5.95-10.22 4.91l-2.04-5.84c.85-1.24 1.76-2.45 2.56-3.72 5.5-8.78 10.99-17.58 16.35-26.16-9.14-20.37-24.69-34.35-43.43-44.65-6.1 12.64-17.12 21.6-26.2 32.2.55.25 1.08.62 1.64.7 6.12.9 11.7 2.9 17.16 6.06 12.32 7.16 21.45 17.44 29.87 28.56 1.52 2.01 2.45 4.2 1.83 6.8zm-476.77-479.1 1.34-.8a185 185 0 0 0-8.55 12.61c-1.3 2.05-2.35 4.3-3.9 6.13-3.69 4.34-6.6 9.48-12.03 12.13-.98.47-1.86 1.15-3.44 2.15 1.05.45 2.04 1.18 3.07 1.24.89.06 1.82-.65 2.73-1.02l.69-.77c.6 1.48 1.86 3.03 1.7 4.42-.85 7.22-1.8 14.43-3.17 21.57-3.33 17.35-7.04 34.62-10.34 51.97a566 566 0 0 0-4.39 27.6 1192 1192 0 0 0-3.64 29.2c-.91 7.95-1.44 15.94-2.5 23.86-1.25 9.29-2.89 18.52-4.35 27.7.29.1 1.02.1 1.36.49 3.2 3.49 7.41 2.52 11.37 2.7 2.47.1 4.92.35 7.38.3.63 0 1.78-.95 1.77-1.44a173 173 0 0 0-.7-11.6c-.35-3.73-.95-7.44-1.26-11.17-.08-.88.49-2.51.96-2.6a7 7 0 0 1 3.69.6c.68.32 1.1 1.38 1.46 2.18 3.9 8.46 4.76 17.63 6.13 26.66 1.13 7.4 1.95 14.84 2.83 22.27.78 6.6 1.44 13.2 2.17 19.8.42 3.85.71 7.72 1.36 11.53 1.51 8.84 2.8 17.74 4.92 26.43 2.67 10.93 6.05 21.7 9.2 32.5 1.54 5.25 3.46 10.4 4.9 15.67 1.1 4.09 1.04 8.59 2.68 12.4 2.9 6.72 6.3 13.32 10.2 19.52 6.32 10 13.1 19.72 19.92 29.4 6.73 9.56 13.39 19.21 20.75 28.29 6.65 8.2 13.9 15.97 21.44 23.34a254 254 0 0 0 22.94 19.92c7.73 5.93 16.16 10.91 24.26 16.35 4.02 2.7 8 5.47 11.05 7.56 2.85-.6 4.83-.98 6.79-1.45 1.13-.28 2.74-.39 3.23-1.15 1.15-1.8 2.61-1.91 4.45-1.97 11.4-.34 22.84-.4 34.2-1.33 7.9-.64 15.68-2.61 23.56-3.77 2.87-.42 3.77-1.63 3.18-4.39-.26-1.18.02-2.47-.06-3.7-.15-2.66.2-4.82 4.07-4.07-2.76-4.41-1.88-8.76-1.19-13.18a568 568 0 0 0 2.68-20.18c.58-4.86.6-9.8 1.48-14.6.92-4.98 1.44-9.66-1.45-14.21a37 37 0 0 1-3.07-6.3q-5.19-13.35-10.21-26.78c-6.18-16.5-14.65-31.9-22.72-47.5-3.46-6.7-6.95-13.46-9.63-20.48-3.95-10.32-7.2-20.92-10.74-31.38-15.1 10.26-32.72 13.62-49.86 15.99-.4 1.63-.29 3.81-1.27 4.55-1.72 1.3-4.07 1.8-6.23 2.43-.33.1-1.4-.81-1.4-1.27-.02-1.67.25-3.35.45-5.34-2.3.2-4.53.57-6.76.52a6.5 6.5 0 0 1-3.67-1.23c-5.58-4.4-6.64-11.98-4.24-18 1.48-3.73 3.64-4.64 7.64-3.44a4.3 4.3 0 0 0 2.26.18c5.89-1.63 11.74-3.36 17.61-5.05l-.25-1.1c-4.27.26-8.55.56-12.83.77-4.9.24-9.81.55-14.72.49-.94-.02-1.87-1.59-2.8-2.44.72-.57 1.41-1.19 2.19-1.67.5-.31 1.13-.57 1.7-.6 6.99-.23 13.97-.5 20.95-.58 2.43-.03 5.41-.43 7.18.76 4.52 3.03 7.44-.59 10.94-1.77 1.5-.5 2.9-1.38 4.28-2.17 7.22-4.14 14.41-8.3 21.47-12.37-7.1-21.83-11.5-43.87-15.54-65.95-4.5-.59-6.11-2.9-5.15-7.14.74-3.3 2.2-6.7 1.92-9.93-.52-6.02-2.04-11.97-3.18-17.93-1.34-6.94-2.84-13.85-4-20.82-.42-2.53-.25-5.22 0-7.8.13-1.43 1.36-2.04 2.4-.63 1 1.36 1.94 2.89 2.44 4.5 2.52 8.02 4.88 16.1 7.47 24.77l2.36-8.94c2.34-8.85 4.51-17.73 7.06-26.52 1.95-6.74 4.52-13.3 6.53-20.03 4.26-14.21 8.47-28.45 12.44-42.76 1.8-6.46 3.3-13.04 4.27-19.67.5-3.46 1.15-6.28 4.9-8.07-3.3-3.54-6.47-6.8-9.46-10.22-2.87-3.27-5.53-6.73-8.34-10.05-1.2-1.43-2.32-3.21-3.9-4-10.57-5.4-21.43-10.27-31.85-15.94-6.58-3.58-12.7-8.07-18.77-12.52-3.4-2.48-6.04-6-9.4-8.54-10.35-7.78-22.23-11.1-35.07-11.38-3.46-.07-6.92-.32-10.36-.66-.68-.07-1.28-.9-2.17-1.58-3.54 1.65-7.54 3.1-11.1 5.25-11.61 7.02-22.86 14.65-34.65 21.32-5.65 3.2-8.41 7.81-10.49 13.38l-.42 1.1.83-.55zm189.86 95.19c3.79-.84 6.05.53 7.5 2.82 2.79 4.35 5.71 8.71 7.72 13.43a572 572 0 0 1 11.72 30.2A2002 2002 0 0 1 577.55 524c4.19 12.76 7.73 25.74 11.53 38.64 3.72 12.64 7.73 25.2 11.02 37.96a336 336 0 0 1 6.24 30.48 650 650 0 0 1 4.34 34.63c.58 5.53.52 11.13.66 16.7.25 9.62.76 19.25.56 28.85-.31 14.47-1.07 28.92-1.8 43.37-.44 8.75-1.2 17.48-1.83 26.22q-1.23 17.03-2.5 34.05a327 327 0 0 1-1.27 13.63c-.94 7.72-2.06 15.42-3.03 23.14-.91 7.25-1.64 14.52-2.58 21.77-.91 7-2.01 13.98-3 20.98-.72 5.12-1.33 10.26-2.09 15.37-.9 5.99-1.95 11.95-2.85 17.93-1.11 7.32-2.02 14.67-3.23 21.96-1.5 9.05-3.37 18.04-4.78 27.1-1.64 10.53-2.95 21.12-4.28 30.81l56.23 4.63c0-.24.02-1.05 0-1.85-.2-5.82-.73-11.66-.56-17.47a2018 2018 0 0 1 1.84-41.95c.28-5.56.92-11.1 1.4-16.65.76-8.9 1.64-17.8 2.23-26.7q.66-9.71.62-19.44c-.1-16.67.05-33.33 1.91-49.92.47-4.24 1.16-8.45 1.66-12.68.53-4.43 1.36-8.88 1.32-13.32-.04-6.65-.8-13.29-1.1-19.94-.48-10.23-1.06-20.45-1.2-30.68-.2-15.26-.08-30.53-.05-45.8 0-1.72.5-3.43.47-5.15-.06-5.08.87-10.18-1.23-15.17a271 271 0 0 1-6.83-17.88 16308 16308 0 0 1-27.55-81.28c-2.9-8.62-5.38-17.39-8.21-26.03a4383 4383 0 0 0-12.92-38.68c-2.23-6.6-5.22-13.02-6.74-19.77-1.9-8.5-2.63-17.24-3.89-25.88-1.84-12.6-3.91-25.16-5.5-37.8a499 499 0 0 1-3-31.56c-.61-9.75-.52-19.54-.79-29.32-.03-1.19-.4-2.39-.67-3.57-.42-1.82-.9-3.64-1.42-5.8l-5.63.76c-.53 2.1-1.17 4.04-1.5 6.03-2.12 12.67-4.12 25.35-6.3 38-.24 1.31-1.46 2.45-2.21 3.66l-.77-.46a142 142 0 0 1 6.44-47.32c-8.1-.1-16.52.78-22.01-6.9-.12 1.62-.18 3.2-.35 4.77-.46 4.14-1.23 8.26-1.4 12.4a746 746 0 0 0-.61 29.5c.02 12.55.38 25.1.55 37.64.01 1.59-.67 3.25-.36 4.74 2.92 14.07 6.06 28.08 9.01 42.14 2.74 13 5.24 26.05 8.03 39.04 2.11 9.86 4.56 19.64 6.72 29.48.23 1.03-.4 2.25-.64 3.38a12 12 0 0 1-2.3-4.5c-6.07-20.94-12.42-41.82-18.04-62.89-3.63-13.57-6.26-27.42-9.1-41.2-.32-1.57.81-3.47 1.33-5.2.28-.92 1.08-1.87.96-2.71-1.35-9.15-2.82-18.3-4.2-27.02l-3.07 11.9c-3.74 14.53-7.31 29.12-11.3 43.6-2.78 10.13-6.1 20.1-9.2 30.15-.56 1.78-1.85 3.63-1.64 5.29.67 5.02 1.8 9.99 2.96 14.93 2.57 10.94 5.25 21.86 7.93 32.78 1.2 4.88 2.5 9.73 3.7 14.42 7.15.92 13.22 3.25 15.98 10.1 2.74 6.8 2.15 13.05-3.97 18.37-2.35 2.05-4.34 5.3-2.28 9.02.28.52.32 1.17.53 1.73 2.77 7.8 5.4 15.65 8.4 23.35 3.15 8.13 5.93 16.52 10.16 24.08 9.15 16.39 16.88 33.36 23.76 50.78 5.27 13.34 10.56 26.67 15.87 40.08-.4.48-1.39 1.14-1.48 1.9-.55 4.56-1.16 9.13-1.26 13.7-.21 9.9-.86 19.79-3.96 29.18-1.32 3.97-1.17 9.2-5.65 11.04 6.52 5.84 5.4 13.74 6.05 21.61l16.98 2.26c.29-1.4.63-2.56.75-3.74.85-8.79 1.72-17.58 2.46-26.38.9-10.64 1.67-21.27 2.51-31.91.6-7.7 1.36-15.38 1.82-23.08.71-11.8 1.75-23.62 1.73-35.44-.01-21.8-.66-43.6-1.1-65.41a69 69 0 0 0-.68-9.44c-1.73-10.72-3.34-21.47-5.56-32.1a710 710 0 0 0-8.83-37.25 1246 1246 0 0 0-12.2-42.19 670 670 0 0 0-9.59-28.7c-3.95-11.13-8.13-22.17-12.26-33.23-4.96-13.32-9.99-26.6-14.95-39.92-.72-1.93-1.23-3.93-1.94-6.22zM318.61 563.85c-4.16 2.17-7.71 3.79-11.03 5.8-5.68 3.44-10.34 8.59-17.07 10.28-3.05.76-5.05 2.26-5.7 5.63-.48 2.4-1.8 4.63-2.7 6.96-4.89 12.46-9.93 24.87-14.6 37.42a119 119 0 0 0-7.65 46.72c.3 7.42 1.14 14.81 1.8 22.21 1.19 13.31 4.21 26.29 8.31 38.92 6.05 18.65 12.98 37 19.37 55.55 1.14 3.3 2.28 6.04 6.34 6.04.37 0 .75.27 1.13.41 9.5 3.5 18.96 7.05 28.48 10.48 5.44 1.96 10.93 3.76 16.42 5.58 1.71.57 3.68 1.7 5.2 1.3 7.74-2.04 15.6-2.93 23.55-3.63 10.59-.93 21.12-2.44 31.7-3.59 2.44-.27 4.95.02 7.43-.05 5.32-.16 10.64-.4 15.96-.6l4.08-.22c-3.53-3-6.5-5.27-9.17-7.85a515 515 0 0 1-16.01-16.02 268 268 0 0 1-11.53-13.18q-8.5-10.23-16.75-20.65a314 314 0 0 1-11.62-15.55c-2.55-3.68-4.45-7.82-6.93-11.55-6.56-9.9-12.32-20.2-15.44-31.72-1.63-6-2.37-12.26-4.13-18.22-2.88-9.76-7.01-19.21-9.27-29.1-3.02-13.28-5.07-26.8-6.95-40.31-1.21-8.77-1.35-17.68-2-26.52-.34-4.54-.76-9.07-1.22-14.53zm-89.95 58.84 22.07 13.72 25.38-58.62c-4.63-.8-9.55-1.45-14.36-2.61-1.21-.3-2.74-2.14-2.86-3.4-.18-1.87.76-3.84 1.22-5.78 1.37-5.74 2.5-11.56 4.2-17.2.7-2.33 2.1-5.1 4.02-6.26 6.36-3.87 13.62-4.86 21.79-5.06-.93-56.55 9.98-111.35 28.48-165.5-7.54 4.06-14.95 4.91-22.32 5.8-1.3.17-2.74-.68-3.96-1.02-7.18 3.27-14.62 6.5-21.87 10.1a9.6 9.6 0 0 0-4.39 4.66c-9.43 24.8-19.09 49.52-27.75 74.6-4.87 14.1-8.3 28.73-11.83 43.26-3.77 15.47-6.88 31.09-10.32 46.64-3.26 14.75-6.57 29.5-9.7 43.6 1.69 1.46 3 2.36 4.03 3.5 4.59 5.04 9.1 10.14 13.62 15.24 1.12 1.25 2.3 1.5 3.66.4 2.37-1.93 4.66-3.96 7.13-5.75 1.14-.84 2.66-1.13 3.93-1.84.89-.5 2.14-1.12 2.35-1.92 1.03-3.8 1.75-7.68 2.56-11.54.78-3.7 3.17-5.18 6.09-2.92 4.38 3.4 8.17 7.54 12.22 11.37l-.87 1.27c-2.47-1.3-5.1-2.35-7.38-3.94-2.43-1.72-4.51-3.93-6.74-5.91-.29 3.87-.55 7.72-.87 11.58-.22 2.65-.83 4.96-4.18 5.27-.9.08-2.06.74-2.53 1.49-2.42 3.9-6.33 5.02-10.8 6.79zm551.29 241.68c2.76-3.52 5.72-6.77 8.06-10.42a419 419 0 0 0 22.36-39.69c1.5-2.98.78-4.68-1.9-6.22a8 8 0 0 1-1.93-1.39c-3.76-4.04-7.3-8.3-11.26-12.14-4.44-4.3-8.85-8.79-13.97-12.15-3.97-2.62-8.96-3.71-13.57-5.29-.84-.29-2.17.11-2.97.65-3.13 2.1-6.13 4.38-8.72 6.27zm-245.64 64.2c1.86-.64 4-1.74 6.25-2.06 4.24-.59 6.2-2.64 6.57-7 .26-3.14 1.34-6.27 2.42-9.28.35-1.02 1.8-2.35 2.73-2.32 1.98.04 1.51 1.95 1.5 3.3 0 .5-.22.98-.35 1.46l-2.92 10.66c4.54-1.3 8.59-2.4 12.58-3.65.53-.17.99-1.05 1.2-1.7 2.41-7.07 4.54-14.24 7.24-21.2 1.19-3.07 2.12-5.84 1.52-9.2-.71-3.99-.94-8.08-1.29-12.13-.2-2.36-.25-4.74-.39-7.5-14.83 13.6-32 20.08-52.23 18.21 0 .55-.07 1.04.01 1.52.94 5.6 1.8 11.22 2.9 16.8.82 4.26.3 6.56-2.75 8.05l-4.76-13.48-9.13 1.64c.46 3.17.9 6.36 1.43 9.53.07.36.7.66 1.1.92 5.43 3.44 10.9 6.8 16.28 10.32 3.31 2.16 6.49 4.54 10.1 7.1zm7.23-618.8c4.8-1.99 9.23-4.18 13.9-5.67a77 77 0 0 1 14.93-3.39c1.84-.2 3.41-.25 4.43-1.63 1.48-1.97 3-4.04 1.9-6.85-3.46-8.78-5.63-17.83-5.57-27.33.02-2.7 0-5.41 0-8.9-1.97 3-3.39 5.32-4.96 7.52-3.55 4.95-6.68 10.4-13.63 11.33-1.93.26-3.72.86-5.28-.93-.38-.45-1.25-.52-1.92-.67-6.68-1.52-12.99-3.84-18.5-8.07-3.6-2.76-7.34-5.36-10.9-7.96-1 1.94-1.82 3.86-2.9 5.62-3.89 6.3-4.16 6.53 1.07 11.56 3.88 3.74 8.54 6.67 12.8 10.02 8.22 6.44 13.48 14.63 14.63 25.34zm-34.62 538.09c1.36 1.91 3.34 3.7 4.05 5.9 1.93 5.99 3.49 12.1 4.84 18.25.5 2.32 1.58 2.94 3.63 2.86 5.1-.2 10.22-.09 15.27-.65 12.1-1.32 23.53-4.86 33.62-11.33l-5.14-26.6c-18 6.95-37.1 10.5-56.26 11.56zM213.2 541.37c.51-3.55.8-6.79 1.47-9.95a707 707 0 0 1 4.95-22.34c2.37-9.82 4.52-19.72 7.5-29.35 4.74-15.32 10.07-30.44 15.2-45.62 1.08-3.2 2.39-6.31 3.66-9.66-4.8-.65-6.5 2.28-7.76 5.21-4.19 9.72-8.03 19.59-12.21 29.31-8.15 18.93-16.12 37.9-20.88 58.02-1.3 5.48-2.39 11-3.45 16.52-.14.75.19 2.08.73 2.38 3.48 1.92 7.09 3.63 10.8 5.48zm455.65-180.73-.55-.34c-.61.7-1.5 1.32-1.8 2.14-1.35 3.74-2.86 7.46-3.7 11.32a428 428 0 0 0-4.38 23.4c-1.22 7.58-2.56 15.2-2.98 22.86-.52 9.5.28 19.07-.31 28.56-.36 5.85.76 12.03-2.4 17.59-.46.8-.71 2.08-.4 2.9 1.44 3.81 2.83 7.7 4.79 11.26 1.57 2.85 4.9 2.73 7.01.16.97-1.18 1.8-2.47 2.73-3.68 4.38-5.78 3.55-18.18-4.43-21.73-.68-.3-1.28-1.4-1.43-2.2-.39-2.1-.68-4.24-.7-6.37q-.17-9.41-.04-18.82c.11-7.46-.03-14.96.73-22.36.86-8.4 2.52-16.72 3.99-25.05 1.16-6.57 2.57-13.1 3.88-19.64zM279.23 572.76c.83-1.82 1.54-3.68 2.5-5.4 1.68-3.03 4.21-5.76 5.14-8.97 1.38-4.82 1.69-9.95 2.52-15.36-4.43 1.18-8.17 2.35-11.98 3.12-3.59.72-6.64 1.63-6.57 6.18.02.85-.56 1.72-.91 2.57-1.8 4.32-3.62 8.63-5.47 13.02zM591.1 443.9l-.9.1c1.16 9.53 2.3 19.07 3.51 28.59.3 2.43 1.84 5.05-1.53 6.64-.34.16-.57.87-.6 1.35-.28 5.44.02 10.76 3.07 15.54 1.42 2.24 5.28 3.83 6.79 2.65 3.43-2.72 5.94-6.67 5.35-10.7-1.06-7.22-3.78-14.07-8.66-19.85a13.5 13.5 0 0 1-2.8-5.22c-1.58-6.33-2.84-12.74-4.23-19.1m-94.53 179.27c3.43-1.92 7.1-3.74 10.51-5.94 3.25-2.09 7-3.5 7.37-8.63.2-2.9 0-5.08-1.73-7.22l-2.75-3.4-16.34 10.94zm-51.08 12.7c1.2-.4 2.32-.9 3.5-1.13 5.74-1.07 11.47-2.33 17.27-2.97 2.72-.3 3.04-1.46 2.72-3.52a57 57 0 0 0-1.32-6.47c-.12-.45-1.3-.96-1.9-.86-3.66.59-7.28 1.4-10.93 2.04-6.24 1.08-8.45 2.92-9.64 8.7-.3 1.48.21 3.13.3 4.21m45.44-10.36-5.2-12.59-13.35 5.62 1.83 11.59zm120.44-290.03.9-1.04c-.72-.85-1.3-1.88-2.17-2.5-9.15-6.48-18.35-12.89-27.83-19.52-.05.5-.44 1.44-.13 1.85 1.5 1.99 2.87 4.3 4.87 5.64 8 5.37 16.22 10.41 24.35 15.57zm-22.08 36.74-3.47 1.81 2.86 37.69h.61zm-366.03 65.61c-7 .02-9.63 5.76-13.92 9.81 3.15.14 12.9-6.83 13.92-9.8m3.4 192.3c-2.13 5.05-1.33 6.04 6.66 9.25v-5.44zm410.96-264.99H618.5c3.6 2.11 9.82 2.36 19.12 0"/><path fill="#000" d="M875.03 763.65c0-8.8-.16-17.6.03-26.39.27-12.2 1.48-24.4 1-36.55-.43-11-2.44-21.94-4.03-32.86-1.27-8.76-2.48-17.58-4.67-26.12-.8-3.13-4.16-5.77-6.72-8.24-6.08-5.89-12.54-11.41-15.98-19.43l.45-.88c2.2.96 4.7 1.52 6.55 2.94 6.09 4.72 12.33 9.34 17.72 14.8 3.35 3.38 7.26 6.9 8.1 12.19.8 5.08 1.55 10.17 2.5 15.23 1.55 8.2 3.45 16.34 4.82 24.57a95 95 0 0 1 1.3 15.04c.05 8.84-.03 17.7-.64 26.52-.61 8.67-1.98 17.28-2.98 25.92a928 928 0 0 0-1.68 15.55c-.28 2.8-1.19 4.55-4.52 3.8-.6-.12-1.6.86-2.16 1.54-5.33 6.5-10.54 13.1-15.98 19.5-.79.94-3.02 1.82-3.8 1.37-1.53-.9-2.08-2.7-.99-4.72 4.51-8.34 10.33-15.69 16.87-22.48.88-.9 2.42-1.19 3.65-1.76zm-152-140.81c4.53-2.04 4.72-1.88 7.2 1.44 6.38 8.55 10.24 18.39 14.06 28.18 4.2 10.73 7.7 21.72 11.63 32.56 4.32 11.9 8.8 23.76 13.23 35.63.35.95.87 1.83 1.28 2.75.6 1.4 1.6 2.88-.49 3.91-1.8.9-3.33.56-4.3-1.3-4.15-7.84-8.43-15.62-12.33-23.58-2.63-5.38-4.8-10.98-7.04-16.55-5.19-12.87-10.4-25.73-15.38-38.67-2.6-6.73-4.77-13.62-7.08-20.46-.4-1.2-.5-2.52-.78-3.92zM839.41 506c-8.5-2.86-13.18-6.7-15.68-19.53 5.38 3.4 10.74 6.53 15.78 10.1 1.94 1.37 2.96 3.77 1.48 6.35-.55.95-1 1.95-1.58 3.08M496.97 169.94c-3.58-1.94-6.95-3.78-10.33-5.6-3.57-1.94-4.94-4.64-3.28-8.24 1.55-3.36 3.89-6.35 6.07-9.8-1.71-.46-3.88-1.17-6.1-1.57-1.17-.21-2.85.05-2.42-1.57a4.7 4.7 0 0 1 2.9-2.87c3.77-.92 6.88 1.11 10.14 2.75 7.03 3.53 10.77 9.47 12.98 16.65.26.84.03 1.83.03 3.31l-12.49-14.08-5.49 7.06c2.41 2.04 4.63 4 6.95 5.85 3.72 2.97 4.07 5.26 1.06 8.1zm79.3 24.67c-5.7-1.94-11-3.53-16.13-5.57-3.76-1.5-6.66-4.2-7.66-8.33-.21-.86.16-2.03.66-2.8.18-.3 1.62-.09 2.27.28 6.22 3.48 12.4 7.06 18.6 10.6 1.87 1.06 2.9 2.49 2.26 5.82m-10.95 52.8c-1-.24-2.08-.29-2.97-.73-2.44-1.22-4.7-2.79-7.2-3.86-2.44-1.06-2.54-3.64-3.89-5.38-.4-.51.85-2.32 1.34-3.53.78.32 1.74.45 2.29.99q4.82 4.77 9.5 9.7c.57.6.92 1.43 1.37 2.15zm-72.07 221.63c-.4.37-1.17 1.57-1.82 1.51-.95-.08-2.34-.89-2.63-1.71-2.38-6.76-4.85-13.52-6.72-20.43a679 679 0 0 1-8-32.66c-1.46-6.68-2.07-13.53-3.25-20.27-.7-4.02-1.91-7.94-2.66-11.95-1.46-7.82-2.73-15.68-4.12-23.52-1.07-6.04-2.12-12.1-3.35-18.1-.8-3.92-.02-5.52 3.9-6.76 2.6-.8 6.19.89 6.84 3.63 2.38 10.04 4.85 20.08 6.78 30.22 1.76 9.24 2.96 18.58 4.23 27.91.84 6.23 1.22 12.52 2.08 18.75 1.21 8.9 2.59 17.78 4.04 26.64 1.43 8.68 3.03 17.34 4.69 26.76zm-133.18-116.6c1.74-.49 3.44-1.24 5.21-1.43 12.64-1.38 24.83.92 36.17 6.22a106 106 0 0 1 37.05 28.61 235 235 0 0 1 25.26 37.23c.23.43.36.92.57 1.45-2.05 1.03-3.16.06-4.28-1.46-3.52-4.86-6.97-9.8-10.78-14.42-5.65-6.86-11.12-13.97-17.54-20.06-6.89-6.53-14.76-12.02-22.25-17.91-8.05-6.34-17.3-10.34-27.1-12.78-6.3-1.57-12.87-2-19.3-2.99-1.02-.15-1.99-.6-2.98-.9zm-21.49 43.78c-2.2 8.29-4.05 16.7-6.74 24.83-1.98 5.94-4.98 11.56-7.72 17.23-1.15 2.38-5.16 3.28-7.2 1.82-.46-.34-.76-1.5-.56-2.08 4.42-12.92 8.93-25.81 13.36-38.73.6-1.76.9-3.63 1.27-5.47.48-2.43 2.15-3.65 4.26-2.82 1.16.46 1.75 2.44 2.51 3.79.18.3.03.8.03 1.22zm87.98 232.44c2.76-.47 5.43 1.06 5.89 3.66.9 5.16 2.09 10.15 6.27 14.03-6.15.88-13.66-10.44-12.17-17.69zm-72.53-305.7-9.05 7.7-.49-.57 9-7.77zm1.88-1.74c.55-.8.98-1.71 1.66-2.35 1.04-1 2.26-1.8 3.86-2.13l-5.57 4.38zm7.75-7.28 3.33-2.41.4.56-3.33 2.4zm.15 1.07-2.23 1.27-.34-.55 2.23-1.34z"/><path fill="#000" d="m355.87 321.12-1.69 1.35-.37-.72 2.1-.54zm308.17-105.18c1.6-1.2 2.74-2.24 4.06-2.95.7-.37 1.72-.27 2.57-.16 1.04.12 2.17.28 3.08.76a39 39 0 0 1 5.37 3.35c4.25 3.27 8.63 6.44 12.53 10.1 2.8 2.64 5.16 5.89 5.98 10.57-1.5-.37-3.01-.28-3.61-.97-4.78-5.56-11.69-7.32-17.88-10.38-2.58-1.28-5.2-2.63-7.42-4.43-1.74-1.4-2.87-3.54-4.68-5.9zm-63.55-15.67c2.47-4.53 6.51-4.63 9.9-4.81 8.84-.5 17.43 1.29 25.79 4.17l-1.44 5.05c-2.26.6-4.23 1.67-6.1 1.52-3.26-.25-6.48-1.2-9.7-1.94-3.9-.89-7.79-1.9-11.7-2.78-2.13-.47-4.3-.77-6.76-1.21zm86.68 59.96c-1.22.42-2.45 1.24-3.67 1.21a44.6 44.6 0 0 1-21.05-5.67 19 19 0 0 1-5.08-4.49c-.8-.97-2.52-2.22-.56-4.1 1.69-1.62 2.98-1.13 4.59-.25 5.01 2.75 9.97 5.63 15.12 8.11 3.38 1.63 7.06 2.66 10.61 3.95zm-62.59-26.95c-.9 2.33-2.6 3.36-5.8 2.8a89 89 0 0 1-11.07-2.54 17 17 0 0 1-5.42-3.17c-1.46-1.2-2.11-2.95-.92-4.89 1.28-2.07 2.77-.94 4.22-.32q9.5 4.05 18.99 8.12m7.56 38.57c-3.65-.98-7.36-1.8-10.9-3.05-.87-.3-1.83-2.1-1.7-3.06.29-1.97 1.22-4.25 3.8-3.76 3.19.62 6.28 1.77 9.4 2.75.65.21 1.32.59 1.82 1.07.97.93 2.76 2.42 2.54 2.91-.65 1.43-1.6 3.31-3.92 2.7-.3-.07-.62 0-.92 0zm-29.72 3.54c3.88 4.04 8.69 4.38 12.94 5.94 5.95 2.18 11.85 4.5 17.74 6.84.5.2.73 1.04 1.09 1.58-.62.27-1.28.85-1.84.77-2.09-.32-4.16-.8-6.21-1.32-7.57-1.92-14.12-6-20.74-9.91a15 15 0 0 1-2.93-2.3c-.28-.27-.05-1.05-.05-1.6m-320.8 170.15 8.12-31.12c-1.18.24-3.11.58-5.02 1.05-.5.13-1.1.61-1.3 1.07-3.43 8.23-6.79 16.48-10.2 24.72-.41 1-1 1.94-2 2.7l7.42-27.64h-5.07c-4.59 12.23-9.1 24.25-13.88 37.04-.48-1.32-1.17-2.22-.98-2.85 3.6-11.89 7.32-23.74 11-35.6.6-1.93 1.83-2.5 3.9-2.46 7.68.15 15.36.07 22.93.07-2.59 10.87-11.18 31.36-14.07 33.36z"/></svg>