<svg xmlns="http://www.w3.org/2000/svg" width="1080" height="1080" fill="none" viewBox="0 0 1080 1080"><path fill="#fff" d="M561.37 158.32c1.02 3.89 2.11 7.75 3.05 11.66.6 2.49 2.37 3.51 4.43 4.76 8.36 5.06 17.64 6.9 27.03 8.92 8.76 1.9 17.15 5.46 25.87 7.6 7.64 1.88 14.81 4.67 21.05 9.29 5.64 4.16 9.24 10.03 9.03 17.33-.29 10.25 1.53 20.21 2.88 30.3 1.34 10.12 5.62 19.5 7.95 29.28.95 3.95 2.42 8.08 2.81 12.15.17 1.77-2.52 2.98-4.51 3.43-4 .89-7.93 2.09-11.93 3-1.85.43-2.67 1.13-2.76 3.24-.49 11.54.1 23.08-.58 34.61-.28 4.9-.2 9.83.2 14.64 1.17 14.55-1.74 29.41 4.33 42.74 3.23.22 6.49.06 9.56.74 4.1.9 5.37 3.77 4.39 7.73a53 53 0 0 0-1.12 7.12c-.3 2.74-.7 5.51-.57 8.25.17 3.73.29 7.6 1.37 11.13 1.19 3.9.8 7.57.46 11.42-.4 4.5-.36 9.03-.69 13.55-.39 5.52-.63 11.05-2.95 16.29-2.05 4.62-2.52 5.08-7.4 4.29-1.93-.32-3.93-.67-5.84-.44-1.23.14-3.32.6-1.92 2.99 1.63 2.74 2.9 5.73 4.73 8.33 1.86 2.65 2.72 5.14 1.7 8.4-2.42 7.73-4.46 15.58-6.9 23.3-.85 2.68-2.8 5.02-3.56 7.71a141 141 0 0 0-3.16 14.5c-1.18 6.88-1.75 13.88-3.2 20.7-2.3 10.8-1.69 21.69-1.6 32.57.02 4.42 0 8.82 0 13.42 3.25.64 3.64 2.65 3.63 5.25 0 6.14.76 12.32.38 18.43-.49 7.75-1.81 15.45-2.77 23.16-.47 3.8-1.18 7.57-1.33 11.38-.26 6.34-2.53 12.06-4.92 17.76-1.83 4.36-3.62 8.73-5.62 13-2.23 4.74-4.42 9.52-7.1 14.02-8.43 14.17-14.45 29.44-20.67 44.65-3.55 8.68-7.73 17.11-11.3 25.8-1.15 2.8-1.02 6.1-1.9 9.06-.99 3.26-2.81 6.27-3.6 9.56-.55 2.34 0 4.94.08 7.42 0 .09.08.18.14.26 2.02 2.8-2.08 6.06 1.13 9.3 1.96 1.98 2.28 5.78 2.9 8.85 1.07 5.43 1.43 11.02 2.8 16.37 1.6 6.27 4.04 12.3 5.96 18.5 2.93 9.4 5.72 18.84 8.57 28.27 1.08 3.55 1.86 7 4.11 10.32 2.48 3.64 3.03 8.56 4.59 12.86a7 7 0 0 1-.7 6.58c-3.22 5.2-7.25 9.13-13.03 11.84-5.88 2.76-10.92 7.23-16.54 10.58-4.45 2.65-5.67 5.81-4.55 10.97 1.94 8.92 3.04 18.03 4.32 26.09l11.58 4.58c-6.08 3.38-3.7 8.03-3.68 11.95 0 2.82.86 5.67 1.6 8.43.32 1.15 1.2 2.88 2.04 3.02 2.82.44 2.95 2.77 3.4 4.52 1.5 5.94 2.2 12.12 4.08 17.92 2.4 7.37 5.42 14.57 8.6 21.65 2.62 5.79 4.56 11.55 4.14 18.02-.3 4.59-1.93 7.2-6.28 8.63-4.9 1.59-9.85 1.36-14.96 1.03s-10.33.9-15.52 1.26c-9.31.63-18.61 1.05-27.73-1.77-5.53-1.71-8.86-5.25-9.77-10.96-.52-3.31-1.09-6.63-1.3-9.96-.21-3.49 1.1-4.69 4.92-4.91.85-4.67 1.67-9.4 2.55-14.13 1.29-6.83 2.09-13.8 4.03-20.45 2.81-9.69 4.15-19.43 3.32-29.44-.2-2.46-1.46-4.81-2.05-7.26q-3.05-12.63-5.88-25.3c-.57-2.53-1.43-4.07-4.33-4.92a701 701 0 0 1-32.57-10.44c-2.95-1.02-5.49-3.2-8.01-4.74-1.26 6.6-3.07 13.65-3.85 20.82-1.08 9.92-1.43 19.93-1.93 29.9a7.2 7.2 0 0 0 1.25 4.27c1.88 2.62 1.1 5.45 1.13 8.2.08 5.55.03 11.1.03 16.97-3.15-.69-3.13.89-2.5 2.98 2.08 6.94 4.13 13.89 6.28 21.12-2.8 6.13-8.61 9.19-15.46 10.15-3.36.47-7.14.26-10.32-.84-6.38-2.23-12.78-4.75-18.55-8.19-2.83-1.68-4.32-5.65-6.28-8.67-.15-.23.77-1.14 1.35-1.95-.95-3.25-2.12-6.98-3.08-10.76-.35-1.36-.26-2.84-.26-4.26-.04-7.11-.24-14.21.02-21.3.11-3.1 1.24-6.14 1.8-9.22.3-1.67.56-3.38.54-5.07-.13-8.33-.36-16.65-.58-24.97q-.22-7.58-.5-15.14c-.43-11.43 6.13-22.33 20.63-19.89 1.7.29 3.9-1.98 5.75-3.27 2.64-1.85 5.18-3.84 7.7-5.86.52-.42 1.14-1.34 1-1.84-1.54-5.9-3.05-11.8-5-17.57-.41-1.24-2.61-1.8-3.87-2.83-2.94-2.4-5.72-5-8.73-7.3-2.56-1.96-5.67-3.28-7.96-5.48-3.64-3.5-6.64-7.67-10.21-11.25-2.82-2.83-1.91-6.6-2.98-9.83-.42-1.28 1.06-3.14 1.5-4.78.62-2.32 2.24-1.64 3.8-1.5 1.6.12 3.2.02 5.32.02-.46-.73-.84-1.83-1.6-2.48-2.92-2.47-2.4-3.8.52-6.37 2.13-1.87 3.26-5 4.55-7.7.76-1.62 1.44-3.37.09-5.31-.54-.77-.3-2.34.03-3.4a489 489 0 0 1 4.65-14.5c.33-1 .76-2.04 1.45-2.8.6-.7 1.62-1.03 2.46-1.52l1.33.56-1.86-25.03c-.46-6.22-.86-12.45-1.4-18.65-.53-5.97-1.46-11.9-1.75-17.88-.31-6.47-.12-12.96-.11-19.45.01-8.5.4-17.03-.04-25.5-.3-5.86-1.69-11.67-2.7-17.47-2.75-15.81-5.66-31.6-8.3-47.43-.95-5.8-.97-11.75-2.01-17.53-.55-3.07-2.63-5.84-3.56-8.88-3.02-9.97-6.12-19.93-8.62-30.03-2.68-10.81-4.84-21.75-7.01-32.67-1.58-8-2.7-16.08-4.28-24.08-.62-3.12-2.21-6.03-2.97-9.13a301 301 0 0 1-4.32-19.64 267 267 0 0 1-2.51-19.34c-.77-7.7-1.56-15.41-1.83-23.13-.41-12.18 2.1-23.96 5.77-35.53a104 104 0 0 0 3.36-13.15c1.07-6.08-1.43-11.63-3.38-17.2-.69-1.97-1.8-3.78-2.77-5.8 3.15-1.8 2.2-4.5 2.04-7.46-.49-8.86-.49-17.77 3.25-26.16a25 25 0 0 0 1.67-4.84c.15-.7-.17-1.83-.69-2.3-3.48-3.18-3.43-5.71.22-8.85.65-.55 1.41-1.34 1.51-2.1.73-5.42 1.3-10.87 1.93-16.25l-13.62-4.77c-2.8-.99-3.48-2.78-2.8-5.7 4.1-17.99 8.22-35.97 11.97-54.03.95-4.57.5-9.43.77-14.15.55-9.3 5.02-16.45 13.45-20.03 11.48-4.88 23.37-8.84 35.12-13.1 4.96-1.79 10.08-3.17 15-5.05 2.4-.93 4.57-2.5 6.74-3.93 1.83-1.21 3.4-1.75 5.02.33 1.64 2.12 3.42 1.94 5.27.12 5.73-5.64 11.5-11.24 16.32-15.95-.9-4.35-1.48-7.74-2.33-11.05-.43-1.7-1.3-3.3-2.03-4.91-.94-2.07-1.73-4.26-2.97-6.12-.95-1.41-2.52-2.4-4.25-4-1.31 5.07-2.48 9.66-3.71 14.24-.58 2.15-1.4 4.24-4.25 2.86a3.8 3.8 0 0 1-1.85-2.2c-1-4.38-1.8-8.8-2.67-13.21h-1.28c-.94 3.56-2.16 7.08-2.76 10.7-.58 3.5-1.63 6.66-4.05 9.23-.47.5-1.73.87-2.23.6-1.18-.65-2.77-1.57-3.05-2.67-1.7-6.75-3.07-13.59-5.08-20.33-.61 3.25-1.27 6.5-1.82 9.76-.7 4.09-1 8.27-2.1 12.24-.45 1.6-2.37 3.55-3.94 3.91-2.1.49-3.96-1.16-4.33-3.57-.26-1.68-.16-3.34-2.63-3.31-.4 0-1-1.16-1.2-1.87-.9-3.07-1.4-6.3-2.58-9.25-2.19-5.43-4.73-10.72-7.18-16.05-.23-.5-.86-.81-2.04-1.87 0 2.16.15 3.63-.05 5.05-.15 1.1-.47 2.73-1.19 3.04-.94.41-2.43-.05-3.54-.5-1.46-.59-2.7-1.74-4.18-2.27-1.94-.7-2.45-1.78-1.89-3.66.56-1.93.91-3.91 1.53-5.82 1.46-4.5 4.22-6.52 8.83-6.93a3.5 3.5 0 0 0 2.3-1.4c4.4-6.47 7.38-13.4 6.87-21.47a68 68 0 0 1 0-6.22A85 85 0 0 1 469.4 48.3c4.59-7.56 9.27-15.01 16-20.97 6.53-5.78 13.68-10.91 21.7-13.82 6.26-2.26 13-4.45 20.01-3.83 6.47.57 12.91 1.5 19.39 1.73 3.16.12 6.42-.68 9.52-1.53 5.55-1.53 10.89-1.18 15.78 1.72 5.47 3.25 10.69 6.92 16.02 10.41 1.44.95 2.77 2.21 4.34 2.8 6.38 2.37 8.55 7.91 10.11 13.62a62 62 0 0 1 1.86 12.94c.12 2.18-.38 4.85-1.62 6.55-3.38 4.59-4.5 9.6-4.47 15.1.03 6.22-.22 12.45 2.93 18.12.47.83 1.44 1.39 2.22 2.03.73.6 1.72 1.02 2.16 1.77.16.28-.83 1.32-1.39 1.93-.7.75-1.48 1.41-2.17 2.05 2.1 6.92 7.7 11.03 12.5 15.79 1.2 1.19 2.26 2.19 1.94 4.56-.39 2.83-1.49 3.15-3.72 3.01-1.63-.1-3.28-.02-5.45-.02 1.54 4.32 3.05 8.33 4.38 12.4a24 24 0 0 1 1.39 6.13c.1 1.6-.6 2.78-2.93 2.07-4.28-1.28-8.1-3.13-11.1-6.54-1.37-1.57-3.21-3.45-5.18-2.07-1.34.95-2 3.33-2.3 5.18-.36 2.4 0 4.92-.1 7.38-.03.69-.64 1.34-.97 2.01-.69-.43-1.6-.7-2.02-1.33-1.17-1.74-2.13-3.62-3.1-5.33l-11.28 3.46c.5 2.93 1.09 6 1.5 9.1q.43 3.03.37 6.1c0 .57-.84 1.14-1.3 1.7-.57-.47-1.47-.85-1.64-1.44-1.34-4.7-2.79-9.42-3.67-14.22-.42-2.3.4-4.83.45-7.25.02-.79-.45-2.15-.93-2.27a3.5 3.5 0 0 0-2.69.7c-3.66 3.05-4.45 10.5-1.85 16.09.8 1.7 2.1 3.4-.73 6.24l-1.4-2.84-.6-1.17-.48.18.5 1.8zM457 396.02l1.54.36c2.36-4.34 5.39-8.46 6.9-13.08 1.36-4.13.94-8.83 1.5-13.26.68-5.23.82-10.54 3.49-15.42.88-1.61 2.01-4.27-.73-6.03-.5-.31-.88-1.3-.8-1.9.76-5.72-3.1-11.53.38-17.17.15-.23.15-.6.1-.9-.88-4.84-1.69-9.7-2.74-14.48-.18-.83-1.43-1.42-2.18-2.13l-.46.47-1.3-6.61c-1.58 1.17-2.89 2.1-4.13 3.1-.4.32-.85.82-.9 1.27-.46 5.48-1.2 10.96-1.2 16.44 0 14.2.38 28.4.52 42.6.08 8.9.01 17.81.01 26.72z"/><path fill="#000" d="M413.56 283.16c-1.58 3.37-1.16 7.63-5.36 10.17.27-4.18.31-8.4.85-12.55.98-7.54 2.27-15.04 3.43-22.55 1.2-7.75 2.36-15.49 3.6-23.23a989 989 0 0 1 3.24-19.53c.47-2.65 1.38-5.09 4.37-6.1.73-.26 1.36-1.23 1.76-2 3.03-5.87 8.18-9.07 14.21-10.81 14.61-4.22 29.3-8.2 43.96-12.27a3 3 0 0 1 1.52-.17c4.52 1.05 7.1-1.86 9.7-4.7 1.97-2.15 2.85-1.99 6.79 1.86l13.83-15.65-.52-.9-5.85.33v-7.86l-.43-.03c-.23 1.12-.5 2.24-.71 3.38-1.44 7.5-2.55 8.59-9.92 9.96-1.82.34-2.73.02-2.14-2.08.19-.68.1-1.43.1-2.15.01-3.14 0-6.28-.64-9.53-1 4.6-2.37 9.15-2.87 13.8-.34 3.26-2.28 4.07-4.62 4.15-3.57.12-7.16-.26-10.72-.64-.44-.05-1.12-1.43-1.05-2.14.57-6.48 1.29-12.96 1.94-19.43.05-.58-.08-1.18-.12-1.74-.9 4.91-2.02 9.78-2.6 14.72-.59 4.82-3.77 6.97-7.67 8.6-1.76.75-3.62 1.28-6.3 2.2l-1.77-7.03c-2.29.57-3-.8-3.22-3.28-.37-4.32-1.11-8.6-1.7-12.9l-.85.05.73 16.74c-1.23 0-2.84.3-4.26-.1-1.15-.3-2.64-1.26-3-2.27-1.89-5.42-3.47-10.96-4.98-15.85-2.31-.66-4.96-.89-6.9-2.17-1.16-.77-1.34-3.17-1.74-4.89-.25-1.1.12-2.34-.12-3.45-1.96-9.14 1.22-16.56 9.79-22.56 1.82-1.28 3.72-2.48 5.49-3.83.44-.34.77-1.15.77-1.74.03-6.97-.39-13.85-1.4-20.82-1.5-10.17-3.17-20.56-.54-30.9 2.02-7.93 6.49-14.61 12-20.22a358 358 0 0 1 28.08-25.72c8.68-7.1 18.98-10.89 30.38-12.06 10.63-1.08 20.42 1.14 30 5.17 2.43 1.02 4.45 1.32 6.58-.72.85-.8 2.42-1.05 3.7-1.15a47 47 0 0 1 30.7 8.16c.58.4 1.08.94 1.61 1.42 1.92 1.73 3.63 3.48 6.2 4.65 2.28 1.03 4.05 3.72 5.48 6.03 6.78 10.92 8.77 23 8.04 35.63-.05.73-.56 1.44-1.2 3.02-.72-2-1.17-3.21-1.6-4.45-.62 1.41.21 4.17-3.07 3.53-.17-.03-.95 3.05-1.44 4.66l15.84 1.53c0 9.04-1.7 17.49-5.19 25.42-1.22 2.76-4.25 4.73-6.68 7.3 2.71 7.51 18.01 15.53 28.87 13.8-1.9 2.88-3 5.58-4.98 7.22-2.18 1.83-5.08 2.93-7.83 3.91-2.64.95-5.47 1.34-8.23 1.99 3.26 7.18 10.83 13.05 17.5 11.21-2.52 3.84-2.97 8.48-7.62 10.42-1.35.56-2.18 2.67-3.5 2.96-7.22 1.63-12.43-2.5-17.49-6.73-.9-.76-1.56-1.83-2.89-3.44.42 6.1 1.79 10.93 5.94 14.68q-2.73 1.73-10.92-5.44l1.37 4.2-8.58 2.05-.14 2.15-4.7-6.74c.13 3.5.7 7.37-4.32 7.91-1.23.14-1.36 0-4.51-6 .84 3.5 1.5 6.18 2.03 8.34-3.15.5-6.26.97-9.55 1.5l.33 3.25.45-.67c3.21 1.98 6.82 3.55 9.54 6.07 2.87 2.65 6 2.73 9.27 2.5 3.14-.2 5.69-.1 7.79 2.84.85 1.2 3.1 1.64 4.8 1.95 13.44 2.48 26.74 5.44 39.3 11.02 5.08 2.25 9.2 5.6 11.62 10.83 1.8 3.9 3.08 7.75 3.35 12.23a243 243 0 0 0 3.33 27.3c2.45 13.95 5.45 27.81 8.22 41.72.1.5.1 1.06.35 1.47 1.64 2.68 1 4.97-2.1 6.15-5.08 1.94-10.26 3.65-14.83 5.25.15 7.04.41 14 .41 20.94 0 5.25-.39 10.49-.52 15.74-.24 9.77 0 19.59-.81 29.31-.4 4.84 1.88 8.83 2.22 13.33.2 2.8.96 5.57 1.53 8.73h2.77c3.24.06 6.5-.17 9.69.27 3.63.5 5.26 3.88 3.96 7.38-.18.48-.33 1-.62 1.4-3.75 5.11-2.88 10.77-2.26 16.54.44 4.12.07 8.33.28 12.48.06 1.08.96 2.13 1.53 3.17.27.52.65.98 1 1.46.9 1.24 1.82 2.47 3.18 4.31-.47 3.57-1.24 4.48-4.4 4.37 3.14 3.21 3 9.6-.3 12.93-1.77 1.78-1.5 3.3.5 4.75 1.08.79 2.29 1.9 2.64 3.09.97 3.3-.3 4.55-4.74 4.97-.24 2.65-.4 5.38-.78 8.07-.14.98-.55 2.28-1.28 2.77-3.29 2.23-10.32 1.59-13.16-1-.1.16-.3.44-.27.46 4.22 3.38 3 8.94 5.23 13.12.27.5.28 1.21.19 1.8-2.04 12.44-6.4 24.18-11.14 35.78a23 23 0 0 0-1.88 9.34c.24 14.74.07 29.48.16 44.22.13 22.25-.37 44.54.84 66.72.71 13.06-3.42 24.63-6.78 36.6-5.33 19-15.71 35.44-26.17 51.89a235 235 0 0 0-20.04 39.29c-2.54 6.37-5.8 12.46-9.23 18.67-7.45-30.51-18.78-60.01-20.04-91.8l-1.07.2c.25 1.77.57 3.53.75 5.3.45 4.46.57 8.98 1.3 13.4 1.59 9.48 3.02 19.03 5.33 28.35 4.37 17.55 9.45 34.93 13.98 52.44 2.83 10.93 6.06 21.87 7.52 33.01 1.45 11.07 4.82 21.45 8.14 31.92 2.85 9 5.89 17.95 9.02 26.85.61 1.73.3 2.48-1 3.59-8.5 7.28-18.33 12.39-28.07 17.66-.66.36-1.3.74-1.85 1.3 10.98-4.59 21.7-9.64 31.08-17.12.4-.32.72-.74 1.12-1.06 3.1-2.4 5.07-1.98 5.6 1.84.72 5.22.9 10.56.84 15.84-.1 7.26-5.75 10.99-10.94 14.06-7.42 4.37-15.5 7.61-23.31 11.33-.7.33-1.45.58-1.23 1.04l2.7 28.43-1.5.24c-3.4-8.89-3.45-18.52-5.45-28.2-7.03 2.43-13.9 4.8-20.75 7.21-.66.23-1.23.7-1.88.99-5.95 2.55-4.23 7.34-3.52 11.87 1.03 6.54 1.95 13.1 3 19.64.39 2.39 1.01 4.73 1.35 6.25-.6 1.7-1.33 2.76-1.28 3.77.28 5.93.46 11.88 1.23 17.75.83 6.34 2.24 12.61 3.45 18.89.49 2.55 2.08 3.32 4.66 3.14 5.43-.38 10.89-.38 16.33-.71 2.09-.12 4.21-.53 6.2-1.16 4.84-1.53 5.07-1.98 4.53-6.7-.23-1.91-.59-3.81-1-6.44-1.44 1.04-2.74 1.82-3.83 2.81-1.75 1.6-3.28 3.44-5.07 4.97-.76.65-1.97.76-2.97 1.12l-.41-.88 7.17-5.46-21.33 5.59c-.92-2.85.3-3.66 1.95-4.35a80 80 0 0 1 24.03-5.73v-7.34c-4.7 1.99-9.01 3.88-13.38 5.65-3.27 1.33-6.62 2.49-9.92 3.75-1.55.59-2.58.49-3.29-1.36-.67-1.73-1.02-3.22.87-4.15 2.83-1.37 5.65-2.86 8.64-3.74 5.42-1.59 10.96-2.77 16.7-4.18l-.3-4.36c-5.91 2.32-11.34 4.47-16.79 6.57-3.68 1.42-7.37 2.87-11.13 4.09-1.01.33-2.28-.12-3.44-.21.32-1.07.31-2.58 1.04-3.14 2.15-1.67 4.42-3.55 6.95-4.3 6.58-1.98 13.33-3.4 20.01-5.04.9-.22 1.78-.47 2.85-.75v-7.4c-3.16.99-6.2 1.98-9.26 2.88-6.12 1.8-12.3 3.42-18.38 5.35-2.31.74-3.62-.16-5.36-2.01 1.22-.67 2.15-1.5 3.22-1.72a1996 1996 0 0 1 27.71-5.61c2.73-.53 3.74-2.39 4.1-4.8.39-2.57-.21-4.44-3.34-4.52-6.36-.16-12.71-.59-19.06-.44-1.4.03-3.23 1.76-4.05 3.18-1.6 2.77-2.61 5.87-4.04 9.23-1.36-4.67.42-8.47 2.07-12.29 1.94-4.49 5.68-6.09 10.24-6.59 6.02-.66 12.02-1.31 17.9.72 3.83 1.32 5 3.74 3.85 7.56-.55 1.85-1.13 3.7-1.44 5.6-.13.78.43 1.67.57 2.16-.53.95-1.55 2-1.33 2.52.85 2.03-.83 5.12 2.62 6.15l-1.88 3.07c1.2-.4 2.08-1.02 2.6-.8.63.27 1.12 1.19 1.37 1.92a3689 3689 0 0 1 12.45 36.74c.74 2.21 1.25 4.26 3.4 5.79 1.2.86 1.86 2.85 2.25 4.47 1.16 4.8 2.55 9.64 2.93 14.53.5 6.44-1.9 10.1-8.17 11.92-6.6 1.92-13.45 3.47-20.29 4.02-9.93.8-19.95.8-29.93.69-10.04-.1-20.06-.74-30.1-1.17-1.7-.07-3.1-.4-3.53-2.53s.22-3.11 2.22-3.88c3.12-1.19 6.12-2.73 9.07-4.08-.27-4.04-.87-8.01-.68-11.93.1-2.4.82-5.27 2.34-6.98 2.43-2.74 3.05-5.82 3.69-9.12 2.35-12.33 4.87-24.63 7.12-36.97.67-3.7.76-7.52.92-11.3.08-1.97.57-3.21 2.92-3.07-6.22-11.95-8.79-24.7-9.88-37.93-13.35-.1-26.11-3.2-38.33-10.27-.8 4.03-1.67 7.83-2.25 11.68-.26 1.7.07 3.47.14 5.46h-1.27c-.42 1.75-.97 3.66-1.33 5.6-.35 1.88-.27 3.64 2.37 3.84l-2.82.25-1.4 5.67c.76 1.5 1.68 2.49 1.72 3.5q.75 17.54 1.27 35.08c.05 1.72-.3 3.46-.44 5.18-.17 2-.68 3.96 1.63 5.39.8.49 1.13 2.1 1.27 3.25.5 4.05.8 8.12 1.26 12.17.5 4.42-2.01 7.73-6.03 10.23-4.17 2.58-8.53 3.9-13.23 4.89-4.83 1.02-9.32.14-13.78-1.29-5.66-1.82-11.34-.25-17-.42-2.86-.09-5.71-.09-8.56-.29-.73-.05-1.43-.66-2.15-1.01l.05-1.07 13.55-3.64-5.95-9.45c-.2-.34-.5-.72-.5-1.09-.21-7.49-5.53-13.5-6.11-20.79-.6-7.37-1.87-14.58-.65-22.22 1.33-8.3.37-16.96.46-25.45.05-4.42.2-8.82.32-13.24.07-2.67-.1-5.37.27-8 .9-6.33 1.59-12.75 3.27-18.89 1.52-5.58 6.72-7.85 11.71-9.85.37-.14.93.2 1.77.42-2.7 2.14-5.41 3.77-7.42 6.03-1.69 1.9-3.43 4.46-3.62 6.85a375 375 0 0 0-1.32 29.1c-.01 4.94 1.47 9.86 1.71 14.82.3 5.8-.16 11.63-.03 17.45.18 7.65.34 15.33 1.01 22.95.47 5.23 1.85 10.37 2.68 15.58.22 1.37.68 2.08 1.87 2.96 3.66 2.7 6.87 6.05 10.6 8.66 2.4 1.69 5.33 2.79 8.17 3.7a28 28 0 0 0 20.64-1.22 4 4 0 0 0 1.9-1.7c1.36-3.09 2.5-6.26 1.32-9.42-3.39.83-6.77 2.34-10.17 2.38-11.43.09-28.8-8.84-32.43-25.65-1.86-8.61-1.05-17.27-1.1-25.9q-.1-12.33.58-24.65c.43-7.45 1.38-14.87 2.12-22.3.23-2.34.2-4.76.82-6.98.61-2.17 1.6-4.4 2.97-6.16 4.28-5.44 8.48-11 14.65-14.6.5-.3.73-1.6.61-2.36-1.67-11.93-3.49-23.86-5.13-35.8-1.81-13.09-3.13-26.26-5.29-39.3-2.92-17.62-4.97-35.28-4.76-53.18.06-4.6-.8-9.23-.38-13.77 1.12-11.8-2.32-23.1-3.1-34.68-.9-13.4-1.53-26.83-2.84-40.18-.93-9.58-2.82-19.06-4.24-28.6-1.21-8.07-2.27-16.17-3.56-24.23-1.03-6.41-2.7-12.74-3.37-19.18-.62-6.05-.27-12.19-.4-18.29a7 7 0 0 0-.54-2.6 6954 6954 0 0 0-14.87-34.97 802 802 0 0 0-7.86-17.86c-3.74-8.15-4.66-16.53-2.36-25.22.88-3.33 1.8-6.65 2.63-9.99.19-.78.29-1.66.13-2.44-1.78-8.62-3.95-17.18-5.36-25.86-1.46-8.95-2.2-18-3.24-27.03a98 98 0 0 1-.6-6.43c-.55-11.46 1.81-22.59 4-33.73 1.92-9.76 3.87-19.52 5.74-29.29.23-1.18.03-2.45.03-3.65-4.85-2.45-5.78-7.22-2.46-11.48.5-.64.43-2 .2-2.93-2.63-10.2-2.53-20.1 3.08-29.42.91-1.52.84-2.53-.78-3.78-3.54-2.73-3.15-6.8.54-9.5.49-.35.62-1.3.76-2.02.4-2.2.55-4.46 1.17-6.59.43-1.49 1.47-2.8 2-3.77-3.98-1.71-8.62-3.51-13.05-5.75-1.09-.55-2.28-2.76-1.98-3.78.54-1.83 2.28-2.29 4.51-1.74 14.06 3.44 28.17 6.66 42.26 9.98 5.57 1.31 8.73-1.9 7.4-7.52-1.74-7.3-3.3-14.64-5.21-21.9a150 150 0 0 0-4.8-14.7c-.45-1.17-2.2-1.82-3.25-2.8a6 6 0 0 1-1.33-1.93c-.23-.5.07-1.3-.23-1.72-1.46-2.09-.84-3.77 1.1-5.43-2.64-2.33-5.17-4.58-7.71-6.8l-7.86-6.92c2.42-1.56 4.63-1.92 6.5-.47 3.84 2.98 7.43 6.29 11.17 9.4.78.65 1.8 1.51 2.67 1.47 2.16-.13 2.95 1.1 3.44 2.76 3.66 12.63 7.56 25.21 10.84 37.95 1.47 5.76 1.67 11.85 2.48 17.79.58 4.22 1.11 8.46 1.88 12.66.82 4.48 1.3 8.95 1.27 13.51-.02 2.5-1.61 4.03-3.31 3.91-1.27-.08-2.55-2.26-3.48-3.72-.35-.56-.02-1.97.5-2.58 2.01-2.42 1.13-4.61.2-7.18-1.28-3.6-1.97-7.4-2.88-10.98-3.02.36-2.82 2.53-2.9 4.87-.52 16.63-1.2 33.25-1.8 49.87-.25 6.79-.43 13.58-.64 20.36l-1.56.09c-.92-7.51-2.2-15-2.65-22.53-.45-7.7-.1-15.46-.1-23.19l-1.74.44c.14-.35.16-.6.27-.65 2.65-1.16 2.66-3.4 2.78-5.89.34-7.78.92-15.54 1.44-23.7l-30.96-2.9v11.57c4.16 1.54 7.58 2.41 10.6 4.03 3.18 1.7 3.85 5.06 4.03 8.48.32 6.15-1.01 12.07-2.5 17.95-1.31 5.18-1.34 10.76-4.65 15.32-.12.16-.25.4-.22.56.97 5.3-3.08 6.96-6.48 9.21a4.4 4.4 0 0 0-1.77 2.83c-.5 4.94-.46 9.94-1.13 14.85a479 479 0 0 1-3.97 24.05c-2.15 11.37-3.83 22.72-2.22 34.34 1.57 11.29 2.93 22.6 4.35 33.92.39 3.1.67 6.23 1 9.35l1.17.23 17.83-44.9c-3.53-.19-3.84-1.48-2.67-3.77.42-.82.03-2.05.03-3.09.04-8.63.87-17.2 4.68-25.04 1.61-3.31 4.7-5.89 6.99-8.9a5 5 0 0 0 1.1-3.16c-.4-4.64 1.86-8.34 4.22-11.86 2.25-3.39 5.07-6.4 7.6-9.6.33-.44.6-1.05.62-1.59.29-8.69-.35-17.53 1.09-26.02 1.04-6.14 4.52-11.97 7.42-17.7 4.65-9.16 9.65-18.15 14.62-27.15 2.51-4.53 5.29-8.91 7.96-13.35.28-.47.72-.83 1.6-1.83-.48 6.11-3.12 10.6-5.35 15.2-6.24 12.9-12.69 25.68-18.76 38.64-1.2 2.57-1.15 5.75-1.58 8.66-.97 6.45-1.88 12.9-2.83 19.47l6-6.41.82.44c-1.17 2.56-2.06 5.3-3.58 7.64-2.97 4.62-6.27 9.01-9.47 13.48-3.16 4.42-5.6 8.93-6.1 14.69-.26 2.91-3.31 5.6-5.12 8.36-.43.65-1.24 1.17-1.36 1.84-1.36 7.52-2.63 15.06-3.95 22.8 19.73-10 40.56-17.44 61.58-24.54-2.36-.3-4.71-.79-7.08-.85-2.05-.05-2.71-1.17-2.23-2.7.3-.93 1.63-2.18 2.5-2.17 4.49.03 8.98.43 13.48.67 6.59.36 13.18.78 19.77 1.03 9.22.35 18.49.14 27.66.95 10.63.94 21.16 3.27 31.8 3.95 8.08.51 13.52 6.04 20.4 8.69 2.92 1.12 5.5 3.1 8.22 4.67.7-6.53-1.42-12.11-5.46-17.13a5 5 0 0 1-.85-2.84c.02-5.64 0-11.28.32-16.9a55 55 0 0 0-1.5-15.42c-1.08-4.7-1.03-9.73-1.1-14.62-.09-6.5-.05-13.01.35-19.5.76-12.2 2.37-24.32 5.75-36.1.71-2.5 1.25-5.43 4.85-6 1.5-.24 2.32-4.88 1.84-6.48-2.19-7.3-4.5-14.58-6.21-22a340 340 0 0 1-4.48-24.32c-.17-1.12 1.37-2.5 2.13-3.77.82.67 1.76 1.23 2.42 2.02.47.55.57 1.41 1.5 2.25q1.36-5.32 2.67-10.66c.67-2.75 1.27-5.52 1.99-8.26.25-.97.52-2.13 1.18-2.76 1.12-1.02 2.57-1.7 3.87-2.5.06 1.34.5 2.81.1 4.02-2 6.15-4.41 12.16-6.27 18.35-1.15 3.82-1.55 7.87-2.3 11.82l1.04.41c.96-2.16 1.8-4.39 2.9-6.47q4.12-7.64 8.42-15.2c.59-1.02 1.5-1.87 2.25-2.8l1.12.37c0 .97.32 2.1-.05 2.9-3.12 6.6-6.35 13.14-9.57 19.7-.86 1.76-1.77 3.48-3.05 6 4.76.28 9.26 1.33 13.43.57 4.45-.8 8.6-3.32 13.09-5.18l-1.9-2.8c2.09 0 4.62-.55 4.99.1 1.14 2.05-.4 3.55-2.25 4.64-7.45 4.37-15.56 6.43-24.12 6.81-.97.05-1.97-.57-3.48-1.06 0 1.74-.3 3.41.05 4.94 1.33 5.94 2.9 11.84 4.3 17.77.35 1.47.46 3 .76 5.1 4.92-.55 10.02-.68 14.92-1.77 5.73-1.28 11.23-3.52 16.9-5.1 1.98-.57 1.97-1.27 1.5-3.05-3.82-14.78-7.5-29.61-11.23-44.43-9.5 2.38-12.42 2.36-13.68-.16 2.7-1.52 6.99-1.88 13.22-1.07l-2.01-23.97-12.07 4.75c.92-3.67 6.58-6.02 12.61-5.44 2.18-4.5-1.15-7.28-3.44-10.15-6.05-7.58-14.65-10.72-23.64-13.09-8.04-2.11-16-4.63-24.14-6.15-2.91-.54-6.55.76-9.35 2.22-4.64 2.42-8.87 5.64-13.59 8.18 2.8-4.94 7.91-7.68 11.22-12.21-2.32 1.52-4.68 3-6.97 4.57-8.09 5.58-17.13 8.72-26.84 8.77-6.55.03-13.2-1.07-19.66-2.4a391 391 0 0 1-27.3-6.75c-3.92-1.1-8.02-2.36-10.8-6.18l-6.46 3.94c8.16 2.74 16.1 5.74 24.24 8.04a535 535 0 0 0 34.76 8.81 34 34 0 0 0 21.18-2.23c-2.6 2.59-7.9 4.13-12.34 4.43-10.9.75-21.22-2.25-31.65-4.5a147 147 0 0 1-37.33-13.36c-7.87 5.07-16.78 6.78-25.46 9.17-7.22 2-14.44 4-21.62 6.16-7.12 2.14-12.06 7.37-17 12.53-.28.3-.23.96-.26 1.45a256 256 0 0 1-7.28 47.62c-1.54 6.07-2.76 12.23-4.12 18.35l.1-.07zM483.4 644.5c.18-.77.64-1.59.51-2.3-.91-5.06-1.95-10.1-2.94-15.15l-.56.1 3.05 17.3c.25 1.81.46 3.63.77 5.43 1.89 11.2 3.43 22.45 5.78 33.54 3.55 16.79 7.65 33.45 11.57 50.16 1.2 5.1 2.6 10.14 3.9 15.22l.74-.17c-.15-.86-.27-1.74-.47-2.59-1.85-7.9-3.75-15.78-5.57-23.69-2.66-11.47-5.46-22.91-7.84-34.44-2.53-12.26-4.61-24.62-6.98-36.9-.43-2.22-1.3-4.34-1.97-6.5zm20.15-461.7c2.15.86 4.25 1.96 6.48 2.54 12.17 3.17 24.3 6.52 36.6 9.13 5.28 1.13 11.2 1.87 16.3.64 7.16-1.74 12.67-7.04 17.8-12.64-.98-.36-1.66-.57-2.3-.87-4.15-1.94-8.63-3.48-11.2-7.63-.99-1.6-1.2-3.66-2.13-5.31-3.66-6.54-6.33-13.4-7.22-20.88-.24-1.94.42-4.58-.62-5.68-1.24-1.32-3.87-1.34-5.89-1.9-.2-.06-.42 0-.61-.04-8.37-1.76-15.82-5.33-22.02-11.28-1.8-1.73-3.11-3.8-2.95-6.95 1.32.76 2.23 1.2 3.04 1.76a66 66 0 0 0 23.33 10.12c7.97 1.82 15.78 4.55 24.23 2.16 3.28-.93 5.57-2.5 6.74-5.48 3.35-8.5 6.51-17.09 9.66-25.39-2.38-2.62-4.23-3.33-6.73-.53-.9 1.02-3.37.88-5.11.82-.52-.02-1-1.54-1.68-2.7 1.11-.13 1.64-.1 2.1-.27 1.45-.53 2.86-1.15 4.3-1.74-1-1.16-2.1-2.27-2.98-3.52-1.14-1.61-2.55-3.21-3.08-5.04-.77-2.61-.85-5.42-1.22-8.15-.12.02-.3 0-.31.05-.16.45-.36.9-.44 1.36-1.65 10.31-5.49 18.43-17.1 21.13-10.21 2.36-18.14-.76-22.28-9.95-2.42-5.37-4.08-11.08-6.09-16.66l-13.78 6.72c.45 1.07 1.46 2.96 1.26 3.09-2.46 1.69-.19 2.9.43 4.45-.67.28-1.26.68-1.9.78-2.96.44-4.6-1.68-6.53-3.37-1.77-1.57-3.93-2.91-6.2-1.33-2.49 1.72-3.44 4.32-2.24 7.28.37.91 1.13 2.22 1.85 2.32 1.23.15 2.56-.5 3.84-.83l-.12-1.23-4.7-.89-.34-.71c1.02-.58 2.1-1.76 3.03-1.65 4.23.48 6.68 3.86 8.22 7.1 2.13 4.47-3.32 5.3-5.77 8.4h7.56c.15 1.07-.13 2.68.54 3.33 3.99 3.87 3.75 8.96 3.96 13.74.33 7.19.12 14.4.03 21.6-.03 3.08-.84 6.24-.32 9.2.55 3.14.35 5.89-1.35 8.44-1.69 2.53-3.39 5.15-5.54 7.27-3.26 3.24-6.91 6.08-10.54 9.2zm134.68 116.71c-4 3.09-7.53 5.64-10.84 8.45a6.5 6.5 0 0 0-2.04 3.7c-.82 5.33-1.41 10.7-1.98 16.06-.85 8-1.84 16-2.36 24.03-.5 7.68-.47 15.39-.68 23.08-.06 2.3-.6 4.73-.06 6.9 1.79 7.32 2.33 14.63.72 22.04-.67 3.07-.62 5.77 1.72 8.45 1.91 2.2 2.94 5.17 4.32 7.7 1.76-.77 3.69-1.74 5.7-2.46 1.99-.7 4.06-1.13 6.43-1.77-.43-3.47-.93-6.88-1.27-10.32-.81-7.98.55-12.4 7.86-14.49.76-.22 1.56-.26 2.44-.4-.07-.88-.04-1.61-.21-2.28-2.35-9.36-4.46-18.57-3.72-28.5.87-11.57.2-23.27.21-34.9q0-1.54.16-3.07 1.28-11.17 2.57-22.22zM489.55 996.07c-5.4-.6-9.78-.93-14.08-1.68-1.1-.19-2.65-1.6-2.84-2.66a123 123 0 0 1-1.9-15.16c-.45-9.1.15-18.16 2.22-27.1.2-.85-.45-2.28-1.18-2.9-2-1.74-4.31-3.13-6.39-4.8-2.24-1.8-3.62-4.07-3.4-7.15.58-8.34 4.76-14.95 10.13-20.94.63-.7 2.07-.68 3.67-1.15-1.95 5.06-3.72 9.4-5.3 13.8-2.9 8.07-2.11 10.8 4.16 15 7.02-6.82 14.47-3.9 21.8-.48 1.53-3.92 1.37-4.04-1.64-5.75-3.6-2.04-7.27-4.04-10.5-6.59a18.2 18.2 0 0 1-6.83-10.96c-.64-3.23-1.45-6.42-2.19-9.63l-1.06-.21c-3.78 4.56-7.3 9.38-11.42 13.61-3.17 3.27-4.92 6.84-5.1 11.28a269 269 0 0 0-.19 8.65q-.07 8.62-.08 17.24c0 8.34.06 16.68.01 25.02-.02 5.21-1.48 10.36.15 15.66 1.28 4.15 1.73 8.56 2.58 12.85.09.47.3.96.58 1.34 4.44 5.98 9.94 10.49 17.3 12.31 5.46 1.34 10.6.42 14.66-1.79-.6-6.33-1.06-11.98-1.68-17.61-.38-3.51-1-7-1.48-10.2m99.89 14.63-.66-.04c0 3.43-.04 6.86.01 10.28.04 2.25.6 4.55.25 6.73-.7 4.48-3.53 6.27-8.84 6.46-5.21.18-10.5.09-15.63.95-7.47 1.26-12.8-1.11-15.2-8.27-.9-2.67-2.12-2.99-4.47-2.4l-3.5 25.46c20.54 6.24 40.34 6.73 59.56-3.38zm-52.9 37.85c1.14 6.47 2.26 12.94 3.45 19.4.06.36.61.67 1 .93 4.29 2.9 9.17 3.67 14.16 3.54 10.16-.28 20.34-.44 30.44-1.33 6.41-.56 12.73-2.26 19.03-3.67 2.1-.47 3.64-1.99 3.33-4.47-.32-2.6-.76-5.18-1.18-7.76-.19-1.18.22-2.77-2.1-2.18-1.08.27-2.7-.86-3.53-.39-6.88 3.84-14.35 5.33-22.05 6.3-11.41 1.45-22.4.22-32.96-4.39-1.86-.81-3.75-3.09-5.28-2.81-3.27.61-3.3-1.32-4.3-3.17zM516.5 77.92c.23.15.35.27.4.25.65-.26 1.28-.57 1.94-.8 11.78-4.33 23.28-9.81 36.49-7.78 6.3.98 12.52 2.37 17.5 6.34 2.77 2.2 4.66 1.38 7.06.26 3.68-1.7 7.36-3.45 11.1-5.04 1.16-.5 2.52-.55 3.63-.78l-1.88-8.1c-5.18-.73-8.26-4.61-11.7-8.3l-.57 2-.33-.04V51.5a21 21 0 0 0-1.24 6.11c-.3 5.34-1.26 6.24-6.53 5.86-2.41-.18-3.36-1.28-2.95-3.77.38-2.25.38-4.56.56-6.84-1.97 2.55-3.31 5.16-4.82 7.66-.37.61-1.32.88-2.01 1.3-.33-.7-.91-1.37-.94-2.07-.11-2.73-.05-5.46-.05-7.73-1.2 2.74-2.52 6.1-4.15 9.32-.57 1.11-1.78 2.35-2.91 2.62-1.82.43-3.83.11-6.17.11l5.08-9.87c-3.93 3.05-4.32 8.26-9.53 9.61l3.67-8.35c-2.57 2.37-5.4 5.26-8.53 7.8-3.15 2.58-6.55 4.9-10.97 5.21l7.46-8.88a80 80 0 0 0-10.3 4.78 5 5 0 0 0-1.96 2.4c-1.74 4.18-2.93 8.7-7.36 11.14zm129.3 364.39c-.06 1.02-.17 1.85-.13 2.67.2 4.71.54 9.41.6 14.12.04 2.75-.45 5.5-.52 8.25-.03.8.32 1.93.9 2.37.73.56 2.44 1.04 2.73.7.68-.81.78-2.11 1.31-3.89l8.89 2.4c-1.6-13 3.03-24.52 4.37-36.46-1.91-.53-3.92-.92-5.77-1.68-.91-.37-2.11-1.38-2.2-2.22a274 274 0 0 1-1.55-18.42c-.21-4.91 2.55-9.72 7.76-10.46l.63-6.24c-.76-.21-1.46-.63-2.11-.57-3.38.32-7.7-2.67-9.73 2.66-.08.23-.65.3-1 .4-2.09.66-4.27 1.1-6.23 2.03-.83.4-1.74 1.86-1.65 2.74.46 4.54 1.24 9.06 1.97 13.98l1.31-4.54c3.18-1.05 4.68.55 5.18 3.2.4 2.08.54 4.25.45 6.36-.22 4.99-.66 9.96-.95 14.94-.02.47.39.98.63 1.45.6 1.14 1.69 2.24 1.73 3.38q.3 7.88.03 15.76c-.1 3.06-.74 6.1-1.14 9.14l-1.28-.08c0-3.87.5-7.83-.15-11.58-.6-3.5 1.48-8.14-4.09-10.43zM537.66 76.55c1.99 5.8 3.76 11.53 5.92 17.1 1.47 3.8 4.17 6.6 8.54 6.92 2.4.18 4.83-.17 7.2.07 3.68.38 5.47-1.59 6.54-4.67 1.77-5.01 3.5-10.03 5.18-14.83-10.71-5.03-21.56-8.99-33.39-4.59zm-46.11 886.43 1.33-8.37H475.7c5.38-4.27 11.6-2.75 17.62-2.8l1.9-6c-.8-.66-1.55-1.07-2-1.7-1.95-2.7-4.92-2.9-7.65-2.55-2.17.28-4.36 1.5-3.61 4.65.13.55-.6 1.82-1.09 1.9-1.85.32-3.75.3-6.47.45-.2 10.8-.54 21.85-.47 32.9.02 2.7-.4 6.25 3.28 7.57 3.9 1.4 7.84 2.7 11.77 4.04v-7.24c-4.1.19-7.96.12-11.17-3.3 3.77-2.52 7.67.25 11.13-.58v-4.3h-12.57c-.42-4.36 1.22-4.77 5.09-5.33 3.05-.43 6.22-.09 9.51-.09v-6.72c-.5-.03-1-.12-1.5-.07-3.75.38-7.5.87-11.25 1.13-.95.07-1.96-.57-2.94-.88.75-.7 1.38-1.63 2.26-2.04a8 8 0 0 1 3.3-.64c3.47-.08 6.94-.04 10.71-.04zm89.79-879.21c2.52 3.17 5.4 6.74 8.2 10.37.52.68 1.04 1.6 1.04 2.42.02 2.52 1.62 3.66 3.62 3.33 2.74-.45 5.64-1.19 7.96-2.62 4.65-2.89 6-8.23 8.17-12.84 1.06-2.23 1.51-4.8 1.92-7.26.35-2.18-.63-3.6-3.13-3.17-5.45.97-10.87 2.14-16.35 2.94-4.49.66-8.78 1.4-11.43 6.83m46.92 341.88v14.82l2.17-1.7-1.84-12.27c2.97-.24 3.62 1.03 3.52 3.26-.14 2.81-.03 5.63-.03 8.67l13.79-1.13-.71-15.47-16.9 3.8zM419 349.45l5.45-.24c-2.29 2.35-3.86 3.98-5.54 5.72l4.06 1.07-3.63 2.94c.08.2.5.76.47 1.3-.15 3.09 3.08 2.76 3.8 2.4 1.7-.85 4.01-2.65 4.12-4.2.6-8.31.6-16.66.8-25.02-3.44-.36-7.67 4.76-8.44 10.93l3.94-1.41zm119.4 218.4-1.42.22c2.69 25.86 7.77 51.36 12.15 76.96l.83-.13zm92.61-123.32 10.51 18.78.6-.18-1.13-19.4zM516.58 17.72c-.93-.22-1.86-.59-2.8-.61-5.92-.17-10.98 2.4-15.57 5.66-8.64 6.12-15.35 14.16-21.3 22.84-1.64 2.38-3.1 4.9-4.03 6.38 5.81-6.5 11.89-14.2 18.92-20.9 6.86-6.52 14.38-12.63 24.77-13.37zm-80.64 312.53-.56-.1c-.57.98-1.56 1.94-1.62 2.95-.24 4.15.18 8.36-.34 12.47a195 195 0 0 1-3.32 18.49c-.45 2-1.9 3.69-4.55 3.87-2.48.18-4.93.96-7.39 1.47.07 2.32 1.6 3.97 3.22 3.37 6.66-2.45 11.04-6.93 12.12-14.16.86-5.72 1.82-11.44 2.37-17.2.36-3.69.07-7.44.07-11.17zm95.6 208.38-.8-.74c-.58.35-1.32.57-1.73 1.06-1.06 1.26-2.15 2.54-2.9 3.98q-7.64 14.52-15.14 29.11c-.22.45-.03 1.12-.03 1.7l.75.16zm-71.45-27.74 1.15.43 11.06-28.5-1.56-.58zm19.92-455.66 10.94-16.35c-5.18.85-10.83 8.98-10.94 16.35m30.86 398.32-1.22.27 8.06 35.2.96-.21zm35.68-438.11c-3.75-3-8.26-3.68-12.95-2.06l6.94 2.18c-.04 2.43.47 4.28 3.83 3.9l-.63-2.63zm49.93 443.84-1.05.7 15.47 24.85.76-.48zm6.98-407.88c1.3-6.7-1.58-16.54-5.02-17.81zm-58.45 467.42-.56-.65c-3.92.83-7.86 1.6-11.75 2.55-.69.17-1.19 1.1-1.78 1.7.77.23 1.61.81 2.28.64 3.54-.9 7.04-1.97 10.52-3.07.5-.16.87-.76 1.3-1.17zM438.63 135.15l7.68-13.37c-3.81.1-7.96 7.01-7.68 13.37m71.43-30.12.52-.83c-.88-.94-1.6-2.4-2.68-2.74-2.58-.83-5.98.96-7.31 3.57zm14.44-50.1.59.85 15.32-10.7-.53-.75zM500 92.3c.82-.72 1.72-1.36 2.4-2.18.6-.72.94-1.65 1.4-2.5-1.11 0-2.37-.36-3.3.05-2.55 1.15-2.61 2.69-.5 4.63m-41.2-10.67h-.06v18.76l1.06-.03zM586.15 46.5c1.78 4.72 3.84 9.34 8.25 12.34zM568 11.12c-5.46-.75-10.92 1.16-11.54 3.8zm-65.9 105.77-.84.48 6.83 13.76.78-.4zm-11.9-72.4-.91-.6-3.32 4.7q4.7-.58 4.24-4.1zm-61.9 282.69.15-1.05-9.02-1.17c2.75 2.16 5.62 3.45 8.86 2.22m174.59-219.9-.74 1.07 9.73 6.56.55-.8zM496.5 95.73l.45 4.93 3.52-1.7-.86-3.24zm33.6-19.62c-.05-.06-.3-.55-.38-.52-1.7.64-3.4 1.31-5.05 2.1-.12.05.02 1.25.36 1.5.32.26 1.2.16 1.58-.12 1.14-.82 2.14-1.8 3.47-2.96z"/><path fill="#000" d="m458.84 808.61 10.46 75.78c-7.26-2.14-14.7-2.93-20.93-7.43-2.77-2-6.16-3.23-8.72-5.44-2.97-2.56-5.4-5.77-7.92-8.8-.36-.42-.2-1.55.1-2.2a327 327 0 0 1 5.4-11.41 48 48 0 0 1 3.63-6.23c.23-.34 2-.12 2.58.4 3.18 2.81 6.19 5.82 9.3 8.72.54.5 1.31.74 2.39.6-2.4-2.84-4.86-5.63-7.14-8.57-.64-.81-1.27-2.26-.98-3.09 3.6-10.22 7.36-20.38 11.08-30.56zm49.84-527.25-4.37-20.79c-6.38 2.14-13.3 4.45-20.22 6.8-1.34.44-2.6 1.37-3.94 1.52-4.44.47-6.83 3.99-10.03 6.32-1.3.96-2.66 1.86-3.83 2.67 1.5-3.34 2.67-6.99 4.74-10.02 1-1.47 3.63-2.1 5.64-2.59 8.93-2.2 17.93-4.17 26.87-6.4a5 5 0 0 0 2.9-2.57 40 40 0 0 1 11.4-15.32c4.54-3.77 8.44-8.48 13.39-11.56a61.6 61.6 0 0 1 26.38-8.87c14.24-1.48 29.41 7.68 35 21.18 3.11 7.47 6.63 14.77 9.72 22.25a18 18 0 0 1 .79 11.69c-.78 2.97-.82 6.14-1.67 9.09-.48 1.66-1.77 3.18-2.95 4.55-9.52 11.15-21.07 19.04-35.9 20.88-8.99 1.12-17.56-.89-25.9-4.6s-15.9-8.3-22.5-14.54c-.27-.25-.48-.56-.37-1.38 3.09 1.74 6.42 3.16 9.2 5.3 6.17 4.73 13.26 7.48 20.3 10.4 15.02 6.22 28.93 3.5 41.46-5.92 5.8-4.35 11.15-9.57 13.97-16.78 4.06-10.4 1.46-19.91-3.26-29.23-2.03-4-4.09-8.01-6.46-11.82-5.58-8.95-13.53-14.76-24.12-15.95-5.04-.57-10.25.22-16.03.42 1.05 1.72 1.52 2.56 2.05 3.35 2.5 3.73 2.67 7.6.5 10.8a10.4 10.4 0 0 1-11.06 4.22c-5.25-1.29-9.54-4.09-13.27-8.74-3.19 3.22-5.82 6.75-9.26 9.16-4.27 3-5.35 7.4-7.4 12.57l8.48-.9.1.36c-1.88.55-3.72 1.3-5.64 1.6-3.15.5-4.14 2.58-3.72 5.2.88 5.45 2.05 10.85 3.3 16.22.13.58 1.5 1.02 2.36 1.24 1.08.28 2.24.27 3.37.78-14.43 1.58-29.13 1.89-40.91 12.3 6.6-5.82 12.64-12.48 22.56-11.9 2.78.16 5.63-.66 8.33-1.02zm25.03-49.18c4.92 3.5 8.3 8.4 14.68 7.42 1.05-4.98-2.94-7.47-4.42-11.2z"/><path fill="#000" d="M547.93 285.09c-1.11 2.13-2.34 4.8-3.85 7.32-1.5 2.5-3.6 4.54-6.68 4.87-5.3.58-9.21-4.18-8.78-10.14a14 14 0 0 1 4.35-9.28c-1.03-.77-2.3-1.29-2.8-2.22-.4-.76-.16-2.2.33-3 3.31-5.38 8.59-5.85 11.8-1.17l-4 1.94c5.3 5.02 11.04 8.65 17.83 9.5 5.9.73 12.18 1.13 17.91-.08 6.53-1.38 12.91-4.27 16.71-10.64.5-.84 1.83-1.2 2.77-1.77.44 1.27 1.39 2.6 1.25 3.8-.47 4.08-3.3 6.8-6.53 8.78-8.1 4.98-16.93 6.88-26.36 5.16-4.56-.83-9.06-1.99-13.94-3.07zm-5.45-1.8-.38-1.04c-1.09.39-2.35.57-3.2 1.25-.55.45-.5 1.64-.9 3.29zm68.37 42.96c-1.46.23-2.94.74-4.39.65q-28.13-1.46-56.25-3.07c-5.32-.3-10.69-.45-15.94-1.25-8.58-1.32-16.65.67-24.76 2.88q-9.68 2.62-19.37 5.21l-.54-.74c.99-.72 1.87-1.76 2.98-2.1 8.5-2.62 17.03-5.1 25.56-7.62 7.28-2.14 14.55-.92 21.86-.08 4.38.5 8.82.52 13.23.7 10.77.43 21.56.57 32.3 1.33 8.4.6 16.77 1.97 25.15 3zm-157.33-88.91c2.02-5.55 6.52-7.64 10.77-9.21 9-3.33 18.25-6.02 27.45-8.78 12.71-3.82 25.83-2.85 38.86-3.14 6.72-.14 13.44-1.12 20.12-2.08 15.35-2.23 30.58-2.76 45.56 2.28.46.15.86.48 1.16 1.1-3.74-.68-7.46-1.72-11.24-1.96-7.02-.46-14.07-.78-21.1-.54-6.81.23-13.6 1.4-20.41 1.85-9.1.6-18.3.28-27.31 1.46-10.22 1.35-20.26 4.01-30.4 5.94-9.56 1.82-18.58 5.11-27.29 9.34-1.98.96-3.78 2.28-6.16 3.75zm-40.06 45.89c5.12 1.08 10.35 1.8 15.34 3.33 9.85 3 19.56 6.46 29.34 9.71.76.26 1.54.46 2.37 1.38-1.57.1-3.23.57-4.69.2-12.62-3.19-25.2-6.55-37.8-9.81-2.6-.68-3.75-2.55-4.46-4.89zm68.25 85.13c4.57-.59 9.12-1.4 13.72-1.71 13.41-.89 26.82-1.88 40.25-2.2 9.44-.24 18.93.15 28.33 1.03 10 .93 19.93 2.6 29.83 4.31 3.8.66 7.44 2.27 11.06 3.93-40.67-11.66-81.85-8.09-123.03-4.42zm-45.06-153c24.04-11.03 49.64-14.11 75.66-15.13l.34 1.5c-2.34.52-4.67 1.3-7.04 1.49-3.38.26-6.8.21-10.2.04-10.28-.52-20.07 1.8-29.77 4.81a3161 3161 0 0 1-25.78 7.86c-.98.3-2.06.22-3.1.3zm79.48 23.82c-18.9 3.23-37.68 6.72-55.78 13.2a130.4 130.4 0 0 1 55.78-13.2m71.93-39.04c16.73-1.81 31.08 5.36 45.14 13.5-7.39-2.63-14.69-5.55-22.2-7.8-7.54-2.25-15.28-3.83-22.95-5.7zM529.72 342.2c.92-.12 1.84-.34 2.76-.34 16.36-.02 32.73-.34 49.08.13 7.83.22 15.6 1.93 23.34 3.55-24.94-3.75-50.07-2.1-75.1-2.47zm49.4-74.29c-.75-1.79-1.72-3.52-2.23-5.38a577 577 0 0 1-4.76-18.52c-.16-.66.52-1.51.81-2.28.66.53 1.62.92 1.93 1.6a64 64 0 0 1 5.33 24.15zm-1.55 120.48c-1.09 0-2.23.24-3.25-.03-12.01-3.2-23.97-6.6-36.03-9.61-3.65-.91-7.56-.79-12.05-1.2 1.16-.46 1.86-.9 2.62-1.04 6.55-1.27 12.52 1.46 18.6 2.98 8.04 2 15.9 4.62 23.89 6.82 2 .55 4.16.5 6.25.73zM424.6 265.8c9.62-.87 18.55 2.25 27.64 4.47-9.47.08-18.85-.36-27.64-4.47m108.69 133.05c11.86-.79 23.33 2.33 35.62 3.07-3.45 1.8-30.88-.63-35.62-3.07m45.34-9.11.43-2.05c4.94.83 9.75 1.48 14.48 2.47 4.63.96 9.58 1.14 14.03 5zm-94.73-41.07c5.54 0 11.08.1 16.6-.07 1.36-.05 2.71-.96 4-1.6 3.6-1.8 7.14-3.68 10.7-5.51l.4.68c-2.98 2.52-5.78 5.33-9.02 7.44-1.52.99-3.92.93-5.9.84-5.58-.26-11.14-.78-16.7-1.2l-.06-.58zm-5.51 41.2 37.7-3.93c-.65 1.16-.85 1.93-1.12 1.95q-18.23 1.66-36.47 3.23zm13.63 20.09-24.48 2.3c2.96-4.08 21.02-6 24.48-2.3m-44.51-32.65c1.18 4.17-4.28 5.77-12.4 5.25.56-3.6 6.83-6.25 12.4-5.25m91.36-120.7c.57-1.7.94-3.52 1.8-5.04.4-.7 1.8-1.14 2.73-1.11.5.01 1.2 1.19 1.41 1.95.9 3.3-1.27 5.56-3.05 7.85-.18.23-1.94-.26-2.34-.85-.45-.63-.18-1.77-.22-2.69zm53.07 46.23c.08-2.63 1.7-2.6 3.27-2.3 6.3 1.23 12.58 2.55 18.86 3.84l-.13 1.05zm62.84-25.2c-6.44 6.27-14.53 8.35-23.11 9.22zm-132.14 26.4c-6.86.82-13.99.44-20.15 4.35 5.54-6.69 12.75-5.97 20.15-4.36m46.85-52.53 6.23 12.99-1.52.74-6.32-13 1.61-.72zm43.24-28.94c2.44-2.47 4.38-1.71 6.18-.32.42.34.78 1.34.57 1.76-.22.46-1.24.96-1.7.8-1.66-.57-3.24-1.4-5.06-2.24zm-20.18 187.77 14.33 1-.1 1.35c-4.81.13-9.5-1.28-14.23-2.35m-163.9-163.04 11.25 3.68-.23.79-11.51-3.07zm186.54 9.1-10.23-.66.04-.6h10.27zm-5.53 20.31 9.14 1.02-.14 1.23-9.14-.97zm-27.96-17.43c-.28-1.46-.67-2.91-.8-4.4-.06-.53.5-1.13.8-1.7.55.5 1.6.99 1.6 1.48-.02 1.58-.41 3.16-.66 4.73zm21.72-22.04h-9.05v-.62h8.97zm-18.3-121.82c-4.07 3.07-8.02 3.3-10.18.13l10.1-1.24zm51.78 263.14c-3.13 2.52-6.58 1.84-10.07.62l9.94-1.58zm10.76 19.7v10.24c-2.17-5.3-2.2-6.9 0-10.25M559.87 83.66c.2 1.26.68 2.26.39 2.92-.64 1.44-1.66 2.71-2.6 3.99-.03.04-1.47-.61-1.5-1-.18-1.8-1.1-3.96 1.46-4.99zm36.73 14.3c-.96-5.45-1.96-10.73-2.8-16.03-.34-2.12-.43-4.27 2.6-4.74.82-.13 1.55-.84 2.01-1.1 4.56 1.72 2.79 5.98 3.98 9.05.57 1.48.97 3.04 1.68 4.45 1.07 2.13.52 4.31-1.56 5.37zm-6.8-15.9a6.4 6.4 0 0 1 0 8.33c-2.19-3.68-2.22-5.64 0-8.34m51.31 347.07-1.9 5.87c-2.36-3.92-1.93-5.6 1.9-5.87"/></svg>