<svg xmlns="http://www.w3.org/2000/svg" width="1080" height="1080" fill="none" viewBox="0 0 1080 1080"><path fill="#fff" d="M329.73 866.57c7.3-15.92 8.65-32.61 10.11-49.61-6.9.13-12.24-2.63-17.65-5.4-3.53-1.8-7.53-2.7-11.08-4.46-6.66-3.31-12.93-7.09-17.93-12.95-2.69-3.14-6.73-5.17-10.29-7.51-5.78-3.81-9.14-9.51-9.33-15.95-.28-8.84 1.04-17.72 1.69-26.58.08-1.22.37-2.43.4-3.65.22-8.34.38-16.68.6-25.02.16-6.2.63-12.4.53-18.6-.12-7.25-.77-14.5-1.06-21.74-.3-7.7-.67-15.4-.64-23.1.04-13.14-.12-26.33.74-39.43.72-11.05.46-22-.02-33.03-.28-6.18.86-12.42 1.08-18.64.09-2.36-.59-4.74-.95-7.34-13.22 9.55-28.63 12.48-42.44 18.97-6.16 2.89-11.7 7.23-17.18 11.38-7.82 5.93-15.62 11.7-24.8 15.53-3.17 1.32-5.66 4.27-8.45 6.5q-2.47 1.96-4.93 3.99c1.65 3.72.56 7.52-3.04 10.54-7.77 6.52-17 10.53-25.94 15.02-3.4 1.7-7.76-.43-9.8-4.79-2.24-4.79-3.93-9.84-6.1-14.67a25 25 0 0 0-3.95-6.36 76 76 0 0 0-17.24-14.08c-4.23-2.56-7.7-6.44-11.28-9.98-3.15-3.13-6.68-6.2-8.75-10a110 110 0 0 1-8.73-20.1c-3.6-11.7-6.3-23.7-9.43-35.56-.71-2.7-1.82-5.3-2.46-8.02-1.9-7.98 2.04-13.6 7.92-18.13 1.6-1.24 4-2.28 5.92-2.08 2.96.3 5.08 2.62 6.57 5.26a73 73 0 0 0 13.5 17.54c4.73 4.47 9.19 9.26 13.52 14.12 5.78 6.49 13.45 9.26 21.42 11.6a54 54 0 0 1 7.05 2.65c3.19 1.46 4.02 3.33 3.26 6.67-.36 1.58-.85 3.11-1.15 4.69-.39 2.07.96 3.12 2.6 2.52 6.17-2.23 12.34.2 18.5-.27 2.4-.19 4.7.26 6.72-1.6a4.4 4.4 0 0 1 3.02-1c7.95.65 15.2-2.14 22.65-4.18 10.36-2.83 18.85-8.72 27.15-15.17a2256 2256 0 0 1 33.18-25.27c11.68-8.73 23.68-17.06 35.2-26a512 512 0 0 0 27.97-23.38c8.37-7.5 17.39-14 27.06-19.62 5.3-3.08 10.91-5.6 16.4-8.38-5.68 0-11.54.14-17.39-.03a38 38 0 0 1-17.85-4.97c-.9-.51-1.97-1.84-1.92-2.74.21-3.87.82-7.73 1.36-12.26-2.01-2.08-4.84-4.96-7.63-7.88-3.43-3.6-4.32-8.15-5.07-12.87-.3-1.9-1.54-4.2-3.08-5.23-4.9-3.25-7.38-8.07-8.97-13.27-3.36-11.06-9.3-20.49-16.98-28.95-9.11-10.04-15.77-21.58-20.88-34.07-1.98-4.84-4.1-9.63-5.86-14.55-.63-1.74-.64-3.81-.5-5.7.15-2.02 1.19-3.27 3.28-4.48 5.42-3.15 9.9-2.96 14.7 1.16 9.82 8.45 19.88 16.62 30.08 25.1 3.85-3.87 8.3-8.4 12.8-12.87 8.16-8.14 17.62-14.62 27.02-21.17 6.95-4.84 13.82-9.82 21-14.33 5.4-3.39 11.2-6.13 16.85-9.14 6.34-3.39 12.51-7.2 19.12-9.97 4.68-1.96 9.94-2.59 14.98-3.62a329 329 0 0 1 14.31-2.47c2.56-.4 4.1 2.07 4.44 4.65.38 2.94-.8 6.86 3.54 8.41.83.3 1.48 1.89 1.67 2.97a295 295 0 0 1 2.39 15.96c.18 1.53-.43 3.15-.7 4.91 29.18 43.02 58.77 86.1 89.54 129.2 4.27-10.59 8.83-19.9 9.81-30.51.58-6.3 2.22-12.52 3.2-18.8.7-4.6 1.36-9.26 1.6-13.92.26-5.39-.24-10.82.12-16.2.53-8.02 1.73-15.98 2.25-24 .38-5.75-.02-11.55.2-17.32.19-4.63.83-9.25 1.19-13.88.66-8.37.66-16.85 2.07-25.1 1-5.82 3.77-11.35 5.91-16.96 1.61-4.21 3.28-8.42 5.28-12.46 3.82-7.73 10.72-11.23 18.64-13.64 4.24-1.28 7.87-.54 12 1.4 1.13-2.49 2.2-4.82 3.25-7.17 6.3-14.15 16.26-25.23 28.3-34.75 9.63-7.6 20-13.99 31.51-17.92 8.9-3.03 18.36-4.43 27.6-6.4a52 52 0 0 1 17.6-.74 48 48 0 0 1 25.05 10.85c9.69 7.95 17.62 17.26 24.82 27.65 1.62-3.37 4.74-4.23 7.81-4.95a652 652 0 0 1 20.93-4.58 756 756 0 0 1 22.32-4.1 475 475 0 0 1 19.8-3c3.76-.47 7.57-.5 11.36-.66 6.16-.26 12.32-.61 18.48-.65 4.64-.03 9.28.29 13.91.58 5.45.34 10.96.41 16.32 1.37 3.68.65 7.15 2.55 10.67 4 4.62 1.9 9.19 3.9 13.77 5.87 3.81 1.65 7 4.09 9.12 7.7 2 3.38 3.78 6.9 5.78 10.28 2.45 4.13 1.96 8.5 1.48 12.94-.38 3.61-.5 7.25-.77 11.35 2.3-1.1 3.93-2.16 5.71-2.7 4.44-1.38 8.9-2.85 13.46-3.7 4.8-.88 8.94 1.03 12.51 4.33 2.3 2.13 3.99 4.7 7.84 5.28 2.6.38 4.73 3.63 7.13 5.52 5.07 4.03 10.26 7.91 15.25 12.04 2.25 1.85 4.65 3.85 6.07 6.3 3.1 5.37 8.6 9.24 9.79 15.78a90 90 0 0 0 1.75 7.95c.75 2.68-.91 3.43-3.23 4.76-1.39 16.11-6.74 32.08-10.67 48.37-2.91 12.06-5.23 24.27-7.82 36.4-.97 4.5-1.86 9.04-3.02 13.5-.34 1.35-1.37 2.55-2.24 3.7-.3.4-1.07.44-2.18.84 0 6.55-.03 13.8.1 21.05 0 .48 1.24 1.32 1.9 1.32 4.52-.03 6.58 2.76 5.01 6.95-.54 1.43-1 2.9-1.6 4.69 3.25 4.7 5.4 10.4 5.1 16.78-.54 11.34-.7 22.73-2 34-1.1 9.68-3.63 19.2-5.4 28.81a816 816 0 0 0-4.31 25.36c-1.55 10.25-3.9 20.21-8.02 29.79-3.42 7.96-6.28 16.16-9.36 24.27-2.16 5.71-6.02 9.95-11.02 13.4-4.36 3-8.42 6.45-12.7 9.59-.73.53-1.9.74-2.82.67-2.16-.17-3.85.02-5.09 2.26-5.37 9.67-7.69 20.28-9.1 31.02-1.53 11.7-1.96 23.53-3.33 35.25-.87 7.5-2.42 14.94-3.93 22.34-2.24 10.97-4.7 21.88-7.09 32.8-1.76 8.07-3.72 16.08-5.26 24.18a167 167 0 0 0-2.12 16.57c-.9 10.46-1.6 20.93-2.34 31.4-.29 4.08-.3 8.18-.72 12.25a21 21 0 0 1-1.66 6.42c-1.05 2.3-2.46 3.85-5.8 3.86-5.86.02-11.7 1.21-17.55 1.9-6.76.8-13.51 1.65-20.3 2.35-7.34.75-14.77 1-22.07 2.1-11.1 1.67-22.1 3.96-33.16 5.8-2.68.45-5.5.06-8.22.3-9.6.82-19.2 1.55-28.76 2.7-8.73 1.04-17.37 3.1-26.11 3.75-9.74.72-19.57.31-29.35.43-7.5.1-15 .02-22.49.4-12.21.63-24.42 1.57-36.63 2.4-8.84.6-17.68 1.7-26.52 1.68-5.7-.01-11.47-1.43-17.12-2.62a59 59 0 0 1-11.8-3.7c-2.1-.93-3.84-2.97-5.35-4.83-1.8-2.22-3.67-2.86-6.27-1.69-9.02 4.08-18.18 5-27.66 1.45-2.51-.94-5.33-1.24-8.03-1.4-11.6-.71-23.22-1.07-34.8-1.94-6.81-.51-13.57-1.82-20.37-2.63-1.74-.21-3.56.27-5.33.17-5.17-.31-10.33-.87-15.51-1.12-3.91-.2-7.86.13-11.76-.15-9.22-.65-18.42-1.6-27.64-2.27-5.64-.41-11.3-.39-16.95-.78a690 690 0 0 1-20.77-1.83c-.66-.06-1.57-.62-1.83-1.2-1.2-2.68-2.98-2.66-5.4-1.7-1.67.65-3.61.61-5.37 1.1-4.96 1.36-7.72 6.67-6.94 11.74 1.5 9.7 2.79 19.47 3.75 29.25.76 7.73.76 15.54 1.36 23.3.27 3.4 1.1 6.77 1.86 10.11.15.67 1.2 1.67 1.72 1.6 2.76-.35 3.46 1.68 3.67 3.46.26 2.28-.17 4.65-.35 6.99-.23 2.98-.67 5.96-.74 8.94-.11 5.93-.03 11.86-.03 17.79 0 .71 0 1.45.16 2.13 1.58 7.3-.1 8.89-7.5 9.63-4.48.45-9.03.28-13.51.71-4 .38-8.13.7-11.93 1.93-7.4 2.38-14.83 2.55-22.45 2.03-9.2-.61-17.86 1.55-26.55 4.77a187 187 0 0 1-29.86 8.31c-8.4 1.6-15.97-2.18-22.83-7.05-3.62-2.57-5.52-4.97-5.23-10.4.35-6.67 3.71-10.05 8.21-13.13 2.22-1.52 5.16-2.22 7.87-2.74 6.09-1.16 10.9-4.8 15.64-8.21a487 487 0 0 0 28.2-21.94c4.12-3.45 7.45-7.9 10.92-12.09 4.09-4.95 8.93-5.85 14.64-3.43.74.3 1.52.5 2.46.79zm105.71-421.16-1.19-.43.58.87c2.03 1.65 4.08 3.27 6.08 4.96 5.89 4.98 11.72 10.04 17.63 15 5.64 4.73 11.55 9.15 16.98 14.11 9 8.22 16.14 17.93 21.78 28.76.82 1.58 1.93 3.02 2.92 4.52.9-2.84 1.85-5.58 1.21-7.88a91 91 0 0 0-5.76-15.73c-4.74-9.67-13.45-15.55-22.15-21.12-9.18-5.87-18.71-11.17-28.07-16.76-3.38-2.02-6.67-4.2-10.01-6.3"/><path fill="#000" d="M961.15 331.94c.46-1.61-1.03-.87-1.52-1.12a67 67 0 0 0-9.74-4.2c-3.46-1.1-2.59-2.74-2.12-5.03 2-9.84 3.52-19.79 6.91-29.3a23 23 0 0 1 1.7-3.56c.87-1.51 1.61-2.55 3.32-.44 1.1 1.38 3.37.79 5.1 1.23 8.96 2.27 17.75 4.8 25.63 9.98 2.66 1.75 3.16 3.9 2.44 6.2-2.62 8.37-3.9 17.23-8.9 24.74-.39.59-.23 1.16-.25 1.77-.1 2.02-1.27 2.69-3.2 2.65a51 51 0 0 1-11.9-1.58c-1.72-.45-2.13-.15-2.43 1.4a4.6 4.6 0 0 1-1.19 2.13c-1.07 1.13-.6 1.85.3 2.78 2.74 2.8 4.5 5.9 2.16 9.82-.4.67.06 1.08.45 1.18 7.03 1.88 10.15 7.75 13.67 13.24.16.24.48.38.92.7 1.37-3.52 1.71-7.19 2.43-10.75a683 683 0 0 1 11.48-48.24c3.5-12.59 6.71-25.27 9.08-38.14.5-2.7 1.42-5.34 2.1-8.01.43-1.68 1.66-2.42 3.17-2.32 1.41.1 1.71 1.43 2.07 2.66 1.45 5.04.34 10.07-.33 15-3.29 24.18-10.03 47.65-15.05 71.48-2.68 12.67-5.05 25.4-7.5 38.11-.22 1.08-.74 2.58 1.1 2.93 3.54.69 3.03 3.33 2.32 5.5-.76 2.35-1.06 5-2.82 6.95-.69.75-.14 1.04.26 1.45 7.45 7.74 9.68 17.1 9.22 27.58a506 506 0 0 1-5.88 56.25c-2.7 17.12-7.26 33.76-12.85 50.16-3.27 9.58-5.94 19.36-9.31 28.91a34.6 34.6 0 0 1-12.43 16.68c-.88.65-1.9 1.15-3.14.93-3.44-.63-5.33.23-6.64 3.4-1.06 2.56-3.26 3.04-5.42 3.25-3.52.33-6.14 2.07-6.89 5.36-5.23 23.06-10.63 46.07-15.56 69.2a1569 1569 0 0 0-10.45 53.7c-2.1 11.87-3.5 23.87-5.14 35.83-1.26 9.2-3.51 18.18-5.71 27.19-.88 3.6 1.21 7.14.89 10.85-.24 2.74.17 5.55-.8 8.2-.35.96-.7 2.19-1.45 2.65-3.4 2.06-5.37 6.23-9.79 6.74-2.14.25-1.53 1.86-1.59 3.03-.27 5.64-.35 11.29-2.5 16.67-.5 1.28-1.27 2.31-2 3.42-1.68 2.57-1.07 3.78 1.94 4.35q4.17.8 8.26 2c1.03.29 2.27.81 2.14 2.23-.12 1.2-1.16 1.6-2.2 1.85-2.88.7-5.73 1.41-8.78 1.35-7.2-.13-14.43.1-21.64-.07a198 198 0 0 1-22.05-1.89c-.6-.08-1.17-.36-1.76-.55-1.35-.44-2.62-1.26-2.67-2.65-.04-1.14 1.34-1.7 2.33-2.22 3.58-1.91 7.55-2.52 11.48-3.11 1.55-.24 1.63-.83 1.28-2a47 47 0 0 1-1.73-15.2c.07-1.85-.66-2.3-2.34-2.07-15.54 2.05-31.07 4.19-46.63 6.03-10.99 1.3-22.03 2.26-33.06 3.22a6423 6423 0 0 1-50.93 4.18c-9.82.77-19.66 1.37-29.5 2.02q-13.95.93-27.94 1.77c-1.21.07-1.77.46-2.07 1.72-2.55 10.82-3.68 21.88-5.6 32.8a59 59 0 0 1-2.09 8.3c-.56 1.72.02 1.96 1.48 1.89 3.6-.16 7.13.4 10.6 1.26 1.06.26 2.63.49 2.6 1.7-.04 1.35-1.62 1.98-2.8 1.9-3.01-.19-5.9.77-8.89.7-4.38-.1-8.44 1.04-12.59 2.46a31 31 0 0 1-15.12 1.4 2118 2118 0 0 1-25.63-4.52c-1.9-.34-3.79-.95-5.43-2.02-1.83-1.2-1.82-2.48.32-3.25a24.5 24.5 0 0 1 12.7-1.18c1.75.3 4 .97 5.05 0 1.08-1-.61-2.9-1.14-4.35-2.78-7.6-3.95-15.55-5.44-23.43-.92-4.82-2.21-9.7-1.67-14.55.34-3.05-.75-3.67-3.1-3.83-4.72-.31-8.1-3.32-11.76-5.77-.89-.6-1.67-1.1-2.8-.99-12.19 1.24-24.3.76-36.44-1.12-10.76-1.66-21.55-3.23-32.46-3.9a567 567 0 0 1-27.84-2.45 539 539 0 0 0-56.86-3.15c-8.74-.05-17.48-.68-26.2-1.19-2.73-.16-5.43-.8-8.14-1.18-.65-.08-1.36-.1-1.41-.86-.06-.7.59-1.14 1.19-1.24 2.12-.34 4.25-.79 6.39-.83 10.9-.25 21.8-.68 32.67-.48 16.88.3 33.72 1.3 50.5 3.31 15.23 1.84 30.53 3 45.8 4.53 9.61.97 19.12 2.95 28.81 3.33 5.86.23 11.7.8 17.57.26 1.4-.13 2.8-.37 4.34.8-5.46-11.6-5.13-23.57-5.2-35.47-.06-11.93-.7-23.9.18-35.77 1.62-22.11 1.91-44.23 1.6-66.37-.16-10.67-1.13-21.32-2.3-31.95a833 833 0 0 1-2.55-27.24c-.44-5.74-.27-5.5-6.03-5.83-5.26-.3-9.8 2.4-14.9 2.84-7.1.6-14.17 1.92-21.27 2.78q-13.1 1.57-26.22 2.91c-5.4.57-10.84.93-16.26 1.46-7.32.72-14.63 1.58-21.96 2.3q-11.35 1.09-22.71 2c-10.23.82-20.46 1.64-30.7 2.27-4.62.29-9.27.18-13.92.17-1.93 0-3.65-1.23-3.76-2.91-.1-1.57 1.83-2.28 3.41-2.57 7.56-1.39 15.21-1.83 22.85-2.48 2.35-.2 4.62-1.05 7.11-.86-14.14-3.82-24.62-13.61-36.02-22.15-1.82 12.91-3.49 25.47-5.38 37.98-1.96 13.04-2.56 26.13-2.53 39.3.08 26.43-.08 52.87.23 79.3.1 8.3 1.72 16.56 2.1 24.86.49 10.85 1.24 21.74-.85 32.54-.23 1.2-.13 2.46-.13 3.7-.01 4.38-2.93 8-7.25 8.3-1.83.13-1.48 1.07-1.38 1.95 1.3 12.64 2.72 25.27 3.82 37.92.3 3.43-.03 6.99 1.44 10.36.72-.8 1.82-2.01 3.02-1 1.51 1.3 2.92 2.97 2.76 5.15a372 372 0 0 1-1.48 15.3c-.89 7.6-1.89 15.17-2.85 22.88 1.4-.17 1.7-1.44 2.92-1.93.25.52.86 1.21.72 1.66-.9 2.87 1.01 3.56 3.03 4.46 2.6 1.17 5.1 2.6 7.65 3.89.98.48 1.81 1.12 1.75 2.28-.07 1.27-1.07 1.47-2.15 1.75-1.62.42-3.22.57-4.87.57-1.99 0-3.72.12-5.56 1.58-2.14 1.71-5.35 1.34-8.03 1.38-11.12.18-22.18 1.65-33.25 1.77-14.28.15-27.99 3.63-41.83 6.1-9.22 1.64-18.22 4.77-27.45 6.64-8.9 1.81-17.82 3.07-26.56-.76-6.36-2.78-11.27-7.08-13.5-13.87-.29-.84-.74-1.34-1.4-1.38-3.78-.2-4.04-3.08-4.17-5.7-.18-3.47.85-6.64 3.2-9.36 4.69-5.44 10.64-8.98 17.3-11.2 15.58-5.16 27.62-15.26 38.77-26.8 5.3-5.47 10.5-11.07 16.42-15.91 2.55-2.08 4.94-3.66 8.58-2.77 2 .49 3.7-2 5.9-2.02 3.23-.03 2.48-2.69 2.94-4.48 1.12-4.37 1.06-9.1 4.97-13.42-6.26 1.64-11.7 1.02-17.11 1.26-7.11.3-14.24-.06-21.19-1.98-1.4-.39-2.91-.99-2.7-2.33.23-1.4.9-2.9 3.04-3.3 5.05-.94 4.81-1.07 3.83-6.24a54 54 0 0 1-.96-10.7c.05-4.84.3-9.69-.46-14.5-.26-1.66.3-3.24.77-5.24 11.22 6.17 22.22 12.54 34 17.37-1.98-2.24-4.74-3.15-7.18-4.59-9.88-5.84-19.46-12.19-29.76-17.31-1.73-.86-2.6-2.43-3.73-3.92-4.12-5.42-4.87-11.12-2.93-17.59 2.34-7.8 3.93-15.8 6.86-23.43.65-1.7 1.14-3.5 3.05-4.35 1.02-.45.6-1.42.65-2.18.87-11.92.75-23.88.58-35.82a561 561 0 0 1 .75-33.07c.67-14.87 1.93-29.71 2.89-44.56q.76-11.7 1.31-23.4c.52-11.19 1.52-22.34 2.37-33.5.6-8 1.21-16 2.08-23.97.53-4.86 1.06-9.78 2.74-14.46.28-.79-.25-1.87-.55-3.72-.76 3.01-1.4 5.11-1.8 7.25-1.23 6.32-5.51 10.8-9.34 15.52-5.64 6.97-12.48 12.75-19.18 18.64-1.26 1.1-2.1 2.17-1.34 3.97.31.73.3 1.62.3 2.44 0 13.19.43 26.4-.66 39.55-2.4 28.86-2.84 57.77-2.28 86.68.28 14.74.72 29.47.2 44.18-.29 8.14.03 16.26-.3 24.38-.11 2.8.65 5.47 2.4 7.77.62.8 1.28 1.6 1.8 2.47.84 1.37 1.82 3.2.74 4.4-1.24 1.35-2.78-.18-4.02-.96-4.04-2.58-5.86-6.12-5.92-11.1-.22-17.5 1.37-34.96 1.33-52.46-.04-18.84-.12-37.67.5-56.5.64-19.6 1.34-39.21 2.24-58.81.43-9.51.17-19.05.18-28.58 0-.66.35-1.57-.43-1.99-.87-.46-1.24.48-1.72.92-10.88 10.19-22.3 19.8-32.59 30.62-1.24 1.3-1.87 2.54-1.72 4.33.14 1.74.02 3.5.03 5.26.01 5.13-2.18 8.84-6.44 11.88-3.3 2.36-6.94 4.4-9.5 7.85-.97 1.33-3.07 1.77-5 .67-4.78-2.72-7.86-6.75-10.15-11.72-3.66-7.97-5.79-16.4-8.24-25.08-4.51 3.4-9.48 5.56-14.16 8.22-1.68.96-3.1 2.53-2.08 5.17 2.16 5.65 1.3 8-3.45 11.61-5.33 4.05-11.27 7.06-17.28 9.89-2.27 1.07-4.19 2.9-6.38 3.72-11.03 4.05-19.99.5-25.66-10.7a63 63 0 0 1-4.99-12.43 4.7 4.7 0 0 0-3-3.42c-10.5-4.62-18.42-12.51-25.88-20.94-14.47-16.33-21.74-36.19-28.09-56.6-3.3-10.6-4.81-21.21-3.14-32.2 1.5-9.95 11.82-19.56 21.69-20.17 3.48-.21 5.6 2.24 7.45 4.74 2.2 2.97 3.64 6.37 5.2 9.69 5.27 11.2 13.95 19.37 23.63 26.7 7.84 5.95 16.52 10.63 24.46 16.4 2.56 1.87 6 3.68 4.43 8.08-.37 1.04.57 1.16 1.32 1.03 6.96-1.13 13.98-.44 20.96-.44 5.38 0 10.61-1.04 15.93-1.4 1.7-.12 2.92-.6 2.16-3.1-.95-3.1 1.16-6.67 4.2-8.6 4.4-2.76 9.13-4.9 13.8-7.14a11 11 0 0 0 3.49-2.43c11.22-12.14 24.55-21.82 37.34-32.12a470 470 0 0 0 37.14-33.4c14.07-14.04 28.17-28.1 43.8-40.45l2.36-1.87c-3.1-.68-5.04-2.21-7.23-3.26-3.11-1.48-4.5-4.3-4.94-7.33-.42-2.86 1.9-2.91 4.22-2.48-2.82-1.04-5.5-1.79-8.05-3.02-3.85-1.87-4.9-4.69-2.47-8.16 1.82-2.61 4.11-4.81 7.67-4.94 2.48-.09 2.56 1.3 1.82 2.98a19 19 0 0 1-2.2 3.68c-1.85 2.52-1 4.04 1.62 5.14 2.36 1 3.73 2.74 4.78 5.21 1.3 3.09 2.42 6.55 6.36 7.8 1.85.58 2.9.36 4.31-.88 9.33-8.18 18.89-16.1 29.03-23.3a81 81 0 0 1 16.55-9.28c3.64-1.46 7.6-1.21 11.48-1.01 9.9.5 18.25 4.91 26.07 10.53 15.9 11.42 31.9 22.71 47.54 34.46 10.66 8.01 20.8 16.7 31.15 25.1l38.04 30.92c9.03 7.33 17.73 15.02 25.72 23.5 1.09 1.16 2.28 2.15 4.14 2.33 2.65.27 4.53 2.24 6.38 3.99.84.8 1.28 1.13 2.14.05 7.55-9.4 18.14-13.3 29.3-16.13.18-.04.3-.23.76-.6-3.15-1.43-6.01-3.36-9.14-4.02-6.9-1.45-13.12-4.37-19.14-7.74-4.72-2.64-9.9-2.12-14.88-3.03-3.73-.68-7.3-1.7-10.56-3.71-.7-.43-1.45-.73-1.54-1.9 8.02 1.75 16.18.9 24.17 2.08 7.9 1.16 14.75 5.16 21.97 8.14 6.12 2.53 12.32 4.88 18.45 7.36 1.11.45 2.23.52 3.33.3 14.66-2.87 29.5-2.61 44.31-2.2 13.77.37 27.52 1.08 41.27 1.83 14.38.78 28.76 1.35 43.15 1.85 17.99.62 35.99 1.32 53.96 2.44 11.02.69 21.98 2.21 32.9 4.04 7.05 1.17 14.11 2.31 21.13 3.6.59.11.95.03 1.41-.22 4.3-2.28 8.63-4.53 12.92-6.85 1.11-.6 2.34-1.01 2.61-2.7.19-1.12 5.24-2.28 6.16-1.59.9.68.72 1.84.35 2.54-1.42 2.74-1.45 5.58-1.55 8.58-.09 2.8-1.18 5.61-2.08 8.34-.63 1.93-2.67 1.85-3.93 1.29-4.33-1.92-8.93-1.06-13.36-1.55-8.73-.97-17.4-2.33-26.1-3.53a923 923 0 0 0-27.06-3.46c-9.9-1.07-19.84-1.42-29.75-2.28-5.13-.44-10.28-.34-15.41-.6-6.78-.33-13.58-.67-20.37-.88-18.71-.58-37.43-1.28-56.14-1.98a586 586 0 0 0-38.01-.26c-14.32.4-28.45 2.63-41.91 7.92-6.2 2.44-12.3 5.18-17.43 9.52-5.1 4.32-7.52 10.44-10.01 16.4-2.2 5.24-2.65 10.9-3.73 16.4-.33 1.68 1.2 2.86 1.18 4.4-.06 8.06 2.8 15.64 3.84 23.51.59 4.47 1.33 8.92 1.71 13.41 1.13 13.4 1.97 26.81 3.22 40.2 1.22 13.07 2.33 26.14 3.07 39.26 1.25 21.72.56 43.46.38 65.18-.1 11.57-1.47 23.14-.84 34.74.72 13.22.53 26.5 2.27 39.66a53 53 0 0 0 2.76 11.82c4.55-2.35 9.37-1.45 13.98-1.13a423 423 0 0 0 29.9 1.1c2.13 0 1.99-1.52 2.12-2.66.26-2.13.34-4.27.7-6.41.21-1.16.84-1.3 1.63-1.37 1.16-.12.88.86 1.03 1.5.34 1.5.73 2.98.96 4.5.68 4.42.66 4.55 5.21 4.36 12.95-.56 25.9-.97 38.81-1.94 10.54-.8 21.08-1.67 31.62-2.43q17.21-1.23 34.42-2.5c15.74-1.19 31.45-2.8 47.17-4.31 5.09-.49 10.15-1.25 15.23-1.78 1.32-.13 1.73-.6 1.72-1.91-.06-8.51 1.6-16.87 2.3-25.31q1-12.32.68-24.7c-.17-6.98 0-13.94 1.21-20.86.65-3.69 1.94-5.1 6.24-5.2 11.05-.24 21.96-1.92 32.91-3.18 10.92-1.25 21.8-2.83 32.7-4.25a8 8 0 0 1 1.85-.03c1.34.13 3.41-.66 3.63 1.27.18 1.67-1.97 1.9-3.2 2.28-5.86 1.83-11.98 2.37-18.02 3.2q-10.76 1.52-21.58 2.39c-8.9.7-17.8 1.86-26.75 1.36-2.02-.12-2.76.21-2.88 2.53-.67 12.8-1.22 25.6-2.54 38.34-.83 8.08-2.93 16.03-4.48 24.03-.45 2.3-.9 4.61-1.45 6.9-.49 1.95-.15 2.85 2.17 2.57 6.2-.77 12.43-1.33 18.63-2.06 8.12-.94 16.25-1.9 24.35-2.99 8.71-1.17 17.44-2.34 26.1-3.85 6.15-1.07 7.6-3.86 6.45-10.31-.56-3.11-.74-6.3-1.06-9.44-.13-1.37-.03-2.66 1.35-3.51 1.41-.87 1.04-2.4 1.02-3.65-.17-12.9 1.37-25.68 2.74-38.46 1.68-15.66 4.74-31.13 7.9-46.56 3.76-18.33 7.44-36.68 11.33-54.98a1224 1224 0 0 1 8.26-36.17c.68-2.83-.28-3.76-2.63-4.53-3.62-1.2-7.28-2.58-9.2-6.22-1.57-2.93-3-6.02-2.4-9.5.26-1.55-.84-2.1-1.7-2.55-3.85-1.97-4.18-5.38-3.63-8.97.97-6.42 1.87-12.86 3.5-19.18.24-.98 1.02-2.83-.45-3.14-1.53-.31-3.48.62-3.64 2.48-.95 10.4-4.9 20.07-6.94 30.2-1.6 7.92-2.54 16-5.51 23.62-.44 1.13-.8 2.32-1.45 3.33-.5.79-.41 2.48-2.2 1.85-1.46-.52-2.15-1.48-1.93-3.05.42-2.92.72-5.86 1.27-8.75 1.43-7.48 1.86-15.13 3.68-22.55 2.2-9.08 5.48-17.81 8.79-26.51 1.06-2.8 3.96-3.47 6.74-3.22 2.14.19 2.97-.48 3.4-2.6 1.19-5.87 2.68-11.68 3.91-17.54.25-1.17.68-2.41-.94-3.57-2.07-1.48-.77-4.04-.7-6.08.06-1.6 1.9-1.65 3.17-1.76 1.14-.1 1.42-.47 1.7-1.6 1.38-5.82 2.93-11.6 4.48-17.38.13-.48.62-1.1.08-1.34-2.65-1.16-2.51-3.21-2.7-5.71-.18-2.65.95-2.8 2.6-2.37 2.17.55 2.76-.04 3.1-2.22.42-2.77 1.55-5.43 2.25-8.16.48-1.85 2.13-3.9-.86-5.32-.73-.35-.42-8.04.16-8.68.83-.91 1.95-.47 2.92-.45 1.59.02 2.33-.28 3-2.11 5.26-14.13 10.78-28.16 18.9-40.97 3.54-5.58 7.6-10.72 13.96-13.34 1.34-.56 1.37-1.54 1.49-2.54a27 27 0 0 1 3.33-10.28c.46-.8.4-1.55.44-2.35.22-3.5-.37-6.91-1.24-10.29-.71-2.75-5.2-6.38-8.01-6.74-1.96-.25-1.49 2.45-3.5 2.36-.48-.75-.17-1.77-.2-2.71-.03-.53.49-1.29-.56-1.4-.49-.05-.9-.06-1.34.4-1.12 1.16-5.89 1.26-7.35 0-1.6-1.4-2.67-3.19-1.37-5.4 1.2-2.04.72-4.22.69-6.38-.06-4.63 4.52-8.57 9.02-7.7 1.66.3 2.4 1.52 2.1 3.2-.37 2.15 1.02 2.52 2.63 2.86 2.17.46 1.65-1.4 2-2.32.77-1.95.6-4.12-1-5.4-2.51-2-2.27-4-1.26-6.63 1.12-2.97.47-3.6-2.65-3.3zm-594.21 500.1c3.78-.98 5.09-3.12 4.77-7.25-.5-6.64-.1-6.84-6.72-8.51-11.87-3-23.41-6.83-34.42-12.23-2.42-1.19-5-2.03-7.5-3.03.2.97.65 1.38 1.15 1.68 1.05.64 2.1 1.28 3.21 1.8 6.54 3.12 13.43 5.93 11.81 15.34-.11.69.05 1.43.08 2.15.65 12.43-1.94 24.42-5.12 36.31-.37 1.36-.34 1.96.88 2.7a100 100 0 0 1 21.28 17.13c1.54 1.63 3.14 1.97 5.49 1.6 3.71-.57 7.55-.35 11.35-.4 1.07 0 2.05.24 2.04 1.71 0 1.22-.46 1.78-1.7 2.13-3.6 1.02-7.26 1.82-10.93 2.64-3.28.73-6.18.55-9.02-1.45a638 638 0 0 0-14.72-10c-4.84-3.23-9.38-6.97-15.04-8.78-3.82-1.22-5.84-.57-8.2 2.46-1.52 1.94-3.2 3.77-4.85 5.6q-7.55 8.32-15.2 16.7c2.67 1.14 5.33 2.16 7.9 3.4a55 55 0 0 1 14.37 9.99c.5.48 1.15 1.14.79 1.86-.3.59-.95.37-1.6.09-6.7-2.98-13.71-5.35-20.02-9.12-3.52-2.1-5.8-2.84-9.5.43-7.48 6.6-16.8 10.34-26.05 13.98-7.21 2.83-14.04 6.19-18.74 12.77-2.4 3.33-2.36 4.21.1 7.36 6.44 8.2 14.82 10.7 24.85 8.94 9.36-1.65 18.42-4.4 27.48-7.17 12.49-3.8 24.95-7.7 37.84-9.89 2.86-.48 6.9-1.42 8.35.18 2.32 2.6 4.26 1.72 6.62 1.47 10.9-1.16 21.82-2.17 32.7-3.7 1.85-.25 2.1-.98 1.92-2.63-.47-4.4-1.12-8.81-1.01-13.2.18-7.26.83-14.51 2.21-21.68.32-1.63.63-3.6-1.76-3.75-2.74-.18-3.68-1.96-4.21-4.09-1.66-6.55-2.22-13.29-3.17-19.96-.68-4.68-.88-9.46-2.06-14.1-2.12.62-3.35 3.18-5.88 1.9 1.17-2.01 3.05-2.99 4.71-4.13 2.2-1.51.65-3.42.58-5-.06-1.33-2.08-.87-2.84-.54-2.1.9-2.25-.11-2.2-1.68h-.03zM918 562.35c.85-1.5 2.05-1.77 3.51-1.71 6.33.28 12.5 1.5 18.61 3.04 1.5.37 3.25 1.18 3.42-1.54.04-.6.5-.94 1.08-.77.84.25.29.8.17 1.23-.51 1.77.28 2.5 1.94 3.06 2.99 1 5.98 2.11 7.98 4.82 1.06 1.44 1.55.34 2.2-.5 3.09-3.95 4.28-8.71 5.72-13.33 2.7-8.7 4.87-17.54 7.79-26.17 3.77-11.14 7.78-22.22 9.2-34.07-.4-.04-.8-.13-1.2-.12-9.2.2-15.79-4.78-21-11.5-6.14-7.94-4.57-16.3-.35-24.72 4.5-8.93 11.49-13.46 23.42-11.5 2.4.4 4.44 1.7 6.94 2.46-.36-2.44.46-4.5.64-6.64.58-6.9 1.42-13.8 1.9-20.72.5-7.13 2.56-14.5-4.87-20.06-3.22-2.41-7.92-4.8-11.82-3.4-4.8 1.71-7.9 5.45-10.6 9.48-2.68 4.02-4.6 8.43-6.58 12.85-4.13 9.28-7.57 18.82-11.06 28.34-.6 1.65-.15 2.25 1.6 2.08 1.57-.15 2.48.84 2.18 2.24-.65 3.05-1.33 6.12-2.87 8.91-.74 1.34-1.33 1.25-2.2.09-.37-.48.22-1.87-1.34-1.44-1.04.3-1.22 1-1.42 1.78-1.08 4.26-2.06 8.54-3.28 12.76-.35 1.2-.1 1.64.87 2.08 1.84.85 2.32 2.34 1.5 4.05-.83 1.7-.4 4.7-3.76 4.17-1.22-.2-1.39.5-1.64 1.56-1.29 5.34-2.72 10.65-4.13 16.07 1.13.3 2.3.56 3.43.95 1.43.5 2.57 1.76 1.44 2.94-2.37 2.5-2.6 6.9-6.87 7.7-.97.18-.97 1.14-1.15 1.96-1.6 7.46-3.27 14.92-4.87 22.37q-2.28 10.6-4.52 21.19zm-740.93 52.82c-5.9 1.95-5.93 2.08-10.64 1.16-12.53-2.45-20.24-11.23-19.51-24.94.24-4.73-1.26-7.7-5.35-9.55-.85-.4-1.5-.83-1.48-1.74.02-1.1 1.03-1.08 1.8-1.32 5.01-1.58 7.7-5.22 8.05-10.44.24-3.52-1.4-6.54-2.1-9.8-.43-1.98-1.35-4.04 1.14-5.78 1.45-1.02 1.45-2.58-.75-3.7-7.03-3.58-14.48-6.33-21.18-10.57-3.59-2.27-7.22-4.47-11.01-6.82-.34 9.9-1.65 19.4-.77 28.95.06.6.47 1.68-.6 1.72-1.4.05-1.53-1.44-1.64-2.25-1.21-9.38-2.15-18.78-.9-28.24.26-1.98-.1-3.31-1.78-4.75-7.06-6.04-13.16-12.9-17.01-21.53-1.66-3.7-3.36-7.43-5.88-10.69-1.46-1.87-3.36-2.96-5.64-2.18-2.68.94-5.23 2.23-6.76 4.94-3.2 5.7-2.34 11.97-1.43 17.75 2 12.7 6.22 24.96 11.1 36.75 8.8 21.23 22.4 39.04 41.85 51.81 4.44 2.92 7.62 6.6 9.05 11.5 1.36 4.64 3.15 9.07 5.06 13.46 1.1 2.55 2.56 4.85 5.24 6.17 1.32.65 2.14.96 3.36-.27 2.18-2.2 4.89-3.68 7.72-4.99 5.3-2.46 10.49-5.19 15.46-8.29 2.31-1.44 4.24-3.15 4.61-6.37zm-21.23-58.07c1.59 8.95-.12 16.72-7.81 22.3-1.22.88-1.35 1.3-.29 2.22 4.14 3.55 5.13 8.27 5.41 13.44.22 3.93 1.44 7.52 4.99 10.05 6.07 4.31 12.57 3.17 19.12 1.88.29-.06.47-.59.74-.85 5.45-5.44 11.11-10.65 17.82-14.54 1.22-.7 1.5-1.27 1.27-2.7-1.83-11.16-4.06-22.27-3.8-33.66.06-2.4-1.43-1.26-2.5-.95a79 79 0 0 1-26.15 3.17c-2.96-.15-5.88-.83-8.8-.36m803.09-265.3c.2 2.27-.46 3.9-.87 5.6a229 229 0 0 1-6.89 22.92c-.36 1.02-.68 1.58.7 2.04 8.82 2.92 17.15 7.27 26.3 9.34 2.51.56 4.15-.42 4.3-2.94.47-7.68 2.61-14.98 4.97-22.21.86-2.63.23-3.68-2.2-4.85-8.33-4-17.3-6.21-26.3-9.9zm-.62 182.72c-.1 7.72 5.83 14.93 13.3 17.81 5.81 2.25 9.03.45 9.88-4.62.28-1.66-.3-1.83-1.68-2-2.81-.37-5.7-.57-8.31-1.81a14.8 14.8 0 0 1-8.13-9.42c-.6-1.96.47-3.8 2.2-4.64 2.14-1.03 2.38 1.2 3.05 2.42 2.43 4.46 5.59 7.78 10.97 8.85 2.71.53 3.2-.32 3.52-2.5 1.02-7.14 1.9-14.32 3.3-21.4.5-2.56-.07-3.7-2.33-4.28a18 18 0 0 0-3.64-.58c-13.59-.75-20.77 10.68-22.13 22.18zM456.73 541.3c.42-1-.02-1.61-.62-2.26a373 373 0 0 0-23.84-23.65c-8.27-7.55-17.02-14.59-24.87-22.6-2.23-2.27-4.45-4.56-7.07-6.43-4.54-3.24-5.28-3.31-9.76-.1a5.7 5.7 0 0 1-5.1 1.01c-3.9-.87-7.53-2.6-11.5-3.22a100 100 0 0 0-27-.48c-12 1.43-19.81 8.8-24.89 19.43q-2.16 4.5-4.37 8.98c.75-.18 1-.6 1.26-1.02 3.23-5.4 6.25-10.96 10.26-15.8 4.51-5.46 10.62-8.4 17.6-9.38a80 80 0 0 1 24.23.2c7.74 1.28 15.32 3.36 22.92 5.29 6.7 1.7 13.05 3.17 18.44 8.62 6.74 6.81 14.62 12.52 21.44 19.37 7.46 7.48 14.67 15.25 22.85 22.04zM330.5 835.39c1.3-3.7.91-7.25 1.37-10.69.3-2.33-.06-4.73.16-7.08.21-2.28-1.46-2.23-2.74-2.38-1.85-.22-1 1.38-1.04 2.15-.14 2.36-.07 4.73-.14 7.09-.02.9.08 2.3-.68 2.55-3.9 1.3-2.02 4.55-3.13 7.13 2.6-.65 4.77-1.71 6.2 1.23M982.94 382.8c-.03-.08-.25-.45-.31-.85-1.04-6.56-4.62-12.07-7.74-17.7-1.53-2.74-3.7-5.58-7.46-5.9-.94-.08-2.19-1.47-2.82.35-.51 1.48.94 1.68 1.73 2.02 4.55 2 7.36 5.73 9.91 9.71 2.52 3.92 3 8.58 4.34 12.91.18.59-.27 1.69 1 1.36.75-.2 1.7-.38 1.35-1.9M932.7 571.94c-.89-.29-1.68-.09-2.09.77-.43.88.1 1.56.74 2.14a35 35 0 0 0 8.05 5.5c1.03.53 1.3.23 1.7-1 1.05-3.27-.74-4.8-3.15-5.9-1.64-.74-3.5-1.02-5.24-1.51zm56.4-171.92.43-7.02c.05-.9-.12-1.44-.99-.49-.67.73-1.24.1-1.9-.03a11 11 0 0 0-6.06.44c-.5.18-1.05.35-1.05.92s.53.78 1.05.97c2.93 1.05 5.93 2 8.51 5.22zm-37.18-44.38c-2.65 3.69-2.11 6.72 2.75 7.53.57.1 1.4.35 1.63-.35.14-.46-.24-1.58-.5-1.61-3.04-.42-3.27-2.94-3.88-5.57m-11.89 214.69c1.6 3.15 3.77 3.54 6.24 3.37z"/><path fill="#000" d="M767.13 170.02c3.93 6.3 7.77 12 11.14 17.97 8.14 14.34 14.13 29.61 16.33 45.95 1.07 7.95 3.64 15.47 4.8 23.32 1.53 10.53 3.03 21.06 1.92 31.78a28 28 0 0 0 .52 8.88c.97 4.2.04 8.1-.72 12.1-.11.59-.09.99-.88 1.32-4.88 2.03-10.04 2.84-15.2 3.55-4.54.63-5.22.12-6.27-4.52-.94-4.17-1.73-8.38-2.77-12.55-.23 4.76.57 9.44 1.7 13.98.65 2.58-.1 3.43-2.33 3.9-.67.15-1.28.54-2.31 1 3.73 1.9 7.32 3.42 10.33 6 .85.72 2.45.43 3.78-.23 2.29-1.12 7.59 1.57 8.26 4.04.1.34.04.87-.18 1.12-.38.45-.98.32-1.4.04-6.98-4.77-13.53-.68-19.89 1.35-14.37 4.6-26.03 13.71-37.01 23.75-6.77 6.17-13.6 12.27-19.94 18.9-1.34 1.4-2.86 2.72-3.8 4.35-1.61 2.8-3.93 2.92-6.77 2.46 2.56-8.71 9.4-14.18 15.22-20.4-.39-.24-.54-.36-.7-.42-1.31-.56-3.69-.5-3.08-2.47.33-1.03 2.46.02 3.67.55 1.4.6 2.43.29 3.53-.73a260 260 0 0 1 19.06-16 79 79 0 0 1 29.78-14.35 26 26 0 0 0-11.37-4.86c-1.58-.29-3.69.27-4.29-2.4-.29-1.3-1.59-.14-2.3.2a33 33 0 0 1-8.67 2.93c-2.32.37-2.86-.47-2.54-2.57.16-1.1.03-2.24.03-3.56-1.04.85-.57 1.77-.58 2.54-.05 3.96-2.26 5.9-6.34 5.46-1.7-.2-3.52-.93-4.7 1.56 1-11.17 1.83-21.87 1.41-32.63.04 8.56-1.55 17-1.65 25.57a43 43 0 0 1-.7 7.97c-.58 2.85-3.08 4.24-5.42 5.48-6.68 3.54-13.82 5.91-21.4 8.1 2.43-9.21 4.59-18.27 3.83-27.7-.28 8.53-2.16 16.75-4.68 24.86-.93 3.01-6.72 6.13-9.7 5.29-1.28-.36-.55-.94-.36-1.6.7-2.38 2.24-4.48 2.31-7.18-2.1 5.58-4.14 11.15-11.69 10.5 1.95-11.58 5.36-23.29 6.91-35.47a44 44 0 0 1-18.55 11.66c-4.93 1.54-7.25 3.91-8.07 9.16-1.07 6.82-5.07 12.73-7.74 19.07-.53 1.26-2.14 2.8-.6 4.17 1.62 1.45 3.48.9 5.44 0 6.06-2.74 11.16-7.04 16.92-10.26.52-.3 1.01-.68 1.56-.92.9-.4 1.93-1.5 2.76-.79.85.73.44 2.12.18 3.22-.08.4-.39.74-.42 1.13-.05.64-.96 1.33-.04 1.92.78.51.85-.63 1.39-.72a3 3 0 0 1 1.6.14c-5.78 3.84-10.88 8.63-17.31 11.43-.94.41-1.9.75-2.8 1.23-4.8 2.64-9.62 1.45-14.35-.08-1.97-.64-2.73-2.48-2.26-4.48.18-.8.27-1.6.42-2.4.25-1.34 1.88-2.72.87-3.87-.84-.97-2.86.62-3.67.18-2.65-1.44-5.58-1.66-8.32-2.57-.96-.32-1.98-.55-2.86-1-3.68-1.9-6.47-1.44-8.74 2.39-1.6 2.7-4.02 1.02-5.96.14-1.05-.48-2.23-1.44-2.34-2.73-.55-5.85-4.12-7.34-9.39-7.15-2.66.1-4.65-1.91-6.49-3.73-8.52-8.44-10.59-18.36-7.07-29.74 3.05-9.88 6.06-19.8 7.36-30.1.48-3.77-.04-7.61.7-11.37.16-.74.14-1.5-.97-1.93-3.05-1.17-3.97-4.15-3.8-6.77.34-5.36-1.23-10.33-2.15-15.44-1.25-7.04-.85-14.08-.05-21.13a135 135 0 0 1 2.55-14.2c-6.2-.21-11.52 2.03-16.5 5.26-8.27 5.35-12.87 13.27-15.7 22.5a197 197 0 0 0-8.13 45.42c-1.03 16.13-1.97 32.26-2.99 48.38-1.22 19.32-3.18 38.53-7.34 57.47-.68 3.09-1.63 6.13-2.57 9.15-.37 1.22-.88 2.49-2.48 3.15-.24-5.77.86-11.2 1.67-16.67 1-6.75 2.06-13.52 2.76-20.31.96-9.38 1.62-18.78 2.39-28.18.32-4 .31-8.01.6-12.03.87-12.4 1.21-24.85 2.07-37.26 1.26-18.13 2.84-36.2 9.17-53.5 4.77-13.05 12.26-23.31 26.38-27.13 3.83-1.03 7.88-2.28 10.93 2.63 2.3-7.09 4.59-13.47 7.5-19.63a68 68 0 0 1 19.46-24.32c14.91-11.89 31.9-19.68 50.32-24.29 14.8-3.7 29.5-2.63 44.03 1.68 8.1 2.41 16 5.22 22.6 10.82a15 15 0 0 1 3.4 3.93c3.17 5.62 9.35 8.17 13.05 13.22 1.68 2.3 3.28 5.51 5.59 6.28 2.25.75 5.37-1.11 8.12-1.79 18.5-4.54 37.13-8.5 55.93-11.57a471 471 0 0 1 27.08-3.43c17.83-1.85 35.05.54 51.47 7.2 12.9 5.23 21.95 14.54 23.68 29.24 1.36 11.48.62 23.02.72 34.53.16 18.46-2.17 36.73-4.3 55.03-1.76 15.03-3.47 30.05-5.72 45.01-2.77 18.4-6.49 36.61-10.54 54.77-3.33 14.96-6.45 29.95-11.48 44.48a556 556 0 0 1-15.01 39.03c-1.95 4.51-3.25 9.32-6.13 13.41-.52.73-.83 2.02-1.94 1.6-1.27-.5-.6-1.7-.39-2.65 3.58-16.26 8.85-32 14.36-47.67 6.49-18.44 10.58-37.52 15.09-56.48 3.16-13.29 6.36-26.58 8.47-40.06 2.07-13.21 4.15-26.43 5.19-39.78.67-8.67 2.16-17.27 2.85-25.93.44-5.61.8-11.24 1.45-16.83 1.47-12.68 1.17-25.44 1.92-38.16.23-3.88.84-7.75 1.11-11.63 1.07-15.24-10.26-28.26-22.99-32.6-13.78-4.7-27.95-6.97-42.5-6.02-9.92.64-19.76 2.03-29.62 3.35-12.02 1.61-23.9 4.04-35.88 5.81a1336 1336 0 0 0-22.66 3.57c-2.3.38-4.47-.42-7.2-.57zm-117.71 67.83c-1.71 3.46-2.72 6.65-5.2 8.95-1.88 1.76-4.28 1.4-6.46 1.13-1.33-.16-.75-1.78-.6-2.65 1.05-6.68 1.22-13.49 2.76-20.1.18-.79.5-1.64-.79-2-1.9 7.48-3.9 14.92-4.5 22.65-.17 2.14-1.04 3.34-3.38 3.52-3.47.26-6.92.76-10.36 1.25-3.76.53-5.14 2.02-5.44 5.6-.16 1.9 1.38 3.13 1.88 4.8 2.2 7.24 3.28 14.73 4.94 22.1 2.53 11.28 6.84 21.27 18.06 26.73 6.35 3.09 12.69 6.09 20 4.67 11.8-2.3 21.65-7.8 28.5-17.98 1.39-2.06 2.89-2.87 5.13-.71-.06-3.02 1.12-5.54.6-8.26-2.26-11.69-2.89-23.58-4.28-35.37a38 38 0 0 0-3.9-13.33c-1.16-2.2-2.85-3.95-2.33-6.87-1.12 1.46.87 3.63-1.78 4.32-4.43 1.13-8.77 2.58-13.22 3.63-2.37.56-4.66.72-6.16-2.31-1.7-3.42-4.13-6.49-6.23-9.71 1.62 4.74 4.05 9.02 6.85 13.16-5.34 1.61-10.46 2.68-14.11-3.22zm-24.18 65.66c2.98 10.89 5.9 21.76 7.87 32.86a78 78 0 0 0-7.87-32.86m95.97-158.17c1.08-.3 2.88.8 3.48-1.52.27-1.1.5-2-.54-2.71a10.5 10.5 0 0 0-5.97-1.92c-1.73 0-2.76 1.16-3.06 2.83-.32 1.77.52 2.49 2.27 2.87 1.21.27 2.39.42 3.83.45zm3.49 72.3c4.27 14.27 7.03 28.92 11.32 43.17-3.35-14.5-5.09-29.42-11.32-43.16m-110.85 88.2c-.74 1.7.52 3.41.17 5.04-1.27 6.07.15 11.98.8 17.93.09.81.3 1.57 1.2 1.37.92-.19.25-.99.29-1.52.4-7.74-.53-15.34-2.46-22.81zm89.56-160.5c-.68.58-2.11.21-2.92 1.35-.5.71.02 1.26.51 1.52 2.24 1.18 4.5 2.38 6.84 3.3.78.31 2.21.2 1.95-1.41-.26-1.57-4.44-4.81-6.38-4.76m11.34 115.8c-.68 11.7-1 23.41-2.43 35.05 2.82-11.53 3.17-23.26 2.43-35.05m-21.27-115.8c-.66.23-1.5.65-1.17 1.83a9.3 9.3 0 0 0 5.22 6.07c.71.34 1.35.2 1.5-.85.25-1.66-3.64-7-5.54-7.05zm-75.12 83.5 6.31-21.6c-3.91 6.68-5.58 14-6.31 21.6m124.52-34.66-9.33-16.5c1.83 6.25 5.58 11.45 9.33 16.5m-58.7-42.78c-.01-1.2-.86-2.5-2.62-2.94-1.01-.24-1.44.4-1.21 1.5.37 1.85.7 3.88 2.84 4.28.93.18.94-1.3.99-2.84m22.95-7.6c1.52 2.31 3.8 2.94 6.1 3.27.86.12 1.39-.66.5-1.6-1.74-1.85-3.75-2.62-6.6-1.68m-67.31 193.07c-.15-4.05-.55-8.13-2.56-11.8l-.79.2zm26.5-187.95c-3.52 2.27-5.9 5.58-7.77 9.29zm4.79 5.05c.96-1.74 2.69-3.06 2.64-5.45-3.06 2.2-3.23 2.54-2.64 5.45m5.63-2.6c-.2-.55.41-1.68-.76-1.58-1.02.09-1.52 1.1-1.53 2.04 0 .76.18 1.84 1.27 1.76 1.37-.12.93-1.33 1.02-2.21"/><path fill="#000" d="M804.54 483.6c-.86 1.12-1.36 3-3.46 1.36-.41-.32-1.53.1-2.25.36a75 75 0 0 1-30.12 4.09 38 38 0 0 1-11.86-2.44c-1.27-.52-3.13-1.03-.98-2.85a2 2 0 0 0 .42-.65c-2.67-1.88-.4-5.27-2.25-7.4-.59-.67-.12-1.17.5-1.37 1.33-.43 2.57-1 4.13-.37 2.63 1.07 5.39 1.8 8.08 2.7 1.83.61 2.98.56 3.47-1.84 1.25-6.27 2.87-12.45 4.22-18.7 2.29-10.53 4.71-21.05 6.63-31.65a213 213 0 0 0 2.78-22.46c1.06-14.56 2.03-29.13 1.7-43.72-.2-9.22-1.02-18.45-5.6-26.8-.78-1.43-.6-2.07 1.1-2.13.38-.01.74-.33 1.13-.45q5.06-1.52 7.55 3.18c.38.72.54 1.73 1.56 1.65 1-.09.97-1.1 1.26-1.85 1.13-2.87 3.2-3.48 5.87-1.83a12.4 12.4 0 0 1 4.08 4.04c1.63 2.56 1.25 4.84-.45 7.02-1.35 1.72-4.25 1.84-7.42.33 2.75-.24 4.76-1.3 5.15-3.85.34-2.14-.47-4.01-2.78-5.31-.24 2.52-1.67 3.66-4.03 3.41-1.56-.16-1.93.12-1.5 1.82 1.04 4.17 1.75 8.45 1.5 12.75-.16 2.76 1.24 3.35 3.39 3.5q3.95.26 7.92.47c1.06.06 2.04.16 2.42 1.74-4.13-1.32-8.28.23-12.24-1.14-.78-.27-1.4.13-1.36 1.1q0 .63-.04 1.25c-.21 12.65-.3 25.31-.68 37.96-.26 8.81-1.73 17.52-3.2 26.18a351 351 0 0 1-10.37 43.27c-1.17 3.87-2.34 7.77-4.31 11.35-.82 1.5-.77 2.46 1.27 2.64a79 79 0 0 0 22.22-1.22c.88-.17 1.22-.41 1.25-1.32.12-3.52 2.64-4.48 5.5-4.89 4.38-.61 8.96 2.8 9.87 7.23.55 2.73-2.82 7.05-6.4 8.06-1.21.35-2.48.55-2.73-1.37-.09-.66-.63-1.25-.97-1.87 1.33-.47 1.92 1.7 3.31.95a5.26 5.26 0 0 0 2.43-7.02c-1.62-3.52-3.42-.63-5.3-.22 1.78 2.28 2.27 4.44-.44 6.3zm-28.85 2.9q5.96-.53 11.92-1.03c1.66-.14 1.86-1.18 1.76-2.56-.13-1.73-1.31-.92-2.03-.85-6.94.68-13.85 1.22-20.72-.58-1.38-.37-1.47.71-1.39 1.7.1 1.11-.53 2.68 1.58 2.58 2.98-.15 5.88.96 8.89.73zm18.51-2 6.97-1.55c1.97-.44 1.09-2.27 1.62-3.41.17-.36.03-1.25-.64-1.1-2.33.53-4.76.94-6.88 1.97-1.11.54-.62 2.47-1.07 4.1zm-31.07.47a11 11 0 0 1-.15-3.24c.22-2.27-2.08-1.28-3.06-2.07-.36-.29-1.26-1.26-2.08-.15-1.45 1.93-.51 4.55 1.87 5 1.07.19 2.17.29 3.42.45M436.9 709.19c10.44-.5 23.44-.01 36.34.85 19.82 1.32 39.65 1.4 59.47 1.91 10.4.27 20.78.35 31.18.37 3.71 0 5 1.2 6.04 4.78.6 2.1-.23 2.36-2.02 2.67-18.1 3.13-36.3.86-54.44 1.1-20.79.28-41.48-2.13-62.28-1.99-14.98.11-29.98-.63-44.97-1.12-3.16-.1-6.3-.75-9.46-1.1-1.7-.18-2.73-1.2-2.78-2.75-.05-1.52 1.33-2.4 2.61-2.68a69 69 0 0 1 8.46-1.36c9.75-.93 19.53-.64 31.85-.67zM265.66 285.02c10.49 4.01 18.92 10.59 26.51 18.35 3.81 3.9 6.84 8.4 9.35 13.23.5.97.63 2.14 1.03 3.18.63 1.62-.67 2.23-1.57 2.95-1.3 1.04-1.76-.32-2.34-1.05-9.13-11.37-20.48-20.34-31.93-30.05 15.59 30.18 34.95 57.68 48 89.2-2.24-.27-2.83-1.28-3.5-2.28-11.24-16.9-22.55-33.76-32.55-51.47-4.63-8.2-9.76-16.15-14.26-24.44-2.83-5.2-5.52-10.5-6.16-16.55-.19-1.8-.4-3.36 2.13-2.18 1.03.48 1.3-.32 1.76-.7 2.37-2 5.1-3.4 7.86-4.75 4.84-2.4 9.44-1.73 13.9 1.1 6.64 4.23 11.3 10.4 16.15 16.38q3.08 3.83 6.08 7.71c.46.59 1.48 1.04.49 2-.73.7-1.4.62-2.22.1-3.85-2.4-7.14-5.5-10.62-8.37-5.24-4.32-10.5-8.59-16.14-12.37-3.86-2.59-7.68-3.04-11.96 0zm373.4 491.19c-2.13-16.26-2.4-32.54-2.47-48.83q-.1-27.5-.73-54.97c-.46-19.82-.95-39.64-1.93-59.42-1.23-24.98-2.85-49.93-2.36-74.96.1-4.9.64-9.79 1.89-14.56.17-.68.37-1.48.84-1.94.98-.96 1.9-2.7 3.42-2.14 1.3.47.58 2.17.58 3.3.05 12.68-.39 25.38.13 38.04.92 22.4 1.12 44.81 1.49 67.22.4 24.39-.12 48.8.37 73.19.4 19.62.23 39.23-.16 58.84-.1 5.42-.7 10.82-1.08 16.23z"/><path fill="#000" d="M438.38 236.68a131 131 0 0 0-24.98 6.83c-17.85 6.9-33.86 17.01-49.23 28.24-14.67 10.72-28.67 22.28-42.36 34.24-4.32 3.78-8.77 7.44-13.07 11.24-1.28 1.14-2.44 1.5-3.81.43-1.57-1.22-.4-2.48.22-3.5a49 49 0 0 1 6.85-8.66c20.03-20.87 43.16-37.8 67.79-52.7 13.67-8.26 28.2-14.85 44.15-17.46 5.71-.93 11.47-2.16 17.37-1.04 2.16.42 2.62 1.28 2.03 3.3-.55 1.88-1.04 3.8-2.15 5.41-.64.93-1.65 1.7-2.92 1.13-1.18-.52-.57-1.54-.5-2.42.14-1.6-.11-3.22.62-5.04zm112.27 179.6c-.25.94.25 2-.73 2.39-.71.28-1.34-.3-1.93-.72-5.93-4.15-10.07-9.96-14.15-15.72-13.19-18.6-24.72-38.25-37.06-57.38-8.1-12.56-17.54-24.1-26.04-36.34-6.82-9.81-12.83-20.16-18.83-30.49-.4-.7-.94-1.48-.95-2.24-.01-1.38-.1-3.15 1.13-3.93 1.44-.94 2.4.59 3.28 1.54 5.76 6.31 10.06 13.66 14.56 20.85 8.6 13.73 19.03 26.18 27.66 39.86 9.99 15.81 19.47 31.94 29.39 47.79 6.63 10.59 14.18 20.57 21.64 30.59.9 1.2 2.01 2.33 2.03 3.8m-29.27 8.26c7.16 5.15 12.92 10.62 20.3 13.69 1.42.59 2.8 1.4 2.43 3.01-.4 1.68-2.2 1.76-3.6 1.66-4.25-.31-8.06-1.94-11.56-4.33-1.57-1.08-3.12-2.2-4.84-3.1 2.79 4.34 6.79 7.48 10.75 10.59 3.64 2.84 7.47 5.43 11.26 8.06.62.42 1.35.63 1.1 1.54-.23.82-.94.95-1.7 1.01-2.9.27-5.61-.71-8.5-1 6.25 4.42 11.76 9.81 18.7 13.2-.75 2.08-2.58 1.5-3.93 1.22a46.2 46.2 0 0 1-24.82-13.85c-1.41-1.5-2.8-3.2-1.02-5.4.84-1.05-.02-1.66-.67-2.33-4.3-4.4-6.72-9.41-5.22-15.77.5-2.12-1.54-2.98-2.64-4.2-1.82-2.01-3.47-3.92-3.57-6.9-.1-2.78.86-4 3.68-3.97 6.08.05 11.93 1.57 17.81 2.8 8.48 1.8 16.91 3.73 25.63 4.13 2.35.1 6.04-.24 5.92 3.23-.1 2.94-3.67 2.45-5.79 2.64-7.53.65-14.87-1.04-22.18-2.55-4.78-1-9.5-2.27-14.25-3.35-.76-.17-1.6-.02-3.31-.02zM310.4 321.1c.03-1.45.89-1.78 1.53-2.22a316 316 0 0 1 40-22.74c13.47-6.48 27.29-12 41.38-16.86 13.06-4.5 26.3-8.4 39.94-10.69a79 79 0 0 1 17.2-.71c1.19.06 2.53.29 2.5 1.61-.03 1.27-1.37 1.7-2.57 1.7-13.94.1-27.16 3.98-40.33 7.93a386 386 0 0 0-49.38 18.81 787 787 0 0 0-33.79 16.4c-4.63 2.4-9.47 4.4-14.25 6.52-.6.27-1.37.16-2.23.25m282.5 45.6c.07 1.28 1.13 1.53 2.03 1.96 5.5 2.69 11.04 5.3 15.25 10 1.35 1.5 1.92 1.39 6.46.23.48 1.16-.55 1.77-1.04 2.7 1.74.83 2.96-1.18 4.8-.72-.96 2-1.77 3.9-4.38 4-.97.02-2.04.01-2.33-1.04-.36-1.33-1.46-1.04-1.86-.66-.65.61-.01 1.38.5 2a6.35 6.35 0 0 0 7.53 1.58c3.07-1.52 4.44-4.3 3.65-7.4-.07-.28-.01-.6-.01-.9 2.06.94 2.63 1.74 2.63 3.69-.01 6.53-7.62 11.7-13.72 9.57-3.69-1.3-4.74-5.26-4.18-10.12.14-1.14.36-1.4-.97-1.76a62 62 0 0 1-8.02-2.84c-1.82-.76-2.76-.5-3.88 1.3-5.87 9.48-12.67 18.13-22.05 24.53-4.45 3.02-9.14 4.24-14.94 3.67a103 103 0 0 0 19.79-18.63c3.73-4.51 6.98-9.36 10.32-14.14.74-1.05.87-1.86-.26-2.78a25 25 0 0 1-3.04-3.07c-2.07-2.41-1.73-5.54 1.04-7.06 2.92-1.6 5.77-3.44 9.25-4.4-.37 1.35-1.42 1.76-2.24 2.34a11 11 0 0 0-3.91 4.61c-.53 1.21-1 3.11-.33 3.4 1.07.45 2.7 1.4 4 0zm118.06 107.63c-.18.73-.6.83-1.01.83-7.62-.08-15.24.31-22.86-.3a286 286 0 0 1-19.52-2.05 318 318 0 0 1-39.89-8.45 103 103 0 0 1-27-11.8c-6.43-4.05-10.74-9.93-14.09-16.3-3.41-6.5-8.45-10.05-15-12.5a45 45 0 0 1-12.4-7.02c-.48-.38-1.44-.85-.96-1.68.39-.68 1.23-.56 1.94-.27l23.72 9.76c2.98 1.23 4.87 3.45 6.28 6.37 1.67 3.49 3.7 6.82 5.73 10.12 2.68 4.33 6.28 7.69 10.62 10.49 11.23 7.24 23.7 11.27 36.5 14.37 18.8 4.57 37.99 6 57.25 6.96 3.53.17 7.3-.16 10.68 1.47zm222.62-178.19c1.73-14.51.74-29.82 3.74-44.78a108 108 0 0 1 15.12-37.15c.74-1.15 1.56-3.58 3.5-2.6 2.16 1.1 2.3 3.35 1.37 5.6-3.36 8.1-6.84 16.17-9.98 24.36-3.3 8.57-5.09 17.52-6.4 26.63-1.44 9.99-2.63 20.03-4.78 29.9-.2.93.4 2.73-1.5 2.39-1.54-.28-.94-1.81-1.06-2.86-.04-.3 0-.62 0-1.49zm-40.7 40.64c2.54 4.4 2.14 8.95 1.29 13.3-4.96 25.3-13.73 49.42-22.92 73.4-4.6 12.01-8.62 24.22-10.73 36.95-.23 1.4-.03 2.86-.23 4.3-.6-5.45.53-10.78 1.13-16.15 2.49-21.95 11.55-41.99 18.09-62.76 3.93-12.5 8.6-24.78 11.05-37.72.72-3.8 1.54-7.56 2.31-11.33z"/><path fill="#000" d="M1014.63 255.09c-4.92-4.95-9.94-9.8-14.73-14.86-6.58-6.96-13.15-13.91-20.33-20.28-7.45-6.62-16.46-10.32-25.5-14.04-1.83-.76-3.09-.65-4.96.14-4.34 1.85-8.87 3.59-13.8 2.42-.56-.13-1.43.22-1.58-.54-.17-.84.39-1.6 1.15-1.95 1.85-.87 3.75-1.61 5.6-2.46 1.76-.81 3.78-1.38 5.15-2.64 1.63-1.5 3.11-1.45 5-1.06 17.97 3.75 31.7 14 43.34 27.74 7.15 8.45 13.86 17.25 20.71 25.94q.33.46.64.94zM663.99 451.54c-3.5 1.02-6.95 2.2-10.48 3.04-10.37 2.45-20.8 3.13-31.3.83a6 6 0 0 1-1.73-.57c-1.25-.72-2.75-1.62-2.34-3.17.33-1.21 1.93-1.2 3.18-1.2 5.47.02 10.94.14 16.4-.02 14.2-.42 28-3.07 41.31-8.06 1.22-.46 2.35-1.36 3.48.23 1.14 1.6-.08 2.58-.93 3.46-4.01 4.18-9.06 6.96-13.98 9.86-2.81 1.65-5.74 3.1-8.66 4.57-.7.35-1.56 1.5-2.3.3-.51-.84-.48-1.91.36-2.85 2.08-2.3 4.74-3.88 7-6.43zM554.78 667.87q-.33-11.42.67-22.8.72-8.05 1.95-16.06c.17-1.09.03-2.94 1.83-3.14 1.86-.21 4.47 2.36 4.83 4.5.68 4.19.23 8.4-.18 12.55-1 10.16-2.36 20.3-3.53 30.44-.48 4.18-.86 8.37-1.28 12.55-.1 1.12-.47 2.04-1.8 2.08-1.3.04-1.66-.8-1.9-1.94-1.24-6.04-.2-12.13-.59-18.18M364.33 279.32c2.6-3.08 6.16-4.54 9.43-6.21 19.47-9.97 39.5-18.56 60.75-24.08 3.87-1 7.8-1.6 11.76-.3 1.4.45 2.6 1.16 3.43 2.41.56.85.77 1.84.24 2.62-.62.88-1.74.74-2.52.22-4.17-2.8-8.48-1.57-12.77-.51-13.4 3.3-26.13 8.45-38.79 13.82-9.27 3.93-18.4 8.2-27.85 11.68-1.06.4-2.2 1.15-3.68.36zM904.8 255.2c-.18-10.93-.03-21.08-.88-31.21-.64-7.67-.76-15.39-1.32-23.07-.6-8.2-1.4-16.37-2.2-24.56-.2-2.2-.54-4.29 1.48-5.94 1.28-1.05 1.97-1.06 2.7.62 1.74 3.99 2.38 8.23 2.96 12.46 1.92 13.95.74 27.86-.51 41.8-.8 8.9-1.18 17.85-1.77 26.78-.05.79-.23 1.58-.46 3.12M726.97 450.72c6.84-2.41 12.9-5.29 19.94-4.46-.42 2.13-2.29 2.76-3.78 3.5-7.1 3.55-14.26 6.94-21.4 10.41-1.17.57-2.45 1.03-3.3 2.25.84 1.53 2.9.52 3.94 1.9-3.05 1.4-5.93.79-8.67-.5-2.76-1.28-3.11-3.88-.78-5.86 2.98-2.54 6.7-3.83 10.15-5.59.86-.44 1.9-.49 1.95-1.94.26-6.66 2.5-13 3.39-19.57.42-3.13 1.01-6.25 1.56-9.37a9 9 0 0 1 .6-2.04c.29-.68.83-1.3 1.62-1.16.7.12.7.86.88 1.46 1.54 4.94.1 9.7-.96 14.44-1.2 5.41-3 10.67-5.13 16.52zm-134-83.95c3.71-4.98 7.2-10.18 12.5-13.73 6.82-4.58 14.5-5.23 22.32-4.4 3.04.31 6.12.08 9.14.88 1.59.42 3.13.77 4.62 1.6-1.06 1.37-2.47.86-3.72.9-7.15.22-14.31.31-21.21 2.54-6.2 2-10.16 6.65-13.63 11.83-1.04 1.55.74 1.48 1.2 1.65a109 109 0 0 1 8.37 3.63 19.7 19.7 0 0 1 8.1 6.94c-8.32-6.2-18.49-7.96-27.76-11.9l.08.07zm-251.55 26.14c-7.05-6.65-38.04-65.57-37.7-71.55 1.6-.16 1.96 1.2 2.58 2.16 9.53 14.55 17.7 29.85 25.05 45.6 2.83 6.07 5.59 12.19 8.36 18.3.75 1.64 1.65 3.25 1.72 5.5zm-.41-55.74c1.63 3.7 2.8 6.52 4.1 9.27.69 1.42.56 2.9-.59 3.57-1.35.8-2.33-.73-2.84-1.71-2.78-5.34-5.74-10.6-7.7-16.31-.38-1.12-1.14-2.74.92-3.67 2.17-.97 2.12 1.06 2.82 1.87 2.93 3.48 6.83 5.65 10.52 8.14-1.94-3.83-4.34-7.33-5.95-11.24-.47-1.12-1.52-2.63.22-3.5 1.6-.8 2.1.92 2.7 1.84 3.47 5.24 7.14 10.38 9.1 16.46.3.9.75 1.82-.24 2.49-.86.58-1.5-.32-2.18-.62a59 59 0 0 1-10.88-6.59m98.2-7.9c1.7 5.72 4.74 10.77 6.54 16.64a4.3 4.3 0 0 1-2.62-1.6 58 58 0 0 1-9.38-18.14c-.31-.97-.74-2.23.07-2.92.94-.82 2.1-.04 3.12.45 4.49 2.15 7.86 5.77 11.94 9.21-1.2-4.37-3.61-7.74-5.15-11.5-.57-1.4-1.55-2.67-1.61-4.26-.04-.92-.94-2.22.49-2.66 1.18-.38 1.35 1 1.75 1.73 3.5 6.33 6.48 12.9 8.81 19.74.37 1.07 2.17 2.24.38 3.76-4.1-4.3-9.56-6.8-14.33-10.45zm290.92 81.86q.76-3.55 1.47-7.1c.36-1.84.6-3.77-.24-5.46-1.31-2.66-.45-5.02.66-7.32A72 72 0 0 1 746 371.6c1.45-1.46 3.92-3.42 5.06-2.4 1.45 1.33-.97 3.26-1.92 4.8-3.95 6.44-8.5 12.5-11.96 19.23-2.5 4.86-3.43 10.24-5.41 15.26-.36.91-.66 1.85-.99 2.77l-.63-.14zm-304.45-69.81c-2.56-6.76-5.83-12.27-7.44-18.46 4.81 7.76 7.78 16.4 12.56 25.04-5.42-2.68-10.19-4.97-14.82-9.02.84 2.1 1.39 3.6 2.03 5.06.66 1.47 1.48 2.87 2.1 4.37.6 1.5 2.49 3.69.89 4.5-1.8.9-2.72-2.01-3.45-3.35-2.2-4.03-3.95-8.31-5.76-12.54-.65-1.52-1.1-3.14-2.39-4.24-1.06-.91-.45-1.65.1-2.36.69-.89 1.3-.4 2.05.13a209 209 0 0 1 14.12 10.87zm-22.4-12.9c6.12 8.27 11.13 17.04 13.2 27.34-5.19-5.02-11-9.13-17.23-14.27 2.25 5.85 5.02 10.53 6.23 15.83-5.21-6.14-6.85-14.12-10.67-21.13 6.35 1.64 10.58 6.6 16.07 10.26-1.96-6.46-6.5-11.54-7.6-18.03m304.66 63.26c-7.94.06-12.55-4.88-12.64-10.78-.06-4.2 5.26-9.56 9.45-9.63.55 0 1.3-.3 1.58.5.33.99-.43 1.2-1.09 1.7-4.64 3.57-5.14 6.5-2.46 11.93 1.03 2.08 5.79 4.36 7.88 3.67 1.3-.43 1.48-2 1.94-3.2.75-1.93.83-4.27 3.14-5.25.5-.22.91-.98 1.6-.4q.87.75.8 1.92a9.97 9.97 0 0 1-10.2 9.53zm-343.18-20.6c.04 5.15-1.28 6.67-4.84 6.33a3.4 3.4 0 0 1-2.7-1.75c-3.8-5.82-7.27-11.8-9.89-18.29-.76-1.89-.2-2.74 1.42-3.23 2.62-.8 6.53-2.21 7.6.27 1.84 4.22 5.98 6.68 7.26 11.13.57 1.98 1.33 3.87 1.15 5.53zm-4.15 2.64c2.33.02 2.3.03 1.77-2.12a19 19 0 0 0-4-7.73c-.55-.65-1.04-2.04-2.36-.87-1 .89-1.98 1.64-.93 3.27a47 47 0 0 1 3.1 5.93c.55 1.2 1.26 1.78 2.42 1.52m-7.35-10.55c1.46-2.08 1.9-4.2 2.69-6.17.49-1.22-.02-2.08-1.4-1.89-1.9.26-4.02-.79-5.66.87-.09.09.31.7.52 1.04zm248.57 27.45c-.18 8-2.85 14.49-9.51 19.08-3.12 2.14-6.08 4.53-8.42 7.57-.41.54-.98 1.4-1.72.91-.8-.51-.25-1.52.08-2.06 1.9-3.17 3.83-6.42 6.72-8.73 5.17-4.14 7.39-9.33 6.77-15.85a6.6 6.6 0 0 1 1.73-4.98c.68-.82 1.15-1.62 2.41-1.37 1.15.23 1.17 1.15 1.53 1.98.52 1.21.3 2.43.41 3.45m-119-24.76c-2.94 2.79-6.2 4.67-9.42 6.53-9 5.17-18.33 9.6-28.43 12.2-1.52.4-3.93 1.05-4.43-.34-.72-1.95 1.88-2.39 3.21-2.94 12.6-5.22 24.98-10.95 37.85-15.5.26-.1.59.02 1.22.05m394.1 386.25c3.72 6.4 2.13 12.98 1.17 19.51-.42 2.8-.97 5.59-1.5 8.37-.24 1.29-.98 2.55-2.23 2.56-1.19 0-1.92-1.1-2.34-2.43a18 18 0 0 1-.7-6.64c.47-7.44.1-14.96 1.62-22.33.24-1.15.68-2.1 2.2-2.15-2.13 8.1.03 16.38-1.57 24.46 1.86-4.43 2.26-9.16 2.98-13.8.18-1.18-.61-2.51-.95-3.78-.4-1.48-.45-2.86 1.34-3.77zM374.8 329.55c-.59-2.98.17-6.02-.7-8.89-.2-.73-.54-1.98.46-2.48 1.02-.5 1.68.48 2.3 1.13q4 4.27 7.97 8.54l.65-.53c-1.52-5.64-3.03-11.28-4.6-17.06 2.7.56 3 2.8 3.61 4.58 1.4 4.02 2.57 8.12 3.8 12.2.25.82 1.21 1.82.25 2.51-.94.67-2.1.33-3.12-.35-1.88-1.26-3.78-2.47-5.3-4.17-.96-1.08-1.94-2.14-3.36-3.7-.65 4.25.5 7.52 1.48 10.85.24.85 1.5 1.9.24 2.74-1.34.88-2-.57-2.73-1.3-4.44-4.49-8-9.62-11.25-14.97l.68-.56zm6.11 21.34c2.33-4.4 3.6-4.48 6.02-.64a63 63 0 0 1 3.63 6.38c1.01 2.13 1.9 4.42-.4 6.4-1.99 1.72-6.07 2.2-7.97.46-4.52-4.13-7.38-9.26-7.9-15.48-.2-2.35 1.33-3.93 3.09-4.96a3.06 3.06 0 0 1 3.95.62c-3.9-.38-5.17 1.38-4.27 5.27 1.13 4.95 3.85 8.9 7.28 12.5.97 1.01 2.06 1.63 3.24.93 1.37-.82.68-2.13.26-3.3a174 174 0 0 1-2-5.79c-.76-2.34-1.47-4.68-4.92-2.39zm-14.32-4.6c-.65.27-1.36.46-1.94.83-1.16.72-3.44.63-3.14 2.49.4 2.49 3 3.75 5.36 3.22.85-.2 1.75-.18 2.66-.26-.27 2.22-3.73 1.9-3.2 4.08.42 1.71 1.9 3.13 2.73 4.77 1.09 2.15 2.54 4.13 2.62 6.75.05 1.44 1.08 2 2.6 1.21 1.02-.52 2.18-.77 3.4-1.19-.12 1.86-1.64 2.09-2.52 2.8-1.67 1.33-2.77 2.06-4.66-.79-2.53-3.82-5.74-7.25-8.05-11.3-1.25-2.2-2.37-4.5-3.62-6.7-1.1-1.94-.46-3.3 1.32-4.27 1.98-1.07 4.1-1.7 6.44-1.64m276.81 8.16a4 4 0 0 1 .27 3c-1.07 4.35 1.12 6.28 5.53 6.56 7.5.48 14.31-1.56 20.93-4.54 6.34-2.85 11.79-7.21 17.46-11.17 1.77-1.25 3.46-2.64 6.27-3.62a29 29 0 0 1-8.81 8.07c-8.94 5.62-17.96 11.05-28.53 13.17-3.48.7-6.97.41-10.43.26-2.02-.09-2.87-2.13-3.47-3.87-.85-2.5-1.2-5.03.78-7.87zm-242.64 3.83c-.06.9.1 1.57-.7 1.85-.87.3-1.68.17-2.23-.55-.93-1.22-1.92-2.43-2.61-3.79a681 681 0 0 1-7.03-14.23c-.35-.71-.45-1.56-.56-2.36-.11-.77.22-1.47.9-1.81.82-.4 1.62-.18 2.18.57.8 1.05 1.74 2.04 2.33 3.2 2.52 5.07 5.26 10.03 7.2 15.36.25.67.4 1.36.52 1.75m252.76 144.87c.09 1.56-.65 2.43-1.9 2.88-2.48.9-5.07 1.49-7.3 3.04-.55.38-1.78.55-1.96-.02-1.25-4.11-4.83-2.33-7.24-2.62-4.74-.56-9.56-.43-14.7-1.77 6.69-1.94 12.85-.24 19.02.07 1.89.09 3.53.52 5.42-.79 2.56-1.77 5.74-.63 8.66-.79M437.7 348.2c-5.52-7.9-10.42-16.03-13.2-25.38 2.73-.34 3.76.84 4.6 2.84 2.61 6.18 5.43 12.28 8.2 18.4.6 1.32.75 2.64.39 4.15zm41.2 33.79c-6.53 3.8-12.87 7.83-19.84 10.67-.7.28-1.46.5-2.04-.05-.73-.68.29-1.29.27-1.91a3.1 3.1 0 0 1 1.75-3 49 49 0 0 1 19.85-5.71zm-10.14 19.58c-.22-1.2.03-1.92 1.89-2.23 3.17-.53 6.25-1.67 9.37-2.52.76-.2 1.79-.55 2.1.5.3.96 1.1 2.16-.23 3.05-2.72 1.8-5.33 3.83-8.22 5.3-2.6 1.32-4.84-.6-4.9-4.1zm-101.98-64.89c-1.18 3.49-3.98 4.25-6.44 5.3-1.32.55-2.08-.8-2.6-1.7-2.85-4.88-4.7-10.2-6.8-15.4-.77-1.93 1.07-3.08 2.27-4.22 1.23-1.17 2.44-2.47 4.32-2.55.13 0 .45.5.4.65-.6 1.58-2.17 2.2-3.45 2.9-2.46 1.31-2.15 2.24-1.19 4.84 1.72 4.63 4.56 4.7 8.25 3.65.24 1.14-.52.94-.85 1.08-4.24 1.98-4.58 3.75-1.5 7.29.74.84 1.49.64 2.18.4 1.68-.6 3.3-1.35 5.4-2.23zm349.96 132.25c.9-.05 1.54.36 2.08.8q2.87 2.31 5.67 4.72c.84.71 1.3 1.34.52 2.58-.7 1.08-1.43 1.45-2.51 1.2-2.8-.65-5.4-1.82-7.98-3.06-1.46-.69-1.56-2.05-1.17-3.15.55-1.51 1.93-2.44 3.39-3.09m-248.5-131.96c-2.5 1.02-4.12 1.2-5.94-.29-6.29-5.16-9.76-11.59-9.75-19.82 0-2.41 2.52-4.62 4.8-3.92.83.25 1.48.7 1.48 1.7.02 1.2-.92.84-1.55.9-2.02.17-2.74 1.27-2.78 3.27-.17 7.45 5.87 15.85 13.74 18.16m385.04 444.54c1.7-.95 2.11-2.52 2.35-4.33.92-7.06.5-14.14.58-21.22.01-1.44.05-2.82 1.18-4.07a4 4 0 0 1 1.26 3.83c-1.14 6.43-.38 12.91-.53 19.36a14 14 0 0 1-.93 5.08c-.65 1.57-1.85 2.94-3.81 1.26zM731.58 362.6c1.99-.45 3.1.88 3.83 2.55a68 68 0 0 1 2.47 6.53c.19.6.64 1.72-.55 2.02-.92.22-1.95.86-2.77-.33-1.8-2.59-3.8-5.05-5.37-7.77-1.3-2.25-.43-3.26 2.4-3.01zm-422.27-72.62c.1.54-.18.66-.48.74-.6.16-.95-.28-1.32-.62l-7.96-7.3q-2.73-2.5-5.41-5.05c-.83-.79-1.7-1.82-.95-2.93.92-1.37 1.81-.07 2.55.45 5.37 3.75 9.33 8.86 13.27 13.98.18.23.24.56.3.73m527.14 453.13c-2.94.03-5.13-1.93-4.97-4.35.14-1.98.26-4.16 3.13-4.2 2.5-.02 4.98 2.6 4.87 5.27-.09 2.14-1.53 2.94-3.03 3.28m-29.04-388.9c2.1-4.95.55-10.25 1.68-15.32 1.1-4.96 1.88-10 2.8-15 2.36 3-.4 22.76-4.48 30.33z"/><path fill="#000" d="M853.36 781.43c-1.57-.38-1.39-1.98-1.39-2.85.02-9.42.32-18.84 1.89-28.17.04-.25.37-.46.73-.86 2.23 3.28.2 6.51.09 9.62-.26 7.46-1.63 14.85-1.42 22.34zM591.78 496.37a78 78 0 0 1-19.42 8.95c-1 .31-2.12-.05-2.25-.93-.14-.92 1.04-1.43 1.88-1.7 5.35-1.76 10.71-3.44 16.07-5.14zm158.44-12.69c-4.28.72-4.97-2.34-5.86-4.6-.97-2.46.09-4.81 2.42-5.96 2.8-1.38 4.44.76 6.3 2.84-2.06.83-4.7.27-5.65 2.49-1 2.29.88 3.6 2.8 5.23zM466.96 334.3a67 67 0 0 0-.65-9.32c-.46-3.56-1.07-4.18-4.59-3.87-.85.07-2.25.64-2.43-.44-.17-1.07.88-1.93 2.19-2.14 1.72-.27 3.43-.3 4.37 1.37 2.4 4.28 3.35 8.85 2.2 13.73-.1.43-.4.7-1.1.68zm343.55-12.6c-.56 1.92-1.6 2.14-2.6 1.8-3.45-1.14-7-1.23-10.57-1.15-.9.01-2.13.07-2.2-1.12-.06-1.22 1.44-1.14 2.08-1.2 2.82-.25 5.72-.56 8.42.61 1.5.65 2.95 1.33 4.87 1.06m18.23 470.75c2.51-1.28 5.44-.53 6.69 1.53.62 1.04.73 2.19 0 3.19-1.16 1.6-2.92 1.27-4.53 1.12-1.6-.15-3.06-.8-3.69-2.36-.37-.91-.4-2.21 1-2.5 2-.38.56 1.1.78 1.67.35.91.87 1.67 1.84 1.85.82.16 1.37-.5 1.68-1.15.47-.98.5-2.02-.43-2.8-.95-.81-2.02-1.3-3.34-.55M424.97 366.9c-.8-.02-1.57.13-1.95-.98-.45-1.33.5-1.74 1.26-2.03 2.38-.89 4.8-1.63 7.23-2.4.5-.15 1.02-.06 1.36.42.4.58-.02.95-.37 1.28a14 14 0 0 1-7.53 3.71m519.19-5.51c1.29-5.52.8-11.4 3.43-16.64l.9.18-3.41 16.65zm-239 16.72c.09.06.53.22.53.39 0 2.65 1.9 3.02 3.88 3.27.8.1 1.04.52.9 1.24-.16.75-.53 1.36-1.36 1.44-1.77.17-2.89-.92-4.17-1.93-1.38-1.09-.87-2.36-.94-3.61q-.06-.94 1.16-.8m47.8-34.14c2.78-3.71 6.8-5.4 11.1-6.6zm192.1 21.92c5.36-.67 9.35.99 13.3 2.88zm16.08-33.97c.64 5.31-1.58 7.15-7.32 5.55 4.1.19 7.11-.97 7.32-5.54zM553.53 418c-1.2-.34-1.32-1.18-1.54-1.76-.39-.99-1.27-1.93-.72-3.11.07-.15.56-.25.75-.16 1.28.63 1.3 1.92 1.49 3.1.1.58.02 1.2.02 1.93m252.04-88.7c-.01-1.9.25-3.19 1.65-3.75.63-.25 1.18.36 1.27.99.24 2-1.45 2-2.91 2.76zM366.95 832.03c-.73-.97-1.37-2.04-2.21-2.91-.96-1-2.34-1.66-3.54-.77a2.7 2.7 0 0 0-.94 3.48c1.33 3.1 3.22 6.02 3.93 10.09-1.87-3.42-3.42-6.23-4.95-9.07-1.07-1.98-1.7-4.05.1-5.92 1.23-1.29 2.85-1.03 4.25-.28 2.1 1.13 3.85 2.59 3.35 5.38zM982.2 310.85c-1-5.2-2.87-.57-4.58-.75l-.68-8.02c2.31 1.98 1.6 3.93 1.84 5.6 1.34.52 1.83-2.84 3.7-.6 1.15 1.38 1.27 2.26-.27 3.77zm-16.95-6.2c-1.69.34-3.46.29-3.7-1.17-.35-2.15.49-4.33 1.57-6.26.15-.26 1.46-.55 1.41.7-.02.6-.13 1.23-.36 1.77-.77 1.83-1.11 3.55 1.09 4.96zm3.83-1.98c1.24 1.02-.17 3.5 1.61 3.34 2.42-.2 1.67-2.76 2-4.58 2.56 1.44 1.13 3.15.38 4.43-.91 1.54-2.76 1.66-4.05.73-1.5-1.07-.91-2.57.06-3.92m-4.37 16.59c-2.23-.4-4.94-.69-5.47-2.66-.68-2.47.88-4.96 2.57-7.4.37 1.97-.53 3.27-.98 4.66-.62 1.91-.82 3.48 1.81 3.92.71.12 1.52.48 2.07 1.48m5.75.36c-1.02-.8-.68-1.86-1.17-2.6-.84.3-.38 2.2-1.66 1.57-1.16-.58-.34-1.72.15-2.35.7-.89 1.67-1.55 2.81-.49 1.44 1.33.47 2.58-.13 3.87"/><path fill="#000" d="M962.69 316.14c-1.03-2.32-.6-4.3 1.45-6.47.9 2.87-.66 4.58-1.45 6.47m15.33 151.75c-1.34-.85-1.99 2.38-3.19.49a6.3 6.3 0 0 1-.93-3.67c.13-1.4.58-3.22 2.56-3.04 1.82.17 3.91.89 3.9 2.96 0 .8.74 4.04-2.34 3.25zM635.16 265.1c.31 1.98-.64 3.5-1.15 5.12-1 3.2-.2 4.4 3.07 4.46 1.13.02 2.25 0 3.66 0-.88 3.48-3.7 4.11-6.26 4.79-1.79.47-3.97.58-5.07-1.26-1.4-2.32-1.55-5 .2-7.25 1.62-2.06 2.27-5.14 5.56-5.87zm27.34-2.4c-1.32.02-4.18-4.41-4.21-6.66-.02-1.74 1.55-2.36 2.68-2.38 3.38-.09 5.82 1.9 5.8 4.28 0 2.78-1.75 4.72-4.27 4.76m-16.8 39.81c-1.56 0-2.8.06-4.03-.01a2.64 2.64 0 0 1-2.5-2.26c-.13-1.23 1.27-1.8 2.4-1.94 1.31-.17 2.7-.21 4-.02 2.8.42 5.59 1 8.36 1.58.7.15 1.47.52 1.27 1.43-.17.79-.98.64-1.55.6-2.8-.16-5.48 1.07-7.96.62zm-18.35-42.41c.63 1.63.02 3.19-.7 4.82-.63 1.39-1.68 1.43-2.42.7-1.51-1.53-2.73-3.28-2.68-5.65.05-2.16 2.03-2.87 3.1-4.2a1.6 1.6 0 0 1 2.7 1.42z"/></svg>