<svg xmlns="http://www.w3.org/2000/svg" width="1080" height="1080" fill="none" viewBox="0 0 1080 1080"><path fill="#fff" d="m306.11 209.04 4.65-1.63c-2.1-.92-3.73-1.6-5.32-2.33-4.23-1.96-8.34-3.83-10.53-8.58a8.5 8.5 0 0 1-.37-7.12q1.69-4.54 3.35-9.07c.62-1.7.15-3.65-1.47-3.74-4.97-.28-5.68-4.39-8.01-7.75 1.14-.66 2.02-1.53 3.03-1.7 3.76-.68 6.16-2.5 7.18-6.38 1.43-5.38 3.48-10.61 4.85-16.01 1.21-4.84 1.87-9.82 2.73-14.75.37-2.17 2.37-4.48 4.5-4.83 6.53-1.1 13.05-2.38 19.63-3.05 3.1-.31 6.32.64 9.5 1.01l10.49.86 12.4-.03 3.97-.06 8.55-.75c5.53-1.18 11.03-2.24 16.78-2.38 3.44-.08 6.83-2.08 10.25-3.17 1.1-.35 2.22-.54 3.34-.82 2.5.02 5 .17 7.5.02 2.41-.14 4.8-.58 7.2-.9 4.2.2 8.5-.92 12.52.99 1.65.78 3.22 1.73 4.8 2.67.57.34.96 1.04 1.55 1.28 9.16 3.7 17.37 9.62 27.34 11.4 7.21 1.3 14.43 2.57 21.58 4.13 5.56 1.22 8.08 5.57 9.85 10.51.84 2.33 1.36 4.98 2.84 6.81 1.73 2.13 4.27 3.67 6.66 5.14 1.36.83 3.23.77 4.68 1.49 7.2 3.56 13.83 1.3 19.71-2.71 3.95-2.7 6.93-6.82 7.31-12.08.03-.34-.07-.69-.02-1.02q.82-4.75-4.08-5.15c-.68-.32-1.35-.92-2.04-.92-3.8-.02-7.6.1-11.4.18l-3.16 1.64-10.18.22c-.26-1.91.8-2.5 2.48-3.13 5.9-2.2 11.54-5.24 17.58-6.8 4.14-1.06 6.25-3.7 7.44-6.82.92-2.38 2.56-3.44 4.18-3.62 2.48-.28 3.14-1.83 3.75-3.5 3.9-10.57 11-19.06 17.72-27.8.5-.65 1.3-1.3 1.35-2.01.27-3.56 2.63-2.74 5.55-2.66l-5.08 11.85c5.14-2.3 9.4-3.85 13.27-6.06 5.31-3.04 10.26-6.72 15.5-9.89 4-2.42 6.2-6 7.73-10.2.3-.85 1.04-1.55 2.1-3.08.94 4.53 4.23 7.45 2.56 12.65 11.04-6.6 22.18-9.7 34.11-9.84l8.29-.8 4.1.02 8.25.79 8.22-.1 3.16.5c-1.38 3.57-4.41 3.77-7 3.66-4.99-.18-9.54.94-13.9 3.16-1.01.51-2.23.93-2.89 1.76-.88 1.1-1.32 2.56-1.95 3.88 1.31.53 2.6 1.24 3.97 1.56 5.4 1.27 10.74 1.82 15.71 5.45 4.41 3.23 10.47 3.8 16.32 2.23 7.22-1.92 14.55-3.3 22.07-3.51 1.29-.04 2.56-.6 3.83-.9 2.91-.73 5.96.78 7.66 4.22-.53.36-1.19.95-1.97 1.3-5 2.16-6.23 7.09-8.48 11.31-.9 1.7.26 1.97 1.32 2.43l7.19-.82c.68-.05 1.36-.17 2.04-.14 6.13.29 6.9 1 7.53 6.95 13.03 5.11 22.03 14.77 29.24 26.37a40 40 0 0 1 3.34 7.16c2.15 5.69 1.22 7.66-4.34 10.03-.77.32-1.51.71-2.5 1.18l6.96 4.3c-2.03 4.33-5.95 4.98-9.42 6.78 1.2 1.4 2.25 2.6 3.45 3.98-3.29 3.7-7.74 3.77-11.6 3.87-7.94.2-13.83 4.37-19.43 9.02-1.72 1.43-2.05 4.5-3.18 6.71-1.66 3.26-3.47 6.44-5.2 9.65-.65 1.16-1.25 2.36-1.91 3.5-.8 1.38-1.85 2.51-2.93 3.68a38 38 0 0 0-6.21 9.6c-2.07 4.44-3.56 9.16-5.16 13.8-.47 1.38.52 1.77 1.77 1.56l7.05.2c.45.63.78 1.51 1.4 1.81 4.26 2.09 5.3 4.96 3.1 9.15-3.23 6.11-6.63 12.12-10.72 17.74-1.8 2.48-2.4 5.78-4.7 8.1-2.25 2.29-4.22 4.88-6.62 6.97-1.26 1.1-3.19 1.43-4.82 2.11l-23.54.28c-6.95-1.09-13.42-3.57-19.64-6.8-1.65-.87-3.56-1.27-5.38-1.89-.26 2.18-.02 3.88-.71 5.02-.83 1.37-2.32 2.48-3.75 3.34-4.28 2.57-8.69 4.93-12.98 7.48-.8.48-1.29 1.48-2.05 2.4 1.71 2.25 2.9 4.3 6.12 4.87 4.83.85 8.58 6.16 8.72 10.35.09 2.9-1.84 4.3-3.55 5.77-1.4 1.17-2.2 2.47-3.14 4-3.83 6.26-.92 12.37-.3 18.58.55 5.59 4.81 8.95 7.46 13.27.42.68 1.66 1.03 2.57 1.19 2.25.39 4.12 1.4 4.17 3.76.06 2.4.76 5.2-2.03 6.88-1.7 1.02-3.35 2.13-5.56 3.53 2.04 7.87 3.92 16 6.12 23.8 7.09-2.54 13.2-4.94 19.44-6.88 4.33-1.35 10.43 1.3 12.55 5.36 2.22 4.26 4.25 8.67 5.89 13.18 1.51 4.18 2.4 8.6 3.58 12.9l.6 1.17c.18 4.77.44 9.53.53 14.3.1 6.3-2.84 11.17-7.97 14.47-6.94 4.48-14.1 8.62-21.25 12.78-1.86 1.08-4.06 1.52-5.97 2.53-10.28 5.43-20.73 10.57-30.7 16.55-6.4 3.85-12.06 8.95-18.07 13.46a26 26 0 0 1-3.35 2.23c-4.63 2.45-6.4 7.46-4.26 12.31 1.76 4 3.03 8.33 5.41 11.92a22 22 0 0 0 7.8 6.92c3.1 1.63 5.41 3.91 7.82 6.23 5 4.86 3.5 12.75-3.2 14.18-4.92 1.05-7.53 5.26-11.9 6.86-1.05.4-.04 2.9-1.66 4.35a52 52 0 0 1-14.51 9.4l-6.07.32c-1.6-1.13-3.36-2.09-4.68-3.48-.44-.46-.08-2.32.5-3.01a17 17 0 0 1 4.21-3.42c4.04-2.32 8.43-4.12 12.22-6.77 3.55-2.49 6.53-5.8 10.05-9.02l4.07-.17 1.17-4.95c-4.02-2.16-8.09-1.28-12.16-.2l-12.35.19.12-.24c-4.83-1.81-9.66-1.04-14.48 0l-16.27.28-9.46.85c-8.12-.74-15.9 2.04-23.94 2.25-.22 0-.42.47-.62.72h-8.92l-.43 3.21a259 259 0 0 1-39.96 8.64c1.36 3.43 4.45 3.89 7.12 4.67 4.12 1.21 8.34 2.08 12.52 3.12.8.2 1.55.53 2.33.81 1.47.54 2.77 1.16 2.84 3.1.07 2.08-1.14 2.83-2.84 3.59-5.27 2.37-10.38 5.16-15.73 7.35a63 63 0 0 1-11.85 3.44c-1.28.25-3.01-1.02-4.32-1.9-2.92-1.97-5.72-4.13-8.54-6.24-3.17-2.37-3.64-3.6-1.92-7.23 1.25-2.65 3-5.05 4.8-7.98a51 51 0 0 0-21.81 4.21c1.6 1.5 4.16 2.8 4.31 4.34.14 1.43-2.26 3.13-3.64 4.82l3.37 4.5c-6.01 3.8-12.28 6.4-18.69 8.66-.97.35-2.32-.11-3.44-.4-1.54-.4-3.03-.98-5.12-1.68 1.67 2.56 4.48 3.95 2.93 7-3.66 1.38-6.88-.2-9.04-2.61-4.78-5.32-11.23-7.1-17.49-9.32-3.72-1.32-7.75-1.83-11.43-3.25-2.98-1.16-6.07-2.42-8.12-5.3-.93-1.3-2.4-2.22-3.9-3.55 6.14-12.25 14.68-23.17 21.91-34.9 7.26-11.76 17.9-20.85 25.05-32.2-2.2-1.31-4.07-2.63-6.1-3.6-3.72-1.78-7.55-3.38-11.34-5.05a399 399 0 0 0-5.51-2.36c-5.27-2.22-8.28-5.86-7.45-11.9l.34-2.53.46-1.27v-3.05c-5.11 4.72-9.44 9.27-12.8 14.73-4.28 6.92-8.1 14.15-13.94 19.98-1.06 1.05-2.27 1.95-3.75 3.22 1.35 3.74-3.24 5-4.14 8-3.44 1.22-5.66-.18-7.78-2.55-1.53-1.72-3.5-3.08-5.37-4.49-6.36-4.79-12.45-10.03-20.36-12.3-.89-.26-1.57-1.23-2.5-1.08-2.3-.18-4.6-.38-7.07-.59 1.18 11.28-6.01 19.38-12.97 27.49-3.1 3.6-6.49 6.99-10.55 9.68-1.72 1.14-2.84 3.19-4.23 4.82l-8.39.05c-5.98-4.9-10.27-11.02-12.43-18.4-.83-2.82-.72-5.94-.83-8.92-.07-2.2.22-4.4.35-6.62l-.13-2.14c1.74-8.16 5.53-15.5 9.38-23.23l-19.89-10.78c-1.67 2.7-3.24 5.03-4.55 7.5-.4.74-.43 2-.06 2.78 1.4 2.97-.27 4.88-2.2 6.53a76 76 0 0 0-10.88 11.64c-.62.8-1.33 1.56-1.98 2.34-2.73 3.27-5.74 5.86-10.78 3.68-.6-2.07-.32-3.67 1.97-5.92a123 123 0 0 0 14.63-17.27c2.58-3.71 3.58-8.52 5.45-13.2-3.59-1.28-7.3-2.61-11.02-3.92-2.32-.82-4.77-1.34-6.94-2.44-6.43-3.26-7.8-8.22-4.84-15.06.96-2.2 1.02-4.8 1.5-7.22l.02-1.87c.6-.56 1.43-1.02 1.74-1.72q2.35-5.22 4.39-10.57c.9-2.36-.67-3.9-3.3-3.7-5.4.43-9.45-2.49-13.07-5.93-1.54-1.46-1.24-1.95-.36-5.82 6.92-1.05 12.75 4.51 19.73 3.76.27-3.3-1.7-5.23-3.65-7.12q-7.37-7.14-14.76-14.22l-.06-7.23c1.52-5.7 5.66-9.8 8.94-14.37 5.15-7.2 10.78-14.03 15.98-21.18 3.03-4.17 3.53-4.45 7.9-1.4 1.65-3.9 3.73-7.52 3.23-12.03-.35-3.05.83-5.5 3.87-6.94 2.77-1.31 4.84-4.21 8.44-3.53.28.04.75-.17.9-.4 3.18-4.93 9.22-6.05 13.2-9.96 2.09-2.05 4.83-3.45 7.29-5.13.4-.75 1.05-1.49 1.13-2.27.13-1.28-.1-2.6-.19-3.91 2.03-1.84 3.83-4.38 7.1-2 .4.3 1.38.1 1.92-.17 2.36-1.23 5.83-9.03 5.3-11.77-.08-.45-.38-.85-.57-1.28l.14-2.14-.08-3.99.62-1.24c3.24-2.9 3.54 1.14 5.68 2.74l7.2-12.39c-2.15-2.58-5.84-3.28-5.6-7.04.18-2.82-.22-5.58 1.24-8.37 1.28-2.43 1.55-5.39 2.34-8.34-4.98.54-4.8-3.46-5.8-7.01 1.94-1.14 3.71-2.9 5.7-3.18 5.47-.82 7.27-4.8 8.84-9.12.56-1.53.75-3.25 2.77-3.61 3.15-.42 6.54 1.22 9.46-1.1zm-44.28 260.43c-.76 1.54-1.07 3-1.95 3.82-5.33 4.89-6.9 11.94-9.72 18.05-2.04 4.43-1.16 10.26-1.36 15.46-.07 2.08 2.97 5.93 4.64 6 3.66.15 7.43.68 10.54-2.22 1.95-1.8 3.95-4.07 6.33-4.75 2.07-.6 3.17-1.8 4.43-3.04 3.72-3.67 6.7-7.49 6.17-13.42-.3-3.26 1.29-6.68 2.18-10.7-1.9-.8-4.38-2.74-6.77-2.63-4.13.2-7.02-1.8-10.14-3.7-1.42-.86-2.77-1.83-4.34-2.87m181.2 89.48c2.18 0 3.25.21 4.2-.03 3.73-.97 7.27-2.71 11.4-1.04 1.4.58 3.42-.33 5.82-.64l-14.18-7.65zm151.82 211.36-.1-6.07-.22-3.1-.44-7.13-.57-1.17c-.74-8.5-2.95-16.34-9.59-22.34-9.08-8.2-16.38-18-24.36-27.2-3.09-3.56-7-6.37-10.41-9.67-2.4-2.3-4.56-4.81-6.78-7.2.24-1.23 1.1-2.88.6-3.71-1.75-2.88-.6-4.73 1.41-6.7 5.2-5.05 10.29-10.25 15.53-15.26 2.93-2.8 6.14-5.33 9.15-8.05 10.22-9.25 21.84-16.53 33.33-24 .9-.58 1.62-1.47 2.37-2.26 1.26-1.31 2.48-2.67 3.63-3.93 6.73 3.35 8.93 9.8 12.06 15.42a220 220 0 0 1 8.77 18.11c.96 2.19 1.06 4.76 1.6 7.38l-3.77.46c-.04.22-.2.55-.1.74 3.52 6.66 6.99 13.34 10.6 19.94 3.86 7.08 7.87 14.08 11.75 21.15.39.7.62 1.65.53 2.44-.64 5.45 2.35 10 3.62 14.97.56 2.17 1.6 4.2 2.41 6.3l.41.96.1 5.01.52 1.32c.13 3.19.98 6.17 2.03 9.2 3.96 11.46 8.02 22.91 11.18 34.59 2.16 7.99 5.95 15.16 9.12 22.64 4.54 10.7 9.5 21.21 14.21 31.84 1.06 2.41 1.52 5.11 2.74 7.43 1.4 2.64 3.37 4.98 5.05 7.48 1.04 1.53 2.1 3.06 3 4.67 6.08 11.03 11.87 22.24 18.3 33.07 3.65 6.15 8.23 11.78 12.58 17.49 2.74 3.57 4.45 3.69 7.84.36 3.57-3.5 6.78-7.38 11.03-12.07h7.67l7.3.96-.12.22a25.3 25.3 0 0 0 14.48.05c13.67-4.27 27.72-6.7 41.88-8.61h4.35l5.21 3.91c7.43-2.68 15.53-5.93 23.26-10.11 3.47-1.89 7.23-3.24 10.76-5.03 3.38-1.71 6.56-3.87 9.99-5.48 6.1-2.86 12.34-5.45 18.28-8.05 3.22 2.59 2.48 5.5 1.74 7.92-1.82 5.97-4.58 11.44-9.17 15.97-12.4 12.22-24.53 24.73-36.97 36.91-4.55 4.46-9.58 8.47-14.56 12.46-5.35 4.27-10.93 8.24-16.37 12.41-6.36 4.87-12.46 10.1-19.04 14.64-7.47 5.16-13.02 12.17-19.34 18.44-1.53 1.52-3.32 2.79-5.05 4.08-4.27 3.2-4.95 6.67-2.33 11.25a17 17 0 0 1 2.15 5.44c.17 1.05-.63 2.74-1.54 3.41-5.47 4.03-10.69 8.4-17.37 10.59-2.93.96-5.45 3.16-8.17 4.76-1.58.93-3.14 1.89-4.8 2.66-2.38 1.12-4.23.6-6.37-1.24-4.96-4.25-7.37-9.93-9.83-15.65-3.76-8.78-7.6-17.62-13.57-25.1-7.3-9.14-12.78-19.27-17.92-29.64-3.87-7.82-2.44-14.03 4.16-19.94.25-.21.39-.54.87-1.24-2.76-3.57-5.4-7.47-8.52-10.93a452 452 0 0 0-16.2-16.96c-8.86-8.86-16.74-18.56-24.45-28.41-6.22-7.94-12.7-15.69-19.15-23.46a4012 4012 0 0 0-26.26-31.44c-6.04-7.15-9.92-15.38-12.35-24.32-.68-2.55-.8-5.27-1.02-7.94-.37-4.5-.61-9.01-.9-13.52l.14-2.14zm-184-106.45c2.3-.38 4.69-1.32 6.89-1.01 2.73.38 5.4 1.62 7.93 2.84 4.94 2.4 9.85 4.9 14.61 7.64 12.07 6.95 23.83 14.48 37 19.34.3.12.57.6.79.55 4.43-.9 7.92 2.89 12.2 2.39 1.53 2.24 1.54 4.29.97 7.05-1.8 8.64-7.29 14.98-12.29 21.67-3.71 4.97-7.8 9.67-11.4 14.73q-11.21 15.74-30.13 18.92c-4.93.83-9.69-.98-14.22-2.55a96 96 0 0 1-14.84-6.8c-5.1-2.81-9.8-6.31-14.8-9.34-7.72-4.7-15.5-9.28-23.32-13.84-5.3-3.11-10.7-6.06-16.03-9.14-5.75-3.32-11.42-6.77-17.18-10.08-14.07-8.05-28.18-16.03-42.24-24.1-1.27-.72-2.33-1.82-3.91-3.09-5.64 9.76-13.4 13.47-23.63 8.25-5.09 7.31-9.95 14.45-14.97 21.47-6.6 9.27-12.96 18.73-17.5 29.16-3.27 7.52-5.66 15.42-8.28 23.21-.73 2.19-.93 4.56-1.36 6.84-.68 3.58-1.24 7.2-2.07 10.74-.72 3.06-2.07 3.72-5.4 4-10.14.87-18.1-4.18-25.94-9.45-1.93-1.3-3.74-3.03-3.69-5.77l-.5-1.3-.23-7.96.55-2.3.72-10.13.35-1.42.04-9.87.13-1.12c-.21-7.93 2.02-15.54 3.29-23.26.8-4.9 2.35-9.68 3.36-14.57 1.05-5.01 1.75-10.1 2.79-15.1.5-2.43 1.33-4.79 2.14-7.14 2.04-5.92 4.15-11.82 6.24-17.72l.48-1.35-.02-1.65-2.41-1.47c-.76-1.07-1.4-2.25-2.3-3.19-1.45-1.5-1.18-2.62-.22-4.43 3.46-6.5 6.6-13.16 9.78-19.81a133 133 0 0 0 3.57-8.41c1.66-4.27 3.45-5.12 7.92-4.12 4.37.96 8.85 1.5 13.22 2.53 3.2.76 6.4 1.77 8.82 4.3.39.4 1.22.38 1.84.55 3.83 1.7 7.67 1.32 11.5.03 4.55-.34 8.65.6 12.34 3.55 1.3 1.03 3.38 1.07 5.07 1.64 6.73 2.3 13.27 5.1 20.3 6.55 2.5.52 4.79 2.26 7.07 3.6 2.32 1.37 2.82 3.76 2.64 6.17-.13 1.79-.82 3.54-1.31 5.52 7.54 2.7 15.4 3.5 23.36 3.75l8.54.82c22.67 2.16 44.65 7.64 66.53 13.63a7 7 0 0 0 7.18.05zm173.62-41.9c-8.15 5.36-16.19 10.43-23.99 15.83-9.7 6.72-19.16 13.8-28.85 20.53-7.65 5.32-15.5 10.32-23.21 15.55-1.67 1.13-3.12 2.6-4.58 4-4.16 3.95-8.27 7.95-12.51 12.05l-13.52-8.5 17.39-21.9 6.93 5.32a25 25 0 0 1 9.43-4.8c3.42-.97 6.1-4.6 9.1-7.07q7.94-6.53 15.88-13.02c4.03-3.3 8.05-6.6 12.15-9.82.85-.66 2.55-1.57 2.95-1.24 2.5 2.05 3.95.4 5.63-1.11 1.1-1 2.3-2 3.6-2.7 2.28-1.23 4.23-3.11 7.33-2.5 3.31.65 5.3-2.38 7.93-3.7 3.54-1.76 4.87-1.68 7.6 1.02.31.3.35.9.77 2.07zm-159.52-11.53c4.71.77 5.33 1.4 5.39 5.51.02 1.36 0 2.7 0 4.5 4.44-.2 7 2.18 10.08 5.13 5.88 5.65 10.47 12.07 15.17 18.56 2.57 3.54 5.94 6.5 8.71 9.9 2.13 2.6 1.9 3.26-.63 5.98l3.72 6.9c-1.36.17-2.55.69-3.24.31-1.16-.62-2.03-1.8-2.97-2.8q-3.5-3.63-8.59-4.13l-24.28-35.32c-.28-.4-.51-.85-.86-1.16-4.72-4.3-5.26-7.16-2.5-13.37z"/><path fill="#fff" d="m186.11 425.5 3.14-1.7 1.01-.05.3-.08 2.72-1.27 1.12-.62 2.03 2.56c-2.01 1.65-3.86 3.32-6.8 3.51-1.57.1-3.01 1.7-4.56 2.54-1.52.82-3.09 1.52-4.64 2.27l-1.16-1.48q-.25-.31 0-.64l1.79-1.73.16-.03 1.82-1.09.06-.05.99-.98.02-.03 2-1.15zm469.9-145.4 23.55-.28c-.54.36-1.07 1.02-1.6 1.02q-10.32.06-20.65-.05c-.43 0-.86-.45-1.3-.69m-116.8 249.3 16.26-.3 5.15.32c-.95.27-1.9.78-2.85.79-6.3.05-12.6-.02-18.89-.05q.14-.38.33-.77zm30.62-.05 12.35-.18 3.07.31c-5.15 1.27-10.3 1.5-15.41-.12zm213.49 365.33a25.3 25.3 0 0 1-14.48-.05zm-363-778.77c-2.41.3-4.81.75-7.22.9-2.48.14-5 0-7.49-.03 2.41-.32 4.81-.78 7.23-.92 2.48-.15 4.98.02 7.48.05"/><path fill="#fff" d="m560.62 529.43-5.15-.31c4.83-1.04 9.65-1.8 14.48 0q-4.67.17-9.33.3m-158.4 109.99c-.62 2.55-1.3 4.95-4.86 3.2 1.05-2.1 1.83-4.37 4.86-3.2m119.41-500.79c3.8-.07 7.6-.2 11.4-.18.68 0 1.36.6 2.04.91zm-158.91-14.67-12.4.03q.12-.37.17-.78c4.09.07 8.26-1.22 12.24.74zM585.24 529.5l-3.07-.32c4.08-1.09 8.14-1.96 12.16.2zm-326.1 89.1c-3.83 1.3-7.66 1.7-11.5-.02zm236.7-82.17.43-3.22h8.92c-1.35.4-2.71 1.15-4.05 1.11a6.5 6.5 0 0 0-5.3 2.1m12.46-395.94 10.18-.22c-3.35 1.89-6.74 1.8-10.18.22"/><path fill="#fff" d="M350.48 123.2a3 3 0 0 1-.17.79l-10.5-.86 10.67.09zm-44.37 85.84c-2.92 2.32-6.31.68-9.46 1.1zm233.1 320.36a8 8 0 0 0-.34.77l-9.13.08zM659.17 69.6l-8.26-.8h8.05q.07.4.22.79zM251.73 525.3l8.4-.05a9 9 0 0 1-8.4.05"/><path fill="#fff" d="M659.18 69.6a6 6 0 0 1-.22-.78l8.43.67q-4.11.07-8.22.1zM410.86 663.86a7 7 0 0 1-7.19-.04zm-214.43-239.5q-1-1.3-2.03-2.57l4.1.98-.03 1.87zm505.49-190.4-7.05-.22c2.4-1.47 4.76-1.92 7.05.21M189.16 370.21l.06 7.23c-1.46-2.4-1.6-4.81-.06-7.23m70.7-81.13c.08 1.3.32 2.62.19 3.91-.09.8-.74 1.52-1.13 2.27zm306.92 271.1 6.07-.32c-1.92 2.04-3.97 1.54-6.07.32m262.78 325.88h-4.35c1.45-1.24 2.9-1.27 4.35 0M594.53 761.14l.21 3.1-.4-1-.16-2.2zm-414.1-328.47-3.03.19 1.89-1.67 1.16 1.48zm.64-3.84-1.79 1.73zM656.29 730.4l-.42-.96zm.6 6.33q-.25-.68-.51-1.32zM187.56 766.2l.5 1.3zm255.48-207.24 7.23-9.36 14.18 7.65c-2.4.31-4.41 1.22-5.83.64-4.12-1.67-7.65.07-11.39 1.04-.94.24-2 .03-4.2.03z"/><path fill="#000" d="M728 112.88c4.37 4 9.45 7.12 13.52 11.53 6.82 7.38 12.56 15.31 14.9 25.3.12.5.2 1.01.39 1.48q1.91 4.66-3.1 6.53c.94 1.84 3.01 2 4.32 3.1 2.03 1.69 2.08 2.75.09 4.51-2.14 1.88-4.93 2.21-7.56 3.16 1.31 1.4 4.32 1.04 4.01 3.77-.27 2.43-2.1 3.86-4.16 4.84-2.12 1.02-4.45 1.55-6.22 3.32-.85.87-2.32 1.01-3.4.45-2.18-1.15-4.24-.32-6.46-.22.07 2.1 1.66 3.14 2.4 4.62 1.71 3.37 1.27 5.27-1.85 7.4q-3.93 2.67-.38 6.02c.5.47 1.05.9 1.48 1.42 1.5 1.8 1.3 3.18-.91 3.85a25 25 0 0 0-6.85 3.24c-2.53 1.7-3.7 1.3-5.68-1.03-.87-1.04-1.7-2.04-2.08-3.45-.4-1.47-1.18-2.86-3.36-3.28a39 39 0 0 1-3.35 7.66c-.58 1.05-1.12 2.48-2.52 2.14-2.85-.71-3.04 1.2-3.44 3.04-1.36 6.2-3.82 12.03-6.35 18.19 3.74 1.14 7.35 2.51 10.5 4.8 2.85 2.08 2.89 2.53 1.65 5.93-2.74 7.48-7.05 14-11.89 20.23-.41.53-1.18 1-1.28 1.56-1.17 7.79-8.4 10.15-13.14 14.8 1.25-4.84 4.62-8.42 7.25-12.63-2.52-1.6-5.65-1.03-7.93-2.43-.2-.67-.08-1.02.26-.97 5.69.78 8.97-1.91 11.67-6.8 2.63-4.73 6.3-8.88 9.73-13.57-3.2-2.61-6.65-4.27-10.97-4-13.64.84-25.91-3.32-37.42-10.32-5.63-3.41-9.92-7.67-10.82-14.66-.5-3.85.54-6.8 3.76-8.81 4.5-2.8 9.02-5.57 13.98-7.5 4.6-1.8 9.44-1.44 14.2-.96 8.67.88 17.26 2.37 25.48 5.32 2.4.86 2.7.07 3.4-1.93 1.32-3.73 1.57-3.78-1.8-6.28-8.1-6-15.89-12.39-23.2-19.36-.73-.7-1.53-1.37-2.4-1.88-2.76-1.67-2.98-1.6-4.7 1.14-1.27 2.03-2.26 4.39-4.42 5.56-2.42 1.31-1.65 2.8-.42 4.66-2.3.51-3.53-.87-4.84-1.78-2.8-1.94-5.45-4.12-8.26-6.06-2.6-1.82-2.8-1.74-4.02 1.09-1.7 3.9-2.73 8-3.02 13.1-5.2-6.77-9.14-13.44-13.2-21.14-4.82 8.76-11.76 14.76-18.14 21.28-.57.59-1.44 1.19-.99 2.13.84 1.77 4.07 3.42.1 5.25.24.39.4.88.74 1.13 2.16 1.6 2.21 3.09-.46 3.94-2.61.83-1.89 2.88-2.04 4.63-.11 1.3.39 2.64-1.98 2.52-1.74-.07-1.72 1.68-1.42 3.13.2.92-.42 2.22-1.13 1.72-3.86-2.78-2.97 1.02-3.74 2.53-.3.57-.57 1.22-1.47 1.22-1.26-.8-.72-1.9-.61-3.1.32-3.24 0-6.42-1.7-9.34-.5-.89-.81-2.05-2.15-1.7-1.3.34-3.48 1.02-3.15 2.02.64 1.95-.99 2-1.4 2.93-.78 1.83-2.55 3.93.12 5.92 1.08.8.63 1.87-.57 2.3-.87.3-1.77.07-1.84-1.09-.13-2.53-2-4.71-1-7.78-4.6-.65-8.24 1.85-12.19 2.23-.6.06-1.2.78-.87 1.55.81 2.02.55 4.28 2.11 6.18a26 26 0 0 0 12.1 8.27c.63.22 1.34.25 2 .41 1.25.32 2.31.99 2.24 2.4-.09 1.67-1.36 2.23-2.84 2.4-3.7.46-7.13-.45-10.37-2.14a32 32 0 0 1-3.45-2.2c-.73-.5-1.43-.98-2.3-.42-.83.52-.97 1.3-.67 2.2 1.85 5.65-1.8 9.57-4.74 13.36-1.9 2.44-5.11 3.32-8.4 1.84a26 26 0 0 1-6.08-3.73c-2.94-2.48-6.07-4.07-10.23-3-3.17.8-6.47.05-9.62-.76-2.76-.71-4.68-2.56-6.08-5.1-.83-1.51-1-2.62-.12-4.17 1.92-3.44 1.07-5.86-2.5-6.82-1.63-.44-2.8-.95-3.34-2.64-.2-.6-.71-1.2-1.24-1.56-5.87-4.1-6.66-6.68-4.17-13.88.11-.32.2-.66.35-1.18-2.8-1.35-6.02 1.9-8.65-.71-2.07-2.07-3.33-4.6-4.63-7.76 2.28-.07 3.45 2.2 5.83 1.47-2.08-3.87-2.28-8.32-5.87-11.76-5.86-5.62-8.27-13.2-9.83-21-.1-.5-.07-1.03-.17-1.53-.04-.26-.23-.5-.37-.77-.92.51-.62 1.52-1 2.26a7.93 7.93 0 0 1-12.46 2.45c-1.9-1.6-2.77-4.27-1.82-6.45 1.06-2.43 2.8-4.27 5.6-4.69.64-.1 1.35.16 2.02.13 1.68-.07 3.46 1.25 4.94.28 1.27-.83 1.26-2.68 1.65-4.16.27-1 .96-2.24 1.97-2.13 3.56.4 6.43-1.95 9.84-2.14 3.73-.22 7.42-1.46 11.15-.06.3.11.68.15.99.07.67-.17 1.32-.47 1.42-1.26.12-.9-.5-1.1-1.23-1.22a55 55 0 0 0-11.76-.69c-5.06.22-10.32-.42-14.97 2.43-.62.39-1.2.35-1.88-.03-7.86-4.35-16.64-5.95-25.15-8.33-1.96-.55-3.95-1-6.1-1.53-.3 1.4.71 1.87 1.27 2.53.95 1.13 3.14 2.41 1.95 3.64-1.23 1.28-3.03 2.8-5.5 2.37a76 76 0 0 1-10.89-2.85 355 355 0 0 1-11.06-4.01c-1.11-.42-2.57-.76-3.14-1.61-2.52-3.78-6.49-3.35-10.1-3.63-7.62-.6-14.94.96-21.75 3.52-.58.38-.63.67-.35 1.02 1.3 1.61 3.9 2.86 1.5 5.47-2.24 2.44-6.25 3.13-8.42 1.3-.96-.8-1.91-1.44-3.14-1.56-5.7-.52-10.84-2.97-16.2-4.64q-.73-.22-1.44-.53c-3.23-1.41-4.4-3.25-3.73-5.83.28-1.08 4.54-3.49 6.06-3.36 2.19.16 4.31 1.12 6.56.22.97-.38 1.91-.73 2.95-2.3-7.73-.81-15 .53-22.26.9q-11.52.59-23.03 1.35c-7.48.51-14.96 1.13-22.7 1.72.87 1.72 2.28 1.78 3.46 2.16 8.62 2.76 17.4 4.91 26.2 7.01 12.14 2.9 23.92 6.9 35.73 10.9 7.96 2.69 13.82 7.85 19.06 14 6.55 7.7 12.11 16.1 17.68 24.5 8.7 13.1 20.12 24.1 28.8 37.22 3.2 4.83 7.17 9.13 10.75 13.7 1.46 1.9 2.69 2.59 5.5 1.79 6.4-1.83 13.18-1.7 19.83-1.7 14.87-.03 29.75.18 44.61.38 4.1.06 8.19.4 12.28.64.83.05 1.8.11 1.77 1.3-.02.74-.62 1.15-1.22 1.5-.93.56-1.97.5-2.99.56-4.94.33-9.87.9-14.8.95-13.69.14-27.37 0-41.04.08-5.46.03-10.92.38-16.39.5-1.86.03-2.83.5-2.6 2.64.26 2.47-.8 4.63-2.06 6.72-10.3 16.93-20.72 33.78-31.78 50.24-.65.97-1.18 2.1-2.58 2.74-.43-2.52 1.04-4.35 2.04-6.18 9.73-17.64 18.1-36.02 28.77-53.16 1.03-1.66 1.03-2.46-.42-3.79-8.5-7.78-15.02-17.2-21.97-26.3-6.82-8.96-14.36-17.36-20.58-26.78a694 694 0 0 0-22.05-31.49 8.7 8.7 0 0 0-4.32-3.25c-18.81-6.75-37.85-12.67-57.4-17-7.96-1.75-15.67-4.68-23.48-7.15-1.3-.4-2.53-1-4.18-.95 1.47 11.27-2.71 21.47-5.49 31.88-2.58 9.72-5.44 19.37-7.16 29.31-.4 2.34.42 4.36.4 6.55-.02 1.76 1.7 1.95 2.94 2.33 5.13 1.57 9.71 4.19 13.98 7.36 2.45 1.82 2.26 2.17-.42 3.9-3.46 2.23-7.26 1.61-10.97 1.51-1.75-.05-2.74.1-3.6 1.86-5.75 11.85-9.7 24.38-14.81 36.89 3.97.79 6.32 4.55 10.68 3.38 1.36-.36 2.42 1.44 2.15 2.87-.36 1.86-1.99 1.53-3.32 1.13-.62-.19-1.16-.67-1.74-1-3.66-2.12-5.38-1.57-6.44 2.83-1.29 5.39-3.61 10.31-5.97 15.22-15.42 32-31.32 63.77-48.64 94.8-10.98 19.69-20.86 39.97-31.14 60.03l-1.68 3.17c-1.38 2.57-.73 7.79 1.28 9.8.33.32.84.55 1.3.63 9.35 1.74 17.55 6.5 26.27 9.86a415 415 0 0 1 18.93 7.81c2.7 1.2 4.62 1.36 6.58-1.29 1.6-2.17 3.36-4.57 5.86-5.64 4.03-1.73 3.59-5.72 4.96-8.74.69-1.52-1.4-1.9-2.3-1.74-1.33.22-2.56.89-3.89.15-.7-.38-1.82-.56-1.64-1.65.17-1.06 1-1.78 2.04-2 1.44-.33 2.67.43 3.86 1.08 2.58 1.4 5.17 2 8.23 1.9 8.6-.24 12 6.78 9.98 12.8-.04.1-.3.12-.46.18-.57-6.3-1.32-7.29-7.13-8.55 3.82 3.92 2.73 8.4 2.37 13.05-4.69.3-7.71 3.39-9.75 7.91 8.02 3.42 16.03 6.78 24 10.22 13.81 5.97 27.27 12.62 39.76 21.07 1.86 1.25 3.14 1.85 4.4-.69 6.38-12.78 15.42-23.75 23.9-35.1 5.94-7.93 12.13-15.67 17.52-24 1.17-1.8 1.91-3.54 1.82-5.8-1.77-.84-3.64-.16-5.45-.12-2.04.06-2.95-.7-3.62-2.69a57 57 0 0 1-2.84-24.2 11 11 0 0 1 1.15-3.88c7.73-15.18 17.72-28.77 28.94-41.52q.85-.96 1.74-1.89c1.17-1.22 1.07-1.98-.32-3.27-3.39-3.15-3.27-5.71.43-8.32 3.57-2.52 7.27-5.61 11.98-2 .91.71 1.58-.08 2.2-.6q1.91-1.64 3.75-3.29c-.36-.5-.58-1.01-.75-1-5.8.55-7.1-4.13-9.15-7.89-.8-1.45-.03-2.53.99-3.61 2.83-2.98 5.9-5.7 9.1-8.24a608 608 0 0 1 57.56-40.16c1.5-.93 3.44-1.43 4.75-4.09-6.82 1.7-13.66.59-18.57 6.87-1.08-2.39-.63-3.98.24-5.66 4.24-8.2 8.65-16.3 14.75-23.33.67-.77 1.61-1.52 1.84-2.42.62-2.51 2.59-3.15 4.59-3.34 6.28-.62 12.53-1.6 18.87-1.56q.78-.01 1.54.01c3.58.24 5.48 1.51 4.62 3.24-1.04 2.08-3.4 1.37-4.92.88-2.2-.7-3.97.12-6.03 1.23 2.17.1 4.34.35 6.5.29 12.47-.31 24.92-.68 37.28 1.8a122 122 0 0 1 25.8 8.23c3.29 1.46 5.26 4.37 8.06 6.36 2.73 1.94 1.66 4.22-2.3 5.85 3.77-.93 5.72 1.37 7.66 3.93 10.86 14.34 19.85 29.82 27.8 45.94 5.52 11.22 10.26 22.7 12.49 35.09.18 1 .24 2.01.39 3.4 2.47 0 5-.05 7.5 0 5.07.12 7.89 2.13 9.6 6.76.11.32.26.64.3.98.6 5.09 1.9 9.54 7.77 11.09 1.88.49 2.63 2.51 2.79 4.54.13 1.65-.4 3.4.66 5.22 6.3-1.9 12.61-3.96 19.33-4.2-1.94-6.23-6.07-8.85-11.88-7.6-2.33.5-4.62 1.2-6.94 1.78-.85.2-1.78.29-2.08-.8-.22-.78.43-1.16 1-1.57 8.3-5.88 20.48-3.9 26.43 4.3.72.98 1.86 2.11 1.53 3.13-1.85 5.61 3.92 9.62 2.96 14.98 3.47 2.49 3.25 6.16 2.78 9.69-.78 5.8-3.2 7.43-8.89 6.45.01-.17-.04-.44.05-.5 5.14-3.52 4.9-3.45 3.15-9.4-1.05-3.58-3.86-4.34-6.55-4.7-5.44-.73-10.9.01-16.31.96-1.64.3-2.2 1.29-2.47 2.78-.64 3.5-1.4 6.97-2.16 10.72-2.22-.71-2.17-2.63-2.4-4.06-.36-2.36-.68-4.84-.29-7.14.53-3.13-.94-4.34-3.46-5.25-2.75-.98-5.33-2.32-7.21-4.66-.54-.68-.88-1.65-.3-2.35.34-.42 1.26-.62 1.86-.52 1.49.23 2.94.68 4.65 1.1.87-3.13-1.3-6.09-.09-9.1.4-1-1.14-1.55-2.04-1.94-2.18-.96-4.45-1.76-6.64-2.7-1.51-.67-3.24-1.06-4.29-2.55.82-2.74 3.6-1.44 5.15-2.68-.6-1.62-1.33-3.17-1.72-4.8-1.1-4.52-1.05-4.58-5.75-3.94-3.21.43-6.4 1.08-9.61 1.5a30 30 0 0 0-16.05 7.29c-7.77 6.64-15.97 12.77-23.3 19.94-2.1 2.07-5.3 2.2-8.06 3-1.6.46-3.4.28-5.07 1.54 3.2 1.78 6.44 3.17 8.96 5.78 2.38 2.45 2.66 4.98 1.38 7.95-1.28 2.98-3.38 4.93-6.7 5.32a9 9 0 0 1-2.55-.06c-1.58-.25-2.08.55-2.35 1.95-.3 1.67-.81 3.3-1.25 4.94-1.3 5.01-1.77 5.41-7.1 4.82-5.12-.56-10.25-.23-15.37-.33q-.77 0-1.54.09c-.76.08-1.24.48-1.23 1.29 0 1.01.54 1.57 1.56 1.55a14 14 0 0 0 2.04-.18c6.46-1.1 12.97-.62 19.45-.53 4.27.07 8.28 1.77 12.18 3.45 4.07 1.75 8.08 3.68 12.09 5.58 2.6 1.24 4.98 1.13 7.83.2 10.86-3.56 21.84-6.74 32.8-10 5.05-1.51 9.62.76 14.03 2.46 3.86 1.48 3.95 1.26 5.97-2.04 3.07-5 3.1-5.08-.5-9.85-1.45-1.9-3.05-3.69-4.49-5.6-.77-1.03-1.77-2.07-1.44-3.45 1.16-.7 1.85-.12 2.52.35a27 27 0 0 1 6.2 6.08c5.5 7.36 4.67 14.76-2.12 20.9-2.05 1.86-4.12 1.56-6.17.7-1.9-.8-3-.5-4.36 1.04-3.09 3.55-7 5.03-11.78 4.1a12.5 12.5 0 0 0-6.6.33c2.5 2.13 5.63-.07 8.34 1.16 0 1.91-1.13 2.95-2.82 2.79-3.39-.34-6.22.9-9.2 2.27-2.12.97-4.64.96-7.06.9-5.59-.1-9.59 3.3-13.47 6.6-1.85 1.57-2.33 4.4-2.08 6.67.59 5.54 1.43 11.06 1.65 17.1a27.6 27.6 0 0 0 13.1-8.6 24 24 0 0 1 7.16-5.64c11.37-5.87 22.57-12.2 34.36-17.1 7.8-3.24 14.2-7.88 20.37-13.25a33 33 0 0 1 9.53-5.86c1.86-.72 2.18-1.71 2.2-3.38.02-2.9.21-5.8.32-8.7.05-1.06.27-2.32 1.36-2.45 1.52-.18 1.97 1.4 2.05 2.47.2 2.54.08 5.1 0 7.67-.05 1.35-.4 2.7-.45 4.05-.22 5.21-.2 5.2-5.4 7.13-1.74.65-3.6 1.16-4.95 2.56-6.89 7.18-15.75 11.34-24.38 15.84-9.7 5.05-19.78 9.26-29.87 13.44-2.06.86-4.02 1.75-5.56 3.5a38 38 0 0 1-16.54 10.83c-2.17.76-3.5 1.76-3 4.4.3 1.66.24 3.43.07 5.13-.6 5.92 2.44 9.92 6.78 13.34a572 572 0 0 1 11.55 9.36 31 31 0 0 1 3.63 3.6c.7.82 2 1.77 1 3.02-1.14 1.4-2.61 1.31-4.12.3a555 555 0 0 0-11.51-7.66c-2.04-1.31-3.47-3.76-6.62-3.08-1.22.26-1.82-1.47-2.24-2.48-1.91-4.62-5.42-7.02-10.04-8.72-10.58-3.88-21.34-7.2-32.02-10.77-.81-.27-1.69-.38-2.45-.72-.38-.17-.8-.72-.82-1.12-.04-.85.6-1.12 1.38-.96 5.01 1.03 10.04 2 15.02 3.13 8.31 1.88 16.43 4.47 25.15 7.1-.27-2.87-.23-5.37-.79-7.72-1.1-4.64-.8-9.43-2.1-14.12-.95-3.4-.2-7.49.61-11.08.87-3.82 1.09-7.71 2.11-11.44-1.86-1.3-3.8-.8-5.61-.75-18.29.46-36.58.73-54.84 1.55-21 .93-42.04 1.18-62.97 3.09-11.42 1.03-22.8 2.2-34.27 2-1.63-.03-2.83.25-3.83 1.84-5.93 9.48-13.84 17.32-21.28 25.54-15.83 17.46-31.5 35.05-43.34 55.63-1.79 3.1-4.87 6.42-4.4 9.57.47 3.25 5.16 4.5 7.78 6.9 2.69 2.46 5.57 4.03 9.5 4.04 3.78.02 7.05 2.41 10.5 3.9 3.9 1.68 7.7 3.64 12.11 4.87 1.18-2.63 1.4-5.7 3.46-7.81 1.9-1.94 3.9-3.77 5.85-5.63-.66-1.07-1.7-1.18-2.69-1.4-2.16-.48-4.46-.64-6.46-1.5-4.4-1.86-8.72-3.65-13.8-2.01.22-2.22 1.59-2.2 2.6-2.56.78-.28 2.07-.4 1.83-1.37-.93-3.66 1.86-3.49 3.83-3.7 21.71-2.43 43.21-6.34 64.78-9.77 29.32-4.66 58.64-9.31 88.14-12.67 13.38-1.53 26.76-3.43 40.29-3.32 2.94.01 5.78.52 8.62 1.07 1.83.35 3.96.77 5.07 2.24 1.82 2.39 3.93 3.87 7.1 4.25-10.43 5.46-18.72 13.62-28.6 19.83.65 2.27 1.97 3.75 3.32 5.5.93-2.04 2.65-2.76 4.2-3.65 9.38-5.35 18.3-11.33 26.35-18.55.98-.87 1.98-2.43 3.44-1.57 1.66 1 .75 2.84.45 4.23-.42 1.89-1.97 3.15-3.36 4.42-6.53 5.94-14.28 9.9-22.13 13.7-1.84.9-3.76 1.63-5.7 2.32-1.7.61-2 1.66-1.26 3.17.07.15.18.3.21.46 1.5 6.58 4.77 11.05 12.32 10.77 1.14-.05 2.31.54 3.45.87.68.2 1.63.86 1.42 1.27-2.13 4.25 3.55 6.15 2.91 10.16-.28 1.76 2.45 2.73 4.14 3.29 16.01 5.29 28.54 15.8 40.74 26.84a54 54 0 0 0 5.28 4.04c1.8 1.26 2.32 2.64 1.37 4.79-4 9.05-7.66 18.25-12.74 26.8a7 7 0 0 1-4.9 3.55c1.63 2.82 3.13 5.28 4.52 7.81.64 1.18 1.48 2.76.06 3.68-1.27.83-2.07-.79-2.8-1.6-1.85-2.01-3.58-4.14-5.34-6.22-1.09-1.27-1.99-2.77-3.76-3.25l.2.2c.02-.34.18-.76.03-1-4.27-6.94-8.58-13.87-13.13-21.2-6.2 4.9-12.3 9.56-18.2 14.43-14.63 12.07-29.18 24.25-43.75 36.4-3.36 2.8-3.41 2.9-.05 6.12a269 269 0 0 1 25.93 28.31c1.79 2.28 3.37 4.72 4.98 7.12.53.79.5 1.69-.27 2.3-.77.62-1.56.39-2.27-.3-2.6-2.46-5.3-4.83-7.82-7.37-5.18-5.2-10.27-10.5-15.13-15.49-2.07.25-2.33 1.6-3 2.5-1.8 2.46-3.6 3.78-7.23 3.3-4.48-.61-9.13.85-13.76.65-2.05-.08-4.1-.05-6.14-.1-4.3-.13-7.93-1.24-10.2-5.43-.94-1.74-2.62-3.17-4.19-4.47-5.53-4.6-8.7-10.88-12.23-16.91-.75-1.28-.59-2.15.2-3.2 1.11-1.46 2.14-2.96 3.56-4.92-3.3.46-3.65 3.48-5.97 4.6-2.35-1.86-2.92-6.09-6.86-6.38-.2.57-.49 1.06-.38 1.15 5.06 4.9 6.44 11.83 9.78 17.67.73 1.29.75 2.58.74 3.94 0 .8-.37 1.46-1.12 1.35-4.1-.59-4.9 2.98-5.74 5.3-2.2 6-5.52 11.37-8.77 16.76-6.45 10.67-13.35 21.08-19.67 31.82-2.52 4.3-6.74 6.4-9.97 9.74-.78.81-1.29-.12-1.55-.53-1.9-2.91-4.46-1.98-6.72-.93-5.43 2.53-10.9 3.33-16.75 1.66-14.27-4.08-27.22-10.92-39.65-18.83-17.73-11.27-35.38-22.66-53.83-32.72l-47.03-25.65c-1.01 1.39-.95 3.13-1.47 4.64-1.84 5.4-4.84 7.05-10.53 5.73a30 30 0 0 1-8.26-3.5c-2.39 4.3-4.66 8.44-6.96 12.55-8.54 15.18-17.9 29.89-25.13 45.8-3.49 7.64-6.05 15.58-8.3 23.65-.64 2.27-1.07 4.9-4.49 4.4a14.5 14.5 0 0 1-.91-6.44 84 84 0 0 1 2.56-14.04c1.44-5.64 4.35-10.73 5.76-16.37.54-.84 1.17-1.64 1.61-2.55a261 261 0 0 1 16.82-29.83c4.02-6.12 8.28-12.1 12.44-18.12.87-1.25 2-2.29.38-3.9-1.58-1.58-2.88-.61-4.08.19a24 24 0 0 0-3.88 3.31c-7.14 7.36-13.24 15.57-19.06 23.98-5.29 7.66-8.34 16.3-10.8 25.05 2.01 2.01 4.98-.3 6.71 1.97-1.24.55-2.43 1.27-3.73 1.62-2.7.72-5.03-.09-7.01-2.06-1.72-1.7-1.38-3.59-.76-5.67 5.18-17.09 13.78-32.3 25.26-45.9 2.3-2.73 4.65-5.52 7.76-7.41 2.92-1.78 6.16-2.62 9.16-.61 1.62 1.08 2.58 3.14 3.9 4.7 1.6 1.85 3.8-1.24 5.66.74 1.1 1.16 3 1.55 4.5 2.36 1.7.93 3.12 1.04 4.42-.78 1.48-2.1 3.66-3.54 5.75-5.17-3.38-3.04-7.72-3.79-11.5-5.65-3.82-1.88-4.31-2.73-4.09-7.06.32-6.2 2.63-11.61 6.1-16.59 4.88-7 11.02-12.57 18.92-16 1.42-.61 3.26-1.19 4.08.6a4.1 4.1 0 0 1-.74 4.68c-.7.71-1.68 1.15-2.53 1.72-1.98 1.33-4.04 2.58-5.93 4.04-6.29 4.87-11.64 10.54-14.77 18.03-.59 1.41-1.66 3.15-.36 4.27 2.32 2 3.7 6.03 8.23 4.12 1.5-.64 3.33.4 4.9 1.1 2.5 1.09 5.02 2.14 7.47 3.34 33.84 16.38 66.81 34.31 98.51 54.56 10.35 6.61 20.65 13.37 32.04 18.16.97.4 1.99 1.64 3.2.29-.73-2.07-1.58-4.13-2.2-6.25-1.6-5.54-2.07-11.04 1.13-16.28 1.85-3.05 3.44-3.92 6.78-3.18 2.82.63 5.58 1.6 8.37 2.39 2.3.64 3.71 2.17 4.87 4.22 2.63 4.7 3.98 9.77 4.75 15.04.23 1.52.46 3.05.91 4.51.55 1.74 1.68 1.42 2.67.38.46-.47.71-1.15 1.02-1.76 6.89-13.4 15.42-25.8 23.5-38.47l7.15-11.15c-2.7-1.01-4.8-1.68-6.8-2.58-20.72-9.33-40.97-19.55-60.42-31.32a31 31 0 0 0-11.77-4.38c-9.77-1.41-19.47-3.26-29.34-4.95-.11 1.76.37 3.2-.17 4.69-.58 1.6.8 1.98 1.96 2.36 1.17.37 1.98-.06 2.43-1.2.38-1 .07-2.3 1.22-3.32 1.85 2.03 1.65 4.13 1.13 6.29-.24.97-.89 1.35-1.87 1.31-5-.2-7.32-2.63-7.3-7.7.02-2.52-1.3-3.65-3.63-3.37-1.57.19-1.81 1.44-2.26 2.47-2.08 4.82-4.06 9.69-6.08 14.54-3.78-1.54-7.51-1.32-11.22-1.29-3.64.03-4.4-.6-5.14-4.2-.32-1.53-.17-3 .15-4.55.74-3.54 2.55-6.6 4.35-10.17-6.42-1.53-12.67-2.13-18.87-3.06q-9.63-1.47-19.24-2.87c-6.04-.86-12.2-.97-19.07-2.38 3.5-1.7 6.38-.65 8.84-1.54.61-2.39-1.49-4.2-.68-6.26 1.26-3.2-.68-4.15-3.13-5.05-11.37-4.2-22.7-8.47-34.04-12.7-1.09-.4-2.1-1.12-3.41-.63-5.37 1.97-10.81.68-16.17.08-6.2-.7-11.84-3.22-17.17-6.4-2.16-1.3-3.4-.93-5 1.2-6.01 7.96-10.6 16.7-14.96 25.61-1.05 2.13-2.33 3.9.12 6.24 1.32 1.25.28 3.6-.17 5.4q-2.07 8.2-4.16 16.37c-5.84 23.2-10.72 46.54-12.2 70.52-.54 8.5-.13 17.08-1.87 25.53-.72 3.45.8 5.1 4.54 6.08 8.08 2.12 16.2 4.15 24.12 6.85.8.28 1.63.5 2.48.1-.26.96.56 1.12 1.1 1.42 1.45.85 1.57 2.16 1.22 3.56-.43 1.73-2 1.84-3.3 1.7-8.48-.9-17.08-.82-25.37-2.98-5.64-1.47-7.12-3.43-7.68-9.36-.07-.67.2-1.69-.16-1.98-1.1-.9-.57.75-.98.8-1.2.16-.56-.83-.64-1.27-2.02-11.81-2.3-23.73-2.13-35.66.15-9.73 1.01-19.47.7-29.18-.25-7.97 2.4-14.41 7.76-19.84 1.95-1.97 2.82-4.13 3.48-6.63 1.47-5.6 2.8-11.26 4.58-16.78.8-2.49.66-4.5-1.35-5.92-5.76-4.1-5-9.15-3.19-15 3.73-12.08 10.86-21.95 18.9-31.36 1.78-2.08 4.2-2.99 6.66-3.54 2.23-.5 4.23.65 6.43 1.5 6.82 2.62 13.88 5.02 21.06 6.21 11.16 1.86 21.8 5.55 32.77 8.04 3.66.82 7.25 1.93 10.85 3.03a75 75 0 0 1 6.76 2.37c9.37 3.85 10.2 6.53 7.9 16.72-.1.49-.28.97-.47 1.63 33.03 3.08 65.58 8.86 99.2 14.76-5.4-4.72-10.03-8.64-15.9-10.8-.23-.74.05-1.39.47-1.91 4.51-5.58 7.7-12.08 12.05-17.76 1.8-2.34 2.82-5.06 4.3-7.56 1.96-3.32 5.78-3.94 8.75-1.48 2.78 2.3 2.82 2.27 4.53-1.11.68-1.34 1.03-2.88 2.49-4.05 5.55 5.03 10.84 10.31 15.4 16.29a78 78 0 0 0 15.66 15.15c-1.58-3.2-4.1-5.63-6.41-8.26-9.68-11.02-20.26-21.24-29.04-33.09-5.5-7.41-8.26-15.2-5.92-24.43.48-1.91.8-4.03.02-6.3-4.35 1.02-8.1 3.48-12.28 4.83-2.27 5.41-6.04 2.43-9.26 1.52-3.6-1.02-7.14-2.36-10.65-3.67-2.7-1.01-5.2-2.52-8.28-1.02-1.45.72-3.07-.25-4.45-.78-7.98-3.08-15.65-6.8-22.57-11.9-.96-.7-1.81-1.56-2.64-2.42-2.51-2.59-2.52-2.63.47-4.69 1.13-.78 2.1-1.5 2.62-2.95 6.05-17.07 15.56-32.24 25.95-46.91.29-.4.46-.88.68-1.35-1.03-1.32-2.28-.5-3.26-.25-8.32 2.08-16.8 2.93-25.3 3.79-4.8.48-9.5-.47-14.27-.5-1.09 0-1.9-.68-2.8-1.18a414 414 0 0 0-28.31-14.32c-1.62-.75-3.79-2.88-4.95-1.58-1.72 1.94-4.42 2.6-5.54 5.47a57 57 0 0 1-10.53 16.86c-5.66 6.4-12.12 11.4-20.6 13.59-6.7 1.72-11.52.54-15.03-5.38-8.54-14.4-10.84-29.3-2.53-44.72.97-1.8 1.94-3.6 3.04-5.34 1.02-1.6.55-2.42-1.1-3.07-2.22-.87-4.36-1.94-6.56-2.89-5.17-2.24-7.17-1.69-10.27 3.2-3.11 4.9-6.18 9.83-10.02 14.23-3.85 4.41-7.77 8.7-14.09 9.4-.46.06-1.23.32-1.3.6-.88 4.17-3.96 1.15-6.73 2.9 2.22-4.96 2.83-9.27 6.5-12.03a7 7 0 0 0 1.63-1.96c4.79-8.48 10.91-16.04 16.84-24.3-7.49-3.02-13.7-7.88-21.04-10.74-4.29-1.68-6.22-6.15-5-10.7.65-2.45 1.23-4.9 2.03-8.07a25 25 0 0 0-9.22 4.96c-1.7 1.42-3.35 2.97-5.52 3.67-2.37.76-3.67-.46-3.08-2.91a9 9 0 0 1 2.67-4.3c4-3.94 8.77-6.86 14.25-7.51 3.58-.42 5-2.15 6.12-4.93.32-.79.61-1.6 1-2.35.85-1.62.82-2.8-1.11-3.67-5.94-2.68-11.27-6.36-16.65-10-2.89-1.95-3.18-2.44-1.7-5.8 2.05-4.7 4.62-9.13 7.23-13.55.65-1.1 1.82-2.33-.3-3.27-1.92-.85-1.64-2.49-1.06-3.94 2.24-5.65 4.23-11.37 8.6-15.97a60 60 0 0 0 11.1-17.1c2.72-6.1 6.66-10.66 14-11.16 2.58-.18 3.3-1.97 2.18-4.68-.42-1-.6-1.94-.56-2.96.2-4.27 6.6-12.44 10.88-13.1 3.7-.56 6.04-2.42 8.26-5.2 4.05-5.07 8.34-9.95 12.7-14.74 1.91-2.1 3.84-4.67 7.14-4.42 4.87.35 7.08-2.34 8.32-6.8-4.94-2.18-4.7-6.4-3.78-10.76.97-4.56 4.03-6.87 8.59-5.73 2.97.74 4.8.58 6.1-2.36.86-1.98 3.5-3.59.64-6.08-.55-.49-.4-1.96-.33-2.95.12-1.7.47-3.38.7-5.07.31-2.34 1.44-5.02.68-6.95-.79-1.98-3.98-1.02-6.05-1.67-3-.94-5.7-2.22-6.92-5.64 1.81-1.15 3.79-1.83 5.12-3.9 1.37-2.1 4.3-2.82 6.75-3.33 4.95-1.02 7.26-3.98 8.8-8.65 3.82-11.62 4.34-9.71 16.05-8.43-4.7-2.8-8.74-5.28-12.85-7.62-1.54-.88-1.78-1.68-1.6-3.6.53-5.9.41-11.85.53-17.78.05-2.17-2.22-1.74-3.24-2.78-1.63-1.66-2.94-3.1-2.1-5.76.76-2.4 1.95-3.95 4.48-4.25.82-.1 1.65-.02 2.64-.02 1.94-9.86 3.81-19.72 6.43-29.44.96-3.57 3.54-6.36 3.92-10.19.16-1.62 2.43-2.12 4.1-2.62 5.44-1.63 11.06-2.33 16.66-2.65 22.85-1.33 45.7-2.55 68.6-2.56 2.06 0 4.05 0 5.98-1.02 13.17-7.07 26.35-5.45 39.44.22 4.07 1.76 8.13 3.58 11.81 6.11 1.88 1.3 4.05 1.74 6.21 2.27 12.61 3.06 25.1 6.5 37.18 11.29 3.06 1.21 3.07 1.19 5.52 4.02 4.54-2.75 9.16-5.55 14.11-7.75 5-2.2 10.13-4.04 15.56-5.11.48-2.13-2.3-2.55-2.11-4.6.62-1.76 2.14.92 2.77-.24.57-1.03.84-2.21 1.16-3.35.68-2.47 1.21-4.98 2.31-7.31.71-1.49 1.68-2.88 3.43-2.42 1.54.4 3.43.82 3.85 2.9l.86 4.5c1.6-.24 2.31-1.55 1.72-2.49-1.62-2.57-.4-4.67.77-6.67 7.1-12.02 15.81-22.67 26.93-31.23a25 25 0 0 1 3.93-2.4c1.03-.53 2.38-1.24 3.28-.1 1.05 1.32.09 2.55-.87 3.59-.58.63-1.23 1.19-1.78 1.84-2.95 3.54-5.51 7.3-6.95 12.07 1.8.14 2.9-.68 4.03-1.26 8.44-4.3 16.2-9.5 22.15-17.04 4.07-5.16 7.35-10.69 8.45-17.28.2-1.18.32-2.53 1.67-2.93 1.68-.5 2.98.34 4.03 1.6 2.44 2.9 2.3 6.31 1.72 9.74-.76 4.53-2.73 8.72-4.03 13.03 1.06.97 1.71.14 2.38-.25 15.71-9 32.7-12.6 50.67-11.53a42 42 0 0 1 14.89 3.54c1.35.6 3.2 1.06 2.83 3.06-.32 1.7-1.75 2.23-3.46 2.46-4.56.6-9.18.82-13.66 1.99-3.44.89-6.97 1.53-10.3 3.56 3.03 1.63 6.17 1.54 9.06 2.3 4.27 1.15 8.05 2.94 10.76 6.46 1.27 1.65 2.56 1.61 4.42 1.41 11.73-1.21 23.23-3.76 34.8-5.95 2.39-.45 5.26-2.17 7.14.37 1.66 2.25-.46 4.59-1.42 6.64-1.95 4.13-4.24 8.1-6.36 12.1 1.61 1.4 2.85.38 4.09.2 1.68-.26 3.37-.63 5.06-.66 4.93-.1 6.56 1.05 7.2 5.94.33 2.54 1.29 3.73 3.71 3.89l-.16-.17zM546.3 643.17c-.5.07-1.1-.01-1.45.24-7.7 5.3-15.4 10.65-22.26 17.06-.64.6-1.74 1.14-1.08 2.82 8.23-6.47 16.34-12.85 24.43-19.26.21-.17.22-.6.33-.9 1.8.02 2.69-1.2 3.44-2.6-1.34.61-3.12.63-3.4 2.64zm44.64-306.28c.88-1.7.24-2.94-1.29-4.12l1.36 4.05c3.21 7.69 6.4 15.38 9.67 23.04.84 1.97 1.42 4.19 3.58 5.3 3.15-2.6 0-4.87.36-7.44-1.32.59-.5 1.85-1.82 2.16-2.97-6.43-5.94-12.93-8.99-19.37-.66-1.4-.58-3.5-2.87-3.62m-62.25 71.6-1.72.68c-.83-.57-2.05-.96-2.03-2.11.05-6.07-1.97-12.14-.02-18.22-3.18 1.16-4.26 2.98-3.75 6.32.51 3.36 1.67 6.57 1.9 10.03.14 2.24-.66 4.38-.24 6.59.38 1.96.92 3.76 3.55 3.24 9.35-1.9 18.74-3.59 27.99-5.97 2.23-.57 2.6-1.86 2.32-3.76-.42-2.86-.72-5.76-1.3-8.58-.98-4.68-.45-9.5-1.74-14.16-.62-2.26-1.63-2.67-3.67-2.02-2.42.78-4.92 1.38-7.37 2.06-3.57 1-7.23 1.72-10.45 3.8 6.04-.42 11.94-1.42 17.59-3.66h-.02c.03 1.32-.4 1.84-1.93 2.23-6.26 1.59-12.38 3.66-18.63 5.27-2.42.63-3.44 1.67-3.34 4.18.1 2.55.04 5.13-.28 7.66-.37 2.95.4 5.12 3.15 6.44zm-24.9-58.9c-2.44-2.9-3.83-5.19-6.91-5.76-6.54-1.21-13.04-2.6-19.66-3.42-13.23-1.62-26.56-1.63-39.84-2.46-3.06-.19-6.33-1.05-9.13-.27-2.84.78-4.1 4.33-6.5 6.23-.8.63-1.53 1.36-2.32 2.03-9.97 8.58-19.92 17.18-29 26.73a194 194 0 0 0-20.52 25.53c-.82 1.24-1.99 2.32-1.74 4.1.86 5.9 1.18 11.85 2.13 17.75.87 5.4 3.18 8.37 8.8 8.36.84 0 1.68.29 2.52.41.72.1 1.53.4 1.29 1.17-1.02 3.11 1.27 2.47 2.78 2.45 2.05-.02 4.09-.44 6.12-.4 9.38.15 18.75.74 28.1 1.48 13.1 1.05 26.2 2.13 39.32 2.97 9.2.58 18.44.74 27.65 1.16 2.48.1 3.25-1 3.24-3.35 0-2.24-.89-3.03-3.05-3-4.27.08-8.54 0-12.82 0-8.99 0-9.02 0-10.03-8.66-.22-1.86-.47-2.96-2.8-3.3-3.23-.47-4.69-3.02-5.15-6.2-.53-3.58.97-6.19 3.48-8.6 3.8-3.66 3.36-7.26-1.14-9.71a102 102 0 0 1-19.7-13.75c-2-1.82-3.75-1.86-6.02-1.22-4.1 1.16-8.22 2.2-12.35 3.29a128 128 0 0 1-16.57 3.25c-2 .25-3.84.25-4.4-2.2-.53-2.3.76-3.54 2.7-4.29a38 38 0 0 1 4.37-1.45c9.5-2.36 19.16-3.21 28.91-3.4 2.58-.05 5.67-.98 5.99 3.32.04.6 1.15 1.18 1.83 1.68 5.62 4.19 11.31 8.27 16.84 12.56 1.87 1.44 3.09 1.58 4.64-.33 1.1-1.35 2.88-1.97 4.54-2.22 4.7-.7 9.36-1.74 14.17-1.7 10.43.05 20.85.06 31.25.76.9.06 1.88.21 2.08-.83.46-2.5 2.58-2.46 4.27-2.92 9.06-2.45 17.98-5.4 27.2-7.32 6.18-1.29 8.36.15 9.23 6.5.54 4 .98 8.03 1.47 12.03 7.14-.72 13.63-2.16 18.15-8.16 1.2-1.6 3.09-2.67 4.69-3.96l11.76-9.48c-2.34-1.97-3.2-4.59-4.3-7.05-12.4-27.58-26.84-54.13-40.73-80.95-2.37-4.58-4.81-8-10.51-7.37-.65.08-1.35-.2-2.02-.33-13.05-2.61-26.09-5.3-39.29-7.1-2.25-.31-3.85-.1-5.46 1.6-3.32 3.5-7.38 6.05-11.45 8.58-1.04.64-2.5.97-2.76 2.71 3.8.6 7.47 1.36 11.2 1.76 7.25.79 11.63 4.73 14.28 11.44 1.78 4.52 1.21 8.27-1.67 11.9a23 23 0 0 1-5.28 4.8c-10.52 6.96-25.39 3.66-32.88-3.25-4.1-3.79-5.7-8.37-3.8-13.9.34-.97 1.54-1.94.34-3.33a392 392 0 0 0-28.26 18.5 177 177 0 0 0-16.96 14.06c-.97.9-2.79 1.92-2.26 3.14 1.03 2.4.7 5.08 1.83 7.3.58 1.17 1.56 3.05 3.38 2.3 1.33-.53 3.47-1 2.35-3.6-.54-1.22.88-1.57 1.8-1.96 2.92-1.21 6.01-1.2 9.08-1.21 19.86-.1 39.56 1.83 59.17 4.77 5.06.76 10.07 1.87 14.82 3.86 1.03.44 2.67.53 2.6 2-.1 2.23 1.72 2.81 2.9 3.85 2.96 2.59 6.06 5.01 8.74 7.9 1.4 1.5 2.73 3.01 2.43 5.91-6.38-1.49-10.1-6.74-15.23-10-5.98 8.52-13.48 15.64-20.93 22.85.8.61 1.05.97 1.32.98 10.93.06 21.88.05 32.68-1.9 3.44-.62 7.08-1.11 9.23-4.74 1-1.68 3.35-1.56 4.38-.2 1.18 1.58.4 2.92-.8 4.05a13 13 0 0 1-4.84 2.82 46 46 0 0 1-9.44 2.28 153 153 0 0 1-30.68.55c-1-.08-2.04-.41-3.02.14-3.68 2.12-8.04 2.65-11.57 5.29-2.15 1.6-4.84 2.51-7.3 3.66-1.7.8-3.46.99-5.29.33.16-.6.14-1 .34-1.2 12.01-11.9 24.84-22.92 37.35-34.26a8.2 8.2 0 0 1 6.66-2.36zm187.6-224.75c-8.38 3.04-17.04 3.52-25.8 3.6a15.5 15.5 0 0 0 6.83 1.42c8.38-.05 16.74-.02 25.11 0 2.06 0 4.13-.06 6 .94 1.2.63 2.69 1.26 2.46 2.9-.19 1.4-1.68 1.46-2.78 1.88-2.33.9-4.88.51-7.3 1.39 4.7 2.9 9.92 3.13 15.1 3.53 5.34.42 10.62-2.01 16.78-.58-5.85 7.92-14.65 5.9-22.08 8.09 2.35 1.37 4.82 1.34 7 2.16 2.07.77 4.8-.26 6.5 2.2-2.67 1.2-5.36.26-8.43.94 2 .66 3.47 1.06 4.88 1.62 3.6 1.45 7.14 3.48 9.33 6.49a20 20 0 0 0 5.8 5.35c1.72 1.07 3.5 2.05 5.08 3.29.4.3 1.62 1.84-.4 2.11-.76.1-1.68-.4-1.95 1 4.93 1.8 9.6 1.1 14.3-1.32-1.14-1.74-2.91-2.05-4.45-2.63-1.2-.45-2.37-.94-2.37-2.3 0-1.17 1.3-1.38 2.18-1.82 2.49-1.23 5.34-1.74 7.93-3.68-1.28-.72-2.4-1-3-1.74-1.35-1.64-4.53-2.27-4.04-4.73.33-1.65 3.25-1.25 4.75-2.3.13-.1.32-.12.47-.19 3.68-1.59 3.62-1.57 2.41-5.68a39 39 0 0 0-5.4-11c-5.68-8.27-13.05-14.67-21.96-19.58-.42.83-.73 1.24-.86 1.7-.44 1.5-1.39 2.44-2.96 2.23-1.93-.25-1.7-1.9-1.62-3.22.13-2.1-.4-3.48-2.55-4.39-1.23-.53-1.24-1.94.14-2.8.61-.39 1.85-.2 1.3-1.56-.45-1.07-1.23-1.69-2.38-1.54q-1.52.2-2.94.8a25 25 0 0 1-8 1.6c-3.29.15-4.8-1.78-3.93-4.9.65-2.32 1.99-4.33 3.2-6.4 2.05-3.46 4.78-6.53 6.37-10.3a3.6 3.6 0 0 0-2.72-.12c-6.91 1.96-13.97 3.22-21.04 4.45-5.55.96-11.13 1.78-16.8 1.44-.95-.06-2.72-.13-2.22-1.28 1.06-2.48-.74-2.42-2-2.91a32 32 0 0 0-7.4-1.99c-3.55-.47-7.11-.9-10.62-1.57-3.68-.7-4.73-2.96-3.13-6.28a7.7 7.7 0 0 1 3.18-3.27 32 32 0 0 1 7.52-3.16c4.34-1.25 8.83-1.76 13.29-2.62a26 26 0 0 0-8.49-1.54c-19.33-.17-37.54 4.17-54.53 13.46-.3.16-.54.43-.84.58-1.14.57-2.38.68-3.42-.03-1.04-.7-.5-1.88-.32-2.84.55-3 1.14-5.97 1.77-9.2-1.93 1-2.47 2.72-3.46 4.05a57 57 0 0 1-8.84 9.88 76 76 0 0 1-20.42 12.54c-.93.39-2.57.44-2.58 1.38-.04 3.69-3.58 4.7-5.07 7.22-1.5 2.55-3.53 4.85-4.35 8.22 2.92-.3 4.4-1.93 5.92-3.48a60 60 0 0 1 12-9.54c.43-.27.96-.3 1.4.1.49 1.41-1.63 1.98-1.36 3.43 1.07-.24 2.19-.85 2.64-.53 1.6 1.14-1.15 2.26-.48 3.7 5.06-1.82 9.7-4.05 14.66-5.33 1.3-.34 3.05-1.21 3.91-.7 2.9 1.7 4.9-.06 7.02-1.26 8.28-4.68 17.16-6.35 26.55-5.78.57 2.92-1.56 3.38-3.35 3.6-4.64.56-8 3.43-11.72 5.64 1.1 2.6 2.82 2.2 4.73 1.65 4.27-1.22 8.53-2.48 12.85-3.45 6.56-1.47 13.18-2.82 20-2.14-10.36 2.03-20.54 4.54-29.94 9.55 13.31-1.23 26.59-2.42 39.87-5.92-1.03 1.85-3.04 1.4-3.95 2.94.7.1 1.18.18 1.66.2 4.99.34 9.88-.37 14.72-1.49 2.15-.49 3.22.85 4.06 2.34.98 1.76-.25 2.78-1.59 3.72-.95.67-2.42.91-2.73 2.34 4.39 0 8.48-.04 12.57.01q5.39.09 10.67 1.13c.8.16 1.8.27 1.63 1.47-.13.9-.68 1.58-1.64 1.7-.85.1-1.7.08-2.56.08-2.05 0-4.12-.15-6.15.03-4.84.46-9.78.44-14.39 2.3 2.88.27 5.85.77 8.56.16 4.1-.92 6.62.36 8.22 4.5zm-410.3 378.19c-2.67-2.1-4.1-.8-5.5.91-2.93 3.58-5.92 7.11-10.01 9.43-8.56 4.83-16.42.49-16.9-9.3-.08-1.71-.16-3.45.09-5.13 1.27-8.65 3.2-17.1 8.08-24.58 1.49-2.29 2.57-4.85 4.15-7.06 2.53-3.53 4.89-7.36 9.53-8.62 1.89-.51 2.24-1.89 1.67-3.58-1.31-3.92-5.55-4.73-8.39-1.52a143 143 0 0 0-16.64 23.26c-4.28 7.37-6.74 15.25-4.67 23.98 1.53 6.5 3.22 12.9 7 18.54 1.75 2.6 3.75 3.33 6.93 2.62 11.16-2.49 18.44-9.78 24.66-18.95m-28.53-2.13c-.26 3.36.64 6.12 3.67 7.9 3.18 1.88 6.26 1.24 9.18-.53a21 21 0 0 0 4-3.15 88 88 0 0 0 6.58-7.16c2.35-2.96 5.58-5.74 3.38-10.29-.19-.37 0-1.05.22-1.48.8-1.57-.17-2.12-1.35-2.61-5.5-2.3-11.02-4.57-16.5-6.93-1.58-.68-2.43-.35-3.25 1.17-3.87 7.23-4.72 15.2-5.94 23.06zm221.36-209.56c-4.7 1.72-7.98 4.47-9.97 8.65-2.04 4.3-1.34 6.95 2.46 9.7 6.95 5.04 19.72 6.85 29.34-1.69 5.34-4.74 4.2-12.24-1.94-14.95-5.47-2.42-11-3.47-16.82-2.58-.75.6-.33 1.32-.45 1.94-.33 1.66-.61 4.14-2.64 3.61-2.86-.74.05-2.85.01-4.68zm-2.28 133.57c5.02.75 9.8 2.06 14.82 1.9 19.13-.56 38.2.9 57.3 1.66 2.56.1 5.12.43 7.67.34 3.3-.11 5.2-2.43 4.88-5.76-.14-1.51-.44-2.97-.22-4.55.7-5.3-.77-6.71-6.09-6.09-.83.1-1.64.44-2.48.61-6.84 1.38-13.53 3.56-20.51 4.18-2.48.22-3.8.95-4.68 3.57-1.59 4.73-2.47 5.24-6.46 4.8-10.18-1.12-20.43-1.15-30.64-1.86-4.58-.32-9.15.34-13.59 1.19zM451.9 129.7c-10.8-7.32-22.17-12.87-35.65-11.84-7.92.62-15.6 2.07-21.78 7.66-2.06 1.87-3.8 4.06-6.7 5.44 5.2 2.4 9.18 2.85 14.17.11 10.02-5.48 21.22-5.8 32.44-4.62 5.93.62 11.68 2.05 17.53 3.25zm17.18 288.46c2.86.96 5.88.99 8.92 1.02q6.13.04 12.27.18c9.54.25 19.05.87 28.56 1.57 1.3.09 1.75-.44 2.08-1.61a4.8 4.8 0 0 0-.34-3.86c-1.44-2.76-1.84-5.8-1.78-8.92.08-4.06-.19-8.11.62-12.34-3.35-.63-6.38-.4-9.42.01.57.6 1.17.85 1.75 1.13 2.37 1.17 4.6 2.54 4.65 5.54.05 3.22-1.73 5.4-4.47 6.93-1.69.94-3.6 1.27-6.1 1.98 2.2.54 3.7.83 5.14 1.28 1.46.45 2.93.95 4.3 1.62 1.3.66 3.23 1.19 2.79 3.12-.37 1.63-2.2 1.34-3.48 1.42-9.19.48-18.39.5-27.56 1.36-3.39.31-6.75-.8-10.02-1.79-1.52-.45-2.76-1.13-2.7-3.17.06-1.8.84-2.73 2.35-3.54 2.28-1.23 4.8-1.07 7.66-1.39-1.57-1.72-3.31-1.97-4.82-2.6-4.96-2.03-5.4-2.94-3.56-8.06.46-1.24 1.21-2.39 1.14-3.77-3.15-1.25-3.18-1.29-4.22-.72-1.37.74-2.48 1.65-2.93 3.32a25 25 0 0 0-.84 6.56q.02 7.34 0 14.73zm44.49-281.87c4 .35 8.11 2.28 11.68-1.35.64-.66 1.84-.92 2.83-1.05 5.32-.7 10-3.1 14.8-5.22 2.8-1.22 4.78-2.71 5.12-6.12.17-1.76 1.33-3.47 2.22-5.11a67 67 0 0 1 10.86-14.77c.92-.96 2.43-1.85 1.76-3.36-1.02-2.28.08-4 .7-6.05.66-2.22 1.84-4.38 1.79-7.12-.7.6-1.27 1-1.7 1.5a119 119 0 0 0-18.14 27.03 14 14 0 0 0-1.23 5.4c-.37 5.27-1.81 5.88-6.13 2.85-.23-.15-.55-.16-.86-.24-.97 1.49-1.72 3.14-1.2 4.82.88 2.87-.59 3.04-2.8 3.13-6.99.31-13.43 2.63-19.7 5.66m-72.35 601.93c.44-.75.56-1.08.79-1.32.66-.68 2.3.02 2.37-1.38.07-1.33-1-2.16-2.11-2.64a89 89 0 0 0-5.72-2.2c-2.59-.93-4.4.29-5.5 2.45a14.4 14.4 0 0 0-1.08 10.92c.34 1.13.9 1.8 2.1 1.72 4.92-.3 9.87.91 14.75-.26.34-1.7-.17-3.16-.6-4.62q-.99-3.33-5-2.68zm-72.97-81.32c-3.63-1.45-7.3-1.32-10.75-2.14-.7-.16-1.44-.13-1.77.57-1.88 3.99-4.37 7.75-4.93 12.27-.18 1.46.51 2.31 2 2.31 2.73 0 5.43.33 8.11.84 1.59.3 2.68-.1 2.86-1.92.42-4.3 2.33-8.1 4.48-11.93m301.96-256.98c-.88-2.3-1.68-4.12-2.29-6-.57-1.82-1.78-2.24-3.5-2.18-5.64.2-11.26.63-16.73 2.04-3.2.83-4.03 3.2-1.72 5.57 1.13 1.16 1.61 2.81 2.77 3.82 6.77-3.98 13.78-4.37 21.47-3.25m-175.49 39.43c.85.92 1.74.7 2.54.73 7.77.2 15.53-1.98 23.3 0 .15.04.33 0 .5 0 1.75.13 3.05-.25 2.9-2.43-.03-.5.16-1 .24-1.5.66-3.97.59-4.15-3.26-4.28-3.59-.12-7.18.1-10.75-.14-3.9-.27-7.42.99-10.91 2.27-2.42.9-4.25 2.64-4.56 5.35m-274.36 30.66c-.54-1.25-1.4-.84-1.88-1.16-2.23-1.52-3.57-.66-4.82 1.43-1.4 2.33-3.1 4.5-4.67 6.73-1.47 2.1-3.14 4.08-4.4 6.3-1.25 2.19-3.98 2.95-4.68 5.6 9.52-3.51 14.74-11.58 20.45-18.88zm210.96 278.94c.94 3.66 1.76 6.8 5.78 6.44 4.14-.35 8.42-.13 12.46-1.9-.37-1.5-.62-2.83-1.02-4.12-.46-1.48-1.37-2.22-3.07-1.7-4.44 1.4-9.08 1.02-14.15 1.28m-240.78-373.9c3.52-2.35 27-38.2 27.32-41.75a343 343 0 0 1-17 23.88c-4.24 5.43-7.46 11.57-10.33 17.88zm496.53-161.29c-.11-1.79.25-3.31-1.58-3.8-1.25-.33-2.42-1.49-3.81-.51-1.57 1.1-4.4 10.62-3.72 12.37.75 1.96 3.33 2.94 4.44 1.45 2.23-2.96 4.31-6.1 4.66-9.51zm-199 190c1.23-.41 2.68-.84 4.08-1.37.67-.25 1.02-.81.79-1.59-1.18-3.98-8.19-6.81-11.93-4.82-2.11 1.12-2.38 4.15-.3 5.29a21 21 0 0 0 7.35 2.48zm26.52 12.08c-10.74-2.6-21.56-3.84-32.58-1.91 10.85.84 21.59 3.38 32.58 1.91m-4.64-11.6c1.26-.49 3.8.43 4.27-1.94.4-2.04-1.92-2.52-3.35-3.29-1.19-.64-2.53-.97-3.75-1.55-2.33-1.12-4.31-.17-6.23.98-1.64.98-1.46 2.25-.02 3.19 2.6 1.7 5.55 2.46 9.08 2.61M242.2 313.1c-8.48 9.46-15.11 20.16-21.7 30.9 7.77-9.93 15.62-19.8 21.7-30.9m316.17 125.94c-5.35-2.83-21.49-2.19-25.07 0zm-363.16-14.89a27 27 0 0 0-15.38 6.04c-.65.52-1.27 1.32-.59 2.16.67.82 1.55.34 2.29-.07.6-.32 1.2-.64 1.73-1.05 3.11-2.43 6.45-4.32 10.45-4.85.64-.08 1.3-.4 1.49-2.24zm369.37-154.9-.02-.93c-2.17.22-4.34.33-6.48.69-3.69.61-7.5.68-10.9 2.56-.45.25-.74.64-.6 1.52l3.64 2.06c-.48-1.66-1.82-2.89.43-3.3zm64.07-107.86c-4.71 4.46-9.9 8.28-14.8 12.43 5.92-3.01 11.4-6.54 14.8-12.43M495.88 404.5l-4.73 4.3c3.92-.1 6.81 1 9.76.23-1.66-1.48-3.13-2.82-5.03-4.53m51.72-196.71c.54 5.82 2.99 8.37 8.9 8.9-4.09-2.34-6-5.35-8.9-8.9M496.46 399.5c1.01-2.16 2.68-3.38 2.98-5.62-2.58.05-4.83-.38-7.46.4zm-33.69 16.77q.58-5.05-1.7-6.93c-2.66 4.74-2.65 4.84 1.7 6.93m-56.92 41.83c4.76.67 8.96-.56 13.23-1.36a49 49 0 0 0-8.57-.16c-1.43.14-3.1.03-4.65 1.52zm156.11-42.58c6.12.35 6.56-.34 4.31-5.55-.87 2.05-1.78 3.81-4.3 5.55m-169.93 45.71c-3.23-1.62-6.8-1.46-10.06-2.61 2.77 3 6.4 3.05 10.06 2.61m234.01-24.96c-1.92-2.35-3.45-.9-4.93.54-.36.35-.44 1.05-.03 1.32 1.8 1.23 3.11.12 4.35-1.08.23-.21.39-.49.61-.79zM232.22 315.3c-3.15 1.05-4.63 3.52-4.93 6.81zm500.37-128.92c-.77 1.08-.54 2.13-.54 3.1 0 .92-.35 2.31 1.27 2.11 1.12-.14 1.74-1.1 1.54-2.26s-.58-2.3-2.27-2.95m-238.17-29.71c0 2.33 1.64 3.56 1.44 5.36-.1.94.62 1.14 1.31 1.02.75-.15 1.08-.81.97-1.54-.33-2.04-.96-3.9-3.7-4.83zm-15.26 96.38a19 19 0 0 0-5.02 7.52 16 16 0 0 0 5.02-7.52m223.45-76.67c-1.89-1.25-2.31-4.32-6.03-4.85zM560.15 405.03c-.59 1.98.38 3.17.43 4.51.04 1.36-.86 2.94.67 4.12q.86-4.48-1.1-8.63M453.28 564.77c4.12 0 5-.27 8.34-2.78a40 40 0 0 0-8.34 2.78M194.58 402.6c-1.74-1.55-3.27-3.51-6.44-3.35 2.07 2 4.14 2.88 6.44 3.35m204.66-47.37c1.57-1.14 3.32-2.18 4.44-4.71-2.72 1.07-4.12 2.35-4.44 4.71M388 444.82q-1.84 2.53-2.4 5.8 1.97-2.78 2.4-5.8m66.46-307.1c2.37.8 3.52 2.3 5.35 1.3-1.1-1.63-2.55-1.96-5.35-1.3m-170 90.31c.28-.23.81-.49.93-.86.16-.53-.24-.92-.84-.7-.42.14-1.05.39-1.13.7-.1.45.35.85 1.04.86m446.98-52.26c-.4-.48-.62-.93-.97-1.15-.4-.24-1-.24-1.2.33-.26.71.02 1.26.81 1.29.4 0 .8-.27 1.35-.47M265.05 289.76c-.02-.55-.68-.56-1.37-.53-.49.02-1.08.2-1.02.72.12.87.6 1.58 1.67 1.28.48-.13.85-.5.72-1.47m435.5 634.95c-6.9-6.54-13.7-12.77-20.26-19.23-19.49-19.22-37.47-39.79-54.82-60.93-7.26-8.84-14.64-17.6-21.35-26.87-3-4.15-5.7-8.5-8.53-12.78-1.07-1.6-2.18-3.5-1.08-5.23 1.61-2.53.74-4.83.27-7.3-2.44-12.76-3.39-25.7-4.47-38.61-.47-5.61-1.34-11.2-1.04-16.85.05-1.13-.23-2.36.98-3.24 2-1.48 3.76-1.12 4.94 1.43 1.9 4.06 2.52 8.5 3.12 12.88a717 717 0 0 1 4.27 39.62c.42 5.27 1.38 10.5 1.25 15.8a5.6 5.6 0 0 0 1.35 3.77l20.03 25.27c.3.39.78.63 1.5 1.2 1.85-3.53 4.5-5.84 8.69-5.67 1.52.05 1.69-1.43 2.38-2.33 1.82-2.39 3.53-2.74 6.18-1.36 2.94 1.52 4.53 4.26 5.5 7.15 2.6 7.7 1.27 14.98-3.03 22.29.22-5.8.52-11.07.58-16.33.04-3.95-1.4-7.37-4.6-9.86-1.77-1.37-2.5-1.01-2.96 1.26-.67 3.34-.67 3.38-4.18 2.9-2.07-.28-4.33-.71-5.6 1.34-1.42 2.3-.54 4.5 1.13 6.54 14.56 17.85 29.04 35.79 44.31 53.06 7.58 8.57 15.26 17.03 22.92 25.52 1.48 1.64 3 3.25 5.41 3.56 3.15.41 5.11 1.96 4.24 6.02 11.22-6.33 21.04-13.45 29.5-21.97 5.62-5.66 12.1-10.92 15.36-18.65.99-2.33 2.4-2.24 3.7-.3 1.98 2.93 4.63 3.45 8.02 3.15a382 382 0 0 0 41.44-6.21c7.34-1.48 14.78-2.39 22.16-3.69 2.08-.36 4.04.13 5.13 1.53 1.83 2.31 3.57 1.75 5.79 1 7.92-2.69 15.52-6.12 23.08-9.63 8.65-4.01 17.2-8.19 25.84-12.22 2.03-.95 3.75-2.35 5.65-3.49 3.39-2.04 5.93-1.25 7.28 2.46 2.65 7.23 4.5 14.6 2.57 22.38-.53 2.17-.97 4.31-3.42 5.33-.88.36-1.56 1.28-2.21 2.04-12.52 14.59-25.69 28.5-40.74 40.56-9.56 7.66-19.53 14.76-29.38 22.01-8.86 6.53-17.3 13.64-25.95 20.48-6.82 5.39-13.63 10.78-20.55 16.05-1.3 1-1.48 1.7-1.2 3.3a28 28 0 0 0 1.88 5.75c2.24 5.36 1.32 8.16-3.7 11.04-8.86 5.07-17.58 10.44-26.7 14.97-10.62 5.27-13.31 4.88-19.5-4.6a42 42 0 0 1-3.77-7.68c-1.23-3.08-3.41-5.78-5.17-8.67-9.64-15.83-19.55-31.5-27.13-48.46-1.58-3.54-3.53-6.98-3.78-11a4 4 0 0 0-.33-1.46c-1.93-3.68-2.04-4.11 1.38-5.62a7.8 7.8 0 0 0 4.76-6.72c.12-2.39 1.34-3.33 2.85-4.71zm194.06-62.15c-1.01-.18-1.75.16-2.53.57-5.75 2.95-11.54 5.82-17.28 8.8-12.85 6.63-25.72 13.21-39.95 16.48-1.25.29-1.91 1.14-2.77 2.01-4.4 4.5-8.86 8.9-14.7 11.67a104 104 0 0 1-40.31 10.17c-10.8.48-21.51-.07-31.44-5.11-2.09-1.06-3.12.19-4.34 1.45a156 156 0 0 1-22.22 18.65 129 129 0 0 1-22.63 12.68 1105 1105 0 0 0 28.14 57.02c1.82 3.45 3.57 6.94 5.44 10.38 1.26 2.31 4.96 3.76 6.64 2.48 3.55-2.72 7.6-4.57 11.52-6.58 7.69-3.92 14.73-9.14 23.22-11.52 1.37-.39 3.16-1.71 3.47-3.5.36-2.15 1.67-3.68 2.76-5.38.43-.68 1.28-1.54.01-1.98-3.14-1.1-1.23-2.65-.26-3.73 1.23-1.36 2.86-2.38 4.34-3.52 7.28-5.64 15.6-9.73 22.94-15.26 11.98-9 22.76-19.47 34.58-28.67 1.65-1.28 1.47-3.59 3.48-4.83 5.37-3.3 9.91-7.68 14.39-12.07 12.63-12.41 23.75-26.17 35.24-39.6 2.86-3.34 3.44-6.67 2.28-10.6zm-68.03 23.73c-1.43-.41-2.96-.03-4.45.24-9.71 1.74-19.39 3.62-29.1 5.3-8.57 1.48-17.2 2.4-25.9 2.57-2.1.04-4.7-1.56-5.94-.55-3.07 2.48-5.54.9-8.2-.42l-3.07 5.07c-1.56 2.6-1.57 2.69 1.55 3.3 4.66.94 9.33 1.93 14.04 2.56 19.38 2.6 37.9-.58 55.62-8.66 3.96-1.8 7.25-4.16 5.44-9.42zm-54.05 119.31c3.52-1.27 2.71-2.75 1.3-4.59-1.29 1.38-.79 2.81-1.3 4.59m-24.72 12.56c-1.24.15-2.05.2-2.85.34-.78.15-1.9.16-1.66 1.35.22 1.07 1.29.93 2.07.76 1.01-.21 1.79-.86 2.44-2.46zm10.91-15.13c-2.47 1.19-4.37.98-5.33 3.18 2.18.17 3.44-.86 5.33-3.18"/><path fill="#000" d="M271.3 320.06c.43-5.2 2.53-9.94 4.48-14.62 4.52-10.9 10.25-21.22 16.12-31.44 1.7-2.98 3.85-4.4 7.43-4.22 4.26.22 8.42.3 12.57 1.76 3 1.06 6.39.97 9.57 1.57 8.55 1.62 17.02 3.59 25.18 6.76 8.4 3.27 16.89 6.33 25.26 9.76-4.34.09-8.24-2.08-12.53-2.27 3.68 2.43 7.8 3.78 11.84 5.24 4.01 1.44 7.82 4.28 12.45 2.83.19-1.75-1.82-1.64-1.78-2.97 5.3.29 8.84 4.8 7.74 9.91-2.48 11.54-6.17 22.72-10.06 33.83-2.02 5.79-4.2 11.52-5.59 17.5-.23 1.02-.39 2.35-1.6 2.27-3.61-.27-6.12 2.27-8.78 3.79-2.39 1.35-3.88 1.32-5.93.16-1.18-.67-2.45-1.15-4.08-1.9-2.85 6.72-5.58 13.31-8.44 19.86-5.27 12.04-9.38 24.54-14.25 36.73-1.46 3.64-3.22 7.15-4.85 10.73-.65 1.42-1.27 3.11-3.27 2.28-1.95-.82-1.36-2.58-.77-3.97 6.27-14.77 10.11-30.46 17.2-44.93 3.51-7.2 6.74-14.51 10.24-22.09-21.02-9.5-42.9-16.5-64.07-25.5-3.2 12.43-8.96 23.34-13.5 34.73a2011 2011 0 0 1-12.15 29.89c-.6 1.45-.39 2.34.9 2.9 7.65 3.37 14.27 8.73 22.2 11.6 13.69 4.97 26.36 12.1 39.21 18.81.25.14.35.55.52.83-3 .91-3 .93-6.28-.65-6.93-3.32-13.8-6.73-20.78-9.96-12.38-5.74-25.34-10.18-37.57-16.28-2.44-1.21-4.8-2.59-7.27-3.75-3.32-1.57-3.54-1.88-2.46-5.12q.46-1.47 1.22-2.81c7.13-12.56 11.07-26.44 16.69-39.63 3-7.06 5.4-14.4 9.03-21.19.98-1.82 1.03-3.2-1.19-4-1.52-.56-2.38-1.86-3.32-3.06 17.54 5.5 34.47 12.68 51.8 18.75 11.54 4.05 22.36 9.97 34 13.87 2.2.74 4.2 1.28 6.28-.1 6.45-.74 6.8-1.13 8.32-6.85 2.05-7.73 4.26-15.42 6.41-23.12 1.88-6.74 4.2-13.38 5.35-21.4-3.21 3.81-3.7 7.62-4.95 11.07-2.8 7.67-4.49 15.74-8.19 23.07-2.82 5.6-5.34 11.27-6.81 17.39-2.2-.82-4.12-1.66-2.9-4.74 4.18-10.45 6.89-21.45 11.55-31.73 2.32-5.14 4.54-10.32 6.77-15.49 2.17-5.02 1.93-5.5-2.97-7.08a72 72 0 0 1-5.3-1.92 299 299 0 0 0-41.27-13.65c-9.77-2.42-19.46-5.14-29.21-7.68-4.02-1.05-4.15-.94-6.27 2.96-6.35 11.71-12.46 23.54-17.46 35.92-1.07 2.66-2.16 5.4-4.5 7.31zm-14.95 75.33c1.2-.25 1.46-1.91 2-3.24a1034 1034 0 0 0 19.89-53.08c.78-2.25 1.58-4.5 2.29-6.76.32-1.02 1.27-2.45-.6-2.89-1.6-.37-1.19 1.2-1.47 2.06-.98 2.9-1.76 5.88-2.93 8.7-7.18 17.28-13.61 34.89-21.94 51.68-1.1 2.24-.24 3.66 2.76 3.54zm52.55-121.5a215 215 0 0 0 31.06 7.75c-10.02-3.7-20.6-5.2-31.06-7.75m41.38 10.33c-.72.2-.78.59-.38.6 1.58.05 2.8 1.8 4.91.84zm273.9 370.2c2 4.76 5.36 8.67 8.15 12.92a404 404 0 0 1 25.8 45.93c.96 1.97 2.2 3.88 1.34 6.28-.2.56.1 1.33.28 1.97 4.84 18.43 8.66 37.14 14.91 55.2 6.81 19.7 15.2 38.74 24.22 57.5 9.9 20.6 19.75 41.23 30.82 61.24.23.42.28.93.58 1.97-2.63-.95-3.63-2.96-4.73-4.65a620 620 0 0 1-11.5-18.16 641 641 0 0 1-33.12-61.77c-1.7-3.63-1.76-3.6-5.88-3.1a11 11 0 0 1-8.24-2.05c-6.1-4.53-8.6-14.28-5.55-21.29.7-1.6 1.52-3.41 3.03-4 3.75-1.43 2.9-3.71 1.94-6.49a269 269 0 0 1-7.15-25.05c-.15-.64-.16-1.38-1.19-1.9-1.22.29-1.72 1.7-2.56 2.6-1.73 1.85-3.65 3.04-6.27 2.9-2.85-.17-5.35.9-7.72 2.33 1.43-3.38 4.59-3.9 7.6-4.13 4.1-.3 6.06-2.47 6.98-6.23 1.82-7.5-1.12-14.4-2.53-21.48-.2-.94-1.4-.48-2.02.25 2.65-6.68 1.37-13.06-2.2-18.87-9.68-15.69-19.65-31.2-29.42-46.81-2.26-3.62-4.27-7.39-6.31-11.13-.57-1.03-1-2.2-1.16-3.36-.22-1.56.6-2.19 2.17-1.69 1.73.55 2.77 1.83 3.85 3.2 2.09 2.64 3.19 6.02 6.07 8.06zm54.5 153.73-7.84-18.78c-1.53-3.65-4.07-4-6.72-1.03-1.48 1.68-1.79 3.63-1.51 5.72 1 7.7 6.28 13.77 16.06 14.08zm-49.42-529.98c-5.4-5.92-8.72-12.53-13.55-18.09a27.6 27.6 0 0 1-6.37-13.8c-.12-.7-.16-1.33.7-2.03 2.2.35 2.87 2.54 3.96 4.09a106 106 0 0 0 14.2 16.76c12.16 11.4 26.82 15.8 43.12 15.65 2.58-.02 5.1-.46 7.5-1.44 1.36-.54 2.6-.74 3.43.95.85 1.71.36 2.97-1.03 4a7.5 7.5 0 0 1-4.35 1.3c-13.03.49-26 .55-37.97-5.85-1.06-.57-2.16-1.31-3.29-.28-5.3 4.87-11.83 7.88-18.1 11.89 2.47 3.03 5.71 4.66 8.22 7.11.97.95 2.08 1.77 3.06 2.72 4.04 3.97 3.9 6.15-.66 9.4-1.28.9-2.55 1.72-3.18 3.22-.26.59-.73 1.12-.21 1.85 3.67 5.18 3.92 11.15 3.67 17.13-.17 3.94.73 6.8 4.35 8.95 2.76 1.65 4.75 4.39 6.6 7.08 1.03 1.51 1.52 3.1.54 4.79a20 20 0 0 1-13.76 9.87c-.76-3.7 1.68-4.89 3.61-6.36 4.19-3.2 4.19-3.17.3-6.8-2.24-2.1-4.29-4.4-7.13-5.77-1.86-.89-2.6-2.49-2.89-4.5-1.01-7.06-2.1-14.1-3.61-21.07-.57-2.67.63-5 2.88-6.69 2.2-1.64 3.92-3.72 5.59-5.9 1.33-1.75.9-2.56-.7-3.64a324 324 0 0 1-18.88-14.07c-10.72-8.57-19.8-18.8-29.18-28.71-5.3-5.6-11.35-10.36-16.8-15.77-1.61-1.6-2.8-1.14-4.43-.13-4.2 2.61-8.48 5.09-12.76 7.57-1.14.66-2.5 1.73-3.6.21-1.04-1.42-.67-3.02.72-4.1a50 50 0 0 1 17.27-8.67c2.5-.7 4.52 1.27 6.4 2.7a183 183 0 0 1 18.52 16.14c8.7 8.67 16.89 17.9 26.37 25.78.92.76 1.9 1.48 2.72 2.33 1.43 1.5 2.8 1.47 4.53.42 4.51-2.73 9.11-5.32 14.2-8.27z"/><path fill="#000" d="M325.5 389.95c1.36 1.7 3.67 2.55 4.29 4.93a7.34 7.34 0 0 1-4.44 8.8c-2.54 1.06-3.03 2-2.05 4.53 1.43 3.66-.28 7.01-1.86 10.26-.6 1.23-1.3 2.6-3 2.21-1.6-.37-.43-2.16-1.5-3.27-1.1 2.65-2.8 2.56-5.22 1.63-14.55-5.5-28-13.42-42.44-19.13-3.15-1.25-4.13-5.24-3.6-8.63a25 25 0 0 1 2.36-7.28c3.3-6.57 5.7-13.53 7.49-20.57 1.25-4.92 4.52-8.64 6.04-13.28a44 44 0 0 1 1.94-4.73c1.33-2.87 3.13-3.72 6.18-3q.26.04.5.16c7.46 5.03 16.84 5.23 24.49 9.77 1.75 1.05 3.56 2.04 5.26 3.17 1 .68 1.87 1.22 3.21 1.2 4.3-.05 7.44 2.34 9.83 5.57 1.17 1.59 2.14 2.72 4.3 3.05 2.58.4 3.4 2 2.61 4.5-.98 3.14-2.4 6.3-5.83 7.28-2.23.63-2.53 1.66-2.43 3.58.25 4.62-1.8 7.81-6.22 9.37.2-3.33.5-6.64 2.47-9.5 1.2-1.76.86-3.44-.04-5.15.5-.06 1.3.04 1.44-.22 1.76-3.21 1.47-6.89 2.09-10.35.25-1.41-3.04-3.6-5.04-3.62-2.01-.04-3.12 1.07-3.47 3-.27 1.5-.25 3.13-.86 4.49-1.23 2.79-.03 4.03 2.47 4.78.42.14.77.55 1.15.83-1.48-.35-2.58-.18-3.25 1.5-1.23 3.15-2.65 6.22-4.08 9.53 2.4 1.58 4.3 3.84 7.22 4.6zm-18.33-23.88c3.46.09 5.98 2.8 9.35 3.67.92-3.06.95-6.05 2.55-8.55.87-1.36-.13-2.23-.9-3.12-3.46-4.01-8.68-4.33-13.17-6.17-.34-.14-.94.25-1.4.44-4.28 1.83-5.77 6.48-3.49 10.87-.83-.16-1.23.2-1.36 1.02-.52 3-.62 6.1-1.69 9.02-.69 1.9-.11 3.16 1.76 4.11 4.11 2.08 8.12 4.34 12.18 6.53-4-.32-7.43-2.23-10.88-4-1.9-.98-3.1-.66-4.1 1.25-1.65 3.12-3.45 6.17-5.34 9.53l17.2 7.7c1.15-2.93 1.85-5.8 3.31-8.18 1.54-2.49.88-4.35-.44-6.42 1.3.08 1.66-.8 2.02-1.8.79-2.22 1.4-4.55 2.55-6.57 1.4-2.43.3-3.8-1.5-5.03-2.17-1.48-4.44-2.85-6.66-4.27zm-36.33 19.44c-1.91 1.97-2.04 4.53-3.28 6.55-.83 1.34-.26 2.14 1.24 2.56 9.58 2.69 18.16 7.58 26.9 12.14 4.97 2.6 10.12 4.85 15.2 7.21.88.4 1.96 1.1 2.71-.1 1.31-2.06 1.39-4.56 1.7-6.86.24-1.82-1.94-2.14-3.24-2.77-13.6-6.56-27.88-11.66-41.24-18.73zm19.63-5.76c.22-1.3-.52-2.27-1.55-2.9q-2.6-1.58-5.38-2.86-6.89-3.21-9.51 3.9c-1.29 3.5.03 6.45 3.47 7.8.8.31 1.55.76 2.37.9 2.58.44 5.28 3.63 7.4 1.65 1.87-1.73 2.1-5.21 3.05-7.92l.16-.56zm.86-5.72c.52-2 .96-3.78 1.44-5.56q1.7-6.27-4.03-9.36c-1.2-.64-2.48-1.1-3.7-1.7-1.86-.93-2.82-.18-3.36 1.64-.97 3.22-2.02 6.42-3.14 9.96 4.54.98 8.43 3.46 12.8 5.01zm26.87 14.19-7.08 11.87c8.82 5.35 9.53 7.6 11.92-4.9.93-4.9.78-5.03-4.84-6.98zM295.18 352c.06-1.1.25-1.96.13-2.78-.3-2.16-1.92-3.1-3.82-3.53-1.24-.28-2.67-1-3.68.52-1.3 1.97-2.54 3.98-3.82 5.95-.82 1.28-.44 2.32.8 2.94a118 118 0 0 0 8.66 4.11c1.05.44 2.44.22 3.16-.9.56-.85.61-2.73.22-2.82-2.49-.56-1.57-2.33-1.64-3.5zm24.9 56.16a16 16 0 0 0-1.28 6.99c1.44-2.49 2.58-4.3 1.29-7m-7.5-231.78c2.68-4.52 3.58-9.51 4.76-14.34 1.15-4.76 4.16-9.36 2.12-14.61 1.2-1.17 2.6-.78 3.86-.51 3.84.8 7.73 1.48 11.45 2.63 17.9 5.57 36.11 10.05 53.83 16.2 2.07.72 3.03 2.12 3.61 3.91 3.21 9.67 7.09 19.16 8.2 29.41.1.85.2 1.7.2 2.55-.04 2.91-.9 3.57-3.78 2.7-11.9-3.58-23.85-7.07-35.7-10.87-14.27-4.58-28.47-9.4-42.68-14.17-2.05-.69-4.27-1.19-5.88-2.9zm10.14-17.59c22.64 7.67 45.24 14.08 67.88 20.3-.32-7.68-4.13-10.94-11.02-12.71-15.5-4-31.23-7.07-46.43-12.21-6.4-2.17-6.47-1.96-10.43 4.63zm72.36 34.99c.47-5.82.14-6.94-1.36-9.61-1.6-2.84-4.54-1.91-6.8-2.59-18.58-5.58-37.25-10.83-55.84-16.4-3.05-.93-5.11-.56-6.95 1.92-.4.55-.88 1-.86 1.9 24.27 7.08 47.83 16.43 71.81 24.78m3.4 8.58c-.44-3.88-2.25-5.64-5.08-6.62-4.03-1.39-7.97-3-12.02-4.34-18.77-6.18-37.6-12.15-56.32-18.51-3.5-1.2-5.8-.92-8.08 2.3 26.92 9.37 53.72 18.65 81.5 27.16zm58.41 39c-7.48 3.54-11.16 10.32-15.65 16.23-9 11.85-19.15 22.65-29.37 33.42-.47.5-.87 1.09-1.41 1.48-1.42 1.03-3.13.28-3.43-1.44-.21-1.25.3-2.38.69-3.49 6.5-18.46 12.26-37.18 19.6-55.34.77-1.92 2.19-1.53 3.34-1.28 4.33.96 8.65 2.02 12.89 3.28 3.1.93 6.08 2.23 9.1 3.37 1.66.62 2.86 1.78 4.23 3.76zm-29.03 4.28c2.07-.57 2.17-2.14 1.73-3.96a132 132 0 0 0-1.6 4.12l-1.52 4.3c1.08-1.35 2.28-2.7 1.39-4.46m255.57 645.71c1.06.24 2 .1 2.78-.76 4.2-4.53 9.34-7.93 14.17-11.7 1.9-1.47 2.67-2.7.67-4.86-3.46-3.75-6.7-7.71-9.9-11.7-1.59-1.95-3.11-2.18-5.27-.93-4.16 2.4-8.1 5.05-11.46 8.5-2.6 2.64-2.93 4.34-.98 7.61 1.56 2.63 3.5 5.03 5.33 7.48.9 1.2 2.27 2.16 1.93 3.95-3.69-2.61-6.04-6.38-8.76-9.87-1-1.28-.53-4.51-3.89-3.46-.57.18-.5-.95-.04-1.51 1.58-2 3.1-4.08 5.21-5.6 1.43-1.02 1.62-2.05.25-3.29-1.6-1.43-2.06-4.1-5.49-3.3-2.5.6-3.2-.86-3.53-4.88 1.52.31 2.4 1.3 3.4 2.31.58.6 1.66.42 2.27-.34.6-.76.53-1.63-.28-2.2-.74-.51-2.89-.1-1.15-2 1.23-1.33 2.56-1.68 3.97-.28 1.14 1.14 1.15 2.53.3 3.73-2.2 3.16 1.22 3.55 2.39 5.05 1.38 1.77 2.8 1.33 4.37.15 2.59-1.96 5.58-3.25 8.41-4.81 2.29-1.27 3.81-.66 5.32 1.08 4.44 5.13 8.97 10.15 12.02 16.34.82 1.66.57 2.48-.54 3.45q-4.25 3.69-8.52 7.34-5.01 4.28-10.06 8.55c-1.59-.98-2.66-2.22-2.93-4.05zM500.6 483.42c-12.57 2.27-25.15 4.48-37.7 6.83-15.24 2.85-30.44 5.94-45.42 10-2.13.57-4.42.86-6.07 2.46-1.17 1.13-2.21.56-3.25.04-1.8-.88-1.95-2.39-.2-3.49 3.05-1.91 6.5-2.97 9.98-3.82 13.26-3.23 26.78-5.12 40.27-7.1 11.47-1.7 22.97-3.14 34.44-4.7 2.7-.37 5.4-.88 8.1-.12zm-142.71-90.4c-.43 3.07-1.78 5.87-2.74 8.79-2.45 7.5-6.04 14.49-9.72 21.43-.97 1.82-5.59 3.78-7.34 3.2-1.02-.34-1.12-1.16-.94-2.05.51-2.5.88-5.03 1.95-7.4 3.95-8.7 7.83-17.44 11.83-26.13.64-1.38.76-3.66 3.27-3.12 2.51.53 3.98 2.68 3.68 5.27zm-9.06 8.96c-3.24 5.94-5.71 12.25-9.23 18a2 2 0 0 0-.19.47c-.3 1.13.05 2.14 1.12 2.5 1 .34 1.38-.66 1.7-1.43 1.65-3.9 3.4-7.77 4.88-11.74.92-2.47 2.18-4.93 1.73-7.8z"/><path fill="#000" d="M500.76 483.51c-3.64-3.28-8.47-4.3-12.56-6.73-2-1.2-4.42-1.8-6.07-4.27 1.84-1.12 3.5-.51 5.2-.01 8.7 2.55 16.9 6.34 25.1 10.14 8.49 3.95 16.88 8.1 25.32 12.2q1.15.52 2.22 1.22c.42.28.65.8.34 1.32-.28.48-.78.7-1.29.54a63 63 0 0 1-4.83-1.66c-9.49-3.82-18.94-7.7-28.43-11.47-1.66-.66-3.16-2.1-5.18-1.39zm-56.78-308.18c-4.18.42-8.5-2.89-9.13-7.28-.77-5.32 2.75-9.84 8.34-10.97 3.77-.75 7.17.31 9.94 2.88a6.5 6.5 0 0 1 1.9 6.97c-1.33 4.61-6.22 8.4-11.04 8.4zm6.72-8.2a7.2 7.2 0 0 0-4.12-4.87c-1.4-.67-3.08-1.31-4.38-.35-1.61 1.2-.41 2.8.2 4.13a32 32 0 0 0 1.95 3.58c.85 1.39 2.03 2.53 3.73 1.66a4.7 4.7 0 0 0 2.62-4.14m35.2 37.78c-1.96 1.82-4.56 1.86-6.98 2.43-3.35.8-6.77.9-10.16 1.23-2.75.25-5.01.48-6.17-3.26-.8-2.56-3.67-4.41-5.3-6.8-4.96-7.3-4.32-8.66 4.47-9.72a342 342 0 0 1 35.23-2.44c3-.05 5.96-1.4 9.8-.13-16.53 2.7-32.44 3.98-48.74 5.33a90 90 0 0 0 5.52 11.17c1.53 2.69 3.47 3.34 6.31 2.97 4.73-.63 9.49-1.06 14.23-1.52.58-.05 1.33-.25 1.8.75zm-9.97-35.12c-6.68.14-11.85-4.4-11.82-9.9.02-3.33 1.63-5.35 4.9-6.15 4.6-1.13 10.87 1.2 13.57 5.05 2.94 4.19 1.28 8.95-3.67 10.4-1.13.33-2.33.47-2.98.6m1.92-7.46c-.04-1.22-.04-2.42-.84-3.4-1.1-1.34-2.44-1.89-4-.94-1.74 1.07-1.41 2.46-.37 3.84a40 40 0 0 0 1.6 1.97c.66.78 1.4 1.57 2.55 1.1 1.19-.47.85-1.68 1.06-2.57m-79.8-11.98c6.64-4.22 59.14-7.05 80.02-4.3-.75.86-1.84.97-2.79.94-25.46-.77-50.72 2.04-76.02 4.1-.46.04-1.03-.12-1.2-.74M246.55 428.1c3.98.13 7.1 3.51 7.96 8.62.64 3.81-1.07 6.72-4.7 8-3.95 1.37-8.42-1.16-10.5-5.94-2.52-5.84.9-10.86 7.24-10.67zm5.18 9.45c-.4-.85-.47-2.57-2.1-2.69-2.06-.14-3.18 1.66-4.4 3-.84.93-1.1 2.08-.27 3.23q.16.2.4.3c1.97 1.11 6.2-1.18 6.37-3.85zm-8.22-4.51c-4.02 1.1-4.19 1.68-1.6 5.38.9-.75.54-1.87.82-2.79.25-.85 1.32-1.5.78-2.6zm11.27-24.13c5.81.06 8.84 3.09 8.45 8.3-.12 1.64-.68 3.1-1.92 4-2.56 1.86-5.3 4.27-8.41 4.05-2.58-.19-3.54-3.72-4.31-5.83-2.36-6.5-.87-10.98 6.18-10.51zm1.16 5.34c.02-1.45.67-2.77-1.16-3.1-1.45-.26-2.74-.16-3.33 1.41-.97 2.51-.74 5 .8 7.19.95 1.35 2.06.95 2.6-.48.64-1.72 1.16-3.5 1.09-5.02m2.04 5.68c.14-.4.03-.76-.32-.76-.27 0-.61.24-.77.48-.14.2-.15.75-.05.8.53.26.91 0 1.14-.52m18.24-2.56c5.55.17 9.29 3.18 9.2 7.4-.11 4.7-5.03 8.69-10.2 8.62-4.46-.05-6.24-3.98-6.64-9.78-.26-3.89 3.15-6.38 7.63-6.24zm3.48 7.58c-.03-1.4-2.65-5.58-3.66-5.82-1.54-.37-3.61 1.55-4.88 3.9-1.8 3.35 1.51 3.47 2.8 4.87.96 1.03 2.08 1.92 3.56.9 1.3-.92 2.23-2.13 2.18-3.84zm1.55-3.99c.54 1.48.2 3.14.79 4.85 2.36-2.34.96-3.68-.8-4.85m26.08 14.63c.04 4.64-4.84 7.68-9.58 5.97-3.58-1.29-6.4-6.1-5.83-9.86.54-3.52 3.02-5.24 7.07-4.92 4.46.35 8.3 4.41 8.34 8.81m-5.6-3.28c-.92-.94-1.8-.9-2.64-1.04-3.59-.62-5.3 1.5-4.16 4.97a3.2 3.2 0 0 0 2.55 2.21c1.35.3 2.14-.56 2.76-1.72a14 14 0 0 0 1.49-4.42m81.53-177.97c0 4.93-3.37 8.28-8.32 8.26-4.78-.03-8.13-3.56-8.07-8.51.05-4.32 2.55-7.67 5.77-7.78 5.72-.16 10.62 3.54 10.62 8.03m-10.23-3.5c-2.7.01-4.28 1.02-3.98 2.79.4 2.39 1.46 4.57 3.73 5.78 2.94 1.57 5.85.03 6.38-3.26.54-3.43-1.67-5.35-6.13-5.32m-90.5 207.2c.23-3.27 1.68-4.64 5.14-5.01 4.08-.43 7.81-.13 10.14 3.93 1.72 3.01 1.25 6.01-1.45 8.13-2.96 2.33-6.21 2.48-9.54.95-2.82-1.28-4.52-4.6-4.28-8zm7.24 6.65c1.98.14 3.99-1.88 4.24-4.27.21-2.06-1.2-4.16-2.78-4.16-1.8 0-4.69 2.08-4.72 3.43-.08 2.7 1.32 4.86 3.26 5m67.46-93.69c4.45-.04 9.23 4.28 9.36 8.46.13 3.6-2.3 6.08-6 6.13-4.75.06-10.05-4.55-9.94-8.65.07-3.13 3.15-5.9 6.58-5.94m-.16 10.57c2.19.13 4.94-1.6 5.15-3.03a3.83 3.83 0 0 0-3.54-4.16c-2.33-.08-4.02 1.38-4.08 3.62-.06 1.9.63 3.33 2.48 3.57zm-4.48-127.04c-4.95-.92-5.64-5.38-7.05-9-.52-1.33 1.16-2.7 2.24-3.78 2.39-2.37 5.43-2.75 8.93-1.18 2.98 1.32 5.1 3.29 5.15 6.85.09 5.51-3.66 8.3-9.42 6.98 3.52-1.6 5-4.4 5-8.17 0-2.1-1.1-3.06-3.04-3.42-1.66-.32-3.04-.13-4.05 1.36-1.48 2.16-1.73 4.5-.56 6.78.68 1.33 1.84 2.4 2.8 3.58m-125.72 143.8c-1.89 6.36-5.6 11.47-8.58 16.98a164 164 0 0 0-6.08 12.4c-.8 1.84-2.07 3.94.36 6.09-5.13-.78-5.13-.83-3.94-4.46 3.21-9.84 8.22-18.72 14.55-26.87 1.13-1.46 2.46-2.77 3.7-4.14zm88.03-170.9q5.86.02 5.79 6.16c-.07 5-3.39 9.05-7.32 8.9-3.16-.1-7.46-4.76-7.46-8.06 0-3.02 5.12-7 9-7m-5.65 7.69c-.04 3.26.8 4.88 2.91 5.39 2.49.6 3.4-1.36 3.88-3.12.52-1.9 1.03-4.08-.9-5.65-.94-.75-2.11-1.43-3.28-.69a5.6 5.6 0 0 0-2.61 4.07m362.14 190.3c-4.07.9-7.45.14-10.82.15-3.22.02-6.45-.27-9.68-.37-1-.04-2.18.29-2.65-.91-.47-1.22.12-2.38.86-3.3.78-.94 1.93-1.26 3.18-1.42 5.14-.67 14.04 1.88 19.11 5.85M340.25 241.05c-.16 3.15-.08 6.15-3.52 7.44-2.63.99-5.8.04-7.76-2.3-1.7-2.03-2.08-6.58-.62-9.15 1.3-2.3 3.16-4.09 6-4.06 2.3.03 4.91 2.63 5.57 5.3.24.99.25 2.02.33 2.77m-3.42-.16c.07-2.55-1.5-4.35-3.75-4.33-1.98.02-3.97 2.26-3.91 4.42.06 2.4 2.47 5.33 4.47 5.46 1.62.09 3.12-2.52 3.2-5.55m25.21 199.39c-1.78 6.42-19.74 30.18-26.91 35.96a279 279 0 0 1 26.91-35.96M310.56 175.7c-1.53-2.23-1.25-4.65-.85-6.89 1.1-6.23 3.3-12.16 5.92-17.92.38-.86.7-2.16 2.08-1.62 1.16.46 1.03 1.65.87 2.66-.1.67-.32 1.33-.55 1.97a513 513 0 0 0-7.47 21.81zm337.85 570c-1.99 2.62-5 2.77-7.83 3-2.1.17-3.17 1.17-3.58 2.96a267 267 0 0 0-2.2 10.47c-.32 1.68.68 2.59 2.2 2.85 1.85.32 1.77-1.14 1.82-2.3.1-2.19-.29-4.55 2.29-5.73-1.15 1.95 0 4-.25 5.99-.51 4.1-3.79 5.88-6.77 3.66-.69-.5-1.53-1.17-1.29-2.04 1.13-4.1-.03-8.41 1.41-12.54 1.19-3.4 3.34-5.08 6.71-5.11 2.6-.02 5.02-.68 7.5-1.23zM411.79 201.47c-3.75 0-5.47-1.26-5.31-3.87.17-2.85 3.28-5.69 6.17-5.63 2.88.05 6.2 3.2 6.07 5.77-.1 2.14-3.08 3.75-6.94 3.74zm-1.56-6.4c-.98.35-1.38 1.08-1.25 1.99.28 2.04 1.6 2.88 3.58 2.73.76-.06 1.46-.6 1.1-1.27-.77-1.47-1.61-3-3.43-3.46m12.24 322.7c5.7-2.93 11.75-5.05 17.9-6.89.32-.09.68-.1 1.02-.13 1.09-.07 2.2.13 2.53 1.24.4 1.4-.93 1.6-1.84 1.86a401 401 0 0 1-10.86 2.97c-2.77.72-5.58 1.3-8.37 1.94zm-82.79-59.22c-1.36.07-1.92-.69-1.6-1.89.94-3.55 3.22-6.31 5.58-8.98.76-.85 1.5-.24 2.03.53.5.74.58 1.56.49 2.43-.32 2.85-4.27 7.67-6.5 7.91"/><path fill="#000" d="M489.25 191c-8.68 2.05-17.57 2.72-26.46 3.37 8.65-2.3 17.51-3.01 26.46-3.37M372.54 551.42c-3.16-3.35-3.89-6.58-4.44-9.83-.18-1.05.5-1.94 1.4-2.55.63-.44 1.64-.46 1.72.18.51 3.7 1.91 7.33 1.32 12.2m32.41-366.94c-1.5-.26-2.13-1.32-2-2.87.2-2.13 1.9-3.65 3.69-3.39 1.47.22 1.92 1.23 1.89 2.54-.04 1.94-1.78 3.8-3.58 3.72m221.28 232.98c-1.83-1.38-3.26-2.39-3.9-4-.43-1.09-.5-2.43.9-3.06 1.22-.57 2.32-.18 3.06.97 1.21 1.87 1.15 3.75-.07 6.1zm-8.9-33.54c-3.56-1.08-6.55-2.6-6.56-6.75 0-.65.05-1.4.84-1.63.84-.26 1.19.3 1.42 1 .92 2.75 2 5.4 4.3 7.38m33.62 341.74c-.92 5.84-1.3 11.7-1.26 17.6 0 .71-.33 1.3-.88 1.74 0-3.39.04-6.77 0-10.15-.03-3.25.17-6.42 2.15-9.19zM326.03 480.4c1.2 1.33-.22 2.87 1.04 4.5-4.14-1.69-4.16-1.88-1.04-4.5m2.46 4.35c.3-4.1 3.96-3.93 4.9-6.23-.73 2.39-1.98 4.34-4.9 6.23m399.66-371.68c-.55-4.35 2.4-2.18 4.97-2.68-1.87 1.97-3.59 2.08-5.15 2.5zm-231.48 77.32h-3.13c.99-.3 1.97-.67 3.13 0M295.6 339.08c-.13.68-.42 1.29-1.2 1.23-.17-.01-.39-.75-.4-1.17-.02-.45.16-1 .75-1 .52 0 .87.34.85.94m233.09 69.42c3.16-.67 6.45-.81 9.5-2.03-3.45 2.11-7 3.8-11.22 2.72zM297.62 278.8q8.21 1.89 16.43 3.81c16.16 3.78 31.79 9.19 47.13 15.44 2.8 1.14 5.53 2.38 8.77 2.47 3.3.1 4.1 1.87 3.01 5.06-4.81 14.2-10.38 28.16-14.78 42.52-1.04 3.42-2.44 3.78-5 1.37-1.57-1.5-3.4-2.17-5.32-2.88-19.83-7.35-39.88-14.14-59.2-22.82a150 150 0 0 1-8.28-4.05c-1.17-.6-1.92-1.2-1.5-3.14 2.7-12.51 7.9-23.93 14.46-34.81.97-1.61 1.82-3.42 4.29-2.98zm55.73 65.83c4.96-12.65 9.53-24.77 13.03-37.26 1.16-4.17 1.21-4.05-3.1-5.53-19.87-6.83-40.17-12.2-60.41-17.73-2.43-.67-3.2.19-4.2 2.18-3.15 6.25-6.57 12.37-9.95 18.5-2.1 3.83-4.23 7.65-5.85 11.76zm333.94 522.41c1.1 2.66-1.67 7.19 4.53 7.16-3.75.3-5.64 1.6-5.83 4.79-.04.65-.23 1.4-.91 1.74-.98.49-2.32.8-2.24-.72.14-2.97-.3-5.01-3.94-4.73-.64.05-1.22-.54-1.23-1.35-.02-1.02.57-1.56 1.49-1.75.5-.1 1.03-.23 1.52-.13 2.8.52 4.04-1.01 4.73-3.42.17-.63.6-1.2 1.89-1.59zm7.63 11.45c-1.36 4.61-2.2 5.16-7.58 4.91zm-440.1-255.4c-1.94 4.27-3.91 8.52-5.83 12.81-2.15 4.83-4.6 9.53-6.28 14.57-.44 1.29-1.16 2.58-1.2 3.9-.2 7.46-5.14 11.87-10.18 16.3-6.78 5.96-14.06 11.37-19.95 18.3-2.82-2.92-2.9-3.17-.96-5.93 2.49-3.54 5.95-6.12 9.18-8.88 4.4-3.77 8.96-7.37 13.44-11.05a8.8 8.8 0 0 0 3.45-6.46c.8-8.34 4.74-15.61 8.84-22.72 2.35-4.08 4.86-8.1 8.15-11.5l1.33.67zm102.66 62.9c-.87-.28-2.02-.57-3.12-1-2.23-.83-3.76-2.3-3.73-4.85a4.3 4.3 0 0 1 3.24-4.1c2.03-.55 4.39-.56 6.07 1.3.67.74 1.15 1.66 1.76 2.47 1 1.33 1.44 2.82.5 4.24-1 1.51-2.67 1.94-4.73 1.93zm.96-4.94c-.16-1.2-.65-2.35-2.14-2.17-1.1.13-1.7 1.13-1.6 2.24.1 1.1.73 1.91 1.92 1.98 1.3.06 1.71-.83 1.82-2.06m-16.72-19.82c-3.51.23-5.91-.43-8.16-1.62-.94-.5-1.53-1.56-1.03-2.56.46-.9 1.5-.62 2.28-.21 2.17 1.14 4.55 2.04 6.93 4.39zm184.49-292.98c-2.4-2.38-2.55-4.96-2.55-7.43-.05-18.24-.38-36.49 1.02-54.7.11-1.49-.03-3.14 1.53-4.2 2.03.86 2.42 2.65 2.37 4.58-.24 7.83.23 15.66-.43 23.5-.59 7.1-.12 14.27-.12 21.47 1.5.6 2.45-.67 3.57-1.3a293 293 0 0 1 21.4-10.89c1.47-.67 3.52-2.28 4.59-.6 1.32 2.11-1.52 2.54-2.7 3.37-7.15 4.96-14.15 10.2-21.67 14.5-4.56 2.59-7.43 5.24-6.57 10.7.02.15-.12.32-.42 1zm-21.75-39.13c-4.9-.34-9.84-.6-14.74-1.03-12.26-1.07-24.57-.9-36.85-1.43-6.13-.27-12.28-.62-18.4-1.16-1.3-.11-3.8.19-3.7-1.77.1-2.4 2.58-1.58 4.1-1.57 17.08.13 34.1 1.56 51.06 3.5 6.24.7 12.57.98 18.53 3.46m69.79 38.56c-1.1 1.26-2.55.97-3.86.99-10.2.12-20.4.24-30.6-.54-1.51-.11-3.92.46-3.8-2.13s2.47-1.82 4-1.8c11.06.11 22.03 1.63 33.05 2.17.54.03.94.31 1.22 1.31z"/><path fill="#000" d="M548.52 324.81c.08-.75.05-1.8.34-2.75.4-1.3 1-2.76 2.6-2.71 1.43.04 1.71 1.45 1.91 2.62.64 3.84 1.28 7.68 1.8 11.53.11.78-.13 1.7-.47 2.44-.35.75-1.03 1.44-1.93 1.47-.94.04-1.55-.68-1.87-1.48a31 31 0 0 1-2.4-11.12zm-41.69-39.94c6.76.35 12.25 5.53 13.77 13.3-2.41-3.13-4.47-5.4-6.9-7.32-2.25-1.79-5.3-2.82-6.87-5.97zm25.73 2.19c4.53 1.57 8.12 7.06 9.61 14.02-2.61-1.34-6.46-6.87-9.61-14.02m-26.83 72.12c.81 0 .98-.02 1.15 0 1.59.2 4.18-.32 4.23 1.59.06 2.11-2.66 1.25-4.14 1.69-1.27.38-2.67.33-4.01.46-1.12.11-2.13-.22-2.4-1.36-.3-1.32.75-1.76 1.79-1.94 1.32-.24 2.68-.35 3.4-.44zM624.72 83.7c5.84-4.54 11.87-8.68 19.6-9.27-6.28 3.63-13.16 6-19.6 9.27m116.26 63.77c.25-.43.32-.79.54-.9 1.42-.83 2.87-1.83 4.47-.4.13.12.06.76-.11.89-1.52 1.11-3.1 1.7-4.9.41m-195.9 259.47c.22-3.1 3.14-2.5 4.87-3.24 1.1-.48 3.2-2.5 3.76-.77.72 2.25-2.18.65-3.3 1.61-1.43 1.25-3.81.95-5.36 2.37v.03zm8.02-16.5.3 4.8c-1.23-1.5-.83-3.14-.3-4.8m-16.8 5.18c.16.47.39.89.31.96-.75.7.86 2.03-.66 2.44-.24.07-.7-.11-.83-.32-.97-1.52-.15-2.31 1.2-3.07zm13.43-12.9a4.8 4.8 0 0 1 2.3 3.13 7 7 0 0 0-2.31-3.14zm-7.77 19.09c.05.74-.43 1.16-.94 1.54-.57.41-.86-.02-.96-.46-.18-.72.23-1.24.8-1.55.47-.25.88-.02 1.1.48zm3.09 5.09c-2.3-.1-4.65.86-6.86-.44 2.27.3 4.66-1.14 6.86.47zM476.5 299.95c2.6.8 5.21 1.55 7.79 2.4 1.17.39 1.48 1.35 1.1 2.47-.36 1-1.2 1.1-2.09.88-2.65-.66-5.25-1.46-7.5-3.1a1.36 1.36 0 0 1-.41-1.8c.2-.43.38-1 1.1-.85zm15.15-2.03c1.63.61 1.44 2.03 1.4 3.33-.02.64-.3 1.48-1.1 1.35-1.66-.28-1.8-1.71-1.83-3.03-.01-.92.64-1.45 1.53-1.65m51.37 125.8c-.34 2.32-1.97 2-3.42 1.5-1.38-.47-2.24-1.56-2.14-3.12.08-1.22.6-2.28 1.42-3.2 1.57-1.76 3.54-1.9 5.62-1.39 1.34.34 1.83 1.48 1.8 2.76-.04 2.2-1.23 3.43-3.44 3.62.41-.75.91-1.47 1.21-2.25.38-.96.59-2.01-.26-2.87-.7-.7-1.62-.53-2.38-.15-1.12.56-1.92 1.46-1.77 2.82.22 2.04 1.72 2.28 3.36 2.28m-30.28 11.7c-4.49 1.22-8.96 1.86-13.67 1.27 2.22-2 3.72-2.15 13.67-1.28m319.78 477.37c-3.97 4.17-8.77 6.75-13.54 9.26-12.53 6.58-25.47 12.17-39.45 14.96-4.5.89-7.82 4.01-11.59 6.22-10.7 6.27-21.5 12.27-33.4 16.1-2.48.78-4.8 1.25-7.26.58-.14-1.43.78-1.63 1.55-1.88 14.83-4.86 28.47-12.22 41.5-20.6a55 55 0 0 1 18.05-7.69 135 135 0 0 0 42.28-17.24c.46-.3.9-.44 1.86.29M302.21 364.13c2 0 3.68.76 5.14 2.1a9 9 0 0 1-5.14-2.1m14.98-49.6c3.77-.1 10.04 4.17 11.1 7.93.25.81.44 1.69-.2 2.4-.72.75-1.58.42-2.37.1l-8.92-3.74c-2.05-.86-2.66-2.47-2.43-4.54.15-1.38.86-2.15 2.8-2.15zm30.84-1.11c-.07 4.76-1.04 5.37-5.54 3.47q-.7-.32-1.38-.66c-3.62-1.72-3.72-1.9-2.73-4.73 1.28-3.69 1.81-4.02 5.5-3.37 4.2.73 4.22.75 4.15 5.3zm-36.9-15.17c-.78 2.7-1.22 4.88-2.06 6.9-.55 1.32-2.03 1.14-3.15.7-1.54-.6-3.45-1.01-3.75-3.03-.56-3.8 3.94-7.2 7.48-5.72 1.22.5 1.5.83 1.48 1.15"/></svg>