<svg xmlns="http://www.w3.org/2000/svg" width="1080" height="1080" fill="none" viewBox="0 0 1080 1080"><path fill="#fff" d="m137.1 1015 .79-2.01c1.64 2.04 3.9.99 5.83.99q296.56.07 593.14.04c1.93 0 3.86-.09 5.8-.13l.12 1.11z"/><path fill="#fff" d="M742.66 1013.89c-1.94.04-3.87.13-5.8.13q-296.58.02-593.14-.04c-1.94 0-4.19 1.05-5.83-.99 3.02-7.22 6.4-14.16 12.48-19.45 1.98-1.74 3.89-3.02 6.69-2.76 3.9.38 7.83.53 12.14.8 2.12-5.8 3.46-11.83 2.76-18.2l-.82-1.05c-.34-2.18-.93-4.34-.97-6.53-.06-2.5.16-5.04.63-7.5.61-3.14.13-6.13-.57-9.15l.24-2.07c.1-5.1-2.53-9.95-1.28-15.15.1-.44.05-1.02-.16-1.42-4.13-8.01-1.5-16 .08-23.97.14-.74.48-1.64 1.03-2.06 2.77-2.05 3.08-5.19 3.79-8.16 1.07-4.55 1.96-9.18 4.85-13.02 1.76-2.32 3.88-4.38 5.65-6.7 4.4-5.77 8.44-11.86 13.14-17.38 2.4-2.83 5.92-4.72 8.96-7 .73-.56 1.73-.85 2.29-1.52 5.33-6.48 12.95-9.43 20.16-12.9 1.8-.86 3.28-1.5 4.25-3.28a9 9 0 0 1 5.86-4.55c7.27-1.74 14.24-4.9 21.86-4.89 2.35 0 2.95-1.5 3.7-3.06 2-4.2 5.24-6.8 9.82-7.72 2.04.06 4.08.25 6.1.13.9-.07 1.77-.77 2.65-1.18 1.17-5.76 3.5-10.58 8.8-13.97 4.24-2.71 8.08-6.17 11.66-9.73 1.52-1.51 2.12-4.08 2.81-6.28 1.5-4.75 2.58-9.65 4.28-14.33.89-2.46 2.65-4.64 4.15-6.85 2.11-3.14 4.95-5.23 8.52-6.78 3.54-1.55 6.6-4.18 10.05-6.47-5.25-4.67-10.81-9.21-15.87-14.24-5.76-5.73-12.32-10.56-17.45-17.07-3.7-4.66-7.17-9.27-9.49-14.71-.22-.54-.18-1.18-.26-1.76l.13-2.03-.2-4.76c.1-.11.32-.25.3-.3q-.17-.38-.4-.7l-.41-14.47-.55-1.1-.75-9.6-.08-1.99q.05-5.79.12-11.56l.51-1.18a.9.9 0 0 0-.2-.87l.15-3.75.12-1.05 1.35-19.3q.3-.57.58-1.15l3.81-1.92 9.94-.03-.12.16c2.6 1.45 5.2 1.35 7.83.08l-.12-.18 9.86.02 2.55.18 7.21.7c4.02.8 8.05 1.54 12.05 2.4 5.36 1.14 10.69 2.43 16.06 3.54 3.7.75 7.43 1.54 11.18 1.8 2.88.22 5.67.6 8.64-1.46 4.16-2.88 8.66-.52 12.38 1.88 4.48 2.88 9.3 3.87 14.38 3.62 4.91-.24 9.8-.93 14.84-1.44.49-1.55 1.2-3.28 1.55-5.08.3-1.63.16-3.33.28-5 .14-2.11.13-4.26.57-6.3 1.15-5.44 3.31-10.67 2.89-16.4-.22-2.98-.24-5.65-3.3-7.81-1.92-1.36-2.53-4.55-3.8-7.07h-3.86c3.27 4.6.38 8.04-1.51 11.46-1.26 2.25-5.32 3.52-7.14 2.59-2.53-1.28-1.4-3.6-1.37-5.6l.48-1.2c.3-1.57-.5-2.7-1.9-2.58-.97.07-2.35.98-2.72 1.87-.93 2.25-1.3 4.72-2.07 7.05-.7 2.12-2.22 2.58-4.9 1.72l-.6-1.15-.09-5.73c.1-.1.3-.26.28-.32q-.2-.36-.46-.68c-1.02-2.32-1.92-4.7-3.1-6.92-1.2-2.23-2.08-2.33-4.13-.78-2.29 1.73-4.5 3.53-6.83 5.36-2.3-1.1-2.98-2.7-1.99-5.3.77-2 .93-4.24 1.48-6.92-2.69.49-5.21 1.01-7.76 1.39-1.17.17-3.15.47-3.4-.02-.77-1.41-1.4-3.3-1.1-4.82.54-2.68 1.86-5.2 2.72-7.84.48-1.47.72-3.02 1.3-5.5-3.48 1-6.24 1.68-8.92 2.62-2.34.81-4.86 1.56-6.82 3-3.25 2.35-5.9 1.03-8.72-.5-.38-.22-.92-.42-1.06-.77-2.82-6.92-9.95-9.5-14.6-14.57-3.54-3.85-7.48-7.36-10.7-11.44-3-3.8-2.66-7.26.28-11.23-4.92-2.61-9.86-5.06-14.62-7.82-5.23-3.04-10-6.76-12.79-12.33-1.96-3.93-4.3-7.63-5.16-12.17-.56-2.96-2.78-5.6-4.3-8.38-.22-.4-.93-.67-.94-1.02-.11-3.69-3.14-4.99-5.65-6.15-2.88-1.35-3.5-3.38-3.53-6.09q-.02-4.84-.07-9.68l.13-1.03c.33-1.83.63-3.67 1-5.5.48-2.38 2.03-3.96 4.1-5.05.83-.44 1.72-.73 2.74-1.16-5.8-17.73-10.53-35.45-10-54.12q-.2-.68-.43-1.33l.19-5.41.08-1.39.05-5.4.16-3.08q.9-3.2 4.17-4.56c-.06-4.53-1.83-8.6-3.98-12.53q-2.86-5.18-5.65-10.4c-2.2-4.08-2.2-8.6-2.47-13.05l-.33-1.28v-6.5l-.37-.9c-2.11-2.9.28-5.93-.28-8.97-1.2-6.46 1-12.75 1.82-19.1l.03-4.17.18-6.42v-1.4c-1.1-7.64 1.49-14.74 3.66-21.8.5-1.58 2.92-2.58 5.32-4.54.65-5.24 4.73-10.35 7.35-16.12 2.95-6.47 6.12-12.85 8.86-19.4 4.27-10.3 10.42-20.11 19.02-29.91 1.11-1.28 2.47-3.03 2.4-4.5-.26-5.68 3.76-9.18 6.25-13.42 3.53-6.03 8.1-11.14 14.29-14.63.55-.31.97-.84 1.44-1.28 6.04-5.74 11.89-11.71 18.18-17.16 9-7.78 17.16-16.58 27.53-22.7 9.52-5.62 19.16-11.08 28.53-16.97 8.83-5.55 18.25-9.84 27.75-14a71 71 0 0 1 7.86-2.91c9.49-2.87 18.93-6 28.55-8.35 8.81-2.14 17.62-4.83 26.88-4.36l11.64-.83c3.11-.67 6.2-1.56 9.35-1.96 2.65-.34 5.37-.1 8.06-.12l8.82-.85-.1-.16 6.1-.79 4.49-.2 8.07-.8c1.73-.65 3.53-1.14 5.17-1.97 4.18-2.1 8.15-4.66 12.46-6.45 2.5-1.03 5.47-.92 8.22-1.3l7.03.86c7.32 1.02 14.66 1.73 21.86 3.77 12.66 3.6 25.5 6.56 38.26 9.87 9.71 2.51 19.42 5.05 29.09 7.8 4.02 1.14 7.9 2.82 11.53 4.14 4.65-1.06 9.29-2.17 13.96-3.18 1.99-.43 4.1-.43 6.01-1.03 4.3-1.37 8.21-.57 12.35.91 5.56 2 11.67 2.41 16.92 5.32 5.63 3.12 11.1 6.54 16.66 9.78 5.27 3.08 10.6 6.03 15.85 9.15 2.83 1.69 5.5 3.65 8.3 5.39 1.28.79 2.7 1.33 4.6 2.24l2.56 6.13 6.28-1.23 6.06.07a59 59 0 0 1 17.63 12.48c.44.46 1.06.8 1.37 1.32 3.5 6.02 9.28 9.27 15.07 12.47 3.6 2 4.29 5.74 5.58 9.1.16.42-.53 1.09-.55 1.65-.1 1.86-.85 4.35.05 5.43 1.72 2.06-.25 2.79-.6 4.08l-1.96 2.76c-.9 2.5-2.25 4.93-2.53 7.48-.2 1.81.54 4.3 1.8 5.52.93.88 3.38.17 5.02.17l8.6 13.61-9.25 2.38c-3.38-3.81-4.3-3.83-6.6-.1l-.53 1.23c-1.08 6.47 2.21 11.73 4.91 17.08 2.56 5.07 5.54 9.92 8.9 15.86 1.83-3.72 3.16-6.52 4.58-9.26.83-1.61 1.16-4 3.9-3.3 1.61.42 2.33 2.63 1.32 5.43-2.14 5.96-4.52 11.83-6.89 17.7-2.08 5.16-4.14 10.31-6.46 15.36-1.26 2.74-.96 4.9 1.2 6.87l-1.31 5.87c1.06 4.55 1.85 9.19 3.31 13.61.92 2.77 2.77 5.25 4.37 7.75a3.6 3.6 0 0 0 2.32 1.52c4.38.5 8.78 1.15 13.13-.47 1.73-.64 3.6-.88 5.4-1.3q1.23 5.31-3.1 8.45c2.71 4.05.17 8.04-.5 12.11-.16.97-1.13 2.52-1.83 2.58-4.5.4-4.55 4.4-5.2 7.05-1.21 4.88.57 11.72 7.02 13.85 3.23 1.08 5.95 2.48 9.38.9.98-.45 2.5.02 3.7.37 1.9.56 3.72 1.38 5.97 2.24-.76.98-1.47 1.95-2.26 2.86-.83.97-2.13 1.75-2.53 2.86-1.59 4.47-4.9 6.7-9.2 8.08-7.5 2.4-14.95 4.96-22.42 7.47-3.63 1.23-3.46 1.25-3.18 4.89.17 2.23-.26 4.5-.42 6.75l-.49 1.24-1.62 8.43c-3.44-3.8-6.48-2.9-9.7-.77-1.51 1-3.38 1.58-5.16 2-5.8 1.38-9.86 5.24-13.9 9.2-1.1 1.08-1.57 2.49-.37 3.22 2.1 1.3 1.51 2.25.43 3.8-.62.88-1.08 2.35-.8 3.32a30.6 30.6 0 0 0 9.35 14.96c1.27 1.14 2.16 2.7 3.22 4.07l.9.95.07.1-1.23 1.17c-3.18-2.73-6.48-5.33-9.45-8.26a17 17 0 0 1-3.62-5.55c-1.42-3.41-2.91-6.51-6.4-8.45-1.8-1-3.13-2.86-5.42-5.04q1.44 5.93-2.64 9.06c-3.95-3.1-8.05-6.28-12.39-9.67l-10.2 50.01.24 2.05-.32 3.37c-.2 1.81.22 2.93 2.32 3.43 1.27.3 2.47 1.45 3.43 2.46 3.3 3.49 6.3 7.3 9.79 10.58 4.7 4.4 10.06 7.9 16.58 9.21.98.2 2.03.88 2.7 1.64 1.13 1.3 2 2.84 3.32 4.79l-3.04.52c-.74 9.2-4.15 17.72-7.2 26.3-2.88 8.15-5.84 16.28-8.05 24.65-.95 3.6-2.56 7.05-3.32 10.67-.51 2.46-2.17 5.11-.17 7.7-1.05 4.43-1.37 9.22-3.37 13.16-2.17 4.26-3.7 8.7-5.6 13.02-2.8 6.37-5.77 12.67-8.5 19.07-1.46 3.46-2.82 7-3.77 10.64-2.32 8.9-5.59 17.32-11.22 24.68-1.64 2.14-3.2 3.8-6.39 4.2-3.61.45-7.09 2.3-10.56 3.7-6.18 2.5-15.78 1.18-21.38-2.63-3.36-2.3-7.31-1.89-10.9-.4-1.97.8-5.06.51-5.26 3.86l.37 1.33-4.32 19.09.12 2.01-.54 10.32-.43 1.33v3.76l.65 1.08q.1.37.16.75l.56 1.2c-.22 4.57-.3 9.15-.7 13.7-.21 2.28-.52 2.23-3.52 2.55-.03-5.52-.57-10.96-2.48-16.18l-.29-1.32.44-16.22c1.52-2.49 1.43-2.83-1.06-3.8-2.9-1.28-4.42-3.56-3.65-6.15.96-3.28 2.3-6.45 3.45-9.67.93-2.6 1.79-5.23 2.71-7.93-6.29-1.93-11.93-3.7-17.6-5.4-15.15-4.54-30.35-8.87-45.93-11.7-.91-.17-1.76-.65-2.63-.98-2.35-.9-4.7-1.93-7.05.04l-6.69 10c4 4.88 9.1 7.45 13.87 10.36 5.55 3.4 10.9 6.96 15.65 11.48 3.18 3.02 6.94 5.44 10.49 8.07 3.5 2.6 3.9 4.67 1.53 8.31a46 46 0 0 0-5.52 11.36 9.7 9.7 0 0 1-4.17 5.56c-2.65 1.71-4.84 4.12-7.4 5.96-3.12 2.23-6.33 4.43-10.03 3.65-5.32 8.52-10.37 16.73-15.55 24.87-1.63 2.56-2.46 4.89-.93 7.93.88 1.73.77 3.98 1.04 6 .45 3.44.86 6.9 1.3 10.48 1.02.6 2.09 1.75 3.17 1.77 6.94.15 10.8 5.1 15 9.43 4.66 4.8 9.44 9.41 15.09 13.08 3.93 2.56 7.68 5.46 11.8 7.68a147 147 0 0 0 16.47 7.73c5.96 2.32 12.24 3.83 18.24 6.02a69 69 0 0 1 10.6 5.04 146 146 0 0 0 25.21 11.25c5.33 1.86 8.9 4.94 9.18 10.98.1 1.86.54 3.69.82 5.54-1.07 1.3-1.47 2.6-.1 3.97l-.1 1.79-.72.88c-8.36 7.97-16.96 15.7-25.02 23.97a166 166 0 0 0-17.64 21.8c-4.4 6.39-9.09 12.58-13.48 18.97-1.01 1.47-1.97 3.49-1.82 5.15.57 6.25-2.26 11.2-5.7 15.83-1.37 1.83-1.62 2.88.01 4.41l18.6 17.5c.45.41 1.04 1.02 1.54 1 4.57-.22 7.55 3.6 11.67 4.5 1.63.35 3.18 1.04 4.76 1.59 2.3 1.2 4.56 1.49 6.69-.38l10.68-3.72 7.95-.05c1.07.95 2.08 1.98 3.23 2.8 4.75 3.42 5.68 6.07 3.9 11.7-3.1 9.72-7.84 18.7-12.94 27.48-1.13 1.96-1 2.83.13 4.51 3.78 5.65 6.75 11.71 8.36 18.38zm92.48-757.74-.12 2.04 2.2 6.18c1.82-5.27 3.1-9.75 4.9-14.01 1.7-4 2.47-7.72-.42-11.43h-5.24l-1.54 3.95-.73.87-.04 3.64.42 1.3q.3 3.73.57 7.46M182.5 911.41l.4.9c-.4 2.96.17 5.92-1.03 8.94-.72 1.8-.34 4.6.65 6.33.68 1.17 1.15 2.14 1.06 3.35-.18 2.4 1.13 3.7 2.6 4.68 4.82-5.9 9.34-11.58 14.03-17.13a206 206 0 0 1 9.65-10.64c4.89-5.01 9.68-10.17 15-14.68 3.04-2.57 6.92-4.36 10.67-5.8 3.88-1.5 8.05-2.32 12.15-3.12 2.84-.55 4.6-2.02 5.57-4.64l1.13-3.16c.13-.08.37-.18.36-.25-.02-.25-.12-.51-.2-.77l.1-4.75-.11-2.03c2.89-5.18 5.9-10.3 8.61-15.57 1.48-2.89 2.08-6.05.59-9.25-.33-.71-.47-1.5-.69-2.26.03-.12.1-.25.07-.36q-.09-.33-.24-.65l-.14-3.78-.49-1.23c-.14-.7.16-1.65-1.26-1.27a185 185 0 0 0-18.04 6.06c-8.66 3.3-17.03 6.9-24.93 11.72-5.98 3.65-12.19 7.22-16.31 12.9-6 8.25-12.02 16.58-15.35 26.49-1.08 3.22-3.16 6.12-4.79 9.16-1.18 1.98-1.58 3.95.07 5.9l.87 4.93z"/><path fill="#fff" d="M698.04 725.22a16.6 16.6 0 0 0 2.27-8.91c0-1.25 1.2-3.23 2.26-3.58 2.06-.65 3.74.92 4.34 2.87 1.12 3.61 1.97 7.31 2.85 11q1.81 7.72 3.58 15.44c.1.46.31.91.35 1.38q.69 8.8 1.33 17.6l-.05 1.12.02 2.76c-.03.13-.11.28-.08.4.07.24.2.47.3.7l-.34 3.77-.1 1.06-1.84 8.6c-.1.47 0 .98-.1 1.44-1.17 4.72-3.75 6.15-8.2 4.35a18 18 0 0 1-4.98-2.76c-3.7-3.18-4.12-5.72-1.38-10.15 2.8-4.56 3.73-9.03 2.02-14.3-1-3.07-.77-6.53-1.14-9.81-.17-1.5-.47-3-.72-4.5l.15-2.03-.66-15.42zm139.73-549.4c1.04.59 2.47.9 3.08 1.79 8.9 12.9 17.54 25.96 24.32 40.44-2.02.73-2.57-.58-3.4-1.77-4.75-6.9-9.5-13.83-14.4-20.6-3.93-5.41-8.12-10.63-10.83-16.8q.62-1.5 1.23-3.04zm61.85 147.35c-10.22-14.88-21.04-29.36-30.42-45.15 3.7-1.35 4.9 1.31 6.27 2.97 2.4 2.92 4.6 6.05 6.58 9.26 6.24 10.05 12.36 20.18 18.49 30.3.23.38.2.93.3 1.39zm-7.77-57.23 10.1 14.42 3.64 5.89.84 2 2.06 3.82c1.04 1.65 2.03.16 3.03-.06l.99 1.7-2.43.88.38 2.29-.63.76c-5.17-6.47-9.38-13.53-13.28-20.81-1.77-3.31-3.75-6.51-5.63-9.75zm-31.43-21.43c-.9 9.38-5.56 17.27-10.3 25.13 1.24-9.25 5.4-17.3 10.3-25.13m53.93 52.3 2 3.71-.31 1.7-1.96-1.46-.51.52 3.65 4.4-.05-.08 4.86 8.8 1.1 2.76-1.19 1.17-12.1-20.68.63-.76c.43.12 1.04.11 1.28.4 1.21 1.48 1.98.98 2.6-.48m11.5 25.31 7.77 9.57-.81 2.63c-3.62-3.43-5.91-7.72-7.91-12.2zm-75.47-41.7c-2.3-.2-4.96 2.23-6.87-.92l1.04-4.05 8.67 4.08z"/><path fill="#fff" d="m932.8 334.32.82-2.63c2.21.75 3.3 1.63 3.71 3.62.27 1.31.06 2.72.06 4.37-2.96-.87-3.33-3.5-4.57-5.36zm-68.74-93.6-4.07-7.08c1.98-1.63 3.23-.43 3.95 1.24.74 1.7 3.53 3.44.12 5.84m51.98 61.5.32-1.7 8.65 13.8-.84.93-1.33-1.75-5.69-7.9.05.08zm-7.6 34.07q-3.91.38-4.52-2.92c3.52-.4 3.9-.14 4.53 2.92m-2.03-48.03-.84-2.01-1.97-6.84 4.68 6.93-.75.85-1.1 1.07zm-56.04-7.83 2.84-.9 3.91 1.14c-2.4 1.3-4.6.77-6.75-.24m63.97 16.38c-.63 1.45-1.39 1.95-2.61.48-.24-.3-.85-.28-1.28-.41l-.38-2.29q1.26-.45 2.43-.89zm-88.32 135.9 1.24-1.18 4.63 4.02-.95 1.1zm18.52-157.26-1.04 4.05-2.13-.07 1.31-5.87zM510.18 82.85q-5.83.4-11.64.82zm381.67 183.09-.92 1.14-3.14-5.53q.49-.3.99-.58zm7.77 57.22 1.23-1.22c1.32 2.02 3.25 3.82 2.54 7.13z"/><path fill="#fff" d="m907.54 287.19.75-.86 3.23 5.68c-1 .22-1.99 1.72-3.03.07.22-.53.71-1.14.58-1.55-.37-1.15-1-2.23-1.53-3.33zm-602.7 338.09-9.93.03a13 13 0 0 1 9.94-.03m619.33-310.03.84-.94 2.98 4.9-4.12-2 .06.1zM322.3 625.37l-9.86-.02a11.6 11.6 0 0 1 9.86.02M903.6 279.4l1.97 6.84-3.65-5.89.72-.86 1.03-.07zM283.24 813.25c-.88.41-1.74 1.12-2.64 1.18-2.02.13-4.07-.07-6.1-.13 1.32-.31 2.64-.75 3.99-.9 1.57-.18 3.17-.11 4.76-.16zm642.6-491.12h-.94l-2.97-3.82 1.17-1.17.4.17h.44l-.06-.09zm-185.86 626.9-7.95.05c2.64-1.46 5.29-1.6 7.95-.04m118.45-685.58c-.9-3-.06-3.74 2.84-3.07zm-164.25 407.6c2.5.97 2.6 1.32 1.06 3.8zM554.95 77.96l-8.07.82zm-242.4 547.55c-2.62 1.27-5.23 1.38-7.83-.08zm310.92 3.75c2.34-1.96 4.7-.94 7.06-.04zM587.85 69.11l-7.03-.87zm133.5 883.7c-2.13 1.86-4.38 1.57-6.68.37zM332.07 626.25l-7.21-.7zm505.72-450.42-1.24 3.05-1.82-1.35 1.95-2.77zm-39.64-47.6-6.06-.08c2.03-1.31 4.05-1.36 6.06.08"/><path fill="#fff" d="m903.69 279.43-1.03.07-1.08-2.83.46-.4zM742.55 835.78c-1.37-1.36-.97-2.67.1-3.97z"/><path fill="#fff" d="m901.58 276.68-2.1-1.02 1.11-1.07 1.44 1.69zM271.55 385.02l-.16 3.08c-.95-1.08-1.02-2.1.16-3.08m2.1 82.43-.13 1.03c-.08-.25-.2-.5-.23-.76 0-.08.23-.18.36-.27m15.44 185.9-.51 1.19a1 1 0 0 1-.22-.92l.74-.26zm.08-5.65-.12 1.04c-.08-.25-.2-.5-.22-.76 0-.08.22-.19.34-.28m411.25 37.87.43-1.32zm.65 4.84-.65-1.08zm-410.82 2.85c.14.23.3.46.4.7.02.06-.2.2-.3.3zm554.6-311.01.5-1.24zm-573.78 18.04.43 1.33zm443.9 361.85.06-1.11zm.24 3.87c-.1-.24-.23-.47-.29-.72-.03-.11.06-.26.1-.4l.2 1.1zm-.45 4.81.1-1.06c.09.26.21.52.24.78 0 .08-.22.19-.34.27zM291.1 627.24l-.58 1.15q.3-.57.58-1.15m102.82-30.88q.25.33.45.69c.03.05-.17.2-.27.32-.08-.22-.19-.43-.24-.65-.03-.11.04-.24.07-.36z"/><path fill="#fff" d="M289.1 653.36q-.38.12-.75.26l.55-1.13a1 1 0 0 1 .2.87M181.56 900.57l.07 5.91c-1.64-1.95-1.25-3.93-.07-5.9m653.57-644.43-.12 2.04zm-572.08 585.4c-.15-.24-.33-.45-.44-.7-.03-.05.17-.21.27-.32.08.22.19.43.24.66.03.1-.04.24-.07.35m-8.67 34.9.17-1.03c.07.26.18.52.2.78 0 .07-.24.16-.37.24M834.15 247.4l.43 1.3zm73.4 39.8c.52 1.1 1.15 2.18 1.52 3.33.13.41-.36 1.02-.58 1.55l-2.06-3.82zm9.6 18.4 5.7 7.9-.83.9z"/><path fill="#fff" d="m916.04 302.23 1.17 3.45-3.65-4.4q.26-.25.51-.52z"/><path fill="#000" d="M390.94 323.98a3 3 0 0 0 2.29 2.15c7.29 2.08 14.52 4.34 21.8 6.44 2.35.67 3.33-.2 3.15-2.61-.05-.79-.46-1.54-.64-2.31-.4-1.7-.08-2.74 1.65-3.92a59 59 0 0 1 12.5-6.28c9.2-3.46 18.52-6.61 27.98-9.35a39 39 0 0 1 11.46-1.63c11.24.13 19.2 5.75 24.76 15.08.87 1.45 1.59 1.48 3 1.71 2.15.37 1.5-1.22 1.8-1.96.87-2.07 1.5-4.23 2.21-6.28-.67-.96-1.6-1.26-2.47-1.66-12.09-5.54-15.71-15.77-12.87-28.06 3.4-14.63 13.55-22.53 27.58-26.08 8.9-2.26 17.3-1.37 24.56 4.82 1.2 1.02 1.88.73 3.27.12 2.74-1.2 4.7-3.18 6.94-5 3.95-3.21 8.32-5.92 12.57-8.74 24.57-16.24 50.91-29.12 77.72-41.14q6.59-2.92 13.12-5.75c-.17-1.14-.95-1.46-1.6-1.9-12.5-8.33-25-16.62-37.42-25.04-1.3-.88-2.31-.8-3.58-.42q-6.25 1.9-12.53 3.71c-11.63 3.32-22.02 2-30.08-8.06a10.3 10.3 0 0 0-6.73-4.07c-3.73-.65-7.35-2.36-10.82-4.05-3.7-1.8-4.17-7-1.02-9.79 2.2-1.94 4.77-3.25 7.86-3.34 7.37-.22 14.77-1.47 22.02.98 1.02.33 1.87-.11 2.7-.67 1.32-.9 2.69-1.74 3.98-2.57-.07-.49 0-.86-.16-1.08-2.8-4.17-2.19-6.45 2.46-8.46a14.6 14.6 0 0 1 12.65.39c2.27 1.13 4.2 1.04 6.41.34 22.67-7.17 45.86-11.84 69.4-14.9 3.84-.5 7.7-.77 11.54-1.12.95-.09 1.9-.13 3.03-1.3-43.65-26.75-90.69-40.61-142.51-41.84 3.08 3.76 6.63 5.92 8.59 9.33 1.91 3.34 5.23 5.66 6.77 9.63-4.81 1.04-9.3 2.32-14.2 2.56-17.37.86-34.07 5.05-50.23 11.43-1.62.64-3.18 2.26-4.7 2.17-2.12-.11-3.2-2.5-4.68-3.95a1215 1215 0 0 1-18.82-18.84c-1.85-1.9-3.54-2.03-6-1.33a289 289 0 0 0-86.87 41.54 269 269 0 0 0-42.6 37.16c-.42.45-.81.94-1.62 1.89 3.58 0 6.7-.15 9.8.02 13.3.71 24.4 5.9 32.17 16.98 6.25 8.9 7.98 18.82 5.37 29.43-.37 1.46-1.36 2.56-2.29 3.67l-26.95 32.32c-2 2.4-4.5 4.38-7.27 5.48-14.8 5.83-29.53 6.57-43.8-1.69a38 38 0 0 1-11.82-10.55c-.72-1-1.26-2.32-2.84-2.58-4.35 6.9-5.52 15.5-11.3 22.45-1.5-2.4-.78-4.02-.38-5.65 2.22-8.79 5.67-17.13 9.36-25.36 7.21-16.12 16.36-31.1 26.82-45.3a26 26 0 0 0 2.9-5.56c2.18-5.2 5.49-9.4 10.59-12.01 1.38-.7 2.09-2 3.04-3.07a279 279 0 0 1 89.07-67.12 280 280 0 0 1 82.11-24.66c16.82-2.39 33.71-2.96 50.66-2.7.97 0 1.96-.03 2.89.2 2.24.53 3.74.1 5.4-1.86 2.75-3.26 6.61-5.07 10.76-6.14 1.25-.32 3.13-.3 3.6-1.1 1.87-3.16 4.51-2.02 6.84-1.48 32.05 7.36 64.5 12.96 96.2 21.88.46.13.98.13 1.41.33 9.48 4.34 19.33 4.03 29.3 2.36 1.27-.21 2.55-.34 3.83-.5a37 37 0 0 1 17.57 1.96c16.03 5.8 30.87 13.86 45.36 22.68a493 493 0 0 0 11.64 6.92c1.56.9 3.25 1.46 2.9 3.83-.15 1.04.76 1.27 1.64 1.18q.98-.07 1.91-.3c5.09-1.26 9.45.64 13.76 3.02a114 114 0 0 1 16.67 11.56c7.4 6 14.52 12.31 21.52 18.74a20 20 0 0 1 2.68 2.8c1.76 2.38 1.62 4.07-.25 6.38-1.22 1.5-3.06 2.88-3.42 4.57-.37 1.83 1.96 3.08 3 4.65 9.7 14.49 18.53 29.53 27.51 44.45 22.05 36.63 43.94 73.36 65.89 110.04.9 1.52 1.66 3.28 3.24 4.16 2.32 1.27 1.7 3.97 3.02 5.76.65.88-.8 2.52-2.08 3.42-4.4 3.13-8.97 3.27-13.16-.17-1.59-1.3-3.16-1.35-4.91-1.37-8.56-.07-17.1.46-25.63 1.1-1.77.14-3.56.09-5.32.32-2.09.27-5.56-1.42-4.91 3.15-3.86 2.05-5.43 6.27-8.6 9.02a42.4 42.4 0 0 1-17.91 9.16c-1.99.49-3.96 1.06-6.1 1.63 1.23 2.8 4.5 3.28 5.27 5.8 1.98 6.49 7.62 11.6 7.17 20.26-1.96-3.98-3.34-7.03-4.95-9.95a37 37 0 0 0-6.09-8.12 27 27 0 0 0-9.46-6.4c1.45 3.69 2.87 6.41 2.85 9.48-1.1.1-1.16-1-2.04-1.85-.63 2.08-.04 4.18-.96 6.01-.78 1.52.84 1.83 1.67 2.42 4.35 3.09 8.47 6.45 11.8 10.66.6.74 1.26 1.43 1.52 3.26-2.74-2.69-4.93-5.04-7.32-7.14a51 51 0 0 0-7.78-5.55c3.13 6.5 7.56 12.33 8.1 20.09-2.63-2.93-2.78-7.09-6.22-10.25.05 3.12 2.63 4.4 2.46 7.29-1.84-1.8-2.64-4.05-5.2-4.26-.84-.07-1.86-1.25-2.2-2.4-1.34-4.6-5.56-5.44-9.18-7.01-1.47-.64-2.84.32-4.11.95-3.76 1.86-6.87 4.66-10.68 7.1 2.03 1.41 3.67-.3 5.26.16 1.02.85-.96 1.63-.05 2.47 2.65.57 4.74-1.64 7.56-1.78-4.08 4.77-8.08 5.59-19.35 4.07 3.08 5.19 8.05 5.59 13.03 5.85 4.81.25 9.52.06 13.09-4.09-2.86 7.8-9.02 9.23-25.33 5.95.87 2.67 2.5 4.58 3.82 6.6a130 130 0 0 0 11.52 14.95c1.05 1.2 2.28 2.24 2.09 4.7-8.38-3.43-14.01-10.05-20.57-15.51 1.63 5.4 5.24 9.53 8.63 13.86-3.95-2.8-7.12-6.34-10.6-9.68 1.12 6.74 5.19 12 8.66 17.52 3.5 5.56 7.73 10.58 12.16 15.48-3.72-1.34-6.31-4.21-8.48-7.19-4.76-6.55-10.67-12.08-15.77-18.32-.59-.73-1.36-1.32-2.77-2.64 2.21 6.81 6.16 11.7 8.8 17.25-4.39-4.27-7.38-9.55-10.98-14.74l-3.98 4.45c-2.5-5.28-3.64-10.84-6.94-16.35-1.55 4.31-3.18 8.01-4.21 11.87-2.25 8.4-4.15 16.9-6.28 25.32-.39 1.52-.7 2.43 1.12 3.47 9.78 5.63 19.2 11.85 28.54 18.19 1.18.8 2.23 1.82 3.7 2.2 2.8.7 3.76 3.48 5.55 5.3.86.89-.29 1.78-1.31 1.92-1.3.18-1.96.65-2.09 2.08-3.25 34.15-15.67 65.64-28.35 97.03-4.71 11.66-8.88 23.54-14.2 34.95-1.77 3.8-3.61 7.56-5.51 11.52 2.08 1.05 4.33 2.15 6.55 3.31 1.8.95 2.57 2.4 1.71 4.4-2.3 5.29-4.4 10.7-8.33 15.08-1.03 1.15-2.37 1.91-1.76 3.98.39 1.28-.96 2.37-1.98 3.1-3.9 2.84-7.42 6.2-11.72 8.52-3.86 2.08-7.84 2.86-12.14 1.9-12.47-2.8-22.52-9.17-29.6-19.97-.43-.67-.76-1.52-1.77-1.33-1.34.25-.55 1.32-.55 1.94-.13 6.41-.04 12.84-.24 19.26-.32 9.98-.78 19.96-2.5 29.82-.18 1.09-.87 2.62-.07 3.27 3 2.5 3.14 6.32 4.8 9.38 5.57 10.34 7.91 21.44 8.65 32.94.62 9.7-.03 19.37-2.84 28.73-2.8 9.3-5.53 11.71-15.95 6.06-3.43-1.86-6.51-4.21-6.38-8.89a9.6 9.6 0 0 1 2.63-6.55c1.92-2.02 2.32-4.34 2.41-7.04.36-10.91-1.52-21.56-3.53-32.17-.78-4.15-.97-7.67 3.3-9.99.82-.44 1.74-1.1 1.03-2.3-1.67-2.76-.39-5.26.93-7.8-1.4-.51-2.6-.9-3.76-1.38-1.27-.52-2.19-1.42-2.4-2.82-1.21-8.1-4.19-15.83-4.94-24.03a113 113 0 0 0-1.42-11.01c-1.08-5.72.42-10.5 4.5-14.55a6.7 6.7 0 0 0 2.11-6.5c-.29-1.59-.56-2.7-2.17-3.29-1.51-.54-2.92-1.4-4.46-1.84a5866 5866 0 0 0-49-13.26c-3.73-.98-7.65-.24-11.4 0-3.21.2-3.3 4.04-4.24 6.47-.7 1.76 1.44 2.24 2.5 3.03 12.07 8.93 24.06 17.92 34.6 28.73 3.39 3.47 4.47 6.57 2.2 10.95-2.45 4.7-5.69 9.03-7.1 14.26-.1.38-.71.94-1 .88-4.1-.76-6.72 2.72-10.22 3.54-5.5 1.28-8.44 5.26-11.38 9.56-4.92 7.2-10.07 14.2-14.31 21.84-1.1 1.98-1.46 3.44.54 4.93.49.37.75 1.03 1.13 1.57 4.23 5.99 4.17 6.63-1.1 11.8 4.8 2.99 9.63 5.82 14.3 8.9 14.93 9.9 29.2 20.72 43.54 31.42 2.54 1.9 5.03 3.21 8.29 3.27 5.71.12 11.07 1.85 16.31 4.07 13.55 5.7 26.5 12.6 39.32 19.73 2.5 1.39 4.06 2.95 4.22 6.07.11 2.38.79 4.75.76 7.18a4.8 4.8 0 0 0 1.29 3.49c2.7 2.97 2.64 3.25-.43 5.94-7.89 6.9-15.62 14-22.88 21.57a541 541 0 0 0-34.46 39.88c-.97 1.23-2.31 2.38-1.48 4.28 2.68 6.18-1.19 9.98-5.04 13.78-1.12 1.1-2.76 1.72-3.48 3.57 10.48 8.1 20.45 16.73 31.31 24.27 3.34 2.31 6.42 3.05 10.31 1.12 3.58-1.78 7.52-2.88 11.35-4.1q5.14-1.65 9.64 1.54c3.96 2.79 7.98 5.51 11.37 9 3.89 3.97 4.27 6.4 1.53 11.2-5.11 8.95-10.07 18.03-16.34 26.26-1.55 2.05-1.43 3.53-.14 5.54q2.86 4.5 5.25 9.26c.98 1.97 2.46 3.84 2.17 6.27-5.26 1.05-5.22 1.03-7.1-3.48a204 204 0 0 0-3.77-8.37c-.7-1.48-1.44-2.28-3.64-2.11-4.84.37-5.8-1.2-4.06-5.76 1.43-3.74 3.19-7.35 4.8-11.02l-.1.11c2.97-3.46 4.7-7.67 6.94-11.57 2.82-4.9 5.56-9.84 9.9-14.27-4.25-2.95-8.39-5.87-12.58-8.7-1.09-.72-2.19.08-3.22.48-4.2 1.66-8.49 3.13-12.54 5.09-5.15 2.49-9.78 2.26-14.52-1.06-9.65-6.77-19.16-13.72-27.12-22.49-4.66-5.12-4.62-6.91-.76-12.64.63-.94 1.24-1.94 2.07-2.67 2.39-2.07 3.64-4.1 2.07-7.5-.95-2.06-1.1-4.8 1.56-6.47.5-.31.87-.93 1.12-1.5 6.75-14.92 17.34-27.12 28.13-39.1a164 164 0 0 1 27.75-24.79c1.62-1.12 1.81-2.13 1.58-3.94-.45-3.63-2.61-6.99-1.64-10.87.2-.8-1-1.14-1.7-1.46-14.74-6.9-29.46-13.83-44.25-20.64-3.09-1.42-6.5-1.9-9.83-2.46-1.45-.25-2.32 1.02-1.76 2.35.55 1.32 1.85 1.72 2.94 2.36q13.32 7.89 26.69 15.7a71 71 0 0 1 9.23 6.21c2.76 2.25 5.46 3.87 9.14.32-.63 3.93-2.61 7.66 2.8 8.79-2.66 1.56-4.14-.56-6.06-1.32-10.06 13.08-21.4 25-32.18 37.4-.74.85-1.42 1.78-2.28 2.5-2.57 2.17-4.16 4.53-3.65 8.24.42 3.03-1.62 5.43-3.44 7.75-5.29 6.7-10.88 13.2-15.3 20.56a228 228 0 0 0-4.59 7.96c-.77 1.39-2.36 2.72-1.8 4.32a17 17 0 0 0 3.27 5.84c3.95 4.24 4.3 5.19 2.13 10.46-.42 1.01-.9 2-1.28 2.82 11.3 9.99 22.2 20.04 31.12 32 1.54 2.05 3.92 4 2.14 7.19-.29.53.17 1.57.45 2.33 2.43 6.57 2.15 13.24 1.03 20-.6 3.65-.95 7.35-1.16 11.04-.15 2.32-1.17 3.03-3.35 2.99q-7.5-.15-15.02.01c-2.11.05-3.22-.62-3.76-2.76-3.83-15.48-7.83-30.93-9.64-46.82-.14-1.28-.3-2.63-.02-3.86.69-3.28-.58-5.24-4.24-6.47-2.46 10.6-1.73 21.42-3.2 32.16-2.64.42-3.27-1.31-3.44-3.34-.3-3.37-.8-6.77-.64-10.13.51-10.92.34-21.91 2.44-32.72.28-1.43.37-2.94 1.52-3.99 2.21-2.02 1.53-4.41.82-6.7-.52-1.68-1.5-3.2-2.18-4.83-.68-1.66-3.26-3.27 0-5.1.74-.4.04-1.83-.18-2.73-4.13-18.08-2.85-36.22-.41-54.33 2.02-15.04 5.24-29.83 10.44-44.12 1.05-2.89-.9-2.89-2.6-3.25-11.05-2.37-21.84-5.67-32.72-8.68-11.32-3.13-22.65-6.27-33.78-9.98-3.97-1.31-3.91 2.43-6 3.35-1.6.71-.07 2.23.49 3.29.82 1.57 1.7 3.11 2.12 4.86.15.66.27 1.3-.36 1.73-.55.37-1.17.56-1.78.08-.9-.67-2.03-1.18-2.65-2.05-9.6-13.32-23.6-21.31-36.78-30.26-1.85-1.25-3.78-2.41-5.61-3.57-.48.24-.46.47-.3.85.5 1.2 2.8 1.93 1.47 3.53-1.34 1.6-3.08.21-4.39-.45-3.86-1.93-6.27-5.53-9.04-8.64-11.69-13.16-23.4-26.28-34.81-39.67-14.11-16.6-28.15-33.27-40.48-51.28-.72-1.05-1.23-2.44-2.94-1.77-2.25.87-3.97-.33-5.85-1.25-16.25-7.89-32.4-15.96-48.14-24.84-.83-.47-1.76-.8-2.67-1.08-16.98-5.12-33.82-10.68-51.03-15-4.06-1.01-8.24-1.57-12.33-2.45-2.5-.53-5-.82-7.27-2.37-2.15-1.46-4.99-1.13-7.51-1.23a523 523 0 0 1-29.91-1.94c-3.5-.34-4.23.36-4.3 3.95a17 17 0 0 0 .27 3.38c1.27 6.37-.12 12.78.47 19.2a1035 1035 0 0 1 3.3 47.81c.53 11.81 7.53 19.26 16.1 25.6 7.94 5.87 15.21 12.45 22.47 19.09 1.58 1.45 1.94 3.6 3.4 5.53-6.4 1.5-11.34 5.55-17.07 7.93a5.7 5.7 0 0 0-3.21 2.72 244 244 0 0 0-11.07 25.23c-.1.26.05.61.08.92 1.17 1.27 2.24-1.04 3.42-.06-1.06 1.5-2.72 2.27-4.24 3.11-5.14 2.86-9.22 7.03-13.68 10.72-.6.49-1.1 1.2-1.42 1.9-3.93 8.8-7.82 17.63-11.91 26.9 1.96-.13 2.87-1.04 3.86-1.68 11.21-7.15 23.37-12.35 35.72-17.09 14.76-5.66 29.52-11.31 44.78-15.54 3.1-.86 6.21-1.93 9-3.49 2.84-1.59 5.33-1.22 8.2-.34 19.35 5.95 37.56 14.54 55.5 23.75 17.8 9.14 35.68 18.08 52.88 28.31 2.93 1.74 5.38 4.8 9.5 3.96.91-.2 1.6.96 2.21 1.7 12 14.28 26.3 26.14 40.18 38.42 1.26 1.11 2.88 1.98 3.25 3.87-1.28.8-2-.12-2.68-.62-14.37-10.68-28.93-21.12-41.83-33.62-1.16-1.12-2.21-2.38-4.13-2-1.04.2-1.85-.39-2.64-.97-11.97-8.9-25.3-15.49-38.52-22.19-16.97-8.59-33.5-18.07-50.94-25.7-8.41-3.69-17.06-6.84-25.53-10.42-2.03-.85-3.38 0-4.94.78-17.72 8.93-35.46 17.8-53.12 26.8-11.07 5.64-22.04 11.45-33.06 17.18-1.56.81-3.17 1.46-4.17 3.13-5.2 8.66-12.41 15.65-19.32 22.87a22 22 0 0 0-5.19 8.56c-3.38 10.6-6.02 21.4-9.04 32.1a7 7 0 0 0-.17 3.35c1.12 5.55 1.42 11.17 1.6 16.8.43 13.88.8 27.76 1.24 41.64.05 1.76.37 3.52.49 5.28.04.64-.09 1.32-.8 1.6-.77.29-1.16-.4-1.62-.76-1.14-.9-1.12-2.26-1.29-3.53-1.31-9.9-2.35-19.8-2.94-29.76-.26-4.5-.7-8.98-1.1-14.12-2.99 3.15-4.31 6.64-5.42 10.17-3.04 9.69-5.91 19.43-8.92 29.13-4.42 14.32-8.97 28.6-13.3 42.95-.74 2.43-1.77 3.37-4.34 3.36-21.16-.08-42.31-.05-63.47-.05h-13.67c-.73-2.97 1.1-4.88 1.87-7.05 1.97-5.51 4.97-10.47 8.25-15.29 3.86-5.68 9.03-7.97 15.86-6.6 3.47.7 3.18.4 4.76-2.76 2.5-4.98 2.1-9.2-1.14-13.83-2.45-3.49-3.78-7.77-5.68-11.67a2.4 2.4 0 0 1-.07-2.26c.53-1.2.94-2.62 2.07-3.2 5.24-2.64 4.62-6.68 3.11-11.2-.75-2.28-.8-4.76-1.4-7.1-.4-1.55-.37-3.3.52-4.16 2.9-2.81 2.02-6.21 2.03-9.48.09-20.85 6.65-39.4 20.8-54.75 11.09-12.04 24.06-21.93 38.32-30.07 6.89-3.94 14.02-7.3 21.58-9.71 4.79-1.53 9.64-2.72 14.72-2.36 1.71.13 2.84-.27 3.1-2.1.89-6.01 5.15-8.33 10.43-8.55 4.81-.2 7.42-1.97 8.97-6.63 1.4-4.18 4.77-6.94 9-8.78 4.4-1.93 7.6-5.04 8.47-10.28 1.36-8.13 4.37-15.82 7-23.6 1.31-3.85 3.7-6.13 7.43-7.59 4.64-1.8 9.09-4.07 13.5-6.07.27-1.77-1.05-2.13-1.89-2.73-7.57-5.5-14.76-11.5-22.5-16.76-2.67-1.8-5.03-4.03-7.54-6.07-6.17-5.02-8.95-11.72-9.24-19.46-.73-19.68-1.73-39.35-1.3-59.04.03-1.45-.08-2.99.34-4.34 1.09-3.48.1-6.58-1.08-9.8-2.05-5.58-.23-8.28 5.67-8.74 15.64-1.18 31.32-.68 46.97-.49 15 .2 30 .62 44.82 3.24 8.26 1.46 16.58 2.85 23.39 8.39 1.01.83 2.04.76 3.17.36 1.67-.6 3.37-1.1 5.05-1.66 4.25-1.42 6.99-3.86 7.35-8.8.49-6.58 2.02-13.03 3.64-19.43.33-1.34.41-2.48-.41-3.67-2.12-3-4.19-6.03-6.49-9.36-1.6 3.6-1.4 7.03-2.28 10.24a41 41 0 0 1-3.99 9.82c-1.14 1.99-2.3 4.05-4.64 4.68-1.73.46-1.5 2.3-3.02 3.34-.61-7.64 2.08-15.09-.52-22.35-1.13.3-1.26 1.27-1.51 2.2a54 54 0 0 1-3.74 9.42c-1.56 3.12-3.33 5.84-7.54 5.68-1.3-.05-2.6 1.23-3.97 1.67-2.2.7-4.35 2-6.85 1.52-.09-1.75 1.22-1.49 1.97-1.85 8.2-3.97 11.66-11.18 9.55-19.9-.35-1.48-1.13-1.74-2.46-1.38-1.67.46-2.63 1.8-3.81 2.88-2.24 2.03-4.5 4.07-8.46 4.72 2.41-3.56 5.49-5.69 7.65-9.56-5.09 3.17-7.57 8.62-12.6 10.23-4.88 1.57-9.35 4.01-14.28 5.51 4.68-4.86 11.32-7.31 16.6-13.13-3.72-.26-5.03 2.73-7.59 2.43 3.78-4.35 9.39-7.07 10.7-13.6-1.87.02-2.9 1.13-4.08 1.77-4.43 2.37-9 3.48-13.94 1.82a7 7 0 0 0-4.27.05c-1.55.45-3.12.87-4.79.45-.2-1.33 1.57-.24 1.36-1.89-.81-1.03-3.43-.5-4.14-2.57 10.73-.05 18.46-4.63 19.7-12.82-4.4 1.63-8.53 3.27-12.72 4.68-2.43.82-4.74 2.05-7.4 2.13-2.17.08-3.79-.37-4.26-2.83-.49-2.55-2.37-4-4.26-5.6-7.5-6.37-15.42-12.3-21.07-20.56a47 47 0 0 1-3.22-5.4c-.57-1.12-1.4-2.65-1.06-3.63 1.63-4.66-1.76-6.06-4.66-7.87-3.83-2.4-7.62-4.86-11.48-7.2-10.75-6.58-15.52-16.9-17.72-28.69-.55-2.96-1.29-5.65-3.22-7.92-4.68-5.49-7.1-11.7-7.02-19.03.04-3-.76-6.07-.57-9.14.25-3.88.78-4.21 4.7-4.25 2.4-.03 4.77.35 7.25.8-.63-2.99-2.23-5.26-3.33-7.74-4.13-9.23-6.2-18.93-7.2-28.96a471 471 0 0 1-2.36-33.73c-.08-2.99.35-5.58 3.98-6.11-.2-.43-.28-.83-.5-.93-5.5-2.6-6.83-7.66-7.87-13.02-2.33-12.01-5.12-23.94-6.27-36.15-1.34-14.15 1-27.96 4.1-41.67.95-4.24 2.28-8.4 3.32-12.61.37-1.52 1.83-3.26-.53-4.59-.57-.32-.4-1.39.25-1.6 2.02-.62 3.91-1.81 6.27-.86a25 25 0 0 0 9.78 2.03c4.25-.06 5.28 1.2 4.62 5.36-1.33 8.3-3.55 16.4-5.34 24.58-1.13 5.21-.5 6.46 4.25 9.17 6.02 3.44 11.96 7.02 18.35 9.78 3.62 1.56 3.8.94 5.3-1.66a76 76 0 0 1 7.77-11.09c3.51-4.1 5.95-4.43 10.1-.74a7.4 7.4 0 0 0 3.21 1.85c18.93 4.78 37.44 10.92 56.05 16.75 2 .64 4.02 1 6.1.37l-.08-.1zM650.4 434.8c.63-1.71.26-3.08-1.5-4.27.37 1.66.79 3 1.6 4.2.64 2.7 1.54 5.3 2.87 7.76l2.6 8.02c5.35 13.83 9.81 27.96 14.17 42.12.96 3.15 1.65 6.17-.46 9.26-.65.96-.52 2.48-.7 3.76-.51 3.5-.72 7.06-1.52 10.5-5.33 22.89-14.01 44.33-27.8 63.67 4.21 2.76 8.88 5.31 13.72 7.53 2.57 1.18 5.03 2.8 8.18 2.53 1.32-.11 3.28.47 3.6 2 .7 3.42 3.8 4.56 5.7 6.82 2.24 2.65 6.51 3.1 7.47 7.09.14.6 1.07.68 1.66.25 2.68-1.96 3.72-.46 5.11 1.85 1.58 2.58 3.22 5.5 7.51 4.35 1.83-.5 4.2.64 5.56 2.38 1.05 1.35 2.39 2.11 3.78 2.91 15.98 9.19 33.1 15.95 49.9 23.37a16 16 0 0 0 5.12 1.32c2.12.17 4.13-1.74 3.53-3.52-1.11-3.35.43-6.02 1.65-8.75 7.23-16.2 13.9-32.61 20.26-49.17.44-1.12 1.43-2.23.78-3.63-3.6-.96-7.75 1.55-11.11-1.62 1.58-3.7 4.25-5.2 8.07-4.81.96.1 1.98-.05 2.89.2 2.6.72 3.74-.33 4.52-2.81 1.98-6.31 4.3-12.5 6.36-18.8 4.17-12.7 8.82-25.27 11.52-38.41 1.3-6.31 2.15-12.72 4.02-18.9 1.25-4.17 1.26-4.12-2.69-6-8.59-4.1-17.02-8.47-24.74-14.15-2.51-1.84-3.86-5.3-7.57-5.6-.5-.05-.34-1.05-.2-1.71 1.08-5.23.71-10.58 1.35-15.87 1.37-11.4 3.1-22.71 7.03-33.5 1.24-3.41.34-5.52-1.37-8.32-2.88-4.7-6.54-6.7-12.05-7.08-11.42-.76-22.81-2.46-34.2-.1-3.8.8-7.46 1.22-11.3.12-1.46-.4-2.25-1-2.78-2.24-.61-1.4.02-2.62.97-3.48 1.67-1.51 3.45-2.98 5.61-3.72 7.72-2.67 15.62-4 23.79-3.06 5.55.64 11.09 1.38 16.9 2.1-.53-3.15-1.98-4.7-4.98-5.3a158 158 0 0 1-51.2-19.71c-.9-.54-1.8-1.5-3.32-.41.33 2.08-.56 4.21-.68 6.45-1.17 22.36-.25 44.5 7.21 65.92.58 1.66.86 3.26-.61 5.08-3.97-6.24-5.6-13.03-8.4-19.33.4 4.03 2 7.72 3.1 11.54.4 1.46 2.2 3.67.67 4.3-2.24.9-2.84-1.92-3.57-3.54-3-6.64-4.65-13.72-6.25-20.8-.93-4.06-1.71-8.17-2.55-12.26-3.53 10.25-4.82 20.65-5.73 31.24-2.16-6.7-4.88-13.15-6.09-20.2-4.37 8.06-7 16.34-7.21 25.4-.2 8.72 1.96 16.93 4.65 25.06 3.04 9.18 4.14 18.53 2.47 28.1-.29 1.62.09 4.18-2.13 4.27-2.76.1-1.37-2.67-1.93-4.13-.05-.15-.14-.3-.39-.8-1.08 1.37-1.54 3.38-3.86 3.47-2.02-7.67-.82-16.04-4.18-23.81-2.3 2.01-2.83 4.82-5.72 5.35-.43-.93-.88-1.78-1.23-2.67-2.67-6.58-5.27-13.17-8-19.71-.42-.98-.28-2.88-2.31-2.4.58-3.44-.1-5.48-2.66-7.96.52-3.13-.55-5.68-2.9-7.75zm-5.42-15.88c-.26 2.75 1 4.98 2.52 7.12-.25-2.58-.78-5.05-2.62-7.05a45 45 0 0 0-5.84-15.48 3.4 3.4 0 0 0-.2-2.35l-12.48-33.43c-.23-.62-.52-1.1-1.26-1.18-.75 1 .06 1.86.37 2.69a4143 4143 0 0 0 11.43 30.22c.54 1.4.49 3.22 2.24 3.98-.68 1.7.36 3.15.98 4.5 1.7 3.63 1.86 7.93 4.85 10.98zm-141.3 105.44c-1.5-.56-2.83-1.77-5.1-1.22 1.98.93 3.38 2.2 5.23 1.08-.54 1.46.78 1.57 1.52 1.86a475 475 0 0 0 12.08 4.51c.85.3 1.72 1.24 3.16.1a2709 2709 0 0 0-16.89-6.33m-135.94-31.72c.21.72.82.84 1.45 1.02l17.85 5.47c.76.23 1.53.52 2.27-.08-.53-1.2-1.66-1.32-2.73-1.63q-7.35-2.14-14.7-4.32c-1.38-.4-2.76-.8-4.22-.35-1.02-1.82-2.97-1.6-4.58-2.06-17.92-5.16-35.98-9.82-53.6-15.98q-4.89-1.7-9.81-3.35c5 3.72 10.7 5.7 16.43 7.61 12.82 4.31 25.95 7.49 39.04 10.84 4.16 1.06 8.15 2.97 12.59 2.83zM647 348.6c.9 1.14 1.9.69 2.77.67 14.35-.37 28.7-.71 43.06-1.2 14.02-.48 28.04-1.2 42.06-1.67 17.74-.59 35.49-1.02 53.23-1.51 22.41-.62 44.83-1.32 67.24-1.8 7.58-.16 15.17-.84 22.73-.68 13.24.3 26.46-.5 39.7-.38 2.7.02 5.38-.48 8.11-.74.14-3.04-.9-5.27-2.6-7.34-8.7-10.62-16.2-22.1-23.94-33.41-8.57-12.52-16.3-25.56-23.83-38.72-9.38-16.4-19.66-32.2-29.78-48.13-2.34-3.7-3.53-4.45-7.83-3.86-5.27.73-10.52 1.54-15.79 2.26a609 609 0 0 0-62.6 12.2c-26.3 6.45-52.44 13.55-77.79 23.15-18.23 6.91-36.19 14.5-54.57 21-2.16.77-4.63 1.04-2.94 4.42.65 1.3-.76 1.91-1.65 2.57l-8.97 6.64c6.45 5.34 11.5 11.38 15.96 17.94 6.83 10 14.07 19.66 22.55 28.36a51 51 0 0 1 5.4 6.82c2.8 4.1 2.36 6.05-1.79 8.52-2.85 1.7-5.8 3.24-8.75 4.88zm-33.28 444.37c-.78-2.16-2.06-2.96-3.03-4-3.43-3.73-4.64-8.13-3.55-12.98.62-2.78.8-5.16-1.06-7.6-.95-1.25-1-3.08-.66-4.69 1.63-7.61 3.97-14.94 9.08-21.07.75-.89 1.32-1.53.84-2.93-1.45-4.07-1.14-6.65.74-10.47.29-.58.5-1.19.78-1.77a191 191 0 0 1 16.5-28.42c1.03-1.45 2.03-2.94 3.57-3.88.78-.48 1.8-1.21 2.56-.1 1.92 2.8 3.84 1.33 5.8.14 1.5-.92 2.97-1.96 4.56-2.75 1.74-.85 2.47-2.06 2.88-4a193 193 0 0 1 4.14-15.77c.48-1.56-.28-2.07-1.1-2.75-3.13-2.55-6.17-5.21-9.46-7.54-10.62-7.51-20.38-16.33-32.65-21.33a5 5 0 0 1-2.1-1.91c-.72-1.19-1.85-1.77-2.93-2.41-23.81-14.02-48.4-26.38-74.41-35.88-24.34-8.89-49.46-14.5-74.9-18.96-2.29-.4-4.55-1.63-7.34-.75.76 5.86-3.64 11.33-1.02 17.37-3.5.72-4.71-.17-5.42-3.87-.3-1.56.4-3.39-.7-4.7-3.37-4.04-6.5-8.32-11.35-12.3.72 3.08.65 5.66 1.88 7.28 1.47 1.95 1.5 3.89 1.48 5.88a46 46 0 0 1-.95 7.67c-1.8 9.4-5.31 18.24-8.8 27.1-.78 2-1.97 3.75-.68 6.3.86 1.7-.56 4.06-2.32 4.86-6.46 2.91-12.64 7.05-20.39 5.3-2.46-.56-5.04-.56-7.57-.81 6 2.8 12.16 5.11 18.26 7.59 2.3.94 4.97 1.46 6.15 4.23.26.62 1.2 1.02 1.92 1.36l34.35 16.71c1.46.71 2.9 1.33 4.6.43 1.84-.99 3.46-.23 4.8 1.1 1.72 1.7 3.47 3.38 5 5.25 9.98 12.25 19.77 24.65 29.88 36.79 12.48 14.98 25.5 29.53 37.7 44.73 5.57 6.94 11.48 12.71 19.85 16.09 4.57 1.85 8.67 4.88 13 7.4.97-1.86-.28-3.33-.26-4.92.01-2.07 1.15-3 2.9-3.16 1.57-.14 1.51 1.33 1.72 2.4.26 1.42.82 2.87.73 4.27-.41 5.45 3.13 7.67 7.36 9.36a22 22 0 0 1 7.19 4.8c.82.81 1.17 2.43 2.8 2.17.44-1.93.7-3.86 1.34-5.68 1.05-3.02 3.46-3.93 6.33-2.5 3.67 1.85 7.7 2.21 11.98 3.33zM359.75 337.08c-3.22.27-4.28-1.12-2.93-4.35.68-1.63 1.7-3.11 2.6-4.63 2.15-3.65 2.04-3.97-.98-6.93-1-1-2.17-1.36-3.37-1.76-11.17-3.68-22.37-7.27-33.51-11.05-2.04-.7-3.08-.48-4.37 1.34a99 99 0 0 0-12.54 24.26 6 6 0 0 0 .64 5.8c7.04 11.59 13.59 23.44 19.11 35.84 4.53 10.16 8.48 20.58 13.41 30.56 5.85 11.84 12.18 23.5 13.86 36.94.2 1.67.96 3.48 2.88 4.73 16.64 10.84 32.6 22.61 48.23 34.86 2.68 2.1 5.23 4.33 7.17 7.14.52.75 1.6 1.73.72 2.5-2.14 1.88-.41 2.63.78 3.65a819 819 0 0 1 6.63 5.63c1.94 1.67 3.77 3.58 4.74 5.9 3.59 8.44 6.94 16.99 10.34 25.5.75 1.88 1.79 3.2 3.83 4 3.15 1.23 6.12 2.9 9.14 4.43 7.19 3.64 14.07 7.88 21.62 10.79 1.64.63 3.32 1.82 5.05 1.34 1.59-.44.67-2.65 1.65-3.74.44-.47.9-.93 1.24-1.47a16 16 0 0 0 2.35-6.28c1.04-8.69 1.26-17.37-.03-26.04-.46-3.04-1.06-6.11-3.61-8.22-6.04-4.97-13.02-8.32-20.26-11.06-1.53-.59-2.91-.96-3.98-2.25a120 120 0 0 1-16.43-26.05c-6.94-15-10.4-31.16-15.3-46.84-.52-1.67-1.1-3.71-.21-5.2 1.37-2.3.9-4.65 1.01-7 .08-1.92.15-3.81.48-5.75 2.84-16.11 7.96-31.53 14.07-46.65.5-1.23 1.21-2.31.05-3.52-3.91-4.07-7.77-8.2-11.73-12.22-.86-.86-2.2-1.97-3.28-.41-3.3 4.74-7.83 4.54-12.55 3.23a11 11 0 0 0-5.67.04c-2.31.52-4.76 1.26-6.81-.89-1.07-1.12-2.3-.72-3.58-.24a27 27 0 0 1-4.62 1.36c-1.5.28-3.04.08-3.27-1.9-.21-1.92-1.37-1.56-2.28-.87a20 20 0 0 0-5.7 6.48c-1.85 3.4-3.86 6.7-5.9 10a22 22 0 0 1-5.58 6c-1.28.97-2.8 1.83-4.46.83-1.68-1-1.53-2.77-1.39-4.34a13 13 0 0 1 1.06-3.7 69 69 0 0 1 4.4-8.6 50 50 0 0 0 3.5-6.89c1.86-4.55-.23-5.89-3.7-4.75-.75.25-1.58.3-2.56.46zm266.43 167.45c1.26-2.34 2.31-4.71 3.72-6.84 1.98-2.97 1.9-5.83.7-9.08-3.67-9.98-7.11-20.04-10.69-30.06-9.74-27.24-21.27-53.65-37.17-77.94-8.49-12.95-17.66-25.4-28.18-36.8a33.5 33.5 0 0 0-17.63-10.35c-7.57-1.7-15.27-2.3-22.95-3.2-9.53-1.1-18.9-1.16-28.19 1.61-2.47.74-5 1.24-7.49 1.94-8.38 2.35-16.73 4.77-24.53 8.76a21.4 21.4 0 0 0-9.24 8.94c-7.24 13.2-12.37 27.26-16.75 41.6-2.16 7.08-3.54 14.4-5.83 21.44-.65 2.01-.88 3.45-.1 5.34a310 310 0 0 1 10.43 29.12c4 13.55 10.1 26.13 16.92 38.42 1.16 2.1 2.5 3.5 4.9 4.22 6.03 1.82 11.7 4.64 17.1 7.8 5 2.93 10.15 5.79 13.43 10.85.79 1.22 2.05 1.44 3.27 1.84 4.28 1.41 8.6 2.77 12.83 4.28a713 713 0 0 1 47.12 18.82c2.24.99 4.04 1.24 6.26-.14 3.17-1.98 6.94-2.55 10.51-3.46a8.9 8.9 0 0 1 7.4 1.27c2.22 1.5 4.45 2.98 6.77 4.53l1.76-1.95c7.25-8.23 14.1-16.8 21.9-24.55 3.07-3.07 6.21-6.1 9.81-8.58 4.05-2.8 7.16-2.65 11.05.32.76.57 1.2 1.52 2.85 1.84zm-55.33-338.6 1.7 2q6.93 8.4 17.8 9.31c3.38.28 6.68.38 9.6-2.12 1.4-1.2 3.45-1.68 5.25-2.4 7.96-3.18 16.29-5 24.67-6.63a755 755 0 0 1 63.55-9.52c15.05-1.63 30.13-2.78 45.35-1.64 13.53 1.03 26.52 3.26 37.8 11.41 1.36 1 2.36 1.02 3.93.45 2.86-1.05 4.5-2.6 4.48-5.87 0-1.54.36-3.15.9-4.72 2-5.74-.33-11.79-5.71-14.56-12.6-6.5-25.4-12.6-38.31-18.47-1.17-.54-2.3-1.13-3.67-.56-4.85 1.97-10.11 1.75-15.14 2.8-2.91.6-6.01.43-8.94 1.98 1.7 2.7 2.9 5.33 3.45 8.19.82 4.17-.2 5.84-5.32 7.94 3.69-4.42 2.82-8.32.58-12.18-.24-.41-.45-.9-.47-1.37-.16-2.82-2.1-2.8-4.1-2.6-4.64.47-9.29.92-13.91 1.55-2.64.36-5.48.04-7.97 1.76 10.27.71 17.18 3.94 21.26 9.92-.3 0-.66.11-.87-.02-6.38-4.15-13.03-7.51-20.86-7.73a5.3 5.3 0 0 1-2.79-.7c-2.2-1.55-4.52-1.34-6.95-.93-23.03 3.92-45.88 8.61-68.26 15.47-13.44 4.12-25.07 11.43-37.05 19.25M279.66 427.73c.78 5.44 2.42 10.1 4.3 14.71 1.95 4.78 4.81 9.34 5.34 14.47.57 5.6 3.59 8.1 8.58 9.14.31.06.62.2.92.31q6.1 2.1 10-2.82.44-.57.93-1.12c1.03-1.2 1.9-2.96 3.73-2.69a81 81 0 0 1 8.85 1.97c.42.1.94 1.08.87 1.58-.3 2.07.55 2.57 2.4 2.11.68-.17 1.48.07 1.71.63 1.21 2.93 2.9 1.61 4.52.58 1.92-1.2 3.74-2.55 5.65-3.75 2.67-1.68 4.51-1.24 5.88 1.5 1.66 3.34 1.34 6.55-.97 9.54-1 1.31-2.54 2.28-3.14 4.31 23.04 6.87 45.34 14.97 68.16 21.93-5.28-5.6-10.04-11.45-15.14-17-4.65-5.07-9.43-9.98-15.19-13.87-5.34-3.6-10.48-7.53-15.64-11.4-3.24-2.42-6.37-4.74-10.63-5.28-3-.39-4.9-2.17-5.56-5.65-2.7-14.58-9.9-27.54-15.5-41.07-.42-1.02-.81-1.97-2.18-2.29-7.72-1.8-14.87-5.25-22.19-8.18-9.42-3.76-18.77-7.71-27.46-13.07-3.01-1.86-4.08-1.17-3.97 2.34.06 1.92.47 3.82.6 5.74.18 2.96.15 2.92 3.37 3.82.99.28 2.43.12 2.54 1.73a3.4 3.4 0 0 1-1.75 3.24c-.5.31-1.21.37-1.84.43-3.42.27-.76 1.7-1.05 2.91 1.28-.54 2.01-.89 2.76-1.15 3.02-1.04 3.56-.68 3.81 2.63q.1 1.44-.07 2.88c-.15 1.44-.56 2.86-.58 4.29-.01 1.34 1.43 1.98 2.38 1.05 1.24-1.25 2.2-2.74 3.6-3.9 2.01-1.66 4.07-2.64 6.6-1.34 2.83 1.44 4.27 3.98 3.51 7.1-.38 1.56.3 2.3.83 3.45.95 2.04 2.7 1.32 4.17 1.57 6.56 1.08 12.25 5.75 7.25 13.67-2.19 3.45-2 3.64-5.15.53-1.68-1.65-3.05-2.38-5.35-.57-2.8 2.2-4.7 1.86-7.19-.76-1.64-1.73-2.95-3.78-4.42-5.72q-2.45 3.29-8.3 1.48zm14.63-197.55c-.97 1.61-2.52 2.7-1.7 4.78 1.8 4.5 3.84 8.82 7.19 12.48 11.34 12.42 30.03 13.34 44.02 8.62 1.53-.52 2.16-1.58 2.45-3.2 2.2-12.29 7.97-22.68 16.82-31.43 3.27-3.24 6.89-5.94 11.49-6.75 2.19-.39 2.57-1.54 2.48-3.33-.55-10.4-4.06-19.44-12.14-26.4-7.74-6.69-17-8.88-26.88-9.13-11.56-.29-11.8.02-17.95 10.01-2.63 4.26-4.23 9.07-7.32 13.06-1.25 1.62-2.11 3.06-1.46 5.62.94 3.7-2.24 7.35-6.22 8.05-1.1.2-1.74.59-2.23 1.48-.9 1.68-1.82 3.35-2.95 5.42 3.16.72 5.56 2.63 8.72 2.88 5.8.45 11.55.72 17.38.2 4.31-.4 8.7-.75 13.02.1 4.62.9 7.94 3.5 8.13 6.53.26 4.2-2.71 6.52-5.89 8.1-5.37 2.69-11.2 4.2-17.26 3.93-5.13-.22-10.24-.91-15.36-1.45-6.29-.67-11.23-3.46-14.34-9.58M187.84 931.4c2.27-3.8 4.2-7.35 6.41-10.7 8.83-13.43 18.7-25.7 33.2-33.73 6.63-3.65 12.47-8.6 20.67-8.15 1.72.1 2.83-1.6 1.79-2.96-2.2-2.9-1-5.6-.03-8.23 2.56-6.86 6.55-12.97 11.1-18.61 2.2-2.73 2.7-4.94 1.37-8.17-1.48-3.58-1.2-3.73-4.96-2.78a124 124 0 0 0-18.72 6.43c-13.76 5.95-26.05 14.03-35.92 25.45-10.48 12.15-16.51 26.24-18.42 42.21-.8 6.67-1.26 13.05 3.5 19.23zm465.83-593.27c-1.16-2.62-3.04-3.96-4.62-5.53a157 157 0 0 1-15.92-18.13 579 579 0 0 0-11.7-15.37 83 83 0 0 0-14.5-14.13c-2.71-2.1-5.53-2.3-8.48-.4-.55.36-1.08 1.73-1.82.81-1.7-2.12-2.9-.34-4.07.41-8.8 5.72-11.77 14.61-11.25 24.26.83 15.6 8.35 27.83 21.68 36.2 5.44 3.42 11.43 5.17 17.95 4.53 2.08-.2 4.07-.5 5.65-2.24 1.6-1.77 3.3-1.98 5.44-.25 2.73 2.21 4.02 2.04 6.63-.03 4.67-3.7 9.63-6.98 15-10.13M413.1 550.48c-4.28-1.77-7.92-3.1-11.41-4.74-23.1-10.87-47.51-14.97-72.9-14.41-3.8.08-5.45 1.18-7.04 4.7-1.34 2.94-.76 4.44.88 6.67 4.76 6.41 10.91 11.4 16.55 16.93 1.5 1.46 2.77 1 4.37.35 8.08-3.23 16.2-6.38 24.3-9.54 1.09-.42 2.16-1.15 4.38-.25-9.53 5.48-19.1 9.1-28.15 13.67.74 1.98 2.33 3.02 3.23 4.5 1.28 2.12 2.79 2.17 4.9 1.48 15.9-5.27 31.95-10.03 48.1-14.52 4.13-1.15 8.36-2.22 12.8-4.84zm267.08-357.2c29.27-9.7 58.23-19.28 88.72-23.8-4.31-2.78-8.77-4.94-12.92-7.63-.57-.38-1.54-.15-2.33-.19-5.14-.31-10.34-.23-15.39-1.07-3.63-.6-5.86.67-7.92 3.19q-5.53 6.76-11.38.58c-3.25-3.43-6.36-4.26-10.8-2.42a16 16 0 0 1-9.46 1.1c-3.24-.67-6.38-.4-9.58-.25-12.71.54-25.36 1.63-37.84 4.27-.76.16-1.65 0-1.78 1.13.07.14.1.36.22.43 8.38 5.18 16.45 10.76 23.28 17.94.58.6 1.23.88 2.08 1.03 4.42.75 4.42.79 5.1 5.7zm51.09-74.51c-1.42-.66-2.81-1.38-4.26-1.96a14048 14048 0 0 0-41.78-16.53c-1.83-.72-3.88-1.34-3.66-3.72.23-2.47-1.14-2.93-3.01-3.4-5.94-1.48-11.83-3.12-17.76-4.63-24.05-6.08-48.56-10.2-72.52-16.62-8.07-2.16-15.11-1.38-22.35 1.87-.73.33-1.54.5-2.23.9-.86.5-2.34.43-2.18 2.1a265 265 0 0 1 30.64 3.94c34.34 6.54 66.8 18.03 96.63 36.56 1.63 1 4.12 1.5 4.85 2.94 1.43 2.8 3.29 2.66 5.75 2.36 2.55-.3 5.14-.3 7.71-.3 8.1-.03 15.9-2.42 24.18-3.5zm-70.2 514.43c-1.53-2.19-3.48-3.06-3.8-5.24-.1-.7-.93-1.24-1.77-1.5-7.55-2.32-14.25-6.8-21.96-8.74-2.35-.59-5.12-1.43-6.04-3.63-1.46-3.45-4.4-4.45-7.23-5.87a42 42 0 0 1-7.7-4.95c-1.03-.84-2.02-1.55-3.43-1.47-6.63.34-12.71-1.77-18.68-4.27-1.81-.77-3.1-.74-4.78.55-2.86 2.2-6.22 3.4-9.97 2.74-3.96-.68-7.96-1.22-11.87-2.13-10.24-2.4-19.02-7.8-27.4-13.9-3.45-2.52-6.85-5.08-11.65-6.2 1.11 5.42-3.14 5.73-6.17 6.9.2.93.63 1.05 1.08 1.2 23.35 8.14 45.57 18.7 67.03 30.96 5.04 2.88 10 5.89 15 8.83.95.56 1.78 1.29 2.89 0 3.77-4.37 9.4-4.42 13.75-3.15 5.26 1.55 10.63 2.25 15.89 3.59 8.71 2.2 17.5 4.11 26.83 6.27zM783 135.42c1.34 1.42 2.34 2.44 3.3 3.51 4.83 5.34 7.64 10.97 4.35 18.41-1.88 4.24-.87 8.44 2.26 12.12a46 46 0 0 0 18.68 13.27c4.47 1.72 8.94 2.9 13.26-.56.84-.67 2.04-.92 3.1-1.31.9-.34 1.87-.55 2.28-1.6 1.55-4 4.9-6.73 7.3-10.13 1.54-2.19 1.42-3.32-.4-5.17-11.34-11.5-23.5-21.91-37.16-30.66-4.67-2.99-8.4-3-12.74-.38-1.22.74-2.47 1.46-4.22 2.5zm155.42 202.87c-33.09-54.79-66.64-108.52-98.4-163.47-1.26 1.02-2.48 1.82-3.48 2.86-2.5 2.6-2.52 5.42.13 7.8 5.8 5.18 10.15 11.67 15.66 17.1.96.96 1.76 1.88.88 3.35-2.23 3.72-1.07 6.92 1.42 10.09 5.18 6.6 9.85 13.53 14.3 20.64 10.96 17.48 20.3 35.93 31.7 53.12 8.56 12.9 17.58 25.47 26.43 38.15 1.68 2.4 5.3 3.8 4.28 7.78-.08.3.76 1 1.3 1.28 1.4.71 2.8 1.59 5.78 1.3M693.34 96.6c1.36.59 2.51 1.16 3.7 1.6q16.57 6.02 32.64 13.25c15.73 7.06 31.28 14.47 46.38 22.81 3.08 1.7 3.05 1.65 4.89-1.46.65-1.09 1.5-2.09 2.38-3.01 2.5-2.65 2.3-3.75-1.05-5.58-4.67-2.55-9.32-5.1-13.93-7.77-15.21-8.8-30.59-17.25-47.38-22.75-1.52-.5-2.97-1.12-4.67-1q-9.41.68-18.82 1.2c-1.68.1-3.18.38-4.12 2.7zM492.31 325.45c-3.1-2.86-5.5-5.72-8.18-8.24-5.36-5.04-11.33-6.79-18.61-4.88-7.48 1.96-14.8 4.37-22.21 6.55a161 161 0 0 0-18.18 6.45c-2.17.93-2.36 1.84-.98 3.67a11 11 0 0 0 5.94 3.95 33 33 0 0 1 13.02 7.07c1.23 1.07 2.12 1.45 3.77.53 11.04-6.2 23.02-9.85 35.26-12.73l10.18-2.35zm129.52 239.6c-2.63.73-4.35-.25-6.12-.94a335 335 0 0 0-35.3-11.61c-1.72-.47-2.87-.54-4.14 1.05-4.65 5.8-8.96 11.8-12.67 18.25-1.29 2.24-.89 3.53 1.09 5.21 9.45 8.04 20.22 13.7 31.72 18.11 3.17 1.21 6.5 1.78 9.86 2.3q3.66.55 5.26-2.47c3.6-6.66 7.63-13.09 10.5-20.1.43-1.06 1.23-2.26.33-3.16-1.83-1.83-.84-3.86-.52-6.64zm-4.9-390.22c3.38 1.92 6.07 3.36 8.67 4.93 10.47 6.3 20.88 12.7 30.65 20.07 1.22.93 2.36 1.66 3.94 1.02l17.37-6.93c-3.63-.51-4.9-3.75-7.18-5.6-7.6-6.23-15.57-11.92-23.54-17.65-2.3-1.65-4.51-2.22-7.18-1.42-1.22.36-2.52.49-3.76.83-6 1.61-12.23 2.41-18.97 4.75M418.08 339.6c-1.6-1.33-3.2-1.61-4.7-2.07l-30.97-9.46c-5.07-1.55-10.13-3.18-15.2-4.75-1.05-.32-2.66-.94-2.92.48-.65 3.54-3.63 6.02-4.23 9.53 2.14.93 4.03-.13 5.94.02 2.92.23 3.68 1 3.49 3.95-.17 2.67-1.55 4.88-2.8 7.13-2.28 4.07-4.9 7.98-6.19 12.53-.48 1.7-1.46 4 .13 4.97 2.04 1.26 3.38-1.14 4.64-2.46 3.36-3.54 5.68-7.81 7.99-12.05a23 23 0 0 1 6.66-7.56c1.61-1.2 3.54-2.88 4.9.48.33.81 1.15.97 2.04.63 1.35-.53 2.75-.92 4.1-1.44 2.34-.9 4.58-1.65 6.59.76.77.93 2.08 1 3.17.71 3.25-.89 6.36-.3 9.52.5 2.74.7 5.43.77 7.84-1.87zm246.81 157.2c-.24-.92-.33-1.57-.58-2.15-5.53-12.7-10.49-25.66-15.38-38.62-7.96-21.12-15.72-42.3-22.66-63.79-2.33-7.22-4.4-14.5-6.52-21.78-.32-1.1-.46-2.23-2.13-1.92-1.78.32-1.2 1.4-1.08 2.52.98 8.5 2.83 16.82 4.94 25.1.47 1.84.84 3.31 2.99 3.85 1.77.44 2.17 2.2 2.65 3.76q2.26 7.4 4.57 14.78c4 12.76 9.02 25.2 12.26 38.2 1.71 6.88 3.68 13.7 5.65 20.52.5 1.73.7 3.84 3.56 3.66 1.72-.1 2.13 1.6 2.48 3.1.59 2.5 1.34 4.96 2.01 7.45.92 3.45 2.74 5.75 7.24 5.3zM267.47 353.17c.03-9.45.63-18.75 2-28.03 2.05-13.73 5.2-27.2 8.58-40.64.94-3.71 1.47-7.12-.9-10.78-1.56-2.41-3.42-1.78-5.3-1.98-1.91-.2-1.71 1.5-1.96 2.7-.92 4.41-1.88 8.82-2.71 13.25-1.89 9.98-3.84 19.94-3.99 30.16-.16 11.98 1.9 23.68 4.27 35.31zm444.63 418.4c2.46-15.04-.51-42.62-6.18-52.02a21 21 0 0 1-4.73 4.72c-1.79 1.25-1.99 2.75-1.35 5a90 90 0 0 1 3.34 31q-.46 7.02 5.91 9.87c.87.39 1.73.82 3 1.43zM542.34 89.9c-.1-1.81-1.36-2.23-1.97-3.1-3.55-5.12-8.2-6.85-14.5-6.09-10.4 1.25-20.85 2.14-31.17 3.96-1.02.17-1.67.48-2.2 1.5-3.12 6.02-3.01 7.1 1.67 12.07q.5.53 1.02 1.03c2.69 2.6 3.02 2.58 4.55-.94a38 38 0 0 1 6.57-10.65c.96-1.06 1.93-2.19 3.65-2.02 4.96.5 9.95.81 14.9 1.46 5.72.75 11.42 1.8 17.5 2.77zm93.96 478.9c4.2-4.44 6.32-9.11 8.4-13.8 6.67-15.01 13.37-30.02 17.52-45.99.4-1.55 2.35-4.12-.75-4.76-2.37-.49-2.35 2.3-2.7 3.84-2.27 9.8-5.99 19.03-10.66 27.92-4.73 8.98-10.2 17.51-15.98 26.2 3.44.58 4.6 2.77 4.17 6.59m38.13-357.32a5.5 5.5 0 0 0-5.3-1.53c-3.5.6-7.02 1.27-10.28 2.7-15.52 6.82-30.65 14.4-44.36 24.5-.8.58-1.8 1.05-1.99 3.1 20.84-9.7 40.72-19.91 61.92-28.77zm-30.75 404.66c3.49 2.63 7.16 4.23 10.59 6.22 1.75 1.02 2.74.53 3.82-1.21 3.37-5.52 6.09-11.36 8.81-17.2.5-1.03 1.52-2.3-.24-3.28-1.7-.94-2.38.53-3.12 1.42-2.18 2.69-4.98 4.47-7.92 6.22-4 2.37-7.8 5.09-11.94 7.83m-82.73-326.77c-.98.32-1.31.33-1.49.5-8.47 7.66-13.5 17.42-17.06 28.07-.36 1.08-.59 2.31.58 3.07 2.07 1.33 3.6 3.65 6.5 3.82 1.05-12.66 5.54-24.04 11.48-35.46zm111.3 343.25c-.37-5.03.56-9.44.88-13.9.33-4.45 1.74-8.86.68-13.46-4.35 7.99-8.19 16.1-14.8 22.65 4.38 1.5 8.15 3.73 13.24 4.71m27.41 61.42c.82-1.04 1.15-1.26 1.16-1.49q.35-17.14 1.97-34.22c.1-1.12-.23-1.84-1.53-1.89-1.66-.05-3.02.1-4.1 1.78-1.62 2.53-2.8 4.94-1.7 8.05.56 1.64.71 3.44.96 5.18 1.07 7.29 2.1 14.58 3.24 22.6m51.1-507.53c2.78-.5 5.57-.97 8.34-1.51 6.36-1.25 12.71-2.02 19.2-.82 2.75.5 5.1 1.87 7.65 2.8 2.1.76 2.3-.96 2.85-2.3.53-1.33.88-2.42-.91-3.07-6.64-2.39-13.68-3.42-20.44-2.42-5.87.86-11.6 3.48-16.7 7.32M278.83 816.38c-4.83 1.16-9.12 2.37-9.39 8.31-.04 1.1-.45 2.2-.8 3.27-1.15 3.57-.45 6.9 1.2 10.59 1.8-1.45 3.42-2.7 4.98-4 .73-.6 1.65-1.14 1.66-2.24.04-5.3 2.2-10.32 2.34-15.94zm396.32-181.9 18.21-16.24c.78-.7 1.5-1.6.2-2.26-.98-.48-2.48-1.52-3.2.41-1.82 4.99-6.71 6.64-10.37 9.62-.68.55-1.64 1.37-2.57.56-1.15-1-.4-1.97.3-2.93a32 32 0 0 1 6-6.23c3.2-2.59 3.17-2.73.5-6.06-.3-.37-.52-.82-.86-1.15-2.05-1.98-3.8-1.49-4.41 1.33-.99 4.55-2.02 9.1-2.73 13.69-.45 2.91-1.42 5.82-1.06 9.26zm-78.13-355.25c1.58.69 2.75-.37 4-.97 2-.95 4.24-1.37 6.02-.17 3.01 2.02 4.91.98 6.8-1.48.77-1 1.84-1.77 2.75-2.67 2.44-2.43-.35-4.01-1.06-5.85-.77-2-2.24-1.11-3.54-.4-3.5 1.96-7.05 3.81-10.94 4.9q-4.7 1.32-4.03 6.64M309.93 469.92l23.45 6.47c.75.2 1.69.66 2.06-.38 1.04-2.9 3.91-4.2 5.51-6.6.75-1.11 1.42-2.37.2-3.47-1.05-.95-2.1-.1-3 .56-2.36 1.68-4.62 3.53-7.08 5.03-3.75 2.29-3.81 2.2-6.01-1.92-.73.22-1.47.51-2.25.66-3.9.75-4.7.03-4.34-3.8q.03-.47.17-.94c.29-.99.48-1.93-.86-2.29-1.19-.3-2.37-1.1-3.4.48-1.28 1.98-2.75 3.85-4.46 6.2zm209.96 106.03c-1.12-.69-1.63-1.06-2.2-1.32-11.58-5.25-23.52-9.64-35.27-14.5-2.11-.87-4.11-.42-6.23-.1 4.62 2.54 9.32 4.54 13.97 6.65 7.2 3.24 14.3 6.66 21.73 9.37 2.38.87 4.78 1.88 8-.1m-144.84-356c-5.31.51-8.76 3.82-11.76 7.63a83 83 0 0 0-9.83 16.03c-.51 1.08-1.6 2.13-.68 3.8 8-8.75 14.8-18.33 22.27-27.47zm199-65.1c-6.32-.14-12.58-.88-18.8.18-2.7.46-3.46 2.21-1.76 4.31 2.15 2.66 5.7 2.86 8.48 4.44.22.12.92-.3 1.2-.64 2.98-3.55 7.34-5.18 10.87-8.28zM508.22 582.9l.3-.91c-11-4-21.59-9.1-32.78-12.75.21 1.07.8 1.68 1.04 2.4 1.32 3.93 4.3 5 8.1 5.57 4.76.7 9.43 2.1 14.11 3.25 3.08.76 6.15 1.63 9.23 2.44m122.6 28.52c6.05 4.23 6.03 4.2 11.22.35 3.6-2.67 7.05-5.57 11-7.78 1.74-.96 3.15-2.37 4.9-4.8l-24.6 10.93c-.73.32-1.41.72-2.53 1.3zm-7.15-94.48c-3.22-.12-5.93 2.66-6.05 6.19-.1 2.85 1.21 5.15 3.02 5.32 2.9.27 7.6-3.91 7.7-6.85.05-2.06-2.48-4.59-4.67-4.67zM184.13 892.2c1.55-3.18 2.82-5.93 4.2-8.62 2.26-4.37 2.29-4.36-1.7-7.4-.22-.16-.54-.2-.88-.31-2.15 1.8-2.87 4.54-4.15 6.9-2.33 4.27-2.26 4.31.75 7.81.4.48.93.85 1.79 1.62zm-21.52 99.77c-1.76 0-2.87-.08-3.96.02-4 .4-6.23 2.21-7.16 6.44-.66 2.96 2.74 2.91 4.03 4.48.59.72 1.5 1.2 2.9 1.21zm10.17-68.43c.6.04 1.07.1 1.54.08 4.2-.28 4.18-.3 4.3-4.4.04-1.6.07-3.22.25-4.8.42-3.96-.76-3.54-4.1-4.36-.98-.24-1.6.13-1.66 1.1-.22 4.1-1.5 8.2-.33 12.38m372.78-377.27c-1.25-.86-2.2-.6-3.1-.22-4.12 1.74-9.22 10.32-8.82 14.73.08.87.33 1.72 1.18 1.89 1.19.23 2.14-.23 2.63-1.52a42 42 0 0 1 4.51-8.52c1.32-1.99 3.12-3.72 3.6-6.36M666.8 425.2c-2.29-16.77-1.64-33.66-1.93-50.51-2.82 16.97-1.82 33.8 1.93 50.5m43.01 358.96 1.5-4.22c.3-.83.2-1.71-.63-2.08-2.92-1.27-5.36-3.46-8.47-4.41-2.01-.62-2.37 1.01-3.17 2.09-.8 1.06-.77 2 .37 2.83 3.2 2.35 6.46 4.54 10.4 5.79M510.3 274.88c5.99-1.42 11.26-3.03 16.74-1.39.62.19 1.25-.26 1.44-.98.24-.88-.23-1.54-.84-2.1-5.3-4.78-13.73-2.97-17.34 4.47m-222.67 215.6c-.64 2.18-.59 3.54 1.46 4.26 8.94 3.16 18.3 4.97 27.1 8.56.52.21 1.01-.09 1.08-.55.05-.4-.16-.95-.46-1.24-.32-.3-.85-.42-1.31-.55-9.51-2.45-18.43-6.49-27.88-10.48zM593 529.86c-2.81 3.04-5.5 6.2-8.46 9.09-3.4 3.31-4.47 4.4 1.62 6.36l.9.33c1.44.6 2.14-.14 2.35-1.44.79-4.74 2.69-9.15 3.58-14.34zM804.3 190.2c-1.68 3.3-2.62 6.22-4.6 8.58-2 2.4-5.28 3.22-7.51 5.76 9.12 1.83 16.53-4.04 12.1-14.34zM523.16 302.7c-2.92 3.34-3.63 7.38-4.37 11.42-.94 5.16-.92 5.2 4.13 5.09.63-.02 1.24-.14 2.16-.25-2.1-5.34-2.12-10.7-1.9-16.25zm-97.92 231.33-6.27-14.3a3 3 0 0 0-.79-1.2c-.96-.8-2.15-.77-3.15-.21-1.23.68-.41 1.63-.02 2.47 1.86 3.92 3.83 7.78 5.52 11.77.92 2.17 2.19 2.53 4.7 1.47zM261.7 826.26c-7.93 1.12-9.89 2.62-9.59 9.22q3.73-.86 7.39-1.68c.84-.19 1.63-.59 1.65-1.47.04-2.03 1.25-3.98.55-6.07m374.82-288.7c.7.08 1.12.25 1.27.12 4.8-4.1 7.33-9.52 8.87-15.5.11-.44.03-.95-.02-1.43-.09-.83-.36-1.61-1.31-1.72-.68-.07-1.2.37-1.57.93-1.14 1.78-1.59 3.82-2.19 5.8-1.23 4.08-3.43 7.77-5.05 11.8M245.1 832c-9.61 2.86-10.4 3.56-11.39 10.16 2.15-.84 4.22-1.61 6.26-2.44 1.76-.71 4.04-1.05 5.1-2.36 1-1.25-.74-3.38.04-5.36m-41.6 30.22 9.1-7.35q2.52-2.03.36-5.46c-3 1.86-5.68 4.1-8.34 6.42-1.99 1.75-2.23 3.64-1.13 6.4zm80.6-441.05q.95-4.5-4.29-5.54l-.43-8.6c-.05-.93-.42-1.5-1.43-1.47-1.12.03-1.97.53-1.95 1.66.02 1.28.43 2.54.52 3.8.34 4.89 1.37 9.25 7.6 10.15zm498-42.92c-1.31 3.94 1.11 6.84 2.65 9.88a85 85 0 0 0 5.55 9.08c1.85 2.75 3.74 5.54 6.48 7.59a164 164 0 0 1-14.68-26.56zM177.17 894.33c-1.37 1.97-1.65 3.91-2.06 5.75-.4 1.76 1.51 3.57 3.85 4.14 2.14.51 1.92-1.3 2.18-2.33 1.59-6.1 3.09-4.9-3.97-7.56M540.53 576.9c-1.55.38-1.47 1.37-1.16 2.3 1.27 3.94 4.28 6.2 7.84 7.85.86.4 1.9.97 2.47-.18.44-.88.05-1.95-.78-2.56-2.56-1.92-4.66-4.31-6.95-6.52-.42-.42-1.03-.65-1.42-.9M307.8 428.85c-2.04-4.58-4.5-6.04-8.98-5.77-1.36.08-2.9 1-3.19-1.45-.13-1.13-1.06-2.3-2.28-1.76-1.25.56-.64 1.98-.36 3.04q.24.94.68 1.79c1.32 2.44 2.19 2.8 4.33 1.05 1.88-1.54 3.52-1.3 5.26-.19 1.36.85 2.6 1.88 4.54 3.29m-87.58 420.43 4.6-2.58q3.53-2.03 1.67-6.14c-2.94 2.15-7.98 2.5-6.26 8.73zm380.44-477c.66-4.14.86-7.23.8-10.36-.04-1.52-.08-3.13-2.22-2.9-1.95.23-2.13 2-1.94 3.35a27 27 0 0 0 3.36 9.93zm-309.92 44.89c1.16.02 4.05-2.62 4.16-3.65.16-1.52-1.58-3.4-3.25-3.53-1.81-.13-4.32 2.35-4.18 4.43.12 2 2.14 2 3.26 2.75zm247.73-137.3c3.94-2.28 5.8-5.62 8.66-7.83.8-.6 1.33-1.5.34-2.43-.79-.74-1.79-1-2.61-.24-2.9 2.68-5.36 5.67-6.4 10.49zM240.18 891.13c-4.4-1.73-8.45-1.05-12.28.93-.66.34-1.54.8-1.1 1.8.39.85 1.33.98 2.1.75 3.77-1.11 7.52-2.32 11.28-3.48m260.18-595.34c.05.28.1.93.3 1.53.6 2.07 2.35 3.42 3.8 2.83 2.08-.86 1.47-2.54 1.03-4.1-.18-.62-.35-1.25-.64-1.81-.62-1.18-1.42-2.36-2.95-1.98-1.59.4-1.54 1.85-1.54 3.53m-305.5 576.73c1.9-2.3 3.4-4.11 4.87-5.92.49-.6.36-1.27-.13-1.7-.77-.67-1.3-2.33-2.51-1.65-1.37.77-3.57 1.46-3.04 3.64.37 1.58.15 3.17.82 5.63zm83.9-513.01q.74-16.25 0-32.46zM396.3 573.55c.84 7.67 2.76 15.18 2.9 22.93.6-7.84.64-15.61-2.9-22.93m234.15-4.72c.1-2.3-.48-2.9-3.26-3.43-1.13-.23-1.87.05-2.3 1.09-.34.78-.44 1.55.46 2.06 1 .57 2 1.2 2.07 2.45.08 1.25.28 2.47 1.76 2.25 1.6-.24.83-1.8 1.06-2.79.1-.46.13-.95.2-1.63m74.52-153.02-4.26-22.53c-.54 7.94 1.56 15.41 4.26 22.53M319.03 227.4c-1.8-.94-3.2-.16-4.62-.23q-2.08-.1-1.99 2.02c.07 1.31.8 2.06 2.05 2.26 2.96.47 3.9-1.41 4.56-4.04zm-14.48 294.5c-1.76-2.85-4.1-5-6.46-7.16-.46-.43-1.02-.87-1.61-.24-.53.55-.41 1.23.03 1.73a24 24 0 0 0 8.04 5.66zm-1.28-296c.08 2.05.1 3.73 2.1 4.1 1.9.34 3.38-.37 4.14-2.7a22 22 0 0 0-6.24-1.4m568.9 127.6c4.12 1.11 4.6.84 6.9-3.57-2.83-.15-4.63 1.5-6.9 3.58m-245.44 3.7-10.09 4.29c4.2.4 7.44-1.39 10.1-4.28M349.1 512.68c-1.45 0-2.66.29-2.8 1.96-.1 1.24.26 2.3 1.73 2.3 1.6.01 2.84-.72 3.12-2.35.27-1.55-.98-1.74-2.06-1.9zm337.16-129.04v-13.42c-.68 4.43-.89 8.85 0 13.42M183.46 931.9c-.69-2.43-.54-4.57-3.17-5.2-.35-.08-1.19.41-1.18.6.13 2.32 1.31 3.78 4.35 4.6m252.22-591.5c.56 2.32 2.14 3.23 3.27 4.47.54.6 1.24 1.12 2 .32.7-.75.39-1.42-.37-1.93-1.4-.96-2.61-2.26-4.9-2.85M728.46 160.4c-2.45-.05-4.3-.75-6.2.07q2.88 3.36 6.2-.07M566.88 536.78c2.63 1.08 3.38 4.14 5.67 5.58-.58-3.16-2.13-5.35-5.67-5.58m82.66-40.95c-1.53 2.25-.9 5.13 2.17 8.7-.97-3.19-.85-6.1-2.17-8.7m30.8 380.53c-.4-3.22 2.06-5.43 2.86-8.2-2.58 2.17-4.1 4.71-2.87 8.2m-345.9-368.33c-.25-.91-.57-1.85-1.73-1.92-1.12-.07-1.8.54-1.9 1.66-.1 1.15.52 1.83 1.64 1.84 1 0 1.89-.3 1.99-1.58m275.78 127.12c2.28-1.23 4.5-2.54 5.99-4.72-2.76.64-4.56 2.46-6 4.72m95.58 205.77a56 56 0 0 0-5.82 4.84zM934.4 340.29c-.54-.96-1.35-1.06-2.06-1.33-.6-.24-1.35-.43-1.61.31-.28.85.13 1.55 1.11 1.71.8.14 1.58.1 2.56-.7zm-111.54 87.77c-.7-1.68-1.46-3.26-3.19-3.87.63 1.7 1.47 3.2 3.2 3.87m116.3-83.39c-.82-.12-1.28-.29-1.71-.23-.77.12-2.34.04-1.24 1.38.84 1.02 1.9.09 2.95-1.15m-540.25 158.2c-.2-1-1.05-1.02-1.8-1.15-.51-.1-.93.14-1 .65-.1.92.73.86 1.27 1.03.6.2 1.2.21 1.52-.54zm23.23 72.96c-.55-1.78-1.06-2.6-2.4-2.64.35 1.1 1 1.81 2.4 2.64m272.9-199.48c1-.49 1.23-1.23.78-2.22-.91.52-.91 1.34-.78 2.22m-269.59 205.9c.57-.87.4-1.49.03-1.97-.27-.34-.4-1.2-1.23-.74.04 1 .51 1.76 1.2 2.7m278.49 134.13c-.13-.27-.3-.77-.37-.76-.88.17-1.27.79-1.23 1.65.02.27.27.77.35.76.93-.13 1.16-.85 1.24-1.65zm-6.23-342.52c.85-1.2.79-2.34-.01-3.54-.9 1.21-.8 2.34 0 3.54"/><path fill="#000" d="M486.44 144.53c-10.87 7.35-21.36 14.15-29.27 23.97 2.15 2.2 5.34.58 7.37 2.57-.75 2.84-3.13 4.1-5.18 5.5-8.43 5.73-15.7 12.8-23.24 19.56-7.26 6.51-14.48 13.1-21.75 19.6a21 21 0 0 1-3.54 2.45c-.65.36-1.57.6-2.25 0-.72-.65-.4-1.46-.08-2.22 1.67-4.14 3.15-8.37 5.03-12.42a433 433 0 0 1 8.56-17.27c1.65-3.17 1.53-3.84-2-4.26-3.03-.36-6.11-.21-9.15-.45-2.46-.2-3.16-1.52-1.8-3.55 6.12-9.04 12.55-17.85 19.89-25.96 4.62-5.1 9.47-10 14.23-14.99 3.54-3.72 4.5-3.69 9.32-2.1 6.23 2.05 12.63 3.61 18.95 5.39l14.91 4.2zM452.99 785.7c-1.15 2.45-2.67 4.8-3.36 7.37-1.1 4.02-4.31 6.8-5.6 10.67-.38 1.14-1.56 1.58-2.8 1.42-1.08-.14-2.14-.35-3.3-.22 3.52 2.53 7.34 4.33 11.21 6.07.87.39 1.8.68 2.62 1.15.85.48 1.68 1.15 1.07 2.3-.45.84-1.26.8-2.1.7-1.8-.23-3.41-.86-5.06-1.59-8.97-4-17.78-8.38-27.05-11.71-10.78-3.87-21.87-6.66-32.9-9.69-1.97-.54-4.1-.83-5.17-2.8.36-1.27 1.32-1.1 2.01-1.22 1.63-.29 2.1-1.1 1.78-2.71a28 28 0 0 1-.25-8.68c.2-1.85.62-3.65 3.2-3.14 1.24.25 2.17-.28 3.1-1 8.71-6.9 18.92-7.7 29.39-6.86 8.92.7 17.26 3.16 25.07 7.95 5.53 3.4 11 6.62 15.04 11.83 3.71 4.77 3.86 5.8.86 11.2l-5.42 9.71c-.4.7-.75 1.45-1.27 2.07-.8.96-1.68 2.39-3.07 1.7-1.3-.64-.36-2-.13-3.04 1.02-4.8 3.08-9.2 5.97-13.1 1.43-1.93 1.62-3.34-.1-4.92-1.16-1.07-1.81-2.68-3.74-3.42zm-60 4.23c.34-4.65 1.85-6.51 6.09-7.49 3.54-.82 7.02-.36 10.5.64a6.7 6.7 0 0 1 4.78 4.28c.68 1.71 1.53 3.35.35 5-1.4 1.97-3.36 1.16-5.29.83-1.82-.3-3.62-1.56-6-.56l23.07 7.75c.58-7.78 3.78-9.79 10.55-6.91 2.17.92 4.2 2.18 6.69 3.48a63 63 0 0 1 3.95-11.5c1.89-3.9 1.28-5.6-2.77-7.07-2.57-.94-5.2-1.7-7.81-2.5-4.8-1.47-6.9-.58-9.35 3.97-.77 1.4-1.33 2.95-2.23 4.26-.64.94-1.78 1.5-2.96.92-.95-.47-1.28-1.5-1.2-2.47.1-1.11.51-2.2.75-3.28.47-2.15 2.35-3.8 2.35-6.17-7.5-1.57-14.92-1.51-22.34-1.23-3.2.13-6.4.78-9.37 2.13-1.33.6-2.53 1.23-2.86 2.96-.7 3.77-1.62 7.5-2.47 11.27 1.78 1.27 3.75 1.12 5.58 1.68zm4.56-3.09c3.44 1.91 6.63 1.72 9.44 2.77 2.85 1.08 3.37-.57 3.5-3.07-4.05-.16-8.02-2.33-12.94.3m34.32 10.12-.32 1.09q4.53 2.64 9.1 5.24c.77.44 1.51.52 1.88-.57.3-.9.91-2.1-.3-2.51-3.42-1.19-6.6-3.24-10.36-3.25m199.47 216.36c-.96.93-1.76.94-2.56.94-6.3.01-12.59-.03-18.88.05-1.89.02-3.24-.53-3.47-2.46-.39-3.21-2.15-3.06-4.41-2.02-.3.13-.64.17-.92.3-8.26 3.76-16.93 4.6-25.92 4.23-8.05-.34-16.13-.04-24.2-.09-1.53 0-3.13.38-5.47-.82l17-5.43q26.7-8.52 53.41-17c1.84-.58 3.65-1.22 5.65-1.2 2.61.02 4.34 1.04 4.97 3.63 1.64 6.7 3.24 13.41 4.8 19.88zM331.8 861.49c.52 2.99-.99 5.38-2.15 7.78-5.09 10.52-12.12 19.76-19.1 29.03-7.09 9.4-14.58 18.48-21.38 28.08-2.47 3.49-4.17 6.93-3.97 11.5.26 5.83-2 11.38-3.51 16.95-5.18 19.14-12.67 37.53-18.08 56.6-.28.98-.16 2.41-1.63 2.67-1.1.19-2.3.47-3.26-.26-.92-.72-.38-1.83-.2-2.7 3.83-18.1 7.98-36.13 13.4-53.85 2.86-9.4 6.36-18.55 10.17-27.6 1.83-4.36 4.66-8.09 7.48-11.81 9.74-12.84 19.6-25.58 29.27-38.48 3.57-4.76 6.7-9.85 10.1-14.76.77-1.13 1.06-2.73 2.87-3.16zm265.8 67.67c1.23 2.72 2.76 4.57 4.17 6.51 1.6 2.19 3.38 4.27 3.75 7.18.25 2.02 1.9 3.3 3.32 4.61a139 139 0 0 1 14.83 15.86c1.2 1.51 2.54 2.94 3.2 4.79.4 1.07.72 2.26-.46 3.05-.94.62-1.81.11-2.65-.46a88 88 0 0 1-11.1-9.28c-15.85-15.36-31.57-30.83-47.3-46.29a25 25 0 0 1-3.34-4.1c-.63-.96-.6-2.26.24-3.16 1.15-1.22 2.02.03 2.89.6 2.43 1.56 4.76 3.31 7.29 4.7 2.44 1.36 4.74 2.8 8 2.43 2.15-.25 4.55 1.3 6.78 2.19 4.18 1.66 8.06 4.07 12.47 5.14 1.76.42 3.03 1.27 3.06 3.14.03 2-1.7 2-3.06 2.36-.62.16-1.2.41-2.08.72m5.53 15.1c-.02-2.16-1.43-3.13-2.34-4.38-1.61-2.2-3.27-4.37-4.76-6.65-.76-1.18-1.75-2.47-1.1-4.02 1-2.37-.62-3.23-2.24-4.02a35 35 0 0 1-8.4-5.54c-2.91-2.64-2.99-2.55-6.03-.38zm-84.71-14.17c-.84 21.62-3.61 43.05-6.84 64.43-.77 5.1-1.64 10.2-2.5 15.29a49 49 0 0 1-.7 3.32c-.18.7-.7 1.08-1.42.99-1-.12-1.18-.71-1.07-1.7.62-5.12 1.11-10.24 1.71-15.36a665 665 0 0 0 2.8-31.77c1.1-16.26 1.1-32.56 1.81-48.83.1-2.12.31-4.19 1.42-6.06.55-.9 1.33-1.4 2.4-1.3 1 .1 1.33 1.02 1.46 1.72.42 2.21.82 4.45.9 6.7.12 4.19.03 8.38.03 12.58zm80.56-117.22c-.68 1.75-1.86 1.12-2.93.98-16.95-2.24-33.71-5.53-50.5-8.7-12.98-2.46-25.92-5.1-38.52-9.18-2.9-.95-5.72-2.15-8.54-3.34-1.02-.42-2.05-.96-2.65-2-.75-1.34-.02-2.65 1.53-2.55 1.11.08 2.22.37 3.32.63 31.58 7.84 63.14 15.82 94.94 22.8 1.22.27 2.45.45 3.34 1.36zM346.85 913.34c2.07 1.86.99 4.01.43 5.88-1.3 4.3-2.77 8.6-4.47 12.77-10.65 26.3-21.74 52.42-31.86 78.93q-.23.69-.51 1.36c-.44 1.07-.92 2.31-2.38 1.73-1.7-.68-.5-2.01-.2-2.85q9.72-27.6 19.63-55.13c4.48-12.43 8.98-24.87 14.72-36.8 1.1-2.29 2.02-4.78 4.64-5.9zm102.7-159.2c-28.04-2.51-54.8 1.38-81.45 6.45-1.89.37-3.8.75-5.7.93-.98.09-1.95-.41-2.1-1.58-.1-.94.6-1.45 1.35-1.78 4.46-1.95 9.2-2.87 13.94-3.82a187 187 0 0 1 26.83-3.27c2.4-.13 3.42-.73 3.32-3.38-.35-9.67-.49-19.36-.7-29.04-.09-3.83.2-7.62.97-12.13 2.09 2.26 2.11 4.45 2.25 6.55.61 9.2.4 18.39.16 27.58-.08 3.05-1.31 6.8.39 8.95 1.84 2.31 5.76.8 8.74.82 9.04.05 18.04.53 26.98 1.93 1.6.24 3.15.46 5 1.78zm337.18-309.26c2.94 4.5 4.97 8.71 9.08 11.6 2.01-3.88 2.03-8.04 3.92-11.9 2.33 1.2 3.44 2.97 3.28 5.6-.16 2.58-.15 5.15-.39 7.71-.24 2.66.9 4.16 3.34 5.12 2.53 1 4.96 2.3 7.42 3.47a2.9 2.9 0 0 1 1.65 3.19c-.3 1.54-1.85 1.57-3.15 1.33-9.09-1.69-17.17-5.12-23.16-12.61-3.15-3.95-2.72-8.17-1.99-13.5zM393.9 683.13c-1.19 1.74-2.83 2.4-4.29 3.24-9.2 5.3-18.82 9.82-28.29 14.64-7.02 3.57-14.01 7.2-21.03 10.8-.85.45-1.7.93-2.6 1.29-.46.18-.94-.08-1.12-.58-.09-.25-.06-.68.1-.84.79-.8 1.6-1.59 2.48-2.28 9.12-7.23 19.24-12.87 29.5-18.26a174 174 0 0 1 16.66-7.65c2.68-1.07 5.4-1.75 8.58-.36zm252.88 330.46c-5.75 1.25-5.82 1.28-7.5-3.69-3.16-9.26-6.75-18.39-9.24-27.88-.56-2.13-1-4.06 1.35-5.46 1.33-.79 2.4-.82 3.24.61q.49.83.9 1.71c5.07 11.14 8.38 22.84 11.25 34.71m-8.45-188.73c2.66.59 5.34 1.05 7.95 1.8 2.26.64 2.74 2.62 2.55 4.64-.26 2.88-.7 5.74-1.17 8.6-1.98 12.06-2.85 24.24-3.87 36.41-.3 3.68-1.05 7.3-.91 11.04a5.4 5.4 0 0 1-1.39 3.72c-1.53-.5-1.34-1.62-1.2-2.5 1.18-7.2.52-14.46.79-21.68.46-12.38.53-24.78 4.35-36.73.59-1.83-.49-2.26-1.62-2.87-1.74-.95-4.18-.42-5.38-2.53zm-269.9-56.77a26 26 0 0 1-8.03 5.74c-14.04 6.82-28.39 12.98-42.2 20.25-2.85 1.5-5.64 3.1-8.5 4.6-1.35.7-2.6 1.73-5.26 2.02 4.88-3.97 9.41-6.63 13.87-9.34 12.8-7.76 25.48-15.76 39.5-21.25 3.11-1.22 6.27-2.48 10.61-2.02m29.22-97.51c-.93 2.08-2.87 2.55-4.63 3.2-8.04 2.93-16.34 5-24.55 7.33a36183 36183 0 0 1-52.55 14.86c-.44.13-.96.3-1.34-.15 12.83-6.49 76.73-25.97 83.06-25.23zm58.32 9c-4.4 1.96-8.99 2.62-13.54 3.38-9.54 1.57-19.09 3.04-28.79 3.14-1.8.02-3.55-.1-5.1-1.13-2.72-1.83-2.95-3.74-.6-6.8-2.28-.38-4.43-.7-6.55-1.15a1.9 1.9 0 0 1-1.53-1.68c-.08-.96.67-1.36 1.46-1.68l3.94-1.62c.94 1.94-1.33 2-1.5 3.4.05.05.26.29.5.33 1.57.34 3.19.53 4.73.96 2.01.56 2.77 1.65.98 3.39-.7.67-1.49 1.35-.74 2.44.87 1.27 2.14 1.2 3.47.99q7.4-1.24 14.79-2.41c6.36-1.01 12.75-1.91 19.1-3.01 3.3-.57 6.35 0 9.4 1.44zm140.22 195.64c1.27 1.34 2.87 2.35 4.64 2.2 1.89-.14 2.94 1 4.3 1.77 1.44.8 1.63 1.59.65 3.02-.94 1.38-.37 3.14-.43 4.72-.19 5.4-.62 5.75-6 4.37-1.09-.27-2.12-.73-3.18-1.07-.6-.19-1.28-.46-1.63.35-.27.65-.6 1.98-1.19.43a26 26 0 0 0-8.59-11.38c-1.16-.9-.72-2.4-.96-3.62-.28-1.54.03-3.21-1.68-4.21-.52-.32-.85-1.03-.32-1.64.5-.57 1.2-.44 1.77-.18 2.78 1.27 5.5 2.64 8.3 3.86 1.44.63 2.72 1.77 4.47 1.52l-.17-.14zm-10.13-.51-.57.88c5.34 1.88 8.97 5 8.72 11.07-.02.62.66 1.02 1.39 1.08 1.52.13 3.06.64 4.57.12 0-1.92-.07-3.52.01-5.12.08-1.46-.42-2.41-1.84-2.98-4.1-1.65-8.18-3.37-12.28-5.06zM382.57 657.15c-7.68-.74-14.9-2.17-22.11-3.63-13.11-2.65-26.12-5.7-38.52-10.87-2.86-1.2-6-2.1-8.18-4.78 2.11-1.49 3.73-.34 5.28.2 13.64 4.88 27.37 9.52 41.42 13.08 6.08 1.55 12.2 2.93 18.32 4.34 1.25.28 2.54.35 3.78 1.67zm108.29 325.81c-12.84-12.37-26.13-24.32-35.27-40.2 2.12-1.13 3.41-.75 4.53.78 8.3 11.53 18.59 21.39 27.32 32.54 1.58 2.02 3.06 4.1 3.43 6.88zm-78.5-323.8c-24.5-8.77-50.11-13.52-74.82-21.41 8.4-1.72 62.58 13.78 74.81 21.42M376.3 883c2.82-2.75 6.53-4.04 9.88-5.9 1.27-.7 2.49-.7 3.6.21 9.57 7.78 20.92 12.74 31.05 19.63a126 126 0 0 1 24.97 22.01q.77.91 1.43 1.92c.13.2.1.54.2 1.2-5.09-4.9-9.69-9.83-14.9-14.11-10.92-8.96-23.31-15.57-35.36-22.76-2.2-1.33-4.82-2.3-6.5-4.13-2.94-3.17-5.51-2.01-8.48-.4-1.81.97-3.4 2.51-5.62 2.65zm254.96 50.86c-6.38-.55-12.15-1-17.93-1.55a24 24 0 0 1-4.28-.82c-1.28-.35-2.6-1.07-2.38-2.6.2-1.39 1.75-1.17 2.8-1.36 3.07-.54 6.12.1 9.15.32 7.4.51 14.75 1.47 22.05 2.78 1.16.21 2.36.29 2.24 1.86-.14 1.69-1.5 1.34-2.57 1.35-3.23.03-6.45 0-9.1 0zm-31.41-93.2a6.9 6.9 0 0 1-5.88-2.44c-1.15-1.34-3.52-2.14-3.83-3.23-.62-2.14-.83-4.74.33-7.02.2-.4.64-.9 1.02-.95 2.5-.33 5.08-1 7.53-.68a9.7 9.7 0 0 1 6.43 3.97c1.6 2.2 2.4 4.65 1.15 7.25-1.3 2.73-3.92 3.06-6.75 3.1m-2.03-11.45c-2.1.08-3.55 1.44-3.39 3.23.2 2.37 2.06 4.35 3.89 4.18 1.93-.17 3.6-2.1 3.42-3.95a3.7 3.7 0 0 0-3.92-3.46m-219.37-15.48c-3.67 2.33-4.98 5.09-6.28 7.87-1.56 3.36-2.9 6.85-4.84 9.98-2.32 3.76-2.44 7.5-1.24 11.52l4.78 16.17c.26.9.93 1.73.49 2.8-.53.54-.84-.09-.96-.36-2.63-5.7-5.31-11.35-6.96-17.45-1.19-4.35-1.19-8.34.8-12.6a291 291 0 0 1 7.1-14.25c1.25-2.34 2.82-4.3 7.1-3.68"/><path fill="#000" d="M376.57 883.32c-4.69 4.2-10.34 7-15.37 10.71-10.9 8.04-21.55 16.33-31.22 25.83-.45.43-1 .77-1.54 1.18-1.02-1.54.33-2.12 1-2.84 9.55-10.4 20.74-18.8 32.4-26.6 4.66-3.12 9.13-6.59 14.46-8.6zm277.71 103.42c-4.36-8.33-4.75-34.2-.61-40.46 1.8 1.1 1.14 2.88.98 4.25-1.2 9.6-.76 19.24-.93 28.87-.04 2.4.9 4.7.57 7.33zM394.4 132.42c-15 10.7-29.23 22.42-43.43 34.2 12.27-14.19 27.89-24.13 43.43-34.2M602.2 921.3c9.16-.55 18.33-1.04 27.48-1.68 5.32-.37 10.62-.65 15.95-.52 1.1.03 2.24.14 3.31.38.32.07.71.72.72 1.1 0 .38-.36.87-.7 1.12-.37.26-.9.39-1.37.39l-45.41.02zm-67.46-139.7c.93-.57 1.84-.08 2.69.26 6.1 2.44 11.95 5.4 17.75 8.48.56.3 1.07.7 1.6 1.06.73.5 1.18 1.22.8 2.03-.29.63-1.08.6-1.7.4-7.51-2.36-14.76-5.26-20.78-10.55-.35-.3-.71-.68-.36-1.68m-19.29 57.36c14.44 3.67 27.8 10.04 42.4 15.49-5.67.16-37.36-11.43-42.4-15.5M563.58 203c-1.05 9.1.75 17.99 2.3 26.86.87 4.97-1.24 8.2-6.06 8.92-4.55.68-4.58.92-3.72 5.2.3 1.44.64 2.8.14 4.6-2.08-2.53-1.47-5.54-2.11-8.15-.29-1.16.66-2.45 2.11-2.88.63-.18 1.23-.45 1.86-.52 8.47-.96 6.6-2.98 5.7-8.85a267 267 0 0 1-2.01-16.77c-.26-2.89-.56-5.96 1.9-8.32zm-53.06 557.74c-10.05-8.3-14.5-19.7-17.04-32.1 2.42 3.21 3.23 7.2 4.93 10.75 1.73 3.63 3.39 7.3 5.26 10.87 1.96 3.71 4.86 6.79 6.85 10.5zm53.16-557.65c-.4-2.55 1.5-2.87 3.23-3.08 3.6-.45 6.68.9 9.14 3.44 2.13 2.19 3.97 4.65 6 6.94q2.68 3.1 5.56 6.04c2.4 2.43 5.19 4.23 8.8 4.38-3.33 1.46-6.1.26-8.52-1.87a45 45 0 0 1-7.75-8.58c-1.82-2.7-4.03-5-6.72-6.85-3.17-2.17-6.42-2.85-9.84-.51l.12.1zm31.93 646.26c2.88 0 5.43 2.1 5.36 4.43-.05 2.03-2.1 3.74-4.36 3.64-2.47-.11-5.15-2.7-5.12-4.94.04-1.9 1.66-3.13 4.1-3.13zM302.4 679.7c-3.11-11.8-1.24-23.69-.08-35.59 1.3 11.82-.52 23.66.08 35.59m-42.76 215.48c-.35-1-.6-1.34-.54-1.6 1.68-6.6 5.18-12.36 8.54-18.16.4-.68 1.2-1.18 2.01-.6.57.4.52 1.13.38 1.77a5 5 0 0 1-.45 1.37c-3 5.65-5.93 11.32-9.94 17.22m236.05 105.11c-2.09-5.2-2.07-9.45-1.9-13.71q.05-1.74 1.77-1.76c1.2 0 1.74.88 1.77 1.85.1 4.22.66 8.5-1.63 13.63zm-192.54-50.93c4.9-5.8 9.4-11.92 15.16-16.88-.2 3.9-3.77 7.86-15.16 16.88m238.16 4c.06-2.92.93-4.2 2.83-4.2 2.21.04 4.07 2.45 3.99 5.19-.07 2.2-1.66 4.1-3.37 4-1.98-.1-3.5-2.3-3.45-5zm3.58-.91c-1.18.2-2.4.61-2.48 2.18-.05 1.1.85 1.78 1.78 1.9 1.77.23 1.91-1.3 2.22-2.5.29-1.1-.63-1.23-1.52-1.6zm186.8 30.59.11-.1a6.2 6.2 0 0 1-.38-4.7c2.33-6.9 6.26-12.87 10.56-18.65-.26 2.96-2.16 5.14-3.43 7.6-2.63 5.14-6.02 9.94-6.85 15.85zM369.87 900.2a64 64 0 0 1 11.5-8.7c.71-.41 1.57-.54 2.15.24.68.88-.03 1.53-.63 1.96-3.95 2.88-8.12 5.35-13.03 6.5zm145.48-87.54c3.43 5.57 2.43 11.91 3.17 17.96l-.93.17-3.52-17.83zm37.36 136.4c1.36-1.58 2.81-2.85 4.64-.7 1.65 1.94 1.38 3.85-.55 5.47-1.77 1.5-2.96 1.42-4.5-.4-1.42-1.68-2.13-3.34.57-4.52.16 1.67.56 3.17 2.4 3.82q.2-2.52-2.56-3.66zm-14.28 6.96c0 2.5-1.4 4.46-3.28 4.55-1.95.1-3.49-1.86-3.43-4.34.07-2.58 1.45-4.45 3.33-4.52 2.02-.07 3.38 1.65 3.4 4.32zm-3.22 3.29c1.2-.35 1.9-1.27 1.85-2.42-.06-1.44-1.06-2.34-2.52-2.12-1.26.18-1.78 1.37-1.64 2.49.16 1.15 1.08 1.85 2.3 2.05m103.23-134.56c-2.3.93-4.4-.25-6.56-.64a163 163 0 0 1-15.82-3.56c7.58.58 15.05 1.71 22.26 4.32l.1-.1zm96.67 188.85c-1.43.84-2 .24-2.4-.44a231 231 0 0 1-4.24-7.46c-.36-.66-.82-1.59 0-2.15 1.06-.74 1.77.21 2.28.96 1.9 2.77 3.02 5.91 4.36 9.1zM631.5 835.67c.12-2.02 1.09-2.73 2.85-2.72 2.26.01 2.69 1.53 2.54 3.23-.14 1.56-.47 3.56-2.66 3.25-2.04-.29-2.67-2.07-2.72-3.76zm3.7-.14c-.21-.69-.2-1.62-1.35-1.36-.68.15-1.12.76-1.1 1.32.04.8.61 1.38 1.52 1.35.87-.03.84-.7.92-1.3zm-161.67-584.9c-.46 6.98-2.33 13.8-2.35 20.83 0 .74-.53 1.1-1.08 1.45h-.01c.7-6.12 1.44-12.24 2.13-18.37.16-1.4.02-2.87 1.41-3.79zM573.97 930.3c-3.96-2.51-5.8-6.79-8.85-10.08 4.6 1.98 6.9 5.88 8.85 10.08m22.38-54.93c-.5-3.4-2.5-6.58-1.6-10.14 1.52-.47 1.84.6 2.16 1.45.94 2.43.75 5.04 1 7.57.09.85-.75 1.32-1.7.98zm78.35 136.8c-2.18-3.12-4.7-6.12-3.62-10.41 2.67 2.94 2.63 6.86 3.62 10.41m10.28-70.85c3.83 2.9 8.1 5.34 10.98 9.36-4.2-2.47-8.1-5.29-10.98-9.36m-214.86-668.4v15.94c-.28-5.31-.6-10.62 0-15.93zm-15.48-3.44c-1.66 1.5 1.17 3.33.04 4.3-2 1.71-1.4 4.06-2.23 6.5-.9-3.65.4-6.63.81-9.68.11-.8 1-.68 1.46-1.07zm-38.29-149.94a16 16 0 0 1 8.48-3.75c-.98 1.8-2.78 1.67-4.15 2.26-1.4.6-2.88 1-4.33 1.49m38.37 149.98c-1.16-4.4-.53-7.46 2-9.62h-.03c-1.7 2.96-1.74 6.28-2.08 9.55zm-68.28 430.1c-1.05 1.98-2.8 2.73-5.64 3.52 2-2.2 3.49-3.37 5.64-3.52m64.13-401.52v-4.11h.04v4.3zm-54.07 23.74c-.15-3.06 2.51-3.19 4.33-4.2-.87 1.99-3.46 2.18-4.32 4.17zm208.1-101.87-4.32-.76q2.3-.5 4.32.76M456.87 864.78c-.22 1.61-.68 3.05-2.53 3.5-.56-2.3.5-3.27 2.64-3.4z"/><path fill="#000" d="M391.02 324.09c1.32-1.96 2.9-3.32 5.47-2.27v-.02c-2.21-.2-3.25 2.61-5.55 2.18zm-1.36 293.57c.55-1.24 1.67-1.05 2.34-1.61-.17 1.07-.76 1.64-2.34 1.61m67.32 247.21c-.3-2 1.19-2.85 2.54-3.78-.42 1.55-.95 3.03-2.65 3.7zm-.28-605c-.42-1.87-1.96-3.8.29-5.53l-.1-.09zm-13.23 8.6-.99.84c-.02-.12-.07-.25-.03-.34.17-.4.3-.87.87-.87.04 0 .08.2.15.36zm18.91-33.51c-.1-.24-.35-.56-.28-.73.24-.6.78-.9 1.41-.9.45 0 .45.23.23.6-.33.54-.66 1-1.36 1.02zm11.27 15.79a5.6 5.6 0 0 1 .21-3.69c.48 1.4.44 2.5-.32 3.56z"/><path fill="#000" d="M456.99 254.35c-.4-.6-.11-1.22.02-1.82.08-.43.15-1.1.78-.86.61.23.98.83.5 1.5-.35.49-.63 1.14-1.41 1.09zm-7.01-147.2c-.18.62-.53 1.18-1.2 1.21-.48.03-.69-.52-.64-.95.08-.62.36-1.2 1.13-1.15.47.03.8.33.7.9m341.9 229.4a42 42 0 0 1-8.77-6.21 83 83 0 0 1-20.43-27.9 38 38 0 0 0-2.77-5.09c-1.4-2.11-3.38-2.95-5.86-1.95a142 142 0 0 0-6.2 2.68c-4.03 1.86-5 1.67-6.61-2.39-2.68-6.73-5.14-13.55-7.63-20.36-2.88-7.86-5.76-15.72-8.5-23.63-.74-2.13-2.14-4.28-.78-7.82 9.1 16.37 13.62 33.7 20.75 49.96 3.01-1.29 5.6-2.63 8.34-3.5 5.38-1.73 8.07-.53 10.78 4.37.47.84.96 1.68 1.35 2.56a116 116 0 0 0 25.34 36.24c.72.71 2.03 1.3 1 3.07zm37.36-47.46c5.17 3.75 11.22 5.2 17.17 6.8 8.4 2.24 16.9 3.66 25.67 2.68 3.87-.42 5.35 1.83 3.78 5.45-1.3 3-3.73 5.24-5.9 7.62-1.07 1.19-1.84 1.9-.18 3.44 1.55 1.44.58 3.25-.53 4.79-2.46 3.4-5.3 6.52-7.27 10.24-.85 1.58-2.68 3-1.21 5.2.23.35 0 .94-.56 1.12-.69.23-1.34.08-1.63-.57a8.5 8.5 0 0 1 .05-7.02c1.32-3.17 3.36-5.85 5.52-8.47.83-1 .95-1.43-.24-2.55-2.66-2.5-2.56-3.5-.26-6.48.85-1.1 1.3-1.5-.47-2.17-.87-.33.56-.59.86-.92.64-.68 1.71-1.11 1.45-2.28-.35-1.52-1.66-1.22-2.75-1.28-8.3-.42-16.21-2.53-23.85-5.7-2.85-1.18-5.57-2.58-7.75-4.8-1.38-1.41-2.7-2.84-1.89-5.1zm-119.56 31.03c-2.98-.7-4.4-2.94-5.94-4.95-5.8-7.6-10.01-16.15-13.9-24.78-3.87-8.63-7.76-17.3-10.46-26.43-.46-1.57-.9-3.12-.56-4.73.08-.4.48-.82.85-1.03a1.2 1.2 0 0 1 1.68.47 51 51 0 0 1 2.04 4.88c5.37 14.47 11.08 28.81 17.99 42.63 2.04 4.08 3.55 8.57 7.55 11.4.56.4 1.03 1.23.73 2.55zm108.09-79.02c3.07-2.41 4.65-4.86 6.45-7.09 3.48-4.28 5.32-4.42 8.77-.39 1.84 2.17 3.04 4.41 6.93 3.7 2.36-.44 3.98 2.72 5.14 5.83-5.8-2.73-12.03-3.3-15.21-9.3a73 73 0 0 0-10.84 11.5c-.8 1.1-1.4 2.72-3.33 2.14-2.03-.6-2-2.28-1.98-3.91 0-5.97-.72-11.85-1.77-17.7-.14-.8-.26-1.67.73-2.03.7-.25 1.19.31 1.64.72 1.38 1.25 1.82 2.94 2.33 4.66 1.06 3.56.77 7.26 1.13 11.85zm19.93 26.08c-1.92 2.24-3.1 3.79-4.46 5.16a13 13 0 0 1-6.7 3.68c-1.19.25-2.86.75-3.47-.7-.6-1.45.77-2.23 1.96-2.81l.44-.22a31 31 0 0 0 10.39-7.71c2.43-2.77 3.82-2.5 5.05 1.02 1.66 4.71 3.82 8.88 8.66 11.06 3.34 1.5 6.89 1.56 10.43 1.62 1.6.03 3.21-.4 5.3.52-5.65 2.43-10.96 4.2-16.79 2.57-6.47-1.8-8.44-7.4-10.81-14.19m-157.8 59.25c-3.09.72-5.94 1.2-7.68-2.17-.97-1.89-3.04-1.7-4.72-1.91-9.6-1.28-15.06-7.27-18.26-15.86a9.5 9.5 0 0 1-.52-4.75c.12-.86.6-1.54 1.45-1.75.94-.22 1.46.41 1.81 1.2.87 1.9 1.69 3.83 2.65 5.68 3.48 6.8 8.4 11.76 16.38 12.85 2.54.34 4.66 1.21 5.32 4.07.4 1.72 1.89 2.34 3.58 2.64zm50.91-10.57c-4.53-13.78-12.12-26.15-18.69-39-1.08-2.13-2.1-4.28-1.7-6.9 9.93 13.89 17.36 28.87 20.4 45.89zm40.46-68.13c.85-1.83 2.78-1.5 4.47-1.59 5.91-.29 11.46 1.4 16.87 3.48a48.5 48.5 0 0 1 21.77 16.13c-12.58-10.43-26.86-16.58-43.11-18.02m-18.58 6.2c1.63.75 2.2 2.27 3.03 3.56 1.15 1.8 2.44 3.33 4.58 4.07a10 10 0 0 1 4.65 3.37c6.2 8.05 12.8 15.75 20.58 22.36.56.47 1.25.95 1.25 1.83a64 64 0 0 1-19.64-17.24c-2.61-3.44-5.33-6.75-9.03-9.3-2.88-1.98-3.96-5.55-5.43-8.65zm-62.2 78.3c-3.2-1.91-3.36-5.88-7.45-6.54q4.11-.56 7.44 6.55m57.82-87.82 3.22 6.1c-2.2-1.39-2.85-3.63-3.22-6.1m-10.4 199.05c-3.39.69-6.56 2.12-9.8 3.36-1.45.56-3.12 1.33-4.24-.64-1.14-1.99-.66-4.06 1.38-5.45 2.3-1.56 4.96-2.31 7.57-3.12 6.6-2.06 13.3-3.8 20.07-5.13 3.3-.65 6.1-1.96 7.55-5.27.87-1.98 3.05-2.63 4.48-4.07 1.07-1.09 3.18.4 2.68 1.95-.68 2.13-1.06 3.76 1.07 5.42.83.65-.35 1.75-1.22 2.14-2.19 1-4.35 1.95-6.02 3.8-.66.74-1.6.45-2.63.14-2.3-.7-4.3.75-6.37 1.56-1.1.44-.99 1.5-1.11 2.46-.58 4.62-1.1 9.25-1.82 13.86-.5 3.18-1.3 6.3-3.45 8.87-3.07 3.66-6.1 3.34-8.06-.94-2.48-5.4-2.45-10.9-.46-16.44.25-.7.84-1.37.37-2.5zm34.42 24.85c-.52-1.06-.87-2.08.07-3.44.76 1.3.8 2.32-.07 3.44M571.8 760.17c.51-3.8.02-7.63.97-11.33 0 5.65.08 11.27.44 16.9.05.8 0 1.68-.92 2.02-.91.33-1.55-.23-2.04-.9-1.47-1.96-2.25-4.25-2.97-6.56-3.22-10.34-3.35-20.97-2.58-31.6.81-11.25 2.08-22.45 4.47-33.5 2.88-13.26 6.2-26.36 12.88-38.33a53 53 0 0 1 11.45-14.26c2.44-2.11 2.76-1.95 5.62 1.18-2.95-.36-4.48 1.2-5.96 3.1-4.1 5.28-6.94 11.26-9.29 17.43a230 230 0 0 0-13.82 59.56c-.74 7.56-1 15.1-.9 22.68.05 4.67.49 9.29 2.65 13.6zm-57.55-45c2.02-15.69 4.61-30.6 8.79-45.17 4.9-17.07 11.2-33.66 18.07-50.02a46 46 0 0 1 2.64-5.15c.61-1.05 1.63-1.69 2.85-1.02 1.28.7 1.75 1.86 1.12 3.28-.4.9-.9 1.73-1.23 2.64-7.49 20.43-15.56 40.66-21.09 61.76a218 218 0 0 0-6.21 34.19c-.28 2.86-1.1 6.02 1.5 8.58.44.44.9 1.95 0 2.61-1.06.77-2.16.17-3.05-.63a6.7 6.7 0 0 1-2.3-3.61c-.5-2.68-.8-5.4-1.1-7.45zm-31.71-41.71c-.84-.88-1-2-.97-3.13.32-15.53 3.73-30.26 11.24-43.97a360 360 0 0 0 7.7-15.07c1.32-2.7 2.75-5.43 2.84-8.83-2.5.73-3.1 2.91-4.4 4.41-1.93-1.26-1.01-2.85-.4-4.28.78-1.82 2-3.37 3.98-3.98 1.56-.49 2.34.58 2.95 1.81 1.6 3.26 1.25 6.62.38 9.92-1.36 5.16-3.52 10.04-5.79 14.84a171 171 0 0 0-11.3 31.82c-1.25 5.01-3.07 9.83-4.8 14.68-.28.77-.57 1.48-1.42 1.78zm112.35 62.76c.18-10.83 1.88-21.33 6.47-31.2 6.13-13.18 13.84-25.42 22.54-37.03 1.54-2.06 3.13-4.38 6.34-4.95.32 2.34-1 3.67-1.88 5.1-6.41 10.6-13.1 21.03-18.93 31.96a171 171 0 0 0-14.54 36.11zm-144.92-84.28c9.74-18.1 11.74-37.65 11.85-57.95-2.59.97-2.2 4.06-4.59 5.15.2-3.53 1.68-6.47 2.91-9.47.37-.9 1.2-1.74 2.18-1.73 1.3 0 1.9 1.12 2.2 2.25.38 1.4.85 2.83.86 4.24.26 16.21-.72 32.25-7.52 47.34-1.77 3.92-3.43 8.02-7.89 10.16zm-32.21-3.37c1.92-3.55 8.37-8.14 13.06-9.59-.09 3.94-4.26 7.1-13.06 9.6m197.8 12.5c-3.16-1.66-6.13-3.48-8.44-6.15-.44-.52-.6-1.12-.1-1.73.53-.68 1.13-.4 1.69-.07 3.06 1.92 4.9 4.99 6.86 7.94M482.2 678.12a19.5 19.5 0 0 1 1.44 10.26c-1.68-3.22-3.02-6.5-1.44-10.26m71.1-55.98c3.42 1.87 7.11 3.34 10.25 5.9-3.82-1.1-7.45-2.63-10.63-5.12-.3-.24-.12-.6.38-.78M608.48 722c.64.1 1.3.22 1.37 1.02.11 1.1-2.02 4.09-2.86 3.93-.85-.15-1.45-.8-1.39-1.66.14-1.76 1.04-2.97 2.88-3.29m-13.76 58.35c-1.26.13-1.58-.63-1.74-1.41s-.2-1.73.73-1.98c1.23-.33 1.65.64 1.8 1.61.12.8 0 1.59-.8 1.78zm-75.17-167.67a5.6 5.6 0 0 1-3.75-1.35c1.44-.62 2.33.26 3.75 1.35m-85.33 34.56c-.22.69-.81.87-1.4.97-.21.04-.67-.2-.7-.36-.14-.8.49-1 1.07-1.13.43-.1.86 0 1.03.51zm12.11 9.5c-.03.58-.49.71-.92.88s-.97.4-1.16-.23c-.18-.58.37-.77.83-.91s.92-.23 1.25.25m2.45-134.4a25 25 0 0 1 8.71 1.58c3.49 1.2 6.9 2.6 10.5 3.48 4.31 1.06 6.22 4.36 7 8.36.5 2.55-.63 4.73-2.65 6.34-3.6 2.86-7.71 3.42-11.82 1.64-5.78-2.5-10.9-6.17-15.82-10.07l-.34-.33c-2.08-2.21-3.65-4.71-2.31-7.8 1.29-2.97 4.08-3.3 6.73-3.2m-3.3 6.12c3.65 3.17 7.23 4.86 10.88 6.83.52-1.56.91-2.9 1.42-4.19.47-1.19-.04-1.98-1.06-2.22-3.37-.8-6.73-2.1-11.24-.42m20.18 9.8c1.37-.04 3.64.15 4.71-2.15.52-1.1-2.5-3.4-4.94-3.87q-.47-.11-.95-.13c-1.74 0-4.54 2.43-4.24 3.9.4 1.95 2.04 2.25 3.74 2.25zM385.33 438.2c-.3 3.92-1.9 7.78-5.65 10.6a8.3 8.3 0 0 1-4.91 1.74c-6.37.13-13.87-7.02-14.18-13.44-.38-7.76 9.46-14.23 16.35-10.75 6.03 3.05 8.3 6.1 8.4 11.85zm-15.3-8.05c-4.36-.25-7.3 3.5-5.77 7.57 1.77 4.7 5.33 7.45 10.16 8.7 2.73.7 4.81-.59 6.38-2.41 1.53-1.77 1.79-4 .63-6.3q-3.56-7.08-11.4-7.56m1.75-11.78c-5.19-1.56-9.43.28-13.48 3.23.92-3.73 4.21-4.85 7-6.32a7.6 7.6 0 0 1 7.41.24c.98.54 1.9 1.29 1.88 2.6-.04 1.48-1.1 1.81-2.28 1.96-4.35.56-8.13 2.5-11.7 5 2.28-4.8 6.5-6.07 11.18-6.72zm-16.35-4.12c.9-6.51 5.14-8.44 11.37-5.07-5.02-.53-8.9.3-11.37 5.07m-2.58-7.99c1.39-3.5 2.58-4.27 4.68-3.24.48.23 1.27.55.95 1.39-.23.61-.76 1.18-1.39.58-1.99-1.86-2.43 1.04-4.24 1.27m5.3-35.48c-.06 1.22-.47 1.92-1.41 1.8-1.43-.2-1.5-1.34-1.46-2.5.03-.91.57-1.75 1.3-1.56 1.13.28 1.59 1.4 1.57 2.27zm-38.56-45.53c-.4-2.39.8-3.94 1.09-5.66.67 1.9 1.4 3.8-1.1 5.66m28.71 27.95c-.19.79-.55 1.48-1.53 1.38-.5-.05-.84-.5-.83-1 .02-.97.63-1.4 1.55-1.3.47.05.96.22.8.93zm95.18 71.82c-.2-24.12 6.9-44.24 18.5-62.94 4.96-8 12.47-12.3 21.7-12.66 20.6-.8 39.22 4.45 54.54 19.1 4.87 4.66 10 9.08 14.83 13.75 6.13 5.92 11.45 12.69 16.94 19.25 4.87 5.83 9.13 12.1 11.9 19.26.24.58.36 1.55.75 1.69 3.91 1.32 1.64 3.26.56 5.05-.4.7-1.08 1.28-1.32 2.02-.86 2.53-1.47 4.8.44 7.48 4.58 6.45 8.32 13.43 11.71 20.58 1.54 3.23 3.78 6.43 1.77 10.4-.34.67 0 1.92.14 2.77 1.72 9.78-1.3 18.84-3.95 27.98-1.41 4.88-4.79 7.83-9.36 9.7-7.47 3.08-15.18 3.68-23.21 3.27-22.21-1.17-43.29-6.48-63.12-16.54-9.2-4.66-18.34-9.4-26.72-15.56-15.24-11.19-23.2-26.33-25.49-44.84-.48-3.85-.68-7.7-.64-9.74zm60.06-47.03c-2.18-2-2.24-2-2.2-4.7.04-3.4.36-6.78.25-10.16-.15-4.25-1.9-6.18-6.04-6.88a46 46 0 0 0-6.74-.6c-14.47-.3-17.67.38-25 15.58-5.75 11.92-10.08 24.41-11.19 37.8-.88 10.84-.6 21.56 2.32 32.1 4.27 15.42 14.05 26.6 27.2 35.12 24.74 15.97 51.92 25.5 80.79 30.7 6.18 1.11 11.78-.1 17.45-2.06 3.13-1.08 4.9-3.04 5.89-6.36 2.94-9.8 4.8-19.68 4.3-29.98-.1-2.15-.27-4.1-1.24-6.03-4-7.92-8.07-15.8-11.88-23.8-1.12-2.35-2.2-2.26-4.03-1.1-1.62 1.05-3.38 1.87-5.05 2.84-3.72 2.16-3.78 2.22-7.18-.44-12.94-10.15-22.94-23.05-33.33-35.59-.66-.79-.94-1.64-.07-2.56 4.87-5.12 8.87-11 14.32-15.58 2.6-2.2 2.59-2.37-.14-4.64q-6.9-5.69-13.86-11.3c-6.6-5.3-13.82-9.44-22.02-11.78-1.2-.34-2.37-.97-4.21-.12 3.7 6.14-1.29 13.06 1.66 19.55zm48.06 9.09c-3.72 3.84-7.28 7.5-10.82 11.19-1.87 1.95-4.67 3.73-5.01 6.23-.33 2.46 2.8 4.05 4.32 6.08 6.39 8.5 13.75 16.13 20.93 23.96 1.7 1.85 3.12 2.25 5.3.73a121 121 0 0 1 10.19-6.35c2.63-1.48 3.65-3.62 2.34-6.16a86 86 0 0 0-3.32-5.86c-6.75-10.83-15.72-19.88-23.93-29.83zm49.53-215.05a14.7 14.7 0 0 1-10.45 2.67 30 30 0 0 1-11.88-4.58 3.4 3.4 0 0 1-1.44-2.4c-.21-1.34.21-2.36 1.8-1.87 4.12 1.27 8.37 2.29 12.26 4.07 3.13 1.43 6.05 2.88 9.7 2.11m158.1-21.45c3.46-.56 6.61.91 9.85 1.41 3.36.5 6.66 1.58 9.22-1.83.33-.44 1.13-.58 1.74-.72.83-.19 1.73-.02 2.07.78.22.5.05 1.3-.2 1.83-.86 1.83-4.63 3.95-6.58 3.2-4.72-1.82-9.8-1.8-14.55-3.4-.58-.2-1.28-.28-1.55-1.27m-14-18.4c.21-2.22 1.87-2.28 3.5-2.23 1.68.06 2.1 1.24 1.88 2.66s-1.21 2.24-2.59 2.42c-1.44.18-2.95.19-3.77-1.35-.57-1.08.62-1.2 1.11-1.7.6 2.57 2.14 1.59 3.54.89.2-.1.4-.61.31-.78-.85-1.57-2.1-.74-3.22-.44-.29.07-.52.34-.78.52zm-48.71 11.6c-1.32-.01-2.7-.32-2.74-1.86-.03-1.53 1.45-1.88 2.68-2.1s2.3.4 2.38 1.65c.09 1.4-.73 2.35-2.32 2.32M303.87 405.3c.07 2.5-2.46 4.31-4.54 2.84-3.53-2.5-7.32-2.94-11.4-2.7-1.1.06-2.37.1-2.95-1.1-.66-1.35.08-2.57.98-3.45 1.35-1.32 2.8-2.87 5-1.77 1.45.7 2.83.14 4.25.12 2.88-.04 5.34.9 7.26 3.08a4.7 4.7 0 0 1 1.4 2.97zm4.03 12.73a3.5 3.5 0 0 1-3.24-3.47c.08-1.92 1.87-4.1 3.38-4.11 1.58-.02 3.22 1.86 3.16 3.6-.08 2.3-1.55 4.07-3.3 3.99zm38.48-207.98c-.68 2.71-.36 5.36-1.58 7.75-.89 1.75-1.79 1.96-3.3.67-3.43-2.92-3.4-11.24.16-13.9a2.1 2.1 0 0 1 3.28.75c.62 1.55 2 3.03 1.44 4.73m259.23 92.7c2.98-.18 5.92.5 8.59 2.19 6.38 4.02 7.43 11.35 1.72 16.24-6.32 5.42-13.87 7.24-22.1 4.73-.9-.28-1.77-.77-2.59-1.27-5.89-3.62-6.73-8.79-2.32-14.13 3.32-4.01 11.33-7.77 16.69-7.76zm-5.4 16c1.03-.26 2.15-.46 3.2-.86a3.9 3.9 0 0 0 2.68-3.68c.04-1.7-1.44-2.39-2.67-3.12-1.6-.96-3.55-.24-5.17-.83-2.69-.97-3.48.85-4.23 2.61-.78 1.84-.28 3.4 1.54 4.53 1.43.9 3.02 1.03 4.67 1.36zm5.54-11.21c4.65 8.39 4.6 9.2-.94 15.32 5.1-.09 8.42-2.84 8.87-7.36.36-3.72-2.52-6.8-7.93-7.95zM386.85 547.5c-.12 2.75-2.14 4.97-4.37 4.72-1.46-.17-2.28-1.02-2.23-2.56a4.34 4.34 0 0 1 4.46-4.03c1.19.05 2.22.35 2.14 1.86zm5.9 2.33c-.73-.03-1.53-.01-1.58-.82-.07-1.27 1.02-.94 1.73-.99.64-.04 1.44.08 1.48.84.07 1.28-1.1.74-1.63.96zm423.44-373.06c-8.02-.12-18-7.51-20.4-15.03-.35-1.12-.82-2.22.25-3.1 1.36-1.13 2.45-.07 3.38.75a18 18 0 0 1 2.54 2.9c3.33 4.62 7.96 7.43 13.1 9.56.74.3 1.54.5 2.25.86a2.6 2.6 0 0 1 1.36 3.24c-.36 1.16-1.63.7-2.5.81zM458.53 323.82c2.39.01 4.8 2.24 4.82 4.44.02 2.18-1.46 3.67-3.58 3.6a4.9 4.9 0 0 1-4.63-5.1c.02-2.16.91-2.95 3.4-2.93zm-10.95 10.82c-2.4.06-3.34-1.41-4.23-2.95-.98-1.66-1.06-3.3 0-4.93.5-.76 1.26-1.15 2.01-.63 1.8 1.26 3.89 2.3 4.64 4.6.71 2.16-.53 3.9-2.42 3.9zm-.7-4.49c-.15-.48-.46-.96-.95-.82-.24.07-.4.75-.4 1.16s.05 1.05.77.78c.48-.18.64-.61.6-1.11zm29.3-4.9q.08 2.7-2.62 2.71c-2.46.03-4.8-2.11-4.85-4.42-.05-2.45 1.4-2.28 3.23-2.1 3.04.28 4.3 1.22 4.24 3.8zm126.38 251.83c2.68 1.78 4.57 2.94 6.36 4.24 1.49 1.1 1.6 2.23-.11 3.39-1.54 1.02-3.58 1.3-4.35 3.52-.38 1.08-1.93.7-3.08.53-3.23-.5-6.12-1.96-9.03-3.3a339 339 0 0 1-13.8-6.88c-2.39-1.23-4.44-2.52-7.54-1.77-3 .73-4.56-1.58-3.39-4.53 2.04-5.15 5.56-9.43 9.24-13.44 2.24-2.45 5.09-2.01 6.72.79.9 1.55 1.97 1.7 3.46 1.93 8.46 1.23 16.6 3.71 24.57 6.77 2.1.8 2.98 1.71 1.62 3.86-1.2 1.9-2.2 3.93-3.45 5.8-.54.8-1.46 1.3-2.17-.1-.96-1.88-2.45-1.63-5.04-.8zm-25.34-11.75c1.65-1.25 2.79-2.1 3.9-2.97.53-.41.9-.92.21-1.5-.53-.46-1.26-.57-1.7-.07a9 9 0 0 0-2.41 4.54m-4.85 8.93q2.2-2.54 2.54-5.97c-.81 1.86-2.7 3.27-2.54 5.97"/><path fill="#000" d="M474.34 441.25c1.8-.01 2.42.85 1.52 2.36-1.8 3.06-4.87 5.07-6.82 8.06-.62.96-1.82.5-2.14-.7-.88-3.34 4-9.7 7.43-9.72zm77.74 32.28c-4.73 3.54-8.77 2.62-11.12-2.55-1.6-3.5-1.16-6.53 1.48-9.7.96 1.1-.21 2-.28 2.95a13 13 0 0 0 .26 4.76c1.5 5.25 4.22 6.44 9.21 4.1zm-79.33-17.64a13 13 0 0 1 5.09-9.4c.6-.47 1.47-.78 2.14.04.44.56.37 1.26.05 1.82a21 21 0 0 1-7.28 7.55zm11.96 8.03c-.9 0-1.43-.44-1.37-1.42.13-2.7 2.58-5.3 5.08-5.4.83-.04 1.61.15 2.1.87.55.84.07 1.51-.52 2.08-1.57 1.52-2.73 3.6-5.3 3.87m-7.64-3.43c1.02-3.98 2.33-6.72 4.85-8.82.89-.75 1.95-1.42 2.9-.3.67.8.25 1.82-.46 2.56-2.04 2.14-4.06 4.33-7.3 6.56"/><path fill="#000" d="M551.63 473.07c1.96-4.12 2.42-7.99-2.18-11.07 4.83.24 7.28 3.5 5.79 7.5-.6 1.63-1.33 3.3-3.16 4.03zm-19.74-97.4c-2.5 2.24-4.6 3.2-6.8 1.09-1.71-1.66-3.18-1.89-5.01-.35-.49.41-1.3.49-1.72-.13-.67-.97.13-1.26.86-1.67 1.37-.8 2.98-2.42 4.26-1 2.24 2.47 4.97 2.19 8.41 2.05m32.18 109.85q-.44-5.18-4.27-5.04c2.24-1.74 4.47-2.78 6.07-.88 1.92 2.26-.33 4.2-1.8 5.93m-29.58-8.95c2.35.45 4.27.87 3.78 3.55-.15.83-.88 1.46-1.7 1.3-2.63-.5-2.43-2.4-2.08-4.85m4.32-4.37c1.04 1.15.27 2.85 1.48 3.92q-2.92-1.1-1.48-3.92m-26.66-98.02c1.42-2.06 2.73-2.16 4.71-1.25zm46.82 32.87c2.4-.03 5.43 2.85 5.4 5.11-.03 1.75-2.7 3.83-4.9 3.8-2.65-.03-5.3-2.31-5.3-4.58 0-2.43 2.07-4.3 4.8-4.33m-13.05-5.68c0-2.56 1.43-4.43 3.43-4.46 3.13-.03 5.45 1.98 5.56 4.83s-2.02 5.24-4.59 5.12c-2.36-.1-4.4-2.65-4.4-5.5m18.67 18.94c.02-3.07 1.01-4.46 3.17-4.38 1.68.07 2.76.9 2.81 2.6.06 2.35-2.4 5.4-4.13 5.13-1.9-.3-1.85-1.89-1.84-3.35z"/></svg>