<svg xmlns="http://www.w3.org/2000/svg" width="1080" height="1080" fill="none" viewBox="0 0 1080 1080"><path fill="#fff" d="M476.1 559.28c-4.95-2.5-9.89-4.16-13.72-7.23-2.36-1.9-3.5-5.79-4.3-9.01-.89-3.5-.76-7.27-1.05-10.71-7.38-2.08-14.98-3.76-22.22-6.41-5.16-1.9-10.19-4.85-11.73-10.89-.92-3.6-.98-7.06 2.08-10.18 5.52-5.6 10.75-11.4 13.94-18.89 2.9-6.8 8.47-11.8 13.46-17.14.75-.8 1.34-1.75 2.07-2.57 4.13-4.64 8.4-9.15 12.37-13.92 3.75-4.51 7.1-9.35 10.8-13.92 2.04-2.53 4.51-4.69 6.62-7.16 5.68-6.7 12.17-12.17 20.76-14.77.68-.2 1.45-1.16 1.6-1.9.9-4.09 3.5-7.1 6.83-9.08 1.37-.81 4.45-.36 5.78.72 4.06 3.29 8.19 3.94 13.28 3.1 5.93-.98 11.88-.57 16.17 4.88.7.89 2.21 1.54 3.38 1.58 4.52.18 9.04.08 14.6.08-1.88-1.52-3.5-2.75-5.03-4.08a35.5 35.5 0 0 1-10.42-14.45c-1.51-3.95-4.05-6.48-8.83-5.54-2.18.42-4.45.44-6.69.58-3.66.22-6.06-2.77-6.1-7.69-.04-5.87-.1-11.75.04-17.63.07-2.39-.8-3.9-2.52-5.52-6.82-6.4-14.52-11.96-19.66-20-4.93-7.7-10.24-15.2-14.67-23.18-5.1-9.18-7.2-19.11-4.03-29.54 1.98-6.53 6.32-11.4 11.58-15.5 7.05-5.52 14.84-9.58 23.58-11.66 4.32-1.02 8.78-1.57 12.95-3 8.04-2.78 14.3-8.48 20.97-13.53 11.5-8.72 23.22-17.3 37.42-21.23 7.22-1.99 14.6-1.9 22.11-1.23a72 72 0 0 1 24.49 6.46c5.8 2.74 11.37 6.09 16.75 9.62a57.5 57.5 0 0 1 17.94 19.1c4.8 8.15 7.62 17.08 9.04 26.42.95 6.32 2.08 12.64 2.37 19 .52 11.67-2.63 22.33-10.87 30.98-2.85 3-4.17 6.43-4.5 10.36-.6 7.52-1.14 15.04 1.77 22.28.45 1.1.85 2.22 1.32 3.31.73 1.7 2.61 3.16.75 5.32-.23.26.58 1.6 1.1 2.31a273 273 0 0 0 7.76 10.17c1 1.23 2.44 2.1 3.65 3.17 2.3 2.05 4.56 4.13 7.22 6.54 5.04-2.22 11.3-1.04 16.7.73 5.29 1.74 9.9 5.93 14.4 9.55 3.79 3.04 7.12 6.68 10.39 10.29 11.3 12.5 21.51 25.74 27.5 41.73 2.13 5.7 3.71 11.61 5.89 17.3a103 103 0 0 0 5.32 11.18c4.73 8.9 7.69 18.45 10.42 28.1 3.2 11.27 6.95 22.4 9.75 33.76 1.83 7.42 2.5 15.14 3.53 22.75.93 6.91 1.94 13.83 2.33 20.8.33 5.8-.2 11.66-.33 17.5a356 356 0 0 0-.1 7.24c-.02 8.06.2 16.14-.07 24.2-.42 11.95-1.1 23.9-1.86 35.83-.4 6.4-1.2 12.77-1.8 19.16-.83 8.8-.87 17.76-2.7 26.34-2.27 10.73-6.19 21.1-9.05 31.7-1.6 5.93-2.27 12.1-3.79 18.05-1.5 5.85-2.82 11.91-5.5 17.23-3.1 6.15-8.36 10.71-14.98 13.33-.37.15-.8.19-1.2.18q-13.28-.08-26.55-.24c-2.55-.03-5.1-.4-7.64-.34-6.5.15-12.51-1.87-18.6-3.73-5.36-1.64-10.88-2.8-16.2-4.55-6.17-2.06-12.17-4.67-18.33-6.8-8.43-2.92-16.95-5.56-25.4-8.42-8.41-2.84-16.7-6.06-25.21-8.6-5.83-1.74-11.9-2.76-17.92-3.78-8.48-1.43-17.04-2.4-25.5-3.87-7.93-1.39-15.78-3.23-23.67-4.8-6.86-1.37-12.64-5.02-18.36-8.68-9.1-5.83-17.99-11.97-27.01-17.9-9.5-6.26-18.94-12.6-28.57-18.61-11.17-7-22.24-14.24-33.88-20.35-12.6-6.6-25.78-12.09-38.76-17.97-12.27-5.57-24.7-10.79-36.86-16.57-9.07-4.31-13.47-11.9-13.18-22.02.07-2.41-.66-5.74.62-7.04 3-3.07 6.71-5.82 10.65-7.54 9.2-4.02 19.16-3.48 28.92-3.16 5.55.18 11.1 1.17 16.58 2.17 2.37.43 3.34-.05 3.91-2.32.47-1.85 1.02-3.89 2.18-5.3 1.4-1.72 3.54-2.82 5.3-4.26 12.11-9.92 22.95-21.11 33.08-33.02 4.14-4.86 8.46-9.55 12.68-14.34 1-1.13 1.89-2.34 2.67-3.32zm139.44-147.42c-.69-1.8-1.37-2.99-1.58-4.25-.63-3.77-2.73-5.93-4.97-4.56a62 62 0 0 0-9.77 7.02 35.4 35.4 0 0 1-18.73 9.1c-2 .33-3.84 1.84-5.6 3.04-.26.18.03 1.85.53 2.34.87.86 2.63 1.07 3.1 2 2.19 4.28 3.98 8.75 6.06 13.07 1.4 2.88 3 5.67 4.63 8.4.48.8 1.34 1.62 2.2 1.86.47.14 1.62-.73 1.87-1.37 1.02-2.6 1.76-5.3 2.69-7.95 2.07-5.88 3.16-12.37 9.67-15.49.28-.13.32-.7.54-1.03 1.64-2.5 3.2-5.06 5-7.44 1.43-1.86 3.2-3.49 4.35-4.74zM535.68 883.6l-8.26-.53-.83 1.82c4.06.95 6.7 3.54 8.3 7.06.38.83-.18 2.57-.9 3.36-4.71 5.14-9.63 10.08-14.39 15.18-1.5 1.61-2.51 3.75-4.17 5.16a10.6 10.6 0 0 1-5 2.2c-4.11.65-8.3.8-12.43 1.34-9.43 1.23-18.83 2.65-28.27 3.83-4.45.56-8.96.64-13.42 1.1-7.06.75-14.1 1.68-21.16 2.44q-7.28.78-14.58 1.25c-5.03.32-10.08.67-15.1.57-5.85-.13-11.68-.76-17.51-1.12-1.33-.09-2.66.04-3.99 0-8.56-.18-17.15-.03-25.39-3.1-2.02-.75-2.99-1.77-3.51-3.89-.24-.98-2.08-2.17-3.18-2.17-1.62 0-3.33.8-4.83 1.6-1.67.9-3.08 1.3-5.11.86-2.57-.56-5.34-.1-8.01-.15-8.52-.17-17.03-.41-24.63-5.02-2.02-1.23-4.38-2.35-2.52-5.41.1-.16.2-.46.11-.59-2.73-4.52.8-7.47 2.9-10.54 4.5-6.54 10.68-10.7 18.29-13.29 6.2-2.1 11.96-5.46 18-8.06 2.48-1.06 4.91-3.13 8-1.06.66.44 2.2-.07 3.16-.52 2.68-1.27 5.13-3.3 7.92-3.96 3.58-.85 7.4-.9 11.11-.8 1.82.04 3.35 1.14 5.23-.59.87-.8 3.13-.2 4.74-.03.87.1 1.69.67 2.56.92 1.93.57 3.9 2.37 5.88.27a6 6 0 0 0 .99-7.05c-2.85-5.92-5.27-12.2-9.02-17.5-9.27-13.14-19.18-25.83-28.88-38.67-8.28-10.97-17.02-21.61-24.8-32.92-4.73-6.87-7.88-14.8-12-22.1-2.17-3.85-3.95-7.84-4.44-12.15-.37-3.27-1.67-6.95 1.4-9.9 1.43-1.36 2.94-2.22 4.92-1.3q5.44 2.46 10.82 5.01c2.88 1.39 5.7 2.9 8.93 4.54l-.69-7.34 1.37-.33c.95 1.7 2.15 3.3 2.8 5.1 1.35 3.65 4.21 5.31 7.52 6.81 14.17 6.42 28.42 12.7 42.35 19.62 11.33 5.63 22.31 11.95 33.3 18.25a196 196 0 0 1 31.33 22.15c5.48 4.76 11.01 9.53 15.97 14.82 8.16 8.7 15.78 17.89 23.8 26.72 6.85 7.52 13.96 14.78 20.9 22.2 2.84 3.07 4.94 6.49 4.97 10.95 0 .72 1.43 1.77 2.39 2.08 2.34.75 4.8 1.15 7.2 1.69l-.13 1.2zm-141.22-86.88-.72-.24.42.8.77.9q1.41 1.4 2.8 2.83c11.88 12.37 24.2 24.2 38.32 34.07 16.25 11.38 31.43 24.36 49.38 33.18 7.26 3.57 14.8 6.56 22.22 9.81q.22-.41.4-.83c-.87-.62-1.7-1.33-2.64-1.87-11.66-6.75-23.99-12.59-34.87-20.42-19.1-13.73-37.26-28.74-55.9-43.11-6.26-4.84-12.76-9.37-19.15-14.04zm101.87 68.59q.24.21.46.43l.08-.28-.6-.06c-.41-.77-.72-1.62-1.26-2.28-2.82-3.47-5.71-6.88-8.57-10.33-5.15-6.22-9.97-12.73-15.5-18.59a443 443 0 0 0-22.84-22.32c-11.67-10.69-24.52-19.9-38.03-28.1-10.58-6.42-21.51-12.27-32.38-18.21-5.29-2.89-10.78-5.39-16.19-8.06l-1.15-.4.55.84c2.88 2.72 5.72 5.47 8.66 8.12 8.26 7.49 16.31 15.24 24.9 22.31 13.56 11.15 27.53 21.8 41.24 32.75 9 7.18 17.55 14.93 26.85 21.67 10.95 7.94 22.5 15.04 33.78 22.52zm7.7 36.89.2.6c6.38-1.98 12.76-3.94 19.69-6.1-5.35-3.1-9.6-3.41-13.64.82-1.77 1.86-4.16 3.14-6.26 4.68M392.56 795.8c.17.11.35.34.5.31s.3-.28.44-.43c-.16-.08-.34-.25-.5-.22s-.3.21-.44.34"/><path fill="#000" d="m793.95 523.87 1.25 5.39 1.86 8.61c.5 4.3.9 8.6 1.5 12.88.9 6.25 1.9 12.5 2.91 18.74.53 3.31 1.16 6.6 1.74 9.91l.82 4.92c.38 4.32.7 8.64 1.17 12.95.52 4.72 1.3 9.4 1.75 14.12.77 8.09 1.37 16.2 2.03 24.3v5.57c.17 5.53.73 11.08.4 16.58-.75 11.95-1.91 23.87-2.98 35.8a374 374 0 0 1-1.88 17.62 583 583 0 0 1-3.81 24.28 581 581 0 0 1-4.87 23.4c-1.2 5.39-2.71 10.72-4.06 16.08-.14.57-.08 1.2-.11 1.79l-.9 4.88c-1.16 1.78-2.38 3.53-3.45 5.36-1.35 2.28-2.58 4.63-3.86 6.95q-1.26 2.22-2.5 4.45l-1.85 3.1-1.91 3.17h5.58c-.67 2.8-3.1 1.43-4.7 1.94-4.67 1.5-9.32 3.15-14.09 4.24-8.05 1.84-16.2 3.25-24.3 4.96-.76.16-1.6 1.04-1.99 1.8a199 199 0 0 1-20.48 32.77c-8.26 10.6-17.13 20.65-27.85 28.87-5.52 4.23-11.12 8.34-16.68 12.5l-5.55 3.16-6.81 3.71-12.16 5.55h9.09l5.57.08 2.52-.45 1.77.03c1.66 1.6 3.35 1.48 5.05.06l3.66-.3 8.05-.04c1.77.24 3.53.51 5.3.71 1.88.22 3.26.89 3.17 3.1-1.13.62-2.2 1.6-3.4 1.78-4.15.61-8.33.95-12.5 1.4l-4.95.61c-4.75.45-9.5.86-14.25 1.35-2.7.28-5.39.86-8.1.99-10.7.53-21.41.94-32.12 1.4h-3.71c-4.33.37-8.67.83-13.01 1.12-7.11.47-14.24.84-21.35 1.25l-1.55.1-6.18-.61-3.1-.01-10.52-1.23-4.33-.62-8.05-1.26c-7.34-1.86-14.74-3.52-22.01-5.64-20.83-6.06-40.38-15.12-58.91-26.33-2.87-1.73-4.93-4.8-7.4-7.2-1.23-1.22-2.54-2.36-3.81-3.54-9.54-8.38-19.05-16.81-28.63-25.15-12.03-10.47-24.4-20.57-36.11-31.37a286 286 0 0 1-37.6-42.2c-3.24-4.46-6.65-8.8-9.98-13.19l-1.03-1.43-4.28-6.49-.94.64 4.58 6.5 1.08 1.37c.9 1.45 1.72 2.95 2.68 4.34 9.57 13.83 19.15 27.69 30.97 39.75a849 849 0 0 0 25.12 24.6q13.82 12.94 28.04 25.4c8.25 7.24 16.75 14.19 25.37 21.47l-4.94 1.4q-2.47.66-4.95 1.28l-4.96 1.04-4.32.72-3-.01-1.43.85-2.4.2-3.74.58-1.82.06-4.32.57-2.54.23c-5.75 2.86-11.61 5.49-17.2 8.62a844 844 0 0 0-28.27 16.62c-2.64 1.61-4.75 4.09-7.64 6.64l3.03.24c.48 2.16 1.86 3.15 4.04 3.06l2.77-.1 2.45.2 4.36.42 13 .7 4.33.53 28.47-.6 4.34-.54 26-2.52 5.56-.61c5.58-.41 11.19-.69 16.76-1.25a522 522 0 0 0 35.31-4.93c2.37-.44 4.97-1.73 6.58.75 2.01 3.09 1.26 4.93-2.32 8.05l-3.14 1.67-2.44.81-1.28.42-13.61 3.1-5.53.82-13 1.85-4.33.58-8.05.67-4.33.61-19.36 1.65c-2.63.22-5.26.51-7.9.68-3.85.26-7.72.45-11.58.67-3.65.2-7.31.71-10.95.56-11.48-.47-22.95-1.15-34.42-1.86-2.68-.16-5.34-.7-8.01-1.08l-5.57-1.24c-2.56-1.73-5.08-3.53-7.7-5.16-.97-.6-2.22-1.29-3.24-1.16-6.73.84-13.4 2.25-20.13 2.76-7.9.6-16 2.7-23.68-.95-3.4-1.61-6.71-3.64-8.45-7.32l.05-8.73c-.06-5.12 2.45-9.1 5.67-12.77l6.14-4.45a163 163 0 0 1 52.48-16.36l.62-9.7 1.27-6.2c2-1.37.71-2.83-.22-3.8-2.85-2.98-5.91-5.75-8.89-8.61l-3.12-2.64-8.02-8.5-3.78-5-.61-.63-1.26-1.84c-.22-.87-.22-1.92-.72-2.59a760 760 0 0 0-10.17-13.35c-7.78-10.02-15.55-20.05-23.4-30.02-1-1.27-2.41-2.22-3.63-3.32l-1.08-.84-.6-.59c-.2-.97-.16-2.1-.65-2.9a983 983 0 0 0-12.08-19.07c-.5-.78-1.59-1.19-2.4-1.77l-.1-.11c-.13-1.38 0-2.84-.44-4.1q-3.9-11.27-7.99-22.46c-.87-2.4-1.87-4.77-2.8-7.15l-.84-3.67-.68-4.95v-4.33c-1.27-2.68-.03-5.37 0-8.05l.07-2.48.55-4.95q1.66-5.68 3.27-11.36c.27-.93.44-1.89.66-2.83l4.74-11.18 6.37-11.54 2.45-3.3c4.11-3.83 7.94-8.05 12.44-11.36 2.76-2.03 6.53-2.67 9.85-3.93l4.25-.92 17.95-1.24h5.57l3.1.03q2.16.3 4.33.58l9.14 1.41 12.63 3.48 3.36-8.19.12-.76-.56.38c-1.2.7-2.37 1.5-3.64 2.07-3.42 1.55-6.62 3.99-10.76 2.8-1.95-1.16-.66-2.42-.03-3.53 3.33-5.83 8.44-9.63 14.41-12.4.45-.2.88-.46 1.33-.69l4.95-1.28c3.67.03 7.36-.12 11.01.15 5.42.41 10.82 1.12 16.22 1.7l3.03.3 8.72 2.72c-1.2 2.6-2.22 5.37-3.7 7.87-.7 1.19-2.28 1.86-3.46 2.77l-.96-.63-.76-8.49h-7.2l-3 6.08-4.44 17.33 24.7 11.22 1.15.45-.55-.86-1.22-2.75-1.75-5.64c.4-7.65.67-15.3 1.24-22.95.6-8.05 3.36-15.46 8.88-21.34 12.35-13.14 25.04-25.98 37.59-38.95.63-.65 1.2-1.36 1.8-2.04l4.67-4.3-3.43-.17-10.48-6.28-3.1-4.2c-.51-2.64-1.14-5.27-1.51-7.93-.2-1.42.06-2.9.1-4.35.87-2.84 1.35-5.87 2.66-8.49 5.18-10.32 10.28-20.65 12.5-32.13.34-1.78.8-3.45 3.06-4.2 1.05-.35 1.75-2.08 2.37-3.3.5-.99.62-2.16.91-3.25l-4.1-.9c.37-1.72.72-3.76 1.27-5.75 1.46-5.29 1.5-5.2 6.55-5.22 2.43-.01 4.89-.72 7.28-.5 7.01.63 14.08 1.2 20.97 2.56 3.6.7 7.54 2.32 10.1 4.79 3.04 2.92 5.84 6.79 4.64 11.8-.56 2.36-.32 5.18-1.55 7.05-1.7 2.55-4.32 4.56-6.79 6.5-5.19 4.04-11.65 3.63-17.5 3.48-7.42-.19-14.8-2.1-22.18-3.25l-7.05 18.08c1.16.28 2.43.72 3.73.88 3.9.47 7.85.7 11.71 1.36.9.16 2.4 2.11 2.22 2.42-1.58 2.73-2.98 5.96-5.4 7.71-4.21 3.05-9.13 5.16-14.22 7.92 14.65 9.87 29.76 11.64 45.96 2.75-.92 1.83-1.84 3.58-3.28 4.64-7.98 5.83-16.7 9.59-26.87 9.18-.84-.03-1.98.64-2.56 1.34-2.75 3.33-5.23 6.9-8.05 10.19-9.92 11.55-20.04 22.93-29.88 34.56-3.18 3.76-6.27 7.8-8.4 12.2-4.22 8.7-6.2 18.07-5.15 27.8.46 4.3 1.44 8.64 4.65 12.42.5-13.36 4.12-17.75 9.3-17.09l-4.43 19.1.91.92c2.25-.89 4.86-1.32 6.66-2.77 2.83-2.28 6.49-3.5 7.92-7.83.72-2.18 4.74-3.26 7.24-4.88 1.27-.82 2.87-1.5 3.62-2.68 3.62-5.65 7.01-11.45 10.48-17.19l11.71-19.45q.88-1.43 1.79-2.85l1.03.45-2.48 6.93c2.38 3.37 5.82 3.35 9.28 3.38a36 36 0 0 1 5.44.5c1.64.27 3.24.8 4.83 1.2l-5.1 5.95 6.82.64-.67-.62c5.4-5.8 10.22-12.38 16.38-17.2 6.93-5.43 15.05-9.37 22.76-13.76 1.7-.97 3.88-1.1 5.84-1.61l.64 1.32c-1.51 1.48-2.86 3.2-4.55 4.42-7.53 5.41-15.6 10.16-22.66 16.12-11.27 9.5-19.2 21.53-23.03 35.93-1.15 4.3-1.68 8.76-2.5 13.15l1.06.42 3.35-3.01c-.5 3.47-1.86 6.97-1.25 10.1a8.4 8.4 0 0 0 7.92 7.04l.53-5.12c.53-5.52 1.53-10.8 5.93-14.86 2-1.85 4.12-1.52 5.8-.36.84.57 1.12 2.97.69 4.2-1.8 5.17-3.95 10.21-6.08 15.58 2.01-.84 3.91-1.44 5.6-2.39 9.9-5.58 17.23-14.04 24.76-22.27 2.78-3.04 5.5-6.2 8.63-8.86 4.97-4.22 10.28-8.04 15.43-12.07 3.28-2.57 6.53-5.2 9.8-7.8l.35.35c-.64.9-1.2 1.9-1.95 2.7-15 15.89-29.92 31.84-45.08 47.57-5.71 5.93-12.58 10.49-20.66 12.51-5.02 1.26-10.82 2.34-14.66-2.28-4.69-5.65-8.13-12.16-7.66-19.97l.55-2.5-.08-.61.32-1.8 2.78-10.6 1.4-5.7c-2.75.71-5.04 1.45-7.39 1.87-3.28.58-6.41.38-9.27-1.84-2.64-2.04-2.92-4.73-2.91-8.05-.94.49-1.24 1.28-1.79 1.85-2.14 2.22-4.38 4.35-6.52 6.58-.36.37-.47 1.02-.6 1.57-.45 1.74-.68 3.56-1.31 5.22-.93 2.44-2.14 4.77-3.22 7.11 5.64 4.21 5.89 6.63 3.97 13.8-1.8 6.69-6.84 7.68-12.54 8.4a72 72 0 0 0 6.54 4.54c2.04 1.28 3.7 3.65 6.73 1.9.67-.4 1.98.1 2.92.42 4.4 1.43 8.78 2.93 13.15 4.4 2.25-3.49 4.83-5.08 7.6-3.48 3.15 1.83 5.7 4.72 8.5 7.16.93.82 1.7 2.11 2.78 2.46 10.28 3.28 20.63 6.35 30.93 9.6 9.38 2.94 18.6 6.52 28.11 8.94 16.86 4.3 34.13 5.46 51.48 5 3.76-.09 7.66-.39 11.22-1.49 8.75-2.72 17.52-5.51 25.95-9.08 11.79-4.99 22.66-11.63 31.77-20.81a7 7 0 0 0 1.88-3.27c.9-4.83 1.75-9.74 5.1-13.53 1.89-2.14 3.96-4.5 7.56-3.85.78.15 2.24-.7 2.62-1.48 4.62-9.6 11.93-17.48 16.3-27.37 6.72-15.19 14.37-29.93 19.62-45.78 2.34-7.07 5.78-13.8 9.05-20.52 1.2-2.45 3.18-4.72 6.95-4.22-.45 2.18-.65 4.22-1.28 6.1-4.58 13.5-9.28 26.97-13.83 40.48a4.5 4.5 0 0 0 .36 3.47c.39.6 2 .3 2.93.7 1.63.7 3.23 1.5 4.7 2.48.9.61 1.4 1.9 2.35 2.4 4.05 2.15 6.35 9.8 5.2 14.27-1.56 6.16-7.7 7.6-10.91 11.92-.2.25-.77.2-1.16.32-6.14 1.88-12.99-.53-16.44-5.38-1.42 3.13-2.73 6.7-4.6 9.95-3.23 5.64-6.77 11.12-10.25 16.61-.9 1.43-.79 2.9.66 3.25 6.26 1.45 5.38 7.23 6.46 11.27.94 3.54-1.6 6.99-4.81 9.26-1.2.86-2.64 1.46-3.64 2.5a13.5 13.5 0 0 1-18.93.37c-15.16 13.48-33.28 21.6-52.4 27.88l.37.9 7.98.35c-1.84 2.31-2.9 4.07-5.76 4.19-5.9.23-11.8.92-17.78 1.43-.76 2.45-1.64 4.95.19 7.5.31.43-.1 1.4-.18 2.13l.02 1.24c-.73 7.75-5.13 11.43-14.27 12.16l84.73 32.1c0-1.8.13-3.09-.02-4.36-.84-7.6 1.34-14.13 7.04-19.27 2.82-2.54 5.24-2.3 8.23.14.63.51 1.77.34 2.63.63 1.66.57 3.42 1.03 4.9 1.92 1.31.78 2.28 2.12 3.45 3.15.6.53 1.65.83 1.9 1.46 1.24 3.27 2.3 6.61 3.38 9.94.09.27 0 .63-.1.91-1.47 3.9-3.27 7.57-7.3 9.5l-2.07 1.71 1.34.2q12.53 3.03 25.08 6.04c.32.07.78-.12 1.07-.33 3.16-2.29 6.26-4.67 9.49-6.86 1.03-.7 2.58-1.55 3.58-1.26 4.95 1.42 9.79 3.2 12.34 8.28.64 1.27.99 2.29-.9 2.75-.4.1-.68.7-1.02 1.07.35.26.65.64 1.04.76 5.02 1.65 6.67.49 8.74-4.76.86-2.16 1.54-4.39 2.44-6.53.9-2.1 1.95-4.15 3.07-6.49-4.76-.44-8.7-2.15-11.6-5.36-2.63-2.9-5-6.75-2.69-10.48a38 38 0 0 1 9.35-10.23c2.88-2.12 6.9-2.67 10.54-3.96 1.82-9.9 3.78-20.21 5.58-30.56 1.12-6.4 1.98-12.86 2.96-19.29l.28-1.35c.83-5.6 1.74-11.2 2.46-16.81.55-4.4.99-8.81 1.23-13.23.69-12.04 1.34-24.09 1.73-36.15.04-1.22-1.52-3.14-2.78-3.64-4.1-1.62-5.75-3.47-5.74-7.86 0-5.65 3.27-9.31 7.68-12.32-1.07-23.98-3.8-47.83-8.7-71.1-1.48-.45-2.73-.6-3.74-1.18-4.72-2.7-6.45-7.45-4.56-12.5 1.86-5.01 2.54-9.76.13-15.05-3.28-7.2-5.65-14.84-8.42-22.31-.38.25-1.01.43-1.2.82-1.9 3.87-5.5 4.2-9.11 4.38-.7.04-1.46-.5-2.15-.84-.84-.43-1.6-1.22-2.47-1.38-8.71-1.56-11.98-5.5-13.94-12.1a2.8 2.8 0 0 1 .27-2.05c1.93-2.94 3.88-5.88 6.02-8.67a17 17 0 0 1 3.87-3.63c3.26-2.15 6.96-2.71 11-2.09-.95-5.73-4.27-10.03-6.87-14.67a148 148 0 0 0-33.93-41.1c-1.79-1.5-3.56-3.58-5.64-4.08-5.4-1.28-10.96-1.82-16.4-2.66-1.89 8.05-8.51 11.43-16 10.78-2.3-.2-4.58-2.34-7.05-.16-3.67 3.21-7.82 5.36-12.93 4.92-.19-.02-.41.33-.62.51.78-1.2.65-1.9-.99-1.75 4.53-9.3 10.35-17.52 18.98-23.19-10.1-7.93-17.6-18.18-22.9-29.82-5.2-11.44-12.19-22.14-14.66-34.6-1.82.28-3.43.52-5.04.8-5.68.92-10.52-.86-14.69-4.64-.54-.49-.56-1.56-1.07-3.17 4.2 2.71 7.8 3.29 11.54 2.34 4.71-1.2 9.14-3.1 12.9-6.3 1.4-1.18 2.7-2.59 4.27-3.45 6.04-3.28 9.11-9.11 11.82-14.79 2.63-5.52 1.31-11.73-.16-17.56-1.41-5.57-4.87-9.88-9.12-13.6l-.42-.4c-.56-.53-1.05-1.16-1.68-1.6-6.78-4.67-14.1-5.26-21.41-1.83-5.74 2.68-11.19 6-16.6 9.32-1 .62-1.74 2.53-1.72 3.83.11 5.66.78 11.31.8 16.97a33.4 33.4 0 0 1-3.82 15.75c.7.53 1.5 1.46 2.5 1.8 3.33 1.2.55 3.96 1.5 5.8.14.27-1.6 2.14-2.56 2.23-3.11.28-6.4.64-9.38-.08-4.49-1.09-9.02-2.19-12.57-5.87-2.04-2.12-.91-4.23-1.45-6.28-.86-3.26-1.8-6.59-1.96-9.92-.28-5.45-3.07-8.7-7.67-11.04-2.64-1.35-4.88-3.53-7.6-4.63-4.5-1.83-4.76-1.87-4.9-6.85-.07-2.18-.3-4.35-.43-6.47-2.65-.33-5.08-1.36-6.94-.73a188 188 0 0 0-18.21 7.34c-15 6.93-29.9 14.06-44.8 21.19-.53.26-1.08 1.55-.88 2.11 1.36 3.94 2.62 7.97 4.48 11.68 3.34 6.66 7.08 13.12 10.65 19.67 1.93-1.16 3.44-2.22 5.08-3.03 9.56-4.69 19.12-9.42 28.8-13.84 1.06-.48 2.98.91 4.5 1.43-.41 1.02-.53 2.44-1.28 2.98-4.24 3.1-8.62 6.02-12.99 8.94-1.6 1.07-3.2 2.18-4.96 2.94-4.93 2.18-9.95 4.19-14.89 6.24 1.45 2.35 2.64 5.04 4.5 7.15 4.37 4.98 9.02 9.73 13.64 14.5 3.12 3.2 4.96 6.9 4.6 11.4-.1 1.3-1.45 2.53-1.52 3.83-.21 4.05-.07 8.13-.07 12.3 5.76 3.33 5.75 3.24 12.07 1.44 2.08-.6 4.34-.59 6.43-.85 1.28 3.56-1.63 3.57-2.84 4.58l14.36 12.93c2.64-1.24 5.26-2.28 7.68-3.66 2.37-1.35 4.38-.79 6.93.35l-9.28 8.18c.92.62 2.1 1.42 3.3 2.2 6.46 4.28 9.65 4.02 15.86-.36 13.06-9.22 26.27-18.24 39.42-27.35 2.54 3.92 2.48 4.53-.7 7.18-1.45 1.23-3 2.36-3.96 3.12 1.53 7.83 6.5 13.73 7.56 21.3 1.2 8.5.3 10.36-6.65 10.82-4.37 6.04-4.7 13-5.56 19.82-.1.84.14 1.8.5 2.59 2.14 4.78 6.48 5.62 10.17 1.61 4.55-4.95 8.62-10.35 13.09-15.38 3.09-3.49 7.6-5.48 10.23-9.5l.6.19c-1.2 1.35-.15 2.24.9 2.22 3.67-.09 6 2.23 7.5 4.84 2.33 4.1 3.9 8.37 2.36 13.61-1.16 3.92-2.37 7.09-5.96 9.33-2.78 1.75-6.17 3.54-7.61 6.22-3.33 6.22-6 12.85-8.27 19.55-3.03 8.94-5.1 18.2-8.13 27.14-5.89 17.33-12.18 34.52-18.27 51.78-1.88 5.3-3.66 10.65-5.5 16.04 3.96-1.1 7.54-2.1 11.12-3.08.47-.13 1.05-.4 1.43-.25 3.42 1.35 7.39 1.96 9 5.98.81 2 1.28 4.14 2.17 6.1 1.58 3.46.13 6.68-.62 9.91-.98 4.24-4.84 5.96-7.86 8.48-6.4 5.36-10.05 5.58-16.46.34-2.38-1.93-4.62-4.04-7.35-6.44-2.66 11.07-12.68 14-20.33 19.53 5.57-10.26 13.93-18.7 17.5-30.1 3.52-11.26 7.42-22.4 11.15-33.6l-1.12.7q-1.62-2.23-3.27-4.43c-.4-.54-.87-1.41-1.36-1.44-4.13-.24-7.36-2.67-10.96-4.2-.95-.4-2.43-.51-3.28-.05q-6.41 3.5-12.61 7.36c-7.97 4.91-16.4 8.05-25.93 8.16-9.15.1-17.96-7.4-19.44-16.38a65 65 0 0 1-.63-13.47c.26-5.54 1.3-11.04 1.69-16.59.29-4.1.07-8.24.09-12.35 0-2.37-.21-4.77.1-7.1.27-1.9 1.69-3.75 1.66-5.6-.09-6.32-.63-12.64-.92-18.96-.12-2.6-.02-5.2-.02-8.83 1.57 1.8 2.7 2.76 3.43 3.97 3.43 5.6 4.4 11.86 5.1 18.28 1.24 11.3.55 22.57-.24 33.82-.54 7.67-1.73 15.29.12 22.94 2.3 9.57 8.97 14.06 18.9 12.4 6.76-1.14 13.01-3.54 18.2-7.78 4.19-3.4 9.34-6.11 11.3-11.86.46-1.35 1.94-2.59 3.26-3.36 2.72-1.6 5.45-2.89 6.95-6.03 1.7-3.6 3.88-6.98 5.88-10.52l-3.7-1.96c1.18-.87 2.03-1.35 2.7-2.01.52-.51 1.2-1.3 1.13-1.9-.19-1.67-.53-3.4-1.17-4.95a167 167 0 0 0-4.4-9.4c-1.57-3.17-3.25-6.28-4.88-9.42-2.8-5.4-5.56-10.84-8.4-16.23-.66-1.25-1.55-2.37-2.55-3.89.1-.33.84-1.49.58-2.35-3.31-11-6.09-22.25-13.54-31.5-4.11-5.11-8.73-9.08-15.38-10.95-5.96-1.67-11.89-1.37-17.86-1.74-5.3-.33-10.98-.27-15.42-3.44-4-2.86-8.51-2.72-12.8-3.87-.63-.16-1.84.1-2.09.54-2.74 4.95-6.9 7.72-12.58 8.28v3.15c-3.82 2.7-7.2 5.06-10.53 7.49a66 66 0 0 0-17.98 19.67c-4.85 8.12-9.27 16.48-14.12 24.6-6.8 11.39-14.7 21.94-24.8 30.69-1 .86-2.2 1.56-2.98 2.58-2.91 3.81-1.38 10.46 2.92 13.8 6.14 4.78 13.12 7.36 21.55 8.22l-1.67 3.3c-4.9 1.35-9.74.99-14.56-.44-5.94-1.75-10.04-5.82-13.6-10.6l-1.98-4.3.02-14.13 3.7-6.2 17.25-19.94c.85-.99 1.62-2.04 2.42-3.06l6.29-9.2c2.2-3.33 4.35-6.69 6.6-9.99q6.55-9.54 13.15-19.05l5-4.38 12.3-8.16q1.8-.58 3.62-1.14 2.16-.66.3-1.94l-.92-6.11 2.57-2.52c2.4-1.44 4.63-1.1 7.24-.12 2.1.78 2.8-1.48 3.32-3.3.45-1.58 1.2-3.08 1.82-4.62l5.57-1.28q.27.15.58.2l3.14 1.65c1.47.78 2.93 1.61 4.45 2.28.21.1.76-.56 1.15-.87l4.3-.16c3.45.25 7 1.08 10.35.61 6.25-.86 10.75 2.5 15.58 5.3l6.71 3.84-12.33-17.5-8.55 1.74-4.28.38-1.86-1.23-3.65-3.63c-.66-2.25-1.6-4.47-1.88-6.77-.24-2.01.27-4.12.46-6.19l1.83-5.57c1.33-2.29.86-3.94-1.6-5.13-6.07-2.95-9.45-8.76-13.66-13.56-3.86-4.42-6.77-9.7-10-14.66-1.2-1.83-2.1-3.84-3.13-5.79-1.66-3.15-3.54-6.21-4.9-9.5-2.14-5.17-3.92-10.49-5.88-15.74-.34-.93-.8-1.82-1.37-3.13l-3.21.44c-1.76-3.63-3.54-3.9-7.24-.7-.45.38-1.01.64-1.53.97l-4.95-1.86c-.19-.35-.46-.68-.55-1.05-.78-3.1-.2-7.31-5.54-6.67-.18.02-.47-.38-.63-.63-2.4-3.68-6.16-5.13-10.05-6.72-5.26-2.13-8.4-6.35-9.25-12.1-.1-.67-.45-1.3-.68-1.96l-.63-5.57c-.06-2.75.59-5.22 2.63-7.22.26-.25.48-.67.49-1.02.06-8.64 6.04-18.3 13.7-22.1.39-.18.93-.7.9-1-.47-4.7 2.96-7.4 5.32-10.65l3.13-3.16.61-.46 4.26-2.1c5.66 1.34 8.7-3.64 10.13-9.77q1.15-2.34 2.26-4.69c.63-1.34 1.2-2.7 1.8-4.05l5.28-10 2.26-2.97 9.22-3.84 4.97-.45c4.64-.29 7.51-2.65 10.07-6.64a93 93 0 0 1 12.33-15.26c2.9-2.93 6.91-5.14 11.46-4.71 2.42.22 3.46-.96 4.77-2.65a33 33 0 0 1 6.26-6.4c4.36-3.23 9.43-2.96 14.44-1.85 2 .44 3.87 1.4 5.84 1.98.45.14 1.06-.3 1.6-.42q4.36-1 8.72-1.97l5.57-.56 4.95-.58 4.98 1.94c3.71-2.9 7.49-3.02 11.57-.64.7.4 2.16-.47 3.26-.76 2.88-1.44 5.74-1.64 8.58.12 4.87 3.17 9.82 6.25 11.28 11.93 4.15.46 7.96.52 11.6 1.37 3.85.89 6.87 5.16 6.83 9.31-.03 2.61 1.16 3.78 3.38 3.92 7.12.48 10.56 5.1 12.9 11.07.12.28.36.5.55.74l.38 3.79.33 13c1.97 0 3.2-.14 4.4.02 2.5.32 4.34 1.5 4.75 4.23q.69 4.65 1.34 9.29l2.48 7.42c.2 3.1 3.28 2.6 4.72 2.87 3.03.56 4.8 2.15 6.5 4.34.79 1.03 1.89 1.82 2.85 2.72l2.25 4.4c-.24 3.63-.4 7.27-.75 10.9-.23 2.31-.98 4.71 1.43 6.3 11.47 7.58 11.31 18.66 6.5 28.7-.86 1.81-1.82 3.75-3.23 5.09-3.73 3.52-2.55 7.17-1.14 11.19.97 2.77 1.2 5.8 1.8 8.7.11.51.33 1.15.71 1.43 2.1 1.47 2.16 3.31 1.02 5.51-1.48 2.87-2.19 6.15-3.63 9.05-1.34 2.69-2.88 5.4-4.93 7.56-2.33 2.47-5.3 4.34-8 6.46l-4.4 3.6-4.18 7.55c4-.79 7.33-.41 9.56 2.67.63.86.54 2.24.77 3.38q-.24.65-.52 1.27c-1.17 2.31-1.53 5.33-4.95 5.67-.8 1.12-2.53 2.6-2.26 3.28 1.33 3.31-1.62 4.47-2.77 6.5-.61.61-1.86 1.6-1.74 1.8.81 1.41 1.9 2.68 2.9 3.99l-.03-.03 3.25 4.27c1.5 2.01 2.93 4.07 4.52 6 .36.45 1.23.67 1.87.68 3.04.03 6.09-.04 9.13-.08l5.5.92c4.26 1.42 8.57 2.73 12.79 4.27 5.13 1.87 8.63 5.94 12.26 9.74 5.58 5.84 11.23 11.64 16.48 17.77 5.76 6.7 11.1 13.77 16.62 20.67l3.1 5.57 4.96 9.28 2.62 5.54 2.8 6.86 1.44 3.74q4.01 11.72 8.06 23.43c.32.9.79 1.76 1.18 2.64l2.03 8.51 1.8 4.96 2.36 8.86zM590.99 418.98l-10.44 4.25c5.44 6.87 7.56 15.28 10.85 23.7 2.96-6.2 5.43-11.92 8.39-17.39 3.2-5.9 5.88-12.38 12.89-15.1.3-.13.48-.6.66-.84l-4.55-8.18-9.66 8.12zm-204.91 465.5 2.44-.83a139 139 0 0 0-14.8-2.54c-.15-.02-.37.6-.57.94-2.48-.1-5.26.39-6.07-3.2-13.47 5.27-26.87 10.33-40.12 15.75-6.56 2.68-13.12 5.59-18.28 10.74-3.51 3.5-3.32 5.05 1.48 5.7 6.45.89 13.02.99 19.55 1.17 3.92.11 7.85-.4 11.77-.36 3.02.03 6.04.5 7.88.65 3.34-4.4 5.68-8.56 9-11.66 8-7.44 17.8-12.07 27.71-16.37zM618.18 420l-.84-.34q-2.75 3.97-5.48 7.98c-.6.9-1.33 1.82-1.62 2.83-2.93 10.1-7.94 19.12-13.97 27.66-.64.9-.99 2.53-.63 3.52a37 37 0 0 0 3.45 7c2.62 4.27 5.45 8.43 8.03 12.39 5.07-1.95 9.43-3.42 13.98-1.3 4.34 2.02 6.86 5.52 7.33 10.54 2.96-11.12 6.06-21.9 11.92-31.64-1-.94-1.92-2.07-3.08-2.85-.74-.5-2.13-.95-2.69-.59-2.07 1.33-4.31 2.7-5.78 4.6-3.42 4.43-10.88 5.16-14.31.78-2.74-3.49-4.27-7.86-3.53-12.19 1.24-7.33 3.26-14.53 5.05-21.76.56-2.25 1.44-4.43 2.17-6.64zm-15.13 107.76c.52 1.65.6 4.23 1.94 5.67 3.6 3.9 5.96 8.35 7.62 14.14l12.91-42.06c-3.24 1.59-5.72 3.44-8.23 5.24-1.48 1.06-3.39 1.76-4.44 3.13-3.4 4.44-6.48 9.13-9.8 13.88m-109.3-33.32c.18-.17 1.16-.8 1.74-1.7 1.03-1.59 1.77-3.36 2.72-5.02 1.1-1.9.56-3.42-1.25-4.22-2.31-1.04-5.07.32-5.57 2.5-.42 1.85-.68 3.75-1.1 5.6-.48 2.08.09 3.21 3.46 2.84m89.66 252.3c4.02 1.49 7.84 2.9 12.27 4.52-1.09-4.57-6.22-6.75-4.74-11.64zm-108.87-114.4.97.67 1.92-2.93-.75-.51zm158.99 92.78v-.59h-1.61v.59zm-299.02 24.9.03.28-.15-.03z"/><path fill="#000" d="M301.2 776.96c1.22 1.1 2.64 2.04 3.63 3.32q11.76 14.97 23.4 30.03 5.16 6.6 10.17 13.35c.5.67.5 1.7.73 2.58l-4.35-4.28-5.7-8.02-.5-.55q-.23-.15-.5-.1l-5.02-6.3c-2.33-3.2-4.6-6.46-7.02-9.6-4.47-5.84-9.06-11.58-13.53-17.41-.65-.85-.89-2-1.32-3.02zm-28.14-59c.94 2.39 1.93 4.75 2.8 7.15q4.08 11.2 8 22.46c.43 1.27.3 2.73.44 4.1-2.14-4.68-4.33-9.34-6.38-14.07-1.01-2.34-1.76-4.8-2.63-7.21l-1.6-6.87z"/><path fill="#fff" d="M357.45 633.68c4.14 1.19 7.34-1.25 10.76-2.8 1.26-.57 2.42-1.37 3.64-2.06q.19.2.44.38l-3.37 8.19-12.63-3.48z"/><path fill="#000" d="M284.4 751.8c.81.57 1.9.98 2.4 1.76a986 986 0 0 1 12.08 19.08c.49.79.44 1.92.64 2.9l-5-6.78-2.2-2.98zm14.46 154.95-.05 8.73-1.16-1.88-.56-2.45 1.76-4.4zm371.38-3.15 1.91.34c-1.7 1.42-3.39 1.55-5.05-.06zM417.1 882.15l-.63-.26 4.32-.57zm9.27-1.46a.4.4 0 0 1-.18.33q-1.78.13-3.58.24zm-40.3 3.78-11.59-1.95c-.45-.08-.89-.32-1.33-.48.2-.33.43-.95.58-.93 4.87.63 9.73 1.32 14.8 2.53l-2.45.83z"/><path fill="#fff" d="m339.1 758.28-4.58-6.5.94-.65 4.28 6.5q-.33.31-.65.65"/><path fill="#000" d="m488.97 661.71-.03-2.39q.28-.1.58-.11zM430.2 879.62"/><path fill="#fff" d="m334.51 750.01-.13.25.16.03zm37.34-121.2q.27-.2.55-.38l-.11.76a3 3 0 0 1-.44-.38"/><path fill="#000" d="M651.5 628.9a29 29 0 0 1 15.7-6.06c2.87-.23 5.68 1.47 7.7 3.66a16.4 16.4 0 0 1 4.42 13.05c-.6 4.8-2.19 9.74-7.1 12.49-1.76.97-3.22 2.42-4.89 3.55-4.11 2.8-8.67 2.25-12.31-1.38-2.5-2.48-5.1-4.86-7.51-7.42-.68-.7-1.46-2.06-1.2-2.8 1.6-4.82 1.43-10.24 4.74-14.49zm5.45-72.42c-6.36 1.33-10-2.85-13.97-6.32-.6-.53-1.07-1.23-1.58-1.86-3.1-3.83-3.08-5.03-1-9.46 1.2-2.51 1.68-5.35 2.66-7.97a6.4 6.4 0 0 1 1.99-2.87 33 33 0 0 1 15.38-5.69c4.98-.54 10.38 5.54 10.5 10.81.03 1.44 1.26 2.87 1.27 4.3.08 7.52-4.12 12.38-10.25 16.03-1.79 1.07-3.33 2.56-4.98 3.85zm-32.13 151.97c-5.53-.14-8.13-4.51-11.61-7.44-.15-.13-.15-.4-.29-.54-2.6-2.55-4.34-5.23-2.47-9.12.8-1.7 1.07-3.7 1.37-5.59.72-4.41 3.93-6.8 7.45-8.52a38 38 0 0 1 10.88-3.6c4.2-.64 10.24 5.01 11.65 9.51 1.3 4.19.76 8.3-.2 12.3-.43 1.8-2.06 3.48-3.5 4.83a60 60 0 0 1-7.85 6.41c-1.52 1.02-3.6 1.2-5.42 1.76zm44.45 43.74c-6.78-.4-10.24-4.43-13.72-8.4-.19-.22-.14-.68-.33-.82-3.96-2.7-2.26-5.76-.78-8.99a16 16 0 0 0 1.2-5.17c.39-4.07 3.52-5.99 6.43-7.51a39 39 0 0 1 11.13-3.77c4.82-.84 10.57 5.61 11.76 10.44.82 3.36.61 6.26.21 9.45-.42 3.3-2.12 5.8-4.4 7.83a53 53 0 0 1-7.53 5.28c-1.42.87-3.11 1.31-3.96 1.65zm28.76-156.14c-3.2 4.35-7.86 3.96-12.4 3.7-4.81-.26-10.39-6.44-10.44-11.25-.02-2.57-.13-5.14-.24-7.72-.18-4.56 5.15-13.36 9.41-14.9 1.79-.64 3.97-1.3 5.63 1.13.58.86 2.48 1.14 3.78 1.14 2.22.01 3.6.83 4.48 2.87.43 1 1.82 1.35 2.46 1.85 1.85 1.45 2.92 3.95 4.16 6.12.32.56-.02 1.48.25 2.1 1.63 3.82.66 8.78-2.34 11.21-1.1.9-2.3 1.7-3.45 2.53zm14.06-58.67c-1.45-5.47-.08-10.51 2.08-15.43 1.67-3.8 4.94-5.94 8.48-7.52.9-.4 2.94.52 3.72 1.46.93 1.13 1.58 1.21 2.91 1.12 2.28-.16 4.42.29 5.45 2.98.34.88 1.72 1.54 2.77 1.92 2.96 1.04 4.05 3.14 3.96 6.1a6 6 0 0 0 .2 1.8c.45 1.59 1.67 3.37 1.29 4.69-.97 3.35-2.08 6.84-5.7 8.6a13 13 0 0 0-3.12 2.44c-4 3.95-13.04 4.6-17.17.64-2.4-2.3-3.92-5.55-5.83-8.37l.97-.43zm-43.67-44.14c-.9-5.6.38-10.71 2.74-15.53 1.72-3.52 4.9-5.7 8.36-7.37.63-.3 2.08-.21 2.27.14 1.65 3.2 5.08 2.06 7.48 3.3.83.43 1.32 1.5 2.05 2.17.76.7 1.55 1.57 2.48 1.87 3.22 1.04 4.55 3.18 4.31 6.45-.03.4-.11 1.03.1 1.2 3.13 2.4 1.68 5.37.46 7.75-1.23 2.37-3.41 4.27-5.25 6.3-.86.96-2.04 1.64-2.82 2.65-2.58 3.3-6.25 2.83-9.63 2.63-2.08-.13-4.24-1.04-6.12-2.06-3.77-2.03-5.05-5.85-6.42-9.5zm50.9-73.77c.73 2.3 2.51 2.9 4.93 2.77.95-.05 2.04.7 2.89 1.34 1.45 1.1 2.62 2.62 4.17 3.52 2.26 1.33 2.82 3.22 3.51 5.61.79 2.71 2.34 5.14 1.11 8.07-.43 1.02-.61 2.32-1.36 2.98-3.64 3.24-6.96 7.67-11.27 9.16-10.88 3.76-18.8-4.41-18.34-14.84.25-5.47 1.57-10.53 5.28-14.88 2.43-2.86 5.23-4.2 9.07-3.73m5.92 309.45c.47-6.84 1.94-13.24 7.85-17.73 2.76-2.1 4.9-2 7.6.08.93.72 2.36.77 3.55 1.17 1 .35 2.39.47 2.88 1.18 1.46 2.12 3.08 3.79 5.67 4.47.64.17 1.32 1.04 1.58 1.74.94 2.51 2.27 5.06 2.41 7.64.22 4.02-1.65 7.47-4.85 10.07-1.7 1.38-3.5 2.65-5.02 4.2-2.52 2.56-9.28 3.86-14.75.6-4.85-2.9-7.14-7.59-6.92-13.42m37.71-167.82c4.25-.94 8.1-.21 11.99 1.5 5 2.23 9.73 10.34 8.17 15.52-.7 2.32-2.73 4.3-4.35 6.28-2.45 2.97-4.56 6.52-8.88 7.04-1.65.2-4.13.43-4.89-.47-1.3-1.58-2.68-1.48-4.23-1.67-6.66-.82-11.87-5.95-11.98-12.37a10 10 0 0 1 2.27-6.08c2.78-3.19 6.09-5.92 9.27-8.74.66-.58 1.75-.69 2.64-1.01zm12.11 99.56c7.19.23 14.47 6.72 15.35 13.5.43 3.34.04 5.84-2.79 8.02a14 14 0 0 0-4.1 5.12c-1.44 3.28-4.71 3.52-7.21 4.9-1 .56-3.85 0-4.07-.67-.8-2.32-2.48-1.68-3.97-1.91-6.46-1-11.48-5.48-12.54-11.7-.49-2.88.8-5.67 2.9-7.62a65 65 0 0 1 9.46-7.58c1.97-1.24 4.63-1.4 6.98-2.05zm-183.5-43.8c1.91 3.22 3.62 5.88 5.1 8.64a5.4 5.4 0 0 0 3.6 2.89c4.05 1.25 8.27 2.58 10.66 6.62.34.57.84 1.47.63 1.9-1.73 3.5.5 6.72.56 10.08.12 5.15-4.79 10.7-9.97 11.7-3.55.7-7.03.71-9.82-1.23-3.92-2.71-7.17-6.22-7.6-11.52-.23-2.71-.92-5.15-.1-8.1.9-3.22 2.58-5.3 4.94-7.22 2.76-2.23 1-5.06.28-7.15-.82-2.41-.58-3.97 1.71-6.6m-16.48 81.33c-.06 6.32-5.26 11.6-11.37 11.8-3.56.12-7.16.08-9.76-2.5-2.23-2.2-4.63-4.82-5.46-7.68-1.03-3.5-1-7.52-.52-11.2.5-3.82 3.62-6.4 6.6-8.58a6.7 6.7 0 0 1 4.6-1.03 61 61 0 0 1 10.13 2.57c3.22 1.12 5.24 5.2 5.08 8.8-.06 1.27.46 2.56.62 3.85.1.9.05 1.82.06 2.73zm-48.23-355.68c6.13-.25 7.14.41 11.54 7.01 5.06-2.74 10.16-5.58 15.35-8.24 1.08-.56 2.63-.97 3.7-.63 1.48.47 2.1 1.26.98 3.45-3.38 6.55-8.9 10.03-15.4 12.46-4.76 1.78-8.4-.6-11.97-3.1l.8-.5c-.33-1.07-.5-2.2-1-3.18-1.15-2.26-2.45-4.46-4-7.27m100.08-39.6c-2.64-1.95-3.04-5.41-1.9-8.31 2.99-7.62 9.75-10.64 16.56-13.13 3.4-1.24 7.43-.72 11.18-1l.35 1.64-15.23 5.66c1.38 1.9 2.32 3 3.02 4.22.62 1.08.7 2.12-.3 3.32-.94 1.1-1.4 2.65-1.99 4.03-.92 2.16-2.38 3.15-5.12 3.23l.46-4.64c-.91-.46-1.97-1-3.27-1.64zm-131.3 299.74c-3.85.28-6.9-8.39-4.56-14.55 9.13-.43 18.13.3 26.85 3.54a53 53 0 0 1-22.3-1.15zm115.85 16.73c-1.73 1.75-2.65 3.46-3.92 3.78-1.96.5-6.39-2.82-5.82-4 .8-1.7 2.93-4.43 3.7-4.19 2.11.67 3.8 2.65 6.04 4.4zm-35.5-9.79c-4.26-6.09-3.77-10.9 1.13-14.05.96-.63 2.34-.66 3.54-.81.31-.04.88.43.99.78.07.24-.37.77-.7 1-4.58 3-6.23 7.16-4.97 13.08z"/><path fill="#000" d="m500.86 603.52-1.54-5.95c3.77.63 4.27 2.46 1.54 5.95m78.07 16.5.77.13-.32.4-.53-.55z"/><path fill="#000" d="m578.63 620.83.31-.81-.09-.02.14 1.18z"/></svg>