<svg xmlns="http://www.w3.org/2000/svg" width="1080" height="1080" fill="none" viewBox="0 0 1080 1080"><path fill="#fff" d="M719.62 491.61c-3.92 4.34-9.37 4.9-14.62 5.93-3.67.72-7.36 1.33-11.04 2.03-4.95.96-7.15 5.2-9.92 8.63-3.33 4.12-6.26 8.56-9.56 12.7-.95 1.2-2.62 1.81-3.87 2.8-.6.48-1.1 1.17-1.46 1.86-2.8 5.45-5.59 10.9-8.28 16.4-1.2 2.43-3.2 3.5-5.65 3.02-3.55-.7-7.27-.89-10.14-3.88-1.44-1.5-3.79-2.14-5.54-3.08l-8.35 13.67q1.72 2.16-.1 3.58l3.72 2.6c-7 3.65-10.8 10.7-18.44 12.37-3.75.82-7.4 1.9-10.75-1.1-.39-.34-1.17-.21-1.73-.41-1.02-.34-2.02-.77-3.02-1.16q.66-1.48 1.4-3.07c-2.56-6.7-5.28-13.74-7.91-20.81-.85-2.29-2.25-2.77-4.34-1.79-8.34 3.94-17.32 5.53-26.3 7.13a18 18 0 0 1-4.72.21c-7.23-.7-14 1.29-20.87 3.1-3.44.9-7.07 1.15-10.62 1.6-4.72.61-9.44 1.26-14.18 1.64-3.24.25-6.54.36-9.76 0-2.9-.3-4.6-5.04-4.3-8.84.35-4.42.58-9-.18-13.32-1-5.76-3.68-11.19-2.31-17.36.43-1.95-1.9-2.14-3.44-2.47-1.31-.28-2.74-.28-3.92-.83-1.14-.54-2.7-1.15-1.38-3.2.5-.77-.57-2.37-.37-3.5.97-5.67-2.33-9.46-8.15-9.77-4.12-.22-8.21-1.06-12.3-1.76-.65-.11-1.57-.89-1.68-1.49-.35-1.74-1.38-2.2-2.94-2.68a30 30 0 0 0-10.68-1.32c-7.74.43-15.42-.67-22.47-4.48-1.89-1.03-3.55-1.5-4.8 1.46-.67 1.63-2.45 3.02-4.53 4.11-4.59 2.4-8.6 5.9-12.8 9.02-1.65 1.23-3.38 2.48-4.66 4.06-1.34 1.63-2.12 3.72-3.24 5.55a49 49 0 0 0-6.88 18.53c-.21 1.45.62 3.01.65 4.53.03 1.48-.06 3.1-.63 4.43-.4.95-2.03 2.3-2.52 2.1-1.16-.49-2.6-1.7-2.8-2.82-.54-3.14-.05-6.5-.83-9.55-1.1-4.26.22-8.19 1.48-11.81 1.74-5.02 2.47-10.78 6.94-14.46 2.2-1.8 4.9-2.98 7.19-4.7 1.2-.9 1.88-2.47 2.97-3.57a5.5 5.5 0 0 1 2.46-1.38c2.74-.7 4.96-2.01 6.34-5.2l-8.65-1.59c-3.85-.72-6.08-3.61-8.44-6.32-.77-.88-1.5-2.18-2.46-2.42-9.6-2.44-13.53-10.17-16.5-18.3-2.1-5.8-2.92-12.06-4.34-18.12-.05-.2-.36-.36-.55-.53v-13.06c1.1-2.78 1.13-6.34 5.18-6.91.06.17.16.34.16.52-.06 5.55-.17 10.97-1.52 16.53-1.33 5.5.22 11.37 2.25 16.78a69 69 0 0 0 4.03 8.9 17 17 0 0 0 4.2 5.24c.8.6 2.76-.31 4.2-.54-.2-1.11-.19-2.33-.67-3.31a10 10 0 0 0-2.34-2.99c-4.5-3.94-7.05-9-8.6-14.64-1.17-4.21-2.62-8.44-.72-12.75 1.58 6.9 1.92 14.16 5.6 20.44l.87-.2-2.1-12.86c1.86.44 3.37.38 2.8-1.62-1.17-4.07-2.75-8.02-3.91-12.1-.63-2.2-.77-4.56-1.1-6.85-.05-.36.05-1.07.15-1.09 2.9-.36 2.05-2.9 2.48-4.51.89-3.35 1.76-6.76 2-10.2.25-3.38-.35-6.83-.47-10.25a7.5 7.5 0 0 1 2.61-6.21c3.17-2.83 7.04-3.98 11.01-4.67 4.86-.84 6.63-3.56 4.79-8.17q-1.47-3.58-2.97-7.14c-1.74-4.18-2.42-4.45-6.82-3.43-5.94 1.36-11.65 2.06-16.33-3.46s-5.62-7.82-2.26-12.3c1.74-2.33 4.67-4.14 7.44-5.22 4.5-1.76 7-4.35 7.36-9.37.3-4.19 1.29-8.37 2.3-12.47.84-3.36 4.22-5.03 7.53-4.22 1.1.27 2.24.35 3.4.51.27-1.02.55-1.74.63-2.48.5-4.72 2-9.62 1.22-14.13a119 119 0 0 1-1.48-22.2c.03-1.92.7-3.48 2.58-4.8 3.34-2.36 6.94-2.33 10.62-2.13 2.35.13 3.26-1.1 3.34-3.06.08-1.84-.1-3.72-.37-5.55-.59-4.22-1.37-8.42-1.94-12.65-.85-6.26-1.47-12.55-2.37-18.8-.7-4.8-.08-6.03 4.12-8.38 3.29-1.85 6.74-2.24 10.39-2.12s6.78 2.45 7.39 6.1c.5 2.99.19 6.12.8 9.07 1.39 6.6 2.46 13.2 2.26 19.98-.06 2.22.28 4.5.77 6.68 1.04 4.64 2.5 5.68 7.24 5.68 1.59 0 3.17.08 4.75-.02 4.39-.27 6.46-2.2 6.1-6.4-.28-3.4-1.39-6.74-1.98-10.12-.45-2.56-1.19-5.34 1.53-7.18s5.46-1.84 7.54.8c2.8 3.57 5.66 7.34 5.7 12.3 0 1.93.1 3.87.03 5.8-.14 4.33 2.36 6.03 6.48 4.32 6.02-2.5 9.2-7.26 11.12-13.3 1.7-5.33 2.25-11.12 5.87-15.76a37.6 37.6 0 0 0 7.3-16.1c.33-1.7-.9-3.45.43-4.2 3.21-1.82 3.16-4.77 3.57-7.72.07-.57 2.63-1.5 2.73-2.07 1.38-7.37 2.62-14.61-1.44-21.75-2.2-3.88-3.16-4.36-7.23-2.1-3.98 2.2-8.06 4.5-12.4 5.75-3.43 1-7.34.84-10.98.5-2.56-.23-5.06-1.52-7.5-2.54-2.75-1.15-1.45-3.48-1.08-5.28a4.2 4.2 0 0 1 2.16-2.68c1.73-.73 3.73-.78 5.56-1.34 3.99-1.24 8.44.4 12.24-2.23 4.03-2.78 8.24-5.3 11.93-7.66-.08-1.26-.38-2.25-.17-3.13.7-2.95-.7-5.17-3.7-4.65-3.16.56-6.5 1.53-9.11 3.3-5.33 3.59-10.74 3.61-16.56 2.03-3.62-.99-7.3-1.79-10.99-2.52-4.36-.87-8.77-1.5-13.13-2.37-2.25-.45-4-.2-5.45 1.84-.85 1.2-2.21 2.03-4 3.6-.46-1.9-1.34-3.37-.95-4.32 1.5-3.61 2.81-10.43.6-14.15-2.08-3.51-6.45-2.21-10.63-1.44-.01 4.85-1.65 8.54-6.24 11.15-4.01 2.3-7.64 5.4-11.08 8.55-4.83 4.43-7.72 4.11-10.58-1.85a5 5 0 0 1-.34-3.35c1.14-3.57 2.6-7.03 3.82-10.57.4-1.16.83-2.57.53-3.67-1.76-6.57-5.19-12.34-8.7-18.12-3.14-5.17-6.24-10.52-8.28-16.17-2.56-7.1-1.17-14.43 1.27-21.44 1.56-4.48 6.92-8.6 10.81-8.35 4.48.29 8.96.6 13.4 1.19 3.03.39 5.77 1.72 7.54 4.36.89 1.34 1.43 2.9 2.34 4.81.7-1.88.5-3.88 1.75-4.73 3.12-2.12 6.08-5.1 8.04-5.66 1.93.16 2.4-.73 2.8-2.4 2.26-9.58 6.03-18.39 13.6-25.12 3.58-3.18 7.5-6.07 10.58-9.7 5.29-6.22 9.91-13.02 15.07-19.38 2.5-3.08 5.07-6.7 8.46-8.36 10.23-5 20.87-9.34 32.68-8.05 6.17.67 12.3.3 18.1-1.41 7.26-2.14 14.4-4.34 22.07-4.04.17 0 .36-.35.55-.53h5.34c1.75.4 3.5.88 5.26 1.17 3.05.5 6.17.67 9.17 1.36 4 .92 5.91 4.39 8.13 7.41 1.92 2.62 4.35 4.52 7.7 4.9 7.91.9 13.03 9.31 9.89 16.5a138 138 0 0 1-5.13 10.58 19 19 0 0 0-2.41 10.6c.23 3.2 1.24 4.29 4.4 4.5 3.51.24 6.64-.56 9.75-2.24 5.7-3.07 9.56-1.1 10.83 5.19.33 1.6.7 3.2 1 4.81 1.46 7.6 3.23 15.16 4.25 22.82 1.2 9.08 1.74 18.24 2.58 27.36.5 5.5-1.7 10.17-5.68 13.4-5.13 4.18-11.03 7.4-16.46 11.24-2.8 1.98-5.42 4.22-6.37 7.88-2.46 9.57-5.84 18.91-6.7 28.89-.4 4.63-1.59 9.19-2.34 13.31 3.7 1.53 6.49 1.6 9.35 2.64 5.75 2.08 11.57 3.93 17.3 6.07 3.21 1.2 6.46 3.68 9.38 5.46 3.03 1.86 6.33 2.28 9.12 4.54 2.62 2.12 4.77 4.74 7.12 7.13 1.78 1.79 3 5.51 4.48 7.59.59.82 1.14 1.67 1.76 2.57-2.08 5.27-5.9.89-8.68-.81-2.93-1.78-6.15-3.2-9.83-2.86-4.95.45-8.68 3.2-14.44 3.6.83 1.39.04-.2.63.58.4.54 1.46.98 1.41 1.37 3.3 2.2 3.19 3.35 5.08 3.98.6.2-1.03 1.1-.6 1.82-.73.38-1.48 1.13-2.17 1.07-1.97-.16-1.79-.75-3.75-1.11-1.68 1.41-.1 1.9 1.78 2.96 1.3.75 1.68 2.26 2.37 3.57 4.04 7.6 5.49 15.48 9.36 23.18a12 12 0 0 1 1.25 3.76c.48 4.45 5.34 8.75 5.93 13.22.85 6.3 2.79 12.31 4.94 18.45.76 2.17 2.27 4.49 2.87 6.7.38 1.45.55 2.98 1.12 4.33 4.32 10.39 5.34 20.66 9.62 31.07 4.1 10 11.34 18.7 15.38 28.72 1.03 2.57.87 6.95 2.75 8.8 6.52 6.39 8.52 14.07 12.04 22.3 2.62 6.11 4.45 12.6 7.27 18.61 2.4 5.12 5.77 9.8 8.6 14.74.7 1.23.94 2.72 1.39 4.1l-.83.43c.9.5 1.78 1.06 2.73 1.46 5.68 2.41 8.98 6.8 10.27 12.7.47 2.16.29 4.46.72 6.64 1.37 6.86 2.88 13.7 4.34 20.54l1.18 5.46v2.97zm-83.13 587.2c-3.9-.79-7.8-1.71-11.74-2.35-12.4-2.05-24.8-3.97-37.2-5.99-1.69-.27-3.4-.66-5-1.27-7.85-3.03-15.77-2.62-23.88-1.2-5.17.9-10.5 1.13-15.75 1.25-8.51.2-17.02.06-25.53.06-3.98 0-7.96.22-11.9-.06a12.03 12.03 0 0 1-11.43-11.41c-.64-8.52-1.2-17.08-1.1-25.62.06-4.19.33-8.8 3.28-12.35a6.4 6.4 0 0 1 3.77-2.13c4.88-.63 7.34-4.17 6.36-9.19a566 566 0 0 1-3.42-19.67c-.53-3.31.8-6.13 2.95-8.59.94-1.08 2.1-2.01 2.85-3.2a10.4 10.4 0 0 1 9.17-5.2c.52 0 1.03-.39 1.51-.58-.62-4.15-2.41-7.13-6.32-8.86-2.5-1.1-3.9-5.12-2.97-7.66.28-.76 1.27-1.72 2-1.78 7.54-.6 14.86-2.63 22.54-2.64 7.77 0 15.52-1.68 23.3-2.13 9-.52 17.95-.5 26.44 3.6 2.87 1.4 6.32 1.8 9.55 2.16 3.29.37 4.48 2.43 4.42 5.08-.1 5.46-.78 10.9-1.02 16.36-.18 3.98-.8 8.13 2.33 11.46.37.4.96 1.03 1.3.95 3.12-.73 6.16-1.98 9.3-2.3 2.01-.21 3.96-1.76 6.3-.14 4.66 3.27 9.56 6.23 14.47 9.14 1.99 1.18 1.3 2-.6 3.4 3.46 2.09 6.51 4.1 9.72 5.83 5.23 2.82 10.08 6.5 16.18 7.45.95.15 1.94.58 2.83.42 5.5-.99 10.67.51 15.93 1.75 4.8 1.13 9.8 1.49 14.65 2.42 6.05 1.17 12.17 2.22 18.04 4.02a10.4 10.4 0 0 1 7.56 9.68c.27 5.32-.27 10.68-.17 16.01.03 1.94 1.25 3.87-.3 5.74-.22.27-.06.91-.3 1.09-4.35 3.26-8.53 6.8-13.18 9.54-2.17 1.29-5.25 1.11-7.95 1.39-3.3.33-6.64.35-9.94.68-2.59.25-5.29.41-7.66 1.32-1.18.46-1.95 2.45-2.52 3.89-2.06 5.29-5.03 6.92-10.67 6.15-1.51-.21-3.17.63-4.75 1.02q-4.79 1.2-9.58 2.43H636.5zm-9.47-479.92v-4.98c2.78 1.03 5.63 1.44 7.52 3 1.47 1.21 1.68 3.89 2.57 5.85.66 1.46 1.16 3.5 2.34 4.14 4.03 2.19 4.44 5.84 4.77 9.67.19 2.13.8 4.33.5 6.39a137 137 0 0 1-2.78 13.13c-.19.76-1.3 1.28-2.24 2.15-.24 3.92-.52 8.41-.74 12.92-.02.39.35.88.66 1.2 4.02 4.15 5.33 9.35 4.4 14.7-.44 2.5-1.85 4.91-1.76 7.67.01.3-.9.95-1.28.88a2.3 2.3 0 0 1-1.46-1.13c-.78-1.63-1.39-3.34-2.22-5.45-.5 4.97-.9 9.53-1.42 14.08a18 18 0 0 1-.96 3.88c-.18.53-1.04 1.34-1.24 1.25-2.62-1.17-2.26 1.84-3.61 2.39 1.83 2.08 1.86 4.51.23 6.26a55 55 0 0 1-8.46 7.21c-1.09.77-2.95.6-4.46.59-2.06-.03-3.45.31-4.2 2.66-1.17 3.71-1.87 7.67-4.9 10.61-4 3.87-6.3 4.3-11.32 1.66-.76-.4-1.53-.78-1.98-1.01l-.96 19.57c3.3-.73 5.83-1.32 8.38-1.85 4.45-.92 7.2 2.12 5.89 6.42-3.48 11.33-7.11 22.62-10.34 34.02-1.6 5.63-2.25 11.5-3.65 17.18-2.7 11-5.68 21.91-8.43 32.89-.59 2.32-.72 4.76-1.02 7.15-.79 6.15-1.6 12.3-2.31 18.46-.5 4.24-1.03 8.5-1.2 12.77a566 566 0 0 0-.6 24.72c.01 4.16.95 8.31 1.03 12.48.1 4.6-.53 9.2-.43 13.8.12 4.67.54 9.37 1.2 14 .4 2.8 1.93 5.46 2.2 8.26.38 3.92-3.56 7.53-7.49 7.97-5.71.64-10.05-1.4-14.18-5.3-3.83-3.63-8.34-6.59-12.77-9.52-1.2-.8-3.31-.94-4.77-.54-4.8 1.31-9.23.07-13.63-1.42-1.56-.52-2.76-1.55-3.02-3.82-.36-3.18-1.86-6.21-2.6-9.37-.38-1.58-.7-3.54-.11-4.93 1.7-4.02-.96-7.08-1.68-10.56-.34-1.6-.71-3.22-.76-4.83-.08-2.3-.02-4.19-2.26-6.06-1.61-1.36-1.98-4.44-2.48-6.84a312 312 0 0 1-2.9-16.19c-.76-4.97-1.64-9.98-1.82-15-.32-9.04-1.17-17.94-3.9-26.64-.71-2.28-.64-4.82-1-7.87-.22-.2-1.12-.9-1.97-1.67-1.76-1.59-2.67-3.1-2.27-5.94 1.7-12.18 5.83-23.46 11.05-34.53 3.44-7.29 5.87-15.06 8.67-22.65 2.18-5.92 4.02-11.98 6.39-17.82 2.39-5.9 8.43-8.7 14.21-6.17 4.22 1.84 7.48.34 9.72-2.28 2.42-2.84 3.87-6.67 2.27-10.82a71 71 0 0 1-2.83-8.72c-.7-2.9-.96-5.9-1.48-9.24-1.56.16-3.22.35-4.88.49-4.64.4-8.8-1.4-12.93-3.08-4.25-1.73-8.6-3.47-12.44-5.94-1.86-1.2-3.24-3.9-3.8-6.18-.63-2.56 4-4.88 7.54-4.42 2.34.3 4.77.14 7.12-.07.46-.04.83-1.27 1.2-1.97.48-.88.9-1.79 1.35-2.68l2.45 2.12c2.35-2.3 2.21-2.25 3.44 1.4.34 1 1.66 1.79 2.7 2.38.87.5 1.98.75 3.02.83 2.47.2 4.9 2.43 7.49.04.38-.35 2.23.04 2.5.56 1.18 2.2 3 1.47 5.01 1.62l-8.75-11.57c-1.71 0-4.42.76-5.28-.18-1.2-1.3-1.4-3.89-1.35-5.91.06-3.09.82-6.15 1.06-9.24.48-6.03.79-12.08 1.25-18.12.06-.66.47-1.6 1-1.87 1.53-.77 3.18-1.28 4.8-1.86 4.89-1.75 5.2-1.62 7.41 3.04 1.05-.58 2.08-1.22 3.16-1.73 2.27-1.05 5.36.83 5.54 3.52.3 4.69.39 9.39.62 14.08.11 2.32.22 4.66.54 6.95.5 3.63 2.77 5.18 6.34 5.68 10.7 1.5 20.19-1.22 28.9-7.45a174 174 0 0 1 12.48-8.02c2.76-1.64 5.65-.89 9.24.7 0-2.48.73-5.05-.14-6.83-2.38-4.85-.46-9.46-.06-14.15.18-2.15.65-4.3 1-6.48-3.74-.06-5.94-1.63-6.61-4.93a282 282 0 0 1-2.93-16.8c-.2-1.37.62-2.89.97-4.34l4.91 1.56zm-64.4 76.61-.43.8c1.1.98 2.62 1.74 3.25 2.96 1.55 3 4.12 3.37 7 3.56 1.94.13 4.04.14 5.78.87 10.07 4.27 20.54 2.39 31.6 2.72-4.38-6.89-3.04-13.78-2.38-20.67-2.48 1.28-4.82 2.58-7.23 3.73a31 31 0 0 1-15.5 3.03c-4.85-.3-9.61-1.8-14.44-2.64-.6-.1-1.7.52-1.97 1.08-.9 1.89-1.54 3.9-2.16 5.56zm65.92-19.32c-2.85.19-5.4-.3-7.23.62-4.01 2.02-7.69 4.7-11.4 7.26-.53.37-.7 1.56-.68 2.36q.15 3.48.57 6.95c.33 2.68.24 5.6 1.35 7.9.82 1.71 3.13 3.12 5.06 3.72 1.34.42 3.94-.25 4.65-1.31 3.15-4.75 4.64-9.88 1.4-15.36a23 23 0 0 1-2.28-5.2c-.24-.83.37-1.9.59-2.88.98.32 2.16.4 2.9 1 1.16.94 2.03 2.24 3.03 3.4l.83-.49z"/><path fill="#fff" d="M473.19 505.15c-1.42.56-2.36.95-3.3 1.3-1.27.47-2.54.95-3.83 1.34-4.34 1.32-4.42 4.52-4.2 8.34.33 5.54.01 11.13.1 16.7.13 8.15.62 16.31.5 24.46-.09 5.4.37 10.57 2.1 15.68.47 1.34.65 3.04.22 4.32-.32.94-1.76 1.82-2.86 2.1-1.32.34-3.07.53-3.47-1.58-.79-4.14-1.55-8.28-2.37-12.69-2.48 3.29-6.3 4.04-8.04 1.77-1.19-1.55-1.48-3.11.47-4.54.68-.5 1.45-1.69 1.3-2.38-1.14-5.33.54-10.26 1.52-15.39 1.2-6.29 1.71-12.73 2.28-19.13.41-4.7.43-9.43.62-14.15.07-1.64.07-2.97-2.23-3.3-1.32-.19-1.74-1.8-.35-2.65 1.43-.87 3.13-1.3 4.72-1.88 1.14-.42 3.55.88 2.82-2.13-.02-.1 1.4-.85 2.02-.72q4.96 1 9.83 2.35c.64.18 1.07 1.06 2.15 2.18m100.67 59.55c1.43.62 1.67 1.67.03 3.54-4.66 5.28-10.44 9.2-16.62 12.14-7.88 3.75-12.75 10.55-18.73 16.26-1.5 1.43-3.22 2.63-4.82 3.96-1.6 1.34-3.11 2.82-4.78 4.07-2.05 1.55-4.12 3.13-6.38 4.33-1.4.74-2.95.1-3.4-1.58-.19-.7.22-1.74.69-2.38 2.2-2.99 4.33-6.08 6.87-8.78 4.07-4.34 8.43-8.4 12.72-12.52.33-.32 1.1-.19 1.66-.24.47-.03 1.07.17 1.39-.05 3.68-2.62 7.53-5.06 10.91-8.02 5-4.36 9.52-9.27 14.56-13.58 1.13-.96 3.57-.46 5.4-.38.19 0 .28 1.84.48 3.24zm-148.13-67.2c2.29 1.98 3.95 4.12 4.2 7.4.83 10.96.3 22.04 2.77 32.9.25 1.05-.99 2.46-1.59 3.68-.14.3-.5.5-.75.73-.96.89-2.63 2.64-2.78 2.51-1.75-1.4-3.77-2.86-4.67-4.79-.75-1.62-.26-3.9-.1-5.87.73-8.53 1.62-17.05 2.28-25.58.26-3.46.08-6.95.12-10.43 0-.12.22-.24.52-.54"/><path fill="#000" d="M643.62 1079.99c-.68-.19-1.36-.54-2.04-.57-6.08-.24-12.18-.28-18.26-.66-10.6-.68-21.2-1.4-31.79-2.4-10.13-.96-20.24-2.29-30.34-3.51-1.33-.16-2.6-.71-3.92-.97-.64-.12-1.62-.29-1.95.05-2.77 2.81-6.04 1.31-9.14 1.19q-2.78-.11-5.54-.25c-7.83-.39-15.68-.6-23.5-1.25-5.5-.46-10.98-1.39-16.42-2.35-5.84-1.04-8.4-5.4-9.64-10.63a72 72 0 0 1-.8-29.87c.4-2.21.52-4.45.89-6.66.48-2.91 1.78-5.13 4.78-6.32 2.2-.86 4.16-2.28 6.06-3.36-1.4-5.76-3.06-11.57-4.17-17.49-.59-3.13-.31-6.45-.23-9.68.02-.83.6-1.88 1.26-2.43 4.36-3.63 8.74-7.24 13.28-10.65 1.28-.95 3.08-1.2 5.32-2.04-2.16 5.8-6.66 8.19-10.4 11.23-1.5 1.22-1.85 2-1.37 4.05 1.7 7.23 2.92 14.58 4.32 21.88l.85 4.25c.13.67.49 1.45.28 2-.61 1.61-1.16 3.49-2.35 4.55-.57.52-2.56-.54-4.04-.93-7.54 2.34-9.37 8.13-8.49 15.8.75 6.45.73 12.98 1.05 19.74 5.16-3.81 8.9-2.62 9.99 3 3.94.24 7.93.56 11.93.69 1.1.03 2.23-.73 3.34-.7a432 432 0 0 1 17.62.8c4.66.33 9.28 1.15 13.93 1.5 9.54.7 19.1 1.2 28.66 1.83 8.3.55 16.58 1.23 24.87 1.75q11.63.72 23.27 1.13c.88.03 2.31-.71 2.6-1.44 2.76-6.79 8.2-9.22 15-9.79 7.18-.61 14.35-1.42 21.92-2.19-.74-2.55-1.14-5.47-2.43-7.91-.82-1.54-2.83-2.69-4.55-3.49-7.39-3.41-14.91-6.54-22.3-9.98-1.3-.61-2.12-2.22-3.16-3.36 2.5.19 5.21-.18 7.46.68a504 504 0 0 1 26.19 10.76c1.87.83 3.6 2.79 4.56 4.65 1.22 2.38 1.6 5.2 2.22 7.42l34.42-6.66c-.56-4.85-1.24-9.25-1.53-13.67-.3-4.79-1.43-6.94-4.75-7.7-8.72-2-17.46-3.88-26.14-5.98-2.68-.64-4.64-.74-7.4.85-7.33 4.24-15.9 4.18-24.1 5.07-3.67.4-7.43.06-10.86.06v4.59c-2.86 2.47-5.63 5.07-8.61 7.4-2.36 1.84-3.42-.7-4.45-2.01-.35-.45.4-2.31 1.15-2.98 2.11-1.89 4.48-3.49 6.75-5.21l.38-.45-.26-.07-.03.58c-3.22-1.21-6.59-2.12-9.63-3.66-11.03-5.61-22.14-11.14-32.85-17.32-4.24-2.44-7.58-6.46-11.2-9.88-.93-.88-1.38-2.24-2.17-3.6-9.24.16-17.45 4.7-26.21 7.87 13.21 9.51 27.54 16.81 41.88 24.05 11.13 5.62 22.48 10.79 33.7 16.23.8.39 1.31 1.4 1.96 2.12l-.64.92c-2.35-.67-4.79-1.14-7.05-2.04-16.6-6.47-33.28-12.72-49.66-19.66-9.49-4.01-18.64-8.9-26.68-15.55-2.78-2.3-2.33-6.98.93-8.54 1.97-.94 4.03-1.71 7.06-2.98-3.26-1.45-5.73-2.6-8.24-3.64-7.68-3.2-15.38-6.33-23.04-9.56-1.1-.46-2.03-1.34-3.54-2.37l2.35-.78c-.1-.17-.27-.32-.3-.5-.9-5.17-4.52-7.28-9.18-8.15-3.28-.61-2.27-3.53-2.73-5.4-.5-2.02.1-4.28.06-6.44-.02-.84-.5-1.66-.94-3.04l13.9-1.84c-5.65-23.19-5.14-46.86-7.99-70.21-2.12-.55-3.13-3.8-1.3-5.67 1.59-1.61 1.28-3 .94-4.88-1.32-7.11-2.67-14.24-3.53-21.42-.73-6-.9-12.1-1.14-18.16-.09-2.31.23-4.65.49-6.97.18-1.56-.56-2.19-1.9-2.66-5.84-2.04-5.5-2.1-5.96-8.28-.3-4.22 1.44-7.68 2.53-11.44 2.46-8.45 4.35-17.09 7.22-25.39a269 269 0 0 1 10.38-25.19c2.9-6.25 6.5-12.2 10.03-18.14 1.08-1.83 2.9-3.23 4.48-4.71.44-.4 1.73-.7 1.8-.57 1.86 3.18 5.63.72 7.95 2.97 1.4-6.32 3.5-12.06 7.21-17.2.8-1.13.11-3.43-.1-5.17-.26-2-.74-3.96-1.15-6.07-8-.63-15.73-2.75-23.25-5.87-2.12-.89-4.84-.3-7.04-1.07-4.05-1.43-7.92-3.37-11.87-5.1l-4.16-1.85c.26-4.78.65-10.06.8-15.35.14-5.14-.03-10.3.04-15.44.15-9.36.23-18.73.63-28.09.38-8.8.88-17.6 1.8-26.37 1.45-13.84 3.3-27.64 4.97-41.32-4.5.6-9.73 1.48-14.99 1.88-1.84.13-3.77-.96-5.34-1.4.73 9.48 1.34 19.23 2.28 28.95.52 5.41-1.12 10.15-3.46 14.8-.04.07.01.18.05.5l2.09-.78c-.1.41-.1.69-.2.9-1.51 2.94-3.3 5.3-7.23 4.68-2.22-.34-2.61-1.75-1.66-3.05 4.82-6.64 2.23-13.7.62-20.23-1.92-7.83-3.02-15.7-3.93-23.66-.73-6.46-1.57-12.9-2.27-19.37a398 398 0 0 1-1.27-14.03c-.54-7.43-.98-14.85-1.47-22.34h-1.48c0 2.36.51 4.82-.13 6.93-.9 3-4.06 1.52-6.45 2.09 0 3.95.07 7.88 0 11.8-.13 6.2-.5 12.4-.48 18.6.01 7.64.42 15.3.44 22.95 0 2.58-1.14 5.23-.8 7.7.27 1.94.18 3.34-1.3 4.28s-3.32 2.12-4.86 1.95c-1.68-.2-3.83-.97-3.88-3.78-.04-2.38-.8-4.75-1.25-7.12-2.79.7-9.23-1.47-10.23-4.16-.74-1.99-.33-4.5-.05-6.74a571 571 0 0 1 2.87-19.8 878 878 0 0 1 4.36-24.8c.28-1.47-.13-1.91-.94-3.05-1.51-2.11-2.1-4.89-3.36-8.17-2.11-.28-5.32-.75-8.54-1.11-1.66-.2-2.18-.76-2.42-2.64-.26-2-1.81-3.85-2.8-5.76l-.77.11.75 12.92.63 9.36c.6 9.18 1.22 18.36 1.77 27.55.05.93-.4 1.88-.53 2.83-.27 1.94-1.15 1.82-2.87 1.46-2.26-.48-4.68-.25-7.04-.16-1.62.06-3.56 1.03-4.77.43-1.23-.61-2.42-2.64-2.46-4.1q-.58-17.28-.64-34.59c-.01-5.38.51-10.76.8-16.15l-.9-.67c-4.3 3.57-9.02 6.73-12.74 10.82a64 64 0 0 0-9.06 13.38c-2.41 4.6-1.02 9.59.4 14.39.28.92-.02 2.39-.64 3.13-2.19 2.66-5.2 4.29-8.54 3.08-3.56-1.28-5.66-4.41-6.15-8.15-1.32-10.01 1.24-19.1 7.21-27.23 4.53-6.17 10.92-9.88 17.63-13.14 1.38-.67 2.75-1.3 4.55-2.15-3.06-.5-5.8-.84-8.5-1.4-2.3-.47-4.82-.42-5.63-3.7-.68-2.72-2.24-5.21-3.48-7.98-8.82-.32-15.26-7.08-17.96-15.5a105 105 0 0 1-4.94-26.23c-.4-7.24 1.18-14.54 6.97-20.05a5.4 5.4 0 0 0 1.63-3.44c0-4.53-.16-9.06-.57-13.57-.23-2.57-.97-5.1-1.6-7.62-.86-3.4-.3-4.7 3.06-5.76 2.84-.9 5.75-1.6 8.63-2.4 2.52-.69 5.07-1.31 7.54-2.13 3.93-1.29 4.43-2.25 3.5-6.76-.1 5.72-4.87 4.5-8.2 5.78.25-3.7.5-7.35.75-11.29-.9.26-1.5.47-2.12.61-7.6 1.77-15.05-2.61-17.5-10.15-1.3-4-.43-7.6 2.25-10.52 3-3.26 6.6-5.96 9.6-9.21A9.2 9.2 0 0 0 387 331c.29-5.25 1.4-9.98 4.67-14.31 1.51-2 2.96-2.91 5.6-2.58-.23-3.28-.4-6.38-.68-9.48-.55-5.9-1.18-11.81-1.75-17.72-.45-4.66-.6-9.37-1.43-13.97-.33-1.87.5-2.21 1.56-2.77 1.14-.6 2.56-.81 3.5-1.62 2.13-1.86 3.85-4.22 6.08-5.93 4.18-3.22 6-2.8 8.68 1.76 1.65 2.8 3.75.9 5.35.88-1.2-7.17-2.43-14.35-3.55-21.54q-1.53-10.03-2.84-20.1c-.09-.61.28-1.57.76-1.92 6.58-4.8 13.76-7.28 22.04-5.63 5.58 1.11 5.83 1 6.74 6.73a318 318 0 0 1 2.35 19.71c.56 5.9.85 11.82 1.3 18.3l12.56-2.26c-1.01-5.55-2-10.7-2.86-15.87-.1-.65.13-1.76.57-2.03 8.1-4.7 14.6-2.98 17.5 7.62.61 2.22.64 4.6.96 7.16 2.76-.64 5.6-1.1 8.3-2.02.9-.3 2-1.75 2-2.68-.1-11.5 4.54-20.59 12.88-28.4 3.13-2.92 4.89-7.35 7.2-11.15 1.47-2.44 2.33-4.9 2.08-8-.5-6.12-.32-12.29-.42-18.84-5.69 2.8-10.58 5.61-15.79 7.68-6.67 2.65-13.27 1.14-19.5-1.88-6.84-3.32-9.72-3-15.26 4.76-2.52 3.51-4.74 7.34-4.92 11.82-.23 5.8 1.77 10.6 7.4 13.59-2.45.44-3.8-.1-5.78-2.86-4.87-6.81-5.21-14.24-2.13-21.78A30.4 30.4 0 0 1 466 179.03c-8.03-1.63-14.4 3.66-18.23 10.78a56 56 0 0 0-6.66 24.64c-.01.53-.17 1.06-.34 2.08-2.18-5.15-.78-9.88.05-14.34a91 91 0 0 1 5.16-16.89c2.6-6.45 7.66-10.34 15-10.6 5.53-.2 11.09.8 16.64 1.08 5.35.27 10.7.14 15.05-3.64 1.33-1.15 2.27-2.75 3.38-4.15q-.26-.38-.54-.74-4.51 1.66-9.05 3.29c-11.27 4.01-21.57 2.47-31.04-5.03-2.5-1.99-5.57-3.25-7.83-4.53-3.95 4.26-7.28 8.57-11.34 12.03-3.54 3-7.83 5.14-11.9 7.43a35 35 0 0 1-6.86 2.85c-3.1.96-5.6-.4-5.93-3l2.47.39-1.47-1.8c11.67-1.64 18.1-9.74 23.8-18.72.38-.59.4-1.6.21-2.33a186 186 0 0 0-2.6-9.42c-.2-.64-.87-1.15-1.32-1.72l-1.52 6.93 1.54-.87c.61 1.64-1.96 5.37-3.63 5.8-4.25 1.11-8.57 2.11-12.59 3.8-2.18.92-3.63 3.42-5.7 4.77a20 20 0 0 1-6.27 2.61c-3.12.7-5.16-.8-5.61-3.62-5.24.66-10.28 1.68-15.35 1.81-5.47.15-9.1-3.77-12.64-7.29h10.1l-5.03-6.43c1.56.36 2.56.45 3.43.82 2.66 1.12 5.25 2.38 7.9 3.49.58.23 1.4.22 2 0 6.67-2.36 9.45-3.61 4.23-11.62-2.75-4.22-5.16-8.57-5.96-13.87-5.5 4.45-11.53 5.64-17.8 2.24-3.22-1.73-6.14-4.07-8.96-6.42-1.23-1.02-1.87-2.76-2.78-4.16v-2.38c.36.1.9.05 1.05.28 6.03 8.57 17.24 5.01 23.08-.12-4.43-9.48-8.86-19.3-2.88-29.34 7.43-12.46 19.4-15.54 33.73-12.93-8.02-8.23-16.75-6.72-25.69-3.87 6.86-3 13.7-5.08 21.3-2.95 7.84 2.19 10.99 8.63 14.62 15.6-.17-6.13 4.84-5.56 7.82-7.49-1.57-7.07.47-13.38 4.7-19.02 2.7-3.61 3.89-7.96 7.06-11.55 2.68-3.03 4.38-7.4 7.3-10.55 5.3-5.68 10.41-11.72 16.5-16.43 7.46-5.75 16.26-9.45 25.27-12.37 7.25-2.35 14.4-5.12 22.2-5.08.68 0 1.37-.6 2.4-1.08a22.3 22.3 0 0 0-14.86-1.23c-4.49 1.07-8.95 2.28-13.42 3.43l-.48-.8.82-.26q7.43-2.65 14.82-5.38c.5-.2.88-.77 1.3-1.16h9.5c4.52 1.32 8.18 3.75 9.98 7.47 7.63-1.73 14.92-4.02 22.37-4.88a96 96 0 0 1 21.81 0c5.2.58 10.45 2.3 14.75 5.97 2.3 1.97 4.03 4.38 7.54 5.34a93 93 0 0 1 18.62 7.5c3.18 1.67 5.61 4.94 8.05 7.78.66.76.1 2.57.1 3.9l-3.68-.48c-4.06 2.24-8.55 4.69-12.99 7.24-.7.4-1.25 1.22-1.68 1.95-3.07 5.3-1.27 10.84-1 16.25 6.79-1.14 13.08-4.13 20.07-3.64a7 7 0 0 1-2.54 2.44c-3.63 1.75-7.25 3.5-10.98 5-3.98 1.62-8.15 2.7-12.04-.13a35 35 0 0 1-5.4-5.09c-3.5-3.93-6.77-8.07-10.28-12-7.12-7.99-15.3-14.68-24.92-19.66-.74 1.29-1.34 2.71-2.26 3.9-6.51 8.47-15.52 13.65-24.73 18.51-2.95 1.56-6.7 2.1-9.03 4.24-8.23 7.55-16.01 15.6-23.92 23.5a3.5 3.5 0 0 0-.95 2.15c-.1 3.57 0 7.14-.05 10.72-.17 9.49-.4 18.97-.58 28.47-.08 4.28-.05 4.28 4.15 6.01l1.92-25.06 1.09.05c1.86 8.9-1.53 17.72-1.81 26.6q.52 0 1.03.02v-4.74l2.56.33-1.3 5.98c3.21.92 4.75 5.28 9.07 4.18-4.58-11.3-2.98-21.1 6.32-28.65-4.42-5.9-8.54-11.6-12.9-17.11-1.57-1.98-1.21-3.38.46-4.66a3159 3159 0 0 1 26.76-20.18c.14-.1.82.5 1.26.78l-25.3 20.6 11.86 19.4c3.99-2.84 8.49-2.33 12.77-1.06 3.15.94 5.36 1.31 8.03-1.47 3.84-4 8.45-7.27 12.73-10.84l3.08-.66-7.63 8.7-2.63 2.42 3.04 1.95.18-3.93c3.3 2.27 4.55 7.89 1.87 11.12-1.7-1.91-3.15-4.07-5.1-5.58-2.46-1.9-4.74-.13-6.81 1.05l1.3 2.48c-2.36-.53-4.13-.87-5.87-1.32-4.57-1.18-8.79-.95-12.35 2.63-7.06 7.07-7.7 22.25 1.92 29.52 4.08 3.1 8.52 5.19 13.58 3.6 4.25-1.32 8.24-3.47 13.26-5.66-6.62.58-4.52-4.43-5.83-7.07-4.56.92-5.9 1.45-9.17-2.08-2.8-3.01-2.65-7.42.78-9.5 2.1-1.27 2.42-2.77 2.1-5.02-4.05-.3-7.35 1.24-10.37 3.6l-.8.58-1.2 4.67-.65.64c-2.65-1.73-2.98-4.18-1.76-6.8a8.4 8.4 0 0 1 7.71-5.11l1.22-.44c2.07.36 4.16.65 6.22 1.06 4.47.9 6.15 3.13 4.91 7.38-.48 1.68-2.45 2.87-3.4 4.48a7.5 7.5 0 0 0-1.04 3.96c.02.5 1.65 1.09 2.63 1.34 1.16.31 2.4.32 3.53.45.65-1.24 1.07-2.62 1.96-3.54.9-.95 2.38-2.18 3.44-2.03 6.22.84 9.79 7.93 6.86 13.17 8.72 1.97 18.21 18.05 17.52 30.1-6.06 2.7-12.34 5.32-18.47 8.3-2.69 1.3-3.65-.17-3.87-2.1-1.14-10.15-2.07-20.33-3.05-30.5-.1-.97-.01-1.95-.01-2.81-1.67 1.46-3.02 2.82-4.55 3.93-1.56 1.12-3.3 2-5 3 5.71 4.01 5.76 8.55 3.35 13.96-1.7 3.85-5.2 7.05-3.33 11.9.14.36-.23.9-.31 1.38l-1.37 8.01 50.35 11.07c.48-2.22.95-4.79 1.58-7.3 2.44-9.7 4.85-19.38 7.48-29.01.75-2.72 1.55-6.07 3.5-7.69 9.53-7.87 19.45-15.27 28.96-22.62l-3.68-26.37c-1.4.91-2.45 1.77-3.65 2.32-.56.26-1.4-.07-2.11-.14.14-.67.07-1.7.47-1.96 1.5-.92 3.14-1.59 4.88-2.43 0-1.58.34-3.58-.06-5.42-1.9-8.7-4.08-17.33-5.95-26.03-.32-1.52 0-3.46.7-4.85.76-1.5 2.2-2.1 3 .33 1.94 5.88 4.49 11.62 5.76 17.64 1.58 7.45 2.1 15.14 3.13 22.7q1.44 10.58.05 21.16c-.11.94-.9 2.48 1.2 2.67.1 0 .41 1.67.07 2.19a15 15 0 0 1-3.25 3.76c-7.9 6.11-15.87 12.11-23.79 18.13.23.56 1.22 2.05.92 2.4-2.13 2.35-.27 4.4.54 6.23 1.16 2.67 2.6 5.42 4.62 7.45 2.3 2.3 5.43 1.46 8.45.45-1.62 2.01-3.14 4.47-5.26 5.23a15.6 15.6 0 0 1-14.24-1.71c-.87 3.95-5.56 7.69.87 11.36l-1.02.65-4.03-1.9-5.1 14.29c7.43 2.8 15.06 5.37 22.46 8.51 10.2 4.34 19.9 9.62 27.76 17.67 1.35 1.39 2.26 3.19 3.56 4.62 1.16 1.3 2.74 2.24 3.89 3.54 2.61 2.95 2.2 4.71-1.53 6.7-.05-.62-.33-1.31-.1-1.72 1.16-2.12.34-2.97-1.71-3.84-3.45-1.45-6.7-3.35-10.07-5-.33-.15-.92.23-1.2.31l12.81 10.56-.78 1.16q-4.31-2.07-8.64-4.1c-.68-.32-1.46-.87-2.1-.78-5.77.87-11.51 1.86-17.8 2.9 7.94 3.58 8.53 5.13 4.38 8.53.54 2.26.86 4.3 1.53 6.23a614 614 0 0 0 5.72 15.66c.2.52.72 1.14 1.22 1.3 2.26.73 3.28 2.49 4.1 4.48 1.78 4.27 3.78 8.45 5.3 12.8 3.36 9.66 6.26 19.48 9.75 29.1 4.36 12 8.88 23.95 13.78 35.74 6.37 15.32 13.11 30.48 19.82 45.66 7.23 16.37 17.3 31.45 22.31 48.84.13.47.6.95 1.03 1.18a218 218 0 0 0 7.14 3.6c3.9 1.88 7.07 4.31 7.53 9.03.4 4.09.92 8.17 1.18 12.26.5 7.75.82 15.5 1.26 23.24.02.4.36.79.56 1.18v8.31q-2.1.46-4.2.95c-7.86 1.86-15.66 3.95-23.58 5.51-6.43 1.27-11.89 7.5-11.45 13.81.06.82-.2 1.7-.48 2.5-1.62 4.42-5.67 5.05-9.03 5.9-2.8 5.77-5.54 11.25-8.12 16.8-.54 1.17-.1 2.9-.8 3.84-.97 1.32-2.62 2.15-3.97 3.2l-.89-.6c.26 3.4.8 6.8.72 10.18-.25 9.82-.68 19.63-1.16 29.44-.28 5.56-.72 11.1-1.24 16.65-.06.6-1.1 1.21-1.8 1.64-.67.42-1.75.39-2.2.93-3.98 4.82-7.86 9.74-11.78 14.62-1.23 1.53-2.22 3.53-3.82 4.4-1.93 1.05-2.08 2.54-2.28 4.18-.47 3.95-.84 7.92-1.27 11.87l-2.31 21.2c-.38 3.49-1.1 6.98-1.08 10.46.03 3.31-1.36 6.98 1.53 10.02.25-5.46.46-10.75.75-16.04q.21-3.64.7-7.26c1.12-8.88 2.35-17.76 3.41-26.65.43-3.59.6-7.13 4-9.49 1.16-.79 1.97-2.05 2.94-3.1h.79c0 6.1.03 12.2-.02 18.32-.03 3.48-.56 7-.22 10.44.62 6.25 1.59 12.48 2.7 18.67.5 2.76 1.24 5.7 2.73 8 1.3 2.01 1.7 3.33-.62 4.25s-4.72 1.65-7.1 2.39c-3.5 1.08-7.38 5.08-6.76 8.39.69 3.7-1.73 4.04-3.73 5.3-2.77 1.73-6.02 3.16-8 5.59-2.54 3.1-4.76 5.82-9.02 5.08-.9 3.03-2.11 5.75-2.46 8.57-.4 3.17-2.3 4.11-4.86 4.46-3.13.41-6.3.61-8.78.85l1.06 13.1c.86-.4 1.95-1.2 3.14-1.34.65-.07 2.08.94 2.07 1.45-.04 3.36-1.61 4.98-4.98 6.34-2.14.86-4.45 1.05-6.3 3.12-2.56 2.84-5.78 5.18-9.01 7.26-1.26.81-3.42.71-5.03.38-1.35-.28-2.5-1.52-3.8-2.37-1.47 4.05-2.73 7.58-4.03 11.1-1.01 2.73-2.23 5.14-1.39 8.47.65 2.57-.15 5.93-1.36 8.42-.88 1.8-1.93 3.28-2.08 5.46-.85 12.22-2.57 24.4-2.7 36.62-.21 18.77.6 37.55 1.06 56.32.05 2.3.56 4.58.95 7.47l11.52-2.54c0-5.66-.15-11.3.04-16.92.2-6.24.48-12.5 1.18-18.7.66-5.86 1.73-11.69 2.97-17.45.41-1.92 2.37-3.5 2.82-5.42 4.67-19.45 9.15-38.95 13.75-58.42 1.99-8.4 4.13-16.77 6.24-25.15.43-1.68 1.16-3.05 3.38-2.57 2.12.46 4.32.8 4.18 3.66a50 50 0 0 1-.78 7.25c-2 10.2-3.52 20.53-6.3 30.52-4.7 16.8-10.21 33.37-15.38 50.04-1.07 3.46-2.63 6.85-3.11 10.38-.66 4.8-.5 9.69-.66 14.54-.41 12.1-.86 24.21-1.2 36.32-.28 10.84-.44 21.7-.63 32.55-.03 1.57-.4 3.36.2 4.7 1.5 3.36.9 6.6.5 10.04-.41 3.49-.1 7.06-.1 10.44 1.36.31 3.04.22 3.4.87 1.41 2.5 3.62 2.3 5.88 2.44 2.98.19 5.95.53 8.73.8l-6.34 29.86-.88.05c-3.4-7.63-1.74-15.65-1.06-23.75l-9.82-1.8-2.73 25.8c-3.18-1.18-4.38-3.13-4.97-5.79-1.6-7.26-2.97-14.5.38-21.88l-3.52-1.53c-1.15 1.03 1.4 3.4-1.83 3.65-4.4.32-3.47-3.08-4.17-5.7-6.3.29-12.47.7-18.65.85-12.33.29-24.67.43-37 .63h-3l.28 4.6c7.2-1.82 13.53 3.31 13.25 10.66-.12 3.34 1.2 5 4.18 6.26 6.79 2.85 13.65 5.61 20.16 9 2.8 1.46 4.85 1.79 7.83.76a37.6 37.6 0 0 1 19.47-1.48c1.68.32 3.2 1.74 4.64 2.87.28.22-.2 1.4-.32 2.14l-.88.5c6.24 3.87 12.36 7.92 18.75 11.52 6.42 3.62 13.12 6.73 19.66 10.17 5.8 3.06 11.53 6.26 16.73 9.09 7.5-5.54 15.6-4.57 23.08-6.16a4 4 0 0 0-1.82-.56c-4.12-.41-8.19-.97-11.82-3.23-2.54-1.57-5.28-2.86-7.74-4.55-4.61-3.18-9.36-6.18-11.44-11.96-1.4-3.9-6.89-6.18-10.94-5.2-7.37 1.76-14.72 3.6-22.1 5.2-1.3.28-2.81-.41-4.23-.66 1.1-3.44 3.29-4.48 5.94-5.16 4.02-1.03 7.94-2.42 11.94-3.51 3.64-.99 7.19-2.25 11.05-.09 4.74 2.65 10 4.37 14.58 7.24 4.84 3.04 9.06 7.07 13.72 10.44a26 26 0 0 0 7.07 3.67c2.92.93 6.05 1.19 9.1 1.7 5.86.99 11.21 3.59 17.44 4.02 9.25.65 18.4 3.12 27.5 5.22 4.66 1.08 9.73 2.37 11.6 7.6 1.27 3.61 1.82 7.5 2.45 11.3.42 2.49.64 5.07.48 7.57-.1 1.66-1.15 3.23-1.6 4.89-.98 3.61-1.85 7.26-2.77 10.89-1.24 4.93-4.62 7.07-9.48 7.45-9.71.75-19.42 1.63-29.14 2.31-1.75.12-2.39.65-2.6 2.33-.7 5.9-3.43 8.62-9.1 8.98-5.08.32-10.18.41-15.27.66-.78.03-1.55.36-2.32.55h-4.16zM429.29 463.14l.08.04-.06-.07-2.54-3.41-.85.9zm-8.87-185.3c-2.23.02-3.11 1.35-2.72 3.32.45 2.27 2.64 3.04 5.08 2.05l1.15-.53c1.95-.55 2.27-1.76 1.26-3.36-1.18-1.86-2.7-2.83-4.86-1.42zm-28.45 244.7-5.41 2.17c2.36 8.95 3.22 9.98 6.9 9.49l-1.58-11.71.34-.47-.25-.04zm33.25-192.91 11.35-14.1-6.73-4.68-9.24 8.2c4.12 2.62 4.52 6.6 4.7 10.66-.46-.37-1.01-.67-1.37-1.12-1.72-2.17-3.38-4.38-5.27-6.84-1.61 1.97-2.86 3.35-3.93 4.85-1.4 1.96-2.67 4.02-3.68 5.57l7.58 6.65zm212.99-111.66 1.48 1.16.3-.39-1.25-1.16c-4.82-5.13-10.85-8.51-17.06-11.54-17.69-8.64-36.61-13.41-55.8-17.13-10.98-2.14-22.15-3.27-33.25-4.84-1.46-.2-2.16.26-2.52 2-.55 2.7-1.71 5.28-2.75 7.84-.18.45-1.06.6-1.54.86l1.67-10.89-17.83-1.04c.56 1.23 1.17 2.31 1.55 3.47 2.1 6.42.97 13.05 1.08 19.6.02.95-.59 2.59-1.22 2.76-3.34.9-2.84 4.12-4.35 6.07a130 130 0 0 0 8.71-4.26c.58-.3 1.32-.64 1.56-1.16 1.92-4.03 4.06-5.17 8.32-4.28 1.69.36 3.39.72 5.1.98 8.81 1.38 17.49 3.48 25.39 7.63 5.85 3.07 11.16 7.16 16.78 10.68 9.7 6.1 17.29 14.29 23.74 23.63 2.9 4.2 5.65 8.52 8.63 13.01l-2.02.42-2.08 12.83c.73.04 1.31.15 1.87.08 5.36-.73 5.92-.62 7.17 4.76.97 4.14 1.4 8.46 1.58 12.72.17 3.95-.34 7.93-.48 11.9-.03.67.09 1.6.51 1.98 3.64 3.21 7.37 6.34 11.46 9.82l-3.6 2.25c.17 3.55-2.19 5.88-5.46 6.91-2.12.68-2.6 1.87-2.93 3.63-2.51 12.99-6.64 25.38-13.76 36.63-.85 1.34-1.1 2.1 0 3.52 2.12 2.75 4.5 5.56 5.68 8.75a1491 1491 0 0 1 16.32 46c2.45 7.32 3.46 15.04 7.11 22.07 4.96 9.54 9.42 19.34 13.9 29.11 1.6 3.46 2.64 7.16 3.93 10.72-4.8 1.28-4.05 5.72-6.26 8.14-2.38 2.63-4.1 5.86-5.87 8.49l4.27 2.64c-2.63 1.28-4.41 2.04-6.07 3-.65.39-1.58 1.41-1.44 1.83.33.98 1.08 2.3 1.92 2.56 8.57 2.5 17.25 4.64 25.78 7.28 4.87 1.52 9.52 3.77 14.14 5.64-.36-2.56-.53-4.6 2.25-6.5 2.74-1.88 6.56-2.55 7.2-7.43.73-5.62 5.21-8.7 10.74-10.34 9.19-2.74 18.26-5.86 26.68-8.58-1.25-10.21-2.5-20.65-3.8-31.1-.3-2.27-.02-5.23-1.34-6.63-2.77-2.95-4.82-7.15-9.61-7.68-.24-.02-.5-.33-.63-.57-.8-1.58-2.63-3.36-3.77-3.45-7.5-.63-15-1.14-22.5-1.84-4.32-.4-8.62-1.06-12.93-1.66-2.61-.37-5.22-.85-7.68-1.26 2.03 18.59-1.37 36.16-7.49 53.44-.73-.93-1.21-1.93-1.06-2.82 1.03-6.2 2.53-12.33 3.21-18.57.62-5.53.47-11.15.5-16.73.04-5.13-.27-10.27-.12-15.39.04-1.5 1.15-2.96 1.77-4.45q1.27.75 2.57 1.43c.25.12.58.1.88.11 6.44.4 12.89.7 19.31 1.22 4.36.36 8.7 1.03 13.03 1.59 3.25.42 6.5.9 10.35 1.44-3.3-6.26-6.42-11.75-9.17-17.42-6.9-14.2-13.8-28.4-20.32-42.78-1.57-3.47-3.51-3.85-6.68-3.18l6.17 17.64c-2.69-5.25-4.64-10.75-6.8-16.16-.45-1.13-1.58-2.1-2.6-2.84-3.83-2.78-8.04-5.1-11.51-8.24-2.46-2.24-3.97-5.53-5.97-8.44-.26.37-.42.79-.72.98-1.08.7-2.2 1.82-3.3 1.8-.71-.01-1.62-1.61-2.05-2.66a39 39 0 0 1-1.68-5.48c-3.77-15.44-7.7-30.85-11.2-46.34-1.8-7.99-2.85-16.15-4.24-24.23-1.36-7.91-2.79-15.81-4.08-23.74-.58-3.52-.91-7.08-1.35-10.63l.86-.6c.85.8 2.11 1.42 2.46 2.39a51 51 0 0 1 2.1 7.78c2.63 13.64 5.1 27.3 7.79 40.94 2.45 12.39 5.1 24.74 7.67 37.1q2.4 11.58 4.84 23.13c.86-1.35 1.96-3.05 1.54-4.17-2.44-6.44-3.17-13.15-3.87-19.89-.4-3.75-.63-7.52-.93-11.27l.45-.1.6 2.17c.76-4.48 2.04-8.7 3.23-12.95.36-1.28.93-2.79.58-3.94a1791 1791 0 0 0-12.47-39.52c-.75-2.26-3.14-3.96-4.01-6.2-2.63-6.76-4.9-13.67-7.36-20.71-.95-.37-2.54-.61-3.54-1.51-.62-.56-.33-2.12-.45-3.24q1.12-.06 2.23-.08h6.1l.33-1.52c-2.1-.93-4.18-2.52-6.32-2.63-3.83-.19-3.84.2-4.7-3.37l16.7-5.15c-.62-1.4-3.9-3.23.16-5.34.38-.2.29-1.45.28-2.22 0-.8-.16-1.62-.26-2.43.88.07 1.84-.08 2.61.23 3.01 1.24 5.96 2.61 8.93 3.94zm-50.11 92.2.7-.1c-1.07-2.89-2.26-5.73-3.19-8.66-1.54-4.83-2.78-9.77-4.37-14.58-3.5-10.5-7.11-20.95-10.72-31.41-1.75-5.1-3.53-10.2-5.44-15.25a3.7 3.7 0 0 0-2.1-2.01c-2.96-.78-6-1.29-9-1.85-8.45-1.58-16.85-3.3-25.33-4.62-3.57-.56-7.13-2.53-10.94-.2-3.46 2.12-7.3 3.62-10.83 5.65-1.16.67-2.29 2-2.7 3.27-1.8 5.43-2.93 11.11-5.03 16.4-7.36 18.55-15.66 36.73-20.84 56.07-.58 2.14-1.42 4.6-.9 6.57 2.52 9.65 5.51 19.17 8.25 28.77 1.05 3.7 1.86 7.47 2.84 11.2.96 3.6 2.57 7.15 2.85 10.8.26 3.6 1.46 6.93 1.94 10.44.58 4.28 1.83 8.47 2.8 12.76.7-1.52 1.96-2.98 1.96-4.45.06-13.78-.08-27.56 1.88-41.25q1.29-9.08 2.65-18.14c.28-1.85.72-3.67 1.08-5.5q.5.03 1 .09c.22 1.2.63 2.4.6 3.6a151 151 0 0 1-.6 9.97c-.54 5.62-1.2 11.23-1.83 16.84-.76 6.76-1.69 13.5-2.26 20.28-.44 5.18-.4 10.4-.67 15.61-.15 2.81-.57 5.62-.8 8.43-.34 4.15-.73 8.3-.84 12.45-.03 1.02.65 2.28 1.4 3.05 7.73 7.98 12.7 17.77 18.05 27.3 2.82 5.02 5.38 10.18 8.06 15.28-1.23-17.98-1.1-35.86-.31-53.76q1.03.67 1.17 1.44c1.22 6.83 2.76 13.62 3.5 20.5.95 8.96 1.28 17.97 1.86 26.96.22 3.43.35 6.86.62 10.28.76 9.74 1.74 19.47 2.25 29.22.15 2.86.96 4.4 3.57 5.39s5.09 2.32 7.6 3.53c7.54 3.61 15.1 7.2 22.6 10.88 3.12 1.54 6.14 3.3 9.1 4.9l-3.5 2.82c2.61.38 4.83.2 6.52 1.06 5.12 2.6 8.68-.51 12.72-2.66a331 331 0 0 1 21.35-10.59c4.42-1.95 9.22-3.02 13.73-4.44.63-7.69 4.22-14.12 8.22-20.42.42-.66.74-1.83.45-2.44-3.7-7.58-7.72-15.02-11.23-22.69-2.45-5.35-4.2-11-6.3-16.58l-6.05 4.76c-.4-.6-1.16-1.55-1.66-2.61-2.25-4.8-4.17-9.77-6.7-14.42a173 173 0 0 1-14.24-34.62c-1.14-3.99-1.69-4.43 2.68-7.06 2.44-1.48 5.03-2.72 7.7-4.15-2.24-5.81-6.74-10.45-10.91-15.26-4.88-5.62-10.33-10.74-15.05-16.49-9.47-11.56-16.88-24.43-22.89-38.1-.32-.72-.3-1.58-.43-2.37l.92-.44c5.89 9.15 11.5 18.48 17.72 27.38 6.4 9.15 14.01 17.32 22 25.74l.9-4.77-3.6.2c0-1.22-.37-2.61.1-3.61 2.88-6.13 4.02-12.67 4.65-19.27.32-3.38.68-6.82-1.82-10.07-4.65-6.05-8.83-12.47-13.09-18.81-.5-.77-.3-2-.44-3.03 1.09.2 2.52.04 3.2.68 1.97 1.86 3.63 4.04 5.42 6.1zm-80.47 503.02c2.33.4 4.44.67 6.51 1.12 5.75 1.25 11.5 2.44 17.17 3.96 1.2.33 2.72 1.87 2.93 3.06a75 75 0 0 1 1.25 12.5c.03 8.17-.36 16.34-.52 24.52-.09 4.89-1.65 8.78-6.35 11.07-2.68 1.3-5.1 3.14-7.77 4.5-1.71.87-2.24 1.86-1.7 3.72.6 2.03.88 4.16 1.38 6.64h40.98c-.35-8.38-.66-16.8-1.06-25.2-.2-4.07-.55-8.13-.86-12.53-3.68 4.8-7.49 6.2-11.36.42 2.2-4.5 6.5-8.46 11.57-5.55v-7.54c-2.59.1-5.13.56-7.55.2-1.88-.3-3.85-1.15-4.29-3.74-.47-2.82.87-4.09 3.16-5.11 3.27-1.47 5.94-.08 8.32 1.42l2.43-42.88c-2.8.66-5.6 1.44-8.43 1.96-6.48 1.2-11.1-1.55-12.99-7.56-2.57-8.21 1.29-15.56 9.2-17.64.52-.14 1.1-.77 1.28-1.3 1.32-4 2.55-8.02 3.88-12.27-4.47.45-6.8-1.85-8.01-5.57-1.05-3.25-1.98-6.54-2.98-9.85-1.5.15-3.23.48-4.95.46-1.48-.01-2.18.5-2.76 1.85-2.88 6.67-6.15 13.2-8.8 19.95-5.86 14.94-13.55 29.22-16.4 45.27-.83 4.7-2.15 9.3-3.3 14.11zm62.85-296.65c-7.27-2.85-14.07-5.35-20.73-8.17-6.68-2.83-13.23-5.98-19.82-9.01-1.6-.74-3.46-1.89-1.53-3.64 1.6-1.46 1.24-2.9 1.1-4.44-.27-2.7-.79-5.38-1.05-8.08-.53-5.36-.93-10.73-1.46-16.09-.15-1.59-.09-3.43-.87-4.7a722 722 0 0 0-13.57-20.7c-.4-.59-1.7-1.14-2.31-.92-6.02 2.15-12.2 1.62-18.5 1.31-1.72 4.82-3.55 9.65-5.13 14.55-.32 1-.12 2.66.54 3.38 3.42 3.76 7.08 7.32 10.8 11.11 4.99-1.24 10.67-2.02 16.45-.85.78.16 1.44.91 2.15 1.4-.6.5-1.13 1.3-1.82 1.48-4.1 1.1-8.24 1.98-12.33 3.12-.75.2-1.58 1.18-1.82 1.97-1.47 4.95-3.12 9.89-4.05 14.95-.7 3.74-3.51 7.15-1.98 11.28.07.18-.19.5-.32.73l-4.02 6.76.56 1.02c2.78 0 5.62-.35 8.34.08 4.16.65 8.32 1.57 12.33 2.86 11.72 3.75 22.38 9.64 32.71 17.34l17.36-19.05.79 4.1c2.45-.13 5.63 1.32 8.17-1.78zm-24.95 23.57c-.85-1.79-1.53-2.61-1.61-3.48-.18-2.12-1.56-3.11-3.14-4.06a121 121 0 0 0-29.44-12.6c-4.08-1.15-8.2-2.17-11.95-3.15 1.75 11.95 1.51 23.59 1.86 35.43 7.22-.84 14.27-1.6 21.3-2.48 10.57-1.33 21.13-2.88 31.71-4.1 8.6-.98 17.24-1.49 25.84-2.48 3.24-.37 6.4-1.5 9.43-2.25l-3.1-13.44c-3.72-.3-7.23-.76-10.74-.8-2.51-.02-4.32-.66-5.46-3.02-.8-1.67-1.95-2.04-3.95-1.4-1.98.66-4.28.36-6.44.48l-.14-.89-1.4 2.15c6.42 2.76 6.87 3.04 6.86 7.25 0 2.28 1.27 5.2-1.99 6.76l-2.59-6.6c-2.66.9-4.64.5-5.5-1.79zm53.67 12.16c10.75-3.4 21.07-6.6 31.35-9.93 2.23-.72 2.9-3.24 1.85-5.37-.68-1.38-1.37-2.77-1.85-4.23q-3.31-10.11-6.4-20.28c-.5-1.63-.83-2.35-2.74-1.41-10.17 4.97-20.41 9.8-30.64 14.7zm16.22 139.65-7.18-.82c-4.06-.44-8.18-.6-12.15-1.46-1.86-.4-2.36.01-2.96 1.46-2.26 5.39-4.45 10.8-6.94 16.1-1.24 2.63-1.5 4.34 1.19 6.43 3.75 2.9 6.77 6.16 12.45 4.95 5.1-1.09 5.96-1.07 7.59-6.2.49-1.52 1.25-2.95 1.83-4.45 2.03-5.24 4.04-10.5 6.16-16.01zm25.6-380.66-.95-.05c-.8 4.3-2.12 8.59-2.26 12.91-.44 12.4 1.83 24.21 8.73 34.85 3.84 5.92 9.46 9.59 15.57 12.65.7.35 1.76-.02 2.66-.05-.13-.8-.11-1.68-.42-2.42-1.92-4.5-4.05-8.93-5.82-13.49-.73-1.87-1.64-2.35-3.57-2.52-1.64-.15-3.24-1.3-4.72-2.23-.32-.2-.31-1.5 0-2 .22-.36 1.31-.46 1.86-.27 1.29.45 2.48 1.16 3.7 1.76l.69-.61-9.42-18.12c.11-.97.56-2.04.28-2.85-2.02-5.88-4.2-11.7-6.33-17.54zm-5.62 225.15 21.65 6.75 8.86-18.03-35.61-9.22zm-79.17 150.2c.3 1.65.63 2.68.67 3.73.25 5.56.5 11.13.58 16.7.04 2.19.53 2.75 2.74 1.9 2.04-.78 4.3-1 6.67-1.52.93-4.04.28-9.67 5.97-12.12 3.95-1.7 7.53-.76 10.47 2.58l4.04-9.23zm5.9 85.67c.26-.69.58-1.29.72-1.93 2.59-11.4 5.17-22.82 7.65-34.25.13-.64-.41-1.85-.98-2.14-2.9-1.47-5.97-.67-8.27 1.96 3.3 1.42 1.03 3.6.47 5.2-3.2 9.25-6.63 18.45-10.08 27.93zm-109.6-416.94c-.1-.45-.03-1.1-.32-1.32-2-1.54-4.1-2.94-6.09-4.48-6.77-5.23-16.22-3.33-20.75 4.13a23 23 0 0 0-3.24 15.66c1.16 8.35 9.94 16.89 19.83 12.44 4.13-1.86 7.66-4.4 8.86-9.44-2.51.07-4.85-.72-5.85 2.7-.33 1.16-2.61 2.4-4.03 2.44a26 26 0 0 1-8.55-1.13c-7.9-2.57-11.02-10.27-6.46-16.59 2.14-2.97 5.92-4.98 9.29-6.8 4.08-2.2 8.42-2.2 11.97 1.36 1.61 1.62 3.25 1.74 5.33 1.02zm144.72 33.02 16.59 51.54 5.76-2.29-17.99-52.28zM482.85 506c-.35 2.42-.94 4.66 1.04 6.68.72.73.98 2.05 1.17 3.16 2.23 12.58 4.4 25.18 6.56 37.64l6.06-1.05c-2.09-11.8-3.15-23.67-2.23-35.7-2.53-.44-5.31-.58-7.78-1.52-1.15-.44-2.26-2.37-2.4-3.73-.18-1.71.65-3.53 1.08-5.46h-3.5zm-20.22-208.88c-.15-1.2-.13-2.48-.48-3.66-1.02-3.39-1.43-3.56-4.68-2.43-7.25 2.53-13.6 6.58-19.6 11.53 6.4.6 7.67 1.4 6.83 3.76l-8.13-2.7-3.26 2.67 7.33 5.54c11.9-11.18 15.42-12.83 21.98-14.71zM575.8 942.77c.54.03 1.39-.12 2.07.16 2.72 1.11 3.48-.03 3.41-2.6-.08-3.47.15-6.96-.05-10.42-.5-8.13-1.15-16.24-1.79-24.36-.03-.41-.43-.8-.97-1.7-1.37 1.96-3.24 3.52-3.59 5.37-.57 3.06-.27 6.32-.13 9.48.37 7.99-2.42 16.08 1.05 24.07m-80.47-528.29c-2.03 1.54-3.95 3.2-6.06 4.57-11.66 7.58-23.44 15-35.03 22.7-5.27 3.48-10.22 7.45-15.27 11.26-.39.29-.42 1.05-.71 1.9 5.75-3.86 10.8-7.6 16.2-10.77 12.1-7.1 24.38-13.88 36.53-20.88 3.21-1.86 6.98-3.64 4.34-8.79zm-113.63 23.8.38-.9 2.33-.59-3.59-18.15c-1.7 7.05-2.78 13.34-1.5 19.93 1.39 7.1 2.39 14.32 6.16 20.66 1.46 2.45 3.55 4.52 5.35 6.77l1-.65-6.33-25.2zm76.66 74.27c0 6.65.07 12.7-.01 18.74-.19 14.52.03 29.02 1.73 43.48.45 3.8.11 3.84 3.78 3.51.35-.03.69-.16 1.05-.25-3.61-10.37-3.64-21.09-3.99-31.66-.35-10.83-1.05-21.74.94-32.61zm-7.2-224.82c.36.12.56.28.72.24 2.44-.58 4.9-1.13 7.33-1.8 4-1.12 7.9 1.78 8.07 6 .07 1.73.34 3.45.48 4.84-3.47 2.46-7.05 4.98-11.13 7.85 7.93.77 14.19-2.66 15.31-7.18 1.43-5.72-1.12-13.39-5.37-14.98-4.91-1.82-12.01-1.48-15.41 5.03M629.64 546.5c-8.2 4.37-16.56 8.82-24.9 13.32-.44.24-.97 1.04-.88 1.45.47 1.98 1.13 3.91 1.77 6.01 6.88-4.62 13.23-9.1 19.8-13.2 3.08-1.91 4.68-4.18 4.2-7.58zM419.86 418.08l.38.05c.24-1 .64-2 .7-3.03.26-4.4.42-8.8.62-13.2.2-3.92-.41-8.1.78-11.68 2.52-7.6-3.23-11.73-5.97-17.14zM581.03 11.15c-4.06-3.56-8.54-5.97-14.03-5.8-5.2.16-10.4.29-15.6.62-3.47.22-6.95.65-10.39 1.18-3.28.5-6.51 1.25-9.77 1.9 16.7-1.23 33.25-.51 49.8 2.1zM384.3 343.4c-1.51 3.08-3.44 6.53-4.91 10.16-1.17 2.9 1.6 6.76 4.88 7.1-2.25-3.24-2.74-6.72-1.05-10.15.53-1.08 2.18-1.62 3.7-2.67l-1.21 13.39 8.17-1.55c-1.13-1.83-2.44-3.34-3.07-5.1-.86-2.4-1.22-5-1.8-7.52-.08-.31-.1-.75-.3-.89-1.3-.86-2.62-1.66-4.4-2.76zm214.41-17.5c.1.1.23.34.39.35 1.05.13 2.1.2 3.16.3 1.45.14 2.8 2.3 2.35 3.67-1.2 3.7-2.55 7.35-3.5 11.1-1.16 4.64-1.98 9.36-2.95 14.04l1.23.37 10.4-29.75-7.36-2.73-3.71 2.67zm-76.08-160.34c-.23-4.24-4.31-4.94-6.01-7.56 1.38 6.3 2.8 12.48.75 18.77l9.62.54c-.7-3.21-1.55-6.43-2.03-9.7-.28-1.86-.93-2.55-2.33-2.05M395.88 358.31l.67.5 10.88-8.1-3.95-8.23c-2.11 1.52-4.16 2.98-6.16 4.5a2 2 0 0 0-.67 1.2c-.3 3.37-.52 6.75-.76 10.13zm161.4 313.4 1.05-32.9c-1.92 7.18-3.34 14.37-4.8 21.54-.38 1.87-.5 3.92-1.4 5.52-.98 1.76-.66 2.68.86 3.55 1.16.66 2.36 1.26 4.28 2.29zM431.7 84.66l-.55-.49c-1.02.99-2.78 1.88-2.92 2.98-.4 3.12-.24 6.33-.13 9.5.35 9.91.6 19.82 1.26 29.7.27 3.94 1.54 7.8 2.36 11.68.29-2.8-.07-5.48-.42-8.15q-1.04-7.8-2.02-15.6c-.34-2.82.45-5.47.92-8.23 1.2-7.01 1.09-14.25 1.5-21.4zm27.25 271.53c-1.28.63-2.44 1.75-3.36 1.57-4.27-.82-4.24-.95-5.6 3.35-.38 1.18-.95 2.33-1.1 3.53-.35 2.97.8 4.24 3.73 4.02 2.26-.18 4.5-.71 7.16-1.15-4-3.72-1.4-7.52-.84-11.32zm102.27-334.5-.15 1.35c2.03.63 4.1 1.9 6.09 1.76 7.44-.49 14.87-1.43 22.22-2.2q-1.2-2.44-3.99-2.43c-4.64 0-9.3-.19-13.92.07-3.43.19-6.83.95-10.24 1.45zm-133.9 476.55c-3.28 3.7-1.55 36.58 1.8 39.63zm98.63 323.6-13.13-1.8.87 8.27 12.26-.85zm-128.43-504.1-.97.1c-2.27 7.74-.74 15.64-.96 24.15 2.12-1.83 4.14-3.04 5.3-4.8.58-.89-.46-2.78-.7-4.23-.43-2.67-.76-5.35-1.22-8-.42-2.42-.96-4.81-1.44-7.21zm24.14-75.49 12.91-2.82-.72-5.58-13.35 1.65c.4 2.27.8 4.72 1.16 6.75m23 116.87c-4.33-.13-7.11 3.15-10.22 5.84-1.8 1.55-1 2.69.54 3.66 2.9 1.84 6.03 1.36 8.43 1.13zm-20.7-94.67 14.27-2.3-1.34-6.6-12.94 4.16zm43.8 91.26c-2.73.15-5.24.27-6.13 3.44-.6 2.1-1.95 4.24.19 6.17 2.36 2.13 4.8.83 7.26.1l-1.31-9.71zm-63.96 45.87-1.34-6.42-12.19 3.89c.16.9.36 1.57.37 2.22.04 1.85 1.14 2.01 2.6 1.8 3.35-.5 6.7-.95 10.55-1.5zm192.8-366.3c0-.07 0-.66.1-1.22.7-3.29-.14-4.4-3.38-4.39h-20.96zm-31.36 125.4c1.78-3.2.62-11.68-2.05-14.2-.57-.55-1.66-1.03-2.33-.85-.49.13-.83 1.36-.95 2.15a16 16 0 0 0-.03 3.26c.3 5.24 1.88 8.06 5.36 9.63M440.52 481.21l-.35 1c1.8.53 3.59 1.52 5.4 1.53 5.67.05 11.36-.09 17.02-.51 4.41-.34 8.78-1.22 13.17-1.86l-.05-.17zM575.6 718.27c1.6-3.8 2.68-7.3 1.01-11.28-.91-2.17-.69-4.82-.97-7.25-.7 2.8-1.08 5.65-1.52 8.49-.3 1.96-.65 3.97-3.45 2.7-2 4.18.36 7.59 4.93 7.34m-24 203.29.19-1.14c-.92-.45-1.83-1.28-2.74-1.27-4 .05-8 .23-11.98.63-.77.08-1.43 1.39-2.15 2.13.76.64 1.53 1.83 2.29 1.83 3.41 0 6.85-.19 10.24-.6 1.42-.16 2.77-1.03 4.15-1.58M409.13 335.52c-5.75 4.35-.52 9.03-1.25 13.49l.85.48 6.12-6.99zm14.11-82.96 13.23-1.14-1.41-5.97-12.44 3.8zM394.1 90.18c7.12-.03 14.44-1.32 18.34 6.65l1.98-.99c-1.22-5.35-5.2-7.7-9.76-8.4-3.47-.52-7.63-1.32-10.56 2.74m38.61 131.96-14 2.6.65 4.29 13.35-2.78zm71.5-204.48c-.4-2.72-2.41-3.03-3.85-2.38a236 236 0 0 0-16.38 8.17c-2.27 1.24-4.14 3.2-6.19 4.84 8.5-4.28 16.22-10 26.42-10.63m21.74 827.03c-2.25.47-4.23.92-6.22 1.28-4.79.87-4.8.85-4.3 5.64.01.12.25.22.2.18l10.32-2.54zm-34.63-657.55c-6.14-3.96-12.72-3.18-19.26-2.61 6.2 3.04 12.5 5.22 19.26 2.6M461.77 331.2c2.28 4.34 2.26 4.31 6.3 2.4 1.66-.8 3.4-1.45 5.04-2.12l-1.6-5.44zm51.94 503.9 12.15-1.13v-3.53H513.7zm3.49 26.55c2.23-.94 4.04-1.8 5.92-2.47 3.92-1.4 3.94-1.36 3.2-5.35l-10.12 2.8zM405.4 423.78l-9.56.82.97 5.69 8.6-2.78zM423 453.9c.58-9.04-.27-18-1.63-26.93-.34 9.02-1.04 18.07 1.64 26.93m105.19 409-1.15-3.65-9.79 3.61 1.23 4.02zm-69.6-470.24-7.9 3.4c.2.6.37 1.02.51 1.45 1.02 3.05 1.3 3.14 4.3 1.67 1.63-.8 3.32-1.45 4.93-2.14zM442.35 84.51l.88.13c.76-.89 1.38-1.97 2.3-2.63 3.62-2.6 7.35-5.06 11.02-7.6.89-.62 1.7-1.35 2.54-2.02l-.42-.6c-5.76 2.07-11.17 4.76-15.31 9.49-.68.77-.69 2.13-1 3.23zm6.71 317.63-1.73-5.25c-2.1 1.02-4.54 1.45-5.4 2.85-.81 1.33.02 3.68.15 5.9zm76.4-251.7c3.69 8.88 6.3 17.95 5.95 27.72 3.9-1.32.66-16.29-5.94-27.72M514.25 842.6l11.84-1.94-.21-2.88-11.63 1.24zM486.6 380.7l-1.1-3.8-6.48 3.68 2.87 5.48 4.7-5.35zm-53.3-105.2c-1.89-.04-4.03-.23-4 2.5.01 2.37 1.77 2.87 3.82 2.86 2.12-.01 3.66-.78 3.85-3.02.24-2.9-1.97-2.29-3.67-2.33m-33.7 230.35c-1.43 0-2.6.08-3.73-.03-1-.1-1.96-.45-3.34-.78l-3.44 6.2c2.83-1.18 5.1-2.6 6.66.66zm7.3-7.75 6.8-4.95c-4.37-1.25-8.2-.88-11.1 2.72zm-1.76 1.6-5.66-1.73-4.41 3.86c3.92 1.47 7.94 3.15 10.07-2.14m-18.42 20.8c2.11-.45 4.06-.88 6.04-1.32l1.72-4.9-6.71.86zm84.85-134.73 1.57 4.55 6.16-3-2.84-4.4zm150.42 217.46 3.6 12.17 4.45-2.19zm-20.62-316.39-.74-.43c-.52.77-1.44 1.52-1.48 2.32a87 87 0 0 0 0 9.46c.04.65 1.07 1.24 1.64 1.85l.58-.54zM562.2 645.76l-.97 28.05.87.03c1.5-9.32.37-18.71.1-28.08M415.44 469.25l-2.19-5.44-8.42 1.9-.03.91zm48.51-74.19 5.58-2.82-1.48-4.53-4.82 2.62zm-71 16.62.86 3.96 10.54-3.51-.09-.45zm149.37 487.7 1.64 8.5 1.28.02.93-6.53c.4-2.78-.62-3.66-3.85-1.98zM400.8 449.49c.62 1.82.33 4.06 3.11 3.54 1.89-.35 3.8-.6 5.86-.9l-.88-2.64zm19.12 31.05c-1.85-2.28-3.01-5.01-4.54-5.24s-3.45 2.05-5.6 3.51zm32.22-158.18c-7.33-1.65-12.25-.93-14.23 2.32zm-11.58 5.07.1 1.37c4.46-.1 9.02 1.05 13.35-.99l-.06-1.04zm12.32 178.23 16.08.74.07-1.24c-5.18-.35-10.35-.71-15.52-.99-.17 0-.38.9-.62 1.5zm-7.74-358.47c2.68 3.3 8.55 4.47 13.83 2.9zm106.53-18.69c-3.28-3.83-5.76-3.13-6.87 1.32zM465.1 473.73c.87-5.99-.26-14.7-2.46-16.88zm-5.78-5.56h1.02v-10.32c-.71.65-1.39.98-1.38 1.29.05 3.01.22 6.02.36 9.03m80 425.61h-.76c-.17 5.32-.22 10.63 1.95 16.08zm15.78-51.01-1.52.26c-.1 1.3-.61 2.78-.16 3.85.32.73 1.98.88 3.04 1.29l.87-.96zM403.46 103.15l.05-.92h-6.9c.74 2.88 2.96 3.12 6.85.92m70.3 304.98c-2.9-.13-3.17.14-4.64 4.28 2.98.34 4.5-1.01 4.65-4.28m-18.07 50.85-1.2.08 2.02 14.5.73-.07zm142.17-151.44 10.05-.86c-.52-2.34-2-2.32-3.48-1.8-2.22.78-4.36 1.76-6.57 2.66m-65.43 588.2-.95.09 1.84 14.49.57-.05zm-64.52-649.4-6.15 2.89.36.96c2.08-.56 4.17-1.1 6.21-1.77.08-.02-.26-1.3-.42-2.09m-18.06 87.3-.23-.96c-2.14.5-4.29.97-6.4 1.56-.36.1-.56.73-.84 1.12.48.18 1.03.6 1.4.49 2.05-.66 4.06-1.46 6.07-2.21m-29.72 154.63h-5.79c4.5 3.56 4.85 3.55 5.79 0m249 584.35 1.15.16 1.37-8.02-.79-.13c0 2.77-2.81 5.03-1.73 8zm-227.3-699.03-9.93-1.77c3.04 1.43 5.88 3.92 9.93 1.77m-42.69 67.35 7.7-2c-1.36-.36-2.62-.23-3.9-.18-1.45.04-2.91 0-4.44 0q.37 1.23.64 2.19zM591.26 19.76c-.19 4.07 1.22 3.52 4.94 2.66zM440.33 96.9l.57 1.46 5.8-2.45-.44-1.13zm24.1 316.87q-.2-.66-.43-1.3c-2.39-1.38-3.13.98-4.37 2.21q.22.54.47 1.06zM598.1 281.94l.56 3.47q.42.15.85.33l1.7-3.97-.74-.5zM475.68 407c1.6.73 2.34 1.33 3.09 1.34.7.01 1.43-.59 2.14-.91-.87-.6-1.68-1.35-2.63-1.7-.42-.15-1.14.52-2.6 1.28zM447.51 65.78l-.84-.78-2.9 3.27zM424.13 455.7l-.64.37 2.23 3.87.84-.51zm99.6 148.3.6.67 2.01-1.67-.48-.6zm3.73-2.94.58.62 1.87-1.74-.58-.62zM451.78 62.87l-.38-.53-2.03 1 .22.5zm81.8 534.34-.52-.7-1.38.92.27.52zm3.14-3.1-.4-.45-1.44 1.15.3.4zm-89.09-529.7.12.47 1.67-.45-.12-.53zM500.54 0l-.26.95-.33-.95z"/><path fill="#000" d="M561.9 1030.51c-.16 8.32-4.03 13.93-11.97 16.35-9.77 2.97-23.86-.37-28.39-9.96-1.56-3.31-2.52-7-3.11-10.63-.96-5.81 2.36-10.02 6.67-13.09 4.08-2.92 8.86-5.16 14.07-4.36 8.23 1.27 20.16 7.28 22.1 16.78.32 1.61.42 3.27.63 4.91m-20.85 11.15c2.2-.29 4.47-.34 6.6-.91 5.75-1.54 8.82-5.65 9.66-11.34.7-4.7-1.26-8.31-5.41-10.65-2.6-1.48-5.17-3.08-7.93-4.21-4.4-1.81-8.9-2.37-13.12.7a82 82 0 0 0-3.71 2.82c-5.67 4.65-5.24 13.91-1.04 18.3 4.08 4.25 9.37 5.09 14.94 5.29zm-1.89-47.93-27.77-2.9-.27-4.1 28.21 5.87zM423.93 282.67l-1.15.54c-4.02-.55-4.74-2.17-2.36-5.38l-.1.06c2.22.84 4.22 1.83 3.61 4.78"/><path fill="#fff" d="m532.46 895.75 1.46 14.53-.56.06-1.84-14.5zm-112.3-407.48c-.95 3.54-1.29 3.56-5.79 0zm3.77-205.6c.6-2.95-1.4-3.95-3.6-4.78 2.16-1.4 3.67-.44 4.85 1.42 1.02 1.6.7 2.82-1.25 3.36m245.24 789.95c-1.1-2.97 1.72-5.23 1.72-8l.8.13-1.37 8.02z"/><path fill="#fff" d="M420.42 277.83c-2.37 3.21-1.66 4.84 2.36 5.38-2.44.99-4.64.21-5.09-2.06-.39-1.96.49-3.3 2.72-3.32zm3.74 177.86 2.42 3.73-.84.51-2.23-3.87zm5.13 7.45-3.37-2.53.85-.9 2.54 3.4z"/><path fill="#000" d="m522.51 118.13.37 1.04-1.02-.4zm2-5.24-.8.57z"/><path fill="#fff" d="m429.31 463.11.06.07-.08-.04z"/><path fill="#000" d="M549.23 86.74c-3.14-3.85-6.37-7.63-9.4-11.56-3.48-4.49-6.8-9.1-10.15-13.68-.33-.45-.46-1.04-.69-1.56.2-.63.37-1.27.6-1.9q.38-1.04.8-2.07c.73.3 1.75.42 2.14.97 3.05 4.33 6.23 8.6 8.88 13.18 2.89 4.97 5.27 10.25 7.83 15.4.16.33 0 .8-.01 1.22m21-17.44-9.1 4.22c-2.01-3.42-.41-5.31 1.74-6.51 3.75-2.1 7.7-3.89 11.63-5.65.6-.27 2.23.21 2.26.49.13 1.1-.17 2.25-.22 2.66.46 2.54 1.18 4.52 1.03 6.43-.1 1.16-1.36 2.51-2.47 3.14-.5.3-2.08-.74-2.81-1.52-.9-.93-1.43-2.22-2.06-3.25zm-1.42-27.49-15.3 15.37-.76-.22c0-2.47-.24-4.98.12-7.4.15-.96 1.62-1.73 2.49-2.57 3.6-3.45 8.14-4.78 12.7-6.09zm-19.08 10.48c.3 2.77 1.33 5.5.64 7.7-.6 1.86-3.15 3.11-4.85 4.65-3.23-4-2.22-6.75 4.2-12.36zm-19.85 79.52c-2.54-1.15-5.16-2.07-7.45-3.52-.75-.48-.6-2.34-.88-3.57 1.06.06 2.2-.13 3.13.24a40 40 0 0 1 5.94 2.91c.81.49 1.3 1.53 1.93 2.32zm-12.83-72.7-11.4 9.68-.9-1.1 11.7-9.02zm38.11 38.4c-.07-3.72 2.4-4.4 5.36-4.48zm-7.12-57.1 6.6-6.9.9 1.01q-3.79 2.93-7.58 5.83z"/><path fill="#000" d="m516.45 58.67 3.24-3 .44.49-3.08 2.95zm-11.37 9.96-1.4 1.1-.6-.65 1.36-1.12zm42.89-28.3-.13.57-.25-.1.45-.4zm67.36 443.6c-1.08 0-1.78-.2-2.25.03-7.27 3.7-13.1.73-18.65-3.86-4.57-3.77-9.22-7.43-13.83-11.15-.38-.3-.9-.58-1.06-.98-.64-1.5-1.15-3.05-1.7-4.58l4.42-1.11.24.98-3.08.84c1.57 1.04 2.84 1.77 3.98 2.65 4.57 3.52 9.2 6.96 13.61 10.67 4.82 4.05 10.2 5.13 16.25 3.94 1.5-.3 3.06-.38 5.58-.69-1.03 1.98-1.46 3.44-2.37 4.5-3.58 4.11-7.3 8.13-11 12.14a4470 4470 0 0 1-16.92 18.2c-.53.58-1.07 1.23-1.75 1.58-.48.25-1.35.29-1.75 0-.38-.28-.62-1.17-.49-1.66.3-1.1.6-2.36 1.35-3.1A1846 1846 0 0 1 606.54 492c2.74-2.65 5.61-5.16 8.8-8.08zm-121.78-159.4c.22-.9.22-1.96.72-2.68 6.81-9.86 13.62-19.73 20.6-29.47 3.21-4.48 6.79-8.7 10.32-13.2 2.01 1.9 1.91 3.74.98 5.37-2.69 4.64-5.1 9.55-8.45 13.66-7.42 9.07-15.35 17.72-23.08 26.54l-1.1-.2zm31.81-14.87c.43.87 1.2 1.73 1.25 2.62.48 8.63.97 17.26 1.2 25.89.32 11.94.4 23.88.63 35.82.03 1.49.28 2.98.43 4.47l-.84.07c-.27-3.71-.56-7.41-.78-11.12q-.64-11.47-1.24-22.97l-1.74-32.6c-.03-.57.06-1.16.1-1.75zm53.86-8.45-49.54-17.63.32-1.2c2.87.67 5.85 1.03 8.59 2.06 13.7 5.16 27.33 10.48 40.98 15.74zm-53.63-28.95v-32.78l1.14.03c1.44 11.51-.22 22.92-1.14 32.75m-4.81-70.11c-.44-2.86 1.55-3.16 3.75-3.28 6.59-.33 12.98.81 19.35 2.39 17.03 4.21 33.6 9.65 49.18 17.84 1.8.95 3.6 1.92 5.46 2.78 3.04 1.4 4.48 4.11 3.47 7.2-.25.75-1.25 1.46-2.06 1.74-.5.18-1.8-.38-1.9-.8-1.9-8.54-9.78-9.73-15.96-12.52a184 184 0 0 0-37.88-12.17c-6.02-1.26-11.98-2.81-18.02-3.96-1.58-.3-3.35.45-5.4.78m139.24 280.14c-3.61-1.35-2-4.16-2-6.14-.01-3.19.86-6.36 1-9.55.34-7.27.41-14.55.67-21.82.05-1.33.47-2.65.73-3.97 2.73-.2 3.95.98 4.03 3.73.36 12.7-1.6 25.13-4.43 37.76zm-25.22-160.77-2.1-15.32.7-.09 2.21 15.3zm-79.9 537.68c-.3 1.3-.49 3.03-1.14 4.54-.7 1.64-1.9 2.38-3.94 1.43-1.77-.82-3.49-1.37-2.95-3.73.64-2.75 2.89-2.3 4.9-2.24.76.03 1.53 0 3.13 0M519.67 547l-4.73-18.68q5.78 2.71 5.78 7.6v10.83zm6.16-5.44c-.53-3.1-1.17-6.18-1.5-9.3-.09-.66.88-1.45 1.37-2.18.52.61 1.4 1.18 1.49 1.85q.52 3.76.61 7.55c.02.71-.56 1.44-.87 2.15zm-15.5-17.2c1.56 7.03 1.2 14.18.36 21.34l-1.56-21.26zm3.86-440.76c.2 1.59-.28 2.65-2.36 2.54-2.03-.1-4.06-.65-3.98-2.86.05-1.38 1.3-3.38 2.53-3.9 1.7-.7 3.82 1.87 3.81 4.21zm2.6-.88 10.96-8.35c-.7 4.3-6.93 9.42-10.48 9.18zm12.56-16.64c.22.18.52.4.79.64 1.86 1.7.72 4.02 1.17 6.01.03.16-1.43.92-1.55.8-1.08-1.15-2.42-2.32-2.84-3.72-.25-.87.96-2.19 1.57-3.27.12-.2.5-.27.86-.46m-9.61 20.37 7.04-5.2c-1.4 2.96-3.22 5.38-6.35 6.11zm25.32 934.81 8.96 3.19-4.31 4.33-4.65-.51zm3.3 11.86c-1.65 2.57-12.95 2.4-18.98.04 6.17-1.83 12.33.29 18.98-.04m-14.08-5.62c-2.37-3.44-5.26-1.71-8.01-1.09l-.23-.69 2.26-3.11-2.34-2.5h7.44z"/></svg>