<svg xmlns="http://www.w3.org/2000/svg" width="1080" height="1080" fill="none" viewBox="0 0 1080 1080"><path fill="#fff" d="m552.14 955.4 2.4-2.08-14.54 1.07q-3.2.25-6.42.38c-6.04.22-12.1.72-18.14.51-7.8-.27-15.66-.77-23.4-1.83a417 417 0 0 1-30.5-5.32c-13.74-2.94-26.26-9.05-38.48-15.84-7.94-4.41-16.39-8-23.96-12.94a344 344 0 0 1-31-22.44c-10.76-8.86-19.9-19.44-26.57-31.8-3.4-6.3-7.64-10.3-15.22-10.77-4.74-.3-9.43-1.91-14.08-3.19a193 193 0 0 1-12.8-4.11c-1.24-.44-2.7-1.16-3.34-2.2-2.74-4.37-5.6-8.75-7.71-13.44-3.63-8.09-7.29-16.24-9.88-24.69-2.47-8.05-3.83-16.47-5.25-24.8a576 576 0 0 1-3.74-27.06c-.62-5.18-.78-10.4-1.28-15.6-1.17-11.9-2.63-23.79-3.55-35.7-.5-6.46-.2-12.99-.16-19.47q.12-22.86.34-45.7c.06-7.26-.25-14.55.38-21.76.75-8.46 2.3-16.85 3.55-25.26 1.02-6.89 1.81-13.83 3.24-20.64 1.24-5.84 3.12-11.56 4.92-17.26 1.24-3.95.86-7.26-2.5-10-.83-.7-1.48-1.7-2.06-2.65-4.11-6.8-11.71-10.07-16.47-16.1a505 505 0 0 1-18.58-25.26c-2.92-4.22-4-9.33-4.32-14.44a17.4 17.4 0 0 1 3.94-12.46 29 29 0 0 0 3.61-5.47c3.32-6.8 9.53-10.36 15.54-14.11 7.83-4.9 15.94-9.44 22.92-15.55 3.83-3.35 6.64-7.65 6.49-12.96a283 283 0 0 0-1.45-19.73c-.12-1.17-1.13-2.4-2.02-3.3-4.25-4.39-5.93-9.73-6.47-15.66-.3-3.28-1.05-6.54-1.74-9.79-3.27-15.55-.58-29.66 9.63-42.18 5.66-6.94 12.4-12.5 19.86-17.37 13.43-8.77 27.16-17.18 40.01-26.76 7.94-5.92 14.58-13.6 21.66-20.65 9.89-9.85 17.4-21.5 24.48-33.4a698 698 0 0 0 16.45-29.26c3.13-5.87 5.22-12.3 8.48-18.08a642 642 0 0 1 17.4-28.68c5.49-8.6 10.96-17.26 17.1-25.4 4.78-6.34 11.03-11.23 18.9-13.66 7.45-2.29 14.79-4.88 22.21-7.2 9.68-3.03 19.54-2.67 29.44-1.43 12.81 1.6 24.13 6.74 34.14 14.73 4.36 3.49 8.19 7.66 12.65 11 9.36 7.03 19.04 13.64 30 18.03 11.77 4.7 23.51 9.5 33.75 17.16 15.98 11.98 29.49 26.21 38.9 44.02 4.1 7.78 8.68 15.36 12.14 23.42 3.65 8.5 6.5 17.41 6.21 26.93-.34 11.15-2.95 21.87-6.2 32.45-2.55 8.34-5.04 16.73-8.1 24.9-2.64 7.04-6.04 13.8-9.1 20.69-3.25 7.28-5.5 14.77-5.06 22.86.49 9.13 3.35 17.51 9.48 24.24 2.35 2.58 6.34 3.96 9.84 5.13 6.66 2.24 11.3 6.83 15.17 12.27 3.25 4.59 6.14 9.47 8.8 14.42 2.47 4.56 2.75 9.53 2.67 14.76-.27 17.31-10.41 28.08-23.51 37.08-1.22.83-2.73 1.24-4.32 1.95 1.47 1.7 3.33 3.26 4.41 5.26.87 1.6.68 3.74 1.16 5.58.4 1.49.85 3.06 1.71 4.3 6.5 9.4 6.63 12.08.1 21.74a25 25 0 0 1-16.02 10.87c-5.18 1.06-10.58 1.09-16.03 1.58-.46 4.26-.6 9.36-1.67 14.26-.55 2.53-2.33 5.17-4.29 6.94-4.03 3.63-8.56 6.71-13.46 10.45 4.22 5.43 8.57 11.46 13.43 17.06 2.28 2.63 5.87 4.1 8.26 6.67 4.51 4.85 8.81 9.93 12.79 15.22 5.63 7.52 11.2 15.14 16.2 23.1 2.53 4.04 3.74 8.92 5.55 13.44 2.5-3.22 6.6-3.66 10.5-4.6 3.32-.8 6.6-1.71 9.93-2.46 4.76-1.07 9.45-1.85 14.4-.4 2.18.65 4.82.13 7.18-.31 8.42-1.58 15.99.55 23.08 4.95.76.47 1.68 1.14 1.94 1.91 2.04 6.2 7.73 9.75 10.91 15.19 3.22 5.51 7.51 10.4 11.32 15.57.18.25.36.49 1.08.59-.23-2.4-.62-4.79-.64-7.18-.03-2.74-.4-5.5 1.94-7.85 2.46-2.47 5.4-3.08 8.43-2.59 2.6.42 5.08 1.7 7.53 2.8.46.2.42 1.39.76 2.05 2.36 4.62 4.59 9.32 7.18 13.8 2.86 4.93 6.4 9.48 9 14.52 2.47 4.8 4.34 9.94 6.1 15.06 3.44 10.05 4.69 20.46 5.07 31.08.36 10.16.27 20.24-1.3 30.29-1.15 7.34-3.41 14.34-7.63 20.49-5 7.28-10.37 14.31-15.54 21.47-2.65 3.65-5.15 7.41-7.83 11.03-2.63 3.54-5.44 6.93-8.1 10.45-2.02 2.68-3.79 5.57-5.93 8.16-5.33 6.42-11.03 12.54-16.15 19.12-4.25 5.48-7.84 11.47-11.81 17.17-2.94 4.2-5.67 8.44-6.5 13.66-1.05 6.46-3.08 12.88-3.13 19.34-.03 3.36 3.23 6.77 5.08 10.11.17.32.9.47 1.36.45 8.08-.1 14.37 3.75 19.63 9.33 2.96 3.13 6.48 3.72 10.25 3.35 6.87-.67 12.65 1.73 17.89 5.76a83 83 0 0 1 8.53 7.4c2.74 2.77 5.12 5.9 7.63 8.9.25.3.5.8.4 1.12-.84 3.15.44 6.3-.03 9.41-.42 2.8-5.7 6.2-9.03 6.82-7.2 1.31-14.41.34-21.6.65-6.45.28-12.87 1.42-19.3 2.18q-6.06.7-12.1 1.44a9 9 0 0 0-2.65.62c-10.15 4.67-20.99 6.93-31.97 7.89-10 .87-20.1 1-30.14.6-8.46-.34-16.84-2.27-25.3-2.84a409 409 0 0 0-28.46-.65c-9.03.02-17.85-1.1-26.32-4.19-5.64-2.05-11.4-2.67-17.32-2.73-1.3-.01-2.57-.98-3.9-1.15a17 17 0 0 0-4.83 0c-6.36 1.1-12.68 2.47-19.06 3.43-2.1.31-4.52.08-6.5-.68-2.62-.99-1.25-3.57-1.27-5.51 0-1.22.2-2.43.34-4.05z"/><path fill="#000" d="M821.55 663.88c.38.46.68 1.08 1.17 1.36 4.07 2.3 5.76 5.7 5.04 10.32-.06.35.14.74.4 1.98 1.05-2.43 2.04-4.07 2.43-5.85.3-1.35.7-1.55 1.98-1.55 2.55.02 5.13.38 6.46-3.03.62-1.61 2.17-.13 2.89.89 2.95 4.18 4.92 8.88 6.42 13.7 1.23 3.97 3.5 7.48 4.27 11.65a139 139 0 0 1 2.2 34.86 79 79 0 0 1-4.1 20.48c-2.48 7.12-4.34 14.57-8.55 21.08-3.63 5.61-6.17 12.04-10.4 17.09-3.19 3.8-4.47 8.92-8.85 11.82-1.38.91-1.26 3.14-2.37 4.59-3.84 4.97-7.93 9.82-11.52 14.9-3.49 4.92-7.37 9.58-11.1 14.2-4.41 5.42-8.01 11.41-12.57 16.7-4.64 5.37-8.23 11.67-13.45 16.51-5.2 4.82-9.3 10.7-15.04 14.95-2.47 1.83-3.8 4.74-6.2 6.74-1.34 1.11-1.85 2.93-.48 4.79 1.05 1.42.77 3.43 1.9 4.97.39.55.7 1.99-.56 2.7-.8.45-.66 1.35-.42 1.94.65 1.58.47 3.1.12 4.7-.46 2.07.4 2.95 2.6 3.31 7.34 1.2 14.64 2.64 21.96 4.02 8.22 1.55 15.6 5.63 23.61 7.8 4.45 1.2 8.36 3.48 12.13 5.83 5.08 3.17 9.71 6.92 11.39 13.34.7 2.69 1.63 5.4 2.2 8.1 1.2 5.72-2.47 9.11-6.48 12.42-6.2 5.12-13.38 5.29-20.86 5.17-9.12-.16-18.13-1.23-27.17-2.3-1.36-.16-2.74-.44-4.17-.5-4.22-.17-6.6 3.07-9.41 5-4.71 3.23-9.8 4.44-15.13 4.67-7.6.31-15.19 1.2-22.6 2.29-9.47 1.38-18.87 1.1-28.3 1.65-7.11.43-14.11-.1-21.15-.69-2.2-.18-4.45.2-6.63-.06-10.87-1.31-21.73-2.33-32.7-1.9-2.86.1-5.75-.57-8.61-.45-5.83.25-11.62.3-17.47.03a478 478 0 0 0-31.36-.48c-10.46.23-20.86-.52-31.3-.47-13.4.05-26.85-.4-40.27-.6-7.47-.12-14.96-.94-22.43-.46-6.35.4-12.67.14-18.96-.6-3.88-.47-7.68.58-11.6.15-5.09-.56-10.27-.64-15.38-.67-8.08-.05-16.15-.52-24.2-.53-6.54 0-13.08-.34-19.62-.25-2.1.02-4.26.42-6.2-.99-1.28-.91-2.14.98-3.12.91-3.09-.2-6.33 1.15-9.26-.93-.42-.31-1.2-.16-1.8-.17-8.38-.22-16.76-.53-25.13-.6-3.23-.02-6.06-2.19-9.3-1.55-8.07 1.59-16.15.24-24.23.25-2.38 0-4.72 1.4-7.66.01 2.13-.6 3.48-1.74 5.51-1.7 4.53.12 9.07-.07 13.6-.16.98-.02 2.13.33 2.61-1 .86-2.36 2.84-2.13 4.75-2.08 12.66.31 25.3-.55 37.94-.83 7.59-.16 15.23.25 22.77-.52 5.48-.56 10.85.22 16.26.11 2.12-.04 4.1-.24 6.2-1.05 6.3-2.45 13.02-1.86 19.62-2.03 1.36-.03 2.9.33 3.86-1.42-2.74-1.47-5.78-1.14-8.55-2.14-6.68-2.38-12.61-6.15-18.9-9.22-9.32-4.53-17.49-10.85-25.66-17.2-3.55-2.74-6.87-5.82-10.4-8.59s-6.64-6.47-9.8-9.9c-6.28-6.86-12.28-13.96-17.2-21.82-3.58-5.74-7.46-11.3-10.78-17.25-2.07-3.7-3.84-7.56-5.83-11.3-.75-1.41-1.4-1.62-2.72-1.66-7.19-.26-14.38-.42-21.53-1.37-5.91-.79-11.71-.23-17.25 2.51-1.86.92-4.15.43-5.87 2.5-.72.86-3.19-1.47-5.17-1.04-.16.04-.36-.2-.55-.25-2.26-.62-5.67 1.58-5.73-3.8-.04-2.8-.71-5.36.84-7.94.52-.87.59-1.43-.8-1.74-.77-.18-1.75-1-2.48-1.36-3.33-1.67-.91-4.34-1.13-6.34-.14-1.27 2.65-.75 4.1-.66 4.48.3 4.5.37 3.37-3.91-1.37-5.22-2.55-10.5-4.28-15.6-1.2-3.53-3.07-6.92-3.3-10.66-.3-5.2-1.7-10.16-2.91-15.13-1.17-4.8-2.11-9.65-3.2-14.46-1.53-6.67-1.56-13.48-2.68-20.19-.85-5.07-2.07-10.06-2.77-15.14-.91-6.7-1.6-13.4-2.37-20.12-.4-3.45-1.37-6.97-.98-10.32.4-3.45 0-6.72-.27-10.06-.83-10.3-.86-20.65-.48-30.93.36-9.61.72-19.3 1.99-28.8.85-6.44.44-13.1 2.28-19.33 2.09-7.05 1.58-14.43 3.2-21.44 1.46-6.38 1.21-13.03 3.13-19.18.98-3.17 2.1-6.27 2.38-9.54.51-6.1 3.03-11.72 3.8-17.78.4-3.18 2.3-6.13 2.56-9.74-4.05 1-7.15-.88-9.96-3.55a10 10 0 0 1-2.59-4.11c-1.66-4.67-4.41-7.92-9.21-10.39-7.07-3.62-13.34-8.5-17.58-15.91-3.7-6.46-6.36-13.06-6.45-20.34-.07-5.75 1.1-11.53 1.84-17.28a7.3 7.3 0 0 1 2.32-4.47c2.68-2.51 3.15-6.6 6.09-9 5.21-4.22 9.78-9.18 16.05-12.24 3.23-1.57 6.33-3.95 9.25-6.28 3.4-2.73 7.25-5 9.95-8.54 5.69-7.45 6.02-15.73 3.54-24.37-1.77-6.13-4.65-11.8-7.46-17.5-3.87-7.8-7.69-15.56-9.83-24.15-2.85-11.4-.26-20.96 6.75-30.2a100 100 0 0 1 9.82-11.13c6.16-6 13.27-10.73 20.7-15.03 6.36-3.68 12.58-7.64 19-11.22 4.93-2.75 9.9-5.44 14.45-8.75 6.52-4.73 13.55-8.71 19.25-14.62 2.97-3.07 7.17-5 9.8-8.5 2.84-3.8 5.84-7.73 9.14-10.78 3.62-3.35 5.15-7.86 8.59-11.15 2.27-2.18 3.2-5.58 5.17-8.22 6.18-8.25 9.55-17.95 13.82-27.2 1.69-3.67 2.13-7.58 3.71-11.2 2.28-5.2 4.8-10.35 6.55-15.74 1.51-4.63 4.64-8.19 6.78-12.33 2.52-4.9 6.22-9.06 8.15-14.34.73-1.97 2.52-3.98 4.12-5.44 3.82-3.5 5.43-8.47 8.87-12.08 2.13-2.24 4.14-4.45 5.35-7.32.13-.31.63-.52 1-.67 5.7-2.47 8.51-8.47 13.92-11.36 1.56-.83 3.09-1.9 4.66-2.73a189 189 0 0 1 22.98-10.13c9.31-3.4 18.82-4.08 28.48-4.93 7.34-.65 14.63-.26 21.86.3 5.45.43 10.7 2.51 15.93 4.39 3.29 1.18 6.82 1.94 10.23 2.95 7.38 2.2 14.34 5.5 21.6 7.99a42 42 0 0 1 8.5 4.25c2.56 1.58 5.7 1.27 8.34 2.57 3.57 1.77 6.96 4 10.68 5.36 4.6 1.67 8.53 4.6 12.53 7.06 5.41 3.36 11.15 6.36 16.22 10.44 2.54 2.04 5.84 3.32 8.5 5.54 3.48 2.89 7.16 5.53 10.43 8.69 2.29 2.21 4.85 4.13 7.13 6.34 4.84 4.72 10.04 9.08 13.64 14.98 2.78 4.55 6.21 8.67 9.08 13.2 2.84 4.46 5.42 9.1 7.59 13.86 1.36 3 3 6.25 2.99 9.84 0 .82.62 1.58 1.05 2.35 2.46 4.42 3.7 9.31 5.04 14.17 2.57 9.29 4.23 18.65 4 28.35-.15 6.3-.88 12.54-1.32 18.8-.17 2.42-1.54 4.6-2.13 7-1.28 5.18-2.68 10.48-5.34 15.15-1.99 3.47-3.64 7.1-6.55 10.2-2.75 2.9-3.67 7.46-5.7 11.12-4.3 7.74-5.78 16.15-7.09 24.76-.5 3.24-1.48 6.63-1.42 9.8.14 7.3 4.13 12.94 9.35 17.87 4.35 4.11 9.26 7.45 14.02 11 2.73 2.04 5.78 3.52 8.59 5.43 6.37 4.34 10.5 10.2 13.63 17.04 4.8 10.46 4.73 21.42 3.9 32.6-.36 4.8-.97 9.54-2.75 13.94-1.36 3.35-2.22 6.87-3.73 10.17-3.5 7.64-9.41 12.37-16.91 15.92-3.16 1.5-6.37 2.1-9.8 3.2 1.89 1.84 2.47 4.44 4.45 6.2.75.66 1.2 2 1.26 3.06.48 7.62-.35 14.96-4.9 21.48-5.63 8.07-19.7 12.67-29.02 9.37-.77-.27-1.93-.16-1.82-1.6.1-1.31.82-1.42 1.94-1.78 6.12-1.98 12.64-2.76 18.22-6.42 4.69-3.08 7.45-7.35 8.79-12.65.37-1.46-.15-2.7-1.46-3.98-4.86-4.69-9.83-9.35-14.01-14.62-3.13-3.94-6.78-7.52-9.35-11.92-1.58-2.68-4.62-3.94-6.25-6.67-3.14-5.29-6.1-10.67-9.13-16.02-4.03-7.08-6.9-14.89-12.14-21.16-2.73-3.27-5.44-6.6-8.8-9.48-5.41-4.63-11.42-8.24-17.25-12.2-1.4-.94-1.17-4.33.42-5.38 1.26-.85 2.61-1.58 3.87-2.42.6-.4 1.06-.93.57-1.77-.85-1.46-.65.44-1.29.4-2.74-.16-5.1 1.2-7.38 2.5-1.74.98-3.17.95-4.61-.4 3.36-.96 5.4-4 8.57-5.39 1.4-.62 1.82-2.63 1.25-4.05-.72-1.78-2.52-.76-3.46-.28-4.96 2.5-10.29 2.82-15.66 3.35-3.27.32-6.33 2.33-9.84 1.24-.42-.13-1.14.42-1.61.8-6.07 4.78-13.4 5.33-20.63 5.81-5.8.4-11.74-.22-17.4 1.4-6.45 1.83-12.1 4.9-16.58 10.34-3.49 4.26-6.96 8.5-9.74 13.21-2.3 3.86-2.73 8.57-4.52 12.63-2.98 6.77-4.27 14.08-7.14 20.82-1.8 4.25-3.59 8.72-6.2 12.36-2.27 3.16-4.27 6.72-7.53 9.33-2.7 2.17-5.47 4.65-7.49 7.46-3.73 5.2-2.45 11.2-.08 16.37 1.85 4.05 3.54 8.28 5.98 12.08 1.25 1.94 3.07 3.46 3.92 5.72.43 1.15 2.02.64 2.98 1.64 2.94 3.1 5.12 6.77 8.23 9.76 3.95 3.78 7.77 7.63 12.7 10.2 2.38 1.22 4.49 3.07 6.95 4.03 2.6 1.01 5.47 1.3 8.23 1.9 3.94.86 7.91.98 11.84-.02 2.38-.6 4.44-1.76 6.24-3.63 6.27-6.53 7.26-14.56 6.95-23.02q-.13-4.01-.29-8.02c-.05-1.28.24-2.54-.87-3.73-.6-.65-.74-2 .25-3.05a3.85 3.85 0 0 0 .34-4.55c-1.1-1.57-.86-3.05-.94-4.61a172 172 0 0 1 0-22.75c.12-1.47-.38-3.07 1.36-4.13.86-.54.18-1.7.24-2.55a50 50 0 0 1 4.05-15.66c.08-.18.16-.41.32-.52 1.4-.94 2.27-3.41 3.88-2.94 1.48.43.61 2.74.6 4.18-.05 3.07-.47 6.14-.58 9.2-.25 7.12-.67 14.23-.54 21.34.17 9.32 2.1 18.53 2.46 27.8.46 11.5 2.66 23.23-2.46 34.42-1.08 2.37-3.37 3.03-4.95 4.65-6.87 7-15.59 7.4-24.49 5.34-3.93-.9-8.26-.41-11.8-2.73-4.03-2.64-8.53-4.39-12.1-7.96-3.78-3.8-7.4-7.72-11.04-11.63-1.7-1.82-2.48-4.37-4.88-5.84-2.27 5.84-5.94 11.2-9.24 16.77-1.51 2.56-3.62 4.3-5.69 6.1-1.09.97-1.04 1.46-.78 2.69 1.55 7.21 4.82 13.87 6.62 21 1.1 4.36 1.89 8.88 3.66 12.96 3.67 8.46 6.08 17.66 13.5 24.12 3.32 2.89 6.13 6.35 9.16 9.57.35.37.83.84.83 1.26.04 6.1 5.84 7.57 9.13 10.85 3.89 3.86 8.51 7.1 12.9 10.43 4.74 3.62 8.87 7.78 13.16 11.81 5.12 4.82 9.95 9.95 15.04 14.81 4.16 3.98 7.88 8.52 13.55 10.69 2.48.95 4.44 3.13 7.47 3.43-.21-2.6-1.64-4.63-2.66-6.86a41 41 0 0 1-3.74-12.83c-.15-1.38.65-2.66 2.18-2.89 1.85-.27 3.47-.34 5.3 1.18 5.95 4.98 6.3 11.74 6.65 18.6.06 1.22 0 2.46 0 3.68 5.67.6 7.13-4.15 9.4-7.48 2.96-4.3-1.7-7.84-1.87-11.91q2.44.6 4.13 4.55c1-.77.7-1.88.71-2.85.04-6.22-.5-12.5-2.77-18.23-1.8-4.51-3.01-9.55-6-13.35-2.88-3.67-4.9-7.88-8.19-11.38-2.56-2.73-5.1-5.67-7.77-8.34-3.5-3.46-7.24-6.74-11.58-9.24-3.65-2.1-6.65-5.18-10.47-7.08-3.08-1.53-5.64-3.8-8.26-6-1.1-.94-2.08-2.2-1.6-3.16.81-1.66 2.9-.83 3.83-.23 3.62 2.3 7.98 3.1 11.46 5.5 5.08 3.5 10.5 6.47 15.5 10.13 3.83 2.79 7.07 6.18 10.17 9.52 3.94 4.25 7.3 9.18 10.6 14.06 3.37 4.98 5.82 10.4 8.45 15.74 2.54 5.16 3.74 10.88 4.55 16.58 1 7.02.77 13.98-1.74 20.74a34 34 0 0 1-5.84 9.8c-3.3 3.98-10.97 4.95-16.48 2.72-4.14-1.68-8.6-2.72-12.32-5.3-4.13-2.86-8.41-5.38-12.12-9.02-5.62-5.52-11.27-11.04-16.4-16.96-4.5-5.2-9.48-9.93-13.85-15.24-3.16-3.86-7.11-6.98-10.35-10.81-2.8-3.3-6.15-6.15-8.83-9.54-1.57-2-2.22-1.3-2.92.25a90 90 0 0 0-3.04 7.8c-.27.8-.42 1.26-1.35 1.25-1.71-.01-3.94-3.44-3.66-5.2.59-3.62-1.16-6.92-2.01-10.31-.21-.84-1.95-1.89-2.96.3-2.24 4.84-5.07 9.39-6.9 14.43-.56 1.54-2.14 2.65-3.68 2-1.3-.56-.53-2.26-.16-3.3 1.86-5.16 3.54-10.4 5.86-15.38.33-.7 1.12-1.53.57-2.28-.63-.83-1.7-.27-2.58-.28-2.69-.02-5.1 1.96-7.88 1.1-.6-.19-1.74.18-1.6-.89a2.1 2.1 0 0 1 1.16-1.6 26 26 0 0 1 11.17-3.13c-4.35-5.2-6.94-11.2-9.69-17.23-2.7-5.95-4.84-12-6.66-18.24-2.15-7.39-4.22-14.84-7-21.99-2.28-5.86-3.56-12.1-6.16-17.74-3.16-6.87-4.02-14.4-7.1-21.2-2.74-6.06-3.65-12.77-6.38-18.68-3.62-7.8-2.8-16.51-6.16-24.24-.58-1.33-.67-2.65-2.21-3.67-1.8-1.18-1.75-3.78-2.49-5.75-2.34-6.25-5.38-12.2-8.1-18.27-2.11-4.73-3.52-9.91-6.56-14.18-3.13-4.4-5.7-9.15-8.96-13.49-3.12-4.16-6.43-8.22-10.17-11.67-5.67-5.2-12.3-9.43-20.08-10.7-4.08-.67-8.21 1.16-12.1 2.52-5.49 1.91-10.73 4.47-16.16 6.54-2.92 1.12-5.07 3.3-7.6 4.92a62 62 0 0 0-15.85 14.43c-2.2 2.85-4.8 5.4-7.21 8.1-2 2.23-2.93 5.1-4.5 7.6a29 29 0 0 1-3.76 4.94c-2.12 2.2-2.93 5.57-4.72 8.15-3.4 4.88-5.19 10.65-8.84 15.36-.74.97-.57 2.17-.79 3.25-.72 3.56-3.08 6.36-4.32 9.73-3.25 8.84-7.18 17.43-10.87 26.1-3.62 8.5-5.28 17.54-8.85 25.92-1.93 4.53-1.64 9.51-4 13.86-.79 1.47 1.28 2.2 2.18 2.37 1.65.33 2.55 1.3 3.75 2.28 6.7 5.52 12.11 12.29 17.72 18.76 3.9 4.5 7.41 9.53 10.97 14.4 4.2 5.77 5.52 12.35 8.04 18.62 3.42 8.48 4.64 17.38 6.18 26.25 1.63 9.35 2.92 18.77 2.89 28.25-.02 6.5-.35 13.2-1.96 19.45-1.62 6.26-2.58 12.97-5.64 18.6-3.28 6.06-5.48 13.03-11.5 17.44-1.73 1.27-2.49 3.54-3.92 5.25-4.35 5.2-10.16 8.52-15.6 12.05-5.03 3.27-10.62 6.24-16.9 7-1.7.2-2.65.6-2.22 2.9 1.17 6.22 1.91 12.53 2.88 18.8 1.83 11.83 3.73 23.65 5.52 35.49 1.43 9.42 2.65 18.93 6.86 27.6 1.51 3.1 2.95 6.1 3.65 9.48.53 2.53 3.24 4.34 5.77 4.13.55-.04 1.39.29 1.5-.57.05-.37-.4-.94-.77-1.2-2.94-2.04-4.25-5.18-5.06-8.35-1.32-5.22-2.17-10.56-3.14-15.85-.25-1.36.27-2.73.24-4.16-.12-5.53-1.84-10.87-1.71-16.42.06-2.62.9-4.37 3.46-5.04 1.84-.48 1.82-1.25.63-2.46a8 8 0 0 1-1.46-1.99c-.37-.78-.72-1.56.11-2.49.81-.9 1.42-.85 2.38-.39 1.88.9 4.04 1.15 5.39 3.16.5.74 1.62 1.63 2.94 1.27 3.91-1.1 8.14-.44 11.95-2.18.7-.32 1.61-.28 2.43-.28 1.1 0 1.48-.34 1.1-1.47-.62-1.76.15-3.18 1.3-4.46.15.07.44.1.48.22 1.65 4.66 5.33 4.85 9.42 4.44q4.92-.49 9.85-.57c1.64-.03 2.34-.64 2.03-2.18-.47-2.34 1.05-4.03 1.87-5.92.4-.9 1.39-1.7 2.48-1.55 1.38.17 1.2 1.43 1.26 2.45.1 1.43.47 2.9.27 4.3-.4 2.82 1.36 2.73 2.99 2.18a10 10 0 0 1 4.22-.54c2.79.32 4.13-.5 3.67-3.51-.24-1.64.17-3.24.57-4.85.31-1.23.5-2.82 1.97-2.59 1.43.23 3.43.46 3.55 2.73.02.3 0 .64.1.92.71 2.13-.18 6.07 1.1 6.26 3.44.54 7.32.15 10.58-1.05 1.35-.5 2.13-2.82 4.47-1.93 1.2.46 2 .87 2.43 2.33 1.69 5.61 3.58 11.15 3.9 17.09.1 2.06 1.5 2.6 3.13 1.6.7-.43 1.24-.92 2.1-.86 1.71.12 4-.7 4.38 1.97.4 2.9-2.1 2.11-3.63 2.45-3.77.82-3.9.82-3.1 4.7.81 3.84 2.32 7.55 1.57 12.15 2.32-3.09 5.5-3.18 8.33-3.87 3.28-.8 6.52-1.78 9.5-3.2 2.95-1.43 5.78-2.97 8.95-4.01 7.77-2.56 15.05-6.37 22.78-9.11 7.84-2.79 15.23-6.9 23.19-9.34 6.82-2.1 12.88-5.97 19.78-7.75 8.22-2.13 15.32-7.31 23.8-8.78 1.64-.28 1.18-1.38.22-1.82-4.2-1.95-6.26-6.23-9.82-8.97-2.45-1.89-3.62-5.7-4.81-8.85-.7-1.85-1.66-2.37-3.33-2.3-7.53.33-15.04.16-22.52-.8a4 4 0 0 0-.93 0c-1.24.18-2.81-.1-2.26 2.14.23.94-.1 2.02-.15 3.04-.1 2.1-1.53 2.9-3.24 2.66-1.83-.24-3.38-.95-2.44-3.6.96-2.7-.83-5.1-3.75-5.64-6.62-1.23-12.52-4.6-18.96-6.34-4.94-1.34-9.07-4.58-13.87-5.95-4.48-1.27-7.92-4.35-12.37-5.7-5.78-1.77-10.04-6.43-14.74-10.06a69 69 0 0 1-16.86-18.92c-1.83-3.03-4.67-5.27-6-8.65a87 87 0 0 0-9.43-18.04c-2.9-4.19-6.03-8.2-7.27-13.2-1.15-4.65-2.6-9.17-4.92-13.36-3.24-5.84-5.06-12.36-8.7-18.03a12 12 0 0 1-1.83-4.82c-.58-4.48-2.7-8.35-4.34-12.44-2.2-5.44-3.64-11.18-5.65-16.7a85 85 0 0 1-3.44-11.16c-.68-3.13-1.04-6.33-1.51-9.5-.3-2.02.39-2.43 2.39-1.82 3.7 1.14 5 4.4 6.53 7.25 2.81 5.24 5.59 10.6 7 16.41 1.55 6.43 3.84 12.63 6.15 18.76 2.91 7.76 6.1 15.5 10.32 22.72a35 35 0 0 1 3.36 8.13c.5 1.78 2.16 2.63 2.58 4.29a88 88 0 0 0 3.07 9.34c.36.96.58 2 1.28 2.72 4.31 4.47 7.64 9.65 10.62 15.05 3.9 7.06 8.9 13.35 13.6 19.85 4.2 5.8 9.84 10.1 14.57 15.33 1.27 1.4 3.31 2.35 5.07 3.35 7.88 4.49 15.4 9.7 23.94 12.91 9.8 3.68 19.95 6.23 30.13 8.61 6.64 1.56 13.4 2.5 20.25 1.93a635 635 0 0 0 18.78-1.85c10.44-1.19 20.86-2.63 31.12-4.96 3.48-.78 6.73-2.54 10.17-3.62 3.7-1.15 7.52-1.9 11.2-3.08 3.32-1.08 6.5-2.58 9.78-3.78 4.63-1.7 9.23-3.57 13.99-4.88a134 134 0 0 0 16.35-5.5c4.53-1.9 9.57-2.62 14.37-3.9 5.34-1.43 9.96-4.78 15.45-5.83 4.08-.78 7.59-3.14 11.57-4.18 1.82-.48 3.56-.89 5.3.08.32.18.5.53 1 .2q7.87-5 15.76-9.97c4.22-2.67 7.95-6.04 12.6-8.5-1.11-1.19-2.26-1.39-3.46-1.47-4.51-.3-8.33-1.88-11.06-5.69-.52-.71-1.43-1.18-2.21-1.64-5.43-3.2-10.3-6.83-12.26-13.29-.7-2.3-3.56-4.22-.78-6.88-.23-.14-.48-.25-.7-.42-2.9-2.4-5.27-5.39-7.83-8.08-3.85-4.07-7.62-8.4-10.41-13.37-.83-1.46-1.76-2.86-2.68-4.27-.42-.64-.92-1.05-1.77-.47-4.35 2.93-9 .7-13.53.7-.96 0-1.84-.52-2.9.04-.8.4-1.72-.21-1.83-1.13-.08-.77.21-1.61 1.26-1.8.8-.14 1.6-.59 2.36-.5 4.35.48 8.35-2.04 12.71-1.4a3.1 3.1 0 0 0 2.79-.88c2.44-2.3 4.97-1.92 7.06.61 4.93 5.94 8.77 12.57 12.37 19.32 2.24 4.2 5.05 8.02 7.41 12.14 1.95 3.4 5.71 5.6 9.14 7.98 3.28 2.27 6.76 4.6 9.72 7.52 2.25 2.2 4.98 4.1 8.55 4.16 2.28.04 2.76-.62 2.37-2.83-1.06-5.86-3.4-11.37-4.39-17.26-.38-2.3.82-1.9 1.63-1.5 2.31 1.13 4.53 2.06 5.67 5.07 1.67 4.4 3.42 8.64 2.74 13.46 1.32.2 1.48-.7 1.8-1.4 3.98-8.85 3.67-18.07 2.68-27.45-.6-5.64-1.54-11.25-4.41-16.02-2.83-4.7-5.63-9.5-9.55-13.55a597 597 0 0 1-18.4-20.15c-4.7-5.32-9.13-10.89-13.8-16.23-2.48-2.82-3.5-6.44-5.57-9.47-.43-.62-.65-1.66.57-2.32 1.6-.87 3.16-1.93 4.78-.45 3.34 3.05 7.3 5.43 10.06 9.1 4.92 6.53 11.45 11.43 17.15 17.16 6.83 6.86 13.65 13.7 19.58 21.48 3.97 5.2 6.97 10.62 8.43 16.73 2.82 11.78 2.58 23.74.2 35.6-.39 1.92-1.58 3.66-2.3 5.51-.13.34-.78.9-.07 1.25.43.22 1.2.2 1.25-.42.14-1.82 1.73-1.94 2.84-2.4 6.38-2.6 12.27-6.25 18.8-8.53 8.14-2.84 15.86-6.68 24.18-9.21 6.5-1.99 13.14-3.7 19.54-6.03 8.88-3.23 18.07-3.23 27.3-3.76 5.13-.29 10.2-.77 15.29.13 2.7.47 5.24 1.28 7.28 3.28.54.53 1.42.71 2.13 1.08 1.91.98 4.37 1.61 1.9 4.6-.71.87-.99 2.87.86 3.31 2.95.71 4.16 2.81 5.07 5.32.72 1.95 2.7 3.4 2.23 5.81-.36-1.44-1.32-1.8-2.75-1.82-1.95-.03-3.04 1.1-3.1 2.67-.06 1.7 1.67.9 2.65 1.12.48.11 1.1.04 1.45.32 2.22 1.7 2.36.07 2.54-1.53zM560.41 371.53c-.61-.65-1.02-1.12-1.46-1.55-.92-.9-1.73-2.17-1-3.2.99-1.42 2.14-.09 3.19.43 3.06 1.52 6.03 1.57 8.94-.46a29 29 0 0 1 7.31-3.8c2.38-.8 2.9-3.65 1.26-5.75-.46-.59-.58-1.03-.2-1.64.3-.5.6-1.47 1.22-1.07 1.29.85 2.74.24 3.83.58 4.23 1.37 8.36 2.07 11.52-1.64 1.65-1.93 4.5-3.75 3.68-6.96-1-3.95-.14-8-1.14-11.95a6.5 6.5 0 0 1 .93-5.36c1.36-2.2 3.51-3.03 5.13-4.67 1.53-1.55 2.39-3.7 4.78-4.58 1.38-.5 2.55-2.1 3.39-3.46 1.84-3 4.27-4.86 7.83-5.3.7-.09 1.68-.63 1.95-1.23 1.24-2.73 3.55-4.64 5.2-7.08 2.2-3.28 4.46-6.56 6.83-9.67 2.36-3.08 3.7-6.6 5.53-9.85 1.12-2 3.3-3.6 3.57-5.58.45-3.52 2.92-6.05 4.32-8.83 1.57-3.12 1.99-6.58 4.55-10.09-4.91 2.42-8.91 4.51-13 6.38-6.04 2.75-12.6 3.35-19.07 3.67a155 155 0 0 1-31.9-1.68c-8.87-1.39-17.96-1.54-26.61-3.95-7.6-2.11-15.35-3.76-22.54-7.65-4.04-2.18-7.63-4.95-11.61-7.17-2.88-1.6-5.67-3.6-7.81-7.22l-.26 4.67c-1.32-3.78-4.8-5.4-7.52-7.36-3.17-2.3-5.38-5.45-8.33-7.92-4.78-4.03-8.87-9.04-15.72-9.06-6.64-.02-13.79-1.69-19.06 4.47-1.48 1.73-3.57 3.02-4.73 4.92-2.4 3.96-3.54 8.44-4.3 13-.83 4.97-.53 10 .98 14.68 1.02 3.13 3.11 5.97 5.41 8.62a72 72 0 0 0 15 13.08c1.79 1.17 3.9 1.49 5.59 2.9 3.3 2.79 11.94 2.45 15.11-.43 1.28 2.43-1.37 3.03-2.07 4.52 3.08 2.24 4.06 5.8 5.47 9.02 3.48 7.94 3.81 16.67 6.03 24.95a132 132 0 0 1 4.55 38.32c-.1 2.79-1.4 6.2 2.6 7.7.16.06.26.3.37.48 2.75 4.57 7.68 6.15 12.07 8.15 3.85 1.76 8.34.83 12.53.7 6.2-.21 11.88-2.5 17.65-5.08zM276.29 560.72c-.1 4.79-2.3 9.04-3.06 13.58-1.48 8.73-2.53 17.53-3.64 26.3-.42 3.25-.86 6.55-.66 9.78.16 2.64-1.95 4.27-1.98 6.8-.1 7.45-1.15 14.85-1.53 22.25-.48 9.35-1.52 18.7-1.08 28.1.24 5 .46 10.02.24 15.01-.17 3.61.6 4.64 4.2 3.72 1.06-.28 2.04-.9 3.04-1.38 2.68-1.32 4.8-3.35 6.71-5.55 1.24-1.42 3.54-1.48 4.29-3.32 1.9-4.69 5.3-8.3 8.53-12 1.14-1.3 2.97-2.8 4.78-1.69 1.58.97.95 2.96.88 4.75-.18 4.58-4.35 6.73-5.87 10.48-.64 1.6-1.51 3.6-2.84 4.62-4.11 3.13-8.31 6.22-13.4 7.76-2.09.64-4.15.86-6.32.75-2.24-.12-3.68.32-3.48 3.37.4 5.96 1.67 11.83 1.36 17.87-.36 7.16 2.47 13.94 3.2 21.01.3 2.97 1.58 3.53 4.25 2.1 5.18-2.77 10.87-4.67 15.34-8.64 2.73-2.41 6.4-3.46 8.72-6.41 1.92-2.45 3.99-5.1 6.34-6.78 5.78-4.11 7.56-10.7 11.11-16.1 3.4-5.17 3.97-11.8 5.7-17.71 2.21-7.58 1.74-15.84 2-23.82.3-9.07-1.78-17.94-2.95-26.87-1.86-14.37-5.58-28.06-14.97-39.67-6.13-7.58-12.43-14.96-19.53-21.63-2.76-2.6-5.28-5.6-9.38-6.68m20.25 233.27c.9 8.13.9 15.58 2.23 22.92.69 3.84.56 7.95 1.94 11.5 1.34 3.46 1.23 6.54.35 9.85-.09.32-.7.76-.29.97 2.09 1.07 4.12 3.52 6.56 2.07 2.95-1.75 6.29-1.66 9.37-2.68 4.77-1.58 9.95-1.92 14.9-3.23 5.7-1.5 11.81-1.76 17.25-4.03 7.76-3.24 16.57-2.5 24-7.06 2.71-1.66 6.33-2.1 9.61-2.53 3.38-.44 2.68-1.76 1.38-3.67-2.41-3.53-3.76-7.59-5.31-11.5-.67-1.68-.86-2.75-2.78-1.6-.65.4-1.2.38-1.5-.31-.38-.9.6-.89 1-1.26.7-.66 2.06-.47 1.6-2.35-1.28-5.25-2.79-10.48-3.02-15.94-.07-1.61-1.05-2.07-2.48-1.83-2.33.4-4.64.92-6.97 1.17-1.2.13-1.69.51-1.54 1.68.36 2.83-1.02 5.39-1.27 8.13-.22 2.57-2.24 3.06-4.2 3.06-2.02 0-1.66-2.01-1.82-3.22-.33-2.42-.36-4.89-.43-7.34-.04-1.73-1.6-2.15-2.14-1.32-1.5 2.33-3.6 1.47-5.44 1.47-1.97 0-2.49.55-2.68 2.58a23.5 23.5 0 0 1-5.24 12.86c-.18-4.87-1.19-8.74-.84-12.72.15-1.63-.44-2.19-2.08-2.09-4.54.28-9.05-.1-13.62 1.11-3.87 1.04-4.05.49-3.67 4.47.05.5.36 1.13-.53 1.77-.6-1.7-1.24-3.28-1.71-4.9-.2-.64-.33-1.35-1.09-1.12-3.2.97-6.58.04-9.76 1.1-1.7.57-1.92 1.17-.78 2.8 1.3 1.87 3.65 2.61 4.56 4.81.61 1.47 1.32 3.14.5 4.4-.93 1.4-2.43-.1-3.62-.34a5.6 5.6 0 0 1-3.15-1.79c-1.86-2.44-4.95-3.1-7.3-5.91zm489.08-21.97c-1.76.41-1.7.45-2.4 1.48-4.05 6-7.6 12.34-12.53 17.76-1.96 2.15-3.48 4.73-5.21 7.1-2.17 2.96-4.29 6.17-6.76 8.66-3.07 3.1-5.75 6.64-8.26 9.94-3.18 4.2-7.3 7.55-10.13 11.97-.94 1.49-3.05 1.2-3.93 2.71-2.37 4.1-5.81 7.39-9.32 10.27-5.98 4.92-10.53 11.28-17.28 15.55-4.54 2.87-8.16 7.49-12.27 11.27-3.4 3.13-6.57 6.87-10.17 9.43-5.17 3.7-9.82 7.92-14.34 12.18-5.54 5.22-11.32 10.18-17 15.2-4.07 3.58-7.78 7.55-11.76 11.2-4.07 3.73-7.96 7.54-12.7 10.38-1.55.92-3.42 1.33-4.91 2.32-5.03 3.33-10.51 5.83-15.7 8.85-2.26 1.3-5.44 1.07-6.83 3.99 1.75.36 3.32-.54 5.13-.22 4.76.86 9.5 1.8 14.34 2.36 4.8.55 9.56.19 14.32.54 4.61.34 9.21.97 13.84 1.09 12.58.33 25.18.59 37.78.6 5.81 0 11.7.15 17.43.43 11.6.57 23.18.53 34.77.85.82.03 1.66-.1 2.72-.17-5.66-3.5-10.83-7.02-16.3-10.1-5.06-2.85-10.3-5.13-15.56-7.5-3.95-1.76-8.22-3.3-11.79-5.86-2.81-2.03-5.61-3.17-9.16-3.16-4.47 0-8.94-.58-13.41-.82-7.55-.4-14.87-2.5-22.07-4.85-1.24-.4-2.92.26-3.83-1.33 1.02-.94 2.45-1.16 3.25-2.31 2.62-3.75 7.7-4.92 9.77-9.27.2-.42.74-.74 1.2-.94 4.38-1.89 7.63-5.43 10.68-8.71 3.74-4.01 7.98-7.43 12.13-10.78s7.46-7.51 11.74-10.75c2.76-2.08 5.68-4.58 7.78-7.76 2.3-3.48 6.28-5.44 9.47-8.06 2.34-1.92 3.35-4.8 5.87-6.39 1.55-.97 3.15-1.95 4.22-3.48 2.8-3.99 6.62-7.04 9.73-10.78 2.98-3.59 6.64-6.67 9.63-10.35a585 585 0 0 0 21.46-28.2c2.68-3.75 4.9-7.94 7.86-11.3 3.54-4 4.5-9.43 8.49-13.04zm-201.4 178.56c-.5 3.44 1.45 4.5 4.46 4.84 4.4.5 8.77 1.24 13.15 1.84 13.11 1.8 26.38 1.71 39.52 3.13 3.35.36 6.66.24 10 .22 4.37-.04 8.76.7 13.13 1.11 4.02.37 8.02 1.26 12.08.47 2.73-.53 5.04 1.33 7.67 1.23 5.28-.2 10.5.96 15.86.12 7.25-1.13 14.54.17 22.04-1.53 7.66-1.74 15.94-1.64 23.96-2.28 1.23-.1 3.19-.01 3.32-1.01.39-2.82 2.41-2.73 4.35-2.88-.32-1.75-1.28-1.38-2.36-1.3-5.6.47-11.23.48-16.84.85-8.26.55-16.56-.24-24.86-.15-7.84.08-15.7-.62-23.57-.55-10.43.1-20.87-.17-31.3-.64-6-.27-12.03-.25-17.97-.75-9.3-.8-18.58-1.9-27.93-2.28-3.59-.14-7.2-.24-10.74-.8-2.06-.33-4.38-1.96-6.1-.88-2.63 1.63-5.36.37-7.87 1.25zm141.55-28.5c3.02 2.83 6.7 3.5 10.04 5 6.4 2.89 12.7 6.17 18.07 10.85a5.3 5.3 0 0 0 3.9 1.39c4.4-.12 8.88-.74 13.15-.38 10.67.89 21.32-.65 31.95.31.7.06 1.57.36 2.34-.61-2.62-.38-3.8-2.81-6.09-3.47-6.34-1.82-12-5.38-18.41-7.13a81 81 0 0 1-14.53-5.28 57 57 0 0 0-13.65-4.43c-1.62-.33-4.53-3.93-5.83.72-.04.15-.53.2-.83.27-6.5 1.33-13.1 2.03-20.1 2.76zM461.6 131.22c-2.47-.12-3.89 2.28-5.9 3.25-5.33 2.56-8.63 7.15-12.5 11.05-4.25 4.3-7.6 9.48-10.95 14.57-.99 1.5-2.56 2.7-2.95 4.52-.73 3.42-2.9 6.18-4.02 9.44-1.42 4.11-4.24 7.97-4.4 12.27-.35 8.74-2.6 17.14-3.78 25.7-.56 4.06-.43 8.1-.98 12.12-.08.53-.23 1.3 1 1.37.9-4.1 2.03-8.18 2.63-12.35.3-2.12 1.3-3.93 1.71-5.94 1.01-4.99 1.12-10.31 3.02-14.92a113 113 0 0 0 4.26-12.34c1.77-6.3 5.75-11.42 7.72-17.48.8-2.46 2.89-3.8 4.3-5.71 1.71-2.32 2.56-5.06 4.63-7.29 3.53-3.8 6.15-8.46 10.2-11.79 2.37-1.94 5.45-3.07 6-6.47zm-100.03 166.7c-1.28.67-1.97.8-2.22 1.19-3.97 6.24-10.83 8.54-16.73 12.02-4.3 2.53-9.32 3.68-13.77 6.14-4.55 2.5-9.6 3.95-14.28 6.33-5.84 2.96-11.11 6.74-16.81 9.83-1.78.96-1.51 3.04-3.06 4.04-4.12 2.68-5.47 7.44-7.62 11.4-1.6 2.95-1.59 6.87-1.63 10.5-.03 2.84 1.16 5.46.92 8.34a5 5 0 0 0 1.46 3.88c.18.17 1.08-.03 1.1-.15a7 7 0 0 0-.42-4.21 18.6 18.6 0 0 1 .11-15.87c3.2-7.14 8.62-12.34 14.97-16.35a107 107 0 0 1 14.56-7.65c5.4-2.33 10.74-4.8 16.1-7.23 2.68-1.2 5.57-2.1 7.94-3.76 3.75-2.62 7.83-4.78 11.2-7.94 3.1-2.89 5.41-6.32 8.19-10.52zm303.89-58.6c-.56 0-1-.12-1.35.01-7 2.44-13.8 5.2-21.38 5.89-9.7.87-19.35.86-29.05.37-3.76-.19-7.25-1.38-10.82-2.21-3.4-.8-6.92-.6-10.26-1.46-6.02-1.53-12.08-2.83-18.03-4.81-3.8-1.27-8.12-1.72-12-3.05-4.05-1.38-8.39-1.51-12.3-3.7a19 19 0 0 0-10.78-2.34c3.4.65 6.36 2.44 9.54 3.52 6.86 2.34 13.98 3.96 20.72 6.68 4.95 2 10.13 3.02 15.26 4.35 5.74 1.48 11.24 3.47 17.23 4.4 13.75 2.12 27.4 3.46 41.32 2.24a41.7 41.7 0 0 0 20.32-7.37 3.4 3.4 0 0 0 1.6-2.53zm96.5 706.52c1.04 1.66 1.98 3.27 3.03 4.82.67.99.17 2.92 2.15 2.86 2.36-.07 4.7-.1 7.07-.25 3.92-.23 7.8-1.18 11.76-.78 8.58.9 17.09.51 25.52-1.37 1-.22 2-.37 2.65-1.26.6-.8 1.75-1.33.78-2.8-.74-1.12-1.32-1.38-2.66-1.26-6.2.54-12.43 1.22-18.65 1.21-8.86-.02-17.72-.61-26.59-.92-1.59-.05-3.12-1.08-5.07-.24zm-123-575.25h.02v12.07c0 .96.01 1.94 1.37 1.95 1.4 0 .99-1.08 1-1.79.1-9.85.88-19.62 3.17-29.24 1.36-5.7 1.02-11.6 3.12-17.3s2.35-12.04 4.77-17.75c.24-.6.44-1.38-.08-1.73-.77-.5-1.32.19-1.7.81-2.13 3.52-4.48 6.87-5.6 10.97-1.72 6.28-2.63 12.7-3.86 19.06-1.4 7.2-2.5 14.36-2.22 21.71q.02.62 0 1.24zM498.3 311.82c.1 11 2.56 21.75 1.51 32.78-.82 8.58.39 17.3-.6 25.92-.85 7.55-1.96 15.08-2.95 22.61-.4 3.06-.15 6.35-1.26 9.11-1.97 4.91-1.53 10.17-3.1 15.07.96-2.7 1.58-5.47 2.26-8.22 1.03-4.17 2.6-8.26 3.42-12.42 1.57-7.97 2.25-16.12 3.34-24.19 1.54-11.41 1.19-22.93 1.75-34.39.4-7.95-.92-15.89-2.4-23.73-.2-1.07-.52-2.19-1.98-2.55zm196.95 141.85c.95-.64 1.12-1.32 1.28-2.12a71 71 0 0 0 .6-26.4 57 57 0 0 0-9.66-23.82c-1-1.39-2.15-2.6-4.23-2.94 9.12 17.47 15.25 35.27 12.02 55.28zM334.68 333.55c-14.65 2.81-35.3 29.95-31.2 42.82 1.7-4.58 2.1-9.24 5-13.71 4.36-6.76 8.55-13.37 14.1-19.3 3.66-3.9 8.1-6.43 12.09-9.81zM556 128.45c-12.66-9.74-46.18-17.19-54-11.6 19.38-1.38 36.35 5.23 54 11.6M260.16 497.16c.05 2.63-.22 5.41 1.56 5.48 2.19.07 1.22-2.68 1.52-4.26.54-2.77.66-5.66 1.98-8.23 1.7-3.3 3.5-6.56 5.19-9.88.3-.6.97-1.42.32-2.12-.67-.72-1.66-.63-2.6-.62-1.24.01-1.85 1.11-2.22 1.73-1.91 3.12-2.91 6.7-4.38 10.06-1.14 2.6-1.04 5.77-1.36 7.84zm292.25 463.85c7.02-1.18 13.34-.6 19.65-.69 3.88-.05 4.86-1.03 5.07-4.89.13-2.4-.69-3.19-2.97-2.26-.56.23-1.16.36-1.7.62a54 54 0 0 1-11.64 4.12c-2.67.6-5.7.41-8.4 3.1zM486.27 436.8c3.55 7.62 1.89 15.77 2.48 23.65 2.36-4 3.14-8.17 3.12-12.6-.01-4.67-1.64-8.34-5.61-11.05zm61-294.52c-1.4-1.49-1.93-3.6-3.81-4.68-5.85-3.32-11.37-7.3-18.03-9.02-2.07-.53-4.1-1.2-6.26-1.44-1.01-.12-3.15-.06-6.4.87 13.29 1.86 24.63 6.3 34.5 14.27M300.92 846.44a40 40 0 0 0 13.7 3.91c4.02.44 3.94.35 3.86-3.53-.06-3.06-2.18-2.77-3.33-1.99-2.3 1.56-4.72 1.48-7.18 1.58-2.35.1-4.7.02-7.06.02zM681.26 446.7c4.05-9.31 4.87-18.17 1.48-27.17-.46-1.23-1.4-2.86-3.27-3.11 4.32 9.75 2.98 19.68 1.8 30.3zm-13.1-7.48c3.11-3.78 4.3-8.17 4.22-12.95-.01-.81.09-1.9-.95-1.96-1.15-.07-1.43 1.03-1.42 1.98.04 4.4-.4 8.7-1.84 12.93zM243.9 484.21c2.58-3.94 2.84-9.02 6.58-12.72-4.35-.06-7.28 5.94-6.58 12.72m9.18 5.37c1.5-5.1 6.76-8.18 7.27-13.81-2.6 4.5-7.47 7.8-7.27 13.81M631.6 707.7c2.34-1.62 5.27-2.4 7.02-4.82-2.36 1.58-5.71 1.7-7.02 4.82M488.27 365.47c0-3.7 1.56-7.32.55-11.09-.13 3.7-1.4 7.33-.55 11.1"/><path fill="#000" d="M426.59 495.26c.8 5.64-2.16 9.73-4.22 14-2.86 5.99-7.31 10.53-12.87 14.42-8.93 6.26-18.58 6.86-28.8 5.73-2.56-.29-5-.68-7.48-1.5-5.55-1.84-9.68-5.84-13.69-9.54-2.5-2.3-4.01-6.28-5.01-9.97-.45-1.67-.77-3.16-3-4.02-3.74-1.47-4.86-7.98-2.22-10.14.63-.5 1.58-.94 1.88-.77 4.24 2.5 2.65-2.12 2.85-2.84 1.92-6.97 5.4-12.8 11.34-17.01 1.36-.97 2.41-1.7 1.89-3.6-.33-1.17.47-1.75 1.5-2.32 1.42-.8 3.38.08 4.5-1.6.16-.22 1.04-.19 1.28.44.87 2.29 2.46 1.4 3.51.5 2.07-1.79 4.65-2.18 7-2.33 6.56-.4 13.26-1.4 19.63 1.14a28.5 28.5 0 0 1 10.21 6.95c1.3 1.38 2.36 3.06 4.43 3.65a3.5 3.5 0 0 1 2 1.8c2.33 5.65 6.36 10.8 5.27 17.01m-11.81-4.87c.07-5.17-1.2-9.48-3.57-12.08-3.1-3.4-7.5-4.56-11.5-6.2-3.44-1.4-7.39.2-11.1-.21-.47-.05-1.28.1-1.39.38-.86 2.1-2.94 2.5-4.61 3.4-4.4 2.41-8.53 5.26-11.6 9.2-3 3.82-4.15 8.68-6.4 12.94-.46.85-.42 1.78-.47 2.7-.6 10.74 7.62 17.49 16.92 20.73 6.53 2.28 13.45.33 19.38-3.67 3.9-2.62 7.62-5.4 10.17-9.5 3.4-5.46 4.13-11.49 4.17-17.7zm229.45 31.65c-.96-4.8-4.05-8.4-5.39-12.8-1.75-5.75-2.57-11.79-4.46-17.37-2.17-6.38-.39-12.85-2.1-19.12-.47-1.74.36-3.84.59-5.77.08-.69.37-1.1 1.15-1.17.87-.07 1.15.46 1.62 1.06 2.09 2.68 2.45 5.99 3.38 9.05a23 23 0 0 1 .85 8.12c-.22 3.3 1.85 6.33 2.43 9.66.77 4.42 1.4 9.24 3.65 12.95 3.22 5.33 4.55 11.47 8.38 16.55 3.37 4.48 3.48 10.3 3.28 15.85-.26 7.43-2.72 13.6-9.49 17.68a35 35 0 0 1-15.56 4.76c-8.19.65-16.55.87-24.22-2.72-4.95-2.3-10.17-4.49-13.63-9.12q-.34-.5-.56-1.08c-.15-.34-.24-.7-.46-1.4 3.51.38 6.05 2.52 8.76 3.79a22 22 0 0 0 9.25 2.23c5.4.02 11.04.28 16.1-1.55 5.57-2 11.92-2.66 16.21-7.57 1.17-1.33 1.38-1.87-.72-2.21-6-.98-10.76-4.61-15.27-8.25-2.12-1.7-3.23-4.83-4.4-7.49-.66-1.5.71-2.52 2.15-2.74 4.71-.72 9.37-1.99 14.23-1.38 1.31.16 2.67.02 4.22.02zm98.08 112.4c0 2.9.04 4.96 0 7.02-.03 1.15.42 2.85-1.37 2.89-1.32.02-2.75-.4-3.4-2.08a38 38 0 0 1-2.41-9.16c-.14-1.2-.42-1.2-1.32-1.57-1.49-.63-3.02-.5-4.51-.8-4.72-.97-9.65-2.76-14.28-1.37-5.16 1.54-10.22.59-15.3 1.08-1.9.19-3.17-.61-4.64-2.11 5.28-1.3 10.3-2.25 15.15-3.66a62 62 0 0 1 23.9-2.2c6.22.66 12.55 2.2 17.92 5.35a23.3 23.3 0 0 1 9.51 11.17c.32.77.42 1.53-.27 1.93-1.19.7-2.37 1.32-3.97.85-5.2-1.53-10.52-2.74-15.02-7.35zM491.52 720.8c-7.51-.04-14.75-1.95-21.9-3.87-9.25-2.5-18.76-4.15-27.64-7.93-3.87-1.64-7.7-3.4-11.66-4.85-1.26-.46-1.88-.19-2.88.6-2.38 1.9-4.6 4.12-7.57 5.18-.61.21-1.24.5-1.65-.12-.38-.57.27-1 .44-1.46a35 35 0 0 1 3.67-7.38c1.5-2.26 5.84-4.15 8.54-3.38 5.12 1.45 9.87 3.92 14.87 5.66 2.97 1.03 6.22.88 9.27 2.01 9.24 3.42 18.84 5.62 28.4 7.98 4.74 1.17 9.4 2.8 14.18 3.88.88.2 1.56.69 1.6 1.62.02 1-.89 1.11-1.61 1.43-1.96.85-4 .7-6.04.62zm-205.84 34.17c3.81-2.43 4.54-7.41 8.75-9.57 3.16-1.61 4.54-5.4 7.84-6.99 7.67-3.72 12.82-10.53 18.78-16.2 3.98-3.78 6.69-9.34 7.82-15.17 1.02-5.26 2.83-10.17 6.19-14.42.55-.7.93-1.9 2.05-1.37.84.4.47 1.49.33 2.23-.85 4.41-2 8.7-4.1 12.76-1.28 2.5-1.6 5.46-2.64 8.1-2.64 6.62-6.1 12.73-11.53 17.56-2.3 2.04-3.85 4.7-6.37 6.7-4.74 3.78-9.83 7.06-14.5 10.95-2.26 1.9-5.35 2.69-7.7 4.69-1.2 1.02-2.96 1.25-4.92.72zM326.38 557c2.47-6.24 1.9-13.02 3.45-19.43.5-2.07.95-4.16 1.53-6.2.43-1.5 1.14-3.29 2.96-2.78 1.95.56 4.63.47 5.08 3.53.77 5.24-.88 9.82-2.85 14.62-1.55 3.78-3.73 7.34-4.77 11.36-.3 1.2-.74 3.26-2.64 2.77-1.67-.43-3.13-1.63-2.76-3.87m279.77-75.56c-.03 4.05-1.68 7.65-3.27 11.24-.67 1.5-3.17 1.16-4.2-.41-1.91-2.97-1.76-6.45-2.37-9.72-.34-1.76-.87-3.54-.3-5.43.22-.7.45-1.81.91-1.71 2.47.52 5.14-.78 7.3.21 1.77.82 1.9 3.23 1.93 5.22v.62zm-322.9 67.39c2.7.54 4.42 2.5 6.48 3.87 4.22 2.8 7.29 7.03 11.78 9.53.63.34 1.05 1.26 1.33 2 .64 1.77 3.22 3.91 2 4.96-1.65 1.43-4.38-.58-5.93-1.67-4.16-2.94-7.9-6.5-11.65-9.98a33 33 0 0 1-4.75-5.75c-.57-.87-1.49-2.6.73-2.96zm36.9 20.5c.26 3.13-2.01 2.7-2.79 2.1-4.7-3.74-10.07-6.64-14.19-11.13-1.04-1.14-1.86-2.17-.83-3.68 1.07-1.55 2.37-.92 3.75-.46 3.88 1.3 6.9 4.06 10.36 6.05 2.74 1.59 2.6 5.02 3.7 7.12m211.16 164.5c-3.59-3.29-5.88-6.48-6.61-10.64-.18-.96-.33-1.83.8-2.32 1.15-.5 1.47.26 2.11 1.04 2.74 3.28 3.42 7.13 3.7 11.92m-65.25 30.89c.4 0 .75-.1 1 .02.75.31 1.08 1.06.85 1.72-.65 1.82-.79 3.95-2.66 5.15a2 2 0 0 1-2.02.18c-.09-.05-.22-.15-.21-.2.23-1.89.4-3.78.73-5.63.24-1.35 1.46-1.12 2.32-1.24zm-55.43-130.77-2.84 2.4c-.9-1.6-3.73-1.18-3.84-3.45-.05-1.11 1.14-1.37 2.06-1.18 1.6.34 3.02 1.18 4.61 2.23m1.88 62c.56.25 1.65-.08 1.7 1.1.03.95-.88 1.01-1.52 1.23a2.5 2.5 0 0 1-1.22.06c-.98-.17-.83 2-2.08 1.01-.59-.46-.1-1.2.06-1.72.31-1.08 1.22-1.53 2.32-1.61l.73-.08zm80.47-439.65c-.47.98 1.06 2.4-.56 2.71-1.38.27-2.98-.16-3.76-1.57-1.08-1.94-2.03-3.95-3.18-5.87-1.3-2.17-.18-4.28 1.48-5.7 2.26-1.96 1.05-3.06-.7-4a38 38 0 0 0-9.3-3.73c-.5-.11-1.18.01-1.48-.28-.78-.75-2.26-1.27-2.1-2.4.19-1.37 1.67-1.1 2.76-1.15 7-.24 12.75 2.82 18.6 6.26 6.3 3.68 7.91 9.16 8.07 15.71.03 1.53-.4 2.9-1.9 3.04-1.25.12-1.98-1.18-2.39-2.39-.61-1.87-1.05-4-3.62-4.01s-2.38 1.75-1.93 3.39zm90.14 44.06c1.39-.66 2.19-.8 3.3-.37 5.27 2 9.87 5.33 15.09 7.4 1.03.41 1.7.97 1.47 2.3-.23 1.26-1.03 1.28-2 1.4a36 36 0 0 0-10.56 2.86c-1.91.84-4.93 1.61-5.78-.55-.7-1.76 1.4-4.5 3.22-5.33 3.29-1.5 1.55-2.24-.14-2.77-2.56-.8-2.06-3.9-4.6-4.94m-300.9 329.65c-2.56-1.65-2.36-4.49-2.78-7-.35-2.1-.24-4.3-.24-6.45 0-.74-.23-1.9.86-1.95a2.8 2.8 0 0 1 2.1 1.04c2.43 3.3 2.34 11.13.05 14.36"/><path fill="#000" d="M375.9 485c4.25-.07 7.33 2.35 10.79 3.64 1.93.72 2.95.3 3.85-1.35 1.93-3.58 5.37-5.98 7.4-9.5.69-1.22 2.24-1.63 3.32-1.74 1.72-.17 3.41.84 2.49 3-1.75 4.13-1.9 8.9-5.32 12.38-.9.93-1.41 2.39.97 3.28 3.93 1.46 7.45 3.86 10.82 6.4.73.56 1.32 1.3.8 2.08-.78 1.17-.29 3.4-2.53 3.39-1.6 0-2.91.69-4.36 1.21-3.37 1.22-6.16-.65-8.67-2.5-3.33-2.46-4.22-2.33-6.55.92-2.37 3.33-4.8 6.65-8 9.31-1.13.95-2.28 1.75-3.76 1.15-1.46-.6-1.2-2.14-1.64-3.36-1.62-4.59 2.86-6.77 3.95-10.27.27-.87 1.29-1.98 2-2.95 1.07-1.48.67-2.58-.86-3.14-3.34-1.23-5.7-3.75-8.24-6.02-1.04-.93-1.48-1.95-.83-3.51.95-2.28 2.62-2.58 4.37-2.41z"/></svg>