<svg xmlns="http://www.w3.org/2000/svg" width="1080" height="1080" fill="none" viewBox="0 0 1080 1080"><path fill="#fff" d="M18.2 607.21c.62-3.41 1.54-6.8 1.78-10.24a28.6 28.6 0 0 1 4.06-13c1.38-2.3 2.22-4.9 3.53-7.24.78-1.4 1.82-2.78 3.05-3.77 2.85-2.3 6.14-4.08 8.75-6.6 1.45-1.39 1.95-3.8 2.8-5.8 1.72-4.02 3.49-8.01 5.03-12.1 1.17-3.07 2.05-6.24 2.98-9.4.68-2.28 1.57-3.78 4.35-4.48 2.52-.63 5.2-2.42 6.84-4.47 4.95-6.15 11.63-8.43 19.05-9.97 2.1-7.08 3.96-14.56 6.6-21.75 2.3-6.25 5.55-12.15 8.21-18.3 1.03-2.34 1.42-4.96 2.32-7.38 2.87-7.7 5.93-15.33 8.74-23.06 2.57-7.06 4.68-14.3 7.48-21.25.93-2.3 2.09-5.3 3.96-7.14 1.1-1.07 3.05-.44 2.81-2.43-.46-3.81.1-7.75.25-11.64.02-.6.32-1.36.06-1.8-3.8-6.37 1.18-9.52 4.92-12.85 1.98-1.77 4.91-2.47 6.87-4.24 1.6-1.44 2.41-3.74 3.51-5.69.89-1.57 1.35-3.53 2.57-4.74 8.13-8.02 16.45-15.83 27.97-18.81 6.14-1.6 13.67-5.52 19.24-.64 1.72 1.51 3.12 4.93 5.52 4.97 1.35 0 2.98-1.81 4.04-3.15 5.79-7.33 13.76-8.7 22.23-7.78 2.27.24 4.95-.58 7.2 1.02 1.94-1.17 3.52.94 5.7-.47.5-.33.98-1 1.07-1.58a11.8 11.8 0 0 1 8.72-9.71 35 35 0 0 0 6.16-2.3c3.47-1.68 5.06-1.14 6.58 2.42.64 1.5 1.42 2.95 2.2 4.54 3.83-1.94 3.6-5.53 4.8-8.32.68-1.58.65-4.3 1.68-4.74 2.74-1.13 2.5-5.33 6.11-5.28 1.9.03 2.37.8 2.06 2.44-1.38 7.16 1.82 12.7.73 19.9-.27 1.78 4.98 2.56 6.19 3.71 1.02.97-5.65 4.38-4.12 3.74a33 33 0 0 0 8.63-5.04c1.88-1.57 3.55-2.1 6-1.6.6 4.45-2.03 7.72-4.58 12 2.46 0 4.55.37 6.46-.06 5.22-1.2 10.38-2.7 15.55-4.11.57-.16 1.38-.4 1.59-.83 2.13-4.55 6.54-4.88 10.52-5.2s7.84-.28 11.5-2.27c.92-.51 2.46.11 3.72.21-.16 1-.44 2-.46 3-.02 1.25-.8 2.49 1.2 3.51 2.19 1.13 3.75 3.43 5.8 4.93 2.06 1.51 4.25 3.02 6.63 3.9 1.91.7 3.7.48 5.27-2.02s4.56-4.2 7.18-5.87c4.38-2.8 6.05-6.24 4.62-11.52-1.63-6.02-1.76-12.54-4.01-18.27-3.55-9.1-8.26-17.74-12.6-26.52-2.4-4.85-4.82-9.73-7.62-14.36a146 146 0 0 0-9.25-13.57c-4.09-5.32-8.76-10.2-12.8-15.57-3.72-4.95-4.47-11.17-5.68-17.02-.9-4.35-.85-8.97-.6-13.43.11-1.87 1.62-3.8 2.83-5.44 5.74-7.76 12.77-13.48 23.1-12.72 3.08.23 6.21 1.4 9.07 2.7 3.37 1.53 6.45 3.13 10.44 2.28 2.66-.57 5.55-.1 8.33-.11 5.68-.03 11.28-.34 16.47-3.13 1.38-.74 3.11-.83 4.8-1.23-1.42-9.03 4.63-14.57 11.26-19.56 6.68-5.04 13.75-9.56 20.46-14.57 6.83-5.1 13.42-10.55 20.14-15.8a45 45 0 0 1 5.01-3.43c.59-.34 1.76-.43 2.22-.07 2.2 1.74 4.23 3.67 6.05 5.28.7-1.6 1.61-4.03 2.82-6.3.33-.63 1.7-1.3 2.26-1.1.98.37 1.74 1.38 2.5 2.19.34.37.45 1.32.72 1.34 3.27.28 3.5 3.11 3.5 5.1-.01 5.06-.68 10.11-1.08 15.17-.05.6 0 1.2 0 2.05 7.9-6.22 12.5-14.36 15.36-23.55 1.15-3.66 1.52-7.56 2.67-11.22.5-1.58 1.9-3 3.25-4.08.43-.34 2.3.36 2.9 1.1 1.79 2.17 4.12 4.41 4.66 6.96.64 3.06-.16 6.5-.67 9.7-.78 4.9-1.89 9.74-2.8 14.6-.44 2.38 0 4.28 2.94 4.49.2.01.4.1.6.16 2.31.62 5 2.24 6.84 1.56 1.72-.64 2.53-3.73 3.76-5.72 1.21-1.96 2.89-1.6 4.57.63.85 1.12 2.19 1.87 3.3 2.8.73-1.25 1.75-2.42 2.12-3.76.63-2.34.6-4.87 1.34-7.17.48-1.49 1.82-2.7 2.78-4.02.97.73 1.87 1.57 2.91 2.16 4.12 2.35 3.52 6.67 4.28 10.34.99 4.73 1.58 9.54 2.3 14.33.55 3.61 1.04 7.23 1.59 11.09l2.44.12c-.33.86-.86 1.64-.9 2.45-.59 12.19-3.46 23.98-6.22 35.8-.4 1.74-.28 3.99-1.34 5.1-3.57 3.73.88 5.85 1.44 8.67.46 2.27 2.27 4.35.48 6.73a8 8 0 0 1-1.88 1.8c-5.41 3.46-4.66 9.61-5.85 14.6-2.84 11.83-7 23.16-10.9 34.61a61 61 0 0 1-9.03 17.2c-.36.47-.95.93-1.5 1.07a1227 1227 0 0 1-15.46 3.74q-5.42 1.26-10.79 2.47l4.5 6.63-.5.55-9.74-2.4 5.2-1.99c.08-3.32-2.41-3.46-4.2-3.94-5-1.32-10.03-2.78-15.15-3.41-7.25-.9-14.91-2.94-21.8.13-9.86 4.39-10.17 4.2-11.84 14.78 3.06.17 10.76.06 13.66.8a222 222 0 0 1 21.67 6.82c13.87 5.49 19.57 6.2 33.42 11.76 6.86 2.74 16.07 8.3 22.9 11.14 8.5 3.52 19.41 6.86 27.85 10.52 9.06 3.92 11.7 5.66 20.43 9.28.94-.64 5.2 2.48 5.92 2.53 6.53.43 10.57 2.47 17.1 2.77 7.17.33 13.03 1.96 19.62 3.79 8.61 2.39 17.42 2.94 26.24 4.44 17.34 2.92 34.5 7.93 51.47 12.46 12.38 3.3 24.72 9.32 36.94 13.2 8.65 2.73 16.93 5.45 25.62 8.01 11.8 3.47 23.86 7.26 35.75 10.4 10.59 2.79 21.14 4.49 31.62 7.62 2.13.64 3.9 3.24 3.93 6.43.02 1.7 2.5 3.59 4.19 5.01 4.09 3.44 6.83 7.7 9.34 12.4a86 86 0 0 0 10.28 15.15c4.54 5.34 7.76 11.26 10.42 17.62 1.5 3.6 5.86 6.42 7.4 10 .74 1.73 3.29 2.95 3.71 4.33 1.42.21 2.33 1.08 3.1 1.86.63.64-.84 4.4-1.24 5.57-1.07 3.1-.79 9.6-2.48 12.38-2.03 3.35-4.81 1.1-2.88 3.72 1.43 1.96 3.32 3.58 4.76 5.54 2.73 3.73 5.18 7.66 7.94 11.36 1.03 1.39 2.54 2.44 3.93 3.53 1.04.82 2.26 1.4 3.35 2.15 3.89 2.75 3.88 7.34 0 10.08-3.45 2.43-1.95 4.83-5.9 7.6 2.55.93.38 1.36-.52 4.28-1.38 4.47-1.35 9.27-1.17 13.87.16 4.42-.81 8.2-2.31 12.15-.86 2.25-1.03 7.23-1.6 9.6-.78 3.3-7.36 7.51-10.38 5.18-3.5 2.16-3.71 2.9-6.98 5.02-.72.46-3.85 4.82-4.33 5.57-4.18 6.42-6.45 9.6-10.52 16.09-.88 1.4-3.28 3.34-3.72 4.95-.9 3.36-6.1 8.97-9.28 8.05-.59-.18-1.04-7.62-.77-8.07 1.18-2.04.87-4.06.88-6.25 0-3.84.86-7.68 1.02-11.53.07-1.9-.79-3.82-.94-5.75-.28-3.74-.72-7.52-.46-11.25.54-7.78-2.43-14.54-5.3-22.13-1.62-4.28-1.64-9.3-3.1-13.62-1.02-3.02-2.02-6.29-3.1-9.29-2-5.6-2.57-7.89-4.95-13.61-.88.4.02-2.84-.33-2.56-5.1 3.98-9.94 4.98-15.14 3.8-7.03-1.61-14.56-5.72-21.66-6.81-5.45-.84-9.39-.7-14.86 0-3.47.44-1.8.73-3.1 4.33-.88 2.48-8.74 3.74-10.97 3.4-7.29-1.14-14.57-2.32-21.86-3.4-9.93-1.46-19.9-2.64-29.8-4.33-10.6-1.82-21.09-4.37-31.71-6.07a500 500 0 0 0-30.82-3.8c-9.36-.9-18.78-1.1-28.14-1.97-7.98-.74-15.9-2.05-23.85-3a794 794 0 0 0-23.25-2.51c-12.93-1.15-25.88-2.12-38.82-3.19-1.6-.14-3.2-.44-4.84-.67-1.08 9.81-8.74 14.86-14.53 21.23a807 807 0 0 0-15 16.85c-4.24 4.93-8.55 9.82-12.36 15.07-8.08 11.12-19.04 19.3-28.62 28.88-9.46 9.47-18.66 19.22-26.24 30.4-9.35 13.77-19.33 27.13-28.66 40.91a523 523 0 0 0-19.5 30.96 680 680 0 0 1-24.94 39.57c-5.44 8.06-9.55 17.03-14.16 25.64-5.12 9.59-10.33 19.14-15.15 28.87a575 575 0 0 0-11.84 26c-1.9 4.4-1.13 9.11-.09 13.53 3.15 13.28 7 26.4 9.91 39.74a90 90 0 0 0 10.15 25.82c.5.87 1.18 1.65 1.8 2.46 4.68 6.22 4.63 10.64-.32 16.55-5.33 6.37-12.23 4.31-20.08 5.55-7.13 1.13-14.22 2.77-21.08 1.75-4.3-.65-8.63-1.65-12.95-1.66-13.5-.03-26.13-3.79-38.25-9.13-9.5-4.18-18.53-9.42-27.76-14.2-4.53-2.35-9.5-4.14-13.48-7.21a144 144 0 0 1-18.07-16.42c-1.89-2.05-1.82-6.2-2-9.43-.2-3.76.36-7.54.52-11.31.43-10.64.76-21.29 1.28-31.93.16-3.22 1.35-6.46 1.07-9.6a105 105 0 0 0-2.73-15.97c-.89-3.57-2.68-6.92-4-10.22l-16.45 1.53-.34-4.82c-6.35 1.47-12.55 2.7-18.61 4.4-3.46.98-6.48 3.14-10.17.15-.94-.77-3.6.5-5.44.93-7.12 1.65-14.16 3.9-21.38 4.83-7.84 1.01-13.6-3.29-18.11-9.5-3.55-4.89-7.4-9.55-11.11-14.3-2.6-3.32-6.44-3.9-10.1-3.76-7.2.28-14.52-5.38-15.08-12.52-.3-3.7-.43-7.5.07-11.16.52-3.87 2.18-7.25 6.8-8.07 1.6-.29 3.05-1.4 5.2-2.46.28-6.01.5-12.53.89-19.03.56-9.59.98-19.19 1.94-28.73.51-5.1 2.25-10.06 3-15.14.4-2.8.45-5.9-.3-8.6-2.26-8.2-5.12-16.23-7.48-24.4-1.19-4.12-1.43-8.54-2.8-12.58-1.2-3.55-3.98-6.6-4.97-10.19-1.67-6.1-3.7-12.52-3.3-18.66.38-6.26-.97-11.72-2.82-17.34v-8.67zm884.46 432.64-4.89-.62c-3.66-.44-7.52.17-10.69-2.71-.65-.58-2.49-.03-3.73.24-9.9 2.16-19.93.98-29.9 1.18-6.89.14-13.79-.15-20.68.06-9.86.31-19.4-1.5-28.97-3.56-8.6-1.85-17.33-3.07-26.03-4.39a83 83 0 0 1-24.72-7.81c-6.97-3.5-14.63-4.44-21.92-6.67-6.3-1.94-12.66-4.44-18.16-7.98-2.72-1.75-3.99-6.28-5.18-9.8-1.73-5.09-3.46-10.34-3.99-15.64-.75-7.61-.47-15.33-.53-23-.04-5.1.88-10 3.12-14.67 1.4-2.9 3.02-4.87 6.4-5.71 8.36-2.08 11.86-8.89 13.28-16.34 1.3-6.82 1.5-13.95 1.22-20.9-.14-3.6-2.78-7-3.6-10.65-1.92-8.68-8.07-14.67-12.74-21.65-5.49-8.2-10.43-16.76-15.37-25.3-1.24-2.17-2.5-3.28-4.98-2.72-.79-3.33-2.41-5.75-5.6-7.04-1.34-.54-1.27-4.05.2-4.84a68 68 0 0 1 8.92-4.2c10.27-3.75 20.7-7.1 30.87-11.08 5.38-2.11 10.4-5.17 15.52-7.91 2.23-1.2 3.99-.77 6.15.4 8.8 4.78 10.61 14.2 14.82 21.97 6.27 11.56 10.56 24.16 18.3 34.98a23 23 0 0 1 2.75 5.34c.95 2.55 2.15 4.33 5.44 3 .6-3.59.54-6.8-3.15-9.7-2.5-1.94-3.8-5.43-5.68-8.29.09-.15.17-.57.37-.63 3.26-.96 2.06-3.62 2.5-5.83.67-3.54 1.92-7 3.16-10.4.24-.66 1.53-1.13 2.41-1.32 3.03-.65 6.1-1.13 9.18-1.69-2.39-4.67-4.92-9.45-7.3-14.3a4819 4819 0 0 1-15.66-32.28c-2.14-4.46-1.48-9.1.74-13.1 1.24-2.22 3.98-3.96 6.42-5.1 4.88-2.29 10-4.13 15.08-5.93 6.42-2.27 13-4.11 19.37-6.51 6.68-2.52 13.26-.02 16.08 6.82 1.4 3.38 2.4 6.93 3.47 10.44 2.19 7.16 7.16 12.54 11.66 18.16a840 840 0 0 0 20.57 24.66c1.29 1.5 3.4 2.89 5.3 3.13 4.2.54 8.5.4 12.75.38a48 48 0 0 1 22.03 5.32c4.02 2.02 8.34 3.44 12.58 4.98 12.14 4.43 24.27 8.9 36.48 13.13 7.09 2.45 14.45 4.15 21.47 6.75 10.23 3.79 20.49 7.64 30.32 12.34 5.96 2.86 11.37 7.06 16.57 11.24 3.04 2.43 5.16 6 8.27 9.74 4.49-2.67 9.94-5.79 15.26-9.1 3.19-2 4.68-1.62 9.51 1.18 3.53 2.06 5.48 5 5.39 9.7-.23 11.45.17 22.91.52 34.37.18 5.76.75 11.5 1.26 17.25.09 1 .77 1.97 1.17 2.95v.61c-1.02 1.13-1.87 2.49-3.09 3.32-8.65 5.89-16.86 12.5-27.59 14.67-5.63 1.13-11.09 3.18-16.64 4.78-3.62 1.05-7.26 2.04-10.25 2.87 0 5.65.24 10.64-.05 15.6-.41 6.8-3.46 12.77-8.84 16.57-6.7 4.73-14 8.74-21.44 12.23-9.14 4.28-18.73 7.58-28.02 11.55-7.65 3.26-15.1 6.99-22.73 10.3-5.9 2.56-11.96 4.78-17.94 7.16z"/><path fill="#fff" d="M283.73 40.26c1.23.52 2.42 1.2 3.7 1.51 5.3 1.35 7.98 5.22 9.54 10 1.17 3.6 2.54 7.3 2.67 11 .13 3.49-1.24 7.03-1.98 10.7 4.55-.32 5.2 4.31 7.67 6.86 1.28 1.31 2.35 2.82 3.08 3.72 5.71-4.2 11.03-7.91 16.08-11.94 1.97-1.57 3.49-3.76 4.94-5.86 2.07-3 4.6-4.66 8.4-4.37 1 .07 2.2-.58 3.1-1.2 4.32-3 8.5-6.18 12.87-9.13 2.57-1.74 5.6-2.12 8.36-.65 3.77 1.99 7.75 2.3 11.86 2.4 1.95.06 3.89.51 6.35.86 3.1 3.42 6.74 7.33 10.27 11.35 4.46 5.09 5.9 11.64 8.1 17.76a65 65 0 0 1 3.05 12.24c.79 5.26-.73 10.42-3.31 14.82-3.71 6.32-8.45 11.99-14.87 16.26.25 1.1.76 2.42.74 3.74 0 .62-.97 1.65-1.6 1.74-.75.1-1.63-.57-2.41-.99-.7-.37-1.32-.95-2.05-1.18-.23-.08-.98.65-1.05 1.08-.32 1.9-.5 3.8-.66 5.72-.08.92.3 2.02-.07 2.75-.8 1.49-1.95 2.78-2.96 4.16-.9-.94-2.1-1.74-2.63-2.86-1-2.12-1.62-4.42-2.57-7.16-5.53 3-11.73 5.78-17.3 9.5a184 184 0 0 0-31.37 26.33 105 105 0 0 0-21.85 34.27c-3.23 8.31-6.09 16.72-7.13 25.48a56 56 0 0 0 3.71 27.83 62 62 0 0 1 4.02 15.4c.7 5.7-1.13 11.2-4 16.21-8.17 14.21-27.03 18.95-41.09 15.57-6.31-1.51-11.94-4.1-14.98-10.14-1.28-2.55-1.84-5.58-2.22-8.46-1.35-10.18 2.29-19.26 7.06-27.85 2.8-5.04 6.25-9.76 9.87-14.26a74 74 0 0 1 9.54-9.57c2.53-2.18 2.23-4.72 1.7-7.27-1.39-6.5-3.16-12.91-4.48-19.43-.5-2.48-.03-5.14-.26-7.7-.73-8.1-1.77-16.18-2.3-24.29-.26-4.28 0-8.65.55-12.9.7-5.52 1.93-10.97 2.9-16.44 1.1-6.34 5.25-10.27 10.39-13.53 1.05-.68 2.62-2.63 2.5-2.77-1.34-1.58-3.24-4.3-4.45-4.05-3.17.62-4.83-.38-6.04-2.88a26.3 26.3 0 0 0-14.4 9.72c-2.67 3.54-5.99 6.7-11.01 6.98-4.25.23-7.37-1.62-10.19-4.57-3.73-3.9-7.37-7.95-11.52-11.38-4.41-3.64-6.08-8.24-5.82-13.53.28-5.97 1-11.94 1.93-17.84.28-1.77 1.93-3.3 2.83-4.99 5.23-9.81 13.85-16.58 21.5-24.25 5.03-5.06 9.8-10.36 14.69-15.57 2.86-3.05 6.04-4.64 10.5-3.93a19.4 19.4 0 0 0 14.08-3h8.05zm-16.5 69.75-.53-.53c1.26-1.64 2.36-3.46 3.84-4.87.99-.92 2.54-1.17 2.11-3.1-.1-.52.46-1.27.86-1.8 2.32-3.18 4.71-6.31 7.01-9.51.86-1.2 1.26-2.84 2.33-3.76 2.74-2.38 5.83-4.37 8.59-6.73.83-.7 1.61-2.24 1.45-3.24-.64-3.8-.69-7.49.74-11.13.4-1.02.7-2.09 1-3.15.67-2.48-1.7-10.2-3.8-11.34-4.98-2.73-10.12-4.12-15.44-.73-3.6 2.3-7.69 2.43-11.56 1.65-3.53-.71-6.21 0-8.56 2.43-3.83 3.94-7.49 8.07-11.39 11.94-6.06 6.03-12.43 11.76-18.38 17.9-4.84 5-9.16 10.47-10.19 17.72-.27 1.91-.55 3.85-.55 5.78 0 4.18-.1 8.22 4 11.24 3.84 2.82 7.1 6.41 10.54 9.75 3.85 3.76 9.1 3.7 13.08-.17 3.08-3 5.87-6.5 9.44-8.74 4.14-2.6 9-4.08 13.2-5.9 0-1.15-.1-2.36.1-3.52.02-.18 1.37-.14 2.1-.2zm436.38 550.88c2.58-.74 4.48.51 5.9 2.46q8.46 11.46 16.7 23.08c8 11.31 15.9 22.7 23.83 34.07.7 1 1.32 2.04 1.88 2.92.94-.12 1.96-.59 2.57-.26 2.86 1.49 5.6 2.04 5.56 7.13-.06 9.08-2.8 17.39-4.8 25.92-.93 4.03-2.89 7.82-4.45 11.7a3 3 0 0 1-1.27 1.3c-1.82.99-7.9.21-9.24-1.1-2.28-2.24-2.85-5.81-1.52-9.08 1.64-3.99 3.06-8.08 4.9-11.97 1-2.09 2.97-3.7 4-5.77 1.04-2.11 1.47-4.53 2.18-6.84l-2.83-1.29c-1.53 1.78-6 .92-7.59-1.77-4.9-8.28-9.54-16.72-14.6-24.9-5.06-8.22-10.5-16.2-15.55-23.96-.97.53-1.43 1-1.82.95a8.3 8.3 0 0 1-6.62-4.55 1382 1382 0 0 0-12.92-23.88c-.68-1.25-1.95-2.16-2.91-3.26-1.18-1.35-2.7-2.56-3.44-4.13-7.34-15.6-14.89-31.12-20.38-47.51l-2.72-8.14c2.1-.82 4.1-2 6.47-.4.22.15.53.28.8.27 4.18-.16 4.93 3.18 6.28 6.01 3.1 6.48 6.32 12.9 9.5 19.34.18.37.32.93.62 1.05 5.51 2.06 6.17 7.6 8.23 11.95 4.44 9.33 8.4 18.9 12.52 28.37.32.73.47 1.53.7 2.3zM485.33 138.45c-5.65 2.85-6.85 2.8-9.23-.18-1 2.24-1.84 4.56-3.08 6.63-.34.56-2.32.9-2.8.48-1.54-1.34-2.73-3.1-4.06-4.68l-.47.77c-1.38-.8-3.75-1.4-3.99-2.47q-2.41-10.91-3.97-21.98c-.48-3.55-.08-7.22-.08-10.6 5.57-.88 1.84-5.37 3.54-7.13 1.27-.6 2.9-.87 3.75-1.84 2.55-2.86 5.52-2.58 7.2.94.91 1.9 1.85 3.77 3.04 6.17.96-1.16 1.64-1.93 2.25-2.73 2-2.6 5.03-2.58 7.23-.02.56.65 1.35 1.59 2.02 1.57 3.48-.1 4.45 2.55 5.2 4.92a515 515 0 0 1 6.87 23.6c1 3.8-4.1 11.22-7.84 11.45-2.97.18-4.97-1.7-5.59-4.91zm55.18 528.22c2.28-2.48 4.27-2.54 6.77.21 4.32 4.77 8.3 9.86 12.6 14.67 7.68 8.62 15.3 17.3 23.27 25.64 8.3 8.68 17.3 16.72 25.37 25.6 4.13 4.53 7 10.24 10.24 15.53 1.4 2.3-2.08 7.58-5.08 8.04-4.55.7-6.24-1.03-5.53-5.6.12-.75.1-1.83-.32-2.31-5.14-5.84-10.27-11.7-15.61-17.33-3.58-3.77-7.72-7.01-11.21-10.85-9.78-10.72-19.4-21.6-27.42-33.76zm-1.16 83.23a148 148 0 0 1-4.9 37.28c-3.04 11.67-5.61 23.46-8.8 35.09-2.07 7.5-4.78 14.84-7.4 22.19a28 28 0 0 1-3.57 6.93c-.73 1-2.57 1.19-3.9 1.74-.43-1.12-1.25-2.26-1.22-3.36.26-9.75 4.86-18.36 7.52-27.47 4-13.76 8.82-27.29 12.45-41.13 2.56-9.74 3.78-19.84 5.46-29.81.62-3.7.8-7.48 1.32-11.2.12-.83.93-1.54 1.42-2.3.54.83 1.5 1.64 1.55 2.5.18 3.17.07 6.36.07 9.53zm76.6-132.11c3.08-.32 5.12-.63 7.18-.73 3.46-.16 4.69 2.89 5.99 5.05 2.23 3.7 3.5 7.88 2.2 12.61l-1.11-1.49c-.17 2.64-.43 5.24-.48 7.85-.05 2.54-1.93 2.39-3.23 1.89-3.83-1.47-6.93-3.62-7.55-8.32-.7-5.44-1.9-10.83-3.01-16.87zm-84.18-467.92v5.6c3.9-.88 4.12 1.36 3.98 3.97-.07 1.4 0 2.8-.07 4.18-.2 4.02-1.59 5.3-5.75 5.38-2.11.04-3.49-.78-3.4-3.09.15-3.85.02-7.66 3.27-10.76 1.1-1.06.92-3.47 1.32-5.27zm1.17 62.58c.28.68.71 1.34.8 2.04.86 6.19 1.76 12.38 2.35 18.6.11 1.17-.94 2.6-1.76 3.67a31 31 0 0 1-5.5 5.64q1.38-6.6 2.69-13.2c.14-.73.2-1.6-.07-2.26-2.03-5.04-.06-9.7 1.48-14.49zm1.3-8.76c6.9 5.05 8.8 14.28 4.7 22.2-.87-3.83-1.72-7.33-2.46-10.84-.76-3.61-1.44-7.24-2.25-11.36M432.08 333.61l10.17 3.46c-4.05 1.14-6.64.4-10.17-3.46"/><path fill="#000" d="m423.53 189.97-3.56 1.1 3.79-11.57c-8.6 8.13-17.22 14.73-27.65 18.23l-1.79 18.28c8.21 1.2 16.86 2.4 25.47 3.77 5.56.88 11.09 1.99 16.62 2.99l.3.07c2.73.41 5.49.69 8.18 1.28 3.5.77 5.52-1.36 7.14-3.7 3.36-4.88 8.64-6.8 13.5-9.4 1.6-.86 3.17-1.86 4.88-2.37 10.12-3.05 20.05 0 26.8 10.24q.58.87 1.1 1.8c2.22 3.98 2.12 3.83 6.25 1.49 1.65-.94 3.8-1.02 6.27-1.61 2.12-7.26 5.47-14.96 12.5-20.3 2.68-2.03 5.82-3.62 9.49-2.34.28.1.6.11.89.15 5.94.71 11.02 4.93 11.71 10.86 1.15 9.84.45 19.55-5.2 28.19-3.36 5.12-8.3 8.16-14.07 9.88-.83.25-1.8.03-2.7.03l-.48.76c1.24 1 2.74 1.83 3.66 3.08.8 1.09 1.65 2.94 1.23 3.93-.78 1.87-2.48 3.34-3.75 5.03q-1.79 2.42-3.5 4.91a1 1 0 0 0-.04.8c3.86 8.22 7.82 16.38 11.6 24.64s4.08 16.73 1.06 25.32c-.23.62-.22 1.32-.33 1.99l-.76.05c-.07-.87-.5-1.96-.13-2.59 2.57-4.36.1-8.42-.55-12.6-1.04-6.67-5.86-11.3-9-16.86-1.5-2.65-2.94-5.34-4.21-7.65-3.31 9.55-6.49 19.4-10.15 29.06-2.67 7.05-5.88 13.9-9.07 20.74-1.1 2.35-2.66 3.98-5.89 4.53-4.37.75-8.55 2.07-13.13 1.84-2.42-.12-4.9 1.17-8.43 2.1 3.35 1.86 6.08 3.5 8.92 4.91 3.32 1.65 6.56 2.34 10.18.2 1.32-.79 3.56 0 5.63.08-2.07 4.9-5.25 6.72-10.2 6.55l2.19 1.2c-.83.34-1.33.73-1.82.72a147 147 0 0 1-54.18-10.61c-2.97-1.2-5.75-2.9-8.56-4.46-2.52-1.4-4.55.25-5.87 1.6-1.72 1.78-2.56 4.4-3.91 6.89 3.43.34 6.52.7 9.6.96a112 112 0 0 1 31.74 7.25c1.76.7 3.75.83 5.48 1.59 3.42 1.48 6.66 3.35 10.09 4.82a17041 17041 0 0 0 76.52 32.4c8 3.37 16.1 6.49 24.25 9.46 1.75.64 3.92.07 5.88.2 8.23.58 16.48 1.04 24.7 1.85 17.3 1.73 34.06 6.35 51.04 9.86 26.8 5.54 52.36 15.15 78.28 23.6 14.72 4.8 29.35 9.9 44.04 14.81 7.61 2.54 15.27 4.93 22.87 7.46 1.32.44 2.5 1.26 3.76 1.9l-.25 1.1c-1.45 0-2.9.15-4.33-.03-20.1-2.5-39.4-8.36-58.65-14.4q-14.44-4.53-28.84-9.22c-14.04-4.55-28-9.37-42.12-13.64a452 452 0 0 0-29.81-7.71 727 727 0 0 0-35.22-7.31c-8.51-1.53-17.28-1.73-25.73-3.49a165 165 0 0 1-24.97-7.26c-17.47-6.66-34.75-13.85-52.05-20.97a652 652 0 0 1-22.8-10.04c-3.18-1.45-6.07-3.67-9.35-4.79-3.83-1.3-7.96-1.75-11.95-2.6-.87-.19-1.82-.33-2.55-.78-8.97-5.57-19.13-7.3-29.26-9.13-3.24-.58-6.47-1.23-10.48-2 5.37 5.36 10.47 10 15.05 15.1 9.3 10.38 18.44 20.97 21.95 34.98a76 76 0 0 1 2.35 13.42c.18 2.73 1.07 3.94 3.5 4.7q19.92 6.13 39.8 12.43c8 2.55 15.95 5.26 24.04 7.94l2.2-2.85-.64 3.1c4.93-.67 9.88-1.6 14.87-1.9 2.64-.17 5.36 1.05 8.04 1.04 2.3-.01 4.67-.69 6.88-1.43 9.42-3.15 18.76-3.4 28.54-1.22 30.4 6.78 59.97 16.37 89.59 25.83 10.69 3.4 21.2 7.34 31.81 11.02 1.56.55 3.15 1.02 4.72 1.52l-.12.92c-2.73-.44-5.53-.62-8.18-1.35-21.12-5.86-42.16-12.02-63.33-17.72a2212 2212 0 0 0-53.89-13.65c-5.36-1.3-11.3-.84-16.33-2.83-6.17-2.45-10.78 1.02-15.76 2.48-16.6 4.88-33 10.4-49.47 15.72a3231 3231 0 0 0-32.12 10.56c-8.77 2.94-17.49 6-26.56 8.43 2.86-1.6 5.62-3.45 8.62-4.77 18.38-8.14 37.49-14.29 56.6-20.42q9.31-3 18.64-6.03l7.44-2.12-.43-1.27-7.48 2.74c-4.28 2.1-8.3-.02-12.2-1.12-15.9-4.49-31.7-9.32-47.55-14-12.52-3.68-25.07-7.3-37.6-10.98-22.02-6.48-43.96-13.24-66.07-19.39a252 252 0 0 0-32.76-7.03c-9.58-1.34-19.4-1.25-29.12-1.28a269 269 0 0 0-23.6 1.13c-9.1.78-18.16 2-27.24 3-2.22.25-4.46.4-6.68.67-2.18.28-4.25.56-5.5 2.91-1.36 2.55-3.18 4.84-4.68 7.3-.26.43.1 1.23.17 1.86l-1.13-1.37c-.54 1.27-.87 2.7-1.66 3.78-7.98 11.05-12.92 23.68-18.64 35.9a1439 1439 0 0 0-17.35 38.14c-4.08 9.42-7.46 19.13-11.38 28.62-5.2 12.56-10.81 24.95-15.88 37.55-3 7.47-5.32 15.21-7.94 22.83l-.4 1.13.83-.53c9.5-5.95 18.88-12.05 28.48-17.8 13.26-7.93 26.68-15.63 40.06-23.37.97-.56 2.19-.66 3.3-.98l.55 1c-2.37 1.74-4.61 3.71-7.15 5.18-8.65 4.99-17.46 9.7-26.1 14.7-9.03 5.22-17.96 10.65-26.93 16-5.1 3.04-10.25 6.03-15.3 9.16-.92.57-1.9 1.68-2.08 2.67-1.98 11.11-3.66 22.28-5.75 33.36-1.15 6.1-3.09 12.05-4.36 18.13-1.77 8.49-3.22 17.04-4.86 25.55-1.05 5.42-2.33 10.79-3.27 16.22q-1.36 7.95-2.27 15.97c-.9 7.77-1.81 15.55-2.4 23.35-.71 9.26-1.1 18.55-1.62 28.02 39.79-20.25 76.8-44.2 113.2-69.17 36.6-25.1 70.5-53.58 104.22-82.93-.9-.04-1.58.04-2.17-.14-.5-.16-1.07-.55-1.27-1-.12-.26.3-.98.67-1.21.92-.59 1.93-1.03 2.94-1.5 3.53-1.64 7.01-3.43 10.64-4.81 1.54-.6 3.5 0 5.14-.44 12.24-3.32 24.4-6.92 36.67-10.12 14.14-3.7 28.36-7.1 42.55-10.57 6.99-1.7 13.95-3.52 21.02-4.83 2.26-.42 4.79.59 7.2.9q1.37.19 2.76.19c9.86 0 19.73-.16 29.6.05q15.51.3 31 1.25c9.56.58 19.1 1.48 28.63 2.45 13.18 1.33 26.35 2.83 39.51 4.33 10.4 1.18 20.8 2.49 31.2 3.7 8.97 1.06 17.93 2.15 26.92 3.06 9.22.93 18.46 1.68 27.7 2.5 9.55.83 19.1 1.56 28.63 2.51 6.55.66 13.06 1.67 19.6 2.4 2.02.21 4.4.7 5.24-2.19l-3.2-3.38.32-.7c3.87.75 6.78-1.9 9.98-2.63 8.68-1.93 10.49-9.39 14.07-15.35 4.65-7.74 7.29-16.33 8.55-25.27.29-2.07-.1-4.26-.44-6.36-.13-.8-.96-1.51-1.75-2.66l2.73-2.16c-1.76-1.9-3.8-3.88-5.5-6.1a8 8 0 0 1-1.58-4.03c-.19-3-1.08-5.17-4.24-6.06-9.03-2.57-17.9-6.17-27.1-7.59a57 57 0 0 1-22.47-8.52 11 11 0 0 0-5.36-1.6c-10.67-.14-21.35.15-32.02-.15-6.17-.17-12.33-1.1-18.48-1.81-1.1-.13-2.14-.78-3.2-1.2l-.02-.9c.85-.32 1.7-.86 2.57-.91 7.05-.48 14.1-.97 21.16-1.26a779 779 0 0 1 24.06-.6c3.68-.03 7.45 0 11.04.7 2.67.53 5.13 2.16 7.64 3.37 3.9 1.9 7.64 4.18 11.68 5.67 2.39.88 5.34.12 7.85.8a869 869 0 0 1 29.41 8.72c1.01.31 1.8 1.96 2.3 3.15.98 2.4 1.48 5.01 2.64 7.3.46.9 2.07 1.4 3.26 1.74 4.5 1.3 9.08 2.35 13.57 3.7 2.13.65 3.56.48 5.24-1.27 6.35-6.66 14.11-10.74 23.41-11.1 3.48-.12 6.89.23 9.94-1.93-2.89-5.13-8.66-8.07-11.48-13.92l-1.24.37-1.1-1.78c-1.77 0-3.26-.04-4.75 0-12.21.35-24.4.87-36.34 3.74-1 .24-1.87 1.03-2.86 1.38-.86.3-1.82.35-2.74.5.11-1.06-.16-2.42.4-3.15 3.21-4.25 8.04-5.88 12.88-7.43a75 75 0 0 1 26.2-3.67l-3.62-8.73c10.96.21 13.3 8.76 17.64 15.3 3.39-1.1 5.75 1.17 7.95 3.22a132 132 0 0 1 10.42 10.76c.72.85.16 2.96-.14 4.42-.13.62-1.13 1.06-2 1.82 3 4.51 6.45 9.26 9.4 14.3 4.2 7.18 7.6 14.88 12.2 21.77 2.13 3.2.76 5.27.17 7.88-.16.67-.52 1.3-.81 1.95-2.22 4.8-3.71 9.24.55 14.2 2.13 2.46 2.09 6.7 3.71 9.77 1.14 2.15 3.22 4.03 5.3 5.4 3.59 2.37 7.47 4.3 11.28 6.3 1.92 1.02 3.27 4.06 2.23 6.06a28.3 28.3 0 0 1-14.6 13.5c1.17 6.53 2.06 12.9-1.04 19.61-2.64 5.72-3.5 12.25-5.34 18.37-.98 3.24-2.34 6.37-3.63 9.52a7.6 7.6 0 0 1-2.42 3.15l1.52-4.91c-7.75 3.7-13.03 8.76-15.21 16.67-1.36 4.91-3.02 9.63-9.16 10.26-.79.08-1.62-.2-2.75-.36-2.39 6.91-7.95 10.89-15.16 13.14 2.67 5.58 6.2 10.13 11.37 13.39 2.05 1.29 2.84 3.1 2.46 5.98-.32 2.53.78 5.51 2 7.93 2.69 5.36 5.9 10.45 8.78 15.72 2.08 3.83 1.9 5.2-1.19 8.03-3.54 3.24-7.28 6.27-10.98 9.43l5.73 14.26 3.15-1.34-1.35 2.33 10.19 20.87 7.37.67c-.98 6.31 4.14 9.48 6.92 13.77 3.6 5.56 7.8 10.72 11.87 16.23 1.1-.64 2.7-1.64 4.36-2.55 2.48-1.36 4.92-1.27 7.82-.97 5.74.57 9.45 4.42 13.96 6.95 2.37 1.32 4.54 2.75 6.3 1.64 2.25 1.38 3.78 2.7 5.54 3.33a1812 1812 0 0 0 33.7 11.7c16.34 5.46 32.75 10.69 49.08 16.16 6.17 2.07 11.8 5.22 16.2 9.69 1.24-.88 2.27-2 3.49-2.28.6-.14 1.56 1.3 2.18 1.84 6.23 0 12.5-.08 18.77.02q11.75.21 22.55 4.94 2.61 1.16 5.1 2.6c1.42.8 2.55 1.75 4.54 1.2 2.48-.68 3.57.74 3.6 3.79.01 2.77-.1 5.56.15 8.32.73 8.17 1.58 16.34 2.45 24.51.3 2.84.81 5.65 1.22 8.46v25.38c-.2.3-.56.58-.59.89-.75 7.35-4.22 13.25-10.01 17.64-12.35 9.38-26.6 13.84-41.84 15.5-1.49.15-1.78.4-1.72 2.22.29 8.01.13 16.05.13 24.44-2.27 0-3.82-.19-5.29.06a6.7 6.7 0 0 0-3.15 1.46c-4.22 3.71-7.95 8.16-12.6 11.2a169 169 0 0 1-21.8 11.97 435 435 0 0 1-31.03 12.88c-9.63 3.57-19.49 6.56-29.33 9.5-3.32.99-7.09 2.72-10.09-1.13-.29-.37-1.38-.21-2.08-.14-5.78.57-11.53 1.41-17.31 1.74-9.99.56-19.99.79-29.98 1.22-1.63.07-3.26.47-4.89.72h-9.9c-.5-.2-.97-.52-1.48-.57-11.66-1.3-23.42-1.95-34.95-3.98-13.87-2.44-27.59-5.84-41.27-9.23a366 366 0 0 1-27.1-7.99c-4.38-1.44-8.4-3.96-12.67-5.78-1.38-.59-3.84 0-4.42-.86-2.22-3.37-9.01-3.44-7.15-9.72.03-.14-.22-.34-.3-.53a118 118 0 0 1-7.44-34.36c-.26-3.65-.55-7.3-.47-10.95.1-4.44-.16-9.1 1.05-13.27 1.91-6.59 6.46-11.1 14.31-11.89-5.43-12.12-.24-23.15 2.64-34.33-4.1.6-4.84 3.47-5.18 6.8-.48 4.55-1 4.91-5.68 4.86-.93 0-1.86-.1-2.78-.01-3.15.33-5-1.73-6.58-3.85a19 19 0 0 1-2.9-5.88c-.59-2.13-.9-4.49-.65-6.67.93-8.1 13.03-12.68 18.98-10.1 1.93.84 3.83 1.75 6.02 2.77-.11-.77-.03-1.43-.3-1.87-4.32-6.92-8.7-13.8-13.03-20.72-3.51-5.6-7.09-11.18-10.43-16.89-1.54-2.64-2.38-5.68-3.9-8.33a5.8 5.8 0 0 0-3.48-2.64c-2.3-.42-4.76.07-7.12-.15-7.3-.7-13.17-3.97-16.99-10.33-2.91-4.85-3.26-10.09-1.16-15.53-6.11-.47-11.92-.37-17.49-1.46-10.32-2.03-17.13-6.74-12.98-19.14 1.9-5.67 3.64-11.4 5.34-16.73l-18.34-20.72c-1.76 5.3-3.57 10.02-4.88 14.87-4.44 16.53-8.54 33.16-13.1 49.67a1178 1178 0 0 1-11.22 37.48c-1.35 4.32-3.45 8.42-4.9 12.72-1.1 3.25-2.69 6.22-2.5 10.08.19 4.31-.34 9.33-2.43 12.95a61 61 0 0 1-23 22.64c-12.4 6.97-26.08 10.79-39.72 14.63-3.84 1.08-8.92-.24-11.24 4.7-.07.14-.63 0-.87.13-.94.59-2.15 1.03-2.7 1.89-5.8 9.02-13.52 16.06-22.62 21.52-15.12 9.08-31.88 13.43-49.11 16.18-5.81.92-11.7 1.34-17.56 1.98l-22.41 2.4c-4.66.49-9.32 1.1-14 1.4-7.05.47-14.15 1.35-21.15.9-8.33-.54-16.56-2.5-24.87-3.48-8.93-1.06-17.62-2.88-25.95-6.26-3.3-1.35-6.18-3.3-7.98-6.5l1.86-2.54c-3.25.6-6.3.8-9.1 1.77-8.14 2.8-16.57 2.8-24.89 2.17-11.2-.84-21.95-4.11-32.62-7.52-13.78-4.4-27.5-8.98-41.3-13.32-12.99-4.07-25.07-9.8-35.57-18.57-3.27-2.73-6.18-6.62-11.2-3.2-.08.05-.2.03-.3.04a4.24 4.24 0 0 1-4.66-4.11c-.15-3.7 2.7-4.7 5.18-6.02-.7-5.7-.8-11 6.45-12.4-1.08-2.64-2.04-4.86-2.87-7.12-.25-.7-.43-1.7-.13-2.3 4.38-8.51 3.1-17.46 2.12-26.38-.94-8.6-2.22-17.16-2.88-25.77-.26-3.46.71-7.01 1.12-10.45-1.28.32-2.79.82-4.34 1.08a4192 4192 0 0 1-26.46 4.36c-2.3.37-4.6.9-6.92.94-9.37.15-18.77 1.21-28.11-.72-1.48-.3-3.56-.18-4.66.66-2.85 2.15-5.64 2.24-7.8-.67a10.2 10.2 0 0 0-5.34-3.86c-8.75-2.84-14.71-8.8-18.52-17.1-.93-2.03-2.29-3.87-3.35-5.64-4.12 0-8.51 1.03-12.1-.21-7.84-2.72-12.96-8.77-15.43-16.74-1.58-5.11-2.42-10.58 1.24-15.01 2.71-3.29 6.36-5.87 9.84-8.42 1.25-.92 1.88-1.5 1.96-3.16q.43-9.33 1.34-18.63c.63-6.46 1.6-12.88 2.27-19.34.57-5.59.89-11.2 1.4-16.8.52-5.66 1.2-11.3 1.65-16.97.07-.86-.4-2.03-1.04-2.63-5.59-5.38-7.78-12.04-7.55-19.62.11-3.66.44-7.33.57-11 .03-.63-.17-1.52-.6-1.89-6.38-5.4-9.34-12.79-11.7-20.45-1.13-3.69-1.7-7.55-2.52-11.33v-9.9c.2-1.02.47-2.03.6-3.06.77-5.76 1.06-11.62 2.33-17.26 2.66-11.81 7.93-22.56 14.99-32.35 3.22-4.48 6.47-9.12 12.06-11.16.44-.16.76-.91.94-1.46 1.08-3.09 1.93-6.26 3.16-9.3 5.85-14.48 15.07-25.96 29.67-32.45 1.7-.76 3.69-.91 5.93-1.43 1.2-3.78 2.68-8.12 3.96-12.52 4.17-14.36 7.97-28.84 12.5-43.09 3.35-10.54 6.4-21.23 13.46-30.35 2.1-2.7 3.81-4.42 6.89-5.15.24-.06.4-.44.83-.93l-4.82-4.3c.23-1.28.47-2.19.54-3.11.15-2.03-.1-4.12.37-6.06 1.1-4.57 2.55-9.06 3.8-13.6.83-2.97 2.35-5.04 5.74-5.25 2.1-.13 4.18-.52 6.38-.8 2.28-13.62 11.56-21.68 23.37-26.83 11.61-5.07 23.66-6.8 35 1.12 3.05-6.02 8.3-8.92 14.01-11.1a5.6 5.6 0 0 1 4.47.39c3.98 2.7 8.42 3.45 13 3.86.62.05 1.42-.35 1.9-.79 1.7-1.51 3.27-3.13 5.13-4.93-.65-2.59 0-3.86 3.07-4.74 2.19-.64 4.42-1.12 6.86-1.73-2.08-2.89-4.41-4.77-5.37-8.44a112 112 0 0 1-3.58-31.35 11 11 0 0 0-1.14-4.56c-4.64-10.66-6.04-21.15.6-31.66 3.93-6.22 9-11.23 14.63-15.82 1.9-1.55 4.02-3.2 5.09-5.29 2.13-4.2 5.71-7.93 5.05-13.27-.34-2.73-.28-5.52-.72-8.23-.2-1.28-1-2.55-1.8-3.6-2.18-2.86-4.84-5.39-6.7-8.42-3.56-5.8-3.58-12.41-3.13-18.92.45-6.6 2.23-12.86 6.36-18.25 1.4-1.84 3.21-3.53 4.03-5.6 2.7-6.84 4.84-13.91 7.57-20.74 1.81-4.54 4.28-8.82 6.78-13.88-3.18 2.55-5.03 1.83-5.95-1.65-6.85 4.07-13.2 8.64-21.04 10.12l5.12.25c-1.09.83-1.63 1.6-2.23 1.65-9.75.68-18.21-1.75-24.16-10.16-.37-.53-.92-.92-1.4-1.36-5.42-4.92-10.37-9.7-10.85-18.05a45.3 45.3 0 0 1 4.39-22.8c1.72-3.6 4.26-6.8 5.9-10.41 2.76-6.13 5.45-12.17 9.63-17.56 5.13-6.61 10.31-13.12 17.27-17.89 9.72-6.66 19.86-10.26 30.6-3.62L286.2 34h4.33c3.67 1.44 7.57 2.47 10.95 4.4 8.33 4.77 12.57 12.24 11.15 21.78-.74 5-3.41 9.72-5.2 14.53l3.46 2.55 10.32-8.13c9.27-7.3 19.24-13.55 30.26-17.7 8.12-3.07 16.6-5.26 25.03-7.32 3.34-.82 7.02-.16 10.54-.28 4.18-.14 8.37-.7 12.53-.52 5.56.25 11.13.87 16.65 1.63 3.47.48 6.9 1.41 10.28 2.34a268 268 0 0 1 15.29 4.45 585 585 0 0 1 25.46 8.94c7.03 2.71 14.08 5.55 20.72 9.07 8.45 4.48 16.51 9.68 24.68 14.65 2.75 1.67 5.28 3.7 8 5.43 3.77 2.41 5.11 6.23 6.37 10.2.56 1.8 1.88 3.36 2.36 5.15a367 367 0 0 1 4.95 20.35 235 235 0 0 1 3.55 21.4c.66 6 2.07 12.1-.22 18.17-.66 1.75-.7 3.8-.68 5.7 0 .63 1.12 1.25 2.14 2.3-3.45 3.72-8.33 2.57-12.63 3.5v12.93c2.85.57 6.46-2.46 8.8 2.31-2.03.86-4.03 1.48-5.78 2.52-5.26 3.07-11.19 4.4-16.76 6.65-1.24.5-4.13-.02-4.33-.65-.44-1.49-.32-4.2.64-4.88 2.85-1.96 6.18-3.23 9.4-4.63 1.22-.53 2.63-.65 4.37-1.05l-3.62-19.74c-2.32 5.2-4.35 9.96-6.6 14.61-.55 1.13-1.88 1.9-2.84 2.83-.87-1.42-1.93-2.76-2.53-4.28-.39-.97-.08-2.22-.52-3.36l-.37 4.2-24.03 1.75c3.4-5.74.96-11.53 1.33-18-1.03 1.88-1.7 3.1-2.35 4.33l-.59-.23 2.56-8.12-.82-.6c-2.43 15.4-13.69 21.5-25.69 26.83l-1.09-.79 2.5-21.18c-4.43 5.36-7.97 10.29-12.18 14.55-4.06 4.12-8.37 8.34-14 10.19-3.5 1.15-7.4 1.12-11.14 1.46-.6.06-1.3-.7-2.12-1.19l5.32-2.69 2.4-1.86.96-.9 2.66-1.65.63-.45.75-.78.03-.83-.47.5-.63.61-.6.63-2.95 1.54q-.4.46-.77.93l-2.52 1.81zm300 502.3.4.61 1.11 1.02.34-.35-.88-1.02-.6-.64-.61-1.22-.49.25zm67.33 137.44.71.9.37-.3-.66-.93-.76-.92c-4.09-6.54-8.43-12.93-12.2-19.66-2.95-5.26-6.66-10.39-6.32-16.96q-6.48 2.69-9.93-2.98c-.17-.26-.47-.44-.59-.72-1.99-4.53-4.81-8.83-4.2-13.9-4.36-2.65-7.61-1.47-10.74 2.41-1.54 1.9-1.79 2.77-.56 4.86a341 341 0 0 1 10.36 19c1.24 2.46 2.7 5.27.98 7.55l20.32 39.66 4.4-8.96-7.33-5.04c1.48-2.15 2.77-3.54 3.5-5.18.77-1.7 1.52-1.98 2.97-.93.8.6 1.64 1.5 2.5 1.55 2.08.12 4.18-.18 6.27-.3zM721.56 690l1.12.79.55-.64-1.24-.67-1.25-1.23-.42-.6q-.01.48-.06.94zm-108 60.26 1.52 2.33.55-.37-1.53-2.37-2.28-2.8q-5.7-6.8-11.35-13.67a2308 2308 0 0 1-16.97-21.07c-6.7-8.41-13.27-16.92-20-25.32-4.13-5.17-8.44-10.2-12.67-15.28l-1.26-.73-.28.4 1.12.92c1.53 2.24 2.95 4.56 4.6 6.7 10.4 13.48 20.61 27.12 31.37 40.3 7.95 9.75 16.65 18.88 25.02 28.3zM52.18 609.14q.54.2 1.1.43l-.52-.84-7.37-4.32.18 3.11 6.6 1.61zm41.87 207.38-.85-.54.41 1.13.6 5.27h4.63zm769.35-238.9-.83-.54.34 1.18 1.62 13.72 6.8-10.19zm-765.3 37.7c4.96-2 10.12-3.12 15.43-2.42 2.15.27 4.75 1.23 6.08 2.79 5.56 6.49 6.43 16.83-.4 23.36l-.56.85 1.15-.4c4.86-1.56 6.32-5.88 7.22-10 1.56-7.17-3.92-14.54-9.1-17.17-7.18-3.65-15.1-2.52-20.37 2.58l-.55.84zm594.71 29.1c-5.5-11.32-10.9-22.68-16.53-33.93-3.06-6.12-6.49-12.06-9.76-18.08-.81-1.5-1.75-2.58-3.5-.74q.7 1.12 1.34 2.29 5.94 10.72 11.8 21.48 8 14.78 15.97 29.59l4.36 8.96 1.06-.55zM251.84 213.43c.05-2.58.36-5.19.1-7.74-.6-6.13-1.73-12.21-2.18-18.35-.37-4.99-.08-10.02-.08-14.87-.3.62-.9 1.47-1.13 2.41-1.14 4.7-2.3 9.38-3.22 14.12-1.7 8.85.4 16.8 6.07 23.8l-.32.6.77.02zm-11.77 42.93c-11.5 10.13-17.2 19.94-10.43 35.83.33-.98.65-1.78.85-2.6 1.66-6.71 3.08-13.51 5.03-20.15 1.25-4.27 3.29-8.31 4.98-12.46l.4-1.12zm562.9 612.6c-.77.44-1.6.8-2.28 1.33-4 3.12-7.96 6.28-12.19 9.63l-8.33-9.1q-.36-.3-.7-.64l-11.18-18.53c-1.31 1.97-3.31 3.65-3.43 5.46-.19 2.73-1.34 2.32-2.63 1.44-2.93-1.98-6.71-3.15-7.63-7.26-.22-.97-.8-2.6-.48-2.79.99-.63 2.3-.93 3.51-.97.82-.04 1.65.56 2.28.8 1.29-1.17 2.58-2.2 3.67-3.41.4-.43.6-1.42.38-1.94-.7-1.64-1.64-3.2-2.55-4.89-15.19 12.3-32.24 20.17-51.63 22.43 2.11 3.93 3.85 7.94 6.3 11.47 2.19 3.13 3.13 7.53 7.75 8.65.57.13 1.3 1.78 1.11 2.52-.98 3.88 1.89 5.98 3.59 9.28.53-4.88 2.7-6.09 6.58-4.43a3 3 0 0 0 2.26-.12c2.41-1.1 5.3-.13 5.62 2.45.37 2.86.1 5.8-.05 8.71-.05.99-.4 2.68-.87 2.77a5 5 0 0 1-3.2-.8c-2.55-1.62-4.97-3.46-7.96-5.58 1.39 2.37 2.43 4.1 3.43 5.85 3.1 5.44 7.08 9.77 13.54 11.1l.5.4-.13-.74-.48-3.7 5.98 3 1.61-4.04c4.58 1.32 4.56 4.72 4.2 9.25l13.36-6.92-1.03-.82v-4.8c.02-1.69.6-3.61-.01-5.02-1.51-3.47-.73-6.09 2.86-7.86 2.65-1.32 5.18-2.89 7.85-4.14 1.92-.9 4.5-.95 5.92-2.29 5.18-4.9 10-10.18 14.96-15.32.53.03 1.1-.06 1.57.1 6.2 2.2 12.35 4.53 18.57 6.63 3.5 1.18 7.1 2 10.67 3-.17-.9-.52-1.25-.96-1.43-9.87-3.92-19.74-7.86-29.66-11.68-1.04-.4-2.37-.05-3.83-.05zm20.73-322.55-1.1-.93c-2.26 4.42-4.45 8.8-6.71 13.14-2.49 4.79-5.75 8.8-10.65 11.44-3.38 1.82-7.14 3.33-8.87 6.93.57 1.1 1.24 2.04 1.58 3.07 1.53 4.68 3.1 9.34 4.41 14.08 2.57 9.22 4.89 18.52 7.48 27.73.72 2.55 2.71 4.86 2.95 7.39.6 6.55.7 13.17.7 19.76 0 6.64-.49 13.28-.51 19.92-.01 2.9.6 5.8 1.03 9.64 1.56-1.68 2.64-2.58 3.37-3.7 5.05-7.74 6.62-16.6 7.9-25.51.94-6.52 1.58-13.07 2.63-19.56.25-1.51 1.66-2.83 2.52-4.24l.86.41v24.37c.62-2.51 1.24-4.91 1.8-7.33q3.25-13.99 6.47-27.98c.84-3.68 1.56-7.38 2.52-11.03.24-.95 1.14-1.74 1.74-2.6l1 .43-2.85 37.83.8.16c2.43-8.44 4.93-16.87 7.27-25.35 1.12-4.07 1.86-8.24 2.94-12.31.18-.7 1.14-1.18 1.74-1.76.51.64 1.45 1.27 1.48 1.93.23 4.65.27 9.3.39 13.96-.8 3.19-1.52 6.4-2.4 9.58-1.13 4.06-2.4 8.08-3.75 12.64l4.25-2.57c.54-4.08 1.13-7.86 1.5-11.68.27-2.66.23-5.36.32-8.04 1.7.83 1.42-.39 1.64-1.41.62-2.96 1.47-5.87 2.07-8.83.3-1.45.65-3.08.28-4.44-3.48-13.01-7.12-25.99-10.57-38.46l-4.06.58c-.28-2.73-.8-5.07-.67-7.36.13-2.26-.78-3.7-2.38-4.94-4.41-3.4-8.8-6.85-13.28-10.15-4.16-3.05-8.45-5.92-12.69-8.86l-.68.52c1.69 3.3 3.28 6.64 5.1 9.85.68 1.2 1.88 2.1 2.84 3.14l-.4.53zM716.55 990.5c-.15.13-.3.27.03-.03-.27.35-.14.19-.02.03-.13.32-.42.66-.38.96.67 4.8 1.25 9.62 2.14 14.38.27 1.48 1.03 3.58 2.15 4.08a74 74 0 0 0 11.31 3.88 1655 1655 0 0 0 30.96 8.06c8.69 2.17 17.38 4.4 26.16 6.15a520 520 0 0 0 29.85 5.05c7.04.98 14.18 1.47 21.29 1.75 4.98.19 9.99-.45 14.99-.52 7.32-.09 14.64-.13 21.96.06 4.18.1 8.36.57 12.51 1.08 7.28.9 14.64 3.28 21.36-1.9.16-.12.33-.26.52-.33 16.68-6.25 33.43-12.36 50.05-18.79 14.24-5.51 28.37-11.3 40.59-20.84 1.54-1.2 2.46-2.02 2.36-4.16-.37-7.64.25-15.4-.87-22.91-1.24-8.25-3.98-16.28-5.98-24.07-11.51 5.78-22.67 11.63-34.06 17a312 312 0 0 1-24.2 10.02 497 497 0 0 1-25.29 8.44c-8.33 2.6-16.67 5.26-25.58 5.13-1.07-.01-2.15 1.16-3.3 1.83-1.48.14-3.3.33-5.11.48a4 4 0 0 1-1.51-.16c-2.82-.82-5.6-1.78-8.43-2.52-11.76-3.08-23.78-4.45-35.88-5.36-4.18-.3-8.36-.68-12.49-1.36-8.89-1.48-17.74-3.14-26.6-4.81-9.45-1.8-18.91-3.5-28.3-5.57a783 783 0 0 1-31.24-7.61c-5.42-1.44-11-2.7-15.5-6.57-1.63-1.4-1.37-2.24-.34-3.11l-4.28-8.67a8.36 8.36 0 0 0-5.4 8.93 408 408 0 0 1 2.6 18.6c.82 7.07 1.42 14.17 2.01 20.3l31.8 5.66c-1.5.48-2.25.94-2.98.92-6.04-.16-12.1-.13-18.1-.74-3-.3-5.87-1.8-8.8-2.75zM103.62 739.15l-.02 1.2c-.18.07-.49.14-.5.24a7445 7445 0 0 0-3.12 26.34q-.52 4.52-1 9.16c10.06 1.5 20.22 2.65 30.57 2.14-2.6.97-5.26 1.71-7.86 1.58-8.56-.42-17.08-1.3-25.63-1.69-2.33-.1-3.15-1.1-3.41-2.94-.38-2.6-.58-5.23-.78-7.85-.84-10.74 1.64-21.17 3.15-31.68.46-3.16 2.35-5.45 5.7-5.87 3.12-.39 6.26-.57 9.4-.65 3.8-.1 7.63-.03 11.5-.03-.77-20.93 2.75-41.78 4.87-62.86-10.77-.3-21.5-.44-32.19-2.97.66-2.1 1.25-3.53 3.67-2.94 1.75.43 3.6.47 5.4.73 6.3.9 12.63 1.66 18.9 2.78 4.12.73 4.47.68 4.9-3.32.08-.78.43-1.54.58-2.32 2.2-10.84 4.31-21.7 6.6-32.52 2.34-11.04 5.83-21.8 5.34-33.38-.2-5.04 1.15-10.24 2.46-15.2.61-2.32 2.27-4.82 5.67-4.63.72.04 1.88-.75 2.17-1.44 1-2.4 1.9-4.86 2.5-7.39 4.4-18.47 9.46-36.7 17.03-54.2 6.8-15.72 11.62-32.26 20.01-47.32 2.05-3.69 3.3-7.84 5.45-11.46 7.62-12.82 15.45-25.5 23.24-38.2 1.68-2.74 3.54-5.37 5.3-8.03-5.64-.78-10.97-1.41-16.25-2.32-1.44-.25-2.74-1.3-4.74-2.32 2.19-1.33 3.74-1.93 4.82-3 2.96-2.98 5.78-6.1 8.54-9.26 3.6-4.12 7.09-8.36 10.69-12.5.56-.63 1.58-1.49 2.2-1.36 3.13.66 6.19 1.65 9.28 2.45.87.23 1.97.54 2.71.22 12.97-5.57 26.85-6.07 40.54-6.63 12.2-.5 24.51.24 36.72 1.18 8.04.62 16.05 2.21 23.92 4 11.72 2.66 23.32 5.83 34.95 8.88 10.26 2.7 20.74 4.79 29.66 11.11 1.65 1.17 2.9 2.2 2.25 4.5-.46 1.61.29 2.53 2.05 2.97 9.33 2.4 18.64 4.9 28.57 7.54-3.37-16-13.36-28.03-21.27-40.53-1.64 1.51-3 3.4-4.85 4.37-13.16 6.95-27.07 9.5-41.78 6.29-6.68-1.46-12.97-3.85-18.38-8.22-1.15-.93-2.55-1.53-3.83-2.28-3.96-2.35-7.4-2.61-9.25 2.54-4.74-2.8-5.34-4.32-3.52-7.56l-14.44-11.84c-4.7 6.11-10.37 10.92-18.1 12.19-6.01.98-12.14.78-18.08-.94-.98-.28-2.23-1.12-2.5-1.98-.25-.82.44-2.1 1.03-2.96 1.02-1.5 2.29-2.83 3.45-4.22l-.67-.58c-.29.22-.56.48-.88.66-3.62 2.16-7.16 4.5-10.93 6.38-1.84.9-4.11.93-6.72 1.46.24-4.05.76-8.72.74-13.38-.02-4.86-.55-9.72-.88-14.95-3.13 4.7-6.2 9.07-9 13.6-1.31 2.1-2.76 2.16-4.55 1.07-4.55-2.77-9.06-5.6-13.85-8.56l-6.9 4c1.66 1.26 3.22 2.26 4.52 3.51 1.94 1.86 3.07 4.31 2.06 6.86-1.07 2.66-3.88 2.05-6.03 1.94-6.84-.36-13.66-.96-20.48-1.48-1.36-.1-3.02-.84-4.04-.32-4.05 2.06-7.9 4.52-11.36 6.56l6.19 8.71c.78.19 1.84.16 2.51.64 6.15 4.43 8.48 11.79-.02 17.14-.85.54-1.84.84-2.71 1.33-5.85 3.3-12.32 4.45-18.86 4.86-6.47.4-10.03-1.68-10.72-7.89-.26-2.28.89-4.7 1.44-7.28-4.07-2.44-8.98-2.26-13.85-1.96-1.2.07-2.88.55-3.45 1.42-3.73 5.7-9.9 8.9-13.92 14.57-4.17 5.88-10.59 10.17-15.9 15.28-.91.88-1.4 2.3-1.84 3.55-1.11 3.18-2.06 6.43-3.16 9.61-.16.48-.79.8-1.2 1.2l-.93-1.3c-1.71.7-3.43 1.3-5.02 2.15a3.3 3.3 0 0 0-1.43 1.9c-.68 2.63-.9 5.4-1.77 7.94-4.64 13.43-9.62 26.74-14.1 40.22-4.84 14.5-9.71 29.02-13.71 43.75-3.03 11.15-4.77 22.64-6.94 34.01-.88 4.57-1.21 9.24-2.05 13.82-1.05 5.7-2.38 11.34-3.52 17.01-.1.47.2 1.3.58 1.53 3.6 2.2 4.2 4.9 3.3 9.14-1.2 5.74-1.12 11.76-1.42 17.67-.28 5.9-2.08 8.55-6.77 9.38l-.86 6.85c1.52-.35 2.64-.46 3.64-.86 5.6-2.24 11.22-4.46 16.75-6.86 1.79-.78 4.18-1.7 4.87-3.2 1.52-3.35 4-5.45 6.8-7.44 6.65-4.73 13.7-4.8 21-1.87 7.07 2.84 10.12 8.57 10.83 15.72 1.24 12.29-6.66 21.6-17.06 24.89-2.91.92-4.76 2.48-6.96 4.12s-4.6 3.32-7.17 4.1c-5.35 1.6-10.88 2.64-16.34 3.9-9.08 2.07-17.88.9-26.45-2.3-1.64 1.4-3.38 2.7-4.9 4.22-3.7 3.63-7.97 7.02-8.89 12.46-.96 5.7-1.38 11.5-1.92 17.25-.89 9.4-.15 18.9-2.4 28.2-.84 3.53-.5 7.34-.72 11.01a537 537 0 0 1-.66 9.49q-.91 10.95-1.8 21.91c-.07.83.33 1.77.06 2.49-2.41 6.57-1.97 13.34-1.86 19.64l103.71 16.2-9.16-28.26q-5.6 2.58-9.88 1.04l-2.13-20.89c-1.38 2.38-.9 4.37-.44 6.45.47 2.15.64 4.37.96 6.6l-3.18.8c-3.53-4.97-4.74-10.4-4.34-16.17.08-1.24 1.52-3.48 2.05-3.4 3.31.54 4.5-1.59 5.3-3.2 2-.65 3.39-1.1 4.67-1.53l-1.28-9.26c-5.12.65-10.16 1.21-15.17 1.96-3.1.45-3.78 1.75-3.1 5.16zm61.4 13.46-23.2 13.08.94 3.43c2.93 10.39 6.02 20.73 8.73 31.17 1.44 5.54 4.13 11.34-.84 16.68-.76.82-1.22 1.93-1.85 2.96l28.23 14.42c-5.24 3.3-10.85.67-14.9 3.22.73 4.17 1.84 8.12 2.04 12.12.33 6.98.03 14 .13 21 .14 10.73-2.36 21.06-4.66 31.4-.48 2.16-.05 2.57 2.01 2.9 3.05.47 6 1.5 9 2.3l-.1.47-11.37.88c.49 1.03.62 2.02 1.17 2.37 5 3.19 9.83 6.81 15.2 9.25 7.91 3.6 16.15 6.55 24.4 9.34s16.77 4.77 25 7.6c11.97 4.12 23.75 8.72 36.24 11.3 12.47 2.56 24.6 2.16 36.72-1.63 2.24-.7 2.46-1.66 1.73-3.7-3.04-8.55-6.18-17.08-8.83-25.76a632 632 0 0 1-9.18-32.87c-1.71-6.91-2.71-14.2-.4-21.09a312 312 0 0 1 10.94-27.8 566 566 0 0 1 14.92-30.49c7.48-14.32 14.91-28.69 23.03-42.65 9.19-15.8 18.98-31.26 28.77-46.7 4.92-7.77 10.39-15.19 15.66-22.74 3.6-5.14 6.82-10.58 12.54-13.89 1.4-.81 2.17-2.69 3.23-4.08-3.31 1.52-6.1 3.62-9.07 5.42-13.63 8.3-27.19 16.76-41.04 24.7-6.72 3.85-14 6.72-21.12 9.86-.93.41-2.34-.25-3.53-.41.4-1.13.45-2.66 1.24-3.34 5.7-4.9 11.32-9.96 17.41-14.33a362 362 0 0 1 25.64-16.9c12.6-7.5 25.5-14.5 38.34-21.6 1.43-.79 3.28-.8 4.93-1.19 25.33-34.49 55.5-65.33 84.1-97.56-8.31-.49-16.33-.97-24.36-1.42-3.24-.18-6.68-1.03-9.7-.26-12.83 3.27-25.5 7.15-38.3 10.58-15.3 4.1-30.66 7.95-45.96 12.02-.64.17-1.57 1.63-1.39 2.13a6.1 6.1 0 0 1-1.02 6.29c-.92 1.2-1.9 2.37-2.83 3.56-4.52 5.73-8.86 11.6-13.6 17.14-3.42 3.98-7.37 7.52-11.1 11.22-8.02 7.94-15.57 16.42-24.18 23.62-9.9 8.28-20.86 15.27-31.15 23.1-7.84 5.97-15.2 12.59-23.05 18.55-14.27 10.84-28.49 21.8-43.23 31.98-17.2 11.88-34.92 22.98-52.42 34.4zm227.82-436.86c1.99-1 2.73-2.17 5.17-1.05 5.28 2.43 11.11 3.75 16.78 5.27 4 1.07 8.13 1.66 12.16 2.63 5.5 1.33 10.94 2.89 16.44 4.19 4.1.96 8.25 1.72 12.4 2.47 5.95 1.09 11.89 2.68 17.88 2.94 5 .23 10.1-1.05 15.13-1.86 1.03-.16 2.47-.93 2.79-1.78 2.04-5.41 3.78-10.92 5.67-16.38 2.62-7.56 5.42-15.04 7.86-22.64 1.83-5.72 3.23-11.57 4.75-17.13l-5.86-2.84 1.02-.5c-.31-1.25-.4-2.63-1-3.72-.72-1.33-2.06-2.33-2.77-3.67-.4-.75-.07-1.9-.07-2.86 1.81.75 3.03 1.64 4.3 1.7 3.27.15 6.57.3 9.67-1.35 1-.54 2.36-.42 3.82-.64a6.8 6.8 0 0 0-2.42-9.02c-5.7-3.6-8.32-9.11-10.86-15.2l4.03 2.5-.58-8.67c-2.62 1.12-5.13 3.48-7.89 1.02-.3 4.92-.08 9.81-1.01 14.48-2.83 14.1-12.53 26.43-29.17 29.61-6.8 1.3-12.7.25-18.04-3.5-7.55-5.3-10.07-13.43-10.82-22.18-.54-6.24 1.2-12.14 3.66-18.21l-51.43-7.29c.93 26.5 11 49.5 25.63 71.22-2.2.9-3.98 1.46-5.43-.57-4.27-5.99-8.64-11.91-12.67-18.05-2.72-4.14-4.93-8.6-7.72-13.54-.12 2.5-.44 4.3-.24 6.05q.68 5.76 1.76 11.46c.93 4.89 1.21 10.04 5.5 13.6.52.43.58 1.4 1.17 2.98L389.52 292l.63 3.92c-13.21-21.52-14.57-45.93-17.75-69.87-2.79.57-5.62 1.29-8.5 1.72-2.97.45-6 .64-9.22.97-.4-.86-1.23-1.8-1.15-2.67.29-3.44-2.24-5.52-3.63-8.13-.3-.58-1.12-.98-1.78-1.26-1.81-.75-3.92-1.05-5.48-2.14-7.47-5.28-16.62-2.78-20.41 2.32-8.28 11.1-8.28 26.83.97 37.74 2.49 2.93 5.06 5.8 7.4 8.85 2.4 3.15 4.56 6.5 6.91 9.87 1.46-2.23 2.4-3.77 3.44-5.26 3.6-5.23 9.5-3.97 14.31-4.1 6.72-.21 10.66 4.87 11.34 9.66.84 5.97-2.84 11.18-8.9 12.84-2.36.64-4.88.71-7.41 1.06.81 1.2 1.74 2.18 2.24 3.35 3.5 7.97 7.02 15.94 10.31 24 2.08 5.07 4.1 10.2 5.57 15.47 2.83 10.11 5.84 20.28 2.7 30.86 8.12 1.68 16.1 4.26 23.94 2.08.21-1.49.21-2.69.55-3.78 3-9.54 9.07-17.34 14.27-25.67 2.9-4.63 6.1-7.07 11.57-5.9.09.01.2-.13.3-.2-9.72-3.44-20.43-4.45-28.93-11.98zm408.42 600.52c2.04-1.83 4-3.74 6.15-5.43.8-.62 2.1-1.17 3-.99 5.9 1.24 11.76 2.68 17.62 4.09 9.76 2.34 19.47 4.9 29.27 7.03 10.51 2.28 21.13 4.05 31.67 6.25 3.7.77 6.53.04 9.27-2.6a29 29 0 0 1 7.55-5.4c5.26-2.5 10.8-4.41 16.15-6.75 2.52-1.1 4.93-1.66 7.63-.78a58 58 0 0 0 6.68 1.66c.65.13 1.42-.29 2.78-.6l-3.98-1.61c1.14 0 1.64-.08 2.12.01 6.23 1.2 12.43 2.65 18.7 3.6 8.95 1.33 17.88 2.78 26.29 6.28 5.55 2.3 11.09 4.79 13.77 10.82 1.08-3.41 1-3.06 4.22-1.72 2.58 1.07 3.78 2.98 4.58 5.14 3.15 8.48 6.07 17.05 9.26 26.1 1.58-.2 3.79-.4 5.97-.78a81 81 0 0 0 36.34-16.02 16.3 16.3 0 0 0 6-8.93c-1.17-1.02-2.13-1.45-2.33-2.1-1.28-4.08-2.38-8.2-3.53-12.3-9.42 6.47-29.3 13.27-36.11 12.34.02-.1.01-.26.06-.3 10.36-5.14 20.77-10.17 31.03-15.49 2.55-1.32 4.26-1.6 5.47.9l-2.91-39.45c-1.85 1.35-3.76 2.67-5.59 4.08-10.34 7.94-22.22 13.16-33.71 19.07-4.26 2.2-8.46 5.24-12.99 6a265 265 0 0 1-31.52 3.19c-11.14.5-22.38.9-33.32-2.33-1.12-.33-2.45 0-3.67.1-1.16.1-2.31.4-3.47.43-2.36.07-4.72-.06-7.08.03-2.21.1-4.48.8-6.61.47-4.75-.72-9.41-2.04-14.15-2.9-16.58-2.96-32.18-9.12-47.95-14.67-7.23-2.55-14.1-6.1-21.13-9.2l.84-3.52c-3.1-1.73-2.52 1.56-3.78 2.16.52.94.8 2.39 1.58 2.75 7.33 3.39 14.58 7.06 22.18 9.74a539 539 0 0 0 34.71 10.8c8.93 2.47 18.08 4.16 27.4 6.26-2.16 1.08-4.1 2.25-6.2 3.03-1.36.51-3.05.89-4.4.56-4.58-1.13-9.09-2.55-13.6-3.94-10.24-3.16-20.45-6.46-30.73-9.51-11.13-3.3-22.07-7-32.83-13.06l-16.14 16.37-1.14-1.5c-5 3.47-8.83 8.24-9.43 12.62zm6.2-239.37c-.3-2.78-.67-4.78-.7-6.78q-.13-9.12 0-18.23c.06-3.48.4-6.94.57-10.4.18-3.56 1.02-7.27.3-10.63-1.32-6.07-3.7-11.89-5.43-17.87-2.5-8.6-4.79-17.25-7.2-26l-2.45 2.19-2.85-9.88c-4.57 2.75-9.39 3.58-14.4 2.39a832 832 0 0 1-23.92-6.09c-1.79-.48-2.99 0-3.76 1.35a16 16 0 0 0-1.46 4.2c-.1.4.36 1.04.72 1.41 4.02 4.17 8.44 8 12.04 12.51 5.83 7.3 11.18 15 16.63 22.6 1.86 2.6 3.22 5.57 5.15 8.1a88 88 0 0 1 13 23.55c3.4 9.52 7.87 18.43 13.76 27.58M474.11 212.43c-4.06.15-8.18-.07-11.57 2.99-4.68 4.22-8.67 8.81-11.17 14.8-4.51 10.75-3.75 21 1.98 30.92 5.29 9.15 14.51 10.96 21.86 8.5a27 27 0 0 0 14.32-11.75c5.68-9.43 7.54-19.62 3.4-30.28-3.18-8.2-9.72-15.75-18.82-15.18m401.52 638.02.59.65c.45-.02 1.04.13 1.34-.1 2.7-1.98 5.3-4.14 8.07-6 .87-.6 2.37-.95 3.34-.63a1304 1304 0 0 1 27.12 9.19 4861 4861 0 0 1 54.75 19.48c2.4.87 3.6.73 4.83-1.44.57-.99 1.68-1.72 2.66-2.42 4.09-2.9 8.2-5.75 12.9-9.03-30.1-10.82-60.02-20.47-88.54-34.36-1.08 1.14-2.22 2.48-3.5 3.66-3.33 3.02-6.64 6.07-10.12 8.91-2.26 1.84-5.03 3.07-7.18 5.01-2.32 2.1-4.2 4.7-6.26 7.09zm-103.75-334.5.6-.4c.89 2.63 2.33 5.2 2.59 7.9 1.12 11.58-2.86 21.84-9.1 31.3-3.27 4.94-6.94 9.51-12.54 12.14-.94.44-1.39 1.9-1.96 2.73.55.59.68.84.84.87a6652 6652 0 0 0 25.05 5.82c.53.13 1.21.35 1.6.13 4.13-2.34 8.21-4.76 12.74-7.42-1.72-.36-2.85-.48-3.89-.85-4.97-1.73-10.04-3.27-14.8-5.47-1.4-.65-2.4-3.22-2.56-5-.07-.8 2.3-2.4 3.7-2.6 2.65-.36 5.48-.39 8.08.19 5.04 1.12 10 2.68 14.94 4.2 2.27.7 2.95 2.53 2.63 5.32-8.08-2.4-15.96-4.92-24.38-4.34 4.9 2.37 9.94 4.34 14.88 6.51 1.94.85 3.5.8 5.52.07 3.17-1.15 6.59-1.6 11.08-2.6l10.72-22.9a152 152 0 0 0-36.31-17.39c8.28 8.38 19.7 11.43 29.88 17.34-.79 0-1.24.13-1.57-.02-6.96-3.25-14.03-6.3-20.81-9.9-3.62-1.91-6.78-4.7-10.04-7.23-.57-.44-.62-1.54-.91-2.34.9-.18 1.96-.77 2.69-.49a721 721 0 0 1 21.39 8.73c3.14 1.35 6.1 3.12 9.15 4.7a2.3 2.3 0 0 0-.58-1.63q-5.6-6.84-11.24-13.66a3 3 0 0 0-1.43-.96q-11.84-3.7-23.67-7.35l-2.28 4.59zm76.75 309.59c-.73-.65-1.58-1.07-1.87-1.73-.6-1.38-1.67-3.67-1.17-4.18 1.12-1.1 3.08-1.62 4.76-1.83 1.41-.17 2.92.42 4.52.7-.81-3.15.9-3.35 2.95-3.34 1.37 0 2.75-.2 3.25-.24-2.2-2.69-4.5-5.14-6.37-7.87-1.96-2.85-7.1-1.32-7.79-6.26l5.28-2-8.06-10.32-1.79 2.27c3.32 1.4 3.62 3.46 2.52 6.42-.65 1.72-.26 3.83-.31 5.77-.03 1 0 1.99 0 3.92-3.31-3.06-6.03-3.1-9.22-2.5-1.1.2-4.44.9-4.83-2.7-.15-1.38-1.97-2.46-4.16-1.41-5.1 2.44-10.36 4.54-15.47 6.74 3 .38 2.97 2.7 2.6 5.02-.43 2.67-1.08 5.3-1.66 8.14-.26 0-.83.16-1.24-.02-3.25-1.5-6.62-2.82-9.65-4.67-1.62-1-4.17-2.22-2.2-5.42l-8.67 1.49c1.08 2.12 2.22 3.92 2.95 5.87 1.83 4.92 3.04 10.27 9.37 11.5.15.02.3 0 .3 0 .55-1.05.89-2.17 1.6-2.95.77-.86 1.9-1.42 2.86-2.1.69 1.1 1.89 2.2 1.96 3.35.1 1.97-.35 4.01-.83 5.96-1.29 5.26-1.34 5.25-6.29 2.83 1.31 2.65 1.84 5.94 3.52 6.7 7.19 3.28 14.7 5.86 22.15 8.53.93.33 2.47.04 3.28-.57 2.93-2.2 5.97-4.38 8.4-7.08 3.32-3.67 6.11-7.82 9.05-11.66l-1.79-2.84 2.06-3.53zM692.6 837.83c.37.75.52 1.26.82 1.64 3.68 4.6 7.34 9.22 11.15 13.72.56.65 1.95 1 2.87.88 2.69-.36 5.33-1.08 8-1.6 11.3-2.18 21.92-6.27 32.19-11.35 4.15-2.05 8.17-4.38 11.88-6.38l-9.91-25.82c-1.84 1.64-4.02 3.94-6.54 5.75-2.32 1.67-5.07 2.71-7.53 4.22-13.38 8.18-27.8 14-42.93 18.94M828.08 499.5c-11.46 3.61-24.04 1.81-33.01 10.9.2.1.42.14.57.26 2.65 2.1 7.93 1.18 7.65 6.66 0 .12.55.21.78.4 2.1 1.66 3.85 3.4 6.95 3.87 2.6.4 4.86 2.99 7.26 4.62 9.44 6.46 18.41 13.5 26.2 21.93 1.66 1.8 3 3.6 5.55 2.6l3.17-14.85c-4.6-5.77-9.76-11.55-14.13-17.86-4.14-5.97-7.46-12.5-11-18.54zm-50.36 290.07c1.13 1.62 2.08 2.8 2.8 4.08 2.14 3.76 4.12 7.6 6.3 11.33.41.7 1.59 1.5 2.27 1.4a77 77 0 0 0 8.82-1.96c14.67-4.14 28.42-10.24 40.74-19.05-4.88-6.6-10.27-12.83-12.39-21.28-14.8 11.42-30.35 20.92-48.55 25.49zM516.04 223.94a31.5 31.5 0 0 0 2.06 16.26c1.98 4.83 7.85 6.35 11.41 2.05 1.23-1.48 2.58-2.9 3.62-4.5a47 47 0 0 0 7.33-22.07 25 25 0 0 0-1.23-9.83c-1.94-5.69-7.45-6.83-11.53-2.55a135 135 0 0 0-8.74 10.4c-1 1.28-1.42 2.99-2.35 5.05l3.89-1.27c4.5 5.28-.74 8.87-2.1 13.44-3.6-1.65-.9-4.94-2.36-6.97zM72.82 631.34c-3.68.14-6.49.87-7.63 4.52-.95 3.05-2.31 6-2.96 9.11-1.1 5.2.06 7.98 3.67 9.07 2.6.79 5.4 1.39 8.09 1.34 4.68-.1 9.38-.5 14-1.22 7.46-1.17 7.44-1.35 5.18-8.88-.2-.67-.32-1.37-.57-2.01l-6.87-17.47-10.85 4.64c.3 4.1.42 8.08.93 12.01.5 3.84 1.4 7.62 2.11 11.43l-.77.3c-.82-1.1-1.92-2.1-2.4-3.33-2.4-6.22-3.64-12.63-1.95-19.5zm16.15-7.25c7.34 7.12 10.68 15.85 11.82 25.76.3 0 .85.17 1.07-.03 3.87-3.4 7.34-7.32 12.28-9.34.06-.03.08-.17.14-.25 3.94-5.7 4.13-13.68.87-19.1-1.03-1.7-3.07-3.48-4.93-3.88-4.06-.87-7.98.4-11.23 2.37l.19 2.41q-4.1-.76-10.2 2.06zm178.37-496.73c4.12-5.6 7.86-11.28 12.21-16.45 7.56-8.97 15.53-17.6 23.24-26.42.8-.9 1.77-3.07 1.52-3.27-1.55-1.29-3.63-3.28-5.15-3-4.25.8-7.96 2.78-10.62 6.77-4.09 6.16-8.9 11.82-13.19 17.85-3.32 4.67-6.62 9.41-9.32 14.45-1.23 2.3-.98 5.39-1.42 8.2q1.34.94 2.72 1.87zm103.49 238.15-1.94 11.23c6.13.3 12.54.7 18.95.87a43.3 43.3 0 0 0 26.5-8.01c1.46-1.02 2.54-2 1.3-3.99-1.75-2.79-3.34-5.68-5.13-8.75-6.52 13.82-24.68 18.17-39.69 8.65zm-36.55 237.75q-8.87 7.71-17.76 15.38a1539 1539 0 0 1-15.41 13.01c-4.69 3.9-9.47 7.7-14.1 11.69-.53.46-.57 1.96-.29 2.8.37 1.1 1.27 2.01 2 3.1.12-.04.46-.06.68-.23 8.88-6.86 18.01-13.4 26.51-20.7 6.62-5.68 12.45-12.26 18.6-18.48.6-.61 1.43-1.57 1.32-2.21-.27-1.55-1.04-3-1.56-4.36zm-131.24 110.3 41.93-31.35-.76-5.96-43.92 29.37zM24.52 779.04c-2 7.46-.42 14.09 3.89 19.9 4.62 6.22 11.53 5.2 18.27 4.97l-10.8-14.66-.5.26q.93 2.49 1.88 5.1c-3.12.02-3.65-2.64-4.12-4.89-.99-4.79-1.63-9.65-2.46-14.79l-1.26 6.17zm185.92-380.55 14.52 3.54 7.12-11.33c-3.52-3.87-3.16-6.2 1.52-9.27 1.3-.86 2.49-1.86 3.84-2.87l-7.57-1.78c-4.2 9-11.87 14.95-19.43 21.72zm-29.84-25.78c1.2 1.66 3.04 3.09 3.32 4.77.65 4 3.47 4.34 6.33 4.35 5.6 0 10.26-2.29 13.6-6.42l-8.2-7.34c-1.44 3.58-4.33 5.13-7.98 6.6l6.12-8.2-4.33-4.04-8.85 10.28zm18.78 343.05-3.72-7.35-17.7 11.03 1.67 9.4c6.47-4.3 12.95-8.58 19.75-13.07zm159.86-438.93c.06-5.2-3.4-9.42-7.73-9.4-3.82.03-7.2 3.3-7.27 7.02-.1 5.57 3.82 8.64 9.26 9 3.46.22 5.7-2.52 5.74-6.62m386.3 488.63 1.85.64 9.84-24.59c1.44-3.6.32-6.72-1.89-9.6-4.14-5.42-8.35-10.8-12.44-16.24-3.34-4.44-6.48-9.04-9.87-13.45-2.18-2.82-4.65-5.42-6.98-8.12-.38.7-.27 1.06-.07 1.35 5.4 7.86 10.76 15.75 16.22 23.58a505 505 0 0 0 10.59 14.64c2.2 2.92 3.54 5.86 1.95 9.5q-2.38 5.36-4.63 10.77c-1.58 3.82-3.05 7.68-4.58 11.53zm-621.18-16.32 1.34 12.3c4.6-2.58 8.87-4.96 13.09-7.44.44-.26.75-1.21.68-1.78-.43-3.35-1-6.69-1.57-10.35zm393.62 95.74.48.05c3.25-11.5 6.68-22.96 9.67-34.52 2.78-10.78 5.07-21.68 7.56-32.52.7-3.03 1.32-6.08 2-9.12.75-3.38 1.56-6.76 2.23-10.16.1-.47-.51-1.09-.79-1.63-.34.48-.87.9-1 1.43q-1.3 5.67-2.5 11.36c-.9 4.12-1.67 8.27-2.67 12.36-3.18 12.93-6.46 25.84-9.65 38.76q-2.23 9.08-4.31 18.2c-.44 1.9-.7 3.85-1.02 5.79M33.44 613.3c.71-2.6 1.52-5.18 2.11-7.8 1.72-7.73 3.18-15.53 5.06-23.22 1.99-8.08 4.87-15.98 6.38-24.14 1.12-6.08 4.78-11.69 3.63-18.22-.05-.27.74-.68 1.44-1.3l-.73-5.43c-8.06 26.7-13.24 53.4-17.88 80.1zm128.37 127.16c3.13-2 5.93-3.99 8.92-5.63 2.84-1.56 4.58-3.1 2.45-6.55-.8-1.3-.79-3.09-1.24-5.07-3.9 2.24-7.7 4.4-11.46 6.64-.32.18-.54.89-.47 1.3.52 2.95 1.13 5.88 1.8 9.3m-9.44-373.26c-6.77 6.16-13.14 11.88-15.9 20.45 1.04 1.7 2.25 1.68 3.7.52q3.09-2.44 6.24-4.82c.37-.29.94-.46 1.12-.83 1.43-2.97 2.79-5.97 4.17-8.97q.16.14.32.32zm-89.8 265.27c-5.4-4.4.2-8.6-.07-13.03-1.81 1.86-3.6 3.78-4.57 6.05-1.08 2.52-.87 5.66-2.18 8.01-3.34 6-.21 12 4.04 16.16-.63-6.16-.55-12.06 2.78-17.19m185.02-345.2c1.64-7.25 2.88-14.18 4.83-20.91 1.37-4.73 3.72-9.17 5.6-13.75.65-1.61.83-3.15-1.7-4.21-5.67 12.3-10.65 24.57-8.74 38.88zm-93.67 446.19-8.2 4.39c2.17 3.4 1.44 7.27 2.04 11.08l8.96-5.25zm23.63-362.55c2.05-4 3.05-8.53 7.56-10.46-7.08-2.53-10.4.62-14.02 8.23 2.06.7 4.1 1.42 6.45 2.23zm288.18-263.75c.62 2.56 1.31 4.84 1.72 7.18.94 5.24 1.7 10.52 2.63 15.76.15.83.87 1.56 1.32 2.33.37-.73 1.11-1.48 1.06-2.19-.31-4.87-.41-9.8-1.34-14.57-.63-3.22-.82-7.23-5.4-8.5zm-298.25 261.2 2.8-6.72c-7 .2-13.58 3.63-13.62 9.3zm160.26-294.7L358.6 62.4c-11.19.03-21.68 3.95-30.87 11.25m112.56 318.43.76-.43c-3.6-10.95-11.1-19.35-18.3-27.95l-.7.44zM267.71 168.14c.34-5.9.7-11.53.95-17.17.06-1.24-.28-2.5-.45-3.75l-1.36.08c-.88 5.18-1.85 10.36-2.62 15.57-.37 2.57 1.84 5.36 3.48 5.28zM38.05 572.06c-4.66 3.16-8.04 6.96-9.94 11.92l8.54-1.08zm83.04-166.43 1.4.6c1.97-7.52 9.24-10.24 13.7-15.86-2.8 3.2-6.02.23-8.83.9zm200.7-323.1-.71 1.16c.61.01 1.28.2 1.82.03 3.14-1.06 4.76-4.73 8.44-4.95.24-.01.69-1.03.6-1.1-.45-.43-1.09-1.06-1.58-.99-2.9.38-5.8.81-8.63 1.53-.88.22-1.52 1.39-2.27 2.12zm42.75 292.58.7-.64c-.97-2.03-1.98-4.04-2.87-6.1-.9-2.1-2.27-2.33-4.08-1.22l-5.22 3.21zm-30.42 6.82-.06-.46c-8.75-.49-17.48-1.18-26.23-1.42-8.82-.25-17.65-.06-26.48-.06v.22zM626.9 621.98c-4.09 1.48-4.23 2.5-1.58 9.89 3.7-.42 4.2-3.44 1.58-9.9M279.46 44.4c3.44-.93 6 .65 8.07 2.87 1.98 2.14 3.56 4.65 5.3 7-.72-4.32-2.51-8.1-5.87-10.9-2.45-2.04-4.73-1.7-7.5 1.03M58.53 794.36c-1.8-.34-3.27-.63-4.74-.88q-2.38-.39-4.72-.7c1.27 1.42 2.4 2.84 3.68 4.09 1.07 1.04 2.34 1.88 3.52 2.8.73-1.28 1.5-2.54 2.15-3.86.2-.41.08-.97.1-1.45zm202.22-519.69 3.24-1.32.94-6.27c-.7-.17-1.47-.57-2.17-.48-.86.1-2.4.6-2.4.96-.05 2.43.22 4.87.39 7.11M179 389.02c5.28 1.6 12.6.61 17.17-2.5-6.17 2.2-11.5 2.59-16.6-1.8zm34.68-294.18-1.73-.3-2.38 13.94 1.38.26zM49.48 588.16l8.55 3.07c-1.78-4.12-5.3-5.37-8.55-3.07m207.04-312.99 3.97-13.45c-4.42 3.49-4.33 8.92-3.97 13.45M61.9 795.11c1.21 1.46 1.92 2.43 2.76 3.27.34.34 1.16.73 1.4.57 1.3-.88 2.5-1.92 3.67-2.85zm380.3-463.57-9.42-1.56c2.3 1.28 4.8 1.98 7.1 3.1 2.14 1.05 2.15-.11 2.33-1.54M60.65 567.36l.68-.94-5.88-3.97-.42 4.72 2.8-1.43zm207.86-291.7 1.94-6.62c-3.55 1.15-4.15 3.23-1.94 6.62M38.97 667.61l.88-1.32c-.59-.31-1.33-1-1.73-.84-.6.24-1.46 1.41-1.33 1.61.89 1.36 2.01 2.56 3.06 3.81l.89-.73zM274.34 153.9l.24-.05v-9.68l-.24.1zM65.84 550.45c-1.35-1.66-2.3-3.93-5.22-3.52.08 3.9 3.54 2.37 5.22 3.52m653.43 339.21-.4.3.92 1.18.41-.33zm-657.7-322.2-.4.35.82.95.41-.35zm750.5-32.34-.4.42c.23.15.46.34.7.4.12.02.3-.22.44-.34l-.75-.49zM422 362.85q-.26-.3-.52-.57c-.1.15-.33.34-.3.42.1.22.3.39.47.57z"/><path fill="#000" d="M341.76 459.66c-5 3.34-9.86 6.9-15.02 9.98-7.47 4.45-15.14 8.56-23.06 13l3.5 2.04.1-.04-1.95 1.28.1-.08-1.95 1.33.07-.08c-3.96-1.4-5.93.73-8.5 3.6-4.63 5.15-10.22 9.46-15.38 14.15q-6.94 6.33-13.85 12.7l.3 1.15c5.6 0 11.27.54 16.78-.12 9.38-1.13 18.27-4.14 26.05-9.72 10.84-7.77 18.82-17.61 21.7-30.98.28-1.28.56-2.57.7-3.86.15-1.61-.49-3.85.36-4.74 1.77-1.88 4.29-3.06 6.7-4.66-.5 8.8-2.17 16.9-6.4 24.35-7.72 13.6-18.72 23.34-33.3 29.2a77 77 0 0 1-25.17 5.43c-2.83.14-5.86.13-8.5-.73-2.53-.82-3.79.22-4.85 1.82-6.37 9.64-15.36 16.5-24.44 23.29-.88.66-1.66 1.45-2.87 1.91 1.83-4.3 5.65-7.2 8.28-10.92 2.75-3.89 6.07-7.37 9.16-11.05-3.72-1.95-7.7-3.62-11.22-5.95-12.44-8.2-19.94-19.45-21.04-34.66-.47-6.49-.14-12.88 2.38-18.8 4.96-11.68 12.04-21.87 22.91-28.92 10.36-6.72 21.5-11.26 34.08-11.23 4.42.01 9 1.12 13.24.3 6.53-1.28 11.6 1.76 17 4.02a42 42 0 0 1 14.52 10.3 44 44 0 0 1 9.81 17.21l1.09 3.37 8.15-4.33.52.43zM238.58 487.4l-.05-1.26c1.18-.3 2.38-.91 3.52-.83 7 .53 13.98 1.23 20.97 1.87 8.8.8 17.6 1.66 26.42 2.35 1.04.08 2.28-.56 3.22-1.17 10.15-6.65 20.2-13.47 30.46-19.96 2.01-1.28 2.56-2.55 1.95-4.42a42.8 42.8 0 0 0-15.96-22.02c-7.7-5.55-16.2-9.16-25.75-9.9a46 46 0 0 0-6.86-.01c-4.43.31-9 .2-13.26 1.32-18 4.72-30.3 16.3-37.65 33.12a37 37 0 0 0-1.86 25c4.18 15.4 13.68 26.05 28.82 31.45.64.23 1.78.07 2.25-.38 3.57-3.34 6.97-6.87 10.56-10.19q7.06-6.5 14.34-12.83c2.37-2.06 4.9-3.95 6.82-5.49l-47.95-6.64zM156.9 705.03c-3-38.69-2.1-77.27 3.27-115.72l1.46-.2c.44 1.23 1.27 2.47 1.23 3.68-.25 8.2-.69 16.39-1.05 24.57-.23 5.01-.5 10.01-.62 15.02-.26 11.09-.27 22.18-.69 33.26-.44 11.82-1.19 23.64-1.86 35.46-.07 1.3-.48 2.59-.74 3.88zm268.91-501.54c3.5-1.56 6.88-3.57 10.53-4.59 4.2-1.16 8.63-1.58 12.98-2.08 3.44-.39 6.98-.08 10.37-.68 3.2-.57 6.26-.82 9.1.8 1.22.7 2.57 1.97 2.93 3.24.6 2.2-1.53 2.16-2.93 2.36-5.95.83-11.91 1.55-17.86 2.38-3.04.43-6.07 1-9.1 1.5q-4.77.79-9.53 1.6c-3.08.52-4.35-2.02-6.35-3.33zm25.98 342.58c-1.27.41-2.35 1.2-3.1.95-15.65-5.25-31.27-10.61-46.9-15.96-.17-.06-.3-.25-.56-1.27 2.03-.18 4.21-.94 6.07-.46a265 265 0 0 1 43.32 15.66c.27.12.45.4 1.17 1.08M412.75 429.7c5.73 2.28 11.25 4.52 16.8 6.68 2.65 1.04 2.97 1.37 3.2 4.09-9.98 1.8-22.54-5.45-20-10.78zm119.06-24.92c2.48 4.57-.33 7.05-2.39 9.46-2.81 3.3-6.04 6.23-9.12 9.3-.61.61-1.34 1.12-2.08 1.74-1.8-3.7.73-5.94 2.42-8.04 3.4-4.23 7.23-8.12 11.17-12.45zM217.52 565.8c-2.17 5.63-6.95 8.5-11.48 11.6l.56.55z"/><path fill="#000" d="m307.19 484.69 1.91.94c-.44.5-.79 1.17-1.34 1.5-1.36.8-2.83 2.17-4.2-.04l-.08.09 1.95-1.33-.1.08 1.95-1.29zm34.05-25.46 3.98-2.76.44.66-3.9 2.53zm-176.3 293.44c.6.48 1.68.91 1.73 1.45 1.44 13.84 4.78 27.22 9.25 40.37 2.44 7.17 4.65 14.4 6.94 21.62 1.45 4.52 2.84 9.06 3.6 13.84l-4.25-11.75c-1.32-3.66-2.77-7.3-3.94-11-3.92-12.46-8.07-24.87-11.44-37.47-1.47-5.47-1.26-11.4-1.81-17.1zm527.2-107.65q-7.96-14.8-15.97-29.59c-3.9-7.18-7.86-14.32-11.8-21.48q-.66-1.16-1.34-2.3c1.75-1.83 2.68-.76 3.5.75 3.26 6.02 6.69 11.96 9.75 18.08 5.63 11.25 11.03 22.61 16.53 33.93zm88.04 225.81c-.16 2.44-.38 4.88-.44 7.32-.03 1.23.22 2.46.4 4.18-5.16-1.83-9.72-3.66-12.21-8.52-.86-1.67.43-3.7 2.32-3.5 1.42.15 2.77.86 4.26 1.35.57-3 2.5-3.03 4.97-1.48zM279.45 44.43c2.77-2.74 5.04-3.08 7.5-1.03 3.36 2.8 5.14 6.58 5.88 10.89-1.76-2.35-3.33-4.86-5.32-7-2.06-2.22-4.63-3.8-8.06-2.87m-65.77 50.45-2.74 13.9-1.38-.27 2.38-13.93 1.74.29zM103.62 739.16c1.38-.89 3.08-1.83 4.24-.31.76 1 .48 2.8.27 4.38-1.84-.81-4.63.32-4.53-2.88zM49.48 588.18c3.24-2.3 6.76-1.06 8.54 3.07zM256.52 275.2c-.37-4.54-.46-9.97 3.96-13.46z"/><path fill="#000" d="m692.13 645.02.68-.61 4.74 9.02-1.07.55zM268.51 275.7c-2.21-3.4-1.6-5.48 1.93-6.63zM65.83 550.49c-1.69-1.15-5.14.39-5.22-3.52 2.92-.4 3.86 1.87 5.22 3.52m150.23 330.58c3.3-6.04 6.26-12.3 9.94-18.1 9.03-14.23 18-28.53 27.74-42.28 8.64-12.2 17.98-23.91 27.53-35.42a638 638 0 0 1 26.85-29.97c8.4-8.9 17.2-17.42 25.95-25.98 2.1-2.05 4.6-3.7 7.03-5.37.59-.4 1.6-.2 2.42-.28-.13.83.02 1.88-.43 2.47-2.17 2.83-4.36 5.69-6.81 8.28-9.36 9.9-18.9 19.61-28.22 29.54a1577 1577 0 0 0-29.05 31.59 319 319 0 0 0-15.62 19.3 1892 1892 0 0 0-26.35 35.58c-3.69 5.1-6.83 10.62-10.3 15.89-2.04 3.1-4.34 6.03-6.33 9.16-1 1.58-1.49 3.49-2.36 5.16-.37.71-1.15 1.2-1.74 1.8zm-22.02-4.24c-6.03 2.94-11.75 6.07-17.73 8.55-4.27 1.76-6.65.01-6.48-3.88.13-2.84 1.27-3.56 4.08-2.7.36.1.9-.24 1.31-.47q4.33-2.45 8.62-4.97c6.1-3.6 12.11-7.33 18.27-10.84 2.53-1.44 3.65-.5 4.12 2.38.75 4.7-2.38 7.5-4.8 10.68-5.3 6.96-10.66 13.89-15.96 20.85-.63.82-1.08 1.78-1.62 2.67l-1.53-.89c.46-1.6.62-3.38 1.44-4.78 3.31-5.6 6.82-11.08 10.27-16.61zm92.62-124.88c-12.38 16.31-28.5 28.23-42.77 41.88-2.73-1.77-2.74-3.53-1.17-5.4 3.73-4.4 7.41-8.87 11.3-13.14 7.51-8.24 16.14-15.22 25-21.91 3.41-2.57 4.68-2.78 7.64-1.43m-134.1-262.9c5.31-.94 6.7-2.7 8.08-8.16 1.48-5.87-.21-11.29-2.08-16.53-1.82-5.12-10.3-7.85-15.7-5.7-1.45.57-2.85 1.26-4.41 1.97.98-4.45 8.9-7.16 13.48-6.02 8.76 2.18 11.56 8.91 13.58 16.47 1.3 4.88.5 9.57-1.95 13.77-1.3 2.25-3.37 4.51-5.65 5.66-3.96 2.01-8.3 3.4-12.6 4.6-2.5.68-4.1-1.09-4.8-3.77-2.74 0-5.5.36-8.15-.06-8.45-1.36-10.33-9.23-7.62-15.7 3.43-8.23 9.64-13.03 18.66-13.77 2.35-.2 4.82-.3 7.08.22 4.75 1.08 7.78 6.65 7.37 12.24-.41 5.46-2.98 9.94-5.8 14.37l-.59.84 1.09-.43zm-2.22-1.79-.22-1.03c.27-.53.5-1.1.84-1.59.5-.71 1.27-1.28 1.6-2.05 2.8-6.38 1.33-12.65-4-16.96-.55-.45-1.48-.82-2.14-.71-5.1.87-9.93 2.46-14.1 5.65-2.66 2.03-4.29 7.14-3.35 10.04 1.07 3.31 3.83 4.71 6.77 5.2 4.8.8 9.71 1 14.59 1.45zm1.2 35c-1.45 4.77.2 9.86-2.81 14.33-1.84 2.74-4.08 4.64-7.2 4.87-3.7.28-7.51.85-11.02-1.5-1.08-.72-2.92-.7-4.34-.49-6.74 1.06-13.09-2.2-14.6-8.62-2.03-8.62 1.33-16.23 10.3-18.96.64-.19 1.7-.36 1.8-.75 1.38-4.99 5.58-5.91 9.7-6.45 5.55-.73 14.39 1.97 16.71 9.03.9 2.72 1 5.71 1.46 8.53zm-18.81 10.3c2.95 1.71 3.89-.03 4.59-2.08.74-2.17 1.7-4.3 2.1-6.54 1.1-5.93-4.35-10.93-9.99-9.34-1.06.3-2.11.69-3.18.98-6.87 1.87-11.16 8.1-10.24 15.03.35 2.64 1.34 4.47 4.63 4.28 4.28-.25 8.6-.07 13.1-.07-.32-.69-.55-1.2-1.01-2.26m-8.52-21.07c8.8-.82 16.42-.15 20.07 8.55 1.93 4.6-.17 11.34-4.51 14.35 1.08 3.48-1.48 3.79-3.64 4.44 4.73 1.81 9.54-.59 10.8-5.4.42-1.65.61-3.36 1.1-4.99 1.54-5 .84-9.92-1.71-14.18-3.86-6.45-16.8-7.21-22.1-2.78zm-11.36 46.16c-.26-.25-.8-.6-.74-.73 1.23-3.17 4.45-3.68 6.96-4 7.59-.97 14.32 1.23 19.1 7.6 3.93 5.26 1.62 10.3-.94 15.25-.37.7-.93 1.32-1.33 2.03-3.17 5.62-7.75 6.93-13.79 4.41-1.77-.73-4.04-.33-6.07-.35a15.5 15.5 0 0 1-11.63-5.24c-3.8-4.24-4.58-8.21.2-13.27 2.25-2.37 5.4-3.89 8.15-5.79 3.76-.14 7.44-1.05 11.22.7 5.82 2.68 11.73 7.26 8.16 16-.1.26.1.64.21 1.16 3.99-4.98 4.15-11.58-.47-15.78-3.03-2.76-6.63-3.87-10.59-4.52-3.34-.54-6.08.2-8.45 2.53zm9 20.58c1.06-.35 4.15-.43 4.98-1.85 1.99-3.35 1.9-7.58.3-11.08-1.55-3.36-4.96-6.14-8.51-5.97-3.73.18-8.02 1.67-9.66 5.82-.72 1.8-.7 4.38.05 6.15 2.12 4.97 6.66 6.48 12.84 6.93m5.07 3.03c3.75-.07 4.03-3.36 5.44-5.53l-.71-.63zM87.06 688.33l-1.76 1.14c.4.32.6.57.84.64 3.82 1.24 7.26 3.2 8.1 7.37 1 4.96-1.34 9.12-5.08 12.04-8.25 6.46-21.48 1.73-24.18-8.4-1.62-6.1 3.53-13.11 9.75-14.19 4.29-.73 8.11-.17 12.33 1.4m-16.86 12.8c-.08 5.2 6.1 9.56 11.17 8.3 5.74-1.44 9.63-8.33 9-11.49-.87-4.28-9.29-7.7-14.16-6.23-3.24.98-5.7 6.13-6.01 9.42m129.74-278.06c-4.01-.62-7.38-1.2-10.76-1.66-7.33-1.03-14.65-2.07-21.99-2.96-9.16-1.11-18.34-2.1-27.52-3.12-3.17-.35-5.26-2.54-7.38-4.55-.48-.45-.2-1.71-.26-2.74 11.57 1.83 22.9 4.01 34.35 5.31 8.06.92 31.82 6.66 33.56 9.73zm-66.6-4.99c1.37 0 2.83-.29 4.11.05 8.65 2.3 17.24 4.87 25.92 7.06 5.08 1.28 10.29 2.11 15.47 3 3.6.6 7.27.8 10.86 1.43 1.79.31 3.47 1.18 5.6 1.92-4.2 3.36-58-7.91-61.97-13.46zM55.83 749.54c2.3-1.73 19.3 1.48 22.94 4.14-3.42 1.96-19.2-.8-22.94-4.14m743.04 254.95c2.53.23 5.07.38 7.59.68 4.74.57 9.5 1.03 14.2 1.91 6.15 1.16 12.22 2.8 18.36 4.05a831 831 0 0 0 21.04 3.95c5.39.96 10.8 1.79 16.14 3.02-26.18-1.99-52.09-5.57-77.5-12.13zm120.59 6.52c1.3-1.12 2.44-2.73 3.96-3.27 3.7-1.32 7.57-2.13 11.37-3.14q8.18-2.2 16.37-4.36c1.26-.33 2.55-.55 3.83-.81l.3 1-34.7 12.25zM339.1 221.54c-3.8 1.91-7.31 3.2-10.25 5.29-2.2 1.57-3.67 4.19-5.51 6.3-.46.51-1.12.85-1.69 1.27-.27-.61-.62-1.21-.76-1.85a3 3 0 0 1 .13-1.52c2.34-7.74 13.27-14.15 21.33-12.5 1.95.39 2.44 1.7 2.95 3.56 1.2 4.3 3.2 8.39 4.4 12.69.92 3.33 1.97 6.97-1.25 9.77l-3.71-2.84c-.37 2.3-1.04 4.25-.83 6.1.12 1.04 2.1 2.9 2.58 2.7 4.32-1.73 5.24 1.42 6.65 4.06-3.93 3.14-5.84 2.88-9.45-.75-.78-.79-2.25-.96-3.45-1.24-4.36-1-6.22-4.5-4.66-8.75 1.4-3.86 3.72-6.74 8-7.56zm148.43 79.84c-.18-4.1 1.66-6.36 5.41-6.73 2.98-.3 5.96-.6 9.73-.96-.7 1.39-.99 2.99-1.95 3.74-3.84 2.98-8.24 4.48-13.2 3.95m336.58 244.5q.2.55.43 1.1l-.84-.57zm-86.64 331.85c-1.39.32-2.98 1.24-4.12.84a88 88 0 0 1-10.68-4.64c-3.44-1.74-3.33-3.07-.2-5.19a32 32 0 0 0 4.98-4.38c1.8-1.9 3.57-.73 4.84.27 1.2.95 2.46 2.73 2.43 4.12-.06 3.12-.2 6.02 2.75 8.99zm11.35-7.85c1.02-.45 2.6-1.1 4.11-1.87.8-.4 1.42-1.19 2.23-1.52.76-.32 2.14-.64 2.43-.28.52.65.71 1.82.57 2.7-.42 2.57-1.12 5.08-1.62 7.63-.42 2.07-1.47 3.35-3.7 2.9-2.33-.47-4.7-1-6.93-1.83-1.9-.71-3.65-1.9-2.96-4.47.7-2.61 2.21-4.11 5.87-3.26m17.58 35.31c-3.39-1.57-6.44-2.68-9.13-4.37-1.5-.95-3.12-2.74-3.39-4.36-.28-1.72 4.07-3.56 6.39-3.33 1.12.11 2.3-.34 3.45-.53.94-.14 2.25-.73 2.72-.33.9.77 1.92 2.17 1.81 3.19-.32 3.16-1.15 6.27-1.85 9.73M466.45 231.3c-.52 1.78-1.08 4.32-2 6.72-.81 2.1-3.27 2.94-4.43 1.48-1.98-2.52-5.15-4.7-3.88-8.67.83-2.58 1.57-5.26 2.91-7.57a4.8 4.8 0 0 1 3.88-2c1.02.14 2.2 1.95 2.61 3.23.6 1.9.58 3.99.91 6.8zM785.6 544.27q9.1 5.29 18.22 10.56l-.5 1c-7.17-3.33-14.36-6.65-21.5-10.05-1.95-.92-2.06-2.77-1.52-4.53.55-1.76 1.68-2.75 3.81-2.8 8.64-.23 16.44 2.6 23.99 6.32a8 8 0 0 1 2.99 2.98c.48.82.2 2.09.26 3.15-.91-.02-1.9.19-2.72-.1-6.02-2.09-12-4.3-18.02-6.39-1.5-.52-3.1-.72-4.66-1.07zm44.48 302.46c-1.2 2.47-2.84 3.51-5.82.93-2.3-2-5.73-2.65-8.57-4.08-.7-.36-1.54-1.53-1.42-2.14.17-.8 1.15-1.52 1.9-2.13 1.75-1.45 3.65-1.52 5.63-.41 2.52 1.41 3.02-1.12 4.27-2.2 1.21-1.06 2.38-2.22 3.76-3.04.57-.35 1.8-.2 2.37.2.43.31.55 1.47.38 2.13-.54 2.14-1.38 4.2-1.92 6.34-.35 1.43-.39 2.94-.57 4.4zm-1.47-30.18c1.42-1.84 2.46-3.66 3.96-4.97.9-.79 2.48-.78 3.76-1.12.03 1 .34 2.08.05 2.97-.86 2.75-2.68 5.4-2.74 8.12-.04 2.31-1.05 3.45-2.4 4.54-.55.44-2.6.14-2.65-.1-.54-2.6-3.04-2.63-4.6-3.87-1.33-1.07-4.5-1.1-3.12-4.1 1.4-3.08 3.55-3.6 6.81-2 .26.12.5.29.92.53zm-549.5-365.87c-.61 2-.87 4.23-1.96 5.9-.6.93-3.26 1.7-3.9 1.19a8.7 8.7 0 0 1-3-4.82c-.3-1.74.64-3.7 1.1-5.54.52-2.12 1.84-2.66 3.76-1.7 2.02 1.01 4.14 1.97 4 4.97m18.26 11.74c2.55.63 3.6 1.34 2.44 3.67-1.23 2.47-2.16 5.1-3.58 7.46-.53.87-2.08 1.13-3.16 1.66-.45-.98-.99-1.93-1.33-2.95-.93-2.75-.54-5.23 1.82-7.13 1.21-.98 2.53-1.81 3.8-2.71zm-53.26 5.78c-.05-3.8 3.45-7.84 6.61-8.24 1.94-.25 3.63 2.12 2.65 4-1 1.92-2.12 3.96-3.72 5.33-.92.8-2.9.57-4.38.4-.55-.06-.97-1.24-1.16-1.49"/></svg>