<svg xmlns="http://www.w3.org/2000/svg" width="1080" height="1080" fill="none" viewBox="0 0 1080 1080"><path fill="#fff" d="M228.95 295.37c1.22-5.32 2.91-10.66 3.59-16.12.98-8.04 4.05-15.3 7.39-22.47 4-8.6 11.43-14.1 19-19.27a1774 1774 0 0 1 33.04-21.93c.75-.5 2.56-.25 3.28.36 1.03.86 2.61.9 2.73 3.36.3 5.95-3.65 8.48-7.45 11.39-7.07 5.41-11.24 12.44-12.09 21.38-.15 1.62-.16 3.4-.86 4.8-1.47 2.96-.38 4.88 1.8 6.84 2.54 2.26 6.42 5.3 9.06 7.92 3.5-2.9 5.37-6.57 9.05-9.31 4.61-3.42 9.44-6.54 14.17-9.81 4.7-3.26 9.26-6.78 14.14-9.77 4-2.44 8.3-4.4 12.58-6.32 2.96-1.33 7.39-.13 7.63 3.02.23 3.03-1.24 5.57-6.04 6.53-10.79 6.14-20.26 14.05-28.76 23.08-2.35 2.5-4.28 5.4-7 8.88l9.21-.66c2.64-.2 5.27-.53 7.91-.6 9.54-.2 18.32-2.11 25.52-9.14 4.17-4.06 9.78-3.77 15.16-3.2 4.71.49 9.4 1.28 14.12 1.79q10.54 1.13 21.1 2.09c4.56.41 9.14.67 13.7 1.04 4.76.37 9.51.84 14.28 1.18 2.98.22 5.62.13 7.88-2.74 3.85-4.88 8.27-9.3 12.6-14.08-5.31-3.2-10.77-8.2-18.42-7.79-3.12.17-6.22 1.45-9.27 2.42a35 35 0 0 1-17.45 1.1c-2.3-.43-4.72-.93-5.45-3.76-.6-2.32-3.55-4.14-1.48-7.03l4.62-6.4c-3.78-6.08-7.88-12.16-11.46-18.53-3.55-6.32-6.58-12.95-9.57-18.9 4.78-3.5 9.2-6.72 13.59-9.97 1.2-.88 2.4-1.78 3.48-2.81 1.33-1.29 3.76-2.04 2.51-4.8-.12-.28.87-1.21 1.49-1.65 8.07-5.8 14.78-12.82 18.99-21.9 1.63-3.51 2.64-7.36 3.58-11.15.64-2.55 1.36-3.85 4.47-3.94 5-.13 9.96-1.08 14.92-1.8 6.4-.94 12.81-1.88 19.18-3.04 9.88-1.8 19.76-3.49 28.6-8.86 2.89-1.74 6.45-2.47 9.78-3.36 7.74-2.06 9.87-4.8 10.34-12.77.26-4.42 1.3-8.8 1.68-13.22a7 7 0 0 0-1.3-4.22c-1.57-2.25-1.48-4.35 1.05-5.71 4.14-2.22 8.08-5.43 13.22-4.4 8.56 1.73 17.1 3.63 25.62 5.53 10.33 2.31 20.82 2.56 31.34 2.45 8.38-.08 16.61.68 24.77 2.93 4.86 1.34 8.3 3.98 11.19 7.84 2.38 3.17 2.82 3.05 4.37-.55.16-.38.23-.78.35-1.18-2.26-.76-3.35-2.12-2.5-4.7.55-1.66 1.45-3.67-1.66-3.87-.28-.02-.6-.26-.78-.5-2.09-2.65-4.66-5.09-6.1-8.07s-3.78-3.56-6.38-4.24c-.97-.26-1.96-.39-2.93-.64-5.92-1.5-4.92-1.33-4-6.02 1.94-9.82 4.3-19.6 9.66-28.28 1.38-2.23 2.86-4.4 4.46-6.84q-14.9-6.35-29.87-12.7a337 337 0 0 0-8.65-3.52c-3.51-1.38-7.03-2.33-10.95-2.24-2.04.05-4.21-1.57-6.16-2.72-.5-.3-.7-1.7-.49-2.45.12-.44 1.4-.91 2.03-.79a555 555 0 0 1 16.23 3.4c6.06 1.37 12.2 2.49 18.11 4.33a342 342 0 0 1 24.92 8.88c3.82 1.53 6.06-1.07 9.3-2.09-2.85-2.92-.98-4.16 1.53-5.59a70 70 0 0 1 23.85-8.46c14.1-2.3 26.9 2.13 39.84 6.46 13.09 4.37 25.36 10.36 37.25 17.31 7.52 4.41 15.38 8.28 23.24 12.05 10.42 5.01 17.59 13.18 23.16 22.95 3.14 5.5 6.07 11.13 8.95 16.77 1.18 2.3 1.95 4.81 2.97 7.2.5 1.16 1.4 2.2 1.68 3.4.4 1.76.42 3.6.6 5.42-3.27.3-5.43 2.52-5.48 5.72-.02 1.96-.18 3.94.03 5.87 1.2 10.78-4.4 18.22-11.89 24.84-.9.8-1.55 2.2-1.73 3.42-.57 3.88-.65 7.84-1.4 11.68-.23 1.2-1.98 2.11-3.08 3.11-.19.17-.78 0-.87.16-2.32 4.26-5.8 2.79-9.46 2.41-4.75-.48-9.2 1.46-13.12 4.09-7.56 5.06-19.32 5.15-26.2-.65-4.05-3.42-7.53-7.6-10.92-11.71-1.84-2.23-5.9-5.45-6.34-2.17-.36 2.8-3.68 3.83-9.03 5.9-1.16.45-9.19 1.56-10.5 2.43 3.58 1.5 6.85 2.7 9.92 4.26.84.42 1.17 1.93 1.67 2.97.3.6 3.46 1.35 3.84 1.88 3.73 5.18 4.33 7.3 8.2 12.38 5.26 6.9 10.57 10.67 16.09 17.36 1.19 1.43 3.33 5.21 5.1 6.11 4.23 2.16 8.48 7.38 12.74 9.45 1.94.94 3.88 1.96 5.93 2.57 2.69.8 6.85 2.27 7.5 4.55.31 1.15-2.88 3.1-5.04 3.56-2.27.47-4.38 2-6.41 3.3-.57.37-.78 1.58-.8 2.42-.1 2.58.07 5.16-.09 7.73-.08 1.37-.57 2.72-.96 4.07-.16.56-.75 1.06-.78 1.6-.09 1.31.6 3.29-.03 3.84a14 14 0 0 1-5.57 2.93c-2.95.76-6.03 1.04-9.08 1.35-7.78.81-11.03 6.9-15.65 12.32-2.03 2.39.93 3.35 3.72 5.57 9.7 7.73 11.82 19.02 15.42 30.64 1.22 3.93 1.64 8.13 2.36 12.22.5 2.88-1.9 4-3.26 5.91-1.33 1.88-1.33 4.51-4.5 4.74-.87.06-1.68.97-3.25 1.93 3.8.97 6.75 1.53 9.57 2.48 6.65 2.26 13.22 4.69 19.82 7.07 5.19 1.87 10.4 3.65 15.54 5.67 4.41 1.72 6.16 5.13 5.09 9.67 3.09.7 6.17 1.45 9.3 2.03.46.09 1.22-.5 1.59-.98a6268 6268 0 0 0 21.84-29.17c2.21-2.98 4.3-3.28 6.76-.6 1.91 2.09 3.4 3.2 6.54 1.45 3.65-2.04 7.66-1.98 11.35 1.08 3.42 2.83 7.31 5.07 10.88 7.71 6.45 4.78 9.57 10.01 7.15 18.39-.73 2.53-1.77 4.98-2.58 7.5-1.95 6.08-3.84 12.19-5.77 18.27-1.94 6.11-4.09 12.06-8.27 17.18-1.95 2.38-2.8 6.03-6.47 6.06q-9.98.1-19.92-.71c-2.83-.24-5.57-1.6-8.67-2.54-1.8 2.51-3.67 5.37-5.79 8.04-6.3 8-14.25 13.79-23.95 16.93-7.96 2.57-16.02 4.84-24.01 7.27-.75.23-1.43.7-2.2 1.1 4.04 9.46 8.8 18.28 16.15 25.29 3.99 3.81 8.82 6.74 13.15 10.22 10.08 8.07 19.03 17.06 23.52 29.59 2.12 5.92 4.75 11.71 6.26 17.8 1.54 6.24 2.26 12.75 2.84 19.18.37 4.21-1.87 6.86-5.6 9.52-4.44 3.17-9.32 3.43-13.84 4.7-1.63 6.04 1.48 10.14 4.96 14.08 10.36 11.74 19.96 24.03 27.7 37.68 4.06 7.19 7.98 14.46 12 21.67a10 10 0 0 0 1.96 2.68c7.9 6.75 10.94 16.09 13.74 25.55a75 75 0 0 1 3.26 19.99c.18 9.04-1.88 17.15-7.74 23.92-4.78 5.52-10.12 10.58-15.45 15.58-3.96 3.7-9.1 5.15-14.38 5.8-9.32 1.14-18.01 4.37-26.55 7.99-16.78 7.1-33.33 14.71-50.23 21.5-10.84 4.36-22.18 7.46-33.19 11.44-7.74 2.8-15.3 6.1-22.02 11.03-1.7 1.25-1.98 2.49-1.68 4.38 1.28 8.22 1.91 16.55-1.76 24.27-1.82 3.83-5.03 7-7.66 10.43-.22.3-.84.28-1.27.43-1.1.4-2.52.48-3.26 1.24-8.7 8.84-19 13.74-31.55 12.43-3.98-.41-7.68-2.08-9.9-6.05-2.64-4.73-5.79-4.64-8.69.13-2.46 4.04-4.65 8.24-7.1 12.3-2.5 4.12-5.3 8.07-7.7 12.25-1.6 2.77-2.73 5.81-4.4 9.45-4.1 1.1-4.34-4.76-7.94-6.07-5.54 5.07-12.17 9.36-16.24 16.47-1.76 3.08-1.47 6-.87 8.8A45 45 0 0 0 569.8 884c.82.9 1.6 1.86 2.18 2.91 1.45 2.64 2.34 5.86 6.5 5.11.36-.06.87.77 1.29 1.16-3.52 5.14-6.96 10.21-10.47 15.23-.3.44-1.02.71-1.6.85-5.98 1.48-11.73.08-16.94-2.47a57 57 0 0 1-23.54-21.35c-1.25-2-2.03-4.29-2.79-5.92l-8.34.55c-.28.02-.64.15-.79.35-5.87 8.27-15.32 12.17-22.73 18.56-5.66 4.9-11.53 9.54-17.39 14.2-1.07.86-2.64 1.08-3.72 1.93-2.34 1.85-4.52 3.93-6.38 5.57 4.5.55 8.9.8 13.15 1.75 2.48.55 5.07 1.96 3.85 5.57-.16.47.1 1.19.37 1.68 1.87 3.5 1.54 5.88-1.36 8.57-.4.36-1.1.7-1.59.61-8.45-1.49-14.78 3.08-21.18 7.4-2.6 1.76-5.09 3.65-7.06 5.07 1.6 5.02 3.21 9.98 4.73 14.97.19.61.07 1.5-.25 2.05-3.08 5.28-5.4 11.34-9.6 15.53-4.54 4.55-6.14 9.88-7.5 15.46a136 136 0 0 0-2.92 17.78 66 66 0 0 0-.03 12.09c.32 4.13.62 8.41 1.95 12.26 1.67 4.82-1.19 8.13-2.72 11.88-1.42 3.46-3.73 4.74-7.86 2.68-.4 4.37-.54 8.75-1.39 12.99-.28 1.38-2.28 2.96-3.8 3.38-1.11.3-2.72-1.12-4.09-1.82-.6-.31-1.18-1.07-1.73-1.03-5.12.36-9.13-1.71-12.24-5.6-5.29-6.59-10.95-13.03-13.6-21.24a172 172 0 0 1-6.67-30.74c-1.47-11.28-.67-22.11 3.93-32.54 1.2-2.74 2.03-6.14 6.01-6.68v-3.97c-4.04 1.02-7.02-1.16-9.98-3.17-2.5-1.7-4.85-3.63-7.27-5.44a7.6 7.6 0 0 1-3.16-5.97c-.68-9.12-1.62-18.22-2.39-27.32-.15-1.85 0-3.71-.04-5.57-.05-2-.17-4-.26-5.92 3.12-1.2 6.58-2.27 9.76-3.88 1.74-.88 3.61-2.4 4.38-4.11 3.96-8.79 12.12-12.17 19.89-16.12 1.5-.77 3.15-1.25 4.88-1.91.93 2.27 2.1 2.39 4.56 1.42 7.08-2.8 14.43-4.18 21.89-1.03.26.1.63.27.83.17 5.54-3.06 9.9-.09 14.29 2.77.24.16.52.3 1.25.68 3.02-5.12 5.8-10.36 9.08-15.27 3.57-5.33 7.17-10.75 11.55-15.39 5.73-6.05 11.81-11.88 20.6-13.7 3.28-.68 6.36-8.3 5.66-11.78a985 985 0 0 1-4.54-24.75 191 191 0 0 1-2.33-16.11c-.3-3.33.59-6.76.38-10.1-.38-6.16-1.2-12.3-1.79-18.44-.11-1.21-.02-2.44-.02-3.68 2.26-1.03 4.49-1.87 6.55-3.01a16.8 16.8 0 0 1 13.87-1.43c4.86 1.54 9.55 1.68 14.19-1.54 7-4.88 15.4-6.74 23.14-10.04a182 182 0 0 0 21.14-10.81c3.45-2.04 5.94-5.62 9.2-8.06 3.8-2.85 7.99-5.22 12-7.79.68-.42 1.37-.8 2.22-1.3-1.02-5-1.8-10-3.08-14.86a2397 2397 0 0 0-10.23-36.93c-1.03-3.62-3.06-6.21-6.58-8.32-3.4-2.04-5.76-5.82-8.65-8.75a67 67 0 0 0-4.52-4.08c-4.87-4.14-9.8-8.21-14.65-12.39-5.92-5.1-8.07-12.05-9.4-19.42-1.23-6.73-2.61-13.44-3.97-20.16-.64-3.17-.79-6.24 1.41-8.9-1.73-2.57-3.98-3.48-7.07-3.43-8.03.16-16.08.16-24.1-.15-6.01-.24-11.98-1.26-17.98-1.56-6.67-.33-8.8.98-8.86 7.31-.08 8.45-3.55 14.85-10.5 19.4-2.66 1.74-5 3.57-6.53 6.5-3.56 6.8-10.3 10.14-16.22 14.3-3.7 2.6-7.62 4.9-11.5 7.38-.62-.33-1.38-1-2.2-1.1-3.49-.42-4.5-3.05-5.7-5.73-3.9-8.67-7.3-17.66-12.1-25.81-3.9-6.64-9.41-12.38-14.52-18.25-3.34-3.85-8.02-5.7-13.01-6.51a12.5 12.5 0 0 1-9.9-7.53c-4.04-8.81-7.77-17.77-12.08-26.44-7.2-14.5-14.97-28.72-22.05-43.27-5.04-10.34-9.35-21.03-13.96-31.51-7.78 6.2-17.03 8.62-26.91 9.81-6.61.8-11.97-1.46-17.4-4.55a18 18 0 0 0-6.59-1.99c-3.25-.4-6.57-.47-9.86-.39-4.72.13-8.96-.6-12.07-4.66-2.93-3.84-1.68-9.83 2.57-12.32 1.04-.6 1.73-1.8 2.6-2.68 3.33-3.42 6.25-7.45 10.1-10.13a157 157 0 0 1 20.48-12.1c5.99-2.93 12.5-4.83 18.84-7.01 4.02-1.38 8.21-2.25 12.2-3.69 4.39-1.58 8.48-4.25 12.97-5.22 14.1-3.06 26.21-10.63 39.1-16.45 7.03-3.19 14.26-5.93 21.26-9.18 2.29-1.07 4.17-3.07 6.15-4.74.36-.3.6-1.14.45-1.58-1.33-3.8 1.69-6.21 2.93-9.16a26 26 0 0 1 2.9-5.06c1.42-1.96 3.12-3.72 4.66-5.6 9.72-11.78 19.34-23.64 29.16-35.34 5.64-6.72 11.6-13.17 16.96-19.25-4.23-.52-9.33-1.64-14.43-1.58-2.66.03-5.37 2-7.95 3.32-11.05 5.64-22.18 11.16-33.05 17.13-5.37 2.95-10.3 6.73-15.32 10.27-.67.47-1.35 2.09-1.06 2.55 2.37 3.71-1.28 5.28-2.71 7.31a30 30 0 0 1-7.08 7.24 30 30 0 0 1-9.04 3.94c-3.2.87-6.63.9-9.94 1.38-.55.07-1.25.38-1.52.8-1.65 2.67-3.3 5.35-4.73 8.13-.38.75-.05 1.87-.64 2.4-.98 1.3-2.06 2.53-2.93 3.9-1.36 2.16-3.54 1.42-5.29 1.36-4.35-.16-8.73-.53-13.03-1.2a100 100 0 0 1-29.53-9.19c-5.92-2.95-12.08-5.42-18.15-8.06-.58-.25-1.33-.15-2-.14-8.25.11-16.56.88-24.48-2.37a9 9 0 0 1-1.07-.52c-3.73-2.13-7.18-4.58-12-4.1-1.52.15-3.73-2.08-4.88-3.73-5.75-8.35-9.04-17.5-9-27.83 0-3.14-1.32-6.27-1.9-9.42-.89-4.8-.57-9.48 2.3-13.61.5-.74 1.88-.9 2.8-1.3zm592.9 386.02c-2.78 2.2-5.46 4.54-8.36 6.59-5.87 4.13-11.86 8.1-17.66 12.03 3.96-.15 7.96-1.35 11.14-4.08 5.28-4.54 10.25-9.45 15.35-14.2l.05-.87zm-160.6-2.1c10.8-4.51 21.59-8.92 32.3-13.52 11.4-4.9 22.71-10.03 34.11-14.93 3.3-1.42 6.83-2.32 10.18-3.64 2.39-.94 2.39-2.41.35-3.87-3.24-2.33-6.43-4.75-9.79-6.9-10.72-6.88-22.44-11.62-34.5-15.53-4.16-1.35-7.97-3.74-13.05-1.58-5.08 2.18-10.89 2.62-16.32 4.03-1.76.45-2.94 1.58-3.06 3.93-.22 4.24-1.15 8.45-1.59 12.7-.55 5.46-1.46 10.96-1.22 16.4.33 7.36 1.61 14.7 2.6 22.92zm-120.67-93.2c0 1.74-.24 2.89.04 3.88a1829 1829 0 0 0 7.7 26.22c1.69 5.58 3.96 10.84 9.07 14.32.09-.23.23-.41.2-.57-.8-6.72-3.66-13.33-1.19-20.22a4.8 4.8 0 0 1 2.16-2.39c.32-.16 1.47 1.03 2.1 1.73.45.5.68 1.21 1.23 2.24 0-1.55.04-2.57 0-3.6-.28-5.6-2.19-10.14-7.51-13-4.48-2.4-8.67-5.37-13.8-8.6M696.8 740.55c18.4-5.32 35.1-13.52 51.77-21.84a775 775 0 0 0-40.97 14.37c-3.89 1.49-8.24 2.81-10.8 7.47M517.84 864.69l-3.9 9.81 18.8-4.89-5.07-7.86z"/><path fill="#000" d="M435.69 888.1c2.8-1.72 9.07-1.11 12.24 1.33 1.02.78 1.35 1.04 2.19-.35 4.67-7.76 9.43-15.46 15.2-22.48 6.87-8.35 14.1-16.22 25.02-19.26 1.7-.48 1.16-1.69.9-2.37-1.42-3.6.42-6.3 2.38-8.84 3.03-3.9 4.57-8.63 7.5-12.61a184 184 0 0 1 25.18-27.7 279 279 0 0 1 20.07-16.4c-4.44-3.25-4.66-8.13-4.87-13.02-.24-5.48-.27-10.93 2.51-16.18-5.56-.1-9.52 2.86-13.42 5.73-1.27.94.7 2.4.28 3.71-3.42-.52-10.25 3.39-11.2 6.53-.4 1.34.94 2.5.83 4.02-.3 4.53-.62 9.1-.43 13.62.16 3.8.38 7.59.38 11.39 0 1.21.2 2.22-1.75 2.42-1.87.2-2.28-.37-2.66-1.93a131 131 0 0 1-3-19.28c-.07-.78-.01-1.57-.01-2.67-2.29 1.16-2.59 3.84-4.79 4.55-.36-1.32.43-2.17 1.05-3.08 1.52-2.24 3.63-4.12 4-7.06.13-1.08 1.21-1.5 2.12-1.94 1.03-.48 1.54-1.74.54-2.07-3.94-1.3-7.1-4.41-11.43-4.76-2.5-.2-4.79.58-7.2.98 4.18-2.64 8.6-4.77 13.63-4.6 5.4.16 10.5-1.44 15.76-1.94 1.13-.1 1.8-.91 2.5-1.66 4.4-4.6 9.44-7.71 15.87-9.14 7.08-1.56 12.9-6.33 19.43-9.39 3.37-1.57 6.83-2.96 8.67-6.72 1.06-2.17 3.48-2.98 5.7-3.85 2.94-1.16 5.78-2.52 8.69-3.75 1.33-.56 1.7-1.18 1.25-2.8a1145 1145 0 0 1-11.88-45.9c-.14-.6-.11-1.23-.17-1.84-.19-1.98-.96-2.92-3.27-2.9-9.42.06-18.35-2.47-27.16-5.53-2.85-.99-3.66-3.42-4.17-5.9-3.62-17.6-8.54-34.9-12.57-52.42-.62-2.67-1.16-5.35-1.71-8.04-.25-1.24-.49-2.22-2.2-2.36-14.2-1.12-28.42-2.32-42.71-1.86-2.1.06-2.94.62-3.44 2.75-3.8 16.33-14.32 27.3-29.14 33.92-5.1 2.28-9.29 5.6-13.91 8.4-1.72 1.04-3.6 1.33-5.38 1.96-.94.34-1.81-.13-2.3-1.08l.64-.71a151 151 0 0 1 21.77-15.32c2.11-1.22 4.41-2.72 5.63-4.7 1.4-2.3.26-5.17-.55-7.67-.63-1.92-1.61-3.73-2.55-5.86-6.3 5.15-13.27 9.37-19.96 14.02-1.93 1.34-3.82 2.78-5.87 3.92-.9.5-1.93 2.41-3.03.84-.89-1.28.82-2.16 1.67-2.88 3.34-2.85 6.71-5.68 10.23-8.3 4.65-3.46 9.42-6.76 14.2-10.02 1.11-.76 1.6-1.26.84-2.6-1.04-1.83-1.48-3.99-3-5.75-.4 4.23-3.8 6.04-6.55 8.15-5.41 4.14-11.35 7.52-17.43 10.6-1.04.53-2.34 1.72-3.54.13-1.29-1.7.37-2.52 1.28-3.2 7.57-5.66 14.01-12.86 22.86-16.78.13-.05.15-.35.33-.81-3.65-.35-7.21-.84-10.45-2.56-.85-.45-1.49.36-2.18.8-3.5 2.22-7.03 4.4-10.95 6.01l11-7.71c-7.65-5.54-10.07-13.93-13.02-22-1.64-4.48-3.4-8.9-5-13.38-.78-2.18-1.73-2.05-3.5-.9-9.66 6.28-19.4 12.45-29.12 18.64-.67.43-1.42.74-2.19 1.15-.92-1.94.17-3 1.36-4.01a267 267 0 0 1 27.14-20.3c2.4-1.58 2.9-2.85 1.38-5.25-1.18-1.87-2.02-3.96-3.02-5.95q-1.96-3.89-5.62-1.7c-3.32 1.98-6.62 4-9.99 5.91-.66.39-1.5 1.59-2.33.47-.8-1.1.49-1.56 1.1-2.12 3.52-3.17 6.9-6.51 10.64-9.42 3.27-2.56.32-4.28-.55-6.12-1.19-2.51-2.46-.1-3.66.32-.36.13-.61.56-1.06.23 3.28-3.53 3.21-3.5.65-8.43-6.19-11.9-12.7-23.61-20.2-34.76-5.82-8.68-12.74-16.49-19.61-24.33a180 180 0 0 0-14.26-14.73c-6.68-6.07-13.81-11.43-22.98-13.2-.2-.05-.4-.2-.59-.2-10.22.13-20.65-.78-30.09 4.33-13.03 7.07-23.72 17.01-33.21 28.27-1.52 1.8-2.83 3.93-2.23 6.68.75 3.43 2.35 5.43 6.11 6.11 12.38 2.24 24.45 5.7 36.53 9.2 4.54 1.31 9.6 1.2 13.99-1.7a16 16 0 0 1 3.73-1.9c-3.18 3.45-6.36 6.86-11.36 7.73-6.56 1.15-12.65-1.13-18.84-2.5-8.12-1.81-16.36-2.93-24.48-4.8-9.7-2.21-16.4-16.3-8.06-26.22 7.3-8.69 16.19-15.31 25.5-21.52 3.79-2.53 7.9-4.5 11.91-6.65 3.83-2.06 7.77-.45 11.58-1.36 2.77-.67 5.83-.08 7.48-3.48.45-.93 2.48-1.16 3.83-1.57 27.25-8.12 53.54-18.8 79.8-29.6 1.64-.67 2.64-1.94 2.6-3.05-.11-3.56 2.5-5.59 4.09-8.1 3.4-5.45 7.22-10.63 10.75-16a13 13 0 0 1 2.73-2.88c9.03-7.5 15.82-16.87 22.72-26.24 3.15-4.28 6.91-8.23 10.5-12.24q2.88-3.21 5.78-6.41c.33-.37.92-.7.68-1.25-.28-.64-.93-.72-1.59-.68-3.34.16-6.4-.9-9.63-2.26.16 2.24-1.5 3.43-2.78 4.82-2.39 2.6-4.89 5.12-7.34 7.67-.88.92-1.33.63-1.52-.52-.26-1.54-1.3-1.46-2.09-.67-3.43 3.45-8 5.29-11.63 8.63-3.39 3.1-7.21 6.53-11.72 7.94-2.77.86-4.34 2.87-6.58 4.14-2.74 1.56-5.74 2.68-7.75 5.52-1.6 2.25-1.08 5.15-3.16 7.23-3.05 3.08-5.43 6.58-9.82 8.4-3.25 1.37-6.73 2.65-9.85 2.59-8.46-.15-10.5 6.86-14.41 11.67-2.1 2.57-4.2 4.32-7.44 5.02-4.72 1-9.52.16-13.93-.66-2.74-.5-5.86-1.1-8.44-2.08-3.17-1.19-6.67-1.13-9.36-2.43-5.38-2.6-11.25-3.05-16.68-5.19-3.2-1.26-6.8-2.3-9.58-3.85-3.62-2.03-8.3-2.01-11.05-5.45-.81-1.02-1.28-.42-1.95-.26q-3.82.88-7.66 1.7c-.4.1-.89.14-1.23-.02-5.81-2.7-12.19-1.93-18.27-2.94-2.04-.34-3.05-2.29-5.43-2.19s-4.8-1.1-7.2-1.8c-2.93-.85-4.19-4.15-7.51-4.72 1.55-.84 3.75-.47 1.5-3.08-1.5-1.72-2.67-4.11-3.76-6.28-1.23-2.44-3.15-5.55-3-7.51.24-3.34-2.17-5.56-2.03-8.94.12-2.97.3-6.81-1.24-9.93-1.13-2.3 1-4.83-.68-7.02 2.74-.91-.36-4.74 2.72-5.48 2.39-.56 3.07-3.23 5.36-4.15 1.17-.47 2.13-2.1 3.4-3.03a5 5 0 0 1 2.44-1.14c-1.66-2.56-4.24-4.71-3.32-8.26.05-.19.32-.37.3-.52-.61-3.53.15-3.64-.22-6.3-.2-1.53 2.57-3.2-.1-4.42.33-.5.58-1.12 1.02-1.48.77-.63 1.66-.96.82-2.28-.38-.6-.51-1.66.97-2.05 1.35-.35 1.28-2.13 1.66-3.25.25-.76.6-1.22.98-1.85.75-1.22 1.7-2.44 2.95-2 1.52.55 1.3 2.31 1.2 3.77-.3 4.3-1.64 8.43-2.06 12.67-.38 3.68-1.5 7.2-1.9 10.89-.13 1.16-.95 2.2-.44 3.61.3.84 1.04 1.06 1.32.84 2.76-2.18 5.65-.1 8.44-.2 1.94-.06 3.75.5 5.54-.85 1.27-.95 2.65.44 4.22.15 4.97-.9 9.86 1 14.75 1.16 4.32.16 7.83 2.2 11.76 3.12 2.06.5 3.43.04 3.96-1.54.54-1.58-.5-3.15-1.94-4.1-2.2-1.47-4.57-2.71-6.72-4.25-1.95-1.38-4.45-1.3-6.27-2.2-3.4-1.7-7.09-.7-10.6-2.36-3.04-1.45-7.07-1.49-10.4-2.97-1.98-.88.29-2.76-.5-4.18-.15-.27 1.4-.56 2.2.27.61.64 1.07.5 2.1 0 1.3-.64 3.43-2.38 5.18-.13.3.38.77.17 1.05-.18.53-.65-.17-1.03-.49-1.12-2.93-.86-2.64-3.4-3.14-5.7 3.5.27 6.07 2.33 8.27 4.37 2.54 2.34 5.34 2.74 8.41 2.93.65.03 1.53-.7 1.91.2.99 2.37 3.24 2.09 5.1 2.53.49.13.82.09 1.15.57 1.74 2.54 4.92 2.95 6.75.58.67-.86 2.03-.34 2.25-1.7.08-.5.94-.18 1.27.18.46.5.77.91.27 1.81-1.63 2.97-4.46 3.76-7.37 4.48-1.35.33-1.3.25-.77 1.57.55 1.4-1.24.53-1.44 1.53 1.61.34 2.26 2.15 4.46 2.17 2.04.02 3.95 5.38 2.59 7.62-1.34 2.18-1.66 5.27-5.02 6.14-1 .26-1.76.6-2.91.53-4.29-.29-8.1-2.03-12.04-3.43-.89-.32-1.73-.31-2.08.52-.45 1.12.43 1.29 1.34 1.4 3.07.39 4.63 3.15 6.97 4.68 1.02.67 1.07 2.89 1.46 4.43.15.62-.52.9-.97 1-1.76.34-2.02 1.1-.97 3.08 1.64 3.05 1.24 5.64-.65 8.29-1.09 1.54-2.04-.1-3.1.38-3.94 1.8-8.38 1.53-12.39 1.34-4.6-.2-9.7-.04-13.83-2.03-1.93-.93-5.86-.56-6.1-4.4-.02-.55-1.3-.96-.26-1.72.64-.47 1.43-.37 2.08-.16 5.23 1.7 10.65 1.86 16.04 1.73 3.16-.08 5.87 1.72 9.13 1.36 3.87-.42 5.07-1.85 3.8-5.5-.32-.9-1.01-1.77-.77-3.1.22-1.28-1.82-1.5-2.75-1.88a188 188 0 0 1-13.35-6.2c-3.67-1.9-7.65-4.37-12.36-3.93-2.4.22-4.78-.58-7.3-.1-3.1.58-5.05 3.35-8.57 3.3 1.95 2.21 5.3 2.97 3.59 6.42-.33.66.21.76.66 1.06 1.45.96 1.5 2.42 1.2 3.97-.25 1.24-.32 2.46.58 3.51.42.5.8 1.1.14 1.58-1.6 1.2-.13 1.91.08 3 .46 2.4 1.36 4.74 1.49 7.18.08 1.54.16 2.87 1.57 3.9.4.3.56 1.52.3 2-.24.43-.78.87-.4 1.21 3.25 2.81 1.37 7.02 2.9 10.3 1.08 2.34 3.73 3.2 5.3 3.43 4.9.7 9 3.7 13.86 4.14 3.54.33 6.68 2.36 10.33 2.13 1.19-.08 2.7-.52 3.15 1.48.15.7 1.06.45 1.5-.05 2.15-2.44 5.76-1.98 8.16-4.1.4-.37 1-1 1.62-1.37.28-.17.49-1.03.72-.77 2.8 3.25 2.42-.98 3.57-1.5.64-.3 1.12-.94 1.76-1.2 3.85-1.55 6.38-4.76 8.74-7.78 2.17-2.8 4.43-5.79 5.6-9.28.21-.67.63-1.4-1.15-1.11-1.6.24-1.15-2.02-.5-3.15 1.08-1.93.62-3.77-1.42-4.04-1.51-.2-1.25-.84-1.32-2-.17-2.6.57-5.06.71-7.6.17-3 .42-6.21 1.08-8.9.79-3.17.98-6.5 1.86-9.7.96-3.48 1.55-7.11 2.64-10.61.22-.7.18-1.53.92-1.81 2.04-.77 3.68-1.44.27-2.78-.19-.07-.43-1.96.62-2.25 1.49-.4 2.3-1.84 4.23-1.77 2.92.11 3.6-3.05 5.12-4.89 2-2.41 3.9-4.9 6.58-6.62.4-.25.72-.75.87-1.2 1.56-4.6 7.13-5.22 9.2-9.28 2.98.12 4.35-2.41 6.33-3.9 3.09-2.3 6.53-3.95 9.99-5.55.96-.45 2-.77 1.75-2.12-.21-1.16-.2-2.7-.93-3.33-.9-.77-2.15.31-3.16.89-3.95 2.25-7.78 4.7-12.08 6.3-2.2.82-4.04 1.77-6.72 1.55-2.77-.23-4.85 2.66-6.79 4.75-1.5 1.62-3 3.15-5.05 4.1-2.5 1.14-3.06 4.07-5.25 5.69-3.82 2.81-6.96 6.68-11 9.05-2.47 1.44-2.7 4.26-5.26 5.42-.31-1.2-.86-2.28-2.4-2.47-.51-.06-1.27-.63-1.39-1.1-.95-3.9-5.09-3.85-7.54-5.85-1.7-1.39-3.45-2.94-5.2-4.34-.9-.74-1.96-.84-2.83-1.46-.46-.31-1.48-.33-1.46-.9.14-3.32-2.58-3.2-4.53-4.22-.72-.38-.73-2.05-1.88-2.52-3.6-1.49-6.97-3.26-11.19-.95-2.43 1.33-5.84.45-8.3 2.6 1.3-3.57 4.4-5.2 17.35-7.75 6.86-1.36 11.71 3.33 16.67 7.49-.84-2.14.94-4.13-.21-6.38-.54-1.04.65-3.11.8-4.42.28-2.5 1.48-4.21 2.77-5.98 1.17-1.6 3.18-2.58 3.74-4.71 2.24.7 2.8-1.54 4.19-2.27.93-.5 1.15-1.44 1.6-2.01.72-.9 1.39-1.16 2.25-1.71 2.55-1.61 4.67-4.03 6.55-6.45.67-.87-.04-2.51-1.32-3.37-2-1.33-1.41-3.36-.83-4.99.54-1.5 1.73-2.04 2.95-.17 1.63 2.47 2.62 5.22 3.71 7.9.75 1.8-.37 3.11-2.44 3.34-.29.03-.55-.1-.6.28-.76 5.02-5.3 5.93-8.65 8.28-1.5 1.05-3.58 1.8-3.78 5-.12 2.18-.87 5.06-1.68 7.54-.69 2.13-.7 4.59-.9 6.89-.24 2.42.85 5.3-1.21 7.47-.69.73-.17.97.38 1.6 1.94 2.2 4.42 3.9 5.93 6.51.8 1.39 2.04 1.2 2.7 0 3.08-5.44 8.43-8.78 12.23-13.5 2.07-2.55 5.1-3.53 7.35-5.64.22-.2.72-.34.71-.51-.07-3.29 3.2-3.4 4.91-4.5 2.07-1.3 4.02-3.35 6.86-3.43a5.2 5.2 0 0 0 3.97-1.78c.92-1.01 2.88-1.83 4.6-.56.49.36.93.23 1.38-.14 4.1-3.4 9.26-3.78 14.13-5 .57-.14.99-.16 1.3.36.34.57.54 1.28-.18 1.59-1.22.5-1.6 1.49-1.1 2.44.92 1.8.5 3.95 1.24 5.54 1.8 3.8-1.22 4.95-3.14 4.72-2.2-.27-3.55 1-4.32 1.82-1.9 2.05-4.33 3.35-6.43 5.05-3.24 2.62-6.63 5.18-9.31 8.25-3.2 3.66-6.9 6.82-9.92 10.63-.73.92.02.86.57.9 4.33.34 8.55-.9 12.7-1.65 1.77-.32 3.76-2.88 5.88-4.25 1.63-1.06 3.29-.86 4.88-1.38 3.94-1.29 8-2.82 12.04-2.95 3.7-.12 7.46-.63 11.2-.24 8.39.86 16.72.59 25.13-.46 7.76-.97 15.91-.89 23.23 1.48 4.27 1.38 8.27 1.75 12.49 2.03 2.54.17 4.3-.8 5.61-3.26 2.53-4.8 7.39-7.33 11.32-10.77.14-.13.26-.28.55-.6-9.55-2.41-18.93-2.22-28.34 0-6.39 1.5-12.83 2.55-19.37.93-5.66-1.42-7.62-5.17-5.69-10.79.13-.38.24-.8.49-1.11 3.42-4.28 1.38-8.03-1.2-11.66-2.83-4-5.8-7.9-8.7-11.85-.24-.33-.64-.7-.62-1.04.3-4.5-3.6-7.04-4.93-10.78-1.88-5.28-3.79-10.5.8-15.42 1.82-1.96 3.9-3.16 6.48-1.56 1.32.83 2.1.15 2.97-.5 12.36-9.26 22.28-20.52 28.64-34.74 2-4.46 3.73-9.04 6.34-13.2 2.03-3.22 4.65-5.18 8.84-4.9 12.1.82 23.59-2.67 35.1-5.61 10.77-2.75 21.44-5.89 32.14-8.9 1.33-.38 2.54-.26 4.56-.05-3.2 2.61-6.38 3.57-9.4 4.78a296 296 0 0 1-48.39 14.61c-4.46.95-9.06 1.86-13.72 1.4-1.7-.18-2.5.34-3 2.11-5.35 19.63-17.64 33.91-34.66 44.47-2.51 1.56-5 3.18-7.59 4.59-1.77.96-2.21 2.14-1.54 3.97 1.65 4.48 3.51 8.88 4.58 13.54.27 1.15.97 1.74 1.76 2.39 7.15 5.84 12.2 13.1 14.7 22.05.93 3.37.59 3.78-2.8 3.91-2.96.11-3.03.18-3.96 4.05 6.05 2.06 12.31 1.6 18.54 1.7 10.03.17 19.8 1.67 28.9 6.2.8.41 1.6.94 2.55.14 3.55-2.97 8.43-3.64 11.89-6.85 2.63-2.45 6.15-3.54 9.16-5.46.25-.16.56-.24.83-.37 1.37-.66 3.66.47 4.17-1.27.38-1.28-.67-2.96-1.04-4.45-2.58-10.15-.15-19.12 5.47-27.63A47 47 0 0 1 490 190.37c7.86-4.93 16.53-7.5 25.68-5.7 4.1.8 8.45 1.24 12.38 3.04 1.62.75 3.16.79 4.22-1.02.15-.25.46-.4.64-.63.88-1.2 3.05-2.25 2.66-3.35-.56-1.53-2.77-1.3-4.41-1.28-.6 0-1.37.08-1.32-.82.04-.67.61-1.15 1.2-1.26 5.64-1.09 11.24-.89 16.56 1.3a18 18 0 0 0 6.23 1.35c14.37.56 27.55 4.4 38.44 14.33 7.7 7.04 12 16.1 14.69 25.9 2.18 7.95 3.66 16.12 3.17 24.43-.82 13.9-5.5 25.94-16.12 35.65-16.63 15.18-36.32 24.56-57.32 31.67-3.33 1.12-6.65 1.9-10.42 1.22-3.44-.62-7.08.67-10.7.5a74 74 0 0 1-9.68-1.12c-.73-.13-2.08-.57-2.03.47.1 1.95-4.1 2.26-1.69 4.86.42.44.71 1 1.06 1.5.44.63.69 1.24-.03 1.9-.8.74-1.32.17-1.8-.38-4.34-5.1-9.15-9.87-11.95-16.11-2.09-4.63-4.08-9.3-6.14-13.93-.39-.86-.4-2.18-1.87-1.96-1.24.18-2.59.1-3.24 1.69-1.43 3.49-4.97 5.3-6.94 8.24-2.12 3.15-5.7 2.53-8.14 4.43-1.28 1.01-3.32.94-4 2.8-.1.29-.33.66-.53.3-1.4-2.51-2.68-.16-4.17-.08 1.69 1.42 3.27 2.63 4.7 4 .91.88 1.19 2.39-.32 2.58-1.75.22-2.15 1.5-2.82 2.49-8.71 12.8-19 24.33-28.86 36.23-6.95 8.4-14.17 16.6-20.59 25.96 3.2-.73 5.77-2.1 8.47-3.12.6-.24 1.84-1.24 2.36.08.4 1.02-.87 1.21-1.5 1.55-13.86 7.7-27.75 15.33-41.62 23.02a333 333 0 0 1-39.45 18.57c-1.31.52-2.87.37-4.1 1.63a64 64 0 0 1 15.48 9.35c5.48 4.38 10.34 9.4 14.91 14.6 5.24 5.98 10.5 11.95 15.42 18.22a201 201 0 0 1 15.06 22.23c8.95 15.25 16.99 31 24.5 47 5.04 10.77 8.6 22.06 12.73 33.15 1.54 4.12 3.55 8.03 6.4 11.34 3.11 3.6 7.32 5.45 12.07 5.81 3.99.31 6.8 1.64 8.3 5.85 2.6 7.22 4.35 14.43 2.98 22.13-.1.6 0 1.23 0 2.5 3.75-3.25 6.22-6.9 8.51-10.66 3.06-5.03 4.72-10.63 5.59-16.36 1.76-11.56 8.16-19.92 17.22-26.8 10.13-7.68 21.24-13.92 31.39-21.6a356 356 0 0 0 24.41-20.1c6.18-5.6 12.1-11.45 17.87-17.44a508 508 0 0 0 26.05-29.51c12.03-14.6 22.8-30.06 32.83-46.07 8.81-14.06 16.29-28.92 24.95-43.06 14.1-23 26.95-46.76 42-69.18 1.42-2.1 2.78-4.32 4.56-6.1 4.67-4.67 4.28-10.68 4.69-16.48.1-1.62-1.23-2.71-2.34-3.78a69 69 0 0 1-12.62-16.54c-1.85-3.41-1.42-4.85 1.4-5.76.2-.07.43-.32.54-.26 4 2.13 3.13-1.61 3.56-3.17 3.23-11.62 10.22-20.8 18.54-29.13 1.71-1.72 2.24-2.33-.47-3.85a216 216 0 0 1-33.86-23.59c-4.15-3.51-8.38-6.94-12.11-10.91-8.12-8.65-14.43-18.15-16.55-30.2-1.87-10.66-8.92-17.64-17.93-23.12-12.37-7.53-26.1-11.53-39.67-15.96-15.1-4.94-29.22-11.65-41.78-21.44-2.34-1.82-4.48-3.91-6.68-5.91-1.45-1.32-2.59-3.24-5.26-1.94 1.47-2.48 3.23-2.92 5.59-2.24 4.56 1.3 8.09 4.32 11.75 7.04 12.05 8.97 25.48 15.07 39.78 19.44a284 284 0 0 1 27.8 9.97c1.42.6 2.36 1.06 3.95-.38 2.28-2.07 5.28-3.33 8.08-5-6.21-4.1-13.2-6.71-19.76-10.18-6.42-3.4-13.4-5.96-18.68-11.84 1.2-.68 1.96-.5 2.83-.12 12.83 5.6 25 12.33 35.93 21.14 1.93 1.55 3.46-.72 5.54.42-.4-1.66-.51-2.49-2.13-2.8-10.4-2.07-16.53-8.3-18.26-18.74-.4-2.43-1.4-3.8-3.55-4.7-6.37-2.65-12.51-6.18-19.74-5.56-14.9 1.25-29.81.56-44.71.5-10.95-.04-21.9-.78-32.75-2.5-3.05-.49-3.91.17-3.89 3.3.06 7.51-.13 14.93-2.31 22.26-2.18 7.28-6.07 13.47-10.65 19.36-.25.32-.8.57-.83.89-.53 4.68-4.45 6.12-7.67 8.32-2.06 1.42-3.3 3.58-4.08 5.99-.58 1.8-1.17 2.52-3.11.85-2.85-2.45-2.7-5.5-2.12-8.45.65-3.31 1.42-6.86 5.98-7.3 2.7-.26 5.26-1.71 8.1-.92 1.29.36 1.47-.86 1.89-1.59 3.26-5.7 4.74-11.95 5.61-18.41.82-6.12.62-12.27 1.09-18.4.28-3.6 1.88-6.35 4.07-9.3 4.81-6.48 10.94-5.58 17.44-4.62 3.95.58 7.93 1.23 11.9 1.21 4.73-.01 9.43.57 14.13.81 11.88.63 23.76 1.18 35.63 2.21 5.9.52 11.74 1.7 17.73 1.52 4.63-.14 8.29 2.5 11.29 5.95 1.55-2.14.94-3.19-1.16-4.49-3.4-2.1-6.21-4.97-7.65-8.87-.37-1-.79-1.08-1.8-.9-2.3.42-4.66.28-7.01.68-4.66.8-6.1-.58-6.63-5.84-.51-5.04.25-9.96 1.8-14.8a79 79 0 0 1 8.07-17.72 9 9 0 0 1 .7-1.01c1.33-1.65 3.16-3.38 5.11-2.31 1.58.87.48 3.17-.02 4.75-3.26 10.53-7.08 20.88-9.21 31.88 2.53.4 5.23.78 7.9 1.26.94.17 1.31.02 1.84-.93 1.36-2.43 2.96-2.49 4.67-.3 2.42 3.13 4.02 6.82 6.9 9.99 1.51-2.08 3.02-4.22 4.6-6.29 6.7-8.78 18.22-13.64 29.72-9.74 1.77.6 3.35 1.43 4.72 2.72.92.86 1.7 2.19 3.38 1.2.86-.5 1.34.4 1.73.9 2.46 3.16 4.9 6.43 5.34 10.52.22 1.98 1.03 2.05 2.53 1.98 5.7-.29 11.18.57 15.2 5.02 6.1 6.78 8.14 20.78-3.55 26.76-6.12 3.13-9.41 6.25-6.71 13.42 1.4 3.73.73 8.06 3.04 11.68.6.95.86.86 1.76.83 6.15-.25 12.29-.56 18.45.37 2.54.38 3.68 1.98 5.1 3.54 4.03 4.48 7.2 9.73 12.23 13.32 4.04 2.9 8.79 3.65 13.4 4.87.4.1 1.55.36 1.08-.74-.89-2.1 1.03-2.11 1.85-2.16 2.47-.13 4.4-1.48 7.15-2.42-3.2-.85-5.87-1.45-8.48-2.28-1.08-.34-2.73-.73-2.27-2.38.46-1.64 1.95-1.53 3.33-1.14 2.54.7 5.1 1.36 7.62 2.11 2.98.9 5.8 1.71 9.14 1.17 3.92-.64 8.01-.13 12.03-.18.95-.01 2.1.44 2.88-.92-6.17-.93-12.26-1.69-18.27-2.82-9.18-1.71-18.53-3.18-26.92-7.34-3.55-1.76-7-4.27-10.34-6.68-1.46-1.05-1.89-2.09-.33-3.9 4.42-5.2 7.9-10.97 9.79-17.66.82-2.9 2.36-5.6 3.7-8.32 3.8-7.64 5.31-15.9 6.75-24.2.3-1.75-.08-3.84 3.23-1.61 2.73 1.84 6.82 1.6 10.25 2.5 9.79 2.54 19.54 5.2 29.31 7.78a209 209 0 0 0 8.04 1.95c5.37 1.2 7.34 3.3 7.9 8.84a37 37 0 0 1-1.66 15.8 67 67 0 0 0-2.87 10.59c-.94 5.76-4.18 10.72-8.48 14.88-2.47 2.39-4.87 4.72-4.38 8.86.4 3.34-2.59 6.7-5.97 6.48-6.32-.39-12.03 1.4-17.69 3.66a46 46 0 0 1-17.52 3.35c-11-.06-20.14-3.52-26.68-12.71-.5-.7-.67-1.86-1.94-.96-3.37 2.43-7.18 4.1-11.5 6.32 8.87 3.58 13.56 10.6 18.21 17.57 10.7 16 24.3 28.71 41.56 37.44 1.96.99 4.08 1.94 5.5 4.07-2.42.4-3.88-1.88-6-1.82-1.65-.78-3.24-1.67-4.93-2.31a76 76 0 0 1-27.97-18.16c-6.7-6.86-12.12-14.62-17.37-22.55a61 61 0 0 0-5.1-6.89c-6.14-6.94-9.4-5.62-17.6-1.75 6.54 9.17 9.24 19.72 10.87 30.63.25 1.64.51 3.48-2.51 3.47 10.78 8.66 21.99 15.91 32.8 23.71 2.2 1.58 2.59 2.67.81 4.72-3.16 3.63-6.43 7.18-9.53 10.87-3.32 3.96-6.84 7.78-9.75 12.19 4.32.8 4.1 5.3 6.6 7.67 1.19-1.78 2.35-3.25 4-4.38 5.88-4 11.68-8.12 17.48-12.25 4.02-2.86 6.08-7.58 4.6-12.71-1.57-5.5-1.46-7.07 4.5-10a21.4 21.4 0 0 1 12.8-1.93c1.9 1.41 2.05 2.55-.3 3.77-2.51 1.3-5.23 2.24-7.43 4.16-1.55 1.35-1.94 2.87-1.15 4.65 4.9 11.1-1.81 17.74-9.93 21.38-3.82 1.72-8.32 2.21-11.28 5.75-.52.63-1.39.18-2.22-.06-.78-.24-1.4-1.55-2.39-.73-1.7 1.4-3.51 2.75-4.92 4.42-.54.64.89 1.39 1.47 2.02 9.22 9.98 15.96 21.57 21.51 33.85 4.09 9.02 3.53 18.04-1.64 26.6-1.17 1.93-.75 2.18 1.36 2.38 7.36.67 14.35 3 21.33 5.28q9 2.94 18.04 5.86c3.06 1 3.46 2.03 1.84 4.82-.35.62-1.01 1.17-1.1 1.81-.11.87-2.28 1.5-.63 2.34 1.03.53 2.82 1.07 3.74-.78 5.38-10.8 13.5-19.6 21.04-28.8q.4-.48.83-.93c4.8-4.92 6.4-3.83 10.15 1.05 1.26 1.63 1.64 2.6 4 1.33 3.7-1.98 7.72-.5 11.32.72 9.46 3.2 17.77 8.36 24.44 15.94.4.46.5.88.47 1.35-.26 4.46.45 9.24-3.7 12.55-.84.68-.18 1.33.04 1.92 2.39 6.6 1.11 12.7-2.68 18.32a7 7 0 0 0-1.09 4.32c.08 4.86-.53 9.34-5.12 12.4-1.17.79-1.54 2.77-2.3 4.2-1.44 2.7-2.79 5.47-4.36 8.1-1.2 2-2.78 3.24-5.49 3.1-10.13-.55-20.27-.76-30.35-2.3-2.27-.36-4.62.05-6.1 2.99-3.88 7.67-10.6 12.7-17.79 16.93-8.61 5.06-17.82 8.77-27.98 10.37 8.59 10.14 17.19 20 26.5 29.22 8.6 8.52 17 17.23 23.2 27.72 5.6 9.5 8.65 19.83 9.64 30.85.64 7.1.78 14.12-.03 21.18-.15 1.29-.8 2.06-1.52 2.89-.35.39-1.1.74-1.24.11-.81-3.46-2.56-.78-3.57-.4-1.9.7-4.94.1-5.46 2.05-.27 1.02 2.6 2.84 3.97 4.37 9.73 10.78 20.34 20.72 29.83 31.74 11.1 12.88 21.62 26.1 28.4 41.88 3.57 8.3 6.53 16.8 8.36 25.67.32 1.57.76 2.49 2.73 2.18 2.41-.37 5.18 2.87 4.58 5.72-2.44 11.65-4.9 23.35-13.38 32.53-.14.15-.22.37-.38.48-5.68 4.12-10.2 8.9-12.64 15.87-1.62 4.62-6.96 6.12-11.25 7.95-10.97 4.68-22.52 7.64-33.88 11.15a871 871 0 0 0-45.84 15.46c-16.5 6.13-33.1 12-49.67 17.95-6.7 2.4-13.32 5-20.18 6.96-.57.17-1.42.8-1.67.32-.61-1.2-1.05-1.3-2.11-.47-1.1.86-.76 1.71-.46 2.73a39 39 0 0 1 1.59 11.53c-.13 8.17-3.77 14.3-10.05 19.31-4.85 3.88-9.88 7.52-14.92 11.33 1.06.52 1.74 0 2.5-.16.82-.16 2.16-1.02 2.6.56.34 1.27-.37 1.98-1.59 2.56A117 117 0 0 1 637.5 817a54 54 0 0 1-12.92 2.39c-8.08.46-11.78-2.21-14.41-9.9-.12-.35-.3-.7-.55-1.3-2.43 2.85-3.5 6.17-5.36 9-.43.67-.49 1.46.22 1.95 3.07 2.06 1 3.83-.4 5.41a51 51 0 0 1-6.35 6.3c-3.11 2.46-3.93 6.37-6.45 9.24-2.33 2.65-6.01 3.29-8.06 6.28-.53.77-2.3-.24-3.16-1.12-1.36-1.4-2.59-2.92-3.85-4.35-5.28 4.7-10.02 9.22-15.48 12.86-1.06.7-1.37 1.77-1.62 2.83-2.45 10.18-9.67 16.05-18.63 20.05-6.69 2.98-13.76 4.95-20.9 6.6-.86.2-1.79.59-2.45 1.15-14.11 12.03-28.71 23.46-43.73 35.03 2.3.33 4.31.72 6.33.88a11 11 0 0 1 5.45 1.86c1.77 1.23 3.41 2.37 2.1 5.44-1.24 2.89-1.15 6.37-1.49 9.6-.32 3.05-1.16 3.83-4.04 3.26-4.81-.96-9.33.25-13.78 1.9-6.39 2.38-12.18 6.18-19.14 7.83 1.38 1.66 3.28 2 4.62 3.16.89.76 1.74 1.67 1.25 2.9-.44 1.12-1.62.6-2.44.57-4.42-.22-8.3-1.98-11.68-4.7-1.13-.91-2.45-2-.95-4.07 1.48-2.02 2.81-.97 3.87-.2 2.84 2.07 4.5 1.4 6.2-1.56 3.99-7.04 10.37-11.05 18.03-13.19 3.58-1 7.23-.88 10.82-.1 1.05.23 1.44.27 1.66-.9.43-2.39 1.03-4.74 1.62-7.38-6.06-.05-11.84 1.1-17.5 2.62-6.54 1.77-12.96 4-19.43 6.04-1.42.46-1.95 1-1.41 2.83.82 2.75 1.34 5.72.33 8.76-.44-.27-.72-.35-.74-.47-1.3-6.29-6.4-9.12-11.08-12.4-6.68-4.67-8.48-12.06-4.83-19.67 1.37 2.2.93 4.73 1.64 6.99 1.69 5.34 6.15 7.89 10.46 10.61.64.4 1.1-.05 1.64-.38a60 60 0 0 1 19.19-7.42c2.87-.57 4.6-2.53 6.5-4.3 7.64-7.05 16.37-12.68 24.53-19.06 5.38-4.21 10.96-8.15 17.01-12.63-5.54 1.04-10.38 2.17-15.27 2.82-6.9.91-13.87 1.85-20.79 0a3.8 3.8 0 0 0-2.67.08c-.73.32-1.68.67-2.36.45-6.05-1.9-7.3 3.55-9.8 6.6-4.9 6-9.35 12.38-13.98 18.6a6 6 0 0 1-.84.9c-.5.44-.85 1.35-1.74.81-.98-.6-.1-1.27.1-1.85 2.41-6.6 6.16-12.48 9.97-18.3 9.04-13.81 19.97-25.8 34-34.8 3.13-2 6.4-3.44 10.26-3.94-6.64 7.05-14.7 12.57-21.54 19.66 14.5-1.4 28.8-2.3 42.84-5.84-.87-1.14-2.4-1.9-1.9-3.21 1.39-3.6-.9-2.08-2.27-1.74-6.54 1.61-9.34.44-13.42-5.1a46 46 0 0 1-6.04-10.98c-21.02 12.3-33.96 32.46-48.16 52.3.05-3.1 1.52-5 2.37-7.06 1.1-2.7-1.06-2.78-2.4-3.6-1.77-1.09-2.27-.12-2.88 1.47-2.04 5.3-4.36 10.5-6.4 15.82-.75 1.96-1.78 3.94-.48 6.3.7 1.26-.7 1-1.42.76-2.6-.84-4.94-4.5-5.1-7.76-.3-5.81 1.55-11.01 4.4-15.94.76-1.32 1.58-2.6 2.37-3.91l.68-.7zm177.54-102.72a3.5 3.5 0 0 1-2.53-2.06c-1.24-2.52-3.58-1.28-4.6-.61-1.6 1.04.4 2.11 1.07 3.04.72.98 1.52 2.04 2.82 2.23 1.69.26 3.65.77 3.94-1.93.6-1.81 1.3-3.6 1.78-5.44.22-.83.22-1.58-1.26-1.07-3.93 1.33-1.89 3.68-1.21 5.83zm.44-328.83c.83.1 1.33.28 1.77.17 3.96-.95 7.99-1.38 12.02-1.94 9.16-1.28 18.22-.45 27.2.97 11.04 1.75 21.57 5.5 32.18 8.93 8.3 2.67 16.73 5.1 25.6 5.08 5.92 0 9.68-3.65 13.35-7.55 1.92-2.04.4-4.2.04-6.11-.98-5.21-1.07-10.56-2.11-15.7-1.79-8.83-4.96-17.33-7.89-25.87-5.49-16.04-9.42-32.35-9.1-49.45.09-4.23.02-8.45.02-12.68-2 .14-2.31 1.57-2.97 2.5a558 558 0 0 0-10.39 15.12c-1.04 1.57-2.06 1.25-3.35.62-1.62-.78-.85-1.76-.3-2.75 6.85-12.32 13.65-24.65 20.55-36.94 2.79-4.97 5.91-9.73 9.17-14.43 4.8-6.9 4.18-14.62.86-22.14a170 170 0 0 0-13.82-25.46c-3.2-4.82-6.2-9.93-10.68-14.1a78 78 0 0 0-5.36 11.57c-.37.99-.15 1.42.4 2.11 4.12 5.11 7.95 10.43 12.6 15.1 1.57 1.58 2.9 3.63 2.48 5.95a76 76 0 0 1-5.59 17.93c-2.94 6.42-6.28 12.62-9.62 18.85-6.5 12.1-12.5 24.47-19.59 36.21-9.43 15.63-18.19 31.62-27.29 47.42-.43.75-.92 1.46.53 1.9 10.1 3.09 19.63 7.67 29.46 11.46 7.34 2.84 14.72 5.56 22.24 8.4-.47.29-.8.53-1.16.7-.67.32-1.14-.26-1.71-.4a334 334 0 0 1-49.75-16.82c-1.82-.79-2.41-.3-3.29 1.12-4.48 7.27-8.92 14.57-13.6 21.7-4.07 6.19-8.45 12.16-12.9 18.52zM601.6 732.27c1.5-1.34 2.38-2.4 3.49-3.1 15.51-9.85 32.03-12.28 49.55-6.34 1.46.5 1.8.16 1.97-1.07.35-2.42.85-4.46-.74-7.1-2.06-3.43-2.04-7.9-1.6-11.97.19-1.8-1.74-3.1-.95-4.5s.8-2.7.84-4.11c.24-10.17-.3-20.32-.59-30.48-.05-1.77-.45-2.61-2.42-2.65-2.87-.07-5.59-1.09-7-3.67-2.73-4.97-1.2-14.89 5.12-17.3 2.78-1.05 3.93-2.3 4.08-5.23.16-2.88-2.25-4.4-2.87-6.69-.79-2.85-2.43-2.18-4.18-1.68-20.83 5.92-41.68 11.78-62.26 18.54-2.92.96-5.83 2.02-8.32 3.88 1.84 1.44 3.46 1.88 5.02-.88 5.86 28.44 14.24 56 20.87 84.35zM519.73 311.8c-1.64-2.91-1.79-6-2.27-8.99-.3-1.84-.31-4.24 2.17-4.67 7.17-1.24 12.75-5.87 19.12-8.78 5-2.28 6.05-2.34 8.72 2.67.9 1.7 1.9 3.37 2.68 5.12.7 1.58 1.39 2.2 3.18 1.2 11.95-6.65 23.95-13.15 33.8-22.95 6.27-6.22 11.78-12.82 13.71-21.63 2.76-12.5 1.2-24.75-2.28-36.97-2.3-8.08-6.91-14.26-13.35-19.3-7.57-5.92-16.95-7.55-25.73-10.53a63 63 0 0 0-13.83-2.95c-1.7-.17-4.59-.93-4.91-.34-1.57 2.92-5.08 3.4-6.75 6.34 2.54-.71 3.09 2.41 5.53 2.53 6.9.33 13.55 1.67 19.32 5.88 6.16 4.5 11.43 9.8 14.4 16.9a39.5 39.5 0 0 1 3.23 17.34 34 34 0 0 1-3.57 13.44c-.96-.82.25-2.4-1.38-2.93-.44 1.43-.72 2.77-1.43 4.03-2.34 4.1-4.33 8.31-7.4 12.05-3.25 3.96-6.7 7.6-10.83 10.52-5.71 4.04-12.13 6.24-19.04 7.7-6.27 1.3-12.27 1.02-18.4-.02-.7-.12-1.36-.42-1.93.35-3.97 5.34-10.08 7.3-15.73 10a21 21 0 0 1-7.4 1.8c-.9.08-1.8.42-1.56 1.4.16.65.35 1.95 1.33 1.81 2.64-.36 2.14 1.4 2.26 2.91q.22 2.6.7 5.15c.1.5.84 1.34.9 1.3 3.25-1.75 3.56 1.54 4.91 2.89 2.24 2.22 4.08 4.88 7.52 5.48 4.64.8 9.24 1.9 14.32 1.25zM313.2 279.2c-3.28-.26-5.52 1.06-6.02 3.14-.5 2.06-.75 4.19-1.34 6.22-.44 1.5.42 1.78 1.43 2.03.38.1.95-.68 1.25 0 1.37 3.08 5.47 2.34 7.08 5.23 1.57 2.81 4.39 4.73 5.88 7.67 1.04 2.03 1.12 4.67 4.2 5.42.98.23 1.56 2.29 2.23 3.56.17.3.63 1.22-.14 1.18-3.27-.13-1.63 1.1-1.33 2.9.77 4.53.24 9.17-.01 13.78-.05.95-.53.88-.89 1.2-1.23 1.07-1.51 2.24-1.3 3.95.24 2.14 1.92 1.32 2.74 1.52 1.95.48 3.83 1.18 5.75 1.7 2.67.7 5.46 2.13 7.95 2.06 3.6-.09 6.41 2.08 9.83 2.05 1.58-.02 3.15.7 4.75.9 1.27.17 1.1 1.28 1.58 1.96-1-.08-1.36 1.5-2.57.96-.54-.25-1.23-.62-1.72-.48-3.18.93-6.32 1.99-9.5.04-.23-.13-.77-.15-.88 0-1.45 1.85-2.94.29-4.38.06-.78-.13-1.56-.89-2.26-.78-4.2.65-8.08-.46-12-1.72-3.11-1.01-6.24.89-7.98 3.62-2.58 4.03-5.83 7.36-10.51 9.3-2.35.98-4.88 2.23-6.68 4.36-.92 1.08-.1 1.77.62 1.55 3.28-1 5.04 3.66 8.37 2.12 4.6 3.32 10.7 2.67 15.51 5.85 1.25.82 4.1 1.08 5.72 1.81 4.4 1.99 9.12 2.17 13.59 3.51 1.02.31 2.15.33 1.97-1.5a4.2 4.2 0 0 1 2.14-4.1 16 16 0 0 0 6.29-6.07c.78-1.35 1.15-3.07 2.46-4.08 3.75-2.87 5.67-7.18 7.84-11.04 2.35-4.16 3.04-9.21 4.79-13.75.65-1.68-.4-3.1.13-4.69 1.07-3.18.96-6.72.11-9.71-1.3-4.61-2.95-9.18-4.47-13.75-.84-2.54-2.9-4.52-3.09-7.5-.05-.8-2.4-2-2.9-3.54-1.3-4.06-4.41-7.09-6.84-10.22a93 93 0 0 0-7.1-8.27c-1.4-1.42-2.84-1.99-4.42-1.16-3.47 1.8-7.38 1.1-10.93 2.27-.57.18-1.02.27-1.36-.16-1.2-1.5-2.86-.96-4.04-.52-3.4 1.25-7.03-.41-9.53 1.12zm461.34 128.6c2-1.78 4.04-3.36 5.81-5.2 3-3.12 2.93-3.18-.49-5.51-.75-.52-1.5-1.02-2.2-1.61-7.82-6.67-9.76-15.83-10.02-25.37-.18-6.3.8-12.63 4-18.4-1.27-.36-2.34-.47-3.19-.98-1.19-.71-1.67-.18-2.07.78-1.33 3.1-2.26 6.45-5.72 8.09-.62.3-.54 1.24-.7 1.95-1.37 6.37-1.43 12.83-1.18 19.29.17 4.5.54 8.99 3.39 12.8.41.55.39 1.13-.12 1.84-2.48-1.2-3.6-3.51-4.48-5.86a50 50 0 0 1-2.64-12.12c-.88-7.87-1.1-15.62 1.34-23.3 1.13-3.54 4.15-6.02 5.1-9.67.37-1.4.65-1.98-1.13-2.58-10.18-3.43-20.34-6.95-30.53-10.36-3.6-1.2-4.52.4-5.5 2.97-4.63 12.2-6.1 24.84-5.34 37.8.39 6.62.8 13.23 1.86 19.81 1.56 9.68 4.78 18.94 6.75 28.49.76 3.67 2.5 3.45 5.13 3.13 9.36-1.12 18.22-4 26.79-7.8a80 80 0 0 0 14.66-8.18c-3.3.07-7.86-3.22-8.84-5.8-.45-1.17.3-1.65.99-1.88 1.45-.49 2.98-.79 4.27.54 1.91 1.98 3.43 4.17 4.06 7.12zM346 271.21l-.67.5c2.98 3.81 6.49 7.24 9.4 11.09 2.64 3.48 5.44 7.17 7.55 10.77 3.23 5.53 6.96 11.12 7.88 17.95.56 4.19 1.9 8.3 2.54 12.54.85 5.67 1.2 11.49-.82 16.73-1.12 2.93.26 4.2 1.51 5.35 1.75 1.6 2.06-1.05 3.02-1.8 6.58-5.13 12.21-11.47 19.4-15.75 4.47-2.66 7.92-6.7 12.81-8.73 1.83-.76 2.55-3.43 4.77-3.57 1.99-.12 3.43-1.33 5-2.12 4.16-2.12 4.4-2.33 8.48-1.14.26.08.98-.33.97-.49-.05-1.75 1.18-4.4.74-4.87-2.4-2.56-1.48-5.9-2.37-8.72-1.5-4.76-1.59-9.73-5.44-13.84-2.04-2.18-3.21-5.32-5.3-7.85-1.79-2.2-4.89-3.11-5.72-6.09-2.13 1.1-4.79-.62-6.06-.07-3.23 1.37-6.5.46-9.38.43-2.78-.04-6.4 2.95-8.9-.81-2.44 1.41-5.23.09-7.47.64-3.48.86-6.96-1.18-10.22.65-.28.15-.85.11-1.09-.09-2.7-2.23-6.12.86-8.84-1.19-3.4 2.28-7.35-.91-10.81 1.03-.17.09-.64-.35-.97-.54zM751.9 508.4q-1.48-5.7-2.92-11.43a3.43 3.43 0 0 1 2.05-4.06c1.74-.7 1.75 1.24 2.23 2.43 1.74 4.28 2.16 8.84 3.1 13.3.47 2.23-.2 4.69 2 6.73a344 344 0 0 1 20.73 20.81c.85.95 1.44.86 2.58.47 3.88-1.34 7.6-3.53 11.92-3.12 1.55.15 1.02-.93 1.04-1.6.07-2.88-.73-5.64-1.24-8.44-2.28-12.53-7.7-23.66-15.11-33.92-9.4-13.03-21.65-23.55-31.62-36.05-5.42-6.8-11.32-13.4-13.31-22.26-.39-1.7-1.5-.98-2.37-1.1-1.12-.17-1.46.47-1.3 1.48 1.53 9.12 2.96 18.26 4.6 27.35 1.03 5.77.71 7.16-4.23 10.05-4.3 2.5-8.78 4.67-13.2 6.94-.7.36-1.66 1.36-2.09-.33q-.4-1.58-2.14-.4c11.3 13.11 26.42 21.73 39.26 33.15zM518.18 811.26c-2.7 3.42-5.14 6.57-7.64 9.69-4.25 5.3-6.93 11.6-10.85 17.11-.69.96-.3 1.64.04 2.52 1.97 5 4.29 9.83 6.72 14.62 3.01 5.94 3.02 5.97 9 3.16 18.78-8.82 36.54-19.47 54.11-30.42 6.12-3.82 11.74-8.46 12.55-16.43.32-3.22 1.2-6.72-.56-9.67-3.1-5.21-5.05-10.86-6.53-16.63-.86-3.36-1.59-6.93-.04-10.48.68-1.58-.74-1.6-1.93-1.74-5.91-.65-11.08 1.2-15.9 4.43-4.55 3.04-9.24 5.87-13.77 9.99 3.02.63 4.42 2.6 5.96 4.34 2.67 3 5.98 4.1 10.02 3.09 4.64-1.16 6.04-.54 7.34 4.05 1.4 4.9 2.34 9.93 3.6 14.87.64 2.5 2.9 5.09 1.6 7.47s-4.57 2.94-7.03 4.12c-7.62 3.7-11.37 2.9-17.11-2.72-1.8-1.77-.9-4.02-1.86-5.9-.58-1.15-.7-1.87-1.99-.68-4.3 4-9.32 4.04-14.58 2.43-4.27-1.3-8.82-2.19-11.16-7.22zm321.4-465.95c.22-2.34 2.15-4.68-.64-6.72-3.38-2.47-6.61-5.13-10.05-7.51-5.1-3.53-10.49-6.54-16.46-8.38-.8-.25-2.48-.64-2.16.42 1.06 3.61-1.3 6.45-1.7 9.68 10.96.63 13.2 3.63 20.6 11.37 1.25 1.31.51 2.8-.14 3.82-.65 1.05-1.6-.14-2.33-.58-4.45-2.7-9.01-5.27-12.23-9.52-.6-.78-1.23-.57-1.88-.6-6.04-.26-8.93 3.84-11.92 8.59 2.13-.61 3.83-1.35 5.58-1.54 3.33-.36 6.74-.9 9.93.79 1.73.91 2.36 2.7 2.44 4.3.08 1.61-1.81.72-2.76 1.03-6.03 2-12.43 3.02-17.57 7.2-.4.33-1.04.61-.9 1.08.17.58.78.98 1.49.8q1.21-.28 2.35-.7c4.34-1.62 8.77-2.66 13.46-2.4 1.76.1 2.44.86 2.49 2.6.1 3.52-.7 4.57-4.88 6.09a105 105 0 0 0-12.28 5.23c1.9.68 2.96 1.39 2.72 3.39-.19 1.65-1.35 2.18-2.4 2.37-1.78.31-3.69.38-5.46.08-2.41-.4-4.76-5.51-3.66-7.34 1.8-3.03 4.22-5.99.49-9.45-.86-.8-1.22-2.47-.75-3.77 1.1-3.1 1.5-6.14 1.79-9.46.47-5.4 4.27-9.99 9.65-12.5.55-.27 1.16-.34 1.43-1.02 1.18-2.97-.33-9.69-2.96-12.15-1.03 1.14-2.14 2.23-3.09 3.44q-9.14 11.65-18.26 23.33c-.58.74-1.3 1.38-.2 2.26.8.63.23 1.28-.05 1.92-1.94 4.5-1.84 9.4-1.67 14.04a73 73 0 0 0 3.9 21.2c.85 2.46 2.15 3.1 4.4 3.2 3.37.16 6.8.17 10.1.77 6.98 1.27 14.13 1.6 21.01 3.44.83.22 1.48-.1 1.71-.9.9-3.14 3.35-5.07 5.5-7.24.44-.44 1.2-.96 1.16-1.4-.32-3.94 2.82-4.71 5.39-5.98 2.9-1.43 3.38-6.53.68-8.38-1.7-1.16-2.96-2.58-2.72-4.7.27-2.28 2.43-1.87 3.88-2.22 3.55-.84 4.66-3.87 5.75-6.6.97-2.43.06-4.83-2.08-6.58-.64-.52-1.14-1.2-1.77-1.72-1.3-1.05-.83-2.15-.2-3.26s1.43-1.27 2.58-.65c.78.42 1.72.53 2.7.81zM680.66 532.36l-.27-.02c-.29 2-.76 4-.83 6.02-.4 13.17-1.32 26.3-1.33 39.49-.01 13.37.19 26.72 1.26 40.06.3 3.68-2.43 5.73-4.76 7.83-1.65 1.5-3.2.5-4.5-.88-.1-.1-.38-.15-.49-.09q-3.61 1.97-7.16 4.04c-.5.29-.34.87-.25 1.4 1.07 5.56.58 11.23.93 16.84.57 8.95.2 17.97.13 26.96-.02 2.45.58 2.6 2.7 1.46 6.62-3.59 13.4-6.89 20.07-10.36 7.73-4.03 15.6-7.8 23.33-11.84 5.1-2.67 10.3-5.5 16.2-6.2 2.76-.34 5.56-.37 9.1-.59a255 255 0 0 0-26.28-15.3c-8.01-4.06-16.58-6.85-24.53-11.02-.85-.44-2.09-.56-1.98-1.95.17-2.28-.51-4.48-.6-6.72-.3-8-1.06-16.01-1.14-24-.15-15.13-.73-30.28.36-45.42.23-3.22.03-6.48.03-9.72zM631.3 810.78h2.47c5.58.16 10.45-.26 14.24-5.78 3.82-5.57 9.06-10.18 13.77-15.13 5.26-5.55 5.84-12.17 5.13-19.37-.88-9.02-7.69-14.6-12-21.6-2.59-4.17-7.48-2.97-11.61-3.12-2.64-.1-4.42 1.4-5.47 3.5-2.96 5.96-5.63 12.05-8.55 18.04-4.7 9.65-8.01 19.95-13.8 29.08-.3.47-.43 1.23-.29 1.75 2.8 10.15 3.27 12.98 13.94 12.72q1.08-.03 2.16-.1zM515.52 189.35c-1.82-.3-3.46.41-5.17.62-7.44.9-13.5 4.7-19.13 9.2a37 37 0 0 0-9.9 12.63c-1.3 2.62-3.34 5.45-2.8 8.5a17.8 17.8 0 0 0 6.31 11.02c7 5.57 15.03 6.73 23.62 5.22 5.2-.92 9.32-3.9 13.27-7.05 8.7-6.97 15.37-20.65 7.01-32.08-3.22-4.4-7.23-8.02-13.22-8.06zm129.4-115.71c-4.8-.42-9.18 1.26-13.42 3.63-6.85 3.82-10.7 9.92-10.53 17.4.19 7.95 4.4 14.2 12.06 17.58 7.75 3.42 16.58 1.33 23.72-5.64a19.6 19.6 0 0 0 1.35-26.86c-.39-.46-.93-.84-.85-1.56.17-1.57-.94-2.15-2.11-2.63-3.22-1.3-6.47-2.43-10.21-1.92zM440 260.24c2.4.04 4.57.57 6.77.89a40 40 0 0 1 16.86 6.64c3.85 2.6 7.55 5.49 11.57 7.8 7.28 4.2 15.25 5.84 23.62 5.38a13 13 0 0 0 10.1-6.02c1.28-1.93 2.05-2.63 4.04-2.2a8 8 0 0 0-3.02-6.06c-1.45-1.2-3.33-.04-4.84-1.24-2.6-2.08-6.3-2.17-8.79-4.58-.41-.4-.91-.28-1.43-.08-2.03.8-4.1 1.5-6.12 2.33-7.08 2.88-14.09 3.4-21.07-.4-1.38-.75-2.26-1.72-2.2-3.17.14-3.5.5-6.92 3.23-9.65 1.61-1.62 3.12-3.32 4.93-4.75.92-.73 2.07-1.4.82-2.9-1.06-1.28-2-.95-3.2-.26-2.73 1.57-5.59 2.91-8.24 4.59-3.66 2.3-7.63 4.2-10.64 7.45-.6.66-1.3 1.6-2.3 1.32-4.83-1.37-6.73 3.22-10.1 4.91zm80.1 288.3c-7.39 4.72-14.24 8.92-20.9 13.39-7.1 4.76-13.25 10.46-16.5 18.67-.27.65-.94 1.3-.47 1.98.58.85 1.27-.13 1.92-.13 6.98-.07 13.98-.46 20.88.91a639 639 0 0 1 20.2 4.26c1.36.32 1.6-.08 1.34-1-1.4-5.17-.71-10.85-4-15.58-.84-1.19-1.08-2.82-1.49-4.28-1.57-5.73-2.3-11.54-.97-18.23zm75.87 269c0-3.33-.76-4.86-2.45-4.47-4.41 1.04-8.93 1.41-11.33 6.69-3.51 7.71-10.49 12.48-17.23 17.14-11.59 8.01-23.45 15.62-35.99 22.08-1.96 1.01-1.89 1.67-.4 2.96 1.09.93 2.3 1.92 2.9 3.16.85 1.75 1.78 1.5 3.2.92 3.8-1.56 7.68-2.92 11.46-4.52 1.37-.58 4-.3 2.92-3.27-.14-.4.79-.77 1.3-1.1 7.03-4.61 13.24-10.26 19.67-15.64 4.45-3.73 8-8.46 12.61-11.88 3.76-2.8 7.47-5.68 11.2-8.5 1.23-.94 2.56-1.86 2.14-3.58zM536.2 207.17c.42 3.25-.44 6.35-1.2 9.4-1.45 5.66-5.04 10.06-9.16 13.96a35 35 0 0 1-12.9 7.5c-5.2 1.75-10.66 2.93-16.4 2.3a37 37 0 0 1-9.61-2.35c-2.84-1.1-4.93-3.4-7.82-4.73.59 4.93 3.49 8.15 6.47 11.04 3.12 3 6.95 5.49 11.46 5.49 5.85 0 11.6-.09 17.42-2 9.12-3.02 15.29-8.72 19.7-16.97 2.49-4.67 3.23-9.73 3.73-14.79a14.4 14.4 0 0 0-1.7-8.85zm59.78 555.2c-.46 6.9 3.93 11.7 7.72 13.08 7.05 2.54 15.52-2.24 17.6-10 1.27-4.75-3.04-15.08-7.2-17.33a1.2 1.2 0 0 0-1.1-.08c-1.81.67-2.76-.45-3.25-1.9-.4-1.17-1.02-1.94-2.19-1.53-2.67.94-5.23 1.93-6.2 5.2-.73 2.47-.72 5.82-3.07 7.05-2.72 1.44-2.26 3.39-2.33 5.5zm-71.02 41.81c4.83 3.93 10.04 5.62 16.05 3.1.7-.3 1.2-.1 1.54.5.4.7-.04 1.22-.6 1.5a10 10 0 0 1-2.27.85c-5.63 1.36-10.53-.2-14.77-3.94-.93-.83-1.29-.78-2.1.1-1.84 1.96-1.85 3.35.4 4.98 2.17 1.59 4.79 2.28 7.2 3.38 7.89 3.61 11.67 1.7 16.59-5.32 3.66-5.23 3.46-9.53-.08-14.36-1.2-1.64-2.95-2.88-4.25-4.46-1.12-1.36-2.04-1.3-3.23-.2-4.94 4.48-10.05 8.8-14.48 13.87m18.53-608.41c4.32 4.46 7.53 9.44 8.43 15.65.07.46.4 1.23.66 1.26 3.16.37 4.98 2.84 6.88 4.8 2.58 2.67 5.49 5.26 6.33 9.24.48 2.25 1.17 4.5 4.37 2.9.41-.2 1.03-.07 1.53-.01 2.82.32 2.5-1.43 2.19-3.23-.11-.65-.43-1.18-.46-1.93-.15-4.72-2.33-8.8-5.2-12.27-5.54-6.67-12.22-12-20.61-14.8-1.37-.45-2.12-2.36-4.12-1.62zM466.83 885.1c3.83 0 7.59-.05 11.34.01 5.54.1 11.1.12 16.58-.75a273 273 0 0 0 37.8-8.66c6.45-2 12.45-4.96 17.83-9.13 1.37-1.06 1.7-2.25 1.01-3.67-.85-1.74-1.84.25-2.82.06-.4-.08-.9.4-1.35.62a298 298 0 0 1-35 14.15c-7.28 2.4-14.84 2.5-22.29 3.6-5.6.82-11.25 1-16.82-.04-3.17-.59-5.01.55-6.28 3.81m184.94-729.78a8.2 8.2 0 0 0 2.4-7c-.1-1.09-.16-2.11 1.1-2.9 4.55-2.9 8.63-6.53 13.67-8.62.8-.33.98-.42.86-1.43-.87-7.1-1.17-7.5-7.64-8.85-.13-.02-.3.1-.52.18.03 2.38-.67 4.94-3.11 5.35-3.18.54-2.69 2.33-2.35 4.3.2 1.2.32 2.4-1.04 2.79-2.39.66-4.28 2.25-6.51 3.17-1.23.5-2.38.92-3.84.27 1.28-2.35 3.17-3.8 5.18-4.97 1.23-.73.9-1.64.93-2.63.03-.81-.5-.87-.96-.68a59 59 0 0 1-12.93 4.14c6.65 4.66 11.89 9.6 14.77 16.86zM535.72 577.1c.68.41 1.06.15 1.56-.05 7.9-3.17 15.81-6.34 23.76-9.41 5.61-2.17 11.13-4.49 16.29-7.63 2.12-1.3 3.22-3.15 3.12-5.61-.16-4-.2-8-.67-11.96-1.08-9.07-2.38-18.12-3.65-27.17-.18-1.34-.2-3.63-1.32-3.68-1.8-.08-1.6 2.25-2.14 3.61a3 3 0 0 0-.06 1.51c.78 4.84.9 9.74 1.62 14.6 1.13 7.77 1.57 15.64 2.78 23.4.4 2.56-.26 3.35-2.34 4.26q-11.58 5.08-23.06 10.42c-5.3 2.46-10.76 4.64-15.89 7.71M682.47 91.44c-.79.9-.12 1.46.06 2.1 2.09 7.32-.01 10.97-5.85 12.36-3.94.95-7.8 1.6-11.74.34-.77-.25-1.13-.55-1.63.42-1.18 2.31-3.2 3.97-4.9 5.88-.35.39-1.3.72-.66 1.4 2.41 2.55 5.12 4.71 8.6 5.67 1.19.32 1.26-.49 1.44-1.37.34-1.55 1.09-3.15 2.9-2.91 2.83.37 4.57-1.1 6.21-2.92 1.46-1.62 3.07-3.07 5.12-3.8 4.66-1.69 5.19-5.78 5.44-9.72.22-3.5-2.43-5.54-5-7.45M313.29 306.38c.48 1.38.55 3 1.37 3.64 1.17.92.5 1.7.25 2.31-1.03 2.46-.61 4.68.72 6.86.59.94 1.62 1.98 1.54 2.9a43 43 0 0 1-3.52 13.7c-1.35 3.07-4.13 5.65-5.3 8.61-1.9 4.9-7.66 5.7-9.42 10.33-.1.26-.7.44-1.08.48-3.06.32-5.43 1.89-7.48 4.06 2.02 1.28 4.02 2.66 5.2-.95.21-.66 1.18-.36 1.59-.68.96-.75 2.2-1.15 3.17-1.68 1.93-1.04 3.28-2.85 5.08-3.63 2.64-1.15 4.2-3.17 5.85-5.17 2-2.42 3.64-5.23 5.44-7.68 2.54-3.47 3.3-7.37 3.84-10.92 1.04-6.75-1.66-13.18-4.69-19.29-.57-1.15-.67-2.52-2.56-2.88zm343.47-130.7c2.35-2.04 4.27-3.91 6.42-5.46 1.27-.93 1.67-1.6 1.12-3.18-.61-1.76-.38-3.57 2.27-3.3.8.08 1.02-.52 1.44-.86a50 50 0 0 1 11.22-6.65 146 146 0 0 1 15.98-5.81c.98-.3 1.78-.46 1.44-1.76-.32-1.22-6.5-3.34-7.39-2.5-.1.1-.1.34-.07.5.5 2.48-1.71 2.86-3.05 3.48a926 926 0 0 1-29.22 12.91c-2 .84-2.47 1.81-2.13 3.56.58 2.96 1.27 5.89 1.95 9.06zM532.7 273.52c4.56.13 8.86-.96 12.42-3.51 6.91-4.95 13.02-10.8 17.47-18.2.34-.58.76-1.07.32-1.58-1.2-1.41-7.29-1.07-8.25.68-1.44 2.6-4 4.04-5.99 6-1.63 1.61-2.49 4.58-5.72 4.54-.78 0-1.9 1.27-1.45 2.67.95 3.06-.58 4.62-3.23 5.78-1.97.86-4.5.96-5.57 3.62m-7.84 38.38c1.93-.13 3.43.43 4.82-.78 3.87-3.38 8.58-5.4 13.16-7.55 1.62-.76 1.72-1.32.55-2.47a31 31 0 0 1-5.2-7.13c-.7-1.25-1.22-1.2-2.3-.63a222 222 0 0 1-8.99 4.44c-1.72.8-2.38 1.6-1.74 3.78.97 3.28 1.78 6.77-.3 10.33zm95.9 415.12c-.95 1.13-2.08.96-3.03 1.16-2 .42-2.8.88-2.07 3.2.89 2.81.84 5.84.8 8.81-.02.93-.13 2 .91 2.4 2.5 1 4.06 3.09 5.9 4.84 1.72 1.62 4.01 2.12 6.14 2.32 1.21.11 1.52-2.1 2.5-3.1a7 7 0 0 0 1.54-2.23c.46-1.27 2.23-1.85 2-3.3-.8-5.21-.6-10.4.5-15.49-2.91-.86-3.54.26-3.54 2.82 0 4.08-.82 8.06-2.67 11.8-1.3 2.6-3.48 2.4-5.74 2.46-2.28.05-2.16-1.9-2.6-3.2-1.32-3.88-.48-7.9-.63-12.49zm-74.98-496c-10.77 19.21-26.95 27.29-48.27 25.53a20 20 0 0 0 6.47 4.23c.95.38 1.48 2.13 2.46 1.48 2.92-1.9 6.46-1.45 9.5-2.99 3.67-1.85 7.8-2.81 11.37-4.8 3.1-1.7 6.94-2.33 9.05-5.76 1.96-3.17 4.5-6 6.28-9.25 1.36-2.52 3.57-4.87 3.14-8.44M432.1 277.34c-1.32 0-2.68-.13-4 .03-1.67.21-2.72.65-1.6 2.87 1.35 2.68 2.2 5.64 3.07 8.53.52 1.77 1.11 2.86 3.28 3 1.82.13 3.7.85 5.31-.15 1.21-.75 3.08-2.61 2.83-3.18-1.11-2.53.55-5.27-.93-7.62-.06-.09-.17-.14-.21-.22-1.59-3.41-4.5-3.75-7.75-3.26m215.99 313.7c-.55-.35-.65-.47-.72-.45-24.9 6.53-49.71 13.3-73.33 23.73-4.16 1.83-8.3 3.84-11.35 7.52 27.35-13.06 56.11-22.19 85.4-30.8m32.34-392.83a127 127 0 0 0-8.9-24.03c-.34-.66-.73-1.14-1.33-.48-1.69 1.84-4.26 2.24-6.12 3.8 1.8 1.66 3.14 3.4 3.79 5.82.6 2.25-.27 5.2 1.65 6.67 3.43 2.64 6.5 5.79 10.92 8.21zm-.6 327.9c1.1 0 2.19-.3 2.65-1.2.52-.98-.13-1.9-.9-2.7-6-6.15-13.22-10.32-21.24-13.22-1.09-.39-1.76-.17-2.36.66-.7.98.15 1.49.69 2.07 3.83 4.15 8.64 7.05 13.24 10.21 2.48 1.71 4.77 3.8 7.94 4.19zM513.66 265.68c1.16.67 1.93.97 2.54 1.48 4.22 3.55 8.7 3.94 13.56 1.53 2.33-1.15 3.64-3.57 6.12-4.42.5-.17 1.46.42 1.47-.7.01-.85-.7-1.13-1.34-1.43-1.85-.87-4.01-1.27-4.62-3.82-.22-.9-1.03-.25-1.7.07-5.18 2.48-9.87 6.02-16.03 7.3m228.19 379.79c-4.15 1.13-4.35 1.75-1.8 4.54.68.76 1.39 1.52 2.18 2.18 6.24 5.13 12.46 10.29 19.27 14.65 6.07 3.9 12.17 7.8 19.11 10 .92.29 2.13 1.63 3.28-.02-1.77-.77-3.5-1.44-5.17-2.27-13.67-6.85-24.73-17.33-36.78-26.43-.99-.74-.73-1.52-.1-2.64zM556.67 237.44c.92-1.5 1.66-2.97 2.74-4.27 1.33-1.6 2.47-3.47 1.68-5.73-1.44-4.11-4.62-7.06-7.17-10.43-.3-.4-.62-1.2-1.4-.53-.47.39-.35.8-.24 1.35.54 2.98.17 5.94-.1 8.95-.15 1.77-2.1 4.23.45 5.52 2.25 1.14 2.8 3.26 4.04 5.14m96.39 403.33c-5.07 1.05-7.91 3.66-8.2 7.28-.48 6.12 1.13 8.77 6.4 10.7 1.13.4 1.88.8 1.84-1.08-.11-5.6-.04-11.22-.04-16.9m-45.99 148.7c-2.98-1.52-4.93-3.33-6.02-6.05-.68-1.7-1.53-2.42-2.76-.18-1 1.82-2.93 2.8-4.59 3.96-2.17 1.51-4.44 2.87-6.67 4.29-1.69 1.06-.98 2.57-.5 3.8.57 1.5 1.6.16 2.28-.05 5.98-1.8 11.63-4.6 18.26-5.78zm-23.85-11.83c2.22-1.98 3.95-4.01 6.29-5.27.47-.26.8-.58.63-1.22-.83-3.16-.11-6.44-.55-9.9-4.82 2.27-8.94 5.12-14 8.46 5.88-.07 6.55 3.96 7.63 7.93m92.3-267.6c1.59-.05 1.9-1.12 2.3-1.83 5.11-8.86 10.37-17.64 14.54-27 .34-.78 1.56-1.97.23-2.66-1.27-.67-2.13.35-2.92 1.47-2.15 3.03-3.78 6.32-5.41 9.6-3.04 6.09-5.85 12.3-8.72 18.46-.32.68-1.01 1.56-.02 1.94zM554.6 238.95c-.83.04-1 .71-1.3 1.22-.98 1.68-2.5 3.14-4.22 3.38-3.32.46-5.2 2.4-6.6 5.04-.87 1.66-3.7 2.15-3.1 4.45.57 2.27 3.49 1.25 4.76 2.6 1.46 1.57 2.32.37 2.86-.58 2.73-4.82 5.32-9.72 7.93-14.6.27-.51.4-1.17-.35-1.5zm-62.26 18.98c-2.6-1.18-4.24-2.95-6.02-4.57-4.04-3.68-5.06-3.59-8.46.48-3.47 4.14-3.5 4.19-3.45 6.4 1.78-2.88 3.33-3.1 6.05-.88.6.5 1.1 1.25 2.09 1.1 3.16-.48 6.45-.5 9.8-2.52zM652.47 525.7a16 16 0 0 0-4.8-2.7 121 121 0 0 0-43.77-6.21c-1.1.04-2.12.28-2.8 1.88 17.75-.63 34.74 1.93 51.36 7.03zm81.33-27.3c-.7-.05-1.4-.22-2.08-.14-7.97 1-15.96 1.94-23.92 3.1-4.41.63-8.77 1.63-13.16 2.44-.7.12-1.3.46-1.3 1.08 0 .75.83.91 1.4.9 1.64-.04 3.3-.1 4.91-.36 8.3-1.35 16.62-2.6 24.87-4.23 3.1-.62 6.45-.55 9.27-2.78zm-67.72-396.44c1.5.2 2.92.46 4.3.63 5.5.7 7.55-1.99 8.4-6.91.11-.67-.14-.91-.76-1-3-.38-6.09-1.42-8.95-.96-1.62.26-1.12 3.54-1.94 5.34-.41.9-.7 1.88-1.06 2.9zm-17.9 26.31c-.4-.06-.8-.2-1.19-.18-1.7.06-4-2.75-4.94 1.07-.1.37-.72.22-.87-.28-.24-.84-.8-.98-1.3-.4-2.89 3.33-7.1 3.73-11.53 5.07 2.54 1.4 4.55 2.53 6.59 3.61.93.5 1.97.32 2.53-.44a25.7 25.7 0 0 1 10.71-8.45m-3.9 597.98c-.06 2.14.12 4-.66 5.73-1.41 3.1-.91 6.53-1.71 9.74-.25 1 .42 1.06 1.03.93 2.34-.5 3.29-2.26 3.84-4.35.46-1.74.3-3.6 1.11-5.28q2.75-5.57-3.61-6.77M453.1 289.19c3.47 1.47 6.77 2 9.9 2.1 3.3.1 6.6 1.5 9.96.29.99-.36 1.74-.84.82-1.56-1.32-1.02-2.64-1.78-2.87-3.68-.05-.39-1.1-.98-2.06-.57-4.87 2.09-10.09 2.67-15.75 3.42m321.78 345.04c-3.72-.91-7.37-.1-11.02.2-5.5.47-10.99 1.26-16.46 2.06-.7.1-2.47-.02-1.87 1.6.31.85.66 2.02 2.4 1.65 8.96-1.95 17.96-3.7 26.95-5.51m-104.06-483.1c-5.2-.21-6.75-.43-8-2.06-1.1-1.42-2-2.03-3.75-1.17-1.93.96-1.06 2.43-.84 3.7.64 3.61-.1 5.14-3.35 7.06-.46.27-1.6-.04-1.36 1.66zM369.2 349.64c-2.85 1.45-2.67 4.74-4.58 6.66-.43.45-2.1 1.4-1.02 2.44.99.95 2.34.53 3.36-.43.2-.18.47-.54.62-.5 4.35 1.12 6.62-3.07 10.18-4.05 1.07-.3 2.65-2.59 2.36-3.24-.74-1.66-1.6.55-2.52.54q-1.8 0-3 1.2c-1.35 1.34-2.68 1.61-4.56.9-2.15-.83-.57-2.3-.83-3.51zm260.65 376.43c-2.2-.08-4.66-.56-5.32 1.96-.81 3.11-.97 6.4-1.29 9.62-.08.8-.55 2.03.66 2.37 1.01.28 2.06-.24 2.69-1.1a6 6 0 0 0 .93-2.2c.8-3.49 1.54-6.99 2.33-10.65m-22.26 6.48c-6.74 2.39-7.66 4.02-5.7 9.9 1.76-.74 3.49-1.6 5.32-2.17.89-.27 1.4-.68 1.04-1.42-.96-1.98-.25-4.07-.66-6.3zm-42.96-486.83c.2.03.65.6 1.1-.39.84-1.87 2.1-3.54 2.92-5.42.24-.52.7-1.6-.02-2.16-.68-.53-1.3.35-1.94.57a10 10 0 0 1-2.35.58c-1.31.13-4.93 4.04-4.5 5.05.65 1.5 2.62 1 3.88 1.7.16.08.4.04.9.06zm27.8 531.1c-1.83 2.18-4.32 3.58-6.68 5.19-1.85 1.26-1.24 3.34-.25 4.62 1 1.3 1.8-.48 2.5-1.06 2.27-1.9 4.42-3.94 6.63-5.93zm11.82 20.13c4.31.44 7.9-1.9 8.37-5.5.09-.65.58-1.75-.95-1.58-4 .43-6.64 2.93-7.42 7.08m138.55-683.4c-2.5.58-2.21 3.03-2.36 4.44-.14 1.49 1.38 3.56 3.06 3.6 2.34.07 3.08-2.5 3.24-4.2.2-2.26-2.32-2.76-3.94-3.84M660.55 498.6c1.05-7.49 3.13-14.8 3.18-22.4-3.2 7.15-3.54 14.73-3.18 22.4M524.4 863.94c-1.8 2.55-4.74 3.91-6.83 7.14a65 65 0 0 0 11.66-3.4c-1.81-1.24-3.5-2.13-4.83-3.75zm232.85-194.06c-.73-.14-1.33-.23-1.9-.4-3.67-1.06-7.4-1.86-10.93-3.38-.73-.32-1.98-.66-2.44.44-.56 1.31.86 1.49 1.56 1.74 2.18.76 4.42 1.8 6.65 1.83 2.27.03 4.7 2 7.06-.23M459.76 300.95c-.04 2.3.05 2.52.83 2.2a93 93 0 0 0 5.76-2.54c1.04-.5 1.02-1.54.7-2.41-.3-.88-1.29-.65-1.83-.38a5.5 5.5 0 0 1-2.66.47c-1.87 0-4.14-.41-2.8 2.66M779.8 127.92c-.02-1.82-.57-3.67-2.42-4.02-1.66-.32-2.07 1.42-1.88 2.74.25 1.67-.35 4.18 2.2 4.39 1.63.13 2.15-1.53 2.1-3.1M312.4 303.07c-1.44-1.86-4.33-2.68-4.85-5.14-.37-1.74-1.26-1.47-2.24-1.57-.83-.09-.83 0-1.12 3.62-.02.2-.4.38-.6.56q.6.1 1.18.23c2.23.57 4.78.28 6.36 2.58.53.77.97-.2 1.26-.28m272.29 498.97c3.56-.9 6.37-2.86 9.7-3.13 1-.08.96-.88.92-1.61-.02-.63-.37-1.03-.96-.8-3.36 1.29-7.83.51-9.67 5.54zM763.3 137.98c1.58.21 3.27-.12 3.35-2.03.07-1.71-1.72-1.58-2.98-1.78-.6-.09-1.16-.4-1.75-.45-1.74-.15-2.22.91-1.83 2.34.4 1.49 1.61 2.02 3.2 1.92zM564.85 814.36c-.47-1.16-1.4-1.57-2.29-2.05q-4.35-2.34-1.97-6.49c.03-.07-.16-.27-.2-.34-2.36.43-1.48 5.08-5.18 3.65.43 1.03 2.1 1 1.7 2.41-.27.98-.73 1.93-.9 2.92-.16.86-1.2 1.57-.6 2.6 1.67-1.54 1.3-4.94 3.13-5.26 1.7-.3 3.77 1.66 5.69 2.61.07.04.2-.01.6-.05zm115.2-723.92c-3-2.5-6.05-2.88-8.91-3.66-.9-.24-2.05-.72-2.18 1.07-.1 1.55.52 1.9 1.93 1.9 2.83.01 5.68-.38 9.16.68zM445.46 287.92c-.42 1.88-.84 3.7-2.37 5.04-.34.3-.91 1.13-.45 1.22 1.69.37 1.38 2.52 2.86 2.92.58.16.66-.32.65-.72-.14-2.79.36-5.62-.68-8.46zm5.23 15.22a4.04 4.04 0 0 0 5.99.14c2.32-2.5-2.47-3.04-1.85-5.39-2.36 1.17.23 5.26-4.14 5.25M658.27 179.8c1.64 2.08 3.15 3.91 5.37 5.3.04-2.48-2.05-4.31-1.09-6.9zm-99.09 641.36-6.13 1.83c1.4 1.57 2.95 3.12 4.4 2.8 1.43-.31.68-2.7 1.73-4.63M435.14 308.07c1-1.12 2.85-1.76.97-3.48-.4-.36-1.16-.71-.66-1.43.38-.56 1.07-.52 1.69-.43.56.09 1.32 1.1 1.57-.3.2-1.18-1.25-1.6-1.48-1.48-1.3.72-3.88.44-2.84 3.28.42 1.15.48 2.43.74 3.84zM457.2 276c.93-.37 1.18-1.28 1.3-2.1.23-1.6-1.77-2.14-2.08-1.92-1.01.75-3.3.47-3.06 1.28.43 1.44 2.42 1.88 3.84 2.74m204.2-154.84c1.07.94 2.1 1.9 3.2 2.8.6.52 1.23 1.25 2.13.83.66-.32.35-1.08.44-1.66.15-1.12-.7-1.43-1.45-1.64-1.31-.37-2.74-.1-4.32-.33m-59.33 674.4c-.15-.3.47-1.53-.88-1.44-1.65.12-2.91 1.06-3.17 2.7-.27 1.72 1.24.8 1.9.9 1.3.21 2.55.07 2.15-2.17zM442.88 304.51c.55-1.62 2.97 1.26 3.11-1.07.08-1.29-1.84-1.6-3-1.97s-2.06.73-2.24 1.6c-.24 1.17.95 1.32 2.13 1.44m-150.83 48.05c-3.27 1.24-7.4-.05-10.24 3.33 3.8-.19 7.03-1.65 10.24-3.33m154-84.6c1.87 1.1 1.61 2.75 2.27 3.93.67 1.2 3.37-.57 2.65-1.81-.77-1.31-2.4-2.12-4.92-2.1zm-145.6 41.83c2.18.47 1.91-2 3.25-2.53.52-.2.98-.76.44-1.48-.41-.56-.96-.69-1.61-.68-.7.01-1.1.19-1.22 1-.19 1.24-.57 2.46-.88 3.7zm290.12 412.9c-3.77 4.08 1.72 4.77 2.34 7.12zM476.3 283.45c-1.15-.06-2.62.36-2.42 1.08.26.9.27 2.77 2.03 2.53.66-.1 2.2-.18 1.56-1.57-.33-.68 1.02-2.65-1.17-2.04m199.97-134.64c2.67-1.03 4.86-1.21 7.28-2.78-3.03.09-5.55-.53-7.27 2.78M463.9 280.38c-.36-1.69 3.01-2.18 1.48-3.58-1.3-1.2-2.67.62-4.19 1.5 1.55.17 2.3.84 2.7 2.07zM711.09 516.5c-3.42-.35-6.82-.41-10.71.7 4.02.66 7.3-.92 10.71-.7"/><path fill="#000" d="M435.69 888.1q-.35.34-.68.69c-7.62 1.37-15.42 1.7-22.96 3.69a69 69 0 0 0-18.3 7.61c-1.34.81-2.57 1.7-2.63 3.49-.2 6.28-.98 12.52-.98 18.82 0 10.94 1.85 21.59 4.23 32.2.55 2.46 1.05 4.5 3.54 5.72 4.8 2.34 5.01 6.7 4.16 11.1-2.27 11.62-3.53 23.4-1.54 35.06 2.08 12.15 3.51 24.5 7.86 36.19.56 1.52 1.57 2.37 2.74 3.36 2.35 1.99 4.23 4.55 6.64 6.43 3.73 2.9 7.7 5.76 12.54 1.83.6-.48 1.39-.37 2.05 0 .41.22.58.73 1.26.58.73-.17.55-2.35 1.92-.87.93 1.01.76 2.28.68 3.51 0 .19-.03.47-.15.58-4.89 4.34-6.45 11.43-12.36 14.88-1.59.93-3.24 1.67-5.21 1.51-7.1-.58-12.9-3.12-17.64-8.9a149 149 0 0 1-16.6-24.82 59 59 0 0 1-6.77-26.9c-.15-10.13.18-20.25 2.43-30.2 1.18-5.24 3.72-9.82 7.47-14.42h-6.38c-5.27-.04-11.45-4.86-12.75-9.93-3.7-14.4-3.41-29.03-2.63-43.7.16-3.16.05-6.32.67-9.46.6-3.1 1.35-3.54 4.2-2.4 2.56 1.03 4.01 2.97 5.36 5.2.55.9.34 2.91 2.42 2.3 2.26-.66 4.7-1.19 4.72-4.23 0-2.06.18-4.07.64-6.08.15-.68.11-1.24.87-1.76a71.5 71.5 0 0 1 31.78-12.14 76 76 0 0 1 15.07-.71c1.6.1 3.28.21 4.3 1.78zm-42.1 86.17c-.46.27-.69.33-.8.47-.2.23-.32.51-.47.77-4.7 8.18-6.09 17.04-6.38 26.39-.49 15.78 2.07 30.75 9.46 44.77a1360 1360 0 0 0 9.98 18.62c.37.68 1.25 2.09 1.6 1.69 2.57-2.94 4.48-.13 6.48.66 2.25.9 4.47 1.84 6.82 2.42 1.48.37 2.12-.05 2.51-1.92.77-3.69-.01-6.01-3.8-6.99-.25-.07-.42-.45-.67-.62-4.87-3.22-7-9.13-12.37-12.05-2.48-1.35-3.68-4.78-4.95-7.59-3.39-7.48-4.5-15.64-6.96-23.4a67 67 0 0 1-3.28-21.99c.17-7.07.89-14.14 2.84-21.23zm-21.67-59.1c0 7.58.02 14.75-.01 21.92-.03 6.36.77 12.67 1.3 19 .2 2.53 1.27 5.05 3.9 5.68 5.37 1.27 9.39 6.08 15.34 5.64.29-.01.68.08.86.28.5.52 1.06 1.36 1.65.37.81-1.35 1.45-2.9 1.29-4.52-.07-.64-.37-1.9-1.47-1.4-1.43.66-1.28-.7-1.65-1.16-7.7-9.53-10.2-20.75-10.75-32.69-.22-4.58.25-9.15 0-14.07-3.38 1.84-6.6 3.1-10.46.94zm248.6-888.48c2.4 1.26 4.54 2.38 6.68 3.53 4.82 2.58 4.8 5.56 1.02 9.26-3.25 3.18-6.04 1.55-8.92.41-11.27-4.45-22.4-9.25-33.7-13.6a268 268 0 0 0-17.8-6.1c-3.91-1.2-7.82-.5-11.63-1.55-1.57-.43-3.2-.73-4.58-1.55-2.8-1.7-3.94-4.88-2.86-7.34 1.4-3.18 4.9-4.57 8.89-3.25 18.54 6.15 37.63 10.63 55.91 17.64 1.87.71 2.85.24 4.23-1 7-6.23 14.01-12.54 23.76-14.14 8.92-1.46 17.8-1.94 26.84-.57 17 2.58 32.7 8.75 47.95 16.26 15.89 7.81 31.43 16.41 45.18 27.56 9.44 7.64 16.92 17.35 20.72 29.3.95 2.98 2.41 5.76 3.25 8.8.29 1.04 2.1 1.78 3.56 1.43.94-.23 1.59-.1 2.16.64 1.94 2.5 1.06 9.61-1.37 11.76-1.2 1.07-1.7.78-2-.63-.19-.9-.66-1.79-.59-2.65.21-2.58.21-4.76-3.23-5.1-.9-.08-1.35-1.26-1.81-2.25-2.84-6.05-4.68-12.52-7.82-18.46-2.85-5.4-7.04-9.86-11.16-14.05-3.1-3.15-7.86-4.86-11.8-7.38-13.03-8.33-26.2-16.43-40.26-22.96-14.3-6.63-28.92-12.27-44.47-15.12-7.54-1.38-15.1-.53-22.68.13-9.1.79-16.2 5.53-23.47 10.99zm-46.59-8.32c15.7 4.81 30.61 11.58 45.68 17.98 1.61.68 3.09 1.4 3.85-1 .65-2.04.75-3.55-1.88-4.5a738 738 0 0 0-44.39-14.2c-1.94-.57-2.65.24-3.27 1.72zm-19.46-4.83c-.22 2.29 1.16 3.68 3.32 2.83 3.26-1.28 6.18-.6 9.23.28 1.02.3 1.84-.18 2.03-1.25.2-1.2-.82-1.02-1.53-1.23-3.26-.98-6.57-1.88-9.76-3.06-2.53-.94-3.21-.6-3.29 2.43m-60.83 510.08c.4 1.55-.37 2.46-1 3.33-6.74 9.18-15.42 13.67-27.13 12.21-20.8-2.58-32.65-18.47-36.58-36.64a6.2 6.2 0 0 1 2.42-6.3c7.19-5.62 15.07-10.18 23-14.66 1.26-.71 3.53.06 3.4-2.82-.03-.7 2.23.1 3.17.77 3.6 2.52 7.2 5.06 10.64 7.8 9.03 7.18 17.77 14.72 27.52 20.94.66.43 1.38.9 1.56 2.02-1.31.23-2.18-.9-3.3-1-2.34 8.23-13.3 18.8-20.21 24.73 4.2.06 8.12-2.39 16.51-10.38m-41.57-35.86c-5.03 3.49-9.92 6.97-14.94 10.25-1.17.77-1.22 1.4-.75 2.42 2.28 4.97 4.4 10.02 6.91 14.89 5.49 10.63 14.34 17.08 25.85 19.9 1.64.4 3.53.24 5.2-.13 1.36-.3.52-1.98 1-2.92.22-.44.59-.82.93-1.2 6.14-6.76 11.46-14.15 16.75-21.56 1.32-1.84.67-2.32-.82-3.12-10.82-5.86-20.51-13.32-29.8-21.31-3.21-2.77-2.98-2.77-6.29-.21-1.38 1.06-1.22 1.8-.57 2.97 1.23 2.24 2.39 4.5 3.64 6.73 4.37 7.8 10.55 13.44 19.24 16.06.78.24 2.21-.33 2.03 1.04-.13.98-1.45.91-2.37.89-5.39-.15-9.84-2.68-13.92-5.84-6.16-4.79-9.55-11.45-12.08-18.86zm108.84-328.51c-.58 2.87-2.35 3.65-5.1 3.55-16.64-.65-33.3-.98-49.49-5.6-.19-.06-.45.04-.6-.05-8.46-5-16.09-1.55-23.7 2.25-1.9.96-3.96 1.65-5.8 2.7a70 70 0 0 1-9.76 4.5c-9.45 3.6-18.6 8.06-27.75 12.5a287 287 0 0 0-19.37 10.3c-.6.34-1.08 1.74-1.94.78-.74-.82-.4-1.88.48-2.73 1.77-1.69 3.46-3.46 5.51-4.84 11.2-7.54 23.38-13.19 35.65-18.65.26-.12.49-.32 1.1-.73-4.47-1.46-8.64-2.8-12.79-4.21-1.74-.6-3.54-1.19-4.68-2.78s-1.02-2.59 1.25-2.78c2.36-.2 4.41.78 6.46 1.55 4.08 1.54 8.08 3.32 12.06 5.1a6.2 6.2 0 0 0 5.52-.05c7.68-3.48 15.45-6.75 23.14-10.2a20.2 20.2 0 0 1 13.7-1.32 516 516 0 0 0 33.57 7.2 301 301 0 0 0 18.06 2.64c1.54.19 2.97.7 4.47.88zm-302.54 299.7c5.33-3.77 11.45-5.58 17.65-7.11 7.41-1.83 14.98-2.23 22.57-1.86 4.79.24 9.7.9 13.75 3.47a32 32 0 0 1 12.57 15.19 1371 1371 0 0 0 13.98 32.76c8.03 18.04 17.89 35.14 27.31 52.46 3.03 5.56 6.17 11.05 9.2 16.6.4.69 1.44 1.52.15 2.33-1.16.72-1.75.07-2.43-.94-5.23-7.78-10.59-15.48-15.8-23.28-7.36-11.05-14.54-22.21-20.47-34.13-6.97-14.03-12.28-28.71-17.53-43.43-1.36-3.8-2.8-7.6-4.53-11.25-1.43-3.04-4.69-3.95-7.57-4.63-8.13-1.93-16.39-1.73-24.7-1-8.24.72-16.16 2.75-24.14 4.81zM456.4 407c4.76-1.9 9-3.62 13.28-5.3 23.12-9.07 45.7-19.39 68.1-30.09a1031 1031 0 0 0 54.63-27.94c14.99-8.3 29.78-16.92 43.92-26.61.67-.47 1.4-.84 2.04-1.36.86-.7 1.73-.8 2.46.02.7.78.11 1.48-.4 2.18-4.4 6.07-10.31 10.47-16.32 14.75-13.14 9.36-27.41 16.78-41.88 23.82-29.42 14.31-59.59 26.91-90.16 38.57-10.75 4.1-21.42 8.45-32.48 11.68a7 7 0 0 1-3.2.28z"/><path fill="#000" d="M429.83 968.3c6.13-1.96 11.53-.55 16.63 1.79 2.31 1.06 2.9.57 3.8-1.45 1.5-3.33 2.98-6.72 5.62-9.4.56-.57 1.06-1.34 2.05-1.1 1.14.3 1.1 1.25 1.32 2.17.75 3.22-.88 5.92-1.87 8.73-5.2 14.72-10.46 29.42-14.58 44.5-1.58 5.81-2.26 11.8-3.17 17.7-.52 3.39 1.17 7.13 1.97 10.7.33 1.52.28 2.98.06 4.97-2.84-2.72-3.49-6.07-4.65-9.06-1.15-2.93-2.46-5.99-.24-9.27.82-1.2-.43-2.99-.4-4.47.06-4.09-.66-8.21.46-12.27.21-.76-.17-1.65-.15-2.4.02-1.64-3.02-4.29 1.3-4.85.21-.03.14-1.54.35-2.32.76-2.94 1.4-5.93 2.44-8.76.75-2 .11-2.34-1.68-2.82-2.1-.57-4.36-.84-6.24-2.2-.96-.7-1.83-1.41-1.15-2.64.6-1.07 1.06-2.63 2.83-2.1 2.48.75 5.35-.27 7.56 1.92.9.89 1.32-.36 1.59-1.07.71-1.9 1.34-3.84 2.06-5.74 1.46-3.81 1.5-3.86-2.37-5.19-2.78-.95-5.64-1.7-8.44-2.6-1.7-.56-3.42-1.13-5.11-2.77zm-.39-333.28-.63.71c-4.23 1.57-6.62.89-9.13-3.14a1412 1412 0 0 1-15.86-26.06c-3.9-6.55-7.58-13.24-11.34-19.87-2.47-4.37-6.32-6.05-11.21-6.18-3.9-.1-7.78.7-11.69.1-1.17-.18-2.22-.33-3.11-1.85 4.62-.65 9.04-1.3 13.47-1.9 3.44-.46 6.9-.64 10.3.17 4.3 1.04 7.63 3.95 9.8 7.43 8.33 13.3 17.67 26 24.7 40.09 1.7 3.41 3.9 6.66 4.7 10.5M641.07 24.87a20.3 20.3 0 0 1 12.81-2.54c24.83 2.7 47.7 10.52 67.22 26.58 6.48 5.33 12.42 11.27 15.68 19.3.71 1.76 1.47 3.53 1.48 5.59-2.23-.24-3.3-1.82-4.28-3.32-12.64-19.11-31.53-29.26-52.43-36.4-10.3-3.52-21-5.37-31.74-6.96-2.69-.4-5.3-1.35-8.74-2.25m-75.5 885.67c2.27 2.26 5.04 1 7.38 2-1.86 2.7-4.61 1.77-6.81 1.48-11.15-1.43-21.06-5.94-29.9-12.86-4.14-3.23-7.93-6.77-10.65-11.32a5 5 0 0 1-.87-2.9c.06-.86.52-1.08 1.23-1.44 1.29-.65 1.66.34 2.22.96a97 97 0 0 0 17.4 15.32 72 72 0 0 0 14.05 7.42c.74.29 1.62 1.29 2.3-.06 2.76-5.51 8.03-8.68 12.1-12.97 1.05-1.11 2.12-2.2 3.4-3.53-1.7-.32-2.95-.93-4.69-.27-2.22.86-4.46.1-6.14-1.67-4.65-4.91-6.27-10.85-5.77-17.46.18-2.46 2.3-3.62 3.96-4.63 1.51-.92 2.4.68 2.73 2.27 1.06 5.08 2.6 9.98 5.56 14.34.98 1.45 3.26 2.25 2.17 4.9-.28.69 1.8 1.27 3.01 1.1 1.96-.27 2.22.47 1.72 2.2-1.34 4.52-4.45 7.97-6.93 11.8-.33.52-.77.97-1.11 1.48-1.5 2.18-2.68 4.83-6.35 3.83zm-81-135.51c0-2.72.13-4.69-.04-6.63-.33-3.89 2.5-7 5.75-8.36 2.58-1.08 4.34.11 4.17 2.86-.48 7.43-.96 14.85-.82 22.3.18 10.21 1.44 20.24 4.48 30.02.41 1.35.6 2.73-.93 3.48-1.74.83-2.37-.77-2.99-1.77-3.17-5.27-5.03-11.1-6.32-17.03-1.83-8.43-3.78-16.9-3.3-24.88zm116.35-476.84c-1.92 2-4.35 3.25-6.73 4.52-18.74 10.01-38 18.76-58.6 24.28-8.2 2.2-16.55 3.53-25.03 3.43-6.02-.07-12-.88-17.88-2.34-1.63-.4-2.29-.92-1.98-2.65.4-2.22 2.05-1.12 2.87-.94a78 78 0 0 0 24.46 1.25c11.5-1.15 22.56-4.2 33.4-8.01 16.24-5.72 32.7-10.94 47.7-19.7.56-.32 1.1-.53 1.79.15zm-170.25 173.5c-2.57.3-3.16-2.52-4.37-4.52-1.4-2.31-1.33-4.65.47-6.76 1.8-2.12 4.04-3.7 6.36-5.21a69 69 0 0 1 19.17-8.86c2.75-.78 5.33-1.96 8.04-2.82 2.2-.7 3.75-.51 4.62 1.9a4 4 0 0 0 1.37 1.99c2.5 1.76 2.61 2.8.08 4.85-8.1 6.56-16.45 12.75-26.4 16.35-2.85 1.04-5.4 2.9-9.34 3.07zm2.59-8.54c4.03-1.28 1.38 2.79 3.11 3.53 2.6-1.2 5.38-2.46 8.13-3.77 6.4-3.05 12.1-7.24 18-11.1.7-.47 1.74-1.02 1.52-2.11-.23-1.12-5.4-3.5-6.55-3.04a154 154 0 0 0-20.22 10.11c-2.42 1.43-3.98 3.31-4 6.38m-37.81 451.07c-.01-6.27 4.24-10 10.6-9.39 1.31.13 2.66-.04 3.99.04 7.44.4 11.23 7.66 6.96 13.76-3.1 4.41-9.26 8.29-16.08 4.7-3.65-1.92-5.47-4.73-5.47-9.11m12.67-6.26c-4.97 0-7.73 2.37-7.75 6.67-.02 4.51 1.58 6.8 4.6 6.97 4.09.24 8.83-3.7 8.5-8.51-.3-4.3-.9-5.13-5.35-5.13"/><path fill="#000" d="M697.72 83.19c6.4-.79 13.12-5.68 13.3-10.07.35-9.16-.54-16.2-12.67-20.55 5.08-1.95 11.35-.02 15.03 5.88 6.7 10.75 3.89 21.25-8.64 26-2.6.99-4.96.4-7.01-1.26zm-168.3 263.39c-13.43-.47-26.43-2.85-38.68-8.65-1.71-.81-2.29-1.68-1.69-3.53.48-1.46 1-1.7 2.4-1.02 10.66 5.15 22.01 7.84 33.66 9.52 2.75.4 5.48.66 8.25.63.89 0 1.8.34 2.66.65.71.25 1.23.8 1.04 1.65-.17.8-.88.73-1.48.73q-3.08.02-6.17.01zM289.89 215.89c-.95 2.55-3.12 3.43-4.46 4.14-3.98 2.13-7.3 5.06-10.87 7.65-2.06 1.49-3.88 2.97-6.52 3.54a4.4 4.4 0 0 0-3.28 3.7c-.02.18-.14.52-.17.51-2.37-.4-2.71 1.97-4.04 2.84a68 68 0 0 0-11.64 9.28c-1.02 1.04-2.94.5-3.52 2.24-.13.41-.69.14-1.02-.15-.54-.44-.84-1-.36-1.59 1.77-2.21 2.57-5.13 5.42-6.58 1.7-.87 3.97-1.48 4.2-4.05.02-.23.4-.49.66-.61 5.97-2.93 10.6-7.8 16.11-11.26 3.42-2.13 6.4-5.4 10.84-6.01 2.92-.4 5.2-2.89 8.66-3.64zm308.72-33.95c3.31.36 6.28 1.74 9.04 3.46 8.81 5.52 15.83 12.77 20.48 22.18.42.84 1.29 1.98-.07 2.66-1.3.65-1.4-.88-1.87-1.5-7.52-10.08-17.13-17.44-28.64-22.42-.91-.4-2.93.2-2.53-1.7.35-1.67 1.54-2.92 3.59-2.68m6.29 189.93c7.58-4.44 12.94-11 19.45-16.2.55-.45 1.24-.72 1.79-1.16 1.03-.82 1.7.09 2.44.49 1.05.57.47 1.47.2 2.16-.61 1.67-1.92 2.88-3.2 4.02a58 58 0 0 1-17.06 10.7c-.92.37-1.98 1.25-3.62 0m53.44-111.86c.96-4.1.76-7.96.76-11.82-.02-5.85-.84-11.57-3.2-16.96q-.78-1.78.5-2.66c.99-.7 1.64.24 2.26.92 2.5 2.73 3.18 6.26 3.39 9.62.4 6.33.64 12.75-1.7 18.9-.28.75-.33 1.6-2.01 2"/><path fill="#000" d="M698.68 57.24c.26 1.46-.33 2.64-1.2 3.65a29 29 0 0 1-9.22 6.82c-.97.48-2.16.75-2.8-.01-.6-.69-.52-1.84.01-2.87 2.45-4.7 6.34-7.9 10.97-10.1 2.22-1.06 2.48.8 2.24 2.51m10.58 65.26c2.2-5.79 4.56-11.52 6.53-17.38 1.48-4.45 2.44-9.06 3.64-13.6.08-.3.08-.63.2-.9.61-1.27.4-3.76 2.46-3.18 1.61.46.8 2.65.57 4.03-2.03 11.4-7.43 21.4-13.4 31.03M291.77 330c2.04-.06 2.97 1.26 1.8 2.88a88 88 0 0 0-5.19 8.37c-.3.53-.55 1.32-1 1.46-.95.3-1.82 1.69-2.86.75-.86-.77.65-1.09.81-1.87.75-3.48 3.59-6.14 3.99-9.84.13-1.17 1.09-1.92 2.45-1.76zm408.7-268.22c1.78.25 3.02 1.68 3.7 3.2.67 1.52-.53 2.65-2.05 3.15-1.92.65-3.57 2.73-5.95.83-1.16-.93-1.3-1.71-.49-2.76 1.3-1.67 1.82-4.19 4.8-4.42zM681.99 79.4c-3.06-1.83-4.2-4.81-5.46-7.66-.34-.8-.54-2.22.74-2.67 1.18-.42 1.8.93 1.91 1.56.55 3.05 1.3 6.01 2.81 8.77m-71.94-24.94c-.36-.08-.68-.07-.72-.17-.46-1.3.2-2.45.98-3.2 1.02-.96 2.36-2.48 3.86-1.17 1 .87-.26 1.82-1 2.42-1 .82-2.14 1.48-3.12 2.13zM748.1 84.24a39 39 0 0 1-10.27-2.51q-.93-.35-.6-1.13c.19-.44.66-.35 1.05-.22 3.05 1 6.3 1.5 9.82 3.86M439.52 902.57c1.17-1.99 2.3-4 3.54-5.94.4-.62 1.04-1.53 1.97-.96 1.18.72.03 1.57-.3 2-1.41 1.9-3.02 3.66-4.56 5.47zM622.64 58.4c-.6 1.63-2.3 1.43-3.46 2-1.07.55-1.1-.61-.95-1.22.3-1.2.34-2.93 1.84-3.09 1.19-.12 2.08 1.04 2.57 2.32zm-25.82 595.25c1.35.03 3.42 2.08 5.27 1.89 1.45-.15 2.45-3.2 4.7-3.84a15 15 0 0 1 3.62-.64 3.5 3.5 0 0 0 3.26-4.88c-.29-.75-.18-1.17.34-1.58.44-.35 1.15-.36 1.38.08.43.86 1.9 1.13 1.48 2.42-.18.57-.5 1.17-.92 1.58-1.7 1.62-1.84 2.85.49 4.08 1.82.97 1.52 3 1.08 4.45-2 6.62-4.97 12.57-11.12 16.56-1.89 1.23-2.75-.03-3.96-.41-1.94-.6-3.76-1.7-4.2 1.59-.05.37-.17 1.78-1.54.98-.99-.57-1.64-1.2-1.57-2.34.02-.27.27-.95.8-.51 1.24 1.05 1.12-.1 1.46-.77.6-1.17-.48-1.46-1.01-1.82-3.28-2.26-6.01-4.9-6.8-9.01-.74-3.93 2.38-7.84 7.25-7.82zm13.2-.22c-2.7.3-4.4 1.21-5.67 2.66-1.28 1.47-2.52 1.48-4.24.97-1.5-.46-3.02-1.34-4.72-.9-3.98 1.03-5.24 5.74-2.56 9.38 1.82 2.46 4.56 3.62 7.04 5.16q4.9 3.02 8.45-1.72c.3-.41.65-.8.93-1.22a40 40 0 0 0 5.15-10.02c.53-1.62-.14-2.76-1.54-3.61-1.73-1.05-2.09.68-2.81 1.44-.9.94-1.43 2.25-3.28 2.8zm24.7 46.6a21 21 0 0 1 7.84.75c1.08.35 2.16 1.1 2.13 2.36-.03 1.19-1.15 1.2-2.1 1.18-12.96-.26-25.33 2.97-37.68 6.33-.72.2-1.54 1.08-2.04-.08-.4-.91.44-1.46 1.1-1.98 5.18-4.1 11.33-5.97 17.63-7.27 4.27-.88 8.62-1.56 13.12-1.3zm-70.1-437c3.52.64 6.75 3.02 9.84 5.5a21 21 0 0 1 4.8 5.17c.67 1.06.71 2.1.58 3.22-.12 1.04-1.11 1.25-1.48.59-3.13-5.59-9.27-7.07-13.98-10.49-.41-.3-.92-.49-1.28-.84-.6-.6-1.86-.67-1.62-1.94.17-.9.92-1.23 3.14-1.22zm22.16 3.7c-3.68-1.74-7.5-2.77-11.07-4.43q-1.66-.78-1.34-2.47c.23-1.25 1-2 2.35-1.85.89.1 1.79-.04 2.66.48 3.32 1.98 5.6 4.86 7.4 8.28m7.29-20.37c-3.44 1.01-6.92-.06-10.22.97-.47.15-.8-.1-.82-.58-.03-1-.38-2.1.36-2.94.77-.88 1.84-1.44 3-1.15 2.79.68 5.3 2 7.67 3.69zm-94.93 47.72c3.61-3 8.36-2.51 12.35-4.34-3.5 3.2-7.86 3.99-12.35 4.34m-165.38 62.53c-3.07-1.4-7 .3-10.7-1.27-2.01-.85-4.3.99-6.64-.3-.75-.41-1.79-2.53-3.3-.83-.18-.23-.47-.45-.51-.7-.03-.2.27-.65.39-.64 1.1.12 1.85-1.06 3.18-.52 1.62.66 3.43.61 5.24.49 1.25-.09 2.5-.47 3.85.88 1.42 1.44 3.67-.51 5.77.13 1.79.56 3.64 2 5.8 1 .31-.15.77.27.73.72-.02.26-.29.65-.5.7-.9.15-1.82.2-3.32.34zm404.3-2.99c1.69 2.73.49 5.64.13 8.31a109 109 0 0 0-1.08 18.35c.2 6 .6 12 2.28 17.82a5.3 5.3 0 0 1 0 2.74c-4.9-5.83-7.5-43.21-1.32-47.22zm-322.2-63.28c-.76 2.86-2.33 3.65-4.86 4.49-3.9 1.28-8.14.92-11.78 2.89-1.56.84-3.15.14-4.74.36-4.36.62-8.55 2.71-13.12 1.77-.18-.04-.41-.15-.55-.08-.81.4-1.73 1.9-2.47.43-.76-1.5 1.1-1.82 1.96-2.56a6.7 6.7 0 0 1 5.2-1.85c.75.07 1.37-.3 2.09-.7 1.23-.69 2.62-1.85 4.55-.7 1.64 1 2.99-1.63 4.9-1.23 3.23.68 6.34-.93 9.29-1.53 3.11-.64 6.26-.3 9.54-1.29zm222.68 501.52c1.5-1.99 3.1-3.91 4.49-5.98 4.46-6.62 6.26-14.16 7.41-21.9.36-2.43.78-4.84 1.15-7.26.12-.81.12-2.05.98-2.02 1.02.05 1.28 1.24 1.65 2.26 1.19 3.3.36 6.58-.22 9.71-1.61 8.66-5.13 16.48-11.42 22.88-1.09 1.1-2.19 2.09-4.04 2.32zm-130.62-574.8c.49 1.75.26 2.8-1.8 3.3-2.43.6-4.65.8-7-.41a6.34 6.34 0 0 1-3.47-6.75c.23-1.55.86-2.25 2.33-2.14 1.77.13 1.72 1.84 1.62 2.8-.18 1.71-.3 3.1 1.47 4.03 2.18 1.13 3.25 1.05 6.84-.83zm-8.06-14.7c-.52.08-1.12-.26-1.56-.89-.49-.7.18-1.18.49-1.59.66-.88 1.35-2 2.29-2.35 1.54-.58 3.44-.87 4.33 1.16.98 2.23-1.35 2.27-2.39 2.98-.76.51-1.91.45-3.16.7zm19.26 13c-1.46.08-2.84.44-2.93-1.21-.12-2.46 2.09-2.55 3.62-2.82 1.73-.3 2.3 1.69 2.27 2.63-.03 2.24-2.22.8-2.96 1.4M647.22 92.9c.06 4.53-3.3 7.87-7.91 7.88-4.11 0-7.92-3.26-8.05-6.89-.15-4.2 3.6-8.6 7.35-8.63 5.45-.02 8.55 2.73 8.61 7.64m-5.14-4.89c-1.01 1.36-1.84 2.9-3.06 4-2.75 2.52.11 2.4 1.3 3.28 1.44 1.08 2.32-.18 3.32-.64 1.22-.57.7-1.83.45-2.68-.4-1.4-.84-2.89-2.02-3.96zM600.25 763.3c.02-3.71 3.13-10.03 4.44-9.24 2.32 1.4 5.3-1.03 7.26 1.76 1.35 1.92 2.2 4 2.3 6.16.2 4.25-3.64 7.5-8.38 7.47-4.25-.02-5.64-1.55-5.62-6.14zm6.59 4.16c4.7-.01 5.73-1.67 4.13-6.7-1.1-3.43-2.94-4.81-5.64-4.2-2.05.46-4 3.83-3.77 6.5.23 2.7 2.28 4.41 5.29 4.4zm-65.56 37.86c-1.38-4.04-5.02-2.17-7.5-3.31.9-2.14 3.72-2.78 3.73-5.33 0-.14.6-.45.68-.38 1.73 1.26 3.9.92 5.75 1.6 1.24.44.76 1.76-.11 2.06-2.6.9-3.64 2.36-2.56 5.35z"/></svg>