<svg xmlns="http://www.w3.org/2000/svg" width="1080" height="1080" fill="none" viewBox="0 0 1080 1080"><path fill="#fff" d="m804.92 1014.04.01.96h-646.5l.11-1.08c2.05.05 4.1.12 6.15.12h633.58q2.85-.02 5.68-.08z"/><path fill="#fff" d="M803.95 1013.97c-1.9.02-3.79.08-5.68.08H164.7c-2.05 0-4.1-.07-6.15-.12l.55-8.33-.58-1.1c-.95-3.69-1-7.45-.8-11.23.1-.1.3-.26.28-.3-.12-.24-.3-.46-.45-.69l-.32-4.67.2-.91-.57-2.04-.36-5.6-.13-1.01-.12-6.52a.9.9 0 0 0 .2-.88l-.41-2.08-.24-7.48c.1-.1.29-.25.27-.31q-.17-.35-.4-.7l.26-10.36-.13-1.97 1.88-5.43.47-1.21c.1-5.35.07-10.7.38-16.03.22-3.8.93-7.6 1.45-11.38.08-.57.61-1.3.4-1.66-1.78-3.17.42-4.93 2.32-6.72 2.83-2.66 5.87-5.1 8.62-7.84 2.54-2.52 4.77-5.33 7.2-7.94 1.03-1.1 2.25-2.04 3-2.71.92-3.86 1.85-7.38 2.57-10.94 1.01-4.97 1.83-9.97 2.76-14.96.7-3.72 1.17-7.5 2.2-11.13 2.18-7.64 4.89-15.14 6.94-22.82 2.5-9.32 4.67-18.75 6.77-28.18 1.26-5.7 1.66-11.6 3.25-17.2 2.46-8.64 4.52-17.55 9.8-25.1 3.19-4.56 6.37-9.22 12.9-9.53 1.05-.05 2.2-.96 2.95-2.8 1.96-4.8 3.88-9.79 8.03-13.48 4.06-3.6 7.69-7.7 11.65-11.43a14 14 0 0 1 4.6-2.8c6.87-2.42 13.7-5.07 21.4-5.47 1.42-5.86 2.66-11.77 4.3-17.57 1.62-5.67 3.65-11.23 5.64-17.26a95 95 0 0 0-16.85 5.98c-4.75 2.15-9.09 2.67-13.34-1.27-1.03-.96-3.19-.7-4.83-1.02-2.74-1.82-5.73-.55-8.62-.72-3.17.9-6.38 1.72-9.48 2.82-.85.3-1.44 1.45-2.04 2.28-1.7 2.38-3.35 4.8-5.38 7.73-1.78-2.11-3.5-3.67-4.55-5.6-.52-.96-.27-3.1.48-3.84 2.43-2.38 5.04-4.79 7.99-6.43 4.71-2.61 9.82-4.21 15.43-3.78 6.7.53 13.4.73 20.1 1.07 2.26.97 4.5 2.07 6.62-.26.9-.85 1.67-1.9 2.7-2.53 6.22-3.84 8.14-6.2 11.73-12.6 3.06-5.47 4.4-11.38 5.68-17.38 1.08-5.06 2.45-10.07 3.63-15.11.35-1.55.4-2.9-1.65-3.7-3-1.18-5.7-3.12-8.7-4.24-6.37-2.38-8.81-5.94-7.46-12.42a463 463 0 0 1 6.11-26.38c.95-3.48 3.2-6.6 4.8-9.91 1.31-2.72 3.27-4.1 6.73-3.22-.06 3.8 2.32 5.38 5.95 6.55a115 115 0 0 0 21.02 4.69c4.7.6 9.32 1.82 13.99 2.66 1.22.22 2.51.02 3.77.08 7.39.37 14.8.53 21.83 3.32 1.4.55 3.06.44 4.6.63q.5 1.63 1.04 3.26.42 1.18.87 2.34c3.59 2.95 8.16 3.3 12.37 4.14 5.01 1 9.76 2.41 14.19 4.86 2.56 1.43 5.6 1.69 7.7 4.46 1.23 1.62 4.37 1.94 6.74 2.5 7.6 1.78 15.35 2.73 22.97 4.57 3.65.89 6.18 3.2 9.27 4.68 6.9 3.32 14.08 3.45 21.37 2.92 1.34-.1 2.43-.33 3.87.04 3.48.91 7.24-1.14 9.23-4.73 2.2-3.98 4.23-8.04 6.19-12.14.31-.65-.12-1.65-.25-2.85-1.29.1-2.5.07-3.62.35-3.42.84-5.86-.07-6.62-3.3-.53-2.25-1.57-2.69-3.54-2.78-3-.15-5.7.56-8.42 1.8a122 122 0 0 1-10.3 3.93c-1.72.59-3.53.88-5.19 1.28-2.59-4.05-6.22-6.2-10.11-7.6-6.27-2.28-12.74-4.01-19.1-6.03a4 4 0 0 1-1.9-1.16c-2.72-3.48-6.05-6.08-10.35-7.07l.74-4.23c-4.98-3.33-10.43-3.48-15.92-3.62-2.6-.07-5.17-.65-7.76-.98l-9.67-.88-5.53-.07-7.74-.83c-1.75-.4-3.66-.5-5.22-1.27-4.65-2.3-9.56-3.47-14.56-4.69-2.8-.68-5.48-1.84-8.46-1.73-.78-.27-1.58-.8-2.37-.8-4.28-.05-8.57.04-12.85.07l-5.71.48c-1.27-4.4-2.96-8.57-3.6-12.9-.73-5.02.62-9.97 4.46-13.52 3.8-3.53 4.74-8.06 5.85-12.7.38-1.6 1.28-3.1 1.7-4.7.5-1.92 1.31-4.01.98-5.84-1.28-7.11-2.72-14.13-6.95-20.38-2.72-4.02-4.14-8.9-6.32-13.31-1.02-2.08-2.15-4.27-3.77-5.84-3.02-2.93-4.46-6.46-5.43-10.38-.2-.81-.94-1.5-1.43-2.25q-3.6-2.52-7.2-.04c-2.47.09-4.9 1.03-7.38-.42-2.32-1.34-3.99-3.2-2.83-5.4.9-1.74.3-2.65-.3-3.76-4.2-7.74-5.78-16.18-7.6-24.7-1.8-8.46-1.75-16.88-2.06-25.36l-.6-1.1c-.63-4.98-1.45-9.96-.74-15l-.1-1.98 1.83-10.28c1.44-3.22 1.2-6.46.08-9.7-.38-1.13-.84-2.24-1.12-3.39q-.56-2.23-.79-4.51c-.1-1.06-.33-2.66.23-3.13 2.24-1.88 1.64-3.74.62-5.85-.23-.48.06-1.22.11-1.85l.25-1.06-.1-11.24-.16-2-.24-1.82-.13-1.01-.14-3.68-.55-1.09c.24-2.16-.33-3.94-2.14-5.34-2.94-2.25-5.8-4.6-8.7-6.93-.25-.2-.53-.36-.73-.6-3.65-4.24-7.48-8.35-10.89-12.8-2.27-2.94-1.88-4.16.55-6.97 3.14-3.65 6.08-7.5 9.38-11 2.57-2.72 5.58-5 8.35-7.52.9-.82 1.65-1.81 2.36-2.6l-7.08-12.3c4.73-6.26 7.27-13.33 8.67-20.69.62-3.24 1.73-6.15 2.87-9.13.7-1.83 1.7-3.08 3.88-3.5 2.14-.43 3.64-1.7 4.23-4.23 2.5-10.68 9.18-19.03 15.76-27.42 3.14-4 6.03-8.2 9.17-12.2 4.68-5.98 9.4-11.93 14.26-17.77 4.39-5.26 9-10.33 13.49-15.52.38-.44.79-1.06.8-1.6 0-4.4 3.51-6.46 6.15-8.95 2.93-2.76 6.3-5.07 9.39-7.68 1.72-1.45 3.56-2.92 4.84-4.74 3.42-4.91 8.61-7.27 13.58-9.92 3.22-1.7 6.7-2.89 9.93-4.6 5.97-3.14 11.76-6.65 17.77-9.73 7.04-3.6 14.26-6.7 22.15-8.13 3.82-.7 7.41-2.57 11.18-3.69 6.86-2.01 13.77-3.84 20.65-5.75q1.1-.3 2.16-.72c4.41-1.76 8.85-3.41 13.74-3.1q4.43-.4 8.87-.78c8.45-.37 16.68-2.14 24.87-4.08 4.84-1.16 9.67-2.13 14.68-1.55a27.7 27.7 0 0 0 14.17.09l4.93-.44c5.23 1.23 10.39 2.93 15.86 2.88l4.86-.03 1.7.02 2.1-.68c12.65-.93 24.7 1.96 36.63 5.66l6.97.73c11.1 1.6 22.18 3.24 33.03 6.29 10.9 3.06 21.32 7.22 31.63 11.83 9.22 4.12 18.46 8.29 27.95 11.68 4.26 1.52 8.85 2 12.95 4.34 5.85 3.33 12.04 6.06 17.88 9.4 7.55 4.34 15.13 8.69 22.26 13.65a197 197 0 0 1 20.36 16.13c8.5 7.77 16.46 16.1 24.5 24.34a45 45 0 0 1 5.58 7.47c3.07 4.89 4.95 6.53 11.87 9.04l4.2-5.86c4.04 3.2 7.2 6.27 10.85 8.49 8.34 5.06 14.65 12.45 22.18 18.42 3.07 2.43 6.76 4.1 10.17 6.1 2.24 1.14 4.46 1.54 6.58-.25l11.8-2.7c4.27-1 8.7-1.44 12.26-4.5 2.03-1.74 4.36-1.38 6.25.24 3.15 2.69 5.98 5.65 4.43 11.02-1.49-.4-3.1-.6-4.52-1.26-2.72-1.26-5.05-1.88-8.08-.15-2.38 1.37-5.51 1.51-8.34 1.98-5.3.88-10.65 1.6-16.77 2.49 1.55 1.18 2.78 2.09 3.98 3.03 1.42 1.13 3.25 2.03 4.17 3.48 4.14 6.54 8.27 13.11 11.9 19.94 2.35 4.4 3.8 9.27 5.68 13.92s3.82 9.28 5.66 13.95c.96 2.43 1.77 4.92 2.6 7.4q3.11 9.38 6.15 18.78c2 6.2 4.05 12.36 5.83 18.61 1.08 3.8 1.73 7.73 2.44 11.63.43 2.35-.7 3.8-3.06 4.33-.45.1-.94-.02-1.41 0-7.67.5-13.43 5.04-18.68 9.78-3.96 3.57-6.66 8.5-10.01 12.76-2.5 3.18-4.89 6.49-7.74 9.32a265 265 0 0 0-21.65 24.5c-.9 1.15-2.42 1.83-3.12 2.34-.52 7.98-.92 15.49-1.56 22.97-.13 1.61-1.11 3.14-1.67 4.72q-.58 1.74-1.14 3.5l-.5 1.09-.05 3.58.67.83c5.2 1.65 10.32 3.57 15.6 4.87 5.34 1.31 10.89 1.83 16.27 3.02a81 81 0 0 0 17.97 1.89c3.52-.02 7.06.62 10.6.96 1.62.24 3.25.58 4.89.66.28.02.6-1.07.9-1.64l.09-.03 6.5-.79c1.08-.06 2.17-.05 3.25-.2 2.1-.26 3 .47 3.36 2.7.5 3.06 1.58 6.03 2.5 9.4-4.4 1.69-8.07-.96-11.9-2.68l-6.68-.79-12.19-2.1-6.9-.7-7.44-.08-2.76-1.07c-2.38-1.82-5.07-.6-7.61-.79-9.05-2.3-18.1-4.58-27.13-6.94-3-.8-5.55-.05-5.83 2.85-.41 4.35-2.65 7-5.94 9.31-1.26.9-2.27 2.16-3.37 3.3-.43.43-1.22 1.08-1.11 1.39 1.2 3.77-2.44 7.06-1.04 10.83.2.54-.06 1.24-.1 1.87l-2.02.82q-.48.49-.97.96l-1.32 3.1-3.36-.94c-.85.18-1.88.12-2.5.6-1.88 1.46-3.6 3.13-5.9 5.18 0 .32-.07 1.42 0 2.5.16 2.28-.74 3.77-2.82 4.88-2.43 1.3-4.66 2.99-6.98 4.51.16.99.24 1.88.44 2.75 1.2 5 1.1 5.43-3.3 7.56-2.19 1.06-4.59 1.7-7.31 2.68.16 4.69.85 9.25 4.08 13.46a26 26 0 0 1 4.43 9.51c.5 2.06 1.01 3.79 2.44 4.88-.55 2.26-1.4 4.16-1.39 6.06.01 2.49-.13 4.3-3.17 4.63-.64.07-1.25 1.24-1.7 2-2.49 4.28-5.14 8.48-7.34 12.9-4.32 8.72-10.31 16.36-15.42 24.56-5.23 8.4-9.7 17.3-14.15 26.16A62 62 0 0 1 735.48 625c-3.07 2.94-6.1 5.94-8.96 9.08-1.38 1.51-4.4 2.43-2.54 5.68.26.45-1.52 2.06-2.26 3.01 2.24.85 5.13 1.9 7.96 3.07.94.39 2.22.95 2.53 1.75 1.56 4 4.76 6.76 7.11 10.14 1.45 2.07 2.1 4.7 3.21 7.02.38.8 1.11 1.44 1.69 2.16q2.06.32 4.1.66c1.08 1.66 2.32 3.24 3.19 5 2 4.04 3.84 8.16 5.71 12.26 1.03 2.27.63 4.49-1.3 5.91a25 25 0 0 1-11.83 4.64c-1.83-3.5-4.46-6.03-4.84-10.1-.2-2.17-2.6-4.1-3.92-6.2-3.52-5.56-3.29-5.86.73-10.58-3.39-4.08-6.9-8.1-10.19-12.31-3.35-4.3-8.3-5.66-13.03-7.33-1.35-.48-3.24.55-4.88.9l-5.38 1.25c.27-1.94.53-3.12.54-4.3 0-.3-.79-.61-1.22-.92-3.22-1.05-6.44-1.63-9.67-.07l-3.67.01a26.6 26.6 0 0 0-14.3-.01c-.62.05-1.29.27-1.86.13-10.91-2.83-22.23-4.14-32.46-9.5-5.39-2.83-11.19-4.93-16.9-7.13-2.19-.84-4.48-.85-6.56 1.05-3.54 3.25-7.42 6.11-10.92 9.4-2.37 2.2-1.51 5.14 1.58 6.3 5.97 2.24 12.13 4.05 17.92 6.69 9.47 4.3 18.9 8.75 26.86 15.75a437 437 0 0 0 17.48 14.58c2 1.59 4.54 2.5 6.84 3.73l10.47.74 8.14.24 6.17.6c2.85.61 5.68 1.34 8.55 1.8 4.09.66 6.86 2.77 8.66 6.53 1.88 3.89 4.11 7.6 6.22 11.37 2.2 3.93 4.58 7.77 6.56 11.8a8 8 0 0 1 .67 5.15c-.51 1.95-2.45 2.4-4.57 2.4-4.2 0-8.5-.65-12.55 1.09-8.49 3.64-16.99 7.27-25.44 11-5.6 2.46-11.2 4.95-16.67 7.7-2.01 1-3.67 2.74-5.46 4.18-1.3 1.05-2.56 2.16-3.88 3.29.27 1.86.36 3.85.89 5.74a8 8 0 0 0 2.03 3.52c2.57 2.5 5.41 4.7 8.02 7.16a1574 1574 0 0 1 19.03 18.27c1.66 1.62 2.98 3.6 4.62 5.27 1.51 1.52 1.85 4.68 5.13 3.9 1.72 2.13 3.79 4.07 5.1 6.43a81 81 0 0 1 5.2 11.54c1.72 4.8 2.17 9.86 1.84 14.95-.11.1-.32.2-.31.28.02.25.13.5.2.75l-.98 12.2-.1 1.07.05 3.4-.43 3.2-.64 9.35.01 1.09.06 2.7.05 2.02.07 1.79c-.1.1-.32.25-.29.3.1.26.27.48.4.72.31 1.8.74 3.6.9 5.43.17 1.87.73 4.1-.02 5.58-1.75 3.46-.07 6.33 1.03 9.13 2.15 5.47 4.78 10.76 7.39 16.05a7 7 0 0 0 2.77 2.78c5.5 3.02 11.12 5.8 16.6 8.83 5.54 3.07 11.57 3.83 17.73 4.2 2.58.36 5.15.8 7.73 1 .52.05 1.09-.71 1.64-1.11.28-1.3.17-2.51 1.9-3.33a37 37 0 0 1 14.25-3.35l2.1-.03 1.69.02 3.78.01c2.61 0 5.33 1.08 7.78-.74 1.2-.14 2.57.03 3.58-.49 3.92-1.98 5.62-1.35 6.89 2.82.07.24.42.4.65.58l.37.9-.04 4.65-.17 1c-1.4 2.99-3.34 5.8-2.82 9.37q.3.55.57 1.12l-.04 5.52-.54 1.07c-.26.37-.46.82-.8 1.1-3.94 3.2-4.34 6.77-2.68 11.67 1.45 4.23 1.03 9.08 1.43 13.67-.13.08-.35.2-.34.27.03.25.15.49.24.74l-.15 6.54-.54 1.07-1.78 13.13.11 1.99.05 9.37-.27 2.81.47 1.07.3 8.44-.86.89zm-74.78-388.04 2.18-1.62 1.26-2.38-.78-.38-1.09 2.13-1.52 2.3-.3 1.14zm11.4-17.95c-2.06.98-2.38 2.8-2.93 4.51q.52.25 1.03.46zl.84-1.16q-.3-.15-.61-.27zM269.29 741.45c.58-.51 1.3-.93 1.68-1.56 1.3-2.13 1.84-4.6 3.64-6.6 1.06-1.16.25-3.27-1.42-4.42-1.43-.98-2.76-1.22-4.16.08-.8.73-1.74 1.3-2.58 1.98-3.95 3.17-7.43 6.8-11.38 11.35h6.46zm473.63-137.59c-.26-.07-.6-.29-.76-.2-.21.14-.28.5-.42.76.23.07.55.27.67.18.23-.15.34-.48.5-.74z"/><path fill="#fff" d="m921 391.28.14 19.73-.1 1.16.04 3.55-.1 1.2c-.55 3.42-.55 7.08-1.84 10.2-.93 2.28-3.39 4.1-5.52 5.65-1.1.79-2.55-.04-3.49-1.45-2-3-2.53-6.27-2.26-9.76l.12-1.02c1.4-6.9 2.94-13.8 4.18-20.75.77-4.24 1.1-8.55 1.62-12.84l.98-8.22 4.46.36 1.24 11.1zM903.87 280.3c-.73.86-1.45 2.51-2.57 2.83-1.9.55-2.23-1.08-2.8-2.78-1.81-5.47-4.02-10.8-6.15-16.17-2.12-5.33-4.23-10.68-6.56-15.92-1.25-2.81-2.93-5.43-4.44-8.13-1.08-1.91-1.44-3.75.3-5.52 1.73-1.78 6.29-1.9 8.28-.4 2.96 2.22 3.97 5.54 4.96 8.77a218 218 0 0 1 4.03 15.45c1.3 5.73 2.32 11.53 3.53 17.3.28 1.32.8 2.6 1.42 4.57m-43.1 117.54c1.27-2.8 2.25-5.77 3.88-8.35 5.5-8.75 11.24-17.37 16.9-26.03.14-.2.5-.27 1.7-.92-6.86 12.68-15.24 23.36-21.71 35.2a1.6 1.6 0 0 0-.78.1zm-18.7 23.74c5.43-.02 8.4 4.46 13.03 5.9-4.79 3.76-6.91 3.66-13.03-.46zm60.94-57.64c.46 3.97-2.8 4.3-5.27 5.38l.01.05c.96-1.83 3.66-2.09 3.76-4.82.15-4.08-2.45-8.07-6.53-9.12-1.09-.27-2.24-.3-3.94-.5 7.25-1.5 10.28.64 11.76 7.73zm14.22-14.32.1 1.78-1.58.04c-2.14-4.17-2.11-8.64-1.71-13.14l1.6-.07 1.14 10.17zm-20.38 83.01c-4.48.1-4.7-.05-5.7-3.76 4.42-1.18 4.48-1.14 5.7 3.76m-18.61-32.84-7.71 3.26-.44-1 7.54-3.38zM314.62 557.98c4.28-.05 8.57-.12 12.85-.08.8 0 1.58.52 2.37.8-4.21.03-8.43.1-12.64.04-.86 0-1.72-.5-2.58-.75zm359.64 87.7a26.6 26.6 0 0 1 14.3.03zM523.8 66.8a28 28 0 0 1-14.17-.1l12.24-.26zm284.8 405.98 3.35.95 1.33-3.1 1.9 2.28c-3.29 2.38-4.16 2.39-6.59-.13"/><path fill="#fff" d="M860.77 397.85a2 2 0 0 1 .79-.1l-.78 4.87q.03.4.1.8c-2.85-2.15-2.86-2.53-.1-5.58zM686.7 687.43l-10.48-.75c3.5.17 7.1-1.03 10.48.75M892 374.18c.96-2.75 2.27-5.1 5.76-4.8l-.01-.05-5.69 4.9zm-199.78 271.5c3.23-1.54 6.46-.96 9.68.09zm76.58 276.43c-.55.39-1.13 1.16-1.63 1.12-2.59-.22-5.16-.66-7.74-1.01zM371.34 567.28l9.67.88zM267.49 358.9c1.13 3.25 1.36 6.48-.08 9.7zm202.6-286.56-8.87.78zM243.63 679.13c2.88.16 5.87-1.1 8.61.72zm43.57-222.54q3.6-2.46 7.2.04z"/><path fill="#fff" d="M860.89 403.43a6 6 0 0 1-.1-.8h6.92l.03.8h-6.86zM358.06 566.38l7.75.83zm442.25 348.3c-2.44 1.82-5.15.73-7.78.74q.06-.35.16-.68zm60.49-468.43c2.54.18 5.23-1.04 7.61.78zm10.37 1.85 7.45.08q.06.38.17.74zm46.33-94.7v6.42l-.78.02-.39-5.46.18-1zM523.8 66.82q-.96-.19-1.93-.36c2.28-.7 4.56-1.5 6.86-.09zM369.45 589.14q-.46-1.16-.88-2.34-.54-1.62-1.04-3.26c.62.46 1.68.84 1.8 1.4.27 1.35.1 2.79.12 4.2m489.4-373.13c-2.13 1.79-4.34 1.4-6.58.26zm48.32 226.53-6.49.79c1.95-2.02 4.31-.65 6.5-.79m-6.6.82c-.3.57-.63 1.65-.9 1.64-1.64-.08-3.26-.41-4.9-.66l5.81-1z"/><path fill="#fff" d="M878.8 448.92a4 4 0 0 1-.18-.74l6.9.69zm-606 224.2c-2.13 2.32-4.37 1.22-6.62.25zM701 688.25l-6.17-.6zM549.46 69.21l-4.86.04c1.61-1.21 3.23-1.25 4.86-.04M792.7 914.75a5 5 0 0 0-.16.67l-3.78-.02zm-44.4-247.22-4.1-.66zM917.5 353.4q-.5 0-.99-.02-.38.04-.76-.1v-1.84l1.59-.04zm-113.46 650.17.27-2.82.47 3.05zm88.02-629.34-.2 1.7-.54-.16.69-1.6zm-87.8 617.16-.11-1.99zm-647.41-6.74.56 2.04q-.36-.13-.73-.24zm-.83-16.1.4 2.1-.72-.24zm759.62-630.33-1.6.07.48-.95zM713.04 870.2q-.23-.35-.4-.72c-.03-.05.18-.2.28-.3zm.72-24.56.1-1.08zm-1.01 17.04"/><path fill="#fff" d="M915.75 353.27q.37.15.76.1l-.18 1zm2.3 7.82.12.33-.26-.02zm-651.64 34.76.61 1.1zm-.27-72.82.13 1.02q-.24-.35-.42-.72c-.02-.05.2-.2.3-.3m-.7-4.77.55 1.09zM811.6 924.15l.16-1.01zm109.44-511.97.1-1.16zM155.64 960.1c.14.22.3.44.4.69.03.06-.17.2-.27.31q-.12-.32-.22-.65c-.03-.1.05-.23.08-.35zm650.98 8.56c-.08-.24-.2-.48-.24-.74 0-.07.22-.18.34-.27zm114.36-551.74.1-1.19zM155.7 970.4l.73.23a.8.8 0 0 1-.2.88zm.66 7.63.13 1.01c-.15-.23-.32-.45-.43-.7-.03-.05.18-.2.29-.31zm.33 8.4.72.25-.19.91zm.85 5.82c.15.23.33.45.45.69.02.04-.2.2-.29.3zm646.5 11.3.74.23q.16.51-.27.83zm-.1 10.4.86-.89.11.96zm-89.11-181.59c-.08-.25-.18-.5-.2-.75 0-.08.2-.19.3-.28zm-453.32-90.1 7.77-.82zm479.05-134.3-1.9 4.97-1.02-.46c.54-1.7.85-3.52 2.92-4.51m-9.82 15.69 1.09-2.12.78.38-1.26 2.38z"/><path fill="#fff" d="m731.36 624.3-2.18 1.63.06.05 1.52-2.3.6.64zm11.56-20.43c-.17.25-.28.58-.5.73-.13.09-.45-.11-.68-.18.13-.26.2-.62.42-.75.16-.1.5.12.76.2m-2.35 4.11.23-1.43.62.27z"/><path fill="#fff" d="m729.17 625.93-.25 1.18.31-1.14z"/><path fill="#000" d="M288.45 524.34c4.3-3.24 8.22-3.17 11.51 1.97.88-6.08.97-6.19 5.85-2.73 2.96 2.1 4.9-.52 7.18-1.2 1.83-.55.52-2.45.58-3.75q.01-.24-.07-.47a24 24 0 0 1-.88-7.95c.11-3.36-3.48-3.53-4.75-5.98-5.4-10.5-11.38-20.7-16.43-31.38-1.73-3.65-4.6-5.9-7.48-8.3-.92-.78-1.94-.73-3.1-.62-3.37.34-6.18-1.34-8.55-3.35-1.89-1.6-3.4-3.76-2.09-6.64.85-1.86 0-3.6-.62-5.37-3.75-10.54-6.83-21.26-8.44-32.36-1-6.9-1.02-13.81.17-20.69.34-1.94.3-3.64-.82-5.4-1.04-1.62-1.54-3.36.36-5.02 1.24-1.08 1.28-2.9 1.4-4.41.49-5.96.7-11.95 1.15-17.92.13-1.73-.4-2.47-2.09-2.97-4.26-1.25-4.39-1.34-4.1-6.28.47-8.33.53-16.77 2.64-24.84 2.12-8.16-1.71-13.44-7.64-17.43a45 45 0 0 1-11.24-10.6 43 43 0 0 0-3.08-3.58c-2.93-3.15-3.33-5.81-.05-8.76 4.02-3.62 6.4-8.47 10.25-12.17 3.06-2.94 5.89-6.12 9-9.39-.1-.82-1.22-.87-1.96-1.17-1.73-.71-2.18-1.91-2.25-3.7-.22-5.79 1.3-11.24 3.08-16.63 6.49-19.78 16.4-37.77 28.68-54.54 10.06-13.73 19.83-27.66 31.32-40.27 2.17-2.4 3.35-5.46 5.25-8 3.4-4.56 7.58-8.47 11.85-12.19 19.93-17.32 42.48-30.35 66.83-40.42 27.86-11.51 56.88-18.44 86.68-22.2a341 341 0 0 1 56.61-2.34c50.37 2.05 98.92 12.35 145.07 33.04a375 375 0 0 1 76.8 45.92c12.24 9.5 23.29 20.27 33.7 31.72q1.77 1.91 3.55 3.79c1.09 1.15 2 2.56 3.77.63.9-.96 2.06.1 2.98.63 13.68 7.7 26.17 16.98 36.58 28.81 1.9 2.15 3.38 2.51 6 1.88 6.74-1.64 13.57-2.86 20.34-4.3a58 58 0 0 0 8.58-2.53c8.87-3.36 16.69.42 20.06 9.41.43 1.17.35 2.66 1.42 3.43 2.6 1.88 1.93 3.84.6 6.1-1.37 2.31-2.92 3.69-5.72 2.44-.2-.08-.56.17-.86.26-.67 1.25.36 2.09.76 3.03 5.04 11.9 10.13 23.76 15.18 35.65 3.18 7.47 4.44 15.4 5.5 23.38.46 3.58.77 7.2 1.11 10.8.4 4.15.08 8.18-2.2 11.84-.89 1.44-1.36 2.82.17 4.2.43.39.85 1.18.74 1.66-1.07 4.98 2.76 6.63 5.9 8.6 1.28.81 1.56 1.86 1.77 3.1 1.6 9.15 2.96 18.33 3.81 27.57 1.89 20.25 2.63 40.56 2.96 60.9.14 9.28.36 18.59-1.77 27.76-.74 3.2-1.75 6.33-2.29 9.62-.48 2.94-3.54 4.64-5.81 6.38-1.9 1.45-4.24.35-6.26-.61-.85-.41-1.77-.77-2.5-1.34-7.89-6.2-17.12-7-26.51-6.16-12.28 1.09-24.2-.4-35.94-3.76a268 268 0 0 1-13.48-4.37c-1.58-.54-2.32-.69-3.02 1.36-1.02 3-4.22 3.59-6.88 4.38-1.73.51-2.54 1.24-2.96 3.03-.42 1.74.04 2.62 1.48 3.44 2.33 1.32 4.52 2.89 6.87 4.14 1.16.61 1.65 1.43 1.6 2.6-.06 1.32-1.12 1.82-2.2 2.14-.75.22-1.56.41-2.33.36-3.43-.22-6.78-.75-9.55 2.35-.8.9-2.88.68-4.47.98.05 1.73.87 3.07 1.46 4.48.43 1.01.84 1.91.38 3.12-.63 1.7-1.25 2.39-2.98 1.1-2.43-1.8-5.11-3.01-8.6-2.7.95 6.84-4.46 8.68-9.15 11.6 2.12 1.27 1.43 3.34 1.65 5.2.18 1.58.85 2.24 2.55 1.5 1.96-.85 3.77-1.9 6.24-.73 3 1.42 3.76 2.07 2.87 5.05-.3 1.02-.57 2.16-1.87 3.1.02-1.68 1.27-4.13-.46-4.41-1.97-.33-3.88-2.51-6.13-.78-.37.28-.85.53-1.29.56-4.13.22-7.67 1.24-9.98 5.22-.72 1.25-2.97.72-4.51.77-1.9.06-2.76.86-3.14 2.7-.7 3.37-1.03 6.4 2.16 8.92a25 25 0 0 1 5.12 5.55c.8 1.18 1.53 2.37 1.94 3.75.61 2.05.96 4.28-.94 5.63-1.95 1.4-3.57-.34-4.94-1.55-7.91-7-15.82-13.98-23.14-21.62-6.18-6.46-8.4-13.74-5.88-22.5a461 461 0 0 1 15.48-44.6c1.91-4.76 2.16-5.15-2.22-7.52-5.88-3.18-11.8-6.53-18.74-7.07-1.4-.1-2.81-.43-4.14-.9-4.55-1.6-9.16-2.13-13.92-1.13-1.38.28-2.78.59-4.18.67a7.1 7.1 0 0 1-6.8-4.79c-.4-1.32 1.72-4 4.25-5.07a22 22 0 0 1 6.42-1.46c7.77-.69 15.4.1 22.97 1.87.6.14 1.19.44 2.5-.16-7.34-2.48-14.17-4.77-21-7.09-1.55-.53-2.36.13-2.88 1.53-.44 1.15-1.54 2.2-2.5 1.42-2.55-2.09-4.75.63-7.17.17-1.5-.28-1.5 1.3-1.64 2.34-.2 1.43-.28 3-1.76 3.66a22 22 0 0 1-5.65 1.85c-1.86.27-2.15-1.97-3.27-2.95-1.3-1.15-2.33-2.18-4.28-.81-1.48 1.03-1.72 1.96-1.24 3.53.35 1.16 1.4 2.35.61 3.59a14 14 0 0 1-3.02 3.55c-1.7 1.3-6.45.6-8.42-1.03-.5-.41-.66-1.83-1.57-.74-1.7 2.02-3.76 1.6-5.55.72-2.06-1.01-3.59.3-6.22-.01 3.41 4.13 2.55 7.66.42 11.03-2.07 3.28-9.15 6.03-13.02 5.13-1.5-.35-2.9-1.23-4.7-.42.94 2.2 1.9 4.32 2.76 6.49.83 2.07 1.49 4.3.94 6.46-.67 2.62.85 3.95 2.7 3.77 3.33-.33 2.9 1.2 2.35 3.28-.15.56.66 1.06.2 1.73-1.65-.58-3.9.62-5.09-1.96-.43-.94-2.1-1.25-3.38-.35-.77.54-1.63.96-2.47 1.41-5.02 2.72-5.96 2.47-8.96-2.9-.28 1.63-.86 2.86-.6 3.87.98 3.94-1.4 5.29-4.43 6.31-1.03.34-2 .83-3.02 1.26.67 1.25 1.73.97 2.58 1.1 1.92.3 2.52 1.84 2.83 3.33.3 1.4-.93 2.21-2 2.92-2.82 1.85-6.06 2.6-9.18 3.67-.85.28-2.6-.64-2.3 1.34.26 1.67-1.85 3.73.72 5.01 2.27 1.14 3.6 3.07 4.4 5.32.86 2.4 3.38 2.62 5.02 3.8 3.6 2.58 4.13 6.1 4.65 9.82.1.72.26 1.69-.65 2.04-1.02.38-1.83-.23-2.46-.99-1.22-1.43-1.5-3.49-3.3-4.88-2.04 2.3-4.5 2.77-7.46 1.66-2.67-.99-4.91.08-6.93 2.5 1.13 1.37 3.21 1.93 3.31 4.45.1 2.46-.57 3.58-2.73 4.04-1.53.32-3.1.46-4.5 1.38.35.86.86 1.66 1 2.52.47 2.85-.2 3.62-3.13 3.15-2.29-.36-3.13.67-2.74 2.53 1.66 7.88-3.96 10.57-9.34 13.53-2.45 1.36-4.16 3.86-7.27 4.58.71 1.96 2.06 3.27 3.13 4.73 4.3 5.84 8.61 11.68 11.76 18.25.94 1.95 2.52 3.17 4.15 4.42 7.51 5.73 14.9 11.54 21.27 18.62 6.5 7.22 8.11 16.58 3.45 25.22-.6 1.1-1.44 2.13-1.78 3.29-1.2 4.14-1.13 4.09-5.5 4-4.55-.08-9.11.98-13.65-.14-.92-.22-1.88-.28-2.78-.54-3.4-1-3.73-1.68-2.26-5.02 1.82-4.1-.32-8.01-.52-12.02-.02-.4-.87-.86-1.41-1.13-4.68-2.36-8.78-5.54-12.9-8.99-5.2 4.55-11.2 7.55-17.46 10.18-3.21 1.36-5.36.6-7.63-1.5a63 63 0 0 1-15.93-22.61c-.48-1.16-.82-2.4-1.39-3.52-.36-.72-.47-1.94-1.87-1.57-1.07.29-1.53.87-1.51 2.02.05 3.04-1.16 5.5-3.9 7.4 3.71 3.34 3.55 7.1 1.11 11.02-.78 1.26-1.31 2.49.07 3.78.74.7.8 1.76.54 2.68-.34 1.13-.65 2.58-2.37.97-1.34-1.26-2.8-.62-4.37.06-2.34 1.01-3.3.06-3.36-2.53-.03-2.05 1.2-3.53 1.88-5.27.32-.83 1.1-1.7.27-2.6-.79-.84-1.73-1.42-2.91-.6s-1.58.68-2.29-.82c-1.08-2.3-4-2.1-6.03-3.2-.42-.22-1.06 0-1.05.52.08 4-3.52 3.3-5.63 4.23-1.88.82-2.77 1.58-2.5 3.76.27 2.32.24 4.72-.64 7-1.07 2.8-3.34 3.82-5.75 2.03-1.91-1.43-2.95-.39-4.04.61a7.36 7.36 0 0 0-.6 10.1c2.85 3.52 7.22 5 10.45 3.51 1.25-.57 2.03-1.32 1.71-2.92-.14-.68-1.78-.57-.76-1.57.24-.25.94-.2 1.35-.05.85.28 1.21 1.03 1.08 1.86a6 6 0 0 1-3.21 4.41c-3.1 1.71-6.43 1.7-9.64.76-3.6-1.07-6.73-3.31-7.8-7-1.33-4.6-4.93-6.46-8.34-8.8-.33.43-.66.7-.62.86 1.28 5.07 1.25 4.95-3.73 6.19-1.55.38-3.04.68-4.62.7-1.96.03-3.41.02-4.1-2.61-.79-3.02-4.49-4.26-5.64-7.35-.3-.8-1.55-.6-1.88.23-2.47 6.08-7.32 10.46-11.64 15.85 7.58 2.2 14.63 4.27 21.7 6.28a622 622 0 0 1 46.23 15.07c2.51.93 5.07 1.78 7.67 2.4 2.43.57 4.84.84 7.4-.17 2.9-1.16 4.07-.61 5.13 2.22 1.66 4.43 4.55 7.9 7.87 11.07 4.78 4.56 9.57 9.12 14.74 13.18 2.45-1.62 3.75-4.3 6.45-5.42 1.61-.67 1.95-2.4 2.16-3.97a953 953 0 0 0 1.59-13.07 105 105 0 0 1 4.36-20.77c.73-2.21.21-3.09-1.67-4-2.37-1.14-4.62-2.56-7.54-4.2 2.4-1.34 4.07-.98 5.8-.33 6.62 2.47 13.4 4.57 19.85 7.4 22.8 10 46.5 16.68 71.08 20.36 2.96.44 5.97.71 8.85 1.48 3.58.94 6.43-.01 9.12-2.33 8.17-7.01 15.66-14.67 21.56-23.7 5.84-8.97 11.37-18.12 17.01-27.15-.42-1.4-1.78-1.22-2.69-1.75-1.36-.8-2.81-1.54-3.73-2.84-1.06-1.51-2.56-3.16-1.46-5.13 1.18-2.11 3.27-1.37 5.11-.98.77.17 1.51.46 2.26.7q5.82 1.88 9.23-3.62c7.1-11.58 15.5-22.22 24-32.76 2.98-3.68 6.08-7.27 8.54-11.3 1.4-2.3 3.32-3.11 5.82-3.11 3.53 0 5.23 2.29 3.93 5.58a42 42 0 0 1-5.67 10.33c-16.48 21.38-29.37 45.16-44.86 67.19-5.37 7.62-11 14.99-17.61 21.57-.8.78-1.61 1.5-1.9 2.48a87 87 0 0 1 22.53 27.1c.76 1.41 1.22 2.8 3.3 2.63 1.26-.1 1.76 1.15 2.28 2.13a132 132 0 0 1 6.88 15.04c1.58 4.15.67 5.83-3.55 7.6a93 93 0 0 1-9.3 3.42c-1.95.57-3.32.16-4.58-1.36-4.57-5.47-8.3-11.49-11.72-17.71-.48-.87-.85-1.8-.35-2.68 1.44-2.53-.32-3.9-1.62-5.75-4.79-6.86-11.35-11.68-17.97-16.51-1.44-1.05-2.94-1.03-4.44-1.22-15.46-2.01-30.93-3.95-46.18-7.28a183 183 0 0 1-25.38-7.35c-2.42-.91-4.28-.9-6.44.72-3.6 2.7-7.58 3.3-11.75.99-1.18-.65-2.48-.47-3.36.77a43 43 0 0 0-1.57 2.36c-1.53 2.48-1.53 2.57 1.24 3.45a227 227 0 0 1 22.87 8.9c8.23 3.62 15.99 8.16 23.95 12.3 5.33 2.78 9.1 7.71 13.56 11.69a41 41 0 0 1 3.99 4.04 5 5 0 0 0 4.07 1.85c10.1.39 20.07 1.85 29.98 3.74a16 16 0 0 1 10.72 6.94 323 323 0 0 1 15.55 23.7c.87 1.49 2.06 2.77 3.08 4.17 1.71 2.32 1.25 3.9-1.45 4.88-.72.27-1.45.78-2.18.8-9.98.24-18.47 4.99-27.04 9.16-13.6 6.62-26.97 13.68-40.4 20.61-.76.4-1.86.48-2.27 1.85 5.66 4.56 11.37 9.22 17.14 13.78a315 315 0 0 1 18.95 16.39c1.93 1.8 4.7 3.33 3.76 7-.36 1.43 1.47 2.27 2.42 3.27 5.7 6 10.4 12.62 13.57 20.33 1.28 3.1 1.51 6 .14 9.11-1.86 4.2-2.8 8.67-3.93 13.1-1.06 4.11-.94 8.72-4.54 12.01-.94.86.04 2.71.27 4.07a1944 1944 0 0 0 4.1 22.25c.33 1.81.59 3.42-1.5 4.42-1.37.66-.9 1.8-.46 2.85 1.88 4.5 3.8 9 5.58 13.54.72 1.84 2.12 2.6 3.78 3.21 11 4.01 22.3 6.75 33.8 8.75 1.56.27 3.12.45 4.67.7 1.1.2 2.17.36 3.1-.56 2.1-2.1 4.83-1.68 7.48-2.08 11.37-1.7 22.94-.29 34.24-2.47 2.4-.46 3.35.47 3.35 2.58-.07 10.54.85 21.08-.35 31.62-.23 1.99-1.27 2.72-2.7 3.35-1.57.7-2.5 1.5-2.28 3.52a299 299 0 0 1 1.48 32.53c-.03 10.24-.06 20.48.6 30.71-.27.17-.51.47-.79.49-7.74.77-7.7.76-8.06-6.76-.86-17.16-1.81-34.3-2.65-51.46-.16-3.13-.03-6.27-.03-9.78-4.43.16-8.4 1.6-12.47 2.33-1.2.22-1.23 1.34-1.17 2.28q.47 8.02 1 16.03c.13 2.06 1.6 1.89 3.06 1.94 5.28.2 6.12 1.49 4.39 6.64-.4 1.2-.92 2.36-1.23 3.57-.47 1.8-1.2 3.26-3.3 3.48-1.15.12-2.24.34-1.98 1.95q.32 1.86 2.15 2.2.47.09.94.11c2.44.15 4.83.32 5.07 3.6.3 4.2-.83 7.1-4 8.08-2.3.71-2.42 2.02-2.3 3.85.2 3.3.17 6.64.6 9.9.26 1.91-.56 2.21-2 2.21-3.3.03-6.62-.02-9.93.04-1.7.03-2.55-.62-2.83-2.37-3.64-22.14-13.2-42.29-21.15-62.98-.96-2.5-1.93-4.97-2.45-7.63-.73-3.7-2.43-6.76-5.93-8.65-3.2-1.7-6.18-3.82-9.44-5.38-3.87-1.86-6.57-4.69-8.78-8.28-8.71-14.26-14.02-29.87-18.43-45.86-1.25-4.52-1.8-9.28-4.43-13.3.47-.94 3.04.9 2.1-1.92-2.68-8.06-5.18-16.18-7.7-24.3-1.02-3.3-2.3-6.61-2.74-10.02-.83-6.45-4.75-10.67-9.19-14.84-8.53-8-18-14.8-27.4-21.68-11.7-8.56-23.56-16.9-35.41-25.27-1.86-1.3-3.39-3.1-6.09-3.3-1.37-.1-1.67-2.6-3.28-3.54-3.12-1.8-5.99-4.04-8.93-6.08.2-1.37 1.24-1.35 2.12-1.43.82-.07 1.65-.06 1.63-1.17-.06-4.62 3.21-7.4 5.94-10.35 9.28-10.05 20.42-17.75 32.04-24.82.93-.57 1.96-1.06 2.74-1.8 2.46-2.34 3.56-2.48 5.87-.25 1.35 1.31 2.52 2.82 3.83 4.18.73.77 1.4 1.78 2.78 1.38.85-.82.07-1.39-.41-1.9-8.97-9.55-18.8-18.2-28.43-27.06a7.3 7.3 0 0 0-3.75-1.86c-11.47-2.1-22.7-5.2-34.06-7.8-12.46-2.86-22.8-9.4-31.9-18.14-2.74-2.63-5.1-5.6-5.93-9.45-.33-1.5-1.06-2.1-2.6-2.06-6.61.22-12.7-2.06-18.83-4.06-32.04-10.46-64.48-19.53-96.93-28.56-1.51-.42-3.09-.68-4.54-1.26-2.05-.83-3.9-.94-5.75.51-.71.55-1.68.9-2.59 1.08-2.67.57-4.08-.18-4.05-2.9.02-2.27-1.2-2.62-2.72-3.03-26-7.06-51.66-15.23-77.23-23.66-1.5-.5-3.05-.78-4.6-1.1-1.44-.31-2.8-.57-2.7-2.57.1-1.43-1.29-1.68-2.19-2.14-9.23-4.87-18.82-8.82-28.99-11.23a17.3 17.3 0 0 0-10.67.63c-.92.38-1.89.65-2 1.73-.1 1-.64 2.4.89 2.79 1.51.39 1.22-.98 1.38-1.8.16-.84.46-1.64 1.41-1.56.87.07 1.42.96 1.39 1.67-.18 3.5 2.37 4.46 4.88 5.39 7.12 2.64 13.8 6.15 20.4 9.83 3.83 2.15 8.4 2.22 12.4 3.97.81.36 1.64.67 3.3 1.35-5.84 1.17-10.22-.43-14.5-2.2-5.39-2.22-10.7-4.6-16.04-6.96a9 9 0 0 0-5.9-.54c-3.36.75-6.86.9-10.3 1.21-1.4.13-2.24.56-2.6 2.13-1.75 7.84-3.46 15.67-4.13 23.7-.17 1.99.47 2.8 2.27 3.36a58 58 0 0 1 18.59 10.04c1.25 1 2.77 1.44 4.26 1.98 3.08 1.1 6.15 2.28 8.98 4.04-1 1.28-1.89.27-2.76.02-1.5-.42-2.98-1.35-4.48-1.37-4.67-.03-4.41-1.21-5.78 3.9a439 439 0 0 1-8.44 28.58c.48-3.07.86-6.16 1.47-9.19 1.36-6.62 2.82-13.23 4.26-19.83q1.03-4.78-4.24-5.96c-.77 13.67-3.69 26.95-6.62 40.23-.8 3.57-.58 3.76 3.07 3.4 5.17-.5 10.36-.86 15.56-.77 1.1.02 2.33-.11 3.26.33 3.41 1.6 3.56 4.77.4 6.85a14 14 0 0 1-7.1 2.27c-5.15.23-9.8 2.23-14.38 4.36-5.28 2.45-7.88 7.06-9.59 12.3-2.26 6.93-3.22 14.12-4 21.32-.27 2.5-.44 4.98-.67 7.54 1.68-.14 1.87-1.6 2.5-2.56 5.03-7.63 10.13-15.23 14.98-22.97 2.46-3.93 5.62-5.39 10.24-5.19 15.6.67 31.1 2 46.34 5.5 11.2 2.59 22.1 6.17 33.1 9.5 3.91 1.18 7.8 2.69 11.92 2.72 2.05.02 3.04 3.02 5.5 1.44 1.7-1.09 3.7-1.75 5.56-2.6q5.16-2.34 10.3-4.7c.71-.33 1.79-.65 1.94-1.2.68-2.28.97-4.81 4-1.78.41.41.85-.1.98-.54.67-2.38 2.88-2.48 4.59-2.65 4.55-.47 9.14-.54 13.58.98 1.5.51 3.43.94 4 2.31 1.19 2.85 5.62 2.58 5.71 6.31 0 .23 1.06.5 1.65.61 9.42 1.7 18.01 5.68 26.52 9.77 26.95 12.97 52.22 28.62 74.58 48.62a312 312 0 0 1 47.18 52.73c17 24.1 33.32 48.63 47.27 74.62 3.8 7.06 8.24 12.86 14.62 17.82 20.2 15.68 33.15 36.8 43.18 59.94 4.83 11.13 9.5 22.3 11.74 34.32q.55 3.02.96 6.05c.4 2.8.18 3.06-2.4 3.01-2.08-.05-4.03-.68-6.26-.12-2.38.59-5.02.13-7.55.13-2.37 0-4.73.03-7.1 0-3.72-.05-3.74-.06-4.68-3.66-1.82-7-3.86-13.97-5.38-21.03-2.34-10.94-7.23-20.76-12.52-30.46-6.35-11.6-12.9-23.09-18.42-35.12-.86-1.86-1.87-3.7-2.33-5.67-.94-3.99-3.5-6.6-6.72-8.75a7319 7319 0 0 0-21.64-14.4c-.72-.48-1.54-1.46-2.4-.34-2.15 2.75-4.24 1.37-5.96-.26a218 218 0 0 1-9.9-10.14c-13.29-14.32-25.9-29.28-39.89-42.96a405 405 0 0 0-32.83-28.48c-.86-.68-1.67-1.62-2.88-1.44-3.98.55-6.02-2.18-8.1-4.73-6.5-7.91-13.13-15.72-19.37-23.83a56 56 0 0 0-19.86-16.23 682 682 0 0 0-45.1-20.67c-4.73-1.97-9.47-2.04-14.31-1.58-2.1.2-4.5.6-5.95-.6-2.37-1.96-3.5-.56-4.4 1.04-1.8 3.17-4.4 3.22-7.34 2.37a27 27 0 0 1-4.88-1.77c-3.16-1.62-6.35-1.36-9.41-.12-23.2 9.45-44.82 21.58-63.93 37.95-11.52 9.88-21.84 20.93-31.76 32.36-6.7 7.74-13.21 15.65-19.05 24.1-1.7 2.45-3.34 4.87-4.05 7.9a7.2 7.2 0 0 1-5.82 5.63 43 43 0 0 0-14.15 5.06c-.66.38-1.5.85-2.17.24-.93-.86-.08-1.68.3-2.5.8-1.7 2.84-2.45 3.53-4.98-3.65 2.04-6.47 4.4-9.34 6.68-1.26 1-1.26 2.26-1.1 3.81 1.35 12.83 2.78 25.66 3.41 38.55.54 10.89.17 21.73-1.55 32.5-.64 3.97-.12 7.32 3.2 10.17 5.02 4.31 6.33 10.39 6.7 16.62.9 15.74 1.14 31.49.97 47.25q-.04 2.61-.01 5.21c.03 1.6-.75 2.28-2.29 2.28h-23.18c-1.35 0-1.86-.67-2.16-1.94-.39-1.58-.1-3.47-1.97-4.97-1.08 1.65-.35 3.18-.33 4.56.03 1.53-.38 2.35-2.06 2.35-8.98-.02-17.95 0-27.16 0-.8-3 .41-5.38 1.41-8.04-2.7.86-3.5 2.89-3.85 5.18-.37 2.3-1.64 2.94-3.91 2.93q-20.36-.15-40.7 0c-2.49.01-3.46-.6-3.7-3.33a437 437 0 0 1-1.62-41.56c.12-16.58 1.24-33.08 4.55-49.35 1.2-5.87 2.43-11.73 4.95-17.23.39-.85.59-2 1.26-2.48 6.2-4.45 11.99-9.7 20.13-11.3.99 7.14-.12 14.07.85 20.91.4-10.37 1.54-20.7 1.67-31.1.07-6.1 1-12.22 1.72-18.31a527 527 0 0 1 6.52-42 325 325 0 0 1 15.66-53.83c3.36-8.66 9.28-13.79 17.64-16.3 5.37-1.6 7.6-5.52 9.04-10.08 3.86-12.23 11.73-20.6 23.52-25.43 3.7-1.5 7.47-2.5 11.5-1.9 1.64.24 2.8.04 2.92-1.97.56-8.72 2.78-17.06 5.86-25.2.08-.22-.13-.55-.34-1.28-6.63 2.8-13.46 1.8-20.33 1.09-5.66-.57-11.3-.48-16.87 1.15-4.22 1.24-6.22 4.59-8.34 7.91-.85 1.32.39 2.7-.14 4.33-2.55-2.12-5.02-4.06-7.33-6.17-1.87-1.7-3.44-3.72-4-6.3-.31-1.4-.67-3.1 1.81-2.5 1.23.29 1.67-.57 2.3-1.24 7.31-7.64 16.44-10.84 26.82-10.78 4.57.03 9.15.07 13.7.45 5.3.44 9.94-1 14.26-3.95 1.36-.93 2.67-2.35 5-1.4.04 2.1-1.14 3.66-2.56 5.1-4.94 5.01-11.04 6.34-17.8 5.62-1.85-.2-3.67-.96-5.86-.3 1.81 3.83 4.64 5.8 8.82 5.77 6.2-.04 11.67-2.26 16.86-5.43 1.32-.8 1.4-1.98 1.4-3.25-.06-15.01 2.27-29.77 4.84-44.49.46-2.57-.36-3.76-2.77-4.45-3.78-1.09-7.5-2.4-11.22-3.63-1.85-.62-3.77-1.23-2.75-3.9.05-.15.14-.36.08-.46-3.42-5.33.17-10.17 1.37-15 2.8-11.3 6.2-22.46 11.37-32.96.9-1.82 1.02-5.08 4.64-2.96.43.25 1.61-.8 2.43-1.24 3.49-1.93 7.09-3.47 11.4-3.62-3.54-1.92-6.57-4.12-6.33-8.78-.98.23-1.76.31-2.47.6-3.88 1.58-7.18.39-9.7-2.54-1.95-2.26-3.67-2.28-6-.86-1.8 1.1-3.72 1.45-6.54-.73 3.6-.1 5.88-1.24 8.23-2.17.73-.3 1.41-.8 2.17-.91 2.5-.4.03-6.2 5.03-4.25 2.4.94 4.76-1.93 7.84-2.22-.68-1.78-1.26-3.3-1.8-4.66-1.93-.36-2.67 1.39-4.24 1.6.1-2.25 2.3-2.6 3.31-3.91.94-1.22 2.13-2.75-.46-3.54-1.73-.53-2.25-2.09-3.13-3.36l-.07.07zm425.88-348.6c2.83-.17 2.53-2.26 2.52-4.15 4.3-5.58 4.65-12.46 6.37-18.89a77 77 0 0 0-6.29 18.96c-1.75.83-1.41 2.92-2.47 4.18-.1 1.3-.58 2.63.23 4.77.2-2.2.8-3.57-.36-4.86zM284.45 425.41l-4.85 3c3.09-.16 5.27.1 4.76-3.08 1.29-1.12 1.72-2.49 1.44-4.68-.87 1.87-2.08 3.06-1.35 4.75zm31.59 19.38c.83-1.8.11-3.63-.32-5.45l.36 5.4c.93 2.02-.07 4.67 2.26 6.22-1.57-1.77.22-4.7-2.3-6.17m236.16 29.76c-2.97.14-5.2 1.89-7.49 3.52 2.54-1.06 5.63-1 7.41-3.64 1.56.41 2.72-.08 3.7-1.72-1.44.61-2.89.46-3.62 1.83zm221.5-55.84q-.01 1.74 1.64 1.28c.19-.06.46-.47.4-.64-.28-.92-1.08-.72-1.78-.7-.13 0-.26.12-.39.2-2.24-1.84-4.95-2.13-7.6-2.67 2.39 1.47 4.62 3.5 7.72 2.53zm-25.56-276.4c-3.12.58-5.48 2.58-7.94 4.4 3.06-.72 6.01-1.62 7.86-4.5 1.97.31 3.2-.69 4.62-2.86-2.06 1.06-3.7 1.33-4.53 2.96zM603.44 95.1c3.22-2.25 6.32-4.62 8.25-8.17-2.84 2.62-6.35 4.5-8.57 7.8-2.9 1.43-4.63 4.06-6.72 6.32 2.53-1.79 5.24-3.36 7.05-5.95M361.88 253.9c-5.17 1.84-8.45 5.08-8.06 11.04 1.1-4.53 3.89-7.72 7.75-10.1.23-.14.3-.52.44-.79 1.68-.22 2.88-1.21 3.92-2.46-1.63.3-3.07.87-4.05 2.31m231.23 558.37c-.53-2.02-2.07-3.19-3.67-4.33a9.3 9.3 0 0 0 3.29 4.68 79 79 0 0 0 9.41 12.36c1.1 1.7 2.17 3.42 3.32 5.1 1.08 1.53 2.25 3 3.4 4.49q1.66 2.16 3.35 4.31l.84-.74c-3.5-4.52-6.2-9.62-10.41-13.6a50 50 0 0 0-9.52-12.27zM215.73 840.5l-.05-.08c1.8 1.33 3.8 1.4 5.85.83 2.34-.64 3.96-2.68 3.86-4.75-.1-1.81-1.85-3.65-4.06-4.04-2.37-.43-4.74.02-6.99.7-1.92.57-2.63 2.78-1.77 4.69a4.7 4.7 0 0 0 3.14 2.65zM686.93 108c4.89 1.84 5.6 4.06 2.5 7.8-1.64 1.95-3.8 3.29-5.74 4.9-1.79 1.47-4.73 2.43-5.05 4.54-.27 1.8 1.6 3.91 2.57 5.87.11.24.47.36.88.65 1.72-.54 2.8-2.26 4.16-3.33 3.97-3.14 8.8-5.48 10.91-10.7 1.3-3.2 4.94-2.33 7.5-3.31.58-.22 1.68.27 1.83 1.16.92 5.5 5.23 9.65 5.94 15.24.15 1.2.6 2.56 2.41 2.13a86 86 0 0 0 16.41-5.28c-4.6-2.83-8.56-5.4-12.65-7.73a502 502 0 0 0-22.95-12.14c-3.16-1.6-5.86-1.81-8.71.25.63-1.3.94-2.56-1.09-2.62-1.4-.03-2.8.4-4.2.44-1.52.03-3.74.5-4.02-1.44-.33-2.32 1.97-1.78 3.42-1.98.24-.04.44-.27 1.01-.64-3.85-1.6-7.47-3.08-11.07-4.6-1.26-.54-1.94-.1-2.72.97-5.2 7.07-12.11 12.34-18.82 17.83-4.96 4.05-10 8-15.42 12.35 4.3 1.74 7.72 3.89 11.16 6.02a7 7 0 0 1 2.76 3.12c.36.8-.05 1.62-.95 1.78a5 5 0 0 1-2.33-.12 2019 2019 0 0 1-19.9-5.98 6 6 0 0 1-1.66-.88c-1.15-.8-2.54-1.57-2.12-3.28.36-1.48 1.77-1.83 3.01-1.82 3.23.01 4.43-2.17 5.81-4.7-3.65-.31-7-.24-10.05-1.75-1.24-.62-2.09.05-3.03.62-1.9 1.14-3.74 2.37-5.71 3.33-2.16 1.03-2.91.5-3.91-1.68-1.22-2.68-.79-4.9 1.41-6.76 1.2-1 2.5-1.93 3.78-2.83 8.15-5.7 16.22-11.5 22.8-19.04 2.02-2.3 4.36-4.42 5.65-7.36-4.23-1.56-4.2-1.55-6.57 1.67-2.72 3.69-5.52 7.32-8.98 10.34a1069 1069 0 0 1-22.63 19.34c-1.93 1.6-2.55 2.98-1.34 5.16.46.83.72 1.75 1.13 2.6 1.52 3.17 1.54 3.2 4.95 2.44 2.83-.62 5.37-.67 8.01 1.18 3.6 2.51 7.54 4.58 11.4 6.7 6.21 3.41 12.56 6.76 19.48 8.27 3.13.69 5.44 1.44 6.72 4.34.63 1.44 1.65 1.75 3.03 1.47 5.19-1.03 10.59-1.66 13.6-7.63 1.92 4.49.67 8.27-.09 12.06-1.05 5.26-.94 5.07 3.42 7.94 3.49 2.3 6.7 4.17 11.13-.57-.43 3.89.6 6.41.47 9.02s1.24 3.43 3.36 3.53c4.72.24 9.45.35 14.18.53q2.65.11 3.72-2.32c3.13-7.05 6.51-14.02 8.27-21.56.54-2.3 1.5-3.6 3.62-4.43 3.23-1.28 6.39-2.7 9.51-4.18 4.9-2.34 9.8-4.68 14.42-7.74-3.53-3.14-3.47-3.05-6.75-.74a40 40 0 0 1-5.79 3.18c-4.28 2.05-8.84 3.32-13.42 4.45-2.09.5-3.23 1.36-3.8 3.5-1.75 6.7-4.55 13.02-7.14 19.42a17 17 0 0 1-2.05 3.7c-2.22 2.93-7.02 4.6-10.15 3.59-1.18-.39-2.6-.84-1.75-2.6 3.43-7.2 3.42-15.28 5.87-22.73.49-1.47-.24-2.05-1.56-2.18q-5.34-.55-10.7-1.07c-.76 2.36-.26 4.59-.47 6.78-.33 3.33-1.07 6.52-2.81 9.42-.6 1-1.4 1.83-2.6 1.77-1.39-.07-1.73-1.35-1.94-2.38-.3-1.53-.4-3.12-.43-4.69a75 75 0 0 0-3.83-21.8c-.3-.94-.3-2.22-2.04-2.64-.3 1.81-.98 3.3-3.3 2.47-5.68-2-11.05-4.6-15.82-8.32-1.03-.79-2.07-1.87-1.29-3.2.64-1.06 2-.63 3.05-.4 1.37.34 2.73.8 4.05 1.27a24 24 0 0 1 7 3.89c1.45 1.16 2.61 1.16 4.12-.09 2.29-1.91 5.07-3.29 7.17-5.37 2.52-2.52 6.23-3.35 8.49-6.14-1.28-1.98-3.09-3.77-1.24-6.05 1.3-1.6 2.93-1.58 4.5-.23M593.7 529.04l-.04-.13c.97 2.34-.38 3.82-1.9 5.27-3.18 3.05-6.26 6.21-9.56 9.15-1.37 1.23-1.45 2.18-.32 3.46.7.77.89 2.04 2.2 2.22l10.91-9.78c1.77-1.57 3.6-3.15 6.23-2.73.73.12 1.18 0 1.45-.7.79-2.06 2.46-3.58 3.14-5.76 7.86-25.08 16.05-50.06 23.03-75.42 1.71-6.21 3.79-12.33 5.83-18.45.79-2.37 1.64-5.1 4.47-5.66 2.6-.52 3.4-2.05 4.15-4.3 1.25-3.72 2.89-7.33 4.45-10.94a82 82 0 0 1 6.21-11.66c2.15-3.35 4.53-6.8 8.55-7.82 5.3-1.34 10.45-3.55 15.96-3.9 4.08-.25 8.2-.1 12.28.1 3.99.18 7.96.64 11.94.99-3.5-2.6-7.26-4.44-10.88-6.55-4-2.33-8.38-3.33-12.73-2.64-25.67 4.07-45.54 15.98-54.86 41.67-1.46 4-2.77 8.2-5.6 11.39-3.16 3.55-4.86 8.22-8.12 11.38-5.24 5.07-4.64 9.99-1.64 15.53.22.41.28.92.48 1.33.35.7.66 1.55 1.58 1.56 2.5.01 1.82 1.55 1.45 2.91-2.35 8.5-4.77 16.97-7.05 25.49-.8 3.04-2.14 5.43-5.15 6.83-1.82.84-3.41 2.2-5.13 3.35 3.4 3.08 3.44 3.26 1.19 6.98a32 32 0 0 1-2.14 3.12 5.5 5.5 0 0 0-1.27 3.47c.02 3.44-.23 6.9.86 10.24zm50.37 216.22-.08-.09c-1.32 3.2-4.13 3.54-7.02 3.45-5.47-.17-9.56 2.13-12.78 6.54.7.5 1.18.9 1.7 1.23 1.87 1.15 3.68 3.03 5.66 3.23 2.17.21 3.25-2.64 4.99-3.92q.78-.54 1.5-1.15c1.5-1.43 2.93-1.92 5.04-.78 1.71.93 3.79 2.24 5.74 1.63 2.72-.84 5.61-.55 8.61-1.7-1.55-4.6 1.45-6.57 4.9-8.31 3.5-1.78 7.08-3.47 10.2-5.92.95-.75 2.48-1.27 2.2-2.79-.42-2.4 1.29-3.34 2.7-4.55 6.7-5.81 14.26-10.36 21.76-15 1.3-.8 2.96-1.22 3.59-2.89.85-2.32 2.99-2.97 4.94-4.14 1.3 1.3.85 3.67 3.16 3.93 5.58.62 9.83 4.03 14.1 7.2 2.24 1.67 4.25 2.47 6.76.73a36 36 0 0 0-4.09-5.78c-5.78-6.85-12.02-13.36-16.46-21.24a3.1 3.1 0 0 0-2.53-1.77c-9.64-1.33-19.17-3.4-28.9-4.2-2.19-.19-4.63-.16-6.77-1.33-7.62-4.14-15.31-8.14-21.31-14.65a9 9 0 0 0-2.2-1.73c-13.08-6.92-25.63-14.82-39.14-20.95-1-.46-2-1.3-3.04-.5a3.3 3.3 0 0 0-1.22 3.76c.77 2.88 1.68 5.8 1.9 8.75.43 5.77 4.47 7.84 9.03 9.1 4.68 1.28 9.55 2.19 14.45 1.93a8.3 8.3 0 0 1 6.02 2.13 170 170 0 0 1 32.46 36c.98 1.43 1.94 2.88 2.38 4.6.74 2.83.18 3.53-3.01 3.54-.67 0-1.28.03-1.75.44-2.92 2.52-5.24.7-7.57-1.03-1.49-1.1-2.38-2.9-4.15-3.62-3.07 2.3-6.05 4.64-9.13 6.81-9.9 7-19.98 13.74-29.37 21.43-5.14 4.2-4.88 5.18 1.01 8.35 2 1.08 3.14.72 4.32-.97a94 94 0 0 1 4.2-5.7c4.51-5.48 12.5-5.49 17.2-.07m-236.6-388.2c-1.76.53-2.22-2.48-3.43-1.71-2.17 1.39-4.98.95-6.8 2.27-4.89 3.55-9.4 7.63-14.31 11.72 7.23 4.59 12.77 10.58 18.53 16.37 19.38 19.48 36.62 40.74 52.82 62.89 6.6 9.02 13.08 18.13 20.48 26.52 3.92 4.44 2.3 4.08 7.4.94 3.51-2.16 3.52-2.28 1.14-5.57a66 66 0 0 1-8.95-17.61c-1.03-3.06-1.38-5.8 1.6-8.47 3.13-2.82 5.49-6.46 7.68-10.13 2.3-3.82 3.02-4.1 7.2-3.07 6.13 1.51 6.8 1.23 10.1-4.29l1.88-3.24c-6-3.62-7.43-9.27-7.5-15.48-.08-6.95 2.38-13.25 5.31-19.41.81-1.7 2.02-2.13 3.74-2.24 10.84-.75 21.68-1.57 32.55-1.36 6.76.13 13.52.8 20.29.85a29 29 0 0 1 14.82 3.92q3.05 1.82 6.12 3.57c.9.5 1.67 1.53 3.08.9.2-5.27-.03-10.66.77-15.9.54-3.55-.03-6.4-1.69-9.4-7.48-13.6-16.97-25.77-26.83-37.66-.9-1.09-1.81-2.2-3.25-2.62-1.6-2.68-1.67-2.73-3.58-.67-9.92 10.7-21.9 12.62-35.37 8.44a50 50 0 0 1-16.56-8.86c-7.8-6.28-13.61-13.88-15.64-23.98-2.2-10.94 1.02-19 10.3-25.08.53-.36 1.03-.72.97-1.44-.7-1-1.69-.44-2.57-.47.07-1.31-.82-1.9-1.8-2.5A201 201 0 0 0 462 262.08c-.88-.38-1.73-.77-2.7-.47-2.47.73-5.03.32-7.52.54-4.54.41-9.3-.19-13.56 1.43-2.3.87-3.87.44-5.72-.39q-4.6-2.05-9.18-4.13c-.78 1.59.35 2.49.26 3.58-.05.6.11 1.65-.49 1.56-3.03-.42-2.21 1.89-2.48 3.34-1.58 8.35-3.1 16.71-4.68 25.06a15.4 15.4 0 0 1-3.06 6.76 9 9 0 0 1-.4-5.08q2.12-14.46 4.22-28.93c.74-5.21.77-5.33-3.93-7.6-5.38-2.61-11.01-4.73-16.27-7.57-2.58-1.4-4.47-1.3-6.84.07a518 518 0 0 0-20.16 12.31c-1.53.97-1.73 2.28-2.16 3.85-2.82 10.14-5.1 20.43-9.52 30.08-15.33 33.45-27.46 67.97-34.47 104.18a10 10 0 0 0-.04 3.74c1.27 7.27 2.43 14.57 3.7 21.85 1.6 9.15 4.07 18.1 6.65 27.02.4 1.35.75 2.28 2.52 1.95 6.08-1.13 10.05 1.4 13.02 6.79 6.84 12.4 15.23 23.95 20.49 37.22.4 1 .88 2.38 2.21 2.04 2.46-.63 2.54 1.13 2.93 2.57.77 2.88 2.47 4.54 5.34 5.69 10.67 4.29 21.2 8.92 31.8 13.35 7.4 3.1 15 5.71 22.63 8.2 2.15.7 3.51.45 4.47-1.84a12 12 0 0 1 2.83-4.31c3.67-3.2-1.85-6.36.17-9.61.53-.85-.7-2.3-1.54-3.25a1 1 0 0 0-.39-.27c-3.65-1.04-5.4-4.2-7.47-6.9-7.7-9.97-15.46-19.9-22.54-30.34-6-8.9-13.26-16.82-19.74-25.34-8.69-11.44-15.81-23.9-22.84-36.4-.92-1.64-1.58-3.45-3.03-4.75a24 24 0 0 0-5.57-3.9c-4.44-2.22-8.05-5.98-10.99-10.12-.78-1.1-.88-2.5-.55-4.05 2.55-11.86 5.9-23.5 10.2-34.84 1.01-2.68 2.37-5.49 4.87-6.82 2.92-1.57 3.66-4 4.02-6.7 1.6-11.86 6.72-22.21 13.43-31.9 2.53-3.66 5.87-6 10.45-6.51 5-.57 9.96-1.5 14.95-2.15 1.55-.2 3.14-.08 4.7 0 .88.06 1.48.8 1.58 1.56.06.45-.5 1.13-.95 1.47a20 20 0 0 1-5.94 2.83 76 76 0 0 1-13.36 2.97c-3.32.45-5.65 2.06-7.63 4.9a123 123 0 0 0-10.04 17.1c-1.99 4.13-3.72 8.39-5.5 12.42 1.57.98 2.26.19 3.01-.36 5.25-3.83 11.14-6.52 16.92-9.39 1.54-.76 3.18-1.34 4.8-1.94.93-.34 1.68-.34 2.38.72 4.9 7.5 9.52 15.12 12.09 23.8l.09-.08zm444.02 26.74-.33-.32c.07-.3.08-.66.26-.9 8.96-12.6 19.1-24.23 29.44-35.69 4.42-4.9 10.1-7.36 16.43-8.63 2.25-.46 4.51-.91 6.7-1.37-1.5-10.22-4.62-19.68-7.08-29.3-2.21-8.68-5.3-17.12-8.25-25.6-1.49-4.25-3.83-8.26-4.17-12.9l-.07.06c1.73 1.1 2 3.07 2.67 4.75a389 389 0 0 1 13.3 39.36c.33 1.17.2 2.58 1.69 3.13.62.23 6.87-1.4 7-2.01.59-3.03 3.43-5.12 2.91-8.75-.58-4.02-.32-8.18-.19-12.28.1-3.2-.42-6.28-1.1-9.35a216 216 0 0 0-19.55-54.04c-1.88-3.6-1.82-3.63-5.9-2.48a1123 1123 0 0 1-52.7 13.24c-35.45 8.17-70.84 16.54-105.8 26.67-23.73 6.86-47.3 14.34-71.34 20.07-4 .95-6.48 2.6-7.81 6.32a5 5 0 0 1-.67 1.25c-1.12 1.52-.87 2.6.54 4.01 10.97 11.1 20.97 23.08 31.05 34.98 3.76 4.44 6.9 9.56 11.2 13.37 3.24 2.87 3.87 5.68 3.4 9.43-.22 1.7-.53 3.48-.5 5.14.12 5.3-4.65 5.33-7.54 7.28-2.27 1.54-3.83-.73-5.4-1.75-5.7-3.67-10.9-8.02-16.24-12.2-3.9-3.05-7.69-6.26-12.56-9.22.92 2.9 1.62 5.11 2.34 7.33.3.92.64 1.89 1.83 1.83 3.6-.2 5.75 2.37 8 4.45 13.1 12.18 28.28 20.9 44.65 27.88 19.72 8.39 40.06 15.04 60.41 21.64 6.68 2.16 12.95 5.85 20.27 5.84.4 0 .94.3 1.2.62 1.5 1.9 3.78 2.2 5.83 2.91 13.41 4.58 26.94 8.75 40.79 11.85a326 326 0 0 0 56.52 7.8c7.41.34 14.8.47 22.21.04 4.66-.27 5.47 1.27 3.3 5.45-.86 1.66.45 5.95 2.03 6.63 1.57.69 3.49-.42 3.82-2.17 1.45-7.75 1.55-15.65 1.93-23.47.74-15.27-1.3-30.52-1.03-45.82 0-.62-.1-1.25-.21-1.87a104 104 0 0 1-1.36-16.92c.03-3.62-.19-7.25-.3-10.87-.04-.93.1-2.23-.86-2.54-3.54-1.15-2.83-4.07-2.91-6.6-.13-3.72.23-7.5-1.14-11.1-.8-.57-.36 3.38-1.85.5-.57-1.1-.24-2.9-1.54-3.28-2.33-.7-2.8-2.23-2.8-4.3 0-1.7-1.3-2.86-2.14-4.08-.9-1.28-2.27.2-3.42.44-1.47.32-3.1-.45-4.56.56.39 1.6.8 3.12 1.14 4.65.92 4.3 1.8 8.61 2.75 12.91.27 1.28.11 2.19-1.43 2.3-10.05.75-18.47 4.49-24.23 13.14-.26.4-.58.75-.88 1.12-8.93 10.58-17.93 21.1-27.79 30.85zm-172.71-4.99c-.46-1.28-1.55-1.72-2.39-2.41-5.87-4.78-11.75-9.57-16.17-15.8-1.78-2.5-3.54-4.02-7-3.4-3.2.56-4.16-.34-5.37-3.37-1.04-2.63-2.34-5.28-2.72-8.02-.34-2.54-1.69-3.13-3.64-3.44-5.28-.85-10.54-1.92-15.9-2.22-7.23-.41-14.45-.91-21.7-1a39 39 0 0 1-11.17-1.74c-2.24-.72-3.77-1.7-2.63-4.4.32-.75.08-1.52-.12-2.3-2.2-8.56-1.57-17.2-.6-25.81.43-3.9 1.26-7.8 3.14-11.32.95-1.8 1.81-3.95 3.7-4.73 8-3.28 15.77-7 24.13-9.42 13.75-3.97 27.46-8.19 39.92-15.53 1.14-.66 2.5-1.24 3.57-.52 2.07 1.37 3.9.5 5.81-.07l87.7-26.54c4.21-1.28 8.45-2.48 12.68-3.75 3.02-.91 1.42-3.38 1.65-5.2.22-1.8-1.12-1.87-2.48-1.98a563 563 0 0 1-12.69-1.22c-2.78-.3-5.77-2.28-8.19-.99-2.52 1.36-3.84 4.54-5.13 7.2-.8 1.7-1.68 1.54-2.95 1.14l-2.7-.88c-28.9-9.33-58.04-18-86.64-28.27-.86-.32-2.22-1.17-2.48-.9-2.23 2.24-3.55.03-4.76-1.03-10-8.7-20.83-16.32-31.15-24.61a26.5 26.5 0 0 0-13.6-5.95c-5-.63-10.18-.67-14.91-2.15-3.39-1.06-5.98-.31-8.9.63-29.57 9.45-58.42 20.81-86.79 33.37-24.24 10.72-47.63 23.06-69 38.93-3.26 2.42-6.5 4.89-9.98 7.52 3.63 2.07 6.14 5.45 9.75 6.26 4.68 1.06 8.99 2.79 13.36 4.58 1.06.43 2.07 1.2 3.54.73 3.98-1.28 8.1-.42 12.15-.27 2.67.1 5.5 1.03 7.94.4 2.58-.67 4.62-.1 6.81.7 8.9 3.25 17.4 7.32 25.64 12 26.4 14.97 48.28 35.2 67.86 58.1 7.9 9.24 15.3 18.84 21.7 29.16 2.8 4.51 6.32 8.98 7.56 13.97 1.56 6.29 1.78 13.17-1.9 19.26-1.16 1.9-1.3 3.17.84 4.6 3.29 2.18 6.81 4.8 8.35 8.2 3.43 7.62 10.73 11.04 16 16.6 1.62 1.71 3.26 3.42 4.96 5.05.84.8 1.4 2.03 3.28 2.4 7.37-32.82 30.47-46.77 61.63-51.56zM351.07 148.6c1.08-1.74 2.8-2.55 4.4-3.54 5.28-3.28 11.2-5 16.97-7.03 4.97-1.74 9.85-4.05 15.4-3.47 1.52.16 1.64-1.16 1.42-2.34a139 139 0 0 0-7.47-25.77c-.91-2.34-2.14-2.32-3.98-1.26-3.82 2.2-7.71 4.3-11.5 6.54-5.2 3.08-5.34 3.5-3.58 9.42.5 1.66 1.08 3.29 1.6 4.94.27.9.62 1.8.7 2.72.14 1.75-.25 3.2-2.48 3.1-2.38-.1-4.11 1.47-6.03 2.46-5 2.58-10.06 5.07-14.84 8.33 4.56 6.87 5.34 14.33 5.3 21.45.51 1 1.04.85 1.47.89 6.9.59 13.8 1.14 20.54 2.9 1.47.39 3.15.48 3.9 2.25 1.91 4.48 4.98 8.31 6.76 12.9 6.84 17.62 14.94 34.75 20.13 52.98.5 1.78 1.23 2.87 3.3 2.24a5.5 5.5 0 0 1 5.33 1.17c1.9 1.66 2.9.73 4.28-.6 5.02-4.81 10.58-8.94 16.3-12.9 18.24-12.6 38.12-22.09 58.48-30.67 21.34-9 43.05-17 65.04-24.25 4.1-1.35 5-4.78 2.21-8.2a9.6 9.6 0 0 0-6.53-3.43c-1.72-.2-3.46-.26-5.19-.27q-8.3-.06-6.77-8.18c.62-3.29.23-4.24-2.76-5.46-3.53-1.44-7.28-1.91-11.09-2.18q-12.49-.9-24.96-1.93c-3.13-.25-5.44-1.8-6.24-4.9-.88-3.33-3.2-4.87-6.23-5.8a49 49 0 0 0-8.3-1.7c-14.15-1.87-28.29-1.43-42.45-.39a279 279 0 0 0-52.04 8.96 216 216 0 0 0-31.08 11.03zm-2.93 559.07c-.75 2.63-.4 4.86-.56 7.05-.16 1.97-.74 2.58-3.03 1.79-5.8-2-11.83-3.28-17.99-2.79-7.86.63-7.9.83-8.25-7.29-.08-2.13-.67-3.02-2.94-3.25-4.67-.5-9.48-.2-13.91-2.17-1.35-.59-2.09.17-2.78 1.07a277 277 0 0 0-13.36 19.33c4.52 2.71 4.9 3.86 2.94 8.43a39 39 0 0 1-1.68 3.38c-4.44 8.01-9.92 15.34-14.97 22.94-4.88 7.35-9.7 14.73-14.55 22.09a6.5 6.5 0 0 0-1.13 5.32c1.8 8.45 3.44 16.94 5.13 25.42 1.51 7.56 3.1 15.11 3.23 22.85.12 6.51.05 6.47 6.65 7.12 2.22.22 3.22-.45 4.14-2.66a546 546 0 0 1 11.64-26.32c5.56-11.62 13.67-21.45 22.32-30.9 10.13-11.05 20.65-21.68 32.17-31.27 13.88-11.55 29.35-20.64 45.34-28.88 1.47-.76 3.2-1.18 4.73-3.25-15.14-.25-28.79-5.42-43.14-8zm200.2-160.77c-.62-.17-.94-.37-1.2-.32a454 454 0 0 1-37.21 6.35c-.91.12-1.94.07-2.65.85-4.5 4.93-10.65 6.46-16.72 8.16-1.8.5-3.56.99-5.03 2.4-1.85 1.76-4.18 1.88-6.65 1.16a33 33 0 0 1-6.09-2.53 294 294 0 0 1-29.5-17.87q-3.51-2.42-6.81-5.1c-.8-.62-1.98-1.45-.9-2.68 2.03-2.28-.03-2.64-1.44-2.94-4.17-.9-8.24-2.15-12.26-3.53-16.26-5.56-32.03-12.32-47.55-19.67-1.48-.7-2.75-1.87-4.79-1.02-8.47 3.47-17.38 5.6-26.11 8.3-1.4.43-2.83.68-3.22 2.84-.35 1.94-1.9 2.99-4.33 1.82-3.73-1.78-7.65-.52-11.76-.4.48 2.01.86 3.68 1.28 5.34a3.7 3.7 0 0 0 2.34 2.72c7 2.85 13.74 6.33 21.06 8.37 2.35.66 4.63.79 7 .4 3.09-.49 6.12-1.22 9.32-1.09 1.52.06 3.56.05 3.37-2.73-.11-1.59 1.28-1.95 2.72-1.66 2.03.41 3.92 1.23 5.7 2.26 7.37 4.23 14.69 8.58 22.08 12.79 10.7 6.09 21.8 11.3 33.6 14.9 5.35 1.62 5.37 1.51 8.7-3.09 2.28-3.16 5.08-3.9 8.62-2.19.99.48 1.86 1.17 2.81 1.73 4.32 2.59 4.78 3.7 3.39 8.34q-1.4 4.66 3.37 5.7c.61.13 1.24.2 1.86.3 16.74 2.79 33.57 3.07 50.45 1.82a57 57 0 0 0 20.06-5.02c1.54-.72 3.29-1.02 4.95-1.5 6.27-1.85 13.08-1.92 18.75-5.86 2.86-1.97 5.58-4.57 9.75-4.03-3.77-1.07-7.34-2.11-10.67-3.84-3.92-2.04-7.56-4.2-6.28-9.49zm-72.1-100.32c2.84 5.7 4.56 11.6 6.76 17.32 1.14 2.94 2 5.9 6.2 5.75 1.43-.05 2.94 1 4.35 1.71 5.62 2.81 11.22 5.69 16.83 8.54 1.23.63 2.3 1.47 3.95.98 13.46-3.95 26.76-8.3 38.85-15.64q1.2-.75 2.35-1.59c1.41-1 1.4-2.15.75-3.7-.64-1.52-1.57-1.78-2.96-1.44-.92.22-1.84.45-2.77.58-7.41 1.09-14.74 1.7-21.56-2.54a42 42 0 0 1-9.89-8.7c-3.16-3.77-5.82-7.83-7.05-12.69-.2-.79-.52-1.65.33-2.08 1.19-.6 1.61.46 2.05 1.27.38.7.67 1.43 1.04 2.12a52 52 0 0 0 12.57 15.78c2.7 2.27 5.65 4.14 9.28 4.3 10.82.47 21-1.5 29.94-8.08a84 84 0 0 1 6.26-4.21c1.06-.65 2.65-.96 2.66-2.36 0-1.56-1.83-2-2.8-2.94-.68-.66-2.07-.61-3.16-.79-14.93-2.37-29.55-6.18-44.22-9.76-6.63-1.62-13.11-3.73-19.56-5.66-.42 3.97-3.37 5.87-5.4 8.37-1.93 2.37-4.19 3.6-7.4 2.87-1.85-.43-3.68-.27-5.11 1.53a52 52 0 0 1-12.3 11.05zm23.73-42.13a32 32 0 0 0 2.1 10.88c.5 1.47 1.4 2.25 3.16 2.08 2.2-.22 4.36.4 6.5 1q13.86 3.84 27.76 7.58c11.54 3.08 23 6.6 34.95 7.84a6 6 0 0 1 3.1 1.03c1.52 1.2 2.5.48 3.64-.58 5.59-5.12 8.44-11.57 9.75-18.93.65-3.63-.45-5.9-3.54-7.8-7.26-4.43-14.86-8.5-21.38-13.86-4.3-3.53-8.27-4.15-13.35-3.9-9.59.5-19.22.18-28.82.6-5.67.25-11.33.44-17 .47-1.4 0-2.95-.2-3.56 1.57-1.4 4.17-2.9 8.32-3.32 12zM280.84 208.1a4.2 4.2 0 0 0 2.12 1.36c6.48 2 13.08 2.22 19.57.41 19.65-5.45 32.24-18.37 38.56-37.5 3.15-9.5 2.7-18.88-2.2-27.8-1.5.11-2.48.97-3.57 1.58-3.71 2.06-7.27 4.54-11.18 6.1-2.02.8-3.48 1.8-4.86 3.33-8.78 9.73-16.36 20.38-23.87 31.1-.38.52-.61 1.07-.34 1.79 5.88 1.9 11.79 1.26 17.67-.19 1.16-.28 2.32-.53 2.87-2.05.73-1.97 2.64-1.58 4.06-1.03 1.36.53 1.3 1.84.88 3.2-.6 1.93-1.8 2.7-3.53 1.93-1.32-.6-2.36-.32-3.58.03-6.15 1.72-12.38 2.43-18.66.82-1.4-.36-2.45-.3-3.27.96-3.54 5.36-7.56 10.4-10.66 15.96zM577.8 549.97c-2.32-3.94-2.26-3.88.53-6.96 2.65-2.92 5.23-5.9 8.36-8.32 1.55-1.2 1.99-2.45 1.35-4.47-1.58-5.04-1.07-10 1.84-14.48 1.12-1.71 1.02-3.56 1.4-5.39.32-1.49-.37-2.07-1.48-2.44-7.34-2.49-13.28-7.1-18.85-12.28-1.37-1.27-2.38-1.56-4.05-.37-3.99 2.84-8.4 4.9-12.83 7-5.05 2.38-6.5 10.59-2.85 14.86.65.76 1.44 1.63.58 2.41-1.9 1.72-.85 3.49-.31 5.2 1.13 3.6 2.1 7.3 3.7 10.69 1.66 3.5 1.63 6.58-.6 9.66-1.23 1.7-.65 2.82.97 3.84 2.41 1.51 5 2.67 7.64 3.7 4.12 1.6 8.17 2.45 11.83-1.14.65-.63 1.64-.9 2.77-1.51m267.16-336.8c-11.18-11.27-24.11-18.92-35.88-28.27-3.7 8.5-8.96 15.93-14.03 23.46-3.16 4.7-6.48 9.3-10.03 13.71-2.1 2.62-4.2 5.46-8.27 5.58-1.94.06-1.77 1.96-1.94 3.92 23.3-6.8 46.26-12.7 70.15-18.4M294.4 243.44c-14.53 10.06-27.56 21.15-40.43 33.03 4.77 5.1 8.81 10.67 12.6 16.32 1.38-.18 2.17-.98 3.09-1.57 8.98-5.82 17.93-11.7 26.98-17.45 1.53-.97 2.29-1.97 2.03-3.75l-3.64-24.7c-.07-.45-.3-.89-.63-1.88m158.61 283.25c-3.31-.54-5.69.9-7.35 3.41-1.53 2.32-2.77 4.82-4.1 7.27-.65 1.2-.17 1.97 1.01 2.64 3 1.7 5.9 3.6 8.89 5.34 7.74 4.49 15.3 9.31 23.4 13.2 2.17 1.03 4.12 1.59 5.8-.73 1.2-1.65 3.07-2.13 4.86-2.68a80 80 0 0 1 7.27-1.95c2.07-.41 2.86-1.44 2.83-3.55-.09-5.33-.33-10.7.7-15.98.44-2.2-.66-2.8-2.6-2.7-2 .12-3.24 1.26-2.64 3.94.63 2.83-.86 2.49-2.39 2.36-9.36-.78-18.77-1.17-28.03-3.1-3.93-.81-4.11-.7-3.35-4.7.4-2.04-.47-2.58-2.07-2.76-.78-.1-1.58-.02-2.23-.02zM336 268.57a95 95 0 0 0 3.85-14.77c.28-1.52-1.88-5.27-3.15-5.36-3.45-.26-6.9-.5-10.36-.46-2.66.03-3.93-.68-4.67-3.2-.35-1.2-.89-2.36-1.47-3.46s-1.63-.74-2.5-.46c-1.17.36-.61 1.17-.38 1.88l1.22 3.86a67 67 0 0 0-9.26-.52c-2.74 0-5.58.89-8.44-.17.74-1.48 1.59-1.3 2.34-1.35a60 60 0 0 1 10.37-.08c1.5.14 1.84-.95 1.86-2.13.03-1.05-.73-1.29-1.6-1.17-4.94.62-9.93.56-15.45.44 3.2 9.55 4.36 18.97 5.85 28.25 10.63-3.28 21.08-2.2 31.81-1.3zm215.2 269.18c-1.22-2.6-2.11-4.77-3.23-6.82-1.4-2.58-.9-6.67-3.5-7.79-2.5-1.08-5.7.98-8.58 1.65a351 351 0 0 1-30.58 5.5c-1.58.23-2.77.53-3.01 2.25-.72 5.1-1.77 10.19-1.14 15.65 16.44-4.38 33.1-6.64 50.03-10.45zm254.9 377.2c-9.6.9-18.5 1.78-27.4 2.57-3.23.29-3.52.28-3.03 3.66 1.04 7.31 3.7 14.22 5.77 21.28.42 1.42 1.37 1.25 2.59 1.07 8.12-1.22 16.16-3.13 24.76-2.65-2.33-8.6-3.77-16.9-2.69-25.93M599.4 539.5c-3.54 3.23-6.85 6.36-10.29 9.35-2.02 1.75-1.22 4.77-3.24 6.5-.52.46.12 1.14.5 1.63 5.01 6.65 10.09 13.26 15 19.98 1.4 1.92 2.4 1.9 4.13.49 3.64-2.99 7.3-5.97 11.21-8.6 2.22-1.5 2.03-2.54.65-4.43-6.13-8.37-12.13-16.82-17.94-24.91zm-20.04 11.9c-2.87 2.13-5.12 4.93-7.6 7.48-1.05 1.09-.7 2.35-.33 3.56 3.86 12.83 9.56 24.65 18.87 34.5 1.2 1.28 2.2 1.8 4.04.94 4.91-2.3 9.66-4.9 14.4-7.45-1.46-3.07-3.8-4.45-6.63-5.03a5 5 0 0 1-2.88-1.46c-6.64-7.58-13.58-14.94-19.19-23.36-1.58-2.4-2.35-4.75-.33-7.3.42-.54.39-1.15-.36-1.89zM446.25 705.24c-4.13-1.9-7.8-2.23-11.52-2.7-2.15-.26-3.53.36-4.92 1.9a252 252 0 0 0-22.22 28.06c-4.33 6.44-4.29 6.47 2.92 9.72 9.45-14.28 21.44-26.14 35.73-36.99zm163.1-123.06a104 104 0 0 0 17.62 14.3c1.07.7 2.05.48 3.04-.24a92 92 0 0 1 10.29-6.66 4.2 4.2 0 0 0 1.81-2.06c.64-1.36 1.23-2.28-.59-3.37-6.2-3.73-12.44-7.43-17.76-12.43-.8-.77-1.59-.88-2.47-.1l-11.96 10.57zm-306.4-245.34c-1.04-.25-1.7.22-2.33.58-4.77 2.75-9.5 5.58-14.27 8.3-3.54 2-6.86 4.56-10.9 5.5-1.88.43-2.63 1.32-2.79 3.12-.14 1.56-.55 3.08-.75 4.64-.26 2.03.63 2.7 2.72 2.6 7.37-.35 14.15-2.81 20.83-5.61a6.4 6.4 0 0 0 3.64-4.15c1.41-4.93 3.06-9.81 3.86-14.98m346.91 265.64c-.03-3.5-.35-6.93-2.42-9.92-1.56-2.25-1.99-2.12-4.43-.9-3.13 1.56-5.5 4.07-8.3 5.99-2.58 1.75-3.92 3.86-3.66 6.9.26 3-2.59 6.52-.7 8.49 1.7 1.78 5.54 1.55 8.44 2.14 5.34 1.09 8.79-1.01 10.28-6.16.63-2.14.8-4.33.8-6.54m-63.2-164.43c4.9 3.6 9.24 7.45 13.06 11.83 1.43 1.64 2.41.87 3.43-.28 3.33-3.77 6.6-7.59 9.96-11.34 1.33-1.5.57-2.4-.6-3.5-3.77-3.57-7.45-7.25-11.16-10.88a21 21 0 0 0-4.83-3.59c-1.35 7.12-4.07 13.2-9.86 17.77zM398.42 582.48c-.62.93-1.12 1.92-1.84 2.7-3.46 3.7-5.67 3.87-9.76.84a5 5 0 0 1-.69-.65c-.82-.87-1.88-1.46-2.9-.75-1.48 1.02-2.47 2.53-2.3 4.4.15 1.44 1.64 1.3 2.58 1.58a6580 6580 0 0 0 40.66 12.02c4.4 1.29 4.9.83 4.71-4q-4.82 1.37-9.8.84c-2.94-.32-5.6-1.46-7.34-3.74-1.99-2.58-4.06-5.4-4.95-8.45-.77-2.64-1.96-3.47-4.31-3.77-1.38-.17-2.7-.67-4.05-1.02zm-63.52-12.61c4.47 2.52 8.39 4.82 12.4 6.95a36 36 0 0 0 19.97 4.3c1.49-.12 2.93-.16 3.06-2.1.18-2.68 1.87-4.18 4.02-5.38.95-.53 2.12-1.1 1.5-2.48-.55-1.24-1.78-1.07-2.89-.86a27 27 0 0 0-7.5 2.69c-2.13 1.12-4.24 1.03-5.73-.34-2.61-2.42-5.4-2.59-8.69-2.3-2.93.25-6.01.05-8.38-2.24q-2.96-2.85-5.67-.07c-.55.55-1.18 1.02-2.1 1.82zm-69.73-275.8c-5.29-4.8-8.5-10.64-12.55-16.02-4.26 3.15-7.9 6.66-10.77 11.17 5.64 3.7 8.09 9.87 12.54 14.32zm650.45 160.8c-1.46-2.71-2.44-5.03-2.7-7.53-.23-2.05-1.3-2.64-3.17-2.5-2.2.16-4.4.31-6.6.34-17.58.25-34.9-2.2-52.13-5.26a355 355 0 0 1-24.03-5.1c-.81-.2-2.02-.62-2.24.8-.21 1.32.88 1.46 1.83 1.56 4.56.52 8.95 1.7 13.35 2.98 15.8 4.6 31.8 7.92 48.41 6.91 9.61-.6 18.5 1.17 26.07 7.56.1.09.3.06 1.22.23zM756.93 688.85c-2.34-5.16-4.65-10.1-6.83-15.12-.54-1.23-1.25-1.76-2.49-1.51-2.76.56-5.55 1.06-8.25 1.84-1.91.55-2.69 1.83-1.77 3.97 1.84 4.32 3.48 8.72 5.25 13.08.28.72.74 1.37 1.13 2.05.66 1.14 1.52 1.41 2.75.8 3.32-1.7 6.66-3.34 10.22-5.1zM270.28 377.82c7.58-.35 14.1-2.46 20.38-5.46.86-.4 1.8-.79 2.14-1.72 1.12-3 2.61-5.92 2.88-9.47-7.58.66-14.23 3.97-21.48 4.24-1.6.06-1.8 1.48-2.04 2.75-.58 3.08-1.2 6.16-1.88 9.67zm173.14 230.2c3.23 1.72 6.38 2.18 9.34 3.13 5.24 1.7 10.55 3.15 15.82 4.73 1.09.32 2.17.75 2.94-.49 2.56-4.1 5.62-7.9 7.93-13.09-2.93.3-5.62-1.74-6.97 2.17-.5 1.43-2.1 1.06-3.28 1.35-1.35.32-2.65-1.26-4-.03.07.5.02 1.03.23 1.4 1.38 2.46-.25 3.88-1.9 5.07-2 1.45-3.2-.48-4.39-1.56-1.74-1.6-3.27-3.42-4.9-5.12-1.7-1.75-2.68-4.16-5-5.63-1.94 2.66-3.75 5.2-5.83 8.07M289.4 379.15c-4.84-.48-9.16 1.23-13.63 1.76-1.95.24-3.17 1.05-3.01 3.3.06.9-.18 1.9-.5 2.76-1.4 3.74 2.2 5.95 2.74 9.1.03.17.48.34.77.43 2.06.61 7.54-1.24 8.41-3.22 1.99-4.53 4.3-8.98 5.22-14.15zm30.16 328.29c.03.43.14 1.22.14 2 .04 2.36 1.2 2.99 3.36 2.32 2.48-.76 4.95-.47 7.49-.12q5.4.71 10.62 2.17c1.76.5 2.75 0 2.67-2a4.5 4.5 0 0 1 .21-1.87c1.14-2.63-.2-3.18-2.5-3.62-6.19-1.2-12.45-1.8-18.7-2.62-3.12-.41-3.35-.06-3.3 3.73zm128.7-187.7c0-2.88.05-4.92 0-6.95-.05-2.07.6-3.7 2.58-4.6 3.49-1.6 6.17-4.31 9.03-6.74q13.65-11.63 27.24-23.35c.46-.4 1.66-.72.82-1.7-.75-.87-1.43-.7-2.24.28-3.04 3.69-7.25 6.02-10.86 9.05-7.71 6.5-15.54 12.87-24.14 18.17-3.41 2.1-6.12 4.14-4.7 8.74.26.83-.03 1.87-.17 2.8-.25 1.6.54 2.64 2.45 4.29zM286.9 292.83c-.98-.2-1.64.25-2.24.77a4265 4265 0 0 0-16.3 14.28q-.69.64-1.15 1.45c-.33.6-.05 1.22.26 1.77.4.7 1.09.7 1.6.37 2.5-1.6 5.58-1.91 7.89-4.01a43 43 0 0 1 7.54-5.63c3.15-1.77 4.19-3.93 2.84-7.26-.23-.57-.31-1.2-.44-1.75zm353.79-192.46a31 31 0 0 1 10.76 2.78c.74.36 1.58.55 2.23 0 3.27-2.75 6.97-5.03 9.86-8.54-2.3-1.08-4.1-1.94-6.18-2.21-.1 1.72 2.18 1.8 2.07 3.72-5.24 2.5-8.32-2.57-12.53-3.91zm14.26 675.37c-.53-4.57.2-8.66-4.17-10.64-.35-.17-.55-.74-.76-1.15-.73-1.42-.45-3.82-2.82-3.68-1.84.11-3.82-.46-5.52.55-1.42.84-3.27 1.1-4.35 2.97zM216.9 874.43a6.9 6.9 0 0 0 6.49-6.34c.1-3-3.26-5.67-7-5.6-3.32.07-6.65 2.86-6.65 5.57 0 2.96 3.87 6.41 7.16 6.38zm1.89 59.46c-.08-2.67-2.81-5.19-5.62-5.15q-6.52.08-6.34 4.53c.13 3.24 3.85 6.78 6.85 6.54 2.54-.2 5.19-3.28 5.1-5.92m372.87-808.64.95-.05c.26-2.16.53-4.4-.13-6.48-.84-2.65-.21-4.3 2-6.03 7.22-5.6 14.27-11.4 21.33-17.2 2.07-1.7 3.96-3.61 5.93-5.44-2.91.29-4.85 1.89-6.7 3.48a513 513 0 0 1-23.17 18.68c-1.2.92-3 1.6-2.56 3.59.7 3.17 1.56 6.3 2.35 9.45M214.12 906.19c3.69-.1 6.18-2.9 6.07-6.85-.07-2.78-1.07-3.65-4.19-3.61-4.28.05-7.44 2.34-7.49 5.44-.05 2.75 2.57 5.1 5.6 5.02m274.81-375.57c-7.83-.85-15.29-1.68-22.76-2.44-1.5-.16-3.43-.65-3.61 1.74-.21 2.64 2.03 1.85 3.37 2 6.7.75 13.43 1.25 20.1 2.15 2.99.4 3.12-1.04 2.9-3.45m153.72-419.25c-3.23-.37-6.17-.77-8.47-2.88-.53-.48-1.25-.47-1.68.07-1.66 2.12-4.67 3.02-5.62 5.84 2.65.77 5.05 1.47 7.46 2.13 1.05.29 2.24.84 3.15 0 1.66-1.55 3.9-2.58 5.15-5.15zM259.06 739.16c1.78 1.47 3.78 2.12 5.23.65 2.08-2.13 3.95-2 5.93-.35 2.54-3.52 1.8-6.58-.12-9.9-4.53 2.47-7.85 5.87-11.04 9.6m312.1-287.26c3.83-1.32 7.68-2.59 11.47-4a8.6 8.6 0 0 0 3.44-2.42c.43-.5.67-1 .37-1.68-1.52-3.42-5.24-4.08-7.34-1.1-2.3 3.24-5.12 5.9-7.95 9.19zm-316.1 279.87c-6.9-5.43-9.12-5.6-12.96 2.43 2.03.31 4.02.51 5.97.95 4.6 1.02 4.58 1.07 7-3.39zm-17.12-55.29c-5.86.85-10.25 4.06-15.12 7.3 2.78 1.64 3.69 3.93 5.61 6.12 1.54-5.88 6-9.27 9.5-13.42m424.31-350.84.83-.64c-2.35-2.64-4.67-5.31-7.06-7.9-2.56-2.79-5.07-5.63-7.84-8.2-2.53-2.35-4.33-5.71-8.13-6.63-.42 1.12-.05 1.97.4 2.42 7.24 7.02 14.52 13.97 21.8 20.94zm-68.52 142.48c1.32.17 2.44-1.32 1.97-2.96-.81-2.86-2.27-5.46-3.87-7.96-.81-1.28-1.92-2.1-3.52-1.39-1.42.65-2.38 3.02-1.62 4.39 1.6 2.88 4.02 5.14 6.2 7.56.18.2.55.24.83.35zm-159.39-24.2c-1.85-5.68-17.84-29.12-21.2-31.23 6.03 11.1 13.9 20.99 21.2 31.22m109.75 351.26c.14-.06.3-.08.4-.17 4.29-3.94 8.6-7.86 12.83-11.86 1.13-1.07.76-2.33-.34-3.29-1.08-.93-2.08-.47-2.87.47a2092 2092 0 0 0-10.48 12.78c-.27.33-.5.82-.5 1.22 0 .47.4.83.95.85zm-86.84-80.5c14.67 6.14 28.9 13.25 43.31 19.96-9.37-6.78-37.13-19.48-43.3-19.95M685.67 135.3c1.71.88 3.3-.35 5-.14 9.91 1.26 7.67 1.05 7.17-7.09-.03-.43-.05-.92-.88-1.24-4.15 2.06-7.17 6-11.29 8.47m-174.8 185.73c8.19.92 15.3-1.47 21.6-6.63.6-.5 1.14-1.15.26-1.93-.83-.74-1.47-.07-2.06.34a32.7 32.7 0 0 1-17.51 6.13c-1.08.05-2.3.04-2.3 2.1zm19.84 194.82c-1.19-.8-1.96-.53-2.7-.33-6.53 1.73-13.16 2.86-19.78 4.05-1.54.28-3.1.43-4.65.68-.64.1-1.3.44-1.3 1.13 0 .92.78 1.26 1.6 1.36q.49.07.94 0c8.8-1.24 17.2-3.93 25.89-6.9m-27.27-33.27q-4.34-1.62-8.67-3.28c-4.21-1.62-5.03-1.23-7.04 3.56 5.18.85 10.32 1.94 15.71-.28m210.02 523.14c-1.35-11.4-5.48-21.87-11.16-31.76a1259 1259 0 0 0 10.58 30.54c.15.42.38.82.58 1.23zM263.86 725c-1.55-1.86-3.8-2.28-5.54-3.5-2.23-1.56-3.77-.36-5.4.95-.99.79-.91 1.43.07 2.18q2.71 2.12 5.42 4.34zm-11.19 29.24c-4.13-1.28-8.31-.86-12.45-.8-7.45.1-9.77.86-11.97 3.48 8.39-.33 16.44-1.14 24.43-2.68zm91.8-627.3c4.21-.7 8-2.43 11.76-4.23 3.28-1.57 3.33-1.94 1.6-5.67-4.57 3.13-9.4 5.89-13.36 9.9m264.52 199.35c-5.22 0-4.7-3.27-4.53-6.27.06-1.1.32-2.17.47-3.26.12-.93.28-1.89-.19-2.78-.37-.7-.83-1.37-1.77-1.3-.72.05-1.15.64-1.28 1.2-.85 4.15-.77 8.21 1.88 11.75 1.15 1.56 2.8 2.31 5.42.67zM265.5 304.2c2.74-.75 3.97-3.31 6.1-4.8 2.18-1.54 4.28-3.2 6.56-4.57 4.18-2.52 4.22-2.45 5.57-5.2a42.4 42.4 0 0 0-18.23 14.56zm130.36 40.98c-.35-1.86-1.24-3.5-2.89-4.55s-2.92-.25-3.98 1.18c-1.05 1.4-.39 2.24.72 3.11.86.67 1.64 1.47 2.47 2.17.73.61 1.55 1.17 2.53.63.92-.51 1-1.52 1.14-2.54zm-134.7 373.1c1.97 1.79 3.52 3.33 5.24 4.68 1.44 1.13 2.87.54 2.9-1.2.09-6.32.87-7.2-6.1-4.8-.43.15-.78.5-2.04 1.33m39.97-447.5c1.48-3-.52-14.12-4.3-25.7-.12 9.26 3.61 17.2 4.3 25.7m52.07-94.05c1.95 1.05 3.97 1.17 5.92 1.3 2.05.11 2.93 1.12 3.55 2.98 1.22 3.58 2.32 7.25 4.57 10.42a59 59 0 0 0-1.65-6.75q-2.56-8.64-11.8-8.32c-.12 0-.24.14-.6.37zm-182.1 724.1c-1.83.43-3.68.76-5.45 1.34-1.41.46-2.6 1.31-1.8 3.14.68 1.5 1.9 1.49 3.17.92a76 76 0 0 0 5.03-2.52c.66-.37 1.38-.92 1.02-1.85-.33-.84-1.07-1.06-1.96-1.02zm521.8-109.53c-5.81-5.98-15.72-12.14-19.4-12.39 6.02 5.13 12.88 8.5 19.4 12.4M334.16 245.47c-2.49-3.44-4.95-4.56-7.91-4.52-1.08.02-2.25.4-2.16 1.9.07 1.24.07 2.62 1.88 2.62zm110.89 249.5a11 11 0 0 0-5.73-5.27c-1.17-.48-2.65-.73-3.39.52-.74 1.29.2 2.48 1.28 3.16 2.26 1.43 4.63 2.62 7.84 1.58M283.69 313.03c-4.98 1.39-9.12 4.17-13.38 6.7-.64.37-1.4.98-.82 1.85.57.83 1.38.37 2.09.04 4.56-2.14 8.36-5.4 12.12-8.6m609.68-95.23c1.17-3.29.44-6.26-1.95-7.72-1.12-.7-2.32-.95-3.26.38-.96 1.35-1.12 2.75.6 3.45 2 .82 3.13 2.5 4.61 3.9M274.21 409.05c2.75-1.69 3.7-3.88 4.96-5.8 1.27-1.9-.48-2.46-1.62-3.06-1.38-.73-2.53-.19-2.74 1.4-.3 2.3-.39 4.63-.6 7.46M644.65 186.5c-4.9-4.73-8.83-10.67-15.38-13.55 5.52 4.07 9.84 9.47 15.38 13.55m-236.2 55.65c-1.28-.8-2.66-.42-3.98-.33-1.22.08-1.84.86-2.16 2.04-.43 1.62.95 1.68 1.77 2.2 1.07.66 2.05.6 2.65-.69.51-1.09 1.68-1.82 1.71-3.22zM238.92 739.46c4.2.3 6.7-.1 10.26-1.66-8.73-1.78-8.93-1.75-10.26 1.66m90.29-508.7a9.9 9.9 0 0 0 8.43 2.9c-1.9-4.3-5.4-3.02-8.43-2.9m-8 332.95c2.06 1.44 4.08 2.06 6.09 2.73.87.3 1.44.1 1.93-.65.45-.68.72-1.37.44-2.17-.35-1-1.16-.84-1.91-.68-2.03.46-4.23-.27-6.55.76zm120.92 5.9c2.27 1.4 3.88 1.08 5.64.86l.39-6.9c-2.2 2.42-2.84 5.16-6.03 6.03M312.75 323.4c-3.21-3.5-4.96-3.55-10.28-.4 3.58.2 7.12-2.82 10.28.4m-32.67-.72c-3.73 1.1-7.09 2.82-9.74 5.75 3.79-1 6.85-3.24 9.74-5.75m229.98-20.99c-.97-2.64-2.03-5.21-5.81-4.74 1.11 2.9 3.49 3.78 5.8 4.74M318.12 421.44c.35-2.66.18-4.62-.66-6.51-.33-.73-.7-1.45-1.54-1.49-.9-.04-1.26.76-1.63 1.43-.4.7-.52 1.44-.24 2.22 1.06.06 1.16-1.47 2.17-1.37 1.61 1.41.98 3.51 1.91 5.72zm13.29 84.63c-3.74-1.76-8.65-1.58-12 .33 4.24-.4 8.09-2.06 12-.33m121.79-31.15c1.3-.57 2.72-1.17 3.13-2.86.17-.67-.24-1.2-.92-1.33-2.03-.4-2.53 1.32-3.33 2.55-.4.6-.04 1.16.55 1.52.12.08.3.07.57.13zm139.9-346.85c.65 2.72 1.06 5.61 4.38 6.45.41.1.89-.04 1.34-.07-.14-.21-.23-.53-.42-.6-2.8-1.05-3.12-4.19-5.3-5.78M681 199.7c-3.17-1.39-6.35-2.8-9.87-3.05a29 29 0 0 0 9.87 3.05m-17.09 74.23c.13-1.95.37-3.16-.83-4.05-.75-.54-1.57-1.2-2.38-.3-.67.76-.6 1.81.12 2.47.76.69 1.77 1.1 3.09 1.88m-359.08-58.76-8.64 1.26c3.1.86 6.1.83 8.64-1.26m363.03-48.55c-4.01-2.95-4.31-3.06-7.9-2.9a29 29 0 0 0 7.9 2.9M346.8 271.36c-.4-1.8-.28-3.65-.25-4.57.47.89-2.5 2.98.25 4.57m-10.23 204.9c1.75.3 3.2.13 4.07-1.5.37-.67-.06-1.24-.55-1.59-.8-.55-.95-.05-.98.69-.07 1.5-1.9 1.22-2.53 2.4zm40.87-230.5q-3.52.96-6.88 3.62c2.7-1.25 4.87-1.93 6.88-3.63m-55.64 94.33c-1.15 2-2.32 4.1-2.06 6.64 1.02-2.06 2.34-4.01 2.06-6.64m15.6-147.83c.22.6.45.72.66.47 1.51-1.76 2.67-3.7 2.52-6.25zm-58.7 118.26q4.21-.96 7-3.77c-2.66 1.02-4.9 1.73-7 3.77m340.17 537.63q-1.04-3.4-4.1-5.99c1.03 2.4 2.57 4.14 4.1 5.99m121.2-185.57q1.5 4.73 3.84 4.66c-.62-2.08-2.42-3.22-3.83-4.67m-42.2 135.75q-.34-3.3-2.58-4.59a10 10 0 0 0 2.59 4.59M507 315.23c.71 2.23.89 4.48 1.13 7.44q.49-5.3-1.13-7.44M320.61 444.3q.23 0 .46.03l-.21-4.55-.24.02zm-43.33-2.45c.23-2.63.69-4.28-1.17-5.79zm-116.5 527.26c.57.42.98.92 1.51 1.07 1 .28 1.31-.66 1.45-1.3.13-.58-.42-1.31-1.02-1.15-.66.17-1.2.83-1.95 1.38m562.74-324.6q1.67 2.05 3.66 2.57c-.96-1.18-1.52-2.71-3.66-2.56M270.04 315.39c-.11-.88-.8-.97-1.36-.95-.84.05-1.45.55-1.4 1.46.02.62.28 1.3 1.05 1.22 1.02-.1 1.6-.75 1.71-1.74zm443.5 505.29c.27-1.62.25-2.87-1.47-3.61zM382.04 238.7c-.38.14-1.14.26-.92.62.43.72.96 1.6 1.94 1.66.54.03.5-.62.5-1.02-.04-.96-.65-1.27-1.51-1.26m-48.4 224.61 2.5 2.82c.62-2.23-.5-2.69-2.5-2.82m-13.84-34.17.14-2.39h-.26zm341.87 339.72c.88 2.35 2.2 2.53 3.92 2.72-.97-1.48-2-2.16-3.92-2.73m35.13-573.6q-1.5-.3-1.76.7c-.17.6.02 1.23.86 1.3.68.05 1.23-.26 1.47-.85.32-.77-.24-1.06-.57-1.15m81.2-2.28c.76-.85 2.1-1.5 1.9-3.23-1.24.9-1.94 1.81-1.9 3.23m-240.78 288.8c-1.28-.4-2.2-.08-2.81 1.36zM426.37 106.78c.87.8 1.75-.18 2.6.05-.86.07-1.7-.73-2.6-.05M272.6 331.98c-1.08.31-2.34 0-2.58 1.52 1.18.13 1.93-.45 2.58-1.53m382.35-173.63c1.97.26 2.77-.49 3.77-1.42-1.69-.48-2.57.26-3.77 1.43M159.58 951.48c1.62-.15 2.37-.59 2.8-1.54-1.2-.34-1.92.3-2.8 1.54M593.7 156.83c-.54-.28-1.03-.62-1.56-.78-.25-.07-.3.32.02.62l.92.86zm-108.86 362.6c-.9-.4-1.78-.89-2.46.3.85.2 1.72.55 2.46-.3m123.4-383.5-.8.3c.29.05.58.14.87.12.26-.02.5-.16.75-.24zm-76.92-16.82c-.28-.14-.55-.4-.78-.37-.45.06-1.43-.27-1.18.48.16.47 1.3.54 1.96-.11m-5.37-.87c-.85-.52-1.46-1.31-2.63-1.02.65.93 1.33 1.54 2.63 1.02m-57.81-14.45c-1.43-.1-2.17-.52-2.79.24.76.44 1.5.37 2.79-.24m118.61 700.89q-.31-.31-.65-.56c-.07-.05-.2 0-.31.01q.3.31.63.6c.06.05.21-.02.33-.04zm-83.52-68.56c.66.9 1.26 1.63 2.63 1.18-.75-.74-1.24-1.71-2.63-1.18"/><path fill="#000" d="M352.73 857.52c.03 2.1 1.69 2.05 3.04 2.12 3.63.18 7.12 1.47 10.79 1.3.6-.03 1.23.16 1.8 1.4-3.45.75-6.72-.38-9.94-.33-1.73.02-3.45-.2-5.17-.32-1.9-.13-1.47 1.72-2.22 2.57-.7-.9.3-2.63-1.61-2.96-2.18-.39-4.38-.85-6.56-.57-2.1.28-3.6 1.91-5.2 3.14-2.52 1.96.08 3.67.7 5.32 1.31 3.49 2.86 6.89 3.19 10.8-1.9-3.3-3.73-6.65-5.7-9.9-2.13-3.5-2.19-3.46-5.59-1-13.85 9.96-26.46 21.36-38.55 33.35-4.92 4.88-9.68 9.93-14.65 14.76-1.67 1.62-2.01 3.18-1.75 5.44 1.78 15.52 4.86 30.79 8.48 45.95.29 1.2.45 2.43.68 3.72-1.6.24-1.63-1-1.88-1.68-4.5-12.09-9.33-24.1-11.05-37.01-.23-1.72-.34-3.45-.6-5.16-.68-4.58-1-9.06-3.11-13.53-3.86-8.18-3.83-17.1-2.19-25.96.23-1.22 1.23-1.7 1.92-2.5 1.39-1.67 3.34-2.83.9-5.96-2.25-2.89-1.18-7.3.05-10.97.4-1.2 3.98-2.64 5.27-2.18 2.3.8 1.93 2.5 1.38 4.27-.14.43-.02.93-.02 1.41 1.04.17 1.39-.6 1.79-1.14 19.34-25.12 43.1-45.4 69.18-63.14 7.43-5.05 15.14-9.64 23.43-13.2 3.22-1.4 5.17-3.84 4.92-7.64-.57-8.52-.08-17 .89-25.47.22-1.87.24-3.9 1.77-5.19.9-.75 2.01-1.8 3.36-1.41 1.48.43 1.45 1.88 1.52 3.15.36 6.77.08 13.53-.53 20.28-.36 3.91-.87 7.81-1.28 11.72-.1.94-.05 1.84.72 2.61 2.13 2.11 2.63 4.92 3.28 7.7 2 8.59 3.56 17.26 4.94 25.96.46 2.87-.2 5.14-2.62 7.07-2.48 1.99-5 3.75-7.91 5.05-7.78 3.48-15.01 8-22.41 12.18-2.63 1.49-2.59 3.97-3.57 6.11-.3-1.02.47-2.17-.46-3.28-.92.52-1.9 1-2.8 1.61-.96.68-2.35.95-2.62 2.43q3.63.54 6.02-.91zm-30.47-19.57c-.76-.13-1.2-1.48-1.82-1.01-1.17.87.35 1.39.64 2.05.24.53.76.92 1.16 1.37l.44.43c1.62 1.03 3.13 2.35 5.26 2l-.15-.08c.73 1.4-.53 2.27-.92 3.38 4.28 1.26 4.19 1.23 5.96-2.63 1.35-2.97 2.96-5.83 4.7-9.19 1.43 2.16 2.98 3.84-.12 5.08-1.41.56-1.16 1.76-1.54 2.66-1.1 2.59-1.94 5.28-2.85 7.85-7.1-1.03-13.92-1.94-20.72-3.05a5.7 5.7 0 0 0-5.47 1.83c-10.42 10.54-20.42 21.44-29.18 33.42-2.58 3.54-6.21 6.77-7.43 10.74-1.23 4-.06 8.73.06 13.14.08 2.91-.3 5.9 1.34 8.54 1.3.25 1.66-.82 2.24-1.49 8.46-9.8 17.95-18.58 27.62-27.13 23.52-20.79 50.12-36.98 77.8-51.47 1.78-.93 2.74-1.9 2.7-3.89-.03-3.87-.05-7.7-1.93-11.29-1-1.93-1.61-4.1-2.37-6.16-1.65-4.54-3.27-9.1-5.07-14.1-17.34 8.4-32.08 19.77-46.46 31.78 1.32 1.42 2.96 1.5 4.32 2.27-1.1-.01-2.16-.21-3.23-.39q-6.33-1-5.12 5.45zm-.38 6.76q-3.79-4.46-8.22-1.8c2.71.58 5.06 1.1 8.22 1.8"/><path fill="#000" d="M424.66 973.53c-3.4-.55-4.2-2.64-5.04-4.66-2.7-6.57-4.43-13.46-6.36-20.27-5.03-17.73-9.36-35.63-12.1-53.88-.25-1.7-.41-3.4-.7-5.8a469 469 0 0 0-80.23 59.72C332.47 954.37 333.33 965 333 976c-.11 3.9-.34 7.87-1.48 11.67-3.08 10.28-9.46 17.65-19.41 21.75-4.44 1.82-7.24 1.48-11.47-.94 0-.61.42-.81.9-.72 11.89 2.06 20.01-5.07 24.5-14.5 4.77-10.04 5.69-20.86 3.27-31.8-1.03-4.67-3.47-8.41-8.04-10.45-1.57-.7-2.84-.72-4.28.57-8.66 7.82-16.75 16.22-24.88 24.57-1.96 2.01-2.5 4.43-.92 7.31 3.68 6.73 4.3 14.41 6.33 21.66.3 1.07.33 2.29-.83 2.95-1.39.79-2.45 0-3.26-1.06-4.7-6.06-7.77-12.96-9.73-20.3-.72-2.67 1-5.2 2.17-7.6.9-1.82 1.87-3.52 2.09-5.64.27-2.63 2.19-4.52 3.77-6.43 6.45-7.79 13.82-14.68 21.47-21.25 24.95-21.4 52.04-39.8 80.1-56.8 2.16-1.31 4.93-2.18 6.08-4.36 1.3-2.48-1.4-4.47-2.24-6.68-4.33-11.21-7.17-22.82-9.57-34.54-.43-2.13-.56-4.37-3.34-5.06 5.06-3.64 8.35-3 10.62 2.05a52 52 0 0 1 2.64 7.56c3.04 10.92 6.27 21.78 10.9 32.17.88 1.98 1.6 3.85-.16 5.65-.94.98-.59 1.94-.39 3.05 4.26 23.53 8.9 46.98 14.28 70.28 1.05 4.56 1.64 9.22 2.54 14.41zm184.88 33.62c-1.45-3.47-1.32-6.96-1.87-10.28-3.28-19.42-10.1-37.66-18.17-55.5-4.35-9.61-8.9-19.14-12.49-29.07-1.03-2.85-3.22-4.1-5.6-5.38-9.83-5.3-19.73-10.5-29.46-16.01-17.97-10.17-35.04-21.78-52.3-33.06-20.6-13.44-40.86-27.33-59.87-42.96-8.52-7-17-14.07-24.1-22.61-1.6-1.94-3.24-3.9-3.84-6.44-.2-.86-.53-1.96.65-2.43.92-.36 1.44.45 1.93 1.02q5.95 6.73 12.63 12.75c17.6 15.82 36.31 30.22 55.76 43.66 21.39 14.76 42.92 29.32 65.29 42.6 10.83 6.42 21.67 12.99 33.21 17.96 6.46 2.79 9.57 7.03 11.11 13.26.2.75.5 1.48.8 2.21.1.29.29.56.67 1.27 2.24-1.24 4.49-2.52 6.75-3.74 3.05-1.65 6.03-3.45 9.19-4.86 2.64-1.18 5.37-1.64 7.9.72 8.66 8.08 18.57 14.57 27.93 21.76 10.12 7.77 20.18 15.62 29.63 24.2.97.89 3.08 1.8 2.04 3.2-1.3 1.74-2.79-.08-3.96-1-14.54-11.35-29.89-21.57-44.85-32.34-4.74-3.4-9.49-6.8-13.68-10.88-1.54-1.5-2.73-1.57-4.52-.57-4.39 2.46-8.78 4.93-13.52 6.71-1.8.68-2.09 2.42-.48 3.02 1.79.67 2.34 1.97 3 3.33 8.13 16.94 15.28 34.24 18.35 52.92 1.25 7.6 2.54 15.21 2.43 22.96-.02 1.08.14 2.19-.56 3.57zm69.03-516.62c1.63-.09 3.6.59 5.57 1.1a283 283 0 0 1 32.88 10.23 38 38 0 0 1 10.39 6.37c3.1 2.57.46 5.14.33 7.6-.1 1.88-2.43 2.13-4.17 2.31-2.41.25-4.74-.32-6.95-1.1-12.18-4.26-24.3-8.7-36-14.16a34 34 0 0 1-6.06-3.63c-1.85-1.39-2.47-4.55-1.63-6.45.78-1.76 2.3-2.45 5.65-2.28z"/><path fill="#000" d="m476.63 823.72 54.35 32.7c-.8 1.63-1.75.72-2.48.4-8.66-3.81-16.9-8.43-25.23-12.89a520 520 0 0 1-33.54-19.35c-.8-.5-1.62-1-2.36-1.58-.9-.73-2.68-1.08-2.02-2.7.52-1.29 2.08-1.41 3.33-1.33 4.86.28 9.73.6 14.58 1.08a621 621 0 0 1 36 4.87c10.42 1.65 19.2 6.37 27.47 12.64 13.76 10.44 26.39 21.96 36.36 36.15a92 92 0 0 1 11.78 22.54c.84 2.4.82 2.4.54 5.72-2.96-2.57-4.48-5.85-6.05-9.02-4.62-9.34-9.89-18.29-16.44-26.41-9.92-12.33-21-23.48-34-32.6-3.6-2.53-7.27-4.4-11.93-5.05-12.78-1.77-25.54-3.6-38.37-4.87q-5.84-.55-11.72-1.07zM422.25 985.8a294 294 0 0 0-24.35 23.91c-3.6 4.01-7.3 5.53-12.68 4.11 2.13-4.3 5.5-7.61 8.37-11.24 4.68-5.92 9.9-11.38 15.08-16.89 3.9-4.12 9.08-6.1 13.44-9.4 1.7-1.3 3.01.04 2.91 1.51-.22 2.85 1.55 4.17 3.23 5.84a24 24 0 0 1 5.37 8.27 66 66 0 0 1 4.2 19.26c.21 3.03.12 3.04-3 3.13h-.46c-3.8.01-3.85.03-4.77-3.57-1.28-5.04-2.45-10.1-3.75-15.12-.85-3.32-1.55-6.72-3.58-9.8zm131.83-274.5c-2.88 1.95-5.4 1.47-7.82 1.12-7.1-1.02-13.61-3.84-20.05-6.81-12.3-5.68-24.16-12.22-36.1-18.6l-2.06-1.16c-2.29-1.31-5.62-1.64-6.74-3.93-.98-2.04-.2-4.92-.26-7.42-.1-3.29.9-6.58-.03-9.87-.2-.74.18-1.27.8-1.46.36-.1 1.05.1 1.23.38 1.65 2.65 4.6 3.12 7.08 4.33a21283 21283 0 0 0 54.4 26.39c4.1 1.99 8.27 3.84 12.45 5.68 1.28.57 2.65 1.05 4.03 1.29 3.11.55 4.38 2.23 3.16 4.83-1.38 2.94-3.72 5.06-6.53 6.65-.61.33-1.2.37-1.73-.1-.66-.6-.79-1.37-.24-2.1a91 91 0 0 1 3.18-4.1c1.37-1.61 1.13-2.67-.83-3.6q-9.4-4.43-18.7-9.01c-17.67-8.65-35.83-16.28-52.75-26.41-.69-.42-1.34-.83-2.33-.55-.71 3.43-1.47 6.95-2.15 10.47-.24 1.27-.25 2.26 1.54 2.77 9.15 2.63 17.24 7.6 25.61 11.96 8.93 4.66 17.68 9.67 26.73 14.07 5.45 2.65 11.17 4.94 18.1 5.18zm185.6-250.7c-1.52 4.78-2.73 8.99-3.98 13.16-1.16 3.84-4.03 4.18-6.95 4.7-2.04.35-3.42-1.37-3.32-4.07.18-5.09 1.74-9.86 3.62-14.53.47-1.17 1-2.3 1.67-3.84-3.65-1.1-7.18-2.1-10.68-3.21a65 65 0 0 1-5.27-2.01c-.62-.26-.88-.92-.71-1.58.16-.67.73-1.06 1.39-1.04 1.08.03 2.2.07 3.25.32 3.53.81 7.04 1.65 10.52 2.6 2.42.66 4.7 1.33 7.35.8 2.82-.57 3.32 3.67 6.2 3.55.74-.04 1.49.47 2.45-.06.25-3.76-.27-7.71.84-11.54.3-1.08.32-2.33 1.76-2.3 1.15.02 1.24 1.19 1.59 2.05.85 2.15.58 4.33.17 6.5-.43 2.28-1.02 4.54-1.54 6.8 4.38 1.81 6.31 5.07 6.49 9.28.08 1.86-.67 1.68-1.77 1.77-1.51.12-2.75-.63-3.99-1.28a52 52 0 0 1-4.45-2.65c-1.42-.95-2.77-2.02-4.64-3.4zM541.83 997c-1.86-.72-2.46-2.04-3.27-3.1-12.04-15.59-25.26-30.16-38.77-44.46-14.85-15.73-38.67-44.52-51.52-62.9 1.85-.53 2.61.94 3.5 1.82a177 177 0 0 1 12.41 13.6c18 21.9 36.86 43.05 55.17 64.67a454 454 0 0 1 19.42 24.97c1.13 1.56 2.49 3.08 3.06 5.4m141.02-163.32c-13.09-10.57-26.71-20.42-40.32-30.26-7.52-5.44-15.05-10.85-22.26-16.71a86 86 0 0 1-10.89-10.46c-1.07-1.25-3.28-2.94-1.41-4.84 2.1-2.12 3.23.6 4.53 1.64 10.9 8.78 21.85 17.5 32.63 26.43 13.08 10.82 26.05 21.79 37.72 34.2m-50.5-135.91c.24 1.93-.59 2.87-1.44 3.83-2.21 2.5-4.9 4.45-7.5 6.47a1135 1135 0 0 0-30.84 24.95c-.83.7-1.85 2.47-2.96 1.37-1.25-1.22.53-2.13 1.35-2.95 11.2-11.3 22.74-22.24 35.14-32.25 1.2-.97 2.57-1.74 3.92-2.52 1.84-1.07 2.05.42 2.34 1.09zm126.74 316.06c-1.73-.59-1.6-2.28-1.98-3.52a501 501 0 0 0-22.99-58.83c-.99-2.13-1.78-4.36-2.58-6.58-.12-.35.06-.98.33-1.25.58-.55 1.18-.18 1.56.35.62.9 1.17 1.86 1.72 2.8 5.69 9.86 9.9 20.37 13.63 31.06a470 470 0 0 1 9.97 31.96c.35 1.28 1.27 2.55.35 4.01zM376.57 866.85c-2.8-6.9-7.2-13.05-7.97-20.97 2.12.5 2.76 2.05 3.43 3.27a535 535 0 0 1 7.6 14.67c1.04 2.08.35 3.55-1.78 4.54-10.4 4.86-19.94 11.5-30.98 15.01-1.12.36-2.13 2.54-2.84 1.34-1.15-1.9 1.27-2.54 2.47-3 9.77-3.67 18.52-9.4 27.98-13.68.7-.32 1.35-.75 2.1-1.19zm38.16-185.79c-8.89-8.45-17.45-17.13-24.62-27.21-5.75-8.07-6.22-15.64-.66-23.86 3.36-4.96 6.63-9.94 11.02-14.07.52-.48.92-1.25 2.22-1.02-.43 1.58-1.5 2.68-2.38 3.9a249 249 0 0 0-10.87 16.55c-3.53 5.83-3.51 10.85.95 16.36a537 537 0 0 0 18.56 21.35c2.19 2.43 4.8 4.53 6.2 7.6zm56.1 293.2c-2.43-.2-2.59-2.42-3.44-3.95-1.79-3.24-3.94-6.05-7.49-7.5-4.34-1.76-7.01-.44-8.1 4.05-1.74 7.14.3 13.66 3.54 19.91 1.22 2.34 2.75 4.52 4.3 7.03-3.09-1.2-5.57-3.41-5.87-5.95-.23-2.04-1.33-3.46-2.15-5.12-2.62-5.32-4.38-10.78-2.55-16.78 1.25-4.06 3.42-5.57 7.71-5.3 7.82.5 13.83 6.4 13.96 13.7l.06-.1zm-214.63-53c.91-18.63-1.53-37.25-1.69-55.92 0-.53.56-1.06.91-1.67 2.6 4.84 3.19 38.49.78 57.6m32.33-397q-1.68-4.44-6.08-4.29c-.33 1.54.85 2.83.92 4.33a8.2 8.2 0 0 1-3.11 7.02c-1.53 1.3-3.37 2.17-5.17.95-1.84-1.25-2.2-3.36-1.6-5.46.42-1.5 1.12-2.9 1.82-4.69-4.51-.92-8.25 1.23-12.35 2.56 2.18-2.9 2.23-2.8 5.31-4.07 4.86-2 10.13-1.63 15.17-2.71 3.43-.74 5.46 2.25 5.04 6.41l.06-.03zm-12.5 6.03c2 .2 5.55-3.64 5.27-5.68-.2-1.52-2.48-2.62-3.56-1.56-1.54 1.52-2.87 3.28-2.95 5.61-.03.83.28 1.51 1.24 1.63M581.3 732.66c-3.96 8.08-9.67 13.8-14.33 21.38 7.08-1.81 12.54-5.42 18.68-7.26a104 104 0 0 1-20.53 10.61c-.86.33-2 .5-2.65-.33-.69-.88.04-1.8.52-2.56 3.97-6.26 8.78-11.89 13.35-17.69 1.1-1.39 1.98-3.08 4.96-4.13z"/><path fill="#000" d="M470.75 974.35c3.64-1.2 7.34-1.85 11.13-.85 5.7 1.52 8.05 5.9 6.31 11.6a12.6 12.6 0 0 1-4.11 6.2c-5.19 4.27-11.28 5.83-18.68 6.32 1.84-2.1 3.77-1.99 5.33-2.5 3.88-1.25 7.9-1.97 11.32-4.49 2.98-2.18 4.39-4.9 3.88-8.5-.54-3.8-3.17-5.7-6.65-6.46-1.97-.43-4.05-.38-6.08-.54-.88-.07-1.94.35-2.39-.88zm218.63-134.18c2.28.57 2.46 1.89 2.81 3.07 4.75 16.07 7.62 32.48 9.29 49.13-4.27-17.22-6.95-34.78-12.1-52.2m-89.74-85.2c-2.66 4.53-7.03 7.33-10.16 11.78 2.67.02 4.24-2 7.4-2.05-4.48 2.99-8.16 5.57-11.98 7.91-1.5.93-2.68-.12-2.57-1.96.05-.83.4-1.5.88-2.14 3.6-4.8 7.51-9.32 12.4-12.87.97-.71 2.01-1.6 4.03-.68m24.12-57.48c-3.29.9-5.69-.23-8.08-.6-7.14-1.11-14.3-2.27-20.98-5.2-1.62-.7-3.63-1.15-3.51-4a422 422 0 0 1 32.57 9.8m-352.2 273.1c-4.38-11.64-11.3-21.36-15.24-32.47 1.55-1.04 2 .25 2.4.84 6 9.28 10.33 19.31 13.3 29.94.08.25-.14.58-.45 1.7zm56.5-305.27c15.2-.85 29.59 3.6 44.03 7.73-14.6-2.74-29.28-5.1-44.03-7.73m221.98 200.62c-1.33-.17-1.52-1.45-2.05-2.3a81 81 0 0 0-11.68-14.8c-.58-.57-1.37-1.03-.77-1.85.3-.4 1.12-.53 1.72-.56 1.34-.08 2.5.6 3.4 1.45 4.78 4.52 8.3 9.84 9.83 16.33.15.62.1 1.23-.43 1.73zm-76.31-95.44c-12.59-4.5-25.4-8.37-37.5-14.15 13.37 2.4 25.42 8.33 37.5 14.15m75.62-111.36c3.45-.6 6.07.74 8.18 3.43 2.22 2.82 4.54 5.53 7.43 9.04-4.84-.05-6.77-3.3-9.17-5.35s-5.5-3.73-6.36-7.23z"/><path fill="#000" d="M549.43 659.03c-4.44-.3-8.34-2.42-12.42-3.84a106 106 0 0 1-19.36-8.74c1.49-1.04 2.55.05 3.48.46A557 557 0 0 0 548 658c.58.22 1.18.42 1.33 1.14l.08-.1zm155.42 241.89 9.36 21.66c-5.28-6.3-7.85-13.78-10.25-21.33zm-397.13 86.21c-4.68 1.85-10.54.19-14.28-4.43 5.07 1.82 9.03 5.55 14.36 4.55zm55.9-130.8c-1.72-.08-3.01-.54-3.27-2.25-.13-.87.56-1.8 1.26-1.65 1.43.32 3.16.77 3.69 2.29.41 1.18-1.1 1.2-1.67 1.61m-42.7 115.04c-.24 3.5-1.6 6.23-2.84 9.28-.53-4.43.13-6.7 2.85-9.28"/><path fill="#000" d="M307.8 987.26c2.1-.67.55-3.28 2.67-4.6a5.3 5.3 0 0 1-.8 5.16c-.51.7-1.34-.22-1.94-.67zm51.66-119.72c-.2.91-.68 1.64-1.79 1.67-.63.01-1.32-.13-1.32-.92 0-1.1.82-1.6 1.8-1.74.64-.1 1.2.13 1.31.99m55.7-186.87c1.67.93 2.54 2.49 3.21 4.22-1.3-1.21-2.9-2.1-3.63-3.82zm136 330.35c.38 1.27.76 2.5-.81 3.12-.33.13-1.2-.24-1.2-.39-.02-1.34.55-2.34 2-2.73M322.11 838.07c1.28.75 2.49 1.08 3.66-.27a7.6 7.6 0 0 1 3.82-2.54c1.51-.37 2.35.44 2.68 1.84.26 1.15.36 2.22-1.37 2.14-2.43-.1-1.73 2.61-3.1 3.47l.14.08c-.02-2.02-.27-3.61-2.93-2.14-.61.34-1.54.1-2.33.14l-.44-.43.02-2.4zm543.7-516.4c0 1.03-.86 1.53-1.48 2.07-9.23 8-16.74 17.52-24.25 27.06a289 289 0 0 1-25.16 28.2 29 29 0 0 1-9.3 6.3c-17.95 7.45-36.52 10.65-55.87 7.74-5.2-.78-10.45-1.87-15.33-5.39.99-.07 1.48-.23 1.86-.1 17.23 6.05 34.7 5.15 52.18 1.58 4.6-.94 8.97-2.94 13.41-4.54 2.76-.99 4.72-3.1 6.72-5.1 14.48-14.49 28.15-29.74 42.18-44.65 4.2-4.46 8.91-8.45 13.42-12.63.4-.37.88-.93 1.63-.54m-24.86-76.59c-2.22 1.46-4.24 2.89-6.34 4.15-12.4 7.5-24.6 15.33-35.18 25.3-5.34 5.03-10.98 5.87-17.77 4a129 129 0 0 1-31.25-13.32c1.37-1.25 2.51-.52 3.55-.15 5.92 2.1 11.8 4.35 17.73 6.41a131 131 0 0 0 15.4 4.4c2.88.63 5.29.1 7.48-1.69 2.43-1.99 4.8-4.06 7.17-6.12 10.9-9.45 23.15-16.76 36.2-22.8.84-.38 1.63-1.04 3.02-.2zm-8.05 181.74c2.97-1.89 3.15-4.66 3.25-7.29.2-4.87.13-9.75.15-14.63 0-.8-.12-1.58-.06-2.35.04-.43.24-1 .84-.89.42.07.94.26 1.15.57.34.5.6 1.14.64 1.73.48 6.76.82 13.54-1.22 20.12-.56 1.84-1.36 4.11-4.75 2.74M686.15 317.46c6.03 1.65 9.11.9 10.52-2.62 1.64-4.1-.27-8.12-5.43-11.48 4.35.03 6.78 1.68 8.08 5.46a8 8 0 0 1-2.95 9.17c-3 2.02-7.05 1.8-10.21-.53zm110.3-17.85c4.09.05 7.58-1.47 11.28-1.79a15.3 15.3 0 0 1-8.6 3.19c-3.18.22-5.26 1.45-7.24 3.73.69-4.44 2.93-8.1 5.49-11.58.2-.28.9-.42 1.25-.3.67.23.87.96.6 1.54-.81 1.66-1.73 3.26-2.77 5.2m10.08 113.28c3.82-2.91 27.44-14.2 30.67-14.75-10.15 6.11-20.1 11.1-30.67 14.75m-58.25-78a73 73 0 0 1 13.43-4.18c5.4-1.08 8.74.91 11.12 6.64-1.6 0-2.29-1.12-2.9-1.98-2.08-2.99-4.98-3.72-8.3-3.04-3.83.78-7.62 1.75-11.43 2.65-.6.14-1.2.46-1.92-.1m148.54-16.07-4.8 8.04c.75-5.69 1.93-7.52 4.8-8.04m-45.36 65c-.8 2.05-2.62 3.16-4.21 4.5 1.05-1.82 1.89-3.8 3.88-4.82zm17.38-64.26c-.28-1.59.58-1.85 1.08-2.3a7 7 0 0 1 3.7-2.01zm15.62-50.44c-2.2-1.43-1.65-4.4-3.43-6.08l-.08.04c.79-.28 1.5-.22 1.8.67.6 1.8 2.23 3.27 1.65 5.42zm-97.04 42.83c0 .2.05.35 0 .44-.58.86-1 2-2.39 1.62-.2-.05-.47-.53-.42-.75.34-1.7 1.53-1.58 2.82-1.32zm-47.48 25.63c-1.32.96-2.38 1.6-4.04 1.4a5.3 5.3 0 0 1 4.04-1.4m138.02-26.34a3.6 3.6 0 0 1-2.8 2.24c.5-1.46 1.79-1.67 2.8-2.24m3.07-48.2-1.23-4.48q1.56 2.26 1.17 4.51zm-349.72-58.28c-4.92 3.19-10.58 4.7-15.92 6.88-28.13 11.45-55.61 24.33-83.13 37.15-1.48.69-3.7 2.56-4.59.93-1.14-2.08 1.7-2.86 3.17-3.75 13.1-7.93 27.03-14.16 41.05-20.2 17.92-7.73 36.39-14.02 54.92-20.11 1.5-.5 2.97-1.1 4.6-.8zM594.77 282c-1.97-2.62-1.62-4.9-1.65-7.05-.1-5.83.17-11.68-.1-17.5-.35-6.92 2.93-11.69 8.22-15.48.25-.19.58-.26.83-.45.24-.18.42-.43.72-.76-6.76-19.86-20.07-35.6-33.5-51.46 1.92-.78 2.64.31 3.35.98 11.58 11.09 21.76 23.22 28.26 38.08 1.84 4.2 3.03 8.62 4.12 13.06.28 1.18-.15 1.7-1.3 2.7-4.25 3.68-8.06 7.64-6.73 14.47.97 5.02-.15 10.34-.8 15.48-.29 2.38.09 4.96-1.42 7.93"/><path fill="#000" d="M531.41 204.86c.07-1.14 1.53-1 1.8-1.96.34-1.15.22-2.86 1.99-2.69 1.84.18 3.8.45 5.23 1.84.7.68 1 1.6.53 2.59a3 3 0 0 1-2.53 1.85 4.2 4.2 0 0 1-3.13-.86c-1.23-1.08-2.6-.91-4-.9zm-55.3 217.56c-1.64.22-2.3-1.25-3.24-2.14-5.65-5.3-10.08-11.67-15.36-17.32-11.93-12.77-23.8-25.61-35.7-38.43a81 81 0 0 1-3.13-3.54c-.74-.9-1.15-2.05-.34-3.03 1.03-1.21 2.06-.12 2.87.44 1.3.88 2.5 1.93 3.62 3.03 17.17 16.94 33.78 34.37 48.05 53.91 1.22 1.68 2.06 3.52 3.11 5.27.32.52.7 1.08.1 1.82zm3.23-136.34c-1.08 3.27-2.22 6.5-2.75 9.95-1.58 10.16 1.32 18.98 7.73 26.77 12.67 15.38 29.04 20.19 48.15 16.17 6.2-1.3 11.85-4.13 15.77-9.53.55-.76 1.38-.58 2.11-.74.5 1.21-.55 1.57-1.17 2.25-10.94 12-31.3 14.52-46.46 8-7.6-3.27-14.43-7.75-19.77-14.16-6.01-7.2-8.18-15.97-8.77-25-.32-5 1.74-9.76 5.16-13.69zm11.1 88.32c-4.18-4.48-8.3-9.02-12.54-13.43-14.56-15.16-30.74-28.43-47.98-40.43-2.43-1.7-4.82-3.45-7.92-5.66 3.03-.43 4.55.91 6.16 1.85 13.84 8.04 25.94 18.3 37.48 29.29a320 320 0 0 1 23.18 24.87c.81.94 1.84 1.75 2.09 3.08zm-92.92-80.38c-.4-.24-.78-.32-.93-.56-5.16-8.04-10.9-15.71-15.24-24.25-.7-1.39-1.44-2.8-1.52-4.42-.05-.97.04-1.94 1.14-2.3.85-.28 1.53.17 2 .85.62.9 1.3 1.79 1.77 2.77l12.6 25.78c.27.56.58 1.1.17 2.13zm9.84 63.12c1.5.76 3.23.87 4.66 1.86.96.67 2.6.79 1.72 2.54-.81 1.63-2.68 1.93-4.25 1.08-2.41-1.28-2.27-3.38-2.05-5.57zm80.58-80.52-7.74 8.01c1.32-3.88 3.75-6.7 7.74-8"/><path fill="#000" d="M490.9 373.97c1.08 1 2.41 1.83 2.74 4.16a7.6 7.6 0 0 1-3.2-3.73zm-77.82-226.9c4.5.77 9.47 2.4 12.8 6.75 1.31 1.74 2.1 1.73 3.76.98a26 26 0 0 1 12.44-2.09 16 16 0 0 1 7.96 2.66c2.8 1.85 3.6 4.22 2.44 7.37a19 19 0 0 1-4.13 6.26c-6.5 7.07-14.97 10.79-23.71 14.08-4.4 1.66-9.13 2.47-13.17 4.98-2.39 1.48-3.81-.36-5.49-1.33-.59-.35-.78-1.2-.3-1.64 2.1-1.94.76-4.11.44-6.15-.8-5.13-1.66-10.25-2.74-15.33-.68-3.16-.55-6.22.06-9.35.97-4.94 3.92-7.38 9.64-7.18M354.7 725.24l-49.39-7.6c.82-2.52 2.55-2.69 4.27-2.59q3.06.15 6.06.75a6289 6289 0 0 1 35.43 7.36c1.18.25 2.57.17 3.63 2.07zm-49.54-6.35c-.06 2.5-1.47 4.17-3.37 5.54.35-2.28 1.66-4 3.36-5.53m338.9 26.36c3.27-6.57 8.76-11.27 13.83-16.31a32 32 0 0 1 7.38-5.75c1.11-.59 2.1-.71 2.84.48.66 1.05-.08 1.82-.74 2.43-6.98 6.28-13.76 12.8-21.26 18.47-.64.48-1.27.93-2.12.6zm30.08-48.54c4.91-1.1 9.71-.1 14.54.07 1.22.05 2.04.89 2.7 1.75q4.93 6.48 9.86 13.06c-1.58.94-2.27-.14-3.05-.81a60 60 0 0 1-8.61-9.34c-1.8-2.39-3.89-3.33-6.7-3.55-2.93-.24-5.84-.77-8.74-1.18m-80.45-167.67c.82-.36 1.59-1.06 2.55-.27a8.6 8.6 0 0 1 3.39 7.16c-2.9-2.04-4.2-4.7-5.97-7zm-80.21-133.47c6.68-.02 9.9 3.17 9.51 8.57-.39 5.58-5.66 10.26-10.81 9.54a13 13 0 0 1-3.17-.87c-4.12-1.65-6.32-5.1-6.12-9.11.2-4.17 3.55-6.57 8.18-7.93 1.03-.3 2.18-.19 2.4-.2m-5.55 8.2c1.31 3.24 3.07 5.04 5.85 5.71 1.72.42 3.09.07 3.56-1.94.43-1.8.01-2.96-1.94-3.53-2.32-.67-4.6-.46-7.47-.25zm30-.06c-.97 4.04-1.86 8.36-3.08 12.59-.56 1.97-2.28 2.9-4.4 2.92-2.48.03-3.76-.92-3.52-3.32.55-5.63 1.53-11.2 3.57-16.52a4.8 4.8 0 0 1 2.02-2.54c1.93-1.14 4.23-.2 4.67 1.95.31 1.53.48 3.1.75 4.92m-4.23-1.98c-.35.06-.83.02-.91.18-2.42 4.65-2.92 9.82-4.04 14.81-.2.9.59 1.4 1.45 1.44.7.04 1.19-.4 1.24-1.1.3-4.25 2.17-8.16 2.66-12.36.11-1 .65-2.13-.41-2.97zm5.88 13.45c.18-4.76 1.46-9.32 2.59-13.9.45-1.83 1.71-3 3.8-2.84.97.07 1.82.17 2.09 1.41.48 2.27 1.4 4.4.56 6.87-1.04 3.13-1.53 6.43-2.53 9.57-.59 1.81-.94 4.25-3.8 3.97-2.1-.2-2.8-1.61-2.7-5.1zm4.5-13.6c-1.1 5.12-2.1 9.76-3.06 14.4-.16.78-.12 1.6.85 1.9 1.33.39 1.5-.57 1.73-1.52.74-3.18 1.44-6.37 2.3-9.5.55-2 .18-3.54-1.82-5.29m40.88 8.78c.2 5.05-1.9 10.87-5.4 15.55 1.2-5.41 2.2-10.2 5.4-15.55m77.3-267.2c-.05 3.27-2.85 4.78-5.31 3.3a7 7 0 0 1-1.67-1.63c-3.42-4.29-6.66-8.7-9.52-13.39-.57-.94-1.28-1.89-.4-3 .75-.91 1.64-1.2 2.9-1.02 2.55.36 4.9 1.05 6.77 2.9 3.76 3.7 6.7 7.87 7.21 12.85zm6.45-32.5c1.95.07 3.7-.2 5.37.37 1.36.48 1.72 2.04.73 2.95-2.5 2.3-13.7 2.44-16.2.19-1.24-1.13-.74-1.9.6-2.36 3.16-1.1 6.45-1.09 9.5-1.16zm-347.84 54.06c.15 2.74-5.08 9.15-7.55 9.35-2.4.2-3.52-1.32-2.37-3.46 1.1-2.07 2.47-4 3.78-5.95 1.15-1.71 2.9-1.69 4.65-1.42.83.12 1.33.72 1.5 1.48zm245.51 372.37c-1.97-.11-3.58.34-4.4-1.22-.91-1.72.17-2.99 1.27-4.17 3.5-3.73 7.76-6.36 12.38-8.46 1.12-.52 1.79-.36 2.83.54 2.78 2.4 2.94 2.35.5 4.93-2.48 2.64-4.98 5.28-8.25 7-1.54.82-3.1 1.56-4.33 1.38m.57-3c4.39-.87 6.6-2.67 9.1-7.7a17.7 17.7 0 0 0-9.1 7.7m-14.54-20.12c3.4-4.31 7.83-7.29 12.91-9.32-3.76 3.8-7.97 7-12.9 9.32m47-81.01c2.7 0 4.81 1.2 5.4 3.04.45 1.4-.07 2.47-1.25 3.2-1.81 1.13-4.65.46-6.35-1.43-1-1.1-1.7-2.32-1.05-3.83.67-1.58 2.24-.53 3.26-.98M215.73 840.5c-.5-1.11-1.18-2.17-1.43-3.34-.31-1.43.64-1.87 2.28-1.55-.26 1.52-.05 3.2-.9 4.78z"/></svg>