<svg xmlns="http://www.w3.org/2000/svg" width="1080" height="1080" fill="none" viewBox="0 0 1080 1080"><path fill="#fff" d="M446.6 492.75c-10.37-5.6-20.72-11.11-31-16.8-2.2-1.22-4.14-3-6.08-4.66-2.67-2.28-2.98-5.1-.82-7.76 4.34-5.3 8.88-10.43 13.16-15.78 5.9-7.39 11.66-14.9 17.45-22.37.5-.64.97-1.32 1.32-2.05 1.46-2.99 1.06-3.68-1.9-5.18a42 42 0 0 1-7.48-4.56c-5.59-4.52-7.1-10.46-4.97-17.23 2.7-8.57 5.6-17.07 8.38-25.6 1.36-4.17-.06-8.16-4.23-9.62-14.47-5.04-21.15-16.46-25.52-30-2.5-7.78-2.68-15.64-1.98-23.72.57-6.65.14-13.4.15-20.1 0-.2.05-.46-.05-.61-3.96-6.32-6.32-13.69-11.9-18.94-5.45-5.14-11.8-7.5-19.48-5.94-4.85 1-9.74 1.13-14.07-2.35-2.5-2.02-2.84-4.6-.24-6.72 6.12-4.97 12.3-9.9 18.43-14.85.71-.57 1.32-1.25 2.23-2.1-1.64-1.37-3.13-2.57-4.56-3.82-3.25-2.84-3.24-3.78-.12-6.75q7.81-7.44 15.55-14.96c1.89-1.86 3.6-3.9 5.37-6.85-1.17-.08-2.36-.34-3.5-.2-8.04 1.03-14.85 4.74-20.96 9.87-.57.47-.91 1.18-1.42 1.74-2.67 2.86-4.96 6.35-8.19 8.33-1.84 1.12-5.56.5-7.82-.6-13.97-6.78-27.3-14.57-37.99-26.2-1.28-1.38-3.42-1.95-5.1-3-3.38-2.11-3.8-3.19-1.35-6.24 2-2.5 4.63-4.49 7.47-7.14-3.23-5.93-6.66-12.23-10.15-18.5-.24-.45-.86-.81-1.38-.96-3-.81-6.18-1.2-9-2.42-3-1.3-5.69-3.3-8.4-5.17-.4-.26-.31-1.53-.13-2.25a6.5 6.5 0 0 1 1.21-2.38c2.01-2.5 1.43-5.33-.1-7.33-1.78-2.34-4.69-3.4-7.9-2.68a1445 1445 0 0 1-19.2 4.2c-.98.2-2.06.15-3.08.03-3.19-.39-3.95-1.94-2.33-4.92-4.17 0-8.3.3-12.35-.07-6.44-.6-12.95-1.16-19.22-2.63-7.13-1.66-10.24-7.47-12.18-14.08-1.06-3.61-.66-6.64 2.44-8.93a8.5 8.5 0 0 1 3.56-1.48c6.28-1.05 12.6-1.9 18.88-2.9a3372 3372 0 0 0 28.23-4.63c3.28-.55 6.81-.7 9.7-2.11 2.31-1.14 4.22-3.68 5.57-6.02 1.59-2.72 2.54-5.86 3.49-8.9 2.5-8.03 4.73-16.15 7.33-24.15 1.36-4.18 3.27-8.18 4.94-12.26.57-1.37 1-2.81 3.13-2.32.4.1 1.45-1.14 1.64-1.9 1.25-4.88 5.45-6.77 9.13-9.09 7.08-4.44 15.24-6.12 23-8.84 8.62-3.01 17.11-6.38 25.75-9.33 2.82-.97 5.94-1.02 8.87-1.72 1.57-.37 3.04-1.2 5.2-2.08 4.98 3.01 10.64 6.32 15.65 11.12 4.02 3.85 9.79 6.27 15.18 8.23 9.83 3.56 19.97 6.3 29.96 9.42 1.43.44 2.8 1.12 4.2 1.68 4.72 1.9 9.49 3.73 14.17 5.74 2.2.95 4.6 1.91 6.25 3.53 1.51 1.5 2.58 3.8 3.02 5.93.46 2.2.14 4.64-.23 6.9a928 928 0 0 1-4.02 23.35c-.33 1.8.52 2.55 1.62 3.74a64 64 0 0 1 6.22 8.4c.42.64-.1 1.9-.24 3.27 1.9-.26 3.95-.12 5.58-.87 2.07-.96 2.86.01 3.9 1.37 2.2 2.9 2.17 4.21-.15 7.08-1.97 2.43-3.69 5.08-5.77 7.4-3.2 3.56-7.5 5.17-11.32 6.02-.81 2.61-2.1 4.87-2 7.08.07 1.77 1.86 3.45 2.8 5.22.27.51.54 1.38.3 1.76-4.03 6.43-7.47 13.28-13.75 18.06-1.48 1.12-2.18 3.27-3.24 4.96l.84 1.1c4.2-.56 8.58-.57 12.54-1.85 3.19-1.03 5.83-3.67 8.8-5.46 2.9-1.75 5.79-3.2 9.52-2 1.87.6 2.49 1.2 2.43 3.06-.12 4.02-.06 8.04-.03 12.07.01 2.09-.3 5.24 2.11 5.27 2.37.04 1.82-3.17 2.29-5.18 1.09-4.61 1.95-9.48 4.17-13.56 1.38-2.55 4.88-4.24 7.76-5.64 6.6-3.2 13.36-6.14 20.91-6.5 1.96-.1 3.9-.9 5.96-1.41-.28-8.72 5.9-12 12.7-14.45 4.63-1.66 9.45-2.76 14.23-3.95 2.73-.67 3.36-1.85 2.05-4.43a155 155 0 0 1-10.94-28.77c-2.37-8.52-4.54-17.12-7.53-25.42-2.6-7.18-6.46-13.9-9.3-20.99-2.17-5.46-3.78-11.17-5.3-16.86-.42-1.57-.21-4.2.8-5.03 1.07-.9 3.43-.3 5.22-.23 7 .27 9.42 6.09 11.64 10.92 7.03 15.32 13.12 31.07 20 46.46 4.86 10.83 10.42 21.35 15.66 32.01.57 1.17 1.17 2.32 1.63 3.54 1.65 4.28 2.77 4.38 7.27 3.94 6.27-.63 12.69-.91 18.94-.3 4.49.43 6.93 4.4 8.44 8.54 1.85 5.07 3.33 5.89 8.72 4.68l5.97-1.33c-.3-.54-.73-1.1-.96-1.75-.71-2-.7-3.68 1.95-4.24 1.34-.28 2.64-.83 3.83-1.21 2.89 2.23 5.56 5.58 8.9 6.47 2.88.77 6.5-1.26 9.18-1.9 1.9.6 3.57 1.55 5.24 1.55 5.3.01 10.59-.35 15.89-.52.54-.01 1.15.3 1.64.61 3.54 2.16 6.98 4.47 10.6 6.48 1.22.69 2.84.82 4.3.94 6.2.5 12.41.73 18.59 1.38 3.18.33 6.71-1.15 9.52 1.57.57.57 1.38.97 1.78 1.63 5.04 8.23 11.29 15.82 12.86 25.86.66 4.2 2.12 8.27 3.38 12.36.88 2.85-.37 5.08-1.65 7.4-1.6 2.93-4.35 5.75-1.8 9.37.85 1.2 2.6 1.75 3.55 2.92 2.73 3.4 5.5 6.8 7.8 10.5 2.42 3.92 4.34 8.15 6.43 12.28 1.04 2.04 2.77 3.72.77 6.57-.74 1.05 1.03 4.12 2.06 6.05.5.93 1.93 1.35 2.53 1.74.76 9.43 5.01 16.69 12.54 22.77l-2.94.26c-.27 3.02 2.42 5.7 7.5 7.5.29 1.88.68 3.77.87 5.67.28 2.75 2.53 2.94 4.43 3.31.52.1 1.74-1.05 1.9-1.79.4-1.8.36-3.71 1.1-5.55 0 3.07 1.08 6.84-.31 9.04-1.44 2.27-1.05 4.48-1.84 6.59-.2.54-.05 1.35.2 1.91 2.29 5.06 3.82 10.34 5.4 15.67 1.82 6.17 1.44 12.1 1.09 18.2-.1 1.6-.57 3.18-.78 4.26 3.22.24 6.17.91 9 .56 2.53-.32 4.84-2 7.37-2.64 2.83-.73 5.8-.93 8.7-1.4 3-.51 4.15 1.63 4.52 3.78a96 96 0 0 1 1.29 12.7c.06 1.75-.8 3.53-1.28 5.28-.98 3.6 1.28 9.28 4.57 10.58.84.34 2.2-.65 3.42-1.06.29.35.82 1.06 1.42 1.72 3.56 3.81 4.02 8.37 1.68 12.6-3.43 6.2-4.95 12.91-6.94 19.55-.94 3.17-3.05 5.98-4.32 9.07-.69 1.67-.47 3.7-1.08 5.43-3.56 10.04-10.35 17.43-19.78 22.06-6.33 3.1-13.12 5.22-19.7 7.78-4.3 1.67-8.55 3.5-12.9 5-16.48 5.66-33.6 8.83-50.51 12.73-8.81 2.03-17.8 3.26-26.64 5.19-2.35.51-4.43 2.27-6.92 3.61 2.2 2.38 4.25 4.24 5.87 6.41 2.43 3.26 5.12 6.5 6.64 10.2 1.14 2.76 1.81 6.76.65 9.26-3.98 8.56-6.21 17.54-8.47 26.6a101 101 0 0 1-3.74 11.3c-.94 2.48-.42 4.3 1.3 6.2 3.13 3.49 4.51 7.82 5.71 12.29 1.64 6.06 3.11 12.03 3.11 18.44 0 4.53-3 6.12-5.7 8.23a33 33 0 0 1-5.98 3.59c-2.57 1.22-5.26 1.51-7.7-.45q-3.07-2.51-6.14-5.15c-3.84 1.94-2.94 6.31-3.68 9.92-2 9.75-3.77 19.54-5.64 29.31-1.43 7.44-3.07 14.85-4.27 22.33-1.88 11.76-5.07 23.15-8.63 34.5-3.44 11-6.67 22.09-9.18 33.32-1.5 6.72-1.47 13.79-2.02 20.7q-.48 5.97-.6 11.93c-.12 6 .05 11.7 3.04 17.45 3.9 7.52 4.83 7.99 12.43 6.22 12.58-2.93 25.04-6.4 37.61-9.39 8.17-1.94 16.37-1.77 24.73-.34 5.53.94 11.35.2 17.04.18q4.15-.02 8.3-.2c1.8-.07 3.95-.96 5.33-.27 2.43 1.22 5.28 2.94 6.4 5.2 4.46 8.96 8.86 18.06 8.23 28.51a363 363 0 0 1-1.3 15.8c-.09.96-.87 2.38-1.65 2.64-3.1 1.05-3.3 3.65-3.12 5.98.28 3.92 1.16 7.8 1.77 11.68.42 2.76 1 5.5 1.18 8.27.38 5.46-4.85 8.64-9.74 6.2a356 356 0 0 0-14.2-6.8c-6.2-2.78-12.71-2.88-19.31-1.72-8.43 1.48-16.94 2.64-25.3 4.45a230 230 0 0 0-21.11 5.8c-10.1 3.23-20.1 6.78-30.13 10.23-4.06 1.39-7.7 3.68-12.32 3.85-4.83.18-9.17-.95-13.6-2.45-13.47-4.57-22.22-14.2-28.31-26.53s-12.4-24.62-16.05-37.97a3584 3584 0 0 1-15.85-60.1c-1.06-4.2-1.1-8.67-1.34-13.04-.53-9.5-.88-19-1.32-28.5-.02-.35-.21-.7-.47-1.52-2.21 2.44-4.25 4.52-6.1 6.76-5.44 6.56-10.96 13.06-16.12 19.83-3.53 4.63-6.4 9.77-9.77 14.53-2.48 3.5-4.9 7.26-8.1 10.04-4.93 4.29-6.84 9.91-8.98 15.68-5.2 13.99-10.98 27.79-15.92 41.87a201 201 0 0 0-7.4 26.93c-1.88 9.37-2.72 18.96-3.82 28.48-.8 6.97-1.03 14.01-1.96 20.96a278 278 0 0 1-4.05 23.65c-3.02 13.52-6.5 26.93-9.75 40.4-.1.42-.02.89-.03 1.33-.07 2.73-1.77 4.2-4.41 3.53a128 128 0 0 1-9.56-2.77c-10.69-3.57-21.56-6.59-31.65-11.84-6.21-3.24-12.76-5.82-19.12-8.77-1.91-.89-4.06-1.74-3.17-4.68.1-.33-.59-.93-.95-1.37-2.72-3.2-2.66-4.95.12-8.23a228 228 0 0 0 5.96-7.4c5.9-7.57 7.85-16.47 8.6-25.76.22-2.84.8-5.7.58-8.5-.45-6.07-1.34-12.1-2-18.14-.4-3.83-1.17-7.7-.97-11.5.5-9.82 1.38-19.63 2.27-29.43.75-8.32 1.22-16.72 2.73-24.9 2.08-11.3 5.03-22.45 7.57-33.67.27-1.21.43-2.49.37-3.72-.28-6.26.28-12.24 3.19-18.02 10.62-21.13 21.26-42.25 31.42-63.6 4.87-10.23 8.77-20.94 12.9-31.5 3.07-7.83 6.25-15.65 8.58-23.7 1.92-6.63 2.75-13.6 3.89-20.43.78-4.7 1.25-9.43 1.9-14.14.22-1.7-.54-2.34-2.13-2.96-9.14-3.58-18.23-7.3-27.3-11.07-2.9-1.21-5.89-2.65-5.36-6.62.27-2.06.56-4.3 1.56-6.06 4.75-8.4 9.68-16.68 16.86-23.38 3.36-3.13 6.27-6.76 9.12-9.88zM336.27 951.51c.31-.2.57-.28.64-.43 1.93-4.8 5.21-7.76 10.57-8.2.6-.05 1.31-1.09 1.62-1.82 2.94-7.03 5.8-14.1 8.68-21.16.7-1.72 1-3.63 3.56-3.93.8-.1 1.38-1.84 2.14-2.75 1.07-1.27 2.22-2.47 3.33-3.7l.9.63-.92 5.34c4.42.87 8.78 1.66 13.1 2.62 1.86.41 3.63 1.21 5.44 1.81l31.3 10.4c1.49.5 3.45.73 2.97 3.01-.5 2.3-2.5 2.75-4.42 2.7-4.2-.1-8.4-.53-12.59-.57-.86 0-2.2.9-2.54 1.72-2.97 7.1-5.76 14.26-8.7 21.62 5.65 3.6 3.8 8.92 2.79 13.8-.95 4.54-1.75 8.68 1.77 12.62 1.07 1.19 1.46 3.37 1.44 5.09-.09 8.27 1.73 16.81-2.93 24.51-.5.84-1.66 1.28-2.51 1.9l-.69-.65c-.8 7.95-1.54 15.92-2.41 23.86a48 48 0 0 1-1.46 8.33 13 13 0 0 0 .9 10.04c2.77 5.46 1.6 10.17-3.38 12.42-1.42.64-3.55-.03-5.28-.42-8.9-1.99-17.93-3.62-26.62-6.32-5.75-1.79-11.11-4.96-16.45-7.89-4.6-2.53-8.61-6.45-13.45-8.17-5.18-1.85-7.93-6.51-12.61-8.69-.65-.29-.9-1.44-1.58-2.63-4.77.99-9.67 2.07-14.6 2.97a8 8 0 0 1-4.08-.17c-6.39-2.28-12.89-4.35-19.02-7.19-13.28-6.15-26.38-12.66-39.51-19.13-10.46-5.15-21.04-10.08-31.18-15.8-6.2-3.5-11.94-7.99-17.41-12.6-3.49-2.93-3.86-4.18-1.16-7.88 1.23-1.68.87-4.47 1.45-6.69.86-3.27 2.16-6.29 5.78-7.5.5-.17.84-.79 1.28-1.16 3.17-2.73 6.16-5.71 9.6-8.05 1.8-1.22 4.34-1.57 6.6-1.84a99 99 0 0 1 33.08 1.79c6.87 1.5 13.88 2.38 20.79 3.76 11.55 2.3 23.2 3.67 34.96 3 8.75-.5 17.47-1.49 26.17-2.56 1.32-.16 2.49-1.92 3.66-3 1.42-1.3 2.68-2.79 4.18-4 2.4-1.92 4.12-1.64 6.8.97z"/><path fill="#fff" d="m739.54 748.69-3.54-1.66c1.62-1.34 2.76-2.84 4.24-3.4 6.52-2.45 13.14-4.65 19.73-6.88 1.6-.54 3.35-.68 4.92-1.3 2-.8 4.19-1.48 3.45-4.6-.65-2.76.98-4.6 3.51-5.21 5.66-1.39 11.4-2.4 17.05-3.8 3.18-.8 6.3-1.93 9.34-3.18 2.1-.87 3.99-1.95 4.62-4.7.3-1.28 2.13-2.5 3.54-3.17 7.13-3.41 14.52-6.33 21.47-10.06 3.42-1.84 6.04-5.13 9.12-7.65q4.4-3.62 7.62 1.21c4.28 6.4 8.56 12.78 12.74 19.24a420 420 0 0 1 10.31 16.57c1.8 3.1 3.62 6.37 2.35 10.3-.16.49.18 1.45.61 1.78 2.7 2.07 1.27 3.64-.32 5.54-2.85 3.39-5.47 6.97-8.47 10.84 4.16 1.7 7.86 2.74 12 1.28.69-.25 2.3.4 2.63 1.08.9 1.85 1.17 4.02 2.05 5.89.41.89.06 3.24 2.48 2.24a6 6 0 0 1 1.07 1.9c2.73 8.89 5.5 17.77 8.1 26.7 1.36 4.7 2.38 9.5 3.52 14.28.16.67.2 1.47 0 2.12-1.39 4.6-.97 9.14.06 13.74.25 1.08-.39 2.33-.54 3.51-.53 4 1.68 7.03 3.74 10.03 1.73 2.53 1.52 4.5-.6 6.69-2.46 2.53-4.4 5.56-6.95 7.97-2.11 2-4.63 2.87-7.72 1.05-2.77-1.63-6.07-2.34-8.93-3.85-1.64-.87-2.91-2.48-4.28-3.81-3.16-3.07-6.27-6.19-9.41-9.26-.28-.28-.79-.68-1-.6-3.4 1.54-4.03-1.44-4.86-3.28a268 268 0 0 1-7.26-17.74c-.67-1.83-.08-4.09-.38-6.1-.16-1.03-.77-2.34-1.6-2.85-10.4-6.47-20.55-13.35-32-18.04-7.72-3.16-13.3-8.6-14.69-17.4-.08-.55-1.26-1.51-1.52-1.4-2.57 1.16-4.16-.87-6.16-1.57-.78-.28-2.32.1-2.74.72-1.06 1.54-1.61 3.42-2.5 5.1-.55 1.02-1.37 1.89-2.06 2.83-1.37-1.17-2.9-2.2-4.04-3.56-.56-.66-.19-2.02-.58-2.92-1.18-2.67-2.86-4.37-6.28-3.82-3.4.54-6.9.33-10.32.68-1.12.11-2.14.98-3.24 1.42-2.88 1.17-5.76 2.4-8.7 3.41-1.53.52-7.88-2.98-8.01-4.34-.7-6.87-1.3-13.75-1.92-20.64-.03-.36.19-.73.36-1.35zM753.1 242.7c2.42 1.17 6.24 0 5.85 4.44-.15 1.7-1.29 2.13-2.8 1.85-2.32-.42-3.47-2.62-3.05-6.29m8.7 11.99c.17.36.47.71.46 1.06-.01 1.3-.13 2.6-.22 3.9l-1.6-.18c.19-1.4.36-2.83.62-4.22.03-.22.47-.36.75-.56"/><path fill="#000" d="M522.58 676.1c-2.31 3.43-4.58 6.89-6.96 10.27a5083 5083 0 0 1-22.82 32.3c-2.92 4.09-6.33 7.87-9.03 12.1-1.62 2.55-3.21 5.67-3.25 8.56-.18 12.84-2.53 25.35-4.97 37.86-2.37 12.06-4.98 24.07-7.44 36.12-3.33 16.33-6.77 32.66-9.89 49.03-2.3 12.11-3.98 24.36-6.38 36.46-.73 3.67-.62 6.66 1.26 9.85.65 1.1.26 2.82.35 4.38 2.99.25 4.11 1.87 3.49 5.67-1.23 7.5-5.3 13.58-8.93 20.06-3.56 6.35-8.37 3.5-12.95 3.67-1.59.06-3.18.4-4.76.31-5.58-.3-11.16-.6-16.73-1.16-3.96-.4-7.88-1.35-11.85-1.71-.88-.08-2.35 1.07-2.78 2-2.17 4.7-4.09 9.52-5.58 13.08l6.6 7.26-1.41.41c-.51 1.28-1.17 2.53-1.5 3.86-.76 3.27-1.64 6.54-1.96 9.86-.36 3.7-.93 7.47 4.15 9.27 3 1.06 4.18 4.55 2.33 7.46-3 4.7-1.38 9.7-2.2 14.49-1.06 6.11-1.95 12.24-2.94 18.35-.86 5.35-1.62 10.72-2.7 16.03a79 79 0 0 1-3.2 11.49c-.38 1.02-2.35 1.47-3.92 2.38l-.29-1.99-51.3-12.56.02-1.01c1.12-.13 2.28-.5 3.37-.36 7.72 1.01 15.4 2.48 23.14 3.11 8 .65 16.04.52 24.07.75.58.01 1.16.18 1.73.28.1-2.2 0-4.49.34-6.73a3439 3439 0 0 1 5.25-33.31c.38-2.36.72-4.78 1.55-6.99.42-1.11-.38-4.02 2.72-3.04.08.02.89-1.36.8-2.02-.09-.73-.67-1.71-1.3-2a105 105 0 0 0-7.97-3.14c-3.7-1.3-7.62-2.13-11.11-3.85-5.35-2.62-10.42-5.81-15.58-8.79q-2.67-1.55-5.3-3.14l-.53.7v-2.02c-.45 0-.71-.08-.77 0-5.67 7.14-13.5 9.96-22.15 11.35-4.53.72-8.97 2.2-13.5 2.65-6.6.67-13.27 1.27-19.85.92-8-.4-15.98-1.68-23.92-2.85a187 187 0 0 1-14.97-3c-1.16-.26-2.8-1.1-3.11-2.06-1.96-5.7-7.01-9.22-9.76-14.23-2.16-3.96-5.35-3.02-8.48-3.32-2.43-.24-4.85-.64-7.28-.9-1.59-.18-3.26-.61-4.75-.3-2.4.5-4.36 0-6.64-.77-2.87-.97-6.08-1.07-9.17-1.3-3.13-.25-6.37.16-9.43-.38-4.3-.77-6.93 1.76-9.02 4.44-4.31 5.55-8.1 11.5-12.06 17.32-.92 1.36-2.07 3.08-3.6 1.86-.84-.65-.98-3.17-.43-4.4 1-2.22 2.64-4.22 4.23-6.13a605 605 0 0 1 12.3-14.41c1.77-2 3.54-4.34 5.83-5.46 2-.98 4.74-.73 7.12-.58 8.75.57 17.56.86 26.23 2.1a467 467 0 0 1 32.06 6.04c7.74 1.67 15.47.76 23.18.57 11.1-.27 22.18-1.15 33.27-1.85.8-.05 1.62-.7 2.32-1.2a80 80 0 0 0 5.22-4.02c.66-.57 1.04-1.46 1.55-2.21l-.57-1.04 4.45.84c.97-1.98 1.63-4.44 3.18-6 .79-.8 3.39-.38 4.84.24 2.05.87 2.98 1.07 3.7-1.47.9-3.15 2.52-6.1 3.55-9.21 1.43-4.35.74-5.48-3.02-8.28-2.01-1.49-3.71-3.01-1.71-6.43 1.84-3.13 1.6-7.42 3-10.91a78 78 0 0 0 4.29-14.56c.42-2.26 1.66-3.56 4.26-3.03 1.08.22 2.25.03 3.42.03 2.4-7.52 4.4-15.09 7.22-22.34 3.28-8.43 3.48-17.3 4.82-26.02 1.43-9.27 2.57-18.58 3.74-27.9.91-7.32 1.56-14.68 2.53-22 1.33-10 2.96-19.98 4.24-30 .67-5.13.96-10.31 1.27-15.49.32-5.2-.2-10.56.8-15.62a108 108 0 0 1 5.89-20.09c3.67-8.93 8.53-17.37 12.38-26.24 6.38-14.73 12.71-29.5 18.4-44.5 7.07-18.62 13.4-37.52 20.2-56.24 1.3-3.57 3.38-6.85 5-10.3.48-1 .64-2.13.95-3.21l-.03-.06c1.05-1.73 2.28-3.37 3.1-5.19 4.3-9.41 8.49-18.88 12.69-28.33.67-1.5 1.2-3.06 1.8-4.6l-.7-.3c-2.4 5-4.9 9.96-7.15 15.03-3.13 7.02-3.14 7.39-10.3 5.34a531 531 0 0 1-27.82-9.02c-4.37-1.52-4.33-2.26-1.77-6.1a7.5 7.5 0 0 0 1.18-4.26c-.4-7.29 3.2-12.96 7.36-18.3 4.85-6.22 10.04-12.18 14.95-18.1-4.45-1.1-9.42-2-14.17-3.57a47 47 0 0 1-20.28-13.1 10.1 10.1 0 0 1-2.63-9.28c.1-.47.3-1.22.6-1.3 4.25-1.18 4.55-5.58 6.7-8.39 5.14-6.7 9.5-13.98 14.5-20.78 3.92-5.33 8.33-10.3 12.79-15.75-5.46-1.35-9.73-5.64-15.95-6.2-3.96-8 2.7-39.41 10.96-49.77-2.7-3.46-6.67-3.67-10.55-4.11-6.84-.8-12.35-3.89-15.26-10.25-2.73-5.96-5.32-12.06-7.11-18.34-1.41-4.93-1.5-10.23-2.22-15.35-.1-.76-.46-1.48-.7-2.2-.19-.56-.7-1.27-.52-1.65 2.57-5.51.94-11.33 1.15-16.97.23-6.52-.34-13.08-.61-19.62-.02-.47-.49-.92-.71-1.31 2.6-.44 4.65.82 5.6 4.59a93 93 0 0 1 2.5 13.97c1.03 10.88 1.3 21.85 2.7 32.68.88 6.9 2.46 13.9 6.75 19.78 4.03 5.54 9.55 9 16.06 10.96.1.04.23.07.3.04 5.2-2.16 5.74 2.56 7.88 5.4 5.8-2.53 12.11-2.73 18.36-2.25 5.01.4 10.26.9 14.83 2.75 3.15 1.27 5.73 1.82 8.78.85.63-.2 1.18-.64 1.76-.97-.62-.29-1.23-.61-1.87-.85-.36-.14-.76-.13-1.34-.9l3.88-1.26c-11.29-2.82-21.15-8.95-30.42-16.19-1.77-1.38-3.36-2.97-5.06-4.44-.37-.32-.86-.73-1.28-.7-6.02.32-8.44-4.25-10.97-8.34-2.56-4.13-5.17-8.43-4.95-13.55.2-4.66-4.2-6.9-5.17-11.42-1.65.54-3.2 1.55-4.5 1.3-1.48-.27-3.34-1.39-3.98-2.66-4.8-9.48-9.38-19.07-13.9-28.69-.33-.68.01-2.35.54-2.63 1.85-.99 1.7-2.5 1.66-4.11-.26-11.1 2.64-21.6 7.28-31.44a320 320 0 0 1 16.34-30.08c4.85-7.94 10.45-15.49 18.05-21.2 5.92-4.45 12.58-7.37 19.65-9.37 3.65-1.03 7.35-1.9 11-2.82-1.11-5.57-.24-10.92 1.52-16.17.49-1.5 1.18-2.93 1.83-4.37 1.93-4.26 6.18-5.51 9.96-6.67 8.04-2.45 16.3-4.18 24.47-6.2l.35.92c.47-2.1.68-4.32 1.46-6.3 1.78-4.5 5.32-6.92 10-7.96 6.23-1.4 12.43-2.96 19.06-4.55-2.98-6.4-5.7-12.73-8.82-18.86-5.75-11.25-10-23.1-14.57-34.84-.94-2.4-1.14-5.12-3.45-7.03-.8-.65-.19-2.78-.66-4.08-2.73-7.58-5.69-15.08-8.38-22.68-2.03-5.71 1.2-12.93 4.84-16.28 3.14-2.9 7.7-1.27 11.52 1.77 4.22 3.36 5.63 8.5 7.87 13.09a1212 1212 0 0 1 9.96 20.83c3.56 7.66 6.95 15.4 10.54 23.04.62 1.33 1.92 2.32 2.79 3.55.79 1.13 2.16 2.19.77 3.85-.26.31-.23 1.08-.06 1.53 3.27 8.48 6.62 16.93 9.89 25.41.71 1.85 1.23 3.76 1.67 5.1l29.05-1.58c1.93-.1 3.33-.14 3.7 2.65.53 3.93 1.93 7.74 3 11.8h9.27a7.68 7.68 0 0 1 6.68-10.19c4.76-.38 7.84 1.74 9.23 5.85 1.15 3.43 3.4 3.1 5.9 2.82 9.14-1.02 18.29-1.97 27.48-.55 1.7.27 3.43.64 5.02 1.29 1.04.43 2.54.92 1.47 2.9-.33.6.95 1.99 1.33 3.07 1.4 4.14 2.73 8.31 4.12 12.46.15.45.52.82 1.28 1.06l-3.23-11.99c4.95.38 9.67.9 14.4 1.07 6 .23 12.04-.2 17.97.47 2.03.23 4.56 2.52 5.56 4.5 5.67 11.25 12.42 22.05 15.48 34.46.83 3.4 1.7 6.81 2.08 10.27.17 1.5-1.19 2.73-2.67 3.69-.94.6-3.47-.15-2.66 2.43l3.72 4.95c5.7 6.4 7.22 14.76 10.4 22.34.86 2.04 1.65 2.94 4.05 3.07 4.54.26 8.83 1.62 12.32 4.85 7.03 6.52 13.51 13.37 16.18 22.99a39 39 0 0 1 .5 19.47c-.7 3.02-1.04 6.13-1.54 9.2-.06.36-.25.82-.1 1.08a161 161 0 0 1 12.73 29.47 20 20 0 0 0 2.7 5.55c1.33 1.82.3 2.53-1 3.21-1.75.9-3.57 1.66-5.15 3.14 3.53-.87 7.02-1.93 10.59-2.55s7.28-1.4 10.8-1.02c3.11.35 3.68 3.87 4.23 6.5 1.2 5.68 2.12 11.43 3.05 17.17.57 3.46-2.11 2.57-4.01 2.78-.83 1.83.05 2.83 1.72 3.44 3.64 1.33 7.28 2.69 10.95 3.96 1.82.63 2.62 1.48 2.61 3.71-.03 3.9 1 7.8.93 11.69-.05 2.36-1.17 4.76-2.06 7.04-2.5 6.29-4.97 12.58-7.72 18.77-4.16 9.39-8.54 18.68-12.82 28-1.37 2.99-3.37 4.95-6.94 5.17-1.01.06-2.07 1.23-2.9 2.07-2.03 2.05-3.65 4.65-5.98 6.21-2.4 1.62-5.42 2.33-8.2 3.35-5.04 1.85-10.03 3.9-15.18 5.37-5.09 1.44-10.36 2.27-15.56 3.32-8.04 1.62-16.07 3.33-24.15 4.75-7.25 1.28-14.55 2.21-21.83 3.3-6.69 1-13.37 2.05-20.06 3.02-1.75.25-3.53.33-5.74.54 2.92 2.53 5.32 4.74 7.85 6.79 5.57 4.51 5.8 10.86 4.4 16.74-2.35 9.93-5.83 19.6-8.92 29.35-.47 1.49-1.1 3.2-2.22 4.15-2 1.68-1.46 3.35-.81 5.22q2.35 6.75 4.68 13.52c.13.37.3.82.22 1.17-1.55 6.2 2.02 11.74 2.3 17.68.14 3.08 1 6.6-.16 9.13-1.16 2.52-4.41 4.12-6.83 6.03-.92.73-2.06 1.18-3.22 1.82 1.94 3.85 5.07 7.33 4.12 11.94-.35 1.67-1.42 3.9-2.79 4.52-7.53 3.42-6.01 5.85-5.62 11.75.25 3.8 1.94 7.5 2.86 10.81l16.23-18.07c-1.75-1.98-4.1-4.17-5.83-6.78-1.21-1.82-1.69-4.18-2.2-6.37-.15-.63.7-1.5 1.1-2.25.76.44 1.84.68 2.21 1.33 1.27 2.24 2.3 4.6 3.4 6.95.66 1.44.93 3.24 1.96 4.3 1.38 1.42 3.34 2.28 4.3 2.9-3.47 4.31-7.1 8.78-10.66 13.3-1.9 2.4-3.52 5.02-5.53 7.32-2.72 3.13-5.93 3.18-8.53.09a31.3 31.3 0 0 1-7.49-21.05c.05-3.77 3.6-7.2 7.94-7.7 4.12-.5 5.51-2.2 3.79-7.36-.5-1.49-1.39-2.85-2.38-4.88-1.77 1.15-3.34 2.72-5.21 3.23-1.85.5-4.38 1.7-5.7-1.46-.54-1.3-1.8-2.3-3.42-3.32v5.96c0 6.4.31 12.82-.08 19.19-.45 7.27-1.44 14.52-2.36 21.76a673 673 0 0 1-3.16 22.23c-1.17 7.27-2.58 14.49-3.88 21.74q-2.1 11.59-4.13 23.18c-1.07 6.17-1.99 12.36-3.1 18.52a1638 1638 0 0 1-5.63 29.56c-.4 2-1.5 3.87-2.27 5.75 1.96 6.27 6.52 2.84 9.98 2.28 11.34-1.8 22.6-4 33.91-6.03 1.28-.23 2.62-.26 3.86-.65 4.56-1.44 7.68 2.16 11.47 3.3 5.78 1.72 11.58 1.28 17.33.9 2.53-.16 4.88-2.42 7.45-2.81 5.1-.79 10.28-1.01 15.43-1.34 3.38-.22 6.77-.33 10.15-.23 1.16.03 3.01-.54 2.6 2.35-.32 2.18 4.17 4.1 6.58 3.44 5.56-1.51 11.17-2.86 16.73-4.4.68-.18 1.5-.95 1.69-1.62.6-2.07.76-4.3 1.46-6.33.6-1.72 1.95-2.44 4-2.66 2.2-.22 4.25-1.54 6.38-2.31q8.45-3.05 16.91-6.07c.54-.19 1.46-.24 1.57-.57 1.3-3.91 4.4-4.47 7.96-4.8 5.59-.5 9.84-4.18 14.47-6.84 3.54-2.04 6.84-4.5 9.3-6.15.8-2.01.93-3.66 1.78-4.22 4.58-3.05 9.13-5.03 15.27-4.57 6.26.48 9.42 4.34 12.26 8.17 8.22 11.09 14.12 23.45 18.4 36.66 2.08 6.46.2 11.36-3.52 16.2-1.05 1.36-2.19 2.65-3.52 4.27 3.1.89 6.04 1.6 8.88 2.6 2.1.71 5.1.89 3.18 4.73-.42.84.94 2.7 1.67 3.98a114 114 0 0 1 11.64 30.44c3.26 14.06 5.87 28.28 8.75 42.42.05.2-.02.43.02.62.8 3.47 4.47 6.65-.05 10.47-3.07 2.59-5.07 6.4-7.92 9.31-1.13 1.16-3.2 1.49-4.92 1.91-1.9.47-2.8-1.18-4.18-2.05-2.7-1.71-6.3-1.97-9.13-3.53-5.66-3.13-11.5-6.2-16.41-10.31-4.72-3.96-6.74-10.02-8.35-16a498 498 0 0 0-4.2-14.67 3 3 0 0 0-1.4-1.65c-9.02-4.78-18.13-9.42-27.11-14.28-4.82-2.6-9.48-5.49-14.15-8.35-1.72-1.05-1.94-2.86-2.39-4.78-.68-2.86-2.39-5.47-3.58-8.21-.44-1-.67-2.1-1.04-3.35-.67.21-1.28.5-1.91.59q-5.3.7-5.31 6v8.07c-4.4-.58-8.4-1.23-10.21-5.45-1.53-3.54-2.8-7.2-4.14-10.67l-23.35 3.65-.2-1c8.75-5.77 19.04-5.48 29.3-7.05-.45-11.14-4.68-21.6-6.94-31.88l-24.51 7.13-.27.13q-5.5 1.3-4.34 7.06c1.66 8.35 3.8 16.66 4.8 25.1 1.2 9.92 2.01 20-.4 29.91-1.55 6.4-3.43 12.7-5.15 19.05-.15.56-.37 1.18-.27 1.71.88 4.83-1.8 7.78-6.76 7.51-1.87-.1-3.77.16-5.65.13-6.37-.14-12.69-.66-18.49-3.68-1.86-.97-3.47-2.06-2.19-4.74.62-1.28.18-2.47-1.77-2.73-4.79-.65-9.52-1.89-14.32-2.23-3.24-.23-6.62.45-9.85 1.09a294 294 0 0 0-42.86 11.72c-8 2.88-15.8 6.37-23.9 8.87a57 57 0 0 1-29.5 1.08c-1.94-.44-3.9-.95-5.88-1.13-4.9-.47-6.87-4.65-9.74-7.6A78 78 0 0 1 556.03 812c-2.23-4.92-4.53-9.86-6.14-15a673 673 0 0 1-19.22-74.1c-2.38-12.1-4.54-24.32-4.62-36.75-.02-4.17.09-8.35.13-12.52 0-.07-.12-.23-.15-.22q-.34.07-.66.2c.22-.8.22-1.78.7-2.35 8.44-10 16.95-19.95 25.43-29.9 7.57-8.9 15.17-17.76 22.7-26.68 2.48-2.94 4.78-6.02 7.17-9.04l-.79-.64-70.9 81.35 1.12 1.07c2.76-2.83 5.5-5.68 8.3-8.46 1.05-1.05 2.29-1.91 3.44-2.85zm-66.39-153.6.52.2.16-.77c.37 0 .85.16 1.07-.02a3121 3121 0 0 0 22.53-17.8c.43-.34.47-1.14.7-1.72a68 68 0 0 0-10.92 7.44c-4.57 3.89-8.89 8.09-13.3 12.16l-.66.59-.44.47.27.06zm200.63 39.09.54 1.3 2.41 7.14c5.05-2.8 9.7-5.39 14.38-7.96 1.54-.85 1.78-1.93 1.32-3.67-1.21-4.66-2.17-9.39-3.16-14.1-1.09-5.13-1.3-5.23-5.47-1.88-.45.35-.94.66-1.35.95 1.94 4.56 2.98 9.03 2.31 14.69-4.33-3.5-4.88-8.21-7.06-12.05l-4.68 1.02 5.4 14.49 11.53-3.75c-.85 1.15-1.13 1.9-1.68 2.2-2.1 1.16-4.3 2.15-6.43 3.26-1.14.6-2.22 1.32-3.33 1.99-2.3 1-2.57-1.41-3.73-2.8l-.62-1.16-.76-1.45-.45.29zM524.28 483.6l-.47-.67-.18-2.74-.89.3zm133.05-149.3c-2.18 1.33-4.1 2.87-4.84 5.31l.64.53q2.4-2.69 4.83-5.38l4.16-4.16 3.12-1.4.45.62-12.07 13.4.53.97c2.39-1.13 5.3-1.73 7.06-3.5 5.67-5.68 10.9-11.8 16.78-18.27l-4.3-12.67c-2.13.69-4.35.95-6.04 2.04-4.08 2.63-7.9 5.67-11.86 8.49-2.72 1.94-5.53 3.76-8.17 5.54l2.65 5.68c6.1-6.32 11.85-12.63 19.22-16.99l.77.87-19.7 17.84 1.03 2.27 15.26-14.42 1.17 1.08-6.35 7.8zM364.6 958.85c-.84 1.5-1.78 2.97-2.48 4.53-.96 2.13-.88 2.16.96 4.4l1.98-8.54 2.44-5.75-2.1-.75c-.29 2.14-.55 4.13-.8 6.12zm123.06-561.49c-6.18 3.29-7.31 2.74-5.17 5.98l5.4-5.75.6-.43c-.07-.07-.18-.2-.2-.2q-.34.2-.64.4zm131.45-202.23-.39-1.41-.46.12.36 1.62 4.04 10.29 2.17-1.45zM462.8 727.15l-.87-.47c-3.59-3.14-7.39-6.07-10.7-9.48-2.27-2.34-5.7-4.09-5.64-8.17 0-.29-1.24-.93-1.76-.8-.49.11-1.22 1.18-1.08 1.56.5 1.39 1.08 2.87 2.04 3.95a63 63 0 0 0 17.08 13.47l.6.27-17.05 11.35-.86.73.3.37.96-.66c1.87-.9 3.68-1.96 5.62-2.67 5.4-1.98 8.87-7.99 16.43-7.1-2.28-1.05-3.67-1.7-5.07-2.33zM665.73 441.1l.79.6-.4-.81c-2.89-4.82-5.74-9.66-8.72-14.42-.37-.61-1.4-.8-2.14-1.2l-.91 1zm64.11-190.2.21 1.34.52-.08-.26-1.59-11.8-31.48-1.06.39c1.46 4.28 2.74 8.63 4.42 12.81 2.5 6.27 5.3 12.41 7.97 18.61m-18.8 510.9-.67-1.4-.38.14.6 1.67 1.58 45a174 174 0 0 0-1.13-45.42zm136.08-26.42.85.57-.43-1.13c-2.26-3.99-4.48-8-6.78-11.95-4.16-7.17-8.38-14.3-12.6-21.51l-2.67 1.95c1.21 1 2.5 1.69 3.28 2.76a147 147 0 0 1 5.82 8.78c4.22 6.82 8.36 13.68 12.54 20.53zm-51.07 7.5c-4.75.66-8.94 4.06-14.26 2.81l2.2 9.98c.54-.98.95-2.9 1.9-3.23 4.86-1.66 7.17-6.08 10.7-9.16l.55-.84zm-258.1-529.72.26 1.1.41-.08-.16-1.34c-.36-1.25-.83-2.48-1.06-3.75-1.48-8.46-3.04-16.92-4.3-25.41-.73-5-3.27-8.27-8.21-9.88.38 1.5 1.08 2.8 1.97 3.95 1.35 1.77 3.51 3.24 4.11 5.2 1.3 4.27 1.72 8.79 2.72 13.16 1.3 5.71 2.83 11.37 4.26 17.05M453.8 499.04l-9.84 18c-.73-.9-1.08-1.87-.79-2.59 2.48-6.13 5.06-12.21 7.64-18.3.73-1.74 1.53-3.46 2.3-5.18l3.98-3.8.92.21.69 6.66-.52 1.54.39.12.54-1.3c2.04-4.03 3.49-8.42 7.47-12.03 3.54 8.47-.85 16.14-.78 24.2 3.48-2.64 7.17-4.81 10.05-7.77 3.23-3.33 6.65-6.6 10.99-7.6 7.17-1.66 14.58-2.92 21.92-3.1 7.64-.17 15.31 1.15 23.13 1.83l-4.47-19.24-.86.03-1.15 14.44c-.73-.44-1.76-1.25-1.9-1.13-2.06 2-1.93.2-2.27-1.16-.64-2.59-1.43-5.13-2.16-7.72l-.99 8.81c-2.65.73-3.85 0-3.64-2.76.16-2.15-.25-4.37.1-6.49.58-3.47.02-7.29 2.29-10.22 4.06.8 4.83 3.6 5.1 6.86.17 2.1.56 4.17.9 6.55.33-4.1.56-7.86.98-11.6.1-.87.8-1.67 1.22-2.5.75.45 1.85.71 2.2 1.38 1.48 2.87 2.74 5.85 4.12 8.85.31-1.43.7-2.94.98-4.48.44-2.36 1.53-2.94 3.23-1.07 1.15 1.27 2.62 2.64 2.95 4.19 1.1 5.13 1.7 10.37 2.62 15.54.24 1.38.62 3.65 1.4 3.87 4.13 1.18 8.4 1.83 13.02 2.74l-5.43-16.47c-1.04 5.14.68 9.75-1.48 14.61-2.96-6.36-2.7-19.38.4-22.4.75 1.08 1.77 2 2.07 3.1 1.9 7.08 3.62 14.21 5.47 21.57l2.43.14.43.36-.2-.61c-.97-7.75-2.65-15.52.14-23.3 7.98 6.98 6.67 16.87 8.6 25.63l40.2 10.35-5.22-13.06v7.74c-3.92 1.56-5.63-.12-6.38-3.57-.29-1.33-.93-2.6-1.73-4.76v8.87c-6.03-.57-4.56-6.52-7.4-9.47.2 1.35.7 2.6.46 3.7-.25 1.08-1 2.45-1.93 2.9-1.39.68-3.05.09-3.23-1.7a169 169 0 0 1-1.01-15.2c-.01-1.17 1.52-3.1 2.64-3.36 1.77-.4 3.85.13 4.68 2.44 1.01 2.8 2.15 5.56 3.1 7.99v-11.8c-17.96-4.45-36.21-9.12-54.55-13.44-7.86-1.85-15.86-3.78-23.86-4.15-7.27-.34-14.64 1.39-22.05 2.21 3.22 5.55 3.11 9.27-.24 11.57-3.93 2.7-7.64 1.87-10.85-2.5l-8.82 5.29c-4.86 2.87-9.63 5.89-14.64 8.46-2.29 1.18-3.85 2.4-3.94 5.06-1.82 1.27-3.84 2.33-5.39 3.87a133 133 0 0 0-8.65 9.52c-6.96 8.47-14.18 16.77-15.93 28.28-.3 2.02-.06 2.55 1.65 2.88.94.19 1.87.46 2.46.6.58-1.25.8-2.43 1.5-3.1 2.72-2.56 5.4-5.23 8.44-7.37 8.33-5.85 16.84-11.43 25.26-17.15.7-.49 1.71-1.19 1.78-1.87.6-5.72 1.01-11.45 1.48-17.19-.96.54-1.25 1.24-1.64 1.86-3.49 5.5-4.14 12.65-9.83 16.9-.48.36-.5 1.3-.83 1.93-.33.64-.76 1.23-1.13 1.84l-.7-.26 2.51-12.4.2-1.3-.37-.07-.21 1.04zM350.64 943.26l12.77 3.28c4.55 1.16 9.2 2 13.6 3.54 4.12 1.43 6.98.85 9.02-2.88 3.42-6.26 6.82-12.53 10.31-18.94-4.18-1.44-8.35-2.6-12.3-4.28-7.15-3.04-14.53-4.96-22.3-5.2-.84-.02-2.26.96-2.51 1.75-1.24 3.9-1.88 8.01-3.3 11.84-1.41 3.77-3.5 7.28-5.3 10.9.14.14.28.29-.02-.03.34.27.18.15.03.02m265.8-528.84 6.95 1.3.09-.61-6.51-1.21-5.99-.94c-2.13 4.48-.27 7.92 1.35 11.72 2.8 6.55 4.8 13.44 7.28 20.13 4.1 11.04 8.4 22.02 12.5 33.06a6936 6936 0 0 1 22.75 61.94c.74 2.07 1.32 1.87 2.97 1.41 3.27-.9 6.64-1.46 10.73-2.32 0-.3.32-1.48-.06-2.34-1.35-3.1-3.28-6-4.4-9.18-6.58-18.64-13.29-37.25-19.32-56.07-2.86-8.92-6.25-17.83-6.56-27.42-.02-.44-.53-.92-.9-1.28-5.91-5.69-12.02-11.2-17.7-17.1-3.3-3.44-5.91-7.54-9.26-11.89zM505.87 302.28c8.36-4.56 16.68-9.22 25.12-13.66 5.62-2.94 11.42-5.55 17.14-8.31l.57.86c-1 .8-1.94 1.73-3.04 2.38a1836 1836 0 0 1-18.82 10.95c-7.16 4.13-14.22 8.47-21.6 12.17-2.73 1.36-4.8 2.8-6.52 5.3-1.73 2.56-3.75 5.22-8.34 4.4l4.47 1.92a26.5 26.5 0 0 1-16.1-3.3c-1.04-.57-1.8-1.91-2.85-2.15-3.17-.7-6.42-1.03-9.89-1.54l4.85 8.4.43-1c1.14.33 3.1.42 3.26 1 .87 3.32 3.34 5.04 5.82 6.9 3.7 2.78 7.3 5.66 11.13 8.63.99-6.36 2.61-12 10.33-12.76l-3.63-6.84.82-.77 4.35 3.4c2.82-1.58 5.62-3.42 8.62-4.8 16.86-7.8 34.03-14.76 52.38-18.31 3.39-.66 6.88-.88 10.24.4-14.98 3.15-28.76 9.43-42.8 15.2 14.28-.75 28.45-.88 42.62.88a6 6 0 0 1-2.55 1.05c-10.14 1.08-20.28 2.1-30.42 3.16-5.37.56-10.72 1.27-16.1 1.7-1.87.14-3.8-.39-5.7-.54-.8-.07-1.7-.18-2.43.1-1.54.56-3 1.37-4.26 1.97l6.67 3.05c-1.67 1.34-2.59 2.4-3.75 2.95-4.25 2-8.67 3.66-12.83 5.84a7 7 0 0 0-3.27 4.02c-1.9 7.28-3.21 14.71-5.21 21.96-1.12 4.05-2.88 8-4.87 11.7-1.57 2.92-4.58 3.18-6.48 1.26l-7.17 3.33.88 4.27c2.56-.53 5.08-1.4 7.63-1.5 3.22-.13 4.18 1.84 2.52 4.7.44.05.9 0 1.22.19q1.94 1.22 3.83 2.5c-.79.92-1.54 1.86-2.38 2.73-.78.8-1.65 1.52-2.98 2.72h7.5l-.56 3.82c2.98 1.8 3.1 3.5-.22 5.92-3.45 2.51-7.25 4.53-11.3 7l3.55 2.3 16.35-8.46c-.29-.48-.92-1.12-1.06-1.85-.34-1.88-.12-3.57 2.38-3.7 4.1-.2 8.2-.34 12.3-.65 3.95-.3 7.87-.94 11.82-1.15 3.98-.21 8-1.77 11.99.4.99.54 2.8.36 3.89-.17 4.97-2.44 10.07-4.72 14.65-7.77 15.7-10.43 31.2-21.18 46.78-31.79 1.64-1.13 3.75-1.88 4.9-3.39 7.93-10.4 18.26-18.09 28.7-25.66 4.28-3.11 8.66-6.07 12.97-9.08-.58-1.53-1.15-2.71-1.48-3.96-1.16-4.4-4-6.86-8.4-7.83a9 9 0 0 1-3.65-1.98c-.68-.56-1.38-1.71-1.27-2.49.37-2.65 1.1-5.25 1.66-7.8-.47-.32-.76-.45-.98-.65-2.78-2.5-5.96-4.7-8.13-7.65-.94-1.27.35-4.07.32-6.18-.01-.96-.76-1.91-1.26-3.07l-.36.65-12.92-13c-.58-.58-1.12-1.23-1.77-1.72-1.35-1.04-2.64-2.43-4.19-2.87-3.96-1.14-8.05-1.82-12.08-2.69l-42.33-9.17-8.62 5.26c1.16 2.25 3.5 4.8 3.52 7.36 0 2.52-2.28 5.1-3.65 7.6-1.06 1.92-2.28 3.77-3.4 5.66-5.34 8.9-13.38 12.03-23.4 11.23-.77-.06-1.93.73-2.37 1.46-3.84 6.34-7.55 12.75-11.3 19.14l-.55.84 1.1-.43zM617.5 509.75c-1-1.56-2.03-2.41-2.01-3.25q.14-7.34.8-14.65c.1-.95 1.27-1.8 1.94-2.68.7.78 1.8 1.47 2.03 2.37 1.82 7.07 3.49 14.18 5.32 21.76l12.35 4.26c-.33-1.25-.51-2.21-.84-3.13-3.24-9.26-6.54-18.51-9.76-27.78-6.2-17.87-12.36-35.76-18.6-53.62-.86-2.49-2.74-4.77-3.04-7.27-.5-4.3-.14-8.71-.14-13.22-.67-.18-1.73-.52-2.8-.73-16.36-3.17-32.63-6.68-48.48-11.93a6.4 6.4 0 0 0-3.8-.1 16 16 0 0 1-13.73-1.33 3 3 0 0 0-1.77-.27c-8.29.8-16.58 1.56-24.86 2.55-1.81.22-3.6 1.16-5.26 2.04-3.22 1.73-6.28 3.78-9.53 5.44-3.18 1.63-6.52 2.95-10.05 4.52l25.05 8.62-.31.92c-4.98-1.39-10-2.63-14.93-4.18-8.72-2.75-17.36-5.86-26.78-3.28l4.8 6.66c4.26 5.91 8.65 11.74 12.66 17.82.7 1.07.41 3.62-.44 4.7-1.41 1.8-2.4-.42-3.3-1.27q-3.58-3.36-6.96-6.93c-2.67-2.77-5.25-5.6-7.9-8.46-2.2 3.22-4.55 3.97-8.6 2.52-4.89-1.75-9.7-3.72-14.07-5.4l-33.96 43.83 11.57 7.42c7 4.47 14.3 8.28 22.6 9.52 2.79.42 5.85 1.6 8.4-.88 1.6-1.53 2.97-3.34 4.73-4.63 5.04-3.68 10.26-7.14 15.36-10.75 2.06-1.46 4.03-2.3 6.2-.14l.91-1.7-.68.63c-3.76-3.8-7.7-7.45-11.22-11.45-4-4.54-5.2-10.47-7.26-15.99-1.08-2.91.06-4.19 2.11-5.41.94-.56 2.03-.85 2.37-.99L484.25 461c-11.47-3.7-15.07-14.02-20.7-23.82 0 1.35-.18 2.05.04 2.59.82 1.96 1.76 3.88 2.66 5.82 3.2 6.88 7.07 13.29 12.82 18.41 1.36 1.21 2.44 1.6 4.16.65a26 26 0 0 1 6.45-2.65 262 262 0 0 1 17.72-3.59c3.52-.57 7.21-1.05 10.71-.62 7 .85 13.99 2.03 20.85 3.64 25.82 6.09 51.4 13.1 76.52 21.64 3.74 1.27 7.24 3.22 10.86 4.86l-.3 1.51c-1.21 0-2.53.3-3.63-.06-2.95-.98-5.78-2.32-8.7-3.39-5.3-1.94-10.66-3.79-16.3-5.79l1.53 3.9c3.32-2 5.43-1.46 6.47 2.24 1.85 6.65 3.27 13.43 5.06 20.11.3 1.16 1.3 2.63 2.33 3 3.39 1.25 6.93 2.06 10.7 3.1l-4.02-16.45-.74.02-1.25 13.65zm55-203.86c.46-1.3.5-2.93 1.27-3.43 3.87-2.48 7.7-5.47 12.84-3.64 2.02.72 4.08 1.92 6.13 1.91 5.83-.03 11.66-.75 17.49-.85 3.56-.05 7.03.69 9 4.31 1.08 1.96 2.79 2.4 5.01 2.53 3.32.18 6.6 1 9.89 1.55l5.75 1c-4.96-10.93-9.8-21.44-14.53-32a5940 5940 0 0 1-24.86-55.96c-.9-2.09-3.36-4.37-1.12-6.54-2.14-1.97-4.08-3.78-6.05-5.57-.43-.38-.9-.79-1.44-.97-6.02-2.08-12.04-4.18-18.13-6.08-.75-.23-1.95.53-2.77 1.08-1.25.84-2.08 1.16-3.08-.43-.55-.89-1.8-1.94-2.7-1.92-5.63.1-11.33 0-16.85.9-10.63 1.72-19.62 7.55-28.86 12.61-1.88 1.04-2.7 2.3-1.47 4.91a994 994 0 0 1 15.14 33.8c6.22 14.58 12.13 29.3 18.3 43.9.5 1.16 1.94 2.15 3.17 2.75 3 1.5 6.48 2.24 9.1 4.17 2.92 2.16 5.83 2.05 8.77 1.95zM870.54 745.8c-6.35-19.18-18.4-35.66-29.8-52.56l-9.15 5.3a100 100 0 0 1 15.97 25c2.34 5.17 4.09 10.61 5.95 15.98.37 1.07.06 2.37.06 3.57l-.91.18-1.97-2.75c-3.33 1.12-5.56.3-8.46-4.07-4.32-6.5-8.35-13.19-12.38-19.87-2.3-3.8-4.37-7.77-6.3-11.24-6.38 3.38-13 6.84-19.55 10.4-.75.41-1.71 1.36-1.69 2.03.03.76.92 1.91 1.67 2.16 3.36 1.07 4.8 3.8 6.27 6.6.96 1.78 2.03 3.51 3.04 5.26h1.23c-4.79 7.2-9.62 14.38-14.31 21.64-.84 1.3-1.73 3.07-1.53 4.47 1.08 7.56 2.5 15.07 3.8 22.6.97-1.19 1.38-2.47 1.89-3.73 1.77-4.38 4.34-5.4 8.53-3.48 4.3 1.98 8.61 3.9 12.91 5.85 4.21 1.91 8.65 3.46 12.55 5.88 2.73 1.69 5.6 4.18 6.84 7 1.73 3.96 2.15 8.52 2.86 12.88.62 3.82.47 7.8 1.38 11.54.96 3.9 2.64 7.66 4.27 11.36 1.69 3.8 2.76 7.84 6.86 10.34 7.67 4.68 15.04 9.84 22.45 14.94 1.05.72 1.59 2.2 2.35 3.31 5.05-1.08 8.16-5.06 10.8-9.51.41-.71.63-1.96.3-2.63-3.53-7.17-4.34-15.01-5.61-22.7-1.45-8.73-2.2-17.58-3.85-26.26a94 94 0 0 0-11.94-31.23c-.58-.96-2.1-1.74-3.26-1.87-3.65-.42-7.35-.37-11-.8-.8-.09-2.13-1.43-2.06-2.08.16-1.62.55-3.61 1.62-4.68 3.09-3.06 6.56-5.74 10.17-8.82zm-422.8-455.34c1.6 2.5 3.52 5.45 5.35 8.46 1.1 1.8 2.08 3.15 4.64 3.5 2.59.36 5.57 1.31 6.36 4.71.15.65.67 1.2.94 1.66 4-3.85 7.66.1 11.31.19 2.73-17.38 8.27-33.63 18.03-47.29-.13-2.3-.49-4.05-.22-5.7a9.4 9.4 0 0 1 1.82-4.1c3.6-4.65 7.7-8.95 10.99-13.8 2.45-3.62 5.43-4.4 9.31-3.99.71.08 1.66-.17 2.19-.63 2.17-1.9 4.22-3.94 6.43-6.03-1.46-1.03-2.73-1.63-3.56-2.6-.68-.83-1.48-2.72-1.14-3.06 2.05-2.06.35-3.7-.33-5.39-1.5-3.71-3.2-7.35-4.73-11.04-2.74-6.62-5.41-13.27-8.12-19.91q-.3.45-.57.92c-.88-.32-1.77-.6-2.61-.97-.9-.4-1.82-1.4-2.61-1.3q-11.7 1.58-23.37 3.44c-4.52.71-8.11 2.36-10.71 6.83-7.9 13.55-15.8 27.1-21.11 41.91-3.07 8.53-5.34 17.34-7.96 25.99 4.7 1.8 4.8 1.82 5.96 6.15 1.66 6.21 3.3 12.42 4.74 18.68.22.94-.6 2.12-1 3.37zm250.88 117.2c.4-1.34.9-2.28.9-3.21-.02-4.9 2.7-8.29 6.48-10.64 5.51-3.43 11.08-7.02 17.07-9.4 15.11-6.04 30.72-9.57 47.14-6.15.54.11 1.12-.04 1.95-.07-.69-1.22-1.3-2.13-1.75-3.12q-8.83-19-17.72-37.98a4.2 4.2 0 0 0-2.02-2.01 212 212 0 0 0-12.35-4.2c-5-1.51-9.89-3.24-15.3-.87a21 21 0 0 1-9.73 1.76c-4.8-.4-9.39-.9-13.63 1.98-.21.15-.6.02-.91.05-2.74.18-5.51.17-8.21.62-2.17.35-4.1.8-5.74-1.22-.8-.95-1.88-1.66-2.8-2.45l-12.07 10.05zM463.73 423l-.8-9.14c-1.73-.24-3.87-.39-5.93-.9-.94-.24-2.51-1.5-2.4-1.78.6-1.64.21-4.27 2.95-4.31 2.43-.04 4.91.06 7.32.42 5.14.77 10.26 1.74 15.2 2.6-1.94-13.73-10.3-25.48-11-39.62-8.83-.4-17.58-.74-26.33-1.2-2.17-.12-3.29.42-3.88 2.77-.9 3.6-2.39 7.04-3.6 10.56l-7.88 23.16c-.59 1.74.15 2.58 1.76 3.07 2.58.78 5.21 1.46 7.68 2.52 9.13 3.92 18.2 8 26.91 11.84zm18.8-256.46c2.74 1.97 6.98 2.06 8.17 5.92l15.92 1.78c2.15-4.68 6.64-7.48 12.05-8.16 8.12-1.03 15.63 1.48 22.64 5.48 5.64 3.21 9.77 7.97 13.5 13.22 1.85 2.6 4.1 5.2 8.16 5.43-.6-1.23-1.23-2.05-1.4-2.95-.51-2.88-.73-5.81-1.3-8.68-1.24-6.24-3.03-12.22-7.76-16.94-6.96-6.97-15.88-10.07-24.96-12.87-2.08-.64-4.35-1.48-6.4-1.2-7.32.97-14.63 2.15-21.84 3.73-5.6 1.22-11.04 3.15-16.83 4.86 3.38 3.94.28 6.95.05 10.4zM703.84 405.7c1.42 1.5 2.47 3.56 4 4.02a46 46 0 0 0 11.11 2c12.78.56 25.02-2.22 36.94-6.63 6.78-2.5 13.28-5.53 18.09-11.15 3.82-4.47 4.68-8.85-2.95-10.75-6.18-1.53-12.31-1.27-18.56-.54-12.28 1.43-24 4.6-34.89 10.55-5.53 3.03-10.84 6.39-13.75 12.49zM253.96 961.06c1.63 2.57 3.65 5.86 5.79 9.07.31.48 1.12.8 1.75.88 8.83 1.26 17.66 2.52 26.5 3.66 5.92.76 11.85 1.48 17.8 1.97 8.41.69 16.82 1.52 25.32.58 6.91-.77 13.22-2.43 18.15-7.76 1.92-2.07 4.18-3.84 6.33-5.79.66-3.82-1.57-5.24-5.15-6.12-3.15-.76-6.13-2.31-9.15-3.6-2.5-1.05-4.95-2.23-7.76-3.5-1.62 1.63-4.21 3.17-5.13 5.39-1.89 4.52-1.87 5.13-6.85 5.53-8.39.69-16.8 1.75-25.18 1.62-14.28-.23-28.54-1.27-42.42-1.94zm280.16-818.93-2.78.69.23 1.1c7.66-1.72 15.15-4.38 22.91-5.67a1242 1242 0 0 1 24.26-3.73c8.06-1.17 16.14-2.2 24.4-3.32-.96-1.96-1.9-3.62-2.6-5.38-.74-1.82-1.77-2.74-3.89-2.49-5.84.7-11.74 1.09-17.56 1.93a567 567 0 0 0-25.37 4.16c-7.78 1.49-15.48 3.37-23.2 5.12-1.42.32-2.79.85-4.18 1.28 4.58 1.17 4.9 1.41 7.78 6.3m10.75 113.09c-4.97-5.63-10.91-8.96-17.33-11.47-4.91-1.93-9.84-4.1-15.34-3.39-.75.1-1.7.55-2.1 1.16-2.9 4.38-5.63 8.88-8.53 13.26-1.45 2.19-1.14 3.96.6 5.78 2.34 2.44 4.37 5.23 6.94 7.38 1.86 1.54 2.5 4.8 6.28 4.28.98-.13 5 .59 4.8 4.16 0 .27 2.05 1.16 2.77.87a32 32 0 0 0 6.8-3.67c6.58-4.87 10.99-11.57 15.1-18.36zm-51.59 59.9c-.22-15.94 8.69-27.82 17.01-39.97l-12.66-10.4c-8.15 14.56-12.34 30.25-17.08 46.23zM665.94 505.4c.32-.56.64-.95.79-1.4 1.22-3.58 2.28-7.21 3.64-10.74 2.06-5.3 4.32-10.5 6.5-15.75.91-2.2.81-4.13-1.3-5.64-5.84-4.17-11.71-8.32-17.52-12.56-3.24-2.37-6.36-4.88-10.12-7.8zm-226-212.65c-.97-1.6-1.95-2.93-2.64-4.4-1.58-3.35-3.24-6.7-4.4-10.22-.3-.95 1.09-2.47 1.7-3.72.84.75 2.06 1.33 2.45 2.27 2.04 4.9 3.87 9.88 5.81 14.96l1.96-1.1c-2-4-4.26-7.72-5.74-11.73-1.47-3.98-2.16-8.26-3.3-12.85l-25.03 9.02c2.55 6.97 5 13.7 7.53 20.4.21.57 1.08 1.21 1.67 1.23 6.89.28 13.4-1.38 19.99-3.87zm166.14 79.6c3.8-.63 6.3.18 7.34 3.8.15.52 1.61.64 2.45 1s2.32.69 2.4 1.2c.48 3.15-.39 6.59 2.63 9.07.67.56.84 1.73 1.24 2.61 1.45-.77 3.37-1.2 4.27-2.4 1.8-2.37 3.13-5.12 4.47-7.8.38-.77.45-1.98.12-2.77-2.24-5.5-4.79-10.86-6.9-16.4-1.46-3.85-2.38-7.91-3.46-11.58l-16.07 12.9zm95.05-179.87-.94.5c.65 1.74 1.38 3.48 1.93 5.26.2.63-.05 1.39-.1 2.08-.59-.14-1.29-.12-1.73-.45-3.41-2.49-6.73-5.1-10.15-7.58-7.55-5.44-15.5-10.15-24.49-13.04l4.36 14.21c5.84 2.63 11.32 4.6 16.27 7.47 6 3.49 11.11 8.43 18.04 10.42 2.22.64 4.22 2.1 7.05 3.55-3.14-7.9-7.02-15.01-10.23-22.43zM433.56 319.07c2.35 3.24 4.87 6.9 7.63 10.4.7.88 2.34 1.85 3.25 1.61 6.7-1.72 13.31-3.75 19.9-5.67-1.42-3.57-6.77-4.52-5.28-10.25l4.99 6.89c2.55 3.53 2.92 3.54 5.66.32-.71-1.26-1.16-3.3-2.14-3.6-3.76-1.17-4.67-4.67-6.5-7.3-1.94-2.77-4.02-3.65-7.24-2.1-6.59 3.18-13.2 6.33-20.26 9.7zm264.64 7.9c.92 0 1.83.09 2.73 0 5.15-.58 10.29-1.3 15.45-1.77 3.59-.32 4.43-1.1 3.35-4.49-1.71-5.37-3.68-10.66-5.46-15.79h-20.23c3.14 7.03 4.68 14.12 4.17 22.05zm68.01-51.23c6.87-20.82-8.22-40.55-24.3-46.53 6.89 16.3 15.12 31.47 24.3 46.53m-37.84 49.22c1.47.21 3.6.34 5.64.84 4.75 1.17 9.59 2.16 14.14 3.9 2.88 1.09 5.24 2.15 7.51-.81q1.28 3.31 3.74 2.61c-1.17-2.98-2.61-5.92-3.4-9.02-.4-1.57-.68-2.1-2.36-2.38-3.2-.54-6.92-.79-9.3-2.62a20 20 0 0 0-7.18-3.73c-4.4-1.17-8.83-2.16-13.28-3.23zM613.22 190.93c-3.98 5.6-10.7 6.54-16.8 7.9 1.22 5.2 2.38 9.98 3.47 14.78.3 1.32.69 2.45 2.34 1.97 5.6-1.65 11.84-1.8 16.07-6.81.78-.94 2.07-1.46 2.62-1.83zm-44.95 9.6-4.9 4.42 1.01.24v11.63c3.9 0 7.02-.13 10.12.05 1.87.1 4.06.17 5.5 1.15 2.34 1.6 4.43 2.32 6.9.97l-4.15-17.37zm75.47-21.91L624 184.89c1.46 2.9 2.74 5.32 3.9 7.81 1.23 2.61 2.33 5.28 3.33 7.58l18.03-6.63zm-32 8.64c7.3-5.94 15.19-10.2 24.18-12.61 9.04-2.43 18.06-4.24 27.56-4-4.72-1.64-9.44-3.28-14.29-3.84-7.82-.9-15.56.4-23.17 2.39-8.05 2.1-14.25 9.72-14.29 18.06M535.14 52.04c-2.56 3.73-5.07 7.3-7.44 10.95-.39.59-.39 1.68-.13 2.39 1.63 4.5 3.38 8.96 5.07 13.37l15.1-2.54zm306.77 752.38c-.84-3.53-1.25-7.6-2.87-11.11-.76-1.66-3.8-2.3-5.86-3.33-1.06-.52-2.22-.87-3.34-1.27l-22.88-8-1.82 3.5zM549.1 237.98c-5.1-3.78-9.94-7.38-14.84-10.9-.41-.29-1.46-.27-1.85.05-3.37 2.76-6.64 5.63-10.03 8.54 8.14 2.5 15.17 6.21 21.54 11.89zm129.98 68.56c1.28 4.04 2.38 7.99 3.78 11.82 1.41 3.9.3 8.7 4.45 11.92l4.77-3.73c-.23-.95-.4-1.74-.6-2.52-1.5-5.78-2.92-11.58-4.58-17.3-.24-.83-1.71-1.96-2.45-1.85-2 .29-3.92 1.17-5.37 1.66M801.4 737.5c4.8-1.94 5.58-3.52 4.56-7.73-.2-.88-.14-1.93-.6-2.62a32 32 0 0 0-4.42-5.5c-.52-.49-2.22.08-3.3.42-8.9 2.85-17.78 5.76-26.58 8.62 1.75 2.94 1.88 2.94 4.63.83a8 8 0 0 1 2.9-1.51 627 627 0 0 1 17.74-4.38c1.84-.42 3.8-.37 5.7-.55-.23 3.8-2.94 4.08-4.92 4.76-6.44 2.19-12.99 4.07-19.61 6.12l.82 1.6c1.08-.51 2.1-1.24 3.23-1.5a831 831 0 0 1 19.77-4.22c.6-.12 1.82.42 1.98.9.23.7-.15 1.67-.47 2.43-.35.83-.94 1.56-1.42 2.34zM583.79 376.84l23.76 7.18 1.45-5.1c-2.27.16-4.14.4-6.01.37-1.4-.01-3.64.09-4.03-.65-.65-1.22-.19-3.07-.04-4.65.06-.55.5-1.12.86-1.6 1.75-2.3 1.69-4.58.04-7.2zm56.18-.98.12.9c1.9.13 3.8.32 5.7.38 5.77.16 6.08.12 7.92 5.64 4.03 12.04 7.79 24.17 11.9 37.05 0-1.71.15-2.78-.02-3.8-.7-4.2-1.23-8.47-2.33-12.57-2.1-7.86-4.73-15.59-6.8-23.46-.69-2.62-2.09-3.77-4.43-4.05-2.93-.35-5.88-.53-8.83-.64-1.07-.03-2.15.36-3.22.55zM533.86 81.93l4.37 10.69 13.6-8.92c-1-1.83-1.97-3.55-2.62-4.73zm7.36 17.6 4.94 9.83c2.34-3.38 4.25-6.53 6.6-9.33 1.14-1.38 3.07-2.1 4.86-3.25l-2.9-6.63zm-15.57-39.72c2.33-3.11 4.74-6.2 6.96-9.4.5-.73.73-2.04.42-2.82-1.36-3.44-2.97-6.78-4.54-10.28-1.91 3.8-3.92 7.37-5.52 11.12-1.88 4.4 2.32 7.53 2.8 11.48 0 .06.12.1-.12-.1m256.12 719.55c-.03-5.45 1.1-6.03 5.24-8.47 1.5-.89 3.25-1.39 5-2.11l1.8 1.93.6-.4c-.75-3.5-1.52-7.01-2.3-10.7h-7.57c-.97 4.56 1.36 10.88-6.67 11.34zm-136.75-383c-2.03-1.2-2.78-3.14-3.08-5.59-.23-1.91-.95-3.8-1.67-5.62-.2-.52-1.17-.73-1.78-1.08-.24.7-.8 1.48-.67 2.1.9 4.2 1.96 8.36 2.96 12.58.25 0 .78.09 1.27-.01 7.23-1.44 6.4-.35 7.38 4.46.58 2.84 1.23 5.67 1.85 8.5l1.1-.22c1.7-8.04-1.8-15.28-3.86-22.74l-.85-.09zM519.44 42c1.68-2.54 3.13-5.09 4.93-7.35 2.23-2.79 2.42-3.8-.08-6.46a14 14 0 0 0-3.82-2.96c-1.02-.51-3.04-.88-3.48-.36-1.15 1.37-2.65 3.53-2.28 4.9 1.14 4.2 3.1 8.18 4.73 12.23m130.94 135.96c1.1 3.38 2.32 6.74 3.28 10.17 1.5 5.34 1.42 5.37 6.88 5.17.17 0 .35-.17.63-.31 0-.46.1-.98-.01-1.47-.6-2.74-1.11-5.52-1.9-8.22-1.76-6.09-1.82-6.07-8.09-5.44zM340.59 949.49l19.47 8.43 1.95-5.6c-.73-.4-1.53-1.04-2.44-1.32-4.25-1.31-8.57-2.42-12.79-3.83-2.63-.88-5.12-2.06-6.19 2.33zm207.5-835.81 2.61 8.26 16.84-3.3c-.98-1.4-1.74-3.66-2.77-3.79-5.52-.69-11.11-.83-16.67-1.17zM770.63 422.4l-.24-1.07-84.52 18.5.26 1.2q42.25-9.3 84.5-18.64zM630.29 151.05q-.51.22-1.04.42c-.3 2.79-.9 5.6-.75 8.35.07 1.3 1.63 3.61 2.44 3.58 3.23-.14 6.44-1.01 9.54-1.6zM596 216.9c-1.38-6-2.69-11.6-3.98-17.17-1.15.2-2.5.42-3.82.63l3.9 17.28zm-159.62-6.85-.76-.42c-3.83 3.92-18.26 32.06-18.58 36.72zm127.88-98.96-5.7-12.03-5.75 9zm-24.34 380.6-4.54-18.44-.69.07v17.56l5.23.82zm54.1-247.06.97-.34c-1.89-7-3.97-13.92-7.55-20.35-3.44 1.54-1.83 3.8-1.07 5.46 2.38 5.15 5.08 10.17 7.66 15.23zm-8.25 521.94.6.7q11.4-9.38 22.78-18.83c.15-.13-.1-.71-.31-2.06-8.83 6.09-15.67 13.46-23.06 20.19zm-170.08 128.3c-14.3-4.82-24.54-6.27-28.49-4.37zm-41.2 60.08c3.11 6.99-2.52 11.52-3.46 17.2l3.8 2.04 2.72-18.25zm313.13-180.09.8-.14c0-7.44.04-14.88-.07-22.3 0-.8-.9-1.57-1.39-2.35l-.95.5c-.24 8.16-.14 16.29 1.61 24.28zm-319.52 270.4-.16.89 19.68 3.59c-1.76-2.6-2.41-4.17-5.45-3.91-4.64.4-9.38-.33-14.07-.57m111.14-652.55.84 4.29 12.75-6.94-.35-.85zm-86.12 589.96-2.87-11.84-4.11 8.7zm373.85-683.29c-1.67-2.85-5.72-4.7-7.21-2.99-.72.82-.44 3.03.08 4.32.73 1.77 4.1 1.06 7.13-1.33M619.12 752.22l-1.5-.12-6.88 20.74c.83.01 1.13-.17 1.23-.43q3.75-9.1 7.37-18.25c.2-.53-.13-1.28-.21-1.93zm-57.81-270.9-.41.07v2.73c0 2.77-.1 5.54.02 8.3.16 3.8.6 4.15 4.3 4.13zm-179 475.8c-.35 1.82-.5 3.32-.93 4.74-1.19 3.89-2.52 7.73-3.72 11.62a6 6 0 0 0-.07 2.33c.02.18.67.3 1.02.44.31-.8.8-1.58.9-2.4.8-5.67 2.35-11.06 5.49-15.97-.52-.25-1.04-.57-1.6-.75-.36-.11-.8-.02-1.09-.02zM620.03 187.3c4.19 4.4 4.55 10.5 6.69 15.81l2.85-1.4-8.16-15.16zm125.85 67.83c-1.15-3.86-4.14-2.12-6.32-2.29-.91-.06-1.92 1.11-2.88 1.72 1.12.63 2.25 1.77 3.38 1.76 1.89 0 3.77-.73 5.82-1.2zm-116.5-125.68-6.56-5.78-2 5.78zM482.19 468.2c2.3 2.82 4.75 1.76 7 1.09.71-.21 1.16-1.26 1.73-1.93-.93-.4-1.94-1.25-2.76-1.1-1.96.37-3.83 1.22-5.97 1.94m271.98-191.02c-6.25-.84-7.54-.63-10.03 1.6 2.52 1.54 8.09.77 10.03-1.6m-342.1 656.6.1-.57c-3.38-1.11-6.74-2.28-10.16-3.27-.54-.16-1.32.48-1.99.76.28.52.5 1.45.85 1.5 3.72.61 7.45 1.08 11.19 1.59zm143.16-714.42c-.59-1.9-.91-4-3.5-2.89-.66.29-1.48 1.85-1.24 2.3 1.2 2.18 2.99 1.07 4.74.6m179.87 24.52-.69.9c.53.66 1.03 1.84 1.58 1.86 1.5.07 3.02-.36 4.53-.59l-.02-1.48zm5.65 19.02c2.8 2.82 4.39 2.81 7.43 0zM368.33 970.65l.8-6.23-.58-.14-2.99 4.62zm245.69-584.23.77-3.5-.61-.66-4.86 2.5zm-67.23-183.87c2.12-2.76.1-4.85-.21-6.96-1.57 2.14-1.56 4.26.2 6.96m37.62 399.58-.7-.53-2.47 3.19.62.49zm-3.08 169.07-.37.57c.17.07.41.25.5.2.18-.13.28-.38.4-.57zm-138.34-31.1.56.3.24-.49z"/><path fill="#000" d="M282.37 80.3c-.2-.33-.64-.83-.55-.99 3.7-5.86 3.92-12.93 6.7-19.12 2.76-6.1 5.98-12.13 7.58-18.55 1.96-7.83 7.92-10.76 13.98-13.69 8.23-3.97 16.5-8.03 25.15-10.9a225 225 0 0 1 31-8.03c15.28-2.76 29.91.3 44.09 6.56 18.2 8.03 34.59 19.1 51.22 29.78q6.05 3.89 12.12 7.75c.36.22.9.17 1.57.28-.09.42-.51 1.3-.27 1.57 4.2 4.5 1.16 9.23.43 13.82-.64 4.05-1.08 8.3-2.7 11.97-1.95 4.45-5.03 8.4-7.7 12.53-.33.5-1.18.64-1.76 1-.48.31-.9.72-1.35 1.08.64.25 1.47.9 1.91.7 3.45-1.56 6.89-3.16 10.2-4.99 1.46-.8 2.58-2.22 3.93-3.27.58-.45 1.34-.66 2.02-.99.1.76.54 1.68.26 2.24-1.32 2.57-2.83 5.05-4.32 7.64.53.13 1.75.74 2.07.43 2.18-2.13 4.72-1.1 7.1-.93.88.07 2.3.71 2.42 1.3.21 1.12.1 2.98-.62 3.51-4.33 3.13-5.19 8.1-6.96 12.53-1.98 4.96-4.02 9.08-10.51 9.44-3.17.18-6.3 2.53-9.26 4.2-.78.43-1.16 2.01-1.18 3.08 0 .37 1.58.84 2.49 1.15 1.98.66 3.98 1.25 5.88 1.83-.73 2.3-.87 3.99-1.74 5.14-1.07 1.4-2.82 2.29-4.13 3.55a4.4 4.4 0 0 0-1 2.23c-.56 2.9-1.51 5.36-4.32 7.05a31 31 0 0 0-7.12 6.2c2.14-.2 4.29-.65 6.42-.57 4.67.17 8.84-1.36 13.05-3.07 2.75-1.12 5.74.69 6.35 3.82.42 2.18.47 4.42.66 6.64s.5 4.44.48 6.65c0 1.08-.62 2.15-.95 3.22-.96-.64-2.43-1.09-2.77-1.97-1.2-3.08-2.02-6.31-2.94-9.5-.25-.85-.35-1.74-.55-2.76-5.45 1.75-10.57 3.96-15.92 4.99-12.58 2.43-21.95 10.26-30.96 18.26-10.2 9.08-19.5 19.2-29.13 28.9-2.63 2.64-5.4 5.23-7.53 8.25-2.82 4.04-7.1 6.21-10.88 9.88.97.5 1.89 1.3 2.92 1.5 7.41 1.36 13.56 5.16 19.2 9.9 2.28 1.9 4.7 3.86 6.28 6.28.91 1.4.31 3.78.4 5.72-.8-.08-1.8.13-2.36-.27-3.27-2.34-6.26-5.11-9.68-7.18-4.83-2.91-9.95-5.33-14.32-7.64l-20.29 17.6c1.83 1.63 3.98 3.83 6.44 5.6.96.7 2.67.78 3.92.55 4.33-.81 8.59-1.98 12.9-2.85 6.23-1.24 11.54 1.22 14.36 6.78.5.99.07 2.45.07 4.16-2.03-1.12-3.7-1.7-4.9-2.78-4.04-3.64-8.46-3.59-13.25-2.01-2.1.68-4.58.52-6.42 1.56-5.15 2.92-9.3 1.46-13.34-2.07-2.2-1.94-4.43-3.93-6.89-5.49-2.01-1.27-1.56-2.57-.6-3.91.68-.95 1.73-1.65 2.7-2.36 6.95-5.21 13.93-10.4 21.22-15.84l-4.88-2.42 1.06-3.18c-1.07-.79-2.37-1.6-3.46-2.64-.38-.35-.5-1.7-.29-1.81 1.31-.74 2.86-1.92 4.12-1.71 2.2.36 3.24-.65 4.5-1.98 5.35-5.65 10.77-11.24 16.13-16.88.74-.77 1.3-1.7 2-2.62-4.6-1.6-7.18 1.47-9.96 3.83-7.42 6.3-14.78 12.7-22.19 19.02-.33.28-.92.26-1.8.5l.18-3.09c-17.72-1.72-50.93-22.66-51.53-32.61 2.23-1.02 3.61.19 5.33 1.53 8.33 6.5 16.82 12.8 25.76 19.55.66-4 2.88-5.17 5.53-5.21 1.23-.02 2.48 1.12 3.72 1.74l.53 1.4-5.62 4.06 17.66 7.14c6.46-5.66 12.75-11.24 19.13-16.73 2.14-1.83 4.53-3.37 6.74-5.14 3.52-2.81 6.68-2.67 9.85.78 12.22-12.82 24.96-25.03 40.94-33.9-7.1-2.65-13.59-5.47-16.7-12.51-2.75.85-5.38 3.93-8.42 1.09-1.6-1.5-1.65-3.75.16-6.12.34 1.04.4 1.75.76 2.22 1.28 1.59 2.5 2.98 4.66.78 6.66-6.79 10.71-14.36 8.8-24.3-1.09-5.68-6.83-8.64-11.28-9.18-7.73-.92-12.2 4.04-16.59 9.1-1.1 1.28-1.9 2.82-2.83 4.22 3.78.04 4.37-.29 6.92-2.86 1.64-1.65 3.27-3.49 5.26-4.58 6.49-3.55 11.8-.65 12.6 6.64a19 19 0 0 1-.08 5.07c-2.52-5.51-5.46-9.86-12.31-6.43q1.54-.02 3.08 0c3.9.08 6.74 3.5 6.1 7.36-.06.38-.14.78-.08 1.15 1.07 7.07-4.43 12.49-11.56 11.15-2.4-.45-4.66-1.97-7.07-2.27-3.01-.37-6.13-.08-9.19.12-1.26.08-2.48.72-3.73 1.01-2.64.61-4.7-1.16-5.7-4.9-.16-.56-.13-1.16-.19-1.73l-.89-.4c-.69 1.16-1.33 2.34-2.07 3.47-.4.6-1 1.57-1.43 1.53-1.1-.1-2.62-.37-3.14-1.14-1.27-1.85-2.06-4.03-3-5.98-2.16 3.45 2.42 6.62 1.42 10.15-4.54-.93-6.38-4.74-8.24-8.8-1.04.28-2.34 2.4-3.35-.15-.08-.22-2.2-.17-2.6.35-1.25 1.62-2.16 3.53-3.15 5.36-.42.78-.54 1.79-1.1 2.42-.62.69-1.6 1.06-2.42 1.57-.28-.81-.88-1.67-.78-2.43.7-5.61 1.6-11.2 2.31-16.83a4 4 0 0 0-.72-2.74c-1.68-2.04-3.26-4.64-5.49-5.63-2.37-1.05-5.92-1.52-8.14-.48-8.93 4.18-18.1 7.4-27.8 9.06-8.9 1.53-17.86 2.78-26.76 4.6 4.1-.38 8.26-.52 12.3-1.24 2.39-.41 3.82-.23 4.77 2.18 2.8 7.14 5.57 14.3 8.66 21.32 2.66 6.03 5.75 11.88 8.66 17.81.18.35.42.77.74.92 2.74 1.31 3.14 1.98 1.22 4.44-2.8 3.58-5.74 7.2-10.55 8.29-.77.17-1.64-.04-2.8-.1 1.43-5.33 6.32-7.28 8.65-10.65-2.91-4.72-6-9.27-8.58-14.08-1.55-2.88-3.72-1.8-5.77-1.7-1.66.09-3.34.91-4.94.73-1.67-.18-3.54-.12-4.39-2.7-.96-2.92-3.2-3.07-6.19-1.2-4.01 2.5-6.54 2.5-8.44.42l11.04-14.8-.66-.84c-4.42.76-8.84 1.57-13.28 2.27a929 929 0 0 1-19.76 2.91c-5.42.73-10.86 1.66-16.3 1.8-11.08.29-19.4-4.79-25.24-14.14-3.97-6.37-5.76-13.06-3.24-20.4 1.68-4.9 2.14-5.05 6.9-3.53.53.17 1.08.28 1.74 0l-2.35-.9q-1.08-.4-2.31-.83c-.4-1.89.3-3.03 2.29-3.46 7.4-1.62 14.77-3.47 22.21-4.88 7.71-1.46 15.49-2.6 23.26-3.7 4.92-.68 9.89-1 15.17-1.5.78-2.38 1.4-5.08 2.55-7.5 1.46-3.07 3.38-5.9 5.06-8.85.27-.47.33-1.06.49-1.59l3.86.61c.77.76 1.96 2.55 2.54 2.37 1.56-.48 2.87-1.8 4.31-2.82.46.57 1.09 1.66 1.98 2.4 1.43 1.17 3.28 1.46 4.08-.5 1.55-3.83 2.7-7.83 4.01-11.75l-.8-.27 2.94-.89c-2.87-.26-4.6-.35-4.32 2.61a7.4 7.4 0 0 1-.76 3.8c-1.14 2.31-1.11 5.45-4.92 7.13l-1.63-11.38c-1.62 4.02-2.95 7.3-4.3 10.6l-1.17-.27-.36-7.88c-2.5 1.85-1.72 5.98-5.43 6.07zm17.76-24.63.05.07-2.78-1.22c-.95 2.16-2 4-2.56 5.98-.68 2.49 1.4 5 3.75 4.66 2.5-.34 4.49-1.75 4.73-4.3.21-2.23-.39-4.54-3.2-5.2zm98.39 63.4c-.85.06-1.6-.1-2.13.18-2.75 1.4-5.87 2.47-8.03 4.52-3.31 3.18-6.68 6.82-5.65 12.09.47 2.41 1.9 4.65 2.32 7.07.39 2.17 1.6 2.82 3.12 2.03 2.26-1.2 4.56-.54 6.79-.62 2.32-.07 4.78.55 7 1.38 3.94 1.46 7.24.15 8.59-3.78.5-1.45 1.09-2.86 1.83-4.78-1.3 0-2.26-.08-3.2.02-4.39.43-8.77 1.05-13.17 1.28-1.35.07-2.8-.83-4.12-1.45-1-.47-1.88-1.19-2.9-1.85 1.1-5.8 2.56-8.3 9.55-16.08M372.38 50.8l-.96-.87c-.93.85-2.19 1.51-2.74 2.56-8.36 15.8-13.83 32.77-19.37 49.68-.36 1.1-.05 2.42-.05 3.07zm-76.2-1.7q.75.02 1.5 0c4.78-.2 9.5-.08 13.8 2.49 5.27 3.15 5.83 6.84 1.69 11.4-2.12 2.32-4.3 4.58-6.56 6.97 3.2-.9 8.1-5 9.87-8.17 2.36-4.24 1.73-7.52-2.17-10.1-5.55-3.66-11.55-4.9-18.13-2.59m113.54.83-.08 1.46c11.9 1.35 23.9.85 35.84 1.55l.06-1.17zM276.08 99.15l39.58 3.68c-12.4-3.43-25.9-5.45-39.58-3.68m101.3-61.71 1.03-.39c-1.05-3.58-2.16-7.15-3.15-10.74s-1.84-7.2-2.75-10.78l-1.06-.18c-.22.94-.86 1.98-.63 2.78 1.46 5.07 3.09 10.1 4.73 15.1.48 1.46 1.2 2.82 1.82 4.22zm95.25 72.2c-1.5 1.16-2.98 2.35-4.52 3.45-1.4 1-2.77 2.2-4.35 2.74-3.35 1.13-3.41.99-2.65 4.82 4.38-3.19 10.48-4.13 11.52-11.01m-97.54 21 1.17-5.95h-4.08zm-7.97-6.18 2.6 5.72.77-.37c-1.54-1.65.78-5.13-3.37-5.35m64.53 8.4c-.52 3.65 2.81 2.1 4.06 3.52q.02-2.65-4.06-3.53m-250.67 849.2c1.58.25 2.71.1 3.41.59 4.47 3.09 8.6 6.73 13.3 9.4 7.65 4.35 15.61 8.16 23.5 12.08 8.16 4.06 16.36 7.97 24.56 11.94q14.56 7.04 29.14 14.06 7.47 3.62 14.91 7.26c2.17 1.06 7.28-.75 8.7-2.84.48-.7 1.68-1.05 2.62-1.25 1.95-.42 4.15-.21 5.89-1.03 3.2-1.49 5.84.11 8.42 1.15 2.82 1.13 5.24 3.22 7.99 4.57 3 1.47 3.34 3.75 2.83 6.62a31 31 0 0 0-.61 5.72c.01.9.62 2.35 1.3 2.6 5.66 2.06 11.3 4.29 17.13 5.69 5.04 1.2 9.47 3.85 14.5 5.05 5.08 1.21 9.96 3.23 15 4.67 2.5.72 5.18 1.42 7.71 1.23 2.52-.2 4.33-2.32 5.26-4.71.76-1.95.85-4.2 1.79-6.03.58-1.14 2.2-2.42 3.36-2.42 2.3 0 4.45 2.7 3.8 4.47a52 52 0 0 1-3.8 8.06c-.65 1.11-1.7 2.74-3.6 1.42-.15-.1-.5-.17-.59-.08-4.97 4.88-10.65 1.72-15.89 1.06-6.36-.81-12.63-2.53-18.87-4.13-3.98-1.02-7.78-2.74-11.76-3.78-4.49-1.17-8.47-3.34-12.4-5.62-2.04-1.18-4-2.1-6.39-2.44-1.16-.17-1.97-2-3.17-2.68-5-2.84-7.21-7.83-9.92-12.44-.32-.55-.2-1.36-.3-2.24-3.35 1.22-6.52 2.34-9.66 3.53-1.5.56-2.91 1.33-4.42 1.83-.7.24-1.67.34-2.3.04a854 854 0 0 1-16.04-7.7c-9.39-4.65-18.7-9.45-28.15-13.99-8.2-3.95-16.56-7.52-24.78-11.44-9.27-4.42-18.66-8.65-27.59-13.71-5.74-3.25-10.97-7.59-14.88-14.5zm203.4 25.84c-.26 5.47-3.86 8.38-7.85 10.34-6.9 3.4-14.23 4.76-21.87 2.19-5.95-2-9.9-6.72-10.33-13.18-.2-3.09.35-6.22.6-9.33.02-.27.23-.66.44-.75 5.02-1.93 7.76-7.43 13.3-8.47 1.6-.3 3.38-.63 4.9-.23 4.07 1.1 8.53 1.85 11.93 4.1 3.14 2.09 6.77 4.62 7.22 9.33.2 2.03 1.08 4 1.66 5.99zm-4.66-1.89c-.48-1.69-.83-3.43-1.45-5.07-1.69-4.5-5.76-7.57-9.53-7.26q-2.34.21-4.66.57c-4.63.72-8.76 1.77-11.95 6.07-4.42 5.94-1.06 15.82 5.11 17.11 4.24.88 8.48.53 12.72-.3s10.23-4.49 9.76-11.12"/><path fill="#000" d="m194.74 970.8 87.66 45.45c-9.25-.11-81.3-35.53-87.66-45.46"/><path fill="#fff" d="M522.58 676.1c-1.15.94-2.39 1.8-3.44 2.84-2.81 2.78-5.54 5.64-8.3 8.47l-1.12-1.07 70.9-81.35.79.63c-2.39 3.03-4.7 6.1-7.17 9.05q-11.31 13.37-22.7 26.67-12.74 14.92-25.43 29.9c-.48.57-.47 1.56-.7 2.35l-.05.03c-.4-.1-1.09-.36-1.13-.28-.24.48-.34 1.04-.48 1.57l.07-.08-1.27 1.29z"/><path fill="#000" d="m328.8 139.68-20.76 6.64c-1.04-3.46.78-5.66 3.1-7.39 3.73-2.76 7.94-4.49 12.68-4.4 4.18.06 5.68 2 4.98 5.15m-4.91 23.27c.71-.37 1.38-.6 1.91-1.02 3.16-2.48 5.64-2.16 7.77 1.27a25 25 0 0 1 2.98 6.1 5.6 5.6 0 0 1-.84 4.15c-.45.66-2.28.8-3.34.55-5.04-1.22-8.48-5.95-8.48-11.05"/><path fill="#fff" d="M282.37 80.3c3.7-.1 2.93-4.21 5.43-6.06l.36 7.88 1.18.26 4.3-10.6 1.62 11.38c3.8-1.68 3.78-4.81 4.92-7.13.55-1.13.89-2.55.76-3.8-.29-2.95 1.45-2.87 4.32-2.6l-2.94.89.8.26c-1.32 3.93-2.46 7.92-4.01 11.75-.8 1.97-2.65 1.68-4.08.5-.9-.74-1.52-1.83-1.98-2.4-1.44 1.01-2.75 2.33-4.31 2.82-.58.18-1.77-1.6-2.54-2.36l-3.86-.61z"/><path fill="#000" d="M523.74 674.9c.15-.53.24-1.08.49-1.56.04-.08.73.17 1.12.27z"/><path fill="#fff" d="m447.45 567.73.02.07-.7.36zm192.51-191.88c1.08-.2 2.15-.59 3.22-.55q4.43.14 8.83.64c2.35.28 3.75 1.43 4.43 4.05 2.07 7.87 4.7 15.6 6.8 23.45 1.1 4.1 1.63 8.38 2.33 12.58.18 1.02.03 2.1.03 3.8-4.12-12.88-7.88-25.01-11.9-37.06-1.85-5.52-2.16-5.48-7.93-5.63-1.9-.05-3.8-.25-5.7-.39zm130.66 46.53-84.5 18.65-.26-1.2 84.52-18.5zM436.38 210.03l-19.34 36.3c.31-4.65 14.74-32.8 18.58-36.72zm25.5 517.17a63 63 0 0 1-17.09-13.47c-.96-1.08-1.54-2.56-2.03-3.94-.14-.38.6-1.45 1.08-1.57.52-.12 1.76.51 1.76.8-.05 4.08 3.37 5.83 5.64 8.17 3.3 3.4 7.1 6.34 10.7 9.48a3 3 0 0 0-.07.52zm-4.94-205.22c4.43-4.06 8.74-8.27 13.32-12.16 3.29-2.8 6.93-5.2 10.91-7.44-.22.58-.27 1.39-.69 1.72a3121 3121 0 0 1-22.53 17.8c-.22.18-.7.02-1.07.02zM415.7 894.85l-28.5-4.37c3.96-1.9 14.2-.45 28.5 4.37M729.84 250.9c-2.67-6.2-5.46-12.35-7.98-18.61-1.67-4.2-2.95-8.54-4.4-12.81l1.04-.4q5.92 15.75 11.8 31.49a3 3 0 0 0-.46.33M393.12 982.66l-7-3.14c1.33-2.78 2.6-5.46 4.12-8.7zm272.6-541.56-11.37-14.84.92-1c.73.4 1.76.6 2.14 1.2 2.98 4.77 5.83 9.6 8.72 14.42zm-46.6 311.1c.09.66.42 1.41.21 1.95q-3.62 9.14-7.36 18.24c-.1.26-.4.44-1.24.43l6.89-20.74zm-173.7-13.37 17.05-11.35.33-.33c1.4.65 2.8 1.3 5.07 2.33-7.56-.88-11.03 5.12-16.43 7.1-1.94.72-3.75 1.78-5.62 2.67zM382.3 957.1c.3 0 .73-.1 1.1.03.56.17 1.08.5 1.59.75-3.14 4.9-4.7 10.3-5.48 15.96-.12.83-.6 1.6-.9 2.4-.36-.14-1.01-.26-1.03-.44a6 6 0 0 1 .08-2.33c1.2-3.89 2.53-7.74 3.7-11.62.44-1.41.6-2.92.94-4.74zm29.77-23.33c-3.73-.51-7.47-.98-11.2-1.59-.35-.05-.56-.98-.83-1.5.66-.28 1.44-.92 1.98-.76 3.42 1 6.78 2.16 10.17 3.27zm75.83-536.19-5.39 5.75c-2.15-3.23-1.02-2.69 5.16-5.97zm252.86-134.7h7.42c-3.04 2.83-4.62 2.83-7.42 0M368.33 970.65l-2.77-1.74c1.03-1.59 2-3.1 3-4.62l.57.13zM584.4 602.12l-2.55 3.15-.61-.5 2.46-3.19z"/><path fill="#fff" d="m730.3 250.57.27 1.59-.52.08-.2-1.34q.2-.19.46-.33m-64.19 190.31.4.8-.8-.58zM442.98 740.1l.8-.19-.23.49zm2.84-.84-.96.67-.3-.37q.44-.36.86-.73.21.2.4.43m41.85-341.89.63-.4c.03 0 .13.13.2.2l-.6.43zm-31.39 125.2.67-.58-.07-.06-.17.77-.51-.19zm5.6 204.64q0-.26.06-.52l.86.48-.33.32zm-5.69-204.7-.07.6-.27-.06.43-.47zm-83.82-471.7-23.11 54.45c0-.66-.32-1.98.05-3.08 5.54-16.91 11-33.87 19.37-49.67.55-1.05 1.8-1.72 2.74-2.57zm-76.2-1.7c6.59-2.3 12.59-1.07 18.13 2.6 3.9 2.57 4.54 5.85 2.17 10.1-1.76 3.16-6.68 7.27-9.86 8.16 2.24-2.39 4.43-4.65 6.55-6.97 4.15-4.55 3.58-8.24-1.7-11.4-4.28-2.57-9-2.68-13.79-2.5-.5.03-1 0-1.5 0zm113.54.83 35.83 1.85-.07 1.16c-11.94-.7-23.94-.2-35.84-1.54zM276.08 99.16c13.68-1.76 27.18.24 39.58 3.68z"/><path fill="#fff" d="M300.13 55.68c2.8.65 3.4 2.96 3.2 5.2-.25 2.54-2.25 3.95-4.74 4.3-2.34.32-4.44-2.19-3.75-4.66.55-1.99 1.61-3.82 2.56-5.98l2.78 1.22c-2.6.54-3.98 2.86-3.52 6.2.1.68.53 1.67 1.06 1.87.6.22 1.6-.08 2.2-.5 2.27-1.54 2.3-4.48.2-7.65zm66.98 68.78c4.16.22 1.84 3.7 3.38 5.35l-.78.37z"/><path fill="#000" d="M552 355.51c9.86-11.34 16.4-24.7 23-38.08 3 1.38 4.26 2.7 3.46 6.02-1.88 7.87-6.54 14.03-11.51 19.97-3.5 4.17-7.62 7.83-11.55 11.62-.7.68-1.86.89-2.8 1.31zm-53.35.94c9.65 2.42 13.9 9.26 17.58 16.61 1.2 2.42 2.12 5 2.93 7.59.23.75-.37 1.76-.58 2.65-.83-.42-2.1-.64-2.42-1.3a74 74 0 0 0-16.35-22.39c-.6-.56-.66-1.7-1.16-3.16m22.74-5.74c-3.08 2.88-6.43 5.17-11.03 4.7l-.45-.96 10.97-4.79zm317.36 394.1c2.34 1.6 5.4 2.7 6.89 4.88 4.94 7.22 4.93 13.92-2.57 20.3-2.62 2.22-5.75 1.75-8.49 1.28-6.57-1.13-10.91-5.32-12.63-11.75-1.55-5.78-.13-10.97 4.13-15.35 2.54-2.61 5.49-2.07 8.48-1.4.96.21 1.88.66 2.81 1l-.46.44c-2.05-.01-4.2-.43-6.12.08-1.79.46-4.2 1.52-4.8 2.95-2.1 4.97-2.75 10.3.52 15.07 3.2 4.7 7.95 6.6 13.6 5.98 3.79-.41 7.62-5.93 6.89-9.57a24 24 0 0 0-8.17-13.96zm25.32 27.28c8.23 22.41 14.71 45.25 18.14 68.88-6.36-22.89-14.22-45.38-18.14-68.88"/><path fill="#000" d="m837.37 743.77 1.38 1.05.08-.07-1.93-.54zm-367.3-453.36c-.82-.44-2.07-.67-2.4-1.34a596 596 0 0 1-9.21-19.8c-.24-.54.57-1.8 1.21-2.4 1.38-1.3 2.27-.18 2.73 1 2.56 6.6 5.03 13.25 7.53 19.87q.33.96.63 1.92zm15.63 187.73c2.81.22 3.76 1.5 3.49 4.17-.2 1.84.34 3.74.07 5.76l-1.44-3.92c-.5 2-.7 3.46-1.27 4.74-.3.65-1.29 1-1.95 1.48-.36-.63-1-1.25-1.02-1.9-.12-3.62.03-7.23 2.12-10.34zm37.16 7.84.87 2.32-.78.27-.68-2.26.6-.33zm-3.34-238.22-1.74 2.53c.78-.32 1.02-.4 1.23-.52 2.88-1.6 5.59-3.48 9.28-2.7 7.07 1.48 10.87 10.48 6.58 16.33-2.53 3.45-6.24 5.62-10.5 5.26-5.26-.44-9.27-3.2-10.88-8.63-1.5-5.04.9-10.52 6.03-12.27m-2.28 3.57c-.79 7 2.1 11.83 7.7 13.49 3.35.99 6.3-.2 7.54-3.07 2.18-4.98-2.19-11.37-8.03-11.44-2.44-.02-4.9.67-7.21 1.02m189.05 64.98c-.47-.73-1.34-1.47-1.33-2.2.02-1.98.45-4.08 3.16-3.75.82.1 2.26 1.46 2.16 1.68-.68 1.53-1.7 2.92-2.62 4.35zM409.23 140.63l-4.23 3.76c-.43-.58-1.36-1.41-1.21-1.72.9-1.87 1.99-3.75 5.44-2.04m-109.1-84.95c2.09 3.16 2.06 6.1-.2 7.65-.6.4-1.61.72-2.21.49-.53-.2-.96-1.18-1.06-1.87-.46-3.33.91-5.65 3.52-6.2zm74.07 946.34-3.48 4.3-2.3-2.34c1.58-1.31 2.9-3.23 5.77-1.96zm-2.72 11.08c-2.8.32-5.32 3.16-9.1.35l9.03-1.15zm466.75-252.8c1.28-4.93-.66-7.18-4.34-8 .92-.82 2.04-1.93 2.11-1.86 1.55 1.38 3.38 2.68 4.33 4.43 1.14 2.08-.09 3.94-2.1 5.43m-11.52-8.84 3.61-4.28c.4 1.3 1.03 2.46.77 2.7-1.03 1.03-2.33 1.78-3.54 2.63z"/></svg>