<svg xmlns="http://www.w3.org/2000/svg" width="1080" height="1080" fill="none" viewBox="0 0 1080 1080"><path fill="#fff" d="M900.26 669.54v9.9c-1.53 3.97-2.7 8.13-4.66 11.87a258 258 0 0 1-12.18 21.24 416 416 0 0 1-18.11 25.55c-4.43 5.78-9.68 10.94-14.44 16.49-6.43 7.5-13.3 14.58-21.47 20.17a39.5 39.5 0 0 0-14.88 18.69c-1.17 3-1.7 6.26-2.46 9.22 4.46-1.56 8.48-4.03 12.55-4.13 6.3-.14 12.79.74 18.9 2.3 5.95 1.53 11.52 4.52 17.29 6.78a35.7 35.7 0 0 1 19.46 17.72c6.18 12.16 8.46 25.2 8.81 38.65a81 81 0 0 1-.63 12.14c-.5 4.06-1.14 8.2-2.39 12.07-1.36 4.22-3.5 8.2-5.3 12.27-2.05 4.65-4.84 8.53-9.77 10.66-3.57 1.55-6.84 3.8-10.42 5.32-2.45 1.04-5.32 2.79-7.63-.48-.7-1-1.29-2.07-1.98-3.19-5.5 1.42-11 2.88-16.53 4.28a158 158 0 0 1-37.34 5.05c-14.31.15-28.62.3-42.93.66-4.66.12-9.3.88-13.94 1.38-6.83.74-13.64 1.8-20.49 2.19-4.99.27-10.02-.48-15.03-.48-5.43.01-10.85.26-16.27.61-3.05.2-6.07.79-9.11 1.2h-6.19c-.94-.2-1.87-.5-2.82-.6-5.45-.57-10.84-1.03-15.2-5.14-2.45-2.31-4.92-4.93-8.61-5.39q-5.56-.65-11.12-1.25c-3.74-.4-7.48-.88-11.23-1.17-4.07-.32-8.2-.9-12.23-.57-8.75.72-17.47 1.89-26.18 2.97-9.6 1.2-19.15 2.75-28.76 3.7a434 434 0 0 1-27.38 1.65c-5.69.2-11.4-.3-17.09-.38-17.5-.24-35.02-.21-52.51-.73-7.45-.22-14.9-1.4-22.3-2.44a71 71 0 0 0-24.6.8c-14.4 3.03-28.84 5.56-43.52 6.74-3.85.3-7.66 1.2-11.49 1.81H342c-.6-.2-1.2-.52-1.82-.6-3-.4-6.02-.88-9.04-1.06-5.93-.36-11.86-.65-17.8-.76-7.54-.15-15.1.2-22.62-.22-6.2-.35-12.35-2.2-18.51-2.14-8.55.08-16.66-1.81-24.84-3.65-8.23-1.84-16.46-2.12-24.74-.27-6.2 1.39-11.62-1.7-12.38-7.58a390 390 0 0 1-2.48-26.72c-.28-4.76.14-9.6.58-14.37.47-5.04 1.27-10.04 2.08-15.03 1.17-7.2 4.66-13.41 8.44-19.49 3.9-6.23 8.12-12.17 14.67-15.94 3.85-2.21 7.83-4.37 12.48-3.25 3.24.78 6.32 1.63 9.8 1.7 9.2.2 18.44.85 27.05 4.7 6.32 2.83 12.87 2.4 19.4 1.24 2.57-.45 5.02-1.54 7.52-2.34-1.4-2.75-2.18-6.15-4.3-8.14a170 170 0 0 0-18.22-15.2c-9.73-6.88-19.56-13.75-30-19.47-15.91-8.74-32.31-16.6-48.63-24.59-5.03-2.46-9.84-4.95-12.54-10.1-1.12-2.12-1.78-4.5-2.65-6.75v-3.71c1.44-6.48 3.08-12.93 4.28-19.46 1.73-9.35 3.05-18.76 6.58-27.69 4.33-10.96 10.34-20.86 18.43-29.4 3.8-4.01 7.8-7.92 13.14-10.02a31 31 0 0 1 14.68-1.97c8.53.9 17.07 1.69 25.6 2.6 8.75.95 17.48 2.17 26.25 2.94a43 43 0 0 1 17.35 5.5c5.39 3.01 10.42 6.64 16.3 10.45.4-3.48.67-6.16 1-8.83 1.02-8.04 1.85-16.11 3.13-24.1.94-5.84 1.9-11.79 3.93-17.28 2.1-5.65 5.57-10.78 8.28-16.22 2.23-4.46 4.14-9.07 6.32-13.55 3.39-7 6.77-14 10.38-20.87a323 323 0 0 1 10.32-18.32c4.4-7.2 9.54-13.98 13.64-21.34a89 89 0 0 0 9.24-25.17c1.88-8.99 6.03-17.49 8.9-26.3a49 49 0 0 0 2.47-11.76c.3-4.77-.32-9.58-.5-14.38a8.1 8.1 0 0 1 3.24-7.12c1.34-1.05 2.8-2.3 3.46-3.79a30 30 0 0 1 11.36-13.4c10.93-7.06 21.92-14.04 32.87-21.07 5.8-3.72 11.75-7.23 17.3-11.28 4.82-3.51 9.13-7.72 13.79-11.47 2-1.62 4.98-2.42 6.36-4.4 3.19-4.58 5.68-9.66 8.4-14.46-7.3.27-14.24.87-21.16.68-7.81-.22-15.71-.59-23.4-1.91-9.18-1.58-15.3-7.13-16.45-16.86a295 295 0 0 1-1.65-19.26c-.11-2.14-.62-3.3-2.69-4.04s-4-1.91-5.92-3.02c-4.02-2.34-4.92-4.29-3.2-8.65 2.51-6.42 5.43-12.68 8.1-19.04a4.4 4.4 0 0 0 .26-2.52c-1.72-7.6-3.37-15.22-5.4-22.75-.72-2.68.08-3.74 2.29-4.17.3-1.42.96-2.74.79-3.96-.37-2.65 2.54-5.7-.96-8.02-.36-.24-.2-1.61.05-2.34 2.71-7.77 3.6-15.87 4.86-23.94.73-4.7 1.01-10.1 6.7-12.35.4-.16.5-1.14.66-1.75 1.32-5.36 3.48-10.3 8.29-13.34a67 67 0 0 1 30.6-10.12c11.87-1 23.75.34 35.27 3.3 13.31 3.42 26.47 7.45 39.62 11.5 11 3.37 22.2 6.43 32.16 12.4 4.16 2.49 7.93 5.72 11.6 8.94 1.08.95 1.33 2.97 1.72 4.57.44 1.71.83 3.5.82 5.24-.01 1.85-.7 3.68-.79 5.53-.36 8.21-.26 16.46-.99 24.64a144 144 0 0 1-3.44 21.86c-.92 3.75-.44 6.57 1.41 9.6.62 1.02.8 2.3 1.4 4.17l-2.9-1.32c-.22 4.3-.13 8.42-3.18 11.82-.98 1.1-1.4 2.8-1.82 4.29-.47 1.75-.52 3.6-1 5.35-1.09 4.03.71 7.37 2.34 10.79.59 1.23 1.38 2.42 1.67 3.72.49 2.23.66 4.53.97 6.91.37.03.77.1 1.16.07 9.81-.86 17.7 2.4 23.68 10.44 1.25 1.7 2.35 4.03 5.53 3.9 7.34-.3 14.7-.16 22.04-.06 3.55.04 7.12.14 10.63.66 3.42.5 6.6 1.22 9.85-.97 1.36-.92 3.58-1.1 5.3-.85 5.98.83 11.94 1.81 17.83 3.09 4.49.97 8.6 2.92 10.54 7.52.7 1.66.58 3.65 1.19 5.37 3.32 9.35 7.05 18.57 10.08 28 2.78 8.65 5.22 17.36 11.69 24.15 1.28 1.36 2.78 3.08 4.43 3.41 4.14.82 5.78 3.51 6.21 7.13.78 6.63.93 13.35 1.99 19.92 1.12 7.04 2.96 13.97 4.6 20.91.17.68 1.13 1.48 1.87 1.67 5.54 1.48 10.51 4.67 12.96 9.34 3 5.72 4.13 12.44 5.78 18.81.73 2.82.33 5.95 1.18 8.71 2.46 8.01 5.42 15.86 7.96 23.85 1.78 5.63 4.34 11.35 4.45 17.07.12 5.94 4.7 10.92 2.76 17-.38 1.18-.5 2.43-.73 3.66-.21 1.2.2 2.55.9 3.73 1.4 2.37 1.15 4.58-.09 6.91-.3.58-.38 1.65-.05 2.16 3.15 4.94 6.61 9.7 9.56 14.76 2.83 4.85 5.22 9.96 7.7 15 2.73 5.51 5.64 10.96 7.93 16.65 1.86 4.66 5 6.46 9.74 6.5 2.63.03 5.28.33 7.9.63q13.08 1.46 26.15 3.02c5 .6 10.16.67 14.94 2.04 7.4 2.12 13.85 6.26 18.04 12.96 2.95 4.72 5.35 9.8 7.99 14.7z"/><path fill="#000" d="M263.68 930.68c-.71-1.17-1.85-.6-2.78-.59-9.07.08-17.75-1.92-26.25-4.9a7 7 0 0 0-4.68-.15c-6.98 2.1-13.83.4-20.36-1.84-4.5-1.54-8.97-2.28-13.48-1.68-4.6.6-9.22.56-13.8.82-7.04.4-14.09 1.39-21.33.8.25-1.48 1.24-1.55 2.24-1.73 12.27-2.24 24.53-4.56 36.82-6.7 1.63-.28 1.63-.58 1.23-2-4.8-16.74-3.62-33.46.3-50.18 2.26-9.66 4.82-19.22 9.6-27.97 6.92-12.65 17.52-20.81 31.34-24.78 3.6-1.04 7.24-.77 10.93-.36 1.93.21 2.4 2.37 4.16 2.58 2.55.3 1.4 2.46 1.83 3.7 13.28-.2 26.45-.06 39.25 4.19-2.55-5.8-8.24-7.65-13.04-10.44-15.8-9.19-31.42-18.66-46.31-29.24-11.45-8.13-23.2-15.9-33.45-25.63-1.29-1.23-2.48-3.92-5.16-1.65-.1.08-1.97-.18-2.75-1.73-3.91-7.8-5.16-16.23-6.67-24.63a264 264 0 0 1-3.5-27.68c-.78-10.84-2.3-21.66-.86-32.59 1-7.65 4.26-14.22 8.36-20.63 5.98-9.37 13.65-16.78 22.44-23.59 6.34-4.9 12.4-3.6 18.88-2.85 17.18 1.97 33.66 6.98 49.94 12.46 14.27 4.8 28.23 10.5 41.35 18.04 2.44 1.4 4.76 3.02 7.2 4.58-1.58-9.88.78-19.13 3.35-28.24 3.62-12.76 9.68-24.57 14.9-36.7a484 484 0 0 1 14.4-30.42 695 695 0 0 1 14.54-27c8.4-14.69 15.34-30.01 18.01-46.92 2.22-14.05 6.54-27.54 10.65-41.1 1.08-3.54 3.1-5.95 6.56-7.16 2.69-.93 4.5-1.99 4.67-5.63.22-4.52 3.58-7.66 7.69-9.48 7.6-3.37 13.65-9 20.45-13.52a322 322 0 0 1 26.86-16.05 8.3 8.3 0 0 0 4.1-4.45c1.83-4.3 5.35-7.47 9.2-10.03 3.78-2.52 7.43-5.35 11.9-6.67.88-.26 1.55-.94 1.9-2.43-2.2 1.43-4.71 1.07-6.5 2.76-.28.26-.77.55-1.08.47-2.78-.67-4.88 1.43-7.44 1.77-6.69.89-13.64 1.14-19.92 3.29-4.07 1.39-7.53.74-11.12.22-4.47-.65-6.66-4.39-8.4-8.2a20 20 0 0 1-1.49-7.1c-.25-4.68-3.48-8.34-4.2-12.91-1.15-7.33-1.54-14.62-.46-21.95.2-1.37-.08-1.5-1.38-1.72a11.23 11.23 0 0 1-9.26-13.88 99 99 0 0 1 7.76-21.22c.82-1.6.9-2.86.03-4.51-1.9-3.58-3.49-7.32-5.25-10.97-.74-1.52-.73-3.1-.7-4.7.02-.72.32-1.61.02-2.14-3.15-5.5-.06-10.69 1.07-15.78 2.24-10.15 4.13-20.41 7.63-30.26.26-.74.37-1.16-.8-1.83-3.53-2.02-5.83-5.47-5.85-9.47-.04-4.98-1.72-9.6-2.25-14.43-.44-3.98-1.02-8 .28-11.84 1.2-3.54.34-7.28 1.68-10.85 1.41-3.74 3.84-5.98 7.5-6.87 1.28-.3 2.29-.62 3.13-1.6 1.63-1.89 3.45-3.24 6.14-3.6 1.82-.25 2.75-2.47 4.79-3.03 3.24-.9 6.3-.3 9.24.72 1.64.57 2.32.1 2.7-1.18 1.28-4.32 4.27-5.7 8.54-5.8 1.77-.05 3.5-1.41 5.25-2.19 3.65-1.63 6.76-.22 9.58 1.93a5.6 5.6 0 0 0 5.25 1.19c5.02-1.12 10.41-2.56 15.2-2.23 7.83.53 16.13-1.48 23.57 2.63 1.16.64 2.75 1 3.38 1.99 2.33 3.63 5.15 1.89 7.3.46 4.2-2.78 8.14-2.04 12.12-.03 1.5.75 2.62 1.38 4.46.8 5.58-1.73 10.35.5 14.66 3.83a7 7 0 0 0 4.72 1.69c5.16-.13 9.97.86 13.66 4.88.82.9 1.84.75 2.86.67a13.8 13.8 0 0 1 12 4.94c1.8 2.06 4.33 3 6.46 4.58 7.57 5.63 11.34 13.19 11.83 22.51.1 1.83.86 3.59.61 5.47-.13 1 .29 1.4 1.36 1.5 1.93.18 2.6 1.54 2.3 3.29-1.24 7.69-2.42 15.39-3.87 23.04-1.2 6.37-2.73 12.68-4.13 19.02-.8 3.57-2.5 6.4-5.49 8.78-2.87 2.28-3.8 6.07-4.92 9.41-1.33 4-1.86 8.26-2.9 12.36-.33 1.27-.41 1.82 1.12 2.05 1.78.28 2.27 1.56 2.36 3.38.17 3.3-.06 6.26-3.07 8.38-.58.4-1.14 1.14-1.77 1.05-3.11-.45-3.39 1.76-3.88 3.88l-4.75 20.4c-.19.83-.73 1.89.46 2.4 5.03 2.19 4.6 6.08 3.19 10.52 4.95-.22 9.7.07 14.53 1.02 5.86 1.16 8.11 5.13 9.99 9.84.4 1.03.48 2.17.73 3.25.22.93.66 1.19 1.74 1.14a549 549 0 0 1 47.16.05c8.78.41 17.36 2.36 26.07 3.28 3.74.4 5.44 3.48 7.16 6.1 8.8 13.43 13.11 28.62 16.73 44.05.09.4.18.88.04 1.22-1.17 2.77.43 3.45 2.69 4.21 3.02 1.04 3.62 4.22 4.8 6.74.76 1.61 1.33 2.36 3.35 1.64 2.66-.96 4.6.52 5.6 2.94 2.42 5.87 3.7 12.04 4.6 18.28 1.37 9.47 1.54 19.09 3.65 28.48.56 2.47 1.17 3.87 4.1 3.88 4.76.01 7.14 3.53 8.88 7.3 2.84 6.14 3.96 12.85 5.94 19.26a870 870 0 0 1 9.72 34.42 812 812 0 0 1 7.57 31.35c.57 2.55 1.32 5.63-1.5 7.72-.94.68-.58 1.3-.23 2.1 4.33 9.75 8.08 20.1 15.04 28.06 6.15 7.04 7.8 15.37 10.83 23.39.79 2.08 1.7 2.24 3.2 1.34 2.63-1.54 5.56-2.47 7.94-4.5 6.74-5.71 14.72-5.22 22.7-4.07 12.64 1.8 25.05 4.8 37.33 8.3 4.57 1.3 9.17 2.69 13.38 5.13 2.5 1.45 2.85 2.6.48 4.43 1.21.96 2.44 1.6 3.18 2.96 6.22 11.55 11.3 23.47 13.65 36.5.5 2.8-.25 5.74 1.13 8.39v4.94c-1.32 1.13-.41 2.68-.72 4-2.13 9.11-6.12 17.37-11.34 25.07s-11.35 14.7-17.22 21.88c-8.7 10.66-18.46 20.31-28.7 29.48-10.32 9.23-22.21 16.5-32.39 26.17 12.64 2.48 24.91 5.42 36.38 10.97 10.6 5.14 19.02 12.44 23.3 23.86a94 94 0 0 1 5.4 23.35c1.3 12.52.53 24.82-2.97 36.94-1.46 5.02-4.31 9.45-6 14.3-1.46 4.16-3.89 7-7.26 9.46-2.19 1.6-4.59 2.86-7.47 4.46 3.47.29 6.32.34 9.11.8 10.7 1.75 21.41 3.14 32.28 3.05.74 0 2-.34 1.89.86-.08.8-.17 2.13-1.62 2.28-.69.07-1.38.55-2.04.5-9.26-.47-18.42 1.14-27.63 1.24-8.4.09-16.81-.34-25.2-.4-17.8-.15-35.59-.71-53.38-.76-3.87-.01-7.73.99-11.58.43a88 88 0 0 0-14.97-1.1c-7.09.2-14.17.14-21.27.48q-15.5.75-31.03 1.24c-12.1.37-24.19 1.42-36.31 1.39-3.3-.02-6.63-.27-9.9.05-7.4.72-14.49-1.61-21.77-1.98-.38-.02-.77-.22-1.12-.38-5.68-2.56-11.64-4.23-17.84-4.45-10.88-.37-21.72.52-32.58 1.04-9.94.47-19.92.37-29.88.73-9.44.35-18.94.02-28.34.83-6.04.52-12.09.42-18.12.86a473 473 0 0 1-37.37 1.16 760 760 0 0 1-18.46-.36c-5.03-.16-10.13-.01-15.05-.86-5.23-.9-10.36-.6-15.48-.15-8.95.78-17.93.82-26.8.13a65 65 0 0 0-16.53.79c-10.1 1.8-20.2 3.53-30.44 4.58-3.27.33-6.71-.33-9.87 1.09h-38.96c-.5-1.03-1.44-.6-2.18-.6q-26.12-.04-52.23.02c-.63 0-1.48-.35-1.87.58h-.62zm458.19-84.56-1.74.43c-2.04-.03-3.62 1.26-5.42 1.91-10.56 3.8-21.06 7.74-31.63 11.5-1.93.69-2.77 1.47-2.64 3.64.19 3.16-.18 6.32-.41 9.48a82 82 0 0 1-8.96 31.89 5 5 0 0 0-.42 4.23c1.19 3.43 1.34 6.98 1.16 10.55-.1 2.04-.61 2.33-2.7 2.04-2.32-2.31-1.59-5.85-3.44-8.6-1.72 1.37-3.02 3.14-4.88 4.22-1 .58-.96 1.68-.52 2.45.74 1.34 1.16 2.63.35 4.11l8.53-2.2c-.28.77-1.37.96-1.38 2.1 12.73-.58 25.43-1.2 38.14-1.71q17.4-.69 34.81-1.24c12.74-.41 25.5-.35 38.26-.63 16.51-.37 32.99.12 49.4-3.02 11.25-2.16 21.22-5.73 28.55-14.96.73-.92 2.22-1.57 3.25-1.04 1.3.67 1.78 2.18 1.42 3.72a11.5 11.5 0 0 1-4.58 7c-1 .7-2 1.33-2.81 2.79 6.31-.97 12.42-1.52 17.62-5.11 1.95-1.35 4.17-2.27 5.5-4.63 6.98-12.5 9.48-26 9.75-40.12.17-9.24-1.09-18.28-3.11-27.26-2.42-10.74-7.5-19.78-16.78-26.03-6.7-4.52-14.29-7.24-21.76-10.22-6.81-2.72-12.87.66-19.26 1.49 1.71 1.37 3.71 1.18 5.55 1.58 7.14 1.6 14.36 3.08 20.76 6.74 16.97 9.7 25.93 24.88 27.6 43.96 1.23 14.2-.5 28.32-6.13 41.66a35 35 0 0 1-4.04 7.5c-.96 1.27-1.89.68-2.64.28-.82-.44-1.65-1.38-.82-2.44.97-1.24.75-2.74 1.14-4.1a138 138 0 0 0 5.34-46.87c-.74-13.02-7.4-22.54-16.7-30.77-6.31-5.57-14.05-8.24-21.93-10.18-5.17-1.27-9.84-5.33-15.73-3.36-.27.1-.74-.29-1.06-.53-1.34-.99-2.6-.67-4-.02-13.84 6.34-27.64 12.75-41.57 18.9a893 893 0 0 1-37.4 15.4c-4.27 1.66-8.8 2.9-12.68 5.48zM501.3 382.6c-2.05 1.76-3.43 3.14-5 4.26-7.89 5.7-16.41 10.42-24.58 15.7-12.08 7.8-24.03 15.81-36.6 22.82-2.77 1.55-5.44 3.04-7.63 5.48-1.97 2.18-3.24 4.85-5.34 6.88-1.65 1.6-2.95 3.21-2.72 5.83.14 1.76-.52 3.6-.85 5.4-1.18 6.39-3.78 12.39-5.21 18.7-2.49 10.97-4.66 22.01-7.33 32.93-3.78 15.5-11.88 29.14-19.35 42.98-10.26 19.03-18.97 38.75-27.74 58.47-3.48 7.82-6.5 15.84-12.03 22.58-1.08 1.3-2.52 3.06-2.39 4.48.35 3.71-.1 7.3-.42 10.95-.5 5.54-.4 11.19-2.64 16.41-.64 1.5.38 1.46 1.09 1.83a1055 1055 0 0 1 36.2 20c17.1 9.88 33.73 20.53 50.17 31.47 15.04 10 29.88 20.3 44.78 30.5.57.38 1.11.7 1.67.41.66-.34.5-1.08.26-1.63-.81-1.9-.53-3.9-.37-5.8.21-2.64.7-5.68 3.64-6.44 1.6-.42 2.23-1.24 2.88-2.27 3.16-5.03 6.6-9.83 10.87-13.99 5.63-5.47 11.96-9.87 19.82-11.37 3.29-.63 6.66.41 9.97.82 8.43 1.03 17.22 0 25.11 4.24.44.24 1.2-.05 1.77-.2 10.28-2.37 20.56-4.72 30.81-7.18 9.15-2.18 18.39-4.07 27.07-7.86.75-.33 1.53-.05 1.23-1.67-.64-3.42.68-6.33 3.75-8.3 8.93-5.72 18.26-10.63 28.33-13.97 1.82-.61 2.25-1.13 2.38-2.93.18-2.49 1.36-4.54 3.97-5.58a63 63 0 0 0 8.24-3.87c11.62-6.79 23.69-12.6 36.55-16.6 2.21-.7 2.23-1.6 1.29-3.43-2.2-4.23-3.55-8.79-4.74-13.4-.48-1.85-.59-3.57 1.07-5.06 2.9-2.61 4.36-6.16 6.2-9.49 1.18-2.13.88-3.55-.31-5.44-3.92-6.2-7.07-12.77-8.94-19.9a4.4 4.4 0 0 1 1.6-4.65c1.38-.95 2.39 1.03 3.17 2.15 3.7 5.34 7.2 10.83 9.35 17.02 1.12 3.23 2.52 6.41.1 9.82-2.75 3.88-6.23 7.35-4.58 13.1 1.41 4.94 1.81 10.17 2.57 15.29.17 1.16.72 1.23 1.67 1.16 1.66-.13.43-.89.3-1.33-.88-3.04.9-4.09 3.4-4.92 7.29-2.45 14.82-2.06 22.27-1.7 5.96.3 12 .62 17.7 2.9.96.38 1.95.7 1.79 1.71-.21 1.34-1.52.98-2.26.65-1.22-.55-2.42-.37-3.64-.42-8.73-.43-17.4.72-26.1 1.26-1.17.07-3.06.28-3.18 1.2-.47 3.69-3.58 4.47-6.03 5.4-19.37 7.4-37.42 18.05-57.54 23.61-.64.18-1.6-.3-1.31 1.3.77 4.12-1.08 7.2-4.59 9.26a2850 2850 0 0 1-23.39 13.6c-3.62 2.08-3.62 1.98-.42 4.46 1.22.94 2.35 2.05 3.28 3.27q5.18 6.78 9.39 14.23c1 1.8 1.42 4.68 3.34 5.06a5.9 5.9 0 0 1 4.68 3.82c.67 1.54 1.43 1.36 2.58.68 8.73-5.15 17.48-10.25 26.2-15.41 16.7-9.88 33.44-19.67 50.73-28.5a633 633 0 0 1 35.08-16.48c12.5-5.45 24.84-11.27 37.23-17a1660 1660 0 0 0 23.4-11.08c.56-.27 2.11-.32 1.13-1.72-4.15-5.93-5.71-13.1-10.23-19.05a151 151 0 0 1-20.72-38c-1.08-2.87-1.79-6.04-3.5-8.49-3.78-5.45-6-11.47-7.64-17.77-2.17-8.35-3.93-16.83-6.45-25.07-3.84-12.61-8.82-24.88-11.69-37.8-2.4-10.79-4.8-21.54-5.44-32.64-.41-7.2-1.11-14.44-3.46-21.4-.57-1.69-1.32-2.79-3.02-3.28-2.13-.6-4.27-1.53-4.86-3.8-.67-2.62-2.29-3.74-4.7-4.36q-5.11-1.34-10.16-2.9a215 215 0 0 1-41.75-18.07c-12.93-7.26-25.25-15.41-35.88-25.85-1.75-1.72-3.43-2.83-5.9-2.58a3.9 3.9 0 0 1-3.66-1.46c-2.75 5.46-5.35 11-8.28 16.35-5.45 9.97-11.44 19.65-16.53 29.8-4.8 9.57-10.19 18.64-17.6 26.5l1.3-4.54c-6.88 2.44-12.99 1.45-18.58-2.4a65 65 0 0 1-9.03-7.33c-4.6-4.58-10.58-4.06-12.98.95 3.14.65 4.55 2.17 3.93 4.54-.7 2.68-2.82 5.27-5.24 4.78-4.04-.8-4.76 1.6-5.97 4.1-.3.6-.58 1.37-1.42 1.32-.82-1.4.5-2.5.43-3.86-.35-6.55 2.03-12.07 6.18-17.1 4.78-5.78 13.48-6.98 19.37-2.21 3.9 3.15 7.55 6.61 11.57 9.58 3.03 2.24 5.18 5.83 9.42 6.4 1.95.25 3.41.4 4.3-1.97.92-2.46 2.15-4.79 3.05-7.29 2.23-6.21 4.15-12.57 7.28-18.42 7.71-14.45 14.98-29.17 25-42.27.39-.5 1.43-1.24.3-2.02-4.38-3.02-5.35-7.75-6.36-12.5-.43-2-1.1-3.97-3.4-4.7-4.54-1.46-9.11-2.64-14.07-2.08.8 1.53-.09 4.22 2.46 4.06 3-.2 2.5 1.59 2.1 3.09-1.06 3.94-2.26 7.76-2.84 11.9-1.2 8.51-6.57 15.18-11.7 21.78-7.09 9.1-16.32 15.7-26.05 21.63-9.17 5.58-18.11 11.62-28.57 14.76-1.45.43-2.17 1.38-1.43 3.07a14 14 0 0 1 .78 8.2c-1.06 5.7-.1 11.08 1.27 16.57 2.06 8.19 3.03 16.57 3.87 24.98a464 464 0 0 1 2.28 35.28c.34 14.8.1 29.6-.99 44.4-.45 6.32-1.75 12.57-1.57 18.97.05 1.8-.3 3.84-.57 5.75-1.21 8.35-2.32 16.7-3.61 25.04-1.06 6.8-1.48 13.82-6.01 19.8 2.76-.56 5.15-1.58 8.61-.94-6.55 2.69-12.28 5-17.97 7.41-.72.3-1.92.15-1.93 1.56-.05 4.44-1.82 8.48-3.02 12.66-.6 2.12-1.83 4.54-.58 6.46 1.42 2.18.63 3.7-.22 5.52a163 163 0 0 1-10.03 18.09c-1.98 3.13-2.8 7.5-8.06 7.59 5.02 3.88 6.07 3.05 2.89 9.42-.75 1.5.4 1.85 1.51 2.25a12.3 12.3 0 0 1 7.62 7.41c-.73-.1-1.15-.03-1.29-.2-2.93-3.55-7.17-4.81-11.2-6.36-4.91-1.87-5.13-2.23-3.17-6.78q-1.9-.53-3.79-1.13c-11.35-3.68-21.95-8.88-32.2-15-12.86-7.69-23.87-17.48-34.37-27.97-1-1-2.67-2.18-1.3-3.87 1.22-1.48 3.07-1.7 4.9-1.16.67.2 1.32.54 1.94.88 7.41 4.06 13.56 9.87 20.3 14.85 14.6 10.75 30.55 19.02 46.72 27 2.48-8.05 6.59-15.16 10.23-22.5 1.54-3.09 4.42-5.4 5.52-8.59 1.48-4.29 2.29-8.82 3.25-13.28.88-4.08 1.16-7.99 5.78-10.45 4.2-2.25 5.02-7.47 5.89-11.82 2.54-12.82 4.39-25.79 7.03-38.58 1-4.84.37-10.5 5.05-14.13.14-.12-.13-.73-.15-1.11-.63-10.33-1.4-20.64-1.84-30.97-.4-9.5-.3-19.01-.57-28.52-.31-10.98-.93-21.94-1.5-32.9-.15-2.84-.05-5.77-.6-8.56a671 671 0 0 1-5.07-29c-1.09 2.12-3.25 2.4-5.44.6-1.9-1.56-3.57-3.39-5.41-5.02-.96-.85-1.87-1.8-3.43-.7-6.69 4.72-13.4 9.3-21.93 10.3-2.68.32-4.94.17-7.28-1.17-1.27-.72-.01-2.57-1.72-2.9-1.52-.31-2.12-1.47-1.4-2.76q.99-1.74 3.12-.56c1.1.62 2.7.78 2.9-1.36.34-3.6 1.82-6.83 3.7-9.83 2.27-3.61 3.92-7 3.3-11.75-.77-6.03-1.32-12.2-.7-19zm63.36-71.71c1.21 1.45.88 2.54.07 3.63-1.78 2.38-3.48 4.82-5.62 6.9-.79.76-.96 2.63-2.7 1.55-1.88-1.16-.3-2.35.19-3.38 2.4-5.13 6.03-9.88 4.59-16.12-.15-.65-.16-1.75.76-1.73 1.09.03 2.26.5 2.69 1.68.24.65.25 1.42.2 2.12-.1 1.33.4 1.83 1.74 1.81 4.51-.05 9.06.12 13.5-.82 3.17-.67 6.06-1.92 8.4-4.53 4.96-5.51 7.6-12.03 8.41-19.19 1.13-10-8.76-18.05-18.69-15.85-4.6 1.02-8.4 3.37-12.33 5.69-7 4.14-7.72 11.75-10.46 18.25-.05.11.15.37.29.5.48.46 1.44.78.39 1.58-.89.67-1.9 1.36-3.01.9-2.9-1.23-4.72-5.86-3.3-8.9 2.25-4.8 4.13-9.8 7.1-14.21 2.47-3.67 5.27-7.42 9.83-8.36 4.66-.96 9.6-2.69 14.18-1.33 4.71 1.4 5.03-.68 5.55-4.17.58-3.93 1.64-7.8 1.93-11.78.14-1.97-.61-2.96-2.57-3.5a42 42 0 0 0-9.02-1.7c-2.69-.13-3.8-1.14-3.27-3.75.36-1.78-.55-3.02-1.51-4.31-1.13-1.52-2.37.11-3.68-.24-4.6-1.22-9.31-2.01-14-2.88q-11.68-2.15-23.37-4.23c-1.1-.2-2.25 0-1.48-1.95.67-1.71.05-3.06-2.33-3.25-8.74-.68-17.45-1.72-26.2-2.29-7.48-.49-14.96 0-22.44.45-9 .55-17.84 2.25-26.83 2.59-.68.02-1.23.17-1.43.87-1.16 4.2-3.46 8.49-3.18 12.6.44 6.55-1.28 12.72-1.8 19.06-.4 5.02-.87 5.05 3.95 5.16 1.3.03 2.44.36 2.78 1.46.5 1.64-4.58 6.84-6.48 6.5-2.2-.4-2.15.92-2.5 2.3-.96 3.68.27 7.19.63 10.76.11 1.1.7 1.53 1.66.83 1.91-1.4 3.7-.2 4.92.78 1.21.96.74 3 .08 4.33-3.37 6.81-6.9 13.55-10.4 20.3-.27.53-.82.92-1.25 1.37-2.92 3.02-2.53 6.8 1.1 8.87 4.95 2.81 10.86 2.31 15.97 4.63-.11 2.08-1.48 3.56-3.49 4.38a2.5 2.5 0 0 0-1.74 2.56c0 3.34.22 6.68.76 9.97 6.9-1.83 13.75-1.54 21.06-.77a9.4 9.4 0 0 1-4.67 3.35 23 23 0 0 1-7.74 1.35c-2.86-.05-6.06.75-7.9 2.45-1.52 1.4.69 4.28 1.41 6.45 1.99 5.98 2.02 5.97 7.87 4.66.78-.17 1.56-.4 2.35-.57 1.63-.34 3.22-.01 4.25 1.2 2.07 2.45 4.07 3.3 6.49.56.62-.72.93-.1 1.45.25.81.55.14 1.88 1.25 2.22.91-.61.42-1.58.73-2.26.34-.75.23-2.03 1.55-1.92 1.03.1 2.3.47 2.46 1.53.41 2.84 3.11 3.4 4.76 4.89 1.55 1.39 5.5.02 6.63-1.81.42-.67.9-1.15 1.73-.94.98.24.38.95.41 1.48.09 1.44.55 2.06 2.32 2.27 4.58.54 7.83-2.5 11.75-3.73 9.1-2.84 17.55-7.05 25.6-12.22.27 1.14.22 2.46.84 3.26 1.86 2.37.37 3.5-1.02 5.39-2.73 3.7-5.5 7.5-5.29 12.65.4 9.75.48 19.5.67 29.26.02.84.03 1.62.74 2.23 3.16 2.7 5.15 6.31 7.32 9.77.65 1.03 1.22 1.36 2.47.63a698 698 0 0 0 32.17-19.72c12.22-8.06 23.36-17.24 31.4-29.7.47-.74 1.64-1.38.76-2.56-1.36-1.83-1.96-4.06-3.09-6.42-4.02 4.54-7.84 8.79-11.54 13.13-.68.79-1.06 1.68-2 .6-1.41-1.62-3.33-2.47-5.02-3.67-3.14-2.25-3.51-6.54-.55-8.21 1.7-.96 2.42-1.92 2.44-3.73 0-.47.27-.99.53-1.41 2.51-4.14 4.48-8.61 7.75-12.29.86-.97 1.2-2.12.43-3.62-2.05-3.97-3.65-8.17-5.77-12.09-1.52-2.8-3.44-5.96-3.24-8.73.29-4.07-1.05-2.15-2.75-1.61-5.52 1.75-11.08 3.47-17.6 2.49M259.08 816.26c-6.72 6.51-12.78 12.17-18.05 18.61-12.43 15.17-18.17 32.82-18.66 52.16-.18 7.45 1.68 14.86 2.67 22.28.12.93.57.93 1.18.96 3.93.18 7.38 2.08 11.03 3.17 6.98 2.1 13.94 4.25 21.12 5.44 8.74 1.44 17.62 1.54 26.44 1.8 12.93.38 25.86.63 38.79 1.25 10.49.51 20.97-.04 31.45-.53 6.2-.3 12.43-.67 18.61-1.28 8.9-.88 17.78-2.08 26.69-3 4.38-.47 5.01-.7 4.22-4.78-.46-2.39.39-5.01-1.6-7.25-12.28-13.81-16.73-30.68-17.9-48.53a58 58 0 0 1 3.58-23.84c.63-1.74.48-2.7-1.43-3.47-4.84-1.94-9.6-4.08-14.36-6.21a9 9 0 0 0-5.88-.7c-13.14 2.88-26.48 4.37-39.83 5.74-4.52.47-9.11.67-13.8 2.05 1.85.66 2.9 1.82 3.86 3.17 3.95 5.55 6.33 11.8 8.29 18.24.5 1.64 1.17 1.9 2.55 1.2a33 33 0 0 1 7.48-2.42c8-1.85 16.11-3.2 24.25-4.3 5.67-.76 11.36-1.69 17.1-1.25 1.78.14 3.9-.02 4.57 2.45.87 3.18-.04 4.04-4.08 4.33-5.37.4-10.75.85-16.1 1.69-6.43 1-12.92 1.65-19.36 2.66-4.1.64-8.17 1.44-12.3 1.96-1.28.16-2.38.46-1.9 2.77a78 78 0 0 1-.46 34.63 36 36 0 0 1-4.87 11.45c-.7 1.07-1.74 2.05-3.06 1.55-1.18-.45-.66-1.79-.53-2.72q.88-6.35 1.96-12.66a84 84 0 0 0 .31-26.35c-1.48-10.21-4.5-20.04-8.02-29.73-.76-2.08-.71-5.2-2.13-6.1-1.65-1.04-4.52-.12-6.86-.09-1.02.02-2.04-.1-3.06-.07-5.18.13-9.85-2.15-14.77-3.21-8-1.72-16.16-2.76-23.95-5.45-2.31-.8-4.17-1.72-3.18-5.62zm215.53-19.95c3.99.65 7.38-.6 10.8-1.41 11.43-2.7 22.72-5.96 34.2-8.38 8.22-1.74 16.33-4.17 23.54-8.4 7.68-4.53 14.83-9.97 22.1-15.16 5.83-4.14 11.14-9.15 17.31-12.63 16.7-9.42 33.38-18.87 49.98-28.47 1.71-.98 1.7-1.82.8-3.02-2.26-3.03-4.65-5.96-6.95-8.97-.76-1-1.54-1.12-2.5-.37-2.76 2.15-5.82 3.8-8.86 5.49-7.6 4.19-15.74 7.07-24.01 9.57-2.19.66-4.63 1-6.6-1.03-4.8-4.92-10.1-9.37-14.1-15.04-.62-.88-1.23-1.2-2.3-.95-4.25.98-8.5 1.96-12.77 2.82-3.6.71-7.71 2.08-10.8.06-3.23-2.12-6.55-2.18-9.95-2.82-2.74-.51-5.5-.1-8.28-.6-6.42-1.17-12.52-.95-18.14 3.57-8.18 6.59-16.27 13.24-23.4 20.94-1.46 1.57-2.77 2.12-4.67 1.24-.5-.23-1.04-.88-1.54-.04-.29.47-.21 1 .22 1.39 3.7 3.25 4.76 8.1 7.41 12.16 4.5-4.5 8.87-9.02 13.42-13.34a76 76 0 0 1 10.66-8.72 4.3 4.3 0 0 1 5.29.53c1.74 1.6-.65 2.57-1.55 3.58-6.4 7.23-13.3 13.98-20.14 20.8-3.08 3.1-2.96 2.93.49 5.66 2.1 1.67 3.4 1.64 5.39-.24 2.8-2.65 5.97-4.93 9.07-7.26a81 81 0 0 1 12.52-7.61c.8-.4 1.8-.72 2.46.07.84.98-.42 1.36-.85 1.93-1.98 2.63-4.52 4.68-7.11 6.7-4.33 3.38-9.01 6.23-13.7 9.08-1.81 1.1-1.91 1.27-.81 1.93 4.5 2.68 8.96 5.42 14.2 7.27-.99-1.85-1.96-3.68.04-5.17a72 72 0 0 1 18.66-10.05c2.1-.75 3.51.59 4.66 2.1 1.13 1.5.07 2.85-.86 3.76-5.66 5.53-12.56 8.72-20.4 10.5 6.65 3.4 13.79 5.21 21.24 6.72-1.34 1.58-2.5 4-3.24 4.2-3.8.98-6.95 3.56-10.83 4.14-15.33 2.3-30.3 6.14-45.12 10.6-1.7.51-3.56.93-4.98 2.86zm-224.3 19.23c-15.64 2.18-26.45 9.57-32.53 23.56-3.76 8.61-5.82 17.7-7.86 26.78a90 90 0 0 0-2.35 22.19c.25 8.64 1.58 17.2 3.46 25.66.36 1.65 1.13 2.3 2.44 2.69 2.14.62 4.3 1.13 6.46 1.7 1.8.47 3.6-.83 3.25-1.94-.66-2.14-.46-4.33-1.1-6.46-3.48-11.72-6.74-23.43-4.86-35.96 1.48-9.83 3.94-19.28 8.17-28.25 5.6-11.88 14.17-21.37 24.92-29.96zm245.96-387.25c1.3.29 2.34 1.6 3.51.2 4.14-4.9 9.56-8.35 14.28-12.59 6.02-5.4 9.66-5.15 14.8 1.01 2.16 2.58 4.46 5.05 6.14 8.32.43-2.55.13-4.93 1.45-6.84.99-1.42.45-2.2-.6-3.1-2.57-2.24-4.9-4.8-6.36-7.82-2.04-4.23-5.82-7.31-6.8-12.3-1.84-9.31-4.07-18.55-5.76-28.04-1.04.32-1.2 1.15-1.4 1.7-1.54 4.2-2.9 8.45-4.49 12.62a17 17 0 0 0-.8 8.95c.56 3.72.47 7.63.06 11.4-.24 2.23-.15 4.73-1.84 6.69-1.82 2.1-3.07 4.57-4.45 6.98-2.42 4.25-4.27 8.84-7.74 12.82m77.3 278.3c3.7 5.25 7.29 10.33 10.86 15.42.81 1.16 1.67.66 2.67.29 4.06-1.5 8.14-2.98 12.24-4.36a275 275 0 0 0 23.19-8.93c1.92-.85 1.94-1.56.61-3.03-2.33-2.6-4.42-5.4-6.71-8.03-3.59-4.08-3.62-4.03-8.35-1.65-10.8 5.44-22.7 7.04-34.5 10.3m51.98 151.65c-44.01 16-87.35 33.26-132.2 47.97 2.08.51 3.73.57 5.27.2 4.88-1.2 9.78-2.34 14.56-3.88 16.66-5.34 32.99-11.6 49.23-18.09 13.87-5.54 27.74-11.1 41.55-16.79 7.26-2.98 14.4-6.26 21.6-9.4zm45.36-136.75c41.81-19.17 84.07-37.37 124.4-59.63-41.42 19.98-83.76 38.04-124.4 59.63M265.1 661.62c2.73 2.43 103.5 59.55 105.68 59.8-.56-.42-.94-.75-1.35-1q-28.15-17-56.35-33.92a631 631 0 0 0-44.7-24.7c-1-.48-2.1-1.47-3.28-.19zm203.7 130.23c-6.2-2.08-12.31-1.94-18.28-1.43q-13.06 1.11-25.96 3.6c-3.57.7-7.19 1.24-10.63 2.5-.6.2-1.19.57-1.07 1.3.11.69.79.53 1.25.47 4.96-.62 9.97-1 14.87-1.95 11.47-2.25 23.05-3.4 34.7-4.05 1.57-.1 1.85.2 1.7 1.83-.5 4.92.7 9.7 1.77 14.48.49-2.81-.67-5.54-.11-8.39.52-2.7-.76-5.75 1.77-8.36zM599.45 345.3c7.23-10.46 7.68-13.27 3.51-18.23-2.24 3.71-3.05 7.52-.8 11.65-2.05.05-1.96-1.63-2.64-1.98-4 2.77-2.74 5.72-.07 8.56m-4.7 8.7c-.02-.53-4.58-5.2-4.97-5.23-.3-.03-3.85 5.2-3.85 5.65.05 2.16 2.77 4.39 5.38 3.64a5.3 5.3 0 0 0 3.44-4.05m113.21 43.27c-1.11-4.45-3-8.44-5.1-12.34-.38-.7-.95-1.12-1.76-.85-.7.24-.7.98-.71 1.55-.14 3.87 1.19 7.31 3.36 10.44.24.34.96 1.06 1.53.47 1.48-1.54 1.24.94 2.67.74zm60.66 91.9c-1.1-3.9-1.9-7.2-3-10.4a4.8 4.8 0 0 0-3.6-3.37c-1.52-.34-2.22-.05-2.42 1.5-.15 1.17 3.38 6.83 4.28 6.47 2.95-1.2 2.15 1.65 2.96 2.59.58.66.21 2 1.78 3.21M378.86 818.6l10.44 4.12c-1.2-3.23-2.07-5.88-2.06-8.75-3.53.09-5.14 3.17-8.38 4.63m337.08-442.62c-.76-2.1-1.27-3.7-1.92-5.26-.98-2.35-1.21-5.14-3.99-6.47-.87-.41-1.53-1.05-2.4-.23s-.5 1.59.08 2.42q2.88 4.09 5.7 8.19c.5.73 1.32.88 2.53 1.35m-8.19-18.65-.68-.74a62 62 0 0 0-13.56 9.15c-.43.38-1.47.8-.82 1.66.58.77 1.4.68 2.16.08zm-112.94-14.6q-3.27 3.38-.74 7.22c.51.78.98 1.59 1.5 2.43q3.42-4.74-.76-9.65M650.9 864.4l-22.23 6.12.2.75a87 87 0 0 0 22.02-6.87zm-253.08-50.47c-5.24 1.18-5.99 2.44-5.16 8.15zm293.3-436.4c2.7-.04 1.64-2.42 2.64-3.46.96-1 .08-1.8-.63-2.57-.91-.98-1.68-.22-2.41.2-.96.57-1.02 1.3-.45 2.3a6.3 6.3 0 0 1 .84 3.52zm-25.51-18.44c-1.78.56-2.68 1.83-2.85 3.14-.15 1.16 1.1 2.05 2.3 1.77 1.1-.24 2.74-.42 2.72-1.96-.02-1.35-2.16-1.33-2.17-2.95m16.45 7.52c-1.53.35-3.8 0-4.2 1.78-.27 1.27 1.97 1.66 3.08 1.82 1.48.22 2.44-1.05 2.72-2.57.3-1.61-1-.7-1.6-1.04zM298.7 667.15c-2.27 1.9-3.59 6.19-2.48 8 1.68-2.34 3.43-4.6 2.48-8M682.04 375.5c-3.2 2.2-6.38 4.43-8.8 7.52 3.35-2.02 6.44-4.34 8.8-7.52m-67.1-85.91c-.08-.86-.54-1.46-1.33-1.4-1.64.1-1.47 1.57-1.86 2.68-.49 1.36 1.12 1.45 1.2 1.43 1.38-.34 1.13-1.93 1.98-2.7zM549.4 430.46c1.23-.28 2.18-.53 3.15-.7.58-.1 1.3.04 1.21-.9-.05-.55.22-1.35-.6-1.5-.56-.09-1.38-.08-1.7.25-.75.75-1.27 1.73-2.05 2.86z"/><path fill="#000" d="M721.87 846.12c5.7-1 11.36-2.25 17.08-2.95 10.65-1.28 21.32-2.49 32.06-.95 1.14.16 2.32 0 2.01 1.8-.26 1.56-.5 3.12-2.5 3.13-4.09.02-8.09.83-12.13 1.28-7.34.8-14.68 1.72-22.05 2.39-4.57.42-9.17.54-13.75.65-1.22.03-2.87.78-3.61-.77-.74-1.54.2-2.92 1.14-4.15zm-301.34-228.2c1.84-7.2 2.45-13.98 3.82-20.64 1.67-8.14 3.76-16.16 5.83-24.2 4.35-16.82 8.93-33.6 13.46-50.37q3.3-12.13 6.8-24.18c.36-1.25.09-3.28 2.48-2.98 2.42.32 4.26 1.14 4.33 4.07.17 6.27-1.2 12.32-2.71 18.32-4.48 17.85-8.87 35.72-14.55 53.25-3.22 9.91-6.06 19.95-9.07 29.93-1.87 6.2-2.58 12.71-5.02 18.76-.4.96.1 1.5.65 2.16a15 15 0 0 1 3.35 7.14c.22 1.25.96 3.41-.74 3.77-1.43.3-3.5-.2-4.53-1.87-.74-1.2-1.74-2.5-1.83-3.8-.18-2.6-3.7-2.84-3.5-5.52 0-.03-.56-.24-.75-.14-2.06 1.09-3.3-.32-4.44-1.6-1.88-2.11-3.15-4.73-5.33-6.67-.82-.72-.76-2.18.1-3.08.87-.92 2.1-.78 3.15-.24 3.37 1.73 6.54 3.74 8.49 7.9zM576 585.62c0 4.62-.04 8.03.03 11.43 0 .7-.53 1.74.66 2.05.73.2 1.63.26.85 1.28-.67.86-1.56 1.04-2.32.06a11 11 0 0 1-2.23-5.26c-.92-7.09-1-14.23-.8-21.37.17-6.56-.14-13.14.74-19.67 1.16-8.7 1.34-17.46 2.33-26.18.56-4.95.88-9.95 1.38-14.92a63 63 0 0 1 2.55-12.77c.23-.72.44-1.7 1.4-1.84.97-.15 1.49.52 1.72 1.4.42 1.63 1.59 1.73 3.04 1.7 13.82-.27 27.61.36 41.41.91 11.23.46 22.47 1.04 33.7 1.58 2.54.12 5.08.32 7.62.44.6.03 1.37-.11 1.46.63.08.7-.33 1.33-1.2 1.5-1.68.32-3.35 1.06-5 1.01-10.68-.27-21.35-.7-32.03-1.08-.72-.03-1.44-.12-2.16-.09-10.3.44-20.56-.53-30.84-.82-4.75-.14-9.64.23-14.37-.88-1.24-.29-1.64.13-1.77 1.32-.91 8.64-1.92 17.25-2.52 25.92-.56 8.26-1.56 16.5-2.34 24.74-.26 2.74-.51 5.53-.56 8.25-.14 7.3-1.35 14.56-.76 20.66z"/><path fill="#000" d="M433.76 622.4c-2.3.06-2.94-1.16-1.65-3.3 3.91-6.47 8.66-12.35 13.35-18.24 7.36-9.25 14.95-18.3 22.49-27.41 6.47-7.8 13.01-15.55 19.53-23.32.32-.39.64-.82 1.05-1.09.71-.45 1.39-1.46 2.36-.53.88.84-.02 1.58-.38 2.17-4.69 7.76-10.08 15.04-15.46 22.32a2023 2023 0 0 1-22.26 29.41c-4.35 5.67-8.87 11.2-13.36 16.75-1.44 1.78-3.15 3.23-5.67 3.25zm255.5-111.92c2.25-10.1 3.49-20.11 6.09-29.87 4.87-18.27 12.43-35.29 23.6-50.61a67 67 0 0 1 8.17-9.5 18 18 0 0 1 3.73-2.67c1-.55 2.22-1.14 3.11-.18s-.47 1.67-.9 2.32c-4.45 6.72-9.18 13.26-13.5 20.06a209 209 0 0 0-25.44 57.96c-.82 3.04-1.6 6.1-2.59 9.08-.39 1.18-.4 2.73-2.25 3.41zm-26.69 58.03V551.3q-.01-14.76 1.3-29.45c.2-2.3.98-4.53 1.58-6.77.14-.53.22-1.37 1.05-1.3.95.07.98.88 1 1.61q.03.62.01 1.24c.03 12.22.2 24.45-.67 36.65-.35 4.86-1.05 9.7-1.83 14.52-.33 2.1-.16 3.72 1.64 5.03.61.44 1.56 1.1.72 1.96-.74.75-1.2-.29-1.73-.66-.08-.06-.14-.22-.21-.21-4.95.1-4.72-5.27-7.76-7.43-3.42-2.44-6.34-5.76-9.02-9.18-1.93-2.47-4.32-4.6-5.8-7.42-.52-.96-1.05-1.95.6-2.7 1.43-.65 1.69-.13 2.46 1a164 164 0 0 0 16.66 20.32m72.9-70.54c.42 5.84-1.55 11.1-3.29 16.34-3.64 11-8.8 21.37-13.73 31.82-2.32 4.9-4.62 9.81-7.4 14.52 7.68-20.3 14.28-40.98 22.1-61.21.29-.74.9-1.4 2.31-1.47zM414.3 635.07c2.26.02 5.15-.44 5.4 1.53.18 1.6-2.86 1.03-4.42 1.32-10.44 1.93-20.87 3.85-31.22 6.2a59 59 0 0 1-6.85 1.26c-1.07.12-2.29-.36-2.74-1.55-.54-1.38.5-2.04 1.54-2.53 4.27-1.98 8.87-2.89 13.44-3.6a274 274 0 0 1 24.84-2.65zm40.09-139.4c-4.17-3.92-6.23-8.72-8.85-13.09-4.95-8.26-9.9-16.54-13.62-25.47-.41-1-1.36-2.33-.22-3.02 1.03-.62 2.04.52 2.76 1.44 4.89 6.24 8.42 13.3 12.19 20.2 2.43 4.47 4.58 9.1 6.75 13.72.83 1.77 1.89 3.6.99 6.23zm103.29 66.3a65 65 0 0 1 1.09-18.16c.89-4.74.44-9.53 1.12-14.26 1.64-11.27 1.15-22.67 1.92-34 .06-.98-.04-2.48 1.22-2.48 1.62 0 1.2 1.6 1.19 2.63-.05 8.62.46 17.26-.64 25.84-1.48 11.64-1.25 23.51-4.77 34.9-.54 1.74-.67 3.7-1.14 5.54zm53.15 46.47c-6.76-.89-14.58-.26-22.14-2.4-1.89-.53-2.49-1.45-2.18-3.26.34-2 1.95-1.26 2.92-1.16 5.17.55 10.33 1.26 15.48 2 6.42.9 12.87 1.13 19.33 1.18.83 0 1.66-.04 2.47.05.69.08 1 .68 1.12 1.29.16.83-.47.93-1.1 1.11a19 19 0 0 1-4.87.62c-3.37.1-6.74.34-11.03.57m103.6-15.12c1.4-1.5 35.1-16.08 39.42-17.21-4.3 5.79-30.01 19.16-39.42 17.2m-332.34 29.71c.93-2.47 1.7-3.14 5.25-3.32 10.83-.54 20.91 2.3 30.51 7.11.7.35 1.9.67 1.46 1.58-.43.9-1.5.43-2.4.12-7.8-2.68-15.9-3.82-24.08-4.61-3.58-.35-7.09-1.51-10.75-.87zm333.59.23c-1.67.12-2.97-2.14-2.36-3.78 1.06-2.9 3.81-4.16 5.97-5.9 3.02-2.42 6.34-4.47 9.57-6.63.66-.43 1.46-.68 2.21-.97 1.18-.44 1.58.67 2.2 1.22.8.73.06 1.33-.43 1.78-5.2 4.83-10.39 9.68-16.24 13.75-.33.22-.7.4-.92.53m49.95-35.4c-1.86 3.45-4.72 4.77-7.36 6.1-4.54 2.27-9.47 3.56-14.45 4.55-1.54.3-3.87.53-4.29-1.14-.36-1.44 1.7-2.1 3.23-2.52 6.9-1.86 13.86-3.53 20.36-6.62.51-.25 1.18-.18 2.51-.37M549.87 618.2c5.11-9.39 2.92-20.01 5.34-30.74a20 20 0 0 1 1.3 8.66c-.21 6-1.35 11.91-2.16 17.85-.51 3.74-1.32 4.57-4.48 4.22zm11-155.8c-1.6-6.03-2.32-12.22-3.43-18.33-.41-2.3-.87-4.58-1.17-6.89-.12-.95-.56-2.41.62-2.73 1.03-.27 1.46.96 1.81 1.98 1.32 3.75 1.74 7.69 2.29 11.56.6 4.24 1.1 8.53.74 12.85-.05.55.17 1.28-.87 1.56zm-23.29 161.7c2.5 3.6.72 15.26-2.78 20.03.63-6.5.65-13.07 2.78-20.04m12.55-375.8c1.88 1.98 4 1.75 6.39 1.4-1.3-3.86.47-7.24 1.48-10.74.4-1.37.92-1.63 2.43-.91a14 14 0 0 0 7.52 1.46c1.68-.16 4 .94 3.65 3.47-.51 3.8-1.24 7.6-2.1 11.35-.38 1.72-1.55 2.6-3.64 2.37-2.98-.33-5.86-.07-7.95 2.75-1.37 1.86-3.8 2.08-5.63 1.27-4.67-2.06-9.2-4.56-10.7-10.05-.55-2.03-2.6-3.14-2.93-5.26-.3-1.9-1.55-3.99 1.87-4.53 1.3-.2 2.37-1.55 3.67-2.07 4.85-1.94 8.72 1.14 8.34 6.41-.12 1.63-1.13 2.27-2.4 3.1zm9.6 2.55c-1.42 1.53-4.22 2.6-1.76 5.47 1.61-1.54 2.74-3.2 1.7-5.54.65.22 1.24 1.33 1.97.13.55-.91 1.58-1.66 1.19-2.92-.1-.32-.55-.64-.91-.75-.78-.22-.62.49-.8.9-.42.93-.92 1.8-1.38 2.7zm7.52 4.9c.21-3.1-.9-5.94-.59-8.94.5-4.55-.03-4.83-4.46-5.85-1.8-.42-2.22-.04-2.3 1.56-.07 1.45-.12 2.48 1.99 2.4 2.83-.08 3.68 1.11 2.85 3.93-.6 2.02-1.7 3.88-2.61 5.86zm-14.64 1.87c-.04-.92-.1-1.72-.11-2.53 0-.85 0-1.62-1.18-1.71-1.2-.1-1.2.65-1.36 1.51-.35 1.91 2.54 5.13 4.51 4.7 1.2-.26 2.35-1.43 2.18-2.57-.19-1.22-.4-3.2-1.9-3.39-1.85-.22-.7 1.67-1.08 2.55-.2.43-.08 1.02-1.06 1.44m-7.35-7.55c2.35-.54 2.64-2.21 2.18-4.18-.23-.98-1.08-1.24-1.94-.92-.65.23-1.38.75-.8 1.6.73 1.12.01 2.43.55 3.5m-2-8.63c1.92.53 2.93 2.38 4.7 1.24.55-.36.13-1.24-.39-1.84-1.5-1.72-2.56-.42-4.3.6zm-51.78 20.1c-6.1-.15-12.84.22-19.58 1.11-1.64.22-2.9-.2-2.98-2.4-.14-4.03.72-5.67 4.56-6.84 8.46-2.56 16.81-2.64 24.94 1.42 1.5.74 2.45 1.9 3.13 3.22 1.14 2.25.14 3.6-2.27 3.5-2.36-.08-4.74-.01-7.8-.01M586 276.08c-4.72-1.24-8.02 1.06-11.46 2.8-.97.5-1.08 1.13-.53 2.24.85 1.7 1.37 3.58 1.9 5.42.4 1.35-.23 2.4-1.38 3.12-1.43.88-2-.47-2.76-1.18-.35-.33-.52-.86-.8-1.27-2.47-3.53-2.51-3.56-5.17-.27-.53.66-.9 1.6-1.79 1-.72-.48-.47-1.52-.2-2.3 1.92-5.58 5.75-9.53 10.82-12.32 2.93-1.61 6.04-2.38 9.38-1.27 1.23.4 2.1 1.1 2.67 2.33.67 1.45.23 1.82-.68 1.7m-87.85-.23c-1.04 1.39-2.3 2.26-3.63 2.44-3.59.48-4.98 2.92-5.8 5.93-.7 2.5-2.48 3.5-4.76 4.16-2.12.62-3.36-.04-3.8-2.15a34 34 0 0 1-.57-3.92c-.07-.79.12-1.33-1.05-1.74-1.94-.68-2.05-2.68-.2-3.48 3.2-1.41 6.11-3.62 10.25-2.12 2.83 1.03 6.19.63 9.55.89z"/><path fill="#000" d="M534.65 228.85c2.4 1.9 1.98 4.24 1.67 6.22-1.03 6.55.13 13.16-.62 19.66-.62 5.28 1.2 9.32 4.34 13.3a92 92 0 0 1 7.65 11.74c1.11 1.95 1.1 3.87 1.08 5.89-.04 1.87-1.34 2.3-2.9 2.44-1.75.15-2.07-.96-2.1-2.31-.04-.97-.74-1.94-.05-2.9 3.22-4.56-.78-7.1-2.82-10.18-.06-.1-.08-.22-.15-.27-7.88-5.1-7.51-12.88-6.86-20.83.24-2.86.05-5.75.06-8.64 0-2.36-.31-4.79.09-7.08.4-2.23.45-4.45.61-7.04m43.64 140.35c-1.54-5.25-3.86-10.19-5.78-15.27-.61-1.62-.46-3.14 1.4-4.08 2.63-1.34 5.18-2.85 7.84-4.13.59-.28 1.52-1.34 2.13-.27.42.76-.32 1.52-1.07 1.97-2.1 1.26-4.1 2.7-6.32 3.71-2.03.94-2.68 1.78-1.76 4.14a56 56 0 0 1 3.57 13.93zm10.52-81.6c-.66 2.89-.8 6.25-3.74 8.48-.62.46-1.29.98-1.92.53-.63-.43-.51-1.4-.26-2.01q1.61-3.95 3.4-7.83c.35-.78.55-1.98 1.81-1.61 1.16.33.43 1.4.7 2.43m-120.42 23.8v.72c-.2 1.88-.07 4.7-1.95 4.88-1.81.17-1.02-2.8-1.72-4.27-.65-1.37-.94-2.9-.01-4.36.42-.65.43-1.66 1.53-1.67 1.2 0 1.35 1.02 1.8 1.8.55.97.25 2 .35 2.9m73.18-80.8c1.57.02 2.87.12 2.89 2.04.03 2.39-1.73 2.71-3.45 2.92-1.54.2-2.24-.67-2.1-2.2.17-1.72.8-2.96 2.67-2.76zm35.67 15.5c1.5-.23 3.41.04 3.4 1.6-.03 2.02-2.13 2.01-3.81 2.1-1.5.07-3.08-.38-3.08-1.79 0-1.98 1.84-2.08 3.49-1.9m18.34 116.65c-.29 2.79-8.83 8.53-13.82 8.68a46 46 0 0 0 13.82-8.68m-45.4-131.3c1.41.6 2.02 1.84 2.28 3.26.1.53 0 1.6-.74 1.26a5 5 0 0 1-2.83-3.02c-.22-.75.44-1.28 1.28-1.51zm22.92 20.89c2.83-1.18 5.5-.46 8.16.65-2.78.86-5.43-.57-8.16-.65m4.88 3.34c-.57.16-.67.2-.77.2-1.59.1-3.23.33-4.3-1.27-.1-.18.2-.94.38-.98 1.83-.3 3.2.52 4.69 2.04zm-34.13 4.55c.36-.5.44-1.07 1.36-.79 1.2.36 2.56.62 2.75 1.97.13.91-1.04.72-1.7.71-1.26-.01-2-.75-2.4-1.89z"/><path fill="#000" d="M547.14 265.96c.07 1-.68 1.12-1.38 1.04a2 2 0 0 1-1.77-1.8c-.15-1.2.96-.93 1.7-1.07 1.62-.29.99 1.16 1.45 1.83M774.4 879.7c-3.53 4.22-8.08 3.58-12.07 3.85-11.37.76-22.78.92-34.18 1.4-7.17.31-14.34.9-21.51 1.17-8.42.31-16.8-.19-25.15-1.38-.03-1.55 1.19-1.92 2.35-2.28 4.53-1.42 9.26-1.35 13.91-1.86q6.55-.7 13.09-1.23c1.29-.11 1.06-.58.84-1.58a282 282 0 0 1-2.56-12.8 13 13 0 0 1 .37-5.76c.99-3.54 3.64-3.02 6.06-2.7 2.2.31 2.6 2.36 2.64 4.15.1 4.84.03 9.69.04 14.53 0 3.83.05 3.93 3.72 3.5 13.9-1.58 27.84-1.96 41.8-1.84h2.48c5.75.08 7.68-1.58 8.17-7.5 1.19-14.53 4.96-28.43 9.8-42.1a39 39 0 0 1 1.97-4.43c.45-.9.46-2.68 1.84-2.29 1.53.43 2.19 1.87 2.13 3.67-.11 3.3-.89 6.46-1.56 9.63a711 711 0 0 0-6.63 33.95c-.88 5.42-1.86 10.84-1.88 16.36-.02 3.08.34 6.07 1.86 8.84.31.56.95 1.14.15 1.89s-1.33.03-1.88-.28c-2.87-1.61-3.36-4.72-4.4-7.41a22 22 0 0 1-1.4-7.49zm28.56-33.1a74 74 0 0 1 2.46-21.16c.16-.58.46-1.13.58-1.71.36-1.78 1.93-2.36 3.2-2.24 1.63.15 1.3 1.94 1.13 3.04-1 6.65-.54 13.32-.55 19.97-.02 14.7 1.9 29.17 5.59 43.4.4 1.55 1.07 3.05 1.61 4.57.38 1.08 1.26 2.05-.5 3-1.88 1.03-2.28-.28-3.01-1.32-3.58-5.05-5.28-10.9-6.7-16.76-2.4-10-4.04-20.15-3.8-30.8zm-59.82 57.72c-.39.99-1.27 1.01-2.07.95-5.76-.37-11.49.4-17.22.72-8.86.51-17.7 1.37-26.54 2.24-1.42.14-2.24-.62-3.58-.8 3.12-2.84 35.85-4.76 49.42-3.1z"/><path fill="#000" d="M736.22 872.96c.1 1.2-.12 2.64-1.12 2.96-1.37.42-1.74-1.14-2.12-2.14-1.07-2.86-2.2-5.71-3.02-8.64-.55-1.92.73-3.66 1.35-5.4.3-.87 1.34-.87 2.18-.75 1.02.15 1.2 1.14 1.35 1.82.9 4 .42 8.16 1.38 12.16zM299.47 894.3c.56-4.32 1.35-8.28 1.38-12.36.09-10.57-2.06-20.8-4.1-31.06-.68-3.47-1.43-6.93-2.11-10.4-.28-1.41.47-2.6 1.1-3.73 1.07-1.88 2.63-1.82 3.61.15 2.97 5.93 4.54 12.33 5.7 18.79 1.41 7.9 1.9 15.88.68 23.88-.66 4.32-1.04 8.7-3.6 12.5-.57.86-.96 1.76-2.66 2.23m32.28-2.57c1.63-2.19 4.3-2.43 6.6-2.98a263 263 0 0 1 18.17-3.68c1.92-.32 2.19-.89 1.64-2.49-2.17-6.33-4.18-12.7-5.1-19.37-.08-.7-.27-1.4-.3-2.1-.09-1.68-.05-4.01 1.5-4.3 1.6-.29 3.23 1.35 4.03 3.12 1.76 3.87 1.88 8.08 2.47 12.18.5 3.5.82 7.01 1.78 10.43.26.92.32 1.45 1.5 1.27 2.2-.33 4.47-.2 6.44-1.53 1.03-.7 2.3-.84 2.96.32.82 1.44-.78 1.63-1.56 2a27 27 0 0 1-6.24 2.32c-1 .2-2.59.33-1.84 2.34.39 1.06-.85 1.74-1.41 1.04-2.95-3.67-6.24-.9-9.27-.55-6.64.76-13.18 2.39-19.9 2.58-.46.01-1.04.19-1.47-.6m50.69 9.3a5.9 5.9 0 0 1-3.26 4.17c-12.23 6.74-25.4 10.96-38.88 14.27-.57.15-1.96 1.59-2.4-.34-.36-1.5.87-1.94 1.9-2.35q7.3-2.96 14.65-5.84c8.1-3.18 16.02-6.88 24.35-9.5 1.15-.37 2.18-.35 3.64-.4m-11.15-30.87v-4.95a5.4 5.4 0 0 1 2.04-4.28c.78-.66 1.64-1.47 2.65-1.15 1.05.33.5 1.74.93 2.36 2.04 3 .91 5.17-1.1 7.67-.94 1.15-.7 3.33-.8 5.05s-1.25 2.48-2.56 2.52c-1.9.06-1.04-1.64-1.12-2.58-.14-1.53-.04-3.09-.04-4.63zm-24.06 7.92c-.19.33-.31.73-.59.96-.42.36-.74-.07-1-.33-1.3-1.29-2.6-2.56-3.61-4.13-.55-.84-.28-1.24.26-1.8.63-.64 1.35-.7 1.8 0 1.1 1.68 2.05 3.45 3.14 5.3m260.5-177.94c3.03 2.38 4.3 5.19 5.4 8.35-1.92.37-2.05-2.92-3.93-1.55-1.65 1.19.8 2.57-.25 4.22-1.53-3.28-4.6-5.55-4.53-10.08.96 1.42 1.67 2.35 2.23 3.36.44.78.62 1.35 1.76.7 1.04-.6.97-.9.43-1.81-.43-.75-1.3-1.34-1.1-3.19m6.5 5.05c1.63.24 3.03 1.67 2.66-.64a9 9 0 0 0-1.62-3.9c-.68-.9-1.67-1.9-2.72-1.64-1.32.32.33 1.6-.3 2.37-.2.23-.35.5-.69.96-1.06-1.07-1.96-2.21-1.43-3.65.35-.93 1.53-1.26 2.6-1.16 1.71.14 3.27.74 3.99 2.39.6 1.38.9 2.91 1.32 4.38.34 1.13.62 2.38-.76 2.88-1.4.5-1.52-1.05-3.05-2zm-20.02 10.58a17 17 0 0 1-3.95-7.02c-.26-.8-.1-1.76-1.42-1.07-.65.33-1.21 1.36-2.1.43-.42-.44-.3-.98.14-1.34.78-.65 1.67-1.16 2.71-.83.55.18 1.07.47 1.38 1.12 1.27 2.7 2.9 5.24 3.25 8.7zm-.7-9.14c3.2-2.7 3.36-2.67 4.85.76l.86 1.94 1.19 2.54c-2.26-.66-2.8-2.25-3.3-3.53-.68-1.78-1.43-2.87-3.6-1.71m6.8-3.15c3.33 1.63 3.41 5.07 4.63 7.9-2.52-2.05-2.84-5.39-4.62-7.9m-13.54 12.28c.88.27.96.94.94 1.68-.02 1.14-.68 1.66-1.73 1.66-.67 0-1.24-.47-1.11-1.13.2-1.05.97-1.74 1.9-2.21"/></svg>