<svg xmlns="http://www.w3.org/2000/svg" width="1080" height="1080" fill="none" viewBox="0 0 1080 1080"><path fill="#fff" d="m829 371.52 3.1 6.92c.44 1 .64 2.53 1.4 2.88 4.85 2.23 3.09 6.56 2.76 9.86-.42 4.25-1.17 8.8-4.67 12-1.12 1.02-2.6 1.64-3.72 2.64-1.43 1.26-3.85 1.68-2.84 4.92.38 1.2-2.17 3.37-3.48 5.02-.5.62-1.3 1-1.88 1.42 1.2 1.85 2.21 3.25 3.04 4.74 2.23 4 1.2 7.4-2.87 9.6-1.24.66-2.5 1.34-3.81 1.8-2.25.8-2.95 2.36-3.16 4.63-.52 5.65-1.36 11.21-5.44 15.72-1.97 2.18-3.27 4.65-3.37 7.9-.04 1.42-1.94 3.31-3.45 4.05-5.1 2.47-10.4 4.5-15.6 6.71-3.16 1.34-6.35 2.6-9.44 4.08-10.76 5.16-22.3 7.75-33.85 10.23-2.17.46-4.33.96-6.85 1.52l2.57 3.63c-1.58 3.02-.55 5.13 3.5 7.35 7.1 3.89 11.8 9.84 14.34 17.42.86 2.55 1.06 5.35 1.28 8.05.35 4.18.73 8.39.53 12.55-.08 1.72-1.62 3.36-2.5 5.03-.37.7-.64 1.47-1.11 2.08-.77 1-1.53 2.12-2.57 2.71-.34.2-1.77-.92-2.27-1.71a40 40 0 0 1-3.6-6.54c-1.22-3.07 1.68-8.15 5.32-9.82q0-.45.05-.9c1.17-7.13-1.37-12.5-6.87-17.2a69 69 0 0 1-11.69-13.01c-2.17-3.13-2.77-7.34-4.41-12.01-2 .21-5.06.32-8.02.92-2.8.57-3.83 2.72-3.23 5.44 1.68 7.62 2.95 15.36 1.95 23.14-1.71 13.44-7.78 24.2-20.34 30.55-4.27 2.16-8.43 4.56-12.68 6.78-2.23 1.16-3.7 4.44-3.46 7.49.15 1.94-.14 3.9-.1 5.86.02 1.4.35 2.8.37 4.21a9 9 0 0 1-.38 3.1c-4.15 11.58-8.55 23.08-12.4 34.76-.72 2.16.32 5.16 1.2 7.52 2.79 7.45 5.88 14.79 8.87 22.17.19.47.27 1.15.62 1.37 5.28 3.29 6.28 9.48 9.6 14.08.93 1.29 1.28 2.91 3.69 2.22.82-.24 2.88 1.42 3.24 2.57.69 2.23.4 4.64-1.42 6.56-4.1 4.34-8.15 8.72-12.57 13.46l-1.37-3.4c-1.66 1.37-3.28 2.45-4.56 3.84-.9.97-2.5 2.17-.66 3.79.14.12.32.42.26.52-2.66 4.4.86 7.83 2.29 11.21 4.91 11.7 10.69 23.02 15.7 34.68 2.96 6.9 5.67 14.03 7.47 21.32 3.87 15.64 10.4 30.28 16.18 45.2 3.05 7.86 6.6 15.54 9.55 23.44 1.62 4.32 2.26 9 3.68 13.4 1.85 5.77 4 11.43 6.05 17.13 3.19 8.9 6.35 17.8 9.6 26.68a2205 2205 0 0 0 10.74 28.79c3.2 8.4 6.65 16.72 9.89 25.12 3.4 8.82 6.68 17.68 9.97 26.54.46 1.24.74 2.54 1.08 3.83.82 3.18 1.67 5.86 4.88 8.14a20.4 20.4 0 0 1 8.22 11.77c1.23 4.96 3.69 9.6 5.4 14.46 1.96 5.57 3.95 11.15 5.45 16.85 1.01 3.85-.7 5.37-4.57 6.49-3.14.91-6.1 2.53-9 4.09-9.13 4.95-18.79 7.83-29.19 8.2q-14.89.52-29.78 1.25c-5.39.26-10.75.94-16.14 1.14-5.49.2-11.01.38-16.48-.02-9.59-.71-19.22.41-28.8-1.61-5.83-1.22-11.97-.92-17.96-1.42a84 84 0 0 1-9.63-1.28c-3.92-.8-5.56-3.15-5.37-7.22.39-7.93 1.97-7.91 7.04-9.52 7.72-2.47 15.5-4.76 23.17-7.37 6.17-2.1 12.24-4.52 18.31-6.9 1.29-.5 2.61-1.24 3.57-2.23 7.05-7.26 13.98-14.63 21.03-21.9 2.63-2.7 5.08-6.12 8.34-7.53 3.87-1.67 8.52-1.53 13.3-2.24.81-3.07-1.04-6.92-3.25-9.34-8.73-9.6-12.17-21.62-16.58-33.24-.9-2.38-1.6-4.65-3.7-6.4-5.33-4.41-8.02-10.72-11.17-16.63a2042 2042 0 0 1-16.5-31.87 6051 6051 0 0 1-19.4-38.4c-6.56-13.09-13.5-26.02-19.45-39.39-4.7-10.57-8.4-21.62-12.12-32.6-3.62-10.7-6.62-21.61-10.07-32.37-.46-1.46-1.89-2.63-2.92-3.9-1.22-1.5-2.63-2.86-3.73-4.45-4.8-6.97-9.67-13.9-14.23-21.03-2.85-4.43-6.52-7.77-10.71-10.87-2.32-1.71-3.72-4.71-5.37-7.23-1.5-2.28-2.02-5.4-5.85-5.23-.72.03-1.57-1.44-2.22-2.32-.7-.96-1.22-2.03-1.9-3.2l-4.08 2.21c3.6 3.7 1.15 7.2-.74 9.54-6.44 7.98-13.4 15.55-20.39 23.07-2.43 2.62-5.54 4.44-9.44 4.37-.74-.01-1.7.65-2.22 1.28-3.7 4.49-7.24 9.09-10.95 13.56-4.07 4.9-8.7 8.49-15.65 8.8-3.34.16-6.55 2.46-9.86 3.68-2.81 1.03-5.68 1.9-9.03 3.02-.8 4.5-1.4 9.59-2.68 14.5-.64 2.47-.06 4.07 1.75 5.2 1.44.9 1.47 1.96 1.66 3.39 1.4 10.58-4.74 17.28-11.97 23.36a10.6 10.6 0 0 0-3.58 5.37c-2.56 8.72-4.93 17.5-10.78 24.87-1.52 1.91-1.64 4.9-2.53 7.37-2.86 7.95-6.14 6.93-12.3 6.78-1.2-.03-2.58-.1-3.54-.7-1.36-.84-3.5-2.3-3.4-3.3.43-4.02-3.82-7.25-1.45-11.6 1.95-3.56 3.17-7.52 4.81-11.26 1.7-3.87 3.52-7.68 5.4-11.76-3.97-.83-4.9-3.7-5.4-6.94-.7-4.6-1.79-9.14-2.24-13.76-.64-6.54 2.45-11.84 6.74-16.38 3.32-3.5 6.36-7.63 11.5-8.64 2.58-.51 5.29-.4 8.1-.57 1.98-5.64 4.27-11.27 5.84-17.09.6-2.21-.4-4.9-.84-7.34-.73-4.09-1.31-8.23-2.5-12.2-.95-3.12-2.2-6.1-1.67-9.44.06-.4-.16-.9 0-1.23 2.25-4.58-.33-7.4-3.53-10.12a114 114 0 0 1-7.16-6.65c-1.35-1.35-3.36-2.52-1.8-5.19.33-.57-1.19-2.17-1.76-3.34-.47-.95-1.4-2.22-1.1-2.9.65-1.46 1.79-3.55 3.02-3.78 6.83-1.26 9.63-6.7 12.68-11.74a924 924 0 0 0 15.36-26.62c7.94-14.16 16.25-28.15 23.46-42.67 4.13-8.33 6.41-17.59 9.24-25.6-13.15-9.84-25.4-19.3-38-28.31-6.72-4.8-9.09-11.32-8.43-18.88.52-6.08 2-12.13 3.62-18.05 3.77-13.77 7.7-27.51 11.91-41.15 3.23-10.44 7.4-20.59 10.38-31.09 2.6-9.15 4.1-18.6 6.12-27.93 2.56-11.77 5.23-23.52 7.71-35.31 2.28-10.88 5.06-21.62 4.84-32.96-.13-6.73 1.4-13.5 2.23-20.24 2-16.2 8.06-31.18 14.13-46.14 1.26-3.12-1.1-5.43-1.55-8.16-1.04-6.16-2.38-12.3-3.07-18.5-.23-2.1.7-4.62 1.81-6.51 1.67-2.81 3.99-5.23 6.21-8.04-6.13-8.83-10.02-15.55-16.83-25.35-6.33 3.15-15.45 4.1-22.23 7.08-5.03 2.2-7.78 1.5-10.6-2.98a188 188 0 0 0-10.36-14.86c-3.07-3.97-3.46-8.05-1.94-12.62.82-2.47 1.24-5.09 2.14-7.53.63-1.74-.12-2.15-1.51-2.53-2-.54-3.98-1.2-5.96-1.81-2.36-.75-2.8-2.23-1.82-4.42 2.03-4.53 3.9-9.14 6-13.62.44-.95 1.65-1.55 2.22-2.07 1.27-8.23 1.21-16.46 2.6-24.65 1.1-6.47 3.2-13.04 5.06-19.3 1.87-6.34 4.8-12.37 7.31-18.52.34-.84.77-1.74 1.42-2.33.58-.52 1.53-.65 2.32-.95.06.72.2 1.44.17 2.15-.02.8-.18 1.6-.34 2.81 7.29-5.88 15.2-8.4 24.05-6.34a134 134 0 0 1 17.21 5.07 72.6 72.6 0 0 1 27.25 18.03 53.5 53.5 0 0 1 13.5 25.52l4.52-3.61c3.8 3.71 3.15 7.83 2.67 11.86-.47 3.94-1.24 7.83-1.72 11.77-.34 2.93-.32 5.92-.63 8.86-.78 7.23 1.15 14.01 3.24 20.79.36 1.15-.58 4.18-.17 5.6 4.67-2.37 8.66-.93 11.65 1.53 5.13 4.22 10.05 8.7 15.36 12.68a12.3 12.3 0 0 0 7 2.4c7-.08 13.22 2.18 19.67 4.51 10.75 3.9 18.92 10.98 26.56 19.06 1.5 1.59 3.62 2.59 5.37 3.95 1.22.94 2.97 1.86 3.35 3.13 1.5 5.03 5.17 8.48 8.49 12.07q16.62 18 33.68 35.6c5.7 5.89 11.76 11.44 17.76 17.04.68.63 2.1.85 3.1.7 3.06-.47 6.07-1.4 9.14-1.78 4.6-.58 8.42.87 11.1 4.94 8.19 12.49 14.73 25.77 18.99 40.1 1.58 5.34 2.9 10.74 4.47 16.08.14.48 1.1 1.02 1.7 1.05q5.92.24 11.85.23c1.41 0 2.88-.1 4.24-.47 4.09-1.1 7.84.89 9.33 4.97.92 2.5 1.93 5 3.1 7.4 1.32 2.72 3.21 4.88 6.16 4.92-.42 1.34-1.29 2.68-1.16 3.91.36 3.38.9 6.79 1.84 10.05.49 1.67 2 3.02 3 4.56 3.13 4.86 3.53 10.46 4.38 15.95.27 1.76.6 3.58 1.33 5.17.52 1.17 1.72 2.76 2.68 2.8 1.04.04 2.45-1.3 3.15-2.38a25 25 0 0 0 2.36-5.42c.35-1.06 2.32-2.33-.07-3.43-.05-.02.28-.8.4-1.24l.8-3.26-1.1-.7-.47 1.66-.72-.08-2.76-15.34zm-153.63-126.2c7.42 18.39 9.07 38.25 19.2 55.67 1.64-1.48 2.83-2.57 4.04-3.64 3.43-3 5.11-9.58 3.15-13.7a522 522 0 0 0-11.47-22.89 47 47 0 0 0-6.84-9.53c-1.98-2.14-4.75-3.54-8.08-5.92zm-194.61 497.3c-.28.83-.48 1.68-.85 2.46-3.43 7.3-2.7 8-10.64 7.64-3.23-.15-5.6 1.11-7.88 3.15-4.11 3.66-8.63 7.02-9.17 13.1-.2 2.35-.86 6.23.19 6.84 3.2 1.84 4.93 4.49 6.59 7.45.03.05.35-.06.72-.13.86-1.84 1.96-3.57 5-1.75-.44-6.95 4.73-10.2 8.67-14.28 1.68-1.73 3.5-3.5 4.6-5.6 3.08-5.91 3.41-12.4 2.77-18.88M375.1 960.58c-.48-1.67-1.16-3.33-1.36-5.05-.14-1.29.36-2.65.57-3.97 1.02.5 2.28.79 2.98 1.57.97 1.08 1.51 2.54 2.63 4.53 1.04-1.53 1.66-3.2 2.86-4.02 1.25-.86 3.06-.92 4.31-1.25.78 1.29 1.1 2.58 1.88 2.97 2.4 1.22 2.24 2.93 1.3 4.86a70 70 0 0 1-2.96 5.52c-.93 1.56-1.4 2.9.48 4.11 1.03.67 1.93 1.5 2.91 2.24 3.98 2.94 5.72 6.92 5.7 11.81-.06 8.9-.24 17.79.1 26.67.11 2.83 1.68 5.61 2.69 8.38.92 2.52 1.98 4.99 2.88 7.22-4.34 3.68-8.44 6.93-12.97 2-3.5.45-6.63.96-9.79 1.25-3.57.32-7.16.42-10.73.65-5.42.37-10.03-2.41-14.44-4.61-19.88-9.88-41.18-15.95-61.75-23.96a239 239 0 0 1-37.95-18.92c-1.86-1.14-4.02-1.86-6.09-2.64-1.94-.74-3.55-3.56-2.93-6.08.9-3.7 1.87-7.41 3.24-10.94.78-2.03 5.5-4.37 9.7-3.09a817 817 0 0 0 26.13 7.53c6.37 1.72 12.75 1.05 18.93-1.05 13.3-4.5 26.52-9.22 39.83-13.66 6.81-2.27 13.19-1.37 19.31 2.88 3.54 2.45 7.86 3.78 11.82 5.61z"/><path fill="#fff" d="m828.31 369.56-10.43-8.53c6.64 1.24 10.55 4.59 10.43 8.53m-3.98 7.03c-3.08-2.36-3.75-4.57-2.44-7.5 3.63 1.96 4.33 3.96 2.44 7.5m4.95 12.55-4.42-9.88 2.02-1.39 3.08 11.12zm-.22-17.69-.71-.78.41-.24.24 1.1z"/><path fill="#000" d="M558.73 631.76q8.05 19.25 16.05 38.51c.18.45.2 1.15-.02 1.54-5.21 8.87-10.31 17.8-15.8 26.51a43 43 0 0 1-8.08 9.56c-1.9 1.64-4.94 2.48-7.54 2.67-4.09.3-6.72 1.82-9.01 5.32a50.4 50.4 0 0 1-24.85 19.76c-6.38 2.41-13.5 3.84-20.48 2.36-.08.07-.2.12-.23.2-.61 3.2-.01 8.7 1.19 11.63 4.66 11.36 1.65 23.68-8.7 30.66-2.43 1.64-4.9 3.23-7.74 5.1 1.48 0 2.72-.09 3.95.02 2.25.21 3.18 2.02 1.93 3.88-9.94 14.8-14.26 31.66-18.04 48.73-1.09 4.89-2.69 9.72-.02 14.63 3.77 6.95 7.37 14 11.24 20.9 2.23 3.97 4.87 7.71 7.28 11.58a12.5 12.5 0 0 1-2.16 16.11c-4.84 4.54-9.12 9.83-14.48 13.61-13.06 9.22-26.65 17.68-39.92 26.62-7.18 4.83-14.08 10.07-21.2 15-3.76 2.61-7.72 4.95-11.65 7.45 2.26 2.7 4.57 5.45 6.68 7.99l2.02-3.68c4.84 5.23 5.21 31.24.96 42.33 4.67 4.36 5.9 13.02 3.16 19.09-1.85.36-3.16.58-4.48.87-3.74.81-7.44 1.95-11.21 2.38-4.66.54-9.37.57-14.07.68-4.33.11-8.76.53-12.99-.14-3.55-.56-6.89-2.48-10.31-3.82-16.83-6.63-33.74-13.06-50.45-19.95a687 687 0 0 1-36.9-16.42 63 63 0 0 1-15.08-10c-5.66-5.2-5.65-12.12-3.3-19.2 1.24-3.7 2.72-7.05 6.21-9.1.5-.3 1.12-.6 1.65-.55 11.15 1.23 22.28 2.72 33.45 3.72 6.62.58 13.32.5 19.98.55 3.36.03 6.77-.76 10.07-.37 8.43.99 14.53-4.78 21.78-7.12 5.64-1.82 10.95-4.6 16.49-6.75.94-.36 2.6-.01 3.41.64a17 17 0 0 1 3.8 4.35c1.51 2.52 3.62 3.27 6.35 3.14.97-.05 1.95.2 3.07.33 1.44-6.06 6.43-9.41 10.85-13.03 11.41-9.35 24.14-16.64 37.52-22.8 6.64-3.06 13.43-5.85 19.93-9.2 3.18-1.65 6.41-3.84 8.61-6.6 3.92-4.9 4.14-10.7 1.6-16.5-3.36-7.61-6.8-15.18-9.99-22.86-2.16-5.2-4.9-10.42-3.84-16.3 1.34-7.42 2.46-14.92 5.9-21.76.14-.27.19-.58.33-1.05l-5.28-2.8c-6.13-3.23-7.25-8.82-3.35-14.14 4.83-6.6 9.82-13.1 14.8-19.72-4.65-.7-8.61-2.62-10.68-7.62-1.93-4.68-1.92-8.9 1.05-13.1.45-.62.09-1.79.18-2.7.18-1.8.07-3.75.72-5.39 4.73-12.06 14.16-17.92 26.67-19.9-1.97-5.3 1.34-8.78 4.68-12.24-7.7-11.1-9.73-23.4-4.25-43.32-4 .57-6.52-2.16-8.48-4.7-3.1-4-5.4-8.63-8.14-12.93-.56-.89-1.53-1.52-2.52-2.46 2.89-5.42 5.68-10.99 8.8-16.37 1.43-2.48 3.75-4.03 6.93-3.6 1.97.25 3.3-.26 4.4-2.28 5.04-9.23 10.97-18.02 15.37-27.53 9.14-19.7 17.51-39.76 26.4-60.13-6.05-1.96-12.4-3.71-18.53-6.06-9.93-3.82-19.24-8.86-27.32-15.88-3.64-3.17-7.04-6.62-10.58-9.91-2.45-2.29-3.03-4.87-1.62-7.97 3.55-7.78 7.35-15.47 10.5-23.42a369 369 0 0 0 9.18-26.3c5.89-19 11.73-38.01 17.1-57.16 2.37-8.46 3.66-17.23 5.22-25.9 2.43-13.46 3.2-27.08 3.85-40.73.13-2.79 1.56-5.52 2.45-8.26.08-.23.73-.22 1.02-.43 2.55-1.96 5.21-3.83 7.56-6.02.66-.63.63-2.26.52-3.4-.43-4.54-1.47-9.07-1.37-13.59.05-2.63 1.69-5.28 2.8-7.85a7449 7449 0 0 1 19.46-44.6c.95-2.16 1.22-4.21.24-6.35-2.4-5.17-4.73-10.38-7.28-15.48-1.05-2.11-1.48-3.48.36-5.72 3.18-3.85 5.63-8.32 8.33-12.56.16-.24 0-.84-.21-1.15q-7.07-10.7-14.2-21.42c-4.92 2.42-9.92 4.97-15 7.39a16 16 0 0 1-12.83.47c-3.2-1.3-5.84-4.44-8.24-7.2-2.55-2.95-4.6-6.35-6.7-9.67-.57-.91-.37-2.28-.8-3.33-.44-1.1-.98-2.5-1.89-2.97-2.37-1.26-3.72-2.7-2.8-5.54.7-2.13 1.16-4.34 1.88-6.47.76-2.27 1.68-4.49 2.8-7.46-2.15-.24-4.04-.45-5.93-.64-2.85-.3-4.61-2.15-5.53-4.53-.4-1.05.19-2.77.83-3.9 2.36-4.14 4.3-8.81 7.6-12.07 3.97-3.93 3.17-7.86 2.26-12.54l-1.91.94c-2.21-3.6-2.04-4.5 1-6.67.43-.3.7-1.11.7-1.7.42-14.72 5.22-28.2 11.4-41-.6-1.55-1.62-3.02-1.64-4.49q-.09-7.92.51-15.8c.09-1.14 1.43-2.48 2.54-3.15 2.73-1.67 5.7-2.96 8.52-4.48 6.93-3.75 14.45-5.16 22.2-5.43 9.84-.34 19.7-.78 29.54-.62 14.28.24 28.07 3.3 41.3 8.71 2.1.86 4.14 1.83 6.28 2.51 6.75 2.13 10.49 6.88 11.93 13.6 1.27 5.9 2.67 11.79 3.46 17.75.28 2.06-1.18 4.32-1.72 6.51-.3 1.26-.5 2.57-.5 3.86-.04 5.91-4.32 9.86-6.79 14.62a304 304 0 0 1-11.31 19.99c-3.13 5.05-2.73 10.57-2.98 16-.26 5.76 0 11.54-.03 17.3-.01 1.8-.25 3.61-.4 5.67 1.33-.6 3.36-.22 2.36-2.85-.1-.26 1.65-1.81 2.26-1.65 1.97.5 4.07 1.19 5.63 2.42 2.47 1.93 4.06 4.66 7.34 5.94 5.69 2.23 8.25 7.56 10.64 12.8.16.36.47.64.33.45 4.74-.68 9.07-1.52 13.43-1.88 9.76-.82 17.55 4 24.26 10.06 9.25 8.34 17.95 17.33 26.5 26.4 7.03 7.44 13.5 15.42 20.25 23.13 4.8 5.49 9.65 10.92 14.45 16.4 2.01 2.3 3.88 4.73 5.91 7 1.09 1.23 1.9 2.59 4.25 2.33 1.26-.13 2.97 1.83 4.12 3.16 2.26 2.61 4.26 5.45 6.39 8.18.32.41.82 1.07 1.16 1.02 2.59-.35 5.14-.87 7.71-1.33 2.86-.5 5.75-.86 8.58-1.48 5.4-1.2 7.53 2.97 9.8 6.26 8.48 12.31 14.32 25.91 18.71 40.15 1.68 5.44 3.31 10.9 5.17 16.28.23.7 1.67 1.42 2.5 1.38 5.5-.29 10.96-.8 16.44-1.23l-.05-.1-7.41 3.81-1.93.3.05.37 2.24-.2c3.87-1.04 7.74-2.06 11.84-3.15 1.8 4.73 3.44 9.21 5.24 13.64.35.83 1.24 1.96 1.97 2.03 5.2.5 9.2 3.37 12.4 6.97 7.34 8.25 10.95 18.12 10.93 29.18a22 22 0 0 1-5.2 14.1 3.2 3.2 0 0 0-.48 2.57c1.28 4.13 2.9 8.15 4.08 12.3a6.4 6.4 0 0 1-2.27 7.02 43.6 43.6 0 0 1-18.59 8.17c.27 1.69.59 3.46.82 5.24.24 1.85.24 3.3-2 4.44-1.4.7-2 3.05-2.93 4.67-1.3 2.24-2.63 4.47-3.83 6.77-.38.74-.37 1.69-.53 2.54l2.3.3.66 3.97c-23.74 9.44-47.14 20.07-72 26.93 2.7 5.33 7.9 8.1 12.42 11.44 4.95 3.66 6.92 8.62 7.6 14.28.42 3.38-.77 7.23.45 10.16 1.5 3.56.43 6.89.95 10.25.4 2.6-.41 4.1-3.22 4.24-.57.03-1.12.38-1.67.58 1.03 3.8-.99 7.04-4.84 7.75-2.2.41-3.37-1.1-3.86-2.87-.9-3.28-1.89-6.62-2.14-9.99-.19-2.5.48-5.17 1.28-7.6.35-1.06 2-1.69 3.29-2.7-1.63-7.36-5.47-13.55-12.24-17.98-6.05-3.96-9.05-9.64-8.21-17.05.04-.4 0-.82-.02-1.23 0-.09-.08-.17-.24-.45l-6-.7c.3 1.54.56 3.14.93 4.7 2.11 8.8 4.53 17.54 6.3 26.4.95 4.8.46 9.75-1.55 14.4-.56 1.29-1 2.01-2.9 2.32-2.64.43-5.1 2.3-7.53 3.74-9.91 5.9-19.82 11.8-29.63 17.86a6 6 0 0 0-2.53 3.7c-2.55 14.38-6.95 28.22-12.25 41.78-1.11 2.86-1.6 5.22-.15 8.22 5.15 10.65 9.98 21.47 14.94 32.24l-19.9 4.97.25 1.33 31.9-4.57c3.15 3.23 5.6 13.75 3.9 17.3-1.86-2.08-3.2-.33-4.53.71-3.06 2.4-5.89 5.1-9.06 7.3-3.94 2.73-8.13 5.07-11.73 7.29 6.93 17.2 14.12 34.17 20.6 51.42 4.1 10.92 6.68 22.4 10.79 33.33 3.74 9.92 8.86 19.31 12.92 29.12 3.8 9.13 7.08 18.48 10.43 27.78 3.21 8.94 6.22 17.96 9.32 26.95.16.47.3 1.18.65 1.31 3.2 1.3 2.76 4.34 3.48 6.88 1.8 6.35 3.51 12.75 5.63 19 5.96 17.62 12.24 35.12 18.13 52.76 2.4 7.2 4.04 14.66 6.15 21.97 1.1 3.83 2.44 7.6 3.54 10.97 2.64-.52 5.19-1.26 7.78-1.49 2.82-.25 4.31 2.12 4.62 4.21a140 140 0 0 0 8.53 31.77c.66 1.67.78 3.55 1.24 5.77 1.42 2.81 3.06 6.21 4.85 9.51.86 1.57 2.14 2.91 3.02 4.48 1.08 1.9.13 3.18-1.53 4.29-7.21 4.78-15.38 7.39-23.54 9.76a444 444 0 0 1-29.27 7.16c-2.67.57-5.62-.27-8.44-.23-4.3.08-8.59.49-12.88.56-6.7.09-13.4-.04-20.11.04-12.03.16-24.07.81-36.09.49-11.19-.3-22.41-1.18-33.28-4.26-2.27-.64-4.4-1.84-6.8-2.87l-2.65 1.87c-.72-3.04-1.77-5.65-1.9-8.31-.24-5.53-1.12-11.28 2.43-16.24.8-1.14 1.96-2.48 3.2-2.79a1818 1818 0 0 1 35.65-8.72c3.35-.78 6.8-1.13 9.6-1.58 4.37-5.34 8.41-10.58 12.77-15.55a841 841 0 0 1 18.87-20.68c2.86-3.05 3.83-2.79 7.34-.29 1.01.73 2.8.39 4.22.53-.23-1.14-.15-2.48-.73-3.41-5.2-8.43-10.57-16.75-15.79-25.17-7.7-12.43-15.32-24.92-23-37.37-1.8-2.92-4.02-5.63-5.44-8.71-1.37-2.97-3.78-5.44-2.75-9.67.58-2.4-2.13-5.68-3.52-8.47a3546 3546 0 0 0-17.65-35c-4.06-7.92-8.34-15.71-12.52-23.57-6.27-11.78-13.11-23.27-16.23-36.52-.76-3.26-3.8-5.93-5.1-9.14-5.13-12.63-10-25.36-14.9-38.08-1.29-3.32-2.3-6.75-3.39-10-1.5.14-2.9.2-4.27.42-2.86.45-4.45-1.53-5.41-3.48a1750 1750 0 0 1-18.07-37.8c-6.29-13.62-12.3-27.37-18.45-41.07-.1-.25-.34-.45-.52-.68l-.36-1.13-.43.1.28 1.4zm121.09-400.1.61.61.8 1.52.57-.36-1.01-1.57-.5-.53-.43-1.38-.84.8zm-14.87 276.6-.4 2.07-.12.09.05-.16.85-1.67q.2-.72.38-1.45l4.13-9.4c7.1-17.84 17.04-34.48 22.14-53.18a4.4 4.4 0 0 0-1.74 2.21c-4.65 10.54-9.4 21.04-13.88 31.65-2.6 6.1-4.75 12.4-7.1 18.6l-4.11 9.76zm-129.08 80.26-1.37-.5-17.04-7.05-.42 1.07 17.08 6.55 1.46.22 1.67.81.21-.64zm90.1-216.37.2 1.3.52-.09-.25-1.55-1.63-3.46-3.93-13.1-.94.3 4.46 13.15q.77 1.73 1.56 3.45zM482.68 647.7l-.74.02.42.5c1.61.9 3.13 2.15 4.86 2.66 4.77 1.4 9.63 2.5 14.46 3.71l.07-.4zm58.53 23.98c5.42-9.34 10.94-18.63 14.63-28.85a22 22 0 0 0-2.96 4.5q-6.19 12.15-12.33 24.35l-3.3 5.99.81.4q.36-.62.68-1.23zm-85.4 126.9 7.38-9.91-10.16-2.6-3.09 5.87c2.7 1.6 6.4 1.9 5.54 6.25-.6.32-1.22.93-1.8.9-2.32-.1-4.63-.46-6.94-.58-.68-.03-1.39.47-2.08.73l.2.71 8.47 2.87zm-87.88 158.4-.48-.43.06.77c.95 3.8 1.85 7.62 2.87 11.41.18.68.72 1.56 1.3 1.78a52 52 0 0 0 7.73 2.49c2.05.43 4.22.27 6.99.39-3.25-4.86-4.97-9.82-11.05-9.88-.89 0-1.9-.8-2.61-1.48-1.68-1.6-3.22-3.35-4.8-5.04zm348.4-671.56 1.95-.52 11.43-3.47-10.93-9.8-14.58 7.01 4.66 10.55zm28.99 175.67c-10.87.68-21.74 1.91-32.66-.5l6.36 23.7 15.5 2.97c-1.9-5.24-3.7-9.84 1.2-14.27 3.78-3.4 6.85-7.57 10.23-11.4l.61-.87zm42.33.11c-.1.17-.15.45-.28.5q-24.29 8.24-48.66 16.47l.83 7.46 63.08-22.52-2.56-5.67-5.11 1.4c-.24-2.99 2.15-3.12 4.06-3.76 1.47-.5 3.64-.56 4.28-1.57 2.09-3.34 3.62-7.02 5.76-11.37l-54.74 17.64c-1.62 7.4-8.75 9.27-11.98 14.56.9-.14 1.72-.16 2.46-.39 9.02-2.88 18-5.92 27.06-8.68 5.2-1.58 10.51-2.73 15.78-4.07zm-241.22 28.66.42.52-5.68 11.66-.4.55.7-.25L568 487.18c-.78-1.7-1.48-3.04-2.02-4.45-5.06-13-10.26-25.96-15.07-39.06-3.5-9.54-6.3-19.3-9.69-28.88-1.96-5.57-4.47-10.94-6.67-16.42a6 6 0 0 1-.6-2.88c.9-6.61 2.05-13.2 2.91-19.8.96-7.38 1.57-14.8 2.59-22.17a1060 1060 0 0 1 4.27-27.97c1.4-8.46 2.72-16.94 4.56-25.31 3.43-15.62 7.23-31.15 10.83-46.72.6-2.63.93-5.3 1.4-7.97l-.7-.22-14.23 18.24-7.97-26.91c-.6 4.5-3.57 8.4-2.16 13.27.6 2.04.31 4.4.13 6.59-.2 2.37-1.04 4.7-1.11 7.08-.33 10.38-.24 20.79-.76 31.16-.51 10.07-1.5 20.12-2.41 30.16-.37 4.12-1.01 8.22-1.63 12.32q-1.29 8.38-2.68 16.75c-1.14 6.85-2.26 13.7-3.5 20.54-1.01 5.53-2.56 10.99-3.2 16.55-.8 7.1-.72 14.3-1.4 21.41a553 553 0 0 1-3.09 25.76c-2.14 15.06-4.97 30.03-6.57 45.14-1.2 11.42-.93 23-1.3 34.35 1.36.5 2.1.83 2.86 1.05 12.67 3.73 25.41 7.22 37.96 11.3 3.4 1.1 5.43.68 8.31-1.22 7.12-4.68 14.63-8.77 22.33-13.3L570 491.04l-29.12 16.67-1.28-.8c.1-1.89-.32-4.03.43-5.62 1.85-3.94 4.24-7.64 6.4-11.43M733.8 852.19c-2.17-6.09-4.69-12.73-6.92-19.45-4.92-14.84-9.32-29.83-16.05-44.04a296 296 0 0 1-11.68-28.28c-4.95-14.03-9.1-28.34-13.82-42.46-3.96-11.83-8.26-23.54-12.4-35.26-18.94 10.1-38.42 20.2-59.52 27.08 1.06 3.33 1.83 6.32 2.96 9.19 5.25 13.3 10.68 26.51 15.87 39.83 3.46 8.87 6.08 18.11 10.06 26.74 4.51 9.76 10.25 18.96 15.23 28.52 8.62 16.55 17.05 33.2 25.63 49.78 1.46 2.83 3.21 5.5 4.6 7.86 16.3-5.13 33.33-7.3 46.05-19.5zM561.4 120.9l-10.77-6.72c-.44.48-1.04 1.06-1.54 1.71-3.32 4.36-3.2 4.23 1.11 7.7a5.2 5.2 0 0 1 1.46 4.4c-.87 3.6-2.36 7.05-3.63 10.55-.26.74-.62 1.45-.94 2.16l-1.03-.27c.37-2.84.66-5.7 1.12-8.52.33-2.01.67-3.65-2.06-4.45-1.46-.43-2.57-2.02-3.85-3.11-1.37 1.2-3.97 2.44-4.11 3.9-.2 2.16-1.04 1.88-2.33 1.9q-1.06.02-2.1.22-1.37.29-2.75.64c-.13-1.07-.6-2.24-.34-3.2 1.66-5.76 3.48-11.48 5.14-16.86-5.23-2.49-10.4-5.12-15.71-7.39-3.02-1.28-5.38-4.58-9.4-3.3-.3.1-1.58-1.52-1.7-2.43-.13-.99.55-2.1.9-3.14l6.14-18.45c-.62.05-1.12.06-1.62.11-7 .79-14 1.84-21.02 2.3-5.92.39-5.93.1-7.86 5.75a145 145 0 0 0-7.11 31.8c-.85 8.07-.68 16.35-4.69 23.87-1.6 3.02-2.47 6.44-3.96 10.48l10.6 2.49c-1.35 3.47-2.72 7.11-4.2 10.7-1.5 3.67-1.13 6.38 1.88 8.83a15 15 0 0 0 5.2 2.63c1.62.47 2.9 1.03 2 2.73-.75 1.46-2.21 2.55-3.87 4.35l11.76 13.4c11.16-3.34 22.14-8.36 32.7-14.36 1.12-.63 2.4-.93 3.62-1.39l.57.9-5.67 5.88 16.05 28.53c12.35-17.22 28.63-30.64 42.58-45.2-.7-1.49-1.34-2.6-1.73-3.8-.38-1.13-.23-2.49-.75-3.53-4.84-9.59-9.78-19.13-14.6-28.52-.65 2.06-1.03 4.53-2.16 6.59-1.53 2.76-3.22 5.75-5.63 7.6-1.79 1.37-4.86 1.45-7.35 1.41-3.3-.06-6.7-.44-9.2-3.48 2.88-.36 5.72-.39 8.5.04 1.56.23 2.16-.1 2.7-1.48 3.2-8.03 6.45-16.04 9.65-23.97m139.57 179.55c2.83 5.56 6.32 11.04 8.51 17.01a939 939 0 0 1 14.65 42.97c5.91 18.84 11.34 37.83 17.05 56.73 1.7 5.66 3.69 11.24 5.54 16.87 4.7-1.9 4.64-1.85 1.76-5.54-.4-.52.2-1.81.32-2.75 1.7.33 3.47.5 5.07 1.09.5.19.8 1.53.84 2.35.17 3.63-2.42 5.48-5.06 7.02-1.56.9-2.07 1.51-1.21 3.27.73 1.5.9 3.26 1.58 5.87 1.26-1.94 1.95-3.29 2.9-4.4.6-.7 1.61-1.05 2.44-1.56.26 1.02 1.07 2.33.7 3-.97 1.82-2.45 3.36-3.72 5.01-.42.54-1.28 1.15-1.21 1.6.51 2.9 1.23 5.78 1.88 8.63 18.53-8.18 37.99-12.6 56.81-18.74-5.85-17.56-11.6-34.76-17.33-51.98-4.96-14.9-10.23-29.72-14.77-44.76-6.51-21.58-13.15-43.03-27.53-61.52l-49.21 19.82zm-6.9 3.87c.85 4.2 1.73 8.23 2.48 12.28 1.57 8.42 2.97 16.88 4.61 25.28 1.66 8.5 3.6 16.93 5.29 25.42.7 3.46.45 7.24 1.78 10.4 1.75 4.14 1.8 8.14.82 12.19-2.09 8.62-4.54 17.16-6.76 25.75-.45 1.75-1.14 3.75-.7 5.36 3.47 12.52 7.19 24.98 10.83 37.45 6-.3 12.1-.6 18.2-.94 6.15-.32 12.38.79 18.6-.8-.76-1.96-.96-4.3-2.19-5.16-1.23-.85-3.54.03-5.3-.3-1.46-.27-3.45-.87-4-1.94-.66-1.27-.02-3.2.05-4.7l7.56 2.22-2.96-7.72c-4.1.71-8.01 1.18-11.12-1.82-.81-.79-1.4-2.87-.91-3.67.52-.88 2.37-1.3 3.65-1.3 1 0 2 .93 2.98 1.48q1.68.94 3.37 1.92c-1.75-6.88-4.09-13.04-6.04-19.32a6531 6531 0 0 1-18.27-59.75c-5.11-17.01-10.46-33.93-17.64-50.21-.84-1.9-1.87-3.1-4.34-2.12zm-1.51 691.86c1.52 3.73 4.4 4.75 8.1 4.17.8-.12 1.65.03 2.45.2 9.64 1.97 19.24 4.18 28.94 5.82 2.73.47 3.63 1.61 4.14 3.87.2.86.56 1.69.95 2.85 19.28-3.3 38.64-6 56.18-13.94L779.6 970.2c-4.34 4.34-8.74 8.68-13.05 13.1-1.07 1.09-1.86 2.44-2.78 3.67l.61 1.1c-1.42-.26-2.98-.23-4.22-.85-2.7-1.32-5.24-2.95-7.83-4.48-9.24-5.47-18.41-11.05-27.73-16.39-4.37-2.5-4.48-2.3-7.6 1.63-.05.06-.02.2-.03.41 3.68 3.06 9.22 4.38 10.86 10.86l-14.39-6.6-5.8 6.68 8.72 6.97c-5.4 1.33-8.23-2.34-11.9-3.18l-11.89 13.07zm-297.32-14.97c-6.48.8-13.08 1.71-19.7 2.3a5.1 5.1 0 0 1-3.9-1.7 96 96 0 0 1-6.73-10.42c-3.52-6.27-6.8-12.68-9.92-18.52l-33.26 12.45c-.4 1.47-1.02 3.47-1.44 5.52-.17.86-.18 1.94.19 2.7a542 542 0 0 0 9.18 17.92 8 8 0 0 0 3.4 3.32q7.76 3.31 15.72 6.02c9.49 3.2 18.97 6.44 28.6 9.16 5.66 1.6 11.6 2.22 17.15 3.23 3.4-11.22-.06-21.84.72-31.97zm77.46-302.78c-.28 6.96-.63 13.43-.8 19.89-.36 14.58 12.44 27.92 26.2 27.94 10.63.02 18.43-4.95 26.22-12.04-2.68-.43-4.78-.62-6.81-1.12a59 59 0 0 1-8-2.46c-2.07-.84-2.23-3-1.58-4.72.3-.78 2.23-1.6 3.14-1.35 4.59 1.22 9.33 2.28 13.52 4.38 3.2 1.6 4.59.5 6.14-1.75 1-1.46 1.94-2.97 3.1-4.74zM247.72 976.3c2.08.97 4.03 1.72 5.82 2.77 14.14 8.3 29.07 14.97 44.2 21.22q27.78 11.46 55.6 22.85c3.23 1.33 6.45 3.43 9.77 3.66 9.94.66 19.93.58 29.9.77 1.93.04 3.87 0 5.91 0l-1.56-10.29c-1.54.65-3.02 1.91-4.23 1.7-9.2-1.68-18.52-3.02-27.45-5.68-13.03-3.88-25.77-8.77-38.61-13.27-9.62-3.36-19.3-6.6-28.8-10.25a538 538 0 0 1-26.48-11.08c-7.11-3.18-14.03-6.8-21.2-10.3zm549.26 27.65c-4.3 1.6-8.86 3.39-13.49 4.98-16.97 5.84-34.54 8.98-52.3 11.22-5.77.73-11.58 1.26-17.37 1.87-9.91 1.03-19.8 2.41-29.75 2.96-7.31.4-14.69-.19-22.03-.54q-7.6-.35-15.16-1.3c-1.98-.24-3.85-1.28-6.41-2.18l-2 7.25c1.73 0 3.24-.1 4.75.02 9.85.78 19.7 2.09 29.56 2.33 21.22.52 42.46.54 63.7.69 3.14.03 6.3-.48 9.46-.56 1.07-.03 2.3.95 3.22.68 8.25-2.41 16.44-5 24.65-7.51 9.76-2.99 19.52-5.94 29.2-8.89-2.22-4.07-4.15-7.6-6.04-11.03zm-247.6-753.98c2.56-3.3 5-6.17 7.11-9.25 3-4.36 7.5-7.66 9.2-12.95.1-.29.28-.78.4-.78 2.98.1 2.83-2.6 3.46-4.2a201 201 0 0 1 22.3-41.82c4.22-6.07 4.25-5.94-1.33-10.6-1.55-1.3-2.4-.92-3.51.35-8.99 10.17-17.93 20.38-27.03 30.45-5.47 6.06-11.2 11.9-16.55 17.56 4.12 10 4.56 20.52 5.94 31.24zm93.46 300.75-45.74-17.14-1.74 5.44c6.85 9.31 12.25 19.88 20.68 27.61zm52.65 334.87c.38.76.9 2.2 1.76 3.4.42.59 1.5 1.14 2.17 1.04 7.33-1.12 14.65-2.22 21.93-3.6 6.8-1.3 13.52-3 19.36-6.95.85-.58 1.72-2.08 1.57-2.98-.4-2.35-1.37-4.6-2.06-6.77-7.3 3.15-14.29 6.62-21.6 9.2-7.48 2.66-15.27 4.45-23.11 6.67zm49.03-2.55c-12.8 9.52-27.47 12.66-42.84 13.52-.03.2-.16.45-.08.6 1.02 1.94 1.69 4.37 3.28 5.62.91.72 3.35-.45 5.08-.85q18.97-4.37 37.96-8.78zm-122.17-443.8c-.84 4.06-1.26 8.22-2.59 12.05-6.57 18.92-13.47 37.73-20.07 56.64-1.69 4.81-2.7 9.86-4.01 14.8l1.03.32c.9-2.15 1.85-4.28 2.68-6.46 5.59-14.57 11.2-29.13 16.71-43.73 2.71-7.2 5.53-14.37 7.71-21.73 1.18-3.96.62-8.22-1.46-11.89m59.72-205.56-.6.52 4.07 6.5c6.3 10.03 12.59 20.07 18.96 30.04.37.57 1.6 1.04 2.28.88 2.95-.7 5.85-1.66 8.59-2.48l-33.3-35.47zM814.61 360.6l14.49 40.36c6-15.9-1.16-32.34-14.5-40.36M680.8 254.64l-.28.11L691.28 293c2.05-4.68 3.51-9.27 4.9-13.89.18-.56.16-1.4-.15-1.86q-7.59-11.34-15.24-22.61m70.41 275.33s.48.17.96.31c3.04.87 3.62.35 3.22-2.73-.27-2.1-.23-4.25-.67-6.31-1.36-6.5-2.89-12.85-9.38-16.63-4.52-2.63-8.65-6.03-10.75-11.02-.9-2.1-2.02-2.17-3.63-1.87.65 5.07 3.56 8.49 7.6 11.25 4.58 3.14 8.51 7.03 9.96 12.57 1.2 4.57 1.76 9.3 2.69 14.43m-12.57 335.4-1.54-4.44c-7.8 6.59-34.2 16.91-45.7 16.97.64 3.48 2.7 4.2 5.82 2.93 1.3-.54 2.69-.88 4.05-1.26a228 228 0 0 0 37.37-14.2M630.19 412.32l1.23.03c.26-2.65.31-5.35.84-7.96.67-3.33 1.25-6.8 2.7-9.82 4.53-9.42 9.47-18.65 14.19-27.99.5-.98.59-2.17.86-3.26l-.73-.28c-.33.44-.7.85-.97 1.32-5.17 8.74-10.36 17.47-15.46 26.25-1.2 2.06-2.84 4.24-2.98 6.45-.32 5.06.16 10.16.31 15.25zm-35.22-99.66c.74-1.3 1.38-1.91 1.28-2.37-1.43-7.12-3.02-14.22-4.42-21.35a5.8 5.8 0 0 1 .56-3.82c2.3-3.7 4.92-7.21 7.32-10.86.94-1.44 1.6-3.06 2.4-4.6l-1.67-1.38c-.56 1.1-1 2.3-1.7 3.29-2.54 3.56-4.86 7.35-7.85 10.5-3.78 3.95-4.24 7.78-2.1 12.72 2.35 5.47 3.94 11.26 6.18 17.86zm6.3-106.64c-1.04 1.07-1.74 1.45-1.83 1.94-.33 1.9-.67 3.86-.63 5.78.1 6.25.37 12.49.58 18.73l1.1 33.42h.78zm-67.63 36.43c.66-2.96.93-6.25 2.17-9.12 1.4-3.27.67-6.37.37-9.5-.21-2.2-1.24-4.32-2.07-7.02l-5.33 8.5zM453.92 765.8c-2.87-.73-5.37-1.39-7.88-2-.32-.08-.97 0-1.03.16-.91 2.56-2.7 5.26-2.39 7.69.53 4.15 3.83 6.7 7.97 8.41-2.16-5.52-.43-9.91 3.33-14.26m18.38-37.94c-.57 1.9-1.38 3.66-1.57 5.49-.25 2.29.41 4.37 3.04 5.13 2.86.83 5.7 1.7 8.64 2.58.18-.58.75-1.62.79-2.68.03-1-.17-2.41-.83-2.96-3.13-2.57-6.46-4.9-10.06-7.57zm101.18-290.93.94-.36-17.64-47.6-1.23.45c4.35 16.44 11.45 31.86 17.93 47.5m99.35 129.78-.24-.9c-.9.16-1.9.12-2.72.48-3.56 1.5-7.07 3.15-10.63 4.7-2.77 1.21-5.82 3.67-8.3 3.2-2.69-.52-4.84-3.8-7.28-5.82-.89-.74-1.9-1.33-2.86-2q-.31.46-.64.88c3.94 3.34 7.85 6.7 11.84 9.97.5.4 1.63.62 2.14.33 6.26-3.55 12.46-7.2 18.68-10.84zm-219.5 249.1c5.98-8.4 11.9-16.73 17.89-25.12-2.52-.54-4.34-.16-5.33 2.36-.42 1.1-1.33 2-1.96 3.02-2.17 3.55-4.11 7.25-6.5 10.64-2.03 2.86-4.55 5.35-6.99 8.16zm47.17-348.47c.75-.7.98-.81 1-.96 1.68-9.88 3.43-19.75 4.96-29.66.52-3.3.53-6.69.69-10.04.01-.43-.51-.88-.78-1.32-.36.36-.98.69-1.03 1.08-.47 4.25-.81 8.52-1.29 12.77-.47 4.23-1.06 8.44-1.6 12.67l-1.94 15.46zm244.48 72.31c2.45.4 4.19.57 5.87.98 5.99 1.44 6.74-.62 5.3-4.77-.31-.87-.25-1.88-.3-2.25l-8.07-.39zM450.11 806.23l-8-2.75-2.6 3.84.89-.62 6.48 7.34c1.06-2.57 2.1-5.1 3.23-7.8zm175.29-194.1-1.49.76L637.64 639l1.04-.53zM815.45 407.4l-1.2.14-1.2 5.86c1.42.24 3.15 1.1 4.2.57 1.5-.73 3.5-2.46 3.52-3.78.06-3.84-3.81-1.14-5.31-2.79zm-8.95-24.58-1.44.71c0 1.92-.17 3.86.14 5.73.07.4 2.4 1.04 2.82.65 1.07-1.01 2.54-2.87 2.2-3.8-.49-1.36-2.4-2.21-3.72-3.28zM612.22 214.54l19.32-14.34c-4.53.97-14.78 8.53-19.32 14.34m184.63 149.02c-.36 2.1-.09 4.45 2.59 5.44.66.25 2.65-.91 2.62-1.35-.1-1.7-.75-3.37-1.1-4.69zm-167.34 53.67-.95-.71c-2.32 3.27-6.13 5.5-7.3 9.59l.8.58 7.45-9.47zM748.67 547.2l4.83-3.03-.27-.51h-4.56zM535.59 682.1l.27.09.47-1.18-.53-.15zm102.97-42.26-.27.03.03-.15zm-102.21 40.28.22.22q.12-.2.2-.41c0-.05-.13-.14-.2-.2zm1.15-1.33c-.07-.07-.16-.2-.2-.2-.15.03-.28.13-.42.2.07.06.15.2.2.19.15-.03.28-.13.42-.2"/><path fill="#000" d="m802.37 340.5.84-.49.18.45-1.07-.06z"/><path fill="#fff" d="M669.25 497.02c2.35-6.2 4.51-12.5 7.1-18.6 4.49-10.61 9.23-21.1 13.88-31.65.37-.83.81-1.64 1.74-2.2-5.1 18.7-15.04 35.33-22.13 53.17zm-95.77-60.09c-6.5-15.64-13.6-31.07-17.93-47.5l1.22-.46 17.64 47.6zm-72.98 30.41 1.95-15.47c.53-4.22 1.12-8.43 1.59-12.66.47-4.25.81-8.52 1.3-12.78.03-.4.66-.71 1.01-1.07.27.44.8.89.78 1.32-.15 3.35-.17 6.74-.68 10.04-1.53 9.9-3.28 19.78-4.96 29.65-.02.15-.26.26-1 .97zm124.9 144.8 13.27 26.34-1.04.53-13.72-26.12zm-84.86 59.55q6.15-12.19 12.34-24.36 1.18-2.4 2.96-4.49c-3.7 10.22-9.22 19.5-14.64 28.85zm71.68-457.14c4.53-5.81 14.78-13.37 19.31-14.34zM482.68 647.7l19.07 6.48-.07.41c-4.83-1.21-9.7-2.3-14.46-3.71-1.73-.5-3.25-1.76-4.86-2.67q.21-.23.32-.5m51.43-59.1-17.07-6.56.42-1.08 17.04 7.06zm95.4-171.38-7.44 9.47-.81-.58c1.17-4.09 4.98-6.32 7.3-9.59zm-5.1-48.52-4.46-13.15.94-.3 3.93 13.1z"/><path fill="#fff" d="m669.25 497.02.6.72-4.14 9.41-.57-.37zM540.55 671.7h.65l-2.47 5.15q-.32.62-.68 1.22l-.8-.4zm84.26-303.32 1.63 3.45a3 3 0 0 0-.48.34l-1.56-3.45zM535.6 682.12l.2-1.25.53.15-.46 1.18z"/><path fill="#fff" d="m626.44 371.83.25 1.54-.52.08-.2-1.28q.22-.2.48-.34zm-90.57 216.7 1.59.46-.21.65-1.67-.82zm128.67-78.18.4-2.08q.18.18.38.34l-.85 1.66z"/><path fill="#fff" d="M665.71 507.15q-.2.72-.38 1.45l-.37-.34.19-1.48zm-1.24 3.11-.05.16c-.39.3-.14.1.12-.08zM534.5 588.03l1.36.48-.29.3-1.46-.21zm104.06 51.83-.25-.13-.02.16zm-102.22 40.28.22-.4c.07.07.2.15.2.2q-.08.22-.2.42zm1.15-1.32q-.2.12-.42.18c-.05.02-.14-.12-.2-.19q.2-.12.41-.19c.05-.01.14.12.2.2zm-55.13-30.6-.42-.5.74-.02a2 2 0 0 1-.32.51z"/><path fill="#000" d="M504.14 121.8c-1.15.35-2.08.82-3.02.87-6.16.27-12.31.4-18.46.67-2.5.11-4.56.11-3.86-3.4.2-.96-.28-2.05-.44-3.09 7.72-4.7 23.48-1.97 25.78 4.95m-9.16 8.19c-.3.94-.3 1.38-.48 1.48-2.23 1.11-3.26 2.8-3.77 5.34-.4 1.96-4.76 1.78-5.85-.1-.75-1.3-1.42-2.62-2.24-4.14h-2.45c-.85-3.15.53-4.13 3.27-3.84zm51.43 359.88 1.26-1.88.4.54-1.24 1.87z"/><path fill="#000" d="m547.67 488 .89-.6-.5 1.13zm209.01-174.22c0 8.2-5.6 14.18-13.5 16.5-6.69 1.96-11.2-1.15-14.54-5.35-3.48-4.4-3.6-10.23-.66-15.46 2.98-5.34 7.95-7.47 13.8-7.9.92-.07 1.85-.01 2.78-.01 8.34 0 12.12 3.81 12.13 12.2zm-24.2-2.28 8.99 2.57-.24 1.29h-8.92c2 6.93 5.18 10.42 12.8 7.4.45-.18 1.07.03 1.49-.19 2.52-1.36 5.76-2.23 7.34-4.33 3.04-4.06.2-10.73-4.84-12.14-6.9-1.92-12.4-1.34-17.07 5.07l-.01.76zm40.98 36.8q1.31-.3 2.5-.6l.45.73c-1.27.96-2.41 2.27-3.84 2.82a2745 2745 0 0 1-32.9 12.44c-1.18.44-2.5.74-3.76.82-1.45.1-4.74-5.14-4.04-6.47a5 5 0 0 1 1.97-2 140 140 0 0 1 29-12.18c1.9-.56 4.07-.93 5.98-.6 2.6.47 4.55 2.16 4.64 5.05m-10.4-1.13-22.46 10.84.27.63 24.85-8.04-2.64-3.43zm-3.87 60.09c-.68-.79-1.46-1.5-2.01-2.38-4.45-7.06-7.38-14.77-9.63-22.76-.24-.86-.5-2-.15-2.69a5.7 5.7 0 0 1 2.47-2.5c.44-.2 2 .89 2.23 1.64 2.21 7.47 4.28 15 6.33 22.52.52 1.91.8 3.89 1.2 5.84q-.23.15-.44.33m14.1-4.23c-1.23-1.7-2.63-2.97-3.19-4.54a830 830 0 0 1-7.8-23.36c-.5-1.57-.69-3.37 2.47-3.68 1.8 5.06 3.83 10.24 5.5 15.52 1.6 5 5.79 9.5 3.01 16.06m-5.12.8c-5.37-9.26-10.64-18.04-12.13-28.44-.08-.58.47-1.24.72-1.87.63.31 1.63.46 1.84.95 1.64 3.86 3.27 7.72 4.62 11.69 1.83 5.37 3.43 10.82 5.1 16.24.09.27-.05.6-.15 1.43m6.05-35.17c6.72 9.04 8.24 20.15 12.48 30.3-3 1.07-3.99-.67-4.5-2.38-2.74-9.28-5.34-18.6-7.99-27.92zm5.04 31.66c-1.1-1.31-2.7-2.47-3.18-3.99-2.31-7.33-4.34-14.76-6.4-22.17-.23-.8-.04-1.71.46-2.7 4.3 9.09 7.4 18.53 10.35 28.03zm-19.2-99.81c.77 3.42-.45 4.57-4.07 4.37zm-.18 107.04.2.02-.11.37q-.12-.08-.2-.2c-.01-.04.07-.12.1-.2zM717.8 284.43l-1.4 1.08c-.41 0-.82-.04-1.23 0-2.31.18-4.33.08-4.4-3.07-.09-4.07.57-4.95 4.06-5.34 1.71-.19 3.78-2.45 4.96.24 1.12 2.59-.08 5.07-1.98 7.1z"/></svg>