<svg xmlns="http://www.w3.org/2000/svg" width="1080" height="1080" fill="none" viewBox="0 0 1080 1080"><path fill="#fff" d="M715.65 451.94c-3.22 5.5-6.31 11.23-9.86 16.67-2.58 3.94-6.06 7.15-11.08 7.67-.92.1-2.05-.8-2.88-1.5a2.2 2.2 0 0 1-.57-1.92c1.2-3.78 2.54-7.5 3.8-11.26.19-.54.5-1.33.27-1.7-2.73-4.15-.19-8.05.85-11.8.81-2.92-.15-5-2.03-6.15-2.87-1.74-4.1-4.46-4.48-7.14-.44-3.12-2.22-3.5-4.47-3.85-6.88-1.05-13.75-2.13-20.65-2.99-1.2-.15-2.52.7-4.08 1.2-2.56-2.07-5.59-1.96-8.34.72-1.54 1.5-2.88 3.22-4.53 4.57-3.1 2.55-3.16 3.26.84 6.37-2.89 1-5.26 2.31-7.73 2.57-3.43.34-6.94-.1-10.42-.22-1.78-.06-3.57-.1-5.34-.22-5.81-.39-11.63-.82-18-1.27 1.18 1.68 2.31 2.98 3.1 4.47 3.67 7.02 7.6 13.94 10.78 21.18a319 319 0 0 0 14.84 29.39c2.55 4.48 4.36 9.41 6.11 14.28 2.29 6.32 4.61 12.67 6.08 19.2.97 4.3.41 8.96.62 13.45.1 2.25.53 4.5.6 6.75.1 3.41.14 6.84-.08 10.24-.07 1.06-1.08 2.06-2.05 3.8-1.62-5.73-4.98-5.66-9.15-4.9-2.74.48-5.7-.3-8.56-.47-.8-.05-1.82-.25-2.36.14-4.18 3.03-8.86 1.48-13.36 1.71-1.91.1-4.02.38-5.65 1.28-3.93 2.17-7.98 1.75-11.93 1.47-3.63 18.26-8.6 36.12-16.23 53.29-2.29 5.15-3.85 11.14-1.93 17.13.11.36.27.8.19 1.13a673 673 0 0 1-2.92 11.3c-1 3.69-3.48 4.85-7.04 3.33-.8-.34-1.56-.82-2.16-1.14-8.12 15.33-16.33 30.56-24.2 45.97-1.56 3.03-1.9 6.71-2.67 10.12-2.69 12.02-5.43 24.02-7.94 36.07-1.4 6.72-2.26 13.54-3.55 20.28-1.79 9.42-3.85 18.8-5.61 28.23-1.3 6.95-2.32 13.94-3.37 20.92a687 687 0 0 0-2.38 17.54c-.33 2.66-.42 5.35-.6 8.02-.62 9.02-1.56 18.03-1.68 27.05-.04 3.28-.14 6.22-1.38 9.3-.7 1.73-.13 3.96-.13 6.34-8.1.2-16.16.36-24.22.62-2.37.07-4.78.17-7.07.7-1.08.26-2.5 1.41-2.78 2.42a218 218 0 0 0-3.08 14.02c-1.74 8.84-3.4 17.7-5.1 26.56-.25 1.34-.56 2.67-.93 4.41 1.98.2 3.98.52 5.99.58 6.13.2 8.97 2.22 10.22 8.08 4.9 22.97 14.94 43.72 27.17 63.55 1.77 2.89 4.72 2.03 7.2 2.34 5.95.73 12.02.76 17.65 3.23.35.15.62.49 1.09.87l-1.63 2.19c7.26 1.09 14.5 2.46 21.8 3.2 6.59.67 9.26 5.05 10.9 10.42a214 214 0 0 1 4.2 16.79c.54 2.44.37 4.53-2.8 5.89-4.83 2.08-9.27 5.06-13.88 7.66-6.54 3.7-13.5 5.41-21.06 5.92-9.68.65-19.6.56-28.72 4.71-3.02 1.38-5.79 3.33-8.79 4.76-8.14 3.9-16.61 4.91-25.65 3.77-7.2-.9-14.55-.59-21.83-.75-10.8-.22-21.61-.65-32.42-.53-14.45.15-28.91 1.14-43.36 1-11.69-.12-23.16-2.27-32.5-10.17-8.52-7.22-13.25-16.05-11.6-27.81 1.5-10.53 6.22-19.89 9.5-29.77 1.87-5.62 4.31-11.06 5.82-16.77 1.75-6.58 2.88-13.35 4-20.09.32-1.88-.5-3.93-.47-5.89.15-9.38-.56-18.93 1-28.09 1.01-5.92 5.42-11.26 8.29-16.87.56-1.08 1.05-2.22 1.59-3.32.18-.38.43-.72.62-1.1.56-1.06 1.63-2.18 1.55-3.21-.4-5.52-1.14-10.85.42-16.5 1.7-6.14 1.48-12.8 2.93-19.02 2.17-9.35 2.12-19.08 5.63-28.22a391 391 0 0 0 10.63-31.56c5.66-19.58 14.32-37.84 23.43-55.96a171 171 0 0 0 15.57-47.49c2.88-16.39 5.22-32.9 10.88-48.65 1.53-4.28 3.5-8.4 5.13-12.64.37-.96.55-2.4.08-3.18-3.04-5.08-4.55-10.67-6.2-16.29-3.63-12.43-8.65-24.3-15.78-35.2-1.34-2.06-2.54-4.22-3.91-6.25-1.46-2.17-2.84-4.19.02-6.42.41-.31.13-1.75-.08-2.61-.52-2.15-1.17-4.26-1.84-6.63-2.64.53-5.95 1.1-9.22 1.87-2.3.53-4.36.67-6.42-.89-1.9-1.42-6.26-.61-8.16 1.4-1.93-1.4-3.88-2.84-5.98-4.39l2.39-12.37c-5.63-3.25-5.88-9.84-9.42-14.66-1.93 1.49-2.84-.02-3.04-1.64-.4-3.37-1.94-3.34-4.82-2.74-6.43 1.35-13.02 1.94-19.46 3.22-6.98 1.38-13.84 3.29-20.8 4.73a9.6 9.6 0 0 1-5.24-.5c-5.27-2.14-8.14-6.77-11.34-11.17-5.48-7.53-11.46-14.69-17.11-22.09a530 530 0 0 1-11.56-15.85c-.46-.66-.48-1.83-.32-2.69.6-3.17 2.1-6.36 1.85-9.44-.36-4.44.51-8.46 1.83-12.54 3.24-10.03 7.8-19.37 14.22-27.8 1.7-2.23 2.82-4.88 4.44-7.75-2.14-1.34-3.9-3.04-5.97-3.57-1.81-.47-3.96.34-5.96.6-.46.07-.96.35-1.37.26-3.4-.76-9.62-7.83-9.28-11.2.87-8.73-3.87-15.61-7.04-23.02-2.7-6.28-5.38-12.57-8.15-18.82-1.86-4.22-4.31-8.22-5.7-12.57a476 476 0 0 1-9.18-32.07c-1.24-5.1-.93-10.58-1.4-15.89-.33-3.86-1.13-7.71-1.07-11.56a17 17 0 0 1 2.01-7.28 763 763 0 0 1 13.95-25.8 396 396 0 0 1 25.4-38.9c3.55-4.81 6.24-10.25 9.32-15.4l-.66-1.09q-7.32 1.89-14.65 3.82c-4.83 1.3-9.63 2.7-14.48 3.94-2.98.77-4.24-.75-4.88-3.64-.77-3.43-2.43-6.67-3.72-9.98-1.28-3.3-3.29-5.35-7.19-5.77-1.1-.11-2.56-3.07-2.7-4.81a396 396 0 0 1-1.25-24.44c-.1-5.03 1.37-9.49 5.49-13.08 6.45-5.62 12.42-11.81 18.8-17.53 9.59-8.6 20.46-15.28 32.42-21.32-.24-4.42-.57-9.28-.73-14.15a3.7 3.7 0 0 1 1.02-2.44c1.94-2 4.11-3.77 6.02-5.79a4.4 4.4 0 0 0 1.18-2.9c-.26-4.2 2.85-6.28 5.16-8.94a4.5 4.5 0 0 0 .92-2.9c-.44-9.17 1.02-18.16 2.47-27.15.84-5.2 4.55-8.47 8.4-11.36 4-3 8.4-5.45 12.6-8.17.7-.45 1.51-1 1.84-1.71 3.7-8.04 10.75-12.4 17.89-16.84 5.7-3.54 11.87-5.33 18.36-5.05 7.58.33 14.73 2.63 20.88 7.34l-.1 1-8.6-.62c-.05 3.35 2.47 4.31 4.83 4.64 7.36 1.05 14.77 1.72 22.17 2.57 2.64.3 5.27.98 7.92 1.01 3.04.05 6.09-.4 9.13-.67.58-.05 1.14-.24 1.72-.34 2.93-.54 6.15-.04 7.72-3.94.41-1.01 4.15-1.71 5.68-1.03 3.8 1.7 7.2 4.26 11.37 6.86l-4.5 3.15c.95 2.17 5.71 2.37 3.19 6.18 12.57 1.91 25.14 3.98 37 8.98 8.41 3.54 12.4 10.56 14.37 18.9a98 98 0 0 1 2.59 23.54c-.05 4.8-2.43 8.37-5.16 11.92-3.6 4.67-7.45 9.2-10.5 14.23-3 4.92-5.16 10.36-7.65 15.59-.2.4-.2.88-.36 1.71 1.42-.6 2.43-1.11 3.5-1.48 2.7-.92 5.45-2.16 7.84.67 1.53 1.82 3.08.43 4.36-.21 2.84-1.43 5.33-1.29 7.24 1.26.73.95 1.24 2.66.9 3.7-1.24 3.7-2.88 7.23-4.48 11.07 3.42 3.42 1.27 7-.58 10.27-3.34 5.87-7.14 11.47-10.61 17.26-1.86 3.09-3.45 6.33-5.33 9.8 4.46 2.81 5 7.58 6.54 12.04a12.4 12.4 0 0 0 6.81 7.34c3.53 1.55 6.62 4.08 9.92 6.13 12.52 7.75 25.14 15.34 37.52 23.3 3.05 1.97 5.19 5.27 7.95 7.73 2.9 2.57 1.12 5.17.8 8.03-.52 4.64-.19 9.4-.08 14.1.12 4.96.77 9.92.5 14.84-.33 6.1.44 11.72 2.9 17.42 2.44 5.6 3.74 11.67 5.65 17.51a4 4 0 0 0 1.8 2.2c3.18 1.44 6.52 2.53 9.7 3.96 5.61 2.52 11.6 3.14 17.56 4.27 7.4 1.41 14.62 3.96 21.86 6.2a21 21 0 0 1 5.35 2.76c3.57 2.39 7.32 2 11.17 1.09 2.48-.6 4.99-1.07 7.45-1.72.73-.2 1.35-.8 1.44-.85 3.3-.4 6.22-.56 9.04-1.13 4.4-.9 8.74-2.1 13.12-3.1 1.49-.35 3.26-.95 2.81 1.86-.03.2 1.3.97 1.87.86 3.2-.62 4.83 1.5 6.38 3.55 2.24 2.97 4.95 5.86 6.15 9.24 1.18 3.3 1.28 7.27.84 10.82-.5 3.93-2.13 7.72-3.26 11.53l12.8 22.56 3.25-.66-1.4 2.17c4.21 3.31 9.22 4.02 14.03 5.11 4.19.95 8.45 1.88 12.72 2.15 8.84.56 16.83 4.24 25.23 6.36 5.93 1.5 11.94 1.42 17.94 1.93 6.07.5 11.32-2.26 17.06-2.82 5.7-.57 11.34-1.65 17.05-2.02 2.16-.14 4.4 1.17 6.65 1.59 1.7.31 3.46.38 5.19.33 3.63-.12 7.38-1.24 10.66 1.15.87.64 1.61 1.9 1.71 2.94.04.48-1.53 1.37-2.5 1.64a332 332 0 0 1-14.02 3.8c-10.13 2.48-20.21 5.23-30.44 7.17-6.15 1.16-8.28 6.16-9.53 10.32-2.31 7.74-6.76 13.49-12.38 18.73-4.16 3.88-8.09 8.06-12.61 11.45-2.25 1.67-5.57 2.23-8.5 2.6-2.37.3-4.25-1.12-5.06-3.7-.21-.7-1.27-1.27-2.05-1.65-3.46-1.62-4.01-2.54-2.86-6.08.78-2.42-.76-3.04-2.43-3.46-3.64-.92-7.33-1.69-10.81-2.47zm-178.52 251.9-.76-.24c-1.6 6.16-6.52 11.39-4.94 18.44l.9.25z"/><path fill="#000" d="M501.32 1065.91c-1.13 1.82-2.53 3.53-3.35 5.49-2.11 5.02-6.81 5.04-10.77 4.91a61 61 0 0 0-13.32 1.05c-10.55 1.98-21.13 1.54-31.72 1.6-5.7.03-11.35.43-17.03.89-3.48.29-7.22.17-10.73-.43-5.28-.9-10.57-.44-15.86-.93-9.44-.89-18.97-.69-28.43-1.43-11.43-.89-22.88-1.08-34.32-1.35-3.23-.08-3.94-2.28-5.52-3.77-1.8-1.73-4.6-3.33-2.54-6.67.16-.27-.23-.93-.43-1.38a52 52 0 0 1-4.14-12.92c-.97-6-2.83-11.9-3.05-17.93-.17-4.51-.92-9.02-.71-13.49.42-9.28 1.47-18.48 5.06-27.2 1.32-3.18 2.02-6.72 3.8-9.6 3.48-5.6 5.87-11.7 8.93-17.46.91-1.71 2.18-3.36 4.33-4 1.36-.4 1.2-1.84 1.23-2.93.07-3.2-.31-6.46.1-9.62.82-6.2-.47-12.24-.82-18.36-.12-2.24-.38-4.49-.46-6.74-.02-.7.2-1.6-.43-1.98-2.88-1.75-.83-2.47.61-3.41 4.68-3.08 9.9-1.56 14.9-1.68 1.06-.03 1.82.4 1.8-1.23-.02-2.39 0-4.86 3.15-5.63.9-.21.46-1.21.41-1.84-.36-5.26-1.21-10.52-.12-15.8.24-1.11-.83-1.19-1.48-1.54a31 31 0 0 0-10.62-3.51c-.2-.03-.41.03-.6-.03-5.53-1.6-7-1.97-4.22-7.65 2.21-4.53 2.68-9.45 4.47-13.98 2.57-6.53 4.05-13.45 6.94-19.8 4.56-10.04 9.33-19.98 13.78-30.07 3.15-7.15 6.51-14.2 9.65-21.37 4.86-11.12 8.96-22.5 13.22-33.84 2.22-5.91 4.23-11.97 6.93-17.68 2.31-4.9 3.48-10.12 5.38-15.12 4.44-11.72 8.48-23.62 13.5-35.09 5-11.43 9.94-22.97 16.86-33.47 1.09-1.64 2.42-3.04 3.5-4.66 1.17-1.78 2.08-3.63 1.47-6.09-2.11 1.76-3 4.28-4.53 6.32-.4.53-.54 1.48-1.37 1.32-.96-.2-.48-1.15-.52-1.77-.16-2.39-.65-4.73-.74-7.13-.04-1.43-.04-3.26-2.05-4.14-.74-.32-1.46-1.88-1.34-2.75.42-3.05-1.2-4.67-3.37-6.36-3.43-2.69-6.9-5.42-9.86-8.6-4.42-4.74-8.58-9.85-10.98-15.92-2.3-5.87-5.7-11.1-8.5-16.67-1.68-3.31-2.4-7.11-3.5-10.72-.78-2.61-1.62-4.4-5.13-4.83-4.06-.49-7.6-3.2-11.14-5.43-1.03-.64-.72-1.9-.76-2.75-.21-3.86-2.63-7.9.74-11.53.64-.68-.18-1.04-.44-1.42-2.52-3.79-5.1-7.53-7.63-11.3-.51-.76-1.18-.6-1.87-.52-12.52 1.39-25.24 1.42-37.31 5.7-1.94.69-4.14.48-5.76 2.53-.6.75-3.45.15-4.68-1.39-1.77-2.2-3.54-4.32-6.57-4.75-1.42-.2-1.9-2.01-1.7-2.4 1.63-3.31-1.55-4.52-2.9-5.96-4.08-4.33-8.99-7.9-13-12.29-5.36-5.89-11.33-11.44-15.27-18.37-2.2-3.86-5.07-7.21-7.12-11.11-1.54-2.9-1.72-5.6-.93-9.06 1.02-4.4 2.09-8.77 4.47-12.46 6.14-9.5 10.75-19.9 17.51-28.99 1.32-1.77 1.29-3.67 1.71-5.54.2-.85-.55-1.45-1.58-1.77-4.15-1.28-8.44-2.41-10.4-7.02-.16-.37-.78-.6-1.24-.77-3.91-1.43-6.12-4.6-7.9-8.04-5.42-10.44-9.77-21.32-13.65-32.44-2.14-6.15-4.2-12.46-7.52-18.2-1.11-1.93-.87-4.35-1.7-6.5-1.3-3.36-2.8-6.7-3.78-10.12-1.04-3.6-1.27-7.56-2.6-11.02-2.46-6.42-1.34-13.28-3.28-19.77-1.1-3.65.35-7.8-.77-11.7-1.58-5.54-.4-10.72 2.25-15.74.75-1.44 1.3-3.05 1.64-4.73.6-3.05 2.02-5.81 3.6-8.52 2.14-3.68 3.1-7.97 5.6-11.49 5.55-7.79 10.35-16.08 15.83-23.93 2.98-4.26 6-8.55 9.44-13.71-4.25 1.8-7.62 3.49-11.16 4.67-4.94 1.66-5.27 1.2-6.56-3.4-.08-.28-.26-.7-.14-.85 2.77-3.37-.56-5.28-1.9-7.54-4.55-7.74-10.02-14.97-13.13-23.52-2-5.5-3.02-11.19-3.72-16.98-.86-7.05 1.6-13.4 4.25-19.58 1.78-4.16 5.57-6.98 9.07-9.74 11.29-8.95 22.48-18.03 34.71-25.66 3.14-1.96 6.16-4.14 9.43-5.87 1.48-.78 1.85-1.89 1.51-3.4-.48-2.1-.82-4.28-1.48-6.34-2.62-8.15-.45-9.05 4.52-13.18 3.13-2.6 4.85-4.97 4-9.23-.46-2.32 1.23-4.35 3.66-5.15 2.15-.71 2.29-1.52.91-3.37-3.9-5.26-7.44-10.78-8.83-17.31-.9-4.27-1.48-8.61 2.77-11.69 1.3-.94 1-2.27 1.2-3.5 1.02-6.72 5.33-11.64 9.37-16.6 4.11-5.06 9.61-8.67 14.5-12.91 5.56-4.83 10.86-10.01 17.4-13.46 5.76-3.03 11.19-6.74 17.38-8.91a14 14 0 0 1 9.06-.26c4.61 1.4 9.52 1.48 14.17 3.01 9.86 3.25 20.01 6.62 28 12.9 8.2 6.42 17.03 6.65 26.23 7.81 4.63.59 9.14 2.29 13.62 3.77 11.35 3.75 22.32 8.48 33.37 13.04 10.37 4.28 20.36 9.28 29.52 15.65 5.02 3.5 10.02 7.16 14.53 11.38 1.36 1.26 3.2 2 4.58 3.24.71.64 1.93 1.62 1.32 2.75-.6 1.14-2.02.25-3.05.52-.25.06-.56-.14-.85-.2-1.17-.26-1.84-2.11-3.04-1.5-1.83.92-3.73 2.08-5 3.62-1.28 1.54-2.8 2.85-3.97 4.44-1.23 1.68-3.32 3.21-.77 5.66 1.11 1.06-.03 2.93.34 4.52.7 3.05 1.92 5.88 2.88 8.81 1.35 4.1.57 5.12-2.66 7.79-2.9 2.39-6.54 3.12-9.42 5.35-2.37 1.83-4.26 3.75-4.32 7.08-.05 2.68-2.9 3.33-4.5 4.8a18 18 0 0 1-5.89 3.83c-2.73.98-4.09 3.53-5.4 6.53 2.37-.95 4.51-1.5 5.98-3.06a3.4 3.4 0 0 1 3.5-1.07c1.17.32.94 1.8 1.01 2.89l.1 1.73c1.2.2 2-.47 2.69-1.16 2.88-2.85 6.7-1.28 10.03-2.07 1.52-.36 2.63 2.84 1.68 4.82a46 46 0 0 1-5.85 8.85c-.8 1-1.58 2.03-2.47 3.2 1.63.88 3.5-.06 5.01 1.38 2.23 2.11 3 4.23 1.2 6.63-4.27 5.65-8.74 11.15-13.04 16.77-2.3 3.03-4.35 6.23-4.17 10.31.02.37-.27 1.1-.32 1.08-3.61-.62-3.9 4.47-7.3 4.27-.28-.01-.63 1.07-1.03 1.77 3.4-.27 6.64-2.07 9.78.3 1.32 1 2.07 1.69-.14 2.49-1.95.7-.06 2.37-.7 3.45 1.26.68 1.04 2.02.93 2.96-.77 6.31 5.03 6.35 8.29 8.39a476 476 0 0 0 23.5 13.78c10.04 5.5 19.12 12.3 28.4 18.87 2.07 1.47 3.73 3.46 6.32 4.24 1.68.5 2.27 1.58.75 3.2-1.65 1.75-1.1 4.22-1.36 6.33-.72 5.86-3.14 11.36-3.5 17.28-.12 2.1-.34 4.2-.5 6.31-.06.8-.2 1.86.74 2.08 2.83.67 2.2 2.79 2.19 4.72-.02 3 .8 5.74 1.89 8.57 1.53 3.97 2.3 8.23 3.6 12.3 1.63 5.01 3.14 10.03 3.7 15.3.11 1.11.61 1.94 2.18 2.28 12.85 2.82 25.25 7.16 37.8 11.05 5.82 1.82 11.81 3.12 17.66 4.9 2.8.86 4.82-1.45 7.39-1.75 5.1-.59 10.15-1.55 15.22-2.32 5.64-.87 11.2-2.3 16.91-2.7 2.38-.18 4.74-.54 7.1-.9 2.84-.44 4.85.5 5.67 3.35 1.6 5.57 5.48 10.15 6.75 15.87.37 1.69.92 2.87-.86 4.34-1.86 1.53-1.44 4.41-2.49 6.54-1.32 2.67-1.19 4.77.6 7.7 2.4 3.97 3.88 8.64 5.59 13.06 1.39 3.59 4.14 6.15 5.82 9.46.32.64.9 1.14 1.7.48.8-.69 1.77-1.3 2.6-.34.77.9-.14 1.88-.42 2.8-.13.45-.38.87-.65 1.5 12.21 2.12 24.24 4.2 36.08 7.16.5.13 1.17.42 1.4.06 1.64-2.65 3.65-.9 5.44-.4a57 57 0 0 1 12.63 5.1c1.9 1.07 3.78-.32 5.66-.48 5.1-.41 10.27-2.4 15.2-1.85 4.23.46 8.17-.17 12.22-.38 10.97-.6 21.92-1.6 32.93-1.2 1.63.07 3.22-.5 4.92-.04 1.2.33 2.01.86 2.36 1.96.57 1.77.61 3.6 3.23 4.07 1.33.24.81 1.91-.29 2.83-3 2.5-6.68 3.57-10.26 4.8-5.9 2.04-11.33 5.25-17.61 6.48-5.74 1.12-11.52 1.78-17.27 2.73-4.5.76-9.03 1.5-13.63 1.27-.58-.03-1.08 0-1.3.84-2.05 7.44-5.86 14.18-10.02 20.44-3.83 5.77-8.23 11.56-14.64 15.11-.59.33-1.2.68-1.72 1.13-4.27 3.73-9.5 4.52-14.45 1.86-1.4-.76-2.8-1.41-4.3-1.93-2.68-.92-4.7-2.63-5.32-5.45-.4-1.85-1.24-3.1-3.01-3.63-2.1-.62-3.42-2.1-4.62-4.06-.85 2.17-1.38 4.85-2.41 6.02-2.84 3.22-3.5 7.65-6.94 10.53-2.44 2.05-4.48 4.73-7.02 6.8-2.22 1.8-4.06 5.18-7.6 1.97-3.1.97-5.68-.72-8.5-1.47-3.38-.91-3.43-3.4-2.79-5.61 1.95-6.69 4.11-13.33 7.43-19.51.51-.95.95-1.95 1.41-2.93.27-.58.46-1.22-.32-1.48-4.97-1.7-5.1-6.23-5.94-10.26-.32-1.51.02-2.64-2.2-3.34-2.14-.68-2.35 1.17-3.48 1.5-1.02-.94.59-1.4.28-2.04-6.23-1.32-12.5-.47-18.7-.89-1.09-.07-2.3.2-3.2-.52-2.39-1.92-3.56-.18-5.25 1.26-3.08 2.62-5.06 6.02-7.2 9.3-1.34 2.03-2.76 2.58-5.28 2.78-6.48.53-12.98 0-19.44.85-2.47.32-5 .2-7.5.15-1.9-.04-1.66.72-.99 1.95 3.33 6.04 6.42 12.22 10 18.1 2.04 3.32 3.77 6.76 5.48 10.22 3.72 7.5 7.78 14.9 10.77 22.7 2.48 6.48 5.31 12.95 6.58 19.83 1.88 10.16 3.16 20.43 5.31 30.53.6 2.82.02 5.55.74 8.32.33 1.29.26 2.05 1.8 2.13 1.36.07 1.54.78.9 2.03-2.1 4.19-2.5 4.34-7.07 3.12-5.78-1.55-11.59-2.95-17.58-4.46-.1 5 .1 9.57 1.78 14 .86 2.25-.82 3.8-3.15 4.12-6.14.85-11.48-2.45-17.35-2.9-3.64-.28-7.31-.5-10.88-1.47-.93-.25-1.44.08-1.8 1.3-1.08 3.53-1.48 7.28-2.77 10.67-1.3 3.4-2.7 6.79-3.87 10.25-2.57 7.54-4.67 15.27-7.85 22.55-2.14 4.9-3.19 10.09-5.25 14.96-.67 1.59-1.04 3.28-2.46 4.62-.63.6-2.42 2.2-.36 3.65.85.6-.06 1.32-.28 1.84-4.02 9.5-9.22 18.44-14.3 27.36-2.94 5.13-5.6 10.55-9.27 15.23-4.09 5.24-5.92 11.51-8.85 17.28-3.3 6.47-6.57 13.14-11.44 18.47-4.61 5.05-7.59 11.16-12.08 16.16-2.69 3-4.75 6.37-7.06 9.61-1.75 2.47-2.02 5.2-2.23 8.09 6.87-11.4 16.01-21.05 24.04-32.14-.53 5.19-.36 10.07-1.65 14.52-1.65 5.65-1.73 11.56-3.5 17.07-1.64 5.05-1.51 10.27-2.48 15.36-1.23 6.45-1.77 13.02-3.07 19.4-1.05 5.17-1.26 10.43-2.4 15.48-1.7 7.4-1.43 14.98-3.03 22.35-.9 4.12.06 8.41-.91 12.54-1.2 5.08-.42 10.3-1.07 15.43-.24 1.87-.5 3.7-.98 5.51-.97 3.7.5 7.43-.3 11.19-.48 2.24-1.27 2.2-3.2 1.4 1.81 2.74-.11 3.16-2.03 4-5.35 2.3-11.18 1.9-16.69 3.26a266 266 0 0 1-13.56 2.98c-1.34.25-1.7.78-1.98 2.07-1.68 7.73-3.52 15.42-5.07 23.2-.77 3.86-1.51 7.82-2.6 11.66-.62 2.16.16 2.93 2.52 2.9 4.5-.06 9.06-.74 13.53.53.28.08.65-.01.87.14.86.58 2.53.57 2.45 1.76-.1 1.47-1.64 1.06-2.68 1.1-3.9.17-4.1.4-2.95 3.98 1.2 3.7 2.95 7.31 3.52 11.1 1.08 7.3 4.38 13.8 6.69 20.62 2.8 8.26 7.25 15.9 11.82 23.37 2.29 3.74 4.6 7.45 6.55 11.39.63 1.28 1.45 1.53 3.06 1.47 4.48-.16 9 .15 13.48.47 10.05.72 20.08 1.7 29.91 4.05a31 31 0 0 1 7 2.58c3.53 1.81 5.85 4.49 6.4 8.67.54 3.99 2.33 7.93 2.2 11.86-.2 6.18-.43 12.52-2.41 18.45-1.01 3.03-4.11 4.62-7.3 4.66-2.37.02-4.15.82-6.06 1.97-8.76 5.31-18.43 8.12-28.4 10.18-7.6 1.57-15.27 1.37-22.92 1.04-2.53-.11-4.88-.65-7.06.98 2.73-4.76 5.12-9.51 1.72-15.02a4.7 4.7 0 0 1-.47-2.83c.3-2.92-.96-5.38-3.11-7.41 1.7 8.92.34 17.68-.72 26.45 1.28.07 1.34-1.79 2.64-1.23zm-101.1-134.1a17.4 17.4 0 0 1 7.5-2.64c2.04-.16 2.73-1.25 3.05-2.96.72-3.77 1.18-7.6 2.26-11.26 1.4-4.75 2.55-9.65 5.62-14.13-1.54 0-2.72.28-3.7-.06-2.2-.77-2.87.16-3.65 2.09-1.95 4.82-10.63 9.72-15.42 8.68-1.83-.4-2.78-.68-3.53 1.49-.83 2.43.96 2.33 2.17 2.85 4.63 2 8.27 6.16 7.95 10.75-.16 2.2-2.09 3.26-2.24 5.21-1.01-.48-1.18-1.46-1.57-2.4-2.5-6.1-7.22-9.46-13.63-10.5-1.6-.26-2.86-.6-2.13 2.34 1.29 5.15 5.48 6.64 9.24 8.67 2.42 1.3 4.82 3.7 8.06 1.86zm90.97-428.57a571 571 0 0 1 112.63-4.88c-.7-1.6-1.78-2.35-2.51-3.4-4.21-6.08-7.58-12.7-11.2-19.1-4.57-8.05-9.37-16.1-12.24-25.06-1.93-6.08-5.2-11.63-6.86-17.89-1.13-4.27-3.17-8.5-4.06-12.68-1.28-6.03-2.7-12.13-4.04-18.12-1.59-7.13-2.65-14.33-4.1-21.46-.34-1.7.63-3.13 1.29-4.55.38-.82 1.5-.93 1.62.21.27 2.7 2.2 4.88 2.37 7.47.5 7.65 3.44 14.73 5.24 22.03 2.9 11.8 6.46 23.5 11.42 34.64 2.9 6.51 4.88 13.4 8.66 19.57 3.78 6.2 6.33 13.1 10.67 19.06 4.44 6.1 7.25 13.24 12.17 19.12 3.12 3.73 4.7 8.53 7.4 12.63 1.97 3 4.52 5.74 5.55 9.32 1.48 5.18 3.7 10.05 6.04 14.9 1 2.06 1.24 4.45-.47 7.29-1.56-4.54-3.84-8.02-5.81-11.66-2.31-4.23-4.36-8.64-7.09-12.58-3.65-5.3-8.3-9.9-11.01-15.88-.66-1.45-2.08-1.78-3.76-1.85-16.62-.64-33.2.36-49.8.85-13.56.4-27.03 1.6-40.52 2.98a468 468 0 0 0-25.66 3.24c-16 2.53-31.84 5.86-47.5 10.1-18.12 4.9-36.21 9.78-52.68 19.23-2.2 1.27-4.72 1.97-7 3.11-1.65.83-2.74 1.9-1.53 4.13 1.72 3.16 2.94 6.76 5 9.54 2.32 3.15 1.43 5.85.87 8.82-.38 2.02-.79 4.09-1.82 5.93-.63 1.1-.16 1.57.72 2.38 2.2 2.04 4.17 2.4 6.43.24.72-.68 1.58-1.22 2.4-1.78 3.93-2.75 6.99-6.65 12.15-7.75 9.79-2.09 19.21-5.47 29.26-6.86 9.73-1.35 19.38-3.64 29.13-5.25 16.09-2.65 32.27-4.2 48.52-5.2 14.32-.9 28.65-.58 42.96.02 7.58.3 15.15 1.02 22.7 1.87 9.15 1.04 18.3 2.28 27.35 4.06 11.24 2.21 22.5 4.3 33.73 6.56 4.47.9 8.88 2.13 13.78 3.32-2.33-3.04-1.92-6.32-3.09-9.17-2.88-7.13-2.6-15.14-6.02-22.19-1.53-3.14-1.97-6.67-2.68-10.1-1.2-5.7-4.61-10.5-6.4-16.03-1.94-6.01-5.17-11.62-7.95-17.34-2.43-5-5.05-9.88-7.78-14.73-7.44-13.22-14.56-26.62-22.57-39.51-3.55-5.7-5.84-12.08-9.82-17.55-3.97-5.45-5.49-12.13-8.95-17.88-3.67-6.1-4.36-13.4-7.22-19.87-.58-1.33-.62-1.9-2.06-.9-1.22.84-2.36-.07-3.13-.97-.9-1.06.05-1.84.8-2.5 1.12-.96 2.23-1.98 3.3-2.97 3.22-2.94 5.56-6.67 5.15-11.16-.23-2.51-1.16-4.98-1.52-7.6-.85-6.3-2.42-12.48-2.96-18.86a121 121 0 0 0-2.79-17.19c-1.35-5.84-3.22-11.6-4.2-17.5-.52-3.12-2.68-5.62-2.36-9.01.44-4.7 1.3-9.35.75-14.16-.6-5.25 1.83-10.37 1.2-15.71a25 25 0 0 1 .01-6.3c.22-1.52-.22-2.4-1.34-3.25-3.97-2.96-7.82-6.03-12.12-8.6-7.01-4.17-13.51-9.16-20.54-13.4a245 245 0 0 1-22.9-15.4c1 2.9-.85 4.89-.88 7.23-.01.72 1.05 1.55.18 2.14-1.04.7-1.73-.56-2.6-.87-1.8-.65-1.79-2.58-1.6-3.52.83-3.91-1.08-7.39-1.24-11.06-.1-2.54-2.53-4.28-1.74-7.31-13.33 4.5-26.22 9.3-38.75 15.63 2.62 1.98 3.2 4.97 4.24 7.74.5 1.33.91 2.63 2.74 1.46a1.35 1.35 0 0 1 1.69.18c.6.61-.16 1-.4 1.48-1.97 4.04-5.78 6.3-8.93 9.16-2.15 1.96-5.18 4.6-5.03 6.63.33 4.3 2.2 8.63 4.2 12.56.63 1.25 1.24 2.32 1.48 3.75.58 3.4.7 7.03 4.11 9.24 1.15.75 2.3 1.82 1.36 3.49-1.24 2.2.55 2.67 1.87 2.8 2.9.29 4.93 1.26 6.24 4.14.57 1.26.77 2.37.83 3.63.08 1.42.13 2.92 1.62 3.61 2.1.97 3.62 2.65 5.17 4.21 9.21 9.28 19.79 16.93 29.89 25.14 3.6 2.92 7.14 5.89 10.4 9.18.46.46 1.27.97.73 1.74-.4.58-1.18.67-1.9.31-.6-.3-1.32-.5-1.83-.93-4.93-4.15-10.4-7.57-15.53-11.42-6.28-4.7-13.2-8.55-18.91-14-2.74-2.6-5.25-5.43-7.9-8.2-1.03 1.28-.35 2.44-.85 3.33-.97-.03-.62-1.15-1.4-1.46-.5 4.88-2.35 9.36-3.25 14.05-.7 3.7-1.08 7.47-2.18 11.13-.3 1.05-.45 2.05-1.77 1.89-1.34-.17-1.16-1.4-1.3-2.35-.42-2.94.88-5.8.14-8.84-.4-1.7.14-3.81.8-5.53 1.46-3.83 1.09-7.82 1.21-11.71.06-1.8-.46-3.61.11-5.5.42-1.38.75-3-.53-4.2-3.15-2.99-4.5-2.98-7.72-.07q-.56.5-1.15.96a229 229 0 0 0-16.6 14.79c-2.87 2.76-5.43 6.32-9.84 7.4-.17-1.34-.42-2.52.29-3.6a73 73 0 0 1 11.15-13.54c5.16-4.81 9.23-10.58 14.23-15.5.34-.35.82-.68.43-1.27-1.69-2.55-2.48-5.54-6.2-6.67a269 269 0 0 0-24.64-6.34c-6.16-1.25-12.2-3.08-18.3-4.61-3.69-.92-7.4-1.75-11.7-2.76 1.17-.5 1.72-.98 2.24-.94 18.15 1.36 35.44 6.85 53.22 11.2-2-2.95-3.34-6.11-6.26-8.26-4.73-3.48-9.67-6.65-14.52-9.95a1124 1124 0 0 1-31.02-22.08c-2.53-1.84-4.6-4.32-6.85-6.56-1.55-1.55-.49-3.05.49-4.21 1.03-1.25 2.17-.21 3.15.44 3.09 2.1 6.2 4.15 9.22 6.34 9.3 6.74 19.42 12.27 28.23 19.72q.96.8 2.24.68a18 18 0 0 1 9 1.52c1.1.46 1.84.27 2.63-.6 3.14-3.48 6.87-6.26 10.74-8.85 1.15-.78 1.63-1.5.7-2.8-1.78-2.52-2.91-5.42-4.67-7.98-.69-1-2.4-2.59-.66-4.33.5-.5 0-.78-.5-1.05-5.39-2.98-10.24-6.87-16.17-9.77v4.8c0 .97.21 2.18-1.07 2.47-1.26.28-2.04-.56-2.5-1.68q-.31-.67-.54-1.39a162 162 0 0 1-5.94-27.75c-.34-2.71-2.04-5.75.25-8.64-4.84-1.1-8.54-4.46-13.54-5.46-5.7-1.15-11.13-3.78-16.58-6-6.94-2.82-13.45-6.53-20.08-10-8.58-4.48-16.82-9.52-25.1-14.47-9.12-5.46-18.23-11.13-26.05-18.47-3.14-2.94-6.22-5.92-9.82-8.93.23 4.84.46 9.24.61 13.63.02.76.5 1.94-1.07 1.93-1.25 0-.98-.99-1.19-1.7-1.1-3.68-.14-7.8-2.4-11.25-3.6 2.75-3.52 2.74-2.8 6.97.88 5.17 1.9 10.33 2.3 15.54.35 4.5-.27 9.09-.12 13.62a9.5 9.5 0 0 1-1.42 5.16c-.25.46-.9.7-1.36 1.03-.39-.56-1.05-1.1-.7-1.83.5-1.07.38-2.09.19-3.18-.9-4.86-1.74-9.72-2.61-14.61-1.99.33-3.79 1.42-5.46 2.85-7.97 6.85-16.82 12.56-24.86 19.36a212 212 0 0 1-17.04 13.08 5 5 0 0 0-1.85 2.3c-2.64 7.15-3.8 14.44-2.06 22.06 2.75 12.03 8.2 23.06 12.5 34.52.33.9.56 1.76 1.85 1.04 5.12-2.84 10.92-4.06 16.08-6.78 3.79-1.99 7.77-3.67 10.45-7.42 2.9-4.05 4.54-8.83 7.79-12.67-3.06-1.39-3.7-3.39-1.58-5.07a166 166 0 0 1 9.92-7.32c3.52-2.4 7.51-3.92 11.32-5.78 12.4-6.07 25.4-10.52 38.56-14.54 5.75-1.76 11.48-1.3 15.57 4.2 4.05 5.45 9.4 9.64 14.22 14.34 3.56 3.49 6.97 7.16 10.95 10.26-2-.29-3.54-1.4-4.95-2.63-4.45-3.93-9.15-7.58-13.65-11.44-3.73-3.2-7.78-6.14-11.5-9.43a3.5 3.5 0 0 0-3.22-.9c-3.4.64-6.55 2.01-9.8 3.1-15.55 5.2-30.78 11.1-45.12 19.15-1.9 1.08-1.8 2.37-.9 3.92.44.76 1.37 1.48.85 2.4-3.05 5.41-5.5 11.13-9.14 16.25a464 464 0 0 0-21.8 33.58c-4.64 7.93-8.92 16.1-14.42 23.48-1.67 2.25-.78 2.75 1.15 3.02 8.34 1.16 16.42 3.47 24.53 5.6 6.41 1.68 13.07 3.3 17.56 8.8 4.1 5.02 6.25 11 7.66 17.25 2.49 11 4.31 22.14 7.22 33.05 1.86 6.99 3.98 13.9 3.74 21.3-.18 5.4.05 10.8.36 16.2.4 7.12-2.31 13.53-7.28 18.58-9.61 9.78-21.94 15.4-33.98 21.38-1.97.98-5.25-.9-6.34-3.45-.98-2.27.16-3.64 2.05-4.86 9.6-6.17 19.33-12.1 29.12-17.94 4.82-2.89 8.76-6.62 9.7-12.44.45-2.94.31-6 .2-8.99-.2-6.55.89-13.18-1.12-19.63-4.17-13.36-6.4-27.18-10.03-40.67-.68-2.54-.17-5.4-1.88-7.65a25 25 0 0 1-4.71-10.84c-1.24.66-2.5.68-3.76.23-1.57-.56-2.3.11-2.9 1.58-2.32 5.56-5.36 10.81-6.38 16.89-.35 2.14-1.97 3.39-4.25 3.57-1.09.1-2.17.38-3.26.39-10.04.12-15.69-4.6-14.81-15.53.4-5.14 3.08-9.57 5.55-14.06-3.82-1.08-7.5-2.13-11.19-3.16-1.6-.44-2.83-.34-3.88 1.4-2.79 4.57-5.77 9.04-8 13.9-1.61 3.52-4.12 6.76-4 10.99.06 2.09.74 4.05.73 6.18 0 8.81 1.82 17.43 3.47 26.03 1.32 6.86 2.74 13.71 5.38 20.25 1.57 3.9 2.36 8.2 3.97 11.96 1.86 4.36 3.45 8.87 5.54 13.15.55 1.15.42 2.77 1.21 3.62 1.45 1.56 1.64-1.1 3.04-1.34 9.4-1.65 15.44-8.1 20.46-15.67.93-1.4 1.25-3-.97-3.9-2.11-.87-2.6-3.15-3.85-4.79-.61-.8-.65-1.69-.04-2.47.68-.86 1.63-.15 2.15.09q5.26 2.43 9.9 5.94c1.66 1.25 3.59 2.15 4.78 3.98.67 1.04 1.37 2.08.45 3.24-1.05 1.3-2.44.73-3.54.18-1.67-.83-3.2-1.95-4.89-3.01-.32 6.94-5.3 10.76-9.37 14.91-4.15 4.23-9.06 7.63-15.53 7.93 1.7 4.24 3.1 8.36 4.94 12.27 2.37 5.01 5.2 9.81 7.6 14.81 1.41 2.9 2.63 5.25 6.25 6.46a362 362 0 0 1 28.73 11.06c5.46 2.36 10.6 3.82 16.3 1.27a11 11 0 0 1 3.41-.88c.96-.08 2.33-1.57 2.8 0 .28.9-.56 2.43-1.88 3.05l-4.72 2.28c3.46 1.53 6.44 2.8 9.69 3.23 2.3.3 3.44 1.62 3.87 4.02-4.12.06-8.04-.47-11.95-1.07-1.4-.22-2.17-.14-1.83 1.5.43 2.12-.61 3.05-2.53 3.61a31 31 0 0 0-5.2 2.08c-11 5.51-23.56 7.52-33.54 15.4-1.67 1.3-4.04 1.68-5.04 4-1.94 4.47-4.07 8.87-5.97 13.36-1.08 2.56-.4 4.88 1.16 7.2 2.2 3.28 4.8 6.21 7.16 9.35 8.02 10.7 16.49 21.06 24.74 31.58 1.69 2.15 3.08 4.13 5.7.86.81-1.02 2.6-1.38 4.01-1.77 2.39-.66 4.84-1.1 7.25-1.66 13.28-3.08 26.64-5.69 40.25-6.91 1.76-.16 3.7-.24 5.2-1.81 3.76-3.96 7.68-7.79 11.57-11.63 1.26-1.25 2.09-2.8 3.55-3.96 3.23-2.59 6.72-4.8 10.05-7.26 7.4-5.43 14.09-11.8 22-16.6a135 135 0 0 0 15.5-11.28c3-2.45 6.58-3.96 9.7-6.15 5.32-3.73 10.68-7.46 15.65-12.57-.08 2.73-1.85 3.55-3.08 4.7a103 103 0 0 1-15.75 12.11c-2.32 1.44-4.2 3.6-6.26 5.48-7.34 6.69-16.04 11.72-23.05 18.85-3.03 3.08-6.58 5.63-10.13 8.17-4.18 3-7.44 7.1-10.96 10.85-.52.55-1.6 1.02-1.09 1.87a2.2 2.2 0 0 0 2.08.92c.79-.1 1.6-.13 2.38-.24 3.74-.52 7.48-1.09 11.22-1.6 6.72-.9 13.6-1.14 20.14-2.77 16.53-4.1 33.05-8.16 49.92-10.63.83-.12 2.01 0 2.6-1.08 2.67-4.92 7.42-7.75 11.75-10.75 9.16-6.34 18.74-12.1 28.1-18.14 3.06-1.97 6.6-3.13 9.55-4.98 2.88-1.8 4.48-5.66 6.6-8.65 1.04-1.44 1.97-2.96 3.02-4.4.5-.68.69-2.05 2.11-1.28 1.45.79.18 1.61-.1 2.22-1.38 3.21-3.35 6.23-4.25 9.56-.74 2.76-2.5 4.37-4.36 5.94-9.61 8.09-20.6 14.24-30.84 21.44-4.25 3-8.87 5.48-13.98 8.6zm122.97-113.58c16.76 4.35 33.38 7.05 47.3 17.46 1.16-2 2.47-4.11 3.47-6.2 4.32-9.02 10.8-16.44 16.92-24.14.51-.66.64-1.28.83-2.07.51-2.16-.02-4.66 1.32-6.49 2.22-3.04 2.15-6.72 3.3-10.05 1.42-4.05-1.88-6.44-3.4-9.46-1.67-3.32-4.07-6.36-4.16-10.3-.04-1.6-.73-1.4-1.93-1.05-4.19 1.24-8.53 1.8-12.73 3.21-7.84 2.65-16.33 2.6-24.16 5.44-.52.19-1.21.07-1.77-.08-10.15-2.76-20.34-5.33-30.4-8.39-10.02-3.04-19.66-7.24-30.2-10.1a85 85 0 0 1 1.95 11.5c.41 4.29.6 8.64 1.24 12.85.96 6.3-.98 12.4-6.15 16-2.1 1.45-3.53 3.17-2.1 6.16.65 1.38 1.78 2.3 2.37 3.66 2.78 6.43 4.86 13.17 8.85 19.05 3 4.41 4.52 9.6 7.44 14.11 2.3 3.55 4.35 6.62 9.17 6.94 4.32.29 8.41 2.17 12.84 2.27 12.8.3 25.68-.07 38.18 3.55.92.27 2.19.74 2.86-.67 1.82-3.8 4.42-7.2 5.36-11.44.35-1.54.1-1.84-1.47-2.27-3.65-.99-7.29-1.86-11.1-1.61.06-1.16 1.09-1.06 1.39-1.68a144 144 0 0 0-28.15-10.39c-3.17-.8-5.04-2.66-7.06-5.82zM391.03 138c3.68-2.26 2.47-4.91 1.58-7.51-.03-.1-.11-.19-.11-.28-.11-8.33-7.4-13.18-9.9-20.33-6.23-4.42-12.5-8.85-20.35-9.68-1.34-.14-3.54-.42-4.43 1.63a25.5 25.5 0 0 0-1.93 12.3c.24 3.04 2.11 5.59 2.76 8.54.33 1.47.81 2.84-.3 4.17-1.33 1.57-.4 2.46 1.01 3.17 2.1 1.06 4.24 2.03 6.28 3.2 7.1 4.08 14.21 8.13 21.48 11.93a249 249 0 0 0 20.35 9.69c3.8 1.57 7.46 3.46 11.25 5.06 2.9 1.21 5.88 2.22 8.63 3.8 3.48 2.02 6.11 4.43 6.43 8.84.11 1.55.5 3.13.46 4.72s.77 2.43 2.22 2.7c4.92.95 9.73 2.35 14.5 3.88.7.23 1.54 1 1.9-.24.7-2.42 2.1-4.48 2.56-7.12.84-4.8 3-9.34 5.95-13.3 2.07-2.78 3.66-5.9 5.33-8.82 1.67-2.9 3.2-5.97 5.24-8.65.82-1.07.7-1.77.12-2.57-1.47-2.02-2.02-4.63-3.56-6.47-2.36-2.83-.83-5.22.38-7.48.52-.99 1.17-1.98 1.43-3.04 1.13-4.63 1.67-9.32 2.15-14.09.45-4.52 1.42-9.14 1.72-13.72.23-3.37 2-4.8 4.5-6.22 3.1-1.78 6.05-3.85 9.15-5.65 1.15-.67.78-1.4.39-2.06-.78-1.33-.87.16-1.3.38-8.3 4.27-15.87 9.98-24.92 12.84a66 66 0 0 0-16.79 8.27 56 56 0 0 1-5.6 3.39c-1.38.7-3.05.77-4.28-.17-1.17-.9-.16-2.14.07-3.26.51-2.57 1.83-4.8 2.8-7.17 1.4-3.39 4.18-6.13 4.67-10.37-5.24 1.05-10.17 2.35-15.25 2.98-6.59.8-13.13 2-19.8 1.5-4.04-.3-4.93.37-6.08 4.36-1.05 3.67-1.4 7.44-2.02 11.24.84-.09 1.53-1.12 2.25-.18.9 1.16.41 2.63-.34 3.3-3.7 3.3-.94 7-.45 10.27.38 2.59.11 5.93 3.53 7.73 1.2.63 1.59 3.23 3.05 4.5.48.4.93 1.07.17 1.45-1.68.82-3.16 2.6-5.04 2.33-3.85-.55-7.61-2.52-11.87.22zm387.46 287.4c5.35.37 9.76-.98 14.23-1.88 10.16-2.04 19.65-6.29 29.62-8.95 1.55-.42 6.78.18 1.93-3.81.53-3.26-1.87-2.16-3.25-1.98-7.8.99-15.62 1.83-23.48 2.29-8.94.52-17.88 1.12-26.8 2.1-3.06.34-6.09 2.07-9.33.82a81 81 0 0 0-13.63-3.87c-1.59-.32-2.17-.06-2.49 1.45-.54 2.54-1.96 4.73-3.18 6.97-.87 1.6-2.12 2.54-4.44 1.8-2.8-.9-5.84-1.02-8.77-1.47-10.14-1.57-20.31-3-29.83-7.08-1.29-.55-1.53-.51-1.97.9-.63 1.99.01 4.3-1.3 6.03-2.93 3.83-4.2 8.5-6.62 12.57-.3.5-.8 1 .04 1.46 4.55 2.46 4.95 7.54 7.03 11.52.6 1.14 1.73 1.95 2.2 1.88 4.37-.58 3.28 2.7 2.62 4.31-2.75 6.82-2.51 14.48-6.18 21a3.2 3.2 0 0 0-.42 2c.18.83.55 1.81 1.18 2.3.9.7 1.33-.5 1.84-.98 1.5-1.45 2.8-3.18 4.43-4.48 3.88-3.1 7.97-5.98 6.3-11.99-.11-.37.22-.95.5-1.32 4.61-6.28 6.84-14.1 13.01-19.4 4.8-4.13 8.63-9.64 16.1-9.07 5.9.45 11.65-1.29 17.58-1.36 7.93-.09 15.86-1.15 23.08-1.74zM506.84 144.56c-4.17.58-6.5 3.43-8.32 6.91-.23.44-.65.77-.9 1.2-2.88 5.08-7.03 9.23-10.19 14.12-1.35 2.09-2.08 4.73-4.76 5.86 2.18-3.91 3-8.34 5.62-12.14 3.46-5.03 5.3-11.04 9.1-15.96 1.62-2.11 3.2-4.54 2.73-7.74a221 221 0 0 0-20.65 16.24c-3.17 2.79-5.38 6.46-8.58 9.1-2.73 2.26-4.68 5.07-6.96 7.65-3.66 4.14-5.42 9.5-8.94 13.72-.47.57-1.3 1.37-.4 2.37 2.35 2.63.3 2.57-1.6 2.54-1.28-.01-2.56-.23-3.83-.38-4.07-.46-8.18-.57-12.27-.8-.47-.02-.99-.1-1.33.42-.7 1.06.1 6.15 1.16 6.94 5 3.74 10.2 7.23 14.94 11.29 2.61 2.24 4.79 2.3 6.5-.17 1.67-2.38 6.58-1.76 5.62-6.56-.62-3.13 2.67-4.96 3.55-7.78a43 43 0 0 1 6.43-12.7c1.27-1.73 2.7-5.05 5.44-1.2.08.12.37.08.57.11 5.05.74 9.69 2.74 14.27 4.81 2.5 1.14 3.62.28 4.37-1.92 1.64-4.79 4.36-9.04 6.61-13.52 1.71-3.42 4.55-5.94 6.5-9.15 1.13-1.88.38-2.66-1.3-3.2-1.95-.63-.94 1.36-1.55 2-3.45 3.64-6.63 7.55-9.8 11.44-1.95 2.38-3.64 4.98-5.92 7.08-.46.43-.97.86-1.58.51-.64-.36-.32-1-.21-1.59a15 15 0 0 1 1.66-4.73c1.5-2.75 3.34-5.36 4.54-8.24a75 75 0 0 1 9.49-16.53zm-43.92 782.62c.96-4.35.97-9 2.24-13.24 2.35-7.83 2.96-15.96 5.12-23.8 1.62-5.86 1.17-6.03-4.73-6.73-1.79-.2-2.85-.4-2.06-2.7 1.94-5.57 2.47-11.46 3.76-17.17.07-.33.42-1.04-.38-1.22.45 1.33-1.46-.18-1.37 1.22.1 1.3-.6 2.66-.92 4-1.8 7.72-5.38 15.02-5.84 23.07-.19 3.4-1.61 5.12-5.18 5.7-.92.14-3.04.16-3.8 1.8-1.47 3.1-4.31 3.17-7.21 3.35-4.92.3-9.75-.92-14.65-.67-1.35.08-2.27.1-2.13 1.9.17 2.4-.85 4.64-1.52 6.9-.89 2.97-1.87 5.9-2.86 8.98 4.4-.74 8.36.17 12.34.74 2.99.44 5.46 2.54 8.3 3.04 7 1.21 13.65 3.9 20.88 4.81zm224.36-548.3c-1.69 5.9-6.4 9.75-9.23 14.81-2.2 3.93-6 6.98-7.94 10.85-2.27 4.48-4.8 8.82-7.16 13.23-1.4 2.63-3.13 5.06-3.52 8.14 8.36.37 16.27 1.95 23.81 5.2a65 65 0 0 1 3.55-8.23c.3-.59 1.07-1.33.57-1.88-1.45-1.61-.17-2.93.32-4.28 2.46-6.85 6.87-12.78 9.23-19.75.83-2.43.22-3.83-1.26-4.9-1.22-.88-1.9-2.02-2.6-3.13-2.02-3.26-3.82-6.65-5.76-10.07zm58.15 56.78c2.12.9 4.67 4.6 5.44 6.65.95 2.51-1.43 2.94-2.09 4.4-2.73 6.04-5.92 11.87-8.33 18.06-.19.49-.84.86-.19 1.54 1.26 1.31 7.63 1.05 8.35-.64 1.05-2.47 3.26-3.93 4.7-6.1 3.81-5.78 8.29-11.16 11.06-17.55 1.68-3.85 4.61-6.98 6.33-11.44-8.76 1.74-17.33 1.86-25.27 5.08m-278.79 593.39c-.13-1.65-1.2-1.91-1.96-2.44l-23.88-16.2c-8.23-5.58-16.12-11.53-21.25-20.36-.34-.58-.98-.97-.98-1.78-.03-5.52-.05-11.04-.16-16.56-.09-4.63 1.48-8.98 2.16-13.48 1.46-9.74 1.92-19.52 2.22-29.34.01-.5.28-1.23-.78-1.53-.4 1.04-.97 1.99-1.02 3.19-.38 8.63-2.19 17.13-2.44 25.78-.07 2.46-.66 4.9-1 7.36-.65 4.86-1.12 9.74-2.04 14.55-.5 2.61-.2 5.07.05 7.61.09.88.26 2.15-.22 2.6-1.49 1.44-.51 2.42.24 3.57a49 49 0 0 0 12.13 13c8.72 6.37 18.05 11.75 27.3 17.27 3.77 2.25 7.58 4.41 11.63 6.76m-191.8-730.28c.44-.3.79-.6 1.19-.8.94-.49 2.25-1.33 2.8-.1.56 1.27-1.24 2.1-1.97 2.08-3.36-.08-1.52 1.7-1.12 2.84a7 7 0 0 0 2.8 3.38c2.75 1.84 5.99 2.7 9.06 1.84 2.06-.58 1.83-3.56 2.78-5.4.3-.6.4-1.31.73-1.9.74-1.33.37-1.74-1.08-2.26-4.62-1.65-9.16-3.56-13.73-5.4-.5-.2-1.22-.92-1.38 0-.32 1.85-1.61 3.76-.07 5.73zm147.27 759.91.1-.77c-.24-.13-.47-.37-.7-.38l-29.3-2.04c-4.6-.32-9.17-.67-13.76-.95q-12.26-.74-24.5-1.43c-1.3-.08-2.54.09-3.38 1.97 23.9 3.69 47.8 1.87 71.53 3.61zm-39.74-144.04a14 14 0 0 1 5.27-.52c1.2.12.85-.87.85-1.45-.01-3.3.76-6.46 1.53-9.6 1.15-4.7 1.21-4.68-3.46-5.19-.8-.08-1.47-.16-1.7 1.04q-1.35 7.22-3.97 14.1c-.42 1.11-.16 1.73 1.48 1.63m-87.14-623.6c.01-.97-.47-1.3-1.06-1.5-4.86-1.58-9.69-3.26-14.6-4.7-2.6-.76-2.2 1.9-2.94 3.15-.83 1.41.34 1.82 1.39 2.06 4.22.98 8.16 2.8 12.23 4.2.96.33 2.05 2.64 3.3.35.67-1.21 1.18-2.5 1.67-3.57zM444.85 65.74c-2.3-.98-4.43.15-6.76.1-16.36-.34-32.72-.4-49.05 1.04-.66.06-1.56-.14-1.62.87-.06 1.23.98 1.08 1.72 1.07 4.3-.06 8.64.19 12.88-.34 8.61-1.07 17.26-1.17 25.9-1.63 5.64-.3 11.28-.74 16.92-1.11zm-50.22 904.47c5.32.02 10.09-1.3 14.89-2.4.75-.18 2.08.07 1.94-1.29-.12-1.28-1.41-1.16-2.22-1.18-5.37-.15-10.74-.49-16.08.45-1.06.18-1.44.67-1.68 1.7-.81 3.45 2.14 2.19 3.15 2.72m339.29-534.99c1 1.3 2.37 2.02 2.31 3.45-.15 4.31 1.66 8.7-.02 12.91-1.08 2.74-1.48 5.63-2.4 8.39-.25.74-.8 1.34.46 1.79 1.38.49 1-.84 1.1-1.13 1.02-3.4 1.04-6.98 3.76-10 1.6-1.78 1.71-4.92 2.43-7.47.24-.84.47-1.7-.74-2.2-1.07-.46-1.45-1.67-1.86-2.62-.91-2.18-2.44-3.14-5.03-3.12zm-251.7-254.9c-.91-.56-1.78-1.02-2.57-1.58-.55-.4-.62-.3-.95.3a112 112 0 0 1-11.32 16.37c-1.17 1.4-.01 2.56.32 3.8.23.83.94.8 1.4.38 1.15-1.03 3.39-.35 3.7-2.8.85-6.68 4.05-12.1 9.42-16.48m4.04 780.75c-1.43-1.71-2.9-1.85-4.4-1.86l-12.03-.02c-1.4 0-3.26.02-3.3 1.61-.03 1.42 1.59 2.47 3.17 2.59 5.49.39 10.75-.85 16.56-2.31zm-92.28-52.78c4.98-.82 8.63-3.7 12.36-6.42.36-.27.88-.58.72-1.17-.18-.66-.8-.47-1.25-.46-2.18.05-4.34-.09-6.48-.6-2.34-.55-3.88.16-4.19 2.87-.21 1.9-.75 3.79-1.16 5.77zm94.77 60.61c-7.25-1.44-13.87-.23-20.49 1.1-.53.1-1.04.24-1 .85.04.74.66.82 1.26 1 4.78 1.5 9.49-.02 14.2-.35 1.93-.13 4.2-.1 6.02-2.6zm-83.23 6q0-.13-.03-.26c-2.81.47-5.65.85-8.43 1.46-.94.22-2.43.47-2.37 1.8.06 1.13 1.3 1.68 2.33 2.03.64.22 1.4.39 2.04.27a165 165 0 0 0 8.66-1.86c.76-.19 1.87-.27 1.85-1.56-.02-1.3-.94-1.68-1.95-1.87-.68-.12-1.4-.02-2.1-.02zm324.26-535.65c-2.32 3.08-5.3 4.71-6.54 7.9-.52 1.32-1.19 2.29.99 2.76 1.4.3 2.65 1.35 3.02 2.94.16.65.49 1.26 1.06 1.29 1.03.04.43-1.11.9-1.57.64-.62.64-1.55.43-2.26-1.02-3.48-.4-6.97.14-11.05zm-3.35-25.99c1.4.48 2.68 1.03 4 1.32.68.15 1.78.53 2.08-.52.58-2 .97-4.05 1.4-6.1.12-.53-.1-.85-.67-1.1-2.68-1.14-3.7-.68-4.85 2.18-.55 1.38-1.24 2.7-1.96 4.23zM485.41 193.77c1.92-.42 3.6-.82 5.3-1.14.8-.15 1.22-.56 1.3-1.36.22-1.9 1.01-3.6 1.85-5.28.36-.7.52-1.53-.4-1.54-1.08-.03-2.65-1.56-3.1-.21-1.13 3.39-3.28 6.2-4.96 9.53zm-8.99 2.73c1.9-.85 5.02-.09 5.2-2.3.32-4.12 2.08-7.36 4.38-10.51.4-.56 1.05-1.28-.16-1.93-1.08-.58-1.27 0-1.7.78q-3.83 7-7.72 13.96M705.8 407.1c.43.91 1.18.81 1.83 1.02 5.49 1.76 5.4 1.76 6.7-3.55.28-1.1 0-1.62-.76-1.77-1.55-.31-3.23-1.53-4.45.98a6.7 6.7 0 0 1-3.32 3.32m19.5-2.1c-1.28.34-2.9-.83-3.41.12-1.2 2.22-3.58 3.4-4.55 5.74l1.39.46q4.32 1.4 5.53-2.78zM366.95 904.17c.15.68.25 2.1.8 3.34.8 1.86 2.97 2.47 4.42 2.13 1.82-.43 0-2.1-.03-3.21-.03-1.23-.7-2.43-1.06-3.65-.57-1.93-1.99-.36-2.98-.69-1.06-.35-1.33.49-1.15 2.08m10.68 18.53c.18-2.47-1.56-3.9-1.91-5.79-.62-3.3-2.54-4.29-5.96-3.08 1.97 3.45 3.65 6.97 7.87 8.86zm356.75-507.78c2.7 1.67 4.29.95 4.98-2.04.15-.65.94-1.23.92-1.82-.03-.81 2-1.75-.18-2.54-1.42-.51-2.36-.74-3.07.92-.81 1.88-1.78 3.7-2.65 5.48M504.3 1048.68c5.42 1.55 10.71.22 16.03-.71-5.39-.98-10.66.69-16.03.71M368.5 900.03c.48-.29 2.24 1 1.83-.85-.36-1.6-.29-3.97-2.77-4.34-1.64-.25-1.58 1.02-1.28 1.94.38 1.19-1.41 3.83 2.21 3.25zm8.52 2.77c.94-2.25 1.53-3.75 2.2-5.22.34-.76-.1-1.34-.6-1.37-1.07-.07-1.98-1.27-3.06-.53-.55.38-.17 1.04.01 1.63.46 1.5.82 3.03 1.45 5.49m326.9-500.72c-1.74.73-2.04 2.15-2.7 3.29-.6 1.01.4.81.75 1.06.5.35 1.08.62 1.23-.38.19-1.14.42-2.28.73-3.97"/><path fill="#000" d="M564.42 353.77c2.18 8.34-2.85 14.23-6.05 20.64-1.85 3.68-3.52 7.76-6.35 10.57-3.09 3.06-5.22 6.71-8.01 9.92-2.51 2.89-4.47 6.2-6.98 9.13-3.18 3.71-4.67 8.44-6.38 12.92-1.3 3.38-3.7 5.32-6.82 5.9a90 90 0 0 1-20.75 1.32c-7.54-.37-15.1-.67-22.59-1.7-3.64-.5-7.33-.69-10.92-1.4a4.8 4.8 0 0 0-3.33.44c-13.18 6.57-26.45 12.98-39.5 19.8-6.05 3.14-11.94 6.57-18.06 9.6-1.77.88-2.77 2.73-4.11 4.15-.6.63-.75 2.08-2.2 1.2-1.44-.88-.94-1.97-.33-3.04 2.46-4.29 4.76-8.68 7.45-12.81 5-7.67 7.8-16.35 11.77-24.48.3-.59.52-1.14-.06-1.6-.6-.46-1.35-.39-2.01-.12-2.97 1.2-6.16 1.44-9.22 2.24-4.39 1.14-8.86.6-13.3.62-1.71.01-3.36.3-3.8 2.1-1.03 4.32-4.25 6.51-7.64 8.78-5.01 3.36-9.88 6.94-14.75 10.5-1.73 1.26-3.77 1.67-5.76 2.5-.45-1.45.05-2.32.92-3.61 4.12-6.1 10.09-10.66 13.98-16.86 2.36-3.75 3.41-8.16 4.09-12.6.23-1.57-.77-1.53-1.73-1.8-7.87-2.3-15.5-5.26-23.18-8.12-1.3-.48-2.52-1.16-3.84-1.56-2.55-.75-2.24-2.78-2.18-4.67.03-.76 1.74-1.68 3.34-1.73 3.3-.1 6.57.57 9.73 1.34a854 854 0 0 0 50 10.55c8.55 1.54 17.1 3.41 25.72 4.18 14.3 1.29 28.33 4.33 42.61 5.48 7.84.64 15.67 1.26 23.54 1.5 5.57.18 11.12.87 16.69-.15.98-.18 1.87-.4 2.04-1.4 1.1-6.41 6.1-10.37 9.61-15.23 6.27-8.72 14.46-15.88 20.45-24.82 1.36-2.04 3.09-3.74 4.35-5.88 2.14-3.62 2.48-7.69 3.58-11.81zm-114.36-2.91c-32.06-10.7-60.34-28.56-87.8-48.15.66 3.69.22 7-.19 10.31-.8 6.4-.23 12.89-.8 19.28-.33 3.7-1.3 7.3-.55 11.09.21 1.1.21 3.17-1.77 3.19-2.1.02-1.99-1.78-2.4-3.4-1.75-6.77.05-13.71-1.49-20.59-.9-4.06.17-8.63-.08-13.01-.2-3.37-.59-6.8.4-10.2.55-1.85-.54-3.03-2.05-4.2a142 142 0 0 1-9.29-7.91c-1.02-.94-2.56-2.34-1.16-3.78 1.2-1.24 3.06-1.07 4.55.08 2.88 2.23 5.46 4.82 8.64 6.69 1.08.64 1.66.73 1.87-.56.63-3.97 3.8-6.47 5.61-9.75 2.1-3.78 5.05-6.97 7.27-10.73 2.08-3.5 5.23-6.38 8.04-9.42 1.68-1.83 2.96-4.04 5.05-5.5.64-.46 1.17-1.21 2.09-.68 1.02.59.4 1.33.16 2.07-1.35 4.2-3.9 7.63-6.37 11.22-2.49 3.64-4.82 7.43-7.23 11.15-2.92 4.51-6.94 8.23-9.2 13.26-1.01 2.3-1.67 3.3 1.04 5.3 5.84 4.32 11.7 8.64 17.48 13.07 11.92 9.14 24.2 17.72 37.3 25.18a361 361 0 0 0 24.04 12.65c2.29 1.09 5 1.16 6.83 3.34"/><path fill="#000" d="M507.3 368.97c-1.34-4.66-2.96-9-4.82-13.33-1.86-4.3-2.13-9.29-4.25-13.58-2.3-4.65-3.14-9.74-4.72-14.6a6 6 0 0 1-.12-3.81 4.5 4.5 0 0 1 3.66-2.74c1.67-.25 1.78 1.55 2.16 2.7 1.3 4.01 2.22 8.14 3.3 12.2 1.15 4.31 2.6 8.6 3.33 13 .94 5.6 2.86 10.95 3.85 16.55.5 2.77-.8 2.97-2.39 3.6m34.82-92.51c-2.02.73-2.77-.7-3.66-1.6a142 142 0 0 0-23.48-19.13c-4.7-3.01-9.27-6.19-13.94-9.2-2.85-1.83-5.66-3.78-8.63-5.46-1-.56-2.07-1.23-1.4-2.53.63-1.19 1.81-.95 2.9-.53 6.24 2.43 11.87 6 16.93 10.21 4.56 3.8 9.64 6.87 13.99 10.92 5.91 5.51 12.24 10.6 17.28 17.3zm20.52 57.72c-.8.42.83 1.4-.44 1.6-.74.13-.82-.5-1.15-1.01-3.16-4.97-7.19-9.13-11.63-13-5.08-4.44-9.32-9.83-14.75-13.85-5.93-4.4-11.24-9.32-15.38-15.46-.46-.67-1.25-1.32-.56-2.05.74-.77 1.2.3 1.64.68 4.97 4.14 9.86 8.35 14.85 12.45q5.82 4.75 10.82 10.3c5.4 6 10.55 12.21 15.74 18.4.39.47 1.3 1.01.86 1.93zm-287.82 1.34c0 2.08.05 3.38-.02 4.68-.04.8.5 2-.74 2.24-1.17.22-1.81-.83-2.14-1.75-1-2.8-1.97-5.6-2.77-8.46a54 54 0 0 1-2.17-11.96c-.06-1.55-.25-3.89 1.36-4.02 1.52-.14 3.34 1.19 4.23 3.04 1.14 2.39 1.23 5.01 1.49 7.5.34 3.15 1.35 6.29.75 8.73zm172.37 194.33c-.37.95.07 2.13-.88 2.57-1.26.59-1.42-.86-1.89-1.43-2.08-2.53-3.41-5.52-4.88-8.43-1.11-2.21.46-3.54 1.9-4.25 1.82-.91 2.57.72 3.03 2.26zm-35.64 23.33c.63-4.01 1.24-7.15 1.6-10.32.24-2.2 1.74-1.98 3.07-1.76 1.9.3 1.36 1.87.82 2.8-1.65 2.85-2.65 6.11-5.5 9.28m-14.37-181.38c-7.96-5.21-15.67-10.7-21.19-18.66 6.64 6.7 13.9 12.7 21.2 18.66m-2.57 176.96c.54 3.72-2.03 6.4-3.25 9.52.99-3.24.05-7.15 3.33-9.6z"/><path fill="#000" d="M394.7 548.66c-3.13-1.19-3.12-4.6-4.7-6.87 3.58.92 3.7 4.2 4.6 6.97zm59.18-21.86c-1.15-2.73-3.76-5.09-1.88-8.87a29 29 0 0 1 1.88 8.87m-77.72-402.63c-1.37-2.7-2.68-1.2-4.19-.01-.19-8.9-7.77-9-13-11.9 1.6-2.54 3.9-3.64 6.93-2.49 5.67 2.15 10.65 6.62 10.26 14.4m78.67 4.76c-2.06.18-2.58-1.03-2.52-2.6.12-2.72.28-5.35-3.08-6.4-.76-.24-1.36-.95-1.02-1.9.33-.9 1.18-.54 1.82-.6 4.04-.43 7.81.82 11.63 1.84.98.26 1.75.87 1.5 1.87-.22.89-1.34.7-1.99.58-1.57-.26-1.76.55-2.13 1.82-.68 2.29-1.55 4.62-4.2 5.4z"/></svg>