<svg xmlns="http://www.w3.org/2000/svg" width="1080" height="1080" fill="none" viewBox="0 0 1080 1080"><path fill="#fff" d="M538.05 40.77c2.25 1.72 4.66 3.25 6.69 5.2 4.37 4.17 8.87 7.3 15.48 6.02 6.03-1.18 12.18-1.82 18.3-2.5 1.67-.18 4.17-1 4.06 2.48 6.54-.87 9.27 3.47 11.28 8.47.83 2.03 1.98 2.86 4.09 3.3 4 .85 7.95 2 10.24 5.11l7.74-1.98c.04-.15.06-.84.39-1.25 1.06-1.32 2.02-3.14 3.43-3.66 2.1-.78 2.93 1.43 4.06 2.86.73.92 2 1.5 3.14 1.96 2.43.96 4.3 2.33 4.55 5.14.56 5.88 4.01 10.3 10.05 11.45 5.23 1 9.47 3.64 13.8 6.35 2.43 1.53 3.26 4.06 3.3 6.53.1 7.57 2.6 9.4 8.05 14.55 2.75-2.57 4.71-1.07 6.8 1.25 1.3 1.47 3.41 2.24 4.72 3.71a164 164 0 0 1 8.92 11.02c1.43 1.92 3.27 3.92 2.42 6.67-.29.95-1.02 1.76-1.52 2.65-.5.85-1.15 1.67-1.4 2.6-.53 1.92-.6 4.01-1.3 5.86-.93 2.4-2.5 2.49-4.53.04v17.91l1.61.55 2.76-3.06 1.07.24.41 9.41c.18 3.8-.28 7.77.76 11.31.92 3.15 3.65 5.71 5.3 8.7.94 1.7 1.45 3.69 1.86 5.61.38 1.76.42 3.61.52 5.42.1 1.94.41 3.94.08 5.81-.34 1.95-1.85 2.02-3.36 1.04-.44 1.6-.6 3.35-1.36 4.77-1.9 3.53-1.49 7.09-.08 10.42 4.66 11.03 3.24 21.78-1 32.48-.3.74-.53 1.52-.92 2.22-3.46 6.21-.43 12.05.94 18.02 1.1 4.8 2.42 9.65 2.62 14.52.24 5.85-2.25 11.03-5.7 15.88-1.64 2.3-2.08 5.54-2.78 8.43-1.04 4.3 4 9 2.44 13.07-1.7 4.43-7.93 7.08-10.52 11.76 6.56 5.98 11.93 11.95 19.19 18.56 2.57-3.45 8.92-7.49 12.37-4.95 3.87 2.84 12.14 6.43 15.48 9.9 2.46 2.57 2.72 1.55 4.95 4.34.16-.35 4.17 3.45 4.33 3.1 1.35.2 3.35 3.61 4.33 4.33 3.14 2.25.48 5.17 3.6 7.74-.42-2.2-1.73-4.48-2.54-6.46-1.2-2.95 2.32-2.58 2.64-4.34 1 .46 2.31.67 2.92 1.43a79 79 0 0 1 5.58 8.08c.99 1.65-.22 2.84-2.39 3.19-.81.13-1.48 1.2-2.29 1.9.2 2.67 7.25 4.48 3.63 7.03 4.96 7.24 4.85 15.58 9.6 22.97 7.46 11.62 15.69 23.55 23.3 35.08a202 202 0 0 0 11.4 15.9c.94-1.45 1.4-2.43 2.14-3.13.17-.15 1.24.65 2.17 1.15-.96-2.66.36-5.56 1.52-6.99 6.36 6.55 13.83 14.06 10.52 19.19-.57-1.06-4.4.11-4.85-.74l-.9.21c.07.84-.01 1.73.21 2.53 1.77 6.43 6.38 11.14 10.05 16.43l7.4 10.51 1.31-.65c-.47-1.48-.62-3.2-1.5-4.38a32 32 0 0 1-5.54-14c-.06-.56 2.62-2.7 3.1-3.1.22-.19 1.5 2.75 1.84 3.09 2.49 2.5 4.9 5.08 7.35 7.63 2.2 2.3 3.96 6.04 1.34 7.85-.98.67-1.46 1.91-1.86 3.09-.35 1.01-2.46.68-2.48 1.81-.07 3.48 4.93 4.5 1.6 3.87.04.3 13.39 7.62 2.11 4.84 3.6 4.72-2.76 5.43-4.03 11.07-1.89 8.45-3.4 16.94-6.26 25.16-.84 2.42.77 5.24.38 7.85-1.35 9.01-9.19 15.86-18.18 19.34-2.75 1.08-4.94 3.55-7.5 5.2q-9.13 5.79-18.34 11.44c-8.2 5.06-16.25 10.4-24.7 15.01-6.57 3.58-13.86 5.14-21.4 5.93-9.3.98-18.54 2.72-27.78 4.25-3.88.65-3.02 4.17-3.31 6.6-.89 7.42-2.83 14.42-6.94 20.72-2.93 4.5-7.49 6.76-12.32 8.43-1.08.37-2.63-.18-3.82-.67-6.7-2.73-12.66-6.53-17.6-11.92-3.83-4.18-8.94-6.42-14.16-8.32-16.16-5.86-32.3-11.8-48.54-17.4a130 130 0 0 0-19.44-5.06c-2.6-.46-5.53 1.27-8.36 1.73-3.99.64-8 1.39-12.02 1.45-9.97.18-19.8.83-29.5 3.61-7.8 2.24-14.73-1.11-21.45-4.72-5.1-2.75-10.18-5.56-15.4-8.08-7.6-3.67-11.17-1.15-14.97 4.48-1.12 1.67-1.93 3.56-2.73 5.4-.27.61-.38 1.67-.04 2.1 2.81 3.6 1.33 6.6-1.15 9.33 1.28.47 2.46.9 4.1 1.52 1.41-1.6 2.95-3.64 4.78-5.36 1.64-1.54 2.91-4 6.45-3.39-2.53 3.81-4.89 7.26-7.12 10.78-.5.8-.6 1.86-.88 2.8.94.1 1.88.34 2.8.24 2.23-.24 5.22 3.38 4.33 5.62-2.25 5.65-4.47 11.33-7.12 16.8a782 782 0 0 1-16.81 33.3c-1.9 3.5-4.24 7.9-9.94 6.33-.69-.19-1.65.62-3.2 1.27l-.78-4.16-4.26 1.87-1.39-4.1c-1.16 3.12-2.44 6.71-3.86 10.25-.32.8-1 1.6-1.73 2.04-.9.53-2.03.68-3.07 1l-.47-3.43-3 1.28c-.33-.59-1.13-1.33-1.08-2 .42-5.48 1.58-10.81 4.05-15.76 3.64-7.28 7.41-14.5 10.96-21.82 2.22-4.56 3.98-9.34 6.24-13.88a377 377 0 0 1 8.78-16.29 5.4 5.4 0 0 1 2.33-1.94c.7-.35 1.64-.21 2.48-.29l-.04 2.08v3.07l5.07-6.2c-4.22.28-6.66-2.38-8.37-5.06-4.44-6.99-11.35-10.5-18.24-14.19-2.18-1.16-4.76-2.09-6.27-3.87-2.6-3.06-1.39-7.03-.89-10.57.3-2.15 1.8-4.09 2.4-6.23a245 245 0 0 0 3.37-14.1c.91-4.34 1.9-8.7 2.21-13.1.15-2.13-.87-4.51-1.89-6.5-2.09-4.12-3.4-8.31-3.46-12.97-.02-1.63-.77-3.35-1.53-4.83-.37-.7-1.69-1.49-2.4-1.35-9.72 1.94-19.58 3.9-28.26 8.72-7.8 4.33-14.87 9.96-22.24 15.06a482 482 0 0 0-11.34 8.02c-3.36 2.47-6.61 5.07-9.9 7.62-.09.06-.14.18-.23.2-6.34 1.52-6.16 7.13-7.66 11.82-1 3.13-2.47 6.15-4.1 9.02-1.31 2.34-4.29 2.69-5.43.3-4.86 2.14-9.46 2.67-13.92-1.09-2.03-1.71-4.1-1.05-5.78.9-1.14 1.33-2.15 2.83-3.5 3.88-1.52 1.19-3.65 2.13-5.16.35-.7-.83-.68-3.12-.01-4.1 2.3-3.39 1.62-6.74.48-10.12-1.03-3.08-.37-5.81 1.13-8.48 1.65-2.9 3.39-5.76 5-8.68 2.24-4.02 4.09-8.3 6.67-12.07 3.18-4.63 7-8.8 10.45-13.24 2.54-3.28 4.63-6.95 7.45-9.94 3.32-3.5 6.93-6.8 11.8-8.33 1.01-.31 1.85-2.13 2.2-3.4 2.08-7.66 4.02-15.36 5.96-23.06.35-1.37.55-2.77.77-4.16 1.74-10.93 9.96-16.13 18.7-20.51a98 98 0 0 0 27.56-20.88c3.52-3.76 6.32-7.83 7.58-12.9.25-1.04.86-2.35 1.7-2.81 5.3-2.89 7.86-8.44 12.08-12.2 4.51-4.02 3.98-8.36 3.02-12.94-1.63-7.74-2.04-15.4-.44-23.17.47-2.28.66-4.6 1-6.91.98-6.88 5.97-11.5 9.54-16.94q8.77-13.42 17.5-26.89c.1-.17.18-.38.32-.52 5.02-5.01 5.11-11.44 5.1-17.89 0-6.6-.17-13.21.07-19.8.16-4.48-1.42-8.12-4.15-11.43-3.12-3.77-3.28-8.5-1.36-12.8 1.17-2.6 1.45-5.72 1.55-8.63.02-.78-2.05-2.3-3.2-2.33-4.36-.13-8.76.45-13.13.29-4.28-.16-8.24-1.62-10.9-5.24-2.42-3.3-2.28-7.1-1.01-10.72.78-2.26 2.3-4.27 3.48-6.38 1.98-3.52 2.6-8.34-1.86-11.54-5.83-4.2-11.68-8.38-17.3-12.84-1.71-1.35-2.88-3.5-3.94-5.48-1.16-2.18-2.27-4.5-2.74-6.9-.4-2.05-.17-4.36.35-6.42 1.27-4.98 2.96-9.86 4.27-14.83.72-2.69 1.31-5.5 1.35-8.25.02-1.28-1.23-2.78-2.25-3.82-2.68-2.75-5.77-5.1-8.27-7.98a19 19 0 0 1-3.54-6.56c-1.6-4.97-3.68-10.04-3.87-15.12-.16-4.24-1.62-7.7-2.78-11.48-.98-3.23-1.29-6.66-1.98-9.99-.3-1.46-.7-2.93-1.23-4.33-1.27-3.26.42-5.99 1.62-8.7 1.7-3.84 1-7.56-1.08-10.62-2.48-3.66-2.29-6.72-.62-10.56 1.94-4.45 4.84-8.07 8-11.58.55-.6 1.5-.91 2.33-1.2 7.12-2.53 14.28-2.3 21.5-.4 4.57 1.2 8.79-.28 12.87-2.14.59-.27.94-1.2 1.24-1.9 2.15-4.85 4.13-9.8 6.4-14.59 1.86-3.93 5-5.06 9.36-4.17 1.1.22 2.52-.27 3.54-.87 3.4-2 6.55-4.5 10.05-6.3 4.2-2.14 5.45-1.53 7.74 2.53l1.38 2.48c1.36-.9 2.74-1.58 3.84-2.57 6.68-6 13.77-5.58 21.29-1.72 3.29 1.69 6.8 1.43 10.24.03 4.44-1.8 8.86-3.67 13.39-5.25 2.37-.84 4.94-1.13 7.42-1.68zm279.62 468.6-.42.27 1.02 1.59.5-.33zM213.73 994.54c1.56-3.62 2.33-7.75 6.04-10 1.41-.84 3.1-1.66 4.69-1.7 3.45-.09 6.92.5 10.38.5 3.56 0 7.16-.75 10.69-.45 3.1.27 6.09 1.6 9.16 2.34.88.21 1.92.24 2.76-.02 5.43-1.72 10.71-4.07 16.24-5.17 5-1 9.26-4.66 14.87-3.63 1.6.3 3.73-1.28 5.35-2.39a11.2 11.2 0 0 1 14.6 2.17c.43.51 2.25.7 2.64.29 6.35-6.56 12.57-13.25 18.81-19.91.27-.3.48-.65.91-1.25-2.41-.58-1.98-1.88-.7-3.03a23 23 0 0 1 12.62-5.9c1.9-.24 4.5.45 5.91 1.7 5.07 4.5 11.17 7.04 17.12 9.9 1.28.62 2.52 1.34 3.83 1.86 2.72 1.07 2.85 3.1 1.82 5.27-2.9 6.14-5.75 12.33-9.07 18.25-1.3 2.32-3.92 3.87-5.7 5.96-2.85 3.33-4.38 7.23-5.04 11.64-.48 3.13-1.86 6.14-2.96 9.16-2.3 6.33-1.62 12.85-1.22 19.31.49 7.77-3.31 10.63-9.94 12.25-6.12 1.5-12.13.96-18.21.74q-13.95-.53-27.9-.88c-5.75-.13-11.05-2.01-16.32-3.98-10.07-3.76-20.1-7.63-30.15-11.47-7.4-2.84-13.24-8-19.15-13.03-4.07-3.45-8.05-7-12.07-10.5v-8.05zm605.32 50.13c-3.64-1.24-7.31-2.39-10.9-3.75a15 15 0 0 1-4.42-2.51c-2.42-2.14-3.68-4.69-2.26-8.12 2.64-6.39 4.82-12.97 7.7-19.25 1.4-3.06 3.99-5.58 5.92-8.42.44-.65.84-1.76.58-2.38q-5.2-12.23-10.58-24.38c-.79-1.78-1.77-3.43-.2-5.29.2-.23.11-.85-.03-1.22-2.31-5.57-4.36-11.27-7.08-16.64-2.03-4.02-4.92-7.6-7.45-11.37-1.07-1.6-2.2-3.16-3.4-4.88-3.42-.32-7.48 0-8.86-4.77-.16-.55-.41-1.16-.32-1.69 1.77-10.06 5.8-18.84 14.25-25.12 3.83-2.84 10.94-2.27 14.36 1.17l15.31 15.3c2.32 2.34 4.64 4.13 8.34 2.75 1.74-.65 4.01.12 5.74-.54 4.77-1.85 9.35-4.21 14.08-6.17 2.72-1.12 5.55-2.92 8.48-.37 7.74-.35 5.88 5.99 6.39 9.94 1.1 8.46 1.4 17.02 2.06 25.54.02.2.37.38.56.58v3.72c-.2.42-.53.82-.6 1.26-1.25 8.01-2.18 16.1-3.8 24.03-1.29 6.24-3.55 12.28-5.12 18.47-.81 3.18-.5 6.73-1.67 9.73a80 80 0 0 1-17.98 27.88c-1.17 1.16-3.77 1.12-4.57 2.37-1.5 2.32-3.58 3.25-5.87 4.14h-8.66zm-84.5-215.97c-3.23.9-6.02 2.32-8.77 2.2-1.8-.07-3.62-2.21-5.26-3.64-9.12-7.94-16.81-17.13-23.6-27.13-2-2.93-4.49-5.51-6.61-8.36-1.89-2.52-.77-5.9 2.11-7.06.7-.28 1.44-.7 1.9-1.27.94-1.15 1.7-3.48 2.53-3.47 2.04.02 4.49.56 6.04 1.8a330 330 0 0 1 18.09 15.53c6.03 5.6 11.72 11.59 17.57 17.4 1.53 1.52 2.44 3.1 1.7 5.46-.21.66.9 1.78 1.49 2.64 2.47 3.66 2.45 5.95-.98 7.9-1.17.67-3.5-.6-5.24-1.16-.61-.2-1.06-.93-.96-.84m-179.5-119.6 1.32 6.32c3.9-2.62 6.77-2.74 9.6-.26l-22.46 24.22-1.18-1.08 3.02 5.14c-2.5 2.45-5.42 1.48-11.92-5.15 5.51-5.43 10.98-10.92 16.57-16.28 1.83-1.75 4.14-2.72 3-6.27-.6-1.9-1.3-5.16 2.03-6.64z"/><path fill="#000" d="M450.77 691.9c4.43-7.25 9.37-14.26 13.16-21.85 4.6-9.22 8.24-18.93 12.27-28.36-4.15-5.05-10.22-2.75-15.25-4.23-2.27-.66-4.71-.77-7.26-1.16l3.6-7.03c-7.05-2.95-13.8-5.7-20.5-8.6-2.68-1.17-5.26-2.61-7.85-4-.6-.32-1.45-.92-1.49-1.45-.26-3.47-2.83-3.19-5.27-3.3l2.81-7.28c-2.01-3.43.42-7.2 1.31-10.9 2.2-9.13 4.97-18.12 7.49-27.17.18-.68.4-1.47.23-2.1-1.9-6.94-3.9-13.86-5.88-20.85-3.87.3-7.25 2.56-10.94 4.35-5.25 2.55-10.96 4.27-16.62 5.8-4.7 1.27-7.7 4.9-11.6 7.24-1.58.93-3 2.13-4.76 3.4-.19 6.3-8.39 14.74-16.5 13.6-1.81 5.46-3.66 10.92-5.44 16.41-.79 2.42-2.84 3-4.52.98-1.22-1.48-2.03-3.32-3.13-5.18-.5 1.97-1.27 3.89-1.41 5.85-.37 5.13-2.61 8.85-7.29 11.13-4.67 2.27-9.44 1.6-13.1-2.1-1.8 3.05-2.98 6.98-7.34 6.98-3.89 0-6.74-1.8-7.29-6.78-2.18 2.31-3.86 4.32-5.78 6.07-1.12 1.02-2.61 1.65-4.11 2.56-.62-8.3-1.25-15.8-1.69-23.32-.08-1.53-.97-3.55 1.34-4.54.3-.13.43-.87.47-1.35.48-6.28 3.26-11.73 6.34-17.02 3.12-5.36 6.21-10.77 9.84-15.8 3.84-5.31 8.25-10.23 12.49-15.27 2.13-2.53 4.4-4.93 6.72-7.52-2.34-1.77-1.63-3.65.7-5.47 2.48-1.93 4.8-4.1 7.4-5.86 1.26-.87 2.97-1.09 5.16-1.83-.62-1.21-1.91-2.72-2.14-4.36a29 29 0 0 1 0-8.53c.97-5.67 2.33-11.27 3.64-16.88.7-3 2.7-4.84 5.49-6.3a775 775 0 0 0 31.41-17.07c5.03-2.93 9.56-6.77 14.11-10.46 1.13-.9 1.77-2.7 2.12-4.22.5-2.15.05-4.6.86-6.58.66-1.6 2.48-2.79 3.95-3.96 4.02-3.2 8.42-6 12.05-9.59 1.43-1.4 1.97-4.58 1.65-6.77-1.1-7.47-2.75-14.86-4.2-22.28-.1-.49-.17-1.15-.5-1.4-2.95-2.16-1.06-4.51-.06-6.55 7.47-15.28 15.99-29.95 26.83-43.13 3.11-3.78 2.43-7.72-.53-11.16a15 15 0 0 1-3.8-9.45c-.05-1.37.65-2.82 1.2-4.15 1.35-3.24 3.11-6.34 4.13-9.67 1.05-3.4 1.57-6.91-.63-10.36-1.58-2.48-1.26-5.33-.01-8.02.2-.42.14-.96.26-1.9-7.04 7.17-4.9 14.72-1.52 22.37l-1.33.38c-.98-1.27-2.28-2.4-2.87-3.84a29 29 0 0 1-2.23-15.04c.83-7.3 4.71-12.16 9.64-16.75.13-.13.36-.2.43-.34.45-.99.86-1.98 1.54-3.58-3.54.3-6.72.74-9.9.75-1.73.01-3.47-.75-5.22-1.1-6.38-1.33-9.78-5.32-12.23-11.34-2.24-5.53-2.23-10.82-1.22-16.27.38-2.04 2.03-3.95 3.4-5.68 1.54-1.93 2.99-3.51.28-5.64-.63-.49-.66-1.74-.97-2.67-5.8 2.76-12.75.17-15.28-5.39a7 7 0 0 0-1.95-2.4 19 19 0 0 1-6.06-9.25c-2.27-7.55-1.6-14.66 1.77-21.8a61 61 0 0 0 4.13-12.51c.54-2.38.26-4.96-2.77-6.5a34 34 0 0 1-8.15-5.81c-1.64-1.6-2.72-4.01-3.44-6.25-.67-2.07-.68-4.4-.7-6.62-.03-3.22-.5-6.1-2.65-8.78-1.1-1.37-1.56-3.55-1.64-5.4-.1-2.31-.54-4.29-1.98-6.14-4.27-5.48-5.43-11.53-3.1-18.18.91-2.62 2.35-5.31 2.33-7.96-.03-3.15-1.37-6.28-2.14-9.41-7.33 1.72-11.1-4.21-10-10.63a30.3 30.3 0 0 1 12.39-19.96c3.7-2.71 7.94-4.61 12.81-2.75.52.2 1.26.1 1.81-.08 3.47-1.15 6.83-2.89 10.38-3.44 4.5-.7 9.02-.12 12.97 2.79 1.25.93 2.9 1.44 4.44 1.84 2.3.6 2.68-1.35 3.54-2.84 2.29-3.95 4.58-7.91 7.2-11.65 2.33-3.33 5.86-5.18 9.7-6.53 2.54-.89 4.88-1.59 7.67-.88.9.24 2.36-1.31 3.46-2.18 3.1-2.44 6.08-3.6 10.35-2.26 2.31.73 4.17 1.2 5.38 3.42 4.53-2.25 8.77-5.11 13.45-6.42 3.42-.95 7.84-1.95 11.04.69 3.22 2.64 5.8.49 8.27-.46 3.44-1.31 6.51-3.58 9.76-5.42 2.02-1.16 3.99-2.44 6.1-3.38 2.48-1.11 5.1-1.93 7.64-2.87h1.86c4.96 1.9 8.93 4.64 10.19 10.36.55 2.5 4.01 3.38 6.7 2.92s5.96-1.72 7.34 1.84c3.71-.9 7.21-1.71 10.68-2.62 5.82-1.53 11.27.07 16.3 2.55 5.58 2.76 7.94 8.28 9.6 13.17 3.16.34 6.02.68 8.88.94.8.08 1.77.22 2.4-.13 6.1-3.43 12.23-3.4 17.8.69 3.88 2.84 7.17 6.51 10.66 9.89 1.1 1.06 1.88 2.44 2.97 3.5a8 8 0 0 0 2.91 2.03c1.71.6 3.55.8 5.33 1.2 2.98.7 4.46 3.16 6.52 5.12 3.52 3.35 5.01 7.41 6.08 11.77.67 2.72.7 5.59 1.02 8.38 4.37.67 6.6 2.3 8.97 6.28.3.52 1.14 1.08 1.7 1.06 4.15-.2 7.34 2.05 10.07 4.53s4.8 5.74 7.06 8.73c3.11 4.12 3.27 9.04 2.82 13.78-.25 2.63-2.1 5.1-3.22 7.65.29.42.95 1.12 1.31 1.94 1 2.26 2.08 4.52 2.74 6.89.42 1.5.62 3.39.06 4.75-.4.95-2.24 1.3-3.44 1.92 1.59-4.62.68-7.83-3.71-12.16l2.23 9.7-.62.12-3.24-9.3a23 23 0 0 0-1.4 7.2c-.05 1.37.33 2.24 2.1 2.96 3.51 1.4 7.74 2.63 8.45 7.23.47 3.05 2.66 6.33-1.18 9.16-2.05 1.5-3.36 3.99-4.61 5.54 1.94 1.83 4.09 3.18 5.24 5.12a53 53 0 0 1 4.6 10.17c1.21 3.63 1.92 7.5-.13 11.14-1.52 2.69-3.26 5.24-4.81 7.7 1.7 1.16 3 2.12 4.36 2.96 7.5 4.57 11 11.86 11.67 20 .37 4.64-1.74 9.57-3.16 14.24-1.59 5.18-5.93 8.61-9.1 12.78-.49.65-1.8.67-2.64.95 2.53-4.8 5.16-9.01 7.05-13.53 3.7-8.84 3.79-17.63-1.78-25.9-.52-.77-1.38-1.3-2.09-1.94l-1.13-2.49-.7.32 1.4 2.67c.63 1.28 1.43 2.52 1.89 3.86 1.94 5.77.9 11.63.07 17.39-.98 6.86-5.17 12.39-8.93 17.9-1.65 2.43-1.5 3.84-.24 6.12.62 1.14.73 1.45 1.73.7 5.95-4.5 18.92-4.11 23.25 4.8 2.47 5.06 5.09 10 3.32 15.9l-3.28 10.82c1.2-.68 2.35-1.4 3.57-2.01 4.52-2.29 9.18-4.32 13.53-6.87 2.7-1.59 4.91-4 7.42-5.94.54-.42 1.43-.4 2.16-.59.1.71.47 1.55.23 2.12-.7 1.62-1.4 3.39-2.58 4.64a52 52 0 0 1-7.32 6.69c-8.1 5.88-16.8 10.64-26.85 12.69.25.54.4 1.15.77 1.59 3.83 4.64 4.1 9.46.87 14.09-3.35 4.8-8.44 6.69-13.81 8.32 2.37 1.33 2.55 2.7.52 4.32-.5.4-1.04.96-1.15 1.53-.48 2.47-.8 4.97-1.17 7.4.32-.16.99-.55 1.7-.8 2.7-1 5.36-2.26 8.3-.62 3.94 2.2 7.86 4.41 11.91 6.36 2 .97 4.5.98 6.38 2.09 3.46 2.06 6.61 4.62 9.9 6.97 1.83 1.32 3.34 2.9 6.18 1.78 1.95-.78 4.42-.64 6 1.7 2.25 3.35 4.93 6.43 6.95 9.9 1.8 3.1 2.84 6.64 4.48 9.86 1.18 2.33 1.34 4-1.76 4.73l9.41 18.32c4.03-1.98 7.7-3.42 10.62-6.74 3.49-3.97 8.7-3.61 12.51-.21.4.35 1.03.55 1.57.6 6.67.65 9.98 4.08 10.37 10.57.06.98.62 2.17 1.34 2.82a10.4 10.4 0 0 1 3.65 7.99c.04 1.98.71 4.08 1.57 5.9 1.54 3.33 2.3 6.43-.36 9.56a3 3 0 0 0-.65 1.9c.14 3.46-1.88 5.66-4.23 7.73-.72.65-1.72 1.48-1.78 2.28-.19 2.65-1.6 2.97-3.75 2.54-.59-.12-1.23.1-1.9.17l2.07 3.56.14-.77c2.12.3 4.33.33 6.37.92 7.4 2.13 8.67 9.92 13.86 14.49l-2.2.53 2.81 7.44c-1.65.35-2.78.6-4.2.92l1.84 2.7c3.98-2.79 5.34-2.8 8.8.14a25 25 0 0 1 4.3 4.42c1.95 2.75 3.35 5.93 5.45 8.54 2.9 3.6 2.84 4.86-1.32 7.23-.52.3-1.22.5-1.5.96-.44.74-1.08 1.9-.8 2.44.8 1.5 1.19 3.02 3.6 3.71 3.74 1.07 2.47 5.14 1.91 7.62-2.27 9.97-5.06 19.82-7.68 29.7-.6 2.23-2.15 4.58-1.77 6.6.74 4.02.64 7.91-.54 11.61-.73 2.3-.74 5.34-3.77 6.55a12 12 0 0 0-3.55 2.28c-3.72 3.51-6.9 7.75-11.06 10.6a654 654 0 0 1-30.71 19.5c-13.65 8.28-27.21 16.8-42.18 22.58-3.42 1.32-7.38 4.18-10.87-.28-.1-.13-.4-.08-.58-.13q-5.07-1.36-10.12-2.66c-.49-.12-1.14-.17-1.53.07a65 65 0 0 0-6.05 3.9 3.7 3.7 0 0 0-1.18 2.4c-.32 3.45-.37 6.91-.71 10.36a9 9 0 0 1-1.25 3.63c-1.77 2.9-1.56 5.22.71 7.85.52.6.88 1.9.58 2.5a6.4 6.4 0 0 1-2.62 2.81c-1.66.8-3.65.9-5.36 1.63a66 66 0 0 1-22.75 5.34c-1.86.1-3.83.94-5.47 1.9-2.08 1.24-3.93 2.9-5.76 4.49-.62.54-1.35 1.53-1.27 2.22.6 4.6 1.48 9.15 2.09 13.74 1.19 8.9 2.72 17.79 3.25 26.73.57 9.47.14 19 .14 28.5v15.1c15.2 4.84 29.11 11.59 40.92 22.08-.55 1.24-1 2.25-1.43 3.26l-1.65 2.46.63.39 1.5-2.25 2.44-3.07 15.69 13.74c-.51 2.6-3.76 3.33-2.3 6.06l4.18-4.03c7.31 7.96 15.53 14.81 21.27 24.01 2.98 4.77 6.9 8.94 10.24 13.49 8.13 11.08 15.85 22.49 24.37 33.25 6.69 8.45 14.36 16.13 21.57 24.17 3.4 3.78 7.04 7.36 9.33 12.07.66 1.35 2.84 1.88 3.99 3.1 3.85 4.14 7.56 8.41 11.05 12.32 1.91-.83 3.78-1.86 5.78-2.48 9.75-3.02 19.77-3.73 29.9-3.12 4.95.3 4.95.38 6.26 5.17 2.2 8.04 2.42 16.28 2.4 24.55 0 1.64.38 3.29.59 4.93v9.9c-.24 1.88-.38 3.79-.73 5.64-1.37 7.21-2.59 14.46-4.26 21.6-4.66 19.96-10.31 39.53-24.22 55.49-2.7 3.1-5.29 6.32-7.93 9.49h-.62l-1.89-3.15a23.3 23.3 0 0 1-17.15.68c-5.32-1.82-10.5-3.76-13.62-8.88-.43-.73-.8-2.37-.66-2.44 1.9-.89.72-2.12.58-3.31s0-2.46.26-3.64c2.55-10.87 7.24-20.81 13.32-30.11.72-1.1.95-1.72.3-3.05-5.87-12.05-11.59-24.17-17.29-36.14l-4.53 1.15-.63-.93 3.9-6.21c-2.44-3-4.96-6.05-7.43-9.15-2.79-3.52-5-7.5-10.86-6.43-2.4.44-3.42-2.2-2.62-4.92-7.52-5.13-15.2-10-22.48-15.4a10603 10603 0 0 1-69.1-51.65 3613 3613 0 0 1-41.5-31.68c-15.99-12.38-31.33-25.6-48.6-36.3-12.27-7.6-22.5-17.67-31.82-28.63-8.22-9.68-16.3-19.5-24.45-29.27l14.3-13.65-.73-.76c-1.93 1.62-3.9 3.2-5.78 4.86-4.52 4.01-8.76 8.38-13.56 12.04-7.86 6-16.23 11.34-24.08 17.36-7.05 5.4-13.73 11.28-20.48 17.06a5.2 5.2 0 0 0-1.76 3.36c-.27 9.05-.94 18.01-3.13 26.86-1.5 6.08-2.1 12.39-3.79 18.41-3.21 11.53-8.38 22.28-14.23 32.7-7.37 13.15-15.4 25.88-26 36.67-14.34 14.58-26.67 30.8-39.27 46.8-7.69 9.76-15.52 19.4-23.3 29.07-.22.27-.6.4-.9.6-1.65 1.15-3.74 1.97-4.87 3.5-4.95 6.64-9.62 13.49-14.3 20.16.49 1.38 1.47 2.86 1.47 4.35 0 4.49.09 9.05-.72 13.44-1.47 8.08-3.48 16.06-5.45 24.05-.35 1.4-1.55 2.59-2.36 3.88l-3-2.58c-1.17.79-2.46 1.76-3.84 2.6-5.32 3.24-11.41 3.62-17.27 3.57-10.08-.08-20.2-.64-30.21-1.83-9.28-1.11-18.6-2.62-27.57-5.15-14.32-4.06-27.87-10.09-39.68-19.48-5.7-4.54-11.68-8.82-13.9-16.32-.36-1.19-.91-2.33-1.37-3.49v-5.57c1.8-2.94 3.25-6.22 5.5-8.77 5.23-5.92 12.46-6.54 19.61-5.71 7.06.8 13.97 2.96 21.03 3.8 3.13.36 6.52-.9 9.7-1.77 8.75-2.38 17.47-4.92 26.17-7.5 1.21-.36 2.25-1.32 3.37-1.97 1.9-1.1 3.7-2.56 5.73-3.13 1.88-.54 4.47-1.54 5.1 2.22.21 1.27 2.07 2.34 3.3 3.34 5.5 4.48 9.06 10.41 12.76 16.3.6.95 2.08 1.71 3.27 1.9 7.1 1.1 14.24 1.95 21.34 3.01 1.67.25 2.74.2 3.62-1.54 3.26-6.36 6.68-12.63 10.3-19.38-11.17-2-19.86-8.76-27.7-16.42-3.97 5.26-7.78 10.6-11.97 15.61-1.03 1.24-3.29 1.8-5.05 1.99-2.65.27-3.4-.85-2.1-3.27 2.77-5.1 5.55-10.22 8.87-14.95 3.01-4.3 6.93-7.94 10.11-12.12 1.12-1.48 1.14-3.75 1.87-5.57 3.84-9.67 7.44-19.44 11.69-28.93 9.89-22.07 20.86-43.69 28.1-66.86 4.94-15.82 9.5-31.76 14.28-47.63 5.49-18.17 10.76-36.4 16.68-54.42 3.56-10.84 8.02-21.4 12.43-31.95 1.48-3.55 4.2-6.58 6.1-9.99 1.34-2.43 2.26-5.1 3.3-7.5a66 66 0 0 0 22.61.38c.3-.05.57-.44.85-.67zm274.77-193.68.4.55-.01-.9-.44-1.55-1.3 1.33zm-41.67-324.76-.17 1.34.54-.11q-.2-.64-.37-1.27l1.2-.26c2.92-3.03 3.09-5.28.43-6.66l-.86 6zm-152.86-63.1-.92-.97c-1.42-4.16.81-7.5 2.5-10.96l1.93-1.64-.32-.4-2 1.5-1.6.48c-3.18-1.75-7.25-1.42-9.54 1.06-1.9 2.05-3.92 4.2-3.05 7.89 1.1-2.12 1.82-3.82 2.81-5.36 2.35-3.63 6.16-3.56 9.86-3.68-.22.53-.4 1.09-.68 1.58-1.95 3.34-2.37 6.7-.29 10.15l.88.74.56.5-.13-.9zM715.46 806l-1.09-.87-.6.67 1.26.64 1 1.12.36-.3zM459.4 118.8l1.29.57a13.4 13.4 0 0 0 10.66 1.07l.06-1.22h-10.5l-1.1-.83-1.94-1.09-.32.62zm251.22 683.38 1.2.83.7-.78-1.34-.53-2.16-1.74-.53.7zm10.07-310.15 10.54-5.47-.69-1.22-10.39 6.28-.6.84zm-36.29-168.9-7.5 9.13 2.38 1.96 5.51-10.54.44-1.1zm-3.35-29.8c2-.95 3.66-2.46 3.43-4.67-.2-1.9-1.37-3.7-1.95-5.13-4.17 1.94-2.92 5.22-1.55 8.54.09.2-.18.55-.3.84-.97.92-2.14 1.76-1.25 4.04zm-17.1-148.68 2.56 6.07.72-.28-2.84-6.37c-.63-3.56-6-7.83-10.07-8-2.16-.08-6.47 3.44-6.83 5.57 3.95-4.7 6.28-4.1 11.65-1.44 1.87.93 3.22 2.94 4.8 4.45m-246.93 50.98c-4.63 7.14-3.28 14.29-.03 21.21.32-.14.96-.55 1.06-.44 2.17 2.3 4.94 1.28 7.5 1.35.38.01.78-.58 1.17-.9-.32-.36-.6-.85-1-1.07-.51-.27-1.13-.35-1.71-.47-7.3-1.5-7.84-3.9-8.6-9.45-.48-3.62.92-6.53 2.05-9.64l1.7-3.26-.83-.37zm145.95 191.22.73-3.66-2.86 3.33-2-7.11c-2.49 1.42-4.68 2.1-5.93 3.6-.96 1.12-1.12 3.35-.78 4.9.12.56 2.7.76 4.18.8 1.05.03 2.11-.47 3.7-.88l-1.53 2.64-.37 1.16.97-.55c2.12-.42 4.5-.58 3.71-3.82q.29-.12.19-.4zm158 10.76 1.87 1.1.34-.56-1.83-.95c-9.92-8.97-21.21-15.89-32.83-21.87-1.05.65-2.47 1.51-3.1 1.12-5.2-3.3-10.33-6.68-15.3-10.32-2.72-2-5.21-4.36-7.5-6.85-2.4-2.62-6.05-4.74-4.79-9.36.13-.47-.56-1.24-.98-1.79-1.2-1.57-2.52-3.05-3.65-4.67-2.97-4.22-5.8-8.54-8.8-12.73-4.54-6.36-9.3-12.56-13.76-18.97-3.37-4.85-6.38-9.96-9.61-14.9-3.34-5.12-6.62-10.23-6.9-16.63-.03-.65-.65-1.44-1.21-1.89-7.06-5.52-14.97-7.06-23.6-4.8-1.37.35-2.59 1.6-3.93 1.71-4.8.39-8.49 3.14-11.82 5.99-2.98 2.53-6 5.55-6.11 10.07-.04 1.54 0 3.1-.15 4.62-.43 4.13-1.03 8.25-1.4 12.38-.42 4.78-.78 9.57-.97 14.36-.12 2.87.2 5.77.21 8.66.02 6.7-.36 13.42.06 20.1.29 4.54 1.82 8.99 2.48 13.52.62 4.24 1.05 4.66 4.92 3.53a15 15 0 0 0 9.86 5.92c-.05-.94-.22-1.68-.1-2.37 1.5-8.5 3-17.02 4.61-25.5a977 977 0 0 1 4.38-21.87c.19-.91 1.1-1.67 1.67-2.5l.87.54-6.24 54.28c8.3 5.38 15.1 12 20 19.47 1.8 0 4.07.4 4.27-.07.8-1.9 2.19-1.72 3.57-1.54 2.1.27 4.15.92 6.25 1.15 6.88.76 13.78 1.4 20.85 2.11.5-4.82 3.64-7.73 8.3-9.3 4.26-1.42 8.38-3.61 14.05-2.86-4.69 5.93-12.1 6.26-16.47 10.96.95 2.71 3.06 3.72 5.73 4.09q3.27.47 6.49 1.31c.66.17 1.19.85 1.78 1.3-.5.53-.91 1.37-1.5 1.52-2.25.6-4.57 1.5-6.81 1.35-9.42-.6-18.83-1.52-28.23-2.33-2.8-.24-5.6-.52-8.32-.78-.34 3.83-.53 7.3-.96 10.74-1.18 9.42-2.16 18.89-3.85 28.23-.72 4-.46 8.7-4.71 11.55-4.94 3.31-9.66 6.95-14.1 10.16.39.07 1.38.25 2.36.47 9.7 2.15 18.78 5.98 27.68 10.33.84.4 1.9.34 2.4.42 1.54 1.16 2.8 2.37 4.28 3.19 6.62 3.66 12.6 8.59 20.28 10.18 8.17 1.69 16.28 3.74 24.51 5.09 4.46.72 9.33 1.2 13.6.15 5.42-1.33 10.43-4.34 15.62-6.62l-.96-.94c.55-.84.95-1.87 1.7-2.49 1.85-1.55 4.38-2.64 2.28-5.83-.33-.5.26-1.75.64-2.55 3.8-7.93 8-15.7 11.4-23.8a693 693 0 0 0 12.32-32.03c2.09-5.74 1.14-7.4-4.54-10.09-.73-.34-1.45-.75-2.2-1.07-6.15-2.7-7.16-4.54-6.3-11.57.08-.04.2-.13.27-.1zM535.84 291.05c-2.98 2.71-5.92 5.48-8.96 8.14-5.5 4.83-11.1 9.51-17.95 12.41-1.26.53-2.43 1.3-3.7 1.78-4.3 1.6-8.54 3.5-12.97 4.57-3.91.95-8.06.82-12.07 1.42-1.21.18-2.72.95-3.35 1.93-3.25 5.06-6.19 10.32-9.37 15.42-4.42 7.07-8.65 14.28-13.52 21.04-5.15 7.14-10.8 13.87-14.85 21.8-2.6 5.12-3.66 10.4-4.17 15.99-.92 9.98 2.65 19.35 3.76 29.04.65 5.76 1.62 11.5 2.15 17.26.63 6.95-.34 13.93.26 20.94.46 5.35-.58 10.82-.83 16.24-.3 6.42-.37 12.86-.73 19.27-.49 8.63-1.51 17.25-1.65 25.88-.1 7.32.47 14.68 1.2 21.97.7 7 2 13.94 2.97 20.9.26 1.84.46 3.88-2.1 3.77-.34 2.07-.86 3.85-.9 5.64-.1 6.68-2.73 12.68-4.67 18.9-.54 1.75-1.06 4.6-.16 5.5 1.9 1.88 3.28 3.48 2.64 5.4 7.53-.53 15.09-1.39 22.66-1.52 5.86-.11 11.72.74 17.6 1.07 2.46.15 4.95-.1 7.41.1 9.52.75 19 1.94 28.53 2.35 11.01.47 22.05.29 33.07.42 1.85.02 3.74-.04 5.53.33 10.32 2.19 20.64 4.38 30.9 6.79 16.3 3.82 32.1 9.17 47.6 15.55 16.99 7 33.26 16.2 52.27 17.38 5.96.37 8.42-.96 8.47-6.98.06-5.9 2.38-11.17 4.4-16.52.23-.59 1.1-.94 1.68-1.4l1.14 1.63 4.26-3.51c-9.33-3.6-17.77-8.45-27.52-9.9-3.3-.5-3.56-1.59-2.15-4.4-2.32-1.86-4.82-3.47-6.84-5.55a506 506 0 0 1-17.12-18.37 252 252 0 0 1-12.66-15.76c-3.79-5.08-7-10.6-10.86-15.62-5-6.48-7.27-14.14-9.22-21.73-1.57-6.08-1.28-12.65-1.86-19-.06-.65-.18-1.46-.6-1.92-5.14-5.64-10.12-11.45-15.6-16.76-3.6-3.5-4.3-4.91-2.2-9.65 1.12-2.53 2.09-5.14 3.03-7.5l-14.77-5.44 1.42-6.83H565.4c-1.8 0-3.24-.28-3.29-2.6-.01-.58-.78-1.6-1.3-1.66-6.3-.82-8.76-4.9-9.87-10.66-.75-3.95-2.21-7.72-6.66-9.3a6.7 6.7 0 0 1-2.86-2.42c-1.7-2.33-3.05-4.93-4.8-7.22-2.67-3.48-5.63-6.75-8.35-10.2-1.47-1.88-1.92-4.11-.68-6.27 3.81-6.64 7.86-13.08 15.64-15.84 1.77-.63 3.48-1.43 5.37-2.2q-1.19-1.53-2.32-2.93c-1.9-2.38-4.24-4.54-5.65-7.19-2-3.78-3.85-7.8-4.88-11.93a414 414 0 0 1-5.57-26.5c-1.04-5.75-1.22-11.67-2.24-17.43-1.46-8.2.4-16.06 2.28-23.8 1.17-4.79 4.06-9.16 6.17-13.72l1-1.16-.3-.33zm69.69 186.51c1.06.76 1.34.9 1.54 1.11 10.02 10.77 16.41 23.62 21.2 37.34.31.89-.7 2.23-1.09 3.35a32 32 0 0 0 .63 7.71c.54 2.93.47 6.34 1.99 8.68a895 895 0 0 0 24 35.25c8.04 11.15 16.58 21.94 24.94 32.86.32.4 1 .65 1.55.75 7.25 1.26 14.57 2.19 21.73 3.82 7.56 1.73 15.37 3 22.03 7.38 2.27 1.49 4.03 1.06 6.11-.2q12.17-7.38 24.47-14.59a4673 4673 0 0 1 42.88-24.76 64 64 0 0 1 10.86-4.93c1.75-.6 2.67-1.05 3.32-2.9 1.49-4.23 2.16-8.5 2.65-12.98.75-6.77 2.59-13.42 4.1-20.1 1.6-7.01 3.37-13.98 5.13-21.25-1.74-2.2-3.8-4.62-5.66-7.19-6.75-9.32-13.41-18.71-20.15-28.05-3.77-5.23-7.77-10.3-11.37-15.66-4.08-6.07-7.72-12.42-11.73-18.55-3.61-5.51-7.52-10.82-11.19-16.3-2.42-3.63-4.91-7.25-6.92-11.11-2.75-5.31-5.07-10.83-7.6-16.25-.17-.37-.46-.68-.9-1.3l-9.04 7.67c1.29 1.89 3.4 3.67 3.7 5.7.56 4.03 1.49 7.9-.72 12.35-4.37 8.8-7.37 18.28-11.06 27.44-2.77 6.86-5.74 13.65-8.73 20.73l42.16-23.18c2.69 3.77 5.66 7.6 8.27 11.65 4.06 6.32 7.9 12.77 11.76 19.2 1.02 1.7 1.15 3.14-1.58 3.25-.76.03-1.57.73-2.24 1.27-2.5 2.02-4.71 4.49-7.44 6.1-14.9 8.81-29.71 17.82-44.96 26-13.4 7.17-27.33 13.34-41.01 19.98-.67.32-1.2.91-1.97 1.51-.9-.76-2.33-1.57-3.18-2.8-5.29-7.58-10.72-15.1-15.53-23-1.98-3.23-5.78-6.88-1.65-11.3-1.74-.75-3.5-1.46-5.23-2.24-6.34-2.8-13.21-4.83-18.88-8.64-9.89-6.66-20.7-10.64-31.98-13.77-.74-.2-1.6-.03-3.23-.03zm-130.78-337.7c-1.22.44-2.13.94-3.1 1.09-3.37.51-6.78.74-10.13 1.38-6.87 1.3-13.7.86-20.58.06-.99-.11-2.92.77-3.03 1.42-1.04 6.53-1.8 13.1-2.6 19.66-.07.56.11 1.2.33 1.73 1.05 2.54 2.32 5 3.16 7.61.45 1.41-.18 3.2.35 4.56 2.02 5.13 1.18 10.4 1.03 15.6-.08 2.84-1.55 5.65-1.53 8.47.02 3.1-1 5.57-2.66 7.9-2.6 3.63-1.94 6.5 1.88 8.6 1.54.83 3.32 2 4 3.47 1.38 2.98 2.1 6.27 3.05 9.34 3.21-.25 6.17-.95 8.9 2.33l-5.99 4.07c.64.8 1.2 1.53 1.82 2.23 3.4 3.86 5.5 8.76 10.84 10.98a27.4 27.4 0 0 0 15.93 1.82c5.08-.84 8.58-3.93 12.8-5.86 4.08-1.88 8.04-4.46 11-8.23 1.65-2.09 3.9-3.68 6.21-5.8.17 8.44-3.82 13.65-10.28 17.09 2.05 2.83 4.35 5.38 5.95 8.32 4 7.32 4.27 15.34 1.89 22.98-2 6.4-5.31 12.45-8.62 18.33-2.54 4.52-5.97 8.55-9.52 13.5 4.5-1.79 8.35-3.32 12.2-4.83 1.27-.5 2.7-.76 3.8-1.53 3.46-2.44 6.9-4.93 10.15-7.65 5.27-4.41 10.3-9.11 15.56-13.54 5.23-4.4 10.65-8.57 15.94-12.91 4.1-3.36 7.92-7.08 12.22-10.15 2.94-2.1 6.5-3.34 9.74-5.02.9-.47 1.7-1.14 2.74-1.86-.77-.64-1.11-1.05-1.55-1.26-4.27-1.95-8.66-3.53-11.47-7.85-1.67-2.55-3-5.1-2.07-7.9.95-2.87 1.96-6.23 6.58-6.26-1.08-1.44-1.65-3.04-2.59-3.28a11.5 11.5 0 0 0-5.5.03c-.84.21-1.28 1.85-2 2.78-.5.65-1.14 1.18-1.72 1.76-3.44 3.43-7.55 5.9-12.32 6.38-4.3.44-8.86.07-12.39-2.86-6.28-5.2-7.74-16.07-3.46-23.04.98-1.6 2.85-3.55 2.51-4.9-.71-2.93 1.22-3.45 2.73-4.7a108 108 0 0 0 6.74-6.1c2.73-2.7 5.32-5.56 7.83-8.2-.1-1.9-.06-3.81-.3-5.69a38 38 0 0 0-1.19-5.6c-.96-3.33-6.36-4.73-9.29-3.04-3.06 1.77-6.52 2.87-9.88 4.08-1.01.37-2.33-.15-3.37.17-5.59 1.76-10.16-.96-14.27-3.82-3.7-2.57-6.67-6.2-9.82-9.5-1.16-1.23-1.9-2.85-2.87-4.27-.42-.62-.9-1.2-1.34-1.81-3.22-4.42-6.6-8.74-9.6-13.31-1.37-2.1-1.94-4.7-2.84-6.97m-89.26 419.66c1.43-2 2.73-4.1 4.3-5.98 5.79-6.85 12.38-12.04 22.16-11.48 5.85.32 11.45-.85 15.22-5.22-.18-5.5-.52-10.65-.49-15.8.05-7.47.34-14.94.61-22.4q.19-4.9.73-9.8c.72-6.43 1.54-12.86 2.35-19.29.92-7.32 1.35-14.76 3-21.93 1.32-5.76.03-10.88-1-16.3-2.87 2.47-5.44 4.84-8.19 6.98-3.87 3.01-7.34 6.2-7.5 11.6 0 .45-.53.94-.9 1.31q-4.52 4.58-9.11 9.05c-6.04 5.86-11.6 12.38-18.32 17.33-6.05 4.46-13.31 7.33-20.2 10.58-1.86.88-3.1 1.9-3.33 3.74-.94 7-1.6 14.04-2.59 21.04-.6 4.41-.78 9.02-4.51 12.4-1.7 1.55-3.03 3.51-4.55 5.32 13.26 6.14 22.08 17 32.32 28.84zm194.78-175.65-1.27 5.35c-3.13-.77-3.8 1.42-4.75 3.64a5.2 5.2 0 0 1-2.67 2.47c-8.25 3.3-16.44 6.82-24.9 9.5-4.45 1.43-6.52 4.37-7.96 8.16-.38.98 0 2.7.68 3.56 2.87 3.66 6.07 7.05 8.98 10.68 1.66 2.07 2.86 4.53 4.52 6.6 1.31 1.64 3.54 2.7 4.44 4.48 2.11 4.15 3.49 8.67 5.55 12.84.67 1.33 2.66 3.03 3.88 2.9 11.05-1.18 22.05-2.7 33.06-4.2.9-.11 2.3-.6 2.48-1.2 1.4-4.68 3.18-9.37 3.67-14.18.83-8.17.88-16.43 1.05-24.66.03-1.6.7-4.76-3.1-3.3-.3.12-.94-.34-1.28-.68-4.03-4.15-7.96-8.4-12.08-12.47-3.46-3.41-7.15-6.6-10.3-9.49m-232.61 149.9c-4.32 7.41-8.28 14.44-12.46 21.34-2.93 4.87-6.28 9.49-9.22 14.36-3.74 6.21-7.24 12.57-10.83 18.87-.24.41-.52.92-.5 1.36.29 5.18.63 10.36 1 16.23 2.26-2.52 4.38-5.06 6.7-7.43 2.72-2.78 5.28-5.91 8.52-7.93 2.47-1.54 3.2-3.4 3.5-5.74.26-2.03-.14-4.14.1-6.17.35-2.9 1-5.77 1.53-8.65l1.04.1c3.36 9.61 1.67 19.54 1.35 29.57 1.43 0 2.86.06 4.29-.01 2.03-.12 7.84-3.92 7.53-5.28-.74-3.25.73-5.71 1.7-8.56a26.6 26.6 0 0 1 13.8-15.91c3.4-1.71 6.76-3.5 10.18-5.14.6-.28 1.5.05 2.89.13 0 0 .6-.57 1.1-1.2.55-.71 1.02-1.49 1.76-2.6-10.53-10.14-21.76-19.47-33.96-27.35zM855.8 917.8c.16 1.91-.04 3.62.47 5.09 2.22 6.37 2.3 13 2.3 19.56 0 5.4-.7 10.79-1.2 16.17-.4 4.04-.65 8.13-1.56 12.06a553 553 0 0 1-6.48 25c-3.77 13.36-8.98 25.96-19.61 35.55-4.78 4.31-10.04 7.48-16.74 7.24-2.2-.07-4.41-.47-6.62-.72 3.67 3 7.12 5.88 12.08 5.83 6.3-.08 11.92 1.08 17.49-5.07a87 87 0 0 0 17-28.06c4.42-11.74 8.09-23.82 10.03-36.29.99-6.29 1.95-12.6 2.4-18.95.3-4.35-.44-8.76-.5-13.15-.12-7.04-.54-13.99-2.24-20.9-.67-2.68-2.15-3.07-4.19-3.33-.88-.12-1.8-.02-2.65-.02zm-635.63 70.7c-4.38 7.22-5.24 12.87 1.29 18.5 7.84 6.76 16.22 12.77 25.49 17.26 11.76 5.7 24.3 9.37 37.26 11.08 11.81 1.56 23.68 3.03 35.56 3.57 7.66.35 15.4-1.01 23.1-1.73.64-.06 1.19-1.07 2.27-2.1-2.22.16-3.41.39-4.58.3-9.41-.78-18.87-1.26-28.22-2.55a298 298 0 0 1-28.72-5.31 136 136 0 0 1-38.7-15.87c-9.86-5.93-19.55-11.72-24.74-23.15zm593.87-36.42c2.7-7.12 5.05-14.45 8.33-21.35 1.25-2.63.29-3.46-1.1-4.72-5.06-4.6-10.17-9.13-15.26-13.68-.01-.22-.8.76-1.24 1.88-3.3 8.57-7.04 16.82-15.45 21.71l12.47 15.88c4.06-1.6 8.38-1.9 12.24.3zm-92.92-569.12c3.6 4.57 7.1 8.9 10.44 13.35.92 1.22 1.4 2.8 1.96 4.26.23.62.13 1.36.18 2.05.72-.15 1.54-.11 2.14-.47 2.89-1.74 5.61-3.76 8.6-5.3 1.84-.94 1.83-1.74.86-3.24a117 117 0 0 1-4.22-7.07c-4.1-7.48-10.35-13.2-16.15-19.23-1.61-1.67-4.2-4.1-5.84-3.76-6.08 1.23-11.95 3.48-18.24 5.45 4.63 2.96 9.14 5.45 13.16 8.58 1.73 1.35 3.48 1.18 4.3.36 2-2.02 4.12-1.26 6.26-1.03.56.05 1.38.66 1.5 1.15.11.53-.3 1.4-.77 1.8-1.27 1.08-2.69 2-4.2 3.1zm61.5 20.67-.6-.75c-2 .78-4.31 1.16-5.92 2.44-3.3 2.6-6.22 5.66-9.23 8.6-.33.32-.52 1.3-.28 1.62 2.14 2.92 4.62 5.63 6.52 8.7 1.07 1.73 2.67 2.93 3.43 5.1 1.68 4.82 3 5.31 7.32 3.74 2.43-.9 3.52.23 4.7 1.9 1.34 1.88.81 3.47-.69 4.88-.88.83-1.9 1.5-2.88 2.27l2.31 4.13q.1-.41.18-.84c2.64-.08 5.32.08 7.9-.36 1.36-.22 2.59-1.44 3.74-2.36.29-.22.3-1.27.04-1.61-2.26-2.88-2.16-3.66.88-5.26 2.87-1.5 3-3.03.25-5.2-1.9 2.93-4.14 2.2-6.52.19v-6.2c-1.56-.26-3.8-.04-5.17-1.03-2.24-1.6-2.28-4.63-1.63-6.98 1.08-3.9 4.76-3.33 8.09-3.2-.15-1.47.15-3.03-.47-3.58-1.29-1.15-2.98-2.23-4.65-2.53-2.17-.39-1.54 1.7-1.94 2.99a15 15 0 0 1-2.53 4.7c-.6.78-2.16 1.61-2.85 1.33a5.2 5.2 0 0 1-2.53-2.78c-1.4-3.71-.47-7.07 2.52-9.9zM550.65 300.18l.7.58c-1.7 1.84-3.12 4.18-5.2 5.3-1.12.59-3.37-.95-5.76-1.73l-2.16 15.03 8.53 4.06 8.79-3.15 1.38 3.17.92-.04c0-5.28.06-10.57-.04-15.86-.03-1.55-.57-3.08-.75-4.64-.14-1.16-.31-2.4-.03-3.52 1.02-4.1.74-8.66 4.51-12.05-2.74.62-5.28 2.03-6.98 1.36-1.84-.73-2.9-3.42-4.52-5.54l-3.32 5.9c1.4 1.85 2.54 3.35 3.64 4.9.05.07-.47.78-.77.8-2.4.24-4.81.4-7.51.59l2.9 7.79zm-.9 25.16 2.2 5.34-.64.37-2.98-3.31c1.55 5.62-2.88 6.92-6.12 9.17l8.84 1.2-.78-3.9c1.66 1.18 3.33 1.75 3.5 2.61.82 3.98 1.2 8.06 1.67 11.49l-13.82 4.25c.72 8.54 3.8 16.53 7.35 23.44 3.36-.18 6.42-1.1 8.9-.28 2.53.84 4.5 3.39 6.57 5.08l-3.88-12.8c-3.08.2-5.97 4.02-9.43 1.66-2.79-1.9-4.27-9.88-3.05-12.91 1.73-4.35 5.5-3.69 9.27-3.24-.34-4.46-.76-8.52-.9-12.6-.16-4.21-.04-8.43-.04-12.77-1.5 1.03-3.14 2-4.25-.2l2.81-5.18-.78-.46zm141.63-51.95c5.8.93 10.02 3.67 12.7 8.64 2.68 5 1.56 10.2.54 15.63 6.44-5.87 4.57-18.09-3.5-24.14 3.45.7 5.77 2.83 7.27 6l4.17 8.88c3.74-5.92 2.49-14.6-2.74-19.13-4.38-3.8-12.28-2.04-18.44 4.12m-166-61.41c0 3.44-.34 6.92.1 10.29.49 3.86 3.79 5.9 6.74 7.77 4.5 2.86 9.5 2.2 15.96-1.87-10.13-2.16-13.37-9.75-15.1-18.17zm156.4 124.55c7.84-.76 9.2-2.01 14.92-5.6 7.67-4.8 8.59-12.73 2.46-18.47-.62-.58-2.06-1.15-2.55-.84a5.6 5.6 0 0 0-1.93 2.8c-.36 1-.16 2.22-.38 3.3-1.2 5.86-4.9 10.27-8.7 14.56-1.28 1.45-3.07 2.44-4.63 3.64q1.9 2.36 3.82 4.7c.07.08.31.01.44.01l.39-3.09zm-121.6-68.2 2.7 1.4-5.8 1.56-2.54-1.72-.81.88c1.14 1.43 2.1 3.8 3.46 4.05 1.68.32 3.7-1.12 5.57-1.8-1.17 4.4-5.3 4.6-8.62 5.95 2.4 2.44 7.52.44 8.1 6.43 5.87-12.2 15.4-17.95 27.06-20.6l.31-4.08-6.78-1-2.12 2.96 4.81.88-.1.98-7.11-.76c-5.5 7.75-8.99 8.41-15.74 2.43l-2.37 2.42zm128.6 85.99-15.13-13.73c.21 3.93-3.06 5.14-5.45 6.9 2.5 6.19 6.39 10.89 13.09 12.22zM388.97 97.08c1.3-5.43 2.04-10.85 3.95-15.83a20 20 0 0 1 9.54-10.92 9 9 0 0 0-2.67.01c-9.02 1.4-16.38 10.22-16.48 19.74-.06 4.57 1 5.87 5.66 7M710.9 356.83c-1.03-.54-1.9-1.02-2.8-1.46-1.24-.62-2.67-1.94-3.71-1.69-2.86.7-6.81 1.3-8.02 3.33-1.88 3.12-4.6 3.31-7.15 4.48-.48.23-.91.58-1.36.87l.29.84c7.84-1.01 14.98-4.86 22.75-6.37m-175.46-26.38c.65.7 1.58 2.5 2.96 2.99 2.21.76 5.69-2.21 5.85-4.43.16-2.36-1.78-5.27-3.56-5.37-2.96-.17-4.56 1.05-5.26 6.81zm-94.99-84.9c-1.99 8.79-1.85 14.38 6.48 19.18-2.75-5.93-5-11.5-2.9-17.24zm245.3-109.33c4.04-6.95-2.04-21.34-10.36-24.47 1.7 2.71 3.87 5.1 5.57 7.78 1.72 2.72 3 5.74 4.56 8.83l-1.69-2.4-.97.76zM551.67 362.9c-.01 3.14.4 3.45 4.68 3.44 2.11 0 4.69-2.7 4.57-5.1-.16-2.99-2.8-2.73-4.66-2.86-3.27-.23-4.57 1.27-4.59 4.53zM438.13 105.3c-.47 1.64-1.06 2.57-.9 3.33.9 4.26 2.05 8.46 3 12.7 2.23 9.82 13.1 12.43 21.64 9.2-2.18 0-4.03.11-5.86-.03-6.4-.5-11.24-2.68-14.15-9.33-2.18-4.98-2.66-10-3.74-15.88M828.1 500.98c-2.1-6.68-7.15-10.66-12.32-14.52l-.64.5 10.8 17.15 2.15-3.13zM551.48 339.41q-7.09 2.74-8.45 9.18l9.33-1.67zM820.21 975.6c-4.12.16-7.38-2.55-10.7.28-.67.56-1.56 1.48-1.47 2.12.08.64 1.21 1.58 1.94 1.64 3.58.26 7-.27 10.22-4.04zm3.27 8.78c-3.46-.76-6.46-.76-8.68 2.14-.64.84-.88 1.99-1.32 3 1 .33 2.11 1.15 2.95.92 3.06-.83 5.6-2.5 7.05-6.05zM455.28 57.35c-6.42 1.28-13.36 9.9-11.53 14.4zM276.51 984.5c-1.89-1.13-3.31-2.53-4.9-2.73-.94-.12-2.83 1.47-3.05 2.56-.47 2.31 2.44 4.74 5.08 4.68 3.11-.08.93-2.84 2.86-4.5zm418.63-793.6c-1.23-4.12-4.27-5.7-8.06-6.13-.75-.09-1.58.48-2.37.75.42.44.8.9 1.24 1.32 1 .95 2.12 1.8 3 2.85 1.73 2.1 3.62 3 6.18 1.22zm-26.79 27.62c14.7 2.34 18.1 11.17 15.45 23.92.97-5.85 3.23-11.34-.4-17.18-3.5-5.68-8.37-7-15.05-6.74m-72.49 36.93c-.77.83-1.85 1.74-2.61 2.87-.64.93-1.4 2.3-1.14 3.17.28.9 1.68 1.88 2.7 2.02 2.17.31 4.42.1 6.64.1l-.02-.4-1.87-.76c-1.5-2.81-2.63-4.97-3.7-7m-310.1 731.53c1.27-4.88-1.93-6.44-5.12-8.47-.59.5-2.3 1.3-2.33 2.15-.04 1.12 1.04 2.57 2.04 3.35 1.53 1.18 3.41 1.9 5.4 2.97zM657.39 300.6c.83-7.36-2.87-12.6-5.52-18.1-1.18-2.43-3.23-2.53-4.78-.92 6.9 4.14 7.83 11.66 10.3 19.02M571 47.06c2.4.8 4.75 1.78 7.2 2.34 1.86.43 3.86.22 5.78.46 1.33.17 2.62.62 4.37 1.06-3.5-4.09-8.5-5.3-17.35-3.86m62.36 90.33c1.58-3.35-.68-9.65-3.33-11.04-4.63-2.44-13.57-.61-15.97 4.49 4.07-3.37 7.83-4.67 12.74-3.59 5.51 1.22 5.55 5.44 6.56 10.14M448.44 613.3l12.64 9.69c1.07-1.28 1.2-2.24-.78-3.1-1.34-.58-3.35-1.8-3.4-2.81-.23-4.68-3.21-4.06-6.2-3.78-.48.05-.97 0-2.25 0zm75.06-475.1-.95.4c.99 2.08 1.44 4.92 3.08 6.04 2.47 1.7 5.7 2.42 8.7 3.12 1.44.32 3.1-.36 4.67-.6l.07-.82c-6.33-.63-12.57-1.4-15.57-8.14M288.15 978.06c-1.2 4.05-1.17 4.2 1.22 4.78 2.01.5 4.87-1.34 5.33-3.48.09-.45.05-1.07-.2-1.4-2.09-2.73-4.12 1.35-6.35.1m509.4-517.85-1.07.77 11 14.9c-2.82-5.56-4.5-11.92-9.94-15.67M692.96 278.45c-.24 4.83 1.09 7.42 3.95 7.92.5-4.63-.35-6.4-3.95-7.92M575.7 263.27l-7.11-5.4v5.96zM617 65.57l6.19-2.8.08-.62-9-1zm-61.85 221.92 5.63-4.64-7.34-.72zM463.67 60.65l-5.83 4.9q4.43 2.77 5.82-4.9m200.22 52.17c-2.43-1.7-2.45-3.59-6.67 2.6 2.94 1.34 4.61-.81 6.67-2.6m94.8 351.87-10.12 4.57c2.13 1.56 7.44-.67 10.12-4.57M416.8 92.08q2.5-.76 5.48-5.56c-2.24-.68-5.3 2.26-5.48 5.56m280.8 698.08-.8.95 9.99 8.25.76-.91zm-67.04-642.63 1.04-.34c-1.02-3.47-1.84-7.03-3.13-10.4-.74-1.97-2.44-2.51-4.15-1.13 5.57 2.2 5.26 7.38 6.24 11.87m-105.8 10.02.12 1.26 11.82-.68-.07-.58zM499.2 49.8l-.2-.51c-3.07 1.41-6.14 2.8-9.18 4.28-.15.07-.04.69-.06 1.05.5-.02 1.1.15 1.48-.08 2.67-1.54 5.3-3.15 7.95-4.74zm-24.47.19c-1.46-3.4-2.58-3.39-6.19.62zM794.47 423.9h3.37c.43-1.66 2.48-3.49-.64-4.34zm-73.45 79.87 1.12.15c.12-1.7.15-3.4.4-5.07.2-1.38.65-2.72.98-4.08l-1.21-.23zm23.14-129.12c-1.77-5.63-3.58-7.53-5.2-6.13zM402.57 116.63l-2.7 5.96c2.49-1.2 4.76-2.49 2.7-5.96m47.53-46 1.27.77 3.35-6.07-.7-.37zm-30.66 101.26.4-.93-6.25-2.7-.42 1zm32.9 121.27.6.22.96-2.16-.5-.23zm126.5 90.64.51-.48-1.3-1.08-.34.37zM450.56 71.45l-.47-.4-1.12 1.51.37.33zm161.72 59.7 1.76-.19-.1-.69zm-199.66 35.84-.7.5c.14.1.28.3.44.32.22.02.45-.1.67-.16z"/><path fill="#000" d="M450.87 691.8 428 690.38c1.25-3.04 2.2-5.33 2.9-7.07h10.95l.13-1-9.99-1.39 5.3-12.35c2.15 2.23 4.85 2.44 6.7 1.12 1.41-1 2.6-3.87 2.17-5.45-.43-1.65-2.92-2.76-4.77-4.33l2.92-6.06 5.94-1.55-.07.08c1.03-1.07 3.05-2.31 2.9-3.15-.4-2.04-1.79-3.9-2.78-5.82l-.85.27c.82-1.37 1.57-2.79 2.52-4.06.38-.5 1.24-.94 1.85-.9 5.47.33 10.94.7 16.38 1.27.65.07 1.77 1.58 1.63 2.12-.99 3.45-2.18 6.86-3.46 10.21a207 207 0 0 1-5.02 12.24c-3.9 8.5-7.99 16.9-11.97 25.35-.3.63-.4 1.33-.6 2l.11-.1z"/><path fill="#000" d="M440.4 669.02c-.43-.54-1.63-1.4-1.9-2.5-.4-1.71 2.35-4.45 4.05-4.07.8.18 1.81 1.35 1.97 2.21.41 2.23-1.29 4.28-4.12 4.36m9.85-16.73h-4.35c-.08-3.76 2.66-4.18 6-5.3-.7 2.21-1.21 3.8-1.73 5.37z"/><path fill="#fff" d="M668.37 218.48c6.68-.25 11.54 1.07 15.05 6.74 3.61 5.84 1.36 11.33.39 17.19 2.67-12.75-.74-21.58-15.44-23.93m-10.97 82.1c-2.47-7.36-3.4-14.88-10.3-19.02 1.56-1.6 3.6-1.51 4.78.93 2.65 5.5 6.35 10.73 5.53 18.09m-24.05-163.21c-1-4.7-1.05-8.93-6.55-10.14-4.91-1.1-8.68.21-12.75 3.59 2.4-5.1 11.34-6.93 15.98-4.5 2.65 1.4 4.9 7.7 3.32 11.05m30.6 7.27c-1.6-1.51-2.94-3.52-4.82-4.45-5.37-2.66-7.69-3.25-11.64 1.44.36-2.12 4.67-5.65 6.82-5.56 4.08.17 9.45 4.43 10.07 8zm-140.44-6.46c3 6.73 9.24 7.51 15.56 8.14l-.07.83c-1.56.23-3.23.91-4.66.59-3.01-.7-6.25-1.42-8.7-3.12-1.64-1.12-2.1-3.96-3.1-6.03zm7.16-39.9c-3.7.13-7.52.05-9.86 3.68-.99 1.53-1.71 3.23-2.82 5.36-.87-3.68 1.17-5.84 3.06-7.9 2.29-2.46 6.36-2.8 9.53-1.05z"/><path fill="#fff" d="m530.59 98.37 1.6-.49.4.55c-1.7 3.46-3.92 6.8-2.5 10.96l-.4.62c-2.08-3.44-1.66-6.8.29-10.14.29-.5.46-1.06.68-1.59l-.09.1zm99.98 49.12c-.97-4.49-.66-9.67-6.24-11.87 1.71-1.38 3.4-.84 4.15 1.12 1.29 3.38 2.11 6.94 3.13 10.41zm-105.8 10.03h11.87l.07.57-11.82.68zm-63.86-38.3h10.5l-.06 1.22a13.4 13.4 0 0 1-10.67-1.07zm-58.34-2.63c2.07 3.47-.2 4.76-2.7 5.96zm47.53-46 3.93-5.67.7.37-3.36 6.07zm214.29 73.47 2.84 6.36-.72.29-2.56-6.07z"/><path fill="#fff" d="m532.19 97.88 2.01-1.48.31.4-1.93 1.63zm-72.78 20.93-1.86-.89.32-.62 1.94 1.09zm-8.84-47.4-1.22 1.44-.37-.33 1.12-1.5zm107.92 319.05.59.61-.97.56zm-27.47-280.1.13.9-.56-.5z"/><path fill="#fff" d="m460.69 119.37-1.29-.56.4-.42 1.11.83zm69.89-8.62-.88-.74.39-.62.91.96zm81.7 20.36 1.65-.88.11.7zm-49.5 256.14a.5.5 0 0 1 .19-.4q.1.28-.19.4"/><path fill="#000" d="M495.75 435.8c.26 4.8-2.96 3.7-5.21 4.4-8.63 2.75-17.6 2.05-26.4 2.84-2.06.19-4.76-.03-4.75-2.53 0-2.54 2.7-2.36 4.73-2.4 7.47-.18 14.95-.27 22.41-.68 3.09-.17 6.13-1.06 9.21-1.63zM510 563.6c-2.78.52-5.02 1.13-7.3 1.34-7.7.72-15.41 1.31-23.12 1.91-.8.07-1.82.14-2.39-.27-.9-.67-1.5-1.75-2.22-2.65.94-.47 1.86-1.27 2.82-1.34 7-.51 14.02-.87 21.03-1.3 1.73-.1 3.48-.2 5.18-.48 2.36-.39 4.16.31 6 2.79m121.85 12.14-41.61-8.68.19-.9c14.24 1.06 27.94 4.77 41.58 8.8zm-5.88-120.67c1.66-9.25 3.22-18.01 4.8-26.76.18-.98.27-2.1.83-2.84 1.19-1.58 1.92-4.16 4.7-3.4 2.74.76 1.38 3.17 1.31 4.69-.41 9.25-3.2 17.92-7.51 26.04-.66 1.25-2.23 3.74-4.13 2.27m83.2 91.26c5.25.27 5.37.31 6.91-4.71 2.68-8.73 8.48-14.8 15.53-20.35 5.51-4.34 11.24-7.66 18-9.1 13.3-2.81 25.69-.83 35.89 8.62 6.16 5.72 10.3 12.72 10.73 21.68.8 17.32-6.6 30.25-20.73 39.42-8.28 5.37-17.64 5.92-27.43 4.98-11.84-1.13-20.36-7.04-27.41-15.97-.52-.67-1.84-.94-2.8-.98q-4.3-.15-8.6.07c-1.58.08-3.27.2-4.7.83-5.63 2.43-10.23 1.7-14.53-2.7-6.55-6.67-6.24-14.15-.87-20.62 2.1-2.54 5.27-4.44 8.29-5.94 5.81-2.9 8.23-1.73 11.73 4.76zm20.09-3.24c-1.2-2.13-.22-3.65 1.7-3.93 4.54-.65 9.01-.63 12.3 3.56 3.5 4.44 4.2 12.5-.35 15.7-3.84 2.7-8.52 4.4-10.28 9.47l2.2 2.72c1.15-.5 2.34-1.53 3.26-1.33 1.6.36 2.38 1.72 2.2 3.63-.1.83.45 2.05 1.11 2.57 1.3 1 2.87 1.64 3.66 2.06 1.73-1.02 3.02-2.34 4.35-2.39 1.07-.03 2.2 1.46 3.3 2.28l-1.98 1.72c8.35 3.25 22.72-.31 30.85-10.44 9.42-11.75 9.68-25.2 1.41-38.64-5.07-8.25-20.54-16.53-34.99-11.66-13.69 4.61-20.24 13.86-21.54 25.54zm-5.4 4.53-10.92 2.2 2.86 13.23 12.51-3.04zm4.2-1.21 1.61 13.34c2-1.07 3.82-2.32 5.84-3.06 2.75-1.03 3.56-3.21 2.98-5.5-1.63-6.38-3.52-8.07-10.43-4.78m-24.76 4.53c0 2.54-.15 4.99.03 7.42.35 4.51 2.99 6.74 6.88 6 1.25-.23 2.49-.57 3.93-.91-2.7-3.98-5.29-7.98-3.32-13.37zm-3.11.66c-3.4-.32-6.81 1.95-7.4 4.86-.6 2.94 2.3 6.24 6.77 7.57-1.85-4.28-1.77-8.42.63-12.43m-50.43-31.07c1.19 2.05 2.23 3.83 3.24 5.64l7.03 12.6c2.45 4.4 4.97 8.76 7.32 13.2.52.98.44 2.28.63 3.42l-1.1.47c-1.69-2.17-3.44-4.3-5.04-6.52-4.46-6.21-8.91-12.42-13.25-18.72-1.79-2.6-1.45-7.44 1.17-10.09M442.14 176.26c.48-1.83.42-3.68 1.32-4.62 2-2.12 4.24-4.38 6.84-5.55 6.96-3.11 13.82-1.29 20.38 1.7.74.34 1.21 2.3 1.02 3.35-.14.8-1.48 1.79-2.42 1.96-4.44.8-8.94 1.18-13.37 2.03-2.5.48-4.93 1.5-7.33 2.42-3.65 1.39-3.63 1.44-6.43-1.29zm5.92 9.76c2.25-.16 4.5-.4 6.75-.47a57 57 0 0 1 6.8.1c.95.08 1.85.78 2.76 1.21-.6 1.05-1.11 2.91-1.83 3-3.8.45-3.95 2.75-3.8 5.76.05 1.16-1.08 2.37-1.68 3.57-1.53-.81-3.6-1.25-4.47-2.52-2-2.9-3.43-6.2-5.08-9.33zm82.87-.2 1.76 6.8c-1.17-.47-1.91-.62-2.5-1.02-3.17-2.13-3.14-2.15-5.1 1.15-.49.82-1.11 1.56-2.12 2.95-.82-4.37-.57-7.73 1.1-10.99 1.7-3.35 4.06-5.94 8.15-6.75.85.68 2.24 1.58 3.32 2.77.41.46.45 2.02.08 2.3-1.54 1.15-3.3 2-4.69 2.79M393.7 534.89l-9.56-7.74c-1.48-1.2-3.13-2.26-4.4-3.66-.92-1.01-1.33-2.5-1.97-3.77.88-.2 2.18-.9 2.57-.55 3.25 2.9 6.36 5.96 9.48 9a55 55 0 0 1 3.85 4.04c.48.57.56 1.46.83 2.2zm8.93 2.26c2.97-3 6.16-1.36 8.94-1.92 0 .83.23 2.28-.06 2.4-2 .82-4.1 1.6-6.23 1.86-.71.08-1.61-1.38-2.65-2.35zm149.49-230.27c1.87.41 3.78 2.91 3.88 5.32.1 2.14-1.84 4.41-3.9 4.62-1.52.15-3.6 1-4.43.33-1.88-1.55-3.28-3.77-4.57-5.9-.25-.42.68-2.2 1.38-2.44 2.47-.86 5.08-1.31 7.64-1.93m1.42 4.16-.63-.67-6.64 1.64 2.77 4.24z"/><path fill="#000" d="m773.44 564 2.41 2.6c-2.98 4.72-7.39 6.77-12.55 7.7-9.44 1.74-17.56-1-24.62-7.23-.81-.7-2.94-1.69-.6-3.26 6.45 8.98 23.25 13.92 35.36.18zm-7.9-21.2-6.6-10.39c3.49-.12 7.4 5.52 7.39 10.08zm.93-5.32-3.46-6.76 1.2-.57 3.14 6.91z"/></svg>