<svg xmlns="http://www.w3.org/2000/svg" width="1080" height="1080" fill="none" viewBox="0 0 1080 1080"><path fill="#fff" d="m788.39 1014.05-.02.95H173.73a4 4 0 0 1-.08-.8c2.12-.06 4.22-.17 6.34-.17h512.2q48.1 0 96.2.03z"/><path fill="#fff" d="m788.39 1014.05-96.2-.03H180c-2.12 0-4.22.12-6.34.17-2.38-6.78-2.4-9.84.93-15.98 2.07-3.81 3.23-8.58 8.47-9.84.69-.16 1.13-1.43 1.64-2.2 3.47-5.24 6.86-10.5 11.65-14.72 1.23-1.09 1.8-2.93 2.67-4.43l.33-.94.1-5.76-.12-2.06c-.55-1.26-.9-2.67-1.68-3.76a21 21 0 0 0-3.37-3.49c-2.57-2.2-3.45-4.93-2.94-8.2.87-5.66 2.84-10.68 8.14-13.68.8-.45 1.69-1.02 2.51-1 2.9.07 4.33-1.3 5.13-4.03.78-2.66 2.04-5.18 3.18-7.96-2.36-1.37-4.5-2.39-6.37-3.79-1.09-.8-2.32-2.16-2.44-3.37-.46-4.73-.91-9.56 2.59-13.62 1.15-1.33 2.03-2.9 3.02-4.36 2.12-.78 4.77 1.1 6.57-1.3 1.32-2.55 2.88-5 3.92-7.66 2.36-6.07 6.76-9.84 12.7-12.06.29-.1.56-.47.81-.46 8.56.8 14.97-4.56 22.14-7.71 1.28-.56 2.97-.56 3.9-1.43a31 31 0 0 0 5.26-6.16c1.92-3.07 3.2-6.53 5.1-9.62a16.7 16.7 0 0 0 2.54-9.3l-.1-2.14c-.05-7.65 3.46-14.52 4.77-21.88.22-1.25 1.45-2.37 2.3-3.47 1.49-1.9 2.98-3.79 4.58-5.58.73-.82 1.61-1.75 2.6-2.06 11.15-3.46 21.13-9.3 31.19-14.72.3-5.1.61-9.9.9-14.7l.36-.99c.1-.1.3-.22.29-.3-.04-.27-.16-.52-.25-.77l-.23-.1-.14.2q.24-.45.07-.94v-8.56c-8.85-3.59-17.97-7.27-27.07-11-7.94-3.25-15.87-6.55-23.97-9.9v-5.75l.12-1.05c1.54-4.97 2.85-10 4.67-14.86 2.17-5.8 5.11-11.33 7.02-17.2.88-2.72 2.47-4.18 4.64-4.78 3.91-1.1 8-1.59 12-2.33l6.3-.72 4.51-.3 6 .01 2.81.05c3.24-.34 6.67 1.33 9.7-1-.51-3.88 1.66-6.99 2.96-10.35 1.38-3.55.58-5.2-2.77-7.13-3.14-1.81-6.13-3.86-9.15-5.85-6.93-4.55-14.72-7.16-22.5-9.65-4.94-1.57-9.66-3.96-15.04-4.16-2.49-.1-3.48-2.36-2.53-4.92 1.68-4.56 3.66-9.01 5.22-13.6 1.2-3.58 1.98-7.3 2.92-10.97.8-3.17 1.45-6.39 2.43-9.5.24-.8 1.38-1.51 2.28-1.85 5.37-2.08 10.64-.58 15.92.56.9.2 1.86.12 2.8.16l3.93.25c1.14.3 2.27.72 3.44.9 2.5.4 5.08.47 7.54 1.03a47 47 0 0 0 13.9.85c.78-3.87 1.38-7.42 2.27-10.9.45-1.73-.07-3.5-1.46-3.44-5.51.17-4.32-4.02-4.98-7.01-.14-.6.09-1.28.14-1.92l-.14-2.09c1.66-5.3 3.68-10.54 2.87-16.26-.3-2.16-.23-4.74-1.4-6.34-1.42-1.94-3.8-3.5-6.07-4.4-8.89-3.52-18.02-6.43-26.85-10.1-7.05-2.91-14.7-4.92-20.29-10.66a31 31 0 0 1-5.6-7.49c-2.81-5.41-2.94-11.54-5.24-17.08-.8-1.93-.34-4.52-.05-6.75.32-2.27 3.3-3.58 6.41-3.04.93-3.17.23-5.04-2.57-7.56-5.14-4.61-11.13-5.81-17.36-6.95-3.52-.65-7.6-.34-8.22-5.38-2.91-1.4-4.97-4.56-8.61-4.4-6.66.3-8.29-4.81-6.05-10.14a63 63 0 0 0 2.92-8.03c.52-1.92.32-3.59-2.35-4.45-3.09-1-5.63-3.41-9.33-3-.77.08-2.3-1.88-2.53-3.08-.43-2.19-.7-4.69-.04-6.73 1.21-3.74 3.02-7.3 4.82-10.83 1.52-3 4.76-3.75 7.6-4.4 2.4-.55 4.12-1.51 4.84-3.67.83-2.44 2.82-2.7 4.76-3.3 2.17-.67 4.82-.42 6.1-2.96.12-.08.37-.18.36-.25-.02-.26-.12-.52-.2-.78-.26-6.4.16-12.73 1.72-18.96.45-1.81.08-3.9.79-5.56 1.57-3.7 4.72-5.8 8.75-7.08l.8-4.43-.15-1.14c-.04-.16-.11-.33-.1-.48.87-5.24-2.28-8.07-6.44-9.8-3.07-1.26-4.87-3.84-7.33-5.71-.6-.47-.88-1.61-.97-2.5-.26-2.24-.33-4.52-.47-6.78l-.12-2.08c.3-6.7 1.7-13.21 2.93-19.8 1.32-7.1 2.88-14.28 2.58-21.79-.28-7.2 2.46-14.28 3.7-21.43 1.3-7.56 3.94-14.7 6.07-21.98 1.51-5.2 4.57-9.92 6.62-14.99 1.62-4.01 4.98-7.47 4.1-12.37-.26-1.38-.73-2.06-2.16-1.91l-.02-2a5.3 5.3 0 0 0-3.94-2.99 42 42 0 0 1-9.63-3.42c-1.27-.63-2.48-1.95-1.77-4.35.71-2.37 1.5-4.6 2.57-6.85 1.85-3.97 3.1-8.21 4.83-12.24 1.38-3.2 3.2-6.19 4.58-9.37 1-2.3 1.6-4.76 2.41-7.14.35-1 .49-2.31 1.2-2.88 4.87-3.82 5.54-9.12 5.52-14.73 0-.8.1-1.61.15-2.42.12-.09.33-.19.32-.26-.03-.26-.14-.51-.22-.76l.53-5.76.26-1.13 1.55-9.78q.29-1.86.54-3.7l.63-1.14c.05-1.14.23-2.29.13-3.4-.67-7.16 3.06-12.25 8.09-16.5 1.3-1.1 3.58-1.46 5.41-1.45 2.6.01 4.5-.73 6.42-2.55 6.68-6.35 14.31-11.48 22.26-16.1 3-1.74 5.91-3.82 9.83-4.06l4.86 6.48q1.87 2.53 4.66 1.14c7.33-3.7 14.6-7.52 22-11.08a325 325 0 0 1 18.04-8.11c7.11-2.93 14.33-5.6 21.55-8.24 4.4-1.6 8.82-3.16 13.35-4.21 1.6-.37 3.92.4 5.3 1.43 1.82 1.37 3.56 1.31 5.47 1.09 2.07-.25 4.12-.62 6.18-.94l6.2-.8c3.37-.67 6.77-2 10.1-1.85 5.76.27 11-1.12 16.25-3.06 1.43-.53 3-.76 4.52-.96 3.3-.45 6.6-.79 9.9-1.18l6.14-.77 4.57-.16 7.25-.76 5.42-.29 9.09.01 2.62-.02 9.02.01 8.66-.88 9.96-.9a2 2 0 0 0 .79-.16l8.8.03h10.91l7.78-.02-.1.22 11.05.66 9.62.07-.12.15 6.9.94c4.52.65 9.02 1.49 13.56 1.9 3.36.3 6.78.06 10.07.06 1.2 1.02.66 3.2 3.1 3.15 1.23-.03 2.4 2 3.8 2.67 1.39.67 3.03.82 4.56 1.2l9.87.78c5.83-.19 11.28 1.8 16.87 2.97 8.06 1.68 16.13 3.27 24.19 4.93 6.16 1.26 12.45 2.16 18.46 3.96 10.05 3 20.2 5.95 29.77 10.13 8.95 3.92 17.24 9.36 25.75 14.26 9.75 5.61 17.73 13.5 26.25 20.7 1.22 1.03 2.19 2.37 3.22 3.61 1.52 1.85 2.69 3.47 1.37 6.32-.79 1.7.13 4.32.62 6.44 1.13 4.83 2.3 9.61 2.03 14.66-.11 2.08-.5 3.7-2.56 4.25 3.27 5.43 6.4 10.78 9.73 16 .98 1.53 2.5 2.72 3.79 4.05.67.7 1.8 1.3 1.96 2.1.31 1.6.68 3.63-.04 4.87-1 1.73-2.83 1.25-4.56.16-3.74-2.33-7.71-4.29-11.44-6.64-5.16-3.24-10.72-2.16-16.67-2.18 1.06 3.55 4.34 4.51 5.97 6.88l4 3.83 1.04.94 6.22 9.58c3.05 4.65 3.22 5.83 1.54 11.36 3.73 3.1 7.6 6.17 11.3 9.43q9.94 8.8 19.71 17.78c5.23 4.8 10.57 9.5 15.5 14.58 4.8 4.95 9.14 10.36 13.73 15.52 3.44 3.85 7.26 7.4 10.34 11.5a205 205 0 0 1 12.2 18.27c1.44 2.44 1.36 5.72 2.3 8.5 1.56 4.71.76 9.55 1.2 14.32l.05 1.1c-.88 2.36 1.58 4.87-.29 7.17-.72.9-1.44 2.33-2.3 2.45-1.5.2-2.04-1.02-2.66-2.61-2.1-5.44-4.77-10.68-7.25-16.04-4.54 3.18-5.53 7.01-3.67 13l.39.9c-.02 3.57.18 7.15-.1 10.69-.43 5.3-1.49 10.5-3.84 15.45l2.16 3.04.18 2.13c-.39 5.27-1.73 10.4-1.68 15.78.03 3.32-1.27 6.77-2.57 9.93-2.48 6.01-5.35 11.88-8.15 17.76q-4.93 10.4-10.06 20.7a116 116 0 0 1-6.24 11.33 31 31 0 0 0-4.12 10.44 96 96 0 0 1-3.16 11.3c-1.29 3.64-1.38 6.69 1.89 9.46 1.4 1.19 2.14 3.14 3.26 4.7 1 1.4 2.09 2.4 3.9 3.15 2.4 1 4.2 3.41 6.72 5.61L849 482.52c1.93 4.3 1.54 5.42-6.96 19.54 1.92 2.4 3.9 4.9 5.92 7.34 1.51 1.83 2.45 3.83 1.95 6.25-.14.69-.59 1.86-.95 1.88-3.17.16-1.42 2.7-2.07 4.04l-.78 2.06c-1.3 7.8-6.34 13.76-10.15 20.28a138 138 0 0 1-10.56 15.74c-2.71 3.46-4.04 7.45-6.06 11.16a304 304 0 0 1-16.16 26.27c-4.32 6.3-8.75 12.62-14.58 17.78-1.12 1-1.54 2.99-1.95 4.6-.77 3.02-1.9 5.67-5.03 6.93l-7.9-.12-8.74-1.16-5.9-.8c-1.27-.16-2.65-.07-3.79-.55a47 47 0 0 0-17.62-3.57c-.81-.3-1.64-.91-2.42-.86-4.15.29-8.42-.91-12.45.9-1.44 2.63-2.82 5.3-4.36 7.89-.97 1.64-.35 2.8.9 3.78 2.9 2.26 5.85 4.46 8.77 6.7 4.05 3.08 8.1 6.15 12.1 9.3a3685 3685 0 0 1 23.62 18.76c7.11 5.7 14.17 11.48 21.25 17.23 3.6 2.92 7.14 5.94 10.81 8.77.79.6 2.02.8 3.07.87q3.15.16 6.3 0c4.2-.2 6.9 1.88 8.77 5.45 1.89 3.62 3.51 7.25 2.5 11.63l-3.27 1.83c.03.2.13.44.1.67-.22 1.49.04 3.39-.78 4.39-3.6 4.4-6.31 9.48-10.84 13.24-3.29 2.74-5.76 6.46-8.58 9.75-1.67 1.95-3.3 3.93-4.56 5.44l7.56 13.1c-3.68 5.53-9.24 8.1-14.2 11.37-3.46 2.29-8.86.94-12.11-2.5-1.44.95-3.01 1.76-4.31 2.88-4.2 3.58-8.26 2.77-12.44-.04-3-2-6.1-3.84-9.46-5.94-.58.44-1.26 1.04-2.02 1.52-3.33 2.1-6.26.97-9.08-2.1-2.28-2.47-5.54-4.05-8.35-6.03-3.86-2.71-8.27-2.33-12.58-2-2.58.18-3.49 3-1.52 5.02 2.34 2.4 5.11 4.39 7.62 6.62 2.63 2.34 5.24 4.71 7.73 7.2.47.46.59 1.55.46 2.29-.56 3.22 1.3 5.32 3.7 6.44 2.94 1.37 4.2 3.57 5.06 6.75-3.81 5.92-7.66 12.15-11.77 18.21-3.5 5.16-7.65 9.76-13.13 13.01-1.36.8-2.35 2.23-3.57 3.3-2.16 1.9-4.25 3.89-6.6 5.54-2.2 1.54-4.56 3.29-7.14.17-.51-.63-2.12-.36-3.67-.56l2.42 12.41c15.67-4.03 28.68.14 38.56 12.97 6.4.33 9.87 2.82 11.64 8.5 2.42 7.78 3.16 15.64 1.18 23.68-.7 2.84-.78 5.81-1.21 9.27 2.15.98 3.4 3.35 3.1 6.53l.6 1.16v3.76c-.96.85-.76 1.45.38 1.85l5.86.03c1.86.35 3.71.96 5.57.98 2.2.02 4.4-.42 6.6-.77 2.59-.42 4.14.6 4.55 3 1.58 9.08 2.63 18.33 5.05 27.2 1.4 5.13 1.8 10.25 2.66 15.38.13.74.7 1.39 1.05 2.08-.07.14-.24.32-.2.42.11.27.3.51.45.77l.52 6.77c-.12.09-.36.19-.35.27.03.26.15.5.23.77-.23 3.8-.14 7.66-.75 11.4-.55 3.33-2.46 6.17-4.88 8.62-1.27 1.29-2.32 2.8-3.84 4.65 2.08.78 3.36 1.27 4.65 1.74a27.4 27.4 0 0 1 14.34 11.61c1.76 2.82 1.44 5.84 1.44 8.86zm-74.07-154.46c-3.23-1.52-6.63-.87-10-.74l-3.6 1.03c-1.15 4.95-1.14 9.54 3.5 13 .65.48.88 1.65 1.06 2.55.46 2.31.97 4.64 1.1 7 .17 2.6 2.1 3.36 3.58 2.46 3.58-2.17 7.64-.27 11.14-1.93.82-.39 2.06-.5 2.4-1.12 1-1.76 2.05-3.68 2.27-5.62.13-1.09-1.37-2.34-2.08-3.55-.32-.53-.5-1.13-.75-1.7-1.97-4.47-3.88-9-8.62-11.37zM488.96 88.9v.5h4.8v-.5z"/><path fill="#fff" d="m781.6 208.87-1.04-.94-2.42-5.2.7-2.53c5.53-.67 9.93 2.08 14.06 4.92 7.3 5.02 14.36 10.42 21.44 15.78 2.06 1.56 3.88 3.46 5.72 5.29 6.68 6.65 13.2 13.43 20 19.95 3.8 3.65 8 6.88 11.98 10.33a33 33 0 0 1 3.52 3.36c6 6.94 12.08 13.8 17.8 20.97 2.31 2.9 3.82 6.47 5.67 9.75 1.42 2.5 2.53 5.22 4.29 7.45 1.2 1.52 1.9 3.28 4.69 4.05 4.3 1.18 5.33 6.02 5.86 10.23.37 3 .18 3.03-2.9 5l-6.02-7.85-1.08.23c-.1 1.22-.6 2.6-.22 3.65 2.34 6.36 4.9 12.65 7.35 18.98.17.43.06.97.09 1.45l.98 1.1v-.01l-1.22 2.13c-3.2-6.8-6.55-13.53-9.46-20.45-.82-1.95-1.73-3.22-3.5-4.3-2.14-1.3-2.13-2.54-.47-4.3 2.6-2.75 2.92-4.05 1.01-7.49-1.6-2.9-3.65-5.57-5.48-8.38-5.61-8.63-14.42-14.07-21.38-21.34-.6-.63-1.71-1.28-2.47-1.17-2.33.39-3.6-1.02-4.97-2.39-10.42-10.46-20.88-20.88-31.23-31.41-1.4-1.43-2.17-3.46-3.44-5.05a29 29 0 0 0-4.24-4.38 1071 1071 0 0 0-19.06-15.18c-1.31-1.01-3.02-1.5-4.53-2.24zm44.63 13.75c-4.76-.85-6.62-4.8-7.3-8.55-1.21-6.6-5.02-11.77-7.96-17.44-2.65-5.12-5.47-10.17-7.8-15.44-2.59-5.8-4.73-11.81-7.03-17.74-1.88-4.83-3.92-9.62-5.47-14.56-.53-1.7.18-3.79.37-6.18 2.77-.95 4.9 1.42 6.84 3.05a88 88 0 0 1 9.69 9.61c5.8 6.61 11.72 13.2 16.05 20.93a1605 1605 0 0 1 19.5 35.77c2.45 4.63 4.3 9.59 6.32 14.44.45 1.1.48 2.36.7 3.55l-.91.37c-3.24-5.21-6.47-10.43-10.32-16.66-.42 4.7-1.65 7.89-5.84 8.58l-6.84.25zM849 619.29c1.62-4.48 6.22-5.67 10.1-9.17-.48 2.1-.49 3.59-1.12 4.71a768 768 0 0 1-10.3 17.83 7 7 0 0 1-2.07 2.03c-2.64 1.83-5.89.56-6.36-2.61-.28-1.9-.38-3.95.02-5.8 1.02-4.6 2.45-9.1 3.55-13.7 1.03-4.26 1.6-8.64 2.82-12.84 2.1-7.32 6.67-13.13 11.7-18.73 9.53-10.6 19.16-21.15 25.06-34.45 1.17-2.66 2.98-5.03 4.93-7.42.78 3.35 1.2 6.6.22 9.85-2.6 8.54-7.09 16.09-12.47 23.13-5.92 7.72-12.4 15.06-17.78 23.14-3.25 4.89-4.97 10.82-7.21 16.36-1 2.47-1.59 5.1-2.36 7.67-.94.92-1.64 1.9-.86 4.35l2.12-4.33zm24.78-134.77c-1.43-6.1.66-11.3 2.8-16.49a2506 2506 0 0 0 6.61-16.27c1.66-4.12 3.3-8.2 3-12.85-.12-1.95.81-3.96 1.27-5.94 4.22 2.47 5.2 6.2 5 10.63-.3 6.93-2.9 13.05-5.25 19.3a192 192 0 0 1-6.13 14.94c-1.08 2.26-3.02 4.13-4.76 6-.5.54-1.68.47-2.54.68m-80.8 172.96c-4.96.1-9.37-1.77-13.56-4.07-4.23-2.3-5.1-8.54-1.57-11.9 1.14-1.09 3.05-2 5.1-.95a881 881 0 0 0 19.53 9.75c2.06 1 1.94 2.65 1.12 4-1 1.62-2.15 3.4-4.31 3.88zm12.4 18.38-.14-4.78.56-1.25c.66-4.77 4.26-6.3 8.18-6.45 4.9-.17 8.33-2.68 11.56-5.73 1.86-1.74 3.35-3.89 5.07-5.8 1.63-1.8 3.42-3.38 6.4-3.23.7 3.13-1.4 4.91-3.19 6.86q-4.07 4.46-8.09 8.97c-.32.36-.84.7-.9 1.1-.75 5.2-5.17 5.33-8.85 6.45-.74.22-1.66-.09-2.42.12-3.16.84-4.27 3.04-3.5 6.62-1.86-.21-3.8 1.42-4.17-1.71zM268.5 242.01l.02 2q-2.43 6.93-10.12 7.91c-1.17 3.53-2.37 7.06-3.5 10.61-1.12 3.6-2.17 7.23-3.35 11.18-3.04-1.95-2.9-4.63-2.48-7 .86-4.95 2.2-9.8 3.16-14.72.32-1.62.57-3.5.04-4.99-.78-2.25.06-3.63 1.55-4.87 1.4-1.16 2.96-2.12 3.74-2.66l10.94 2.56zm597.6-8.89c6.09 4.15 14.61 21.93 13.73 28.91-1.01-.6-2.1-.9-2.56-1.6-3.88-5.83-7.84-11.63-11.35-17.7-1.1-1.94-1.08-4.6-1.23-6.96-.06-.84.91-1.74 1.42-2.65zm-42.13 441.34-7.3 6.8c-.45-4.02 1.63-6.66 3.9-9.06.37-.38 2.1.55 3.19.88z"/><path fill="#fff" d="m890.82 336.94 1.22-2.13 4.8 11.83-.9 1.9zm12.11 57.15c-.39-1.22-1.05-2.5-1.17-3.85-.15-1.7.99-2.92 2.64-2.46.9.24 1.92 1.6 2.1 2.6.4 2.38-1.43 3.24-3.57 3.7zm-6.98-45.54.9-1.9 3.5 8.82-1 .43c-1.68-2.15-2.5-4.77-3.39-7.34zm9.5 69.52v10.96l-.62.12-.62-5.1-.16-1.36L904 421l-.05-1.23.5-2.14 1 .42zm-182.67 202.1c4.03-1.8 8.3-.6 12.45-.88.79-.05 1.61.56 2.42.86q-7.44.01-14.87.04zM561.76 74.87h-10.92q.12-.35.22-.73l10.45.03zm18.73.87-11.05-.66 10.75-.02z"/><path fill="#fff" d="m580.49 75.73-.3-.68 9.91.74zm61.36 10.9-9.87-.77c3.3.07 6.7-.96 9.87.78M323.1 690.45c-3.03 2.34-6.46.67-9.7 1zm227.97-616.3-.23.73-8.8-.04zM511 76.78l-9.1-.01a10.7 10.7 0 0 1 9.1 0m11.63 0-9.02-.02c3.01-1.26 6.02-1.4 9.02.02m39.12-1.92q-.14-.34-.25-.69l8.03.68zm216.38 127.87 2.42 5.2-4-3.83zm-4.44 423.49 7.9.11a9.3 9.3 0 0 1-7.9-.11m75.29-6.93-2.12 4.33c-.78-2.44-.08-3.43.86-4.35zm-22.76-396.67 6.84-.25c-2.21 1.96-4.5 1.52-6.84.25M213.67 889.7c-1.8 2.4-4.45.53-6.57 1.3.77-.38 1.51-.95 2.32-1.08 1.39-.22 2.83-.16 4.25-.22M496.5 77.06q-3.63.37-7.25.77zM310.59 691.4l-6-.01c2-1.12 4-1.35 6 .01m-10.52.3-6.3.72zm451.24 218.6-5.87-.03q-.06-.46.04-.88 2.92.45 5.83.92zM484.68 77.98l-6.13.77zM309.55 613.44l-3.93-.25c1.38-1.02 2.72-1.42 3.93.25m536.52-89.85.78-2.06z"/><path fill="#fff" d="M745.48 909.38a2 2 0 0 0-.04.89c-1.14-.4-1.34-1-.38-1.85zM316.62 769.77l-.35.97.03-1.94.14-.21.23.1zm-71.94-411.48.12 2.07zm615.24-12.6-.4-.9zM248.2 422.8c.07.26.17.52.2.78 0 .08-.25.17-.37.25zm11.9-37.18.16 1.14q-.16-.36-.27-.73c-.03-.12.06-.27.1-.4m545.7 284.2q-.3.63-.57 1.25zm99.66-251.76-1-.4.58-.61zM274.5 174.6c.08.25.19.5.22.76.01.08-.2.17-.32.26zm.79-6.89q-.14.56-.26 1.13c-.03-.28-.1-.56-.07-.83 0-.11.21-.2.33-.3M278 153.1l-.63 1.14zm499.01 806.27c-.15-.25-.34-.5-.44-.77-.04-.1.12-.28.2-.43.15.26.35.5.46.78.03.1-.14.27-.22.4zm.4 7.8q-.17-.4-.23-.78c-.01-.07.23-.18.35-.27l-.12 1.03zM316.37 766.72v1.12l-.76-.74zm397.95 92.86-10-.74c3.37-.13 6.76-.78 10 .74M488.96 88.9h4.8v.5h-4.8z"/><path fill="#fff" d="M316.62 769.76q.03-.53.04-1.07.17.37.25.76c0 .09-.2.2-.3.31"/><path fill="#000" d="M363.76 827.37c-1.06 1.43-2.15 2.83-3.17 4.3-.35.51-.9 1.5-.7 1.72 3.55 4.24-1.41 3.69-2.72 4.23-16.71 7-32.64 15.27-47.05 26.45-9.97 7.73-17.52 17.4-23.88 28.03-11.01 18.43-21.45 37.23-29.48 57.17-7.76 19.3-15.72 38.51-22.5 58.19-2.7 7.8-1.36 6.83-10.37 6.69-.3 0-.6-.22-1.08-.4.17-4.53 3.24-8.35 3.65-12.85-2.1-1.33-4.19-.75-6.26-.66-4.03.17-8.29.95-10.82-3.52-3.88-.66-7.54-4.21-11.7-.79-.82.66-1.86.56-2.83.51-3.93-.17-7.78.78-11.65.87-3.2.07-4.36 1.44-4.5 4.69 2.33.68 4.73.36 7.06.13 4.54-.43 9.05-1.02 13.57-1.59 1.15-.14 2.3-.36 3.34.23 3.13 1.77 6.32 3.24 10 3.49a1.97 1.97 0 0 1 1.83 2.45c-.83 3.01.78 4.09 3.22 4.87.7.22 1.22 1.01 1.87 1.57-3.04 1.35-46.26 1.87-56.2.73-.86-1.14-.09-2.11.32-3.12l3.52-8.58c1.75-4.28 3.6-8.45 4.63-13.09 1.22-5.48 3.75-10.72 6.54-15.68 3.44-6.11 8.02-10.66 15.68-10.7 1.22 0 2.95-.13 2.93-1.86-.03-2.25 1.84-4.66-.55-6.78-8.4-7.42-8.01-17.94 1.65-23.91 4.5-2.79 4.41-6.67 5.46-10.56.25-.94-.14-1.7-1-1.92-2.14-.57-2.68-3.18-5.03-3.6-1.52-.27-1.55-1.9-1.44-3.25a63 63 0 0 1 3.09-15.23c1.66-4.82 5.97-6.3 10.19-7.4 2.08-.55 3.02-1.33 3.45-3.28.8-3.5 2.24-6.75 3.57-10.08 2.36-5.9 6.94-9.05 12.75-10.17 8.12-1.56 16.13-3.72 24.26-5.28 4.2-.8 7.05-4.87 8.34-9.27 2.98-10.19 4.33-20.66 5.65-31.15.34-2.74.65-5.5 1.27-8.18.8-3.35 2.23-6.4 5-8.72a58 58 0 0 0 4.9-4.73c5.02-5.29 11.88-7.19 18.23-9.98 3.87-1.7 7.73-3.62 11.79-4.6 4.43-1.07 5.56-3.83 5.67-7.68.07-2.28.08-4.55.14-6.84.03-1.94.4-3.95.05-5.82-.45-2.45-3.38-1.44-4.7-2.73-5.14-5.03-12.21-5.64-18.47-8.03-9.42-3.6-18.42-8.14-27.67-12.13-3.05-1.32-3.3-3.75-3.28-6.4.05-4.77 1.49-9.28 2.93-13.76 2.45-7.58 5.07-15.1 7.52-22.68 1.2-3.72 3.18-5.68 7.48-6.16 8.44-.96 16.87-1.08 25.33-1.08 4.39 0 8.79.14 13.18.15 2.7 0 6.12 1.02 5.77-3.73 2.77-1.23 2.56-3.8 2.83-6.18.11-1.04 0-1.96-.95-2.56-1.87-1.18-3.12-2.66-3.45-5.01-.23-1.53-2.06-1.44-3.2-1.76-12.52-3.55-24.8-7.8-37.08-12.08q-2.54-.88-5.03-1.84c-5.09-1.93-7-7.3-4.38-12.22a53 53 0 0 0 6.09-20.32 79 79 0 0 1 2.14-12.47c1.2-4.68 2.05-5.07 6.86-4.4 15.92 2.19 31.85 4.32 47.55 9.3.4-4.46.16-8.7 1.14-12.8.33-1.36-.38-2.13-1.63-2.56-2.15-.74-4.35-1.39-6.41-2.33-3.03-1.38-3.43-3-1.3-5.6 2.05-2.5 3.06-5.28 3.63-8.39.57-3.18 1.1-6.35 2.29-9.42 1.37-3.57.93-4.1-2.87-5.67-13.53-5.56-27.08-11.08-39.74-18.49-1.54-.9-3.02-1.92-4.6-2.77-2.87-1.56-5.74-2.73-9.25-2.33-4.26.49-5.57-.63-6.6-4.71-2.48-9.93-4.82-19.89-7.34-29.8-.64-2.53-.7-4.8 1.24-7.01-3.28-1.8-6.9-2.03-10.19-3.23a38 38 0 0 0-5.59-1.66c-3.94-.8-6.33-3.24-7.28-6.97-.62-2.47-1.95-3.45-4.39-3.54-1.28-.05-2.55-.48-3.81-.79-6.05-1.5-8.05-8.61-4.08-13.68 2.83-3.62 2.62-8.2 3.1-12.5.14-1.28-1.24-1.36-2.09-1.64-2.62-.88-5.24-1.74-7.91-2.44-2.06-.54-3.06-1.77-3.04-3.8.04-5.03.09-10.13 1.76-14.91 1.67-4.75 4.05-6.16 7.88-5.74 2.05.23 4.22.34 6.34-.29.23-1.28.35-2.58.72-3.79a6.1 6.1 0 0 1 5.7-4.59c1.28-.11 2.6-.09 3.9-.04 1.59.05 2.48-.55 2.38-2.24-.46-7.85 2.8-15.28 2.47-23.2-.14-3.64 1.33-7.5 6.17-8.06 1.94-.23 2.87-1.29 2.44-3.33-.1-.48-.2-.99-.13-1.46.68-4.85-.37-8.25-6.13-9.03-2-.27-3.35-2.88-6.11-2.49-1.03.14-2.36-1.25-2.66-3.02a41 41 0 0 1-.47-9.69c.76-10.86 2.61-21.56 4.55-32.26 2.05-11.34 3.36-22.79 5.82-34.06 3.29-15.1 8.44-29.43 17.1-42.22 4.27-6.3 1.73-11.68-4.3-13.93-.57-.21-1.07-.62-2.2-1.29 4.09-1.07 6.57.93 9.26 2.97 1.16-1.87-.14-4.23 1.56-5.58 1.68-1.32 3.77-.27 6.02-.77-3.63-13.46-5.87-26.94-6.08-40.61-1.3-.18-1.46.52-1.72 1.1-4.9 10.62-9.83 21.24-14.7 31.89-1.75 3.81-1.68 3.81 1.78 5.84 1.6.94 3.13 2 5.4 3.46-5.22.98-9.1-.64-12.89-2.28-1.98-.86-2.02-2.71-1.22-4.59 1.83-4.33 3.55-8.73 5.5-13.03 3.3-7.25 6.61-14.5 10.56-21.44.97-1.7 1.84-3.85 3.62-4.48 3.33-1.18 3.12-3.56 3.06-6.2q-.21-11-.3-21.97c-.06-6.82 1.5-13.27 5.16-19.04a81 81 0 0 1 27.86-26.67 80 80 0 0 1 23-9.2c3.26-.74 5.23.02 7.08 2.5 3.58 4.79 3.68 4.83 8.69 1.56 17.07-11.15 35.88-18.23 55.36-23.68 8.48-2.37 16.48-6.1 24.93-8.44 1.32-.37 2.75-1.73 4.01-.17 1.15 1.41-.06 2.75-.55 4.08-.16.46-.26.93-.38 1.42 2.6.04 9.12-1.71 11.16-3.06.18-.1.09-.6.14-.9 1.58.6 3.14.7 4.73.16a16 16 0 0 1 5.66-.87c1.51-1.07 3.34-1.18 5.03-1.52 26.7-5.27 53.74-7.63 80.9-8.25 17.08-.39 34.16.12 51.24.76a349 349 0 0 1 51.33 5.7c40.23 7.54 79.35 18.81 116.34 36.73 16.46 7.96 30.78 18.74 43.38 31.9 1.64 1.71 3 3.37 1.9 5.99-1.13 2.7-.19 4.95 1.63 7.12 1.9 2.27 3.22 4.9 2.93 8.04-.14 1.61.25 2.72 2.12 3.18 1.68.41 2.6 1.86 3 3.54 1.07 4.4 3.62 7.94 6.38 11.4a19.3 19.3 0 0 1 4.13 8.74c1.4 8.1 5 15.42 8.11 22.92.32.8.56 1.93 2.22 1.76.6-2.4.93-5 1.88-7.33 1.2-2.92.26-4.89-1.74-6.9a87 87 0 0 1-6.2-6.89c-1.41-1.74-.78-2.9 1.38-3.37 1.47-.3 2.57.26 3.58 1.1 2.25 1.88 4.54 3.73 6.63 5.75 1.47 1.42 5.29 1.64 2.99 5.32-.2.3.71 1.38 1.22 2 1.12 1.38 2.32 2.71 3.5 4.06 11.73 13.48 21.37 28.18 27.57 45.1 5.52 15.13 11.43 30.23 19.94 43.91 4.92 7.9 3.97 16.58 6.29 24.73.31 1.1-.42 1.87-1.43 2.24a1.8 1.8 0 0 1-2.16-.66 20 20 0 0 1-1.51-2.5 60 60 0 0 1-5.7-15c-1.16-5.09-2.63-10.05-5.12-14.69a160 160 0 0 0-26.86-36.4c-18.97-19.42-40.54-35.65-62.9-50.91-.7-.49-1.39-1.53-2.55-.79.2.85.9 1.25 1.5 1.72a417 417 0 0 1 36.14 31.3c13.77 13.4 27.15 27.17 39.6 41.8 2.95 3.46 6.05 6.91 8 11.03a18 18 0 0 0 2.98 4.82c4.12 4.45 4.22 6.64.84 12.1 3.78 1.42 5.23 4.28 5.72 8.2 1.03 8.21 2.97 16.28 3.9 24.53 1.8 16.14 1.44 32.12-3.1 47.84a27.4 27.4 0 0 1-5.5 10.77c-1.76-13.59-.97-26.22-2.63-38.98-.4.5-.58.6-.6.74-2.63 12.29-5.74 24.38-13.52 34.67-.38.5-.57 1.17-.75 1.79-2.99 10.38-8.03 19.87-12.86 29.45-8.19 16.3-14.73 33.28-21.07 50.35-.35.95-.7 1.78.18 2.67 3.72 3.8 6.84 8.18 10.97 11.6 3.93-3.8 6.35-8.63 10.73-11.66-6.76 12.5-16.62 22.45-27.19 32.98 2.55-5.21 6.36-8.37 9.29-12.25-4.2-5.2-7.78-10.58-11.05-16.2-1.2-2.05-1.62-3.83-1.22-5.9a71 71 0 0 1 2.04-8.53 305 305 0 0 1 14.06-35.32c4.75-10.17 9.63-20.27 14.4-30.42.67-1.42 1.34-2.71 1.24-4.55-.4-7.12 1.72-14.1 1.53-21.23 0-.3.2-.63.37-.89 1.84-2.66.92-5.48.85-8.65-2.5.66-4.02 2.17-5.8 3.2-.73.4-1.48.9-2.21.22a2.3 2.3 0 0 1-.66-2.23c.15-.62.37-1.35.81-1.74 2.28-2.03 1.96-4.52 1.6-7.14-.3-2.08-.29-4.22-.35-6.33-.06-1.74.1-3.52-1.36-5.22-1.2 1.87-2.28 3.65-3.47 5.35-4.73 6.75-10.21 12.68-18 15.98-1.22.52-2.54 2.34-3.8.65-1.32-1.75.84-2.51 1.76-3.4 2.43-2.35 5.17-4.24 6.36-7.75 2.75-8.1 4.42-16.36 3.74-24.89-.28-3.46-.13-7.11-1.71-11.3-3.3 8.87-8.27 15.63-13.83 22.05-7.55 8.7-15.64 17-21.67 26.95-.43.71-1.18 1.6-2.53.8 2.26-7.78 3.84-15.7 2.56-24.8-5.16 5.45-10.6 8.92-16.21 12.18 1.44 1.55 3.56 1.14 4.88 2.32-.97 1.77-2.21 1.42-3.53 1.42-2.81 0-5.36-1.37-8.12-1.43-3-.05-3 0-6.3-1.95-4.79-2.81-5.88-2.42-8.13 2.55-1.4 3.1-2.97 6.14-4.58 9.15-2.84 5.31-5.79 10.55-8.67 15.84-1.5 2.73-2.73 5.54-2.66 8.76a7.4 7.4 0 0 1-1.15 4.18c-.93 1.43-2.4 2.46-4.08 1.88-1.49-.5-1.2-2.09-1-3.4q.2-1.21.3-2.42c.57-6.73-.77-13.13-3.16-19.93-.66 1.1-1.09 1.61-1.3 2.2-3.44 9.56-9.19 17.51-16.79 24.19a7.3 7.3 0 0 0-2.45 3.55c-2.96 10.67-7.85 20.65-11.14 31.22-2.9 9.32-6.95 18.08-14.66 24.63 5.06 3 10.12 5.94 15.1 9.01 4.56 2.82 9.14 5.62 13.36 8.95 1.08.86 2.37 1.85 1 3.09-1.98 1.78-2.2 4.3-3.22 6.44-4.61 9.55-10.15 18.55-16.03 27.34-2.04 3.06-3.48 5.72-.95 9.14.52.72.43 1.88.66 2.83.57 2.36-.18 3.96-2.36 5.23a25 25 0 0 1-10.03 3.41c-3.87.47-7.7 1.24-11.54 1.89a11.9 11.9 0 0 0-9.08 6.63c-2.25 4.33-4.71 8.55-7.01 12.84-2.24 4.18-5.73 6.01-10.42 5.84-2.15-.08-4.3-.01-6.7-.01.7 1.91 2.26 2.22 3.44 2.9a1419 1419 0 0 1 67.69 40.81q4.49 2.93 8.97 5.92c.87.57 1.61.87 2.48-.18 4.25-5.09 4.88-5.27 10.98-3.3 10.07 3.29 20.31 5.82 30.9 6.68 5.34.44 10.7.63 16.07.87 1.5.07 2.63-.31 3.47-1.97 3.67-7.3 8.77-13.67 13.43-20.33 3.23-4.62 7-8.88 9.72-13.88-1.8-1.41-3.73-.7-5.4-1.3-2.57-.94-3.2-2.67-1.5-4.73 2.28-2.8 4.22-3.32 7.68-2.04 3.95 1.45 3.87 1.4 6.18-2.11 7.67-11.72 14.27-24.07 21.62-35.98 4.35-7.04 8.62-14.12 12.95-21.2-.88-.7-1.7-1.25-2.4-1.92-8.07-7.64-8.38-4.87-.25-13.53.18-.19.54-.22.81-.31 8.07 8.44 9.32 14 4.55 24.12a419 419 0 0 1-37.56 64.4c-8.32 11.69-17.39 22.73-26.82 33.5-2.76 3.15-5.78 4.98-9.8 5.69-3.57.63-7.1.88-10.68.63a173 173 0 0 1-29.8-4.75c-1.35-.34-2.67-1.32-4.8-.3 30.6 20.17 58.6 43.06 85.3 67.95 3.06-3.81 6.6-7.36 7.92-11.72a27 27 0 0 1 4.02-7.85c24.26-34.7 44.08-71.74 58.3-111.7 1.74-4.89 3.9-9.65 4.73-14.83l.83-2.58c.7-1.82 1.53-3.59 2.09-5.44a437 437 0 0 0 18.16-103.39c1.25-23.72.56-47.43-2.37-71.08a397 397 0 0 0-17.13-76.93 387 387 0 0 0-42.58-88.6c-12.77-19.7-27.25-38.06-42.95-55.5-3.94-4.38-8-8.49-13.02-11.68-7.4-4.72-14.86-9.36-22.65-13.41C731.8 99.38 689.92 85.3 646 77a503 503 0 0 0-74.47-8.66c-28.46-1.08-56.91-.33-85.16 3.84a393 393 0 0 0-35.43 6.67c-1.07.26-1.88.45-1.81 1.73a6.8 6.8 0 0 0-5.21-.22c-1.68.64-3.43.86-5.23.9-.43.37-1.45.31-.95-.05 1.54-1.09 3.48-1.66 5.34-2.25 15.41-4.84 31.26-7.57 47.22-9.74A458 458 0 0 1 553.06 65c20.33.06 40.6 1.43 60.8 3.85 32.74 3.91 64.7 11.2 96.06 21.2a359 359 0 0 1 73.36 32.68c7.14 4.2 14.18 8.6 21.3 12.83 1.26.74 3.34 1.29 1.46 3.51-.9 1.07.24 1.8.86 2.44 10.4 10.58 19.75 22.05 28.65 33.89a387 387 0 0 1 27.07 41.14c7.9 13.88 14.83 28.2 21.34 42.76 7.38 16.52 12.74 33.73 17.8 51.06 5.16 17.67 8.4 35.74 11.24 53.87a299 299 0 0 1 3.49 46.65c0 9.76.2 19.55-.4 29.3a419 419 0 0 1-6.77 54.05 447 447 0 0 1-25.17 84.4 485 485 0 0 1-52.38 95.68c-2.06 2.93-4.38 5.65-4.52 9.78-.1 3.01-2.8 5.4-4.68 7.84q-1.5 1.93-3.1 3.77c-.72.84-1 1.68-.1 2.54 2.35 2.19 1.67 5.06.75 7.21-.94 2.22-.79 3.91.58 5.32 2.54 2.62 1.52 5.74 1.55 8.64.03 2.4-2.25 3.8-4.15 4.32-4.8 1.3-7.25 5.05-10.24 8.43-4.4 5-9.03 9.8-13.65 14.62-1.62 1.7-2.22 3.02.06 4.66 1.57 1.13 2.82 2.7 4.35 3.9 1.88 1.46 1.9 3.33 1.35 5.27-.9 3.19-4.94 6.21-8.38 6.28-1.34.01-2.31.17-3.45 1.14-2.08 1.77-4.53 3.14-6.88 4.6-2.46 1.52-4.97 2.54-7.56.13-1.65-1.54-3.28-.34-4.33.64-2.81 2.65-6.01 3.4-9.77 3.43-2.78.03-4.96-.55-7.2-2.2-2.32-1.72-5.1-2.82-7.6-4.34-1.56-.95-2.76-.35-4.04.46-3.12 1.95-5.9 1.64-8.92-.65-3.88-2.93-8.11-5.42-12.19-8.09l-2.03-1.34c-.76-.51-1.54-.6-2.17.14-.83.98.2 1.4.7 1.9 2.37 2.24 4.72 4.5 6.51 7.23a52 52 0 0 1 3.19 5.48 12.2 12.2 0 0 0 5.35 5.51c2.98 1.43 5.42 8.99 3.83 12.65a48 48 0 0 1-4.03 7.23c-7.57 11.46-16.67 21.61-26.3 31.35-2.21 2.24-4.99 2.01-7.42 3.1-1.17.52-2.42.86-3.85 1.36l1.49 5.11c3.72-1.04 7.47-1.8 11.33-1.72 11.45.24 20.44 5.78 28.57 13.16 4.26 3.86 8.02 8.08 9.6 13.85.97 3.52 1.09 7.11.6 10.64-.68 4.8-1.73 9.56-2.7 14.32a6.4 6.4 0 0 0 .15 3.82 27.4 27.4 0 0 1 1.88 13.67c4.53-.43 8.71-.64 12.74.81 1.16.41 2.22-.24 3.33-.43 4.27-.7 6.84.89 8.04 5.12 4.11 14.55 7.3 29.3 9.34 44.3.6 4.42-.27 9.15 2.28 13.25 1.43.1 2.3-1.08 3.46-1.61a8 8 0 0 1 5.7-.5c2.04.58 4.07 1.45 4.12 4.15a5.9 5.9 0 0 1-3.7 5.27c-1.46.5-3.87-.48-3.68 2.58.02.5-1.04.44-1.53-.11-1.64-1.81-.93-3.67 1.72-4.11 1.4-.25 2.93.21 3.97-1.25.87-1.25 1.7-2.5.7-4-.88-1.3-2.25-2.08-3.8-1.49-3.8 1.47-7.42 3-8.83 7.59-1.1 3.55-2.12 7.13-3.34 10.64-.62 1.82-.18 2.48 1.53 3.26 6.41 2.94 10.56 7.96 12.56 14.73.51 1.73.63 3.52.48 5.32-.04.48-.2.92-.77 1.09a1.26 1.26 0 0 1-1.6-.71c-.41-.87-.6-1.84-.93-2.75-2.32-6.52-6.98-10.87-13.03-13.85-1.85-.9-3.9-1.77-5.84.32 5.23 4.57 8.73 10.28 11.44 16.52-1.33 1.04-1.94.22-2.6-.5-3.52-3.85-6.96-7.75-10.57-11.51-3.4-3.54-3.48-3.47-8.36-.47 6.6 2.2 11.3 6.36 14.62 12.24-3.83 1.33-3.86 1.37-6.05-1.28-2.28-2.77-4.62-5.48-7.7-7.41-3.22-2.05-4.45-1.93-7.31.7-1.92 1.76-3.8 3.59-4.59 6.2-.85 2.83-2.79 3.19-5.64 2.41.3-5.66 2.77-10.34 6.52-14.19 4.68-4.8 10.03-8.77 16.68-10.56 3.25-.88 5.64-3.8 9.33-3.78.95 0 1.46-1.37 1.47-2.3 0-2.4 1.19-4.34 2.01-6.44.85-2.15.9-4.23.05-6.56-3.18-8.73-4.5-17.95-6.34-27.01a619 619 0 0 0-5.51-24.25c-1.46-5.96-4.47-8-10.75-7.27-2.26.26-4.5.7-6.75 1-4.04.52-6.13-1.23-6.06-5.2.04-1.95.7-3.88.25-5.83-.3-1.3.2-3.08-2-3.25-1.28-.1-.41-.96-.28-1.3 1.15-3.17-.23-5.85-1.87-8.24-.98-1.42-2.13-2.57-2.74-4.34-.6-1.73-1.97-2.45-4.3-1.56-3.8 1.47-7.57 2.9-11.03 5.04-2.51 1.54-5.14 2.91-8 3.52-1.87.4-2.7 1.6-3.6 2.91 1.53 3.34 4.26 6.33 2.7 10.43 2.08 3 2.44 6.27 1.56 9.75-.06.2.25.58.48.75 3.6 2.6.98 5.51.44 8.33-.29 1.54-2.82 2.3-1.7 4.16 1.04 1.69 2.99.8 4.53.88 2.17.12 4.13.63 5.9 2.2 1.9-1.63 2.54-3.87 3.33-5.93 1.03-2.68 2.9-4.16 5.5-5.11 3.23-1.2 6.6-1.8 9.95-2.3 5.76-.85 11.65-.57 17.36-1.92.9-.22 1.6.22 1.96 1.06.28.68-.1 1.22-.55 1.73-1.74 1.97-4.06 2.6-6.54 2.89-6.78.8-13.56 1.5-20.28 2.81-1.74.34-2.97.82-3.82 2.48a21 21 0 0 1-3.08 4.38c-3.46 3.75-4.1 7.72-1.62 12.27 1.48 2.72 1.34 3.95-1.46 5.73-2.72 1.73-2.96 3.42-2.1 6.39 5.48 18.88 11.04 37.74 15.9 56.8.11.46.16.94.24 1.36-.3.26-.52.61-.77.64q-7 .72-9.4-5.76a467 467 0 0 1-16.47-54.07c-.73-3.05-2.19-5.76-3.06-8.7-.8-2.68-2.43-3.01-4.82-2.7-10.87 1.4-21.37 4.22-31.65 7.9-4.43 1.58-8.82 3.3-13.2 5.04-1.08.44-2.48.58-1.94 2.64 2.48 9.45 2.64 19.28 4.44 28.85.24 1.27.14 2.64.95 3.74 4.73 6.4 4.1 14.19 5.58 21.43.18.93-.35 1.47-1.28 1.73-3.02.85-4.85-.12-5.57-3.23-1.82-7.91-4.72-15.54-6.17-23.54-.37-2.09-1.2-4-2.03-5.97a64 64 0 0 1-5.03-29.54c.17-2.54 1.1-4.28 3.67-5.7 4.7-2.6 8.21-6.85 12.17-10.48 1.56-1.44 2.87-3.31 4.68-4.24 3.05-1.57 2.67-3.5 2.06-6.3-5.01-23.18-13.42-45.13-23.5-66.5-6.73-14.3-14.15-28.2-23.38-41.07-1.64-2.28-3.71-3.86-5.99-5.51-9.42-6.85-20.44-8.86-31.42-11.1q-13.87-2.79-27.74-5.54c-2.07-.41-4.23-.58-5.72-2.39-.29-.35-.9-.78-1.23-.69-4.55 1.18-4.27-2.23-4.94-4.97-1.88-7.75-2.9-15.63-3.73-24-2.51 2.1-4.7 1.14-7.25.24-3.48-1.22-7.3-1.43-10.96-2.22-18.26-3.98-36.5-8.06-55.04-10.68a923 923 0 0 0-49.83-5.78c-21.36-1.86-42.72-3.62-64.1-5.38-4.21-.35-8.43-.45-12.92-.68.93 2.02 2.74 2.82 4.33 3.6 5.24 2.57 5.79 8.56 3.6 13.16-4.76 9.96-10.31 19.55-15.56 29.3-.22.4-.4.92-1.12.9-.9-1.07-.03-2.09.38-2.96 4.65-9.83 8.68-19.98 15-28.97 2.48-3.55 1.6-6.53-2.26-8.95-2.35-1.47-4.73-2.88-6.47-5.1-.5-.64-.97-1.27-1.9-1.34l-15.87-1.17c4 4.47 1.57 8.64 1.12 12.64-.9 8.06-2.35 16.06-3.37 24.11-.25 2-1.66 4.56 1.4 5.98.25.11.27 1.28.05 1.8-1.26 2.85-2.85 5.02-5.98 6.65-9.82 5.12-19.96 9.47-29.93 14.23a12.5 12.5 0 0 0-6.84 8.43c-2.53 10.75-4.8 21.58-8.55 32-.64 1.77.16 2.51 1.58 3.44 3.1 2 3.31 3.25 1.18 6.33-1.86 2.67-3.93 5.2-5.98 7.72-1.03 1.27-1.1 2.28.4 3.17.28.16.53.38.8.57q7.95 6.25 12.12 14.45c3.4-4.91 6.73-9.7 10.02-14.5 11.4-16.69 26.28-29.6 43.34-40.18 2.76-1.72 5.57-3.33 8.34-5.03 9.87-6.05 20.75-8 32.92-8.25-1.84 3-3.48 5.5-4.94 8.1-1.34 2.37-3.4 4.41-3.67 7.33l-1.08 1.04zm291-678.28c-1.03-.82-2.09-1-3.52-.3 1.43.7 2.55.25 3.66.2 1.05.83 2.12 1.59 3.87.57zm-53.34-1.34c2.91-.98 5.92-.92 8.94-.86a79 79 0 0 1 20.88-.04h9.49c-3.19-.38-6.36-.86-9.52 0-.23-1.2-1.05-1.5-2.13-1.5q-8.27.03-16.55 0c-1.15 0-1.79.52-2.17 1.53-2.6-.91-5.28-.39-7.93-.45-.71-.02-1 .59-1 1.29-1.37.14-2.82-.88-4.23.23l4.22-.22zm33.32 16.52c-2.19.04-4.4-.97-6.65.14 2.32.67 4.53.66 6.71-.17 3.17 2.9 7.14 1.72 10.82 2.02q-5.4-1.01-10.89-1.99zm16.09-61.19c2.55-.5 4.84 1.44 8.18.91-3.16-1.23-5.5-2.7-8.2-.9 0-.6.32-1.4-.5-1.62-3.53-.97-7.08-1.91-11.68-1.95 4.44 2.1 8.65 1.7 12.2 3.55zM722 867.9c3.17-2.8 5.57-6.25 8.29-9.44 1.06-1.26 1.11-2.24-.23-3.22-2.54-1.86-4.7-4.33-8.03-5.34-.55 4.07-.9 7.98-3.5 11.11-1.05 1.28-.32 1.9.51 2.8 1.15 1.24 3.03 1.99 2.98 4.1.73.11 1.17.66 1.28 1.28.52 2.94 2.28 3.27 4.92 2.86 3.66-.56 7.38-.75 11.53-3.05-1.73 2.86-3.6 3.68-5.63 4.36a21 21 0 0 1-7.18.99c-.77 0-1.73-.06-1.83 1.06-.12 1.26.72 1.74 1.8 1.76 4.3.08 8.24 1.63 12.16 3.11 2.06.78 3.12.5 3.18-1.77.22-8.05-2.9-14.56-9-19.92-2.99 4.47-6.26 7.97-11.26 9.31zm-13.88 14.92c-.92.06-1.78-.49-2.77.16-2.36 1.53-5.28 1.54-7.8 2.66-.97.42-2 .55-2.52-.56-.63-1.33.16-2.15 1.38-2.6 1.98-.72 4-1.37 5.95-2.14 2.94-1.15 3.1-1.5 2.2-4.26-1.27-3.96-2.42-4.28-5.78-1.65-1.15.9-2.29 1.84-3.52 2.6-.64.38-1.56.63-2-.5l1.54-1.88c-4.18-.05-4.36-.3-3.76-5.1 3.03 1.2 3.38 1.2 8.11-.37 1.05-.35 2.45-.47 2.3-2.03-.2-1.86-1.75-2.43-3.23-2.22-1.57.21-3.25.74-4.53 1.64-2.46 1.72-4.22.3-5.45-1.26-1.14-1.45-2.08-3.53-.31-5.7 1.77 3.57 2.99 4.06 6.04 2.9 1.65-.63 2.21-2.35 3.58-3.23.75-.47 1.06-1.38.52-2.11-.3-.41-1.15-.66-1.72-.61-1.28.11-2.56.4-3.82.73-1.48.4-2.86.38-4.24-.4-1.99-1.1-2.13-2.46-.14-3.55 1.98-1.1 4.14-1.86 6.2-2.83.68-.32 1.72-.53 1.6-1.52a2.3 2.3 0 0 0-1.9-2c-2.07-.45-3.85.22-5.38 1.6-1.56 1.42-2.84 1.2-4-.53-.71-1.06-1.74-1.96-1.6-3.7 2.88-.13 4.66-2.4 6.95-3.82 1.33-.8 1.18-1.78.29-2.82-1.42-1.67-2.8-1.67-4.62-.17-1.4 1.13-1.65 3.2-3.63 4.12l-4.1-8.91c5.26 3.6 6.6-1.46 9.5-2.83-.68-1.95-2.36-2.51-3.51-3.62-.23-.21-.65-.5-.83-.42-1.18.53-2.28 1.22-3.47 1.72-2.98 1.27-4.5.8-6.1-1.97s-2.5-5.86-4.18-8.63c-1.12-1.84.03-3.85 1.66-5.07.86-.64 2.05-.9 3-1.56 1.41-1 1.4-2 .28-3.2-1.79-1.94-2.84-1.88-5.6.41q-2.37 1.96-5.34.75c-.24-.1-.56-.01-.89-.01-.67 1.78.62 3.13 1.22 4.53 3.38 7.92 7.2 15.65 10.15 23.76 5.93 16.37 10.13 33.26 14.66 50.04 3.29 12.22 6.4 24.53 6.9 37.3.03 1.01.12 1.93 1.15 2.48a20 20 0 0 0 10.72 2.42c.43-.03.82-.38.86-.98.04-.62-.37-.98-.8-1.03-1.44-.14-2.9-.18-4.37-.22-1.39-.05-2.11-.89-2.22-2.12-.12-1.38.84-2.06 2.08-2.24 1.6-.23 3.24-.52 4.85-.47 2.88.08 4.12-1.35 4.36-4.5-2.72 1.38-5.46.6-8.13.9-3.7.42-3.71.55-4.5-2.73-.28-1.19-1.27-2.36-.07-3.94 2.58 1.4 5.46.64 8.28.89.82.07 1.82.18 2.2-.61.76-1.6.2-3.18-.56-4.67-.71-1.37-1.78-1.08-2.93-.76-1.4.38-2.85.68-4.27 1-1.65.35-3.34.6-4.23-1.3-.92-1.96-2.12-4.01.08-6.17 1.9 4.4 1.9 4.44 6.06 2.71 1.73-.73 3.6-1.22 5.02-2.5q-2.23-5.2-7.06-3.3-.22.1-.45.17c-4.3 1.63-7-.17-6.83-4.65.03-1.06-.28-2.72 1.06-2.96 1.82-.35 1.6 1.52 1.96 2.65.14.46.17.94 1.06 1.07 1.08-.53 2.3-1.45 3.69-1.78 4.43-1.06 5.81-4.03 5.6-8.18l-.03-.48c.83.39 1.3 1.6 2.46 1.23 3.22-1.04 6.58-1.83 9.6-3.3 1.86-.9 3.77-2.8 3.5-5.17-.63-5.56-8.05-12.84-13.57-14.02-1.32-.28-2.4 1.35-3.49.24-1.86-1.93-3.59-.92-6.12-.22 3.53 3.11 1.84 7.45 3.92 10.53 2.24 3.32 2.3 7.34 3.86 10.86zm-47.56-410.06c.85-.47.93-.93.91-1.42-.46-10.55 1.11-20.99 1.56-31.48a66 66 0 0 0-.09-8.3c-1.04-12.3-2.47-24.58-1.46-36.98.73-8.94.95-18 9.21-24.02 1.8-1.31 1.35-3.26 1.17-4.95-.49-4.52-1.27-9.01-2.91-13.28-2.17-5.61-4.4-11.2-6.6-16.8a65 65 0 0 0-7.6-14.14c-9.5-13.28-19.77-25.84-32.23-36.5-11.02-9.44-22.14-18.7-36.18-23.5-2.15-.73-4.18-1.8-5.39-3.95-.69-1.22-1.97-1.6-3.24-1.98-3.9-1.18-7.74-2.5-11.64-3.63-30.88-8.93-62.43-14.26-94.38-17.43-1.42-.14-3.28-.78-4.22.34-2.25 2.67-4.62 1.51-7.02.73-5.63-1.83-9.68-5.85-13.55-10.08-6.15-6.73-11.67-13.97-17.2-21.2-15.5-20.25-25.1-42.84-26.08-68.55-.65-16.95 2.83-32.97 12.63-47.23.66-.95 1.83-1.78 1.54-3.42l-13.59 4.7c-19.38 6.7-38.46 14.12-55.97 25.02-5.5 3.43-10.96 6.88-15.96 11.75 1.69.38 2.93.66 4.16.92 1.78.38 3.77.66 4.1 2.83.28 1.84-1.45 2.78-2.61 3.86a9 9 0 0 1-2.46 1.53c-2.42 1.01-4.99 1.35-7.6 1.53-4.09.26-4.78.84-5.35 4.84a126 126 0 0 0-1.5 15.03c-.28 12.29 3.27 23.68 7.36 35.45 8.27-4.48 16.8-6.99 25.48-9.03 4.83-1.13 4.8-1.23 7.53 2.57q2.64 3.69 6.69 1.79c.73-.35 1.45-.74 2.2-1.07a70 70 0 0 1 14.75-5c1.58-.31 3.35-.75 4.36 1.08 3.69 6.75 9.21 12.17 13.35 18.6 4.77 7.42 10.54 14.02 16.73 20.3 13.64 13.83 29.8 22.92 48.97 26.48 4.8.89 9.61 1.57 14.5 1.78.59.03 1.35-.04 1.46.87.09.8-.44 1.17-1.08 1.35-.78.21-1.58.44-2.39.46-7.96.2-15.95.96-23.75-1.43-22.31-6.86-40.11-19.76-52.63-39.6-3.92-6.19-7.76-12.4-12.36-18.14-1.7-2.13-3.47-4.36-3.7-7.29-.17-1.92-1.27-1.99-2.73-1.46-3.82 1.4-7.72 2.6-11.44 4.22-10.56 4.64-21.05 9.5-31.59 14.2-2.66 1.19-5.33 2.36-8.26 2.87-1.96.33-3.26-.08-4.69-1.6a32 32 0 0 1-7.26-12 100 100 0 0 1-4.4-41.84c.4-3.64 1.8-7.1 2.02-10.92-.97-.08-1.61-.1-2.24-.2-3.7-.57-4.33-1.97-2.52-5.25 1.27-2.3 3.32-3.53 5.6-4.47 1.36-.55 2.85-.82 3.8-2.08 2.84-3.77 6.56-6.67 10.17-9.7-1.22-1.7-2.46-3.02-3.22-4.58-1.18-2.41-2.6-2.12-4.72-1.25-14.49 6.06-26.59 15.59-38.06 26.05-.66.6-1.63 1.13-1.17 2.4.94 2.6.02 5.1-.43 7.63-1.12 6.23-2.3 12.45-2.09 18.85.29 8.43-.53 16.91.92 25.3 1.05 6.08 2.17 12.15 3 18.25 3.09 22.95 9.16 45.16 16.57 67.05 7.13 21.06 15.16 41.87 19.09 63.91 1.1 6.25 2.67 12.43 2.14 18.82-.3 3.6-.32 7.35-2.55 11.5-.39-5.43-.59-9.97-1.06-14.47a230 230 0 0 0-6.73-36.86c-4.77-17.4-11.47-34.2-16.92-51.41-2.56-8.06-5.93-15.82-7.96-24.06-3.56-14.37-6.12-28.9-8.33-43.51-1.21-8.11-4.01-15.98-3.59-24.32-.08 2.28-.13 4.56-.31 6.83a122 122 0 0 0 1.3 31.08c3.25 18.12 8.4 35.73 13.68 53.32 5.18 17.26 11.85 34.05 15.67 51.75 3.2 14.78 4.98 29.75 7.07 44.68.12.9.68 2.03-.2 2.77-.53.47-.7-1.73-1.53-.55a5.5 5.5 0 0 0-.74 2.78c-.53 9.3-5.8 15.05-14.18 17.9-8.46 2.88-17.16 5.06-26.14 5.75-5.33.42-10.66.81-16 1.04-2.25.1-3.68.93-4.3 3.13-.38 1.35-1.64 2.52-.94 3.94 11.04 1.31 21.98.3 32.91-.21q-5.67 1.67-5.68 7.94v1.47c.03 3.97 1.49 5.4 5.45 5.32 2.63-.05 3.19-.6 2.71-3.17a36 36 0 0 1-.64-7.76c.03-1.21.37-2.6 1.66-2.55 1.34.03 1.54 1.55 1.55 2.67.03 3.9-.22 7.78-1.26 11.57-3.31.52-6.62 1.22-10.02.99h-.49c-3.4-.13-3.65-.37-4.5-3.8-.6-2.42-.24-4.87-.38-7.3-.1-1.94-.59-3.02-2.88-2.66q-3.62.57-7.28.6c-2.08.03-2.9.68-2.61 2.9q.63 5.09.74 10.19c.08 3.23-.64 4.09-3.67 4.7-1.42.29-2.93.14-4.38.26-1.07.1-2.44-.1-2.4 1.63.02 1.31.65 2.05 2.02 2.29 2.08.38 4.12.93 6.18 1.4 15.85 3.59 31.7 7.21 47.56 10.72 2.4.53 4.9 1.37 7.34.58.06-.54.13-.72.08-.84-.56-1.36-1.16-2.7-1.7-4.05-1.4-3.45-1.28-3.7 2.68-5.38.45 3-1.25 6.12.7 9.17 7.02-1.1 12.3 2.33 17.18 6.96 1.93 1.85 2.26 3.55 1.25 6.05-6.28 15.54-8.73 32.3-15.1 47.83-1.16 2.83.5 6.39 2.98 7.1 7.67 2.16 15.1 5 22.59 7.7 3.31 1.2 3.38 1.16 4.87-2.28 2-4.63 3.9-9.3 5.89-13.92.7-1.62 1.56-2.97 3.47-3.8 3.57-1.54 3.48-1.76 2.85-5.56l-3.15-18.73c-.77-4.53.67-6.57 5.28-7.14 1.73-.21 3.51-.04 5.8-.04-1.93-5.85-5.58-10.5-7.6-16.46 2.02 1.26 2.53 2.83 3.3 4.2 10.92 19.24 21.71 38.55 32.78 57.7 6.5 11.27 12.63 22.78 20.23 33.4a12.8 12.8 0 0 0 7.8 5.24c3.33.85 6.83-.59 10.1 1.08.92.47 1.7-.75 2.34-1.43 3.7-3.92 7.8-7.36 12.02-10.7 2.02-1.62 3.64-3.54 4.4-6.25-3.8-2.22-7.48-4.28-11.04-6.52-1.46-.9-3.32-1.94-2.18-4.22 1.11-2.23 2.97-1.56 4.63-.85 3.9 1.66 7.8 3.27 11.56 5.19 2.6 1.33 5.16 1.88 7.98 1.26 4.95-1.07 10-1.28 15.02-1.63 13.3-.92 26.57-2.22 39.73-4.5 18.42-3.19 36.9-5.97 55.48-8.17 25.18-2.97 50.43-5.37 75.34-10.44 3.2-.65 5.7-1.82 8.23-3.67 2.02-1.5 2.42-3.06 1.98-5.44a79 79 0 0 1-1.28-11.12c-.09-2.28-.8-3.5-2.99-4.28a27 27 0 0 1-11.6-7.83c-1.24-1.44-2.3-2.23-4.5-1.7-1.6.37-3.44-.73-4.87-1.86-.65-.5-1.2-1.25-.96-2.1.27-1 1.26-.9 2.02-.81 1.28.14 2.77.96 3.79.55 3.75-1.53 5.74.77 7.95 3.02 3.14 3.22 6.31 6.43 10.14 8.54zm-133.5 167.88c-4.83 8.52-11.95 12.3-21.52 11.88-14.37-.64-22.48-11.1-18.95-25.03.56-2.23-.7-2.69-2-3.04-2.34-.63-4.84-.7-7.15-1.4-2.29-.69-5.07-1.4-5.52-4.2-.4-2.52-2.1-2.97-3.92-3.64-13.11-4.83-26.25-9.6-39.32-14.53-17.17-6.48-34.92-11.35-51.91-18.36a3 3 0 0 0-2.58 0c-.96 6.23-1.33 12.73-3.1 18.98-.52 1.88.85 2.1 2.23 2.32 20.1 3.44 39.5 9.37 58.5 16.67a300 300 0 0 1 24.47 10.92c3.82 1.86 4.22 2.49 3.63 6.37-.88 5.83-3.08 11.25-6.05 16.33-.3.5-.71 1.1-1.76.8a3.6 3.6 0 0 1-.44-3.04c.8-2.98 1.48-5.99 2.27-8.97 1.24-4.67 1.27-4.68-3.3-6.7a482 482 0 0 0-28.52-11.36c-17.09-6.28-34.84-10.51-51.88-16.95-.77-.28-1.55-.52-2.36-.2-4.6 1.74-9 .33-13.4-.85-3.46-.92-6.87-1.97-10.32-2.9-1.89-.52-3.06-.14-3.22 2.21-.21 3.1-1.25 6.05-2.45 8.9-.78 1.87-.78 2.95 1.59 3.46 6.37 1.38 12.46 3.75 18.63 5.78q29.6 9.74 59.17 19.64c4.64 1.56 5.22 2.97 3.57 7.6-2.71 7.67-5.5 15.31-8.22 22.97-.37 1.07-.62 2.18-1.63 2.89-.49-.56-.38-1.2-.22-1.78 2.3-8.8 4.35-17.67 8.7-25.78 1.36-2.55.99-3.31-1.75-4.12a20 20 0 0 0-1.9-.45c-10.69-2.16-21.04-5.54-31.49-8.6-15.54-4.57-30.49-10.9-46.27-14.79-5.85-1.44-11.8-2.59-17.66-4.1-10.35-2.67-21.1-3.77-31.68-5.53-1-.16-1.83-.22-2.45.91-1.12 2-2.62 3.95-2.77 6.19-.65 9.9-3.85 18.98-8.14 27.79-.42.85-.5 1.87-.77 2.8-.49 1.64.21 2.5 1.8 2.65 2.77.3 5.44.98 8.1 1.76 25.25 7.43 50.54 14.72 75.75 22.32 16.64 5 33.47 9.4 49.75 15.53 1.2.46 2.34.95 3.7.16 2.38-1.41 5.05-1.13 7.62-.8 5.47.73 10.95 1.47 16.38 2.47 26.7 4.94 53.38 9.97 80.05 14.96 7.03 1.32 14.06 2.7 21.19 3.3 4.65.4 4.21.24 4.83-4.21.74-5.23-3.5-9.46-1.57-14.93-.86.38-1.07.4-1.14.5q-.38.61-.62 1.25c-1.17 3.4-1.5 3.65-4.83 2.62a70 70 0 0 1-6.87-2.55 47920 47920 0 0 1-58.72-25.08c-4.33-1.85-8.71-3.6-12.95-5.65-2.2-1.05-4.74-2.11-4.93-5.42 2.03-.4 3.68.5 5.31 1.03 20.76 6.7 40.8 15.2 60.77 23.9 5.36 2.34 10.79 4.5 16.21 6.7 1.17.47 2.43 1.07 3.5-.36.95-1.25.2-2.04-.54-2.97-1.15-1.41-1.32-2.82.03-4.34.6-.68.84-1.72 1.13-2.64 1.96-6.27 5.13-11.93 8.69-17.4a22 22 0 0 1 3.2-3.65c.58-.57 1.5-.75 2.23-.17.8.64.51 1.49.09 2.2-2.17 3.63-4.4 7.22-6.58 10.84-2.02 3.33-4.09 6.65-6 10.05-1.02 1.82-1.34 3.62.98 5 2.53 1.52 1.92 5.37 4.81 6.8.35.17.36 1.6.12 2.3-.6 1.7.13 2.13 1.62 2.73 5.59 2.23 11.04 4.8 16.6 7.04 6.04 2.44 12.16 4.73 18.7 5.4 1.69.17 3.6.86 5.17-.52 1.66-1.47 3.4-1.2 5.45-.87 3.23.5 6.35 1.3 9.48 2.16 6.43 1.77 12.68 4.11 19.24 5.45 5.17 1.06 5.53 1.6 8.7-4.16l-15.28-10.38c-.68-.47-1.35-1.02-2.22-.75-2.87.92-4.74-1-5.22-3-.44-1.89-.24-4.78 1.64-6.1 2.7-1.9 2.97-4.83 4.46-7.38a119 119 0 0 0-20-10.5c-14.55-6.12-28.86-12.72-42.68-20.36-8.37-4.62-16.95-8.89-25.27-13.98zm-223.79 93.73c4.9-1.19 8.63-.98 12.43-.95 12.86.1 25.67.86 38.49 1.7 12.48.82 24.98 1.41 37.44 2.49 16.33 1.4 32.67 2.82 48.97 4.69 22.62 2.58 45.19 5.45 67.33 10.88 7.88 1.92 15.97 3.06 23.58 6.04 1.3.5 2.94 2.12 3.93.66 1.6-2.37 5.44-2.24 5.83-5.98.39-3.68 2.06-6.87 6.08-8.02 1.6-.46 1.8-1.61 1.77-3.02-.04-2.27-.13-4.56 0-6.84.26-4.2 3.01-7.53 6.4-7.17 2.77.28 5.37 1 7.9-.74.24-.18 1.09.03 1.28.31 1.23 1.81 2.92 1.02 4.46.86 12.37-1.27 24.68-.39 36.97 1.13 4.66.57 9.38 2.27 13.94 1.9 5.04-.42 8.34 1.66 11.77 4.51 1.07.9 1.73 2.43 3.44 2.5q.51-.55.96-1.1c2.2-2.73 2.1-3.3-.9-5.05-.83-.49-1.74-.88-2.54-1.43-2.68-1.83-6.1-3.29-6.85-6.61-.61-2.71-2.26-2.89-4.09-3.03a64 64 0 0 1-12.94-2.33c-6.03-1.75-12.3-2.98-17.6-6.7-3.18 3.14-3.17 3.1-5.57 2.85-12.3-1.27-23.75-5.2-34.57-11.1-.9-.5-1.73-1.6-3.02-.79-.73 3.58.09 7.15-.06 10.72-.14 3.06-.33 3.26-3.42 3.18-.8-.02-1.6-.19-2.42-.27-11.8-1.16-23.5-3.15-35.22-4.96-29.26-4.48-58.26-10.36-87.09-17.01-1.91-.44-4.12-1.21-5.75-.33-4.48 2.45-9.21 1.75-13.83 1.58-21.3-.76-42.6-1.77-63.9-2.62-16.6-.67-33.2-.3-49.8.2-2.48.07-3.99.64-4.9 3.5-3.81 12.1-8.83 23.75-14.29 35.2-.6 1.26-1.47 2.47-1.26 4.16 14.43 5.9 28.47 12.74 43.91 16.84.66-3.67 1.25-7 1.86-10.31.13-.65.34-1.43-.17-1.86-2.7-2.22-3.93-5.94-8.54-7.7zm341.95-38.3c3.24 1.75 6.12 3.21 8.91 4.83 6.2 3.61 11.81 8.08 17.7 12.15 13.77 9.53 27.57 19.02 41.1 28.92 14.13 10.36 27.5 21.85 43.5 29.47 1.2.57 2.2 1.25 3.62.86 2.98-.81 5.87-1.76 8.54-4.02l-31.73-25.36c1.73-.6 2.44.57 3.3 1.14 6.74 4.54 13.55 8.98 20.14 13.75 4.73 3.43 9.7 6.58 13.95 10.64 3.54 3.38 3.54 3.5 7.32.8 1.14-.81 2.53-1.5 3-3.2-15.2-14.29-31.66-27.16-48.8-39.9 2.13-.62 3.07.5 4.07 1.13a638 638 0 0 1 33.72 22.44 100 100 0 0 1 12.4 10.23c2.19 2.17 3.8 1.8 6.11-.86 2.2-2.54 2.35-2.85-.26-5.05-5.44-4.58-10.68-9.4-16.56-13.45-23.44-16.15-46.79-32.45-70.23-48.6-11.52-7.93-23.03-15.9-35.74-21.9-3.92-1.84-5.08-1.64-7.67 1.68-.5.64-.81 1.4-1.2 2.12-4.22 7.7-8.82 15.15-15.18 22.18zM512.56 590.83c-1.45 7.02-3.58 8.6-10.3 8.18-1.33-.1-1.66.63-2.1 1.5-2.37 4.63-4.8 9.23-7.1 13.9-1.35 2.75-1.27 2.89 1.53 3.7 15.52 4.5 30.13 11.22 44.66 18.14 21.9 10.43 42.78 22.74 64 34.38 11.84 6.49 24.24 11.9 35.6 19.25 2 1.29 2.5-.13 3.28-1.36 4.6-7.26 8.84-14.75 14.62-22.06-45.3-30.72-95.15-51.87-144.18-75.64zM640.66 766c-.45-12.5-4.02-19.92-11.14-26.67a8 8 0 0 0-5.08-2.34c-19.39-1.83-38.76-3.8-58.14-5.7a10 10 0 0 0-2.9.1c-1.64.31-2.33 1.13-2.17 3.06 1.06 13.27 1.22 26.59 2.5 39.84.2 2.02.31 3.32 2.9 3.32 10.46.02 20.58 2.43 30.75 4.52 9.21 1.9 18.14 5.1 27.54 6.16a4.2 4.2 0 0 1 3.46 2.36c1.24 2.45 2.82 2.01 4.83 1.18 2.63-1.1 3.83-3.74 5.78-5.25 4.01-3.1 3.4-6.25 1.64-9.76a6.5 6.5 0 0 1-.49-5.13c.54-1.75.57-3.51.53-5.7zM443.7 551.1c9.34 4.06 17.54 8.35 25.75 12.64 9.94 5.18 19.92 10.28 29.79 15.6 5.29 2.86 7.29 6.57 4.7 12.44-.32.75-.57 1.53-.95 2.24-.74 1.43-.08 2.07 1.23 2.44 1.53.43 2.65.05 2.78-1.66.1-1.29-.2-2.6-.15-3.9.03-1.1-.15-2.72.97-3.08 2.92-.92 2.29-3.16 2.2-5.14-.21-5.2.52-9.78 4.62-13.77 3.46-3.37 2.7-6.1-1.3-9.15a57 57 0 0 0-3.2-2.24c-6.6-4.35-7.73-7.71-4.9-16.29 1.32-4.04 3.73-7.55 6.14-11.04.8-1.15 2.23-1.93 2.32-4.27-18.62 3.63-37.46 2.5-55.97 5.02.27 4-1 7.29-3.9 10.07-3.27 3.12-6.42 6.38-10.14 10.1zm224.14-270.8h.48c13.33-.52 25.33-5.34 36.82-11.63 1.4-.76 2.41-2.16 3.68-3.17 1.74-1.42 1.36-2.58-.15-3.92-8.47-7.6-16.96-15.2-25.31-22.92-1.75-1.62-3-1.25-4.65-.12-5.27 3.6-11.09 6.1-16.96 8.5a533 533 0 0 0-12.14 5.04 28 28 0 0 0-7.01 4.37c-4.47 3.84-4.18 11.52.51 14.87 7.46 5.33 15.28 9.27 24.72 8.98zm-23.51 446.54c-.43 2.06-1.82 3.55-.88 5.46.22.45.16 1.06-.3 1.27-4.2 1.92-2.86 6.54-4.74 9.59-.49.8-.01 1.52.4 2.25.88 1.56 1.82 3.09 2.52 4.73 2.86 6.7 4.68 13.54 1.96 20.75-.45 1.19-.51 2.12.24 3.17 2.09 2.92 2.72 6.2 2.28 9.73-.11.83-.16 1.85.79 2.04 1.85.4 3.84 1.56 5.62.48 2.2-1.34 4.36-.86 6.6-.62 3.4.37 6.75 1.03 9.94 2.31 1.54.62 2.37.14 2.94-1.42 1.11-3.05 2.35-6.06 3.6-9.06 4.05-9.8 6.74-19.99 8.7-30.4.47-2.53-.27-3.7-2.45-4.91a175 175 0 0 0-37.23-15.39zm56.51 101.71c1.95-2.82 3.58-5.65 5.66-8.08 7.66-8.88 14.33-18.46 20.71-28.27.98-1.5 2.16-2.84 3.2-4.3 1.06-1.47.7-2.45-1.13-2.64-1.12-.12-2.29.13-3.4-.01-1.5-.2-2.95-.81-3.05-2.6-.16-2.71-1.5-3.49-4.1-3.35-1.13.06-2.35-.96-3.48-1.6-2.54-1.43-5.16-2.77-7.54-4.45-2.08-1.46-3.8-1.66-6.21-.56-4.06 1.86-9.37 1.35-12.34-2.38-1-1.26-1.7-3.22-3.97-3.29a93 93 0 0 1-7.36 18.08c-5.68 10.57-5.46 10.76-17.8 6.86-1.39-.44-3.01-1.74-4.05-1.35-3.15 1.17-5.74-.5-8.55-.92-1.02-.16-2.09-.85-3.03.18 2.31 4.61 3.5 5.52 8.06 5.98 1.77.18 3.56.22 5.36.29 4.83.2 8.88 1.54 10.02 7.03 2.82-1.07 5.26-3.02 8.06-1.05 2.39 1.65 2.8 4.66 4.63 7.16 1.91-2.13 4.37-2.74 7.01-2.95 1.27-.1 2.2.25 3 1.2 3 3.7 5.71 7.53 5.8 12.56.05 3.53 1.93 6.04 4.5 8.46M366.37 466.23c.28 5.17.66 10.49.86 15.81.15 4.06.12 8.12.11 12.19 0 1.33-.18 2.97-2 2.62-3.28-.62-4.14 1.32-5.13 3.8-1.02 2.53-2.54 4.89-3.93 7.27-1.53 2.66-3.16 5.25-5.01 8.31 22.53 8.5 43.8 19.04 66.24 26.94-1-2.03-2.2-3.72-3.47-5.37a165 165 0 0 1-10.29-15.38c-10.38-17.27-19.76-35.08-28.98-52.99-2.87-5.57-1.7-4.72-7.7-3.57-.15.02-.28.14-.7.37M506.89 85.8l.4.97c-1.83 1.25-3.69 2.47-5.5 3.77-1.98 1.42-4.05 2.73-5.65 4.62-.68.8-1.2 1.68-.74 2.64.53 1.1 1.73.8 2.6.56 3.55-1.02 7.2-1.8 10.67-2.97a91 91 0 0 1 15.6-3.75c25.89-3.97 52.02-5.34 78.1-7.28 1.12-.08 2.27-.17 3.38-.39 1.04-.2 1.75-.88 1.68-2.03-.06-1.07-.99-1.16-1.74-1.34-3.97-.95-8.04-.92-12.08-1.24-15.4-1.22-30.79-2.29-46.24-2.4-9.6-.07-19.2-.1-28.8-.21-7.12-.08-14.3-.28-21.38 1.17-6.52 1.31-13.11 1.87-19.75 2.22-3.88.2-7.62 1.45-10.35 4.6-.53.62-1.05 1.27-.69 2.16.4.97 1.34.83 2.1.8 6.33-.19 12.66-.36 19-.67 6.47-.32 12.93-.79 19.4-1.2zm203.63 222.74c9.59-.56 18.15-2.78 26.03-7.4 1.55-.9 2.08-1.66.93-3.4a315 315 0 0 0-15.07-20.97c-1.06-1.35-1.97-1.74-3.65-.81-4.44 2.46-9.36 3.65-14.22 4.98-3.28.9-6.54 1.9-9.81 2.82-4.28 1.2-7.16 3.8-7.82 8.33-.67 4.5 1.32 7.87 4.9 10.41 5.77 4.1 12.33 5.63 18.72 6.05zM455.36 198.52c.12 1.45.1 2.95.42 4.36.76 3.3 2.27 6.33 5.79 7.23 4.55 1.15 9.12 2.47 13.86 2.64 8.94.33 17.89.05 26.83-.18 7.92-.2 15.88-1.85 23.8.26 1.88.5 3.78 1 5.71 1.26 3.11.42 4.09-.93 3.33-3.99-.81-3.29-3.14-4.74-6.14-5.5-6.47-1.65-13.08-2.37-19.72-3.06-11.76-1.23-23.68-1.64-34.4-7.81a21.6 21.6 0 0 0-13.2-2.65c-5.53.58-6.7 1.87-6.29 7.45zM335.84 589.14c4.97.6 6.63-.54 7.05-4.34.55-5.17 1.38-10.27 2.29-15.37.45-2.5-.09-2.86-3.6-3.82-2.18-.6-3 .38-3.27 2.2-1.3 8.5-4 16.7-5.62 25.13-.72 3.7-.65 3.8 2.95 4.47a170 170 0 0 1 20.79 5.09 22 22 0 0 0 7.67 1.18c1.57-.06 2.16-.52 2.4-2.19a692 692 0 0 1 3.51-20.58c.36-2-.21-3.55-1.82-4.65a48.5 48.5 0 0 0-19.09-7.68c-1.95 5.87-2.94 11.64-4.19 17.32-1.35 6.16-1.25 6.18-7.47 4.21-.3-.09-.55-.33-1.58-.96zm374.37-480.92c1 2.8 3.31 3.49 5.27 4.45a413 413 0 0 1 58.86 35.18c3.13 2.26 6.74 3.86 10.17 5.71 1.16.63 2.56 1.11 3.56-.1.94-1.14.39-2.5-.3-3.64a25 25 0 0 0-5.06-5.87c-9.39-8.34-19.98-15-30.4-21.9a70 70 0 0 0-17.05-8.19c-4.3-1.4-8.6-2.84-12.72-4.69-4.04-1.8-7.99-1.86-12.33-.93zM669.39 450.8c2.6.13 5.07-.34 7.25 1.2 2.55 1.82 2.68 3.3.54 5.5-.96.99-2.77 1.04-3.16 3.07 3.61 1.22 6.56 3.85 10.66 4.72-.6-4.33 1.55-7.49 3.55-10.6 5.6-8.7 9.46-18.05 11.07-28.3.66-4.19 1.82-8.33 1.85-12.79-.6.29-1 .35-1.13.58-7.8 12.32-17.7 22.76-28.86 32.04-1.34 1.11-2.16 2.39-1.76 4.58m-361 41.45c-.24 2.43-.27 2.45 1.26 3.66a37 37 0 0 0 3.18 2.24c1.83 1.15 3.42.43 3.69-1.74.18-1.45-.06-2.94.18-4.38 1.98-11.8 3.33-23.72 7.19-35.14.84-2.51-.12-3.96-2.66-4.66-3.22-.9-4.16-.42-4.95 2.42q-2.8 10.06-5.64 20.1c-.57 2.01-1.51 3.94.14 5.92a2.1 2.1 0 0 1 0 2.73c-2.12 2.74-1.3 6.24-2.4 8.84zm193.87 132.78c-.83-.46-1.23-.74-1.66-.91-3.77-1.5-3.72-1.48-5.58 1.98-2.3 4.25-2.5 8.76-1.49 13.29 1.52 6.83 9.33 12.28 15.24 10.94 6.16-1.4 11.96-8.64 12.02-15.02.03-2.78-.03-2.85-3.6-3.36-.89 6.6-3.3 9.72-8.18 10.54-3.82.65-9.3-2.22-11.04-5.76-1.78-3.67-.62-7 4.29-11.71zm177.65-137.07c2.59 1.96 5.4 3.64 7.48 6.2 2.16 2.67 2.3 4.86.12 7.44-3.1 3.69-6.54 6.91-11.95 6.3-.6-.08-1.33-.06-1.42 1.1 1.5 1.76 3.95 1.76 5.98 2.47 4.35 1.53 5.47 1.06 8.27-2.69 3.03-4.05 5.18-8.64 7.72-12.98 3.22-5.51 2.83-6.74-2.76-9.97q-.63-.35-1.3-.68c-8.83-4.58-5.75-4.54-12.13 2.8zM274.7 281.7c-2.1 1.16-2.39 2.68-2.9 3.96-4.25 10.55-8.16 21.23-10.47 32.4-1.95 9.38-3.37 18.83-1.77 28.46.32 1.93.26 4.62 2.4 4.82 2.3.23 2.41-2.61 3-4.35 2.42-7.1 3.59-14.47 4.6-21.87.31-2.4 1.67-4.8.37-7.86-1.12 5.57-2.15 10.61-3.15 15.68-1 5.13-1.58 10.4-4.92 15.87-2.12-24.1 5.65-45.28 12.83-67.1zm-5.68 170.54c5.14-3.05 10.1-1.87 15.03-.91 3.5.68 6.97 1.6 10.44 2.38 1.9.43 3.8.87 5.72 1.19 1.73.27 1.5-1.23 1.9-2.22.41-1.1-.19-1.42-1.04-1.65-.94-.25-1.88-.52-2.83-.72q-25.2-5.43-50.42-10.83c-.72-.15-1.53-.58-2.28.2.65 1.37 2.02 1.47 3.23 1.73 5.25 1.16 10.18 3.25 15.17 5.16 2.52.96 4.79 2.06 5.08 5.66zm325.95 161.83c-.19-.96-1-1.2-1.64-1.53-18.34-9.06-36.02-19.4-54.7-27.78-.85-.39-1.85-.5-2.35-1.51-1.23-2.51-2.3-1.09-3.49.13-1.4 1.45-.48 2.31.7 3.05.96.59 2.02 1.05 3.06 1.5 18.32 7.92 36.36 16.45 54.38 25.05 1.2.57 2.38 1.82 4.04 1.09m99.69 230.24c2.09 1.52 3.37 3.2 3.4 5.1.05 2.58 1.57 4.55 2.08 6.87.37 1.7 1.23 1.94 2.7 1.97 4.07.12 4.78-.42 5.23-4.36.33-2.8-.44-5.46-1.02-8.14q-.56-2.68-3.46-2.71c-2.75-.02-5.47.03-8.92 1.28zm21.98 17.33c2.45-4.66 1.18-9.24 1.2-13.71 0-.71-.54-1.25-1.1-1.5-2.47-1.06-4.87-2.44-8.11-2.28 1.34 3.48 2.44 6.68 2.13 10.11-.38 4.33-.4 4.32 3.23 6.07zM588.16 666.79c-.62-1.06-1.67-1.37-2.6-1.85-10.94-5.73-21.83-11.56-32.83-17.17-7.08-3.61-14.3-6.95-21.5-10.33-1.04-.48-2.66-1.91-3.3-.4-.84 2 1.55 2.13 2.75 2.48 2.68.8 5.09 2.13 7.56 3.34 15.43 7.6 30.83 15.26 46.27 22.84 1.08.53 2.08 1.63 3.65 1.09M251.99 403.56c1.17 5.01-.02 9.49.09 14 .03 1.73.42 2.82 2.45 2.7 1.13-.08 2.27.1 3.4.18 1.52.1 2.03-.74 1.88-2.1-.28-2.42-.73-4.82-.84-7.24-.27-6.22-.2-6.23-6.98-7.55m494.89 268.07c15.64 12.25 30.56 25.3 45.5 38.32-2.8-6.47-36.23-34.55-45.5-38.32m-312.52-111.8-.41 1c1.13.53 2.26 1.1 3.43 1.6q17.24 7.4 34.47 14.77c2.24.96 4.48 1.94 6.76 2.76 1.05.37 2.3.47 2.54-1.57-15.36-6.67-31.1-12.58-46.8-18.56zM443.1 94.6c1.54-.09 3.43-.35 5.34-.75 2.68-.58 4.68-2.03 6.48-3.95.85-.9 1.25-1.86.71-3.07-.6-1.37-1.85-1.26-2.9-1.06-4.11.82-8.18 1.85-11.92 3.86q-.42.24-.83.5-1.98 1.07-1.41 3.23c.37 1.43 1.6 1.4 2.7 1.51.47.04.96-.13 1.83-.27m83.63 67.51c23.56 1.06 47.05-1.6 70.6-.6-23.54-.23-47.1-1.52-70.6.6M258.67 490.84c1.18.43 2.32.93 3.52 1.27q14.98 4.24 29.97 8.43c1.25.35 2.53.59 3.77.94 1.05.3 1.84.25 2.38-.92.62-1.34-.33-1.73-1.16-2.16-1.6-.8-3.3-1.21-5.1-1.48a270 270 0 0 1-23.88-4.58c-3.07-.76-6.12-1.94-9.49-1.5zm252.35 139.92c.04-1.26.06-2.68-1.84-3.18-1.2-.32-2.43-1.34-3.54-.07-1.82 2.07-3.38 4.37-3.5 7.24-.09 1.89.76 3.51 2.61 4.21 2.07.79 3.34-.53 4.36-2.08a10.7 10.7 0 0 0 1.9-6.11zm25.85-105.64c3.57 1.7 6.73 2.9 9.5 4.92 2.21 1.61 4.63 2.95 6.98 4.36 1.26.77 2.64 1.7 3.58-.36.74-1.65 1.48-3.33-1.04-4.33-4.8-1.93-9.52-4.08-14.58-5.26-1.3-.3-2.74-.92-4.44.67m106 24.4c6.83-2.22 11-7.35 14.53-13.16.32-.52.34-1.3-.25-1.78-.58-.49-1.2-.2-1.76.1-3.45 1.84-6.69 3.92-8.37 7.68a31 31 0 0 1-4.15 7.16M201.34 929.86c-7.27 4.42-8.49 13.12-2.95 18.47zM647.9 816.08a64 64 0 0 0 6.1 12.69c.31.52 1.13.63 1.8.38.74-.26.89-.95.78-1.57a41 41 0 0 0-3.98-11.95 1.8 1.8 0 0 0-1.59-.97c-1.21-.06-2.64-.4-3.1 1.43zM602.93 550.8l.4-.96c-4.4-2.7-8.81-5.43-13.26-8.06-2.93-1.74-5.95-3.32-8.92-5-1.05-.6-1.74-.45-2.34.67-.73 1.38.32 1.69 1.14 2.09 4.51 2.2 9.06 4.36 13.58 6.57 3.14 1.54 6.27 3.13 9.4 4.68zm205.61 157.93c3.3-3.3 3.71-6.7 2.1-10.47-.55-1.3-.98-3-2.88-2.68-1.67.29-2.09 1.85-2.38 3.3-.75 3.79 1.32 6.6 3.15 9.85zM522.02 549.49c.64-5.61 2.58-10.81 5.08-15.82.28-.55.23-1.26.3-1.9.09-.67.02-1.38-.63-1.68-.85-.38-1.57.08-2.09.76q-.62.75-1.03 1.64c-2.1 4.8-3.43 9.78-3.1 15.08.04.72-.1 1.67 1.46 1.93zM267.49 879.93c-.1-.35-.12-.73-.31-.95-2.3-2.81-4.92-5.19-8.52-6.2-1.75-.5-3.2.32-4.47 1.34-.96.77-.91 1.68.32 2.22 1.19.5 2.45.86 3.62 1.42 2.33 1.13 4.59 2.42 6.93 3.51 1.28.6 2.18.08 2.44-1.33zm282.73-665.87c-.48-.04-.81-.03-1.1-.13-.92-.27-1.88-.8-2.54.37-.54.99.11 1.94.46 2.74.79 1.79 5.8 3.97 7.84 3.59 2.37-.43 2.77-1.22 1.56-3.18-1.46-2.38-3-4.63-6.22-3.4zm-228.6-78.92c3.2-.69 6.22-.62 9.27-.38a5.6 5.6 0 0 0 3.23-.82c1.01-.58 2.04-1.23 1.9-2.53-.16-1.43-1.47-1.46-2.56-1.68-5.23-1.07-8.47 2.3-11.86 5.42zm245.6 391.44c-1.4.15-2.74 3.47-1.87 4.8 1 1.52 2.57 2.46 4.01 3.49 1.26.89 2.18-.06 2.86-.97.74-.98 2.3-1.5 1.97-3.1-.17-.84-6.04-4.33-6.97-4.23zm-356.2 364.15c-6.9 1.13-6.1 6.4-7.48 10.4q4.47.9 5.4-2.7c.6-2.3 1.24-4.62 2.07-7.7M493.3 581.87c-2.1.04-4.36 1.9-3.93 3.5.5 1.88-.02 4.53 2.43 5.34 1.66.56 4.19-3.06 4.23-5.7.04-1.99-1-2.95-2.73-3.14M855 327.69c1.86-.25 2.33-1.3 2.6-2.39.72-3 .97-6 .29-9.05-.3-1.33-.78-2.7-2.33-2.59-1.96.14-2.08 1.8-1.78 3.29.7 3.48 1.23 6.96 1.21 10.75zm-418.68-186.3c-1.39-5.21-3.43-10.1-3.77-15.44-.07-.97-.13-2.2-1.37-2.12-1.45.1-1.63 1.42-1.45 2.58.85 5.58 2.5 10.84 6.6 14.96zM678.02 817c-1.13.28-2.8-.28-3.45 1.05-.68 1.38.38 2.75.95 4.03.57 1.3 1.66 1.88 3.12 1.73 2.17-.22 4-2.13 3.93-4.17-.05-1.67-1.66-2.62-4.55-2.64m-323.91 13.4 1.12.55c1.78-2.84 3.66-5.64 5.32-8.55 1.56-2.74 4.31-4.91 4.06-8.57-5.02 4.64-7.41 10.82-10.5 16.57m170.78-256.98c-2.05.44-2.63 2.52-4.65 3.16-2.16.67-2.67 3.1-2.63 5.27.04 1.68-1.58 3.48.58 5.96 1.25-5.76 5.27-9.3 6.7-14.39M324.2 848.72 346.73 836l-.56-1c-8.02 3.24-15.13 8.16-21.97 13.73zm-98.23-406.46c2.67-.26 4.68-.88 5.51-3.54.45-1.43.38-2.64-.87-3.36-1.08-.62-2.28-.16-3.02.84-1.23 1.68-2.63 3.36-1.62 6.06m434.1-281.91c7.53-1.74 13.24 3.6 19.94 5.13-6.14-3.7-11.94-8.7-19.93-5.13m95.8 173.7c-4.64 4.9-10.24 8.84-14.56 14.08 5.5-4 10.9-8.11 14.55-14.07m-476.89 81.32c-.44-3.38-1.24-6.85-.46-10.34.2-.92.13-1.6-.96-1.7-1.1-.09-2.06.36-1.94 1.55q.44 4.77 1.23 9.5c.1.67.82 1.39 2.12.99zm52.27 269.21c.07 1.13-.08 2.19 1 2.72.23.12.65.07.89-.07 1.07-.62 3-5.2 2.75-6.54-.16-.82-.53-1.63-1.43-1.78-.88-.14-1.56.45-1.96 1.18a12 12 0 0 0-1.26 4.48zm367.08-578.16c1.4.16 2.25-.35 2.74-1.18.72-1.22-.35-1.63-1.17-2.1-.97-.55-1.89-1.2-2.92-1.6-1.36-.5-2.73-.03-3.22 1.27-.48 1.29.8 1.93 1.8 2.43.98.5 2.04.88 2.77 1.18m-32.03 4.5c4.09-.13 6.93 1.54 10.04 2.27 1.09.25 2.1.83 3.27.7.72-.08 1.2-.37 1.17-1.17-.02-.59-.57-1.01-.92-.93-3.42.76-6.08-1.49-9.11-2.24-1.35-.34-2.73-.92-4.46 1.37zm25.02 288.6c-2.36 5.67-4.92 11.32-7.02 17.14 3.47-5.26 6.12-10.84 7.02-17.15m90.32-169.96c-1.22-1.37-2.19-2.68-3.4-3.74-.93-.82-1.17-2.72-3.7-2.1 3.76 2.43 5.72 6.3 9.69 8.17.78-2.44.06-3.93-1.56-5.32-.53 1 .37 1.85-1.03 3M276.96 530.72c.42-5.3 0-10.47-2.13-15.38-.46 5.3 1.71 10.2 2.13 15.38M715.48 360.7v12.25c1.92-6.6 1.95-7.53 0-12.25m-371.2-162.3c-3.86.74-7.56 1.87-10.87 4 4.18.14 7.45-2.12 10.86-4m436.6 101.23c.25-1.73-.39-2.88-2.09-3.2-1.24-.23-1.15.78-1.1 1.52.1 1.59.08 3.61 1.82 4.04 1.64.41.95-1.54 1.36-2.36zm-55.24 58.51c-.3 2.68-1.92 5.27-1.2 8.15.64-2.66 2.17-5.16 1.2-8.15m8.14 523.35c1.03 1.1 1.88 2.27 2.96 3.13.75.6 1.94.66 2.5-.35.39-.7.04-1.63-.78-2-1.39-.64-2.72-1.76-4.68-.78M623.74 84.27c0-1.27-.95-1.56-1.91-1.7-1.46-.23-2.65.18-2.7 1.9-.02 1.35 1.22 1.32 2.1 1.47 1.28.21 2.2-.3 2.51-1.67M262.2 471.33l-1.22-.18-.99 6.07a9 9 0 0 0 2.21-5.89M223 456.04c3.89 2.38 4.57 2.56 7.56 2.27-2.18-1.15-4.5-1.55-7.55-2.27m58.01-290.72v-6.95a10 10 0 0 0 0 6.95m1.95 370.65c-1.28-.7-2.37-2.14-4.6-1.03 1.53 1.45 2.86 1.98 4.6 1.03m69.98-341.5q-2.8.66-5.64 2.75c2.4-.72 4.04-1.46 5.64-2.74m270.44-31.12c-1.8-.9-3.24.05-4.32 0 1.04-.13 2.4.9 4.32 0m180.44 554.22q-2.25 1.53-2.73 3.98a6.8 6.8 0 0 0 2.73-3.98m-94.06-326.5c.62-1.24.69-2.4.3-3.86-.93 1.38-.7 2.54-.3 3.87m-452.3 84.02c.17-1.86.93-3.36-.22-5.37a6.3 6.3 0 0 0 .21 5.37m18.46-135.48c.71-1.8.9-3.25.03-4.87-1.11 1.62-.5 3.06-.03 4.87m417.29-2.07c-.85.8-.67 1.62-.45 2.37.2.71-.39 1.68.7 2.3.12-1.63.64-3.14-.25-4.68zm-45.18-189.78c-.39-.27-.5-.42-.63-.42-.79-.03-1.57-.08-2.35 0-.46.04-.49.46-.02.55.76.17 1.55.18 2.33.22.13 0 .27-.13.67-.35m43.82 15.96c.7-.1.97-.72.75-1.3-.2-.52-.8-1.23-1.22-1.23-1.01-.03-1.03.93-1 1.68.05.84.75.8 1.47.85m-462.1 707.49c-.53-.12-1.05.2-1.04.58.04.87.68 1.32 1.54 1.42.52.06 1.02-.24 1.03-.64.02-.94-.72-1.25-1.54-1.36m26.7-500.57c-.98-.84-1.93-1.55-3.35-1.03.9 1.2 1.93 1.63 3.35 1.03M492.3 620.87c-.3-.37-.43-.71-.68-.83-.79-.38-1.15.17-1.41.8-.2.46-.22 1.01.44.9.57-.1 1.08-.55 1.65-.86zm81.02-55.92c-1-.6-1.62-1.58-2.75-.78.93.05 1.23 1.51 2.75.78m-341.27-85.6c-.64.07-1.24.26-1.23 1.04 0 .5.29.88.85.88.7 0 1.2-.34 1.25-1.07.03-.53-.4-.74-.88-.85zm3.35-7.55c.14-.53-.09-.93-.6-.9-.74.01-1 .7-1.09 1.27-.06.35.26 1.1.47 1.12 1.05.13 1.08-.77 1.23-1.5zm433.08-16.33c1.58.7 2.68.83 3.83-.04-1.22-.8-2.35-1.1-3.83.04"/><path fill="#000" d="M578.35 994.45c-2.03.04-3.41-.26-4.4-2.69-2.46-6-5.5-11.75-8.34-17.58a8 8 0 0 0-1.3-2.03c-11.35-12.1-21.33-25.3-31.23-38.57-15.28-20.47-33.78-37.64-54.42-52.57a469 469 0 0 0-15.69-10.7c-1.61-1.07-2.98-2.04-2.07-4.24l1.75-1.72c3.44-3.5 5.93-7.72 8.9-11.58 2.35-3.05 2.3-3.08 6.33-2.1.45.12.95.03 1.48.03 0-.33.11-.67-.01-.85-.74-1.07-2.98-1.4-1.96-3.32.83-1.54 4.1-2.04 5.74-.88a37 37 0 0 1 4.36 3.88c14.43 14.32 28.81 28.7 42.72 43.54 17.63 18.79 33.05 39.29 47.27 60.73 5.38 8.13 10.97 16.13 14.72 25.2.68 1.64 1.3 3.34 1.7 5.07.96 4.35-1.8 7.07-6.18 6.44-3.9-.57-7.29.44-9.48 4.05z"/><path fill="#000" d="m462.65 864.35-1.75 1.72c-1.18 1.97-2.6 1.33-4.12.43q-4.6-2.72-9.24-5.39c-22.87-13.26-47.48-21.4-73.64-24.94-2.56-.35-5.1-.86-7.65-1.35-3.9-.77-4.4-1.75-2.93-5.55.23-.6.3-1.25.44-1.9l1.08-1.03c3.71-3.74 6.1-8.42 8.85-12.8 1.52-2.46 3.15-3.23 5.95-2.95a181 181 0 0 1 39.93 8.62c18.33 6.24 36.04 14.02 53.78 21.68 1.03.45 2 1.03 3.24 1.69-3.93 5.76-7.8 11.39-11.64 17.03-1 1.46-2.26 2.82-2.3 4.74m3.96-13.32c1.95-1.49 2.79-2.46 3.23-4.23-1.69.88-2.2 2.02-3.23 4.23m46.68 151.83a393 393 0 0 1-52.3-7.34c-21.33-4.55-42.33-10.22-62.8-17.8a40 40 0 0 1-4-1.76c-1.1-.55-2.14-2.06-1.56-2.7 2.53-2.8.85-5.8.77-8.64a138 138 0 0 1 2.58-31.02c2.29-11.28 5.2-22.46 6.56-33.93.12-.95.56-1.86.73-2.81.37-2 1.53-2.2 3.22-1.61 3.98 1.41 7.98 2.76 11.96 4.16 23.27 8.25 46.5 16.62 69.12 26.57 8.93 3.94 17.38 8.78 26.13 13.03 2.33 1.14 2.3 3.63 1.73 5.52-1.85 6.13-2.25 12.42-2.93 18.7a322 322 0 0 0-1.62 28.2c-.02 1.36.23 2.09 1.62 2.4 2.5.57 3.69 2.56 4.64 4.66 1.4 3.1.72 4.18-2.6 4.35-.48.03-.97 0-1.25 0zm-.8-1.88c-.84-1.6-1.64-2.55-1.48-3.7.22-1.67.23-3.12-1.78-3.84-1.22-.45-1.17-1.79-1.43-2.9-.75-3.2-.7-6.45-.84-9.68-.51-12.2-.95-24.38 2.95-36.24 1.16-3.53 1.07-3.72-2.55-5.26a2476 2476 0 0 0-36.43-15.14c-19.26-7.78-38.97-14.38-58.15-22.39-3.38-1.4-4.09-1.1-4.36 2.36-1.07 14.15-4.5 27.86-7.5 41.65-1.66 7.6-3.12 15.26-3.29 23.09-.05 2.28.56 3.43 2.97 4.1 28.6 8 57.06 16.57 86.05 23.17 8.2 1.86 16.35 4.08 25.84 4.78m179.99-37.72c7.69.95 15.01 3.2 19.64 10.52 1.93 3.06 3.3 6.3 3.15 10.06-.06 1.59-.21 3.14.65 4.72.9 1.67.1 3.5-.62 5.15-2.88 6.48-8.25 9.45-14.95 10.2-18.38 2.04-28.12-17.37-24.36-28.5 2.21-6.55 9.46-12.11 16.49-12.16m9.74 25.41a17 17 0 0 0-3.15-9.06c-3.77-4.7-9.93-4.14-12.84 1.17-2.27 4.15-1.4 9.22 2.23 13 2.86 3 6.66 4.08 9.7 2.68 3.58-1.65 3.45-5.16 4.06-7.79m7.42-6.97a13.3 13.3 0 0 0-.28 6.88q2.84-2.4.28-6.88m-362.03 20.37c-1.14-.22-1.43-1.03-1.68-1.77-5.36-15.15-11.2-30.14-15.08-45.79-.84-3.39-.75-6.6-.23-10.07.87-5.93 1.05-11.98 1.2-17.98.27-9.92.13-19.86.45-29.77.18-5.66.88-11.31 1.4-16.96.13-1.3.25-2.58-.15-4.06-2.44.4-4.7 1.1-6.93 2.07-5.38 2.29-10.8 4.49-16.17 6.78-.7.3-1.3.44-1.63-.23-.32-.65.15-1.24.66-1.67a21 21 0 0 1 4.58-2.76c4.71-2.23 9.63-3.93 14.56-5.6 1.64-.56 2.87-1.01 1.85-3.3-.77-1.71.21-3.5 1.23-5.02 2.59-3.86 6.33-6.2 10.57-7.92-2.24 2.6-4.09 5.37-5.16 8.58-.31.94-.6 2.1.74 2.36 2.92.58 2.29 2.85 2.16 4.64q-.92 12.38-2.08 24.72c-1.22 13.11-1.64 26.27-2.1 39.41-.11 3.1.33 6.08 1.07 9.14 3.94 16.25 7.68 32.55 11.38 48.86.47 2.08 1.23 4.45-.63 6.35zM254.5 239.4c-.7 7.65-2.92 14.77-4.97 21.91-4.54 15.9-6.47 32.07-6.66 48.57-.14 11.36-1.04 22.72-1.64 34.07 0 .23-.3.45-.7 1a12.7 12.7 0 0 1-2.1-7.39c0-10.07-.46-20.14.51-30.22.5-5.16.05-10.41.43-15.6 1.28-18.04 6.59-35.01 14.24-51.3.19-.4.58-.7.88-1.05zm349.44 578.03c2.63 1.86 2.96 4.36 3.58 6.59 1.59 5.63 2.2 11.45 2.83 17.25.79 7.41 1.39 14.84 2.05 22.27.18 1.96.68 3.74 1.68 5.51 11.55 20.18 21.93 40.96 31.65 62.08.45.97 1.27 1.92.5 3.57-3.7-5.68-6.61-11.42-9.44-17.23-7.1-14.63-14.36-29.2-23.13-42.87-4.02-6.28-5.76-12.58-6.3-19.77-.84-10.84-2.31-21.62-3.47-32.43-.15-1.43-.58-2.88.06-4.98zm-25.7 177.13c3.97-.79 7.86-2.08 11.93-2.06 3.28 0 3.69.56 3.02 3.87-.43 2.15.24 3.3 2.4 3.9 3.9 1.08 3.87 1.18 4.18 5.18.67 8.58.13 8.93-8.22 8.91-3.38 0-3.86-2.21-4.74-4.35-1.52.09-1.38 1.21-1.5 2.06-.13.99-.12 2.05-1.44 2.1-1.6.05-3.28.55-4.7-.51-.42-.32-.52-1.14-.64-1.75-.2-1.1-.16-2.2-.7-3.28-1.84-3.69-1.8-3.74 1.63-6.03 1.2-.81 2.51-1.48 3.28-2.73-1.8-1.56-6.04-1.07-4.39-5.42zm-1.27-114.74c-.56.34-.87-.09-1.16-.4-13.73-14.63-29.53-26.91-45.2-39.33-11.2-8.89-22.87-17.21-32.68-27.74-2.55-2.73-5.1-5.48-7.04-8.7-.34-.57-.62-1.15-.08-2.08 1.6.74 2.5 2.28 3.55 3.52 7.73 9.12 16.87 16.72 26.43 23.75 15.73 11.55 31.32 23.22 44.86 37.37 3.48 3.65 6.83 7.42 10.18 11.18.57.66 1.5 1.29 1.15 2.42zm-101.94-113.6c2.22-.93 4.19-.35 6.19.14 8.54 2.08 16.67 5.36 24.76 8.67 6.9 2.84 13.71 5.87 20.58 8.8 1.09.45 2.24 1.87 3.43.36 1.17-1.48-.15-2.18-1.14-3.09-1.81-1.65-2.73-3.73-1.53-6.11 1.05-2.1 2.95-2.28 5.02-1.72 2.5.66 4.01 2.58 4.03 5.37 0 2.49-.7 4.8-2.22 6.82-1.32 1.73-2.92 2.28-5.11 1.53-16.1-5.52-32.25-10.93-48.35-16.47-2.18-.76-4.69-1.33-5.65-4.3zm-58.48 41.49c3.63-8.35 9.92-13.88 16.14-19.4 3.32-2.95 7.67-4.17 11.71-5.8 9.87-3.97 10.34-4.52 10.59-15.2.06-2.74-.17-5.53.83-8.18.46-1.21.91-2.25 2.6-2.46 3.06-.38 4.5.56 4.1 3.56a72 72 0 0 1-4.85 17.75 4.5 4.5 0 0 1-2.6 2.7c-2.55 1-4.87 2.82-7.48 3.41-5.35 1.2-9.18 4.62-13.15 7.9-3.12 2.58-5.98 5.46-9.59 7.44-2.04 1.12-3.05 3.33-4.64 4.93-1.07 1.08-1.79 2.55-3.66 3.35m347.78 170.64c-4.75 3.3-5.43 3.2-8.69-.32-3.44-3.7-4.94-8.38-6.16-13.06a384 384 0 0 1-4.9-21.82c-.45-2.29-1.53-3.31-3.63-3.9s-4.41-.63-7.03-2.24c5-1.12 9-.25 12.79 1.54 1.7.8 2.23 2.6 2.8 4.36 2.3 7.12 3.73 14.45 5.58 21.67.64 2.51 1.47 4.98 2.09 7.5.9 3.7 2.24 6.84 7.15 6.27"/><path fill="#000" d="M636.24 857.5c-.04 7.74-4.99 11.36-11.5 9.36a12 12 0 0 1-8.2-10.48c-.23-5.16 3.22-8.77 8.38-9.04 2.7-.15 5.53-1.32 7.69 1.29 2.34 2.84 3.72 6.07 3.63 8.88zm-7.85 8c3.07.08 5.87-4.12 4.01-6.44-1.6-2-2.83-4.33-4.95-5.93a8 8 0 0 0-4.45-1.66 2.3 2.3 0 0 0-2.35 1.33c-2.43 4.73 2.35 12.56 7.75 12.7zM373.2 933.4c.72-9.74 1.27-19.48 2.22-29.18.52-5.36.44-10.73.84-16.09.4-5.51.62-11.04.86-16.56q.1-2.48 1.02-4.73c.33-.8 1.24-1.07 2.07-.99.9.1 1.49.7 1.5 1.62.04 1.62.1 3.27-.08 4.87a6134 6134 0 0 1-5.75 47.86c-.55 4.46-.75 9-2.66 13.2zm367.13 44.53c-2.48-3.26-2.72-6.58-3.64-9.62-1.89-6.2-2.97-12.57-3.8-18.99-.18-1.38-.39-3.18 1.55-3.6 1.8-.38 3.63-.16 4.33 2.05q.53 1.62.95 3.25c1.48 5.84 1.88 11.8 1.73 17.8-.06 2.82.81 5.76-1.1 9.1zm-436.97-24.84a49 49 0 0 1-11.82-24.45c-1.56-.6-2.42.65-3.37 1.37-4.4 3.32-8.7 6.8-13.12 10.12-1.47 1.1-2.76 2.72-4.82 2.78-.82-1.4.12-2.01.77-2.59 6.26-5.49 13.24-9.93 20.43-14.08 1.44-.82 2.87-1.06 3.42.92 2.32 8.29 5.7 16.2 8.7 24.24.13.37-.1.88-.2 1.68zm79.89-153.6c-.52.91-1.3 1.33-2.37 1.44-17.07 1.87-33.4 6.77-49.62 12.16-2.12.7-4.17 1.72-6.9 1.55.9-2.58 3.16-2.95 4.88-3.7a133 133 0 0 1 26.05-7.98c9.25-1.9 18.58-3.1 28.03-3.4l-.08-.08zm-91.98 40.3c4.1-4.34 8.14-8.73 12.3-13 2.1-2.14 3.7-4.38 4.24-7.44.38-2.2 1.37-4.31 2.18-6.43.71-1.87 1.82-3.4 3.98-3.79 1.07 1.5.3 2.84-.04 4.2-1.68 6.71-4.4 12.58-10.34 16.87-4.15 3-7.56 7.04-12.32 9.6m389.35 110.73c1.6.08 2.87-.2 3.26 1.33.37 1.48.37 2.9-.95 3.98-2.84 2.33-6.23 3.3-9.76 3.87-.85.13-1.75-.34-1.88-1.19-.27-1.73-.44-3.63 1.31-4.79a21 21 0 0 1 8.02-3.2m-304.74-7.41c3.17 2.53 13.77 26.74 16.09 36.44-5.62-12.01-11.94-23.7-16.09-36.44m-56.8-147.25c.15.54-.06.92-.53 1.14a257 257 0 0 0-28.7 14.92c2.84-4.27 18.25-12.45 29.33-15.94zM307.4 960.64c3.04 5.52 2.1 11.88 3.93 17.66-2.97-3.48-5.05-12.14-3.93-17.66m454.43-23.53c-.36 3.65-1.98 5.47-4.01 5.1-1.56-.3-2.73-1.06-2.7-2.87.02-1.97 2.35-3.83 4.42-3.43 1 .2 2.3.36 2.3 1.2zm-1.97-7.59c.1 2.3-.87 3.58-2.8 3.63-2.26.07-4.65-1.66-4.66-3.38-.02-1.6 2.05-3.1 4.32-3.04 1.74.04 3.26.48 3.14 2.8zm-1.91-.56c-.07-.58-.42-.84-.96-.73-.86.2-1.46.71-1.51 1.6-.03.54.33.95.91.77.8-.24 1.43-.72 1.55-1.64zM597.7 826.36a3.6 3.6 0 0 1 2.81 2.34c.75 2.07-.28 4.7-2.08 5.3-1.69.56-4.02-1.22-4.33-3.49a9 9 0 0 1 .2-3.32c.64-2.26 1.95-2.28 3.5-.75-1.84 1.39-2.73 3.88-1.78 5.37.57.9 1.35.59 1.85-.17a4.2 4.2 0 0 0-.17-5.28m90.61 125.93c.29-1.7.38-3.48 2.53-3.69 1.56-.15 2.3 1.42 1.99 3.94q-.07.48-.05.97c.1 1.76-.8 2.94-2.45 2.99-1.86.04-1.55-1.65-1.7-2.89-.05-.47-.22-.93-.32-1.32m-337.16 52.66c2.72 2.24 2.63 5.42 3.27 8.26.17.74-.7.97-1.34.98-.99.03-1.96-.04-2.35-1.22-.86-2.61-1.57-5.22.4-8.02zm92.77-238.12a8.7 8.7 0 0 1-4.72-5.14c-.38-.97-1.16-2.28.56-2.7 1.22-.3 2.7-.3 3.07 1.4.45 2.12.73 4.3 1.09 6.44m276.6 127.38c-1.36.78-3.09 1.98-4.04.1-.75-1.51 1.16-2.42 2.33-3.19 2.32-1.51 4.73-2.81 7.73-.71-1.26 2.65-3.64 3.34-6.1 3.88.42-1.57 2.86-1.23 3-3.12q-2.83.14-4.55 2.35zm-120.04-54.35c1.94 1.68 1.86 3.72.74 5.66-.6 1.02-2 1.13-3.1.55-2.3-1.18-2.34-3.09-1.75-5.17.88-.16 1.14.14.98.7-.31 1.11-.88 2.4.92 2.57 1.2.12 1.5-.98 1.65-1.99.13-.77-.16-1.64.55-2.33zm142.1 143.71c.81-.16 1.64-.19 2.33.32.52.38 1.03.92.61 1.63-.7 1.21-4.71 2.08-5.77 1.19a2.6 2.6 0 0 1-.82-1.69c-.04-.65.54-1.16 1.23-1.27.8-.13 1.6-.13 2.42-.19zm-9.1-87.9c2.42 3.47 3.05 6.8 2.68 12.83-1.93-4.44-1.76-8.77-2.69-12.82m-370.6 35c-2.84 1.11-4.73.83-6.6.66-.8-.07-1.68-.31-1.53-1.38.16-1.1 1.18-.9 1.9-.89 1.91.02 3.69.65 6.24 1.6zm76.09-153.62c1.12-2.81 1.84-5.89 5.76-8.03-1.22 3.94-3.34 6.08-5.76 8.03m-55.62 22.5c3.17-.74 6.34-.46 9.5.05-3.18.05-6.38 1.31-9.56-.12zm-64.16-3.58c1.1-.95 2.36-1.45 4.78-1.7-2.08 1.21-3.16 2.29-4.88 1.59zm571.93-247.43c-1.07.38-1.31 1.44-1.65 2.29-3.04 7.7-6.74 15.15-10.37 22.53-5.47 11.1-9.25 22.82-14.51 33.96-3.97 8.4-8.51 16.47-14.65 23.51-1.49 1.7-3.22 3.2-4.9 4.72-.6.54-1.45.85-2.24.29-.78-.56-.62-1.45-.55-2.23.03-.47.27-.93.47-1.36 4.13-8.7 6.37-17.95 8.08-27.39 1-5.54 3.13-10.65 7.5-14.42 7.96-6.85 13.2-15.55 17.4-24.98 2.58-5.78 4.98-11.65 7.57-17.43 1-2.21 2.3-4.28 3.52-6.39.85-1.46 2.21-1.87 3.77-1.38 1.33.43 1.48 1.59 1.46 2.78l-.08 2.92zm-45.92 84.76a23 23 0 0 0 7.1-10.53c-2.94 3.12-6.3 5.97-7.1 10.53M502.4 355.17c-.76 15.4-11.16 26.82-24.37 29.84-15.53 3.54-30.62-1.48-39.01-17.35-1.7-3.22-2.13-6.53-.6-10.2 2-4.78 3.52-9.77 4.96-14.75 3.08-10.6 10.01-16.39 20.9-18.26 17.2-2.96 35.49 7.9 38.07 25.46.27 1.82-.14 3.52.05 5.27zm-27.64.94c-1.09-1.48-.95-2.66-1.23-3.74-.42-1.56-.78-3.15-1.34-4.67-.4-1.09-1.4-1.22-2.44-.98-.77.18-1.05.8-.9 1.45 1.12 4.56 2.02 9.21 4.33 13.39.87 1.58 2.12 1.28 3.2.2.94-.94 1.23-2.25 1.55-3.52.87-3.45 1.78-6.87 2.64-10.31.13-.48-.1-.91-.64-1.1-.8-.1-1.03.57-1.46 1.05-1.98 2.25-2.04 5.36-3.7 8.22zm-19.81-2.33c.06 1.23.04 2.2.17 3.15.41 3 2.07 5.23 4 5.47 2.44.32 4.94-1.68 6.05-4.62 1.24-3.28.32-6.41-.8-9.38-.56-1.51-1.96-3.17-4.09-2.74-2.06.42-4.16 1.05-4.62 3.6-.29 1.57-.5 3.18-.7 4.52zm39.19-4.95c-6.6-2.53-7.82-1.9-9.14 3.88a17 17 0 0 0-.39 4.82c.38 6.22-.37 6.5 6.68 5.36-.25-.75-.95-.86-1.55-.96-2.38-.4-2.58-2.06-2.5-4 .13-2.55 2.09-1.26 3.27-1.59.55-.15 1.36.17 1.48-.8-.18-1.65-1.28-2.07-2.72-2.1-1.19-.02-1.78-.65-1.63-1.85.13-1.04.63-1.74 1.76-2.01 1.4-.33 2.92.26 4.74-.74zm-52.84 9.6c2.34-1.62 4.14-2.48 4.8-4.26 1.55-4.24 4.04-8.1 5.14-12.5.6-2.42 1.44-4.8.66-8.03-4.18 8.1-6.05 16.46-10.6 24.8m6.76-1.55c-2.41 1.99-2.67 4.7-1.8 6.01 1.23 1.88 3.74.83 5.87.12q-3.36-2.62-4.07-6.14zm14.71 21.54c-4.42-1.06-7.76-4.08-11.36-6.62 2.8 3.9 6.33 6.54 11.36 6.62m.39-45.88c4 .27 8.08-.3 12.2-.09a18.5 18.5 0 0 0-12.2.1m21.55 3.08c.68 1.63 2.39 2.1 3.3 3.35.82 1.09.8 3.21 3.06 2.7-1.47-3.7-2.12-4.33-6.36-6.05M472 379.11c-1.28-.14-2.33-.62-3.27.41 1.02.07 2.08.74 3.27-.41m10.37 114.6c0 8.47-2.68 12.02-10.91 14.4-3.61 1.03-7.3 1.75-11.05 1.52-11.01-.69-19.28-8.5-20.76-19.75-.52-4.01-.49-8 .64-12.06 1.5-5.41 5.58-8.2 9.9-10.78 1.98-1.18 4.51-1.01 6.68-.22 6.59 2.39 12.92 5.3 18.22 10.04a21 21 0 0 1 7.28 16.87zm-17.56 10.2c.58 0 2.05.11 3.5-.04 1.29-.13 2.55-.53 3.8-.86 4.52-1.19 6.33-3.28 6.31-7.9-.02-6.45-2.53-11.72-8.24-15.08a281 281 0 0 0-11.55-6.33c-1.03-.55-2.37-2.04-3.34-.54-.85 1.32.68 2.26 1.73 3.03q.4.28.86.46c5.6 2.13 8.98 6.79 12.67 11.1 1.89 2.2 2.64 4.87 2.73 7.68.1 3.8-1.44 5.07-5.1 4.17-1.6-.4-3.22-1.11-4.78-.76-4.33 1-7.96-.47-11.58-2.51-.93-.52-1.96-2.38-3.23-.68-1.01 1.34.17 2.44 1.06 3.37.78.81 1.65 1.59 2.61 2.15 3.59 2.14 7.48 3.12 12.55 2.73zm169.9-68.08c1.6 7.98 3.65 15.78 2.29 24.2-2.73-1.1-2.92-2.94-3.2-4.68-.94-5.6-1.95-11.19-2.69-16.82-.29-2.18-1-3.08-3.31-3.03-2.94.07-5.83.42-8.74.71-6.1.62-9.43-2.42-9.66-8.56a38 38 0 0 1 1.29-11.1c.6-2.35 1.9-4.11 4.53-4.5 10.43-1.57 20.7-1.54 30.62 2.76 1.97.85 3.38 2.1 4.05 3.94.93 2.5 2.25 5.24 1.98 7.71-.77 7-2.41 8.15-9.79 8.7-2.42.17-4.83.42-7.37.66zm8.87-15.74c-1.06-1.92-2.51-2.3-4.14-2.51-4.66-.61-9.26.08-13.86.65-.91.12-2.06.4-1.75 1.7.23.94 1.2.94 2.02.87 5.78-.47 11.57-.78 17.73-.71"/><path fill="#000" d="M451.17 305.65c1.17.4 2.17 1.12 3.62.74 10.67-2.77 21.53-2.88 32.43-2.18 10.54.67 21.09 1.04 31.62 1.84 11.85.9 22.42 4.99 32.3 11.3.8.51 2.42.75.73 2.3-.41.38.9 1.16 1.54 1.6 12.35 8.53 22.04 19.63 30.69 31.74a291 291 0 0 1 23.95 39.6c2.37 4.76 4.46 9.65 6.79 14.74-3.22 1.3-6.78.94-10.09 2.44 1.02 4.47.67 9 .74 13.5.07 4.95 1.47 9.6 3.22 14.18a4 4 0 0 0 3.52 2.82c2 .3 3.96 1 5.83 1.99-3-.47-6.01-.87-9-1.42-1.5-.27-2.51-1.35-3.44-2.54-6.25-8.11-7.03-17.19-4.95-26.84.43-1.97 1.86-2.57 3.42-3 2.03-.56 4.19-.56 6.47-1.6-.11-1.7-.94-3.25-1.61-4.81-6.07-14.1-14.2-27.03-22.71-39.75-7.33-10.96-14.94-21.68-24.57-30.83a169 169 0 0 0-19.14-15.85c-6.08-4.26-13.6-6.06-21.07-7.06-12.58-1.67-25.27-1.7-37.9-2.4-9.6-.51-19.15-.24-28.65 1.28-1.66.27-3.35.56-3.62-1.86l-.11.09z"/><path fill="#000" d="m451.28 305.57-3.84-3.1c1.06-2 3.12-2.24 4.82-2.85 6.79-2.42 13.89-3.3 21.01-3.98 20.25-1.95 40.22-.51 59.85 5 5.35 1.5 10.32 3.85 15.23 6.4 1.45.76 2.73 1.93 4.85.62 1.94-1.2 3.6.94 5.04 2.08a169 169 0 0 1 19.43 17.73c10.32 11.13 19.99 22.76 26.7 36.47 5.16 10.49 9.78 21.24 14.62 31.9.26.57.51 1.2-.3 2.12-2.86-5.56-5.7-10.97-8.46-16.42-5.8-11.47-11.61-22.94-19.15-33.38-9.36-12.96-19.91-24.8-32.5-34.78-2.45-1.94-5.24-2.43-7.96-3.31-9.12-2.94-18.08-6.32-27.45-8.47a141 141 0 0 0-43.58-3.18q-12.89 1.03-25.54 3.73c-2.24.47-2.93 1.53-2.9 3.52l.1-.1zM326 280.74c-.34-20.3 13.75-31.93 28.72-34.38 9.08-1.5 17.58.5 23.26 8.74 4.45 6.45 4.44 16.58-.1 23-3.1 4.37-5.4 9.23-8.76 13.46-6.72 8.42-15.53 10.74-25.6 9.2-7.95-1.2-13.72-5.52-16.63-13.3-.89-2.37-.82-4.76-.89-6.71m20.18 18.04c5.72.18 10.81-1.8 15.67-4.6 1.15-.67 1.98-1.38 1.9-3.03-.36-9.4 4.81-15.49 12.43-19.88 1.8-1.03 2.59-2.04 2.64-4.1.24-8.62-6.28-17.84-15.86-18.48a29 29 0 0 0-16.81 3.86c-6.4 3.68-10.41 9.47-14.73 15.25-3.75 5.01-4.02 10.08-3.22 15.61 1.4 9.79 10.82 16.14 17.97 15.37zm29.47-22.2c-3.37 1.74-6.14 3.98-6.4 8.54 3.53-2.13 5.1-5.2 6.4-8.54m14.62 121.6c.17-2.44 1.2-4.22 3.53-4.82 2.35-.61 4.47-2.1 7.13.33 4.16 3.79 7.34 8.18 10.23 12.91 9.07 14.89 16 30.9 24.59 46.04.46.82.77 1.8.9 2.74.19 1.27.37 2.72-1.5 3.02-2.07.34-2.3 3.65-5.13 2.98-3.42-.8-6.55-2.05-8.9-4.71-3.23-3.66-6.45-7.34-9.1-11.46-8.28-12.92-14.85-26.7-20.37-40.98-.52-1.36-.8-2.82-1.13-4.23-.16-.63-.18-1.3-.25-1.82m6.83-3.7c-1.7.6-2.39 2.1-2.34 4.05.06 2.65.96 5.1 1.9 7.5a228 228 0 0 0 18.3 37.13 89 89 0 0 0 10.57 13.98c3.37 3.6 5.92 3.07 7.65-1.13.74-1.83-.32-3.17-1.16-4.5-2.33-3.72-4.72-7.4-6.56-11.41-4.87-10.66-10.54-20.9-16.34-31.07-2.49-4.37-5.09-8.71-8.51-12.47-.89-.96-1.73-1.96-3.52-2.08"/><path fill="#000" d="M415.06 470.69a19 19 0 0 0-7.17-2.8c-3.09-.47-5.33-2.09-7.21-4.52a71 71 0 0 1-6.2-9.9c-5.2-9.73-9.93-19.7-15.85-29.07-4.42-6.98-7.6-14.71-10.7-22.4-3.9-9.72-4.16-19.49-.26-29.4 3.45-8.78 7.05-17.47 11.6-25.74.7-1.28 1.43-2.53 1.55-4.03l-.09.08c2.6-2.25 3.75-5.67 6.45-7.84.84-.66.62-1.77.73-2.73.28-2.64 1.52-1.12 2.54-.57l.4.44c-.29.57-.91 1.18-.83 1.69.55 3.54-1.52 5.36-4.18 6.92a7 7 0 0 0-2.67 2.78c-5.1 10.16-10.14 20.34-13.94 31.07-2.58 7.29-1.48 14.48.86 21.47 3.71 11.1 8.09 21.87 14.75 31.67 5.58 8.19 9.42 17.42 14.25 26.07.95 1.7 1.98 3.35 2.99 5.01 1.74 2.88 3.93 4.97 7.5 5.58 3.34.56 5.39 2.7 5.37 6.34l.11-.09zm176.51-194.04c4.18 1.17 7.55 3.66 10.77 6.29 16.87 13.72 30.3 30.3 40.77 49.33q8.23 15 13 31.48c.92 3.13 1.83 6.14 5.33 7.58 1.53.63 1.45 2.4.22 3.2-6.04 3.93-5.25 9.44-3.89 15.2.36 1.5.99 3.03.05 5.3-3.15-7.55-6.08-14.48-4.07-22.38.27-1.08.68-2.1.24-3.31-3.84-10.52-7.21-21.2-12.07-31.35-9.63-20.12-23.4-37-39.67-52.04-3.46-3.2-7.25-6-10.67-9.28zm47.03 218.91c-14.32 1.65-27.99 5.86-42.04 8.08a234 234 0 0 1-28.1 2.78c-13.65.47-27.23 1.87-40.82 3.1-10.2.93-20.36 2.12-30.44 3.99-2.35.43-4.98 1.19-7.99-1.13 8.27-.17 15.23-2.96 22.58-3.81 13.41-1.56 26.86-2.37 40.33-3.07 9.75-.5 19.5-.97 29.26-.73 1.3.03 2.82-.07 3.68-1.03 1.9-2.17 4.49-2.5 6.99-3.08a197 197 0 0 1 37.15-4.93c2.6-.09 5.22-.06 7.65-1.12 1.16-.5 1.22.43 1.75.96zM385.06 323.35c-2.41-3.17-2.4-6.2-.06-8.98a44 44 0 0 1 5.74-5.96c10.28-8.44 20.43-17.05 31.6-24.38 10.62-6.97 22.09-12.28 33.52-17.69a165 165 0 0 1 27.34-10.1c2.65-.73 4.42-1.9 4.1-5.02-.1-.9-.04-2.2 1.37-2.01 1.02.12 1.57 1.03 1.76 2.09.33 1.8-.24 3.2-1.8 4.16a28 28 0 0 1-5.34 2.33c-19 6.77-37.45 14.72-54.77 25.16-14.38 8.68-27.12 19.53-40.04 30.16-3.25 2.68-3.92 5.95-3.41 10.25z"/><path fill="#000" d="M384.93 382.25c1.98-2.57 4.66-2.97 7.33-3.5 4.12-.8 8.38-.94 12.36-2.43 1.59-.6 2.76.12 4 1 3 2.13 5.1 4.92 6.58 8.26 5.73 12.9 11.48 25.78 16.3 39.05 1.24 3.44 2.7 6.8 3.33 10.56-1.65-2.87-3.4-5.7-4.92-8.63-5.2-10.1-9.94-20.4-14.5-30.8-1.36-3.11-2.32-6.4-3.52-9.58q-.6-1.6-1.5-3.05c-3.12-4.84-4.76-5.42-10.35-4.14-5.02 1.16-10.07 2.18-15.1 3.25z"/><path fill="#000" d="M379.24 399.13c-.5-1.58.29-2.34.75-3.12 2.09-3.58 2.59-6.93-.76-10.12-1.7-1.63-1.53-3.84-1.38-5.96.95-13.57 5.08-25.99 13.43-36.87 1.16-1.5 2.1-3.2 4.18-4.3.23 2.36-.98 3.94-1.75 5.65-2.72 6.06-5.33 12.16-8.18 18.15-3 6.36-3.12 13.18-3.67 19.95-.1 1.38.48 2.48 1.13 3.63 3.27 5.8 3.01 7.24-1.95 11.57-.49.42-1 .8-1.79 1.4zm31.96-95.55c4.23-4.53 10.1-6.11 15.47-8.53 1.65-.75 3.15.36 4.47 1.31 1.58 1.16 3.14 2.49 3.92 4.27 1.47 3.33 3.76 4.18 7.07 3.07.41-.13.93.08 1.48.13-4.19 3.18-5.46 3.25-9.28.31-2.71-2.09-5.67-2.3-8.72-1.17-3.79 1.41-7.47 3.14-11.3 4.5-2.33.83-2.57 2.13-1.58 4.08.3.59.48 1.23.84 1.76 1.27 1.82.44 2.99-1.12 3.99l-.8.54-20.78 14.34-.42-.43c1.98-3.31 5.3-5.12 8.31-7.2 4.36-3.02 8.91-5.76 13.59-8.75-1.4-2.32-2.94-4.53-4.13-6.92-2.22-4.42-1.81-5.02 3.15-5.47.02.9-1.2 1.75-.13 2.67.84.72 1.5 0 2.13-.41 4.55-3.01 9.62-4.87 15.2-6.23-2.55-2.52-4.65-.93-6.66-.24-3.65 1.25-6.7 3.97-10.7 4.39zm6.07-68.86c-8.69-.6-14.79-5.1-18.95-12.54-4.54-8.13-7.82-16.77-10.56-25.63-.8-2.57-2.43-5.02-1.73-7.98 2 0 2.26 1.7 2.95 2.87 3.5 5.9 5.65 12.42 8.53 18.6a147 147 0 0 0 4.85 9.57c3.54 6.36 8.04 11.82 14.9 15.1m-77.55-54.54c-.24 1.53-2.3 1.43-2.37 3.5 7.23-3.57 14.77-5.75 22.04-8.8-4.88-.64-9.43 1.54-14.3 1.52.42-2.35 2.3-2.9 3.87-3.52a51 51 0 0 1 12.22-3.23c2.04-.24 3.72-.06 5.45 1.23 2.42 1.81 2.57 2.43-.18 3.95a52 52 0 0 1-7.08 3.25c-7.16 2.64-14.37 5.14-21.57 7.66-1.6.57-3.79 1.66-4.61-.44-.8-2.01 1.63-2.85 3-3.87 1-.74 2.1-1.41 3.52-1.24zm311.7 301.51c-.18 3-1.1 6.56-4.28 9.05-5.08 3.96-12.45 1.15-14.14-5.3-1.23-4.75 2-11.63 6.34-13.53 5.91-2.59 11.97 1.91 12.08 9.8zm-5.61-4.08.17.17c-1.53-3.33-2.5-3.9-5.3-3.13-2.57.7-4.51 2.46-4.97 4.86-.66 3.44 1.32 6.21 3.83 8.41 1.68 1.47 3.73 1.99 5.86.84 2.04-1.1 3.2-2.99 2.94-5.19-.26-2.12-.3-4.57-2.54-5.96zm-188.52-19.94c11.74-1.59 20.95 2.8 27.68 12.35 5.68 8.06 9.51 16.95 10.92 26.78.42 2.96-.2 5.75-2.2 8.27 1.96-11.72-2.86-21.33-8.85-30.72-6.45-10.12-16.3-14.3-27.55-16.68m-113.55-92.5c1.14-1.86 2.23-3.76 3.43-5.59A259 259 0 0 1 373.03 326c1.23-1.33 2.48-2.62 4.1-3.42 2.33-1.15 3.79-.32 3.89 2.28.07 1.9-.2 3.8-.36 6.2-2.64-1.1-2.41-3.87-4.62-5.16-11.16 12.66-21.58 26.02-32.3 39.26zm71.22 105.62c1.87 1.19 2.58 3.26 1.88 4.96-1.21 2.97.23 5.13 1.5 7.25 5.17 8.6 8.85 18.08 15.47 25.78.3.36.48.83.01 1.6-3.08-1.57-4.94-4.43-6.88-7-5.2-6.86-8.78-14.74-13.44-21.96-1.68-2.6-2.43-5.8 1.2-8.03 1-.6.38-1.77.36-2.7l-.11.09zm143.16-79.33c6.34-4 15.92-3.92 21.52.12 4.9 3.54 5.04 9.37.11 13.02a53 53 0 0 1-11.87 6.65c-3.6 1.46-7.3 2.68-10.97 3.98-.56.2-1.1.84-1.86.15 2.13-1.88 4.8-2.58 7.3-3.53 5.38-2.02 10.12-5.1 14.8-8.35 2.34-1.62 3.63-3.7 3.14-6.6-.52-3.03-2.4-4.88-5.34-5.67-3.68-.98-7.39-.74-11.1-.25-1.87.24-3.7 1.08-5.73.47zm-10.95 20.64c-6.07-4.08-11.72-8.65-15.25-15.26a12.5 12.5 0 0 1-1.7-5.5c-.14-4.26 1.43-6.76 5.33-8.26 5.7-2.2 12.64-.51 17.27 4.23-1.5.7-2.4-.58-3.47-1.08a14.8 14.8 0 0 0-10.87-.9c-5.9 1.78-7.5 5.96-4.42 11.24 2.39 4.13 6.1 7.11 9.06 10.76 1.3 1.62 2.7 3.18 4.05 4.77m-108.11 68.88c-1.41.3-1.84.49-2.28.49-11.79.06-9.55.6-14.25-8.08-2.76-5.1-5.37-10.28-6.35-16.16 1.81-.2 2.2 1.01 2.68 1.96 2.76 5.33 5.54 10.66 8.16 16.06 1.1 2.27 2.46 3.41 5.16 3.55 1.97.09 4.14.53 6.87 2.18M347.3 419.4c-8.16-9-12.3-19.23-9.4-31.5 1.26 5.35.38 11 2.12 16.37 1.75 5.4 5.33 9.88 7.3 15.13zm21.3-287.13c.28-3.52 2.91-5.83 6.55-5.36 1.61.2 3.28.73 3.24 2.9-.05 3-4.6 7.13-7.35 6.59-2.08-.41-2.93-1.85-2.44-4.13m6.76-.4c-.15-1.29-1.1-1.85-2.24-2.05-1.75-.3-2.7.75-3.03 2.3-.22 1.05.3 1.89 1.43 2.1 1.35.26 3.67-1.18 3.83-2.36zm99.63 297.64c-2.62-7.75-5.13-15.53-7-23.53 1.92-.55 2.6.25 2.9 1.45l5 21.72zm61.75-160.06c2.37.03 3.08.74 2.42 2.8-1.15 3.6-3.73 6.03-7.07 7.55-1.74.8-3.38-.41-3.42-2.18-.07-3.7 4.37-8.21 8.07-8.17m.2 3.4c-4.06-.14-6.06 1.02-6.83 3.9-.12.42-.18 1 .02 1.31.39.59 1.13.69 1.75.39a9.4 9.4 0 0 0 5.06-5.61zM351.48 439.69c.13 1.76-2.32 3.97-4.65 4.17-2.02.18-3.84-1.13-3.9-2.77-.04-1.56 2.77-4.2 4.63-4.36 1.62-.13 3.82 1.52 3.93 2.95zm198.3-164.9c0 3.14-2.5 6.5-5.24 7.36-2.69.86-4.59-.77-3.92-3.57.52-2.22 1.38-4.36 3.2-5.9.92-.76 1.68-2.25 3.23-1.02 1.2.94 3.3 1.18 2.72 3.12zm-1.45.53c-.05-.94-.85-1.07-1.66-1.02-1.56.1-4.5 3.33-4.54 5-.02.65.27 1.22 1.1 1.24 1.86.04 5.08-3.16 5.1-5.2zM425.5 314.5c1.18 3.3 3.91.75 5.7 1.79 1.5.87 1.71 1.83.93 3.16-1.42 2.37-5.65 3.19-7.8 1.58-1.2-.9-1.44-2.13-1.12-3.48a5 5 0 0 1 2.3-3.04zm.45 3.44c.03 1.25 1 1.51 1.9 1.72.94.22 2.04.2 2.13-1.04.06-.82-.78-1.29-1.64-1.3-.84 0-1.86-.6-2.39.62M317.72 426.72a185 185 0 0 1 23.04-10.76l.44.93-23.01 10.68zm21.07 3.29c.3-2.37 1.55-3.96 4.02-3.85 1.54.06 2.52 1.31 2.75 2.9.27 2.06-.2 4-2.05 5.05-2.03 1.19-3.66.17-4.86-1.64l.47.11c1.32.42 2.66 1.6 3.94-.05.34-.43.28-.92.02-1.35-.9-1.47-2.25-1.72-3.81-1.3zm-25.03-27.57c-2.16-.49-2.3-2.08-1.89-3.77.3-1.27 1-2.8 2.38-2.72 1.84.12 4.04-.4 5.43 1.44 1.1 1.46.3 3.1-2.52 5.44q.53-3.2-3.55-4.4c-1.01 1.38-.25 2.7.16 4.01zm43 47.79c.03.78-.33 1.31-.94 1.6-.62.28-1.27.32-1.27-.68 0-1.5-1.19-1.8-2.24-2.1-.76-.21-1.84-.08-1.4-1.28.42-1.11 1.4-1.98 2.66-1.5 1.77.68 2.74 2.2 3.2 3.97zm-50.7-56.25c4.06-2.77 7.25-6.42 10.7-10.17-1.13 4.23-5.47 8.42-10.7 10.17m212.6-117.74c-2.57-.2-2.36-1.72-1.49-3.35 1.36-2.52 3.71-3.37 6.44-3.43l-.07-.1c-1.79 2.22-5.44 3.13-4.92 6.98zm-137.83 66.58c-1.3-3.24-2.03-6.56-1.13-10.1 1.53 3.25 1.5 6.68 1.05 10.18l.08-.07z"/><path fill="#000" d="M523.6 269.46c1.39-1.92 2.52-.47 3.47.41.81.77.4 1.84-.28 2.61-1.15 1.31-2.13 2.9-4.23 2.77l.07.09c.09-1.38 1.42-1.9 2.08-2.88 1.18-1.77.28-2.47-1.17-3.1zM474 513.01a25.4 25.4 0 0 1 11.73.06c-3.92.78-7.83 1.03-11.73-.06m165.48-123.6c.83.54 2.36.26 2.23 1.95-.06.91-.5 1.7-1.35 1.7-1.24.02-2.07-.77-2.22-2.08-.12-.98.4-1.46 1.33-1.57zm-86.17 9.75c2.15 1.46 4.23 2.49 6.73 1.8-3.4 2.3-5.86 1.69-6.73-1.8m-198.27-72.72c.37-2.4 1.49-4.44 3.2-7.1-.25 3.3-1.7 5.22-3.2 7.1m280.22 40.33c1.73 2.04 1.76 3.95 1.17 5.96-.61-1.73-1.5-3.4-1.17-5.96m-89.16 26.36c.97-.04 1.34.68 1.6 1.44.22.63.12 1.38-.58 1.58-1.14.33-1.14-.8-1.5-1.44-.35-.65-.26-1.2.48-1.58m20.54 6.76c.23-.64.65-1.07 1.35-1.21 1.06-.23 1.5.39 1.55 1.27.03.6-.05 1.35-1.02 1.21-.83-.11-1.52-.45-1.88-1.27m-206.7 40.43c1.34.67 1.81 1.95 2.41 3.55-1.9-.6-1.85-2.28-2.42-3.55m18.8-131.27c-1.48.63-2.98 1.07-4.52.1 1.53-1.64 3.04-.71 4.52-.1m143.83-33.8c-.98 1.61-2.3 1.85-3.9.99l-.04.1c1.3-.5 2.5-1.37 4.01-1zm282.62 164.17c-4.2 10.05-8.8 19.34-14.4 28.11-.53.82-.95 1.75-1.64 2.39-1.5 1.41-3.28.83-3.45-1.23-.21-2.73-.27-5.45.4-8.21 1.67-7 4.58-13.49 7.86-19.84l2.4-4.66c-5.36.04-10.2 1.04-15.04 2-2.86.56-5.71 1.32-8.67.96-.79-.1-1.63-.35-1.8-1.32-.19-.96.44-1.56 1.17-1.91 2.06-.96 4.11-1.96 6.24-2.72 6.78-2.4 13.81-3.53 20.95-4.06 5.13-.4 9.93.92 14.56 3 1.43.66 2.64 1.68 1.98 3.37-.5 1.24-.02 1.84.78 2.42 1.22.88 1.67 1.65.65 3.18-.93 1.4-1.84 2-3.53 1.83-3-.33-5.52-1.78-8.47-3.3zm99.2-5.05c-1.44-1.4-1.56-3.02-1.48-4.6.22-4.1-.64-8.07-1.43-12.03-.65-3.2-1-6.43-.84-9.66.34-6.3.76-12.62 1.46-18.88.21-1.9-.02-5.01 2.58-5.18 2.49-.16 2.82 2.7 3.18 4.7.88 4.92 1.74 9.79 1.14 14.92-.62 5.26-1.42 10.6-.62 15.96.48 3.24-.06 6.47-.71 9.66-.44 2.1-1.33 3.91-3.28 5.12zM816.63 681.5c-4.39.14-7.22-2.31-7.5-5.72-.3-3.35 2.05-6.83 5.34-6.89 4.03-.07 7.12-1.58 9.96-4.18.75-.69 1.56-1.89 2.89-.9 1.16.85.76 1.86.34 3-1.65 4.42-3.61 8.63-6.9 12.13-1.37 1.47-2.94 2.48-4.13 2.56m68.68-246.82c1.47 5.95.09 11.75-1.74 17.47a162 162 0 0 1-6.2 15.86c-2.2 5.04-4.38 10.12-5.27 15.63-.1.58-.56 1.1-1.13 2.18-.88-3.44-.04-6.14.7-8.81 1.76-6.27 4.53-12.15 7.09-18.1 2.88-6.74 5.28-13.6 5.82-21 .08-1.09.48-2.16.72-3.24zm-134 98.65c-.31-1.44.96-1.94 1.68-2.7 4.2-4.52 8-9.37 11.81-14.21a26 26 0 0 0 4.5-8.58c.33-1.07.8-2.23-.47-3.02-.54-.33-1.32-.45-.78-1.3a2.2 2.2 0 0 1 2.11-.96c.91.07 1.53.82 1.34 1.66-.48 2.04-.35 4.2-1.32 6.14-4.44 8.83-10.94 16.01-18.03 22.73-.2.17-.61.09-.93.13zm11.88-27.18c-7.68 9.36-15.03 19.02-24.37 28.04.02-2.1 1.11-2.64 1.75-3.4a6122 6122 0 0 1 15.6-18.7c1.98-2.35 3.95-4.72 6.58-6.42zm127.95-48.57c-.92-9.03 2.73-17.34-1.97-24.99 4.72 3.83 5.26 10.74 1.97 24.99m-139.92 75.65c-1.15 2.38-3.34 3.13-5.68 3.63 1.76-1.44 3.18-3.44 5.77-3.52z"/><path fill="#000" d="M762.74 505.67a4.8 4.8 0 0 1 3.4-2.76 5.5 5.5 0 0 1-2.95 3.24zM560.25 664.3c1.42.11 1.94 1.27 2.18 2.58a5.6 5.6 0 0 1-3.37 5.83c-1.39.53-2.64.3-3.24-1.1-.65-1.46-1.05-3.01-.06-4.6.83-1.3 2.98-2.74 4.5-2.7zm.61 1.62c-2.34.9-3.63 1.77-3.94 4.04 2.48-.14 3.44-1.3 3.94-4.04m-19.23-12.97c-.07 3.12-6.45 15.74-10.05 19.86 2.77-6.92 5.98-13.6 10.05-19.86m26.43 17.65c.76.23 1.66.27 2.25.73 1.97 1.56 2.35 3.44 1.08 5-1.1 1.34-2.5 2.03-4.24 1.16a4.1 4.1 0 0 1-1.74-5.35c.53-1.1 1.08-2.42 2.77-1.42-1.28 1.08-1.64 2.33-.77 3.84.32.57.63 1.19 1.4 1.07.92-.13.73-.92.72-1.5-.06-1.34-.95-2.37-1.47-3.53M343.3 633.3c1.42-2.82 2.83-2.93 4.45-2.25.88.36 1.78 1.29 2.66.6 3.01-2.37 5.34-.71 8.5 1.72-2.98-.75-5.16-1.71-7.16.25-.74.72-2.3.57-3.13-.35-1.38-1.53-2.94-1.26-5.31.03zm-5.8-3.23-1 16.37c-1.17-5.66-.25-10.98 0-16.3zm96.4 23.37c-4.06.05-6.69-.65-9.05-2.34 2.83.03 5.6.3 9.06 2.34m-63.15-11.21c-.98.02-1.97-.22-1.97-1.08 0-1.67 1.7-1.03 2.6-1.5.56-.27 1.44-.07 1.48.7.1 1.49-1.06 1.77-2.1 1.87zm36.14 86.13c.98-7.37 2.18-15.05 4.34-22.56a10.5 10.5 0 0 1 2.26-4.26c.97-1.09 2-1.6 3.43-1.04 1.42.56 1.2 1.78 1.1 2.86a223 223 0 0 1-3.24 21.2c-.52 2.7-1.17 5.4-1.85 8.07-.4 1.57-.79 2.99-3.2 2.6-2.05-.33-2.86-1.17-2.85-3.09v-3.78zm3.9.5c-.49 1.54-1.6 2.99-1.2 5.25 2.38-1.65 1.6-3.5 1.2-5.25m125.3 8.34c.48 4.9.46 8.8 0 12.68-.57 4.78-2.09 5.79-6.86 4.63-1.41-.34-2.85-.7-4.19-1.26-2.5-1.05-2.91-2.84-1.26-4.98q.3-.37.7-.68c3.4-2.76 6.23-6.07 9-9.5-.59 4.69-4.34 7.57-6.71 11.35a14.5 14.5 0 0 0 6.08 2.25c2.02-4.37 1.28-9.27 3.25-14.51zm2.81-7.96c3.6-.58 5.85.1 7.7 1.85 1.4 1.33 2 3 1.13 4.83a4.05 4.05 0 0 1-3.87 2.45c-2.09-.05-2.98-1.64-3.61-3.39-.67-1.8.68-3.86-1.36-5.73zm6.7 4.3c-.22-.77-.73-1.1-1.41-.97-1.1.22-1.46 1.12-1.6 2.08-.07.5.31.92.85.87 1.22-.1 1.99-.78 2.16-1.98m-98.84-7.63c1.47-5.49 1.66-11.3 4.44-16.45-.9 5.4-1.82 10.79-3.6 16-.07.21-.55.3-.83.44zm7.31-8.13c-.03-3.08.28-6.09 1.82-8.9.08 3.06-.14 6.07-1.93 8.78l.11.1z"/><path fill="#000" d="M446.78 725.9c.14 1.08.76 2.13.29 3.26-1.15-.98.12-2.19-.3-3.24zm7.2-8.22a5.5 5.5 0 0 1-.28 3.68c-.35-1.38-.68-2.54.4-3.56zm233.37-33.94c1.18.9.98 1.63.72 2.45-.54 1.7.17 2.56 1.78 3.36 6.88 3.41 12.97 8.06 18.68 13.1 6.08 5.38 12.58 10.22 18.9 15.42-1.34.82-1.93-.26-2.63-.71-12.27-7.93-23.88-16.82-36.25-24.6-3-1.9-3.25-4.35-1.2-9.02m-21.66 6.73c.27-3.28 3.42-6.2 6.5-6.06 1 .05 3.07 4.5 2.95 6.32-.19 2.8-3 5.36-5.54 5.04-2.46-.32-4.15-2.6-3.91-5.3m7.8.39c.03-2.3-1.56-4.31-3.2-4.17-1.66.14-2.96 1.86-2.9 3.8.08 2.08 1.41 3.58 3.19 3.46 1.93-.14 2.7-1.46 2.9-3.1m8.54 4.73c2.16 1.83 1.35 3.67.53 5.43-.34.74-1.14 1.3-1.98 1.04-.8-.24-1.3-1-1.27-1.87.02-1.88.86-3.36 2.72-4.6m-33.6-29.05c-1.15.45-1.78-.18-2.4-.6-19.01-12.71-39.57-22.4-60.5-31.4a463 463 0 0 1-48.4-24.18c-.55-.32-1.05-.73-1.6-1.12.63-1.16 1.39-.53 1.96-.25 26.82 13.63 54.9 24.58 81.6 38.47 9.82 5.1 19.18 11 28.22 17.4.5.36 1.2.57 1.12 1.69zm-41.78-3.35c-.9.17-1.56-.31-2.24-.73-15.93-9.87-33.2-17.06-49.94-25.33-10.91-5.4-21.92-10.63-32.83-16.02-2.3-1.13-4.39-2.67-7.06-4.32 2.42-1.04 3.9.24 5.3.83 12.25 5.22 24.18 11.11 36.07 17.12 16.24 8.2 32.54 16.28 47.9 26.1 1.02.65 2.53.86 2.72 2.46zm34.45 13.71c.97.92 1.8 1.5 2.35 2.27.71 1 .66 2.23-.05 3.21-.85 1.17-2.05.86-3.03.19-2.6-1.78-5.94-2.1-9.21-4.83 4.08.79 7.57 4.02 9.95-.84zm-129.8-72.3c2.66-6.2 5.36-7.1 10.73-3.43-4.33-.17-7.9.53-10.73 3.43"/><path fill="#000" d="M606.55 663.3c1.99-.17 3.14 1.33 5.45 2.81-2.88-.4-4.28-1.39-5.37-2.92l-.1.1zm-38.98 87.27c.41-2.19.64-4.63 1.37-6.91.64-2 1.78-3.95 4.26-4.13 2.58-.2 4.79.66 6.24 2.94.43.67.92 1.4 1.05 2.17 1.05 6.52 2.22 13.07-.49 19.5-.84 2-2.05 3.74-4.46 3.96-2.54.22-4.45-1.27-5.61-4.47-1.5-4.14-1.73-8.52-2.37-13.04zm4.47-3.59c-1.1 6.2-1.2 11.73.01 17.3.04.15.14.3.21.44.6 1.18 1.33 1.2 2.25.31 2.41-2.3 3.07-4.99 1.76-8.19-1.26-3.05-1.07-6.7-4.24-9.86zm61.14 11.67a7 7 0 0 1-1.32 4.86c-1.67 2.15-3.84 2.2-5.67.13-2.4-2.68-2.6-5.88-1.6-9.07.64-2.05 2.25-3.55 4.75-3.35 2.03.16 3.4 1.77 3.7 4.35.1.8.08 1.61.15 3.07zm-7.53-2.14c-.72 4.38.74 6.42 3.77 5.2 1.12-.46 2.01-1.46.55-2.49-1.39-.96-2.2-2.9-4.32-2.71m-12.4 16.79c3.16.21 5.54.72 7.79 1.58 1.19.46 3.24.61 2.7 2.69-.47 1.8-1.7 3.15-3.77 3.2a15 15 0 0 1-5.18-1.01c-.76-.26-1.54-.5-2.24-.88-1.33-.73-3.47-.93-3.1-3.08.4-2.49 2.55-2.51 3.8-2.51zm-21.96-22.47c4.23-.97 8.06.79 12.01 1.8-4.15.56-8.23.64-12-1.8m.78-7.38 10.99 3.11-.05.61c-2.07-.2-4.2-.13-6.18-.66-1.66-.44-4.54.91-4.76-3.06m10.8-2.52c-4.73-1.06-9.58-1.15-14.35-2.04 4.83-.74 9.56-.1 14.23 1.16.11.02.08.57.11.88zm30.66 28.84c1.18 3.77-.3 6.07-2.5 8.17z"/><path fill="#000" d="m602.87 740.93 4.14-.28.02.28zm45.47-6.1c11 1.07 20.25 5.9 29.01 12.7-1.85.91-2.87-.18-3.94-.62-6.72-2.74-13.4-5.6-20.11-8.38-1.94-.8-3.68-1.82-4.96-3.7m31.2 15.75c.6 1.08.69 2.08-.45 2.87q-.54.36-.74-.27c-.38-1.2-.15-2.15 1.19-2.6m26.86 55.1c-6.21-2.78-11.36-6.75-16.73-10.32-2.17-1.45-4.05-2.55-5.54 1.03-1.78-2.92-.11-4.76 1-6.6.43-.71 1.43-.71 2.23-.36 7.8 3.44 14.92 7.72 19.29 15.45.04.08-.08.26-.25.8m-5.35-19.11a19.4 19.4 0 0 1 11.06 8.38c.76 1.18 1.17 2.64 1.85 3.93.56 1.08.38 2.27-.84 2.94-.85.47-1.71.78-2.7.04-3.38-2.51-6.84-4.93-10.22-7.45a8 8 0 0 1-2-2.12c-.73-1.17-2.03-2.3-1.02-3.92.9-1.44 2.55-1.25 3.88-1.8zm.78 4.03c2.45 3.42 4.68 7.1 8.87 8.8-1.35-4.48-5.15-6.6-8.87-8.8m5.11 19.17c-.13 1.44-4.29 4.33-5.6 3.98-.77-.2-1.06-.8-.72-1.45a47 47 0 0 1 2.37-4.19c.42-.65 1.09-1.32 2-.79.98.57 1.82 1.31 1.96 2.45zm11.1-18.43c-1.38-3.88-4.25-6.37-7.72-8.3-.73-.42-1.48-.71-1.84.45-1.13-.38-1.37-1.28-1.14-2.27.16-.73.87-.8 1.52-.76 3.06.21 9.3 6.05 9.58 9.05.05.59-.26 1.22-.41 1.83z"/><path fill="#000" d="M715.5 793.15c1.03-.4 2.57-.2 2.49-2 1.28 1.05 1.69 2.57.4 3.52-1.21.9-2.13-.55-2.88-1.52zM387.18 517.83c-5.36-6.92-6.26-15.45-9.56-23.19-1.1 6.77-1.61 13.57-3.13 20.22-.35 1.55.9 1.99 1.88 2.42 3.53 1.57 7.1 3.02 10.91 4.62-4.27.51-13.25-1.9-16.07-4.03-1.13-.85-1.32-1.72-.83-2.92 3.22-7.92 4.01-16.37 5.5-24.67.27-1.57.2-3.25 1.76-4.84 4.86 10.46 7.32 21.4 9.53 32.38zm-34.49 72.2c-.15-4.3 3.16-7.6 2.64-11.7-1.66 1.13-1.04 3.36-2.46 4.82-.9-2.55.5-4.7.87-6.94.14-.83.8-1.45 1.78-.83.6.38 1.5.09 1.77 1.25.74 3.24-1.62 10.77-4.6 13.4m149.13 369.7c-10.48-1.24-20.1-5.01-29.73-8.7-13.5-5.17-26.9-10.62-40.38-15.88-3.02-1.18-6.13-2.2-9.24-3.13-3.55-1.08-7.27-1.58-10.26-4.14-1.4-1.2-3.34-1.08-5.28-1.33.88-5.74 2.55-11.12 4.17-16.53.73-2.42 2.04-3.1 4.32-2.42 4.37 1.29 8.84 2.28 13.08 3.9 18.2 6.98 36.58 13.62 54.3 21.8 6.92 3.2 13.72 6.66 20.88 9.34 1.94.72 1.4 1.96 1.17 3.1-.97 4.75-2.05 9.5-3.04 13.99zm-52.97-35.33c-.52.13-1.36.19-1.23.97.18 1.04 1.22 1.36 2.12 1.47.6.07 1.32-.42 1.26-1.09-.1-1.18-1.15-1.25-2.15-1.34zm43.04 22.38c-1.3-.07-1.47.6-1.75 1.17-.37.72-.8 1.67.1 2.08 1.24.56 1.58-.6 1.82-1.49.15-.58.29-1.25-.17-1.77m-74.16-25.54c-.94.34-.83 1.22-.98 1.93-.18.85.08 1.67 1.04 1.68.64 0 .96-.72 1-1.38.05-.93.22-1.93-1.06-2.24zm74.35 21.6c.07-.81-.41-1.19-1.08-1.3-.82-.13-1.76-.05-2.21.6-.37.52.13 1.2.83 1.37.94.24 1.9.44 2.47-.66zm-61.94-26.14c-.7.91-.59 1.8.08 2.6.1.12.7.12.8-.03.88-1.23.13-1.95-.88-2.57m51.92 25.83c-.19-.07-.45.41-.46.87-.01 1.1.69 1.74 1.69 2 .58.16.92-.3.96-.78.09-1.18-.7-1.68-2.18-2.1zm-8.41-7.05c-.23-.71-.53-1.46-1.46-1.48-.43-.01-.94.16-.64.83.3.7.55 1.51 1.46 1.6.6.07.65-.45.64-.96zm3.63 10.14c-.5.12-1.28-.06-1.3.82 0 .48.32.84.9.77.6-.09 1.27-.2 1.36-.94.07-.56-.46-.62-.95-.65zm-17.61-5.6c-.15-.93-.86-1.25-1.63-1.53-.66-.23-.94.2-.91.69.04.91.75 1.34 1.55 1.52.45.1.93-.05.99-.66zm-54.21-6.97c17.2 5.1 33.58 12.34 51.21 15.7 11.1 2.12 21 7.75 31.32 12.1 2.84 1.2 5.62 2.53 8.56 3.5 3.77 1.24 3.84 1.34 3.4 5.18-.77 6.8-.86 6.03-6.41 4.5-7.96-2.18-15.91-4.56-23.4-8.26a63 63 0 0 0-24.84-6.5c-6.53-.36-12.8-2.22-19.03-4.14a129 129 0 0 1-16.38-6.2c-1.48-.68-3.6.4-4.44-1.24-1.05-2.02-1.18-4.36-.92-6.67l.9-7.97zm49 34.58q-3.77 7.78-11.24 5.5a181 181 0 0 0-19.85-4.73c-5.47-.99-11.12-2.1-16.86-1.75-3.45.22-3.91-.72-2.82-4.08.45-1.4.97-2.76 1.47-4.12.38-1-.5-2.49.87-3.02 1.34-.52 2.8-.98 4.27-.6 2.52.63 5.01 1.36 7.51 2.08 8.9 2.57 17.42 6.32 26.43 8.49 3.3.8 6.64 1.46 10.24 2.24zm21.98 14.45c-7.62-4.18-15.3-8.15-25.2-6.1 2.39-3.24 4.2-5.67 5.97-8.14.8-1.1 1.9-1.2 3.04-.99 2.22.44 4.5.8 6.6 1.6 8.5 3.27 17.27 5.56 26.17 7.4 1.43.3 2.83.69 4.26 1.03.66.16 1.17.48 1.46 1.13 1.33 2.96-1.56 7.74-4.68 7.14-5.88-1.14-11.96-1.1-17.65-3.2l.04.12z"/><path fill="#000" d="m476.44 982.07-.04-.12c-1.24 1.04-2.73 1-4.18.84-6.75-.75-13.52-.78-20.28-2-11.62-2.12-23.11-4.87-34.74-6.9-3.4-.6-7.07-.86-10.03-3.09.77-1.61 1.77-2.31 3.46-1.97 10.74 2.17 21.93 2.02 32.2 6.7 3.36 1.54 7.2 2.03 10.92 1.87 5.14-.23 9.98.67 14.73 2.52 2.57.99 5.17 1.93 7.96 2.14zm-11.2 2.7c9.97-.6 19.58 2.77 29.48 1.81.5 2.65-.88 3.1-2.65 2.97-3.56-.27-7.1-.76-10.66-.95-4.68-.26-9.32-.77-13.77-2.3-.83-.3-2.02-.08-2.4-1.54m-2.07-630.26c-.1 2.75.22 5.08-2.31 6.04-1.36.51-3.79-1.96-4.34-4.54-.51-2.39-.63-4.85.88-7.02.86-1.25 1.75-1.67 3.12-.35 1.89 1.84 2.8 3.92 2.64 5.87zm-115.6-71.32a22 22 0 0 1-9.12-2.36c-2.79-1.5-2.88-2.99-.67-5.36 2.06-2.22 4.82-2.91 7.55-2.76 3.07.17 6.12.66 9.2.8.79.04 1.57.43 2.3.77 3.3 1.53 3.51 3.49.58 5.78-2.95 2.3-6.49 2.8-9.85 3.13zm-6.35-4.38c4.04 1.87 7.5 2.57 10 1.93 1.86-.48 3.97-.92 4.22-3.28.15-1.35-2.96-2.65-5.33-2.03-2.93.76-5.92 1.49-8.9 3.38m1.53-2.81c.47-.3 1-.6 1.48-.95.25-.2.1-.45-.33-.35s-.8.4-1.2.62q-.67.32.05.68m19.27-5.14c-.84-.44-.72-1.3-.75-2.01-.06-1.09-.16-2.25.84-3.05.43-.34.98-.2 1.28.14.98 1.07.92 2.32.34 3.53-.32.67-.67 1.48-1.71 1.4m-21.88-3.78c-.42.95-.83 2.01-2.07 2.13-.5.04-.65-.53-.53-1.01.22-.96.69-1.74 1.73-1.94.55-.1.85.22.87.82M645.8 477.6c-.1 1.91-.1 3.83-.28 5.73-.18 1.8-1.25 3.18-3.03 3.23-2 .05-2.45-1.69-2.63-3.37-.06-.49-.15-.96-.15-1.45-.03-4.35 2.29-5.83 6.26-4l-.16-.15z"/></svg>